G04 #@! TF.GenerationSoftware,KiCad,Pcbnew,(5.1.6)-1*
G04 #@! TF.CreationDate,2020-05-28T20:04:45-07:00*
G04 #@! TF.ProjectId,crokto,63726f6b-746f-42e6-9b69-6361645f7063,rev?*
G04 #@! TF.SameCoordinates,Original*
G04 #@! TF.FileFunction,Legend,Bot*
G04 #@! TF.FilePolarity,Positive*
%FSLAX46Y46*%
G04 Gerber Fmt 4.6, Leading zero omitted, Abs format (unit mm)*
G04 Created by KiCad (PCBNEW (5.1.6)-1) date 2020-05-28 20:04:45*
%MOMM*%
%LPD*%
G01*
G04 APERTURE LIST*
%ADD10C,0.500000*%
%ADD11C,0.010000*%
G04 APERTURE END LIST*
D10*
X93246428Y-8571428D02*
X93389285Y-8714285D01*
X93817857Y-8857142D01*
X94103571Y-8857142D01*
X94532142Y-8714285D01*
X94817857Y-8428571D01*
X94960714Y-8142857D01*
X95103571Y-7571428D01*
X95103571Y-7142857D01*
X94960714Y-6571428D01*
X94817857Y-6285714D01*
X94532142Y-6000000D01*
X94103571Y-5857142D01*
X93817857Y-5857142D01*
X93389285Y-6000000D01*
X93246428Y-6142857D01*
X91960714Y-8857142D02*
X91960714Y-5857142D01*
X90675000Y-8857142D02*
X90675000Y-7285714D01*
X90817857Y-7000000D01*
X91103571Y-6857142D01*
X91532142Y-6857142D01*
X91817857Y-7000000D01*
X91960714Y-7142857D01*
X89246428Y-8857142D02*
X89246428Y-6857142D01*
X89246428Y-7428571D02*
X89103571Y-7142857D01*
X88960714Y-7000000D01*
X88675000Y-6857142D01*
X88389285Y-6857142D01*
X87389285Y-8857142D02*
X87389285Y-6857142D01*
X87389285Y-5857142D02*
X87532142Y-6000000D01*
X87389285Y-6142857D01*
X87246428Y-6000000D01*
X87389285Y-5857142D01*
X87389285Y-6142857D01*
X86103571Y-8714285D02*
X85817857Y-8857142D01*
X85246428Y-8857142D01*
X84960714Y-8714285D01*
X84817857Y-8428571D01*
X84817857Y-8285714D01*
X84960714Y-8000000D01*
X85246428Y-7857142D01*
X85675000Y-7857142D01*
X85960714Y-7714285D01*
X86103571Y-7428571D01*
X86103571Y-7285714D01*
X85960714Y-7000000D01*
X85675000Y-6857142D01*
X85246428Y-6857142D01*
X84960714Y-7000000D01*
X79675000Y-6000000D02*
X79960714Y-5857142D01*
X80389285Y-5857142D01*
X80817857Y-6000000D01*
X81103571Y-6285714D01*
X81246428Y-6571428D01*
X81389285Y-7142857D01*
X81389285Y-7571428D01*
X81246428Y-8142857D01*
X81103571Y-8428571D01*
X80817857Y-8714285D01*
X80389285Y-8857142D01*
X80103571Y-8857142D01*
X79675000Y-8714285D01*
X79532142Y-8571428D01*
X79532142Y-7571428D01*
X80103571Y-7571428D01*
X78246428Y-8857142D02*
X78246428Y-6857142D01*
X78246428Y-7428571D02*
X78103571Y-7142857D01*
X77960714Y-7000000D01*
X77675000Y-6857142D01*
X77389285Y-6857142D01*
X75960714Y-8857142D02*
X76246428Y-8714285D01*
X76389285Y-8571428D01*
X76532142Y-8285714D01*
X76532142Y-7428571D01*
X76389285Y-7142857D01*
X76246428Y-7000000D01*
X75960714Y-6857142D01*
X75532142Y-6857142D01*
X75246428Y-7000000D01*
X75103571Y-7142857D01*
X74960714Y-7428571D01*
X74960714Y-8285714D01*
X75103571Y-8571428D01*
X75246428Y-8714285D01*
X75532142Y-8857142D01*
X75960714Y-8857142D01*
X73817857Y-8714285D02*
X73532142Y-8857142D01*
X72960714Y-8857142D01*
X72675000Y-8714285D01*
X72532142Y-8428571D01*
X72532142Y-8285714D01*
X72675000Y-8000000D01*
X72960714Y-7857142D01*
X73389285Y-7857142D01*
X73675000Y-7714285D01*
X73817857Y-7428571D01*
X73817857Y-7285714D01*
X73675000Y-7000000D01*
X73389285Y-6857142D01*
X72960714Y-6857142D01*
X72675000Y-7000000D01*
X71389285Y-8714285D02*
X71103571Y-8857142D01*
X70532142Y-8857142D01*
X70246428Y-8714285D01*
X70103571Y-8428571D01*
X70103571Y-8285714D01*
X70246428Y-8000000D01*
X70532142Y-7857142D01*
X70960714Y-7857142D01*
X71246428Y-7714285D01*
X71389285Y-7428571D01*
X71389285Y-7285714D01*
X71246428Y-7000000D01*
X70960714Y-6857142D01*
X70532142Y-6857142D01*
X70246428Y-7000000D01*
X68817857Y-8857142D02*
X68817857Y-6857142D01*
X68817857Y-7142857D02*
X68675000Y-7000000D01*
X68389285Y-6857142D01*
X67960714Y-6857142D01*
X67675000Y-7000000D01*
X67532142Y-7285714D01*
X67532142Y-8857142D01*
X67532142Y-7285714D02*
X67389285Y-7000000D01*
X67103571Y-6857142D01*
X66675000Y-6857142D01*
X66389285Y-7000000D01*
X66246428Y-7285714D01*
X66246428Y-8857142D01*
X63532142Y-8857142D02*
X63532142Y-7285714D01*
X63674999Y-7000000D01*
X63960714Y-6857142D01*
X64532142Y-6857142D01*
X64817857Y-7000000D01*
X63532142Y-8714285D02*
X63817857Y-8857142D01*
X64532142Y-8857142D01*
X64817857Y-8714285D01*
X64960714Y-8428571D01*
X64960714Y-8142857D01*
X64817857Y-7857142D01*
X64532142Y-7714285D01*
X63817857Y-7714285D01*
X63532142Y-7571428D01*
X62103571Y-6857142D02*
X62103571Y-8857142D01*
X62103571Y-7142857D02*
X61960714Y-7000000D01*
X61674999Y-6857142D01*
X61246428Y-6857142D01*
X60960714Y-7000000D01*
X60817857Y-7285714D01*
X60817857Y-8857142D01*
X94960714Y-13857142D02*
X94960714Y-10857142D01*
X93246428Y-13857142D02*
X94532142Y-12142857D01*
X93246428Y-10857142D02*
X94960714Y-12571428D01*
X90817857Y-13714285D02*
X91103571Y-13857142D01*
X91675000Y-13857142D01*
X91960714Y-13714285D01*
X92103571Y-13428571D01*
X92103571Y-12285714D01*
X91960714Y-12000000D01*
X91675000Y-11857142D01*
X91103571Y-11857142D01*
X90817857Y-12000000D01*
X90675000Y-12285714D01*
X90675000Y-12571428D01*
X92103571Y-12857142D01*
X89675000Y-11857142D02*
X88960714Y-13857142D01*
X88246428Y-11857142D02*
X88960714Y-13857142D01*
X89246428Y-14571428D01*
X89389285Y-14714285D01*
X89675000Y-14857142D01*
X87103571Y-13857142D02*
X87103571Y-10857142D01*
X87103571Y-12000000D02*
X86817857Y-11857142D01*
X86246428Y-11857142D01*
X85960714Y-12000000D01*
X85817857Y-12142857D01*
X85675000Y-12428571D01*
X85675000Y-13285714D01*
X85817857Y-13571428D01*
X85960714Y-13714285D01*
X86246428Y-13857142D01*
X86817857Y-13857142D01*
X87103571Y-13714285D01*
X83960714Y-13857142D02*
X84246428Y-13714285D01*
X84389285Y-13571428D01*
X84532142Y-13285714D01*
X84532142Y-12428571D01*
X84389285Y-12142857D01*
X84246428Y-12000000D01*
X83960714Y-11857142D01*
X83532142Y-11857142D01*
X83246428Y-12000000D01*
X83103571Y-12142857D01*
X82960714Y-12428571D01*
X82960714Y-13285714D01*
X83103571Y-13571428D01*
X83246428Y-13714285D01*
X83532142Y-13857142D01*
X83960714Y-13857142D01*
X80389285Y-13857142D02*
X80389285Y-12285714D01*
X80532142Y-12000000D01*
X80817857Y-11857142D01*
X81389285Y-11857142D01*
X81675000Y-12000000D01*
X80389285Y-13714285D02*
X80675000Y-13857142D01*
X81389285Y-13857142D01*
X81675000Y-13714285D01*
X81817857Y-13428571D01*
X81817857Y-13142857D01*
X81675000Y-12857142D01*
X81389285Y-12714285D01*
X80675000Y-12714285D01*
X80389285Y-12571428D01*
X78960714Y-13857142D02*
X78960714Y-11857142D01*
X78960714Y-12428571D02*
X78817857Y-12142857D01*
X78675000Y-12000000D01*
X78389285Y-11857142D01*
X78103571Y-11857142D01*
X75817857Y-13857142D02*
X75817857Y-10857142D01*
X75817857Y-13714285D02*
X76103571Y-13857142D01*
X76675000Y-13857142D01*
X76960714Y-13714285D01*
X77103571Y-13571428D01*
X77246428Y-13285714D01*
X77246428Y-12428571D01*
X77103571Y-12142857D01*
X76960714Y-12000000D01*
X76675000Y-11857142D01*
X76103571Y-11857142D01*
X75817857Y-12000000D01*
X72103571Y-13857142D02*
X72103571Y-10857142D01*
X71389285Y-10857142D01*
X70960714Y-11000000D01*
X70675000Y-11285714D01*
X70532142Y-11571428D01*
X70389285Y-12142857D01*
X70389285Y-12571428D01*
X70532142Y-13142857D01*
X70675000Y-13428571D01*
X70960714Y-13714285D01*
X71389285Y-13857142D01*
X72103571Y-13857142D01*
X67960714Y-13714285D02*
X68246428Y-13857142D01*
X68817857Y-13857142D01*
X69103571Y-13714285D01*
X69246428Y-13428571D01*
X69246428Y-12285714D01*
X69103571Y-12000000D01*
X68817857Y-11857142D01*
X68246428Y-11857142D01*
X67960714Y-12000000D01*
X67817857Y-12285714D01*
X67817857Y-12571428D01*
X69246428Y-12857142D01*
X66675000Y-13714285D02*
X66389285Y-13857142D01*
X65817857Y-13857142D01*
X65532142Y-13714285D01*
X65389285Y-13428571D01*
X65389285Y-13285714D01*
X65532142Y-13000000D01*
X65817857Y-12857142D01*
X66246428Y-12857142D01*
X66532142Y-12714285D01*
X66675000Y-12428571D01*
X66675000Y-12285714D01*
X66532142Y-12000000D01*
X66246428Y-11857142D01*
X65817857Y-11857142D01*
X65532142Y-12000000D01*
X64103571Y-13857142D02*
X64103571Y-11857142D01*
X64103571Y-10857142D02*
X64246428Y-11000000D01*
X64103571Y-11142857D01*
X63960714Y-11000000D01*
X64103571Y-10857142D01*
X64103571Y-11142857D01*
X61389285Y-11857142D02*
X61389285Y-14285714D01*
X61532142Y-14571428D01*
X61675000Y-14714285D01*
X61960714Y-14857142D01*
X62389285Y-14857142D01*
X62675000Y-14714285D01*
X61389285Y-13714285D02*
X61675000Y-13857142D01*
X62246428Y-13857142D01*
X62532142Y-13714285D01*
X62675000Y-13571428D01*
X62817857Y-13285714D01*
X62817857Y-12428571D01*
X62675000Y-12142857D01*
X62532142Y-12000000D01*
X62246428Y-11857142D01*
X61675000Y-11857142D01*
X61389285Y-12000000D01*
X59960714Y-11857142D02*
X59960714Y-13857142D01*
X59960714Y-12142857D02*
X59817857Y-12000000D01*
X59532142Y-11857142D01*
X59103571Y-11857142D01*
X58817857Y-12000000D01*
X58675000Y-12285714D01*
X58675000Y-13857142D01*
X56103571Y-13714285D02*
X56389285Y-13857142D01*
X56960714Y-13857142D01*
X57246428Y-13714285D01*
X57389285Y-13428571D01*
X57389285Y-12285714D01*
X57246428Y-12000000D01*
X56960714Y-11857142D01*
X56389285Y-11857142D01*
X56103571Y-12000000D01*
X55960714Y-12285714D01*
X55960714Y-12571428D01*
X57389285Y-12857142D01*
X54675000Y-13857142D02*
X54675000Y-11857142D01*
X54675000Y-12428571D02*
X54532142Y-12142857D01*
X54389285Y-12000000D01*
X54103571Y-11857142D01*
X53817857Y-11857142D01*
X93675000Y-18714285D02*
X93960714Y-18857142D01*
X94532142Y-18857142D01*
X94817857Y-18714285D01*
X94960714Y-18571428D01*
X95103571Y-18285714D01*
X95103571Y-17428571D01*
X94960714Y-17142857D01*
X94817857Y-17000000D01*
X94532142Y-16857142D01*
X93960714Y-16857142D01*
X93675000Y-17000000D01*
X92389285Y-18857142D02*
X92389285Y-16857142D01*
X92389285Y-17428571D02*
X92246428Y-17142857D01*
X92103571Y-17000000D01*
X91817857Y-16857142D01*
X91532142Y-16857142D01*
X90103571Y-18857142D02*
X90389285Y-18714285D01*
X90532142Y-18571428D01*
X90675000Y-18285714D01*
X90675000Y-17428571D01*
X90532142Y-17142857D01*
X90389285Y-17000000D01*
X90103571Y-16857142D01*
X89675000Y-16857142D01*
X89389285Y-17000000D01*
X89246428Y-17142857D01*
X89103571Y-17428571D01*
X89103571Y-18285714D01*
X89246428Y-18571428D01*
X89389285Y-18714285D01*
X89675000Y-18857142D01*
X90103571Y-18857142D01*
X87817857Y-18857142D02*
X87817857Y-15857142D01*
X87532142Y-17714285D02*
X86675000Y-18857142D01*
X86675000Y-16857142D02*
X87817857Y-18000000D01*
X85817857Y-16857142D02*
X84675000Y-16857142D01*
X85389285Y-15857142D02*
X85389285Y-18428571D01*
X85246428Y-18714285D01*
X84960714Y-18857142D01*
X84675000Y-18857142D01*
X83246428Y-18857142D02*
X83532142Y-18714285D01*
X83675000Y-18571428D01*
X83817857Y-18285714D01*
X83817857Y-17428571D01*
X83675000Y-17142857D01*
X83532142Y-17000000D01*
X83246428Y-16857142D01*
X82817857Y-16857142D01*
X82532142Y-17000000D01*
X82389285Y-17142857D01*
X82246428Y-17428571D01*
X82246428Y-18285714D01*
X82389285Y-18571428D01*
X82532142Y-18714285D01*
X82817857Y-18857142D01*
X83246428Y-18857142D01*
X79103571Y-17428571D02*
X79246428Y-17285714D01*
X79532142Y-17142857D01*
X79817857Y-17142857D01*
X80103571Y-17285714D01*
X80246428Y-17428571D01*
X80389285Y-17714285D01*
X80389285Y-18000000D01*
X80246428Y-18285714D01*
X80103571Y-18428571D01*
X79817857Y-18571428D01*
X79532142Y-18571428D01*
X79246428Y-18428571D01*
X79103571Y-18285714D01*
X79103571Y-17142857D02*
X79103571Y-18285714D01*
X78960714Y-18428571D01*
X78817857Y-18428571D01*
X78532142Y-18285714D01*
X78389285Y-18000000D01*
X78389285Y-17285714D01*
X78675000Y-16857142D01*
X79103571Y-16571428D01*
X79675000Y-16428571D01*
X80246428Y-16571428D01*
X80675000Y-16857142D01*
X80960714Y-17285714D01*
X81103571Y-17857142D01*
X80960714Y-18428571D01*
X80675000Y-18857142D01*
X80246428Y-19142857D01*
X79675000Y-19285714D01*
X79103571Y-19142857D01*
X78675000Y-18857142D01*
X77103571Y-18857142D02*
X77103571Y-16857142D01*
X77103571Y-17142857D02*
X76960714Y-17000000D01*
X76675000Y-16857142D01*
X76246428Y-16857142D01*
X75960714Y-17000000D01*
X75817857Y-17285714D01*
X75817857Y-18857142D01*
X75817857Y-17285714D02*
X75675000Y-17000000D01*
X75389285Y-16857142D01*
X74960714Y-16857142D01*
X74675000Y-17000000D01*
X74532142Y-17285714D01*
X74532142Y-18857142D01*
X71960714Y-18714285D02*
X72246428Y-18857142D01*
X72817857Y-18857142D01*
X73103571Y-18714285D01*
X73246428Y-18428571D01*
X73246428Y-17285714D01*
X73103571Y-17000000D01*
X72817857Y-16857142D01*
X72246428Y-16857142D01*
X71960714Y-17000000D01*
X71817857Y-17285714D01*
X71817857Y-17571428D01*
X73246428Y-17857142D01*
X70960714Y-16857142D02*
X69817857Y-16857142D01*
X70532142Y-15857142D02*
X70532142Y-18428571D01*
X70389285Y-18714285D01*
X70103571Y-18857142D01*
X69817857Y-18857142D01*
X67532142Y-18857142D02*
X67532142Y-17285714D01*
X67675000Y-17000000D01*
X67960714Y-16857142D01*
X68532142Y-16857142D01*
X68817857Y-17000000D01*
X67532142Y-18714285D02*
X67817857Y-18857142D01*
X68532142Y-18857142D01*
X68817857Y-18714285D01*
X68960714Y-18428571D01*
X68960714Y-18142857D01*
X68817857Y-17857142D01*
X68532142Y-17714285D01*
X67817857Y-17714285D01*
X67532142Y-17571428D01*
X66103571Y-18857142D02*
X66103571Y-16857142D01*
X66103571Y-17142857D02*
X65960714Y-17000000D01*
X65675000Y-16857142D01*
X65246428Y-16857142D01*
X64960714Y-17000000D01*
X64817857Y-17285714D01*
X64817857Y-18857142D01*
X64817857Y-17285714D02*
X64675000Y-17000000D01*
X64389285Y-16857142D01*
X63960714Y-16857142D01*
X63675000Y-17000000D01*
X63532142Y-17285714D01*
X63532142Y-18857142D01*
X60960714Y-18714285D02*
X61246428Y-18857142D01*
X61817857Y-18857142D01*
X62103571Y-18714285D01*
X62246428Y-18428571D01*
X62246428Y-17285714D01*
X62103571Y-17000000D01*
X61817857Y-16857142D01*
X61246428Y-16857142D01*
X60960714Y-17000000D01*
X60817857Y-17285714D01*
X60817857Y-17571428D01*
X62246428Y-17857142D01*
X58246428Y-18714285D02*
X58532142Y-18857142D01*
X59103571Y-18857142D01*
X59389285Y-18714285D01*
X59532142Y-18571428D01*
X59675000Y-18285714D01*
X59675000Y-17428571D01*
X59532142Y-17142857D01*
X59389285Y-17000000D01*
X59103571Y-16857142D01*
X58532142Y-16857142D01*
X58246428Y-17000000D01*
X56960714Y-18857142D02*
X56960714Y-15857142D01*
X55675000Y-18857142D02*
X55675000Y-17285714D01*
X55817857Y-17000000D01*
X56103571Y-16857142D01*
X56532142Y-16857142D01*
X56817857Y-17000000D01*
X56960714Y-17142857D01*
X54389285Y-18714285D02*
X54103571Y-18857142D01*
X53532142Y-18857142D01*
X53246428Y-18714285D01*
X53103571Y-18428571D01*
X53103571Y-18285714D01*
X53246428Y-18000000D01*
X53532142Y-17857142D01*
X53960714Y-17857142D01*
X54246428Y-17714285D01*
X54389285Y-17428571D01*
X54389285Y-17285714D01*
X54246428Y-17000000D01*
X53960714Y-16857142D01*
X53532142Y-16857142D01*
X53246428Y-17000000D01*
X51817857Y-18571428D02*
X51675000Y-18714285D01*
X51817857Y-18857142D01*
X51960714Y-18714285D01*
X51817857Y-18571428D01*
X51817857Y-18857142D01*
X49103571Y-18714285D02*
X49389285Y-18857142D01*
X49960714Y-18857142D01*
X50246428Y-18714285D01*
X50389285Y-18571428D01*
X50532142Y-18285714D01*
X50532142Y-17428571D01*
X50389285Y-17142857D01*
X50246428Y-17000000D01*
X49960714Y-16857142D01*
X49389285Y-16857142D01*
X49103571Y-17000000D01*
X47389285Y-18857142D02*
X47674999Y-18714285D01*
X47817857Y-18571428D01*
X47960714Y-18285714D01*
X47960714Y-17428571D01*
X47817857Y-17142857D01*
X47674999Y-17000000D01*
X47389285Y-16857142D01*
X46960714Y-16857142D01*
X46674999Y-17000000D01*
X46532142Y-17142857D01*
X46389285Y-17428571D01*
X46389285Y-18285714D01*
X46532142Y-18571428D01*
X46674999Y-18714285D01*
X46960714Y-18857142D01*
X47389285Y-18857142D01*
X45103571Y-18857142D02*
X45103571Y-16857142D01*
X45103571Y-17142857D02*
X44960714Y-17000000D01*
X44674999Y-16857142D01*
X44246428Y-16857142D01*
X43960714Y-17000000D01*
X43817857Y-17285714D01*
X43817857Y-18857142D01*
X43817857Y-17285714D02*
X43674999Y-17000000D01*
X43389285Y-16857142D01*
X42960714Y-16857142D01*
X42675000Y-17000000D01*
X42532142Y-17285714D01*
X42532142Y-18857142D01*
X94960714Y-23857142D02*
X94960714Y-20857142D01*
X94675000Y-22714285D02*
X93817857Y-23857142D01*
X93817857Y-21857142D02*
X94960714Y-23000000D01*
X92532142Y-23857142D02*
X92532142Y-20857142D01*
X92532142Y-22000000D02*
X92246428Y-21857142D01*
X91675000Y-21857142D01*
X91389285Y-22000000D01*
X91246428Y-22142857D01*
X91103571Y-22428571D01*
X91103571Y-23285714D01*
X91246428Y-23571428D01*
X91389285Y-23714285D01*
X91675000Y-23857142D01*
X92246428Y-23857142D01*
X92532142Y-23714285D01*
X89817857Y-23571428D02*
X89675000Y-23714285D01*
X89817857Y-23857142D01*
X89960714Y-23714285D01*
X89817857Y-23571428D01*
X89817857Y-23857142D01*
X88389285Y-23857142D02*
X88389285Y-21857142D01*
X88389285Y-22142857D02*
X88246428Y-22000000D01*
X87960714Y-21857142D01*
X87532142Y-21857142D01*
X87246428Y-22000000D01*
X87103571Y-22285714D01*
X87103571Y-23857142D01*
X87103571Y-22285714D02*
X86960714Y-22000000D01*
X86675000Y-21857142D01*
X86246428Y-21857142D01*
X85960714Y-22000000D01*
X85817857Y-22285714D01*
X85817857Y-23857142D01*
X83246428Y-23714285D02*
X83532142Y-23857142D01*
X84103571Y-23857142D01*
X84389285Y-23714285D01*
X84532142Y-23428571D01*
X84532142Y-22285714D01*
X84389285Y-22000000D01*
X84103571Y-21857142D01*
X83532142Y-21857142D01*
X83246428Y-22000000D01*
X83103571Y-22285714D01*
X83103571Y-22571428D01*
X84532142Y-22857142D01*
X82246428Y-21857142D02*
X81103571Y-21857142D01*
X81817857Y-20857142D02*
X81817857Y-23428571D01*
X81675000Y-23714285D01*
X81389285Y-23857142D01*
X81103571Y-23857142D01*
X78817857Y-23857142D02*
X78817857Y-22285714D01*
X78960714Y-22000000D01*
X79246428Y-21857142D01*
X79817857Y-21857142D01*
X80103571Y-22000000D01*
X78817857Y-23714285D02*
X79103571Y-23857142D01*
X79817857Y-23857142D01*
X80103571Y-23714285D01*
X80246428Y-23428571D01*
X80246428Y-23142857D01*
X80103571Y-22857142D01*
X79817857Y-22714285D01*
X79103571Y-22714285D01*
X78817857Y-22571428D01*
X77389285Y-23857142D02*
X77389285Y-21857142D01*
X77389285Y-22142857D02*
X77246428Y-22000000D01*
X76960714Y-21857142D01*
X76532142Y-21857142D01*
X76246428Y-22000000D01*
X76103571Y-22285714D01*
X76103571Y-23857142D01*
X76103571Y-22285714D02*
X75960714Y-22000000D01*
X75675000Y-21857142D01*
X75246428Y-21857142D01*
X74960714Y-22000000D01*
X74817857Y-22285714D01*
X74817857Y-23857142D01*
X72246428Y-23714285D02*
X72532142Y-23857142D01*
X73103571Y-23857142D01*
X73389285Y-23714285D01*
X73532142Y-23428571D01*
X73532142Y-22285714D01*
X73389285Y-22000000D01*
X73103571Y-21857142D01*
X72532142Y-21857142D01*
X72246428Y-22000000D01*
X72103571Y-22285714D01*
X72103571Y-22571428D01*
X73532142Y-22857142D01*
X69532142Y-23714285D02*
X69817857Y-23857142D01*
X70389285Y-23857142D01*
X70675000Y-23714285D01*
X70817857Y-23571428D01*
X70960714Y-23285714D01*
X70960714Y-22428571D01*
X70817857Y-22142857D01*
X70675000Y-22000000D01*
X70389285Y-21857142D01*
X69817857Y-21857142D01*
X69532142Y-22000000D01*
X68246428Y-23857142D02*
X68246428Y-20857142D01*
X66960714Y-23857142D02*
X66960714Y-22285714D01*
X67103571Y-22000000D01*
X67389285Y-21857142D01*
X67817857Y-21857142D01*
X68103571Y-22000000D01*
X68246428Y-22142857D01*
X65675000Y-23714285D02*
X65389285Y-23857142D01*
X64817857Y-23857142D01*
X64532142Y-23714285D01*
X64389285Y-23428571D01*
X64389285Y-23285714D01*
X64532142Y-23000000D01*
X64817857Y-22857142D01*
X65246428Y-22857142D01*
X65532142Y-22714285D01*
X65675000Y-22428571D01*
X65675000Y-22285714D01*
X65532142Y-22000000D01*
X65246428Y-21857142D01*
X64817857Y-21857142D01*
X64532142Y-22000000D01*
X63103571Y-23571428D02*
X62960714Y-23714285D01*
X63103571Y-23857142D01*
X63246428Y-23714285D01*
X63103571Y-23571428D01*
X63103571Y-23857142D01*
X60389285Y-23714285D02*
X60675000Y-23857142D01*
X61246428Y-23857142D01*
X61532142Y-23714285D01*
X61675000Y-23571428D01*
X61817857Y-23285714D01*
X61817857Y-22428571D01*
X61675000Y-22142857D01*
X61532142Y-22000000D01*
X61246428Y-21857142D01*
X60675000Y-21857142D01*
X60389285Y-22000000D01*
X58675000Y-23857142D02*
X58960714Y-23714285D01*
X59103571Y-23571428D01*
X59246428Y-23285714D01*
X59246428Y-22428571D01*
X59103571Y-22142857D01*
X58960714Y-22000000D01*
X58675000Y-21857142D01*
X58246428Y-21857142D01*
X57960714Y-22000000D01*
X57817857Y-22142857D01*
X57675000Y-22428571D01*
X57675000Y-23285714D01*
X57817857Y-23571428D01*
X57960714Y-23714285D01*
X58246428Y-23857142D01*
X58675000Y-23857142D01*
X56389285Y-23857142D02*
X56389285Y-21857142D01*
X56389285Y-22142857D02*
X56246428Y-22000000D01*
X55960714Y-21857142D01*
X55532142Y-21857142D01*
X55246428Y-22000000D01*
X55103571Y-22285714D01*
X55103571Y-23857142D01*
X55103571Y-22285714D02*
X54960714Y-22000000D01*
X54675000Y-21857142D01*
X54246428Y-21857142D01*
X53960714Y-22000000D01*
X53817857Y-22285714D01*
X53817857Y-23857142D01*
D11*
G36*
X3494800Y-1361200D02*
G01*
X1361200Y-1361200D01*
X1361200Y-3190000D01*
X1666000Y-3190000D01*
X1666000Y-1666000D01*
X3190000Y-1666000D01*
X3190000Y-3190000D01*
X1666000Y-3190000D01*
X1361200Y-3190000D01*
X1361200Y-3494800D01*
X3494800Y-3494800D01*
X3494800Y-1361200D01*
G37*
X3494800Y-1361200D02*
X1361200Y-1361200D01*
X1361200Y-3190000D01*
X1666000Y-3190000D01*
X1666000Y-1666000D01*
X3190000Y-1666000D01*
X3190000Y-3190000D01*
X1666000Y-3190000D01*
X1361200Y-3190000D01*
X1361200Y-3494800D01*
X3494800Y-3494800D01*
X3494800Y-1361200D01*
G36*
X1361200Y-7152400D02*
G01*
X1361200Y-7762000D01*
X1666000Y-7762000D01*
X1666000Y-7152400D01*
X1361200Y-7152400D01*
G37*
X1361200Y-7152400D02*
X1361200Y-7762000D01*
X1666000Y-7762000D01*
X1666000Y-7152400D01*
X1361200Y-7152400D01*
G36*
X4409200Y-8371600D02*
G01*
X4409200Y-8981200D01*
X4256800Y-8981200D01*
X4148855Y-8968613D01*
X4109068Y-8909237D01*
X4104400Y-8828800D01*
X4091812Y-8720856D01*
X4032436Y-8681069D01*
X3952000Y-8676400D01*
X3844055Y-8688988D01*
X3804268Y-8748364D01*
X3799600Y-8828800D01*
X3812187Y-8936745D01*
X3871563Y-8976532D01*
X3952000Y-8981200D01*
X4059944Y-8993788D01*
X4099731Y-9053164D01*
X4104400Y-9133600D01*
X4116987Y-9241545D01*
X4176363Y-9281332D01*
X4256800Y-9286000D01*
X4364744Y-9298588D01*
X4404531Y-9357964D01*
X4409200Y-9438400D01*
X4396612Y-9546345D01*
X4337236Y-9586132D01*
X4256800Y-9590800D01*
X4148855Y-9603388D01*
X4109068Y-9662764D01*
X4104400Y-9743200D01*
X4104400Y-9895600D01*
X3190000Y-9895600D01*
X3190000Y-10200400D01*
X4104400Y-10200400D01*
X4104400Y-10352800D01*
X4091812Y-10460745D01*
X4032436Y-10500532D01*
X3952000Y-10505200D01*
X3799600Y-10505200D01*
X3799600Y-10657600D01*
X4104400Y-10657600D01*
X4116987Y-10549656D01*
X4176363Y-10509869D01*
X4256800Y-10505200D01*
X4364744Y-10517788D01*
X4404531Y-10577164D01*
X4409200Y-10657600D01*
X4714000Y-10657600D01*
X4726587Y-10549656D01*
X4785963Y-10509869D01*
X4866400Y-10505200D01*
X4974344Y-10517788D01*
X5014131Y-10577164D01*
X5018800Y-10657600D01*
X5006212Y-10765545D01*
X4946836Y-10805332D01*
X4866400Y-10810000D01*
X4758455Y-10797413D01*
X4718668Y-10738037D01*
X4714000Y-10657600D01*
X4409200Y-10657600D01*
X4396612Y-10765545D01*
X4337236Y-10805332D01*
X4256800Y-10810000D01*
X4148855Y-10797413D01*
X4109068Y-10738037D01*
X4104400Y-10657600D01*
X3799600Y-10657600D01*
X3799600Y-11114800D01*
X3952000Y-11114800D01*
X4059944Y-11127388D01*
X4099731Y-11186764D01*
X4104400Y-11267200D01*
X4091812Y-11375145D01*
X4032436Y-11414932D01*
X3952000Y-11419600D01*
X3844055Y-11432188D01*
X3804268Y-11491564D01*
X3799600Y-11572000D01*
X3799600Y-11724400D01*
X4714000Y-11724400D01*
X4714000Y-11572000D01*
X4701412Y-11464056D01*
X4642036Y-11424269D01*
X4561600Y-11419600D01*
X4409200Y-11419600D01*
X4409200Y-10810000D01*
X4561600Y-10810000D01*
X4669544Y-10822588D01*
X4709331Y-10881964D01*
X4714000Y-10962400D01*
X4714000Y-11114800D01*
X5323600Y-11114800D01*
X5323600Y-10505200D01*
X5018800Y-10505200D01*
X5018800Y-9895600D01*
X6238000Y-9895600D01*
X6238000Y-9590800D01*
X6847600Y-9590800D01*
X6847600Y-9286000D01*
X8066800Y-9286000D01*
X8066800Y-9438400D01*
X8079387Y-9546345D01*
X8138763Y-9586132D01*
X8219200Y-9590800D01*
X8327144Y-9578213D01*
X8366931Y-9518837D01*
X8371600Y-9438400D01*
X8371600Y-9286000D01*
X8981200Y-9286000D01*
X8981200Y-8371600D01*
X8371600Y-8371600D01*
X8371600Y-8524000D01*
X8384187Y-8631945D01*
X8443563Y-8671732D01*
X8524000Y-8676400D01*
X8631944Y-8688988D01*
X8671731Y-8748364D01*
X8676400Y-8828800D01*
X8676400Y-8981200D01*
X7762000Y-8981200D01*
X7762000Y-8828800D01*
X7774587Y-8720856D01*
X7833963Y-8681069D01*
X7914400Y-8676400D01*
X8022344Y-8663813D01*
X8062131Y-8604437D01*
X8066800Y-8524000D01*
X8054212Y-8416056D01*
X7994836Y-8376269D01*
X7914400Y-8371600D01*
X7806455Y-8359013D01*
X7766668Y-8299637D01*
X7762000Y-8219200D01*
X7774587Y-8111256D01*
X7833963Y-8071469D01*
X7914400Y-8066800D01*
X8022344Y-8054213D01*
X8062131Y-7994837D01*
X8066800Y-7914400D01*
X8079387Y-7806456D01*
X8138763Y-7766669D01*
X8219200Y-7762000D01*
X8371600Y-7762000D01*
X8371600Y-6847600D01*
X8219200Y-6847600D01*
X8111255Y-6860188D01*
X8071468Y-6919564D01*
X8066800Y-7000000D01*
X8054212Y-7107945D01*
X7994836Y-7147732D01*
X7914400Y-7152400D01*
X7806455Y-7164988D01*
X7766668Y-7224364D01*
X7762000Y-7304800D01*
X7749412Y-7412745D01*
X7690036Y-7452532D01*
X7609600Y-7457200D01*
X7501655Y-7469788D01*
X7461868Y-7529164D01*
X7457200Y-7609600D01*
X7457200Y-7762000D01*
X6847600Y-7762000D01*
X6847600Y-7609600D01*
X6835012Y-7501656D01*
X6775636Y-7461869D01*
X6695200Y-7457200D01*
X6587255Y-7469788D01*
X6547468Y-7529164D01*
X6542800Y-7609600D01*
X6530212Y-7717545D01*
X6470836Y-7757332D01*
X6390400Y-7762000D01*
X6282455Y-7774588D01*
X6242668Y-7833964D01*
X6238000Y-7914400D01*
X6250587Y-8022345D01*
X6309963Y-8062132D01*
X6390400Y-8066800D01*
X6498344Y-8079388D01*
X6538131Y-8138764D01*
X6542800Y-8219200D01*
X6555387Y-8327145D01*
X6614763Y-8366932D01*
X6695200Y-8371600D01*
X6803144Y-8359013D01*
X6842931Y-8299637D01*
X6847600Y-8219200D01*
X6847600Y-8066800D01*
X7457200Y-8066800D01*
X7457200Y-8981200D01*
X7304800Y-8981200D01*
X7196855Y-8968613D01*
X7157068Y-8909237D01*
X7152400Y-8828800D01*
X7139812Y-8720856D01*
X7080436Y-8681069D01*
X7000000Y-8676400D01*
X6892055Y-8688988D01*
X6852268Y-8748364D01*
X6847600Y-8828800D01*
X6835012Y-8936745D01*
X6775636Y-8976532D01*
X6695200Y-8981200D01*
X6587255Y-8993788D01*
X6547468Y-9053164D01*
X6542800Y-9133600D01*
X6530212Y-9241545D01*
X6470836Y-9281332D01*
X6390400Y-9286000D01*
X6238000Y-9286000D01*
X6238000Y-8676400D01*
X6390400Y-8676400D01*
X6498344Y-8663813D01*
X6538131Y-8604437D01*
X6542800Y-8524000D01*
X6542800Y-8371600D01*
X5933200Y-8371600D01*
X5933200Y-8524000D01*
X5920612Y-8631945D01*
X5861236Y-8671732D01*
X5780800Y-8676400D01*
X5672855Y-8688988D01*
X5633068Y-8748364D01*
X5628400Y-8828800D01*
X5640987Y-8936745D01*
X5700363Y-8976532D01*
X5780800Y-8981200D01*
X5888744Y-8993788D01*
X5928531Y-9053164D01*
X5933200Y-9133600D01*
X5920612Y-9241545D01*
X5861236Y-9281332D01*
X5780800Y-9286000D01*
X5672855Y-9273413D01*
X5633068Y-9214037D01*
X5628400Y-9133600D01*
X5615812Y-9025656D01*
X5556436Y-8985869D01*
X5476000Y-8981200D01*
X5368055Y-8968613D01*
X5328268Y-8909237D01*
X5323600Y-8828800D01*
X5311012Y-8720856D01*
X5251636Y-8681069D01*
X5171200Y-8676400D01*
X5018800Y-8676400D01*
X5018800Y-9286000D01*
X5171200Y-9286000D01*
X5279144Y-9298588D01*
X5318931Y-9357964D01*
X5323600Y-9438400D01*
X5311012Y-9546345D01*
X5251636Y-9586132D01*
X5171200Y-9590800D01*
X5063255Y-9603388D01*
X5023468Y-9662764D01*
X5018800Y-9743200D01*
X5006212Y-9851145D01*
X4946836Y-9890932D01*
X4866400Y-9895600D01*
X4758455Y-9908188D01*
X4718668Y-9967564D01*
X4714000Y-10048000D01*
X4701412Y-10155945D01*
X4642036Y-10195732D01*
X4561600Y-10200400D01*
X4453655Y-10187813D01*
X4413868Y-10128437D01*
X4409200Y-10048000D01*
X4421787Y-9940056D01*
X4481163Y-9900269D01*
X4561600Y-9895600D01*
X4714000Y-9895600D01*
X4714000Y-9286000D01*
X4561600Y-9286000D01*
X4453655Y-9273413D01*
X4413868Y-9214037D01*
X4409200Y-9133600D01*
X4421787Y-9025656D01*
X4481163Y-8985869D01*
X4561600Y-8981200D01*
X4714000Y-8981200D01*
X4714000Y-8371600D01*
X4409200Y-8371600D01*
G37*
X4409200Y-8371600D02*
X4409200Y-8981200D01*
X4256800Y-8981200D01*
X4148855Y-8968613D01*
X4109068Y-8909237D01*
X4104400Y-8828800D01*
X4091812Y-8720856D01*
X4032436Y-8681069D01*
X3952000Y-8676400D01*
X3844055Y-8688988D01*
X3804268Y-8748364D01*
X3799600Y-8828800D01*
X3812187Y-8936745D01*
X3871563Y-8976532D01*
X3952000Y-8981200D01*
X4059944Y-8993788D01*
X4099731Y-9053164D01*
X4104400Y-9133600D01*
X4116987Y-9241545D01*
X4176363Y-9281332D01*
X4256800Y-9286000D01*
X4364744Y-9298588D01*
X4404531Y-9357964D01*
X4409200Y-9438400D01*
X4396612Y-9546345D01*
X4337236Y-9586132D01*
X4256800Y-9590800D01*
X4148855Y-9603388D01*
X4109068Y-9662764D01*
X4104400Y-9743200D01*
X4104400Y-9895600D01*
X3190000Y-9895600D01*
X3190000Y-10200400D01*
X4104400Y-10200400D01*
X4104400Y-10352800D01*
X4091812Y-10460745D01*
X4032436Y-10500532D01*
X3952000Y-10505200D01*
X3799600Y-10505200D01*
X3799600Y-10657600D01*
X4104400Y-10657600D01*
X4116987Y-10549656D01*
X4176363Y-10509869D01*
X4256800Y-10505200D01*
X4364744Y-10517788D01*
X4404531Y-10577164D01*
X4409200Y-10657600D01*
X4714000Y-10657600D01*
X4726587Y-10549656D01*
X4785963Y-10509869D01*
X4866400Y-10505200D01*
X4974344Y-10517788D01*
X5014131Y-10577164D01*
X5018800Y-10657600D01*
X5006212Y-10765545D01*
X4946836Y-10805332D01*
X4866400Y-10810000D01*
X4758455Y-10797413D01*
X4718668Y-10738037D01*
X4714000Y-10657600D01*
X4409200Y-10657600D01*
X4396612Y-10765545D01*
X4337236Y-10805332D01*
X4256800Y-10810000D01*
X4148855Y-10797413D01*
X4109068Y-10738037D01*
X4104400Y-10657600D01*
X3799600Y-10657600D01*
X3799600Y-11114800D01*
X3952000Y-11114800D01*
X4059944Y-11127388D01*
X4099731Y-11186764D01*
X4104400Y-11267200D01*
X4091812Y-11375145D01*
X4032436Y-11414932D01*
X3952000Y-11419600D01*
X3844055Y-11432188D01*
X3804268Y-11491564D01*
X3799600Y-11572000D01*
X3799600Y-11724400D01*
X4714000Y-11724400D01*
X4714000Y-11572000D01*
X4701412Y-11464056D01*
X4642036Y-11424269D01*
X4561600Y-11419600D01*
X4409200Y-11419600D01*
X4409200Y-10810000D01*
X4561600Y-10810000D01*
X4669544Y-10822588D01*
X4709331Y-10881964D01*
X4714000Y-10962400D01*
X4714000Y-11114800D01*
X5323600Y-11114800D01*
X5323600Y-10505200D01*
X5018800Y-10505200D01*
X5018800Y-9895600D01*
X6238000Y-9895600D01*
X6238000Y-9590800D01*
X6847600Y-9590800D01*
X6847600Y-9286000D01*
X8066800Y-9286000D01*
X8066800Y-9438400D01*
X8079387Y-9546345D01*
X8138763Y-9586132D01*
X8219200Y-9590800D01*
X8327144Y-9578213D01*
X8366931Y-9518837D01*
X8371600Y-9438400D01*
X8371600Y-9286000D01*
X8981200Y-9286000D01*
X8981200Y-8371600D01*
X8371600Y-8371600D01*
X8371600Y-8524000D01*
X8384187Y-8631945D01*
X8443563Y-8671732D01*
X8524000Y-8676400D01*
X8631944Y-8688988D01*
X8671731Y-8748364D01*
X8676400Y-8828800D01*
X8676400Y-8981200D01*
X7762000Y-8981200D01*
X7762000Y-8828800D01*
X7774587Y-8720856D01*
X7833963Y-8681069D01*
X7914400Y-8676400D01*
X8022344Y-8663813D01*
X8062131Y-8604437D01*
X8066800Y-8524000D01*
X8054212Y-8416056D01*
X7994836Y-8376269D01*
X7914400Y-8371600D01*
X7806455Y-8359013D01*
X7766668Y-8299637D01*
X7762000Y-8219200D01*
X7774587Y-8111256D01*
X7833963Y-8071469D01*
X7914400Y-8066800D01*
X8022344Y-8054213D01*
X8062131Y-7994837D01*
X8066800Y-7914400D01*
X8079387Y-7806456D01*
X8138763Y-7766669D01*
X8219200Y-7762000D01*
X8371600Y-7762000D01*
X8371600Y-6847600D01*
X8219200Y-6847600D01*
X8111255Y-6860188D01*
X8071468Y-6919564D01*
X8066800Y-7000000D01*
X8054212Y-7107945D01*
X7994836Y-7147732D01*
X7914400Y-7152400D01*
X7806455Y-7164988D01*
X7766668Y-7224364D01*
X7762000Y-7304800D01*
X7749412Y-7412745D01*
X7690036Y-7452532D01*
X7609600Y-7457200D01*
X7501655Y-7469788D01*
X7461868Y-7529164D01*
X7457200Y-7609600D01*
X7457200Y-7762000D01*
X6847600Y-7762000D01*
X6847600Y-7609600D01*
X6835012Y-7501656D01*
X6775636Y-7461869D01*
X6695200Y-7457200D01*
X6587255Y-7469788D01*
X6547468Y-7529164D01*
X6542800Y-7609600D01*
X6530212Y-7717545D01*
X6470836Y-7757332D01*
X6390400Y-7762000D01*
X6282455Y-7774588D01*
X6242668Y-7833964D01*
X6238000Y-7914400D01*
X6250587Y-8022345D01*
X6309963Y-8062132D01*
X6390400Y-8066800D01*
X6498344Y-8079388D01*
X6538131Y-8138764D01*
X6542800Y-8219200D01*
X6555387Y-8327145D01*
X6614763Y-8366932D01*
X6695200Y-8371600D01*
X6803144Y-8359013D01*
X6842931Y-8299637D01*
X6847600Y-8219200D01*
X6847600Y-8066800D01*
X7457200Y-8066800D01*
X7457200Y-8981200D01*
X7304800Y-8981200D01*
X7196855Y-8968613D01*
X7157068Y-8909237D01*
X7152400Y-8828800D01*
X7139812Y-8720856D01*
X7080436Y-8681069D01*
X7000000Y-8676400D01*
X6892055Y-8688988D01*
X6852268Y-8748364D01*
X6847600Y-8828800D01*
X6835012Y-8936745D01*
X6775636Y-8976532D01*
X6695200Y-8981200D01*
X6587255Y-8993788D01*
X6547468Y-9053164D01*
X6542800Y-9133600D01*
X6530212Y-9241545D01*
X6470836Y-9281332D01*
X6390400Y-9286000D01*
X6238000Y-9286000D01*
X6238000Y-8676400D01*
X6390400Y-8676400D01*
X6498344Y-8663813D01*
X6538131Y-8604437D01*
X6542800Y-8524000D01*
X6542800Y-8371600D01*
X5933200Y-8371600D01*
X5933200Y-8524000D01*
X5920612Y-8631945D01*
X5861236Y-8671732D01*
X5780800Y-8676400D01*
X5672855Y-8688988D01*
X5633068Y-8748364D01*
X5628400Y-8828800D01*
X5640987Y-8936745D01*
X5700363Y-8976532D01*
X5780800Y-8981200D01*
X5888744Y-8993788D01*
X5928531Y-9053164D01*
X5933200Y-9133600D01*
X5920612Y-9241545D01*
X5861236Y-9281332D01*
X5780800Y-9286000D01*
X5672855Y-9273413D01*
X5633068Y-9214037D01*
X5628400Y-9133600D01*
X5615812Y-9025656D01*
X5556436Y-8985869D01*
X5476000Y-8981200D01*
X5368055Y-8968613D01*
X5328268Y-8909237D01*
X5323600Y-8828800D01*
X5311012Y-8720856D01*
X5251636Y-8681069D01*
X5171200Y-8676400D01*
X5018800Y-8676400D01*
X5018800Y-9286000D01*
X5171200Y-9286000D01*
X5279144Y-9298588D01*
X5318931Y-9357964D01*
X5323600Y-9438400D01*
X5311012Y-9546345D01*
X5251636Y-9586132D01*
X5171200Y-9590800D01*
X5063255Y-9603388D01*
X5023468Y-9662764D01*
X5018800Y-9743200D01*
X5006212Y-9851145D01*
X4946836Y-9890932D01*
X4866400Y-9895600D01*
X4758455Y-9908188D01*
X4718668Y-9967564D01*
X4714000Y-10048000D01*
X4701412Y-10155945D01*
X4642036Y-10195732D01*
X4561600Y-10200400D01*
X4453655Y-10187813D01*
X4413868Y-10128437D01*
X4409200Y-10048000D01*
X4421787Y-9940056D01*
X4481163Y-9900269D01*
X4561600Y-9895600D01*
X4714000Y-9895600D01*
X4714000Y-9286000D01*
X4561600Y-9286000D01*
X4453655Y-9273413D01*
X4413868Y-9214037D01*
X4409200Y-9133600D01*
X4421787Y-9025656D01*
X4481163Y-8985869D01*
X4561600Y-8981200D01*
X4714000Y-8981200D01*
X4714000Y-8371600D01*
X4409200Y-8371600D01*
G36*
X4714000Y-8371600D02*
G01*
X5323600Y-8371600D01*
X5323600Y-8219200D01*
X5311012Y-8111256D01*
X5251636Y-8071469D01*
X5171200Y-8066800D01*
X5018800Y-8066800D01*
X5018800Y-7457200D01*
X4714000Y-7457200D01*
X4714000Y-8371600D01*
G37*
X4714000Y-8371600D02*
X5323600Y-8371600D01*
X5323600Y-8219200D01*
X5311012Y-8111256D01*
X5251636Y-8071469D01*
X5171200Y-8066800D01*
X5018800Y-8066800D01*
X5018800Y-7457200D01*
X4714000Y-7457200D01*
X4714000Y-8371600D01*
G36*
X1970800Y-7152400D02*
G01*
X1970800Y-6238000D01*
X2275600Y-6238000D01*
X2275600Y-7152400D01*
X1970800Y-7152400D01*
X1970800Y-7762000D01*
X2275600Y-7762000D01*
X2275600Y-7152400D01*
X2580400Y-7152400D01*
X2580400Y-8066800D01*
X1361200Y-8066800D01*
X1361200Y-8371600D01*
X1970800Y-8371600D01*
X1970800Y-8524000D01*
X1958212Y-8631945D01*
X1898836Y-8671732D01*
X1818400Y-8676400D01*
X1710455Y-8688988D01*
X1670668Y-8748364D01*
X1666000Y-8828800D01*
X1970800Y-8828800D01*
X1983387Y-8720856D01*
X2042763Y-8681069D01*
X2123200Y-8676400D01*
X2231144Y-8663813D01*
X2270931Y-8604437D01*
X2275600Y-8524000D01*
X2288187Y-8416056D01*
X2347563Y-8376269D01*
X2428000Y-8371600D01*
X2535944Y-8384188D01*
X2575731Y-8443564D01*
X2580400Y-8524000D01*
X2567812Y-8631945D01*
X2508436Y-8671732D01*
X2428000Y-8676400D01*
X2320055Y-8688988D01*
X2280268Y-8748364D01*
X2275600Y-8828800D01*
X2263012Y-8936745D01*
X2203636Y-8976532D01*
X2123200Y-8981200D01*
X2015255Y-8968613D01*
X1975468Y-8909237D01*
X1970800Y-8828800D01*
X1666000Y-8828800D01*
X1653412Y-8936745D01*
X1594036Y-8976532D01*
X1513600Y-8981200D01*
X1361200Y-8981200D01*
X1361200Y-9590800D01*
X1513600Y-9590800D01*
X1621544Y-9578213D01*
X1661331Y-9518837D01*
X1666000Y-9438400D01*
X1678587Y-9330456D01*
X1737963Y-9290669D01*
X1818400Y-9286000D01*
X1926344Y-9298588D01*
X1966131Y-9357964D01*
X1970800Y-9438400D01*
X1983387Y-9546345D01*
X2042763Y-9586132D01*
X2123200Y-9590800D01*
X2231144Y-9603388D01*
X2270931Y-9662764D01*
X2275600Y-9743200D01*
X2275600Y-9895600D01*
X1361200Y-9895600D01*
X1361200Y-10200400D01*
X2885200Y-10200400D01*
X2885200Y-9286000D01*
X3037600Y-9286000D01*
X3145544Y-9298588D01*
X3185331Y-9357964D01*
X3190000Y-9438400D01*
X3190000Y-9590800D01*
X3799600Y-9590800D01*
X3799600Y-9286000D01*
X3190000Y-9286000D01*
X3190000Y-9133600D01*
X3202587Y-9025656D01*
X3261963Y-8985869D01*
X3342400Y-8981200D01*
X3450344Y-8968613D01*
X3490131Y-8909237D01*
X3494800Y-8828800D01*
X3482212Y-8720856D01*
X3422836Y-8681069D01*
X3342400Y-8676400D01*
X3234455Y-8688988D01*
X3194668Y-8748364D01*
X3190000Y-8828800D01*
X3177412Y-8936745D01*
X3118036Y-8976532D01*
X3037600Y-8981200D01*
X2929655Y-8993788D01*
X2889868Y-9053164D01*
X2885200Y-9133600D01*
X2872612Y-9241545D01*
X2813236Y-9281332D01*
X2732800Y-9286000D01*
X2580400Y-9286000D01*
X2580400Y-8676400D01*
X2732800Y-8676400D01*
X2840744Y-8663813D01*
X2880531Y-8604437D01*
X2885200Y-8524000D01*
X2872612Y-8416056D01*
X2813236Y-8376269D01*
X2732800Y-8371600D01*
X2624855Y-8359013D01*
X2585068Y-8299637D01*
X2580400Y-8219200D01*
X2592987Y-8111256D01*
X2652363Y-8071469D01*
X2732800Y-8066800D01*
X2885200Y-8066800D01*
X2885200Y-6847600D01*
X2732800Y-6847600D01*
X2624855Y-6835013D01*
X2585068Y-6775637D01*
X2580400Y-6695200D01*
X2592987Y-6587256D01*
X2652363Y-6547469D01*
X2732800Y-6542800D01*
X2840744Y-6530213D01*
X2880531Y-6470837D01*
X2885200Y-6390400D01*
X2897787Y-6282456D01*
X2957163Y-6242669D01*
X3037600Y-6238000D01*
X3145544Y-6250588D01*
X3185331Y-6309964D01*
X3190000Y-6390400D01*
X3202587Y-6498345D01*
X3261963Y-6538132D01*
X3342400Y-6542800D01*
X3450344Y-6530213D01*
X3490131Y-6470837D01*
X3494800Y-6390400D01*
X3507387Y-6282456D01*
X3566763Y-6242669D01*
X3647200Y-6238000D01*
X3799600Y-6238000D01*
X3799600Y-6847600D01*
X3190000Y-6847600D01*
X3190000Y-7000000D01*
X3202587Y-7107945D01*
X3261963Y-7147732D01*
X3342400Y-7152400D01*
X3799600Y-7152400D01*
X3799600Y-7000000D01*
X3812187Y-6892056D01*
X3871563Y-6852269D01*
X3952000Y-6847600D01*
X4059944Y-6835013D01*
X4099731Y-6775637D01*
X4104400Y-6695200D01*
X4116987Y-6587256D01*
X4176363Y-6547469D01*
X4256800Y-6542800D01*
X4409200Y-6542800D01*
X4409200Y-7152400D01*
X3799600Y-7152400D01*
X3342400Y-7152400D01*
X3450344Y-7164988D01*
X3490131Y-7224364D01*
X3494800Y-7304800D01*
X3482212Y-7412745D01*
X3422836Y-7452532D01*
X3342400Y-7457200D01*
X3234455Y-7469788D01*
X3194668Y-7529164D01*
X3190000Y-7609600D01*
X3202587Y-7717545D01*
X3261963Y-7757332D01*
X3342400Y-7762000D01*
X3450344Y-7749413D01*
X3490131Y-7690037D01*
X3494800Y-7609600D01*
X3507387Y-7501656D01*
X3566763Y-7461869D01*
X3647200Y-7457200D01*
X3799600Y-7457200D01*
X3799600Y-8066800D01*
X3190000Y-8066800D01*
X3190000Y-8371600D01*
X4104400Y-8371600D01*
X4104400Y-8219200D01*
X4116987Y-8111256D01*
X4176363Y-8071469D01*
X4256800Y-8066800D01*
X4364744Y-8054213D01*
X4404531Y-7994837D01*
X4409200Y-7914400D01*
X4396612Y-7806456D01*
X4337236Y-7766669D01*
X4256800Y-7762000D01*
X4148855Y-7749413D01*
X4109068Y-7690037D01*
X4104400Y-7609600D01*
X4104400Y-7457200D01*
X4714000Y-7457200D01*
X4714000Y-5933200D01*
X5323600Y-5933200D01*
X5323600Y-5780800D01*
X5311012Y-5672856D01*
X5251636Y-5633069D01*
X5171200Y-5628400D01*
X5018800Y-5628400D01*
X5018800Y-5018800D01*
X4714000Y-5018800D01*
X4714000Y-5628400D01*
X4409200Y-5628400D01*
X4409200Y-6238000D01*
X4256800Y-6238000D01*
X4148855Y-6225413D01*
X4109068Y-6166037D01*
X4104400Y-6085600D01*
X4091812Y-5977656D01*
X4032436Y-5937869D01*
X3952000Y-5933200D01*
X3844055Y-5920613D01*
X3804268Y-5861237D01*
X3799600Y-5780800D01*
X3799600Y-5628400D01*
X3190000Y-5628400D01*
X3190000Y-5323600D01*
X3799600Y-5323600D01*
X3799600Y-5018800D01*
X3190000Y-5018800D01*
X3190000Y-4714000D01*
X3799600Y-4714000D01*
X3799600Y-4409200D01*
X4409200Y-4409200D01*
X4409200Y-4256800D01*
X4421787Y-4148856D01*
X4481163Y-4109069D01*
X4561600Y-4104400D01*
X4714000Y-4104400D01*
X4714000Y-3494800D01*
X5323600Y-3494800D01*
X5323600Y-3342400D01*
X5311012Y-3234456D01*
X5251636Y-3194669D01*
X5171200Y-3190000D01*
X5018800Y-3190000D01*
X5018800Y-2580400D01*
X4104400Y-2580400D01*
X4104400Y-1361200D01*
X3799600Y-1361200D01*
X3799600Y-2885200D01*
X4714000Y-2885200D01*
X4714000Y-3190000D01*
X3799600Y-3190000D01*
X3799600Y-3799600D01*
X4409200Y-3799600D01*
X4409200Y-4104400D01*
X3494800Y-4104400D01*
X3494800Y-3799600D01*
X2885200Y-3799600D01*
X2885200Y-4256800D01*
X3190000Y-4256800D01*
X3202587Y-4148856D01*
X3261963Y-4109069D01*
X3342400Y-4104400D01*
X3450344Y-4116988D01*
X3490131Y-4176364D01*
X3494800Y-4256800D01*
X3482212Y-4364745D01*
X3422836Y-4404532D01*
X3342400Y-4409200D01*
X3234455Y-4396613D01*
X3194668Y-4337237D01*
X3190000Y-4256800D01*
X2885200Y-4256800D01*
X2885200Y-5018800D01*
X2580400Y-5018800D01*
X2580400Y-3799600D01*
X2275600Y-3799600D01*
X2275600Y-4714000D01*
X1666000Y-4714000D01*
X1666000Y-3799600D01*
X1361200Y-3799600D01*
X1361200Y-5171200D01*
X1666000Y-5171200D01*
X1666000Y-5018800D01*
X2275600Y-5018800D01*
X2275600Y-5628400D01*
X2428000Y-5628400D01*
X2535944Y-5615813D01*
X2575731Y-5556437D01*
X2580400Y-5476000D01*
X2592987Y-5368056D01*
X2652363Y-5328269D01*
X2732800Y-5323600D01*
X2840744Y-5336188D01*
X2880531Y-5395564D01*
X2885200Y-5476000D01*
X2872612Y-5583945D01*
X2813236Y-5623732D01*
X2732800Y-5628400D01*
X2624855Y-5640988D01*
X2585068Y-5700364D01*
X2580400Y-5780800D01*
X2567812Y-5888745D01*
X2508436Y-5928532D01*
X2428000Y-5933200D01*
X2320055Y-5920613D01*
X2280268Y-5861237D01*
X2275600Y-5780800D01*
X2263012Y-5672856D01*
X2203636Y-5633069D01*
X2123200Y-5628400D01*
X2015255Y-5615813D01*
X1975468Y-5556437D01*
X1970800Y-5476000D01*
X1958212Y-5368056D01*
X1898836Y-5328269D01*
X1818400Y-5323600D01*
X1710455Y-5311013D01*
X1670668Y-5251637D01*
X1666000Y-5171200D01*
X1361200Y-5171200D01*
X1361200Y-5323600D01*
X1666000Y-5323600D01*
X1666000Y-6085600D01*
X3190000Y-6085600D01*
X3202587Y-5977656D01*
X3261963Y-5937869D01*
X3342400Y-5933200D01*
X3450344Y-5945788D01*
X3490131Y-6005164D01*
X3494800Y-6085600D01*
X3482212Y-6193545D01*
X3422836Y-6233332D01*
X3342400Y-6238000D01*
X3234455Y-6225413D01*
X3194668Y-6166037D01*
X3190000Y-6085600D01*
X1666000Y-6085600D01*
X1666000Y-7152400D01*
X1970800Y-7152400D01*
G37*
X1970800Y-7152400D02*
X1970800Y-6238000D01*
X2275600Y-6238000D01*
X2275600Y-7152400D01*
X1970800Y-7152400D01*
X1970800Y-7762000D01*
X2275600Y-7762000D01*
X2275600Y-7152400D01*
X2580400Y-7152400D01*
X2580400Y-8066800D01*
X1361200Y-8066800D01*
X1361200Y-8371600D01*
X1970800Y-8371600D01*
X1970800Y-8524000D01*
X1958212Y-8631945D01*
X1898836Y-8671732D01*
X1818400Y-8676400D01*
X1710455Y-8688988D01*
X1670668Y-8748364D01*
X1666000Y-8828800D01*
X1970800Y-8828800D01*
X1983387Y-8720856D01*
X2042763Y-8681069D01*
X2123200Y-8676400D01*
X2231144Y-8663813D01*
X2270931Y-8604437D01*
X2275600Y-8524000D01*
X2288187Y-8416056D01*
X2347563Y-8376269D01*
X2428000Y-8371600D01*
X2535944Y-8384188D01*
X2575731Y-8443564D01*
X2580400Y-8524000D01*
X2567812Y-8631945D01*
X2508436Y-8671732D01*
X2428000Y-8676400D01*
X2320055Y-8688988D01*
X2280268Y-8748364D01*
X2275600Y-8828800D01*
X2263012Y-8936745D01*
X2203636Y-8976532D01*
X2123200Y-8981200D01*
X2015255Y-8968613D01*
X1975468Y-8909237D01*
X1970800Y-8828800D01*
X1666000Y-8828800D01*
X1653412Y-8936745D01*
X1594036Y-8976532D01*
X1513600Y-8981200D01*
X1361200Y-8981200D01*
X1361200Y-9590800D01*
X1513600Y-9590800D01*
X1621544Y-9578213D01*
X1661331Y-9518837D01*
X1666000Y-9438400D01*
X1678587Y-9330456D01*
X1737963Y-9290669D01*
X1818400Y-9286000D01*
X1926344Y-9298588D01*
X1966131Y-9357964D01*
X1970800Y-9438400D01*
X1983387Y-9546345D01*
X2042763Y-9586132D01*
X2123200Y-9590800D01*
X2231144Y-9603388D01*
X2270931Y-9662764D01*
X2275600Y-9743200D01*
X2275600Y-9895600D01*
X1361200Y-9895600D01*
X1361200Y-10200400D01*
X2885200Y-10200400D01*
X2885200Y-9286000D01*
X3037600Y-9286000D01*
X3145544Y-9298588D01*
X3185331Y-9357964D01*
X3190000Y-9438400D01*
X3190000Y-9590800D01*
X3799600Y-9590800D01*
X3799600Y-9286000D01*
X3190000Y-9286000D01*
X3190000Y-9133600D01*
X3202587Y-9025656D01*
X3261963Y-8985869D01*
X3342400Y-8981200D01*
X3450344Y-8968613D01*
X3490131Y-8909237D01*
X3494800Y-8828800D01*
X3482212Y-8720856D01*
X3422836Y-8681069D01*
X3342400Y-8676400D01*
X3234455Y-8688988D01*
X3194668Y-8748364D01*
X3190000Y-8828800D01*
X3177412Y-8936745D01*
X3118036Y-8976532D01*
X3037600Y-8981200D01*
X2929655Y-8993788D01*
X2889868Y-9053164D01*
X2885200Y-9133600D01*
X2872612Y-9241545D01*
X2813236Y-9281332D01*
X2732800Y-9286000D01*
X2580400Y-9286000D01*
X2580400Y-8676400D01*
X2732800Y-8676400D01*
X2840744Y-8663813D01*
X2880531Y-8604437D01*
X2885200Y-8524000D01*
X2872612Y-8416056D01*
X2813236Y-8376269D01*
X2732800Y-8371600D01*
X2624855Y-8359013D01*
X2585068Y-8299637D01*
X2580400Y-8219200D01*
X2592987Y-8111256D01*
X2652363Y-8071469D01*
X2732800Y-8066800D01*
X2885200Y-8066800D01*
X2885200Y-6847600D01*
X2732800Y-6847600D01*
X2624855Y-6835013D01*
X2585068Y-6775637D01*
X2580400Y-6695200D01*
X2592987Y-6587256D01*
X2652363Y-6547469D01*
X2732800Y-6542800D01*
X2840744Y-6530213D01*
X2880531Y-6470837D01*
X2885200Y-6390400D01*
X2897787Y-6282456D01*
X2957163Y-6242669D01*
X3037600Y-6238000D01*
X3145544Y-6250588D01*
X3185331Y-6309964D01*
X3190000Y-6390400D01*
X3202587Y-6498345D01*
X3261963Y-6538132D01*
X3342400Y-6542800D01*
X3450344Y-6530213D01*
X3490131Y-6470837D01*
X3494800Y-6390400D01*
X3507387Y-6282456D01*
X3566763Y-6242669D01*
X3647200Y-6238000D01*
X3799600Y-6238000D01*
X3799600Y-6847600D01*
X3190000Y-6847600D01*
X3190000Y-7000000D01*
X3202587Y-7107945D01*
X3261963Y-7147732D01*
X3342400Y-7152400D01*
X3799600Y-7152400D01*
X3799600Y-7000000D01*
X3812187Y-6892056D01*
X3871563Y-6852269D01*
X3952000Y-6847600D01*
X4059944Y-6835013D01*
X4099731Y-6775637D01*
X4104400Y-6695200D01*
X4116987Y-6587256D01*
X4176363Y-6547469D01*
X4256800Y-6542800D01*
X4409200Y-6542800D01*
X4409200Y-7152400D01*
X3799600Y-7152400D01*
X3342400Y-7152400D01*
X3450344Y-7164988D01*
X3490131Y-7224364D01*
X3494800Y-7304800D01*
X3482212Y-7412745D01*
X3422836Y-7452532D01*
X3342400Y-7457200D01*
X3234455Y-7469788D01*
X3194668Y-7529164D01*
X3190000Y-7609600D01*
X3202587Y-7717545D01*
X3261963Y-7757332D01*
X3342400Y-7762000D01*
X3450344Y-7749413D01*
X3490131Y-7690037D01*
X3494800Y-7609600D01*
X3507387Y-7501656D01*
X3566763Y-7461869D01*
X3647200Y-7457200D01*
X3799600Y-7457200D01*
X3799600Y-8066800D01*
X3190000Y-8066800D01*
X3190000Y-8371600D01*
X4104400Y-8371600D01*
X4104400Y-8219200D01*
X4116987Y-8111256D01*
X4176363Y-8071469D01*
X4256800Y-8066800D01*
X4364744Y-8054213D01*
X4404531Y-7994837D01*
X4409200Y-7914400D01*
X4396612Y-7806456D01*
X4337236Y-7766669D01*
X4256800Y-7762000D01*
X4148855Y-7749413D01*
X4109068Y-7690037D01*
X4104400Y-7609600D01*
X4104400Y-7457200D01*
X4714000Y-7457200D01*
X4714000Y-5933200D01*
X5323600Y-5933200D01*
X5323600Y-5780800D01*
X5311012Y-5672856D01*
X5251636Y-5633069D01*
X5171200Y-5628400D01*
X5018800Y-5628400D01*
X5018800Y-5018800D01*
X4714000Y-5018800D01*
X4714000Y-5628400D01*
X4409200Y-5628400D01*
X4409200Y-6238000D01*
X4256800Y-6238000D01*
X4148855Y-6225413D01*
X4109068Y-6166037D01*
X4104400Y-6085600D01*
X4091812Y-5977656D01*
X4032436Y-5937869D01*
X3952000Y-5933200D01*
X3844055Y-5920613D01*
X3804268Y-5861237D01*
X3799600Y-5780800D01*
X3799600Y-5628400D01*
X3190000Y-5628400D01*
X3190000Y-5323600D01*
X3799600Y-5323600D01*
X3799600Y-5018800D01*
X3190000Y-5018800D01*
X3190000Y-4714000D01*
X3799600Y-4714000D01*
X3799600Y-4409200D01*
X4409200Y-4409200D01*
X4409200Y-4256800D01*
X4421787Y-4148856D01*
X4481163Y-4109069D01*
X4561600Y-4104400D01*
X4714000Y-4104400D01*
X4714000Y-3494800D01*
X5323600Y-3494800D01*
X5323600Y-3342400D01*
X5311012Y-3234456D01*
X5251636Y-3194669D01*
X5171200Y-3190000D01*
X5018800Y-3190000D01*
X5018800Y-2580400D01*
X4104400Y-2580400D01*
X4104400Y-1361200D01*
X3799600Y-1361200D01*
X3799600Y-2885200D01*
X4714000Y-2885200D01*
X4714000Y-3190000D01*
X3799600Y-3190000D01*
X3799600Y-3799600D01*
X4409200Y-3799600D01*
X4409200Y-4104400D01*
X3494800Y-4104400D01*
X3494800Y-3799600D01*
X2885200Y-3799600D01*
X2885200Y-4256800D01*
X3190000Y-4256800D01*
X3202587Y-4148856D01*
X3261963Y-4109069D01*
X3342400Y-4104400D01*
X3450344Y-4116988D01*
X3490131Y-4176364D01*
X3494800Y-4256800D01*
X3482212Y-4364745D01*
X3422836Y-4404532D01*
X3342400Y-4409200D01*
X3234455Y-4396613D01*
X3194668Y-4337237D01*
X3190000Y-4256800D01*
X2885200Y-4256800D01*
X2885200Y-5018800D01*
X2580400Y-5018800D01*
X2580400Y-3799600D01*
X2275600Y-3799600D01*
X2275600Y-4714000D01*
X1666000Y-4714000D01*
X1666000Y-3799600D01*
X1361200Y-3799600D01*
X1361200Y-5171200D01*
X1666000Y-5171200D01*
X1666000Y-5018800D01*
X2275600Y-5018800D01*
X2275600Y-5628400D01*
X2428000Y-5628400D01*
X2535944Y-5615813D01*
X2575731Y-5556437D01*
X2580400Y-5476000D01*
X2592987Y-5368056D01*
X2652363Y-5328269D01*
X2732800Y-5323600D01*
X2840744Y-5336188D01*
X2880531Y-5395564D01*
X2885200Y-5476000D01*
X2872612Y-5583945D01*
X2813236Y-5623732D01*
X2732800Y-5628400D01*
X2624855Y-5640988D01*
X2585068Y-5700364D01*
X2580400Y-5780800D01*
X2567812Y-5888745D01*
X2508436Y-5928532D01*
X2428000Y-5933200D01*
X2320055Y-5920613D01*
X2280268Y-5861237D01*
X2275600Y-5780800D01*
X2263012Y-5672856D01*
X2203636Y-5633069D01*
X2123200Y-5628400D01*
X2015255Y-5615813D01*
X1975468Y-5556437D01*
X1970800Y-5476000D01*
X1958212Y-5368056D01*
X1898836Y-5328269D01*
X1818400Y-5323600D01*
X1710455Y-5311013D01*
X1670668Y-5251637D01*
X1666000Y-5171200D01*
X1361200Y-5171200D01*
X1361200Y-5323600D01*
X1666000Y-5323600D01*
X1666000Y-6085600D01*
X3190000Y-6085600D01*
X3202587Y-5977656D01*
X3261963Y-5937869D01*
X3342400Y-5933200D01*
X3450344Y-5945788D01*
X3490131Y-6005164D01*
X3494800Y-6085600D01*
X3482212Y-6193545D01*
X3422836Y-6233332D01*
X3342400Y-6238000D01*
X3234455Y-6225413D01*
X3194668Y-6166037D01*
X3190000Y-6085600D01*
X1666000Y-6085600D01*
X1666000Y-7152400D01*
X1970800Y-7152400D01*
G36*
X8066800Y-2580400D02*
G01*
X8371600Y-2580400D01*
X8371600Y-1666000D01*
X7762000Y-1666000D01*
X7762000Y-1513600D01*
X7749412Y-1405656D01*
X7690036Y-1365869D01*
X7609600Y-1361200D01*
X7501655Y-1373788D01*
X7461868Y-1433164D01*
X7457200Y-1513600D01*
X7444612Y-1621545D01*
X7385236Y-1661332D01*
X7304800Y-1666000D01*
X7196855Y-1653413D01*
X7157068Y-1594037D01*
X7152400Y-1513600D01*
X7152400Y-1361200D01*
X6542800Y-1361200D01*
X6542800Y-1513600D01*
X6530212Y-1621545D01*
X6470836Y-1661332D01*
X6390400Y-1666000D01*
X6282455Y-1653413D01*
X6242668Y-1594037D01*
X6238000Y-1513600D01*
X6238000Y-1361200D01*
X5628400Y-1361200D01*
X5628400Y-1513600D01*
X5615812Y-1621545D01*
X5556436Y-1661332D01*
X5476000Y-1666000D01*
X5368055Y-1653413D01*
X5328268Y-1594037D01*
X5323600Y-1513600D01*
X5311012Y-1405656D01*
X5251636Y-1365869D01*
X5171200Y-1361200D01*
X5018800Y-1361200D01*
X5018800Y-1970800D01*
X5171200Y-1970800D01*
X5279144Y-1983388D01*
X5318931Y-2042764D01*
X5323600Y-2123200D01*
X5311012Y-2231145D01*
X5251636Y-2270932D01*
X5171200Y-2275600D01*
X5063255Y-2288188D01*
X5023468Y-2347564D01*
X5018800Y-2428000D01*
X5018800Y-2580400D01*
X5933200Y-2580400D01*
X5933200Y-1970800D01*
X5780800Y-1970800D01*
X5672855Y-1958213D01*
X5633068Y-1898837D01*
X5628400Y-1818400D01*
X5628400Y-1666000D01*
X6238000Y-1666000D01*
X6238000Y-1818400D01*
X6250587Y-1926345D01*
X6309963Y-1966132D01*
X6390400Y-1970800D01*
X6498344Y-1958213D01*
X6538131Y-1898837D01*
X6542800Y-1818400D01*
X6542800Y-1666000D01*
X7152400Y-1666000D01*
X7152400Y-1818400D01*
X7164987Y-1926345D01*
X7224363Y-1966132D01*
X7304800Y-1970800D01*
X7457200Y-1970800D01*
X7457200Y-2123200D01*
X7762000Y-2123200D01*
X7774587Y-2015256D01*
X7833963Y-1975469D01*
X7914400Y-1970800D01*
X8022344Y-1983388D01*
X8062131Y-2042764D01*
X8066800Y-2123200D01*
X8054212Y-2231145D01*
X7994836Y-2270932D01*
X7914400Y-2275600D01*
X7806455Y-2263013D01*
X7766668Y-2203637D01*
X7762000Y-2123200D01*
X7457200Y-2123200D01*
X7457200Y-2580400D01*
X7609600Y-2580400D01*
X7717544Y-2592988D01*
X7757331Y-2652364D01*
X7762000Y-2732800D01*
X7762000Y-2885200D01*
X7152400Y-2885200D01*
X7152400Y-2580400D01*
X6542800Y-2580400D01*
X6542800Y-2428000D01*
X6530212Y-2320056D01*
X6470836Y-2280269D01*
X6390400Y-2275600D01*
X6282455Y-2288188D01*
X6242668Y-2347564D01*
X6238000Y-2428000D01*
X6225412Y-2535945D01*
X6166036Y-2575732D01*
X6085600Y-2580400D01*
X5977655Y-2592988D01*
X5937868Y-2652364D01*
X5933200Y-2732800D01*
X5945787Y-2840745D01*
X6005163Y-2880532D01*
X6085600Y-2885200D01*
X6193544Y-2897788D01*
X6233331Y-2957164D01*
X6238000Y-3037600D01*
X6250587Y-3145545D01*
X6309963Y-3185332D01*
X6390400Y-3190000D01*
X6498344Y-3177413D01*
X6538131Y-3118037D01*
X6542800Y-3037600D01*
X6555387Y-2929656D01*
X6614763Y-2889869D01*
X6695200Y-2885200D01*
X6803144Y-2897788D01*
X6842931Y-2957164D01*
X6847600Y-3037600D01*
X6847600Y-3190000D01*
X8066800Y-3190000D01*
X8066800Y-2580400D01*
G37*
X8066800Y-2580400D02*
X8371600Y-2580400D01*
X8371600Y-1666000D01*
X7762000Y-1666000D01*
X7762000Y-1513600D01*
X7749412Y-1405656D01*
X7690036Y-1365869D01*
X7609600Y-1361200D01*
X7501655Y-1373788D01*
X7461868Y-1433164D01*
X7457200Y-1513600D01*
X7444612Y-1621545D01*
X7385236Y-1661332D01*
X7304800Y-1666000D01*
X7196855Y-1653413D01*
X7157068Y-1594037D01*
X7152400Y-1513600D01*
X7152400Y-1361200D01*
X6542800Y-1361200D01*
X6542800Y-1513600D01*
X6530212Y-1621545D01*
X6470836Y-1661332D01*
X6390400Y-1666000D01*
X6282455Y-1653413D01*
X6242668Y-1594037D01*
X6238000Y-1513600D01*
X6238000Y-1361200D01*
X5628400Y-1361200D01*
X5628400Y-1513600D01*
X5615812Y-1621545D01*
X5556436Y-1661332D01*
X5476000Y-1666000D01*
X5368055Y-1653413D01*
X5328268Y-1594037D01*
X5323600Y-1513600D01*
X5311012Y-1405656D01*
X5251636Y-1365869D01*
X5171200Y-1361200D01*
X5018800Y-1361200D01*
X5018800Y-1970800D01*
X5171200Y-1970800D01*
X5279144Y-1983388D01*
X5318931Y-2042764D01*
X5323600Y-2123200D01*
X5311012Y-2231145D01*
X5251636Y-2270932D01*
X5171200Y-2275600D01*
X5063255Y-2288188D01*
X5023468Y-2347564D01*
X5018800Y-2428000D01*
X5018800Y-2580400D01*
X5933200Y-2580400D01*
X5933200Y-1970800D01*
X5780800Y-1970800D01*
X5672855Y-1958213D01*
X5633068Y-1898837D01*
X5628400Y-1818400D01*
X5628400Y-1666000D01*
X6238000Y-1666000D01*
X6238000Y-1818400D01*
X6250587Y-1926345D01*
X6309963Y-1966132D01*
X6390400Y-1970800D01*
X6498344Y-1958213D01*
X6538131Y-1898837D01*
X6542800Y-1818400D01*
X6542800Y-1666000D01*
X7152400Y-1666000D01*
X7152400Y-1818400D01*
X7164987Y-1926345D01*
X7224363Y-1966132D01*
X7304800Y-1970800D01*
X7457200Y-1970800D01*
X7457200Y-2123200D01*
X7762000Y-2123200D01*
X7774587Y-2015256D01*
X7833963Y-1975469D01*
X7914400Y-1970800D01*
X8022344Y-1983388D01*
X8062131Y-2042764D01*
X8066800Y-2123200D01*
X8054212Y-2231145D01*
X7994836Y-2270932D01*
X7914400Y-2275600D01*
X7806455Y-2263013D01*
X7766668Y-2203637D01*
X7762000Y-2123200D01*
X7457200Y-2123200D01*
X7457200Y-2580400D01*
X7609600Y-2580400D01*
X7717544Y-2592988D01*
X7757331Y-2652364D01*
X7762000Y-2732800D01*
X7762000Y-2885200D01*
X7152400Y-2885200D01*
X7152400Y-2580400D01*
X6542800Y-2580400D01*
X6542800Y-2428000D01*
X6530212Y-2320056D01*
X6470836Y-2280269D01*
X6390400Y-2275600D01*
X6282455Y-2288188D01*
X6242668Y-2347564D01*
X6238000Y-2428000D01*
X6225412Y-2535945D01*
X6166036Y-2575732D01*
X6085600Y-2580400D01*
X5977655Y-2592988D01*
X5937868Y-2652364D01*
X5933200Y-2732800D01*
X5945787Y-2840745D01*
X6005163Y-2880532D01*
X6085600Y-2885200D01*
X6193544Y-2897788D01*
X6233331Y-2957164D01*
X6238000Y-3037600D01*
X6250587Y-3145545D01*
X6309963Y-3185332D01*
X6390400Y-3190000D01*
X6498344Y-3177413D01*
X6538131Y-3118037D01*
X6542800Y-3037600D01*
X6555387Y-2929656D01*
X6614763Y-2889869D01*
X6695200Y-2885200D01*
X6803144Y-2897788D01*
X6842931Y-2957164D01*
X6847600Y-3037600D01*
X6847600Y-3190000D01*
X8066800Y-3190000D01*
X8066800Y-2580400D01*
G36*
X11724400Y-6847600D02*
G01*
X11114800Y-6847600D01*
X11114800Y-7000000D01*
X11102212Y-7107945D01*
X11042836Y-7147732D01*
X10962400Y-7152400D01*
X10854455Y-7164988D01*
X10814668Y-7224364D01*
X10810000Y-7304800D01*
X10822587Y-7412745D01*
X10881963Y-7452532D01*
X10962400Y-7457200D01*
X11724400Y-7457200D01*
X11724400Y-7152400D01*
X12334000Y-7152400D01*
X12334000Y-7457200D01*
X11724400Y-7457200D01*
X10962400Y-7457200D01*
X11070344Y-7469788D01*
X11110131Y-7529164D01*
X11114800Y-7609600D01*
X11127387Y-7717545D01*
X11186763Y-7757332D01*
X11267200Y-7762000D01*
X11375144Y-7774588D01*
X11414931Y-7833964D01*
X11419600Y-7914400D01*
X11432187Y-8022345D01*
X11491563Y-8062132D01*
X11572000Y-8066800D01*
X11679944Y-8079388D01*
X11719731Y-8138764D01*
X11724400Y-8219200D01*
X11724400Y-8371600D01*
X12334000Y-8371600D01*
X12334000Y-8676400D01*
X11724400Y-8676400D01*
X11724400Y-8828800D01*
X11736987Y-8936745D01*
X11796363Y-8976532D01*
X11876800Y-8981200D01*
X11984744Y-8993788D01*
X12024531Y-9053164D01*
X12029200Y-9133600D01*
X12016612Y-9241545D01*
X11957236Y-9281332D01*
X11876800Y-9286000D01*
X11768855Y-9273413D01*
X11729068Y-9214037D01*
X11724400Y-9133600D01*
X11711812Y-9025656D01*
X11652436Y-8985869D01*
X11572000Y-8981200D01*
X11464055Y-8993788D01*
X11424268Y-9053164D01*
X11419600Y-9133600D01*
X11407012Y-9241545D01*
X11347636Y-9281332D01*
X11267200Y-9286000D01*
X11159255Y-9298588D01*
X11119468Y-9357964D01*
X11114800Y-9438400D01*
X11102212Y-9546345D01*
X11042836Y-9586132D01*
X10962400Y-9590800D01*
X10854455Y-9578213D01*
X10814668Y-9518837D01*
X10810000Y-9438400D01*
X10810000Y-9286000D01*
X10200400Y-9286000D01*
X10200400Y-9895600D01*
X9590800Y-9895600D01*
X9590800Y-9286000D01*
X8981200Y-9286000D01*
X8981200Y-9438400D01*
X8993787Y-9546345D01*
X9053163Y-9586132D01*
X9133600Y-9590800D01*
X9241544Y-9603388D01*
X9281331Y-9662764D01*
X9286000Y-9743200D01*
X9273412Y-9851145D01*
X9214036Y-9890932D01*
X9133600Y-9895600D01*
X9025655Y-9883013D01*
X8985868Y-9823637D01*
X8981200Y-9743200D01*
X8968612Y-9635256D01*
X8909236Y-9595469D01*
X8828800Y-9590800D01*
X8676400Y-9590800D01*
X8676400Y-10200400D01*
X8524000Y-10200400D01*
X8416055Y-10187813D01*
X8376268Y-10128437D01*
X8371600Y-10048000D01*
X8359012Y-9940056D01*
X8299636Y-9900269D01*
X8219200Y-9895600D01*
X8111255Y-9883013D01*
X8071468Y-9823637D01*
X8066800Y-9743200D01*
X8054212Y-9635256D01*
X7994836Y-9595469D01*
X7914400Y-9590800D01*
X7762000Y-9590800D01*
X7762000Y-10200400D01*
X7152400Y-10200400D01*
X7152400Y-9895600D01*
X6238000Y-9895600D01*
X6238000Y-10810000D01*
X6390400Y-10810000D01*
X6498344Y-10822588D01*
X6538131Y-10881964D01*
X6542800Y-10962400D01*
X6542800Y-11114800D01*
X5933200Y-11114800D01*
X5933200Y-11267200D01*
X5920612Y-11375145D01*
X5861236Y-11414932D01*
X5780800Y-11419600D01*
X5672855Y-11432188D01*
X5633068Y-11491564D01*
X5628400Y-11572000D01*
X5615812Y-11679945D01*
X5556436Y-11719732D01*
X5476000Y-11724400D01*
X5368055Y-11711813D01*
X5328268Y-11652437D01*
X5323600Y-11572000D01*
X5311012Y-11464056D01*
X5251636Y-11424269D01*
X5171200Y-11419600D01*
X5018800Y-11419600D01*
X5018800Y-11876800D01*
X5628400Y-11876800D01*
X5640987Y-11768856D01*
X5700363Y-11729069D01*
X5780800Y-11724400D01*
X5888744Y-11736988D01*
X5928531Y-11796364D01*
X5933200Y-11876800D01*
X5920612Y-11984745D01*
X5861236Y-12024532D01*
X5780800Y-12029200D01*
X5672855Y-12016613D01*
X5633068Y-11957237D01*
X5628400Y-11876800D01*
X5018800Y-11876800D01*
X5018800Y-12029200D01*
X5171200Y-12029200D01*
X5279144Y-12041788D01*
X5318931Y-12101164D01*
X5323600Y-12181600D01*
X5311012Y-12289545D01*
X5251636Y-12329332D01*
X5171200Y-12334000D01*
X5063255Y-12346588D01*
X5023468Y-12405964D01*
X5018800Y-12486400D01*
X5018800Y-12638800D01*
X6238000Y-12638800D01*
X6238000Y-12334000D01*
X6847600Y-12334000D01*
X6847600Y-12029200D01*
X6238000Y-12029200D01*
X6238000Y-11419600D01*
X6390400Y-11419600D01*
X6542800Y-11419600D01*
X6542800Y-11267200D01*
X6555387Y-11159256D01*
X6614763Y-11119469D01*
X6695200Y-11114800D01*
X6803144Y-11102213D01*
X6842931Y-11042837D01*
X6847600Y-10962400D01*
X6835012Y-10854456D01*
X6775636Y-10814669D01*
X6695200Y-10810000D01*
X6542800Y-10810000D01*
X6542800Y-10200400D01*
X7152400Y-10200400D01*
X7152400Y-10352800D01*
X7164987Y-10460745D01*
X7224363Y-10500532D01*
X7304800Y-10505200D01*
X7412744Y-10517788D01*
X7452531Y-10577164D01*
X7457200Y-10657600D01*
X7469787Y-10765545D01*
X7529163Y-10805332D01*
X7609600Y-10810000D01*
X7717544Y-10797413D01*
X7757331Y-10738037D01*
X7762000Y-10657600D01*
X7774587Y-10549656D01*
X7833963Y-10509869D01*
X7914400Y-10505200D01*
X8066800Y-10505200D01*
X8066800Y-11114800D01*
X8371600Y-11114800D01*
X8371600Y-10505200D01*
X8524000Y-10505200D01*
X8631944Y-10517788D01*
X8671731Y-10577164D01*
X8676400Y-10657600D01*
X8688987Y-10765545D01*
X8748363Y-10805332D01*
X8828800Y-10810000D01*
X8936744Y-10797413D01*
X8976531Y-10738037D01*
X8981200Y-10657600D01*
X8993787Y-10549656D01*
X9053163Y-10509869D01*
X9133600Y-10505200D01*
X9241544Y-10492613D01*
X9281331Y-10433237D01*
X9286000Y-10352800D01*
X9286000Y-10200400D01*
X9895600Y-10200400D01*
X9895600Y-10810000D01*
X9743200Y-10810000D01*
X9635255Y-10797413D01*
X9595468Y-10738037D01*
X9590800Y-10657600D01*
X9578212Y-10549656D01*
X9518836Y-10509869D01*
X9438400Y-10505200D01*
X9330455Y-10517788D01*
X9290668Y-10577164D01*
X9286000Y-10657600D01*
X9273412Y-10765545D01*
X9214036Y-10805332D01*
X9133600Y-10810000D01*
X9025655Y-10822588D01*
X8985868Y-10881964D01*
X8981200Y-10962400D01*
X8981200Y-11114800D01*
X8371600Y-11114800D01*
X8066800Y-11114800D01*
X7457200Y-11114800D01*
X7457200Y-11724400D01*
X7304800Y-11724400D01*
X7196855Y-11711813D01*
X7157068Y-11652437D01*
X7152400Y-11572000D01*
X7152400Y-11419600D01*
X6542800Y-11419600D01*
X6390400Y-11419600D01*
X6498344Y-11432188D01*
X6538131Y-11491564D01*
X6542800Y-11572000D01*
X6542800Y-11724400D01*
X7152400Y-11724400D01*
X7152400Y-12334000D01*
X7304800Y-12334000D01*
X7412744Y-12321413D01*
X7452531Y-12262037D01*
X7457200Y-12181600D01*
X7469787Y-12073656D01*
X7529163Y-12033869D01*
X7609600Y-12029200D01*
X7762000Y-12029200D01*
X7762000Y-11419600D01*
X7914400Y-11419600D01*
X8022344Y-11432188D01*
X8062131Y-11491564D01*
X8066800Y-11572000D01*
X8371600Y-11572000D01*
X8384187Y-11464056D01*
X8443563Y-11424269D01*
X8524000Y-11419600D01*
X8631944Y-11432188D01*
X8671731Y-11491564D01*
X8676400Y-11572000D01*
X8663812Y-11679945D01*
X8604436Y-11719732D01*
X8524000Y-11724400D01*
X8416055Y-11711813D01*
X8376268Y-11652437D01*
X8371600Y-11572000D01*
X8066800Y-11572000D01*
X8079387Y-11679945D01*
X8138763Y-11719732D01*
X8219200Y-11724400D01*
X8327144Y-11736988D01*
X8366931Y-11796364D01*
X8371600Y-11876800D01*
X8371600Y-12029200D01*
X8981200Y-12029200D01*
X8981200Y-11876800D01*
X8993787Y-11768856D01*
X9053163Y-11729069D01*
X9133600Y-11724400D01*
X9241544Y-11711813D01*
X9281331Y-11652437D01*
X9286000Y-11572000D01*
X9273412Y-11464056D01*
X9214036Y-11424269D01*
X9133600Y-11419600D01*
X9025655Y-11407013D01*
X8985868Y-11347637D01*
X8981200Y-11267200D01*
X8981200Y-11114800D01*
X9590800Y-11114800D01*
X9590800Y-11724400D01*
X9895600Y-11724400D01*
X9895600Y-12334000D01*
X9743200Y-12334000D01*
X9635255Y-12321413D01*
X9595468Y-12262037D01*
X9590800Y-12181600D01*
X9590800Y-12029200D01*
X8981200Y-12029200D01*
X8981200Y-12181600D01*
X8968612Y-12289545D01*
X8909236Y-12329332D01*
X8828800Y-12334000D01*
X8720855Y-12346588D01*
X8681068Y-12405964D01*
X8676400Y-12486400D01*
X8688987Y-12594345D01*
X8748363Y-12634132D01*
X8828800Y-12638800D01*
X8936744Y-12626213D01*
X8976531Y-12566837D01*
X8981200Y-12486400D01*
X8993787Y-12378456D01*
X9053163Y-12338669D01*
X9133600Y-12334000D01*
X9241544Y-12346588D01*
X9281331Y-12405964D01*
X9286000Y-12486400D01*
X9286000Y-12638800D01*
X9895600Y-12638800D01*
X9895600Y-12486400D01*
X9908187Y-12378456D01*
X9967563Y-12338669D01*
X10048000Y-12334000D01*
X10200400Y-12334000D01*
X10200400Y-11114800D01*
X10048000Y-11114800D01*
X9940055Y-11102213D01*
X9900268Y-11042837D01*
X9895600Y-10962400D01*
X9908187Y-10854456D01*
X9967563Y-10814669D01*
X10048000Y-10810000D01*
X10200400Y-10810000D01*
X10200400Y-10200400D01*
X10505200Y-10200400D01*
X10505200Y-9590800D01*
X10810000Y-9590800D01*
X10810000Y-10200400D01*
X10962400Y-10200400D01*
X11070344Y-10187813D01*
X11110131Y-10128437D01*
X11114800Y-10048000D01*
X11127387Y-9940056D01*
X11186763Y-9900269D01*
X11267200Y-9895600D01*
X11375144Y-9908188D01*
X11414931Y-9967564D01*
X11419600Y-10048000D01*
X11432187Y-10155945D01*
X11491563Y-10195732D01*
X11572000Y-10200400D01*
X11679944Y-10187813D01*
X11719731Y-10128437D01*
X11724400Y-10048000D01*
X11711812Y-9940056D01*
X11652436Y-9900269D01*
X11572000Y-9895600D01*
X11419600Y-9895600D01*
X11419600Y-9286000D01*
X11572000Y-9286000D01*
X11679944Y-9298588D01*
X11719731Y-9357964D01*
X11724400Y-9438400D01*
X11736987Y-9546345D01*
X11796363Y-9586132D01*
X11876800Y-9590800D01*
X11984744Y-9578213D01*
X12024531Y-9518837D01*
X12029200Y-9438400D01*
X12041787Y-9330456D01*
X12101163Y-9290669D01*
X12181600Y-9286000D01*
X12334000Y-9286000D01*
X12334000Y-9895600D01*
X12181600Y-9895600D01*
X12073655Y-9908188D01*
X12033868Y-9967564D01*
X12029200Y-10048000D01*
X12041787Y-10155945D01*
X12101163Y-10195732D01*
X12181600Y-10200400D01*
X12289544Y-10187813D01*
X12329331Y-10128437D01*
X12334000Y-10048000D01*
X12346587Y-9940056D01*
X12405963Y-9900269D01*
X12486400Y-9895600D01*
X12638800Y-9895600D01*
X12638800Y-9286000D01*
X12486400Y-9286000D01*
X12378455Y-9273413D01*
X12338668Y-9214037D01*
X12334000Y-9133600D01*
X12346587Y-9025656D01*
X12405963Y-8985869D01*
X12486400Y-8981200D01*
X12638800Y-8981200D01*
X12638800Y-8066800D01*
X12486400Y-8066800D01*
X12378455Y-8054213D01*
X12338668Y-7994837D01*
X12334000Y-7914400D01*
X12346587Y-7806456D01*
X12405963Y-7766669D01*
X12486400Y-7762000D01*
X12638800Y-7762000D01*
X12638800Y-6847600D01*
X12486400Y-6847600D01*
X12378455Y-6835013D01*
X12338668Y-6775637D01*
X12334000Y-6695200D01*
X12346587Y-6587256D01*
X12405963Y-6547469D01*
X12486400Y-6542800D01*
X12638800Y-6542800D01*
X12638800Y-5933200D01*
X12486400Y-5933200D01*
X12378455Y-5945788D01*
X12338668Y-6005164D01*
X12334000Y-6085600D01*
X12334000Y-6238000D01*
X11724400Y-6238000D01*
X11724400Y-6847600D01*
G37*
X11724400Y-6847600D02*
X11114800Y-6847600D01*
X11114800Y-7000000D01*
X11102212Y-7107945D01*
X11042836Y-7147732D01*
X10962400Y-7152400D01*
X10854455Y-7164988D01*
X10814668Y-7224364D01*
X10810000Y-7304800D01*
X10822587Y-7412745D01*
X10881963Y-7452532D01*
X10962400Y-7457200D01*
X11724400Y-7457200D01*
X11724400Y-7152400D01*
X12334000Y-7152400D01*
X12334000Y-7457200D01*
X11724400Y-7457200D01*
X10962400Y-7457200D01*
X11070344Y-7469788D01*
X11110131Y-7529164D01*
X11114800Y-7609600D01*
X11127387Y-7717545D01*
X11186763Y-7757332D01*
X11267200Y-7762000D01*
X11375144Y-7774588D01*
X11414931Y-7833964D01*
X11419600Y-7914400D01*
X11432187Y-8022345D01*
X11491563Y-8062132D01*
X11572000Y-8066800D01*
X11679944Y-8079388D01*
X11719731Y-8138764D01*
X11724400Y-8219200D01*
X11724400Y-8371600D01*
X12334000Y-8371600D01*
X12334000Y-8676400D01*
X11724400Y-8676400D01*
X11724400Y-8828800D01*
X11736987Y-8936745D01*
X11796363Y-8976532D01*
X11876800Y-8981200D01*
X11984744Y-8993788D01*
X12024531Y-9053164D01*
X12029200Y-9133600D01*
X12016612Y-9241545D01*
X11957236Y-9281332D01*
X11876800Y-9286000D01*
X11768855Y-9273413D01*
X11729068Y-9214037D01*
X11724400Y-9133600D01*
X11711812Y-9025656D01*
X11652436Y-8985869D01*
X11572000Y-8981200D01*
X11464055Y-8993788D01*
X11424268Y-9053164D01*
X11419600Y-9133600D01*
X11407012Y-9241545D01*
X11347636Y-9281332D01*
X11267200Y-9286000D01*
X11159255Y-9298588D01*
X11119468Y-9357964D01*
X11114800Y-9438400D01*
X11102212Y-9546345D01*
X11042836Y-9586132D01*
X10962400Y-9590800D01*
X10854455Y-9578213D01*
X10814668Y-9518837D01*
X10810000Y-9438400D01*
X10810000Y-9286000D01*
X10200400Y-9286000D01*
X10200400Y-9895600D01*
X9590800Y-9895600D01*
X9590800Y-9286000D01*
X8981200Y-9286000D01*
X8981200Y-9438400D01*
X8993787Y-9546345D01*
X9053163Y-9586132D01*
X9133600Y-9590800D01*
X9241544Y-9603388D01*
X9281331Y-9662764D01*
X9286000Y-9743200D01*
X9273412Y-9851145D01*
X9214036Y-9890932D01*
X9133600Y-9895600D01*
X9025655Y-9883013D01*
X8985868Y-9823637D01*
X8981200Y-9743200D01*
X8968612Y-9635256D01*
X8909236Y-9595469D01*
X8828800Y-9590800D01*
X8676400Y-9590800D01*
X8676400Y-10200400D01*
X8524000Y-10200400D01*
X8416055Y-10187813D01*
X8376268Y-10128437D01*
X8371600Y-10048000D01*
X8359012Y-9940056D01*
X8299636Y-9900269D01*
X8219200Y-9895600D01*
X8111255Y-9883013D01*
X8071468Y-9823637D01*
X8066800Y-9743200D01*
X8054212Y-9635256D01*
X7994836Y-9595469D01*
X7914400Y-9590800D01*
X7762000Y-9590800D01*
X7762000Y-10200400D01*
X7152400Y-10200400D01*
X7152400Y-9895600D01*
X6238000Y-9895600D01*
X6238000Y-10810000D01*
X6390400Y-10810000D01*
X6498344Y-10822588D01*
X6538131Y-10881964D01*
X6542800Y-10962400D01*
X6542800Y-11114800D01*
X5933200Y-11114800D01*
X5933200Y-11267200D01*
X5920612Y-11375145D01*
X5861236Y-11414932D01*
X5780800Y-11419600D01*
X5672855Y-11432188D01*
X5633068Y-11491564D01*
X5628400Y-11572000D01*
X5615812Y-11679945D01*
X5556436Y-11719732D01*
X5476000Y-11724400D01*
X5368055Y-11711813D01*
X5328268Y-11652437D01*
X5323600Y-11572000D01*
X5311012Y-11464056D01*
X5251636Y-11424269D01*
X5171200Y-11419600D01*
X5018800Y-11419600D01*
X5018800Y-11876800D01*
X5628400Y-11876800D01*
X5640987Y-11768856D01*
X5700363Y-11729069D01*
X5780800Y-11724400D01*
X5888744Y-11736988D01*
X5928531Y-11796364D01*
X5933200Y-11876800D01*
X5920612Y-11984745D01*
X5861236Y-12024532D01*
X5780800Y-12029200D01*
X5672855Y-12016613D01*
X5633068Y-11957237D01*
X5628400Y-11876800D01*
X5018800Y-11876800D01*
X5018800Y-12029200D01*
X5171200Y-12029200D01*
X5279144Y-12041788D01*
X5318931Y-12101164D01*
X5323600Y-12181600D01*
X5311012Y-12289545D01*
X5251636Y-12329332D01*
X5171200Y-12334000D01*
X5063255Y-12346588D01*
X5023468Y-12405964D01*
X5018800Y-12486400D01*
X5018800Y-12638800D01*
X6238000Y-12638800D01*
X6238000Y-12334000D01*
X6847600Y-12334000D01*
X6847600Y-12029200D01*
X6238000Y-12029200D01*
X6238000Y-11419600D01*
X6390400Y-11419600D01*
X6542800Y-11419600D01*
X6542800Y-11267200D01*
X6555387Y-11159256D01*
X6614763Y-11119469D01*
X6695200Y-11114800D01*
X6803144Y-11102213D01*
X6842931Y-11042837D01*
X6847600Y-10962400D01*
X6835012Y-10854456D01*
X6775636Y-10814669D01*
X6695200Y-10810000D01*
X6542800Y-10810000D01*
X6542800Y-10200400D01*
X7152400Y-10200400D01*
X7152400Y-10352800D01*
X7164987Y-10460745D01*
X7224363Y-10500532D01*
X7304800Y-10505200D01*
X7412744Y-10517788D01*
X7452531Y-10577164D01*
X7457200Y-10657600D01*
X7469787Y-10765545D01*
X7529163Y-10805332D01*
X7609600Y-10810000D01*
X7717544Y-10797413D01*
X7757331Y-10738037D01*
X7762000Y-10657600D01*
X7774587Y-10549656D01*
X7833963Y-10509869D01*
X7914400Y-10505200D01*
X8066800Y-10505200D01*
X8066800Y-11114800D01*
X8371600Y-11114800D01*
X8371600Y-10505200D01*
X8524000Y-10505200D01*
X8631944Y-10517788D01*
X8671731Y-10577164D01*
X8676400Y-10657600D01*
X8688987Y-10765545D01*
X8748363Y-10805332D01*
X8828800Y-10810000D01*
X8936744Y-10797413D01*
X8976531Y-10738037D01*
X8981200Y-10657600D01*
X8993787Y-10549656D01*
X9053163Y-10509869D01*
X9133600Y-10505200D01*
X9241544Y-10492613D01*
X9281331Y-10433237D01*
X9286000Y-10352800D01*
X9286000Y-10200400D01*
X9895600Y-10200400D01*
X9895600Y-10810000D01*
X9743200Y-10810000D01*
X9635255Y-10797413D01*
X9595468Y-10738037D01*
X9590800Y-10657600D01*
X9578212Y-10549656D01*
X9518836Y-10509869D01*
X9438400Y-10505200D01*
X9330455Y-10517788D01*
X9290668Y-10577164D01*
X9286000Y-10657600D01*
X9273412Y-10765545D01*
X9214036Y-10805332D01*
X9133600Y-10810000D01*
X9025655Y-10822588D01*
X8985868Y-10881964D01*
X8981200Y-10962400D01*
X8981200Y-11114800D01*
X8371600Y-11114800D01*
X8066800Y-11114800D01*
X7457200Y-11114800D01*
X7457200Y-11724400D01*
X7304800Y-11724400D01*
X7196855Y-11711813D01*
X7157068Y-11652437D01*
X7152400Y-11572000D01*
X7152400Y-11419600D01*
X6542800Y-11419600D01*
X6390400Y-11419600D01*
X6498344Y-11432188D01*
X6538131Y-11491564D01*
X6542800Y-11572000D01*
X6542800Y-11724400D01*
X7152400Y-11724400D01*
X7152400Y-12334000D01*
X7304800Y-12334000D01*
X7412744Y-12321413D01*
X7452531Y-12262037D01*
X7457200Y-12181600D01*
X7469787Y-12073656D01*
X7529163Y-12033869D01*
X7609600Y-12029200D01*
X7762000Y-12029200D01*
X7762000Y-11419600D01*
X7914400Y-11419600D01*
X8022344Y-11432188D01*
X8062131Y-11491564D01*
X8066800Y-11572000D01*
X8371600Y-11572000D01*
X8384187Y-11464056D01*
X8443563Y-11424269D01*
X8524000Y-11419600D01*
X8631944Y-11432188D01*
X8671731Y-11491564D01*
X8676400Y-11572000D01*
X8663812Y-11679945D01*
X8604436Y-11719732D01*
X8524000Y-11724400D01*
X8416055Y-11711813D01*
X8376268Y-11652437D01*
X8371600Y-11572000D01*
X8066800Y-11572000D01*
X8079387Y-11679945D01*
X8138763Y-11719732D01*
X8219200Y-11724400D01*
X8327144Y-11736988D01*
X8366931Y-11796364D01*
X8371600Y-11876800D01*
X8371600Y-12029200D01*
X8981200Y-12029200D01*
X8981200Y-11876800D01*
X8993787Y-11768856D01*
X9053163Y-11729069D01*
X9133600Y-11724400D01*
X9241544Y-11711813D01*
X9281331Y-11652437D01*
X9286000Y-11572000D01*
X9273412Y-11464056D01*
X9214036Y-11424269D01*
X9133600Y-11419600D01*
X9025655Y-11407013D01*
X8985868Y-11347637D01*
X8981200Y-11267200D01*
X8981200Y-11114800D01*
X9590800Y-11114800D01*
X9590800Y-11724400D01*
X9895600Y-11724400D01*
X9895600Y-12334000D01*
X9743200Y-12334000D01*
X9635255Y-12321413D01*
X9595468Y-12262037D01*
X9590800Y-12181600D01*
X9590800Y-12029200D01*
X8981200Y-12029200D01*
X8981200Y-12181600D01*
X8968612Y-12289545D01*
X8909236Y-12329332D01*
X8828800Y-12334000D01*
X8720855Y-12346588D01*
X8681068Y-12405964D01*
X8676400Y-12486400D01*
X8688987Y-12594345D01*
X8748363Y-12634132D01*
X8828800Y-12638800D01*
X8936744Y-12626213D01*
X8976531Y-12566837D01*
X8981200Y-12486400D01*
X8993787Y-12378456D01*
X9053163Y-12338669D01*
X9133600Y-12334000D01*
X9241544Y-12346588D01*
X9281331Y-12405964D01*
X9286000Y-12486400D01*
X9286000Y-12638800D01*
X9895600Y-12638800D01*
X9895600Y-12486400D01*
X9908187Y-12378456D01*
X9967563Y-12338669D01*
X10048000Y-12334000D01*
X10200400Y-12334000D01*
X10200400Y-11114800D01*
X10048000Y-11114800D01*
X9940055Y-11102213D01*
X9900268Y-11042837D01*
X9895600Y-10962400D01*
X9908187Y-10854456D01*
X9967563Y-10814669D01*
X10048000Y-10810000D01*
X10200400Y-10810000D01*
X10200400Y-10200400D01*
X10505200Y-10200400D01*
X10505200Y-9590800D01*
X10810000Y-9590800D01*
X10810000Y-10200400D01*
X10962400Y-10200400D01*
X11070344Y-10187813D01*
X11110131Y-10128437D01*
X11114800Y-10048000D01*
X11127387Y-9940056D01*
X11186763Y-9900269D01*
X11267200Y-9895600D01*
X11375144Y-9908188D01*
X11414931Y-9967564D01*
X11419600Y-10048000D01*
X11432187Y-10155945D01*
X11491563Y-10195732D01*
X11572000Y-10200400D01*
X11679944Y-10187813D01*
X11719731Y-10128437D01*
X11724400Y-10048000D01*
X11711812Y-9940056D01*
X11652436Y-9900269D01*
X11572000Y-9895600D01*
X11419600Y-9895600D01*
X11419600Y-9286000D01*
X11572000Y-9286000D01*
X11679944Y-9298588D01*
X11719731Y-9357964D01*
X11724400Y-9438400D01*
X11736987Y-9546345D01*
X11796363Y-9586132D01*
X11876800Y-9590800D01*
X11984744Y-9578213D01*
X12024531Y-9518837D01*
X12029200Y-9438400D01*
X12041787Y-9330456D01*
X12101163Y-9290669D01*
X12181600Y-9286000D01*
X12334000Y-9286000D01*
X12334000Y-9895600D01*
X12181600Y-9895600D01*
X12073655Y-9908188D01*
X12033868Y-9967564D01*
X12029200Y-10048000D01*
X12041787Y-10155945D01*
X12101163Y-10195732D01*
X12181600Y-10200400D01*
X12289544Y-10187813D01*
X12329331Y-10128437D01*
X12334000Y-10048000D01*
X12346587Y-9940056D01*
X12405963Y-9900269D01*
X12486400Y-9895600D01*
X12638800Y-9895600D01*
X12638800Y-9286000D01*
X12486400Y-9286000D01*
X12378455Y-9273413D01*
X12338668Y-9214037D01*
X12334000Y-9133600D01*
X12346587Y-9025656D01*
X12405963Y-8985869D01*
X12486400Y-8981200D01*
X12638800Y-8981200D01*
X12638800Y-8066800D01*
X12486400Y-8066800D01*
X12378455Y-8054213D01*
X12338668Y-7994837D01*
X12334000Y-7914400D01*
X12346587Y-7806456D01*
X12405963Y-7766669D01*
X12486400Y-7762000D01*
X12638800Y-7762000D01*
X12638800Y-6847600D01*
X12486400Y-6847600D01*
X12378455Y-6835013D01*
X12338668Y-6775637D01*
X12334000Y-6695200D01*
X12346587Y-6587256D01*
X12405963Y-6547469D01*
X12486400Y-6542800D01*
X12638800Y-6542800D01*
X12638800Y-5933200D01*
X12486400Y-5933200D01*
X12378455Y-5945788D01*
X12338668Y-6005164D01*
X12334000Y-6085600D01*
X12334000Y-6238000D01*
X11724400Y-6238000D01*
X11724400Y-6847600D01*
G36*
X9590800Y-1970800D02*
G01*
X8676400Y-1970800D01*
X8676400Y-2275600D01*
X9590800Y-2275600D01*
X9590800Y-1970800D01*
G37*
X9590800Y-1970800D02*
X8676400Y-1970800D01*
X8676400Y-2275600D01*
X9590800Y-2275600D01*
X9590800Y-1970800D01*
G36*
X8066800Y-3494800D02*
G01*
X7457200Y-3494800D01*
X7457200Y-4104400D01*
X6847600Y-4104400D01*
X6847600Y-3799600D01*
X5628400Y-3799600D01*
X5628400Y-4104400D01*
X6238000Y-4104400D01*
X6238000Y-4409200D01*
X5628400Y-4409200D01*
X5628400Y-4256800D01*
X5615812Y-4148856D01*
X5556436Y-4109069D01*
X5476000Y-4104400D01*
X5368055Y-4091813D01*
X5328268Y-4032437D01*
X5323600Y-3952000D01*
X5311012Y-3844056D01*
X5251636Y-3804269D01*
X5171200Y-3799600D01*
X5018800Y-3799600D01*
X5018800Y-4409200D01*
X5171200Y-4409200D01*
X5279144Y-4421788D01*
X5318931Y-4481164D01*
X5323600Y-4561600D01*
X5311012Y-4669545D01*
X5251636Y-4709332D01*
X5171200Y-4714000D01*
X5063255Y-4726588D01*
X5023468Y-4785964D01*
X5018800Y-4866400D01*
X5018800Y-5018800D01*
X5933200Y-5018800D01*
X5933200Y-5171200D01*
X5945787Y-5279145D01*
X6005163Y-5318932D01*
X6085600Y-5323600D01*
X6193544Y-5311013D01*
X6233331Y-5251637D01*
X6238000Y-5171200D01*
X6250587Y-5063256D01*
X6309963Y-5023469D01*
X6390400Y-5018800D01*
X6498344Y-5006213D01*
X6538131Y-4946837D01*
X6542800Y-4866400D01*
X6542800Y-4714000D01*
X7152400Y-4714000D01*
X7152400Y-4561600D01*
X7164987Y-4453656D01*
X7224363Y-4413869D01*
X7304800Y-4409200D01*
X7412744Y-4421788D01*
X7452531Y-4481164D01*
X7457200Y-4561600D01*
X7469787Y-4669545D01*
X7529163Y-4709332D01*
X7609600Y-4714000D01*
X7762000Y-4714000D01*
X7762000Y-4104400D01*
X8371600Y-4104400D01*
X8371600Y-3952000D01*
X8384187Y-3844056D01*
X8443563Y-3804269D01*
X8524000Y-3799600D01*
X8631944Y-3812188D01*
X8671731Y-3871564D01*
X8676400Y-3952000D01*
X8663812Y-4059945D01*
X8604436Y-4099732D01*
X8524000Y-4104400D01*
X8416055Y-4116988D01*
X8376268Y-4176364D01*
X8371600Y-4256800D01*
X8384187Y-4364745D01*
X8443563Y-4404532D01*
X8524000Y-4409200D01*
X8631944Y-4421788D01*
X8671731Y-4481164D01*
X8676400Y-4561600D01*
X8676400Y-4714000D01*
X9286000Y-4714000D01*
X9286000Y-4866400D01*
X9298587Y-4974345D01*
X9357963Y-5014132D01*
X9438400Y-5018800D01*
X9546344Y-5031388D01*
X9586131Y-5090764D01*
X9590800Y-5171200D01*
X9603387Y-5279145D01*
X9662763Y-5318932D01*
X9743200Y-5323600D01*
X9851144Y-5336188D01*
X9890931Y-5395564D01*
X9895600Y-5476000D01*
X9908187Y-5583945D01*
X9967563Y-5623732D01*
X10048000Y-5628400D01*
X10200400Y-5628400D01*
X10200400Y-6238000D01*
X10352800Y-6238000D01*
X10460744Y-6225413D01*
X10500531Y-6166037D01*
X10505200Y-6085600D01*
X10517787Y-5977656D01*
X10577163Y-5937869D01*
X10657600Y-5933200D01*
X10765544Y-5920613D01*
X10805331Y-5861237D01*
X10810000Y-5780800D01*
X10797412Y-5672856D01*
X10738036Y-5633069D01*
X10657600Y-5628400D01*
X10549655Y-5615813D01*
X10509868Y-5556437D01*
X10505200Y-5476000D01*
X10492612Y-5368056D01*
X10433236Y-5328269D01*
X10352800Y-5323600D01*
X10200400Y-5323600D01*
X10200400Y-4714000D01*
X9590800Y-4714000D01*
X9590800Y-4409200D01*
X8676400Y-4409200D01*
X8676400Y-4256800D01*
X8688987Y-4148856D01*
X8748363Y-4109069D01*
X8828800Y-4104400D01*
X8936744Y-4091813D01*
X8976531Y-4032437D01*
X8981200Y-3952000D01*
X8968612Y-3844056D01*
X8909236Y-3804269D01*
X8828800Y-3799600D01*
X8720855Y-3787013D01*
X8681068Y-3727637D01*
X8676400Y-3647200D01*
X8663812Y-3539256D01*
X8604436Y-3499469D01*
X8524000Y-3494800D01*
X8416055Y-3482213D01*
X8376268Y-3422837D01*
X8371600Y-3342400D01*
X8384187Y-3234456D01*
X8443563Y-3194669D01*
X8524000Y-3190000D01*
X8631944Y-3177413D01*
X8671731Y-3118037D01*
X8676400Y-3037600D01*
X8663812Y-2929656D01*
X8604436Y-2889869D01*
X8524000Y-2885200D01*
X8416055Y-2897788D01*
X8376268Y-2957164D01*
X8371600Y-3037600D01*
X8359012Y-3145545D01*
X8299636Y-3185332D01*
X8219200Y-3190000D01*
X8066800Y-3190000D01*
X8066800Y-3494800D01*
G37*
X8066800Y-3494800D02*
X7457200Y-3494800D01*
X7457200Y-4104400D01*
X6847600Y-4104400D01*
X6847600Y-3799600D01*
X5628400Y-3799600D01*
X5628400Y-4104400D01*
X6238000Y-4104400D01*
X6238000Y-4409200D01*
X5628400Y-4409200D01*
X5628400Y-4256800D01*
X5615812Y-4148856D01*
X5556436Y-4109069D01*
X5476000Y-4104400D01*
X5368055Y-4091813D01*
X5328268Y-4032437D01*
X5323600Y-3952000D01*
X5311012Y-3844056D01*
X5251636Y-3804269D01*
X5171200Y-3799600D01*
X5018800Y-3799600D01*
X5018800Y-4409200D01*
X5171200Y-4409200D01*
X5279144Y-4421788D01*
X5318931Y-4481164D01*
X5323600Y-4561600D01*
X5311012Y-4669545D01*
X5251636Y-4709332D01*
X5171200Y-4714000D01*
X5063255Y-4726588D01*
X5023468Y-4785964D01*
X5018800Y-4866400D01*
X5018800Y-5018800D01*
X5933200Y-5018800D01*
X5933200Y-5171200D01*
X5945787Y-5279145D01*
X6005163Y-5318932D01*
X6085600Y-5323600D01*
X6193544Y-5311013D01*
X6233331Y-5251637D01*
X6238000Y-5171200D01*
X6250587Y-5063256D01*
X6309963Y-5023469D01*
X6390400Y-5018800D01*
X6498344Y-5006213D01*
X6538131Y-4946837D01*
X6542800Y-4866400D01*
X6542800Y-4714000D01*
X7152400Y-4714000D01*
X7152400Y-4561600D01*
X7164987Y-4453656D01*
X7224363Y-4413869D01*
X7304800Y-4409200D01*
X7412744Y-4421788D01*
X7452531Y-4481164D01*
X7457200Y-4561600D01*
X7469787Y-4669545D01*
X7529163Y-4709332D01*
X7609600Y-4714000D01*
X7762000Y-4714000D01*
X7762000Y-4104400D01*
X8371600Y-4104400D01*
X8371600Y-3952000D01*
X8384187Y-3844056D01*
X8443563Y-3804269D01*
X8524000Y-3799600D01*
X8631944Y-3812188D01*
X8671731Y-3871564D01*
X8676400Y-3952000D01*
X8663812Y-4059945D01*
X8604436Y-4099732D01*
X8524000Y-4104400D01*
X8416055Y-4116988D01*
X8376268Y-4176364D01*
X8371600Y-4256800D01*
X8384187Y-4364745D01*
X8443563Y-4404532D01*
X8524000Y-4409200D01*
X8631944Y-4421788D01*
X8671731Y-4481164D01*
X8676400Y-4561600D01*
X8676400Y-4714000D01*
X9286000Y-4714000D01*
X9286000Y-4866400D01*
X9298587Y-4974345D01*
X9357963Y-5014132D01*
X9438400Y-5018800D01*
X9546344Y-5031388D01*
X9586131Y-5090764D01*
X9590800Y-5171200D01*
X9603387Y-5279145D01*
X9662763Y-5318932D01*
X9743200Y-5323600D01*
X9851144Y-5336188D01*
X9890931Y-5395564D01*
X9895600Y-5476000D01*
X9908187Y-5583945D01*
X9967563Y-5623732D01*
X10048000Y-5628400D01*
X10200400Y-5628400D01*
X10200400Y-6238000D01*
X10352800Y-6238000D01*
X10460744Y-6225413D01*
X10500531Y-6166037D01*
X10505200Y-6085600D01*
X10517787Y-5977656D01*
X10577163Y-5937869D01*
X10657600Y-5933200D01*
X10765544Y-5920613D01*
X10805331Y-5861237D01*
X10810000Y-5780800D01*
X10797412Y-5672856D01*
X10738036Y-5633069D01*
X10657600Y-5628400D01*
X10549655Y-5615813D01*
X10509868Y-5556437D01*
X10505200Y-5476000D01*
X10492612Y-5368056D01*
X10433236Y-5328269D01*
X10352800Y-5323600D01*
X10200400Y-5323600D01*
X10200400Y-4714000D01*
X9590800Y-4714000D01*
X9590800Y-4409200D01*
X8676400Y-4409200D01*
X8676400Y-4256800D01*
X8688987Y-4148856D01*
X8748363Y-4109069D01*
X8828800Y-4104400D01*
X8936744Y-4091813D01*
X8976531Y-4032437D01*
X8981200Y-3952000D01*
X8968612Y-3844056D01*
X8909236Y-3804269D01*
X8828800Y-3799600D01*
X8720855Y-3787013D01*
X8681068Y-3727637D01*
X8676400Y-3647200D01*
X8663812Y-3539256D01*
X8604436Y-3499469D01*
X8524000Y-3494800D01*
X8416055Y-3482213D01*
X8376268Y-3422837D01*
X8371600Y-3342400D01*
X8384187Y-3234456D01*
X8443563Y-3194669D01*
X8524000Y-3190000D01*
X8631944Y-3177413D01*
X8671731Y-3118037D01*
X8676400Y-3037600D01*
X8663812Y-2929656D01*
X8604436Y-2889869D01*
X8524000Y-2885200D01*
X8416055Y-2897788D01*
X8376268Y-2957164D01*
X8371600Y-3037600D01*
X8359012Y-3145545D01*
X8299636Y-3185332D01*
X8219200Y-3190000D01*
X8066800Y-3190000D01*
X8066800Y-3494800D01*
G36*
X9895600Y-1361200D02*
G01*
X9286000Y-1361200D01*
X9286000Y-1666000D01*
X9895600Y-1666000D01*
X9895600Y-1361200D01*
G37*
X9895600Y-1361200D02*
X9286000Y-1361200D01*
X9286000Y-1666000D01*
X9895600Y-1666000D01*
X9895600Y-1361200D01*
G36*
X11114800Y-1666000D02*
G01*
X11114800Y-2275600D01*
X11419600Y-2275600D01*
X11419600Y-1666000D01*
X11572000Y-1666000D01*
X11679944Y-1653413D01*
X11719731Y-1594037D01*
X11724400Y-1513600D01*
X11711812Y-1405656D01*
X11652436Y-1365869D01*
X11572000Y-1361200D01*
X11464055Y-1373788D01*
X11424268Y-1433164D01*
X11419600Y-1513600D01*
X11407012Y-1621545D01*
X11347636Y-1661332D01*
X11267200Y-1666000D01*
X11159255Y-1653413D01*
X11119468Y-1594037D01*
X11114800Y-1513600D01*
X11102212Y-1405656D01*
X11042836Y-1365869D01*
X10962400Y-1361200D01*
X10854455Y-1373788D01*
X10814668Y-1433164D01*
X10810000Y-1513600D01*
X10810000Y-1666000D01*
X11114800Y-1666000D01*
G37*
X11114800Y-1666000D02*
X11114800Y-2275600D01*
X11419600Y-2275600D01*
X11419600Y-1666000D01*
X11572000Y-1666000D01*
X11679944Y-1653413D01*
X11719731Y-1594037D01*
X11724400Y-1513600D01*
X11711812Y-1405656D01*
X11652436Y-1365869D01*
X11572000Y-1361200D01*
X11464055Y-1373788D01*
X11424268Y-1433164D01*
X11419600Y-1513600D01*
X11407012Y-1621545D01*
X11347636Y-1661332D01*
X11267200Y-1666000D01*
X11159255Y-1653413D01*
X11119468Y-1594037D01*
X11114800Y-1513600D01*
X11102212Y-1405656D01*
X11042836Y-1365869D01*
X10962400Y-1361200D01*
X10854455Y-1373788D01*
X10814668Y-1433164D01*
X10810000Y-1513600D01*
X10810000Y-1666000D01*
X11114800Y-1666000D01*
G36*
X9895600Y-1666000D02*
G01*
X9895600Y-1818400D01*
X9908187Y-1926345D01*
X9967563Y-1966132D01*
X10048000Y-1970800D01*
X10155944Y-1983388D01*
X10195731Y-2042764D01*
X10200400Y-2123200D01*
X10200400Y-2275600D01*
X9590800Y-2275600D01*
X9590800Y-2428000D01*
X10200400Y-2428000D01*
X10212987Y-2320056D01*
X10272363Y-2280269D01*
X10352800Y-2275600D01*
X10460744Y-2288188D01*
X10500531Y-2347564D01*
X10505200Y-2428000D01*
X10492612Y-2535945D01*
X10433236Y-2575732D01*
X10352800Y-2580400D01*
X10244855Y-2567813D01*
X10205068Y-2508437D01*
X10200400Y-2428000D01*
X9590800Y-2428000D01*
X9590800Y-2885200D01*
X9438400Y-2885200D01*
X9330455Y-2872613D01*
X9290668Y-2813237D01*
X9286000Y-2732800D01*
X9273412Y-2624856D01*
X9214036Y-2585069D01*
X9133600Y-2580400D01*
X9025655Y-2592988D01*
X8985868Y-2652364D01*
X8981200Y-2732800D01*
X8993787Y-2840745D01*
X9053163Y-2880532D01*
X9133600Y-2885200D01*
X9241544Y-2897788D01*
X9281331Y-2957164D01*
X9286000Y-3037600D01*
X9590800Y-3037600D01*
X9603387Y-2929656D01*
X9662763Y-2889869D01*
X9743200Y-2885200D01*
X9851144Y-2897788D01*
X9890931Y-2957164D01*
X9895600Y-3037600D01*
X9883012Y-3145545D01*
X9823636Y-3185332D01*
X9743200Y-3190000D01*
X9635255Y-3177413D01*
X9595468Y-3118037D01*
X9590800Y-3037600D01*
X9286000Y-3037600D01*
X9273412Y-3145545D01*
X9214036Y-3185332D01*
X9133600Y-3190000D01*
X9025655Y-3202588D01*
X8985868Y-3261964D01*
X8981200Y-3342400D01*
X8993787Y-3450345D01*
X9053163Y-3490132D01*
X9133600Y-3494800D01*
X9241544Y-3507388D01*
X9281331Y-3566764D01*
X9286000Y-3647200D01*
X9590800Y-3647200D01*
X9603387Y-3539256D01*
X9662763Y-3499469D01*
X9743200Y-3494800D01*
X9851144Y-3507388D01*
X9890931Y-3566764D01*
X9895600Y-3647200D01*
X9883012Y-3755145D01*
X9823636Y-3794932D01*
X9743200Y-3799600D01*
X10200400Y-3799600D01*
X10200400Y-2885200D01*
X11114800Y-2885200D01*
X11114800Y-3799600D01*
X10200400Y-3799600D01*
X9743200Y-3799600D01*
X9635255Y-3787013D01*
X9595468Y-3727637D01*
X9590800Y-3647200D01*
X9286000Y-3647200D01*
X9298587Y-3755145D01*
X9357963Y-3794932D01*
X9438400Y-3799600D01*
X9546344Y-3812188D01*
X9586131Y-3871564D01*
X9590800Y-3952000D01*
X9603387Y-4059945D01*
X9662763Y-4099732D01*
X9743200Y-4104400D01*
X9851144Y-4116988D01*
X9890931Y-4176364D01*
X9895600Y-4256800D01*
X9908187Y-4364745D01*
X9967563Y-4404532D01*
X10048000Y-4409200D01*
X10200400Y-4409200D01*
X10200400Y-4104400D01*
X10810000Y-4104400D01*
X10810000Y-4409200D01*
X10200400Y-4409200D01*
X10048000Y-4409200D01*
X10155944Y-4421788D01*
X10195731Y-4481164D01*
X10200400Y-4561600D01*
X10200400Y-4714000D01*
X10505200Y-4714000D01*
X10505200Y-5323600D01*
X10657600Y-5323600D01*
X10765544Y-5336188D01*
X10805331Y-5395564D01*
X10810000Y-5476000D01*
X10822587Y-5583945D01*
X10881963Y-5623732D01*
X10962400Y-5628400D01*
X11114800Y-5628400D01*
X11114800Y-4714000D01*
X12029200Y-4714000D01*
X12029200Y-4409200D01*
X11114800Y-4409200D01*
X11114800Y-4256800D01*
X11127387Y-4148856D01*
X11186763Y-4109069D01*
X11267200Y-4104400D01*
X11419600Y-4104400D01*
X11419600Y-3494800D01*
X12334000Y-3494800D01*
X12334000Y-3799600D01*
X11724400Y-3799600D01*
X11724400Y-3952000D01*
X11736987Y-4059945D01*
X11796363Y-4099732D01*
X11876800Y-4104400D01*
X11984744Y-4116988D01*
X12024531Y-4176364D01*
X12029200Y-4256800D01*
X12041787Y-4364745D01*
X12101163Y-4404532D01*
X12181600Y-4409200D01*
X12334000Y-4409200D01*
X12334000Y-5018800D01*
X11724400Y-5018800D01*
X11724400Y-5628400D01*
X11114800Y-5628400D01*
X11114800Y-5780800D01*
X11127387Y-5888745D01*
X11186763Y-5928532D01*
X11267200Y-5933200D01*
X11375144Y-5945788D01*
X11414931Y-6005164D01*
X11419600Y-6085600D01*
X11432187Y-6193545D01*
X11491563Y-6233332D01*
X11572000Y-6238000D01*
X11724400Y-6238000D01*
X11724400Y-6085600D01*
X11736987Y-5977656D01*
X11796363Y-5937869D01*
X11876800Y-5933200D01*
X12029200Y-5933200D01*
X12029200Y-5323600D01*
X12638800Y-5323600D01*
X12638800Y-3190000D01*
X12029200Y-3190000D01*
X12029200Y-2885200D01*
X11419600Y-2885200D01*
X11419600Y-2580400D01*
X10810000Y-2580400D01*
X10810000Y-1666000D01*
X9895600Y-1666000D01*
G37*
X9895600Y-1666000D02*
X9895600Y-1818400D01*
X9908187Y-1926345D01*
X9967563Y-1966132D01*
X10048000Y-1970800D01*
X10155944Y-1983388D01*
X10195731Y-2042764D01*
X10200400Y-2123200D01*
X10200400Y-2275600D01*
X9590800Y-2275600D01*
X9590800Y-2428000D01*
X10200400Y-2428000D01*
X10212987Y-2320056D01*
X10272363Y-2280269D01*
X10352800Y-2275600D01*
X10460744Y-2288188D01*
X10500531Y-2347564D01*
X10505200Y-2428000D01*
X10492612Y-2535945D01*
X10433236Y-2575732D01*
X10352800Y-2580400D01*
X10244855Y-2567813D01*
X10205068Y-2508437D01*
X10200400Y-2428000D01*
X9590800Y-2428000D01*
X9590800Y-2885200D01*
X9438400Y-2885200D01*
X9330455Y-2872613D01*
X9290668Y-2813237D01*
X9286000Y-2732800D01*
X9273412Y-2624856D01*
X9214036Y-2585069D01*
X9133600Y-2580400D01*
X9025655Y-2592988D01*
X8985868Y-2652364D01*
X8981200Y-2732800D01*
X8993787Y-2840745D01*
X9053163Y-2880532D01*
X9133600Y-2885200D01*
X9241544Y-2897788D01*
X9281331Y-2957164D01*
X9286000Y-3037600D01*
X9590800Y-3037600D01*
X9603387Y-2929656D01*
X9662763Y-2889869D01*
X9743200Y-2885200D01*
X9851144Y-2897788D01*
X9890931Y-2957164D01*
X9895600Y-3037600D01*
X9883012Y-3145545D01*
X9823636Y-3185332D01*
X9743200Y-3190000D01*
X9635255Y-3177413D01*
X9595468Y-3118037D01*
X9590800Y-3037600D01*
X9286000Y-3037600D01*
X9273412Y-3145545D01*
X9214036Y-3185332D01*
X9133600Y-3190000D01*
X9025655Y-3202588D01*
X8985868Y-3261964D01*
X8981200Y-3342400D01*
X8993787Y-3450345D01*
X9053163Y-3490132D01*
X9133600Y-3494800D01*
X9241544Y-3507388D01*
X9281331Y-3566764D01*
X9286000Y-3647200D01*
X9590800Y-3647200D01*
X9603387Y-3539256D01*
X9662763Y-3499469D01*
X9743200Y-3494800D01*
X9851144Y-3507388D01*
X9890931Y-3566764D01*
X9895600Y-3647200D01*
X9883012Y-3755145D01*
X9823636Y-3794932D01*
X9743200Y-3799600D01*
X10200400Y-3799600D01*
X10200400Y-2885200D01*
X11114800Y-2885200D01*
X11114800Y-3799600D01*
X10200400Y-3799600D01*
X9743200Y-3799600D01*
X9635255Y-3787013D01*
X9595468Y-3727637D01*
X9590800Y-3647200D01*
X9286000Y-3647200D01*
X9298587Y-3755145D01*
X9357963Y-3794932D01*
X9438400Y-3799600D01*
X9546344Y-3812188D01*
X9586131Y-3871564D01*
X9590800Y-3952000D01*
X9603387Y-4059945D01*
X9662763Y-4099732D01*
X9743200Y-4104400D01*
X9851144Y-4116988D01*
X9890931Y-4176364D01*
X9895600Y-4256800D01*
X9908187Y-4364745D01*
X9967563Y-4404532D01*
X10048000Y-4409200D01*
X10200400Y-4409200D01*
X10200400Y-4104400D01*
X10810000Y-4104400D01*
X10810000Y-4409200D01*
X10200400Y-4409200D01*
X10048000Y-4409200D01*
X10155944Y-4421788D01*
X10195731Y-4481164D01*
X10200400Y-4561600D01*
X10200400Y-4714000D01*
X10505200Y-4714000D01*
X10505200Y-5323600D01*
X10657600Y-5323600D01*
X10765544Y-5336188D01*
X10805331Y-5395564D01*
X10810000Y-5476000D01*
X10822587Y-5583945D01*
X10881963Y-5623732D01*
X10962400Y-5628400D01*
X11114800Y-5628400D01*
X11114800Y-4714000D01*
X12029200Y-4714000D01*
X12029200Y-4409200D01*
X11114800Y-4409200D01*
X11114800Y-4256800D01*
X11127387Y-4148856D01*
X11186763Y-4109069D01*
X11267200Y-4104400D01*
X11419600Y-4104400D01*
X11419600Y-3494800D01*
X12334000Y-3494800D01*
X12334000Y-3799600D01*
X11724400Y-3799600D01*
X11724400Y-3952000D01*
X11736987Y-4059945D01*
X11796363Y-4099732D01*
X11876800Y-4104400D01*
X11984744Y-4116988D01*
X12024531Y-4176364D01*
X12029200Y-4256800D01*
X12041787Y-4364745D01*
X12101163Y-4404532D01*
X12181600Y-4409200D01*
X12334000Y-4409200D01*
X12334000Y-5018800D01*
X11724400Y-5018800D01*
X11724400Y-5628400D01*
X11114800Y-5628400D01*
X11114800Y-5780800D01*
X11127387Y-5888745D01*
X11186763Y-5928532D01*
X11267200Y-5933200D01*
X11375144Y-5945788D01*
X11414931Y-6005164D01*
X11419600Y-6085600D01*
X11432187Y-6193545D01*
X11491563Y-6233332D01*
X11572000Y-6238000D01*
X11724400Y-6238000D01*
X11724400Y-6085600D01*
X11736987Y-5977656D01*
X11796363Y-5937869D01*
X11876800Y-5933200D01*
X12029200Y-5933200D01*
X12029200Y-5323600D01*
X12638800Y-5323600D01*
X12638800Y-3190000D01*
X12029200Y-3190000D01*
X12029200Y-2885200D01*
X11419600Y-2885200D01*
X11419600Y-2580400D01*
X10810000Y-2580400D01*
X10810000Y-1666000D01*
X9895600Y-1666000D01*
G36*
X8936744Y-1653413D02*
G01*
X8976531Y-1594037D01*
X8981200Y-1513600D01*
X8968612Y-1405656D01*
X8909236Y-1365869D01*
X8828800Y-1361200D01*
X8720855Y-1373788D01*
X8681068Y-1433164D01*
X8676400Y-1513600D01*
X8688987Y-1621545D01*
X8748363Y-1661332D01*
X8828800Y-1666000D01*
X8936744Y-1653413D01*
G37*
X8936744Y-1653413D02*
X8976531Y-1594037D01*
X8981200Y-1513600D01*
X8968612Y-1405656D01*
X8909236Y-1365869D01*
X8828800Y-1361200D01*
X8720855Y-1373788D01*
X8681068Y-1433164D01*
X8676400Y-1513600D01*
X8688987Y-1621545D01*
X8748363Y-1661332D01*
X8828800Y-1666000D01*
X8936744Y-1653413D01*
G36*
X12638800Y-1970800D02*
G01*
X12486400Y-1970800D01*
X12378455Y-1958213D01*
X12338668Y-1898837D01*
X12334000Y-1818400D01*
X12346587Y-1710456D01*
X12405963Y-1670669D01*
X12486400Y-1666000D01*
X12594344Y-1653413D01*
X12634131Y-1594037D01*
X12638800Y-1513600D01*
X12638800Y-1361200D01*
X12029200Y-1361200D01*
X12029200Y-1970800D01*
X11876800Y-1970800D01*
X11768855Y-1983388D01*
X11729068Y-2042764D01*
X11724400Y-2123200D01*
X12029200Y-2123200D01*
X12041787Y-2015256D01*
X12101163Y-1975469D01*
X12181600Y-1970800D01*
X12289544Y-1983388D01*
X12329331Y-2042764D01*
X12334000Y-2123200D01*
X12321412Y-2231145D01*
X12262036Y-2270932D01*
X12181600Y-2275600D01*
X12073655Y-2263013D01*
X12033868Y-2203637D01*
X12029200Y-2123200D01*
X11724400Y-2123200D01*
X11736987Y-2231145D01*
X11796363Y-2270932D01*
X11876800Y-2275600D01*
X11984744Y-2288188D01*
X12024531Y-2347564D01*
X12029200Y-2428000D01*
X12029200Y-2580400D01*
X12638800Y-2580400D01*
X12638800Y-1970800D01*
G37*
X12638800Y-1970800D02*
X12486400Y-1970800D01*
X12378455Y-1958213D01*
X12338668Y-1898837D01*
X12334000Y-1818400D01*
X12346587Y-1710456D01*
X12405963Y-1670669D01*
X12486400Y-1666000D01*
X12594344Y-1653413D01*
X12634131Y-1594037D01*
X12638800Y-1513600D01*
X12638800Y-1361200D01*
X12029200Y-1361200D01*
X12029200Y-1970800D01*
X11876800Y-1970800D01*
X11768855Y-1983388D01*
X11729068Y-2042764D01*
X11724400Y-2123200D01*
X12029200Y-2123200D01*
X12041787Y-2015256D01*
X12101163Y-1975469D01*
X12181600Y-1970800D01*
X12289544Y-1983388D01*
X12329331Y-2042764D01*
X12334000Y-2123200D01*
X12321412Y-2231145D01*
X12262036Y-2270932D01*
X12181600Y-2275600D01*
X12073655Y-2263013D01*
X12033868Y-2203637D01*
X12029200Y-2123200D01*
X11724400Y-2123200D01*
X11736987Y-2231145D01*
X11796363Y-2270932D01*
X11876800Y-2275600D01*
X11984744Y-2288188D01*
X12024531Y-2347564D01*
X12029200Y-2428000D01*
X12029200Y-2580400D01*
X12638800Y-2580400D01*
X12638800Y-1970800D01*
G36*
X4714000Y-1666000D02*
G01*
X4409200Y-1666000D01*
X4409200Y-2275600D01*
X4714000Y-2275600D01*
X4714000Y-1666000D01*
G37*
X4714000Y-1666000D02*
X4409200Y-1666000D01*
X4409200Y-2275600D01*
X4714000Y-2275600D01*
X4714000Y-1666000D01*
G36*
X5933200Y-10200400D02*
G01*
X5628400Y-10200400D01*
X5628400Y-10810000D01*
X5933200Y-10810000D01*
X5933200Y-10200400D01*
G37*
X5933200Y-10200400D02*
X5628400Y-10200400D01*
X5628400Y-10810000D01*
X5933200Y-10810000D01*
X5933200Y-10200400D01*
G36*
X3494800Y-10505200D02*
G01*
X1361200Y-10505200D01*
X1361200Y-12334000D01*
X1666000Y-12334000D01*
X1666000Y-10810000D01*
X3190000Y-10810000D01*
X3190000Y-12334000D01*
X1666000Y-12334000D01*
X1361200Y-12334000D01*
X1361200Y-12638800D01*
X3494800Y-12638800D01*
X3494800Y-10505200D01*
G37*
X3494800Y-10505200D02*
X1361200Y-10505200D01*
X1361200Y-12334000D01*
X1666000Y-12334000D01*
X1666000Y-10810000D01*
X3190000Y-10810000D01*
X3190000Y-12334000D01*
X1666000Y-12334000D01*
X1361200Y-12334000D01*
X1361200Y-12638800D01*
X3494800Y-12638800D01*
X3494800Y-10505200D01*
G36*
X12638800Y-10505200D02*
G01*
X10505200Y-10505200D01*
X10505200Y-12334000D01*
X10810000Y-12334000D01*
X10810000Y-10810000D01*
X12334000Y-10810000D01*
X12334000Y-12334000D01*
X10810000Y-12334000D01*
X10505200Y-12334000D01*
X10505200Y-12638800D01*
X12638800Y-12638800D01*
X12638800Y-10505200D01*
G37*
X12638800Y-10505200D02*
X10505200Y-10505200D01*
X10505200Y-12334000D01*
X10810000Y-12334000D01*
X10810000Y-10810000D01*
X12334000Y-10810000D01*
X12334000Y-12334000D01*
X10810000Y-12334000D01*
X10505200Y-12334000D01*
X10505200Y-12638800D01*
X12638800Y-12638800D01*
X12638800Y-10505200D01*
G36*
X4059944Y-12321413D02*
G01*
X4099731Y-12262037D01*
X4104400Y-12181600D01*
X4091812Y-12073656D01*
X4032436Y-12033869D01*
X3952000Y-12029200D01*
X3844055Y-12041788D01*
X3804268Y-12101164D01*
X3799600Y-12181600D01*
X3812187Y-12289545D01*
X3871563Y-12329332D01*
X3952000Y-12334000D01*
X4059944Y-12321413D01*
G37*
X4059944Y-12321413D02*
X4099731Y-12262037D01*
X4104400Y-12181600D01*
X4091812Y-12073656D01*
X4032436Y-12033869D01*
X3952000Y-12029200D01*
X3844055Y-12041788D01*
X3804268Y-12101164D01*
X3799600Y-12181600D01*
X3812187Y-12289545D01*
X3871563Y-12329332D01*
X3952000Y-12334000D01*
X4059944Y-12321413D01*
G36*
X4714000Y-12029200D02*
G01*
X4409200Y-12029200D01*
X4409200Y-12638800D01*
X4714000Y-12638800D01*
X4714000Y-12029200D01*
G37*
X4714000Y-12029200D02*
X4409200Y-12029200D01*
X4409200Y-12638800D01*
X4714000Y-12638800D01*
X4714000Y-12029200D01*
G36*
X8022344Y-12626213D02*
G01*
X8062131Y-12566837D01*
X8066800Y-12486400D01*
X8054212Y-12378456D01*
X7994836Y-12338669D01*
X7914400Y-12334000D01*
X7806455Y-12346588D01*
X7766668Y-12405964D01*
X7762000Y-12486400D01*
X7774587Y-12594345D01*
X7833963Y-12634132D01*
X7914400Y-12638800D01*
X8022344Y-12626213D01*
G37*
X8022344Y-12626213D02*
X8062131Y-12566837D01*
X8066800Y-12486400D01*
X8054212Y-12378456D01*
X7994836Y-12338669D01*
X7914400Y-12334000D01*
X7806455Y-12346588D01*
X7766668Y-12405964D01*
X7762000Y-12486400D01*
X7774587Y-12594345D01*
X7833963Y-12634132D01*
X7914400Y-12638800D01*
X8022344Y-12626213D01*
G36*
X2885200Y-1970800D02*
G01*
X1970800Y-1970800D01*
X1970800Y-2885200D01*
X2885200Y-2885200D01*
X2885200Y-1970800D01*
G37*
X2885200Y-1970800D02*
X1970800Y-1970800D01*
X1970800Y-2885200D01*
X2885200Y-2885200D01*
X2885200Y-1970800D01*
G36*
X6803144Y-2263013D02*
G01*
X6842931Y-2203637D01*
X6847600Y-2123200D01*
X6835012Y-2015256D01*
X6775636Y-1975469D01*
X6695200Y-1970800D01*
X6587255Y-1983388D01*
X6547468Y-2042764D01*
X6542800Y-2123200D01*
X6555387Y-2231145D01*
X6614763Y-2270932D01*
X6695200Y-2275600D01*
X6803144Y-2263013D01*
G37*
X6803144Y-2263013D02*
X6842931Y-2203637D01*
X6847600Y-2123200D01*
X6835012Y-2015256D01*
X6775636Y-1975469D01*
X6695200Y-1970800D01*
X6587255Y-1983388D01*
X6547468Y-2042764D01*
X6542800Y-2123200D01*
X6555387Y-2231145D01*
X6614763Y-2270932D01*
X6695200Y-2275600D01*
X6803144Y-2263013D01*
G36*
X5888744Y-3177413D02*
G01*
X5928531Y-3118037D01*
X5933200Y-3037600D01*
X5920612Y-2929656D01*
X5861236Y-2889869D01*
X5780800Y-2885200D01*
X5672855Y-2897788D01*
X5633068Y-2957164D01*
X5628400Y-3037600D01*
X5640987Y-3145545D01*
X5700363Y-3185332D01*
X5780800Y-3190000D01*
X5888744Y-3177413D01*
G37*
X5888744Y-3177413D02*
X5928531Y-3118037D01*
X5933200Y-3037600D01*
X5920612Y-2929656D01*
X5861236Y-2889869D01*
X5780800Y-2885200D01*
X5672855Y-2897788D01*
X5633068Y-2957164D01*
X5628400Y-3037600D01*
X5640987Y-3145545D01*
X5700363Y-3185332D01*
X5780800Y-3190000D01*
X5888744Y-3177413D01*
G36*
X4669544Y-4701413D02*
G01*
X4709331Y-4642037D01*
X4714000Y-4561600D01*
X4701412Y-4453656D01*
X4642036Y-4413869D01*
X4561600Y-4409200D01*
X4453655Y-4421788D01*
X4413868Y-4481164D01*
X4409200Y-4561600D01*
X4421787Y-4669545D01*
X4481163Y-4709332D01*
X4561600Y-4714000D01*
X4669544Y-4701413D01*
G37*
X4669544Y-4701413D02*
X4709331Y-4642037D01*
X4714000Y-4561600D01*
X4701412Y-4453656D01*
X4642036Y-4413869D01*
X4561600Y-4409200D01*
X4453655Y-4421788D01*
X4413868Y-4481164D01*
X4409200Y-4561600D01*
X4421787Y-4669545D01*
X4481163Y-4709332D01*
X4561600Y-4714000D01*
X4669544Y-4701413D01*
G36*
X8371600Y-4409200D02*
G01*
X8219200Y-4409200D01*
X8111255Y-4421788D01*
X8071468Y-4481164D01*
X8066800Y-4561600D01*
X8054212Y-4669545D01*
X7994836Y-4709332D01*
X7914400Y-4714000D01*
X7806455Y-4726588D01*
X7766668Y-4785964D01*
X7762000Y-4866400D01*
X7774587Y-4974345D01*
X7833963Y-5014132D01*
X7914400Y-5018800D01*
X8022344Y-5031388D01*
X8062131Y-5090764D01*
X8066800Y-5171200D01*
X8079387Y-5279145D01*
X8138763Y-5318932D01*
X8219200Y-5323600D01*
X8371600Y-5323600D01*
X8371600Y-4409200D01*
G37*
X8371600Y-4409200D02*
X8219200Y-4409200D01*
X8111255Y-4421788D01*
X8071468Y-4481164D01*
X8066800Y-4561600D01*
X8054212Y-4669545D01*
X7994836Y-4709332D01*
X7914400Y-4714000D01*
X7806455Y-4726588D01*
X7766668Y-4785964D01*
X7762000Y-4866400D01*
X7774587Y-4974345D01*
X7833963Y-5014132D01*
X7914400Y-5018800D01*
X8022344Y-5031388D01*
X8062131Y-5090764D01*
X8066800Y-5171200D01*
X8079387Y-5279145D01*
X8138763Y-5318932D01*
X8219200Y-5323600D01*
X8371600Y-5323600D01*
X8371600Y-4409200D01*
G36*
X8371600Y-5933200D02*
G01*
X7457200Y-5933200D01*
X7457200Y-5323600D01*
X7304800Y-5323600D01*
X7196855Y-5311013D01*
X7157068Y-5251637D01*
X7152400Y-5171200D01*
X7164987Y-5063256D01*
X7224363Y-5023469D01*
X7304800Y-5018800D01*
X7412744Y-5006213D01*
X7452531Y-4946837D01*
X7457200Y-4866400D01*
X7444612Y-4758456D01*
X7385236Y-4718669D01*
X7304800Y-4714000D01*
X7196855Y-4726588D01*
X7157068Y-4785964D01*
X7152400Y-4866400D01*
X7152400Y-5018800D01*
X6542800Y-5018800D01*
X6542800Y-5171200D01*
X6530212Y-5279145D01*
X6470836Y-5318932D01*
X6390400Y-5323600D01*
X6282455Y-5336188D01*
X6242668Y-5395564D01*
X6238000Y-5476000D01*
X6250587Y-5583945D01*
X6309963Y-5623732D01*
X6390400Y-5628400D01*
X6498344Y-5640988D01*
X6538131Y-5700364D01*
X6542800Y-5780800D01*
X6530212Y-5888745D01*
X6470836Y-5928532D01*
X6390400Y-5933200D01*
X6282455Y-5945788D01*
X6242668Y-6005164D01*
X6238000Y-6085600D01*
X6542800Y-6085600D01*
X6555387Y-5977656D01*
X6614763Y-5937869D01*
X6695200Y-5933200D01*
X6803144Y-5920613D01*
X6842931Y-5861237D01*
X6847600Y-5780800D01*
X6835012Y-5672856D01*
X6775636Y-5633069D01*
X6695200Y-5628400D01*
X6587255Y-5615813D01*
X6547468Y-5556437D01*
X6542800Y-5476000D01*
X6542800Y-5323600D01*
X7152400Y-5323600D01*
X7152400Y-5933200D01*
X7000000Y-5933200D01*
X6892055Y-5945788D01*
X6852268Y-6005164D01*
X6847600Y-6085600D01*
X6847600Y-6238000D01*
X7457200Y-6238000D01*
X7457200Y-6390400D01*
X8371600Y-6390400D01*
X8384187Y-6282456D01*
X8443563Y-6242669D01*
X8524000Y-6238000D01*
X8631944Y-6250588D01*
X8671731Y-6309964D01*
X8676400Y-6390400D01*
X8663812Y-6498345D01*
X8604436Y-6538132D01*
X8524000Y-6542800D01*
X8416055Y-6530213D01*
X8376268Y-6470837D01*
X8371600Y-6390400D01*
X7457200Y-6390400D01*
X7457200Y-6542800D01*
X6847600Y-6542800D01*
X6847600Y-6390400D01*
X6835012Y-6282456D01*
X6775636Y-6242669D01*
X6695200Y-6238000D01*
X6587255Y-6225413D01*
X6547468Y-6166037D01*
X6542800Y-6085600D01*
X6238000Y-6085600D01*
X6238000Y-6238000D01*
X5628400Y-6238000D01*
X5628400Y-6390400D01*
X5615812Y-6498345D01*
X5556436Y-6538132D01*
X5476000Y-6542800D01*
X5368055Y-6530213D01*
X5328268Y-6470837D01*
X5323600Y-6390400D01*
X5311012Y-6282456D01*
X5251636Y-6242669D01*
X5171200Y-6238000D01*
X5018800Y-6238000D01*
X5018800Y-6695200D01*
X5628400Y-6695200D01*
X5640987Y-6587256D01*
X5700363Y-6547469D01*
X5780800Y-6542800D01*
X5888744Y-6555388D01*
X5928531Y-6614764D01*
X5933200Y-6695200D01*
X5920612Y-6803145D01*
X5861236Y-6842932D01*
X5780800Y-6847600D01*
X5672855Y-6835013D01*
X5633068Y-6775637D01*
X5628400Y-6695200D01*
X5018800Y-6695200D01*
X5018800Y-6847600D01*
X5171200Y-6847600D01*
X5279144Y-6860188D01*
X5318931Y-6919564D01*
X5323600Y-7000000D01*
X5311012Y-7107945D01*
X5251636Y-7147732D01*
X5171200Y-7152400D01*
X5063255Y-7164988D01*
X5023468Y-7224364D01*
X5018800Y-7304800D01*
X5018800Y-7457200D01*
X6238000Y-7457200D01*
X6238000Y-6542800D01*
X6542800Y-6542800D01*
X6542800Y-7152400D01*
X6695200Y-7152400D01*
X6803144Y-7139813D01*
X6842931Y-7080437D01*
X6847600Y-7000000D01*
X6847600Y-6847600D01*
X7457200Y-6847600D01*
X7457200Y-7000000D01*
X7444612Y-7107945D01*
X7385236Y-7147732D01*
X7304800Y-7152400D01*
X7196855Y-7164988D01*
X7157068Y-7224364D01*
X7152400Y-7304800D01*
X7164987Y-7412745D01*
X7224363Y-7452532D01*
X7304800Y-7457200D01*
X7412744Y-7444613D01*
X7452531Y-7385237D01*
X7457200Y-7304800D01*
X7469787Y-7196856D01*
X7529163Y-7157069D01*
X7609600Y-7152400D01*
X7717544Y-7139813D01*
X7757331Y-7080437D01*
X7762000Y-7000000D01*
X7774587Y-6892056D01*
X7833963Y-6852269D01*
X7914400Y-6847600D01*
X8022344Y-6835013D01*
X8062131Y-6775637D01*
X8066800Y-6695200D01*
X8079387Y-6587256D01*
X8138763Y-6547469D01*
X8219200Y-6542800D01*
X8327144Y-6555388D01*
X8366931Y-6614764D01*
X8371600Y-6695200D01*
X8384187Y-6803145D01*
X8443563Y-6842932D01*
X8524000Y-6847600D01*
X8631944Y-6835013D01*
X8671731Y-6775637D01*
X8676400Y-6695200D01*
X8688987Y-6587256D01*
X8748363Y-6547469D01*
X8828800Y-6542800D01*
X8936744Y-6530213D01*
X8976531Y-6470837D01*
X8981200Y-6390400D01*
X8968612Y-6282456D01*
X8909236Y-6242669D01*
X8828800Y-6238000D01*
X8720855Y-6225413D01*
X8681068Y-6166037D01*
X8676400Y-6085600D01*
X8688987Y-5977656D01*
X8748363Y-5937869D01*
X8828800Y-5933200D01*
X8936744Y-5920613D01*
X8976531Y-5861237D01*
X8981200Y-5780800D01*
X8968612Y-5672856D01*
X8909236Y-5633069D01*
X8828800Y-5628400D01*
X8720855Y-5615813D01*
X8681068Y-5556437D01*
X8676400Y-5476000D01*
X8663812Y-5368056D01*
X8604436Y-5328269D01*
X8524000Y-5323600D01*
X8371600Y-5323600D01*
X8371600Y-5933200D01*
G37*
X8371600Y-5933200D02*
X7457200Y-5933200D01*
X7457200Y-5323600D01*
X7304800Y-5323600D01*
X7196855Y-5311013D01*
X7157068Y-5251637D01*
X7152400Y-5171200D01*
X7164987Y-5063256D01*
X7224363Y-5023469D01*
X7304800Y-5018800D01*
X7412744Y-5006213D01*
X7452531Y-4946837D01*
X7457200Y-4866400D01*
X7444612Y-4758456D01*
X7385236Y-4718669D01*
X7304800Y-4714000D01*
X7196855Y-4726588D01*
X7157068Y-4785964D01*
X7152400Y-4866400D01*
X7152400Y-5018800D01*
X6542800Y-5018800D01*
X6542800Y-5171200D01*
X6530212Y-5279145D01*
X6470836Y-5318932D01*
X6390400Y-5323600D01*
X6282455Y-5336188D01*
X6242668Y-5395564D01*
X6238000Y-5476000D01*
X6250587Y-5583945D01*
X6309963Y-5623732D01*
X6390400Y-5628400D01*
X6498344Y-5640988D01*
X6538131Y-5700364D01*
X6542800Y-5780800D01*
X6530212Y-5888745D01*
X6470836Y-5928532D01*
X6390400Y-5933200D01*
X6282455Y-5945788D01*
X6242668Y-6005164D01*
X6238000Y-6085600D01*
X6542800Y-6085600D01*
X6555387Y-5977656D01*
X6614763Y-5937869D01*
X6695200Y-5933200D01*
X6803144Y-5920613D01*
X6842931Y-5861237D01*
X6847600Y-5780800D01*
X6835012Y-5672856D01*
X6775636Y-5633069D01*
X6695200Y-5628400D01*
X6587255Y-5615813D01*
X6547468Y-5556437D01*
X6542800Y-5476000D01*
X6542800Y-5323600D01*
X7152400Y-5323600D01*
X7152400Y-5933200D01*
X7000000Y-5933200D01*
X6892055Y-5945788D01*
X6852268Y-6005164D01*
X6847600Y-6085600D01*
X6847600Y-6238000D01*
X7457200Y-6238000D01*
X7457200Y-6390400D01*
X8371600Y-6390400D01*
X8384187Y-6282456D01*
X8443563Y-6242669D01*
X8524000Y-6238000D01*
X8631944Y-6250588D01*
X8671731Y-6309964D01*
X8676400Y-6390400D01*
X8663812Y-6498345D01*
X8604436Y-6538132D01*
X8524000Y-6542800D01*
X8416055Y-6530213D01*
X8376268Y-6470837D01*
X8371600Y-6390400D01*
X7457200Y-6390400D01*
X7457200Y-6542800D01*
X6847600Y-6542800D01*
X6847600Y-6390400D01*
X6835012Y-6282456D01*
X6775636Y-6242669D01*
X6695200Y-6238000D01*
X6587255Y-6225413D01*
X6547468Y-6166037D01*
X6542800Y-6085600D01*
X6238000Y-6085600D01*
X6238000Y-6238000D01*
X5628400Y-6238000D01*
X5628400Y-6390400D01*
X5615812Y-6498345D01*
X5556436Y-6538132D01*
X5476000Y-6542800D01*
X5368055Y-6530213D01*
X5328268Y-6470837D01*
X5323600Y-6390400D01*
X5311012Y-6282456D01*
X5251636Y-6242669D01*
X5171200Y-6238000D01*
X5018800Y-6238000D01*
X5018800Y-6695200D01*
X5628400Y-6695200D01*
X5640987Y-6587256D01*
X5700363Y-6547469D01*
X5780800Y-6542800D01*
X5888744Y-6555388D01*
X5928531Y-6614764D01*
X5933200Y-6695200D01*
X5920612Y-6803145D01*
X5861236Y-6842932D01*
X5780800Y-6847600D01*
X5672855Y-6835013D01*
X5633068Y-6775637D01*
X5628400Y-6695200D01*
X5018800Y-6695200D01*
X5018800Y-6847600D01*
X5171200Y-6847600D01*
X5279144Y-6860188D01*
X5318931Y-6919564D01*
X5323600Y-7000000D01*
X5311012Y-7107945D01*
X5251636Y-7147732D01*
X5171200Y-7152400D01*
X5063255Y-7164988D01*
X5023468Y-7224364D01*
X5018800Y-7304800D01*
X5018800Y-7457200D01*
X6238000Y-7457200D01*
X6238000Y-6542800D01*
X6542800Y-6542800D01*
X6542800Y-7152400D01*
X6695200Y-7152400D01*
X6803144Y-7139813D01*
X6842931Y-7080437D01*
X6847600Y-7000000D01*
X6847600Y-6847600D01*
X7457200Y-6847600D01*
X7457200Y-7000000D01*
X7444612Y-7107945D01*
X7385236Y-7147732D01*
X7304800Y-7152400D01*
X7196855Y-7164988D01*
X7157068Y-7224364D01*
X7152400Y-7304800D01*
X7164987Y-7412745D01*
X7224363Y-7452532D01*
X7304800Y-7457200D01*
X7412744Y-7444613D01*
X7452531Y-7385237D01*
X7457200Y-7304800D01*
X7469787Y-7196856D01*
X7529163Y-7157069D01*
X7609600Y-7152400D01*
X7717544Y-7139813D01*
X7757331Y-7080437D01*
X7762000Y-7000000D01*
X7774587Y-6892056D01*
X7833963Y-6852269D01*
X7914400Y-6847600D01*
X8022344Y-6835013D01*
X8062131Y-6775637D01*
X8066800Y-6695200D01*
X8079387Y-6587256D01*
X8138763Y-6547469D01*
X8219200Y-6542800D01*
X8327144Y-6555388D01*
X8366931Y-6614764D01*
X8371600Y-6695200D01*
X8384187Y-6803145D01*
X8443563Y-6842932D01*
X8524000Y-6847600D01*
X8631944Y-6835013D01*
X8671731Y-6775637D01*
X8676400Y-6695200D01*
X8688987Y-6587256D01*
X8748363Y-6547469D01*
X8828800Y-6542800D01*
X8936744Y-6530213D01*
X8976531Y-6470837D01*
X8981200Y-6390400D01*
X8968612Y-6282456D01*
X8909236Y-6242669D01*
X8828800Y-6238000D01*
X8720855Y-6225413D01*
X8681068Y-6166037D01*
X8676400Y-6085600D01*
X8688987Y-5977656D01*
X8748363Y-5937869D01*
X8828800Y-5933200D01*
X8936744Y-5920613D01*
X8976531Y-5861237D01*
X8981200Y-5780800D01*
X8968612Y-5672856D01*
X8909236Y-5633069D01*
X8828800Y-5628400D01*
X8720855Y-5615813D01*
X8681068Y-5556437D01*
X8676400Y-5476000D01*
X8663812Y-5368056D01*
X8604436Y-5328269D01*
X8524000Y-5323600D01*
X8371600Y-5323600D01*
X8371600Y-5933200D01*
G36*
X4059944Y-5615813D02*
G01*
X4099731Y-5556437D01*
X4104400Y-5476000D01*
X4116987Y-5368056D01*
X4176363Y-5328269D01*
X4256800Y-5323600D01*
X4364744Y-5311013D01*
X4404531Y-5251637D01*
X4409200Y-5171200D01*
X4396612Y-5063256D01*
X4337236Y-5023469D01*
X4256800Y-5018800D01*
X4148855Y-5031388D01*
X4109068Y-5090764D01*
X4104400Y-5171200D01*
X4091812Y-5279145D01*
X4032436Y-5318932D01*
X3952000Y-5323600D01*
X3844055Y-5336188D01*
X3804268Y-5395564D01*
X3799600Y-5476000D01*
X3812187Y-5583945D01*
X3871563Y-5623732D01*
X3952000Y-5628400D01*
X4059944Y-5615813D01*
G37*
X4059944Y-5615813D02*
X4099731Y-5556437D01*
X4104400Y-5476000D01*
X4116987Y-5368056D01*
X4176363Y-5328269D01*
X4256800Y-5323600D01*
X4364744Y-5311013D01*
X4404531Y-5251637D01*
X4409200Y-5171200D01*
X4396612Y-5063256D01*
X4337236Y-5023469D01*
X4256800Y-5018800D01*
X4148855Y-5031388D01*
X4109068Y-5090764D01*
X4104400Y-5171200D01*
X4091812Y-5279145D01*
X4032436Y-5318932D01*
X3952000Y-5323600D01*
X3844055Y-5336188D01*
X3804268Y-5395564D01*
X3799600Y-5476000D01*
X3812187Y-5583945D01*
X3871563Y-5623732D01*
X3952000Y-5628400D01*
X4059944Y-5615813D01*
G36*
X9241544Y-5311013D02*
G01*
X9281331Y-5251637D01*
X9286000Y-5171200D01*
X9273412Y-5063256D01*
X9214036Y-5023469D01*
X9133600Y-5018800D01*
X9025655Y-5031388D01*
X8985868Y-5090764D01*
X8981200Y-5171200D01*
X8993787Y-5279145D01*
X9053163Y-5318932D01*
X9133600Y-5323600D01*
X9241544Y-5311013D01*
G37*
X9241544Y-5311013D02*
X9281331Y-5251637D01*
X9286000Y-5171200D01*
X9273412Y-5063256D01*
X9214036Y-5023469D01*
X9133600Y-5018800D01*
X9025655Y-5031388D01*
X8985868Y-5090764D01*
X8981200Y-5171200D01*
X8993787Y-5279145D01*
X9053163Y-5318932D01*
X9133600Y-5323600D01*
X9241544Y-5311013D01*
G36*
X5888744Y-5615813D02*
G01*
X5928531Y-5556437D01*
X5933200Y-5476000D01*
X5920612Y-5368056D01*
X5861236Y-5328269D01*
X5780800Y-5323600D01*
X5672855Y-5336188D01*
X5633068Y-5395564D01*
X5628400Y-5476000D01*
X5640987Y-5583945D01*
X5700363Y-5623732D01*
X5780800Y-5628400D01*
X5888744Y-5615813D01*
G37*
X5888744Y-5615813D02*
X5928531Y-5556437D01*
X5933200Y-5476000D01*
X5920612Y-5368056D01*
X5861236Y-5328269D01*
X5780800Y-5323600D01*
X5672855Y-5336188D01*
X5633068Y-5395564D01*
X5628400Y-5476000D01*
X5640987Y-5583945D01*
X5700363Y-5623732D01*
X5780800Y-5628400D01*
X5888744Y-5615813D01*
G36*
X9590800Y-7762000D02*
G01*
X9743200Y-7762000D01*
X9851144Y-7749413D01*
X9890931Y-7690037D01*
X9895600Y-7609600D01*
X9908187Y-7501656D01*
X9967563Y-7461869D01*
X10048000Y-7457200D01*
X10155944Y-7469788D01*
X10195731Y-7529164D01*
X10200400Y-7609600D01*
X10212987Y-7717545D01*
X10272363Y-7757332D01*
X10352800Y-7762000D01*
X10505200Y-7762000D01*
X10505200Y-7152400D01*
X10810000Y-7152400D01*
X10810000Y-6238000D01*
X10657600Y-6238000D01*
X10549655Y-6250588D01*
X10509868Y-6309964D01*
X10505200Y-6390400D01*
X10492612Y-6498345D01*
X10433236Y-6538132D01*
X10352800Y-6542800D01*
X10244855Y-6530213D01*
X10205068Y-6470837D01*
X10200400Y-6390400D01*
X10187812Y-6282456D01*
X10128436Y-6242669D01*
X10048000Y-6238000D01*
X9895600Y-6238000D01*
X9895600Y-5628400D01*
X9286000Y-5628400D01*
X9286000Y-5780800D01*
X9298587Y-5888745D01*
X9357963Y-5928532D01*
X9438400Y-5933200D01*
X9546344Y-5945788D01*
X9586131Y-6005164D01*
X9590800Y-6085600D01*
X9578212Y-6193545D01*
X9518836Y-6233332D01*
X9438400Y-6238000D01*
X9330455Y-6250588D01*
X9290668Y-6309964D01*
X9286000Y-6390400D01*
X9286000Y-6542800D01*
X9895600Y-6542800D01*
X9895600Y-6695200D01*
X9908187Y-6803145D01*
X9967563Y-6842932D01*
X10048000Y-6847600D01*
X10155944Y-6860188D01*
X10195731Y-6919564D01*
X10200400Y-7000000D01*
X10187812Y-7107945D01*
X10128436Y-7147732D01*
X10048000Y-7152400D01*
X9940055Y-7164988D01*
X9900268Y-7224364D01*
X9895600Y-7304800D01*
X9883012Y-7412745D01*
X9823636Y-7452532D01*
X9743200Y-7457200D01*
X9635255Y-7469788D01*
X9595468Y-7529164D01*
X9590800Y-7609600D01*
X9578212Y-7717545D01*
X9518836Y-7757332D01*
X9438400Y-7762000D01*
X9330455Y-7749413D01*
X9290668Y-7690037D01*
X9286000Y-7609600D01*
X9286000Y-7457200D01*
X8676400Y-7457200D01*
X8676400Y-7609600D01*
X8663812Y-7717545D01*
X8604436Y-7757332D01*
X8524000Y-7762000D01*
X8416055Y-7774588D01*
X8376268Y-7833964D01*
X8371600Y-7914400D01*
X8981200Y-7914400D01*
X8993787Y-7806456D01*
X9053163Y-7766669D01*
X9133600Y-7762000D01*
X9241544Y-7774588D01*
X9281331Y-7833964D01*
X9286000Y-7914400D01*
X9273412Y-8022345D01*
X9214036Y-8062132D01*
X9133600Y-8066800D01*
X9025655Y-8054213D01*
X8985868Y-7994837D01*
X8981200Y-7914400D01*
X8371600Y-7914400D01*
X8359012Y-8022345D01*
X8299636Y-8062132D01*
X8219200Y-8066800D01*
X8111255Y-8079388D01*
X8071468Y-8138764D01*
X8066800Y-8219200D01*
X8079387Y-8327145D01*
X8138763Y-8366932D01*
X8219200Y-8371600D01*
X8327144Y-8359013D01*
X8366931Y-8299637D01*
X8371600Y-8219200D01*
X8371600Y-8066800D01*
X8981200Y-8066800D01*
X8981200Y-8219200D01*
X8993787Y-8327145D01*
X9053163Y-8366932D01*
X9133600Y-8371600D01*
X9241544Y-8384188D01*
X9281331Y-8443564D01*
X9286000Y-8524000D01*
X9298587Y-8631945D01*
X9357963Y-8671732D01*
X9438400Y-8676400D01*
X9590800Y-8676400D01*
X9590800Y-7762000D01*
G37*
X9590800Y-7762000D02*
X9743200Y-7762000D01*
X9851144Y-7749413D01*
X9890931Y-7690037D01*
X9895600Y-7609600D01*
X9908187Y-7501656D01*
X9967563Y-7461869D01*
X10048000Y-7457200D01*
X10155944Y-7469788D01*
X10195731Y-7529164D01*
X10200400Y-7609600D01*
X10212987Y-7717545D01*
X10272363Y-7757332D01*
X10352800Y-7762000D01*
X10505200Y-7762000D01*
X10505200Y-7152400D01*
X10810000Y-7152400D01*
X10810000Y-6238000D01*
X10657600Y-6238000D01*
X10549655Y-6250588D01*
X10509868Y-6309964D01*
X10505200Y-6390400D01*
X10492612Y-6498345D01*
X10433236Y-6538132D01*
X10352800Y-6542800D01*
X10244855Y-6530213D01*
X10205068Y-6470837D01*
X10200400Y-6390400D01*
X10187812Y-6282456D01*
X10128436Y-6242669D01*
X10048000Y-6238000D01*
X9895600Y-6238000D01*
X9895600Y-5628400D01*
X9286000Y-5628400D01*
X9286000Y-5780800D01*
X9298587Y-5888745D01*
X9357963Y-5928532D01*
X9438400Y-5933200D01*
X9546344Y-5945788D01*
X9586131Y-6005164D01*
X9590800Y-6085600D01*
X9578212Y-6193545D01*
X9518836Y-6233332D01*
X9438400Y-6238000D01*
X9330455Y-6250588D01*
X9290668Y-6309964D01*
X9286000Y-6390400D01*
X9286000Y-6542800D01*
X9895600Y-6542800D01*
X9895600Y-6695200D01*
X9908187Y-6803145D01*
X9967563Y-6842932D01*
X10048000Y-6847600D01*
X10155944Y-6860188D01*
X10195731Y-6919564D01*
X10200400Y-7000000D01*
X10187812Y-7107945D01*
X10128436Y-7147732D01*
X10048000Y-7152400D01*
X9940055Y-7164988D01*
X9900268Y-7224364D01*
X9895600Y-7304800D01*
X9883012Y-7412745D01*
X9823636Y-7452532D01*
X9743200Y-7457200D01*
X9635255Y-7469788D01*
X9595468Y-7529164D01*
X9590800Y-7609600D01*
X9578212Y-7717545D01*
X9518836Y-7757332D01*
X9438400Y-7762000D01*
X9330455Y-7749413D01*
X9290668Y-7690037D01*
X9286000Y-7609600D01*
X9286000Y-7457200D01*
X8676400Y-7457200D01*
X8676400Y-7609600D01*
X8663812Y-7717545D01*
X8604436Y-7757332D01*
X8524000Y-7762000D01*
X8416055Y-7774588D01*
X8376268Y-7833964D01*
X8371600Y-7914400D01*
X8981200Y-7914400D01*
X8993787Y-7806456D01*
X9053163Y-7766669D01*
X9133600Y-7762000D01*
X9241544Y-7774588D01*
X9281331Y-7833964D01*
X9286000Y-7914400D01*
X9273412Y-8022345D01*
X9214036Y-8062132D01*
X9133600Y-8066800D01*
X9025655Y-8054213D01*
X8985868Y-7994837D01*
X8981200Y-7914400D01*
X8371600Y-7914400D01*
X8359012Y-8022345D01*
X8299636Y-8062132D01*
X8219200Y-8066800D01*
X8111255Y-8079388D01*
X8071468Y-8138764D01*
X8066800Y-8219200D01*
X8079387Y-8327145D01*
X8138763Y-8366932D01*
X8219200Y-8371600D01*
X8327144Y-8359013D01*
X8366931Y-8299637D01*
X8371600Y-8219200D01*
X8371600Y-8066800D01*
X8981200Y-8066800D01*
X8981200Y-8219200D01*
X8993787Y-8327145D01*
X9053163Y-8366932D01*
X9133600Y-8371600D01*
X9241544Y-8384188D01*
X9281331Y-8443564D01*
X9286000Y-8524000D01*
X9298587Y-8631945D01*
X9357963Y-8671732D01*
X9438400Y-8676400D01*
X9590800Y-8676400D01*
X9590800Y-7762000D01*
G36*
X9590800Y-9286000D02*
G01*
X10200400Y-9286000D01*
X10200400Y-9133600D01*
X10212987Y-9025656D01*
X10272363Y-8985869D01*
X10352800Y-8981200D01*
X10460744Y-8968613D01*
X10500531Y-8909237D01*
X10505200Y-8828800D01*
X10517787Y-8720856D01*
X10577163Y-8681069D01*
X10657600Y-8676400D01*
X10810000Y-8676400D01*
X10810000Y-8066800D01*
X10962400Y-8066800D01*
X11070344Y-8079388D01*
X11110131Y-8138764D01*
X11114800Y-8219200D01*
X11127387Y-8327145D01*
X11186763Y-8366932D01*
X11267200Y-8371600D01*
X11375144Y-8384188D01*
X11414931Y-8443564D01*
X11419600Y-8524000D01*
X11419600Y-8676400D01*
X10810000Y-8676400D01*
X10810000Y-9286000D01*
X10962400Y-9286000D01*
X11070344Y-9273413D01*
X11110131Y-9214037D01*
X11114800Y-9133600D01*
X11127387Y-9025656D01*
X11186763Y-8985869D01*
X11267200Y-8981200D01*
X11375144Y-8968613D01*
X11414931Y-8909237D01*
X11419600Y-8828800D01*
X11432187Y-8720856D01*
X11491563Y-8681069D01*
X11572000Y-8676400D01*
X11679944Y-8663813D01*
X11719731Y-8604437D01*
X11724400Y-8524000D01*
X11711812Y-8416056D01*
X11652436Y-8376269D01*
X11572000Y-8371600D01*
X11464055Y-8359013D01*
X11424268Y-8299637D01*
X11419600Y-8219200D01*
X11407012Y-8111256D01*
X11347636Y-8071469D01*
X11267200Y-8066800D01*
X11159255Y-8054213D01*
X11119468Y-7994837D01*
X11114800Y-7914400D01*
X11102212Y-7806456D01*
X11042836Y-7766669D01*
X10962400Y-7762000D01*
X10854455Y-7774588D01*
X10814668Y-7833964D01*
X10810000Y-7914400D01*
X10797412Y-8022345D01*
X10738036Y-8062132D01*
X10657600Y-8066800D01*
X10549655Y-8079388D01*
X10509868Y-8138764D01*
X10505200Y-8219200D01*
X10505200Y-8371600D01*
X9895600Y-8371600D01*
X9895600Y-8524000D01*
X9883012Y-8631945D01*
X9823636Y-8671732D01*
X9743200Y-8676400D01*
X9590800Y-8676400D01*
X9590800Y-9286000D01*
G37*
X9590800Y-9286000D02*
X10200400Y-9286000D01*
X10200400Y-9133600D01*
X10212987Y-9025656D01*
X10272363Y-8985869D01*
X10352800Y-8981200D01*
X10460744Y-8968613D01*
X10500531Y-8909237D01*
X10505200Y-8828800D01*
X10517787Y-8720856D01*
X10577163Y-8681069D01*
X10657600Y-8676400D01*
X10810000Y-8676400D01*
X10810000Y-8066800D01*
X10962400Y-8066800D01*
X11070344Y-8079388D01*
X11110131Y-8138764D01*
X11114800Y-8219200D01*
X11127387Y-8327145D01*
X11186763Y-8366932D01*
X11267200Y-8371600D01*
X11375144Y-8384188D01*
X11414931Y-8443564D01*
X11419600Y-8524000D01*
X11419600Y-8676400D01*
X10810000Y-8676400D01*
X10810000Y-9286000D01*
X10962400Y-9286000D01*
X11070344Y-9273413D01*
X11110131Y-9214037D01*
X11114800Y-9133600D01*
X11127387Y-9025656D01*
X11186763Y-8985869D01*
X11267200Y-8981200D01*
X11375144Y-8968613D01*
X11414931Y-8909237D01*
X11419600Y-8828800D01*
X11432187Y-8720856D01*
X11491563Y-8681069D01*
X11572000Y-8676400D01*
X11679944Y-8663813D01*
X11719731Y-8604437D01*
X11724400Y-8524000D01*
X11711812Y-8416056D01*
X11652436Y-8376269D01*
X11572000Y-8371600D01*
X11464055Y-8359013D01*
X11424268Y-8299637D01*
X11419600Y-8219200D01*
X11407012Y-8111256D01*
X11347636Y-8071469D01*
X11267200Y-8066800D01*
X11159255Y-8054213D01*
X11119468Y-7994837D01*
X11114800Y-7914400D01*
X11102212Y-7806456D01*
X11042836Y-7766669D01*
X10962400Y-7762000D01*
X10854455Y-7774588D01*
X10814668Y-7833964D01*
X10810000Y-7914400D01*
X10797412Y-8022345D01*
X10738036Y-8062132D01*
X10657600Y-8066800D01*
X10549655Y-8079388D01*
X10509868Y-8138764D01*
X10505200Y-8219200D01*
X10505200Y-8371600D01*
X9895600Y-8371600D01*
X9895600Y-8524000D01*
X9883012Y-8631945D01*
X9823636Y-8671732D01*
X9743200Y-8676400D01*
X9590800Y-8676400D01*
X9590800Y-9286000D01*
G36*
X11375144Y-6530213D02*
G01*
X11414931Y-6470837D01*
X11419600Y-6390400D01*
X11407012Y-6282456D01*
X11347636Y-6242669D01*
X11267200Y-6238000D01*
X11159255Y-6250588D01*
X11119468Y-6309964D01*
X11114800Y-6390400D01*
X11127387Y-6498345D01*
X11186763Y-6538132D01*
X11267200Y-6542800D01*
X11375144Y-6530213D01*
G37*
X11375144Y-6530213D02*
X11414931Y-6470837D01*
X11419600Y-6390400D01*
X11407012Y-6282456D01*
X11347636Y-6242669D01*
X11267200Y-6238000D01*
X11159255Y-6250588D01*
X11119468Y-6309964D01*
X11114800Y-6390400D01*
X11127387Y-6498345D01*
X11186763Y-6538132D01*
X11267200Y-6542800D01*
X11375144Y-6530213D01*
G36*
X9590800Y-6847600D02*
G01*
X8981200Y-6847600D01*
X8981200Y-7152400D01*
X9590800Y-7152400D01*
X9590800Y-6847600D01*
G37*
X9590800Y-6847600D02*
X8981200Y-6847600D01*
X8981200Y-7152400D01*
X9590800Y-7152400D01*
X9590800Y-6847600D01*
G36*
X5888744Y-8054213D02*
G01*
X5928531Y-7994837D01*
X5933200Y-7914400D01*
X5920612Y-7806456D01*
X5861236Y-7766669D01*
X5780800Y-7762000D01*
X5672855Y-7774588D01*
X5633068Y-7833964D01*
X5628400Y-7914400D01*
X5640987Y-8022345D01*
X5700363Y-8062132D01*
X5780800Y-8066800D01*
X5888744Y-8054213D01*
G37*
X5888744Y-8054213D02*
X5928531Y-7994837D01*
X5933200Y-7914400D01*
X5920612Y-7806456D01*
X5861236Y-7766669D01*
X5780800Y-7762000D01*
X5672855Y-7774588D01*
X5633068Y-7833964D01*
X5628400Y-7914400D01*
X5640987Y-8022345D01*
X5700363Y-8062132D01*
X5780800Y-8066800D01*
X5888744Y-8054213D01*
G36*
X7412744Y-9883013D02*
G01*
X7452531Y-9823637D01*
X7457200Y-9743200D01*
X7444612Y-9635256D01*
X7385236Y-9595469D01*
X7304800Y-9590800D01*
X7196855Y-9603388D01*
X7157068Y-9662764D01*
X7152400Y-9743200D01*
X7164987Y-9851145D01*
X7224363Y-9890932D01*
X7304800Y-9895600D01*
X7412744Y-9883013D01*
G37*
X7412744Y-9883013D02*
X7452531Y-9823637D01*
X7457200Y-9743200D01*
X7444612Y-9635256D01*
X7385236Y-9595469D01*
X7304800Y-9590800D01*
X7196855Y-9603388D01*
X7157068Y-9662764D01*
X7152400Y-9743200D01*
X7164987Y-9851145D01*
X7224363Y-9890932D01*
X7304800Y-9895600D01*
X7412744Y-9883013D01*
G36*
X7412744Y-11102213D02*
G01*
X7452531Y-11042837D01*
X7457200Y-10962400D01*
X7444612Y-10854456D01*
X7385236Y-10814669D01*
X7304800Y-10810000D01*
X7196855Y-10797413D01*
X7157068Y-10738037D01*
X7152400Y-10657600D01*
X7139812Y-10549656D01*
X7080436Y-10509869D01*
X7000000Y-10505200D01*
X6892055Y-10517788D01*
X6852268Y-10577164D01*
X6847600Y-10657600D01*
X6860187Y-10765545D01*
X6919563Y-10805332D01*
X7000000Y-10810000D01*
X7107944Y-10822588D01*
X7147731Y-10881964D01*
X7152400Y-10962400D01*
X7164987Y-11070345D01*
X7224363Y-11110132D01*
X7304800Y-11114800D01*
X7412744Y-11102213D01*
G37*
X7412744Y-11102213D02*
X7452531Y-11042837D01*
X7457200Y-10962400D01*
X7444612Y-10854456D01*
X7385236Y-10814669D01*
X7304800Y-10810000D01*
X7196855Y-10797413D01*
X7157068Y-10738037D01*
X7152400Y-10657600D01*
X7139812Y-10549656D01*
X7080436Y-10509869D01*
X7000000Y-10505200D01*
X6892055Y-10517788D01*
X6852268Y-10577164D01*
X6847600Y-10657600D01*
X6860187Y-10765545D01*
X6919563Y-10805332D01*
X7000000Y-10810000D01*
X7107944Y-10822588D01*
X7147731Y-10881964D01*
X7152400Y-10962400D01*
X7164987Y-11070345D01*
X7224363Y-11110132D01*
X7304800Y-11114800D01*
X7412744Y-11102213D01*
G36*
X10765544Y-3482213D02*
G01*
X10805331Y-3422837D01*
X10810000Y-3342400D01*
X10797412Y-3234456D01*
X10738036Y-3194669D01*
X10657600Y-3190000D01*
X10549655Y-3202588D01*
X10509868Y-3261964D01*
X10505200Y-3342400D01*
X10517787Y-3450345D01*
X10577163Y-3490132D01*
X10657600Y-3494800D01*
X10765544Y-3482213D01*
G37*
X10765544Y-3482213D02*
X10805331Y-3422837D01*
X10810000Y-3342400D01*
X10797412Y-3234456D01*
X10738036Y-3194669D01*
X10657600Y-3190000D01*
X10549655Y-3202588D01*
X10509868Y-3261964D01*
X10505200Y-3342400D01*
X10517787Y-3450345D01*
X10577163Y-3490132D01*
X10657600Y-3494800D01*
X10765544Y-3482213D01*
G36*
X2885200Y-11114800D02*
G01*
X1970800Y-11114800D01*
X1970800Y-12029200D01*
X2885200Y-12029200D01*
X2885200Y-11114800D01*
G37*
X2885200Y-11114800D02*
X1970800Y-11114800D01*
X1970800Y-12029200D01*
X2885200Y-12029200D01*
X2885200Y-11114800D01*
G36*
X12029200Y-11114800D02*
G01*
X11114800Y-11114800D01*
X11114800Y-12029200D01*
X12029200Y-12029200D01*
X12029200Y-11114800D01*
G37*
X12029200Y-11114800D02*
X11114800Y-11114800D01*
X11114800Y-12029200D01*
X12029200Y-12029200D01*
X12029200Y-11114800D01*
G36*
X53898261Y-50076522D02*
G01*
X100060000Y-50076522D01*
X100060000Y-45327827D01*
X94427827Y-45327827D01*
X92881740Y-45327827D01*
X92881740Y-38978737D01*
X91500426Y-41048934D01*
X91099536Y-41644349D01*
X90737104Y-42172386D01*
X90431544Y-42607049D01*
X90201270Y-42922344D01*
X90064697Y-43092274D01*
X90037165Y-43114600D01*
X89954486Y-43025623D01*
X89768161Y-42778854D01*
X89496800Y-42400448D01*
X89159015Y-41916560D01*
X88773418Y-41353345D01*
X88574783Y-41059489D01*
X87194348Y-39008908D01*
X87165046Y-42168367D01*
X87135744Y-45327827D01*
X85593044Y-45327827D01*
X85593044Y-40137392D01*
X83384348Y-40137392D01*
X83384348Y-45327827D01*
X76868696Y-45327827D01*
X76868696Y-43892174D01*
X81838261Y-43892174D01*
X81838261Y-41573044D01*
X77420870Y-41573044D01*
X77420870Y-40137392D01*
X83384348Y-40137392D01*
X85593044Y-40137392D01*
X85593044Y-36493044D01*
X83384348Y-36493044D01*
X83384348Y-37928696D01*
X76758261Y-37928696D01*
X76758261Y-36493044D01*
X75543479Y-36493044D01*
X75543479Y-37928696D01*
X72782609Y-37928696D01*
X72782609Y-45327827D01*
X71126087Y-45327827D01*
X67478954Y-45327827D01*
X65863762Y-45327827D01*
X64381229Y-41798732D01*
X63980204Y-40847702D01*
X63654162Y-40084073D01*
X63394802Y-39490681D01*
X63193821Y-39050362D01*
X63042919Y-38745952D01*
X62933794Y-38560287D01*
X62858144Y-38476203D01*
X62807667Y-38476535D01*
X62788261Y-38505116D01*
X62719279Y-38661953D01*
X62575639Y-38995863D01*
X62368592Y-39480439D01*
X62109388Y-40089276D01*
X61809276Y-40795968D01*
X61479507Y-41574109D01*
X61296493Y-42006602D01*
X59915159Y-45272609D01*
X59115406Y-45305056D01*
X58727455Y-45308830D01*
X58443234Y-45288787D01*
X58317501Y-45249188D01*
X58315653Y-45242814D01*
X58358621Y-45124736D01*
X58481462Y-44825718D01*
X58675081Y-44366977D01*
X58930383Y-43769732D01*
X59238273Y-43055201D01*
X59589655Y-42244602D01*
X59975436Y-41359152D01*
X60223050Y-40792976D01*
X62130447Y-36437827D01*
X62845876Y-36406015D01*
X63561305Y-36374204D01*
X65239302Y-40216015D01*
X65628883Y-41107758D01*
X66001567Y-41960429D01*
X66345493Y-42746919D01*
X66648800Y-43440120D01*
X66899627Y-44012925D01*
X67086112Y-44438224D01*
X67196396Y-44688911D01*
X67198127Y-44692827D01*
X67478954Y-45327827D01*
X71126087Y-45327827D01*
X71126087Y-37928696D01*
X68365218Y-37928696D01*
X68365218Y-36493044D01*
X75543479Y-36493044D01*
X76758261Y-36493044D01*
X83384348Y-36493044D01*
X85593044Y-36493044D01*
X86448914Y-36494420D01*
X87304783Y-36495795D01*
X88622061Y-38539881D01*
X89101838Y-39274290D01*
X89477571Y-39826178D01*
X89755738Y-40204253D01*
X89942815Y-40417224D01*
X90045281Y-40473797D01*
X90055924Y-40467381D01*
X90149189Y-40342614D01*
X90342025Y-40061856D01*
X90614530Y-39654886D01*
X90946804Y-39151481D01*
X91318943Y-38581420D01*
X91404505Y-38449528D01*
X92636501Y-36548261D01*
X94427827Y-36484111D01*
X94427827Y-45327827D01*
X100060000Y-45327827D01*
X100060000Y-31633914D01*
X53898261Y-31633914D01*
X53898261Y-50076522D01*
G37*
X53898261Y-50076522D02*
X100060000Y-50076522D01*
X100060000Y-45327827D01*
X94427827Y-45327827D01*
X92881740Y-45327827D01*
X92881740Y-38978737D01*
X91500426Y-41048934D01*
X91099536Y-41644349D01*
X90737104Y-42172386D01*
X90431544Y-42607049D01*
X90201270Y-42922344D01*
X90064697Y-43092274D01*
X90037165Y-43114600D01*
X89954486Y-43025623D01*
X89768161Y-42778854D01*
X89496800Y-42400448D01*
X89159015Y-41916560D01*
X88773418Y-41353345D01*
X88574783Y-41059489D01*
X87194348Y-39008908D01*
X87165046Y-42168367D01*
X87135744Y-45327827D01*
X85593044Y-45327827D01*
X85593044Y-40137392D01*
X83384348Y-40137392D01*
X83384348Y-45327827D01*
X76868696Y-45327827D01*
X76868696Y-43892174D01*
X81838261Y-43892174D01*
X81838261Y-41573044D01*
X77420870Y-41573044D01*
X77420870Y-40137392D01*
X83384348Y-40137392D01*
X85593044Y-40137392D01*
X85593044Y-36493044D01*
X83384348Y-36493044D01*
X83384348Y-37928696D01*
X76758261Y-37928696D01*
X76758261Y-36493044D01*
X75543479Y-36493044D01*
X75543479Y-37928696D01*
X72782609Y-37928696D01*
X72782609Y-45327827D01*
X71126087Y-45327827D01*
X67478954Y-45327827D01*
X65863762Y-45327827D01*
X64381229Y-41798732D01*
X63980204Y-40847702D01*
X63654162Y-40084073D01*
X63394802Y-39490681D01*
X63193821Y-39050362D01*
X63042919Y-38745952D01*
X62933794Y-38560287D01*
X62858144Y-38476203D01*
X62807667Y-38476535D01*
X62788261Y-38505116D01*
X62719279Y-38661953D01*
X62575639Y-38995863D01*
X62368592Y-39480439D01*
X62109388Y-40089276D01*
X61809276Y-40795968D01*
X61479507Y-41574109D01*
X61296493Y-42006602D01*
X59915159Y-45272609D01*
X59115406Y-45305056D01*
X58727455Y-45308830D01*
X58443234Y-45288787D01*
X58317501Y-45249188D01*
X58315653Y-45242814D01*
X58358621Y-45124736D01*
X58481462Y-44825718D01*
X58675081Y-44366977D01*
X58930383Y-43769732D01*
X59238273Y-43055201D01*
X59589655Y-42244602D01*
X59975436Y-41359152D01*
X60223050Y-40792976D01*
X62130447Y-36437827D01*
X62845876Y-36406015D01*
X63561305Y-36374204D01*
X65239302Y-40216015D01*
X65628883Y-41107758D01*
X66001567Y-41960429D01*
X66345493Y-42746919D01*
X66648800Y-43440120D01*
X66899627Y-44012925D01*
X67086112Y-44438224D01*
X67196396Y-44688911D01*
X67198127Y-44692827D01*
X67478954Y-45327827D01*
X71126087Y-45327827D01*
X71126087Y-37928696D01*
X68365218Y-37928696D01*
X68365218Y-36493044D01*
X75543479Y-36493044D01*
X76758261Y-36493044D01*
X83384348Y-36493044D01*
X85593044Y-36493044D01*
X86448914Y-36494420D01*
X87304783Y-36495795D01*
X88622061Y-38539881D01*
X89101838Y-39274290D01*
X89477571Y-39826178D01*
X89755738Y-40204253D01*
X89942815Y-40417224D01*
X90045281Y-40473797D01*
X90055924Y-40467381D01*
X90149189Y-40342614D01*
X90342025Y-40061856D01*
X90614530Y-39654886D01*
X90946804Y-39151481D01*
X91318943Y-38581420D01*
X91404505Y-38449528D01*
X92636501Y-36548261D01*
X94427827Y-36484111D01*
X94427827Y-45327827D01*
X100060000Y-45327827D01*
X100060000Y-31633914D01*
X53898261Y-31633914D01*
X53898261Y-50076522D01*
G36*
X24412174Y-36443379D02*
G01*
X23807923Y-36453417D01*
X23363020Y-36482931D01*
X23016224Y-36540259D01*
X22706294Y-36633738D01*
X22543118Y-36697843D01*
X22153762Y-36886201D01*
X21765081Y-37117776D01*
X21426680Y-37357469D01*
X21188166Y-37570179D01*
X21099131Y-37719574D01*
X21168851Y-37850272D01*
X21349802Y-38084161D01*
X21552171Y-38314686D01*
X22005210Y-38806176D01*
X22352823Y-38545702D01*
X22974265Y-38137670D01*
X23557153Y-37892828D01*
X24175460Y-37784310D01*
X24481014Y-37772812D01*
X24935924Y-37783939D01*
X25263130Y-37837553D01*
X25554911Y-37956395D01*
X25798762Y-38097522D01*
X26414063Y-38600139D01*
X26876739Y-39229869D01*
X27180610Y-39948482D01*
X27319494Y-40717750D01*
X27287209Y-41499443D01*
X27077574Y-42255331D01*
X26684407Y-42947187D01*
X26600220Y-43054050D01*
X26076630Y-43523905D01*
X25433701Y-43840755D01*
X24719328Y-43995878D01*
X23981405Y-43980547D01*
X23267827Y-43786039D01*
X23074911Y-43696226D01*
X22707429Y-43501522D01*
X22386275Y-43321846D01*
X22233311Y-43229310D01*
X22087437Y-43153067D01*
X21954770Y-43162636D01*
X21781092Y-43281929D01*
X21512184Y-43534853D01*
X21489100Y-43557487D01*
X20991142Y-44046195D01*
X21232027Y-44302606D01*
X21582895Y-44606800D01*
X22054207Y-44926494D01*
X22557293Y-45206097D01*
X22926020Y-45364603D01*
X23462581Y-45497025D01*
X24113277Y-45576103D01*
X24776158Y-45594209D01*
X25340456Y-45545257D01*
X26157546Y-45302624D01*
X26948004Y-44881294D01*
X27665147Y-44318753D01*
X28262295Y-43652490D01*
X28692764Y-42919992D01*
X28735090Y-42819254D01*
X28855971Y-42477644D01*
X28932885Y-42138247D01*
X28975003Y-41734935D01*
X28991493Y-41201574D01*
X28992932Y-40959778D01*
X28990683Y-40417014D01*
X28972702Y-40028766D01*
X28925750Y-39728695D01*
X28836586Y-39450461D01*
X28691969Y-39127725D01*
X28582775Y-38904746D01*
X28092146Y-38098251D01*
X27485643Y-37456722D01*
X26724064Y-36941783D01*
X26419836Y-36787300D01*
X26085057Y-36635091D01*
X25807194Y-36535206D01*
X25523924Y-36476967D01*
X25172923Y-36449698D01*
X24691866Y-36442723D01*
X24412174Y-36443379D01*
G37*
X24412174Y-36443379D02*
X23807923Y-36453417D01*
X23363020Y-36482931D01*
X23016224Y-36540259D01*
X22706294Y-36633738D01*
X22543118Y-36697843D01*
X22153762Y-36886201D01*
X21765081Y-37117776D01*
X21426680Y-37357469D01*
X21188166Y-37570179D01*
X21099131Y-37719574D01*
X21168851Y-37850272D01*
X21349802Y-38084161D01*
X21552171Y-38314686D01*
X22005210Y-38806176D01*
X22352823Y-38545702D01*
X22974265Y-38137670D01*
X23557153Y-37892828D01*
X24175460Y-37784310D01*
X24481014Y-37772812D01*
X24935924Y-37783939D01*
X25263130Y-37837553D01*
X25554911Y-37956395D01*
X25798762Y-38097522D01*
X26414063Y-38600139D01*
X26876739Y-39229869D01*
X27180610Y-39948482D01*
X27319494Y-40717750D01*
X27287209Y-41499443D01*
X27077574Y-42255331D01*
X26684407Y-42947187D01*
X26600220Y-43054050D01*
X26076630Y-43523905D01*
X25433701Y-43840755D01*
X24719328Y-43995878D01*
X23981405Y-43980547D01*
X23267827Y-43786039D01*
X23074911Y-43696226D01*
X22707429Y-43501522D01*
X22386275Y-43321846D01*
X22233311Y-43229310D01*
X22087437Y-43153067D01*
X21954770Y-43162636D01*
X21781092Y-43281929D01*
X21512184Y-43534853D01*
X21489100Y-43557487D01*
X20991142Y-44046195D01*
X21232027Y-44302606D01*
X21582895Y-44606800D01*
X22054207Y-44926494D01*
X22557293Y-45206097D01*
X22926020Y-45364603D01*
X23462581Y-45497025D01*
X24113277Y-45576103D01*
X24776158Y-45594209D01*
X25340456Y-45545257D01*
X26157546Y-45302624D01*
X26948004Y-44881294D01*
X27665147Y-44318753D01*
X28262295Y-43652490D01*
X28692764Y-42919992D01*
X28735090Y-42819254D01*
X28855971Y-42477644D01*
X28932885Y-42138247D01*
X28975003Y-41734935D01*
X28991493Y-41201574D01*
X28992932Y-40959778D01*
X28990683Y-40417014D01*
X28972702Y-40028766D01*
X28925750Y-39728695D01*
X28836586Y-39450461D01*
X28691969Y-39127725D01*
X28582775Y-38904746D01*
X28092146Y-38098251D01*
X27485643Y-37456722D01*
X26724064Y-36941783D01*
X26419836Y-36787300D01*
X26085057Y-36635091D01*
X25807194Y-36535206D01*
X25523924Y-36476967D01*
X25172923Y-36449698D01*
X24691866Y-36442723D01*
X24412174Y-36443379D01*
G36*
X6205684Y-36381180D02*
G01*
X5713608Y-36482013D01*
X5180955Y-36642967D01*
X4667701Y-36840238D01*
X4233821Y-37050024D01*
X3939292Y-37248523D01*
X3888237Y-37300903D01*
X3848885Y-37434087D01*
X3923804Y-37642333D01*
X4129090Y-37968071D01*
X4155982Y-38006704D01*
X4546507Y-38564564D01*
X5318002Y-38168735D01*
X6067123Y-37856974D01*
X6754215Y-37715484D01*
X7355610Y-37746312D01*
X7845499Y-37950047D01*
X8212186Y-38301161D01*
X8376593Y-38695462D01*
X8338075Y-39097316D01*
X8095988Y-39471089D01*
X7876278Y-39651485D01*
X7607460Y-39786388D01*
X7195798Y-39940418D01*
X6714585Y-40087239D01*
X6528859Y-40135633D01*
X5541333Y-40423919D01*
X4759924Y-40755949D01*
X4172132Y-41143986D01*
X3765459Y-41600294D01*
X3527406Y-42137137D01*
X3445474Y-42766778D01*
X3461364Y-43145508D01*
X3617011Y-43879208D01*
X3943502Y-44476038D01*
X4449557Y-44949127D01*
X4796809Y-45155848D01*
X5152412Y-45321993D01*
X5476700Y-45425036D01*
X5849331Y-45482240D01*
X6349962Y-45510865D01*
X6449652Y-45514017D01*
X6907645Y-45522553D01*
X7283910Y-45520340D01*
X7522268Y-45508128D01*
X7570870Y-45499070D01*
X7731731Y-45446672D01*
X8031027Y-45358384D01*
X8293862Y-45284076D01*
X8618400Y-45166357D01*
X9009733Y-44984808D01*
X9418577Y-44767795D01*
X9795647Y-44543687D01*
X10091657Y-44340850D01*
X10257323Y-44187653D01*
X10276224Y-44143061D01*
X10209176Y-44019790D01*
X10035778Y-43787897D01*
X9849814Y-43563679D01*
X9423703Y-43069532D01*
X9020011Y-43377442D01*
X8258415Y-43841282D01*
X7454754Y-44095193D01*
X6863374Y-44153463D01*
X6168287Y-44110596D01*
X5654798Y-43948554D01*
X5317201Y-43665212D01*
X5246532Y-43550799D01*
X5094219Y-43077172D01*
X5155471Y-42659037D01*
X5429964Y-42296786D01*
X5917378Y-41990809D01*
X6617389Y-41741500D01*
X6765778Y-41702714D01*
X7708422Y-41442058D01*
X8452973Y-41173223D01*
X9022091Y-40880890D01*
X9438436Y-40549739D01*
X9724670Y-40164449D01*
X9903452Y-39709700D01*
X9939626Y-39556934D01*
X10001270Y-38794699D01*
X9868251Y-38107482D01*
X9558543Y-37510571D01*
X9090125Y-37019255D01*
X8480972Y-36648824D01*
X7749061Y-36414566D01*
X6912368Y-36331772D01*
X6205684Y-36381180D01*
G37*
X6205684Y-36381180D02*
X5713608Y-36482013D01*
X5180955Y-36642967D01*
X4667701Y-36840238D01*
X4233821Y-37050024D01*
X3939292Y-37248523D01*
X3888237Y-37300903D01*
X3848885Y-37434087D01*
X3923804Y-37642333D01*
X4129090Y-37968071D01*
X4155982Y-38006704D01*
X4546507Y-38564564D01*
X5318002Y-38168735D01*
X6067123Y-37856974D01*
X6754215Y-37715484D01*
X7355610Y-37746312D01*
X7845499Y-37950047D01*
X8212186Y-38301161D01*
X8376593Y-38695462D01*
X8338075Y-39097316D01*
X8095988Y-39471089D01*
X7876278Y-39651485D01*
X7607460Y-39786388D01*
X7195798Y-39940418D01*
X6714585Y-40087239D01*
X6528859Y-40135633D01*
X5541333Y-40423919D01*
X4759924Y-40755949D01*
X4172132Y-41143986D01*
X3765459Y-41600294D01*
X3527406Y-42137137D01*
X3445474Y-42766778D01*
X3461364Y-43145508D01*
X3617011Y-43879208D01*
X3943502Y-44476038D01*
X4449557Y-44949127D01*
X4796809Y-45155848D01*
X5152412Y-45321993D01*
X5476700Y-45425036D01*
X5849331Y-45482240D01*
X6349962Y-45510865D01*
X6449652Y-45514017D01*
X6907645Y-45522553D01*
X7283910Y-45520340D01*
X7522268Y-45508128D01*
X7570870Y-45499070D01*
X7731731Y-45446672D01*
X8031027Y-45358384D01*
X8293862Y-45284076D01*
X8618400Y-45166357D01*
X9009733Y-44984808D01*
X9418577Y-44767795D01*
X9795647Y-44543687D01*
X10091657Y-44340850D01*
X10257323Y-44187653D01*
X10276224Y-44143061D01*
X10209176Y-44019790D01*
X10035778Y-43787897D01*
X9849814Y-43563679D01*
X9423703Y-43069532D01*
X9020011Y-43377442D01*
X8258415Y-43841282D01*
X7454754Y-44095193D01*
X6863374Y-44153463D01*
X6168287Y-44110596D01*
X5654798Y-43948554D01*
X5317201Y-43665212D01*
X5246532Y-43550799D01*
X5094219Y-43077172D01*
X5155471Y-42659037D01*
X5429964Y-42296786D01*
X5917378Y-41990809D01*
X6617389Y-41741500D01*
X6765778Y-41702714D01*
X7708422Y-41442058D01*
X8452973Y-41173223D01*
X9022091Y-40880890D01*
X9438436Y-40549739D01*
X9724670Y-40164449D01*
X9903452Y-39709700D01*
X9939626Y-39556934D01*
X10001270Y-38794699D01*
X9868251Y-38107482D01*
X9558543Y-37510571D01*
X9090125Y-37019255D01*
X8480972Y-36648824D01*
X7749061Y-36414566D01*
X6912368Y-36331772D01*
X6205684Y-36381180D01*
G36*
X39431305Y-45327827D02*
G01*
X40977392Y-45327827D01*
X40979646Y-38977827D01*
X42331345Y-41047886D01*
X42724998Y-41645448D01*
X43080781Y-42175471D01*
X43380471Y-42611623D01*
X43605847Y-42927573D01*
X43738684Y-43096992D01*
X43764385Y-43118538D01*
X43846964Y-43031061D01*
X44032831Y-42785819D01*
X44303225Y-42409137D01*
X44639392Y-41927340D01*
X45022573Y-41366752D01*
X45200037Y-41103696D01*
X46554348Y-39088261D01*
X46583677Y-42208044D01*
X46613005Y-45327827D01*
X48155653Y-45327827D01*
X48155653Y-36493044D01*
X46427962Y-36493044D01*
X45122267Y-38542112D01*
X44713554Y-39172627D01*
X44355210Y-39704104D01*
X44062275Y-40115628D01*
X43849788Y-40386282D01*
X43732790Y-40495151D01*
X43719006Y-40493614D01*
X43631924Y-40374949D01*
X43444846Y-40099673D01*
X43177157Y-39697001D01*
X42848242Y-39196149D01*
X42477486Y-38626332D01*
X42377705Y-38472155D01*
X41133972Y-36548261D01*
X40282638Y-36516007D01*
X39431305Y-36483753D01*
X39431305Y-45327827D01*
G37*
X39431305Y-45327827D02*
X40977392Y-45327827D01*
X40979646Y-38977827D01*
X42331345Y-41047886D01*
X42724998Y-41645448D01*
X43080781Y-42175471D01*
X43380471Y-42611623D01*
X43605847Y-42927573D01*
X43738684Y-43096992D01*
X43764385Y-43118538D01*
X43846964Y-43031061D01*
X44032831Y-42785819D01*
X44303225Y-42409137D01*
X44639392Y-41927340D01*
X45022573Y-41366752D01*
X45200037Y-41103696D01*
X46554348Y-39088261D01*
X46583677Y-42208044D01*
X46613005Y-45327827D01*
X48155653Y-45327827D01*
X48155653Y-36493044D01*
X46427962Y-36493044D01*
X45122267Y-38542112D01*
X44713554Y-39172627D01*
X44355210Y-39704104D01*
X44062275Y-40115628D01*
X43849788Y-40386282D01*
X43732790Y-40495151D01*
X43719006Y-40493614D01*
X43631924Y-40374949D01*
X43444846Y-40099673D01*
X43177157Y-39697001D01*
X42848242Y-39196149D01*
X42477486Y-38626332D01*
X42377705Y-38472155D01*
X41133972Y-36548261D01*
X40282638Y-36516007D01*
X39431305Y-36483753D01*
X39431305Y-45327827D01*
G36*
X31148696Y-41573044D02*
G01*
X35566087Y-41573044D01*
X35566087Y-43892174D01*
X30486087Y-43892174D01*
X30486087Y-45327827D01*
X37112174Y-45327827D01*
X37112174Y-40137392D01*
X31148696Y-40137392D01*
X31148696Y-41573044D01*
G37*
X31148696Y-41573044D02*
X35566087Y-41573044D01*
X35566087Y-43892174D01*
X30486087Y-43892174D01*
X30486087Y-45327827D01*
X37112174Y-45327827D01*
X37112174Y-40137392D01*
X31148696Y-40137392D01*
X31148696Y-41573044D01*
G36*
X17786087Y-45327827D02*
G01*
X19332174Y-45327827D01*
X19332174Y-36493044D01*
X17786087Y-36493044D01*
X17786087Y-45327827D01*
G37*
X17786087Y-45327827D02*
X19332174Y-45327827D01*
X19332174Y-36493044D01*
X17786087Y-36493044D01*
X17786087Y-45327827D01*
G36*
X11933044Y-45327827D02*
G01*
X13479131Y-45327827D01*
X13479131Y-41573044D01*
X15577392Y-41573044D01*
X15577392Y-40137392D01*
X13479131Y-40137392D01*
X13479131Y-36493044D01*
X11933044Y-36493044D01*
X11933044Y-45327827D01*
G37*
X11933044Y-45327827D02*
X13479131Y-45327827D01*
X13479131Y-41573044D01*
X15577392Y-41573044D01*
X15577392Y-40137392D01*
X13479131Y-40137392D01*
X13479131Y-36493044D01*
X11933044Y-36493044D01*
X11933044Y-45327827D01*
G36*
X30486087Y-37928696D02*
G01*
X37112174Y-37928696D01*
X37112174Y-36493044D01*
X30486087Y-36493044D01*
X30486087Y-37928696D01*
G37*
X30486087Y-37928696D02*
X37112174Y-37928696D01*
X37112174Y-36493044D01*
X30486087Y-36493044D01*
X30486087Y-37928696D01*
M02*
