G04 #@! TF.GenerationSoftware,KiCad,Pcbnew,(5.1.6)-1*
G04 #@! TF.CreationDate,2020-05-28T20:04:45-07:00*
G04 #@! TF.ProjectId,crokto,63726f6b-746f-42e6-9b69-6361645f7063,rev?*
G04 #@! TF.SameCoordinates,Original*
G04 #@! TF.FileFunction,Paste,Top*
G04 #@! TF.FilePolarity,Positive*
%FSLAX46Y46*%
G04 Gerber Fmt 4.6, Leading zero omitted, Abs format (unit mm)*
G04 Created by KiCad (PCBNEW (5.1.6)-1) date 2020-05-28 20:04:45*
%MOMM*%
%LPD*%
G01*
G04 APERTURE LIST*
%ADD10O,1.700000X1.700000*%
%ADD11C,1.700000*%
%ADD12R,0.300000X1.150000*%
%ADD13R,0.600000X1.150000*%
%ADD14R,0.500000X0.500000*%
%ADD15R,1.400000X1.200000*%
%ADD16R,0.650000X1.060000*%
G04 APERTURE END LIST*
G36*
G01*
X93720000Y-7220000D02*
X93720000Y-5860000D01*
G75*
G02*
X93890000Y-5690000I170000J0D01*
G01*
X95250000Y-5690000D01*
G75*
G02*
X95420000Y-5860000I0J-170000D01*
G01*
X95420000Y-7220000D01*
G75*
G02*
X95250000Y-7390000I-170000J0D01*
G01*
X93890000Y-7390000D01*
G75*
G02*
X93720000Y-7220000I0J170000D01*
G01*
G37*
D10*
X92030000Y-6540000D03*
X94570000Y-4000000D03*
X92030000Y-4000000D03*
X94570000Y-1460000D03*
D11*
X92030000Y-1460000D03*
D12*
X50250000Y-6600000D03*
X49750000Y-6600000D03*
X49250000Y-6600000D03*
X50750000Y-6600000D03*
X48750000Y-6600000D03*
X51250000Y-6600000D03*
X48250000Y-6600000D03*
X51750000Y-6600000D03*
D13*
X52400000Y-6600000D03*
X47600000Y-6600000D03*
X53200000Y-6600000D03*
X46800000Y-6600000D03*
G36*
G01*
X43490000Y-7572500D02*
X43490000Y-7227500D01*
G75*
G02*
X43637500Y-7080000I147500J0D01*
G01*
X43932500Y-7080000D01*
G75*
G02*
X44080000Y-7227500I0J-147500D01*
G01*
X44080000Y-7572500D01*
G75*
G02*
X43932500Y-7720000I-147500J0D01*
G01*
X43637500Y-7720000D01*
G75*
G02*
X43490000Y-7572500I0J147500D01*
G01*
G37*
G36*
G01*
X42520000Y-7572500D02*
X42520000Y-7227500D01*
G75*
G02*
X42667500Y-7080000I147500J0D01*
G01*
X42962500Y-7080000D01*
G75*
G02*
X43110000Y-7227500I0J-147500D01*
G01*
X43110000Y-7572500D01*
G75*
G02*
X42962500Y-7720000I-147500J0D01*
G01*
X42667500Y-7720000D01*
G75*
G02*
X42520000Y-7572500I0J147500D01*
G01*
G37*
G36*
G01*
X43490000Y-9072500D02*
X43490000Y-8727500D01*
G75*
G02*
X43637500Y-8580000I147500J0D01*
G01*
X43932500Y-8580000D01*
G75*
G02*
X44080000Y-8727500I0J-147500D01*
G01*
X44080000Y-9072500D01*
G75*
G02*
X43932500Y-9220000I-147500J0D01*
G01*
X43637500Y-9220000D01*
G75*
G02*
X43490000Y-9072500I0J147500D01*
G01*
G37*
G36*
G01*
X42520000Y-9072500D02*
X42520000Y-8727500D01*
G75*
G02*
X42667500Y-8580000I147500J0D01*
G01*
X42962500Y-8580000D01*
G75*
G02*
X43110000Y-8727500I0J-147500D01*
G01*
X43110000Y-9072500D01*
G75*
G02*
X42962500Y-9220000I-147500J0D01*
G01*
X42667500Y-9220000D01*
G75*
G02*
X42520000Y-9072500I0J147500D01*
G01*
G37*
G36*
G01*
X43490000Y-10572500D02*
X43490000Y-10227500D01*
G75*
G02*
X43637500Y-10080000I147500J0D01*
G01*
X43932500Y-10080000D01*
G75*
G02*
X44080000Y-10227500I0J-147500D01*
G01*
X44080000Y-10572500D01*
G75*
G02*
X43932500Y-10720000I-147500J0D01*
G01*
X43637500Y-10720000D01*
G75*
G02*
X43490000Y-10572500I0J147500D01*
G01*
G37*
G36*
G01*
X42520000Y-10572500D02*
X42520000Y-10227500D01*
G75*
G02*
X42667500Y-10080000I147500J0D01*
G01*
X42962500Y-10080000D01*
G75*
G02*
X43110000Y-10227500I0J-147500D01*
G01*
X43110000Y-10572500D01*
G75*
G02*
X42962500Y-10720000I-147500J0D01*
G01*
X42667500Y-10720000D01*
G75*
G02*
X42520000Y-10572500I0J147500D01*
G01*
G37*
G36*
G01*
X62900000Y-13025000D02*
X62900000Y-13925000D01*
G75*
G02*
X62850000Y-13975000I-50000J0D01*
G01*
X61950000Y-13975000D01*
G75*
G02*
X61900000Y-13925000I0J50000D01*
G01*
X61900000Y-13025000D01*
G75*
G02*
X61950000Y-12975000I50000J0D01*
G01*
X62850000Y-12975000D01*
G75*
G02*
X62900000Y-13025000I0J-50000D01*
G01*
G37*
G36*
G01*
X68900000Y-13025000D02*
X68900000Y-13925000D01*
G75*
G02*
X68850000Y-13975000I-50000J0D01*
G01*
X67950000Y-13975000D01*
G75*
G02*
X67900000Y-13925000I0J50000D01*
G01*
X67900000Y-13025000D01*
G75*
G02*
X67950000Y-12975000I50000J0D01*
G01*
X68850000Y-12975000D01*
G75*
G02*
X68900000Y-13025000I0J-50000D01*
G01*
G37*
G36*
G01*
X62900000Y-16775000D02*
X62900000Y-17675000D01*
G75*
G02*
X62850000Y-17725000I-50000J0D01*
G01*
X61950000Y-17725000D01*
G75*
G02*
X61900000Y-17675000I0J50000D01*
G01*
X61900000Y-16775000D01*
G75*
G02*
X61950000Y-16725000I50000J0D01*
G01*
X62850000Y-16725000D01*
G75*
G02*
X62900000Y-16775000I0J-50000D01*
G01*
G37*
G36*
G01*
X68900000Y-16775000D02*
X68900000Y-17675000D01*
G75*
G02*
X68850000Y-17725000I-50000J0D01*
G01*
X67950000Y-17725000D01*
G75*
G02*
X67900000Y-17675000I0J50000D01*
G01*
X67900000Y-16775000D01*
G75*
G02*
X67950000Y-16725000I50000J0D01*
G01*
X68850000Y-16725000D01*
G75*
G02*
X68900000Y-16775000I0J-50000D01*
G01*
G37*
G36*
G01*
X34025000Y-3450000D02*
X34025000Y-4350000D01*
G75*
G02*
X33975000Y-4400000I-50000J0D01*
G01*
X33075000Y-4400000D01*
G75*
G02*
X33025000Y-4350000I0J50000D01*
G01*
X33025000Y-3450000D01*
G75*
G02*
X33075000Y-3400000I50000J0D01*
G01*
X33975000Y-3400000D01*
G75*
G02*
X34025000Y-3450000I0J-50000D01*
G01*
G37*
G36*
G01*
X40025000Y-3450000D02*
X40025000Y-4350000D01*
G75*
G02*
X39975000Y-4400000I-50000J0D01*
G01*
X39075000Y-4400000D01*
G75*
G02*
X39025000Y-4350000I0J50000D01*
G01*
X39025000Y-3450000D01*
G75*
G02*
X39075000Y-3400000I50000J0D01*
G01*
X39975000Y-3400000D01*
G75*
G02*
X40025000Y-3450000I0J-50000D01*
G01*
G37*
G36*
G01*
X34025000Y-7200000D02*
X34025000Y-8100000D01*
G75*
G02*
X33975000Y-8150000I-50000J0D01*
G01*
X33075000Y-8150000D01*
G75*
G02*
X33025000Y-8100000I0J50000D01*
G01*
X33025000Y-7200000D01*
G75*
G02*
X33075000Y-7150000I50000J0D01*
G01*
X33975000Y-7150000D01*
G75*
G02*
X34025000Y-7200000I0J-50000D01*
G01*
G37*
G36*
G01*
X40025000Y-7200000D02*
X40025000Y-8100000D01*
G75*
G02*
X39975000Y-8150000I-50000J0D01*
G01*
X39075000Y-8150000D01*
G75*
G02*
X39025000Y-8100000I0J50000D01*
G01*
X39025000Y-7200000D01*
G75*
G02*
X39075000Y-7150000I50000J0D01*
G01*
X39975000Y-7150000D01*
G75*
G02*
X40025000Y-7200000I0J-50000D01*
G01*
G37*
G36*
G01*
X26325000Y-3450000D02*
X26325000Y-4350000D01*
G75*
G02*
X26275000Y-4400000I-50000J0D01*
G01*
X25375000Y-4400000D01*
G75*
G02*
X25325000Y-4350000I0J50000D01*
G01*
X25325000Y-3450000D01*
G75*
G02*
X25375000Y-3400000I50000J0D01*
G01*
X26275000Y-3400000D01*
G75*
G02*
X26325000Y-3450000I0J-50000D01*
G01*
G37*
G36*
G01*
X32325000Y-3450000D02*
X32325000Y-4350000D01*
G75*
G02*
X32275000Y-4400000I-50000J0D01*
G01*
X31375000Y-4400000D01*
G75*
G02*
X31325000Y-4350000I0J50000D01*
G01*
X31325000Y-3450000D01*
G75*
G02*
X31375000Y-3400000I50000J0D01*
G01*
X32275000Y-3400000D01*
G75*
G02*
X32325000Y-3450000I0J-50000D01*
G01*
G37*
G36*
G01*
X26325000Y-7200000D02*
X26325000Y-8100000D01*
G75*
G02*
X26275000Y-8150000I-50000J0D01*
G01*
X25375000Y-8150000D01*
G75*
G02*
X25325000Y-8100000I0J50000D01*
G01*
X25325000Y-7200000D01*
G75*
G02*
X25375000Y-7150000I50000J0D01*
G01*
X26275000Y-7150000D01*
G75*
G02*
X26325000Y-7200000I0J-50000D01*
G01*
G37*
G36*
G01*
X32325000Y-7200000D02*
X32325000Y-8100000D01*
G75*
G02*
X32275000Y-8150000I-50000J0D01*
G01*
X31375000Y-8150000D01*
G75*
G02*
X31325000Y-8100000I0J50000D01*
G01*
X31325000Y-7200000D01*
G75*
G02*
X31375000Y-7150000I50000J0D01*
G01*
X32275000Y-7150000D01*
G75*
G02*
X32325000Y-7200000I0J-50000D01*
G01*
G37*
G36*
G01*
X18625000Y-3450000D02*
X18625000Y-4350000D01*
G75*
G02*
X18575000Y-4400000I-50000J0D01*
G01*
X17675000Y-4400000D01*
G75*
G02*
X17625000Y-4350000I0J50000D01*
G01*
X17625000Y-3450000D01*
G75*
G02*
X17675000Y-3400000I50000J0D01*
G01*
X18575000Y-3400000D01*
G75*
G02*
X18625000Y-3450000I0J-50000D01*
G01*
G37*
G36*
G01*
X24625000Y-3450000D02*
X24625000Y-4350000D01*
G75*
G02*
X24575000Y-4400000I-50000J0D01*
G01*
X23675000Y-4400000D01*
G75*
G02*
X23625000Y-4350000I0J50000D01*
G01*
X23625000Y-3450000D01*
G75*
G02*
X23675000Y-3400000I50000J0D01*
G01*
X24575000Y-3400000D01*
G75*
G02*
X24625000Y-3450000I0J-50000D01*
G01*
G37*
G36*
G01*
X18625000Y-7200000D02*
X18625000Y-8100000D01*
G75*
G02*
X18575000Y-8150000I-50000J0D01*
G01*
X17675000Y-8150000D01*
G75*
G02*
X17625000Y-8100000I0J50000D01*
G01*
X17625000Y-7200000D01*
G75*
G02*
X17675000Y-7150000I50000J0D01*
G01*
X18575000Y-7150000D01*
G75*
G02*
X18625000Y-7200000I0J-50000D01*
G01*
G37*
G36*
G01*
X24625000Y-7200000D02*
X24625000Y-8100000D01*
G75*
G02*
X24575000Y-8150000I-50000J0D01*
G01*
X23675000Y-8150000D01*
G75*
G02*
X23625000Y-8100000I0J50000D01*
G01*
X23625000Y-7200000D01*
G75*
G02*
X23675000Y-7150000I50000J0D01*
G01*
X24575000Y-7150000D01*
G75*
G02*
X24625000Y-7200000I0J-50000D01*
G01*
G37*
G36*
G01*
X10925000Y-3450000D02*
X10925000Y-4350000D01*
G75*
G02*
X10875000Y-4400000I-50000J0D01*
G01*
X9975000Y-4400000D01*
G75*
G02*
X9925000Y-4350000I0J50000D01*
G01*
X9925000Y-3450000D01*
G75*
G02*
X9975000Y-3400000I50000J0D01*
G01*
X10875000Y-3400000D01*
G75*
G02*
X10925000Y-3450000I0J-50000D01*
G01*
G37*
G36*
G01*
X16925000Y-3450000D02*
X16925000Y-4350000D01*
G75*
G02*
X16875000Y-4400000I-50000J0D01*
G01*
X15975000Y-4400000D01*
G75*
G02*
X15925000Y-4350000I0J50000D01*
G01*
X15925000Y-3450000D01*
G75*
G02*
X15975000Y-3400000I50000J0D01*
G01*
X16875000Y-3400000D01*
G75*
G02*
X16925000Y-3450000I0J-50000D01*
G01*
G37*
G36*
G01*
X10925000Y-7200000D02*
X10925000Y-8100000D01*
G75*
G02*
X10875000Y-8150000I-50000J0D01*
G01*
X9975000Y-8150000D01*
G75*
G02*
X9925000Y-8100000I0J50000D01*
G01*
X9925000Y-7200000D01*
G75*
G02*
X9975000Y-7150000I50000J0D01*
G01*
X10875000Y-7150000D01*
G75*
G02*
X10925000Y-7200000I0J-50000D01*
G01*
G37*
G36*
G01*
X16925000Y-7200000D02*
X16925000Y-8100000D01*
G75*
G02*
X16875000Y-8150000I-50000J0D01*
G01*
X15975000Y-8150000D01*
G75*
G02*
X15925000Y-8100000I0J50000D01*
G01*
X15925000Y-7200000D01*
G75*
G02*
X15975000Y-7150000I50000J0D01*
G01*
X16875000Y-7150000D01*
G75*
G02*
X16925000Y-7200000I0J-50000D01*
G01*
G37*
G36*
G01*
X1300000Y-3450000D02*
X1300000Y-4350000D01*
G75*
G02*
X1250000Y-4400000I-50000J0D01*
G01*
X350000Y-4400000D01*
G75*
G02*
X300000Y-4350000I0J50000D01*
G01*
X300000Y-3450000D01*
G75*
G02*
X350000Y-3400000I50000J0D01*
G01*
X1250000Y-3400000D01*
G75*
G02*
X1300000Y-3450000I0J-50000D01*
G01*
G37*
G36*
G01*
X7300000Y-3450000D02*
X7300000Y-4350000D01*
G75*
G02*
X7250000Y-4400000I-50000J0D01*
G01*
X6350000Y-4400000D01*
G75*
G02*
X6300000Y-4350000I0J50000D01*
G01*
X6300000Y-3450000D01*
G75*
G02*
X6350000Y-3400000I50000J0D01*
G01*
X7250000Y-3400000D01*
G75*
G02*
X7300000Y-3450000I0J-50000D01*
G01*
G37*
G36*
G01*
X1300000Y-7200000D02*
X1300000Y-8100000D01*
G75*
G02*
X1250000Y-8150000I-50000J0D01*
G01*
X350000Y-8150000D01*
G75*
G02*
X300000Y-8100000I0J50000D01*
G01*
X300000Y-7200000D01*
G75*
G02*
X350000Y-7150000I50000J0D01*
G01*
X1250000Y-7150000D01*
G75*
G02*
X1300000Y-7200000I0J-50000D01*
G01*
G37*
G36*
G01*
X7300000Y-7200000D02*
X7300000Y-8100000D01*
G75*
G02*
X7250000Y-8150000I-50000J0D01*
G01*
X6350000Y-8150000D01*
G75*
G02*
X6300000Y-8100000I0J50000D01*
G01*
X6300000Y-7200000D01*
G75*
G02*
X6350000Y-7150000I50000J0D01*
G01*
X7250000Y-7150000D01*
G75*
G02*
X7300000Y-7200000I0J-50000D01*
G01*
G37*
G36*
G01*
X1300000Y-20725000D02*
X1300000Y-21625000D01*
G75*
G02*
X1250000Y-21675000I-50000J0D01*
G01*
X350000Y-21675000D01*
G75*
G02*
X300000Y-21625000I0J50000D01*
G01*
X300000Y-20725000D01*
G75*
G02*
X350000Y-20675000I50000J0D01*
G01*
X1250000Y-20675000D01*
G75*
G02*
X1300000Y-20725000I0J-50000D01*
G01*
G37*
G36*
G01*
X7300000Y-20725000D02*
X7300000Y-21625000D01*
G75*
G02*
X7250000Y-21675000I-50000J0D01*
G01*
X6350000Y-21675000D01*
G75*
G02*
X6300000Y-21625000I0J50000D01*
G01*
X6300000Y-20725000D01*
G75*
G02*
X6350000Y-20675000I50000J0D01*
G01*
X7250000Y-20675000D01*
G75*
G02*
X7300000Y-20725000I0J-50000D01*
G01*
G37*
G36*
G01*
X1300000Y-24475000D02*
X1300000Y-25375000D01*
G75*
G02*
X1250000Y-25425000I-50000J0D01*
G01*
X350000Y-25425000D01*
G75*
G02*
X300000Y-25375000I0J50000D01*
G01*
X300000Y-24475000D01*
G75*
G02*
X350000Y-24425000I50000J0D01*
G01*
X1250000Y-24425000D01*
G75*
G02*
X1300000Y-24475000I0J-50000D01*
G01*
G37*
G36*
G01*
X7300000Y-24475000D02*
X7300000Y-25375000D01*
G75*
G02*
X7250000Y-25425000I-50000J0D01*
G01*
X6350000Y-25425000D01*
G75*
G02*
X6300000Y-25375000I0J50000D01*
G01*
X6300000Y-24475000D01*
G75*
G02*
X6350000Y-24425000I50000J0D01*
G01*
X7250000Y-24425000D01*
G75*
G02*
X7300000Y-24475000I0J-50000D01*
G01*
G37*
G36*
G01*
X1300000Y-13025000D02*
X1300000Y-13925000D01*
G75*
G02*
X1250000Y-13975000I-50000J0D01*
G01*
X350000Y-13975000D01*
G75*
G02*
X300000Y-13925000I0J50000D01*
G01*
X300000Y-13025000D01*
G75*
G02*
X350000Y-12975000I50000J0D01*
G01*
X1250000Y-12975000D01*
G75*
G02*
X1300000Y-13025000I0J-50000D01*
G01*
G37*
G36*
G01*
X7300000Y-13025000D02*
X7300000Y-13925000D01*
G75*
G02*
X7250000Y-13975000I-50000J0D01*
G01*
X6350000Y-13975000D01*
G75*
G02*
X6300000Y-13925000I0J50000D01*
G01*
X6300000Y-13025000D01*
G75*
G02*
X6350000Y-12975000I50000J0D01*
G01*
X7250000Y-12975000D01*
G75*
G02*
X7300000Y-13025000I0J-50000D01*
G01*
G37*
G36*
G01*
X1300000Y-16775000D02*
X1300000Y-17675000D01*
G75*
G02*
X1250000Y-17725000I-50000J0D01*
G01*
X350000Y-17725000D01*
G75*
G02*
X300000Y-17675000I0J50000D01*
G01*
X300000Y-16775000D01*
G75*
G02*
X350000Y-16725000I50000J0D01*
G01*
X1250000Y-16725000D01*
G75*
G02*
X1300000Y-16775000I0J-50000D01*
G01*
G37*
G36*
G01*
X7300000Y-16775000D02*
X7300000Y-17675000D01*
G75*
G02*
X7250000Y-17725000I-50000J0D01*
G01*
X6350000Y-17725000D01*
G75*
G02*
X6300000Y-17675000I0J50000D01*
G01*
X6300000Y-16775000D01*
G75*
G02*
X6350000Y-16725000I50000J0D01*
G01*
X7250000Y-16725000D01*
G75*
G02*
X7300000Y-16775000I0J-50000D01*
G01*
G37*
G36*
G01*
X9000000Y-13025000D02*
X9000000Y-13925000D01*
G75*
G02*
X8950000Y-13975000I-50000J0D01*
G01*
X8050000Y-13975000D01*
G75*
G02*
X8000000Y-13925000I0J50000D01*
G01*
X8000000Y-13025000D01*
G75*
G02*
X8050000Y-12975000I50000J0D01*
G01*
X8950000Y-12975000D01*
G75*
G02*
X9000000Y-13025000I0J-50000D01*
G01*
G37*
G36*
G01*
X15000000Y-13025000D02*
X15000000Y-13925000D01*
G75*
G02*
X14950000Y-13975000I-50000J0D01*
G01*
X14050000Y-13975000D01*
G75*
G02*
X14000000Y-13925000I0J50000D01*
G01*
X14000000Y-13025000D01*
G75*
G02*
X14050000Y-12975000I50000J0D01*
G01*
X14950000Y-12975000D01*
G75*
G02*
X15000000Y-13025000I0J-50000D01*
G01*
G37*
G36*
G01*
X9000000Y-16775000D02*
X9000000Y-17675000D01*
G75*
G02*
X8950000Y-17725000I-50000J0D01*
G01*
X8050000Y-17725000D01*
G75*
G02*
X8000000Y-17675000I0J50000D01*
G01*
X8000000Y-16775000D01*
G75*
G02*
X8050000Y-16725000I50000J0D01*
G01*
X8950000Y-16725000D01*
G75*
G02*
X9000000Y-16775000I0J-50000D01*
G01*
G37*
G36*
G01*
X15000000Y-16775000D02*
X15000000Y-17675000D01*
G75*
G02*
X14950000Y-17725000I-50000J0D01*
G01*
X14050000Y-17725000D01*
G75*
G02*
X14000000Y-17675000I0J50000D01*
G01*
X14000000Y-16775000D01*
G75*
G02*
X14050000Y-16725000I50000J0D01*
G01*
X14950000Y-16725000D01*
G75*
G02*
X15000000Y-16775000I0J-50000D01*
G01*
G37*
G36*
G01*
X16700000Y-13025000D02*
X16700000Y-13925000D01*
G75*
G02*
X16650000Y-13975000I-50000J0D01*
G01*
X15750000Y-13975000D01*
G75*
G02*
X15700000Y-13925000I0J50000D01*
G01*
X15700000Y-13025000D01*
G75*
G02*
X15750000Y-12975000I50000J0D01*
G01*
X16650000Y-12975000D01*
G75*
G02*
X16700000Y-13025000I0J-50000D01*
G01*
G37*
G36*
G01*
X22700000Y-13025000D02*
X22700000Y-13925000D01*
G75*
G02*
X22650000Y-13975000I-50000J0D01*
G01*
X21750000Y-13975000D01*
G75*
G02*
X21700000Y-13925000I0J50000D01*
G01*
X21700000Y-13025000D01*
G75*
G02*
X21750000Y-12975000I50000J0D01*
G01*
X22650000Y-12975000D01*
G75*
G02*
X22700000Y-13025000I0J-50000D01*
G01*
G37*
G36*
G01*
X16700000Y-16775000D02*
X16700000Y-17675000D01*
G75*
G02*
X16650000Y-17725000I-50000J0D01*
G01*
X15750000Y-17725000D01*
G75*
G02*
X15700000Y-17675000I0J50000D01*
G01*
X15700000Y-16775000D01*
G75*
G02*
X15750000Y-16725000I50000J0D01*
G01*
X16650000Y-16725000D01*
G75*
G02*
X16700000Y-16775000I0J-50000D01*
G01*
G37*
G36*
G01*
X22700000Y-16775000D02*
X22700000Y-17675000D01*
G75*
G02*
X22650000Y-17725000I-50000J0D01*
G01*
X21750000Y-17725000D01*
G75*
G02*
X21700000Y-17675000I0J50000D01*
G01*
X21700000Y-16775000D01*
G75*
G02*
X21750000Y-16725000I50000J0D01*
G01*
X22650000Y-16725000D01*
G75*
G02*
X22700000Y-16775000I0J-50000D01*
G01*
G37*
G36*
G01*
X24400000Y-13025000D02*
X24400000Y-13925000D01*
G75*
G02*
X24350000Y-13975000I-50000J0D01*
G01*
X23450000Y-13975000D01*
G75*
G02*
X23400000Y-13925000I0J50000D01*
G01*
X23400000Y-13025000D01*
G75*
G02*
X23450000Y-12975000I50000J0D01*
G01*
X24350000Y-12975000D01*
G75*
G02*
X24400000Y-13025000I0J-50000D01*
G01*
G37*
G36*
G01*
X30400000Y-13025000D02*
X30400000Y-13925000D01*
G75*
G02*
X30350000Y-13975000I-50000J0D01*
G01*
X29450000Y-13975000D01*
G75*
G02*
X29400000Y-13925000I0J50000D01*
G01*
X29400000Y-13025000D01*
G75*
G02*
X29450000Y-12975000I50000J0D01*
G01*
X30350000Y-12975000D01*
G75*
G02*
X30400000Y-13025000I0J-50000D01*
G01*
G37*
G36*
G01*
X24400000Y-16775000D02*
X24400000Y-17675000D01*
G75*
G02*
X24350000Y-17725000I-50000J0D01*
G01*
X23450000Y-17725000D01*
G75*
G02*
X23400000Y-17675000I0J50000D01*
G01*
X23400000Y-16775000D01*
G75*
G02*
X23450000Y-16725000I50000J0D01*
G01*
X24350000Y-16725000D01*
G75*
G02*
X24400000Y-16775000I0J-50000D01*
G01*
G37*
G36*
G01*
X30400000Y-16775000D02*
X30400000Y-17675000D01*
G75*
G02*
X30350000Y-17725000I-50000J0D01*
G01*
X29450000Y-17725000D01*
G75*
G02*
X29400000Y-17675000I0J50000D01*
G01*
X29400000Y-16775000D01*
G75*
G02*
X29450000Y-16725000I50000J0D01*
G01*
X30350000Y-16725000D01*
G75*
G02*
X30400000Y-16775000I0J-50000D01*
G01*
G37*
G36*
G01*
X32100000Y-13025000D02*
X32100000Y-13925000D01*
G75*
G02*
X32050000Y-13975000I-50000J0D01*
G01*
X31150000Y-13975000D01*
G75*
G02*
X31100000Y-13925000I0J50000D01*
G01*
X31100000Y-13025000D01*
G75*
G02*
X31150000Y-12975000I50000J0D01*
G01*
X32050000Y-12975000D01*
G75*
G02*
X32100000Y-13025000I0J-50000D01*
G01*
G37*
G36*
G01*
X38100000Y-13025000D02*
X38100000Y-13925000D01*
G75*
G02*
X38050000Y-13975000I-50000J0D01*
G01*
X37150000Y-13975000D01*
G75*
G02*
X37100000Y-13925000I0J50000D01*
G01*
X37100000Y-13025000D01*
G75*
G02*
X37150000Y-12975000I50000J0D01*
G01*
X38050000Y-12975000D01*
G75*
G02*
X38100000Y-13025000I0J-50000D01*
G01*
G37*
G36*
G01*
X32100000Y-16775000D02*
X32100000Y-17675000D01*
G75*
G02*
X32050000Y-17725000I-50000J0D01*
G01*
X31150000Y-17725000D01*
G75*
G02*
X31100000Y-17675000I0J50000D01*
G01*
X31100000Y-16775000D01*
G75*
G02*
X31150000Y-16725000I50000J0D01*
G01*
X32050000Y-16725000D01*
G75*
G02*
X32100000Y-16775000I0J-50000D01*
G01*
G37*
G36*
G01*
X38100000Y-16775000D02*
X38100000Y-17675000D01*
G75*
G02*
X38050000Y-17725000I-50000J0D01*
G01*
X37150000Y-17725000D01*
G75*
G02*
X37100000Y-17675000I0J50000D01*
G01*
X37100000Y-16775000D01*
G75*
G02*
X37150000Y-16725000I50000J0D01*
G01*
X38050000Y-16725000D01*
G75*
G02*
X38100000Y-16775000I0J-50000D01*
G01*
G37*
G36*
G01*
X39800000Y-13025000D02*
X39800000Y-13925000D01*
G75*
G02*
X39750000Y-13975000I-50000J0D01*
G01*
X38850000Y-13975000D01*
G75*
G02*
X38800000Y-13925000I0J50000D01*
G01*
X38800000Y-13025000D01*
G75*
G02*
X38850000Y-12975000I50000J0D01*
G01*
X39750000Y-12975000D01*
G75*
G02*
X39800000Y-13025000I0J-50000D01*
G01*
G37*
G36*
G01*
X45800000Y-13025000D02*
X45800000Y-13925000D01*
G75*
G02*
X45750000Y-13975000I-50000J0D01*
G01*
X44850000Y-13975000D01*
G75*
G02*
X44800000Y-13925000I0J50000D01*
G01*
X44800000Y-13025000D01*
G75*
G02*
X44850000Y-12975000I50000J0D01*
G01*
X45750000Y-12975000D01*
G75*
G02*
X45800000Y-13025000I0J-50000D01*
G01*
G37*
G36*
G01*
X39800000Y-16775000D02*
X39800000Y-17675000D01*
G75*
G02*
X39750000Y-17725000I-50000J0D01*
G01*
X38850000Y-17725000D01*
G75*
G02*
X38800000Y-17675000I0J50000D01*
G01*
X38800000Y-16775000D01*
G75*
G02*
X38850000Y-16725000I50000J0D01*
G01*
X39750000Y-16725000D01*
G75*
G02*
X39800000Y-16775000I0J-50000D01*
G01*
G37*
G36*
G01*
X45800000Y-16775000D02*
X45800000Y-17675000D01*
G75*
G02*
X45750000Y-17725000I-50000J0D01*
G01*
X44850000Y-17725000D01*
G75*
G02*
X44800000Y-17675000I0J50000D01*
G01*
X44800000Y-16775000D01*
G75*
G02*
X44850000Y-16725000I50000J0D01*
G01*
X45750000Y-16725000D01*
G75*
G02*
X45800000Y-16775000I0J-50000D01*
G01*
G37*
G36*
G01*
X47500000Y-13025000D02*
X47500000Y-13925000D01*
G75*
G02*
X47450000Y-13975000I-50000J0D01*
G01*
X46550000Y-13975000D01*
G75*
G02*
X46500000Y-13925000I0J50000D01*
G01*
X46500000Y-13025000D01*
G75*
G02*
X46550000Y-12975000I50000J0D01*
G01*
X47450000Y-12975000D01*
G75*
G02*
X47500000Y-13025000I0J-50000D01*
G01*
G37*
G36*
G01*
X53500000Y-13025000D02*
X53500000Y-13925000D01*
G75*
G02*
X53450000Y-13975000I-50000J0D01*
G01*
X52550000Y-13975000D01*
G75*
G02*
X52500000Y-13925000I0J50000D01*
G01*
X52500000Y-13025000D01*
G75*
G02*
X52550000Y-12975000I50000J0D01*
G01*
X53450000Y-12975000D01*
G75*
G02*
X53500000Y-13025000I0J-50000D01*
G01*
G37*
G36*
G01*
X47500000Y-16775000D02*
X47500000Y-17675000D01*
G75*
G02*
X47450000Y-17725000I-50000J0D01*
G01*
X46550000Y-17725000D01*
G75*
G02*
X46500000Y-17675000I0J50000D01*
G01*
X46500000Y-16775000D01*
G75*
G02*
X46550000Y-16725000I50000J0D01*
G01*
X47450000Y-16725000D01*
G75*
G02*
X47500000Y-16775000I0J-50000D01*
G01*
G37*
G36*
G01*
X53500000Y-16775000D02*
X53500000Y-17675000D01*
G75*
G02*
X53450000Y-17725000I-50000J0D01*
G01*
X52550000Y-17725000D01*
G75*
G02*
X52500000Y-17675000I0J50000D01*
G01*
X52500000Y-16775000D01*
G75*
G02*
X52550000Y-16725000I50000J0D01*
G01*
X53450000Y-16725000D01*
G75*
G02*
X53500000Y-16775000I0J-50000D01*
G01*
G37*
G36*
G01*
X55200000Y-13025000D02*
X55200000Y-13925000D01*
G75*
G02*
X55150000Y-13975000I-50000J0D01*
G01*
X54250000Y-13975000D01*
G75*
G02*
X54200000Y-13925000I0J50000D01*
G01*
X54200000Y-13025000D01*
G75*
G02*
X54250000Y-12975000I50000J0D01*
G01*
X55150000Y-12975000D01*
G75*
G02*
X55200000Y-13025000I0J-50000D01*
G01*
G37*
G36*
G01*
X61200000Y-13025000D02*
X61200000Y-13925000D01*
G75*
G02*
X61150000Y-13975000I-50000J0D01*
G01*
X60250000Y-13975000D01*
G75*
G02*
X60200000Y-13925000I0J50000D01*
G01*
X60200000Y-13025000D01*
G75*
G02*
X60250000Y-12975000I50000J0D01*
G01*
X61150000Y-12975000D01*
G75*
G02*
X61200000Y-13025000I0J-50000D01*
G01*
G37*
G36*
G01*
X55200000Y-16775000D02*
X55200000Y-17675000D01*
G75*
G02*
X55150000Y-17725000I-50000J0D01*
G01*
X54250000Y-17725000D01*
G75*
G02*
X54200000Y-17675000I0J50000D01*
G01*
X54200000Y-16775000D01*
G75*
G02*
X54250000Y-16725000I50000J0D01*
G01*
X55150000Y-16725000D01*
G75*
G02*
X55200000Y-16775000I0J-50000D01*
G01*
G37*
G36*
G01*
X61200000Y-16775000D02*
X61200000Y-17675000D01*
G75*
G02*
X61150000Y-17725000I-50000J0D01*
G01*
X60250000Y-17725000D01*
G75*
G02*
X60200000Y-17675000I0J50000D01*
G01*
X60200000Y-16775000D01*
G75*
G02*
X60250000Y-16725000I50000J0D01*
G01*
X61150000Y-16725000D01*
G75*
G02*
X61200000Y-16775000I0J-50000D01*
G01*
G37*
G36*
G01*
X70600000Y-13025000D02*
X70600000Y-13925000D01*
G75*
G02*
X70550000Y-13975000I-50000J0D01*
G01*
X69650000Y-13975000D01*
G75*
G02*
X69600000Y-13925000I0J50000D01*
G01*
X69600000Y-13025000D01*
G75*
G02*
X69650000Y-12975000I50000J0D01*
G01*
X70550000Y-12975000D01*
G75*
G02*
X70600000Y-13025000I0J-50000D01*
G01*
G37*
G36*
G01*
X76600000Y-13025000D02*
X76600000Y-13925000D01*
G75*
G02*
X76550000Y-13975000I-50000J0D01*
G01*
X75650000Y-13975000D01*
G75*
G02*
X75600000Y-13925000I0J50000D01*
G01*
X75600000Y-13025000D01*
G75*
G02*
X75650000Y-12975000I50000J0D01*
G01*
X76550000Y-12975000D01*
G75*
G02*
X76600000Y-13025000I0J-50000D01*
G01*
G37*
G36*
G01*
X70600000Y-16775000D02*
X70600000Y-17675000D01*
G75*
G02*
X70550000Y-17725000I-50000J0D01*
G01*
X69650000Y-17725000D01*
G75*
G02*
X69600000Y-17675000I0J50000D01*
G01*
X69600000Y-16775000D01*
G75*
G02*
X69650000Y-16725000I50000J0D01*
G01*
X70550000Y-16725000D01*
G75*
G02*
X70600000Y-16775000I0J-50000D01*
G01*
G37*
G36*
G01*
X76600000Y-16775000D02*
X76600000Y-17675000D01*
G75*
G02*
X76550000Y-17725000I-50000J0D01*
G01*
X75650000Y-17725000D01*
G75*
G02*
X75600000Y-17675000I0J50000D01*
G01*
X75600000Y-16775000D01*
G75*
G02*
X75650000Y-16725000I50000J0D01*
G01*
X76550000Y-16725000D01*
G75*
G02*
X76600000Y-16775000I0J-50000D01*
G01*
G37*
G36*
G01*
X78300000Y-13025000D02*
X78300000Y-13925000D01*
G75*
G02*
X78250000Y-13975000I-50000J0D01*
G01*
X77350000Y-13975000D01*
G75*
G02*
X77300000Y-13925000I0J50000D01*
G01*
X77300000Y-13025000D01*
G75*
G02*
X77350000Y-12975000I50000J0D01*
G01*
X78250000Y-12975000D01*
G75*
G02*
X78300000Y-13025000I0J-50000D01*
G01*
G37*
G36*
G01*
X84300000Y-13025000D02*
X84300000Y-13925000D01*
G75*
G02*
X84250000Y-13975000I-50000J0D01*
G01*
X83350000Y-13975000D01*
G75*
G02*
X83300000Y-13925000I0J50000D01*
G01*
X83300000Y-13025000D01*
G75*
G02*
X83350000Y-12975000I50000J0D01*
G01*
X84250000Y-12975000D01*
G75*
G02*
X84300000Y-13025000I0J-50000D01*
G01*
G37*
G36*
G01*
X78300000Y-16775000D02*
X78300000Y-17675000D01*
G75*
G02*
X78250000Y-17725000I-50000J0D01*
G01*
X77350000Y-17725000D01*
G75*
G02*
X77300000Y-17675000I0J50000D01*
G01*
X77300000Y-16775000D01*
G75*
G02*
X77350000Y-16725000I50000J0D01*
G01*
X78250000Y-16725000D01*
G75*
G02*
X78300000Y-16775000I0J-50000D01*
G01*
G37*
G36*
G01*
X84300000Y-16775000D02*
X84300000Y-17675000D01*
G75*
G02*
X84250000Y-17725000I-50000J0D01*
G01*
X83350000Y-17725000D01*
G75*
G02*
X83300000Y-17675000I0J50000D01*
G01*
X83300000Y-16775000D01*
G75*
G02*
X83350000Y-16725000I50000J0D01*
G01*
X84250000Y-16725000D01*
G75*
G02*
X84300000Y-16775000I0J-50000D01*
G01*
G37*
G36*
G01*
X86000000Y-13025000D02*
X86000000Y-13925000D01*
G75*
G02*
X85950000Y-13975000I-50000J0D01*
G01*
X85050000Y-13975000D01*
G75*
G02*
X85000000Y-13925000I0J50000D01*
G01*
X85000000Y-13025000D01*
G75*
G02*
X85050000Y-12975000I50000J0D01*
G01*
X85950000Y-12975000D01*
G75*
G02*
X86000000Y-13025000I0J-50000D01*
G01*
G37*
G36*
G01*
X92000000Y-13025000D02*
X92000000Y-13925000D01*
G75*
G02*
X91950000Y-13975000I-50000J0D01*
G01*
X91050000Y-13975000D01*
G75*
G02*
X91000000Y-13925000I0J50000D01*
G01*
X91000000Y-13025000D01*
G75*
G02*
X91050000Y-12975000I50000J0D01*
G01*
X91950000Y-12975000D01*
G75*
G02*
X92000000Y-13025000I0J-50000D01*
G01*
G37*
G36*
G01*
X86000000Y-16775000D02*
X86000000Y-17675000D01*
G75*
G02*
X85950000Y-17725000I-50000J0D01*
G01*
X85050000Y-17725000D01*
G75*
G02*
X85000000Y-17675000I0J50000D01*
G01*
X85000000Y-16775000D01*
G75*
G02*
X85050000Y-16725000I50000J0D01*
G01*
X85950000Y-16725000D01*
G75*
G02*
X86000000Y-16775000I0J-50000D01*
G01*
G37*
G36*
G01*
X92000000Y-16775000D02*
X92000000Y-17675000D01*
G75*
G02*
X91950000Y-17725000I-50000J0D01*
G01*
X91050000Y-17725000D01*
G75*
G02*
X91000000Y-17675000I0J50000D01*
G01*
X91000000Y-16775000D01*
G75*
G02*
X91050000Y-16725000I50000J0D01*
G01*
X91950000Y-16725000D01*
G75*
G02*
X92000000Y-16775000I0J-50000D01*
G01*
G37*
G36*
G01*
X93700000Y-13025000D02*
X93700000Y-13925000D01*
G75*
G02*
X93650000Y-13975000I-50000J0D01*
G01*
X92750000Y-13975000D01*
G75*
G02*
X92700000Y-13925000I0J50000D01*
G01*
X92700000Y-13025000D01*
G75*
G02*
X92750000Y-12975000I50000J0D01*
G01*
X93650000Y-12975000D01*
G75*
G02*
X93700000Y-13025000I0J-50000D01*
G01*
G37*
G36*
G01*
X99700000Y-13025000D02*
X99700000Y-13925000D01*
G75*
G02*
X99650000Y-13975000I-50000J0D01*
G01*
X98750000Y-13975000D01*
G75*
G02*
X98700000Y-13925000I0J50000D01*
G01*
X98700000Y-13025000D01*
G75*
G02*
X98750000Y-12975000I50000J0D01*
G01*
X99650000Y-12975000D01*
G75*
G02*
X99700000Y-13025000I0J-50000D01*
G01*
G37*
G36*
G01*
X93700000Y-16775000D02*
X93700000Y-17675000D01*
G75*
G02*
X93650000Y-17725000I-50000J0D01*
G01*
X92750000Y-17725000D01*
G75*
G02*
X92700000Y-17675000I0J50000D01*
G01*
X92700000Y-16775000D01*
G75*
G02*
X92750000Y-16725000I50000J0D01*
G01*
X93650000Y-16725000D01*
G75*
G02*
X93700000Y-16775000I0J-50000D01*
G01*
G37*
G36*
G01*
X99700000Y-16775000D02*
X99700000Y-17675000D01*
G75*
G02*
X99650000Y-17725000I-50000J0D01*
G01*
X98750000Y-17725000D01*
G75*
G02*
X98700000Y-17675000I0J50000D01*
G01*
X98700000Y-16775000D01*
G75*
G02*
X98750000Y-16725000I50000J0D01*
G01*
X99650000Y-16725000D01*
G75*
G02*
X99700000Y-16775000I0J-50000D01*
G01*
G37*
G36*
G01*
X9000000Y-20725000D02*
X9000000Y-21625000D01*
G75*
G02*
X8950000Y-21675000I-50000J0D01*
G01*
X8050000Y-21675000D01*
G75*
G02*
X8000000Y-21625000I0J50000D01*
G01*
X8000000Y-20725000D01*
G75*
G02*
X8050000Y-20675000I50000J0D01*
G01*
X8950000Y-20675000D01*
G75*
G02*
X9000000Y-20725000I0J-50000D01*
G01*
G37*
G36*
G01*
X15000000Y-20725000D02*
X15000000Y-21625000D01*
G75*
G02*
X14950000Y-21675000I-50000J0D01*
G01*
X14050000Y-21675000D01*
G75*
G02*
X14000000Y-21625000I0J50000D01*
G01*
X14000000Y-20725000D01*
G75*
G02*
X14050000Y-20675000I50000J0D01*
G01*
X14950000Y-20675000D01*
G75*
G02*
X15000000Y-20725000I0J-50000D01*
G01*
G37*
G36*
G01*
X9000000Y-24475000D02*
X9000000Y-25375000D01*
G75*
G02*
X8950000Y-25425000I-50000J0D01*
G01*
X8050000Y-25425000D01*
G75*
G02*
X8000000Y-25375000I0J50000D01*
G01*
X8000000Y-24475000D01*
G75*
G02*
X8050000Y-24425000I50000J0D01*
G01*
X8950000Y-24425000D01*
G75*
G02*
X9000000Y-24475000I0J-50000D01*
G01*
G37*
G36*
G01*
X15000000Y-24475000D02*
X15000000Y-25375000D01*
G75*
G02*
X14950000Y-25425000I-50000J0D01*
G01*
X14050000Y-25425000D01*
G75*
G02*
X14000000Y-25375000I0J50000D01*
G01*
X14000000Y-24475000D01*
G75*
G02*
X14050000Y-24425000I50000J0D01*
G01*
X14950000Y-24425000D01*
G75*
G02*
X15000000Y-24475000I0J-50000D01*
G01*
G37*
G36*
G01*
X16700000Y-20725000D02*
X16700000Y-21625000D01*
G75*
G02*
X16650000Y-21675000I-50000J0D01*
G01*
X15750000Y-21675000D01*
G75*
G02*
X15700000Y-21625000I0J50000D01*
G01*
X15700000Y-20725000D01*
G75*
G02*
X15750000Y-20675000I50000J0D01*
G01*
X16650000Y-20675000D01*
G75*
G02*
X16700000Y-20725000I0J-50000D01*
G01*
G37*
G36*
G01*
X22700000Y-20725000D02*
X22700000Y-21625000D01*
G75*
G02*
X22650000Y-21675000I-50000J0D01*
G01*
X21750000Y-21675000D01*
G75*
G02*
X21700000Y-21625000I0J50000D01*
G01*
X21700000Y-20725000D01*
G75*
G02*
X21750000Y-20675000I50000J0D01*
G01*
X22650000Y-20675000D01*
G75*
G02*
X22700000Y-20725000I0J-50000D01*
G01*
G37*
G36*
G01*
X16700000Y-24475000D02*
X16700000Y-25375000D01*
G75*
G02*
X16650000Y-25425000I-50000J0D01*
G01*
X15750000Y-25425000D01*
G75*
G02*
X15700000Y-25375000I0J50000D01*
G01*
X15700000Y-24475000D01*
G75*
G02*
X15750000Y-24425000I50000J0D01*
G01*
X16650000Y-24425000D01*
G75*
G02*
X16700000Y-24475000I0J-50000D01*
G01*
G37*
G36*
G01*
X22700000Y-24475000D02*
X22700000Y-25375000D01*
G75*
G02*
X22650000Y-25425000I-50000J0D01*
G01*
X21750000Y-25425000D01*
G75*
G02*
X21700000Y-25375000I0J50000D01*
G01*
X21700000Y-24475000D01*
G75*
G02*
X21750000Y-24425000I50000J0D01*
G01*
X22650000Y-24425000D01*
G75*
G02*
X22700000Y-24475000I0J-50000D01*
G01*
G37*
G36*
G01*
X24400000Y-20725000D02*
X24400000Y-21625000D01*
G75*
G02*
X24350000Y-21675000I-50000J0D01*
G01*
X23450000Y-21675000D01*
G75*
G02*
X23400000Y-21625000I0J50000D01*
G01*
X23400000Y-20725000D01*
G75*
G02*
X23450000Y-20675000I50000J0D01*
G01*
X24350000Y-20675000D01*
G75*
G02*
X24400000Y-20725000I0J-50000D01*
G01*
G37*
G36*
G01*
X30400000Y-20725000D02*
X30400000Y-21625000D01*
G75*
G02*
X30350000Y-21675000I-50000J0D01*
G01*
X29450000Y-21675000D01*
G75*
G02*
X29400000Y-21625000I0J50000D01*
G01*
X29400000Y-20725000D01*
G75*
G02*
X29450000Y-20675000I50000J0D01*
G01*
X30350000Y-20675000D01*
G75*
G02*
X30400000Y-20725000I0J-50000D01*
G01*
G37*
G36*
G01*
X24400000Y-24475000D02*
X24400000Y-25375000D01*
G75*
G02*
X24350000Y-25425000I-50000J0D01*
G01*
X23450000Y-25425000D01*
G75*
G02*
X23400000Y-25375000I0J50000D01*
G01*
X23400000Y-24475000D01*
G75*
G02*
X23450000Y-24425000I50000J0D01*
G01*
X24350000Y-24425000D01*
G75*
G02*
X24400000Y-24475000I0J-50000D01*
G01*
G37*
G36*
G01*
X30400000Y-24475000D02*
X30400000Y-25375000D01*
G75*
G02*
X30350000Y-25425000I-50000J0D01*
G01*
X29450000Y-25425000D01*
G75*
G02*
X29400000Y-25375000I0J50000D01*
G01*
X29400000Y-24475000D01*
G75*
G02*
X29450000Y-24425000I50000J0D01*
G01*
X30350000Y-24425000D01*
G75*
G02*
X30400000Y-24475000I0J-50000D01*
G01*
G37*
G36*
G01*
X32100000Y-20725000D02*
X32100000Y-21625000D01*
G75*
G02*
X32050000Y-21675000I-50000J0D01*
G01*
X31150000Y-21675000D01*
G75*
G02*
X31100000Y-21625000I0J50000D01*
G01*
X31100000Y-20725000D01*
G75*
G02*
X31150000Y-20675000I50000J0D01*
G01*
X32050000Y-20675000D01*
G75*
G02*
X32100000Y-20725000I0J-50000D01*
G01*
G37*
G36*
G01*
X38100000Y-20725000D02*
X38100000Y-21625000D01*
G75*
G02*
X38050000Y-21675000I-50000J0D01*
G01*
X37150000Y-21675000D01*
G75*
G02*
X37100000Y-21625000I0J50000D01*
G01*
X37100000Y-20725000D01*
G75*
G02*
X37150000Y-20675000I50000J0D01*
G01*
X38050000Y-20675000D01*
G75*
G02*
X38100000Y-20725000I0J-50000D01*
G01*
G37*
G36*
G01*
X32100000Y-24475000D02*
X32100000Y-25375000D01*
G75*
G02*
X32050000Y-25425000I-50000J0D01*
G01*
X31150000Y-25425000D01*
G75*
G02*
X31100000Y-25375000I0J50000D01*
G01*
X31100000Y-24475000D01*
G75*
G02*
X31150000Y-24425000I50000J0D01*
G01*
X32050000Y-24425000D01*
G75*
G02*
X32100000Y-24475000I0J-50000D01*
G01*
G37*
G36*
G01*
X38100000Y-24475000D02*
X38100000Y-25375000D01*
G75*
G02*
X38050000Y-25425000I-50000J0D01*
G01*
X37150000Y-25425000D01*
G75*
G02*
X37100000Y-25375000I0J50000D01*
G01*
X37100000Y-24475000D01*
G75*
G02*
X37150000Y-24425000I50000J0D01*
G01*
X38050000Y-24425000D01*
G75*
G02*
X38100000Y-24475000I0J-50000D01*
G01*
G37*
G36*
G01*
X39800000Y-20725000D02*
X39800000Y-21625000D01*
G75*
G02*
X39750000Y-21675000I-50000J0D01*
G01*
X38850000Y-21675000D01*
G75*
G02*
X38800000Y-21625000I0J50000D01*
G01*
X38800000Y-20725000D01*
G75*
G02*
X38850000Y-20675000I50000J0D01*
G01*
X39750000Y-20675000D01*
G75*
G02*
X39800000Y-20725000I0J-50000D01*
G01*
G37*
G36*
G01*
X45800000Y-20725000D02*
X45800000Y-21625000D01*
G75*
G02*
X45750000Y-21675000I-50000J0D01*
G01*
X44850000Y-21675000D01*
G75*
G02*
X44800000Y-21625000I0J50000D01*
G01*
X44800000Y-20725000D01*
G75*
G02*
X44850000Y-20675000I50000J0D01*
G01*
X45750000Y-20675000D01*
G75*
G02*
X45800000Y-20725000I0J-50000D01*
G01*
G37*
G36*
G01*
X39800000Y-24475000D02*
X39800000Y-25375000D01*
G75*
G02*
X39750000Y-25425000I-50000J0D01*
G01*
X38850000Y-25425000D01*
G75*
G02*
X38800000Y-25375000I0J50000D01*
G01*
X38800000Y-24475000D01*
G75*
G02*
X38850000Y-24425000I50000J0D01*
G01*
X39750000Y-24425000D01*
G75*
G02*
X39800000Y-24475000I0J-50000D01*
G01*
G37*
G36*
G01*
X45800000Y-24475000D02*
X45800000Y-25375000D01*
G75*
G02*
X45750000Y-25425000I-50000J0D01*
G01*
X44850000Y-25425000D01*
G75*
G02*
X44800000Y-25375000I0J50000D01*
G01*
X44800000Y-24475000D01*
G75*
G02*
X44850000Y-24425000I50000J0D01*
G01*
X45750000Y-24425000D01*
G75*
G02*
X45800000Y-24475000I0J-50000D01*
G01*
G37*
G36*
G01*
X47500000Y-20725000D02*
X47500000Y-21625000D01*
G75*
G02*
X47450000Y-21675000I-50000J0D01*
G01*
X46550000Y-21675000D01*
G75*
G02*
X46500000Y-21625000I0J50000D01*
G01*
X46500000Y-20725000D01*
G75*
G02*
X46550000Y-20675000I50000J0D01*
G01*
X47450000Y-20675000D01*
G75*
G02*
X47500000Y-20725000I0J-50000D01*
G01*
G37*
G36*
G01*
X53500000Y-20725000D02*
X53500000Y-21625000D01*
G75*
G02*
X53450000Y-21675000I-50000J0D01*
G01*
X52550000Y-21675000D01*
G75*
G02*
X52500000Y-21625000I0J50000D01*
G01*
X52500000Y-20725000D01*
G75*
G02*
X52550000Y-20675000I50000J0D01*
G01*
X53450000Y-20675000D01*
G75*
G02*
X53500000Y-20725000I0J-50000D01*
G01*
G37*
G36*
G01*
X47500000Y-24475000D02*
X47500000Y-25375000D01*
G75*
G02*
X47450000Y-25425000I-50000J0D01*
G01*
X46550000Y-25425000D01*
G75*
G02*
X46500000Y-25375000I0J50000D01*
G01*
X46500000Y-24475000D01*
G75*
G02*
X46550000Y-24425000I50000J0D01*
G01*
X47450000Y-24425000D01*
G75*
G02*
X47500000Y-24475000I0J-50000D01*
G01*
G37*
G36*
G01*
X53500000Y-24475000D02*
X53500000Y-25375000D01*
G75*
G02*
X53450000Y-25425000I-50000J0D01*
G01*
X52550000Y-25425000D01*
G75*
G02*
X52500000Y-25375000I0J50000D01*
G01*
X52500000Y-24475000D01*
G75*
G02*
X52550000Y-24425000I50000J0D01*
G01*
X53450000Y-24425000D01*
G75*
G02*
X53500000Y-24475000I0J-50000D01*
G01*
G37*
G36*
G01*
X55200000Y-20725000D02*
X55200000Y-21625000D01*
G75*
G02*
X55150000Y-21675000I-50000J0D01*
G01*
X54250000Y-21675000D01*
G75*
G02*
X54200000Y-21625000I0J50000D01*
G01*
X54200000Y-20725000D01*
G75*
G02*
X54250000Y-20675000I50000J0D01*
G01*
X55150000Y-20675000D01*
G75*
G02*
X55200000Y-20725000I0J-50000D01*
G01*
G37*
G36*
G01*
X61200000Y-20725000D02*
X61200000Y-21625000D01*
G75*
G02*
X61150000Y-21675000I-50000J0D01*
G01*
X60250000Y-21675000D01*
G75*
G02*
X60200000Y-21625000I0J50000D01*
G01*
X60200000Y-20725000D01*
G75*
G02*
X60250000Y-20675000I50000J0D01*
G01*
X61150000Y-20675000D01*
G75*
G02*
X61200000Y-20725000I0J-50000D01*
G01*
G37*
G36*
G01*
X55200000Y-24475000D02*
X55200000Y-25375000D01*
G75*
G02*
X55150000Y-25425000I-50000J0D01*
G01*
X54250000Y-25425000D01*
G75*
G02*
X54200000Y-25375000I0J50000D01*
G01*
X54200000Y-24475000D01*
G75*
G02*
X54250000Y-24425000I50000J0D01*
G01*
X55150000Y-24425000D01*
G75*
G02*
X55200000Y-24475000I0J-50000D01*
G01*
G37*
G36*
G01*
X61200000Y-24475000D02*
X61200000Y-25375000D01*
G75*
G02*
X61150000Y-25425000I-50000J0D01*
G01*
X60250000Y-25425000D01*
G75*
G02*
X60200000Y-25375000I0J50000D01*
G01*
X60200000Y-24475000D01*
G75*
G02*
X60250000Y-24425000I50000J0D01*
G01*
X61150000Y-24425000D01*
G75*
G02*
X61200000Y-24475000I0J-50000D01*
G01*
G37*
G36*
G01*
X62900000Y-20725000D02*
X62900000Y-21625000D01*
G75*
G02*
X62850000Y-21675000I-50000J0D01*
G01*
X61950000Y-21675000D01*
G75*
G02*
X61900000Y-21625000I0J50000D01*
G01*
X61900000Y-20725000D01*
G75*
G02*
X61950000Y-20675000I50000J0D01*
G01*
X62850000Y-20675000D01*
G75*
G02*
X62900000Y-20725000I0J-50000D01*
G01*
G37*
G36*
G01*
X68900000Y-20725000D02*
X68900000Y-21625000D01*
G75*
G02*
X68850000Y-21675000I-50000J0D01*
G01*
X67950000Y-21675000D01*
G75*
G02*
X67900000Y-21625000I0J50000D01*
G01*
X67900000Y-20725000D01*
G75*
G02*
X67950000Y-20675000I50000J0D01*
G01*
X68850000Y-20675000D01*
G75*
G02*
X68900000Y-20725000I0J-50000D01*
G01*
G37*
G36*
G01*
X62900000Y-24475000D02*
X62900000Y-25375000D01*
G75*
G02*
X62850000Y-25425000I-50000J0D01*
G01*
X61950000Y-25425000D01*
G75*
G02*
X61900000Y-25375000I0J50000D01*
G01*
X61900000Y-24475000D01*
G75*
G02*
X61950000Y-24425000I50000J0D01*
G01*
X62850000Y-24425000D01*
G75*
G02*
X62900000Y-24475000I0J-50000D01*
G01*
G37*
G36*
G01*
X68900000Y-24475000D02*
X68900000Y-25375000D01*
G75*
G02*
X68850000Y-25425000I-50000J0D01*
G01*
X67950000Y-25425000D01*
G75*
G02*
X67900000Y-25375000I0J50000D01*
G01*
X67900000Y-24475000D01*
G75*
G02*
X67950000Y-24425000I50000J0D01*
G01*
X68850000Y-24425000D01*
G75*
G02*
X68900000Y-24475000I0J-50000D01*
G01*
G37*
G36*
G01*
X70600000Y-20725000D02*
X70600000Y-21625000D01*
G75*
G02*
X70550000Y-21675000I-50000J0D01*
G01*
X69650000Y-21675000D01*
G75*
G02*
X69600000Y-21625000I0J50000D01*
G01*
X69600000Y-20725000D01*
G75*
G02*
X69650000Y-20675000I50000J0D01*
G01*
X70550000Y-20675000D01*
G75*
G02*
X70600000Y-20725000I0J-50000D01*
G01*
G37*
G36*
G01*
X76600000Y-20725000D02*
X76600000Y-21625000D01*
G75*
G02*
X76550000Y-21675000I-50000J0D01*
G01*
X75650000Y-21675000D01*
G75*
G02*
X75600000Y-21625000I0J50000D01*
G01*
X75600000Y-20725000D01*
G75*
G02*
X75650000Y-20675000I50000J0D01*
G01*
X76550000Y-20675000D01*
G75*
G02*
X76600000Y-20725000I0J-50000D01*
G01*
G37*
G36*
G01*
X70600000Y-24475000D02*
X70600000Y-25375000D01*
G75*
G02*
X70550000Y-25425000I-50000J0D01*
G01*
X69650000Y-25425000D01*
G75*
G02*
X69600000Y-25375000I0J50000D01*
G01*
X69600000Y-24475000D01*
G75*
G02*
X69650000Y-24425000I50000J0D01*
G01*
X70550000Y-24425000D01*
G75*
G02*
X70600000Y-24475000I0J-50000D01*
G01*
G37*
G36*
G01*
X76600000Y-24475000D02*
X76600000Y-25375000D01*
G75*
G02*
X76550000Y-25425000I-50000J0D01*
G01*
X75650000Y-25425000D01*
G75*
G02*
X75600000Y-25375000I0J50000D01*
G01*
X75600000Y-24475000D01*
G75*
G02*
X75650000Y-24425000I50000J0D01*
G01*
X76550000Y-24425000D01*
G75*
G02*
X76600000Y-24475000I0J-50000D01*
G01*
G37*
G36*
G01*
X78300000Y-20725000D02*
X78300000Y-21625000D01*
G75*
G02*
X78250000Y-21675000I-50000J0D01*
G01*
X77350000Y-21675000D01*
G75*
G02*
X77300000Y-21625000I0J50000D01*
G01*
X77300000Y-20725000D01*
G75*
G02*
X77350000Y-20675000I50000J0D01*
G01*
X78250000Y-20675000D01*
G75*
G02*
X78300000Y-20725000I0J-50000D01*
G01*
G37*
G36*
G01*
X84300000Y-20725000D02*
X84300000Y-21625000D01*
G75*
G02*
X84250000Y-21675000I-50000J0D01*
G01*
X83350000Y-21675000D01*
G75*
G02*
X83300000Y-21625000I0J50000D01*
G01*
X83300000Y-20725000D01*
G75*
G02*
X83350000Y-20675000I50000J0D01*
G01*
X84250000Y-20675000D01*
G75*
G02*
X84300000Y-20725000I0J-50000D01*
G01*
G37*
G36*
G01*
X78300000Y-24475000D02*
X78300000Y-25375000D01*
G75*
G02*
X78250000Y-25425000I-50000J0D01*
G01*
X77350000Y-25425000D01*
G75*
G02*
X77300000Y-25375000I0J50000D01*
G01*
X77300000Y-24475000D01*
G75*
G02*
X77350000Y-24425000I50000J0D01*
G01*
X78250000Y-24425000D01*
G75*
G02*
X78300000Y-24475000I0J-50000D01*
G01*
G37*
G36*
G01*
X84300000Y-24475000D02*
X84300000Y-25375000D01*
G75*
G02*
X84250000Y-25425000I-50000J0D01*
G01*
X83350000Y-25425000D01*
G75*
G02*
X83300000Y-25375000I0J50000D01*
G01*
X83300000Y-24475000D01*
G75*
G02*
X83350000Y-24425000I50000J0D01*
G01*
X84250000Y-24425000D01*
G75*
G02*
X84300000Y-24475000I0J-50000D01*
G01*
G37*
G36*
G01*
X86000000Y-20725000D02*
X86000000Y-21625000D01*
G75*
G02*
X85950000Y-21675000I-50000J0D01*
G01*
X85050000Y-21675000D01*
G75*
G02*
X85000000Y-21625000I0J50000D01*
G01*
X85000000Y-20725000D01*
G75*
G02*
X85050000Y-20675000I50000J0D01*
G01*
X85950000Y-20675000D01*
G75*
G02*
X86000000Y-20725000I0J-50000D01*
G01*
G37*
G36*
G01*
X92000000Y-20725000D02*
X92000000Y-21625000D01*
G75*
G02*
X91950000Y-21675000I-50000J0D01*
G01*
X91050000Y-21675000D01*
G75*
G02*
X91000000Y-21625000I0J50000D01*
G01*
X91000000Y-20725000D01*
G75*
G02*
X91050000Y-20675000I50000J0D01*
G01*
X91950000Y-20675000D01*
G75*
G02*
X92000000Y-20725000I0J-50000D01*
G01*
G37*
G36*
G01*
X86000000Y-24475000D02*
X86000000Y-25375000D01*
G75*
G02*
X85950000Y-25425000I-50000J0D01*
G01*
X85050000Y-25425000D01*
G75*
G02*
X85000000Y-25375000I0J50000D01*
G01*
X85000000Y-24475000D01*
G75*
G02*
X85050000Y-24425000I50000J0D01*
G01*
X85950000Y-24425000D01*
G75*
G02*
X86000000Y-24475000I0J-50000D01*
G01*
G37*
G36*
G01*
X92000000Y-24475000D02*
X92000000Y-25375000D01*
G75*
G02*
X91950000Y-25425000I-50000J0D01*
G01*
X91050000Y-25425000D01*
G75*
G02*
X91000000Y-25375000I0J50000D01*
G01*
X91000000Y-24475000D01*
G75*
G02*
X91050000Y-24425000I50000J0D01*
G01*
X91950000Y-24425000D01*
G75*
G02*
X92000000Y-24475000I0J-50000D01*
G01*
G37*
G36*
G01*
X93700000Y-20725000D02*
X93700000Y-21625000D01*
G75*
G02*
X93650000Y-21675000I-50000J0D01*
G01*
X92750000Y-21675000D01*
G75*
G02*
X92700000Y-21625000I0J50000D01*
G01*
X92700000Y-20725000D01*
G75*
G02*
X92750000Y-20675000I50000J0D01*
G01*
X93650000Y-20675000D01*
G75*
G02*
X93700000Y-20725000I0J-50000D01*
G01*
G37*
G36*
G01*
X99700000Y-20725000D02*
X99700000Y-21625000D01*
G75*
G02*
X99650000Y-21675000I-50000J0D01*
G01*
X98750000Y-21675000D01*
G75*
G02*
X98700000Y-21625000I0J50000D01*
G01*
X98700000Y-20725000D01*
G75*
G02*
X98750000Y-20675000I50000J0D01*
G01*
X99650000Y-20675000D01*
G75*
G02*
X99700000Y-20725000I0J-50000D01*
G01*
G37*
G36*
G01*
X93700000Y-24475000D02*
X93700000Y-25375000D01*
G75*
G02*
X93650000Y-25425000I-50000J0D01*
G01*
X92750000Y-25425000D01*
G75*
G02*
X92700000Y-25375000I0J50000D01*
G01*
X92700000Y-24475000D01*
G75*
G02*
X92750000Y-24425000I50000J0D01*
G01*
X93650000Y-24425000D01*
G75*
G02*
X93700000Y-24475000I0J-50000D01*
G01*
G37*
G36*
G01*
X99700000Y-24475000D02*
X99700000Y-25375000D01*
G75*
G02*
X99650000Y-25425000I-50000J0D01*
G01*
X98750000Y-25425000D01*
G75*
G02*
X98700000Y-25375000I0J50000D01*
G01*
X98700000Y-24475000D01*
G75*
G02*
X98750000Y-24425000I50000J0D01*
G01*
X99650000Y-24425000D01*
G75*
G02*
X99700000Y-24475000I0J-50000D01*
G01*
G37*
G36*
G01*
X1300000Y-28425000D02*
X1300000Y-29325000D01*
G75*
G02*
X1250000Y-29375000I-50000J0D01*
G01*
X350000Y-29375000D01*
G75*
G02*
X300000Y-29325000I0J50000D01*
G01*
X300000Y-28425000D01*
G75*
G02*
X350000Y-28375000I50000J0D01*
G01*
X1250000Y-28375000D01*
G75*
G02*
X1300000Y-28425000I0J-50000D01*
G01*
G37*
G36*
G01*
X7300000Y-28425000D02*
X7300000Y-29325000D01*
G75*
G02*
X7250000Y-29375000I-50000J0D01*
G01*
X6350000Y-29375000D01*
G75*
G02*
X6300000Y-29325000I0J50000D01*
G01*
X6300000Y-28425000D01*
G75*
G02*
X6350000Y-28375000I50000J0D01*
G01*
X7250000Y-28375000D01*
G75*
G02*
X7300000Y-28425000I0J-50000D01*
G01*
G37*
G36*
G01*
X1300000Y-32175000D02*
X1300000Y-33075000D01*
G75*
G02*
X1250000Y-33125000I-50000J0D01*
G01*
X350000Y-33125000D01*
G75*
G02*
X300000Y-33075000I0J50000D01*
G01*
X300000Y-32175000D01*
G75*
G02*
X350000Y-32125000I50000J0D01*
G01*
X1250000Y-32125000D01*
G75*
G02*
X1300000Y-32175000I0J-50000D01*
G01*
G37*
G36*
G01*
X7300000Y-32175000D02*
X7300000Y-33075000D01*
G75*
G02*
X7250000Y-33125000I-50000J0D01*
G01*
X6350000Y-33125000D01*
G75*
G02*
X6300000Y-33075000I0J50000D01*
G01*
X6300000Y-32175000D01*
G75*
G02*
X6350000Y-32125000I50000J0D01*
G01*
X7250000Y-32125000D01*
G75*
G02*
X7300000Y-32175000I0J-50000D01*
G01*
G37*
G36*
G01*
X9000000Y-28425000D02*
X9000000Y-29325000D01*
G75*
G02*
X8950000Y-29375000I-50000J0D01*
G01*
X8050000Y-29375000D01*
G75*
G02*
X8000000Y-29325000I0J50000D01*
G01*
X8000000Y-28425000D01*
G75*
G02*
X8050000Y-28375000I50000J0D01*
G01*
X8950000Y-28375000D01*
G75*
G02*
X9000000Y-28425000I0J-50000D01*
G01*
G37*
G36*
G01*
X15000000Y-28425000D02*
X15000000Y-29325000D01*
G75*
G02*
X14950000Y-29375000I-50000J0D01*
G01*
X14050000Y-29375000D01*
G75*
G02*
X14000000Y-29325000I0J50000D01*
G01*
X14000000Y-28425000D01*
G75*
G02*
X14050000Y-28375000I50000J0D01*
G01*
X14950000Y-28375000D01*
G75*
G02*
X15000000Y-28425000I0J-50000D01*
G01*
G37*
G36*
G01*
X9000000Y-32175000D02*
X9000000Y-33075000D01*
G75*
G02*
X8950000Y-33125000I-50000J0D01*
G01*
X8050000Y-33125000D01*
G75*
G02*
X8000000Y-33075000I0J50000D01*
G01*
X8000000Y-32175000D01*
G75*
G02*
X8050000Y-32125000I50000J0D01*
G01*
X8950000Y-32125000D01*
G75*
G02*
X9000000Y-32175000I0J-50000D01*
G01*
G37*
G36*
G01*
X15000000Y-32175000D02*
X15000000Y-33075000D01*
G75*
G02*
X14950000Y-33125000I-50000J0D01*
G01*
X14050000Y-33125000D01*
G75*
G02*
X14000000Y-33075000I0J50000D01*
G01*
X14000000Y-32175000D01*
G75*
G02*
X14050000Y-32125000I50000J0D01*
G01*
X14950000Y-32125000D01*
G75*
G02*
X15000000Y-32175000I0J-50000D01*
G01*
G37*
G36*
G01*
X16700000Y-28425000D02*
X16700000Y-29325000D01*
G75*
G02*
X16650000Y-29375000I-50000J0D01*
G01*
X15750000Y-29375000D01*
G75*
G02*
X15700000Y-29325000I0J50000D01*
G01*
X15700000Y-28425000D01*
G75*
G02*
X15750000Y-28375000I50000J0D01*
G01*
X16650000Y-28375000D01*
G75*
G02*
X16700000Y-28425000I0J-50000D01*
G01*
G37*
G36*
G01*
X22700000Y-28425000D02*
X22700000Y-29325000D01*
G75*
G02*
X22650000Y-29375000I-50000J0D01*
G01*
X21750000Y-29375000D01*
G75*
G02*
X21700000Y-29325000I0J50000D01*
G01*
X21700000Y-28425000D01*
G75*
G02*
X21750000Y-28375000I50000J0D01*
G01*
X22650000Y-28375000D01*
G75*
G02*
X22700000Y-28425000I0J-50000D01*
G01*
G37*
G36*
G01*
X16700000Y-32175000D02*
X16700000Y-33075000D01*
G75*
G02*
X16650000Y-33125000I-50000J0D01*
G01*
X15750000Y-33125000D01*
G75*
G02*
X15700000Y-33075000I0J50000D01*
G01*
X15700000Y-32175000D01*
G75*
G02*
X15750000Y-32125000I50000J0D01*
G01*
X16650000Y-32125000D01*
G75*
G02*
X16700000Y-32175000I0J-50000D01*
G01*
G37*
G36*
G01*
X22700000Y-32175000D02*
X22700000Y-33075000D01*
G75*
G02*
X22650000Y-33125000I-50000J0D01*
G01*
X21750000Y-33125000D01*
G75*
G02*
X21700000Y-33075000I0J50000D01*
G01*
X21700000Y-32175000D01*
G75*
G02*
X21750000Y-32125000I50000J0D01*
G01*
X22650000Y-32125000D01*
G75*
G02*
X22700000Y-32175000I0J-50000D01*
G01*
G37*
G36*
G01*
X24400000Y-28425000D02*
X24400000Y-29325000D01*
G75*
G02*
X24350000Y-29375000I-50000J0D01*
G01*
X23450000Y-29375000D01*
G75*
G02*
X23400000Y-29325000I0J50000D01*
G01*
X23400000Y-28425000D01*
G75*
G02*
X23450000Y-28375000I50000J0D01*
G01*
X24350000Y-28375000D01*
G75*
G02*
X24400000Y-28425000I0J-50000D01*
G01*
G37*
G36*
G01*
X30400000Y-28425000D02*
X30400000Y-29325000D01*
G75*
G02*
X30350000Y-29375000I-50000J0D01*
G01*
X29450000Y-29375000D01*
G75*
G02*
X29400000Y-29325000I0J50000D01*
G01*
X29400000Y-28425000D01*
G75*
G02*
X29450000Y-28375000I50000J0D01*
G01*
X30350000Y-28375000D01*
G75*
G02*
X30400000Y-28425000I0J-50000D01*
G01*
G37*
G36*
G01*
X24400000Y-32175000D02*
X24400000Y-33075000D01*
G75*
G02*
X24350000Y-33125000I-50000J0D01*
G01*
X23450000Y-33125000D01*
G75*
G02*
X23400000Y-33075000I0J50000D01*
G01*
X23400000Y-32175000D01*
G75*
G02*
X23450000Y-32125000I50000J0D01*
G01*
X24350000Y-32125000D01*
G75*
G02*
X24400000Y-32175000I0J-50000D01*
G01*
G37*
G36*
G01*
X30400000Y-32175000D02*
X30400000Y-33075000D01*
G75*
G02*
X30350000Y-33125000I-50000J0D01*
G01*
X29450000Y-33125000D01*
G75*
G02*
X29400000Y-33075000I0J50000D01*
G01*
X29400000Y-32175000D01*
G75*
G02*
X29450000Y-32125000I50000J0D01*
G01*
X30350000Y-32125000D01*
G75*
G02*
X30400000Y-32175000I0J-50000D01*
G01*
G37*
G36*
G01*
X32100000Y-28425000D02*
X32100000Y-29325000D01*
G75*
G02*
X32050000Y-29375000I-50000J0D01*
G01*
X31150000Y-29375000D01*
G75*
G02*
X31100000Y-29325000I0J50000D01*
G01*
X31100000Y-28425000D01*
G75*
G02*
X31150000Y-28375000I50000J0D01*
G01*
X32050000Y-28375000D01*
G75*
G02*
X32100000Y-28425000I0J-50000D01*
G01*
G37*
G36*
G01*
X38100000Y-28425000D02*
X38100000Y-29325000D01*
G75*
G02*
X38050000Y-29375000I-50000J0D01*
G01*
X37150000Y-29375000D01*
G75*
G02*
X37100000Y-29325000I0J50000D01*
G01*
X37100000Y-28425000D01*
G75*
G02*
X37150000Y-28375000I50000J0D01*
G01*
X38050000Y-28375000D01*
G75*
G02*
X38100000Y-28425000I0J-50000D01*
G01*
G37*
G36*
G01*
X32100000Y-32175000D02*
X32100000Y-33075000D01*
G75*
G02*
X32050000Y-33125000I-50000J0D01*
G01*
X31150000Y-33125000D01*
G75*
G02*
X31100000Y-33075000I0J50000D01*
G01*
X31100000Y-32175000D01*
G75*
G02*
X31150000Y-32125000I50000J0D01*
G01*
X32050000Y-32125000D01*
G75*
G02*
X32100000Y-32175000I0J-50000D01*
G01*
G37*
G36*
G01*
X38100000Y-32175000D02*
X38100000Y-33075000D01*
G75*
G02*
X38050000Y-33125000I-50000J0D01*
G01*
X37150000Y-33125000D01*
G75*
G02*
X37100000Y-33075000I0J50000D01*
G01*
X37100000Y-32175000D01*
G75*
G02*
X37150000Y-32125000I50000J0D01*
G01*
X38050000Y-32125000D01*
G75*
G02*
X38100000Y-32175000I0J-50000D01*
G01*
G37*
G36*
G01*
X39800000Y-28425000D02*
X39800000Y-29325000D01*
G75*
G02*
X39750000Y-29375000I-50000J0D01*
G01*
X38850000Y-29375000D01*
G75*
G02*
X38800000Y-29325000I0J50000D01*
G01*
X38800000Y-28425000D01*
G75*
G02*
X38850000Y-28375000I50000J0D01*
G01*
X39750000Y-28375000D01*
G75*
G02*
X39800000Y-28425000I0J-50000D01*
G01*
G37*
G36*
G01*
X45800000Y-28425000D02*
X45800000Y-29325000D01*
G75*
G02*
X45750000Y-29375000I-50000J0D01*
G01*
X44850000Y-29375000D01*
G75*
G02*
X44800000Y-29325000I0J50000D01*
G01*
X44800000Y-28425000D01*
G75*
G02*
X44850000Y-28375000I50000J0D01*
G01*
X45750000Y-28375000D01*
G75*
G02*
X45800000Y-28425000I0J-50000D01*
G01*
G37*
G36*
G01*
X39800000Y-32175000D02*
X39800000Y-33075000D01*
G75*
G02*
X39750000Y-33125000I-50000J0D01*
G01*
X38850000Y-33125000D01*
G75*
G02*
X38800000Y-33075000I0J50000D01*
G01*
X38800000Y-32175000D01*
G75*
G02*
X38850000Y-32125000I50000J0D01*
G01*
X39750000Y-32125000D01*
G75*
G02*
X39800000Y-32175000I0J-50000D01*
G01*
G37*
G36*
G01*
X45800000Y-32175000D02*
X45800000Y-33075000D01*
G75*
G02*
X45750000Y-33125000I-50000J0D01*
G01*
X44850000Y-33125000D01*
G75*
G02*
X44800000Y-33075000I0J50000D01*
G01*
X44800000Y-32175000D01*
G75*
G02*
X44850000Y-32125000I50000J0D01*
G01*
X45750000Y-32125000D01*
G75*
G02*
X45800000Y-32175000I0J-50000D01*
G01*
G37*
G36*
G01*
X47500000Y-28425000D02*
X47500000Y-29325000D01*
G75*
G02*
X47450000Y-29375000I-50000J0D01*
G01*
X46550000Y-29375000D01*
G75*
G02*
X46500000Y-29325000I0J50000D01*
G01*
X46500000Y-28425000D01*
G75*
G02*
X46550000Y-28375000I50000J0D01*
G01*
X47450000Y-28375000D01*
G75*
G02*
X47500000Y-28425000I0J-50000D01*
G01*
G37*
G36*
G01*
X53500000Y-28425000D02*
X53500000Y-29325000D01*
G75*
G02*
X53450000Y-29375000I-50000J0D01*
G01*
X52550000Y-29375000D01*
G75*
G02*
X52500000Y-29325000I0J50000D01*
G01*
X52500000Y-28425000D01*
G75*
G02*
X52550000Y-28375000I50000J0D01*
G01*
X53450000Y-28375000D01*
G75*
G02*
X53500000Y-28425000I0J-50000D01*
G01*
G37*
G36*
G01*
X47500000Y-32175000D02*
X47500000Y-33075000D01*
G75*
G02*
X47450000Y-33125000I-50000J0D01*
G01*
X46550000Y-33125000D01*
G75*
G02*
X46500000Y-33075000I0J50000D01*
G01*
X46500000Y-32175000D01*
G75*
G02*
X46550000Y-32125000I50000J0D01*
G01*
X47450000Y-32125000D01*
G75*
G02*
X47500000Y-32175000I0J-50000D01*
G01*
G37*
G36*
G01*
X53500000Y-32175000D02*
X53500000Y-33075000D01*
G75*
G02*
X53450000Y-33125000I-50000J0D01*
G01*
X52550000Y-33125000D01*
G75*
G02*
X52500000Y-33075000I0J50000D01*
G01*
X52500000Y-32175000D01*
G75*
G02*
X52550000Y-32125000I50000J0D01*
G01*
X53450000Y-32125000D01*
G75*
G02*
X53500000Y-32175000I0J-50000D01*
G01*
G37*
G36*
G01*
X55200000Y-28425000D02*
X55200000Y-29325000D01*
G75*
G02*
X55150000Y-29375000I-50000J0D01*
G01*
X54250000Y-29375000D01*
G75*
G02*
X54200000Y-29325000I0J50000D01*
G01*
X54200000Y-28425000D01*
G75*
G02*
X54250000Y-28375000I50000J0D01*
G01*
X55150000Y-28375000D01*
G75*
G02*
X55200000Y-28425000I0J-50000D01*
G01*
G37*
G36*
G01*
X61200000Y-28425000D02*
X61200000Y-29325000D01*
G75*
G02*
X61150000Y-29375000I-50000J0D01*
G01*
X60250000Y-29375000D01*
G75*
G02*
X60200000Y-29325000I0J50000D01*
G01*
X60200000Y-28425000D01*
G75*
G02*
X60250000Y-28375000I50000J0D01*
G01*
X61150000Y-28375000D01*
G75*
G02*
X61200000Y-28425000I0J-50000D01*
G01*
G37*
G36*
G01*
X55200000Y-32175000D02*
X55200000Y-33075000D01*
G75*
G02*
X55150000Y-33125000I-50000J0D01*
G01*
X54250000Y-33125000D01*
G75*
G02*
X54200000Y-33075000I0J50000D01*
G01*
X54200000Y-32175000D01*
G75*
G02*
X54250000Y-32125000I50000J0D01*
G01*
X55150000Y-32125000D01*
G75*
G02*
X55200000Y-32175000I0J-50000D01*
G01*
G37*
G36*
G01*
X61200000Y-32175000D02*
X61200000Y-33075000D01*
G75*
G02*
X61150000Y-33125000I-50000J0D01*
G01*
X60250000Y-33125000D01*
G75*
G02*
X60200000Y-33075000I0J50000D01*
G01*
X60200000Y-32175000D01*
G75*
G02*
X60250000Y-32125000I50000J0D01*
G01*
X61150000Y-32125000D01*
G75*
G02*
X61200000Y-32175000I0J-50000D01*
G01*
G37*
G36*
G01*
X62900000Y-28425000D02*
X62900000Y-29325000D01*
G75*
G02*
X62850000Y-29375000I-50000J0D01*
G01*
X61950000Y-29375000D01*
G75*
G02*
X61900000Y-29325000I0J50000D01*
G01*
X61900000Y-28425000D01*
G75*
G02*
X61950000Y-28375000I50000J0D01*
G01*
X62850000Y-28375000D01*
G75*
G02*
X62900000Y-28425000I0J-50000D01*
G01*
G37*
G36*
G01*
X68900000Y-28425000D02*
X68900000Y-29325000D01*
G75*
G02*
X68850000Y-29375000I-50000J0D01*
G01*
X67950000Y-29375000D01*
G75*
G02*
X67900000Y-29325000I0J50000D01*
G01*
X67900000Y-28425000D01*
G75*
G02*
X67950000Y-28375000I50000J0D01*
G01*
X68850000Y-28375000D01*
G75*
G02*
X68900000Y-28425000I0J-50000D01*
G01*
G37*
G36*
G01*
X62900000Y-32175000D02*
X62900000Y-33075000D01*
G75*
G02*
X62850000Y-33125000I-50000J0D01*
G01*
X61950000Y-33125000D01*
G75*
G02*
X61900000Y-33075000I0J50000D01*
G01*
X61900000Y-32175000D01*
G75*
G02*
X61950000Y-32125000I50000J0D01*
G01*
X62850000Y-32125000D01*
G75*
G02*
X62900000Y-32175000I0J-50000D01*
G01*
G37*
G36*
G01*
X68900000Y-32175000D02*
X68900000Y-33075000D01*
G75*
G02*
X68850000Y-33125000I-50000J0D01*
G01*
X67950000Y-33125000D01*
G75*
G02*
X67900000Y-33075000I0J50000D01*
G01*
X67900000Y-32175000D01*
G75*
G02*
X67950000Y-32125000I50000J0D01*
G01*
X68850000Y-32125000D01*
G75*
G02*
X68900000Y-32175000I0J-50000D01*
G01*
G37*
G36*
G01*
X70600000Y-28425000D02*
X70600000Y-29325000D01*
G75*
G02*
X70550000Y-29375000I-50000J0D01*
G01*
X69650000Y-29375000D01*
G75*
G02*
X69600000Y-29325000I0J50000D01*
G01*
X69600000Y-28425000D01*
G75*
G02*
X69650000Y-28375000I50000J0D01*
G01*
X70550000Y-28375000D01*
G75*
G02*
X70600000Y-28425000I0J-50000D01*
G01*
G37*
G36*
G01*
X76600000Y-28425000D02*
X76600000Y-29325000D01*
G75*
G02*
X76550000Y-29375000I-50000J0D01*
G01*
X75650000Y-29375000D01*
G75*
G02*
X75600000Y-29325000I0J50000D01*
G01*
X75600000Y-28425000D01*
G75*
G02*
X75650000Y-28375000I50000J0D01*
G01*
X76550000Y-28375000D01*
G75*
G02*
X76600000Y-28425000I0J-50000D01*
G01*
G37*
G36*
G01*
X70600000Y-32175000D02*
X70600000Y-33075000D01*
G75*
G02*
X70550000Y-33125000I-50000J0D01*
G01*
X69650000Y-33125000D01*
G75*
G02*
X69600000Y-33075000I0J50000D01*
G01*
X69600000Y-32175000D01*
G75*
G02*
X69650000Y-32125000I50000J0D01*
G01*
X70550000Y-32125000D01*
G75*
G02*
X70600000Y-32175000I0J-50000D01*
G01*
G37*
G36*
G01*
X76600000Y-32175000D02*
X76600000Y-33075000D01*
G75*
G02*
X76550000Y-33125000I-50000J0D01*
G01*
X75650000Y-33125000D01*
G75*
G02*
X75600000Y-33075000I0J50000D01*
G01*
X75600000Y-32175000D01*
G75*
G02*
X75650000Y-32125000I50000J0D01*
G01*
X76550000Y-32125000D01*
G75*
G02*
X76600000Y-32175000I0J-50000D01*
G01*
G37*
G36*
G01*
X78300000Y-28425000D02*
X78300000Y-29325000D01*
G75*
G02*
X78250000Y-29375000I-50000J0D01*
G01*
X77350000Y-29375000D01*
G75*
G02*
X77300000Y-29325000I0J50000D01*
G01*
X77300000Y-28425000D01*
G75*
G02*
X77350000Y-28375000I50000J0D01*
G01*
X78250000Y-28375000D01*
G75*
G02*
X78300000Y-28425000I0J-50000D01*
G01*
G37*
G36*
G01*
X84300000Y-28425000D02*
X84300000Y-29325000D01*
G75*
G02*
X84250000Y-29375000I-50000J0D01*
G01*
X83350000Y-29375000D01*
G75*
G02*
X83300000Y-29325000I0J50000D01*
G01*
X83300000Y-28425000D01*
G75*
G02*
X83350000Y-28375000I50000J0D01*
G01*
X84250000Y-28375000D01*
G75*
G02*
X84300000Y-28425000I0J-50000D01*
G01*
G37*
G36*
G01*
X78300000Y-32175000D02*
X78300000Y-33075000D01*
G75*
G02*
X78250000Y-33125000I-50000J0D01*
G01*
X77350000Y-33125000D01*
G75*
G02*
X77300000Y-33075000I0J50000D01*
G01*
X77300000Y-32175000D01*
G75*
G02*
X77350000Y-32125000I50000J0D01*
G01*
X78250000Y-32125000D01*
G75*
G02*
X78300000Y-32175000I0J-50000D01*
G01*
G37*
G36*
G01*
X84300000Y-32175000D02*
X84300000Y-33075000D01*
G75*
G02*
X84250000Y-33125000I-50000J0D01*
G01*
X83350000Y-33125000D01*
G75*
G02*
X83300000Y-33075000I0J50000D01*
G01*
X83300000Y-32175000D01*
G75*
G02*
X83350000Y-32125000I50000J0D01*
G01*
X84250000Y-32125000D01*
G75*
G02*
X84300000Y-32175000I0J-50000D01*
G01*
G37*
G36*
G01*
X86000000Y-28425000D02*
X86000000Y-29325000D01*
G75*
G02*
X85950000Y-29375000I-50000J0D01*
G01*
X85050000Y-29375000D01*
G75*
G02*
X85000000Y-29325000I0J50000D01*
G01*
X85000000Y-28425000D01*
G75*
G02*
X85050000Y-28375000I50000J0D01*
G01*
X85950000Y-28375000D01*
G75*
G02*
X86000000Y-28425000I0J-50000D01*
G01*
G37*
G36*
G01*
X92000000Y-28425000D02*
X92000000Y-29325000D01*
G75*
G02*
X91950000Y-29375000I-50000J0D01*
G01*
X91050000Y-29375000D01*
G75*
G02*
X91000000Y-29325000I0J50000D01*
G01*
X91000000Y-28425000D01*
G75*
G02*
X91050000Y-28375000I50000J0D01*
G01*
X91950000Y-28375000D01*
G75*
G02*
X92000000Y-28425000I0J-50000D01*
G01*
G37*
G36*
G01*
X86000000Y-32175000D02*
X86000000Y-33075000D01*
G75*
G02*
X85950000Y-33125000I-50000J0D01*
G01*
X85050000Y-33125000D01*
G75*
G02*
X85000000Y-33075000I0J50000D01*
G01*
X85000000Y-32175000D01*
G75*
G02*
X85050000Y-32125000I50000J0D01*
G01*
X85950000Y-32125000D01*
G75*
G02*
X86000000Y-32175000I0J-50000D01*
G01*
G37*
G36*
G01*
X92000000Y-32175000D02*
X92000000Y-33075000D01*
G75*
G02*
X91950000Y-33125000I-50000J0D01*
G01*
X91050000Y-33125000D01*
G75*
G02*
X91000000Y-33075000I0J50000D01*
G01*
X91000000Y-32175000D01*
G75*
G02*
X91050000Y-32125000I50000J0D01*
G01*
X91950000Y-32125000D01*
G75*
G02*
X92000000Y-32175000I0J-50000D01*
G01*
G37*
G36*
G01*
X93700000Y-28425000D02*
X93700000Y-29325000D01*
G75*
G02*
X93650000Y-29375000I-50000J0D01*
G01*
X92750000Y-29375000D01*
G75*
G02*
X92700000Y-29325000I0J50000D01*
G01*
X92700000Y-28425000D01*
G75*
G02*
X92750000Y-28375000I50000J0D01*
G01*
X93650000Y-28375000D01*
G75*
G02*
X93700000Y-28425000I0J-50000D01*
G01*
G37*
G36*
G01*
X99700000Y-28425000D02*
X99700000Y-29325000D01*
G75*
G02*
X99650000Y-29375000I-50000J0D01*
G01*
X98750000Y-29375000D01*
G75*
G02*
X98700000Y-29325000I0J50000D01*
G01*
X98700000Y-28425000D01*
G75*
G02*
X98750000Y-28375000I50000J0D01*
G01*
X99650000Y-28375000D01*
G75*
G02*
X99700000Y-28425000I0J-50000D01*
G01*
G37*
G36*
G01*
X93700000Y-32175000D02*
X93700000Y-33075000D01*
G75*
G02*
X93650000Y-33125000I-50000J0D01*
G01*
X92750000Y-33125000D01*
G75*
G02*
X92700000Y-33075000I0J50000D01*
G01*
X92700000Y-32175000D01*
G75*
G02*
X92750000Y-32125000I50000J0D01*
G01*
X93650000Y-32125000D01*
G75*
G02*
X93700000Y-32175000I0J-50000D01*
G01*
G37*
G36*
G01*
X99700000Y-32175000D02*
X99700000Y-33075000D01*
G75*
G02*
X99650000Y-33125000I-50000J0D01*
G01*
X98750000Y-33125000D01*
G75*
G02*
X98700000Y-33075000I0J50000D01*
G01*
X98700000Y-32175000D01*
G75*
G02*
X98750000Y-32125000I50000J0D01*
G01*
X99650000Y-32125000D01*
G75*
G02*
X99700000Y-32175000I0J-50000D01*
G01*
G37*
G36*
G01*
X1300000Y-36125000D02*
X1300000Y-37025000D01*
G75*
G02*
X1250000Y-37075000I-50000J0D01*
G01*
X350000Y-37075000D01*
G75*
G02*
X300000Y-37025000I0J50000D01*
G01*
X300000Y-36125000D01*
G75*
G02*
X350000Y-36075000I50000J0D01*
G01*
X1250000Y-36075000D01*
G75*
G02*
X1300000Y-36125000I0J-50000D01*
G01*
G37*
G36*
G01*
X7300000Y-36125000D02*
X7300000Y-37025000D01*
G75*
G02*
X7250000Y-37075000I-50000J0D01*
G01*
X6350000Y-37075000D01*
G75*
G02*
X6300000Y-37025000I0J50000D01*
G01*
X6300000Y-36125000D01*
G75*
G02*
X6350000Y-36075000I50000J0D01*
G01*
X7250000Y-36075000D01*
G75*
G02*
X7300000Y-36125000I0J-50000D01*
G01*
G37*
G36*
G01*
X1300000Y-39875000D02*
X1300000Y-40775000D01*
G75*
G02*
X1250000Y-40825000I-50000J0D01*
G01*
X350000Y-40825000D01*
G75*
G02*
X300000Y-40775000I0J50000D01*
G01*
X300000Y-39875000D01*
G75*
G02*
X350000Y-39825000I50000J0D01*
G01*
X1250000Y-39825000D01*
G75*
G02*
X1300000Y-39875000I0J-50000D01*
G01*
G37*
G36*
G01*
X7300000Y-39875000D02*
X7300000Y-40775000D01*
G75*
G02*
X7250000Y-40825000I-50000J0D01*
G01*
X6350000Y-40825000D01*
G75*
G02*
X6300000Y-40775000I0J50000D01*
G01*
X6300000Y-39875000D01*
G75*
G02*
X6350000Y-39825000I50000J0D01*
G01*
X7250000Y-39825000D01*
G75*
G02*
X7300000Y-39875000I0J-50000D01*
G01*
G37*
G36*
G01*
X9000000Y-36125000D02*
X9000000Y-37025000D01*
G75*
G02*
X8950000Y-37075000I-50000J0D01*
G01*
X8050000Y-37075000D01*
G75*
G02*
X8000000Y-37025000I0J50000D01*
G01*
X8000000Y-36125000D01*
G75*
G02*
X8050000Y-36075000I50000J0D01*
G01*
X8950000Y-36075000D01*
G75*
G02*
X9000000Y-36125000I0J-50000D01*
G01*
G37*
G36*
G01*
X15000000Y-36125000D02*
X15000000Y-37025000D01*
G75*
G02*
X14950000Y-37075000I-50000J0D01*
G01*
X14050000Y-37075000D01*
G75*
G02*
X14000000Y-37025000I0J50000D01*
G01*
X14000000Y-36125000D01*
G75*
G02*
X14050000Y-36075000I50000J0D01*
G01*
X14950000Y-36075000D01*
G75*
G02*
X15000000Y-36125000I0J-50000D01*
G01*
G37*
G36*
G01*
X9000000Y-39875000D02*
X9000000Y-40775000D01*
G75*
G02*
X8950000Y-40825000I-50000J0D01*
G01*
X8050000Y-40825000D01*
G75*
G02*
X8000000Y-40775000I0J50000D01*
G01*
X8000000Y-39875000D01*
G75*
G02*
X8050000Y-39825000I50000J0D01*
G01*
X8950000Y-39825000D01*
G75*
G02*
X9000000Y-39875000I0J-50000D01*
G01*
G37*
G36*
G01*
X15000000Y-39875000D02*
X15000000Y-40775000D01*
G75*
G02*
X14950000Y-40825000I-50000J0D01*
G01*
X14050000Y-40825000D01*
G75*
G02*
X14000000Y-40775000I0J50000D01*
G01*
X14000000Y-39875000D01*
G75*
G02*
X14050000Y-39825000I50000J0D01*
G01*
X14950000Y-39825000D01*
G75*
G02*
X15000000Y-39875000I0J-50000D01*
G01*
G37*
G36*
G01*
X16700000Y-36125000D02*
X16700000Y-37025000D01*
G75*
G02*
X16650000Y-37075000I-50000J0D01*
G01*
X15750000Y-37075000D01*
G75*
G02*
X15700000Y-37025000I0J50000D01*
G01*
X15700000Y-36125000D01*
G75*
G02*
X15750000Y-36075000I50000J0D01*
G01*
X16650000Y-36075000D01*
G75*
G02*
X16700000Y-36125000I0J-50000D01*
G01*
G37*
G36*
G01*
X22700000Y-36125000D02*
X22700000Y-37025000D01*
G75*
G02*
X22650000Y-37075000I-50000J0D01*
G01*
X21750000Y-37075000D01*
G75*
G02*
X21700000Y-37025000I0J50000D01*
G01*
X21700000Y-36125000D01*
G75*
G02*
X21750000Y-36075000I50000J0D01*
G01*
X22650000Y-36075000D01*
G75*
G02*
X22700000Y-36125000I0J-50000D01*
G01*
G37*
G36*
G01*
X16700000Y-39875000D02*
X16700000Y-40775000D01*
G75*
G02*
X16650000Y-40825000I-50000J0D01*
G01*
X15750000Y-40825000D01*
G75*
G02*
X15700000Y-40775000I0J50000D01*
G01*
X15700000Y-39875000D01*
G75*
G02*
X15750000Y-39825000I50000J0D01*
G01*
X16650000Y-39825000D01*
G75*
G02*
X16700000Y-39875000I0J-50000D01*
G01*
G37*
G36*
G01*
X22700000Y-39875000D02*
X22700000Y-40775000D01*
G75*
G02*
X22650000Y-40825000I-50000J0D01*
G01*
X21750000Y-40825000D01*
G75*
G02*
X21700000Y-40775000I0J50000D01*
G01*
X21700000Y-39875000D01*
G75*
G02*
X21750000Y-39825000I50000J0D01*
G01*
X22650000Y-39825000D01*
G75*
G02*
X22700000Y-39875000I0J-50000D01*
G01*
G37*
G36*
G01*
X24400000Y-36125000D02*
X24400000Y-37025000D01*
G75*
G02*
X24350000Y-37075000I-50000J0D01*
G01*
X23450000Y-37075000D01*
G75*
G02*
X23400000Y-37025000I0J50000D01*
G01*
X23400000Y-36125000D01*
G75*
G02*
X23450000Y-36075000I50000J0D01*
G01*
X24350000Y-36075000D01*
G75*
G02*
X24400000Y-36125000I0J-50000D01*
G01*
G37*
G36*
G01*
X30400000Y-36125000D02*
X30400000Y-37025000D01*
G75*
G02*
X30350000Y-37075000I-50000J0D01*
G01*
X29450000Y-37075000D01*
G75*
G02*
X29400000Y-37025000I0J50000D01*
G01*
X29400000Y-36125000D01*
G75*
G02*
X29450000Y-36075000I50000J0D01*
G01*
X30350000Y-36075000D01*
G75*
G02*
X30400000Y-36125000I0J-50000D01*
G01*
G37*
G36*
G01*
X24400000Y-39875000D02*
X24400000Y-40775000D01*
G75*
G02*
X24350000Y-40825000I-50000J0D01*
G01*
X23450000Y-40825000D01*
G75*
G02*
X23400000Y-40775000I0J50000D01*
G01*
X23400000Y-39875000D01*
G75*
G02*
X23450000Y-39825000I50000J0D01*
G01*
X24350000Y-39825000D01*
G75*
G02*
X24400000Y-39875000I0J-50000D01*
G01*
G37*
G36*
G01*
X30400000Y-39875000D02*
X30400000Y-40775000D01*
G75*
G02*
X30350000Y-40825000I-50000J0D01*
G01*
X29450000Y-40825000D01*
G75*
G02*
X29400000Y-40775000I0J50000D01*
G01*
X29400000Y-39875000D01*
G75*
G02*
X29450000Y-39825000I50000J0D01*
G01*
X30350000Y-39825000D01*
G75*
G02*
X30400000Y-39875000I0J-50000D01*
G01*
G37*
G36*
G01*
X32100000Y-36125000D02*
X32100000Y-37025000D01*
G75*
G02*
X32050000Y-37075000I-50000J0D01*
G01*
X31150000Y-37075000D01*
G75*
G02*
X31100000Y-37025000I0J50000D01*
G01*
X31100000Y-36125000D01*
G75*
G02*
X31150000Y-36075000I50000J0D01*
G01*
X32050000Y-36075000D01*
G75*
G02*
X32100000Y-36125000I0J-50000D01*
G01*
G37*
G36*
G01*
X38100000Y-36125000D02*
X38100000Y-37025000D01*
G75*
G02*
X38050000Y-37075000I-50000J0D01*
G01*
X37150000Y-37075000D01*
G75*
G02*
X37100000Y-37025000I0J50000D01*
G01*
X37100000Y-36125000D01*
G75*
G02*
X37150000Y-36075000I50000J0D01*
G01*
X38050000Y-36075000D01*
G75*
G02*
X38100000Y-36125000I0J-50000D01*
G01*
G37*
G36*
G01*
X32100000Y-39875000D02*
X32100000Y-40775000D01*
G75*
G02*
X32050000Y-40825000I-50000J0D01*
G01*
X31150000Y-40825000D01*
G75*
G02*
X31100000Y-40775000I0J50000D01*
G01*
X31100000Y-39875000D01*
G75*
G02*
X31150000Y-39825000I50000J0D01*
G01*
X32050000Y-39825000D01*
G75*
G02*
X32100000Y-39875000I0J-50000D01*
G01*
G37*
G36*
G01*
X38100000Y-39875000D02*
X38100000Y-40775000D01*
G75*
G02*
X38050000Y-40825000I-50000J0D01*
G01*
X37150000Y-40825000D01*
G75*
G02*
X37100000Y-40775000I0J50000D01*
G01*
X37100000Y-39875000D01*
G75*
G02*
X37150000Y-39825000I50000J0D01*
G01*
X38050000Y-39825000D01*
G75*
G02*
X38100000Y-39875000I0J-50000D01*
G01*
G37*
G36*
G01*
X39800000Y-36125000D02*
X39800000Y-37025000D01*
G75*
G02*
X39750000Y-37075000I-50000J0D01*
G01*
X38850000Y-37075000D01*
G75*
G02*
X38800000Y-37025000I0J50000D01*
G01*
X38800000Y-36125000D01*
G75*
G02*
X38850000Y-36075000I50000J0D01*
G01*
X39750000Y-36075000D01*
G75*
G02*
X39800000Y-36125000I0J-50000D01*
G01*
G37*
G36*
G01*
X45800000Y-36125000D02*
X45800000Y-37025000D01*
G75*
G02*
X45750000Y-37075000I-50000J0D01*
G01*
X44850000Y-37075000D01*
G75*
G02*
X44800000Y-37025000I0J50000D01*
G01*
X44800000Y-36125000D01*
G75*
G02*
X44850000Y-36075000I50000J0D01*
G01*
X45750000Y-36075000D01*
G75*
G02*
X45800000Y-36125000I0J-50000D01*
G01*
G37*
G36*
G01*
X39800000Y-39875000D02*
X39800000Y-40775000D01*
G75*
G02*
X39750000Y-40825000I-50000J0D01*
G01*
X38850000Y-40825000D01*
G75*
G02*
X38800000Y-40775000I0J50000D01*
G01*
X38800000Y-39875000D01*
G75*
G02*
X38850000Y-39825000I50000J0D01*
G01*
X39750000Y-39825000D01*
G75*
G02*
X39800000Y-39875000I0J-50000D01*
G01*
G37*
G36*
G01*
X45800000Y-39875000D02*
X45800000Y-40775000D01*
G75*
G02*
X45750000Y-40825000I-50000J0D01*
G01*
X44850000Y-40825000D01*
G75*
G02*
X44800000Y-40775000I0J50000D01*
G01*
X44800000Y-39875000D01*
G75*
G02*
X44850000Y-39825000I50000J0D01*
G01*
X45750000Y-39825000D01*
G75*
G02*
X45800000Y-39875000I0J-50000D01*
G01*
G37*
G36*
G01*
X47500000Y-36125000D02*
X47500000Y-37025000D01*
G75*
G02*
X47450000Y-37075000I-50000J0D01*
G01*
X46550000Y-37075000D01*
G75*
G02*
X46500000Y-37025000I0J50000D01*
G01*
X46500000Y-36125000D01*
G75*
G02*
X46550000Y-36075000I50000J0D01*
G01*
X47450000Y-36075000D01*
G75*
G02*
X47500000Y-36125000I0J-50000D01*
G01*
G37*
G36*
G01*
X53500000Y-36125000D02*
X53500000Y-37025000D01*
G75*
G02*
X53450000Y-37075000I-50000J0D01*
G01*
X52550000Y-37075000D01*
G75*
G02*
X52500000Y-37025000I0J50000D01*
G01*
X52500000Y-36125000D01*
G75*
G02*
X52550000Y-36075000I50000J0D01*
G01*
X53450000Y-36075000D01*
G75*
G02*
X53500000Y-36125000I0J-50000D01*
G01*
G37*
G36*
G01*
X47500000Y-39875000D02*
X47500000Y-40775000D01*
G75*
G02*
X47450000Y-40825000I-50000J0D01*
G01*
X46550000Y-40825000D01*
G75*
G02*
X46500000Y-40775000I0J50000D01*
G01*
X46500000Y-39875000D01*
G75*
G02*
X46550000Y-39825000I50000J0D01*
G01*
X47450000Y-39825000D01*
G75*
G02*
X47500000Y-39875000I0J-50000D01*
G01*
G37*
G36*
G01*
X53500000Y-39875000D02*
X53500000Y-40775000D01*
G75*
G02*
X53450000Y-40825000I-50000J0D01*
G01*
X52550000Y-40825000D01*
G75*
G02*
X52500000Y-40775000I0J50000D01*
G01*
X52500000Y-39875000D01*
G75*
G02*
X52550000Y-39825000I50000J0D01*
G01*
X53450000Y-39825000D01*
G75*
G02*
X53500000Y-39875000I0J-50000D01*
G01*
G37*
G36*
G01*
X55200000Y-36125000D02*
X55200000Y-37025000D01*
G75*
G02*
X55150000Y-37075000I-50000J0D01*
G01*
X54250000Y-37075000D01*
G75*
G02*
X54200000Y-37025000I0J50000D01*
G01*
X54200000Y-36125000D01*
G75*
G02*
X54250000Y-36075000I50000J0D01*
G01*
X55150000Y-36075000D01*
G75*
G02*
X55200000Y-36125000I0J-50000D01*
G01*
G37*
G36*
G01*
X61200000Y-36125000D02*
X61200000Y-37025000D01*
G75*
G02*
X61150000Y-37075000I-50000J0D01*
G01*
X60250000Y-37075000D01*
G75*
G02*
X60200000Y-37025000I0J50000D01*
G01*
X60200000Y-36125000D01*
G75*
G02*
X60250000Y-36075000I50000J0D01*
G01*
X61150000Y-36075000D01*
G75*
G02*
X61200000Y-36125000I0J-50000D01*
G01*
G37*
G36*
G01*
X55200000Y-39875000D02*
X55200000Y-40775000D01*
G75*
G02*
X55150000Y-40825000I-50000J0D01*
G01*
X54250000Y-40825000D01*
G75*
G02*
X54200000Y-40775000I0J50000D01*
G01*
X54200000Y-39875000D01*
G75*
G02*
X54250000Y-39825000I50000J0D01*
G01*
X55150000Y-39825000D01*
G75*
G02*
X55200000Y-39875000I0J-50000D01*
G01*
G37*
G36*
G01*
X61200000Y-39875000D02*
X61200000Y-40775000D01*
G75*
G02*
X61150000Y-40825000I-50000J0D01*
G01*
X60250000Y-40825000D01*
G75*
G02*
X60200000Y-40775000I0J50000D01*
G01*
X60200000Y-39875000D01*
G75*
G02*
X60250000Y-39825000I50000J0D01*
G01*
X61150000Y-39825000D01*
G75*
G02*
X61200000Y-39875000I0J-50000D01*
G01*
G37*
G36*
G01*
X62900000Y-36125000D02*
X62900000Y-37025000D01*
G75*
G02*
X62850000Y-37075000I-50000J0D01*
G01*
X61950000Y-37075000D01*
G75*
G02*
X61900000Y-37025000I0J50000D01*
G01*
X61900000Y-36125000D01*
G75*
G02*
X61950000Y-36075000I50000J0D01*
G01*
X62850000Y-36075000D01*
G75*
G02*
X62900000Y-36125000I0J-50000D01*
G01*
G37*
G36*
G01*
X68900000Y-36125000D02*
X68900000Y-37025000D01*
G75*
G02*
X68850000Y-37075000I-50000J0D01*
G01*
X67950000Y-37075000D01*
G75*
G02*
X67900000Y-37025000I0J50000D01*
G01*
X67900000Y-36125000D01*
G75*
G02*
X67950000Y-36075000I50000J0D01*
G01*
X68850000Y-36075000D01*
G75*
G02*
X68900000Y-36125000I0J-50000D01*
G01*
G37*
G36*
G01*
X62900000Y-39875000D02*
X62900000Y-40775000D01*
G75*
G02*
X62850000Y-40825000I-50000J0D01*
G01*
X61950000Y-40825000D01*
G75*
G02*
X61900000Y-40775000I0J50000D01*
G01*
X61900000Y-39875000D01*
G75*
G02*
X61950000Y-39825000I50000J0D01*
G01*
X62850000Y-39825000D01*
G75*
G02*
X62900000Y-39875000I0J-50000D01*
G01*
G37*
G36*
G01*
X68900000Y-39875000D02*
X68900000Y-40775000D01*
G75*
G02*
X68850000Y-40825000I-50000J0D01*
G01*
X67950000Y-40825000D01*
G75*
G02*
X67900000Y-40775000I0J50000D01*
G01*
X67900000Y-39875000D01*
G75*
G02*
X67950000Y-39825000I50000J0D01*
G01*
X68850000Y-39825000D01*
G75*
G02*
X68900000Y-39875000I0J-50000D01*
G01*
G37*
G36*
G01*
X70600000Y-36125000D02*
X70600000Y-37025000D01*
G75*
G02*
X70550000Y-37075000I-50000J0D01*
G01*
X69650000Y-37075000D01*
G75*
G02*
X69600000Y-37025000I0J50000D01*
G01*
X69600000Y-36125000D01*
G75*
G02*
X69650000Y-36075000I50000J0D01*
G01*
X70550000Y-36075000D01*
G75*
G02*
X70600000Y-36125000I0J-50000D01*
G01*
G37*
G36*
G01*
X76600000Y-36125000D02*
X76600000Y-37025000D01*
G75*
G02*
X76550000Y-37075000I-50000J0D01*
G01*
X75650000Y-37075000D01*
G75*
G02*
X75600000Y-37025000I0J50000D01*
G01*
X75600000Y-36125000D01*
G75*
G02*
X75650000Y-36075000I50000J0D01*
G01*
X76550000Y-36075000D01*
G75*
G02*
X76600000Y-36125000I0J-50000D01*
G01*
G37*
G36*
G01*
X70600000Y-39875000D02*
X70600000Y-40775000D01*
G75*
G02*
X70550000Y-40825000I-50000J0D01*
G01*
X69650000Y-40825000D01*
G75*
G02*
X69600000Y-40775000I0J50000D01*
G01*
X69600000Y-39875000D01*
G75*
G02*
X69650000Y-39825000I50000J0D01*
G01*
X70550000Y-39825000D01*
G75*
G02*
X70600000Y-39875000I0J-50000D01*
G01*
G37*
G36*
G01*
X76600000Y-39875000D02*
X76600000Y-40775000D01*
G75*
G02*
X76550000Y-40825000I-50000J0D01*
G01*
X75650000Y-40825000D01*
G75*
G02*
X75600000Y-40775000I0J50000D01*
G01*
X75600000Y-39875000D01*
G75*
G02*
X75650000Y-39825000I50000J0D01*
G01*
X76550000Y-39825000D01*
G75*
G02*
X76600000Y-39875000I0J-50000D01*
G01*
G37*
G36*
G01*
X78300000Y-36125000D02*
X78300000Y-37025000D01*
G75*
G02*
X78250000Y-37075000I-50000J0D01*
G01*
X77350000Y-37075000D01*
G75*
G02*
X77300000Y-37025000I0J50000D01*
G01*
X77300000Y-36125000D01*
G75*
G02*
X77350000Y-36075000I50000J0D01*
G01*
X78250000Y-36075000D01*
G75*
G02*
X78300000Y-36125000I0J-50000D01*
G01*
G37*
G36*
G01*
X84300000Y-36125000D02*
X84300000Y-37025000D01*
G75*
G02*
X84250000Y-37075000I-50000J0D01*
G01*
X83350000Y-37075000D01*
G75*
G02*
X83300000Y-37025000I0J50000D01*
G01*
X83300000Y-36125000D01*
G75*
G02*
X83350000Y-36075000I50000J0D01*
G01*
X84250000Y-36075000D01*
G75*
G02*
X84300000Y-36125000I0J-50000D01*
G01*
G37*
G36*
G01*
X78300000Y-39875000D02*
X78300000Y-40775000D01*
G75*
G02*
X78250000Y-40825000I-50000J0D01*
G01*
X77350000Y-40825000D01*
G75*
G02*
X77300000Y-40775000I0J50000D01*
G01*
X77300000Y-39875000D01*
G75*
G02*
X77350000Y-39825000I50000J0D01*
G01*
X78250000Y-39825000D01*
G75*
G02*
X78300000Y-39875000I0J-50000D01*
G01*
G37*
G36*
G01*
X84300000Y-39875000D02*
X84300000Y-40775000D01*
G75*
G02*
X84250000Y-40825000I-50000J0D01*
G01*
X83350000Y-40825000D01*
G75*
G02*
X83300000Y-40775000I0J50000D01*
G01*
X83300000Y-39875000D01*
G75*
G02*
X83350000Y-39825000I50000J0D01*
G01*
X84250000Y-39825000D01*
G75*
G02*
X84300000Y-39875000I0J-50000D01*
G01*
G37*
G36*
G01*
X86000000Y-36125000D02*
X86000000Y-37025000D01*
G75*
G02*
X85950000Y-37075000I-50000J0D01*
G01*
X85050000Y-37075000D01*
G75*
G02*
X85000000Y-37025000I0J50000D01*
G01*
X85000000Y-36125000D01*
G75*
G02*
X85050000Y-36075000I50000J0D01*
G01*
X85950000Y-36075000D01*
G75*
G02*
X86000000Y-36125000I0J-50000D01*
G01*
G37*
G36*
G01*
X92000000Y-36125000D02*
X92000000Y-37025000D01*
G75*
G02*
X91950000Y-37075000I-50000J0D01*
G01*
X91050000Y-37075000D01*
G75*
G02*
X91000000Y-37025000I0J50000D01*
G01*
X91000000Y-36125000D01*
G75*
G02*
X91050000Y-36075000I50000J0D01*
G01*
X91950000Y-36075000D01*
G75*
G02*
X92000000Y-36125000I0J-50000D01*
G01*
G37*
G36*
G01*
X86000000Y-39875000D02*
X86000000Y-40775000D01*
G75*
G02*
X85950000Y-40825000I-50000J0D01*
G01*
X85050000Y-40825000D01*
G75*
G02*
X85000000Y-40775000I0J50000D01*
G01*
X85000000Y-39875000D01*
G75*
G02*
X85050000Y-39825000I50000J0D01*
G01*
X85950000Y-39825000D01*
G75*
G02*
X86000000Y-39875000I0J-50000D01*
G01*
G37*
G36*
G01*
X92000000Y-39875000D02*
X92000000Y-40775000D01*
G75*
G02*
X91950000Y-40825000I-50000J0D01*
G01*
X91050000Y-40825000D01*
G75*
G02*
X91000000Y-40775000I0J50000D01*
G01*
X91000000Y-39875000D01*
G75*
G02*
X91050000Y-39825000I50000J0D01*
G01*
X91950000Y-39825000D01*
G75*
G02*
X92000000Y-39875000I0J-50000D01*
G01*
G37*
G36*
G01*
X93700000Y-36125000D02*
X93700000Y-37025000D01*
G75*
G02*
X93650000Y-37075000I-50000J0D01*
G01*
X92750000Y-37075000D01*
G75*
G02*
X92700000Y-37025000I0J50000D01*
G01*
X92700000Y-36125000D01*
G75*
G02*
X92750000Y-36075000I50000J0D01*
G01*
X93650000Y-36075000D01*
G75*
G02*
X93700000Y-36125000I0J-50000D01*
G01*
G37*
G36*
G01*
X99700000Y-36125000D02*
X99700000Y-37025000D01*
G75*
G02*
X99650000Y-37075000I-50000J0D01*
G01*
X98750000Y-37075000D01*
G75*
G02*
X98700000Y-37025000I0J50000D01*
G01*
X98700000Y-36125000D01*
G75*
G02*
X98750000Y-36075000I50000J0D01*
G01*
X99650000Y-36075000D01*
G75*
G02*
X99700000Y-36125000I0J-50000D01*
G01*
G37*
G36*
G01*
X93700000Y-39875000D02*
X93700000Y-40775000D01*
G75*
G02*
X93650000Y-40825000I-50000J0D01*
G01*
X92750000Y-40825000D01*
G75*
G02*
X92700000Y-40775000I0J50000D01*
G01*
X92700000Y-39875000D01*
G75*
G02*
X92750000Y-39825000I50000J0D01*
G01*
X93650000Y-39825000D01*
G75*
G02*
X93700000Y-39875000I0J-50000D01*
G01*
G37*
G36*
G01*
X99700000Y-39875000D02*
X99700000Y-40775000D01*
G75*
G02*
X99650000Y-40825000I-50000J0D01*
G01*
X98750000Y-40825000D01*
G75*
G02*
X98700000Y-40775000I0J50000D01*
G01*
X98700000Y-39875000D01*
G75*
G02*
X98750000Y-39825000I50000J0D01*
G01*
X99650000Y-39825000D01*
G75*
G02*
X99700000Y-39875000I0J-50000D01*
G01*
G37*
G36*
G01*
X1300000Y-43825000D02*
X1300000Y-44725000D01*
G75*
G02*
X1250000Y-44775000I-50000J0D01*
G01*
X350000Y-44775000D01*
G75*
G02*
X300000Y-44725000I0J50000D01*
G01*
X300000Y-43825000D01*
G75*
G02*
X350000Y-43775000I50000J0D01*
G01*
X1250000Y-43775000D01*
G75*
G02*
X1300000Y-43825000I0J-50000D01*
G01*
G37*
G36*
G01*
X7300000Y-43825000D02*
X7300000Y-44725000D01*
G75*
G02*
X7250000Y-44775000I-50000J0D01*
G01*
X6350000Y-44775000D01*
G75*
G02*
X6300000Y-44725000I0J50000D01*
G01*
X6300000Y-43825000D01*
G75*
G02*
X6350000Y-43775000I50000J0D01*
G01*
X7250000Y-43775000D01*
G75*
G02*
X7300000Y-43825000I0J-50000D01*
G01*
G37*
G36*
G01*
X1300000Y-47575000D02*
X1300000Y-48475000D01*
G75*
G02*
X1250000Y-48525000I-50000J0D01*
G01*
X350000Y-48525000D01*
G75*
G02*
X300000Y-48475000I0J50000D01*
G01*
X300000Y-47575000D01*
G75*
G02*
X350000Y-47525000I50000J0D01*
G01*
X1250000Y-47525000D01*
G75*
G02*
X1300000Y-47575000I0J-50000D01*
G01*
G37*
G36*
G01*
X7300000Y-47575000D02*
X7300000Y-48475000D01*
G75*
G02*
X7250000Y-48525000I-50000J0D01*
G01*
X6350000Y-48525000D01*
G75*
G02*
X6300000Y-48475000I0J50000D01*
G01*
X6300000Y-47575000D01*
G75*
G02*
X6350000Y-47525000I50000J0D01*
G01*
X7250000Y-47525000D01*
G75*
G02*
X7300000Y-47575000I0J-50000D01*
G01*
G37*
G36*
G01*
X78300000Y-43825000D02*
X78300000Y-44725000D01*
G75*
G02*
X78250000Y-44775000I-50000J0D01*
G01*
X77350000Y-44775000D01*
G75*
G02*
X77300000Y-44725000I0J50000D01*
G01*
X77300000Y-43825000D01*
G75*
G02*
X77350000Y-43775000I50000J0D01*
G01*
X78250000Y-43775000D01*
G75*
G02*
X78300000Y-43825000I0J-50000D01*
G01*
G37*
G36*
G01*
X84300000Y-43825000D02*
X84300000Y-44725000D01*
G75*
G02*
X84250000Y-44775000I-50000J0D01*
G01*
X83350000Y-44775000D01*
G75*
G02*
X83300000Y-44725000I0J50000D01*
G01*
X83300000Y-43825000D01*
G75*
G02*
X83350000Y-43775000I50000J0D01*
G01*
X84250000Y-43775000D01*
G75*
G02*
X84300000Y-43825000I0J-50000D01*
G01*
G37*
G36*
G01*
X78300000Y-47575000D02*
X78300000Y-48475000D01*
G75*
G02*
X78250000Y-48525000I-50000J0D01*
G01*
X77350000Y-48525000D01*
G75*
G02*
X77300000Y-48475000I0J50000D01*
G01*
X77300000Y-47575000D01*
G75*
G02*
X77350000Y-47525000I50000J0D01*
G01*
X78250000Y-47525000D01*
G75*
G02*
X78300000Y-47575000I0J-50000D01*
G01*
G37*
G36*
G01*
X84300000Y-47575000D02*
X84300000Y-48475000D01*
G75*
G02*
X84250000Y-48525000I-50000J0D01*
G01*
X83350000Y-48525000D01*
G75*
G02*
X83300000Y-48475000I0J50000D01*
G01*
X83300000Y-47575000D01*
G75*
G02*
X83350000Y-47525000I50000J0D01*
G01*
X84250000Y-47525000D01*
G75*
G02*
X84300000Y-47575000I0J-50000D01*
G01*
G37*
G36*
G01*
X86000000Y-43825000D02*
X86000000Y-44725000D01*
G75*
G02*
X85950000Y-44775000I-50000J0D01*
G01*
X85050000Y-44775000D01*
G75*
G02*
X85000000Y-44725000I0J50000D01*
G01*
X85000000Y-43825000D01*
G75*
G02*
X85050000Y-43775000I50000J0D01*
G01*
X85950000Y-43775000D01*
G75*
G02*
X86000000Y-43825000I0J-50000D01*
G01*
G37*
G36*
G01*
X92000000Y-43825000D02*
X92000000Y-44725000D01*
G75*
G02*
X91950000Y-44775000I-50000J0D01*
G01*
X91050000Y-44775000D01*
G75*
G02*
X91000000Y-44725000I0J50000D01*
G01*
X91000000Y-43825000D01*
G75*
G02*
X91050000Y-43775000I50000J0D01*
G01*
X91950000Y-43775000D01*
G75*
G02*
X92000000Y-43825000I0J-50000D01*
G01*
G37*
G36*
G01*
X86000000Y-47575000D02*
X86000000Y-48475000D01*
G75*
G02*
X85950000Y-48525000I-50000J0D01*
G01*
X85050000Y-48525000D01*
G75*
G02*
X85000000Y-48475000I0J50000D01*
G01*
X85000000Y-47575000D01*
G75*
G02*
X85050000Y-47525000I50000J0D01*
G01*
X85950000Y-47525000D01*
G75*
G02*
X86000000Y-47575000I0J-50000D01*
G01*
G37*
G36*
G01*
X92000000Y-47575000D02*
X92000000Y-48475000D01*
G75*
G02*
X91950000Y-48525000I-50000J0D01*
G01*
X91050000Y-48525000D01*
G75*
G02*
X91000000Y-48475000I0J50000D01*
G01*
X91000000Y-47575000D01*
G75*
G02*
X91050000Y-47525000I50000J0D01*
G01*
X91950000Y-47525000D01*
G75*
G02*
X92000000Y-47575000I0J-50000D01*
G01*
G37*
G36*
G01*
X93700000Y-43825000D02*
X93700000Y-44725000D01*
G75*
G02*
X93650000Y-44775000I-50000J0D01*
G01*
X92750000Y-44775000D01*
G75*
G02*
X92700000Y-44725000I0J50000D01*
G01*
X92700000Y-43825000D01*
G75*
G02*
X92750000Y-43775000I50000J0D01*
G01*
X93650000Y-43775000D01*
G75*
G02*
X93700000Y-43825000I0J-50000D01*
G01*
G37*
G36*
G01*
X99700000Y-43825000D02*
X99700000Y-44725000D01*
G75*
G02*
X99650000Y-44775000I-50000J0D01*
G01*
X98750000Y-44775000D01*
G75*
G02*
X98700000Y-44725000I0J50000D01*
G01*
X98700000Y-43825000D01*
G75*
G02*
X98750000Y-43775000I50000J0D01*
G01*
X99650000Y-43775000D01*
G75*
G02*
X99700000Y-43825000I0J-50000D01*
G01*
G37*
G36*
G01*
X93700000Y-47575000D02*
X93700000Y-48475000D01*
G75*
G02*
X93650000Y-48525000I-50000J0D01*
G01*
X92750000Y-48525000D01*
G75*
G02*
X92700000Y-48475000I0J50000D01*
G01*
X92700000Y-47575000D01*
G75*
G02*
X92750000Y-47525000I50000J0D01*
G01*
X93650000Y-47525000D01*
G75*
G02*
X93700000Y-47575000I0J-50000D01*
G01*
G37*
G36*
G01*
X99700000Y-47575000D02*
X99700000Y-48475000D01*
G75*
G02*
X99650000Y-48525000I-50000J0D01*
G01*
X98750000Y-48525000D01*
G75*
G02*
X98700000Y-48475000I0J50000D01*
G01*
X98700000Y-47575000D01*
G75*
G02*
X98750000Y-47525000I50000J0D01*
G01*
X99650000Y-47525000D01*
G75*
G02*
X99700000Y-47575000I0J-50000D01*
G01*
G37*
D14*
X39525000Y-9075000D03*
X37325000Y-9075000D03*
X31825000Y-9075000D03*
X29625000Y-9075000D03*
X24125000Y-9075000D03*
X21925000Y-9075000D03*
X16425000Y-9075000D03*
X14225000Y-9075000D03*
X6800000Y-9075000D03*
X4600000Y-9075000D03*
G36*
G01*
X79590000Y-2172500D02*
X79590000Y-1827500D01*
G75*
G02*
X79737500Y-1680000I147500J0D01*
G01*
X80032500Y-1680000D01*
G75*
G02*
X80180000Y-1827500I0J-147500D01*
G01*
X80180000Y-2172500D01*
G75*
G02*
X80032500Y-2320000I-147500J0D01*
G01*
X79737500Y-2320000D01*
G75*
G02*
X79590000Y-2172500I0J147500D01*
G01*
G37*
G36*
G01*
X78620000Y-2172500D02*
X78620000Y-1827500D01*
G75*
G02*
X78767500Y-1680000I147500J0D01*
G01*
X79062500Y-1680000D01*
G75*
G02*
X79210000Y-1827500I0J-147500D01*
G01*
X79210000Y-2172500D01*
G75*
G02*
X79062500Y-2320000I-147500J0D01*
G01*
X78767500Y-2320000D01*
G75*
G02*
X78620000Y-2172500I0J147500D01*
G01*
G37*
G36*
G01*
X90672500Y-6310000D02*
X90327500Y-6310000D01*
G75*
G02*
X90180000Y-6162500I0J147500D01*
G01*
X90180000Y-5867500D01*
G75*
G02*
X90327500Y-5720000I147500J0D01*
G01*
X90672500Y-5720000D01*
G75*
G02*
X90820000Y-5867500I0J-147500D01*
G01*
X90820000Y-6162500D01*
G75*
G02*
X90672500Y-6310000I-147500J0D01*
G01*
G37*
G36*
G01*
X90672500Y-7280000D02*
X90327500Y-7280000D01*
G75*
G02*
X90180000Y-7132500I0J147500D01*
G01*
X90180000Y-6837500D01*
G75*
G02*
X90327500Y-6690000I147500J0D01*
G01*
X90672500Y-6690000D01*
G75*
G02*
X90820000Y-6837500I0J-147500D01*
G01*
X90820000Y-7132500D01*
G75*
G02*
X90672500Y-7280000I-147500J0D01*
G01*
G37*
G36*
G01*
X89472500Y-6310000D02*
X89127500Y-6310000D01*
G75*
G02*
X88980000Y-6162500I0J147500D01*
G01*
X88980000Y-5867500D01*
G75*
G02*
X89127500Y-5720000I147500J0D01*
G01*
X89472500Y-5720000D01*
G75*
G02*
X89620000Y-5867500I0J-147500D01*
G01*
X89620000Y-6162500D01*
G75*
G02*
X89472500Y-6310000I-147500J0D01*
G01*
G37*
G36*
G01*
X89472500Y-7280000D02*
X89127500Y-7280000D01*
G75*
G02*
X88980000Y-7132500I0J147500D01*
G01*
X88980000Y-6837500D01*
G75*
G02*
X89127500Y-6690000I147500J0D01*
G01*
X89472500Y-6690000D01*
G75*
G02*
X89620000Y-6837500I0J-147500D01*
G01*
X89620000Y-7132500D01*
G75*
G02*
X89472500Y-7280000I-147500J0D01*
G01*
G37*
G36*
G01*
X62590000Y-10072500D02*
X62590000Y-9727500D01*
G75*
G02*
X62737500Y-9580000I147500J0D01*
G01*
X63032500Y-9580000D01*
G75*
G02*
X63180000Y-9727500I0J-147500D01*
G01*
X63180000Y-10072500D01*
G75*
G02*
X63032500Y-10220000I-147500J0D01*
G01*
X62737500Y-10220000D01*
G75*
G02*
X62590000Y-10072500I0J147500D01*
G01*
G37*
G36*
G01*
X61620000Y-10072500D02*
X61620000Y-9727500D01*
G75*
G02*
X61767500Y-9580000I147500J0D01*
G01*
X62062500Y-9580000D01*
G75*
G02*
X62210000Y-9727500I0J-147500D01*
G01*
X62210000Y-10072500D01*
G75*
G02*
X62062500Y-10220000I-147500J0D01*
G01*
X61767500Y-10220000D01*
G75*
G02*
X61620000Y-10072500I0J147500D01*
G01*
G37*
G36*
G01*
X62210000Y-8127500D02*
X62210000Y-8472500D01*
G75*
G02*
X62062500Y-8620000I-147500J0D01*
G01*
X61767500Y-8620000D01*
G75*
G02*
X61620000Y-8472500I0J147500D01*
G01*
X61620000Y-8127500D01*
G75*
G02*
X61767500Y-7980000I147500J0D01*
G01*
X62062500Y-7980000D01*
G75*
G02*
X62210000Y-8127500I0J-147500D01*
G01*
G37*
G36*
G01*
X63180000Y-8127500D02*
X63180000Y-8472500D01*
G75*
G02*
X63032500Y-8620000I-147500J0D01*
G01*
X62737500Y-8620000D01*
G75*
G02*
X62590000Y-8472500I0J147500D01*
G01*
X62590000Y-8127500D01*
G75*
G02*
X62737500Y-7980000I147500J0D01*
G01*
X63032500Y-7980000D01*
G75*
G02*
X63180000Y-8127500I0J-147500D01*
G01*
G37*
G36*
G01*
X89710000Y-7727500D02*
X89710000Y-8072500D01*
G75*
G02*
X89562500Y-8220000I-147500J0D01*
G01*
X89267500Y-8220000D01*
G75*
G02*
X89120000Y-8072500I0J147500D01*
G01*
X89120000Y-7727500D01*
G75*
G02*
X89267500Y-7580000I147500J0D01*
G01*
X89562500Y-7580000D01*
G75*
G02*
X89710000Y-7727500I0J-147500D01*
G01*
G37*
G36*
G01*
X90680000Y-7727500D02*
X90680000Y-8072500D01*
G75*
G02*
X90532500Y-8220000I-147500J0D01*
G01*
X90237500Y-8220000D01*
G75*
G02*
X90090000Y-8072500I0J147500D01*
G01*
X90090000Y-7727500D01*
G75*
G02*
X90237500Y-7580000I147500J0D01*
G01*
X90532500Y-7580000D01*
G75*
G02*
X90680000Y-7727500I0J-147500D01*
G01*
G37*
G36*
G01*
X72990000Y-7672500D02*
X72990000Y-7327500D01*
G75*
G02*
X73137500Y-7180000I147500J0D01*
G01*
X73432500Y-7180000D01*
G75*
G02*
X73580000Y-7327500I0J-147500D01*
G01*
X73580000Y-7672500D01*
G75*
G02*
X73432500Y-7820000I-147500J0D01*
G01*
X73137500Y-7820000D01*
G75*
G02*
X72990000Y-7672500I0J147500D01*
G01*
G37*
G36*
G01*
X72020000Y-7672500D02*
X72020000Y-7327500D01*
G75*
G02*
X72167500Y-7180000I147500J0D01*
G01*
X72462500Y-7180000D01*
G75*
G02*
X72610000Y-7327500I0J-147500D01*
G01*
X72610000Y-7672500D01*
G75*
G02*
X72462500Y-7820000I-147500J0D01*
G01*
X72167500Y-7820000D01*
G75*
G02*
X72020000Y-7672500I0J147500D01*
G01*
G37*
G36*
G01*
X82572500Y-8975000D02*
X82227500Y-8975000D01*
G75*
G02*
X82080000Y-8827500I0J147500D01*
G01*
X82080000Y-8532500D01*
G75*
G02*
X82227500Y-8385000I147500J0D01*
G01*
X82572500Y-8385000D01*
G75*
G02*
X82720000Y-8532500I0J-147500D01*
G01*
X82720000Y-8827500D01*
G75*
G02*
X82572500Y-8975000I-147500J0D01*
G01*
G37*
G36*
G01*
X82572500Y-9945000D02*
X82227500Y-9945000D01*
G75*
G02*
X82080000Y-9797500I0J147500D01*
G01*
X82080000Y-9502500D01*
G75*
G02*
X82227500Y-9355000I147500J0D01*
G01*
X82572500Y-9355000D01*
G75*
G02*
X82720000Y-9502500I0J-147500D01*
G01*
X82720000Y-9797500D01*
G75*
G02*
X82572500Y-9945000I-147500J0D01*
G01*
G37*
G36*
G01*
X75943674Y-10912375D02*
X76187625Y-11156327D01*
G75*
G02*
X76187625Y-11364923I-104298J-104298D01*
G01*
X75979029Y-11573519D01*
G75*
G02*
X75770433Y-11573519I-104298J104298D01*
G01*
X75526481Y-11329567D01*
G75*
G02*
X75526481Y-11120971I104298J104298D01*
G01*
X75735077Y-10912375D01*
G75*
G02*
X75943673Y-10912375I104298J-104298D01*
G01*
G37*
G36*
G01*
X76629568Y-10226481D02*
X76873519Y-10470433D01*
G75*
G02*
X76873519Y-10679029I-104298J-104298D01*
G01*
X76664923Y-10887625D01*
G75*
G02*
X76456327Y-10887625I-104298J104298D01*
G01*
X76212375Y-10643673D01*
G75*
G02*
X76212375Y-10435077I104298J104298D01*
G01*
X76420971Y-10226481D01*
G75*
G02*
X76629567Y-10226481I104298J-104298D01*
G01*
G37*
G36*
G01*
X75143674Y-10112375D02*
X75387625Y-10356327D01*
G75*
G02*
X75387625Y-10564923I-104298J-104298D01*
G01*
X75179029Y-10773519D01*
G75*
G02*
X74970433Y-10773519I-104298J104298D01*
G01*
X74726481Y-10529567D01*
G75*
G02*
X74726481Y-10320971I104298J104298D01*
G01*
X74935077Y-10112375D01*
G75*
G02*
X75143673Y-10112375I104298J-104298D01*
G01*
G37*
G36*
G01*
X75829568Y-9426481D02*
X76073519Y-9670433D01*
G75*
G02*
X76073519Y-9879029I-104298J-104298D01*
G01*
X75864923Y-10087625D01*
G75*
G02*
X75656327Y-10087625I-104298J104298D01*
G01*
X75412375Y-9843673D01*
G75*
G02*
X75412375Y-9635077I104298J104298D01*
G01*
X75620971Y-9426481D01*
G75*
G02*
X75829567Y-9426481I104298J-104298D01*
G01*
G37*
G36*
G01*
X81556326Y-6987625D02*
X81312375Y-6743673D01*
G75*
G02*
X81312375Y-6535077I104298J104298D01*
G01*
X81520971Y-6326481D01*
G75*
G02*
X81729567Y-6326481I104298J-104298D01*
G01*
X81973519Y-6570433D01*
G75*
G02*
X81973519Y-6779029I-104298J-104298D01*
G01*
X81764923Y-6987625D01*
G75*
G02*
X81556327Y-6987625I-104298J104298D01*
G01*
G37*
G36*
G01*
X80870432Y-7673519D02*
X80626481Y-7429567D01*
G75*
G02*
X80626481Y-7220971I104298J104298D01*
G01*
X80835077Y-7012375D01*
G75*
G02*
X81043673Y-7012375I104298J-104298D01*
G01*
X81287625Y-7256327D01*
G75*
G02*
X81287625Y-7464923I-104298J-104298D01*
G01*
X81079029Y-7673519D01*
G75*
G02*
X80870433Y-7673519I-104298J104298D01*
G01*
G37*
G36*
G01*
X74143674Y-9112375D02*
X74387625Y-9356327D01*
G75*
G02*
X74387625Y-9564923I-104298J-104298D01*
G01*
X74179029Y-9773519D01*
G75*
G02*
X73970433Y-9773519I-104298J104298D01*
G01*
X73726481Y-9529567D01*
G75*
G02*
X73726481Y-9320971I104298J104298D01*
G01*
X73935077Y-9112375D01*
G75*
G02*
X74143673Y-9112375I104298J-104298D01*
G01*
G37*
G36*
G01*
X74829568Y-8426481D02*
X75073519Y-8670433D01*
G75*
G02*
X75073519Y-8879029I-104298J-104298D01*
G01*
X74864923Y-9087625D01*
G75*
G02*
X74656327Y-9087625I-104298J104298D01*
G01*
X74412375Y-8843673D01*
G75*
G02*
X74412375Y-8635077I104298J104298D01*
G01*
X74620971Y-8426481D01*
G75*
G02*
X74829567Y-8426481I104298J-104298D01*
G01*
G37*
G36*
G01*
X73487625Y-10043674D02*
X73243673Y-10287625D01*
G75*
G02*
X73035077Y-10287625I-104298J104298D01*
G01*
X72826481Y-10079029D01*
G75*
G02*
X72826481Y-9870433I104298J104298D01*
G01*
X73070433Y-9626481D01*
G75*
G02*
X73279029Y-9626481I104298J-104298D01*
G01*
X73487625Y-9835077D01*
G75*
G02*
X73487625Y-10043673I-104298J-104298D01*
G01*
G37*
G36*
G01*
X74173519Y-10729568D02*
X73929567Y-10973519D01*
G75*
G02*
X73720971Y-10973519I-104298J104298D01*
G01*
X73512375Y-10764923D01*
G75*
G02*
X73512375Y-10556327I104298J104298D01*
G01*
X73756327Y-10312375D01*
G75*
G02*
X73964923Y-10312375I104298J-104298D01*
G01*
X74173519Y-10520971D01*
G75*
G02*
X74173519Y-10729567I-104298J-104298D01*
G01*
G37*
X99200000Y-49450000D03*
X97000000Y-49450000D03*
X6800000Y-18650000D03*
X4600000Y-18650000D03*
X14500000Y-18650000D03*
X12300000Y-18650000D03*
X22200000Y-18650000D03*
X20000000Y-18650000D03*
X29900000Y-18650000D03*
X27700000Y-18650000D03*
X37600000Y-18650000D03*
X35400000Y-18650000D03*
X45300000Y-18650000D03*
X43100000Y-18650000D03*
X53000000Y-18650000D03*
X50800000Y-18650000D03*
X60700000Y-18650000D03*
X58500000Y-18650000D03*
X68400000Y-18650000D03*
X66200000Y-18650000D03*
X76100000Y-18650000D03*
X73900000Y-18650000D03*
X83800000Y-18650000D03*
X81600000Y-18650000D03*
X91500000Y-18650000D03*
X89300000Y-18650000D03*
X99200000Y-18650000D03*
X97000000Y-18650000D03*
X6800000Y-26350000D03*
X4600000Y-26350000D03*
X14500000Y-26350000D03*
X12300000Y-26350000D03*
X22200000Y-26350000D03*
X20000000Y-26350000D03*
X29900000Y-26350000D03*
X27700000Y-26350000D03*
X37600000Y-26350000D03*
X35400000Y-26350000D03*
X45300000Y-26350000D03*
X43100000Y-26350000D03*
X53000000Y-26350000D03*
X50800000Y-26350000D03*
X60700000Y-26350000D03*
X58500000Y-26350000D03*
X68400000Y-26350000D03*
X66200000Y-26350000D03*
X76100000Y-26350000D03*
X73900000Y-26350000D03*
X83800000Y-26350000D03*
X81600000Y-26350000D03*
X91500000Y-26350000D03*
X89300000Y-26350000D03*
X99200000Y-26350000D03*
X97000000Y-26350000D03*
X6800000Y-34050000D03*
X4600000Y-34050000D03*
X14500000Y-34050000D03*
X12300000Y-34050000D03*
X22200000Y-34050000D03*
X20000000Y-34050000D03*
X29900000Y-34050000D03*
X27700000Y-34050000D03*
X37600000Y-34050000D03*
X35400000Y-34050000D03*
X45300000Y-34050000D03*
X43100000Y-34050000D03*
X53000000Y-34050000D03*
X50800000Y-34050000D03*
X60700000Y-34050000D03*
X58500000Y-34050000D03*
X68400000Y-34050000D03*
X66200000Y-34050000D03*
X76100000Y-34050000D03*
X73900000Y-34050000D03*
X83800000Y-34050000D03*
X81600000Y-34050000D03*
X91500000Y-34050000D03*
X89300000Y-34050000D03*
X99200000Y-34050000D03*
X97000000Y-34050000D03*
X6800000Y-41750000D03*
X4600000Y-41750000D03*
X14500000Y-41750000D03*
X12300000Y-41750000D03*
X22200000Y-41750000D03*
X20000000Y-41750000D03*
X29900000Y-41750000D03*
X27700000Y-41750000D03*
X37600000Y-41750000D03*
X35400000Y-41750000D03*
X45300000Y-41750000D03*
X43100000Y-41750000D03*
X53000000Y-41750000D03*
X50800000Y-41750000D03*
X60700000Y-41750000D03*
X58500000Y-41750000D03*
X68400000Y-41750000D03*
X66200000Y-41750000D03*
X76100000Y-41750000D03*
X73900000Y-41750000D03*
X83800000Y-41750000D03*
X81600000Y-41750000D03*
X91500000Y-41750000D03*
X89300000Y-41750000D03*
X99200000Y-41750000D03*
X97000000Y-41750000D03*
X6800000Y-49450000D03*
X4600000Y-49450000D03*
X16425000Y-49450000D03*
X14225000Y-49450000D03*
X29900000Y-49450000D03*
X27700000Y-49450000D03*
X45300000Y-49450000D03*
X43100000Y-49450000D03*
X60700000Y-49450000D03*
X58500000Y-49450000D03*
X74175000Y-49450000D03*
X71975000Y-49450000D03*
X83800000Y-49450000D03*
X81600000Y-49450000D03*
X91500000Y-49450000D03*
X89300000Y-49450000D03*
D15*
X78200000Y-9650000D03*
X80400000Y-9650000D03*
X80400000Y-11350000D03*
X78200000Y-11350000D03*
G36*
G01*
X76267417Y-7884233D02*
X75737087Y-8414563D01*
G75*
G02*
X75648699Y-8414563I-44194J44194D01*
G01*
X75560311Y-8326175D01*
G75*
G02*
X75560311Y-8237787I44194J44194D01*
G01*
X76090641Y-7707457D01*
G75*
G02*
X76179029Y-7707457I44194J-44194D01*
G01*
X76267417Y-7795845D01*
G75*
G02*
X76267417Y-7884233I-44194J-44194D01*
G01*
G37*
G36*
G01*
X75913864Y-7530679D02*
X75383534Y-8061009D01*
G75*
G02*
X75295146Y-8061009I-44194J44194D01*
G01*
X75206758Y-7972621D01*
G75*
G02*
X75206758Y-7884233I44194J44194D01*
G01*
X75737088Y-7353903D01*
G75*
G02*
X75825476Y-7353903I44194J-44194D01*
G01*
X75913864Y-7442291D01*
G75*
G02*
X75913864Y-7530679I-44194J-44194D01*
G01*
G37*
G36*
G01*
X75560310Y-7177126D02*
X75029980Y-7707456D01*
G75*
G02*
X74941592Y-7707456I-44194J44194D01*
G01*
X74853204Y-7619068D01*
G75*
G02*
X74853204Y-7530680I44194J44194D01*
G01*
X75383534Y-7000350D01*
G75*
G02*
X75471922Y-7000350I44194J-44194D01*
G01*
X75560310Y-7088738D01*
G75*
G02*
X75560310Y-7177126I-44194J-44194D01*
G01*
G37*
G36*
G01*
X75206757Y-6823572D02*
X74676427Y-7353902D01*
G75*
G02*
X74588039Y-7353902I-44194J44194D01*
G01*
X74499651Y-7265514D01*
G75*
G02*
X74499651Y-7177126I44194J44194D01*
G01*
X75029981Y-6646796D01*
G75*
G02*
X75118369Y-6646796I44194J-44194D01*
G01*
X75206757Y-6735184D01*
G75*
G02*
X75206757Y-6823572I-44194J-44194D01*
G01*
G37*
G36*
G01*
X74853204Y-6470019D02*
X74322874Y-7000349D01*
G75*
G02*
X74234486Y-7000349I-44194J44194D01*
G01*
X74146098Y-6911961D01*
G75*
G02*
X74146098Y-6823573I44194J44194D01*
G01*
X74676428Y-6293243D01*
G75*
G02*
X74764816Y-6293243I44194J-44194D01*
G01*
X74853204Y-6381631D01*
G75*
G02*
X74853204Y-6470019I-44194J-44194D01*
G01*
G37*
G36*
G01*
X74499650Y-6116466D02*
X73969320Y-6646796D01*
G75*
G02*
X73880932Y-6646796I-44194J44194D01*
G01*
X73792544Y-6558408D01*
G75*
G02*
X73792544Y-6470020I44194J44194D01*
G01*
X74322874Y-5939690D01*
G75*
G02*
X74411262Y-5939690I44194J-44194D01*
G01*
X74499650Y-6028078D01*
G75*
G02*
X74499650Y-6116466I-44194J-44194D01*
G01*
G37*
G36*
G01*
X74146097Y-5762912D02*
X73615767Y-6293242D01*
G75*
G02*
X73527379Y-6293242I-44194J44194D01*
G01*
X73438991Y-6204854D01*
G75*
G02*
X73438991Y-6116466I44194J44194D01*
G01*
X73969321Y-5586136D01*
G75*
G02*
X74057709Y-5586136I44194J-44194D01*
G01*
X74146097Y-5674524D01*
G75*
G02*
X74146097Y-5762912I-44194J-44194D01*
G01*
G37*
G36*
G01*
X73792543Y-5409359D02*
X73262213Y-5939689D01*
G75*
G02*
X73173825Y-5939689I-44194J44194D01*
G01*
X73085437Y-5851301D01*
G75*
G02*
X73085437Y-5762913I44194J44194D01*
G01*
X73615767Y-5232583D01*
G75*
G02*
X73704155Y-5232583I44194J-44194D01*
G01*
X73792543Y-5320971D01*
G75*
G02*
X73792543Y-5409359I-44194J-44194D01*
G01*
G37*
G36*
G01*
X73792543Y-4879029D02*
X73704155Y-4967417D01*
G75*
G02*
X73615767Y-4967417I-44194J44194D01*
G01*
X73085437Y-4437087D01*
G75*
G02*
X73085437Y-4348699I44194J44194D01*
G01*
X73173825Y-4260311D01*
G75*
G02*
X73262213Y-4260311I44194J-44194D01*
G01*
X73792543Y-4790641D01*
G75*
G02*
X73792543Y-4879029I-44194J-44194D01*
G01*
G37*
G36*
G01*
X74146097Y-4525476D02*
X74057709Y-4613864D01*
G75*
G02*
X73969321Y-4613864I-44194J44194D01*
G01*
X73438991Y-4083534D01*
G75*
G02*
X73438991Y-3995146I44194J44194D01*
G01*
X73527379Y-3906758D01*
G75*
G02*
X73615767Y-3906758I44194J-44194D01*
G01*
X74146097Y-4437088D01*
G75*
G02*
X74146097Y-4525476I-44194J-44194D01*
G01*
G37*
G36*
G01*
X74499650Y-4171922D02*
X74411262Y-4260310D01*
G75*
G02*
X74322874Y-4260310I-44194J44194D01*
G01*
X73792544Y-3729980D01*
G75*
G02*
X73792544Y-3641592I44194J44194D01*
G01*
X73880932Y-3553204D01*
G75*
G02*
X73969320Y-3553204I44194J-44194D01*
G01*
X74499650Y-4083534D01*
G75*
G02*
X74499650Y-4171922I-44194J-44194D01*
G01*
G37*
G36*
G01*
X74853204Y-3818369D02*
X74764816Y-3906757D01*
G75*
G02*
X74676428Y-3906757I-44194J44194D01*
G01*
X74146098Y-3376427D01*
G75*
G02*
X74146098Y-3288039I44194J44194D01*
G01*
X74234486Y-3199651D01*
G75*
G02*
X74322874Y-3199651I44194J-44194D01*
G01*
X74853204Y-3729981D01*
G75*
G02*
X74853204Y-3818369I-44194J-44194D01*
G01*
G37*
G36*
G01*
X75206757Y-3464816D02*
X75118369Y-3553204D01*
G75*
G02*
X75029981Y-3553204I-44194J44194D01*
G01*
X74499651Y-3022874D01*
G75*
G02*
X74499651Y-2934486I44194J44194D01*
G01*
X74588039Y-2846098D01*
G75*
G02*
X74676427Y-2846098I44194J-44194D01*
G01*
X75206757Y-3376428D01*
G75*
G02*
X75206757Y-3464816I-44194J-44194D01*
G01*
G37*
G36*
G01*
X75560310Y-3111262D02*
X75471922Y-3199650D01*
G75*
G02*
X75383534Y-3199650I-44194J44194D01*
G01*
X74853204Y-2669320D01*
G75*
G02*
X74853204Y-2580932I44194J44194D01*
G01*
X74941592Y-2492544D01*
G75*
G02*
X75029980Y-2492544I44194J-44194D01*
G01*
X75560310Y-3022874D01*
G75*
G02*
X75560310Y-3111262I-44194J-44194D01*
G01*
G37*
G36*
G01*
X75913864Y-2757709D02*
X75825476Y-2846097D01*
G75*
G02*
X75737088Y-2846097I-44194J44194D01*
G01*
X75206758Y-2315767D01*
G75*
G02*
X75206758Y-2227379I44194J44194D01*
G01*
X75295146Y-2138991D01*
G75*
G02*
X75383534Y-2138991I44194J-44194D01*
G01*
X75913864Y-2669321D01*
G75*
G02*
X75913864Y-2757709I-44194J-44194D01*
G01*
G37*
G36*
G01*
X76267417Y-2404155D02*
X76179029Y-2492543D01*
G75*
G02*
X76090641Y-2492543I-44194J44194D01*
G01*
X75560311Y-1962213D01*
G75*
G02*
X75560311Y-1873825I44194J44194D01*
G01*
X75648699Y-1785437D01*
G75*
G02*
X75737087Y-1785437I44194J-44194D01*
G01*
X76267417Y-2315767D01*
G75*
G02*
X76267417Y-2404155I-44194J-44194D01*
G01*
G37*
G36*
G01*
X77239689Y-1962213D02*
X76709359Y-2492543D01*
G75*
G02*
X76620971Y-2492543I-44194J44194D01*
G01*
X76532583Y-2404155D01*
G75*
G02*
X76532583Y-2315767I44194J44194D01*
G01*
X77062913Y-1785437D01*
G75*
G02*
X77151301Y-1785437I44194J-44194D01*
G01*
X77239689Y-1873825D01*
G75*
G02*
X77239689Y-1962213I-44194J-44194D01*
G01*
G37*
G36*
G01*
X77593242Y-2315767D02*
X77062912Y-2846097D01*
G75*
G02*
X76974524Y-2846097I-44194J44194D01*
G01*
X76886136Y-2757709D01*
G75*
G02*
X76886136Y-2669321I44194J44194D01*
G01*
X77416466Y-2138991D01*
G75*
G02*
X77504854Y-2138991I44194J-44194D01*
G01*
X77593242Y-2227379D01*
G75*
G02*
X77593242Y-2315767I-44194J-44194D01*
G01*
G37*
G36*
G01*
X77946796Y-2669320D02*
X77416466Y-3199650D01*
G75*
G02*
X77328078Y-3199650I-44194J44194D01*
G01*
X77239690Y-3111262D01*
G75*
G02*
X77239690Y-3022874I44194J44194D01*
G01*
X77770020Y-2492544D01*
G75*
G02*
X77858408Y-2492544I44194J-44194D01*
G01*
X77946796Y-2580932D01*
G75*
G02*
X77946796Y-2669320I-44194J-44194D01*
G01*
G37*
G36*
G01*
X78300349Y-3022874D02*
X77770019Y-3553204D01*
G75*
G02*
X77681631Y-3553204I-44194J44194D01*
G01*
X77593243Y-3464816D01*
G75*
G02*
X77593243Y-3376428I44194J44194D01*
G01*
X78123573Y-2846098D01*
G75*
G02*
X78211961Y-2846098I44194J-44194D01*
G01*
X78300349Y-2934486D01*
G75*
G02*
X78300349Y-3022874I-44194J-44194D01*
G01*
G37*
G36*
G01*
X78653902Y-3376427D02*
X78123572Y-3906757D01*
G75*
G02*
X78035184Y-3906757I-44194J44194D01*
G01*
X77946796Y-3818369D01*
G75*
G02*
X77946796Y-3729981I44194J44194D01*
G01*
X78477126Y-3199651D01*
G75*
G02*
X78565514Y-3199651I44194J-44194D01*
G01*
X78653902Y-3288039D01*
G75*
G02*
X78653902Y-3376427I-44194J-44194D01*
G01*
G37*
G36*
G01*
X79007456Y-3729980D02*
X78477126Y-4260310D01*
G75*
G02*
X78388738Y-4260310I-44194J44194D01*
G01*
X78300350Y-4171922D01*
G75*
G02*
X78300350Y-4083534I44194J44194D01*
G01*
X78830680Y-3553204D01*
G75*
G02*
X78919068Y-3553204I44194J-44194D01*
G01*
X79007456Y-3641592D01*
G75*
G02*
X79007456Y-3729980I-44194J-44194D01*
G01*
G37*
G36*
G01*
X79361009Y-4083534D02*
X78830679Y-4613864D01*
G75*
G02*
X78742291Y-4613864I-44194J44194D01*
G01*
X78653903Y-4525476D01*
G75*
G02*
X78653903Y-4437088I44194J44194D01*
G01*
X79184233Y-3906758D01*
G75*
G02*
X79272621Y-3906758I44194J-44194D01*
G01*
X79361009Y-3995146D01*
G75*
G02*
X79361009Y-4083534I-44194J-44194D01*
G01*
G37*
G36*
G01*
X79714563Y-4437087D02*
X79184233Y-4967417D01*
G75*
G02*
X79095845Y-4967417I-44194J44194D01*
G01*
X79007457Y-4879029D01*
G75*
G02*
X79007457Y-4790641I44194J44194D01*
G01*
X79537787Y-4260311D01*
G75*
G02*
X79626175Y-4260311I44194J-44194D01*
G01*
X79714563Y-4348699D01*
G75*
G02*
X79714563Y-4437087I-44194J-44194D01*
G01*
G37*
G36*
G01*
X79714563Y-5851301D02*
X79626175Y-5939689D01*
G75*
G02*
X79537787Y-5939689I-44194J44194D01*
G01*
X79007457Y-5409359D01*
G75*
G02*
X79007457Y-5320971I44194J44194D01*
G01*
X79095845Y-5232583D01*
G75*
G02*
X79184233Y-5232583I44194J-44194D01*
G01*
X79714563Y-5762913D01*
G75*
G02*
X79714563Y-5851301I-44194J-44194D01*
G01*
G37*
G36*
G01*
X79361009Y-6204854D02*
X79272621Y-6293242D01*
G75*
G02*
X79184233Y-6293242I-44194J44194D01*
G01*
X78653903Y-5762912D01*
G75*
G02*
X78653903Y-5674524I44194J44194D01*
G01*
X78742291Y-5586136D01*
G75*
G02*
X78830679Y-5586136I44194J-44194D01*
G01*
X79361009Y-6116466D01*
G75*
G02*
X79361009Y-6204854I-44194J-44194D01*
G01*
G37*
G36*
G01*
X79007456Y-6558408D02*
X78919068Y-6646796D01*
G75*
G02*
X78830680Y-6646796I-44194J44194D01*
G01*
X78300350Y-6116466D01*
G75*
G02*
X78300350Y-6028078I44194J44194D01*
G01*
X78388738Y-5939690D01*
G75*
G02*
X78477126Y-5939690I44194J-44194D01*
G01*
X79007456Y-6470020D01*
G75*
G02*
X79007456Y-6558408I-44194J-44194D01*
G01*
G37*
G36*
G01*
X78653902Y-6911961D02*
X78565514Y-7000349D01*
G75*
G02*
X78477126Y-7000349I-44194J44194D01*
G01*
X77946796Y-6470019D01*
G75*
G02*
X77946796Y-6381631I44194J44194D01*
G01*
X78035184Y-6293243D01*
G75*
G02*
X78123572Y-6293243I44194J-44194D01*
G01*
X78653902Y-6823573D01*
G75*
G02*
X78653902Y-6911961I-44194J-44194D01*
G01*
G37*
G36*
G01*
X78300349Y-7265514D02*
X78211961Y-7353902D01*
G75*
G02*
X78123573Y-7353902I-44194J44194D01*
G01*
X77593243Y-6823572D01*
G75*
G02*
X77593243Y-6735184I44194J44194D01*
G01*
X77681631Y-6646796D01*
G75*
G02*
X77770019Y-6646796I44194J-44194D01*
G01*
X78300349Y-7177126D01*
G75*
G02*
X78300349Y-7265514I-44194J-44194D01*
G01*
G37*
G36*
G01*
X77946796Y-7619068D02*
X77858408Y-7707456D01*
G75*
G02*
X77770020Y-7707456I-44194J44194D01*
G01*
X77239690Y-7177126D01*
G75*
G02*
X77239690Y-7088738I44194J44194D01*
G01*
X77328078Y-7000350D01*
G75*
G02*
X77416466Y-7000350I44194J-44194D01*
G01*
X77946796Y-7530680D01*
G75*
G02*
X77946796Y-7619068I-44194J-44194D01*
G01*
G37*
G36*
G01*
X77593242Y-7972621D02*
X77504854Y-8061009D01*
G75*
G02*
X77416466Y-8061009I-44194J44194D01*
G01*
X76886136Y-7530679D01*
G75*
G02*
X76886136Y-7442291I44194J44194D01*
G01*
X76974524Y-7353903D01*
G75*
G02*
X77062912Y-7353903I44194J-44194D01*
G01*
X77593242Y-7884233D01*
G75*
G02*
X77593242Y-7972621I-44194J-44194D01*
G01*
G37*
G36*
G01*
X77239689Y-8326175D02*
X77151301Y-8414563D01*
G75*
G02*
X77062913Y-8414563I-44194J44194D01*
G01*
X76532583Y-7884233D01*
G75*
G02*
X76532583Y-7795845I44194J44194D01*
G01*
X76620971Y-7707457D01*
G75*
G02*
X76709359Y-7707457I44194J-44194D01*
G01*
X77239689Y-8237787D01*
G75*
G02*
X77239689Y-8326175I-44194J-44194D01*
G01*
G37*
G36*
G01*
X76840174Y-3790085D02*
X76546725Y-4083534D01*
G75*
G02*
X76253275Y-4083534I-146725J146725D01*
G01*
X75959826Y-3790085D01*
G75*
G02*
X75959826Y-3496635I146725J146725D01*
G01*
X76253275Y-3203186D01*
G75*
G02*
X76546725Y-3203186I146725J-146725D01*
G01*
X76840174Y-3496635D01*
G75*
G02*
X76840174Y-3790085I-146725J-146725D01*
G01*
G37*
G36*
G01*
X76111854Y-4518405D02*
X75818405Y-4811854D01*
G75*
G02*
X75524955Y-4811854I-146725J146725D01*
G01*
X75231506Y-4518405D01*
G75*
G02*
X75231506Y-4224955I146725J146725D01*
G01*
X75524955Y-3931506D01*
G75*
G02*
X75818405Y-3931506I146725J-146725D01*
G01*
X76111854Y-4224955D01*
G75*
G02*
X76111854Y-4518405I-146725J-146725D01*
G01*
G37*
G36*
G01*
X75383534Y-5246725D02*
X75090085Y-5540174D01*
G75*
G02*
X74796635Y-5540174I-146725J146725D01*
G01*
X74503186Y-5246725D01*
G75*
G02*
X74503186Y-4953275I146725J146725D01*
G01*
X74796635Y-4659826D01*
G75*
G02*
X75090085Y-4659826I146725J-146725D01*
G01*
X75383534Y-4953275D01*
G75*
G02*
X75383534Y-5246725I-146725J-146725D01*
G01*
G37*
G36*
G01*
X77568494Y-4518405D02*
X77275045Y-4811854D01*
G75*
G02*
X76981595Y-4811854I-146725J146725D01*
G01*
X76688146Y-4518405D01*
G75*
G02*
X76688146Y-4224955I146725J146725D01*
G01*
X76981595Y-3931506D01*
G75*
G02*
X77275045Y-3931506I146725J-146725D01*
G01*
X77568494Y-4224955D01*
G75*
G02*
X77568494Y-4518405I-146725J-146725D01*
G01*
G37*
G36*
G01*
X76840174Y-5246725D02*
X76546725Y-5540174D01*
G75*
G02*
X76253275Y-5540174I-146725J146725D01*
G01*
X75959826Y-5246725D01*
G75*
G02*
X75959826Y-4953275I146725J146725D01*
G01*
X76253275Y-4659826D01*
G75*
G02*
X76546725Y-4659826I146725J-146725D01*
G01*
X76840174Y-4953275D01*
G75*
G02*
X76840174Y-5246725I-146725J-146725D01*
G01*
G37*
G36*
G01*
X76111854Y-5975045D02*
X75818405Y-6268494D01*
G75*
G02*
X75524955Y-6268494I-146725J146725D01*
G01*
X75231506Y-5975045D01*
G75*
G02*
X75231506Y-5681595I146725J146725D01*
G01*
X75524955Y-5388146D01*
G75*
G02*
X75818405Y-5388146I146725J-146725D01*
G01*
X76111854Y-5681595D01*
G75*
G02*
X76111854Y-5975045I-146725J-146725D01*
G01*
G37*
G36*
G01*
X78296814Y-5246725D02*
X78003365Y-5540174D01*
G75*
G02*
X77709915Y-5540174I-146725J146725D01*
G01*
X77416466Y-5246725D01*
G75*
G02*
X77416466Y-4953275I146725J146725D01*
G01*
X77709915Y-4659826D01*
G75*
G02*
X78003365Y-4659826I146725J-146725D01*
G01*
X78296814Y-4953275D01*
G75*
G02*
X78296814Y-5246725I-146725J-146725D01*
G01*
G37*
G36*
G01*
X77568494Y-5975045D02*
X77275045Y-6268494D01*
G75*
G02*
X76981595Y-6268494I-146725J146725D01*
G01*
X76688146Y-5975045D01*
G75*
G02*
X76688146Y-5681595I146725J146725D01*
G01*
X76981595Y-5388146D01*
G75*
G02*
X77275045Y-5388146I146725J-146725D01*
G01*
X77568494Y-5681595D01*
G75*
G02*
X77568494Y-5975045I-146725J-146725D01*
G01*
G37*
G36*
G01*
X76840174Y-6703365D02*
X76546725Y-6996814D01*
G75*
G02*
X76253275Y-6996814I-146725J146725D01*
G01*
X75959826Y-6703365D01*
G75*
G02*
X75959826Y-6409915I146725J146725D01*
G01*
X76253275Y-6116466D01*
G75*
G02*
X76546725Y-6116466I146725J-146725D01*
G01*
X76840174Y-6409915D01*
G75*
G02*
X76840174Y-6703365I-146725J-146725D01*
G01*
G37*
G36*
G01*
X58225000Y-5375000D02*
X58225000Y-6625000D01*
G75*
G02*
X57975000Y-6875000I-250000J0D01*
G01*
X57225000Y-6875000D01*
G75*
G02*
X56975000Y-6625000I0J250000D01*
G01*
X56975000Y-5375000D01*
G75*
G02*
X57225000Y-5125000I250000J0D01*
G01*
X57975000Y-5125000D01*
G75*
G02*
X58225000Y-5375000I0J-250000D01*
G01*
G37*
G36*
G01*
X61025000Y-5375000D02*
X61025000Y-6625000D01*
G75*
G02*
X60775000Y-6875000I-250000J0D01*
G01*
X60025000Y-6875000D01*
G75*
G02*
X59775000Y-6625000I0J250000D01*
G01*
X59775000Y-5375000D01*
G75*
G02*
X60025000Y-5125000I250000J0D01*
G01*
X60775000Y-5125000D01*
G75*
G02*
X61025000Y-5375000I0J-250000D01*
G01*
G37*
D16*
X59000000Y-8000000D03*
X58050000Y-8000000D03*
X59950000Y-8000000D03*
X59950000Y-10200000D03*
X59000000Y-10200000D03*
X58050000Y-10200000D03*
G36*
G01*
X16925000Y-47575000D02*
X16925000Y-48475000D01*
G75*
G02*
X16875000Y-48525000I-50000J0D01*
G01*
X15975000Y-48525000D01*
G75*
G02*
X15925000Y-48475000I0J50000D01*
G01*
X15925000Y-47575000D01*
G75*
G02*
X15975000Y-47525000I50000J0D01*
G01*
X16875000Y-47525000D01*
G75*
G02*
X16925000Y-47575000I0J-50000D01*
G01*
G37*
G36*
G01*
X10925000Y-47575000D02*
X10925000Y-48475000D01*
G75*
G02*
X10875000Y-48525000I-50000J0D01*
G01*
X9975000Y-48525000D01*
G75*
G02*
X9925000Y-48475000I0J50000D01*
G01*
X9925000Y-47575000D01*
G75*
G02*
X9975000Y-47525000I50000J0D01*
G01*
X10875000Y-47525000D01*
G75*
G02*
X10925000Y-47575000I0J-50000D01*
G01*
G37*
G36*
G01*
X16925000Y-43825000D02*
X16925000Y-44725000D01*
G75*
G02*
X16875000Y-44775000I-50000J0D01*
G01*
X15975000Y-44775000D01*
G75*
G02*
X15925000Y-44725000I0J50000D01*
G01*
X15925000Y-43825000D01*
G75*
G02*
X15975000Y-43775000I50000J0D01*
G01*
X16875000Y-43775000D01*
G75*
G02*
X16925000Y-43825000I0J-50000D01*
G01*
G37*
G36*
G01*
X10925000Y-43825000D02*
X10925000Y-44725000D01*
G75*
G02*
X10875000Y-44775000I-50000J0D01*
G01*
X9975000Y-44775000D01*
G75*
G02*
X9925000Y-44725000I0J50000D01*
G01*
X9925000Y-43825000D01*
G75*
G02*
X9975000Y-43775000I50000J0D01*
G01*
X10875000Y-43775000D01*
G75*
G02*
X10925000Y-43825000I0J-50000D01*
G01*
G37*
G36*
G01*
X30400000Y-47575000D02*
X30400000Y-48475000D01*
G75*
G02*
X30350000Y-48525000I-50000J0D01*
G01*
X29450000Y-48525000D01*
G75*
G02*
X29400000Y-48475000I0J50000D01*
G01*
X29400000Y-47575000D01*
G75*
G02*
X29450000Y-47525000I50000J0D01*
G01*
X30350000Y-47525000D01*
G75*
G02*
X30400000Y-47575000I0J-50000D01*
G01*
G37*
G36*
G01*
X24400000Y-47575000D02*
X24400000Y-48475000D01*
G75*
G02*
X24350000Y-48525000I-50000J0D01*
G01*
X23450000Y-48525000D01*
G75*
G02*
X23400000Y-48475000I0J50000D01*
G01*
X23400000Y-47575000D01*
G75*
G02*
X23450000Y-47525000I50000J0D01*
G01*
X24350000Y-47525000D01*
G75*
G02*
X24400000Y-47575000I0J-50000D01*
G01*
G37*
G36*
G01*
X30400000Y-43825000D02*
X30400000Y-44725000D01*
G75*
G02*
X30350000Y-44775000I-50000J0D01*
G01*
X29450000Y-44775000D01*
G75*
G02*
X29400000Y-44725000I0J50000D01*
G01*
X29400000Y-43825000D01*
G75*
G02*
X29450000Y-43775000I50000J0D01*
G01*
X30350000Y-43775000D01*
G75*
G02*
X30400000Y-43825000I0J-50000D01*
G01*
G37*
G36*
G01*
X24400000Y-43825000D02*
X24400000Y-44725000D01*
G75*
G02*
X24350000Y-44775000I-50000J0D01*
G01*
X23450000Y-44775000D01*
G75*
G02*
X23400000Y-44725000I0J50000D01*
G01*
X23400000Y-43825000D01*
G75*
G02*
X23450000Y-43775000I50000J0D01*
G01*
X24350000Y-43775000D01*
G75*
G02*
X24400000Y-43825000I0J-50000D01*
G01*
G37*
G36*
G01*
X45800000Y-47575000D02*
X45800000Y-48475000D01*
G75*
G02*
X45750000Y-48525000I-50000J0D01*
G01*
X44850000Y-48525000D01*
G75*
G02*
X44800000Y-48475000I0J50000D01*
G01*
X44800000Y-47575000D01*
G75*
G02*
X44850000Y-47525000I50000J0D01*
G01*
X45750000Y-47525000D01*
G75*
G02*
X45800000Y-47575000I0J-50000D01*
G01*
G37*
G36*
G01*
X39800000Y-47575000D02*
X39800000Y-48475000D01*
G75*
G02*
X39750000Y-48525000I-50000J0D01*
G01*
X38850000Y-48525000D01*
G75*
G02*
X38800000Y-48475000I0J50000D01*
G01*
X38800000Y-47575000D01*
G75*
G02*
X38850000Y-47525000I50000J0D01*
G01*
X39750000Y-47525000D01*
G75*
G02*
X39800000Y-47575000I0J-50000D01*
G01*
G37*
G36*
G01*
X45800000Y-43825000D02*
X45800000Y-44725000D01*
G75*
G02*
X45750000Y-44775000I-50000J0D01*
G01*
X44850000Y-44775000D01*
G75*
G02*
X44800000Y-44725000I0J50000D01*
G01*
X44800000Y-43825000D01*
G75*
G02*
X44850000Y-43775000I50000J0D01*
G01*
X45750000Y-43775000D01*
G75*
G02*
X45800000Y-43825000I0J-50000D01*
G01*
G37*
G36*
G01*
X39800000Y-43825000D02*
X39800000Y-44725000D01*
G75*
G02*
X39750000Y-44775000I-50000J0D01*
G01*
X38850000Y-44775000D01*
G75*
G02*
X38800000Y-44725000I0J50000D01*
G01*
X38800000Y-43825000D01*
G75*
G02*
X38850000Y-43775000I50000J0D01*
G01*
X39750000Y-43775000D01*
G75*
G02*
X39800000Y-43825000I0J-50000D01*
G01*
G37*
G36*
G01*
X61200000Y-47575000D02*
X61200000Y-48475000D01*
G75*
G02*
X61150000Y-48525000I-50000J0D01*
G01*
X60250000Y-48525000D01*
G75*
G02*
X60200000Y-48475000I0J50000D01*
G01*
X60200000Y-47575000D01*
G75*
G02*
X60250000Y-47525000I50000J0D01*
G01*
X61150000Y-47525000D01*
G75*
G02*
X61200000Y-47575000I0J-50000D01*
G01*
G37*
G36*
G01*
X55200000Y-47575000D02*
X55200000Y-48475000D01*
G75*
G02*
X55150000Y-48525000I-50000J0D01*
G01*
X54250000Y-48525000D01*
G75*
G02*
X54200000Y-48475000I0J50000D01*
G01*
X54200000Y-47575000D01*
G75*
G02*
X54250000Y-47525000I50000J0D01*
G01*
X55150000Y-47525000D01*
G75*
G02*
X55200000Y-47575000I0J-50000D01*
G01*
G37*
G36*
G01*
X61200000Y-43825000D02*
X61200000Y-44725000D01*
G75*
G02*
X61150000Y-44775000I-50000J0D01*
G01*
X60250000Y-44775000D01*
G75*
G02*
X60200000Y-44725000I0J50000D01*
G01*
X60200000Y-43825000D01*
G75*
G02*
X60250000Y-43775000I50000J0D01*
G01*
X61150000Y-43775000D01*
G75*
G02*
X61200000Y-43825000I0J-50000D01*
G01*
G37*
G36*
G01*
X55200000Y-43825000D02*
X55200000Y-44725000D01*
G75*
G02*
X55150000Y-44775000I-50000J0D01*
G01*
X54250000Y-44775000D01*
G75*
G02*
X54200000Y-44725000I0J50000D01*
G01*
X54200000Y-43825000D01*
G75*
G02*
X54250000Y-43775000I50000J0D01*
G01*
X55150000Y-43775000D01*
G75*
G02*
X55200000Y-43825000I0J-50000D01*
G01*
G37*
G36*
G01*
X74675000Y-47575000D02*
X74675000Y-48475000D01*
G75*
G02*
X74625000Y-48525000I-50000J0D01*
G01*
X73725000Y-48525000D01*
G75*
G02*
X73675000Y-48475000I0J50000D01*
G01*
X73675000Y-47575000D01*
G75*
G02*
X73725000Y-47525000I50000J0D01*
G01*
X74625000Y-47525000D01*
G75*
G02*
X74675000Y-47575000I0J-50000D01*
G01*
G37*
G36*
G01*
X68675000Y-47575000D02*
X68675000Y-48475000D01*
G75*
G02*
X68625000Y-48525000I-50000J0D01*
G01*
X67725000Y-48525000D01*
G75*
G02*
X67675000Y-48475000I0J50000D01*
G01*
X67675000Y-47575000D01*
G75*
G02*
X67725000Y-47525000I50000J0D01*
G01*
X68625000Y-47525000D01*
G75*
G02*
X68675000Y-47575000I0J-50000D01*
G01*
G37*
G36*
G01*
X74675000Y-43825000D02*
X74675000Y-44725000D01*
G75*
G02*
X74625000Y-44775000I-50000J0D01*
G01*
X73725000Y-44775000D01*
G75*
G02*
X73675000Y-44725000I0J50000D01*
G01*
X73675000Y-43825000D01*
G75*
G02*
X73725000Y-43775000I50000J0D01*
G01*
X74625000Y-43775000D01*
G75*
G02*
X74675000Y-43825000I0J-50000D01*
G01*
G37*
G36*
G01*
X68675000Y-43825000D02*
X68675000Y-44725000D01*
G75*
G02*
X68625000Y-44775000I-50000J0D01*
G01*
X67725000Y-44775000D01*
G75*
G02*
X67675000Y-44725000I0J50000D01*
G01*
X67675000Y-43825000D01*
G75*
G02*
X67725000Y-43775000I50000J0D01*
G01*
X68625000Y-43775000D01*
G75*
G02*
X68675000Y-43825000I0J-50000D01*
G01*
G37*
M02*
