G04 #@! TF.GenerationSoftware,KiCad,Pcbnew,(5.1.6)-1*
G04 #@! TF.CreationDate,2020-05-28T20:04:45-07:00*
G04 #@! TF.ProjectId,crokto,63726f6b-746f-42e6-9b69-6361645f7063,rev?*
G04 #@! TF.SameCoordinates,Original*
G04 #@! TF.FileFunction,Legend,Top*
G04 #@! TF.FilePolarity,Positive*
%FSLAX46Y46*%
G04 Gerber Fmt 4.6, Leading zero omitted, Abs format (unit mm)*
G04 Created by KiCad (PCBNEW (5.1.6)-1) date 2020-05-28 20:04:45*
%MOMM*%
%LPD*%
G01*
G04 APERTURE LIST*
%ADD10C,0.120000*%
%ADD11C,0.150000*%
%ADD12C,0.200000*%
G04 APERTURE END LIST*
D10*
X95840000Y-7810000D02*
X95840000Y-5270000D01*
X90760000Y-7810000D02*
X95840000Y-7810000D01*
X90760000Y-5270000D02*
X90760000Y-7810000D01*
X90760000Y-5270000D02*
X95840000Y-5270000D01*
X77300000Y-8850000D02*
X77300000Y-12150000D01*
X77300000Y-12150000D02*
X81300000Y-12150000D01*
X73044778Y-5435876D02*
X72708903Y-5100000D01*
X72708903Y-5100000D02*
X73044778Y-4764124D01*
X79755222Y-4764124D02*
X80091097Y-5100000D01*
X80091097Y-5100000D02*
X79755222Y-5435876D01*
X76735876Y-1744778D02*
X76400000Y-1408903D01*
X76400000Y-1408903D02*
X76064124Y-1744778D01*
X76064124Y-8455222D02*
X76400000Y-8791097D01*
X59602064Y-6910000D02*
X58397936Y-6910000D01*
X59602064Y-5090000D02*
X58397936Y-5090000D01*
X60610000Y-10000000D02*
X60610000Y-8200000D01*
X57390000Y-8200000D02*
X57390000Y-10650000D01*
D11*
X96175595Y-4452380D02*
X96175595Y-3452380D01*
X96508928Y-4166666D01*
X96842261Y-3452380D01*
X96842261Y-4452380D01*
X97508928Y-3452380D02*
X97699404Y-3452380D01*
X97794642Y-3500000D01*
X97889880Y-3595238D01*
X97937500Y-3785714D01*
X97937500Y-4119047D01*
X97889880Y-4309523D01*
X97794642Y-4404761D01*
X97699404Y-4452380D01*
X97508928Y-4452380D01*
X97413690Y-4404761D01*
X97318452Y-4309523D01*
X97270833Y-4119047D01*
X97270833Y-3785714D01*
X97318452Y-3595238D01*
X97413690Y-3500000D01*
X97508928Y-3452380D01*
X98318452Y-4404761D02*
X98461309Y-4452380D01*
X98699404Y-4452380D01*
X98794642Y-4404761D01*
X98842261Y-4357142D01*
X98889880Y-4261904D01*
X98889880Y-4166666D01*
X98842261Y-4071428D01*
X98794642Y-4023809D01*
X98699404Y-3976190D01*
X98508928Y-3928571D01*
X98413690Y-3880952D01*
X98366071Y-3833333D01*
X98318452Y-3738095D01*
X98318452Y-3642857D01*
X98366071Y-3547619D01*
X98413690Y-3500000D01*
X98508928Y-3452380D01*
X98747023Y-3452380D01*
X98889880Y-3500000D01*
X99318452Y-4452380D02*
X99318452Y-3452380D01*
X87900595Y-4404761D02*
X88043452Y-4452380D01*
X88281547Y-4452380D01*
X88376785Y-4404761D01*
X88424404Y-4357142D01*
X88472023Y-4261904D01*
X88472023Y-4166666D01*
X88424404Y-4071428D01*
X88376785Y-4023809D01*
X88281547Y-3976190D01*
X88091071Y-3928571D01*
X87995833Y-3880952D01*
X87948214Y-3833333D01*
X87900595Y-3738095D01*
X87900595Y-3642857D01*
X87948214Y-3547619D01*
X87995833Y-3500000D01*
X88091071Y-3452380D01*
X88329166Y-3452380D01*
X88472023Y-3500000D01*
X89472023Y-4357142D02*
X89424404Y-4404761D01*
X89281547Y-4452380D01*
X89186309Y-4452380D01*
X89043452Y-4404761D01*
X88948214Y-4309523D01*
X88900595Y-4214285D01*
X88852976Y-4023809D01*
X88852976Y-3880952D01*
X88900595Y-3690476D01*
X88948214Y-3595238D01*
X89043452Y-3500000D01*
X89186309Y-3452380D01*
X89281547Y-3452380D01*
X89424404Y-3500000D01*
X89472023Y-3547619D01*
X89900595Y-4452380D02*
X89900595Y-3452380D01*
X90472023Y-4452380D02*
X90043452Y-3880952D01*
X90472023Y-3452380D02*
X89900595Y-4023809D01*
X96651785Y-912380D02*
X96175595Y-912380D01*
X96127976Y-1388571D01*
X96175595Y-1340952D01*
X96270833Y-1293333D01*
X96508928Y-1293333D01*
X96604166Y-1340952D01*
X96651785Y-1388571D01*
X96699404Y-1483809D01*
X96699404Y-1721904D01*
X96651785Y-1817142D01*
X96604166Y-1864761D01*
X96508928Y-1912380D01*
X96270833Y-1912380D01*
X96175595Y-1864761D01*
X96127976Y-1817142D01*
X96985119Y-912380D02*
X97318452Y-1912380D01*
X97651785Y-912380D01*
X87281547Y-1912380D02*
X87281547Y-912380D01*
X87614880Y-1626666D01*
X87948214Y-912380D01*
X87948214Y-1912380D01*
X88424404Y-1912380D02*
X88424404Y-912380D01*
X88852976Y-1864761D02*
X88995833Y-1912380D01*
X89233928Y-1912380D01*
X89329166Y-1864761D01*
X89376785Y-1817142D01*
X89424404Y-1721904D01*
X89424404Y-1626666D01*
X89376785Y-1531428D01*
X89329166Y-1483809D01*
X89233928Y-1436190D01*
X89043452Y-1388571D01*
X88948214Y-1340952D01*
X88900595Y-1293333D01*
X88852976Y-1198095D01*
X88852976Y-1102857D01*
X88900595Y-1007619D01*
X88948214Y-960000D01*
X89043452Y-912380D01*
X89281547Y-912380D01*
X89424404Y-960000D01*
X90043452Y-912380D02*
X90233928Y-912380D01*
X90329166Y-960000D01*
X90424404Y-1055238D01*
X90472023Y-1245714D01*
X90472023Y-1579047D01*
X90424404Y-1769523D01*
X90329166Y-1864761D01*
X90233928Y-1912380D01*
X90043452Y-1912380D01*
X89948214Y-1864761D01*
X89852976Y-1769523D01*
X89805357Y-1579047D01*
X89805357Y-1245714D01*
X89852976Y-1055238D01*
X89948214Y-960000D01*
X90043452Y-912380D01*
D12*
X71780952Y-4552380D02*
X71780952Y-5266666D01*
X71733333Y-5409523D01*
X71638095Y-5504761D01*
X71495238Y-5552380D01*
X71400000Y-5552380D01*
X72733333Y-5552380D02*
X72257142Y-5552380D01*
X72257142Y-4552380D01*
X73638095Y-5457142D02*
X73590476Y-5504761D01*
X73447619Y-5552380D01*
X73352380Y-5552380D01*
X73209523Y-5504761D01*
X73114285Y-5409523D01*
X73066666Y-5314285D01*
X73019047Y-5123809D01*
X73019047Y-4980952D01*
X73066666Y-4790476D01*
X73114285Y-4695238D01*
X73209523Y-4600000D01*
X73352380Y-4552380D01*
X73447619Y-4552380D01*
X73590476Y-4600000D01*
X73638095Y-4647619D01*
X74352380Y-4552380D02*
X74352380Y-5266666D01*
X74304761Y-5409523D01*
X74209523Y-5504761D01*
X74066666Y-5552380D01*
X73971428Y-5552380D01*
X75304761Y-5552380D02*
X74828571Y-5552380D01*
X74828571Y-4552380D01*
X76209523Y-5457142D02*
X76161904Y-5504761D01*
X76019047Y-5552380D01*
X75923809Y-5552380D01*
X75780952Y-5504761D01*
X75685714Y-5409523D01*
X75638095Y-5314285D01*
X75590476Y-5123809D01*
X75590476Y-4980952D01*
X75638095Y-4790476D01*
X75685714Y-4695238D01*
X75780952Y-4600000D01*
X75923809Y-4552380D01*
X76019047Y-4552380D01*
X76161904Y-4600000D01*
X76209523Y-4647619D01*
X76923809Y-4552380D02*
X76923809Y-5266666D01*
X76876190Y-5409523D01*
X76780952Y-5504761D01*
X76638095Y-5552380D01*
X76542857Y-5552380D01*
X77876190Y-5552380D02*
X77400000Y-5552380D01*
X77400000Y-4552380D01*
X78780952Y-5457142D02*
X78733333Y-5504761D01*
X78590476Y-5552380D01*
X78495238Y-5552380D01*
X78352380Y-5504761D01*
X78257142Y-5409523D01*
X78209523Y-5314285D01*
X78161904Y-5123809D01*
X78161904Y-4980952D01*
X78209523Y-4790476D01*
X78257142Y-4695238D01*
X78352380Y-4600000D01*
X78495238Y-4552380D01*
X78590476Y-4552380D01*
X78733333Y-4600000D01*
X78780952Y-4647619D01*
X79495238Y-4552380D02*
X79495238Y-5266666D01*
X79447619Y-5409523D01*
X79352380Y-5504761D01*
X79209523Y-5552380D01*
X79114285Y-5552380D01*
X80447619Y-5552380D02*
X79971428Y-5552380D01*
X79971428Y-4552380D01*
X81352380Y-5457142D02*
X81304761Y-5504761D01*
X81161904Y-5552380D01*
X81066666Y-5552380D01*
X80923809Y-5504761D01*
X80828571Y-5409523D01*
X80780952Y-5314285D01*
X80733333Y-5123809D01*
X80733333Y-4980952D01*
X80780952Y-4790476D01*
X80828571Y-4695238D01*
X80923809Y-4600000D01*
X81066666Y-4552380D01*
X81161904Y-4552380D01*
X81304761Y-4600000D01*
X81352380Y-4647619D01*
D11*
X62689285Y-18310714D02*
X63403571Y-18310714D01*
X62975000Y-17882142D02*
X62689285Y-19167857D01*
X63308333Y-18739285D02*
X62594047Y-18739285D01*
X63022619Y-19167857D02*
X63308333Y-17882142D01*
X63879761Y-18405952D02*
X63784523Y-18358333D01*
X63736904Y-18310714D01*
X63689285Y-18215476D01*
X63689285Y-18167857D01*
X63736904Y-18072619D01*
X63784523Y-18025000D01*
X63879761Y-17977380D01*
X64070238Y-17977380D01*
X64165476Y-18025000D01*
X64213095Y-18072619D01*
X64260714Y-18167857D01*
X64260714Y-18215476D01*
X64213095Y-18310714D01*
X64165476Y-18358333D01*
X64070238Y-18405952D01*
X63879761Y-18405952D01*
X63784523Y-18453571D01*
X63736904Y-18501190D01*
X63689285Y-18596428D01*
X63689285Y-18786904D01*
X63736904Y-18882142D01*
X63784523Y-18929761D01*
X63879761Y-18977380D01*
X64070238Y-18977380D01*
X64165476Y-18929761D01*
X64213095Y-18882142D01*
X64260714Y-18786904D01*
X64260714Y-18596428D01*
X64213095Y-18501190D01*
X64165476Y-18453571D01*
X64070238Y-18405952D01*
X33933333Y-8735714D02*
X34314285Y-8735714D01*
X34076190Y-9402380D02*
X34076190Y-8545238D01*
X34123809Y-8450000D01*
X34219047Y-8402380D01*
X34314285Y-8402380D01*
X35076190Y-8735714D02*
X35076190Y-9402380D01*
X34838095Y-8354761D02*
X34600000Y-9069047D01*
X35219047Y-9069047D01*
X26233333Y-8735714D02*
X26614285Y-8735714D01*
X26376190Y-9402380D02*
X26376190Y-8545238D01*
X26423809Y-8450000D01*
X26519047Y-8402380D01*
X26614285Y-8402380D01*
X26852380Y-8402380D02*
X27471428Y-8402380D01*
X27138095Y-8783333D01*
X27280952Y-8783333D01*
X27376190Y-8830952D01*
X27423809Y-8878571D01*
X27471428Y-8973809D01*
X27471428Y-9211904D01*
X27423809Y-9307142D01*
X27376190Y-9354761D01*
X27280952Y-9402380D01*
X26995238Y-9402380D01*
X26900000Y-9354761D01*
X26852380Y-9307142D01*
X18533333Y-8735714D02*
X18914285Y-8735714D01*
X18676190Y-9402380D02*
X18676190Y-8545238D01*
X18723809Y-8450000D01*
X18819047Y-8402380D01*
X18914285Y-8402380D01*
X19200000Y-8497619D02*
X19247619Y-8450000D01*
X19342857Y-8402380D01*
X19580952Y-8402380D01*
X19676190Y-8450000D01*
X19723809Y-8497619D01*
X19771428Y-8592857D01*
X19771428Y-8688095D01*
X19723809Y-8830952D01*
X19152380Y-9402380D01*
X19771428Y-9402380D01*
X10833333Y-8735714D02*
X11214285Y-8735714D01*
X10976190Y-9402380D02*
X10976190Y-8545238D01*
X11023809Y-8450000D01*
X11119047Y-8402380D01*
X11214285Y-8402380D01*
X12071428Y-9402380D02*
X11500000Y-9402380D01*
X11785714Y-9402380D02*
X11785714Y-8402380D01*
X11690476Y-8545238D01*
X11595238Y-8640476D01*
X11500000Y-8688095D01*
X1232142Y-9354761D02*
X1136904Y-9402380D01*
X946428Y-9402380D01*
X851190Y-9354761D01*
X803571Y-9259523D01*
X803571Y-8878571D01*
X851190Y-8783333D01*
X946428Y-8735714D01*
X1136904Y-8735714D01*
X1232142Y-8783333D01*
X1279761Y-8878571D01*
X1279761Y-8973809D01*
X803571Y-9069047D01*
X1660714Y-9354761D02*
X1755952Y-9402380D01*
X1946428Y-9402380D01*
X2041666Y-9354761D01*
X2089285Y-9259523D01*
X2089285Y-9211904D01*
X2041666Y-9116666D01*
X1946428Y-9069047D01*
X1803571Y-9069047D01*
X1708333Y-9021428D01*
X1660714Y-8926190D01*
X1660714Y-8878571D01*
X1708333Y-8783333D01*
X1803571Y-8735714D01*
X1946428Y-8735714D01*
X2041666Y-8783333D01*
X2946428Y-9354761D02*
X2851190Y-9402380D01*
X2660714Y-9402380D01*
X2565476Y-9354761D01*
X2517857Y-9307142D01*
X2470238Y-9211904D01*
X2470238Y-8926190D01*
X2517857Y-8830952D01*
X2565476Y-8783333D01*
X2660714Y-8735714D01*
X2851190Y-8735714D01*
X2946428Y-8783333D01*
X779761Y-26010714D02*
X1160714Y-26010714D01*
X922619Y-25677380D02*
X922619Y-26534523D01*
X970238Y-26629761D01*
X1065476Y-26677380D01*
X1160714Y-26677380D01*
X1922619Y-26677380D02*
X1922619Y-26153571D01*
X1875000Y-26058333D01*
X1779761Y-26010714D01*
X1589285Y-26010714D01*
X1494047Y-26058333D01*
X1922619Y-26629761D02*
X1827380Y-26677380D01*
X1589285Y-26677380D01*
X1494047Y-26629761D01*
X1446428Y-26534523D01*
X1446428Y-26439285D01*
X1494047Y-26344047D01*
X1589285Y-26296428D01*
X1827380Y-26296428D01*
X1922619Y-26248809D01*
X2398809Y-26677380D02*
X2398809Y-25677380D01*
X2398809Y-26058333D02*
X2494047Y-26010714D01*
X2684523Y-26010714D01*
X2779761Y-26058333D01*
X2827380Y-26105952D01*
X2875000Y-26201190D01*
X2875000Y-26486904D01*
X2827380Y-26582142D01*
X2779761Y-26629761D01*
X2684523Y-26677380D01*
X2494047Y-26677380D01*
X2398809Y-26629761D01*
X970238Y-18310714D02*
X1351190Y-18310714D01*
X1113095Y-17977380D02*
X1113095Y-18834523D01*
X1160714Y-18929761D01*
X1255952Y-18977380D01*
X1351190Y-18977380D01*
X1827380Y-18977380D02*
X1732142Y-18929761D01*
X1684523Y-18834523D01*
X1684523Y-17977380D01*
X2636904Y-18977380D02*
X2636904Y-17977380D01*
X2636904Y-18929761D02*
X2541666Y-18977380D01*
X2351190Y-18977380D01*
X2255952Y-18929761D01*
X2208333Y-18882142D01*
X2160714Y-18786904D01*
X2160714Y-18501190D01*
X2208333Y-18405952D01*
X2255952Y-18358333D01*
X2351190Y-18310714D01*
X2541666Y-18310714D01*
X2636904Y-18358333D01*
X8789285Y-18310714D02*
X9503571Y-18310714D01*
X9075000Y-17882142D02*
X8789285Y-19167857D01*
X9408333Y-18739285D02*
X8694047Y-18739285D01*
X9122619Y-19167857D02*
X9408333Y-17882142D01*
X10360714Y-18977380D02*
X9789285Y-18977380D01*
X10075000Y-18977380D02*
X10075000Y-17977380D01*
X9979761Y-18120238D01*
X9884523Y-18215476D01*
X9789285Y-18263095D01*
X16489285Y-18310714D02*
X17203571Y-18310714D01*
X16775000Y-17882142D02*
X16489285Y-19167857D01*
X17108333Y-18739285D02*
X16394047Y-18739285D01*
X16822619Y-19167857D02*
X17108333Y-17882142D01*
X17489285Y-18072619D02*
X17536904Y-18025000D01*
X17632142Y-17977380D01*
X17870238Y-17977380D01*
X17965476Y-18025000D01*
X18013095Y-18072619D01*
X18060714Y-18167857D01*
X18060714Y-18263095D01*
X18013095Y-18405952D01*
X17441666Y-18977380D01*
X18060714Y-18977380D01*
X24189285Y-18310714D02*
X24903571Y-18310714D01*
X24475000Y-17882142D02*
X24189285Y-19167857D01*
X24808333Y-18739285D02*
X24094047Y-18739285D01*
X24522619Y-19167857D02*
X24808333Y-17882142D01*
X25141666Y-17977380D02*
X25760714Y-17977380D01*
X25427380Y-18358333D01*
X25570238Y-18358333D01*
X25665476Y-18405952D01*
X25713095Y-18453571D01*
X25760714Y-18548809D01*
X25760714Y-18786904D01*
X25713095Y-18882142D01*
X25665476Y-18929761D01*
X25570238Y-18977380D01*
X25284523Y-18977380D01*
X25189285Y-18929761D01*
X25141666Y-18882142D01*
X31889285Y-18310714D02*
X32603571Y-18310714D01*
X32175000Y-17882142D02*
X31889285Y-19167857D01*
X32508333Y-18739285D02*
X31794047Y-18739285D01*
X32222619Y-19167857D02*
X32508333Y-17882142D01*
X33365476Y-18310714D02*
X33365476Y-18977380D01*
X33127380Y-17929761D02*
X32889285Y-18644047D01*
X33508333Y-18644047D01*
X39589285Y-18310714D02*
X40303571Y-18310714D01*
X39875000Y-17882142D02*
X39589285Y-19167857D01*
X40208333Y-18739285D02*
X39494047Y-18739285D01*
X39922619Y-19167857D02*
X40208333Y-17882142D01*
X41113095Y-17977380D02*
X40636904Y-17977380D01*
X40589285Y-18453571D01*
X40636904Y-18405952D01*
X40732142Y-18358333D01*
X40970238Y-18358333D01*
X41065476Y-18405952D01*
X41113095Y-18453571D01*
X41160714Y-18548809D01*
X41160714Y-18786904D01*
X41113095Y-18882142D01*
X41065476Y-18929761D01*
X40970238Y-18977380D01*
X40732142Y-18977380D01*
X40636904Y-18929761D01*
X40589285Y-18882142D01*
X47289285Y-18310714D02*
X48003571Y-18310714D01*
X47575000Y-17882142D02*
X47289285Y-19167857D01*
X47908333Y-18739285D02*
X47194047Y-18739285D01*
X47622619Y-19167857D02*
X47908333Y-17882142D01*
X48765476Y-17977380D02*
X48575000Y-17977380D01*
X48479761Y-18025000D01*
X48432142Y-18072619D01*
X48336904Y-18215476D01*
X48289285Y-18405952D01*
X48289285Y-18786904D01*
X48336904Y-18882142D01*
X48384523Y-18929761D01*
X48479761Y-18977380D01*
X48670238Y-18977380D01*
X48765476Y-18929761D01*
X48813095Y-18882142D01*
X48860714Y-18786904D01*
X48860714Y-18548809D01*
X48813095Y-18453571D01*
X48765476Y-18405952D01*
X48670238Y-18358333D01*
X48479761Y-18358333D01*
X48384523Y-18405952D01*
X48336904Y-18453571D01*
X48289285Y-18548809D01*
X54989285Y-18310714D02*
X55703571Y-18310714D01*
X55275000Y-17882142D02*
X54989285Y-19167857D01*
X55608333Y-18739285D02*
X54894047Y-18739285D01*
X55322619Y-19167857D02*
X55608333Y-17882142D01*
X55941666Y-17977380D02*
X56608333Y-17977380D01*
X56179761Y-18977380D01*
X70389285Y-18310714D02*
X71103571Y-18310714D01*
X70675000Y-17882142D02*
X70389285Y-19167857D01*
X71008333Y-18739285D02*
X70294047Y-18739285D01*
X70722619Y-19167857D02*
X71008333Y-17882142D01*
X71484523Y-18977380D02*
X71675000Y-18977380D01*
X71770238Y-18929761D01*
X71817857Y-18882142D01*
X71913095Y-18739285D01*
X71960714Y-18548809D01*
X71960714Y-18167857D01*
X71913095Y-18072619D01*
X71865476Y-18025000D01*
X71770238Y-17977380D01*
X71579761Y-17977380D01*
X71484523Y-18025000D01*
X71436904Y-18072619D01*
X71389285Y-18167857D01*
X71389285Y-18405952D01*
X71436904Y-18501190D01*
X71484523Y-18548809D01*
X71579761Y-18596428D01*
X71770238Y-18596428D01*
X71865476Y-18548809D01*
X71913095Y-18501190D01*
X71960714Y-18405952D01*
X78089285Y-18310714D02*
X78803571Y-18310714D01*
X78375000Y-17882142D02*
X78089285Y-19167857D01*
X78708333Y-18739285D02*
X77994047Y-18739285D01*
X78422619Y-19167857D02*
X78708333Y-17882142D01*
X79327380Y-17977380D02*
X79422619Y-17977380D01*
X79517857Y-18025000D01*
X79565476Y-18072619D01*
X79613095Y-18167857D01*
X79660714Y-18358333D01*
X79660714Y-18596428D01*
X79613095Y-18786904D01*
X79565476Y-18882142D01*
X79517857Y-18929761D01*
X79422619Y-18977380D01*
X79327380Y-18977380D01*
X79232142Y-18929761D01*
X79184523Y-18882142D01*
X79136904Y-18786904D01*
X79089285Y-18596428D01*
X79089285Y-18358333D01*
X79136904Y-18167857D01*
X79184523Y-18072619D01*
X79232142Y-18025000D01*
X79327380Y-17977380D01*
X85289285Y-18977380D02*
X85289285Y-17977380D01*
X85289285Y-18358333D02*
X85384523Y-18310714D01*
X85575000Y-18310714D01*
X85670238Y-18358333D01*
X85717857Y-18405952D01*
X85765476Y-18501190D01*
X85765476Y-18786904D01*
X85717857Y-18882142D01*
X85670238Y-18929761D01*
X85575000Y-18977380D01*
X85384523Y-18977380D01*
X85289285Y-18929761D01*
X86146428Y-18929761D02*
X86241666Y-18977380D01*
X86432142Y-18977380D01*
X86527380Y-18929761D01*
X86575000Y-18834523D01*
X86575000Y-18786904D01*
X86527380Y-18691666D01*
X86432142Y-18644047D01*
X86289285Y-18644047D01*
X86194047Y-18596428D01*
X86146428Y-18501190D01*
X86146428Y-18453571D01*
X86194047Y-18358333D01*
X86289285Y-18310714D01*
X86432142Y-18310714D01*
X86527380Y-18358333D01*
X87146428Y-18977380D02*
X87051190Y-18929761D01*
X87003571Y-18834523D01*
X87003571Y-17977380D01*
X87479761Y-18929761D02*
X87575000Y-18977380D01*
X87765476Y-18977380D01*
X87860714Y-18929761D01*
X87908333Y-18834523D01*
X87908333Y-18786904D01*
X87860714Y-18691666D01*
X87765476Y-18644047D01*
X87622619Y-18644047D01*
X87527380Y-18596428D01*
X87479761Y-18501190D01*
X87479761Y-18453571D01*
X87527380Y-18358333D01*
X87622619Y-18310714D01*
X87765476Y-18310714D01*
X87860714Y-18358333D01*
X93655952Y-18977380D02*
X93655952Y-17977380D01*
X93655952Y-18358333D02*
X93751190Y-18310714D01*
X93941666Y-18310714D01*
X94036904Y-18358333D01*
X94084523Y-18405952D01*
X94132142Y-18501190D01*
X94132142Y-18786904D01*
X94084523Y-18882142D01*
X94036904Y-18929761D01*
X93941666Y-18977380D01*
X93751190Y-18977380D01*
X93655952Y-18929761D01*
X94513095Y-18929761D02*
X94608333Y-18977380D01*
X94798809Y-18977380D01*
X94894047Y-18929761D01*
X94941666Y-18834523D01*
X94941666Y-18786904D01*
X94894047Y-18691666D01*
X94798809Y-18644047D01*
X94655952Y-18644047D01*
X94560714Y-18596428D01*
X94513095Y-18501190D01*
X94513095Y-18453571D01*
X94560714Y-18358333D01*
X94655952Y-18310714D01*
X94798809Y-18310714D01*
X94894047Y-18358333D01*
X9789285Y-26010714D02*
X9789285Y-27010714D01*
X9789285Y-26629761D02*
X9694047Y-26677380D01*
X9503571Y-26677380D01*
X9408333Y-26629761D01*
X9360714Y-26582142D01*
X9313095Y-26486904D01*
X9313095Y-26201190D01*
X9360714Y-26105952D01*
X9408333Y-26058333D01*
X9503571Y-26010714D01*
X9694047Y-26010714D01*
X9789285Y-26058333D01*
X16894047Y-26010714D02*
X17084523Y-26677380D01*
X17275000Y-26201190D01*
X17465476Y-26677380D01*
X17655952Y-26010714D01*
X25165476Y-26629761D02*
X25070238Y-26677380D01*
X24879761Y-26677380D01*
X24784523Y-26629761D01*
X24736904Y-26534523D01*
X24736904Y-26153571D01*
X24784523Y-26058333D01*
X24879761Y-26010714D01*
X25070238Y-26010714D01*
X25165476Y-26058333D01*
X25213095Y-26153571D01*
X25213095Y-26248809D01*
X24736904Y-26344047D01*
X32603571Y-26677380D02*
X32603571Y-26010714D01*
X32603571Y-26201190D02*
X32651190Y-26105952D01*
X32698809Y-26058333D01*
X32794047Y-26010714D01*
X32889285Y-26010714D01*
X40184523Y-26010714D02*
X40565476Y-26010714D01*
X40327380Y-25677380D02*
X40327380Y-26534523D01*
X40375000Y-26629761D01*
X40470238Y-26677380D01*
X40565476Y-26677380D01*
X47836904Y-26010714D02*
X48075000Y-26677380D01*
X48313095Y-26010714D02*
X48075000Y-26677380D01*
X47979761Y-26915476D01*
X47932142Y-26963095D01*
X47836904Y-27010714D01*
X55989285Y-26010714D02*
X55989285Y-26677380D01*
X55560714Y-26010714D02*
X55560714Y-26534523D01*
X55608333Y-26629761D01*
X55703571Y-26677380D01*
X55846428Y-26677380D01*
X55941666Y-26629761D01*
X55989285Y-26582142D01*
X63475000Y-26677380D02*
X63475000Y-26010714D01*
X63475000Y-25677380D02*
X63427380Y-25725000D01*
X63475000Y-25772619D01*
X63522619Y-25725000D01*
X63475000Y-25677380D01*
X63475000Y-25772619D01*
X71103571Y-26677380D02*
X71008333Y-26629761D01*
X70960714Y-26582142D01*
X70913095Y-26486904D01*
X70913095Y-26201190D01*
X70960714Y-26105952D01*
X71008333Y-26058333D01*
X71103571Y-26010714D01*
X71246428Y-26010714D01*
X71341666Y-26058333D01*
X71389285Y-26105952D01*
X71436904Y-26201190D01*
X71436904Y-26486904D01*
X71389285Y-26582142D01*
X71341666Y-26629761D01*
X71246428Y-26677380D01*
X71103571Y-26677380D01*
X78660714Y-26010714D02*
X78660714Y-27010714D01*
X78660714Y-26058333D02*
X78755952Y-26010714D01*
X78946428Y-26010714D01*
X79041666Y-26058333D01*
X79089285Y-26105952D01*
X79136904Y-26201190D01*
X79136904Y-26486904D01*
X79089285Y-26582142D01*
X79041666Y-26629761D01*
X78946428Y-26677380D01*
X78755952Y-26677380D01*
X78660714Y-26629761D01*
X85051190Y-26677380D02*
X85051190Y-26010714D01*
X85051190Y-26105952D02*
X85098809Y-26058333D01*
X85194047Y-26010714D01*
X85336904Y-26010714D01*
X85432142Y-26058333D01*
X85479761Y-26153571D01*
X85479761Y-26677380D01*
X85479761Y-26153571D02*
X85527380Y-26058333D01*
X85622619Y-26010714D01*
X85765476Y-26010714D01*
X85860714Y-26058333D01*
X85908333Y-26153571D01*
X85908333Y-26677380D01*
X86384523Y-26677380D02*
X86384523Y-26010714D01*
X86384523Y-25677380D02*
X86336904Y-25725000D01*
X86384523Y-25772619D01*
X86432142Y-25725000D01*
X86384523Y-25677380D01*
X86384523Y-25772619D01*
X86860714Y-26010714D02*
X86860714Y-26677380D01*
X86860714Y-26105952D02*
X86908333Y-26058333D01*
X87003571Y-26010714D01*
X87146428Y-26010714D01*
X87241666Y-26058333D01*
X87289285Y-26153571D01*
X87289285Y-26677380D01*
X87717857Y-26629761D02*
X87813095Y-26677380D01*
X88003571Y-26677380D01*
X88098809Y-26629761D01*
X88146428Y-26534523D01*
X88146428Y-26486904D01*
X88098809Y-26391666D01*
X88003571Y-26344047D01*
X87860714Y-26344047D01*
X87765476Y-26296428D01*
X87717857Y-26201190D01*
X87717857Y-26153571D01*
X87765476Y-26058333D01*
X87860714Y-26010714D01*
X88003571Y-26010714D01*
X88098809Y-26058333D01*
X93751190Y-26629761D02*
X93655952Y-26677380D01*
X93465476Y-26677380D01*
X93370238Y-26629761D01*
X93322619Y-26534523D01*
X93322619Y-26153571D01*
X93370238Y-26058333D01*
X93465476Y-26010714D01*
X93655952Y-26010714D01*
X93751190Y-26058333D01*
X93798809Y-26153571D01*
X93798809Y-26248809D01*
X93322619Y-26344047D01*
X94655952Y-26010714D02*
X94655952Y-27010714D01*
X94655952Y-26629761D02*
X94560714Y-26677380D01*
X94370238Y-26677380D01*
X94275000Y-26629761D01*
X94227380Y-26582142D01*
X94179761Y-26486904D01*
X94179761Y-26201190D01*
X94227380Y-26105952D01*
X94275000Y-26058333D01*
X94370238Y-26010714D01*
X94560714Y-26010714D01*
X94655952Y-26058333D01*
X95275000Y-26677380D02*
X95179761Y-26629761D01*
X95132142Y-26534523D01*
X95132142Y-25677380D01*
X803571Y-34329761D02*
X708333Y-34377380D01*
X517857Y-34377380D01*
X422619Y-34329761D01*
X375000Y-34282142D01*
X327380Y-34186904D01*
X327380Y-33901190D01*
X375000Y-33805952D01*
X422619Y-33758333D01*
X517857Y-33710714D01*
X708333Y-33710714D01*
X803571Y-33758333D01*
X1660714Y-34377380D02*
X1660714Y-33853571D01*
X1613095Y-33758333D01*
X1517857Y-33710714D01*
X1327380Y-33710714D01*
X1232142Y-33758333D01*
X1660714Y-34329761D02*
X1565476Y-34377380D01*
X1327380Y-34377380D01*
X1232142Y-34329761D01*
X1184523Y-34234523D01*
X1184523Y-34139285D01*
X1232142Y-34044047D01*
X1327380Y-33996428D01*
X1565476Y-33996428D01*
X1660714Y-33948809D01*
X2136904Y-33710714D02*
X2136904Y-34710714D01*
X2136904Y-33758333D02*
X2232142Y-33710714D01*
X2422619Y-33710714D01*
X2517857Y-33758333D01*
X2565476Y-33805952D01*
X2613095Y-33901190D01*
X2613095Y-34186904D01*
X2565476Y-34282142D01*
X2517857Y-34329761D01*
X2422619Y-34377380D01*
X2232142Y-34377380D01*
X2136904Y-34329761D01*
X2994047Y-34329761D02*
X3089285Y-34377380D01*
X3279761Y-34377380D01*
X3374999Y-34329761D01*
X3422619Y-34234523D01*
X3422619Y-34186904D01*
X3374999Y-34091666D01*
X3279761Y-34044047D01*
X3136904Y-34044047D01*
X3041666Y-33996428D01*
X2994047Y-33901190D01*
X2994047Y-33853571D01*
X3041666Y-33758333D01*
X3136904Y-33710714D01*
X3279761Y-33710714D01*
X3374999Y-33758333D01*
X9789285Y-34377380D02*
X9789285Y-33853571D01*
X9741666Y-33758333D01*
X9646428Y-33710714D01*
X9455952Y-33710714D01*
X9360714Y-33758333D01*
X9789285Y-34329761D02*
X9694047Y-34377380D01*
X9455952Y-34377380D01*
X9360714Y-34329761D01*
X9313095Y-34234523D01*
X9313095Y-34139285D01*
X9360714Y-34044047D01*
X9455952Y-33996428D01*
X9694047Y-33996428D01*
X9789285Y-33948809D01*
X17060714Y-34329761D02*
X17155952Y-34377380D01*
X17346428Y-34377380D01*
X17441666Y-34329761D01*
X17489285Y-34234523D01*
X17489285Y-34186904D01*
X17441666Y-34091666D01*
X17346428Y-34044047D01*
X17203571Y-34044047D01*
X17108333Y-33996428D01*
X17060714Y-33901190D01*
X17060714Y-33853571D01*
X17108333Y-33758333D01*
X17203571Y-33710714D01*
X17346428Y-33710714D01*
X17441666Y-33758333D01*
X25189285Y-34377380D02*
X25189285Y-33377380D01*
X25189285Y-34329761D02*
X25094047Y-34377380D01*
X24903571Y-34377380D01*
X24808333Y-34329761D01*
X24760714Y-34282142D01*
X24713095Y-34186904D01*
X24713095Y-33901190D01*
X24760714Y-33805952D01*
X24808333Y-33758333D01*
X24903571Y-33710714D01*
X25094047Y-33710714D01*
X25189285Y-33758333D01*
X32484523Y-33710714D02*
X32865476Y-33710714D01*
X32627380Y-34377380D02*
X32627380Y-33520238D01*
X32675000Y-33425000D01*
X32770238Y-33377380D01*
X32865476Y-33377380D01*
X40589285Y-33710714D02*
X40589285Y-34520238D01*
X40541666Y-34615476D01*
X40494047Y-34663095D01*
X40398809Y-34710714D01*
X40255952Y-34710714D01*
X40160714Y-34663095D01*
X40589285Y-34329761D02*
X40494047Y-34377380D01*
X40303571Y-34377380D01*
X40208333Y-34329761D01*
X40160714Y-34282142D01*
X40113095Y-34186904D01*
X40113095Y-33901190D01*
X40160714Y-33805952D01*
X40208333Y-33758333D01*
X40303571Y-33710714D01*
X40494047Y-33710714D01*
X40589285Y-33758333D01*
X47860714Y-34377380D02*
X47860714Y-33377380D01*
X48289285Y-34377380D02*
X48289285Y-33853571D01*
X48241666Y-33758333D01*
X48146428Y-33710714D01*
X48003571Y-33710714D01*
X47908333Y-33758333D01*
X47860714Y-33805952D01*
X55775000Y-33710714D02*
X55775000Y-34567857D01*
X55727380Y-34663095D01*
X55632142Y-34710714D01*
X55584523Y-34710714D01*
X55775000Y-33377380D02*
X55727380Y-33425000D01*
X55775000Y-33472619D01*
X55822619Y-33425000D01*
X55775000Y-33377380D01*
X55775000Y-33472619D01*
X63308333Y-34377380D02*
X63308333Y-33377380D01*
X63403571Y-33996428D02*
X63689285Y-34377380D01*
X63689285Y-33710714D02*
X63308333Y-34091666D01*
X71294047Y-34377380D02*
X71198809Y-34329761D01*
X71151190Y-34234523D01*
X71151190Y-33377380D01*
X77994047Y-34329761D02*
X77898809Y-34377380D01*
X77708333Y-34377380D01*
X77613095Y-34329761D01*
X77565476Y-34282142D01*
X77517857Y-34186904D01*
X77517857Y-33901190D01*
X77565476Y-33805952D01*
X77613095Y-33758333D01*
X77708333Y-33710714D01*
X77898809Y-33710714D01*
X77994047Y-33758333D01*
X78565476Y-34377380D02*
X78470238Y-34329761D01*
X78422619Y-34234523D01*
X78422619Y-33377380D01*
X78946428Y-33710714D02*
X78946428Y-34377380D01*
X78946428Y-33805952D02*
X78994047Y-33758333D01*
X79089285Y-33710714D01*
X79232142Y-33710714D01*
X79327380Y-33758333D01*
X79375000Y-33853571D01*
X79375000Y-34377380D01*
X79803571Y-34329761D02*
X79898809Y-34377380D01*
X80089285Y-34377380D01*
X80184523Y-34329761D01*
X80232142Y-34234523D01*
X80232142Y-34186904D01*
X80184523Y-34091666D01*
X80089285Y-34044047D01*
X79946428Y-34044047D01*
X79851190Y-33996428D01*
X79803571Y-33901190D01*
X79803571Y-33853571D01*
X79851190Y-33758333D01*
X79946428Y-33710714D01*
X80089285Y-33710714D01*
X80184523Y-33758333D01*
X85598809Y-33710714D02*
X85598809Y-34710714D01*
X85598809Y-34329761D02*
X85503571Y-34377380D01*
X85313095Y-34377380D01*
X85217857Y-34329761D01*
X85170238Y-34282142D01*
X85122619Y-34186904D01*
X85122619Y-33901190D01*
X85170238Y-33805952D01*
X85217857Y-33758333D01*
X85313095Y-33710714D01*
X85503571Y-33710714D01*
X85598809Y-33758333D01*
X86503571Y-33710714D02*
X86503571Y-34377380D01*
X86075000Y-33710714D02*
X86075000Y-34234523D01*
X86122619Y-34329761D01*
X86217857Y-34377380D01*
X86360714Y-34377380D01*
X86455952Y-34329761D01*
X86503571Y-34282142D01*
X87122619Y-34377380D02*
X87027380Y-34329761D01*
X86979761Y-34282142D01*
X86932142Y-34186904D01*
X86932142Y-33901190D01*
X86979761Y-33805952D01*
X87027380Y-33758333D01*
X87122619Y-33710714D01*
X87265476Y-33710714D01*
X87360714Y-33758333D01*
X87408333Y-33805952D01*
X87455952Y-33901190D01*
X87455952Y-34186904D01*
X87408333Y-34282142D01*
X87360714Y-34329761D01*
X87265476Y-34377380D01*
X87122619Y-34377380D01*
X87741666Y-33710714D02*
X88122619Y-33710714D01*
X87884523Y-33377380D02*
X87884523Y-34234523D01*
X87932142Y-34329761D01*
X88027380Y-34377380D01*
X88122619Y-34377380D01*
X93727380Y-34329761D02*
X93632142Y-34377380D01*
X93441666Y-34377380D01*
X93346428Y-34329761D01*
X93298809Y-34234523D01*
X93298809Y-33853571D01*
X93346428Y-33758333D01*
X93441666Y-33710714D01*
X93632142Y-33710714D01*
X93727380Y-33758333D01*
X93775000Y-33853571D01*
X93775000Y-33948809D01*
X93298809Y-34044047D01*
X94203571Y-33710714D02*
X94203571Y-34377380D01*
X94203571Y-33805952D02*
X94251190Y-33758333D01*
X94346428Y-33710714D01*
X94489285Y-33710714D01*
X94584523Y-33758333D01*
X94632142Y-33853571D01*
X94632142Y-34377380D01*
X94965476Y-33710714D02*
X95346428Y-33710714D01*
X95108333Y-33377380D02*
X95108333Y-34234523D01*
X95155952Y-34329761D01*
X95251190Y-34377380D01*
X95346428Y-34377380D01*
X636904Y-42029761D02*
X732142Y-42077380D01*
X922619Y-42077380D01*
X1017857Y-42029761D01*
X1065476Y-41934523D01*
X1065476Y-41886904D01*
X1017857Y-41791666D01*
X922619Y-41744047D01*
X779761Y-41744047D01*
X684523Y-41696428D01*
X636904Y-41601190D01*
X636904Y-41553571D01*
X684523Y-41458333D01*
X779761Y-41410714D01*
X922619Y-41410714D01*
X1017857Y-41458333D01*
X1494047Y-42077380D02*
X1494047Y-41077380D01*
X1922619Y-42077380D02*
X1922619Y-41553571D01*
X1875000Y-41458333D01*
X1779761Y-41410714D01*
X1636904Y-41410714D01*
X1541666Y-41458333D01*
X1494047Y-41505952D01*
X2255952Y-41410714D02*
X2636904Y-41410714D01*
X2398809Y-42077380D02*
X2398809Y-41220238D01*
X2446428Y-41125000D01*
X2541666Y-41077380D01*
X2636904Y-41077380D01*
X2827380Y-41410714D02*
X3208333Y-41410714D01*
X2970238Y-41077380D02*
X2970238Y-41934523D01*
X3017857Y-42029761D01*
X3113095Y-42077380D01*
X3208333Y-42077380D01*
X9313095Y-41410714D02*
X9836904Y-41410714D01*
X9313095Y-42077380D01*
X9836904Y-42077380D01*
X17013095Y-42077380D02*
X17536904Y-41410714D01*
X17013095Y-41410714D02*
X17536904Y-42077380D01*
X25213095Y-42029761D02*
X25117857Y-42077380D01*
X24927380Y-42077380D01*
X24832142Y-42029761D01*
X24784523Y-41982142D01*
X24736904Y-41886904D01*
X24736904Y-41601190D01*
X24784523Y-41505952D01*
X24832142Y-41458333D01*
X24927380Y-41410714D01*
X25117857Y-41410714D01*
X25213095Y-41458333D01*
X32436904Y-41410714D02*
X32675000Y-42077380D01*
X32913095Y-41410714D01*
X40160714Y-42077380D02*
X40160714Y-41077380D01*
X40160714Y-41458333D02*
X40255952Y-41410714D01*
X40446428Y-41410714D01*
X40541666Y-41458333D01*
X40589285Y-41505952D01*
X40636904Y-41601190D01*
X40636904Y-41886904D01*
X40589285Y-41982142D01*
X40541666Y-42029761D01*
X40446428Y-42077380D01*
X40255952Y-42077380D01*
X40160714Y-42029761D01*
X47860714Y-41410714D02*
X47860714Y-42077380D01*
X47860714Y-41505952D02*
X47908333Y-41458333D01*
X48003571Y-41410714D01*
X48146428Y-41410714D01*
X48241666Y-41458333D01*
X48289285Y-41553571D01*
X48289285Y-42077380D01*
X55346428Y-42077380D02*
X55346428Y-41410714D01*
X55346428Y-41505952D02*
X55394047Y-41458333D01*
X55489285Y-41410714D01*
X55632142Y-41410714D01*
X55727380Y-41458333D01*
X55775000Y-41553571D01*
X55775000Y-42077380D01*
X55775000Y-41553571D02*
X55822619Y-41458333D01*
X55917857Y-41410714D01*
X56060714Y-41410714D01*
X56155952Y-41458333D01*
X56203571Y-41553571D01*
X56203571Y-42077380D01*
X62594047Y-42029761D02*
X62498809Y-42077380D01*
X62308333Y-42077380D01*
X62213095Y-42029761D01*
X62165476Y-41982142D01*
X62117857Y-41886904D01*
X62117857Y-41601190D01*
X62165476Y-41505952D01*
X62213095Y-41458333D01*
X62308333Y-41410714D01*
X62498809Y-41410714D01*
X62594047Y-41458333D01*
X63022619Y-42077380D02*
X63022619Y-41410714D01*
X63022619Y-41505952D02*
X63070238Y-41458333D01*
X63165476Y-41410714D01*
X63308333Y-41410714D01*
X63403571Y-41458333D01*
X63451190Y-41553571D01*
X63451190Y-42077380D01*
X63451190Y-41553571D02*
X63498809Y-41458333D01*
X63594047Y-41410714D01*
X63736904Y-41410714D01*
X63832142Y-41458333D01*
X63879761Y-41553571D01*
X63879761Y-42077380D01*
X64784523Y-42077380D02*
X64784523Y-41553571D01*
X64736904Y-41458333D01*
X64641666Y-41410714D01*
X64451190Y-41410714D01*
X64355952Y-41458333D01*
X64784523Y-42029761D02*
X64689285Y-42077380D01*
X64451190Y-42077380D01*
X64355952Y-42029761D01*
X64308333Y-41934523D01*
X64308333Y-41839285D01*
X64355952Y-41744047D01*
X64451190Y-41696428D01*
X64689285Y-41696428D01*
X64784523Y-41648809D01*
X70651190Y-42077380D02*
X70651190Y-41077380D01*
X70651190Y-42029761D02*
X70555952Y-42077380D01*
X70365476Y-42077380D01*
X70270238Y-42029761D01*
X70222619Y-41982142D01*
X70175000Y-41886904D01*
X70175000Y-41601190D01*
X70222619Y-41505952D01*
X70270238Y-41458333D01*
X70365476Y-41410714D01*
X70555952Y-41410714D01*
X70651190Y-41458333D01*
X71270238Y-42077380D02*
X71175000Y-42029761D01*
X71127380Y-41982142D01*
X71079761Y-41886904D01*
X71079761Y-41601190D01*
X71127380Y-41505952D01*
X71175000Y-41458333D01*
X71270238Y-41410714D01*
X71413095Y-41410714D01*
X71508333Y-41458333D01*
X71555952Y-41505952D01*
X71603571Y-41601190D01*
X71603571Y-41886904D01*
X71555952Y-41982142D01*
X71508333Y-42029761D01*
X71413095Y-42077380D01*
X71270238Y-42077380D01*
X71889285Y-41410714D02*
X72270238Y-41410714D01*
X72032142Y-41077380D02*
X72032142Y-41934523D01*
X72079761Y-42029761D01*
X72175000Y-42077380D01*
X72270238Y-42077380D01*
X77541666Y-42029761D02*
X77636904Y-42077380D01*
X77827380Y-42077380D01*
X77922619Y-42029761D01*
X77970238Y-41934523D01*
X77970238Y-41886904D01*
X77922619Y-41791666D01*
X77827380Y-41744047D01*
X77684523Y-41744047D01*
X77589285Y-41696428D01*
X77541666Y-41601190D01*
X77541666Y-41553571D01*
X77589285Y-41458333D01*
X77684523Y-41410714D01*
X77827380Y-41410714D01*
X77922619Y-41458333D01*
X78541666Y-42077380D02*
X78446428Y-42029761D01*
X78398809Y-41934523D01*
X78398809Y-41077380D01*
X78875000Y-42029761D02*
X78970238Y-42077380D01*
X79160714Y-42077380D01*
X79255952Y-42029761D01*
X79303571Y-41934523D01*
X79303571Y-41886904D01*
X79255952Y-41791666D01*
X79160714Y-41744047D01*
X79017857Y-41744047D01*
X78922619Y-41696428D01*
X78875000Y-41601190D01*
X78875000Y-41553571D01*
X78922619Y-41458333D01*
X79017857Y-41410714D01*
X79160714Y-41410714D01*
X79255952Y-41458333D01*
X79732142Y-42077380D02*
X79732142Y-41077380D01*
X80160714Y-42077380D02*
X80160714Y-41553571D01*
X80113095Y-41458333D01*
X80017857Y-41410714D01*
X79875000Y-41410714D01*
X79779761Y-41458333D01*
X79732142Y-41505952D01*
X86336904Y-41410714D02*
X86336904Y-42077380D01*
X85908333Y-41410714D02*
X85908333Y-41934523D01*
X85955952Y-42029761D01*
X86051190Y-42077380D01*
X86194047Y-42077380D01*
X86289285Y-42029761D01*
X86336904Y-41982142D01*
X86813095Y-41410714D02*
X86813095Y-42410714D01*
X86813095Y-41458333D02*
X86908333Y-41410714D01*
X87098809Y-41410714D01*
X87194047Y-41458333D01*
X87241666Y-41505952D01*
X87289285Y-41601190D01*
X87289285Y-41886904D01*
X87241666Y-41982142D01*
X87194047Y-42029761D01*
X87098809Y-42077380D01*
X86908333Y-42077380D01*
X86813095Y-42029761D01*
X93036904Y-42029761D02*
X93132142Y-42077380D01*
X93322619Y-42077380D01*
X93417857Y-42029761D01*
X93465476Y-41934523D01*
X93465476Y-41886904D01*
X93417857Y-41791666D01*
X93322619Y-41744047D01*
X93179761Y-41744047D01*
X93084523Y-41696428D01*
X93036904Y-41601190D01*
X93036904Y-41553571D01*
X93084523Y-41458333D01*
X93179761Y-41410714D01*
X93322619Y-41410714D01*
X93417857Y-41458333D01*
X93894047Y-42077380D02*
X93894047Y-41077380D01*
X94322619Y-42077380D02*
X94322619Y-41553571D01*
X94275000Y-41458333D01*
X94179761Y-41410714D01*
X94036904Y-41410714D01*
X93941666Y-41458333D01*
X93894047Y-41505952D01*
X94655952Y-41410714D02*
X95036904Y-41410714D01*
X94798809Y-42077380D02*
X94798809Y-41220238D01*
X94846428Y-41125000D01*
X94941666Y-41077380D01*
X95036904Y-41077380D01*
X95227380Y-41410714D02*
X95608333Y-41410714D01*
X95370238Y-41077380D02*
X95370238Y-41934523D01*
X95417857Y-42029761D01*
X95513095Y-42077380D01*
X95608333Y-42077380D01*
X1255952Y-49729761D02*
X1160714Y-49777380D01*
X970238Y-49777380D01*
X875000Y-49729761D01*
X827380Y-49682142D01*
X779761Y-49586904D01*
X779761Y-49301190D01*
X827380Y-49205952D01*
X875000Y-49158333D01*
X970238Y-49110714D01*
X1160714Y-49110714D01*
X1255952Y-49158333D01*
X1541666Y-49110714D02*
X1922619Y-49110714D01*
X1684523Y-48777380D02*
X1684523Y-49634523D01*
X1732142Y-49729761D01*
X1827380Y-49777380D01*
X1922619Y-49777380D01*
X2255952Y-49777380D02*
X2255952Y-49110714D01*
X2255952Y-49301190D02*
X2303571Y-49205952D01*
X2351190Y-49158333D01*
X2446428Y-49110714D01*
X2541666Y-49110714D01*
X3017857Y-49777380D02*
X2922619Y-49729761D01*
X2875000Y-49634523D01*
X2875000Y-48777380D01*
X78422619Y-49777380D02*
X78327380Y-49729761D01*
X78279761Y-49634523D01*
X78279761Y-48777380D01*
X78660714Y-49110714D02*
X79041666Y-49110714D01*
X78803571Y-49777380D02*
X78803571Y-48920238D01*
X78851190Y-48825000D01*
X78946428Y-48777380D01*
X79041666Y-48777380D01*
X79232142Y-49110714D02*
X79613095Y-49110714D01*
X79375000Y-48777380D02*
X79375000Y-49634523D01*
X79422619Y-49729761D01*
X79517857Y-49777380D01*
X79613095Y-49777380D01*
X85813095Y-49777380D02*
X85813095Y-48777380D01*
X85813095Y-49729761D02*
X85717857Y-49777380D01*
X85527380Y-49777380D01*
X85432142Y-49729761D01*
X85384523Y-49682142D01*
X85336904Y-49586904D01*
X85336904Y-49301190D01*
X85384523Y-49205952D01*
X85432142Y-49158333D01*
X85527380Y-49110714D01*
X85717857Y-49110714D01*
X85813095Y-49158333D01*
X86194047Y-49110714D02*
X86384523Y-49777380D01*
X86575000Y-49301190D01*
X86765476Y-49777380D01*
X86955952Y-49110714D01*
X87336904Y-49110714D02*
X87336904Y-49777380D01*
X87336904Y-49205952D02*
X87384523Y-49158333D01*
X87479761Y-49110714D01*
X87622619Y-49110714D01*
X87717857Y-49158333D01*
X87765476Y-49253571D01*
X87765476Y-49777380D01*
X93679761Y-49777380D02*
X93679761Y-49110714D01*
X93679761Y-49301190D02*
X93727380Y-49205952D01*
X93775000Y-49158333D01*
X93870238Y-49110714D01*
X93965476Y-49110714D01*
X94298809Y-49777380D02*
X94298809Y-49110714D01*
X94298809Y-48777380D02*
X94251190Y-48825000D01*
X94298809Y-48872619D01*
X94346428Y-48825000D01*
X94298809Y-48777380D01*
X94298809Y-48872619D01*
X94632142Y-49110714D02*
X95013095Y-49110714D01*
X94775000Y-48777380D02*
X94775000Y-49634523D01*
X94822619Y-49729761D01*
X94917857Y-49777380D01*
X95013095Y-49777380D01*
X9466071Y-49110714D02*
X9656547Y-49777380D01*
X9847023Y-49301190D01*
X10037500Y-49777380D01*
X10227976Y-49110714D01*
X10608928Y-49777380D02*
X10608928Y-49110714D01*
X10608928Y-48777380D02*
X10561309Y-48825000D01*
X10608928Y-48872619D01*
X10656547Y-48825000D01*
X10608928Y-48777380D01*
X10608928Y-48872619D01*
X11085119Y-49110714D02*
X11085119Y-49777380D01*
X11085119Y-49205952D02*
X11132738Y-49158333D01*
X11227976Y-49110714D01*
X11370833Y-49110714D01*
X11466071Y-49158333D01*
X11513690Y-49253571D01*
X11513690Y-49777380D01*
X37807142Y-49110714D02*
X38188095Y-49110714D01*
X37950000Y-49777380D02*
X37950000Y-48920238D01*
X37997619Y-48825000D01*
X38092857Y-48777380D01*
X38188095Y-48777380D01*
X38521428Y-49110714D02*
X38521428Y-49777380D01*
X38521428Y-49205952D02*
X38569047Y-49158333D01*
X38664285Y-49110714D01*
X38807142Y-49110714D01*
X38902380Y-49158333D01*
X38950000Y-49253571D01*
X38950000Y-49777380D01*
X67954166Y-49777380D02*
X67954166Y-49253571D01*
X67906547Y-49158333D01*
X67811309Y-49110714D01*
X67620833Y-49110714D01*
X67525595Y-49158333D01*
X67954166Y-49729761D02*
X67858928Y-49777380D01*
X67620833Y-49777380D01*
X67525595Y-49729761D01*
X67477976Y-49634523D01*
X67477976Y-49539285D01*
X67525595Y-49444047D01*
X67620833Y-49396428D01*
X67858928Y-49396428D01*
X67954166Y-49348809D01*
X68573214Y-49777380D02*
X68477976Y-49729761D01*
X68430357Y-49634523D01*
X68430357Y-48777380D01*
X68811309Y-49110714D02*
X69192261Y-49110714D01*
X68954166Y-48777380D02*
X68954166Y-49634523D01*
X69001785Y-49729761D01*
X69097023Y-49777380D01*
X69192261Y-49777380D01*
M02*
