M48
; DRILL file {KiCad (5.1.6)-1} date 05/28/20 20:04:49
; FORMAT={-:-/ absolute / inch / decimal}
; #@! TF.CreationDate,2020-05-28T20:04:49-07:00
; #@! TF.GenerationSoftware,Kicad,Pcbnew,(5.1.6)-1
; #@! TF.FileFunction,Plated,1,2,PTH
FMAT,2
INCH
T1C0.0157
T2C0.0236
%
G90
G05
T1
X0.3012Y-0.5768
X0.6043Y-0.5768
X0.9075Y-0.5768
X1.2106Y-0.5768
X1.5138Y-0.5768
X1.6457Y-0.2913
X1.7756Y-0.3504
X1.7756Y-0.4094
X1.8169Y-0.5768
X1.8493Y-0.3583
X1.8504Y-0.315
X1.9311Y-0.3602
X1.9783Y-0.3209
X2.0379Y-0.3125
X2.0646Y-0.3426
X2.0783Y-0.3057
X2.1201Y-0.5699
X2.1339Y-0.2717
X2.1339Y-0.4528
X2.5669Y-0.122
X2.6102Y-0.122
X2.6535Y-0.122
X2.6732Y-0.4843
X2.6969Y-0.122
X2.7165Y-0.4843
X2.7402Y-0.122
X2.7717Y-0.311
X2.7835Y-0.122
X2.811Y-0.2992
X2.811Y-0.3878
X2.8189Y-0.1732
X2.8228Y-0.2165
X2.8228Y-0.2598
X2.8349Y-0.1373
X2.8622Y-0.2008
X2.9331Y-0.4449
X2.9887Y-0.0517
X3.1811Y-0.0787
X3.2087Y-0.311
X3.2224Y-0.4469
X3.2441Y-0.2919
X3.2559Y-0.0354
X3.4528Y-0.2008
X3.4724Y-0.2362
X3.5203Y-0.3465
X3.685Y-0.3386
X3.685Y-0.4016
X3.685Y-0.4646
X3.7126Y-0.3701
X3.7126Y-0.4331
X3.7126Y-0.4961
X3.7736Y-0.0807
X3.9055Y-0.4911
X3.9055Y-0.7943
X3.9055Y-1.0974
X3.9055Y-1.4006
X3.9055Y-1.6969
X0.1457Y-0.3573
X3.7835Y-1.3406
X2.5709Y-0.7343
X2.2677Y-1.3406
X3.7835Y-1.0374
X3.4803Y-1.3406
X0.752Y-1.0374
X3.1772Y-1.9469
X0.752Y-1.3406
X1.3583Y-1.6437
X1.6614Y-1.3406
X2.7982Y-1.9469
X0.1457Y-0.7343
X1.0551Y-1.9469
X1.6614Y-1.0374
X0.5246Y-1.9469
X1.3583Y-1.0374
X0.5246Y-0.3573
X0.1457Y-1.6437
X0.1457Y-1.0374
X2.5709Y-1.6437
X3.1772Y-1.0374
X1.9646Y-1.6437
X1.6614Y-0.7343
X1.0551Y-0.7343
X1.6614Y-1.9469
X1.0551Y-1.0374
X1.4341Y-0.3573
X0.8278Y-0.3573
X2.874Y-0.7343
X2.874Y-1.3406
X2.2677Y-0.7343
X0.1457Y-1.9469
X2.874Y-1.0374
X1.0551Y-1.6437
X3.4803Y-0.7343
X0.4488Y-1.0374
X2.2677Y-1.9469
X0.4488Y-0.7343
X1.1309Y-0.3573
X2.874Y-1.6437
X0.1457Y-1.3406
X3.1772Y-1.3406
X1.3583Y-1.3406
X3.7835Y-1.6437
X1.3583Y-0.7343
X3.7835Y-0.7343
X1.9646Y-0.7343
X3.4803Y-1.6437
X0.752Y-1.6437
X1.9646Y-1.3406
X2.2677Y-1.6437
X1.0551Y-1.3406
X2.5709Y-1.3406
X2.5709Y-1.0374
X3.7835Y-1.9469
X3.4803Y-1.9469
X1.9646Y-1.0374
X1.6614Y-1.6437
X3.4803Y-1.0374
X0.4488Y-1.3406
X3.1772Y-1.6437
X2.2677Y-1.0374
X0.752Y-0.7343
X0.4488Y-1.6437
X3.1772Y-0.7343
T2
G00X1.7472Y-0.0748
M15
G01X1.7472Y-0.0276
M16
G05
G00X1.7472Y-0.2244
M15
G01X1.7472Y-0.1929
M16
G05
G00X2.1898Y-0.0748
M15
G01X2.1898Y-0.0276
M16
G05
G00X2.1898Y-0.2244
M15
G01X2.1898Y-0.1929
M16
G05
T0
M30
