M48
; DRILL file {KiCad (5.1.5)-3} date 4/10/2020 4:32:23 PM
; FORMAT={-:-/ absolute / metric / decimal}
; #@! TF.CreationDate,2020-04-10T16:32:23-04:00
; #@! TF.GenerationSoftware,Kicad,Pcbnew,(5.1.5)-3
; #@! TF.FileFunction,Plated,1,2,PTH
FMAT,2
METRIC
T1C0.400
T2C0.700
T3C1.200
T4C1.499
T5C1.513
T6C1.700
T7C1.702
T8C3.988
%
G90
G05
T1
X51.0Y-46.7
X51.9Y-72.9
X53.5Y-62.2
X54.4Y-32.5
X57.5Y-72.9
X58.2Y-31.6
X62.0Y-32.5
X65.8Y-31.6
X66.9Y-59.2
X68.6Y-43.0
X69.6Y-32.5
X71.2Y-79.1
X71.6Y-65.3
X73.0Y-62.2
X73.1Y-59.5
X73.4Y-31.6
X75.7Y-32.5
X82.4Y-59.5
X87.0Y-59.1
X88.6Y-42.7
X92.4Y-59.0
X93.8Y-63.9
X93.9Y-62.2
X104.4Y-73.2
X106.7Y-59.2
X108.4Y-75.6
X109.025Y-66.9
X114.4Y-57.05
X114.4Y-58.5
X115.7Y-65.6
X115.9Y-57.775
X115.9Y-59.375
X116.1Y-54.1
X119.6Y-48.8
X122.4Y-73.5
X126.5Y-73.5
X127.9Y-48.4
X130.4Y-41.3
T3
X94.918Y-66.844
X105.012Y-66.844
X94.918Y-47.0
X105.012Y-47.0
X75.074Y-47.0
X85.169Y-47.0
X55.23Y-66.844
X65.325Y-66.844
X55.23Y-47.0
X65.325Y-47.0
X75.074Y-66.844
X85.169Y-66.844
T4
X56.515Y-48.26
X64.135Y-48.26
X76.359Y-68.104
X83.979Y-68.104
X96.203Y-68.104
X103.822Y-68.104
X96.203Y-48.26
X103.822Y-48.26
X76.359Y-48.26
X83.979Y-48.26
X56.515Y-68.104
X64.135Y-68.104
T6
X100.012Y-64.744
X100.012Y-44.9
X80.169Y-44.9
X60.325Y-64.744
X60.325Y-44.9
X80.169Y-64.744
T7
X94.932Y-70.644
X94.932Y-50.8
X105.093Y-50.8
X75.089Y-50.8
X85.249Y-50.8
X55.245Y-50.8
X65.405Y-50.8
X105.093Y-70.644
X55.245Y-70.644
X65.405Y-70.644
X75.089Y-70.644
X85.249Y-70.644
T8
X60.325Y-50.8
X80.169Y-70.644
X100.012Y-70.644
X100.012Y-50.8
X80.169Y-50.8
X60.325Y-70.644
T2
X120.65Y-31.0G85X120.65Y-32.2
G05
X120.65Y-35.5G85X120.65Y-36.7
G05
X127.95Y-31.0G85X127.95Y-32.2
G05
X127.95Y-35.5G85X127.95Y-36.7
G05
T5
X57.805Y-45.782G85X57.805Y-46.819
G05
X62.845Y-45.782G85X62.845Y-46.819
G05
X77.649Y-65.625G85X77.649Y-66.662
G05
X82.689Y-65.625G85X82.689Y-66.662
G05
X97.492Y-65.625G85X97.492Y-66.662
G05
X102.532Y-65.625G85X102.532Y-66.662
G05
X97.492Y-45.782G85X97.492Y-46.819
G05
X102.532Y-45.782G85X102.532Y-46.819
G05
X77.649Y-45.782G85X77.649Y-46.819
G05
X82.689Y-45.782G85X82.689Y-46.819
G05
X57.805Y-65.625G85X57.805Y-66.662
G05
X62.845Y-65.625G85X62.845Y-66.662
G05
T0
M30
