G04 #@! TF.GenerationSoftware,KiCad,Pcbnew,(5.1.5)-3*
G04 #@! TF.CreationDate,2020-05-02T19:50:40+02:00*
G04 #@! TF.ProjectId,kyrremann,6b797272-656d-4616-9e6e-2e6b69636164,rev?*
G04 #@! TF.SameCoordinates,Original*
G04 #@! TF.FileFunction,Legend,Bot*
G04 #@! TF.FilePolarity,Positive*
%FSLAX46Y46*%
G04 Gerber Fmt 4.6, Leading zero omitted, Abs format (unit mm)*
G04 Created by KiCad (PCBNEW (5.1.5)-3) date 2020-05-02 19:50:40*
%MOMM*%
%LPD*%
G04 APERTURE LIST*
%ADD10C,0.150000*%
%ADD11C,0.120000*%
G04 APERTURE END LIST*
D10*
X151166666Y-66152380D02*
X151166666Y-65152380D01*
X150595238Y-66152380D02*
X151023809Y-65580952D01*
X150595238Y-65152380D02*
X151166666Y-65723809D01*
X150261904Y-65485714D02*
X150023809Y-66152380D01*
X149785714Y-65485714D02*
X150023809Y-66152380D01*
X150119047Y-66390476D01*
X150166666Y-66438095D01*
X150261904Y-66485714D01*
X149404761Y-66152380D02*
X149404761Y-65485714D01*
X149404761Y-65676190D02*
X149357142Y-65580952D01*
X149309523Y-65533333D01*
X149214285Y-65485714D01*
X149119047Y-65485714D01*
X148785714Y-66152380D02*
X148785714Y-65485714D01*
X148785714Y-65676190D02*
X148738095Y-65580952D01*
X148690476Y-65533333D01*
X148595238Y-65485714D01*
X148500000Y-65485714D01*
X147785714Y-66104761D02*
X147880952Y-66152380D01*
X148071428Y-66152380D01*
X148166666Y-66104761D01*
X148214285Y-66009523D01*
X148214285Y-65628571D01*
X148166666Y-65533333D01*
X148071428Y-65485714D01*
X147880952Y-65485714D01*
X147785714Y-65533333D01*
X147738095Y-65628571D01*
X147738095Y-65723809D01*
X148214285Y-65819047D01*
X146547619Y-66152380D02*
X146547619Y-65152380D01*
X146547619Y-65628571D02*
X145976190Y-65628571D01*
X145976190Y-66152380D02*
X145976190Y-65152380D01*
X145071428Y-66152380D02*
X145071428Y-65628571D01*
X145119047Y-65533333D01*
X145214285Y-65485714D01*
X145404761Y-65485714D01*
X145500000Y-65533333D01*
X145071428Y-66104761D02*
X145166666Y-66152380D01*
X145404761Y-66152380D01*
X145500000Y-66104761D01*
X145547619Y-66009523D01*
X145547619Y-65914285D01*
X145500000Y-65819047D01*
X145404761Y-65771428D01*
X145166666Y-65771428D01*
X145071428Y-65723809D01*
X144690476Y-65485714D02*
X144452380Y-66152380D01*
X144214285Y-65485714D01*
X143833333Y-66152380D02*
X143833333Y-65485714D01*
X143833333Y-65152380D02*
X143880952Y-65200000D01*
X143833333Y-65247619D01*
X143785714Y-65200000D01*
X143833333Y-65152380D01*
X143833333Y-65247619D01*
X143357142Y-66152380D02*
X143357142Y-65152380D01*
X143261904Y-65771428D02*
X142976190Y-66152380D01*
X142976190Y-65485714D02*
X143357142Y-65866666D01*
X141785714Y-65628571D02*
X141452380Y-65628571D01*
X141309523Y-66152380D02*
X141785714Y-66152380D01*
X141785714Y-65152380D01*
X141309523Y-65152380D01*
X140880952Y-66152380D02*
X140880952Y-65485714D01*
X140880952Y-65676190D02*
X140833333Y-65580952D01*
X140785714Y-65533333D01*
X140690476Y-65485714D01*
X140595238Y-65485714D01*
X140261904Y-66152380D02*
X140261904Y-65485714D01*
X140261904Y-65152380D02*
X140309523Y-65200000D01*
X140261904Y-65247619D01*
X140214285Y-65200000D01*
X140261904Y-65152380D01*
X140261904Y-65247619D01*
X139785714Y-66152380D02*
X139785714Y-65152380D01*
X139690476Y-65771428D02*
X139404761Y-66152380D01*
X139404761Y-65485714D02*
X139785714Y-65866666D01*
X139023809Y-66104761D02*
X138928571Y-66152380D01*
X138738095Y-66152380D01*
X138642857Y-66104761D01*
X138595238Y-66009523D01*
X138595238Y-65961904D01*
X138642857Y-65866666D01*
X138738095Y-65819047D01*
X138880952Y-65819047D01*
X138976190Y-65771428D01*
X139023809Y-65676190D01*
X139023809Y-65628571D01*
X138976190Y-65533333D01*
X138880952Y-65485714D01*
X138738095Y-65485714D01*
X138642857Y-65533333D01*
X137785714Y-66104761D02*
X137880952Y-66152380D01*
X138071428Y-66152380D01*
X138166666Y-66104761D01*
X138214285Y-66009523D01*
X138214285Y-65628571D01*
X138166666Y-65533333D01*
X138071428Y-65485714D01*
X137880952Y-65485714D01*
X137785714Y-65533333D01*
X137738095Y-65628571D01*
X137738095Y-65723809D01*
X138214285Y-65819047D01*
X137309523Y-65485714D02*
X137309523Y-66152380D01*
X137309523Y-65580952D02*
X137261904Y-65533333D01*
X137166666Y-65485714D01*
X137023809Y-65485714D01*
X136928571Y-65533333D01*
X136880952Y-65628571D01*
X136880952Y-66152380D01*
X135404761Y-66485714D02*
X135404761Y-65057142D01*
X133928571Y-66152380D02*
X133928571Y-65152380D01*
X133357142Y-66152380D02*
X133785714Y-65580952D01*
X133357142Y-65152380D02*
X133928571Y-65723809D01*
X133023809Y-65485714D02*
X132785714Y-66152380D01*
X132547619Y-65485714D02*
X132785714Y-66152380D01*
X132880952Y-66390476D01*
X132928571Y-66438095D01*
X133023809Y-66485714D01*
X132166666Y-66152380D02*
X132166666Y-65485714D01*
X132166666Y-65676190D02*
X132119047Y-65580952D01*
X132071428Y-65533333D01*
X131976190Y-65485714D01*
X131880952Y-65485714D01*
X131547619Y-66152380D02*
X131547619Y-65485714D01*
X131547619Y-65676190D02*
X131500000Y-65580952D01*
X131452380Y-65533333D01*
X131357142Y-65485714D01*
X131261904Y-65485714D01*
X130547619Y-66104761D02*
X130642857Y-66152380D01*
X130833333Y-66152380D01*
X130928571Y-66104761D01*
X130976190Y-66009523D01*
X130976190Y-65628571D01*
X130928571Y-65533333D01*
X130833333Y-65485714D01*
X130642857Y-65485714D01*
X130547619Y-65533333D01*
X130500000Y-65628571D01*
X130500000Y-65723809D01*
X130976190Y-65819047D01*
X130071428Y-66152380D02*
X130071428Y-65485714D01*
X130071428Y-65580952D02*
X130023809Y-65533333D01*
X129928571Y-65485714D01*
X129785714Y-65485714D01*
X129690476Y-65533333D01*
X129642857Y-65628571D01*
X129642857Y-66152380D01*
X129642857Y-65628571D02*
X129595238Y-65533333D01*
X129500000Y-65485714D01*
X129357142Y-65485714D01*
X129261904Y-65533333D01*
X129214285Y-65628571D01*
X129214285Y-66152380D01*
X128309523Y-66152380D02*
X128309523Y-65628571D01*
X128357142Y-65533333D01*
X128452380Y-65485714D01*
X128642857Y-65485714D01*
X128738095Y-65533333D01*
X128309523Y-66104761D02*
X128404761Y-66152380D01*
X128642857Y-66152380D01*
X128738095Y-66104761D01*
X128785714Y-66009523D01*
X128785714Y-65914285D01*
X128738095Y-65819047D01*
X128642857Y-65771428D01*
X128404761Y-65771428D01*
X128309523Y-65723809D01*
X127833333Y-65485714D02*
X127833333Y-66152380D01*
X127833333Y-65580952D02*
X127785714Y-65533333D01*
X127690476Y-65485714D01*
X127547619Y-65485714D01*
X127452380Y-65533333D01*
X127404761Y-65628571D01*
X127404761Y-66152380D01*
X126928571Y-65485714D02*
X126928571Y-66152380D01*
X126928571Y-65580952D02*
X126880952Y-65533333D01*
X126785714Y-65485714D01*
X126642857Y-65485714D01*
X126547619Y-65533333D01*
X126500000Y-65628571D01*
X126500000Y-66152380D01*
X125404761Y-65676190D02*
X125452380Y-65628571D01*
X125547619Y-65580952D01*
X125642857Y-65580952D01*
X125738095Y-65628571D01*
X125785714Y-65676190D01*
X125833333Y-65771428D01*
X125833333Y-65866666D01*
X125785714Y-65961904D01*
X125738095Y-66009523D01*
X125642857Y-66057142D01*
X125547619Y-66057142D01*
X125452380Y-66009523D01*
X125404761Y-65961904D01*
X125404761Y-65580952D02*
X125404761Y-65961904D01*
X125357142Y-66009523D01*
X125309523Y-66009523D01*
X125214285Y-65961904D01*
X125166666Y-65866666D01*
X125166666Y-65628571D01*
X125261904Y-65485714D01*
X125404761Y-65390476D01*
X125595238Y-65342857D01*
X125785714Y-65390476D01*
X125928571Y-65485714D01*
X126023809Y-65628571D01*
X126071428Y-65819047D01*
X126023809Y-66009523D01*
X125928571Y-66152380D01*
X125785714Y-66247619D01*
X125595238Y-66295238D01*
X125404761Y-66247619D01*
X125261904Y-66152380D01*
X124309523Y-65485714D02*
X124309523Y-66295238D01*
X124357142Y-66390476D01*
X124404761Y-66438095D01*
X124500000Y-66485714D01*
X124642857Y-66485714D01*
X124738095Y-66438095D01*
X124309523Y-66104761D02*
X124404761Y-66152380D01*
X124595238Y-66152380D01*
X124690476Y-66104761D01*
X124738095Y-66057142D01*
X124785714Y-65961904D01*
X124785714Y-65676190D01*
X124738095Y-65580952D01*
X124690476Y-65533333D01*
X124595238Y-65485714D01*
X124404761Y-65485714D01*
X124309523Y-65533333D01*
X123833333Y-66152380D02*
X123833333Y-65485714D01*
X123833333Y-65580952D02*
X123785714Y-65533333D01*
X123690476Y-65485714D01*
X123547619Y-65485714D01*
X123452380Y-65533333D01*
X123404761Y-65628571D01*
X123404761Y-66152380D01*
X123404761Y-65628571D02*
X123357142Y-65533333D01*
X123261904Y-65485714D01*
X123119047Y-65485714D01*
X123023809Y-65533333D01*
X122976190Y-65628571D01*
X122976190Y-66152380D01*
X122071428Y-66152380D02*
X122071428Y-65628571D01*
X122119047Y-65533333D01*
X122214285Y-65485714D01*
X122404761Y-65485714D01*
X122500000Y-65533333D01*
X122071428Y-66104761D02*
X122166666Y-66152380D01*
X122404761Y-66152380D01*
X122500000Y-66104761D01*
X122547619Y-66009523D01*
X122547619Y-65914285D01*
X122500000Y-65819047D01*
X122404761Y-65771428D01*
X122166666Y-65771428D01*
X122071428Y-65723809D01*
X121595238Y-66152380D02*
X121595238Y-65485714D01*
X121595238Y-65152380D02*
X121642857Y-65200000D01*
X121595238Y-65247619D01*
X121547619Y-65200000D01*
X121595238Y-65152380D01*
X121595238Y-65247619D01*
X120976190Y-66152380D02*
X121071428Y-66104761D01*
X121119047Y-66009523D01*
X121119047Y-65152380D01*
X120595238Y-66057142D02*
X120547619Y-66104761D01*
X120595238Y-66152380D01*
X120642857Y-66104761D01*
X120595238Y-66057142D01*
X120595238Y-66152380D01*
X119690476Y-66104761D02*
X119785714Y-66152380D01*
X119976190Y-66152380D01*
X120071428Y-66104761D01*
X120119047Y-66057142D01*
X120166666Y-65961904D01*
X120166666Y-65676190D01*
X120119047Y-65580952D01*
X120071428Y-65533333D01*
X119976190Y-65485714D01*
X119785714Y-65485714D01*
X119690476Y-65533333D01*
X119119047Y-66152380D02*
X119214285Y-66104761D01*
X119261904Y-66057142D01*
X119309523Y-65961904D01*
X119309523Y-65676190D01*
X119261904Y-65580952D01*
X119214285Y-65533333D01*
X119119047Y-65485714D01*
X118976190Y-65485714D01*
X118880952Y-65533333D01*
X118833333Y-65580952D01*
X118785714Y-65676190D01*
X118785714Y-65961904D01*
X118833333Y-66057142D01*
X118880952Y-66104761D01*
X118976190Y-66152380D01*
X119119047Y-66152380D01*
X118357142Y-66152380D02*
X118357142Y-65485714D01*
X118357142Y-65580952D02*
X118309523Y-65533333D01*
X118214285Y-65485714D01*
X118071428Y-65485714D01*
X117976190Y-65533333D01*
X117928571Y-65628571D01*
X117928571Y-66152380D01*
X117928571Y-65628571D02*
X117880952Y-65533333D01*
X117785714Y-65485714D01*
X117642857Y-65485714D01*
X117547619Y-65533333D01*
X117500000Y-65628571D01*
X117500000Y-66152380D01*
X116023809Y-66485714D02*
X116023809Y-65057142D01*
X114547619Y-66152380D02*
X114547619Y-65152380D01*
X113976190Y-66152380D02*
X114404761Y-65580952D01*
X113976190Y-65152380D02*
X114547619Y-65723809D01*
X113642857Y-65485714D02*
X113404761Y-66152380D01*
X113166666Y-65485714D02*
X113404761Y-66152380D01*
X113500000Y-66390476D01*
X113547619Y-66438095D01*
X113642857Y-66485714D01*
X112785714Y-66152380D02*
X112785714Y-65485714D01*
X112785714Y-65676190D02*
X112738095Y-65580952D01*
X112690476Y-65533333D01*
X112595238Y-65485714D01*
X112500000Y-65485714D01*
X112166666Y-66152380D02*
X112166666Y-65485714D01*
X112166666Y-65676190D02*
X112119047Y-65580952D01*
X112071428Y-65533333D01*
X111976190Y-65485714D01*
X111880952Y-65485714D01*
X111166666Y-66104761D02*
X111261904Y-66152380D01*
X111452380Y-66152380D01*
X111547619Y-66104761D01*
X111595238Y-66009523D01*
X111595238Y-65628571D01*
X111547619Y-65533333D01*
X111452380Y-65485714D01*
X111261904Y-65485714D01*
X111166666Y-65533333D01*
X111119047Y-65628571D01*
X111119047Y-65723809D01*
X111595238Y-65819047D01*
X110690476Y-66152380D02*
X110690476Y-65485714D01*
X110690476Y-65580952D02*
X110642857Y-65533333D01*
X110547619Y-65485714D01*
X110404761Y-65485714D01*
X110309523Y-65533333D01*
X110261904Y-65628571D01*
X110261904Y-66152380D01*
X110261904Y-65628571D02*
X110214285Y-65533333D01*
X110119047Y-65485714D01*
X109976190Y-65485714D01*
X109880952Y-65533333D01*
X109833333Y-65628571D01*
X109833333Y-66152380D01*
X108928571Y-66152380D02*
X108928571Y-65628571D01*
X108976190Y-65533333D01*
X109071428Y-65485714D01*
X109261904Y-65485714D01*
X109357142Y-65533333D01*
X108928571Y-66104761D02*
X109023809Y-66152380D01*
X109261904Y-66152380D01*
X109357142Y-66104761D01*
X109404761Y-66009523D01*
X109404761Y-65914285D01*
X109357142Y-65819047D01*
X109261904Y-65771428D01*
X109023809Y-65771428D01*
X108928571Y-65723809D01*
X108452380Y-65485714D02*
X108452380Y-66152380D01*
X108452380Y-65580952D02*
X108404761Y-65533333D01*
X108309523Y-65485714D01*
X108166666Y-65485714D01*
X108071428Y-65533333D01*
X108023809Y-65628571D01*
X108023809Y-66152380D01*
X107547619Y-65485714D02*
X107547619Y-66152380D01*
X107547619Y-65580952D02*
X107500000Y-65533333D01*
X107404761Y-65485714D01*
X107261904Y-65485714D01*
X107166666Y-65533333D01*
X107119047Y-65628571D01*
X107119047Y-66152380D01*
X106642857Y-66057142D02*
X106595238Y-66104761D01*
X106642857Y-66152380D01*
X106690476Y-66104761D01*
X106642857Y-66057142D01*
X106642857Y-66152380D01*
X106166666Y-65485714D02*
X106166666Y-66152380D01*
X106166666Y-65580952D02*
X106119047Y-65533333D01*
X106023809Y-65485714D01*
X105880952Y-65485714D01*
X105785714Y-65533333D01*
X105738095Y-65628571D01*
X105738095Y-66152380D01*
X105119047Y-66152380D02*
X105214285Y-66104761D01*
X105261904Y-66057142D01*
X105309523Y-65961904D01*
X105309523Y-65676190D01*
X105261904Y-65580952D01*
X105214285Y-65533333D01*
X105119047Y-65485714D01*
X104976190Y-65485714D01*
X104880952Y-65533333D01*
X104833333Y-65580952D01*
X104785714Y-65676190D01*
X104785714Y-65961904D01*
X104833333Y-66057142D01*
X104880952Y-66104761D01*
X104976190Y-66152380D01*
X105119047Y-66152380D01*
D11*
X56800000Y-63610000D02*
X57485000Y-63610000D01*
X57485000Y-63610000D02*
X57485000Y-62800000D01*
X57320000Y-57354102D02*
X57320000Y-56990000D01*
X57320000Y-58354102D02*
X57320000Y-58245898D01*
X57320000Y-59354102D02*
X57320000Y-59245898D01*
X57320000Y-60354102D02*
X57320000Y-60245898D01*
X57320000Y-61354102D02*
X57320000Y-61245898D01*
X55700000Y-56990000D02*
X57320000Y-56990000D01*
X55700000Y-62300000D02*
X55700000Y-56990000D01*
X55700000Y-62300000D02*
X56115000Y-62300000D01*
D10*
X130631013Y-90197554D02*
G75*
G02X128091013Y-92737554I-2540000J0D01*
G01*
X130631013Y-86768554D02*
X130631013Y-86387554D01*
X126745175Y-86368594D02*
G75*
G02X124281013Y-88292554I-2464162J616040D01*
G01*
X119201013Y-89308554D02*
X119201013Y-88292554D01*
X119201013Y-88292554D02*
X124281013Y-88292554D01*
X126745175Y-86387554D02*
X128472013Y-86387554D01*
X130250013Y-86387554D02*
X130631013Y-86387554D01*
X130631013Y-90197554D02*
X130631013Y-89816554D01*
X128091013Y-92737554D02*
X119201013Y-92737554D01*
X119201013Y-92737554D02*
X119201013Y-92356554D01*
D11*
X155900000Y-74300000D02*
X155900000Y-83700000D01*
X150100000Y-83700000D02*
X152100000Y-83700000D01*
X154000000Y-83700000D02*
X155900000Y-83700000D01*
X150100000Y-74300000D02*
X152100000Y-74300000D01*
X154000000Y-74300000D02*
X155900000Y-74300000D01*
X134135876Y-81555222D02*
X133800000Y-81891097D01*
X133800000Y-74508903D02*
X134135876Y-74844778D01*
X133464124Y-74844778D02*
X133800000Y-74508903D01*
X130108903Y-78200000D02*
X130444778Y-78535876D01*
X130444778Y-77864124D02*
X130108903Y-78200000D01*
X137491097Y-78200000D02*
X137155222Y-77864124D01*
X137155222Y-78535876D02*
X137491097Y-78200000D01*
X135496268Y-82790000D02*
X135153734Y-82790000D01*
X135496268Y-83810000D02*
X135153734Y-83810000D01*
X138803733Y-82790000D02*
X139146267Y-82790000D01*
X138803733Y-83810000D02*
X139146267Y-83810000D01*
X141753732Y-74490000D02*
X142096266Y-74490000D01*
X141753732Y-75510000D02*
X142096266Y-75510000D01*
X127800447Y-82179198D02*
X127558238Y-81936989D01*
X127079198Y-82900447D02*
X126836989Y-82658238D01*
X127041762Y-75663011D02*
X126799553Y-75420802D01*
X127763011Y-74941762D02*
X127520802Y-74699553D01*
X121436989Y-80758238D02*
X121679198Y-81000447D01*
X122158238Y-80036989D02*
X122400447Y-80279198D01*
X88131371Y-65717157D02*
X85373655Y-62959441D01*
X86717157Y-67131371D02*
X83959441Y-64373655D01*
X88131371Y-65717157D02*
X86717157Y-67131371D01*
X84131371Y-65717157D02*
X82717157Y-67131371D01*
X82717157Y-67131371D02*
X79959441Y-64373655D01*
X84131371Y-65717157D02*
X81373655Y-62959441D01*
X80131371Y-65717157D02*
X77373655Y-62959441D01*
X78717157Y-67131371D02*
X75959441Y-64373655D01*
X80131371Y-65717157D02*
X78717157Y-67131371D01*
X76131371Y-65767157D02*
X74717157Y-67181371D01*
X74717157Y-67181371D02*
X71959441Y-64423655D01*
X76131371Y-65767157D02*
X73373655Y-63009441D01*
X72131371Y-65717157D02*
X70717157Y-67131371D01*
X70717157Y-67131371D02*
X67959441Y-64373655D01*
X72131371Y-65717157D02*
X69373655Y-62959441D01*
X86717157Y-72868629D02*
X83959441Y-75626345D01*
X88131371Y-74282843D02*
X85373655Y-77040559D01*
X86717157Y-72868629D02*
X88131371Y-74282843D01*
X82717157Y-72868629D02*
X84131371Y-74282843D01*
X84131371Y-74282843D02*
X81373655Y-77040559D01*
X82717157Y-72868629D02*
X79959441Y-75626345D01*
X78717157Y-72868629D02*
X75959441Y-75626345D01*
X80131371Y-74282843D02*
X77373655Y-77040559D01*
X78717157Y-72868629D02*
X80131371Y-74282843D01*
X74717157Y-72868629D02*
X76131371Y-74282843D01*
X76131371Y-74282843D02*
X73373655Y-77040559D01*
X74717157Y-72868629D02*
X71959441Y-75626345D01*
X70717157Y-72868629D02*
X67959441Y-75626345D01*
X72131371Y-74282843D02*
X69373655Y-77040559D01*
X70717157Y-72868629D02*
X72131371Y-74282843D01*
D10*
X148167500Y-47252500D02*
X148167500Y-47633500D01*
X139277500Y-47252500D02*
X148167500Y-47252500D01*
X136737500Y-49792500D02*
X136737500Y-50173500D01*
X137118500Y-53602500D02*
X136737500Y-53602500D01*
X140623338Y-53602500D02*
X138896500Y-53602500D01*
X148167500Y-51697500D02*
X143087500Y-51697500D01*
X148167500Y-50681500D02*
X148167500Y-51697500D01*
X140623338Y-53621460D02*
G75*
G02X143087500Y-51697500I2464162J-616040D01*
G01*
X136737500Y-53221500D02*
X136737500Y-53602500D01*
X136737500Y-49792500D02*
G75*
G02X139277500Y-47252500I2540000J0D01*
G01*
X129361013Y-47252500D02*
X129361013Y-47633500D01*
X120471013Y-47252500D02*
X129361013Y-47252500D01*
X117931013Y-49792500D02*
X117931013Y-50173500D01*
X118312013Y-53602500D02*
X117931013Y-53602500D01*
X121816851Y-53602500D02*
X120090013Y-53602500D01*
X129361013Y-51697500D02*
X124281013Y-51697500D01*
X129361013Y-50681500D02*
X129361013Y-51697500D01*
X121816851Y-53621460D02*
G75*
G02X124281013Y-51697500I2464162J-616040D01*
G01*
X117931013Y-53221500D02*
X117931013Y-53602500D01*
X117931013Y-49792500D02*
G75*
G02X120471013Y-47252500I2540000J0D01*
G01*
X98637500Y-49792500D02*
G75*
G02X101177500Y-47252500I2540000J0D01*
G01*
X98637500Y-53221500D02*
X98637500Y-53602500D01*
X102523338Y-53621460D02*
G75*
G02X104987500Y-51697500I2464162J-616040D01*
G01*
X110067500Y-50681500D02*
X110067500Y-51697500D01*
X110067500Y-51697500D02*
X104987500Y-51697500D01*
X102523338Y-53602500D02*
X100796500Y-53602500D01*
X99018500Y-53602500D02*
X98637500Y-53602500D01*
X98637500Y-49792500D02*
X98637500Y-50173500D01*
X101177500Y-47252500D02*
X110067500Y-47252500D01*
X110067500Y-47252500D02*
X110067500Y-47633500D01*
X79587500Y-49792500D02*
G75*
G02X82127500Y-47252500I2540000J0D01*
G01*
X79587500Y-53221500D02*
X79587500Y-53602500D01*
X83473338Y-53621460D02*
G75*
G02X85937500Y-51697500I2464162J-616040D01*
G01*
X91017500Y-50681500D02*
X91017500Y-51697500D01*
X91017500Y-51697500D02*
X85937500Y-51697500D01*
X83473338Y-53602500D02*
X81746500Y-53602500D01*
X79968500Y-53602500D02*
X79587500Y-53602500D01*
X79587500Y-49792500D02*
X79587500Y-50173500D01*
X82127500Y-47252500D02*
X91017500Y-47252500D01*
X91017500Y-47252500D02*
X91017500Y-47633500D01*
X71967500Y-47252500D02*
X71967500Y-47633500D01*
X63077500Y-47252500D02*
X71967500Y-47252500D01*
X60537500Y-49792500D02*
X60537500Y-50173500D01*
X60918500Y-53602500D02*
X60537500Y-53602500D01*
X64423338Y-53602500D02*
X62696500Y-53602500D01*
X71967500Y-51697500D02*
X66887500Y-51697500D01*
X71967500Y-50681500D02*
X71967500Y-51697500D01*
X64423338Y-53621460D02*
G75*
G02X66887500Y-51697500I2464162J-616040D01*
G01*
X60537500Y-53221500D02*
X60537500Y-53602500D01*
X60537500Y-49792500D02*
G75*
G02X63077500Y-47252500I2540000J0D01*
G01*
X149681014Y-90197553D02*
G75*
G02X147141014Y-92737553I-2540000J0D01*
G01*
X149681014Y-86768553D02*
X149681014Y-86387553D01*
X145795176Y-86368593D02*
G75*
G02X143331014Y-88292553I-2464162J616040D01*
G01*
X138251014Y-89308553D02*
X138251014Y-88292553D01*
X138251014Y-88292553D02*
X143331014Y-88292553D01*
X145795176Y-86387553D02*
X147522014Y-86387553D01*
X149300014Y-86387553D02*
X149681014Y-86387553D01*
X149681014Y-90197553D02*
X149681014Y-89816553D01*
X147141014Y-92737553D02*
X138251014Y-92737553D01*
X138251014Y-92737553D02*
X138251014Y-92356553D01*
X99907500Y-92737554D02*
X99907500Y-92356554D01*
X108797500Y-92737554D02*
X99907500Y-92737554D01*
X111337500Y-90197554D02*
X111337500Y-89816554D01*
X110956500Y-86387554D02*
X111337500Y-86387554D01*
X107451662Y-86387554D02*
X109178500Y-86387554D01*
X99907500Y-88292554D02*
X104987500Y-88292554D01*
X99907500Y-89308554D02*
X99907500Y-88292554D01*
X107451662Y-86368594D02*
G75*
G02X104987500Y-88292554I-2464162J616040D01*
G01*
X111337500Y-86768554D02*
X111337500Y-86387554D01*
X111337500Y-90197554D02*
G75*
G02X108797500Y-92737554I-2540000J0D01*
G01*
X81101013Y-92737553D02*
X81101013Y-92356553D01*
X89991013Y-92737553D02*
X81101013Y-92737553D01*
X92531013Y-90197553D02*
X92531013Y-89816553D01*
X92150013Y-86387553D02*
X92531013Y-86387553D01*
X88645175Y-86387553D02*
X90372013Y-86387553D01*
X81101013Y-88292553D02*
X86181013Y-88292553D01*
X81101013Y-89308553D02*
X81101013Y-88292553D01*
X88645175Y-86368593D02*
G75*
G02X86181013Y-88292553I-2464162J616040D01*
G01*
X92531013Y-86768553D02*
X92531013Y-86387553D01*
X92531013Y-90197553D02*
G75*
G02X89991013Y-92737553I-2540000J0D01*
G01*
X73237500Y-90197554D02*
G75*
G02X70697500Y-92737554I-2540000J0D01*
G01*
X73237500Y-86768554D02*
X73237500Y-86387554D01*
X69351662Y-86368594D02*
G75*
G02X66887500Y-88292554I-2464162J616040D01*
G01*
X61807500Y-89308554D02*
X61807500Y-88292554D01*
X61807500Y-88292554D02*
X66887500Y-88292554D01*
X69351662Y-86387554D02*
X71078500Y-86387554D01*
X72856500Y-86387554D02*
X73237500Y-86387554D01*
X73237500Y-90197554D02*
X73237500Y-89816554D01*
X70697500Y-92737554D02*
X61807500Y-92737554D01*
X61807500Y-92737554D02*
X61807500Y-92356554D01*
D11*
X141753733Y-76090000D02*
X142096267Y-76090000D01*
X141753733Y-77110000D02*
X142096267Y-77110000D01*
X142096267Y-80890000D02*
X141753733Y-80890000D01*
X142096267Y-81910000D02*
X141753733Y-81910000D01*
X141728733Y-77690000D02*
X142071267Y-77690000D01*
X141728733Y-78710000D02*
X142071267Y-78710000D01*
X142071267Y-79290000D02*
X141728733Y-79290000D01*
X142071267Y-80310000D02*
X141728733Y-80310000D01*
X118899553Y-76620802D02*
X119141762Y-76863011D01*
X119620802Y-75899553D02*
X119863011Y-76141762D01*
X129299553Y-76079198D02*
X129541762Y-75836989D01*
X130020802Y-76800447D02*
X130263011Y-76558238D01*
X93850000Y-77439999D02*
X93850000Y-83559999D01*
X93850000Y-83559999D02*
X97550000Y-83559999D01*
X97550000Y-83559999D02*
X97550000Y-77439999D01*
X97550000Y-77439999D02*
X93850000Y-77439999D01*
X125306066Y-74838299D02*
X128488047Y-78020280D01*
X128488047Y-78020280D02*
X124669670Y-81838657D01*
D10*
X56843333Y-64502380D02*
X56843333Y-65216666D01*
X56890952Y-65359523D01*
X56986190Y-65454761D01*
X57129047Y-65502380D01*
X57224285Y-65502380D01*
X56414761Y-64597619D02*
X56367142Y-64550000D01*
X56271904Y-64502380D01*
X56033809Y-64502380D01*
X55938571Y-64550000D01*
X55890952Y-64597619D01*
X55843333Y-64692857D01*
X55843333Y-64788095D01*
X55890952Y-64930952D01*
X56462380Y-65502380D01*
X55843333Y-65502380D01*
X125566727Y-94459934D02*
X125566727Y-93459934D01*
X125233393Y-94174220D01*
X124900060Y-93459934D01*
X124900060Y-94459934D01*
X124519108Y-93459934D02*
X123852441Y-94459934D01*
X123852441Y-93459934D02*
X124519108Y-94459934D01*
X123566727Y-93459934D02*
X122900060Y-93459934D01*
X123328632Y-94459934D01*
X145807380Y-78666666D02*
X146521666Y-78666666D01*
X146664523Y-78619047D01*
X146759761Y-78523809D01*
X146807380Y-78380952D01*
X146807380Y-78285714D01*
X146807380Y-79666666D02*
X146807380Y-79095238D01*
X146807380Y-79380952D02*
X145807380Y-79380952D01*
X145950238Y-79285714D01*
X146045476Y-79190476D01*
X146093095Y-79095238D01*
X136652670Y-79975174D02*
X137225090Y-80547594D01*
X137258762Y-80648609D01*
X137258762Y-80715953D01*
X137225090Y-80816968D01*
X137090403Y-80951655D01*
X136989388Y-80985327D01*
X136922044Y-80985327D01*
X136821029Y-80951655D01*
X136248609Y-80379235D01*
X136248609Y-81793449D02*
X136652670Y-81389388D01*
X136450640Y-81591418D02*
X135743533Y-80884312D01*
X135911892Y-80917983D01*
X136046579Y-80917983D01*
X136147594Y-80884312D01*
X135491667Y-85157142D02*
X135539286Y-85204761D01*
X135682143Y-85252380D01*
X135777381Y-85252380D01*
X135920239Y-85204761D01*
X136015477Y-85109523D01*
X136063096Y-85014285D01*
X136110715Y-84823809D01*
X136110715Y-84680952D01*
X136063096Y-84490476D01*
X136015477Y-84395238D01*
X135920239Y-84300000D01*
X135777381Y-84252380D01*
X135682143Y-84252380D01*
X135539286Y-84300000D01*
X135491667Y-84347619D01*
X134539286Y-85252380D02*
X135110715Y-85252380D01*
X134825001Y-85252380D02*
X134825001Y-84252380D01*
X134920239Y-84395238D01*
X135015477Y-84490476D01*
X135110715Y-84538095D01*
X141966666Y-83657142D02*
X142014285Y-83704761D01*
X142157142Y-83752380D01*
X142252380Y-83752380D01*
X142395238Y-83704761D01*
X142490476Y-83609523D01*
X142538095Y-83514285D01*
X142585714Y-83323809D01*
X142585714Y-83180952D01*
X142538095Y-82990476D01*
X142490476Y-82895238D01*
X142395238Y-82800000D01*
X142252380Y-82752380D01*
X142157142Y-82752380D01*
X142014285Y-82800000D01*
X141966666Y-82847619D01*
X141585714Y-82847619D02*
X141538095Y-82800000D01*
X141442857Y-82752380D01*
X141204761Y-82752380D01*
X141109523Y-82800000D01*
X141061904Y-82847619D01*
X141014285Y-82942857D01*
X141014285Y-83038095D01*
X141061904Y-83180952D01*
X141633333Y-83752380D01*
X141014285Y-83752380D01*
X144816666Y-75357142D02*
X144864285Y-75404761D01*
X145007142Y-75452380D01*
X145102380Y-75452380D01*
X145245238Y-75404761D01*
X145340476Y-75309523D01*
X145388095Y-75214285D01*
X145435714Y-75023809D01*
X145435714Y-74880952D01*
X145388095Y-74690476D01*
X145340476Y-74595238D01*
X145245238Y-74500000D01*
X145102380Y-74452380D01*
X145007142Y-74452380D01*
X144864285Y-74500000D01*
X144816666Y-74547619D01*
X144483333Y-74452380D02*
X143864285Y-74452380D01*
X144197619Y-74833333D01*
X144054761Y-74833333D01*
X143959523Y-74880952D01*
X143911904Y-74928571D01*
X143864285Y-75023809D01*
X143864285Y-75261904D01*
X143911904Y-75357142D01*
X143959523Y-75404761D01*
X144054761Y-75452380D01*
X144340476Y-75452380D01*
X144435714Y-75404761D01*
X144483333Y-75357142D01*
X125257163Y-80862240D02*
X125257163Y-80929583D01*
X125324507Y-81064270D01*
X125391851Y-81131614D01*
X125526538Y-81198957D01*
X125661225Y-81198957D01*
X125762240Y-81165286D01*
X125930599Y-81064270D01*
X126031614Y-80963255D01*
X126132629Y-80794896D01*
X126166301Y-80693881D01*
X126166301Y-80559194D01*
X126098957Y-80424507D01*
X126031614Y-80357163D01*
X125896927Y-80289820D01*
X125829583Y-80289820D01*
X125055133Y-79852087D02*
X124583728Y-80323492D01*
X125492866Y-79751072D02*
X125156148Y-80424507D01*
X124718415Y-79986774D01*
X125165312Y-73570389D02*
X125165312Y-73637732D01*
X125232656Y-73772419D01*
X125300000Y-73839763D01*
X125434687Y-73907106D01*
X125569374Y-73907106D01*
X125670389Y-73873435D01*
X125838748Y-73772419D01*
X125939763Y-73671404D01*
X126040778Y-73503045D01*
X126074450Y-73402030D01*
X126074450Y-73267343D01*
X126007106Y-73132656D01*
X125939763Y-73065312D01*
X125805076Y-72997969D01*
X125737732Y-72997969D01*
X125198984Y-72324534D02*
X125333671Y-72459221D01*
X125367343Y-72560236D01*
X125367343Y-72627580D01*
X125333671Y-72795938D01*
X125232656Y-72964297D01*
X124963282Y-73233671D01*
X124862267Y-73267343D01*
X124794923Y-73267343D01*
X124693908Y-73233671D01*
X124559221Y-73098984D01*
X124525549Y-72997969D01*
X124525549Y-72930625D01*
X124559221Y-72829610D01*
X124727580Y-72661251D01*
X124828595Y-72627580D01*
X124895938Y-72627580D01*
X124996954Y-72661251D01*
X125131641Y-72795938D01*
X125165312Y-72896954D01*
X125165312Y-72964297D01*
X125131641Y-73065312D01*
X119765312Y-78870389D02*
X119765312Y-78937732D01*
X119832656Y-79072419D01*
X119900000Y-79139763D01*
X120034687Y-79207106D01*
X120169374Y-79207106D01*
X120270389Y-79173435D01*
X120438748Y-79072419D01*
X120539763Y-78971404D01*
X120640778Y-78803045D01*
X120674450Y-78702030D01*
X120674450Y-78567343D01*
X120607106Y-78432656D01*
X120539763Y-78365312D01*
X120405076Y-78297969D01*
X120337732Y-78297969D01*
X120169374Y-77994923D02*
X119697969Y-77523519D01*
X119293908Y-78533671D01*
X87449518Y-64260853D02*
X88156625Y-63553747D01*
X87988266Y-63385388D01*
X87853579Y-63318044D01*
X87718892Y-63318044D01*
X87617877Y-63351716D01*
X87449518Y-63452731D01*
X87348503Y-63553747D01*
X87247488Y-63722105D01*
X87213816Y-63823121D01*
X87213816Y-63957808D01*
X87281159Y-64092495D01*
X87449518Y-64260853D01*
X86372022Y-63183357D02*
X86776083Y-63587418D01*
X86574052Y-63385388D02*
X87281159Y-62678281D01*
X87247488Y-62846640D01*
X87247488Y-62981327D01*
X87281159Y-63082342D01*
X83449518Y-64260853D02*
X84156625Y-63553747D01*
X83988266Y-63385388D01*
X83853579Y-63318044D01*
X83718892Y-63318044D01*
X83617877Y-63351716D01*
X83449518Y-63452731D01*
X83348503Y-63553747D01*
X83247488Y-63722105D01*
X83213816Y-63823121D01*
X83213816Y-63957808D01*
X83281159Y-64092495D01*
X83449518Y-64260853D01*
X83415846Y-62947655D02*
X83415846Y-62880311D01*
X83382175Y-62779296D01*
X83213816Y-62610937D01*
X83112800Y-62577266D01*
X83045457Y-62577266D01*
X82944442Y-62610937D01*
X82877098Y-62678281D01*
X82809755Y-62812968D01*
X82809755Y-63621090D01*
X82372022Y-63183357D01*
X79449518Y-64260853D02*
X80156625Y-63553747D01*
X79988266Y-63385388D01*
X79853579Y-63318044D01*
X79718892Y-63318044D01*
X79617877Y-63351716D01*
X79449518Y-63452731D01*
X79348503Y-63553747D01*
X79247488Y-63722105D01*
X79213816Y-63823121D01*
X79213816Y-63957808D01*
X79281159Y-64092495D01*
X79449518Y-64260853D01*
X79516862Y-62913983D02*
X79079129Y-62476250D01*
X79045457Y-62981327D01*
X78944442Y-62880311D01*
X78843426Y-62846640D01*
X78776083Y-62846640D01*
X78675068Y-62880311D01*
X78506709Y-63048670D01*
X78473037Y-63149685D01*
X78473037Y-63217029D01*
X78506709Y-63318044D01*
X78708739Y-63520075D01*
X78809755Y-63553747D01*
X78877098Y-63553747D01*
X75449518Y-64310853D02*
X76156625Y-63603747D01*
X75988266Y-63435388D01*
X75853579Y-63368044D01*
X75718892Y-63368044D01*
X75617877Y-63401716D01*
X75449518Y-63502731D01*
X75348503Y-63603747D01*
X75247488Y-63772105D01*
X75213816Y-63873121D01*
X75213816Y-64007808D01*
X75281159Y-64142495D01*
X75449518Y-64310853D01*
X74910770Y-62829296D02*
X74439365Y-63300701D01*
X75348503Y-62728281D02*
X75011785Y-63401716D01*
X74574052Y-62963983D01*
X71449518Y-64260853D02*
X72156625Y-63553747D01*
X71988266Y-63385388D01*
X71853579Y-63318044D01*
X71718892Y-63318044D01*
X71617877Y-63351716D01*
X71449518Y-63452731D01*
X71348503Y-63553747D01*
X71247488Y-63722105D01*
X71213816Y-63823121D01*
X71213816Y-63957808D01*
X71281159Y-64092495D01*
X71449518Y-64260853D01*
X71112800Y-62509922D02*
X71449518Y-62846640D01*
X71146472Y-63217029D01*
X71146472Y-63149685D01*
X71112800Y-63048670D01*
X70944442Y-62880311D01*
X70843426Y-62846640D01*
X70776083Y-62846640D01*
X70675068Y-62880311D01*
X70506709Y-63048670D01*
X70473037Y-63149685D01*
X70473037Y-63217029D01*
X70506709Y-63318044D01*
X70675068Y-63486403D01*
X70776083Y-63520075D01*
X70843426Y-63520075D01*
X84341793Y-77297969D02*
X83634687Y-76590862D01*
X83466328Y-76759221D01*
X83398984Y-76893908D01*
X83398984Y-77028595D01*
X83432656Y-77129610D01*
X83533671Y-77297969D01*
X83634687Y-77398984D01*
X83803045Y-77500000D01*
X83904061Y-77533671D01*
X84038748Y-77533671D01*
X84173435Y-77466328D01*
X84341793Y-77297969D01*
X82624534Y-77601015D02*
X82759221Y-77466328D01*
X82860236Y-77432656D01*
X82927580Y-77432656D01*
X83095938Y-77466328D01*
X83264297Y-77567343D01*
X83533671Y-77836717D01*
X83567343Y-77937732D01*
X83567343Y-78005076D01*
X83533671Y-78106091D01*
X83398984Y-78240778D01*
X83297969Y-78274450D01*
X83230625Y-78274450D01*
X83129610Y-78240778D01*
X82961251Y-78072419D01*
X82927580Y-77971404D01*
X82927580Y-77904061D01*
X82961251Y-77803045D01*
X83095938Y-77668358D01*
X83196954Y-77634687D01*
X83264297Y-77634687D01*
X83365312Y-77668358D01*
X80341793Y-77297969D02*
X79634687Y-76590862D01*
X79466328Y-76759221D01*
X79398984Y-76893908D01*
X79398984Y-77028595D01*
X79432656Y-77129610D01*
X79533671Y-77297969D01*
X79634687Y-77398984D01*
X79803045Y-77500000D01*
X79904061Y-77533671D01*
X80038748Y-77533671D01*
X80173435Y-77466328D01*
X80341793Y-77297969D01*
X78994923Y-77230625D02*
X78523519Y-77702030D01*
X79533671Y-78106091D01*
X76341793Y-77297969D02*
X75634687Y-76590862D01*
X75466328Y-76759221D01*
X75398984Y-76893908D01*
X75398984Y-77028595D01*
X75432656Y-77129610D01*
X75533671Y-77297969D01*
X75634687Y-77398984D01*
X75803045Y-77500000D01*
X75904061Y-77533671D01*
X76038748Y-77533671D01*
X76173435Y-77466328D01*
X76341793Y-77297969D01*
X75129610Y-77702030D02*
X75163282Y-77601015D01*
X75163282Y-77533671D01*
X75129610Y-77432656D01*
X75095938Y-77398984D01*
X74994923Y-77365312D01*
X74927580Y-77365312D01*
X74826564Y-77398984D01*
X74691877Y-77533671D01*
X74658206Y-77634687D01*
X74658206Y-77702030D01*
X74691877Y-77803045D01*
X74725549Y-77836717D01*
X74826564Y-77870389D01*
X74893908Y-77870389D01*
X74994923Y-77836717D01*
X75129610Y-77702030D01*
X75230625Y-77668358D01*
X75297969Y-77668358D01*
X75398984Y-77702030D01*
X75533671Y-77836717D01*
X75567343Y-77937732D01*
X75567343Y-78005076D01*
X75533671Y-78106091D01*
X75398984Y-78240778D01*
X75297969Y-78274450D01*
X75230625Y-78274450D01*
X75129610Y-78240778D01*
X74994923Y-78106091D01*
X74961251Y-78005076D01*
X74961251Y-77937732D01*
X74994923Y-77836717D01*
X72341793Y-77297969D02*
X71634687Y-76590862D01*
X71466328Y-76759221D01*
X71398984Y-76893908D01*
X71398984Y-77028595D01*
X71432656Y-77129610D01*
X71533671Y-77297969D01*
X71634687Y-77398984D01*
X71803045Y-77500000D01*
X71904061Y-77533671D01*
X72038748Y-77533671D01*
X72173435Y-77466328D01*
X72341793Y-77297969D01*
X71601015Y-78038748D02*
X71466328Y-78173435D01*
X71365312Y-78207106D01*
X71297969Y-78207106D01*
X71129610Y-78173435D01*
X70961251Y-78072419D01*
X70691877Y-77803045D01*
X70658206Y-77702030D01*
X70658206Y-77634687D01*
X70691877Y-77533671D01*
X70826564Y-77398984D01*
X70927580Y-77365312D01*
X70994923Y-77365312D01*
X71095938Y-77398984D01*
X71264297Y-77567343D01*
X71297969Y-77668358D01*
X71297969Y-77735702D01*
X71264297Y-77836717D01*
X71129610Y-77971404D01*
X71028595Y-78005076D01*
X70961251Y-78005076D01*
X70860236Y-77971404D01*
X68178511Y-77461251D02*
X67471404Y-76754145D01*
X67303045Y-76922503D01*
X67235702Y-77057190D01*
X67235702Y-77191877D01*
X67269374Y-77292893D01*
X67370389Y-77461251D01*
X67471404Y-77562267D01*
X67639763Y-77663282D01*
X67740778Y-77696954D01*
X67875465Y-77696954D01*
X68010152Y-77629610D01*
X68178511Y-77461251D01*
X67101015Y-78538748D02*
X67505076Y-78134687D01*
X67303045Y-78336717D02*
X66595938Y-77629610D01*
X66764297Y-77663282D01*
X66898984Y-77663282D01*
X67000000Y-77629610D01*
X65956175Y-78269374D02*
X65888832Y-78336717D01*
X65855160Y-78437732D01*
X65855160Y-78505076D01*
X65888832Y-78606091D01*
X65989847Y-78774450D01*
X66158206Y-78942809D01*
X66326564Y-79043824D01*
X66427580Y-79077496D01*
X66494923Y-79077496D01*
X66595938Y-79043824D01*
X66663282Y-78976480D01*
X66696954Y-78875465D01*
X66696954Y-78808122D01*
X66663282Y-78707106D01*
X66562267Y-78538748D01*
X66393908Y-78370389D01*
X66225549Y-78269374D01*
X66124534Y-78235702D01*
X66057190Y-78235702D01*
X65956175Y-78269374D01*
X144373214Y-46434880D02*
X144373214Y-45434880D01*
X144039880Y-46149166D01*
X143706547Y-45434880D01*
X143706547Y-46434880D01*
X143325595Y-45434880D02*
X142658928Y-46434880D01*
X142658928Y-45434880D02*
X143325595Y-46434880D01*
X141754166Y-46434880D02*
X142325595Y-46434880D01*
X142039880Y-46434880D02*
X142039880Y-45434880D01*
X142135119Y-45577738D01*
X142230357Y-45672976D01*
X142325595Y-45720595D01*
X125566727Y-46434880D02*
X125566727Y-45434880D01*
X125233393Y-46149166D01*
X124900060Y-45434880D01*
X124900060Y-46434880D01*
X124519108Y-45434880D02*
X123852441Y-46434880D01*
X123852441Y-45434880D02*
X124519108Y-46434880D01*
X123519108Y-45530119D02*
X123471489Y-45482500D01*
X123376251Y-45434880D01*
X123138155Y-45434880D01*
X123042917Y-45482500D01*
X122995298Y-45530119D01*
X122947679Y-45625357D01*
X122947679Y-45720595D01*
X122995298Y-45863452D01*
X123566727Y-46434880D01*
X122947679Y-46434880D01*
X106273214Y-46434880D02*
X106273214Y-45434880D01*
X105939880Y-46149166D01*
X105606547Y-45434880D01*
X105606547Y-46434880D01*
X105225595Y-45434880D02*
X104558928Y-46434880D01*
X104558928Y-45434880D02*
X105225595Y-46434880D01*
X104273214Y-45434880D02*
X103654166Y-45434880D01*
X103987500Y-45815833D01*
X103844642Y-45815833D01*
X103749404Y-45863452D01*
X103701785Y-45911071D01*
X103654166Y-46006309D01*
X103654166Y-46244404D01*
X103701785Y-46339642D01*
X103749404Y-46387261D01*
X103844642Y-46434880D01*
X104130357Y-46434880D01*
X104225595Y-46387261D01*
X104273214Y-46339642D01*
X87223214Y-46434880D02*
X87223214Y-45434880D01*
X86889880Y-46149166D01*
X86556547Y-45434880D01*
X86556547Y-46434880D01*
X86175595Y-45434880D02*
X85508928Y-46434880D01*
X85508928Y-45434880D02*
X86175595Y-46434880D01*
X84699404Y-45768214D02*
X84699404Y-46434880D01*
X84937500Y-45387261D02*
X85175595Y-46101547D01*
X84556547Y-46101547D01*
X68173214Y-46434880D02*
X68173214Y-45434880D01*
X67839880Y-46149166D01*
X67506547Y-45434880D01*
X67506547Y-46434880D01*
X67125595Y-45434880D02*
X66458928Y-46434880D01*
X66458928Y-45434880D02*
X67125595Y-46434880D01*
X65601785Y-45434880D02*
X66077976Y-45434880D01*
X66125595Y-45911071D01*
X66077976Y-45863452D01*
X65982738Y-45815833D01*
X65744642Y-45815833D01*
X65649404Y-45863452D01*
X65601785Y-45911071D01*
X65554166Y-46006309D01*
X65554166Y-46244404D01*
X65601785Y-46339642D01*
X65649404Y-46387261D01*
X65744642Y-46434880D01*
X65982738Y-46434880D01*
X66077976Y-46387261D01*
X66125595Y-46339642D01*
X144616728Y-94459933D02*
X144616728Y-93459933D01*
X144283394Y-94174219D01*
X143950061Y-93459933D01*
X143950061Y-94459933D01*
X143569109Y-93459933D02*
X142902442Y-94459933D01*
X142902442Y-93459933D02*
X143569109Y-94459933D01*
X142092918Y-93459933D02*
X142283394Y-93459933D01*
X142378633Y-93507553D01*
X142426252Y-93555172D01*
X142521490Y-93698029D01*
X142569109Y-93888505D01*
X142569109Y-94269457D01*
X142521490Y-94364695D01*
X142473871Y-94412314D01*
X142378633Y-94459933D01*
X142188156Y-94459933D01*
X142092918Y-94412314D01*
X142045299Y-94364695D01*
X141997680Y-94269457D01*
X141997680Y-94031362D01*
X142045299Y-93936124D01*
X142092918Y-93888505D01*
X142188156Y-93840886D01*
X142378633Y-93840886D01*
X142473871Y-93888505D01*
X142521490Y-93936124D01*
X142569109Y-94031362D01*
X106273214Y-94459934D02*
X106273214Y-93459934D01*
X105939880Y-94174220D01*
X105606547Y-93459934D01*
X105606547Y-94459934D01*
X105225595Y-93459934D02*
X104558928Y-94459934D01*
X104558928Y-93459934D02*
X105225595Y-94459934D01*
X104035119Y-93888506D02*
X104130357Y-93840887D01*
X104177976Y-93793268D01*
X104225595Y-93698030D01*
X104225595Y-93650411D01*
X104177976Y-93555173D01*
X104130357Y-93507554D01*
X104035119Y-93459934D01*
X103844642Y-93459934D01*
X103749404Y-93507554D01*
X103701785Y-93555173D01*
X103654166Y-93650411D01*
X103654166Y-93698030D01*
X103701785Y-93793268D01*
X103749404Y-93840887D01*
X103844642Y-93888506D01*
X104035119Y-93888506D01*
X104130357Y-93936125D01*
X104177976Y-93983744D01*
X104225595Y-94078982D01*
X104225595Y-94269458D01*
X104177976Y-94364696D01*
X104130357Y-94412315D01*
X104035119Y-94459934D01*
X103844642Y-94459934D01*
X103749404Y-94412315D01*
X103701785Y-94364696D01*
X103654166Y-94269458D01*
X103654166Y-94078982D01*
X103701785Y-93983744D01*
X103749404Y-93936125D01*
X103844642Y-93888506D01*
X87466727Y-94459933D02*
X87466727Y-93459933D01*
X87133393Y-94174219D01*
X86800060Y-93459933D01*
X86800060Y-94459933D01*
X86419108Y-93459933D02*
X85752441Y-94459933D01*
X85752441Y-93459933D02*
X86419108Y-94459933D01*
X85323870Y-94459933D02*
X85133393Y-94459933D01*
X85038155Y-94412314D01*
X84990536Y-94364695D01*
X84895298Y-94221838D01*
X84847679Y-94031362D01*
X84847679Y-93650410D01*
X84895298Y-93555172D01*
X84942917Y-93507553D01*
X85038155Y-93459933D01*
X85228632Y-93459933D01*
X85323870Y-93507553D01*
X85371489Y-93555172D01*
X85419108Y-93650410D01*
X85419108Y-93888505D01*
X85371489Y-93983743D01*
X85323870Y-94031362D01*
X85228632Y-94078981D01*
X85038155Y-94078981D01*
X84942917Y-94031362D01*
X84895298Y-93983743D01*
X84847679Y-93888505D01*
X68649404Y-94459934D02*
X68649404Y-93459934D01*
X68316071Y-94174220D01*
X67982738Y-93459934D01*
X67982738Y-94459934D01*
X67601785Y-93459934D02*
X66935119Y-94459934D01*
X66935119Y-93459934D02*
X67601785Y-94459934D01*
X66030357Y-94459934D02*
X66601785Y-94459934D01*
X66316071Y-94459934D02*
X66316071Y-93459934D01*
X66411309Y-93602792D01*
X66506547Y-93698030D01*
X66601785Y-93745649D01*
X65411309Y-93459934D02*
X65316071Y-93459934D01*
X65220833Y-93507554D01*
X65173214Y-93555173D01*
X65125595Y-93650411D01*
X65077976Y-93840887D01*
X65077976Y-94078982D01*
X65125595Y-94269458D01*
X65173214Y-94364696D01*
X65220833Y-94412315D01*
X65316071Y-94459934D01*
X65411309Y-94459934D01*
X65506547Y-94412315D01*
X65554166Y-94364696D01*
X65601785Y-94269458D01*
X65649404Y-94078982D01*
X65649404Y-93840887D01*
X65601785Y-93650411D01*
X65554166Y-93555173D01*
X65506547Y-93507554D01*
X65411309Y-93459934D01*
X144666666Y-77052380D02*
X145000000Y-76576190D01*
X145238095Y-77052380D02*
X145238095Y-76052380D01*
X144857142Y-76052380D01*
X144761904Y-76100000D01*
X144714285Y-76147619D01*
X144666666Y-76242857D01*
X144666666Y-76385714D01*
X144714285Y-76480952D01*
X144761904Y-76528571D01*
X144857142Y-76576190D01*
X145238095Y-76576190D01*
X143714285Y-77052380D02*
X144285714Y-77052380D01*
X144000000Y-77052380D02*
X144000000Y-76052380D01*
X144095238Y-76195238D01*
X144190476Y-76290476D01*
X144285714Y-76338095D01*
X144666666Y-81852380D02*
X145000000Y-81376190D01*
X145238095Y-81852380D02*
X145238095Y-80852380D01*
X144857142Y-80852380D01*
X144761904Y-80900000D01*
X144714285Y-80947619D01*
X144666666Y-81042857D01*
X144666666Y-81185714D01*
X144714285Y-81280952D01*
X144761904Y-81328571D01*
X144857142Y-81376190D01*
X145238095Y-81376190D01*
X144285714Y-80947619D02*
X144238095Y-80900000D01*
X144142857Y-80852380D01*
X143904761Y-80852380D01*
X143809523Y-80900000D01*
X143761904Y-80947619D01*
X143714285Y-81042857D01*
X143714285Y-81138095D01*
X143761904Y-81280952D01*
X144333333Y-81852380D01*
X143714285Y-81852380D01*
X144666666Y-78652380D02*
X145000000Y-78176190D01*
X145238095Y-78652380D02*
X145238095Y-77652380D01*
X144857142Y-77652380D01*
X144761904Y-77700000D01*
X144714285Y-77747619D01*
X144666666Y-77842857D01*
X144666666Y-77985714D01*
X144714285Y-78080952D01*
X144761904Y-78128571D01*
X144857142Y-78176190D01*
X145238095Y-78176190D01*
X144333333Y-77652380D02*
X143714285Y-77652380D01*
X144047619Y-78033333D01*
X143904761Y-78033333D01*
X143809523Y-78080952D01*
X143761904Y-78128571D01*
X143714285Y-78223809D01*
X143714285Y-78461904D01*
X143761904Y-78557142D01*
X143809523Y-78604761D01*
X143904761Y-78652380D01*
X144190476Y-78652380D01*
X144285714Y-78604761D01*
X144333333Y-78557142D01*
X144666666Y-80352380D02*
X145000000Y-79876190D01*
X145238095Y-80352380D02*
X145238095Y-79352380D01*
X144857142Y-79352380D01*
X144761904Y-79400000D01*
X144714285Y-79447619D01*
X144666666Y-79542857D01*
X144666666Y-79685714D01*
X144714285Y-79780952D01*
X144761904Y-79828571D01*
X144857142Y-79876190D01*
X145238095Y-79876190D01*
X143809523Y-79685714D02*
X143809523Y-80352380D01*
X144047619Y-79304761D02*
X144285714Y-80019047D01*
X143666666Y-80019047D01*
X118168088Y-77830177D02*
X118740508Y-77729162D01*
X118572149Y-78234238D02*
X119279256Y-77527132D01*
X119009882Y-77257757D01*
X118908867Y-77224086D01*
X118841523Y-77224086D01*
X118740508Y-77257757D01*
X118639493Y-77358773D01*
X118605821Y-77459788D01*
X118605821Y-77527132D01*
X118639493Y-77628147D01*
X118908867Y-77897521D01*
X118235431Y-76483307D02*
X118572149Y-76820025D01*
X118269103Y-77190414D01*
X118269103Y-77123070D01*
X118235431Y-77022055D01*
X118067073Y-76853696D01*
X117966057Y-76820025D01*
X117898714Y-76820025D01*
X117797699Y-76853696D01*
X117629340Y-77022055D01*
X117595668Y-77123070D01*
X117595668Y-77190414D01*
X117629340Y-77291429D01*
X117797699Y-77459788D01*
X117898714Y-77493460D01*
X117966057Y-77493460D01*
X131230177Y-77531911D02*
X131129162Y-76959491D01*
X131634238Y-77127850D02*
X130927132Y-76420743D01*
X130657757Y-76690117D01*
X130624086Y-76791132D01*
X130624086Y-76858476D01*
X130657757Y-76959491D01*
X130758773Y-77060506D01*
X130859788Y-77094178D01*
X130927132Y-77094178D01*
X131028147Y-77060506D01*
X131297521Y-76791132D01*
X129916979Y-77430896D02*
X130051666Y-77296209D01*
X130152681Y-77262537D01*
X130220025Y-77262537D01*
X130388383Y-77296209D01*
X130556742Y-77397224D01*
X130826116Y-77666598D01*
X130859788Y-77767613D01*
X130859788Y-77834957D01*
X130826116Y-77935972D01*
X130691429Y-78070659D01*
X130590414Y-78104331D01*
X130523070Y-78104331D01*
X130422055Y-78070659D01*
X130253696Y-77902300D01*
X130220025Y-77801285D01*
X130220025Y-77733942D01*
X130253696Y-77632926D01*
X130388383Y-77498239D01*
X130489399Y-77464568D01*
X130556742Y-77464568D01*
X130657757Y-77498239D01*
X99104761Y-79166665D02*
X99152380Y-79309522D01*
X99152380Y-79547618D01*
X99104761Y-79642856D01*
X99057142Y-79690475D01*
X98961904Y-79738094D01*
X98866666Y-79738094D01*
X98771428Y-79690475D01*
X98723809Y-79642856D01*
X98676190Y-79547618D01*
X98628571Y-79357141D01*
X98580952Y-79261903D01*
X98533333Y-79214284D01*
X98438095Y-79166665D01*
X98342857Y-79166665D01*
X98247619Y-79214284D01*
X98200000Y-79261903D01*
X98152380Y-79357141D01*
X98152380Y-79595237D01*
X98200000Y-79738094D01*
X98152380Y-80071427D02*
X99152380Y-80309522D01*
X98438095Y-80499999D01*
X99152380Y-80690475D01*
X98152380Y-80928570D01*
X99152380Y-81833332D02*
X99152380Y-81261903D01*
X99152380Y-81547618D02*
X98152380Y-81547618D01*
X98295238Y-81452379D01*
X98390476Y-81357141D01*
X98438095Y-81261903D01*
X123151073Y-75828248D02*
X123487791Y-76164966D01*
X123016386Y-75222157D02*
X123151073Y-75828248D01*
X122544982Y-75693561D01*
X122645997Y-77006759D02*
X123050058Y-76602698D01*
X122848027Y-76804729D02*
X122140921Y-76097622D01*
X122309279Y-76131294D01*
X122443966Y-76131294D01*
X122544982Y-76097622D01*
M02*
