M48
; DRILL file {KiCad (5.1.5)-3} date 02.05.2020 19:50:44
; FORMAT={3:3/ absolute / metric / suppress leading zeros}
; #@! TF.CreationDate,2020-05-02T19:50:44+02:00
; #@! TF.GenerationSoftware,Kicad,Pcbnew,(5.1.5)-3
; #@! TF.FileFunction,NonPlated,1,2,NPTH
FMAT,2
METRIC,TZ
T1C0.650
T2C1.702
T3C3.000
T4C3.988
%
G90
G05
T1
X149400Y-76110
X149400Y-81890
T2
X138251Y-85753
X148411Y-85753
X119201Y-54238
X129361Y-54238
X80858Y-54238
X91018Y-54238
X119201Y-85753
X129361Y-85753
X61807Y-85753
X71968Y-85753
X99908Y-54238
X110068Y-54238
X138007Y-54238
X148168Y-54238
X61807Y-54238
X71968Y-54238
X81101Y-85753
X91261Y-85753
X99908Y-85753
X110068Y-85753
T3
X102448Y-90833
X108798Y-88293
X140791Y-90833
X147141Y-88293
X120471Y-51698
X126821Y-49158
X82128Y-51698
X88477Y-49158
X121741Y-90833
X128091Y-88293
X64347Y-90833
X70697Y-88293
X101178Y-51698
X107527Y-49158
X139278Y-51698
X145628Y-49158
X63078Y-51698
X69428Y-49158
X83641Y-90833
X89991Y-88293
T4
X104988Y-54238
X104988Y-85753
X124281Y-54238
X85938Y-54238
X124281Y-85753
X143088Y-54238
X86181Y-85753
X143331Y-85753
X66888Y-85753
X66888Y-54238
T0
M30
