G04 #@! TF.GenerationSoftware,KiCad,Pcbnew,(5.1.5)-3*
G04 #@! TF.CreationDate,2020-05-02T19:50:40+02:00*
G04 #@! TF.ProjectId,kyrremann,6b797272-656d-4616-9e6e-2e6b69636164,rev?*
G04 #@! TF.SameCoordinates,Original*
G04 #@! TF.FileFunction,Paste,Bot*
G04 #@! TF.FilePolarity,Positive*
%FSLAX46Y46*%
G04 Gerber Fmt 4.6, Leading zero omitted, Abs format (unit mm)*
G04 Created by KiCad (PCBNEW (5.1.5)-3) date 2020-05-02 19:50:40*
%MOMM*%
%LPD*%
G04 APERTURE LIST*
%ADD10R,2.550000X2.500000*%
%ADD11R,1.450000X0.600000*%
%ADD12R,1.450000X0.300000*%
%ADD13C,0.100000*%
%ADD14R,1.500000X1.500000*%
G04 APERTURE END LIST*
D10*
X117991013Y-90832554D03*
X131841013Y-88292554D03*
D11*
X147955000Y-82250000D03*
X147955000Y-81450000D03*
X147955000Y-76550000D03*
X147955000Y-75750000D03*
X147955000Y-75750000D03*
X147955000Y-76550000D03*
X147955000Y-81450000D03*
X147955000Y-82250000D03*
D12*
X147955000Y-77250000D03*
X147955000Y-77750000D03*
X147955000Y-78250000D03*
X147955000Y-79250000D03*
X147955000Y-79750000D03*
X147955000Y-80250000D03*
X147955000Y-80750000D03*
X147955000Y-78750000D03*
D13*
G36*
X134071291Y-80789452D02*
G01*
X134077358Y-80790352D01*
X134083308Y-80791842D01*
X134089083Y-80793909D01*
X134094627Y-80796531D01*
X134099888Y-80799684D01*
X134104815Y-80803338D01*
X134109359Y-80807457D01*
X134639689Y-81337787D01*
X134643808Y-81342331D01*
X134647462Y-81347258D01*
X134650615Y-81352519D01*
X134653237Y-81358063D01*
X134655304Y-81363838D01*
X134656794Y-81369788D01*
X134657694Y-81375855D01*
X134657995Y-81381981D01*
X134657694Y-81388107D01*
X134656794Y-81394174D01*
X134655304Y-81400124D01*
X134653237Y-81405899D01*
X134650615Y-81411443D01*
X134647462Y-81416704D01*
X134643808Y-81421631D01*
X134639689Y-81426175D01*
X134551301Y-81514563D01*
X134546757Y-81518682D01*
X134541830Y-81522336D01*
X134536569Y-81525489D01*
X134531025Y-81528111D01*
X134525250Y-81530178D01*
X134519300Y-81531668D01*
X134513233Y-81532568D01*
X134507107Y-81532869D01*
X134500981Y-81532568D01*
X134494914Y-81531668D01*
X134488964Y-81530178D01*
X134483189Y-81528111D01*
X134477645Y-81525489D01*
X134472384Y-81522336D01*
X134467457Y-81518682D01*
X134462913Y-81514563D01*
X133932583Y-80984233D01*
X133928464Y-80979689D01*
X133924810Y-80974762D01*
X133921657Y-80969501D01*
X133919035Y-80963957D01*
X133916968Y-80958182D01*
X133915478Y-80952232D01*
X133914578Y-80946165D01*
X133914277Y-80940039D01*
X133914578Y-80933913D01*
X133915478Y-80927846D01*
X133916968Y-80921896D01*
X133919035Y-80916121D01*
X133921657Y-80910577D01*
X133924810Y-80905316D01*
X133928464Y-80900389D01*
X133932583Y-80895845D01*
X134020971Y-80807457D01*
X134025515Y-80803338D01*
X134030442Y-80799684D01*
X134035703Y-80796531D01*
X134041247Y-80793909D01*
X134047022Y-80791842D01*
X134052972Y-80790352D01*
X134059039Y-80789452D01*
X134065165Y-80789151D01*
X134071291Y-80789452D01*
G37*
G36*
X134424844Y-80435898D02*
G01*
X134430911Y-80436798D01*
X134436861Y-80438288D01*
X134442636Y-80440355D01*
X134448180Y-80442977D01*
X134453441Y-80446130D01*
X134458368Y-80449784D01*
X134462912Y-80453903D01*
X134993242Y-80984233D01*
X134997361Y-80988777D01*
X135001015Y-80993704D01*
X135004168Y-80998965D01*
X135006790Y-81004509D01*
X135008857Y-81010284D01*
X135010347Y-81016234D01*
X135011247Y-81022301D01*
X135011548Y-81028427D01*
X135011247Y-81034553D01*
X135010347Y-81040620D01*
X135008857Y-81046570D01*
X135006790Y-81052345D01*
X135004168Y-81057889D01*
X135001015Y-81063150D01*
X134997361Y-81068077D01*
X134993242Y-81072621D01*
X134904854Y-81161009D01*
X134900310Y-81165128D01*
X134895383Y-81168782D01*
X134890122Y-81171935D01*
X134884578Y-81174557D01*
X134878803Y-81176624D01*
X134872853Y-81178114D01*
X134866786Y-81179014D01*
X134860660Y-81179315D01*
X134854534Y-81179014D01*
X134848467Y-81178114D01*
X134842517Y-81176624D01*
X134836742Y-81174557D01*
X134831198Y-81171935D01*
X134825937Y-81168782D01*
X134821010Y-81165128D01*
X134816466Y-81161009D01*
X134286136Y-80630679D01*
X134282017Y-80626135D01*
X134278363Y-80621208D01*
X134275210Y-80615947D01*
X134272588Y-80610403D01*
X134270521Y-80604628D01*
X134269031Y-80598678D01*
X134268131Y-80592611D01*
X134267830Y-80586485D01*
X134268131Y-80580359D01*
X134269031Y-80574292D01*
X134270521Y-80568342D01*
X134272588Y-80562567D01*
X134275210Y-80557023D01*
X134278363Y-80551762D01*
X134282017Y-80546835D01*
X134286136Y-80542291D01*
X134374524Y-80453903D01*
X134379068Y-80449784D01*
X134383995Y-80446130D01*
X134389256Y-80442977D01*
X134394800Y-80440355D01*
X134400575Y-80438288D01*
X134406525Y-80436798D01*
X134412592Y-80435898D01*
X134418718Y-80435597D01*
X134424844Y-80435898D01*
G37*
G36*
X134778398Y-80082345D02*
G01*
X134784465Y-80083245D01*
X134790415Y-80084735D01*
X134796190Y-80086802D01*
X134801734Y-80089424D01*
X134806995Y-80092577D01*
X134811922Y-80096231D01*
X134816466Y-80100350D01*
X135346796Y-80630680D01*
X135350915Y-80635224D01*
X135354569Y-80640151D01*
X135357722Y-80645412D01*
X135360344Y-80650956D01*
X135362411Y-80656731D01*
X135363901Y-80662681D01*
X135364801Y-80668748D01*
X135365102Y-80674874D01*
X135364801Y-80681000D01*
X135363901Y-80687067D01*
X135362411Y-80693017D01*
X135360344Y-80698792D01*
X135357722Y-80704336D01*
X135354569Y-80709597D01*
X135350915Y-80714524D01*
X135346796Y-80719068D01*
X135258408Y-80807456D01*
X135253864Y-80811575D01*
X135248937Y-80815229D01*
X135243676Y-80818382D01*
X135238132Y-80821004D01*
X135232357Y-80823071D01*
X135226407Y-80824561D01*
X135220340Y-80825461D01*
X135214214Y-80825762D01*
X135208088Y-80825461D01*
X135202021Y-80824561D01*
X135196071Y-80823071D01*
X135190296Y-80821004D01*
X135184752Y-80818382D01*
X135179491Y-80815229D01*
X135174564Y-80811575D01*
X135170020Y-80807456D01*
X134639690Y-80277126D01*
X134635571Y-80272582D01*
X134631917Y-80267655D01*
X134628764Y-80262394D01*
X134626142Y-80256850D01*
X134624075Y-80251075D01*
X134622585Y-80245125D01*
X134621685Y-80239058D01*
X134621384Y-80232932D01*
X134621685Y-80226806D01*
X134622585Y-80220739D01*
X134624075Y-80214789D01*
X134626142Y-80209014D01*
X134628764Y-80203470D01*
X134631917Y-80198209D01*
X134635571Y-80193282D01*
X134639690Y-80188738D01*
X134728078Y-80100350D01*
X134732622Y-80096231D01*
X134737549Y-80092577D01*
X134742810Y-80089424D01*
X134748354Y-80086802D01*
X134754129Y-80084735D01*
X134760079Y-80083245D01*
X134766146Y-80082345D01*
X134772272Y-80082044D01*
X134778398Y-80082345D01*
G37*
G36*
X135131951Y-79728791D02*
G01*
X135138018Y-79729691D01*
X135143968Y-79731181D01*
X135149743Y-79733248D01*
X135155287Y-79735870D01*
X135160548Y-79739023D01*
X135165475Y-79742677D01*
X135170019Y-79746796D01*
X135700349Y-80277126D01*
X135704468Y-80281670D01*
X135708122Y-80286597D01*
X135711275Y-80291858D01*
X135713897Y-80297402D01*
X135715964Y-80303177D01*
X135717454Y-80309127D01*
X135718354Y-80315194D01*
X135718655Y-80321320D01*
X135718354Y-80327446D01*
X135717454Y-80333513D01*
X135715964Y-80339463D01*
X135713897Y-80345238D01*
X135711275Y-80350782D01*
X135708122Y-80356043D01*
X135704468Y-80360970D01*
X135700349Y-80365514D01*
X135611961Y-80453902D01*
X135607417Y-80458021D01*
X135602490Y-80461675D01*
X135597229Y-80464828D01*
X135591685Y-80467450D01*
X135585910Y-80469517D01*
X135579960Y-80471007D01*
X135573893Y-80471907D01*
X135567767Y-80472208D01*
X135561641Y-80471907D01*
X135555574Y-80471007D01*
X135549624Y-80469517D01*
X135543849Y-80467450D01*
X135538305Y-80464828D01*
X135533044Y-80461675D01*
X135528117Y-80458021D01*
X135523573Y-80453902D01*
X134993243Y-79923572D01*
X134989124Y-79919028D01*
X134985470Y-79914101D01*
X134982317Y-79908840D01*
X134979695Y-79903296D01*
X134977628Y-79897521D01*
X134976138Y-79891571D01*
X134975238Y-79885504D01*
X134974937Y-79879378D01*
X134975238Y-79873252D01*
X134976138Y-79867185D01*
X134977628Y-79861235D01*
X134979695Y-79855460D01*
X134982317Y-79849916D01*
X134985470Y-79844655D01*
X134989124Y-79839728D01*
X134993243Y-79835184D01*
X135081631Y-79746796D01*
X135086175Y-79742677D01*
X135091102Y-79739023D01*
X135096363Y-79735870D01*
X135101907Y-79733248D01*
X135107682Y-79731181D01*
X135113632Y-79729691D01*
X135119699Y-79728791D01*
X135125825Y-79728490D01*
X135131951Y-79728791D01*
G37*
G36*
X135485504Y-79375238D02*
G01*
X135491571Y-79376138D01*
X135497521Y-79377628D01*
X135503296Y-79379695D01*
X135508840Y-79382317D01*
X135514101Y-79385470D01*
X135519028Y-79389124D01*
X135523572Y-79393243D01*
X136053902Y-79923573D01*
X136058021Y-79928117D01*
X136061675Y-79933044D01*
X136064828Y-79938305D01*
X136067450Y-79943849D01*
X136069517Y-79949624D01*
X136071007Y-79955574D01*
X136071907Y-79961641D01*
X136072208Y-79967767D01*
X136071907Y-79973893D01*
X136071007Y-79979960D01*
X136069517Y-79985910D01*
X136067450Y-79991685D01*
X136064828Y-79997229D01*
X136061675Y-80002490D01*
X136058021Y-80007417D01*
X136053902Y-80011961D01*
X135965514Y-80100349D01*
X135960970Y-80104468D01*
X135956043Y-80108122D01*
X135950782Y-80111275D01*
X135945238Y-80113897D01*
X135939463Y-80115964D01*
X135933513Y-80117454D01*
X135927446Y-80118354D01*
X135921320Y-80118655D01*
X135915194Y-80118354D01*
X135909127Y-80117454D01*
X135903177Y-80115964D01*
X135897402Y-80113897D01*
X135891858Y-80111275D01*
X135886597Y-80108122D01*
X135881670Y-80104468D01*
X135877126Y-80100349D01*
X135346796Y-79570019D01*
X135342677Y-79565475D01*
X135339023Y-79560548D01*
X135335870Y-79555287D01*
X135333248Y-79549743D01*
X135331181Y-79543968D01*
X135329691Y-79538018D01*
X135328791Y-79531951D01*
X135328490Y-79525825D01*
X135328791Y-79519699D01*
X135329691Y-79513632D01*
X135331181Y-79507682D01*
X135333248Y-79501907D01*
X135335870Y-79496363D01*
X135339023Y-79491102D01*
X135342677Y-79486175D01*
X135346796Y-79481631D01*
X135435184Y-79393243D01*
X135439728Y-79389124D01*
X135444655Y-79385470D01*
X135449916Y-79382317D01*
X135455460Y-79379695D01*
X135461235Y-79377628D01*
X135467185Y-79376138D01*
X135473252Y-79375238D01*
X135479378Y-79374937D01*
X135485504Y-79375238D01*
G37*
G36*
X135839058Y-79021685D02*
G01*
X135845125Y-79022585D01*
X135851075Y-79024075D01*
X135856850Y-79026142D01*
X135862394Y-79028764D01*
X135867655Y-79031917D01*
X135872582Y-79035571D01*
X135877126Y-79039690D01*
X136407456Y-79570020D01*
X136411575Y-79574564D01*
X136415229Y-79579491D01*
X136418382Y-79584752D01*
X136421004Y-79590296D01*
X136423071Y-79596071D01*
X136424561Y-79602021D01*
X136425461Y-79608088D01*
X136425762Y-79614214D01*
X136425461Y-79620340D01*
X136424561Y-79626407D01*
X136423071Y-79632357D01*
X136421004Y-79638132D01*
X136418382Y-79643676D01*
X136415229Y-79648937D01*
X136411575Y-79653864D01*
X136407456Y-79658408D01*
X136319068Y-79746796D01*
X136314524Y-79750915D01*
X136309597Y-79754569D01*
X136304336Y-79757722D01*
X136298792Y-79760344D01*
X136293017Y-79762411D01*
X136287067Y-79763901D01*
X136281000Y-79764801D01*
X136274874Y-79765102D01*
X136268748Y-79764801D01*
X136262681Y-79763901D01*
X136256731Y-79762411D01*
X136250956Y-79760344D01*
X136245412Y-79757722D01*
X136240151Y-79754569D01*
X136235224Y-79750915D01*
X136230680Y-79746796D01*
X135700350Y-79216466D01*
X135696231Y-79211922D01*
X135692577Y-79206995D01*
X135689424Y-79201734D01*
X135686802Y-79196190D01*
X135684735Y-79190415D01*
X135683245Y-79184465D01*
X135682345Y-79178398D01*
X135682044Y-79172272D01*
X135682345Y-79166146D01*
X135683245Y-79160079D01*
X135684735Y-79154129D01*
X135686802Y-79148354D01*
X135689424Y-79142810D01*
X135692577Y-79137549D01*
X135696231Y-79132622D01*
X135700350Y-79128078D01*
X135788738Y-79039690D01*
X135793282Y-79035571D01*
X135798209Y-79031917D01*
X135803470Y-79028764D01*
X135809014Y-79026142D01*
X135814789Y-79024075D01*
X135820739Y-79022585D01*
X135826806Y-79021685D01*
X135832932Y-79021384D01*
X135839058Y-79021685D01*
G37*
G36*
X136192611Y-78668131D02*
G01*
X136198678Y-78669031D01*
X136204628Y-78670521D01*
X136210403Y-78672588D01*
X136215947Y-78675210D01*
X136221208Y-78678363D01*
X136226135Y-78682017D01*
X136230679Y-78686136D01*
X136761009Y-79216466D01*
X136765128Y-79221010D01*
X136768782Y-79225937D01*
X136771935Y-79231198D01*
X136774557Y-79236742D01*
X136776624Y-79242517D01*
X136778114Y-79248467D01*
X136779014Y-79254534D01*
X136779315Y-79260660D01*
X136779014Y-79266786D01*
X136778114Y-79272853D01*
X136776624Y-79278803D01*
X136774557Y-79284578D01*
X136771935Y-79290122D01*
X136768782Y-79295383D01*
X136765128Y-79300310D01*
X136761009Y-79304854D01*
X136672621Y-79393242D01*
X136668077Y-79397361D01*
X136663150Y-79401015D01*
X136657889Y-79404168D01*
X136652345Y-79406790D01*
X136646570Y-79408857D01*
X136640620Y-79410347D01*
X136634553Y-79411247D01*
X136628427Y-79411548D01*
X136622301Y-79411247D01*
X136616234Y-79410347D01*
X136610284Y-79408857D01*
X136604509Y-79406790D01*
X136598965Y-79404168D01*
X136593704Y-79401015D01*
X136588777Y-79397361D01*
X136584233Y-79393242D01*
X136053903Y-78862912D01*
X136049784Y-78858368D01*
X136046130Y-78853441D01*
X136042977Y-78848180D01*
X136040355Y-78842636D01*
X136038288Y-78836861D01*
X136036798Y-78830911D01*
X136035898Y-78824844D01*
X136035597Y-78818718D01*
X136035898Y-78812592D01*
X136036798Y-78806525D01*
X136038288Y-78800575D01*
X136040355Y-78794800D01*
X136042977Y-78789256D01*
X136046130Y-78783995D01*
X136049784Y-78779068D01*
X136053903Y-78774524D01*
X136142291Y-78686136D01*
X136146835Y-78682017D01*
X136151762Y-78678363D01*
X136157023Y-78675210D01*
X136162567Y-78672588D01*
X136168342Y-78670521D01*
X136174292Y-78669031D01*
X136180359Y-78668131D01*
X136186485Y-78667830D01*
X136192611Y-78668131D01*
G37*
G36*
X136546165Y-78314578D02*
G01*
X136552232Y-78315478D01*
X136558182Y-78316968D01*
X136563957Y-78319035D01*
X136569501Y-78321657D01*
X136574762Y-78324810D01*
X136579689Y-78328464D01*
X136584233Y-78332583D01*
X137114563Y-78862913D01*
X137118682Y-78867457D01*
X137122336Y-78872384D01*
X137125489Y-78877645D01*
X137128111Y-78883189D01*
X137130178Y-78888964D01*
X137131668Y-78894914D01*
X137132568Y-78900981D01*
X137132869Y-78907107D01*
X137132568Y-78913233D01*
X137131668Y-78919300D01*
X137130178Y-78925250D01*
X137128111Y-78931025D01*
X137125489Y-78936569D01*
X137122336Y-78941830D01*
X137118682Y-78946757D01*
X137114563Y-78951301D01*
X137026175Y-79039689D01*
X137021631Y-79043808D01*
X137016704Y-79047462D01*
X137011443Y-79050615D01*
X137005899Y-79053237D01*
X137000124Y-79055304D01*
X136994174Y-79056794D01*
X136988107Y-79057694D01*
X136981981Y-79057995D01*
X136975855Y-79057694D01*
X136969788Y-79056794D01*
X136963838Y-79055304D01*
X136958063Y-79053237D01*
X136952519Y-79050615D01*
X136947258Y-79047462D01*
X136942331Y-79043808D01*
X136937787Y-79039689D01*
X136407457Y-78509359D01*
X136403338Y-78504815D01*
X136399684Y-78499888D01*
X136396531Y-78494627D01*
X136393909Y-78489083D01*
X136391842Y-78483308D01*
X136390352Y-78477358D01*
X136389452Y-78471291D01*
X136389151Y-78465165D01*
X136389452Y-78459039D01*
X136390352Y-78452972D01*
X136391842Y-78447022D01*
X136393909Y-78441247D01*
X136396531Y-78435703D01*
X136399684Y-78430442D01*
X136403338Y-78425515D01*
X136407457Y-78420971D01*
X136495845Y-78332583D01*
X136500389Y-78328464D01*
X136505316Y-78324810D01*
X136510577Y-78321657D01*
X136516121Y-78319035D01*
X136521896Y-78316968D01*
X136527846Y-78315478D01*
X136533913Y-78314578D01*
X136540039Y-78314277D01*
X136546165Y-78314578D01*
G37*
G36*
X136988107Y-77342306D02*
G01*
X136994174Y-77343206D01*
X137000124Y-77344696D01*
X137005899Y-77346763D01*
X137011443Y-77349385D01*
X137016704Y-77352538D01*
X137021631Y-77356192D01*
X137026175Y-77360311D01*
X137114563Y-77448699D01*
X137118682Y-77453243D01*
X137122336Y-77458170D01*
X137125489Y-77463431D01*
X137128111Y-77468975D01*
X137130178Y-77474750D01*
X137131668Y-77480700D01*
X137132568Y-77486767D01*
X137132869Y-77492893D01*
X137132568Y-77499019D01*
X137131668Y-77505086D01*
X137130178Y-77511036D01*
X137128111Y-77516811D01*
X137125489Y-77522355D01*
X137122336Y-77527616D01*
X137118682Y-77532543D01*
X137114563Y-77537087D01*
X136584233Y-78067417D01*
X136579689Y-78071536D01*
X136574762Y-78075190D01*
X136569501Y-78078343D01*
X136563957Y-78080965D01*
X136558182Y-78083032D01*
X136552232Y-78084522D01*
X136546165Y-78085422D01*
X136540039Y-78085723D01*
X136533913Y-78085422D01*
X136527846Y-78084522D01*
X136521896Y-78083032D01*
X136516121Y-78080965D01*
X136510577Y-78078343D01*
X136505316Y-78075190D01*
X136500389Y-78071536D01*
X136495845Y-78067417D01*
X136407457Y-77979029D01*
X136403338Y-77974485D01*
X136399684Y-77969558D01*
X136396531Y-77964297D01*
X136393909Y-77958753D01*
X136391842Y-77952978D01*
X136390352Y-77947028D01*
X136389452Y-77940961D01*
X136389151Y-77934835D01*
X136389452Y-77928709D01*
X136390352Y-77922642D01*
X136391842Y-77916692D01*
X136393909Y-77910917D01*
X136396531Y-77905373D01*
X136399684Y-77900112D01*
X136403338Y-77895185D01*
X136407457Y-77890641D01*
X136937787Y-77360311D01*
X136942331Y-77356192D01*
X136947258Y-77352538D01*
X136952519Y-77349385D01*
X136958063Y-77346763D01*
X136963838Y-77344696D01*
X136969788Y-77343206D01*
X136975855Y-77342306D01*
X136981981Y-77342005D01*
X136988107Y-77342306D01*
G37*
G36*
X136634553Y-76988753D02*
G01*
X136640620Y-76989653D01*
X136646570Y-76991143D01*
X136652345Y-76993210D01*
X136657889Y-76995832D01*
X136663150Y-76998985D01*
X136668077Y-77002639D01*
X136672621Y-77006758D01*
X136761009Y-77095146D01*
X136765128Y-77099690D01*
X136768782Y-77104617D01*
X136771935Y-77109878D01*
X136774557Y-77115422D01*
X136776624Y-77121197D01*
X136778114Y-77127147D01*
X136779014Y-77133214D01*
X136779315Y-77139340D01*
X136779014Y-77145466D01*
X136778114Y-77151533D01*
X136776624Y-77157483D01*
X136774557Y-77163258D01*
X136771935Y-77168802D01*
X136768782Y-77174063D01*
X136765128Y-77178990D01*
X136761009Y-77183534D01*
X136230679Y-77713864D01*
X136226135Y-77717983D01*
X136221208Y-77721637D01*
X136215947Y-77724790D01*
X136210403Y-77727412D01*
X136204628Y-77729479D01*
X136198678Y-77730969D01*
X136192611Y-77731869D01*
X136186485Y-77732170D01*
X136180359Y-77731869D01*
X136174292Y-77730969D01*
X136168342Y-77729479D01*
X136162567Y-77727412D01*
X136157023Y-77724790D01*
X136151762Y-77721637D01*
X136146835Y-77717983D01*
X136142291Y-77713864D01*
X136053903Y-77625476D01*
X136049784Y-77620932D01*
X136046130Y-77616005D01*
X136042977Y-77610744D01*
X136040355Y-77605200D01*
X136038288Y-77599425D01*
X136036798Y-77593475D01*
X136035898Y-77587408D01*
X136035597Y-77581282D01*
X136035898Y-77575156D01*
X136036798Y-77569089D01*
X136038288Y-77563139D01*
X136040355Y-77557364D01*
X136042977Y-77551820D01*
X136046130Y-77546559D01*
X136049784Y-77541632D01*
X136053903Y-77537088D01*
X136584233Y-77006758D01*
X136588777Y-77002639D01*
X136593704Y-76998985D01*
X136598965Y-76995832D01*
X136604509Y-76993210D01*
X136610284Y-76991143D01*
X136616234Y-76989653D01*
X136622301Y-76988753D01*
X136628427Y-76988452D01*
X136634553Y-76988753D01*
G37*
G36*
X136281000Y-76635199D02*
G01*
X136287067Y-76636099D01*
X136293017Y-76637589D01*
X136298792Y-76639656D01*
X136304336Y-76642278D01*
X136309597Y-76645431D01*
X136314524Y-76649085D01*
X136319068Y-76653204D01*
X136407456Y-76741592D01*
X136411575Y-76746136D01*
X136415229Y-76751063D01*
X136418382Y-76756324D01*
X136421004Y-76761868D01*
X136423071Y-76767643D01*
X136424561Y-76773593D01*
X136425461Y-76779660D01*
X136425762Y-76785786D01*
X136425461Y-76791912D01*
X136424561Y-76797979D01*
X136423071Y-76803929D01*
X136421004Y-76809704D01*
X136418382Y-76815248D01*
X136415229Y-76820509D01*
X136411575Y-76825436D01*
X136407456Y-76829980D01*
X135877126Y-77360310D01*
X135872582Y-77364429D01*
X135867655Y-77368083D01*
X135862394Y-77371236D01*
X135856850Y-77373858D01*
X135851075Y-77375925D01*
X135845125Y-77377415D01*
X135839058Y-77378315D01*
X135832932Y-77378616D01*
X135826806Y-77378315D01*
X135820739Y-77377415D01*
X135814789Y-77375925D01*
X135809014Y-77373858D01*
X135803470Y-77371236D01*
X135798209Y-77368083D01*
X135793282Y-77364429D01*
X135788738Y-77360310D01*
X135700350Y-77271922D01*
X135696231Y-77267378D01*
X135692577Y-77262451D01*
X135689424Y-77257190D01*
X135686802Y-77251646D01*
X135684735Y-77245871D01*
X135683245Y-77239921D01*
X135682345Y-77233854D01*
X135682044Y-77227728D01*
X135682345Y-77221602D01*
X135683245Y-77215535D01*
X135684735Y-77209585D01*
X135686802Y-77203810D01*
X135689424Y-77198266D01*
X135692577Y-77193005D01*
X135696231Y-77188078D01*
X135700350Y-77183534D01*
X136230680Y-76653204D01*
X136235224Y-76649085D01*
X136240151Y-76645431D01*
X136245412Y-76642278D01*
X136250956Y-76639656D01*
X136256731Y-76637589D01*
X136262681Y-76636099D01*
X136268748Y-76635199D01*
X136274874Y-76634898D01*
X136281000Y-76635199D01*
G37*
G36*
X135927446Y-76281646D02*
G01*
X135933513Y-76282546D01*
X135939463Y-76284036D01*
X135945238Y-76286103D01*
X135950782Y-76288725D01*
X135956043Y-76291878D01*
X135960970Y-76295532D01*
X135965514Y-76299651D01*
X136053902Y-76388039D01*
X136058021Y-76392583D01*
X136061675Y-76397510D01*
X136064828Y-76402771D01*
X136067450Y-76408315D01*
X136069517Y-76414090D01*
X136071007Y-76420040D01*
X136071907Y-76426107D01*
X136072208Y-76432233D01*
X136071907Y-76438359D01*
X136071007Y-76444426D01*
X136069517Y-76450376D01*
X136067450Y-76456151D01*
X136064828Y-76461695D01*
X136061675Y-76466956D01*
X136058021Y-76471883D01*
X136053902Y-76476427D01*
X135523572Y-77006757D01*
X135519028Y-77010876D01*
X135514101Y-77014530D01*
X135508840Y-77017683D01*
X135503296Y-77020305D01*
X135497521Y-77022372D01*
X135491571Y-77023862D01*
X135485504Y-77024762D01*
X135479378Y-77025063D01*
X135473252Y-77024762D01*
X135467185Y-77023862D01*
X135461235Y-77022372D01*
X135455460Y-77020305D01*
X135449916Y-77017683D01*
X135444655Y-77014530D01*
X135439728Y-77010876D01*
X135435184Y-77006757D01*
X135346796Y-76918369D01*
X135342677Y-76913825D01*
X135339023Y-76908898D01*
X135335870Y-76903637D01*
X135333248Y-76898093D01*
X135331181Y-76892318D01*
X135329691Y-76886368D01*
X135328791Y-76880301D01*
X135328490Y-76874175D01*
X135328791Y-76868049D01*
X135329691Y-76861982D01*
X135331181Y-76856032D01*
X135333248Y-76850257D01*
X135335870Y-76844713D01*
X135339023Y-76839452D01*
X135342677Y-76834525D01*
X135346796Y-76829981D01*
X135877126Y-76299651D01*
X135881670Y-76295532D01*
X135886597Y-76291878D01*
X135891858Y-76288725D01*
X135897402Y-76286103D01*
X135903177Y-76284036D01*
X135909127Y-76282546D01*
X135915194Y-76281646D01*
X135921320Y-76281345D01*
X135927446Y-76281646D01*
G37*
G36*
X135573893Y-75928093D02*
G01*
X135579960Y-75928993D01*
X135585910Y-75930483D01*
X135591685Y-75932550D01*
X135597229Y-75935172D01*
X135602490Y-75938325D01*
X135607417Y-75941979D01*
X135611961Y-75946098D01*
X135700349Y-76034486D01*
X135704468Y-76039030D01*
X135708122Y-76043957D01*
X135711275Y-76049218D01*
X135713897Y-76054762D01*
X135715964Y-76060537D01*
X135717454Y-76066487D01*
X135718354Y-76072554D01*
X135718655Y-76078680D01*
X135718354Y-76084806D01*
X135717454Y-76090873D01*
X135715964Y-76096823D01*
X135713897Y-76102598D01*
X135711275Y-76108142D01*
X135708122Y-76113403D01*
X135704468Y-76118330D01*
X135700349Y-76122874D01*
X135170019Y-76653204D01*
X135165475Y-76657323D01*
X135160548Y-76660977D01*
X135155287Y-76664130D01*
X135149743Y-76666752D01*
X135143968Y-76668819D01*
X135138018Y-76670309D01*
X135131951Y-76671209D01*
X135125825Y-76671510D01*
X135119699Y-76671209D01*
X135113632Y-76670309D01*
X135107682Y-76668819D01*
X135101907Y-76666752D01*
X135096363Y-76664130D01*
X135091102Y-76660977D01*
X135086175Y-76657323D01*
X135081631Y-76653204D01*
X134993243Y-76564816D01*
X134989124Y-76560272D01*
X134985470Y-76555345D01*
X134982317Y-76550084D01*
X134979695Y-76544540D01*
X134977628Y-76538765D01*
X134976138Y-76532815D01*
X134975238Y-76526748D01*
X134974937Y-76520622D01*
X134975238Y-76514496D01*
X134976138Y-76508429D01*
X134977628Y-76502479D01*
X134979695Y-76496704D01*
X134982317Y-76491160D01*
X134985470Y-76485899D01*
X134989124Y-76480972D01*
X134993243Y-76476428D01*
X135523573Y-75946098D01*
X135528117Y-75941979D01*
X135533044Y-75938325D01*
X135538305Y-75935172D01*
X135543849Y-75932550D01*
X135549624Y-75930483D01*
X135555574Y-75928993D01*
X135561641Y-75928093D01*
X135567767Y-75927792D01*
X135573893Y-75928093D01*
G37*
G36*
X135220340Y-75574539D02*
G01*
X135226407Y-75575439D01*
X135232357Y-75576929D01*
X135238132Y-75578996D01*
X135243676Y-75581618D01*
X135248937Y-75584771D01*
X135253864Y-75588425D01*
X135258408Y-75592544D01*
X135346796Y-75680932D01*
X135350915Y-75685476D01*
X135354569Y-75690403D01*
X135357722Y-75695664D01*
X135360344Y-75701208D01*
X135362411Y-75706983D01*
X135363901Y-75712933D01*
X135364801Y-75719000D01*
X135365102Y-75725126D01*
X135364801Y-75731252D01*
X135363901Y-75737319D01*
X135362411Y-75743269D01*
X135360344Y-75749044D01*
X135357722Y-75754588D01*
X135354569Y-75759849D01*
X135350915Y-75764776D01*
X135346796Y-75769320D01*
X134816466Y-76299650D01*
X134811922Y-76303769D01*
X134806995Y-76307423D01*
X134801734Y-76310576D01*
X134796190Y-76313198D01*
X134790415Y-76315265D01*
X134784465Y-76316755D01*
X134778398Y-76317655D01*
X134772272Y-76317956D01*
X134766146Y-76317655D01*
X134760079Y-76316755D01*
X134754129Y-76315265D01*
X134748354Y-76313198D01*
X134742810Y-76310576D01*
X134737549Y-76307423D01*
X134732622Y-76303769D01*
X134728078Y-76299650D01*
X134639690Y-76211262D01*
X134635571Y-76206718D01*
X134631917Y-76201791D01*
X134628764Y-76196530D01*
X134626142Y-76190986D01*
X134624075Y-76185211D01*
X134622585Y-76179261D01*
X134621685Y-76173194D01*
X134621384Y-76167068D01*
X134621685Y-76160942D01*
X134622585Y-76154875D01*
X134624075Y-76148925D01*
X134626142Y-76143150D01*
X134628764Y-76137606D01*
X134631917Y-76132345D01*
X134635571Y-76127418D01*
X134639690Y-76122874D01*
X135170020Y-75592544D01*
X135174564Y-75588425D01*
X135179491Y-75584771D01*
X135184752Y-75581618D01*
X135190296Y-75578996D01*
X135196071Y-75576929D01*
X135202021Y-75575439D01*
X135208088Y-75574539D01*
X135214214Y-75574238D01*
X135220340Y-75574539D01*
G37*
G36*
X134866786Y-75220986D02*
G01*
X134872853Y-75221886D01*
X134878803Y-75223376D01*
X134884578Y-75225443D01*
X134890122Y-75228065D01*
X134895383Y-75231218D01*
X134900310Y-75234872D01*
X134904854Y-75238991D01*
X134993242Y-75327379D01*
X134997361Y-75331923D01*
X135001015Y-75336850D01*
X135004168Y-75342111D01*
X135006790Y-75347655D01*
X135008857Y-75353430D01*
X135010347Y-75359380D01*
X135011247Y-75365447D01*
X135011548Y-75371573D01*
X135011247Y-75377699D01*
X135010347Y-75383766D01*
X135008857Y-75389716D01*
X135006790Y-75395491D01*
X135004168Y-75401035D01*
X135001015Y-75406296D01*
X134997361Y-75411223D01*
X134993242Y-75415767D01*
X134462912Y-75946097D01*
X134458368Y-75950216D01*
X134453441Y-75953870D01*
X134448180Y-75957023D01*
X134442636Y-75959645D01*
X134436861Y-75961712D01*
X134430911Y-75963202D01*
X134424844Y-75964102D01*
X134418718Y-75964403D01*
X134412592Y-75964102D01*
X134406525Y-75963202D01*
X134400575Y-75961712D01*
X134394800Y-75959645D01*
X134389256Y-75957023D01*
X134383995Y-75953870D01*
X134379068Y-75950216D01*
X134374524Y-75946097D01*
X134286136Y-75857709D01*
X134282017Y-75853165D01*
X134278363Y-75848238D01*
X134275210Y-75842977D01*
X134272588Y-75837433D01*
X134270521Y-75831658D01*
X134269031Y-75825708D01*
X134268131Y-75819641D01*
X134267830Y-75813515D01*
X134268131Y-75807389D01*
X134269031Y-75801322D01*
X134270521Y-75795372D01*
X134272588Y-75789597D01*
X134275210Y-75784053D01*
X134278363Y-75778792D01*
X134282017Y-75773865D01*
X134286136Y-75769321D01*
X134816466Y-75238991D01*
X134821010Y-75234872D01*
X134825937Y-75231218D01*
X134831198Y-75228065D01*
X134836742Y-75225443D01*
X134842517Y-75223376D01*
X134848467Y-75221886D01*
X134854534Y-75220986D01*
X134860660Y-75220685D01*
X134866786Y-75220986D01*
G37*
G36*
X134513233Y-74867432D02*
G01*
X134519300Y-74868332D01*
X134525250Y-74869822D01*
X134531025Y-74871889D01*
X134536569Y-74874511D01*
X134541830Y-74877664D01*
X134546757Y-74881318D01*
X134551301Y-74885437D01*
X134639689Y-74973825D01*
X134643808Y-74978369D01*
X134647462Y-74983296D01*
X134650615Y-74988557D01*
X134653237Y-74994101D01*
X134655304Y-74999876D01*
X134656794Y-75005826D01*
X134657694Y-75011893D01*
X134657995Y-75018019D01*
X134657694Y-75024145D01*
X134656794Y-75030212D01*
X134655304Y-75036162D01*
X134653237Y-75041937D01*
X134650615Y-75047481D01*
X134647462Y-75052742D01*
X134643808Y-75057669D01*
X134639689Y-75062213D01*
X134109359Y-75592543D01*
X134104815Y-75596662D01*
X134099888Y-75600316D01*
X134094627Y-75603469D01*
X134089083Y-75606091D01*
X134083308Y-75608158D01*
X134077358Y-75609648D01*
X134071291Y-75610548D01*
X134065165Y-75610849D01*
X134059039Y-75610548D01*
X134052972Y-75609648D01*
X134047022Y-75608158D01*
X134041247Y-75606091D01*
X134035703Y-75603469D01*
X134030442Y-75600316D01*
X134025515Y-75596662D01*
X134020971Y-75592543D01*
X133932583Y-75504155D01*
X133928464Y-75499611D01*
X133924810Y-75494684D01*
X133921657Y-75489423D01*
X133919035Y-75483879D01*
X133916968Y-75478104D01*
X133915478Y-75472154D01*
X133914578Y-75466087D01*
X133914277Y-75459961D01*
X133914578Y-75453835D01*
X133915478Y-75447768D01*
X133916968Y-75441818D01*
X133919035Y-75436043D01*
X133921657Y-75430499D01*
X133924810Y-75425238D01*
X133928464Y-75420311D01*
X133932583Y-75415767D01*
X134462913Y-74885437D01*
X134467457Y-74881318D01*
X134472384Y-74877664D01*
X134477645Y-74874511D01*
X134483189Y-74871889D01*
X134488964Y-74869822D01*
X134494914Y-74868332D01*
X134500981Y-74867432D01*
X134507107Y-74867131D01*
X134513233Y-74867432D01*
G37*
G36*
X133099019Y-74867432D02*
G01*
X133105086Y-74868332D01*
X133111036Y-74869822D01*
X133116811Y-74871889D01*
X133122355Y-74874511D01*
X133127616Y-74877664D01*
X133132543Y-74881318D01*
X133137087Y-74885437D01*
X133667417Y-75415767D01*
X133671536Y-75420311D01*
X133675190Y-75425238D01*
X133678343Y-75430499D01*
X133680965Y-75436043D01*
X133683032Y-75441818D01*
X133684522Y-75447768D01*
X133685422Y-75453835D01*
X133685723Y-75459961D01*
X133685422Y-75466087D01*
X133684522Y-75472154D01*
X133683032Y-75478104D01*
X133680965Y-75483879D01*
X133678343Y-75489423D01*
X133675190Y-75494684D01*
X133671536Y-75499611D01*
X133667417Y-75504155D01*
X133579029Y-75592543D01*
X133574485Y-75596662D01*
X133569558Y-75600316D01*
X133564297Y-75603469D01*
X133558753Y-75606091D01*
X133552978Y-75608158D01*
X133547028Y-75609648D01*
X133540961Y-75610548D01*
X133534835Y-75610849D01*
X133528709Y-75610548D01*
X133522642Y-75609648D01*
X133516692Y-75608158D01*
X133510917Y-75606091D01*
X133505373Y-75603469D01*
X133500112Y-75600316D01*
X133495185Y-75596662D01*
X133490641Y-75592543D01*
X132960311Y-75062213D01*
X132956192Y-75057669D01*
X132952538Y-75052742D01*
X132949385Y-75047481D01*
X132946763Y-75041937D01*
X132944696Y-75036162D01*
X132943206Y-75030212D01*
X132942306Y-75024145D01*
X132942005Y-75018019D01*
X132942306Y-75011893D01*
X132943206Y-75005826D01*
X132944696Y-74999876D01*
X132946763Y-74994101D01*
X132949385Y-74988557D01*
X132952538Y-74983296D01*
X132956192Y-74978369D01*
X132960311Y-74973825D01*
X133048699Y-74885437D01*
X133053243Y-74881318D01*
X133058170Y-74877664D01*
X133063431Y-74874511D01*
X133068975Y-74871889D01*
X133074750Y-74869822D01*
X133080700Y-74868332D01*
X133086767Y-74867432D01*
X133092893Y-74867131D01*
X133099019Y-74867432D01*
G37*
G36*
X132745466Y-75220986D02*
G01*
X132751533Y-75221886D01*
X132757483Y-75223376D01*
X132763258Y-75225443D01*
X132768802Y-75228065D01*
X132774063Y-75231218D01*
X132778990Y-75234872D01*
X132783534Y-75238991D01*
X133313864Y-75769321D01*
X133317983Y-75773865D01*
X133321637Y-75778792D01*
X133324790Y-75784053D01*
X133327412Y-75789597D01*
X133329479Y-75795372D01*
X133330969Y-75801322D01*
X133331869Y-75807389D01*
X133332170Y-75813515D01*
X133331869Y-75819641D01*
X133330969Y-75825708D01*
X133329479Y-75831658D01*
X133327412Y-75837433D01*
X133324790Y-75842977D01*
X133321637Y-75848238D01*
X133317983Y-75853165D01*
X133313864Y-75857709D01*
X133225476Y-75946097D01*
X133220932Y-75950216D01*
X133216005Y-75953870D01*
X133210744Y-75957023D01*
X133205200Y-75959645D01*
X133199425Y-75961712D01*
X133193475Y-75963202D01*
X133187408Y-75964102D01*
X133181282Y-75964403D01*
X133175156Y-75964102D01*
X133169089Y-75963202D01*
X133163139Y-75961712D01*
X133157364Y-75959645D01*
X133151820Y-75957023D01*
X133146559Y-75953870D01*
X133141632Y-75950216D01*
X133137088Y-75946097D01*
X132606758Y-75415767D01*
X132602639Y-75411223D01*
X132598985Y-75406296D01*
X132595832Y-75401035D01*
X132593210Y-75395491D01*
X132591143Y-75389716D01*
X132589653Y-75383766D01*
X132588753Y-75377699D01*
X132588452Y-75371573D01*
X132588753Y-75365447D01*
X132589653Y-75359380D01*
X132591143Y-75353430D01*
X132593210Y-75347655D01*
X132595832Y-75342111D01*
X132598985Y-75336850D01*
X132602639Y-75331923D01*
X132606758Y-75327379D01*
X132695146Y-75238991D01*
X132699690Y-75234872D01*
X132704617Y-75231218D01*
X132709878Y-75228065D01*
X132715422Y-75225443D01*
X132721197Y-75223376D01*
X132727147Y-75221886D01*
X132733214Y-75220986D01*
X132739340Y-75220685D01*
X132745466Y-75220986D01*
G37*
G36*
X132391912Y-75574539D02*
G01*
X132397979Y-75575439D01*
X132403929Y-75576929D01*
X132409704Y-75578996D01*
X132415248Y-75581618D01*
X132420509Y-75584771D01*
X132425436Y-75588425D01*
X132429980Y-75592544D01*
X132960310Y-76122874D01*
X132964429Y-76127418D01*
X132968083Y-76132345D01*
X132971236Y-76137606D01*
X132973858Y-76143150D01*
X132975925Y-76148925D01*
X132977415Y-76154875D01*
X132978315Y-76160942D01*
X132978616Y-76167068D01*
X132978315Y-76173194D01*
X132977415Y-76179261D01*
X132975925Y-76185211D01*
X132973858Y-76190986D01*
X132971236Y-76196530D01*
X132968083Y-76201791D01*
X132964429Y-76206718D01*
X132960310Y-76211262D01*
X132871922Y-76299650D01*
X132867378Y-76303769D01*
X132862451Y-76307423D01*
X132857190Y-76310576D01*
X132851646Y-76313198D01*
X132845871Y-76315265D01*
X132839921Y-76316755D01*
X132833854Y-76317655D01*
X132827728Y-76317956D01*
X132821602Y-76317655D01*
X132815535Y-76316755D01*
X132809585Y-76315265D01*
X132803810Y-76313198D01*
X132798266Y-76310576D01*
X132793005Y-76307423D01*
X132788078Y-76303769D01*
X132783534Y-76299650D01*
X132253204Y-75769320D01*
X132249085Y-75764776D01*
X132245431Y-75759849D01*
X132242278Y-75754588D01*
X132239656Y-75749044D01*
X132237589Y-75743269D01*
X132236099Y-75737319D01*
X132235199Y-75731252D01*
X132234898Y-75725126D01*
X132235199Y-75719000D01*
X132236099Y-75712933D01*
X132237589Y-75706983D01*
X132239656Y-75701208D01*
X132242278Y-75695664D01*
X132245431Y-75690403D01*
X132249085Y-75685476D01*
X132253204Y-75680932D01*
X132341592Y-75592544D01*
X132346136Y-75588425D01*
X132351063Y-75584771D01*
X132356324Y-75581618D01*
X132361868Y-75578996D01*
X132367643Y-75576929D01*
X132373593Y-75575439D01*
X132379660Y-75574539D01*
X132385786Y-75574238D01*
X132391912Y-75574539D01*
G37*
G36*
X132038359Y-75928093D02*
G01*
X132044426Y-75928993D01*
X132050376Y-75930483D01*
X132056151Y-75932550D01*
X132061695Y-75935172D01*
X132066956Y-75938325D01*
X132071883Y-75941979D01*
X132076427Y-75946098D01*
X132606757Y-76476428D01*
X132610876Y-76480972D01*
X132614530Y-76485899D01*
X132617683Y-76491160D01*
X132620305Y-76496704D01*
X132622372Y-76502479D01*
X132623862Y-76508429D01*
X132624762Y-76514496D01*
X132625063Y-76520622D01*
X132624762Y-76526748D01*
X132623862Y-76532815D01*
X132622372Y-76538765D01*
X132620305Y-76544540D01*
X132617683Y-76550084D01*
X132614530Y-76555345D01*
X132610876Y-76560272D01*
X132606757Y-76564816D01*
X132518369Y-76653204D01*
X132513825Y-76657323D01*
X132508898Y-76660977D01*
X132503637Y-76664130D01*
X132498093Y-76666752D01*
X132492318Y-76668819D01*
X132486368Y-76670309D01*
X132480301Y-76671209D01*
X132474175Y-76671510D01*
X132468049Y-76671209D01*
X132461982Y-76670309D01*
X132456032Y-76668819D01*
X132450257Y-76666752D01*
X132444713Y-76664130D01*
X132439452Y-76660977D01*
X132434525Y-76657323D01*
X132429981Y-76653204D01*
X131899651Y-76122874D01*
X131895532Y-76118330D01*
X131891878Y-76113403D01*
X131888725Y-76108142D01*
X131886103Y-76102598D01*
X131884036Y-76096823D01*
X131882546Y-76090873D01*
X131881646Y-76084806D01*
X131881345Y-76078680D01*
X131881646Y-76072554D01*
X131882546Y-76066487D01*
X131884036Y-76060537D01*
X131886103Y-76054762D01*
X131888725Y-76049218D01*
X131891878Y-76043957D01*
X131895532Y-76039030D01*
X131899651Y-76034486D01*
X131988039Y-75946098D01*
X131992583Y-75941979D01*
X131997510Y-75938325D01*
X132002771Y-75935172D01*
X132008315Y-75932550D01*
X132014090Y-75930483D01*
X132020040Y-75928993D01*
X132026107Y-75928093D01*
X132032233Y-75927792D01*
X132038359Y-75928093D01*
G37*
G36*
X131684806Y-76281646D02*
G01*
X131690873Y-76282546D01*
X131696823Y-76284036D01*
X131702598Y-76286103D01*
X131708142Y-76288725D01*
X131713403Y-76291878D01*
X131718330Y-76295532D01*
X131722874Y-76299651D01*
X132253204Y-76829981D01*
X132257323Y-76834525D01*
X132260977Y-76839452D01*
X132264130Y-76844713D01*
X132266752Y-76850257D01*
X132268819Y-76856032D01*
X132270309Y-76861982D01*
X132271209Y-76868049D01*
X132271510Y-76874175D01*
X132271209Y-76880301D01*
X132270309Y-76886368D01*
X132268819Y-76892318D01*
X132266752Y-76898093D01*
X132264130Y-76903637D01*
X132260977Y-76908898D01*
X132257323Y-76913825D01*
X132253204Y-76918369D01*
X132164816Y-77006757D01*
X132160272Y-77010876D01*
X132155345Y-77014530D01*
X132150084Y-77017683D01*
X132144540Y-77020305D01*
X132138765Y-77022372D01*
X132132815Y-77023862D01*
X132126748Y-77024762D01*
X132120622Y-77025063D01*
X132114496Y-77024762D01*
X132108429Y-77023862D01*
X132102479Y-77022372D01*
X132096704Y-77020305D01*
X132091160Y-77017683D01*
X132085899Y-77014530D01*
X132080972Y-77010876D01*
X132076428Y-77006757D01*
X131546098Y-76476427D01*
X131541979Y-76471883D01*
X131538325Y-76466956D01*
X131535172Y-76461695D01*
X131532550Y-76456151D01*
X131530483Y-76450376D01*
X131528993Y-76444426D01*
X131528093Y-76438359D01*
X131527792Y-76432233D01*
X131528093Y-76426107D01*
X131528993Y-76420040D01*
X131530483Y-76414090D01*
X131532550Y-76408315D01*
X131535172Y-76402771D01*
X131538325Y-76397510D01*
X131541979Y-76392583D01*
X131546098Y-76388039D01*
X131634486Y-76299651D01*
X131639030Y-76295532D01*
X131643957Y-76291878D01*
X131649218Y-76288725D01*
X131654762Y-76286103D01*
X131660537Y-76284036D01*
X131666487Y-76282546D01*
X131672554Y-76281646D01*
X131678680Y-76281345D01*
X131684806Y-76281646D01*
G37*
G36*
X131331252Y-76635199D02*
G01*
X131337319Y-76636099D01*
X131343269Y-76637589D01*
X131349044Y-76639656D01*
X131354588Y-76642278D01*
X131359849Y-76645431D01*
X131364776Y-76649085D01*
X131369320Y-76653204D01*
X131899650Y-77183534D01*
X131903769Y-77188078D01*
X131907423Y-77193005D01*
X131910576Y-77198266D01*
X131913198Y-77203810D01*
X131915265Y-77209585D01*
X131916755Y-77215535D01*
X131917655Y-77221602D01*
X131917956Y-77227728D01*
X131917655Y-77233854D01*
X131916755Y-77239921D01*
X131915265Y-77245871D01*
X131913198Y-77251646D01*
X131910576Y-77257190D01*
X131907423Y-77262451D01*
X131903769Y-77267378D01*
X131899650Y-77271922D01*
X131811262Y-77360310D01*
X131806718Y-77364429D01*
X131801791Y-77368083D01*
X131796530Y-77371236D01*
X131790986Y-77373858D01*
X131785211Y-77375925D01*
X131779261Y-77377415D01*
X131773194Y-77378315D01*
X131767068Y-77378616D01*
X131760942Y-77378315D01*
X131754875Y-77377415D01*
X131748925Y-77375925D01*
X131743150Y-77373858D01*
X131737606Y-77371236D01*
X131732345Y-77368083D01*
X131727418Y-77364429D01*
X131722874Y-77360310D01*
X131192544Y-76829980D01*
X131188425Y-76825436D01*
X131184771Y-76820509D01*
X131181618Y-76815248D01*
X131178996Y-76809704D01*
X131176929Y-76803929D01*
X131175439Y-76797979D01*
X131174539Y-76791912D01*
X131174238Y-76785786D01*
X131174539Y-76779660D01*
X131175439Y-76773593D01*
X131176929Y-76767643D01*
X131178996Y-76761868D01*
X131181618Y-76756324D01*
X131184771Y-76751063D01*
X131188425Y-76746136D01*
X131192544Y-76741592D01*
X131280932Y-76653204D01*
X131285476Y-76649085D01*
X131290403Y-76645431D01*
X131295664Y-76642278D01*
X131301208Y-76639656D01*
X131306983Y-76637589D01*
X131312933Y-76636099D01*
X131319000Y-76635199D01*
X131325126Y-76634898D01*
X131331252Y-76635199D01*
G37*
G36*
X130977699Y-76988753D02*
G01*
X130983766Y-76989653D01*
X130989716Y-76991143D01*
X130995491Y-76993210D01*
X131001035Y-76995832D01*
X131006296Y-76998985D01*
X131011223Y-77002639D01*
X131015767Y-77006758D01*
X131546097Y-77537088D01*
X131550216Y-77541632D01*
X131553870Y-77546559D01*
X131557023Y-77551820D01*
X131559645Y-77557364D01*
X131561712Y-77563139D01*
X131563202Y-77569089D01*
X131564102Y-77575156D01*
X131564403Y-77581282D01*
X131564102Y-77587408D01*
X131563202Y-77593475D01*
X131561712Y-77599425D01*
X131559645Y-77605200D01*
X131557023Y-77610744D01*
X131553870Y-77616005D01*
X131550216Y-77620932D01*
X131546097Y-77625476D01*
X131457709Y-77713864D01*
X131453165Y-77717983D01*
X131448238Y-77721637D01*
X131442977Y-77724790D01*
X131437433Y-77727412D01*
X131431658Y-77729479D01*
X131425708Y-77730969D01*
X131419641Y-77731869D01*
X131413515Y-77732170D01*
X131407389Y-77731869D01*
X131401322Y-77730969D01*
X131395372Y-77729479D01*
X131389597Y-77727412D01*
X131384053Y-77724790D01*
X131378792Y-77721637D01*
X131373865Y-77717983D01*
X131369321Y-77713864D01*
X130838991Y-77183534D01*
X130834872Y-77178990D01*
X130831218Y-77174063D01*
X130828065Y-77168802D01*
X130825443Y-77163258D01*
X130823376Y-77157483D01*
X130821886Y-77151533D01*
X130820986Y-77145466D01*
X130820685Y-77139340D01*
X130820986Y-77133214D01*
X130821886Y-77127147D01*
X130823376Y-77121197D01*
X130825443Y-77115422D01*
X130828065Y-77109878D01*
X130831218Y-77104617D01*
X130834872Y-77099690D01*
X130838991Y-77095146D01*
X130927379Y-77006758D01*
X130931923Y-77002639D01*
X130936850Y-76998985D01*
X130942111Y-76995832D01*
X130947655Y-76993210D01*
X130953430Y-76991143D01*
X130959380Y-76989653D01*
X130965447Y-76988753D01*
X130971573Y-76988452D01*
X130977699Y-76988753D01*
G37*
G36*
X130624145Y-77342306D02*
G01*
X130630212Y-77343206D01*
X130636162Y-77344696D01*
X130641937Y-77346763D01*
X130647481Y-77349385D01*
X130652742Y-77352538D01*
X130657669Y-77356192D01*
X130662213Y-77360311D01*
X131192543Y-77890641D01*
X131196662Y-77895185D01*
X131200316Y-77900112D01*
X131203469Y-77905373D01*
X131206091Y-77910917D01*
X131208158Y-77916692D01*
X131209648Y-77922642D01*
X131210548Y-77928709D01*
X131210849Y-77934835D01*
X131210548Y-77940961D01*
X131209648Y-77947028D01*
X131208158Y-77952978D01*
X131206091Y-77958753D01*
X131203469Y-77964297D01*
X131200316Y-77969558D01*
X131196662Y-77974485D01*
X131192543Y-77979029D01*
X131104155Y-78067417D01*
X131099611Y-78071536D01*
X131094684Y-78075190D01*
X131089423Y-78078343D01*
X131083879Y-78080965D01*
X131078104Y-78083032D01*
X131072154Y-78084522D01*
X131066087Y-78085422D01*
X131059961Y-78085723D01*
X131053835Y-78085422D01*
X131047768Y-78084522D01*
X131041818Y-78083032D01*
X131036043Y-78080965D01*
X131030499Y-78078343D01*
X131025238Y-78075190D01*
X131020311Y-78071536D01*
X131015767Y-78067417D01*
X130485437Y-77537087D01*
X130481318Y-77532543D01*
X130477664Y-77527616D01*
X130474511Y-77522355D01*
X130471889Y-77516811D01*
X130469822Y-77511036D01*
X130468332Y-77505086D01*
X130467432Y-77499019D01*
X130467131Y-77492893D01*
X130467432Y-77486767D01*
X130468332Y-77480700D01*
X130469822Y-77474750D01*
X130471889Y-77468975D01*
X130474511Y-77463431D01*
X130477664Y-77458170D01*
X130481318Y-77453243D01*
X130485437Y-77448699D01*
X130573825Y-77360311D01*
X130578369Y-77356192D01*
X130583296Y-77352538D01*
X130588557Y-77349385D01*
X130594101Y-77346763D01*
X130599876Y-77344696D01*
X130605826Y-77343206D01*
X130611893Y-77342306D01*
X130618019Y-77342005D01*
X130624145Y-77342306D01*
G37*
G36*
X131066087Y-78314578D02*
G01*
X131072154Y-78315478D01*
X131078104Y-78316968D01*
X131083879Y-78319035D01*
X131089423Y-78321657D01*
X131094684Y-78324810D01*
X131099611Y-78328464D01*
X131104155Y-78332583D01*
X131192543Y-78420971D01*
X131196662Y-78425515D01*
X131200316Y-78430442D01*
X131203469Y-78435703D01*
X131206091Y-78441247D01*
X131208158Y-78447022D01*
X131209648Y-78452972D01*
X131210548Y-78459039D01*
X131210849Y-78465165D01*
X131210548Y-78471291D01*
X131209648Y-78477358D01*
X131208158Y-78483308D01*
X131206091Y-78489083D01*
X131203469Y-78494627D01*
X131200316Y-78499888D01*
X131196662Y-78504815D01*
X131192543Y-78509359D01*
X130662213Y-79039689D01*
X130657669Y-79043808D01*
X130652742Y-79047462D01*
X130647481Y-79050615D01*
X130641937Y-79053237D01*
X130636162Y-79055304D01*
X130630212Y-79056794D01*
X130624145Y-79057694D01*
X130618019Y-79057995D01*
X130611893Y-79057694D01*
X130605826Y-79056794D01*
X130599876Y-79055304D01*
X130594101Y-79053237D01*
X130588557Y-79050615D01*
X130583296Y-79047462D01*
X130578369Y-79043808D01*
X130573825Y-79039689D01*
X130485437Y-78951301D01*
X130481318Y-78946757D01*
X130477664Y-78941830D01*
X130474511Y-78936569D01*
X130471889Y-78931025D01*
X130469822Y-78925250D01*
X130468332Y-78919300D01*
X130467432Y-78913233D01*
X130467131Y-78907107D01*
X130467432Y-78900981D01*
X130468332Y-78894914D01*
X130469822Y-78888964D01*
X130471889Y-78883189D01*
X130474511Y-78877645D01*
X130477664Y-78872384D01*
X130481318Y-78867457D01*
X130485437Y-78862913D01*
X131015767Y-78332583D01*
X131020311Y-78328464D01*
X131025238Y-78324810D01*
X131030499Y-78321657D01*
X131036043Y-78319035D01*
X131041818Y-78316968D01*
X131047768Y-78315478D01*
X131053835Y-78314578D01*
X131059961Y-78314277D01*
X131066087Y-78314578D01*
G37*
G36*
X131419641Y-78668131D02*
G01*
X131425708Y-78669031D01*
X131431658Y-78670521D01*
X131437433Y-78672588D01*
X131442977Y-78675210D01*
X131448238Y-78678363D01*
X131453165Y-78682017D01*
X131457709Y-78686136D01*
X131546097Y-78774524D01*
X131550216Y-78779068D01*
X131553870Y-78783995D01*
X131557023Y-78789256D01*
X131559645Y-78794800D01*
X131561712Y-78800575D01*
X131563202Y-78806525D01*
X131564102Y-78812592D01*
X131564403Y-78818718D01*
X131564102Y-78824844D01*
X131563202Y-78830911D01*
X131561712Y-78836861D01*
X131559645Y-78842636D01*
X131557023Y-78848180D01*
X131553870Y-78853441D01*
X131550216Y-78858368D01*
X131546097Y-78862912D01*
X131015767Y-79393242D01*
X131011223Y-79397361D01*
X131006296Y-79401015D01*
X131001035Y-79404168D01*
X130995491Y-79406790D01*
X130989716Y-79408857D01*
X130983766Y-79410347D01*
X130977699Y-79411247D01*
X130971573Y-79411548D01*
X130965447Y-79411247D01*
X130959380Y-79410347D01*
X130953430Y-79408857D01*
X130947655Y-79406790D01*
X130942111Y-79404168D01*
X130936850Y-79401015D01*
X130931923Y-79397361D01*
X130927379Y-79393242D01*
X130838991Y-79304854D01*
X130834872Y-79300310D01*
X130831218Y-79295383D01*
X130828065Y-79290122D01*
X130825443Y-79284578D01*
X130823376Y-79278803D01*
X130821886Y-79272853D01*
X130820986Y-79266786D01*
X130820685Y-79260660D01*
X130820986Y-79254534D01*
X130821886Y-79248467D01*
X130823376Y-79242517D01*
X130825443Y-79236742D01*
X130828065Y-79231198D01*
X130831218Y-79225937D01*
X130834872Y-79221010D01*
X130838991Y-79216466D01*
X131369321Y-78686136D01*
X131373865Y-78682017D01*
X131378792Y-78678363D01*
X131384053Y-78675210D01*
X131389597Y-78672588D01*
X131395372Y-78670521D01*
X131401322Y-78669031D01*
X131407389Y-78668131D01*
X131413515Y-78667830D01*
X131419641Y-78668131D01*
G37*
G36*
X131773194Y-79021685D02*
G01*
X131779261Y-79022585D01*
X131785211Y-79024075D01*
X131790986Y-79026142D01*
X131796530Y-79028764D01*
X131801791Y-79031917D01*
X131806718Y-79035571D01*
X131811262Y-79039690D01*
X131899650Y-79128078D01*
X131903769Y-79132622D01*
X131907423Y-79137549D01*
X131910576Y-79142810D01*
X131913198Y-79148354D01*
X131915265Y-79154129D01*
X131916755Y-79160079D01*
X131917655Y-79166146D01*
X131917956Y-79172272D01*
X131917655Y-79178398D01*
X131916755Y-79184465D01*
X131915265Y-79190415D01*
X131913198Y-79196190D01*
X131910576Y-79201734D01*
X131907423Y-79206995D01*
X131903769Y-79211922D01*
X131899650Y-79216466D01*
X131369320Y-79746796D01*
X131364776Y-79750915D01*
X131359849Y-79754569D01*
X131354588Y-79757722D01*
X131349044Y-79760344D01*
X131343269Y-79762411D01*
X131337319Y-79763901D01*
X131331252Y-79764801D01*
X131325126Y-79765102D01*
X131319000Y-79764801D01*
X131312933Y-79763901D01*
X131306983Y-79762411D01*
X131301208Y-79760344D01*
X131295664Y-79757722D01*
X131290403Y-79754569D01*
X131285476Y-79750915D01*
X131280932Y-79746796D01*
X131192544Y-79658408D01*
X131188425Y-79653864D01*
X131184771Y-79648937D01*
X131181618Y-79643676D01*
X131178996Y-79638132D01*
X131176929Y-79632357D01*
X131175439Y-79626407D01*
X131174539Y-79620340D01*
X131174238Y-79614214D01*
X131174539Y-79608088D01*
X131175439Y-79602021D01*
X131176929Y-79596071D01*
X131178996Y-79590296D01*
X131181618Y-79584752D01*
X131184771Y-79579491D01*
X131188425Y-79574564D01*
X131192544Y-79570020D01*
X131722874Y-79039690D01*
X131727418Y-79035571D01*
X131732345Y-79031917D01*
X131737606Y-79028764D01*
X131743150Y-79026142D01*
X131748925Y-79024075D01*
X131754875Y-79022585D01*
X131760942Y-79021685D01*
X131767068Y-79021384D01*
X131773194Y-79021685D01*
G37*
G36*
X132126748Y-79375238D02*
G01*
X132132815Y-79376138D01*
X132138765Y-79377628D01*
X132144540Y-79379695D01*
X132150084Y-79382317D01*
X132155345Y-79385470D01*
X132160272Y-79389124D01*
X132164816Y-79393243D01*
X132253204Y-79481631D01*
X132257323Y-79486175D01*
X132260977Y-79491102D01*
X132264130Y-79496363D01*
X132266752Y-79501907D01*
X132268819Y-79507682D01*
X132270309Y-79513632D01*
X132271209Y-79519699D01*
X132271510Y-79525825D01*
X132271209Y-79531951D01*
X132270309Y-79538018D01*
X132268819Y-79543968D01*
X132266752Y-79549743D01*
X132264130Y-79555287D01*
X132260977Y-79560548D01*
X132257323Y-79565475D01*
X132253204Y-79570019D01*
X131722874Y-80100349D01*
X131718330Y-80104468D01*
X131713403Y-80108122D01*
X131708142Y-80111275D01*
X131702598Y-80113897D01*
X131696823Y-80115964D01*
X131690873Y-80117454D01*
X131684806Y-80118354D01*
X131678680Y-80118655D01*
X131672554Y-80118354D01*
X131666487Y-80117454D01*
X131660537Y-80115964D01*
X131654762Y-80113897D01*
X131649218Y-80111275D01*
X131643957Y-80108122D01*
X131639030Y-80104468D01*
X131634486Y-80100349D01*
X131546098Y-80011961D01*
X131541979Y-80007417D01*
X131538325Y-80002490D01*
X131535172Y-79997229D01*
X131532550Y-79991685D01*
X131530483Y-79985910D01*
X131528993Y-79979960D01*
X131528093Y-79973893D01*
X131527792Y-79967767D01*
X131528093Y-79961641D01*
X131528993Y-79955574D01*
X131530483Y-79949624D01*
X131532550Y-79943849D01*
X131535172Y-79938305D01*
X131538325Y-79933044D01*
X131541979Y-79928117D01*
X131546098Y-79923573D01*
X132076428Y-79393243D01*
X132080972Y-79389124D01*
X132085899Y-79385470D01*
X132091160Y-79382317D01*
X132096704Y-79379695D01*
X132102479Y-79377628D01*
X132108429Y-79376138D01*
X132114496Y-79375238D01*
X132120622Y-79374937D01*
X132126748Y-79375238D01*
G37*
G36*
X132480301Y-79728791D02*
G01*
X132486368Y-79729691D01*
X132492318Y-79731181D01*
X132498093Y-79733248D01*
X132503637Y-79735870D01*
X132508898Y-79739023D01*
X132513825Y-79742677D01*
X132518369Y-79746796D01*
X132606757Y-79835184D01*
X132610876Y-79839728D01*
X132614530Y-79844655D01*
X132617683Y-79849916D01*
X132620305Y-79855460D01*
X132622372Y-79861235D01*
X132623862Y-79867185D01*
X132624762Y-79873252D01*
X132625063Y-79879378D01*
X132624762Y-79885504D01*
X132623862Y-79891571D01*
X132622372Y-79897521D01*
X132620305Y-79903296D01*
X132617683Y-79908840D01*
X132614530Y-79914101D01*
X132610876Y-79919028D01*
X132606757Y-79923572D01*
X132076427Y-80453902D01*
X132071883Y-80458021D01*
X132066956Y-80461675D01*
X132061695Y-80464828D01*
X132056151Y-80467450D01*
X132050376Y-80469517D01*
X132044426Y-80471007D01*
X132038359Y-80471907D01*
X132032233Y-80472208D01*
X132026107Y-80471907D01*
X132020040Y-80471007D01*
X132014090Y-80469517D01*
X132008315Y-80467450D01*
X132002771Y-80464828D01*
X131997510Y-80461675D01*
X131992583Y-80458021D01*
X131988039Y-80453902D01*
X131899651Y-80365514D01*
X131895532Y-80360970D01*
X131891878Y-80356043D01*
X131888725Y-80350782D01*
X131886103Y-80345238D01*
X131884036Y-80339463D01*
X131882546Y-80333513D01*
X131881646Y-80327446D01*
X131881345Y-80321320D01*
X131881646Y-80315194D01*
X131882546Y-80309127D01*
X131884036Y-80303177D01*
X131886103Y-80297402D01*
X131888725Y-80291858D01*
X131891878Y-80286597D01*
X131895532Y-80281670D01*
X131899651Y-80277126D01*
X132429981Y-79746796D01*
X132434525Y-79742677D01*
X132439452Y-79739023D01*
X132444713Y-79735870D01*
X132450257Y-79733248D01*
X132456032Y-79731181D01*
X132461982Y-79729691D01*
X132468049Y-79728791D01*
X132474175Y-79728490D01*
X132480301Y-79728791D01*
G37*
G36*
X132833854Y-80082345D02*
G01*
X132839921Y-80083245D01*
X132845871Y-80084735D01*
X132851646Y-80086802D01*
X132857190Y-80089424D01*
X132862451Y-80092577D01*
X132867378Y-80096231D01*
X132871922Y-80100350D01*
X132960310Y-80188738D01*
X132964429Y-80193282D01*
X132968083Y-80198209D01*
X132971236Y-80203470D01*
X132973858Y-80209014D01*
X132975925Y-80214789D01*
X132977415Y-80220739D01*
X132978315Y-80226806D01*
X132978616Y-80232932D01*
X132978315Y-80239058D01*
X132977415Y-80245125D01*
X132975925Y-80251075D01*
X132973858Y-80256850D01*
X132971236Y-80262394D01*
X132968083Y-80267655D01*
X132964429Y-80272582D01*
X132960310Y-80277126D01*
X132429980Y-80807456D01*
X132425436Y-80811575D01*
X132420509Y-80815229D01*
X132415248Y-80818382D01*
X132409704Y-80821004D01*
X132403929Y-80823071D01*
X132397979Y-80824561D01*
X132391912Y-80825461D01*
X132385786Y-80825762D01*
X132379660Y-80825461D01*
X132373593Y-80824561D01*
X132367643Y-80823071D01*
X132361868Y-80821004D01*
X132356324Y-80818382D01*
X132351063Y-80815229D01*
X132346136Y-80811575D01*
X132341592Y-80807456D01*
X132253204Y-80719068D01*
X132249085Y-80714524D01*
X132245431Y-80709597D01*
X132242278Y-80704336D01*
X132239656Y-80698792D01*
X132237589Y-80693017D01*
X132236099Y-80687067D01*
X132235199Y-80681000D01*
X132234898Y-80674874D01*
X132235199Y-80668748D01*
X132236099Y-80662681D01*
X132237589Y-80656731D01*
X132239656Y-80650956D01*
X132242278Y-80645412D01*
X132245431Y-80640151D01*
X132249085Y-80635224D01*
X132253204Y-80630680D01*
X132783534Y-80100350D01*
X132788078Y-80096231D01*
X132793005Y-80092577D01*
X132798266Y-80089424D01*
X132803810Y-80086802D01*
X132809585Y-80084735D01*
X132815535Y-80083245D01*
X132821602Y-80082345D01*
X132827728Y-80082044D01*
X132833854Y-80082345D01*
G37*
G36*
X133187408Y-80435898D02*
G01*
X133193475Y-80436798D01*
X133199425Y-80438288D01*
X133205200Y-80440355D01*
X133210744Y-80442977D01*
X133216005Y-80446130D01*
X133220932Y-80449784D01*
X133225476Y-80453903D01*
X133313864Y-80542291D01*
X133317983Y-80546835D01*
X133321637Y-80551762D01*
X133324790Y-80557023D01*
X133327412Y-80562567D01*
X133329479Y-80568342D01*
X133330969Y-80574292D01*
X133331869Y-80580359D01*
X133332170Y-80586485D01*
X133331869Y-80592611D01*
X133330969Y-80598678D01*
X133329479Y-80604628D01*
X133327412Y-80610403D01*
X133324790Y-80615947D01*
X133321637Y-80621208D01*
X133317983Y-80626135D01*
X133313864Y-80630679D01*
X132783534Y-81161009D01*
X132778990Y-81165128D01*
X132774063Y-81168782D01*
X132768802Y-81171935D01*
X132763258Y-81174557D01*
X132757483Y-81176624D01*
X132751533Y-81178114D01*
X132745466Y-81179014D01*
X132739340Y-81179315D01*
X132733214Y-81179014D01*
X132727147Y-81178114D01*
X132721197Y-81176624D01*
X132715422Y-81174557D01*
X132709878Y-81171935D01*
X132704617Y-81168782D01*
X132699690Y-81165128D01*
X132695146Y-81161009D01*
X132606758Y-81072621D01*
X132602639Y-81068077D01*
X132598985Y-81063150D01*
X132595832Y-81057889D01*
X132593210Y-81052345D01*
X132591143Y-81046570D01*
X132589653Y-81040620D01*
X132588753Y-81034553D01*
X132588452Y-81028427D01*
X132588753Y-81022301D01*
X132589653Y-81016234D01*
X132591143Y-81010284D01*
X132593210Y-81004509D01*
X132595832Y-80998965D01*
X132598985Y-80993704D01*
X132602639Y-80988777D01*
X132606758Y-80984233D01*
X133137088Y-80453903D01*
X133141632Y-80449784D01*
X133146559Y-80446130D01*
X133151820Y-80442977D01*
X133157364Y-80440355D01*
X133163139Y-80438288D01*
X133169089Y-80436798D01*
X133175156Y-80435898D01*
X133181282Y-80435597D01*
X133187408Y-80435898D01*
G37*
G36*
X133540961Y-80789452D02*
G01*
X133547028Y-80790352D01*
X133552978Y-80791842D01*
X133558753Y-80793909D01*
X133564297Y-80796531D01*
X133569558Y-80799684D01*
X133574485Y-80803338D01*
X133579029Y-80807457D01*
X133667417Y-80895845D01*
X133671536Y-80900389D01*
X133675190Y-80905316D01*
X133678343Y-80910577D01*
X133680965Y-80916121D01*
X133683032Y-80921896D01*
X133684522Y-80927846D01*
X133685422Y-80933913D01*
X133685723Y-80940039D01*
X133685422Y-80946165D01*
X133684522Y-80952232D01*
X133683032Y-80958182D01*
X133680965Y-80963957D01*
X133678343Y-80969501D01*
X133675190Y-80974762D01*
X133671536Y-80979689D01*
X133667417Y-80984233D01*
X133137087Y-81514563D01*
X133132543Y-81518682D01*
X133127616Y-81522336D01*
X133122355Y-81525489D01*
X133116811Y-81528111D01*
X133111036Y-81530178D01*
X133105086Y-81531668D01*
X133099019Y-81532568D01*
X133092893Y-81532869D01*
X133086767Y-81532568D01*
X133080700Y-81531668D01*
X133074750Y-81530178D01*
X133068975Y-81528111D01*
X133063431Y-81525489D01*
X133058170Y-81522336D01*
X133053243Y-81518682D01*
X133048699Y-81514563D01*
X132960311Y-81426175D01*
X132956192Y-81421631D01*
X132952538Y-81416704D01*
X132949385Y-81411443D01*
X132946763Y-81405899D01*
X132944696Y-81400124D01*
X132943206Y-81394174D01*
X132942306Y-81388107D01*
X132942005Y-81381981D01*
X132942306Y-81375855D01*
X132943206Y-81369788D01*
X132944696Y-81363838D01*
X132946763Y-81358063D01*
X132949385Y-81352519D01*
X132952538Y-81347258D01*
X132956192Y-81342331D01*
X132960311Y-81337787D01*
X133490641Y-80807457D01*
X133495185Y-80803338D01*
X133500112Y-80799684D01*
X133505373Y-80796531D01*
X133510917Y-80793909D01*
X133516692Y-80791842D01*
X133522642Y-80790352D01*
X133528709Y-80789452D01*
X133534835Y-80789151D01*
X133540961Y-80789452D01*
G37*
G36*
X133820339Y-76243410D02*
G01*
X133840481Y-76246398D01*
X133860234Y-76251346D01*
X133879407Y-76258206D01*
X133897815Y-76266912D01*
X133915281Y-76277381D01*
X133931637Y-76289511D01*
X133946725Y-76303186D01*
X134240174Y-76596635D01*
X134253849Y-76611723D01*
X134265979Y-76628079D01*
X134276448Y-76645545D01*
X134285154Y-76663953D01*
X134292014Y-76683126D01*
X134296962Y-76702879D01*
X134299950Y-76723021D01*
X134300949Y-76743360D01*
X134299950Y-76763699D01*
X134296962Y-76783841D01*
X134292014Y-76803594D01*
X134285154Y-76822767D01*
X134276448Y-76841175D01*
X134265979Y-76858641D01*
X134253849Y-76874997D01*
X134240174Y-76890085D01*
X133946725Y-77183534D01*
X133931637Y-77197209D01*
X133915281Y-77209339D01*
X133897815Y-77219808D01*
X133879407Y-77228514D01*
X133860234Y-77235374D01*
X133840481Y-77240322D01*
X133820339Y-77243310D01*
X133800000Y-77244309D01*
X133779661Y-77243310D01*
X133759519Y-77240322D01*
X133739766Y-77235374D01*
X133720593Y-77228514D01*
X133702185Y-77219808D01*
X133684719Y-77209339D01*
X133668363Y-77197209D01*
X133653275Y-77183534D01*
X133359826Y-76890085D01*
X133346151Y-76874997D01*
X133334021Y-76858641D01*
X133323552Y-76841175D01*
X133314846Y-76822767D01*
X133307986Y-76803594D01*
X133303038Y-76783841D01*
X133300050Y-76763699D01*
X133299051Y-76743360D01*
X133300050Y-76723021D01*
X133303038Y-76702879D01*
X133307986Y-76683126D01*
X133314846Y-76663953D01*
X133323552Y-76645545D01*
X133334021Y-76628079D01*
X133346151Y-76611723D01*
X133359826Y-76596635D01*
X133653275Y-76303186D01*
X133668363Y-76289511D01*
X133684719Y-76277381D01*
X133702185Y-76266912D01*
X133720593Y-76258206D01*
X133739766Y-76251346D01*
X133759519Y-76246398D01*
X133779661Y-76243410D01*
X133800000Y-76242411D01*
X133820339Y-76243410D01*
G37*
G36*
X134548659Y-76971730D02*
G01*
X134568801Y-76974718D01*
X134588554Y-76979666D01*
X134607727Y-76986526D01*
X134626135Y-76995232D01*
X134643601Y-77005701D01*
X134659957Y-77017831D01*
X134675045Y-77031506D01*
X134968494Y-77324955D01*
X134982169Y-77340043D01*
X134994299Y-77356399D01*
X135004768Y-77373865D01*
X135013474Y-77392273D01*
X135020334Y-77411446D01*
X135025282Y-77431199D01*
X135028270Y-77451341D01*
X135029269Y-77471680D01*
X135028270Y-77492019D01*
X135025282Y-77512161D01*
X135020334Y-77531914D01*
X135013474Y-77551087D01*
X135004768Y-77569495D01*
X134994299Y-77586961D01*
X134982169Y-77603317D01*
X134968494Y-77618405D01*
X134675045Y-77911854D01*
X134659957Y-77925529D01*
X134643601Y-77937659D01*
X134626135Y-77948128D01*
X134607727Y-77956834D01*
X134588554Y-77963694D01*
X134568801Y-77968642D01*
X134548659Y-77971630D01*
X134528320Y-77972629D01*
X134507981Y-77971630D01*
X134487839Y-77968642D01*
X134468086Y-77963694D01*
X134448913Y-77956834D01*
X134430505Y-77948128D01*
X134413039Y-77937659D01*
X134396683Y-77925529D01*
X134381595Y-77911854D01*
X134088146Y-77618405D01*
X134074471Y-77603317D01*
X134062341Y-77586961D01*
X134051872Y-77569495D01*
X134043166Y-77551087D01*
X134036306Y-77531914D01*
X134031358Y-77512161D01*
X134028370Y-77492019D01*
X134027371Y-77471680D01*
X134028370Y-77451341D01*
X134031358Y-77431199D01*
X134036306Y-77411446D01*
X134043166Y-77392273D01*
X134051872Y-77373865D01*
X134062341Y-77356399D01*
X134074471Y-77340043D01*
X134088146Y-77324955D01*
X134381595Y-77031506D01*
X134396683Y-77017831D01*
X134413039Y-77005701D01*
X134430505Y-76995232D01*
X134448913Y-76986526D01*
X134468086Y-76979666D01*
X134487839Y-76974718D01*
X134507981Y-76971730D01*
X134528320Y-76970731D01*
X134548659Y-76971730D01*
G37*
G36*
X135276979Y-77700050D02*
G01*
X135297121Y-77703038D01*
X135316874Y-77707986D01*
X135336047Y-77714846D01*
X135354455Y-77723552D01*
X135371921Y-77734021D01*
X135388277Y-77746151D01*
X135403365Y-77759826D01*
X135696814Y-78053275D01*
X135710489Y-78068363D01*
X135722619Y-78084719D01*
X135733088Y-78102185D01*
X135741794Y-78120593D01*
X135748654Y-78139766D01*
X135753602Y-78159519D01*
X135756590Y-78179661D01*
X135757589Y-78200000D01*
X135756590Y-78220339D01*
X135753602Y-78240481D01*
X135748654Y-78260234D01*
X135741794Y-78279407D01*
X135733088Y-78297815D01*
X135722619Y-78315281D01*
X135710489Y-78331637D01*
X135696814Y-78346725D01*
X135403365Y-78640174D01*
X135388277Y-78653849D01*
X135371921Y-78665979D01*
X135354455Y-78676448D01*
X135336047Y-78685154D01*
X135316874Y-78692014D01*
X135297121Y-78696962D01*
X135276979Y-78699950D01*
X135256640Y-78700949D01*
X135236301Y-78699950D01*
X135216159Y-78696962D01*
X135196406Y-78692014D01*
X135177233Y-78685154D01*
X135158825Y-78676448D01*
X135141359Y-78665979D01*
X135125003Y-78653849D01*
X135109915Y-78640174D01*
X134816466Y-78346725D01*
X134802791Y-78331637D01*
X134790661Y-78315281D01*
X134780192Y-78297815D01*
X134771486Y-78279407D01*
X134764626Y-78260234D01*
X134759678Y-78240481D01*
X134756690Y-78220339D01*
X134755691Y-78200000D01*
X134756690Y-78179661D01*
X134759678Y-78159519D01*
X134764626Y-78139766D01*
X134771486Y-78120593D01*
X134780192Y-78102185D01*
X134790661Y-78084719D01*
X134802791Y-78068363D01*
X134816466Y-78053275D01*
X135109915Y-77759826D01*
X135125003Y-77746151D01*
X135141359Y-77734021D01*
X135158825Y-77723552D01*
X135177233Y-77714846D01*
X135196406Y-77707986D01*
X135216159Y-77703038D01*
X135236301Y-77700050D01*
X135256640Y-77699051D01*
X135276979Y-77700050D01*
G37*
G36*
X133092019Y-76971730D02*
G01*
X133112161Y-76974718D01*
X133131914Y-76979666D01*
X133151087Y-76986526D01*
X133169495Y-76995232D01*
X133186961Y-77005701D01*
X133203317Y-77017831D01*
X133218405Y-77031506D01*
X133511854Y-77324955D01*
X133525529Y-77340043D01*
X133537659Y-77356399D01*
X133548128Y-77373865D01*
X133556834Y-77392273D01*
X133563694Y-77411446D01*
X133568642Y-77431199D01*
X133571630Y-77451341D01*
X133572629Y-77471680D01*
X133571630Y-77492019D01*
X133568642Y-77512161D01*
X133563694Y-77531914D01*
X133556834Y-77551087D01*
X133548128Y-77569495D01*
X133537659Y-77586961D01*
X133525529Y-77603317D01*
X133511854Y-77618405D01*
X133218405Y-77911854D01*
X133203317Y-77925529D01*
X133186961Y-77937659D01*
X133169495Y-77948128D01*
X133151087Y-77956834D01*
X133131914Y-77963694D01*
X133112161Y-77968642D01*
X133092019Y-77971630D01*
X133071680Y-77972629D01*
X133051341Y-77971630D01*
X133031199Y-77968642D01*
X133011446Y-77963694D01*
X132992273Y-77956834D01*
X132973865Y-77948128D01*
X132956399Y-77937659D01*
X132940043Y-77925529D01*
X132924955Y-77911854D01*
X132631506Y-77618405D01*
X132617831Y-77603317D01*
X132605701Y-77586961D01*
X132595232Y-77569495D01*
X132586526Y-77551087D01*
X132579666Y-77531914D01*
X132574718Y-77512161D01*
X132571730Y-77492019D01*
X132570731Y-77471680D01*
X132571730Y-77451341D01*
X132574718Y-77431199D01*
X132579666Y-77411446D01*
X132586526Y-77392273D01*
X132595232Y-77373865D01*
X132605701Y-77356399D01*
X132617831Y-77340043D01*
X132631506Y-77324955D01*
X132924955Y-77031506D01*
X132940043Y-77017831D01*
X132956399Y-77005701D01*
X132973865Y-76995232D01*
X132992273Y-76986526D01*
X133011446Y-76979666D01*
X133031199Y-76974718D01*
X133051341Y-76971730D01*
X133071680Y-76970731D01*
X133092019Y-76971730D01*
G37*
G36*
X133820339Y-77700050D02*
G01*
X133840481Y-77703038D01*
X133860234Y-77707986D01*
X133879407Y-77714846D01*
X133897815Y-77723552D01*
X133915281Y-77734021D01*
X133931637Y-77746151D01*
X133946725Y-77759826D01*
X134240174Y-78053275D01*
X134253849Y-78068363D01*
X134265979Y-78084719D01*
X134276448Y-78102185D01*
X134285154Y-78120593D01*
X134292014Y-78139766D01*
X134296962Y-78159519D01*
X134299950Y-78179661D01*
X134300949Y-78200000D01*
X134299950Y-78220339D01*
X134296962Y-78240481D01*
X134292014Y-78260234D01*
X134285154Y-78279407D01*
X134276448Y-78297815D01*
X134265979Y-78315281D01*
X134253849Y-78331637D01*
X134240174Y-78346725D01*
X133946725Y-78640174D01*
X133931637Y-78653849D01*
X133915281Y-78665979D01*
X133897815Y-78676448D01*
X133879407Y-78685154D01*
X133860234Y-78692014D01*
X133840481Y-78696962D01*
X133820339Y-78699950D01*
X133800000Y-78700949D01*
X133779661Y-78699950D01*
X133759519Y-78696962D01*
X133739766Y-78692014D01*
X133720593Y-78685154D01*
X133702185Y-78676448D01*
X133684719Y-78665979D01*
X133668363Y-78653849D01*
X133653275Y-78640174D01*
X133359826Y-78346725D01*
X133346151Y-78331637D01*
X133334021Y-78315281D01*
X133323552Y-78297815D01*
X133314846Y-78279407D01*
X133307986Y-78260234D01*
X133303038Y-78240481D01*
X133300050Y-78220339D01*
X133299051Y-78200000D01*
X133300050Y-78179661D01*
X133303038Y-78159519D01*
X133307986Y-78139766D01*
X133314846Y-78120593D01*
X133323552Y-78102185D01*
X133334021Y-78084719D01*
X133346151Y-78068363D01*
X133359826Y-78053275D01*
X133653275Y-77759826D01*
X133668363Y-77746151D01*
X133684719Y-77734021D01*
X133702185Y-77723552D01*
X133720593Y-77714846D01*
X133739766Y-77707986D01*
X133759519Y-77703038D01*
X133779661Y-77700050D01*
X133800000Y-77699051D01*
X133820339Y-77700050D01*
G37*
G36*
X134548659Y-78428370D02*
G01*
X134568801Y-78431358D01*
X134588554Y-78436306D01*
X134607727Y-78443166D01*
X134626135Y-78451872D01*
X134643601Y-78462341D01*
X134659957Y-78474471D01*
X134675045Y-78488146D01*
X134968494Y-78781595D01*
X134982169Y-78796683D01*
X134994299Y-78813039D01*
X135004768Y-78830505D01*
X135013474Y-78848913D01*
X135020334Y-78868086D01*
X135025282Y-78887839D01*
X135028270Y-78907981D01*
X135029269Y-78928320D01*
X135028270Y-78948659D01*
X135025282Y-78968801D01*
X135020334Y-78988554D01*
X135013474Y-79007727D01*
X135004768Y-79026135D01*
X134994299Y-79043601D01*
X134982169Y-79059957D01*
X134968494Y-79075045D01*
X134675045Y-79368494D01*
X134659957Y-79382169D01*
X134643601Y-79394299D01*
X134626135Y-79404768D01*
X134607727Y-79413474D01*
X134588554Y-79420334D01*
X134568801Y-79425282D01*
X134548659Y-79428270D01*
X134528320Y-79429269D01*
X134507981Y-79428270D01*
X134487839Y-79425282D01*
X134468086Y-79420334D01*
X134448913Y-79413474D01*
X134430505Y-79404768D01*
X134413039Y-79394299D01*
X134396683Y-79382169D01*
X134381595Y-79368494D01*
X134088146Y-79075045D01*
X134074471Y-79059957D01*
X134062341Y-79043601D01*
X134051872Y-79026135D01*
X134043166Y-79007727D01*
X134036306Y-78988554D01*
X134031358Y-78968801D01*
X134028370Y-78948659D01*
X134027371Y-78928320D01*
X134028370Y-78907981D01*
X134031358Y-78887839D01*
X134036306Y-78868086D01*
X134043166Y-78848913D01*
X134051872Y-78830505D01*
X134062341Y-78813039D01*
X134074471Y-78796683D01*
X134088146Y-78781595D01*
X134381595Y-78488146D01*
X134396683Y-78474471D01*
X134413039Y-78462341D01*
X134430505Y-78451872D01*
X134448913Y-78443166D01*
X134468086Y-78436306D01*
X134487839Y-78431358D01*
X134507981Y-78428370D01*
X134528320Y-78427371D01*
X134548659Y-78428370D01*
G37*
G36*
X132363699Y-77700050D02*
G01*
X132383841Y-77703038D01*
X132403594Y-77707986D01*
X132422767Y-77714846D01*
X132441175Y-77723552D01*
X132458641Y-77734021D01*
X132474997Y-77746151D01*
X132490085Y-77759826D01*
X132783534Y-78053275D01*
X132797209Y-78068363D01*
X132809339Y-78084719D01*
X132819808Y-78102185D01*
X132828514Y-78120593D01*
X132835374Y-78139766D01*
X132840322Y-78159519D01*
X132843310Y-78179661D01*
X132844309Y-78200000D01*
X132843310Y-78220339D01*
X132840322Y-78240481D01*
X132835374Y-78260234D01*
X132828514Y-78279407D01*
X132819808Y-78297815D01*
X132809339Y-78315281D01*
X132797209Y-78331637D01*
X132783534Y-78346725D01*
X132490085Y-78640174D01*
X132474997Y-78653849D01*
X132458641Y-78665979D01*
X132441175Y-78676448D01*
X132422767Y-78685154D01*
X132403594Y-78692014D01*
X132383841Y-78696962D01*
X132363699Y-78699950D01*
X132343360Y-78700949D01*
X132323021Y-78699950D01*
X132302879Y-78696962D01*
X132283126Y-78692014D01*
X132263953Y-78685154D01*
X132245545Y-78676448D01*
X132228079Y-78665979D01*
X132211723Y-78653849D01*
X132196635Y-78640174D01*
X131903186Y-78346725D01*
X131889511Y-78331637D01*
X131877381Y-78315281D01*
X131866912Y-78297815D01*
X131858206Y-78279407D01*
X131851346Y-78260234D01*
X131846398Y-78240481D01*
X131843410Y-78220339D01*
X131842411Y-78200000D01*
X131843410Y-78179661D01*
X131846398Y-78159519D01*
X131851346Y-78139766D01*
X131858206Y-78120593D01*
X131866912Y-78102185D01*
X131877381Y-78084719D01*
X131889511Y-78068363D01*
X131903186Y-78053275D01*
X132196635Y-77759826D01*
X132211723Y-77746151D01*
X132228079Y-77734021D01*
X132245545Y-77723552D01*
X132263953Y-77714846D01*
X132283126Y-77707986D01*
X132302879Y-77703038D01*
X132323021Y-77700050D01*
X132343360Y-77699051D01*
X132363699Y-77700050D01*
G37*
G36*
X133092019Y-78428370D02*
G01*
X133112161Y-78431358D01*
X133131914Y-78436306D01*
X133151087Y-78443166D01*
X133169495Y-78451872D01*
X133186961Y-78462341D01*
X133203317Y-78474471D01*
X133218405Y-78488146D01*
X133511854Y-78781595D01*
X133525529Y-78796683D01*
X133537659Y-78813039D01*
X133548128Y-78830505D01*
X133556834Y-78848913D01*
X133563694Y-78868086D01*
X133568642Y-78887839D01*
X133571630Y-78907981D01*
X133572629Y-78928320D01*
X133571630Y-78948659D01*
X133568642Y-78968801D01*
X133563694Y-78988554D01*
X133556834Y-79007727D01*
X133548128Y-79026135D01*
X133537659Y-79043601D01*
X133525529Y-79059957D01*
X133511854Y-79075045D01*
X133218405Y-79368494D01*
X133203317Y-79382169D01*
X133186961Y-79394299D01*
X133169495Y-79404768D01*
X133151087Y-79413474D01*
X133131914Y-79420334D01*
X133112161Y-79425282D01*
X133092019Y-79428270D01*
X133071680Y-79429269D01*
X133051341Y-79428270D01*
X133031199Y-79425282D01*
X133011446Y-79420334D01*
X132992273Y-79413474D01*
X132973865Y-79404768D01*
X132956399Y-79394299D01*
X132940043Y-79382169D01*
X132924955Y-79368494D01*
X132631506Y-79075045D01*
X132617831Y-79059957D01*
X132605701Y-79043601D01*
X132595232Y-79026135D01*
X132586526Y-79007727D01*
X132579666Y-78988554D01*
X132574718Y-78968801D01*
X132571730Y-78948659D01*
X132570731Y-78928320D01*
X132571730Y-78907981D01*
X132574718Y-78887839D01*
X132579666Y-78868086D01*
X132586526Y-78848913D01*
X132595232Y-78830505D01*
X132605701Y-78813039D01*
X132617831Y-78796683D01*
X132631506Y-78781595D01*
X132924955Y-78488146D01*
X132940043Y-78474471D01*
X132956399Y-78462341D01*
X132973865Y-78451872D01*
X132992273Y-78443166D01*
X133011446Y-78436306D01*
X133031199Y-78431358D01*
X133051341Y-78428370D01*
X133071680Y-78427371D01*
X133092019Y-78428370D01*
G37*
G36*
X133820339Y-79156690D02*
G01*
X133840481Y-79159678D01*
X133860234Y-79164626D01*
X133879407Y-79171486D01*
X133897815Y-79180192D01*
X133915281Y-79190661D01*
X133931637Y-79202791D01*
X133946725Y-79216466D01*
X134240174Y-79509915D01*
X134253849Y-79525003D01*
X134265979Y-79541359D01*
X134276448Y-79558825D01*
X134285154Y-79577233D01*
X134292014Y-79596406D01*
X134296962Y-79616159D01*
X134299950Y-79636301D01*
X134300949Y-79656640D01*
X134299950Y-79676979D01*
X134296962Y-79697121D01*
X134292014Y-79716874D01*
X134285154Y-79736047D01*
X134276448Y-79754455D01*
X134265979Y-79771921D01*
X134253849Y-79788277D01*
X134240174Y-79803365D01*
X133946725Y-80096814D01*
X133931637Y-80110489D01*
X133915281Y-80122619D01*
X133897815Y-80133088D01*
X133879407Y-80141794D01*
X133860234Y-80148654D01*
X133840481Y-80153602D01*
X133820339Y-80156590D01*
X133800000Y-80157589D01*
X133779661Y-80156590D01*
X133759519Y-80153602D01*
X133739766Y-80148654D01*
X133720593Y-80141794D01*
X133702185Y-80133088D01*
X133684719Y-80122619D01*
X133668363Y-80110489D01*
X133653275Y-80096814D01*
X133359826Y-79803365D01*
X133346151Y-79788277D01*
X133334021Y-79771921D01*
X133323552Y-79754455D01*
X133314846Y-79736047D01*
X133307986Y-79716874D01*
X133303038Y-79697121D01*
X133300050Y-79676979D01*
X133299051Y-79656640D01*
X133300050Y-79636301D01*
X133303038Y-79616159D01*
X133307986Y-79596406D01*
X133314846Y-79577233D01*
X133323552Y-79558825D01*
X133334021Y-79541359D01*
X133346151Y-79525003D01*
X133359826Y-79509915D01*
X133653275Y-79216466D01*
X133668363Y-79202791D01*
X133684719Y-79190661D01*
X133702185Y-79180192D01*
X133720593Y-79171486D01*
X133739766Y-79164626D01*
X133759519Y-79159678D01*
X133779661Y-79156690D01*
X133800000Y-79155691D01*
X133820339Y-79156690D01*
G37*
G36*
X136510780Y-82826144D02*
G01*
X136533835Y-82829563D01*
X136556444Y-82835227D01*
X136578388Y-82843079D01*
X136599458Y-82853044D01*
X136619449Y-82865026D01*
X136638169Y-82878910D01*
X136655439Y-82894562D01*
X136671091Y-82911832D01*
X136684975Y-82930552D01*
X136696957Y-82950543D01*
X136706922Y-82971613D01*
X136714774Y-82993557D01*
X136720438Y-83016166D01*
X136723857Y-83039221D01*
X136725001Y-83062500D01*
X136725001Y-83537500D01*
X136723857Y-83560779D01*
X136720438Y-83583834D01*
X136714774Y-83606443D01*
X136706922Y-83628387D01*
X136696957Y-83649457D01*
X136684975Y-83669448D01*
X136671091Y-83688168D01*
X136655439Y-83705438D01*
X136638169Y-83721090D01*
X136619449Y-83734974D01*
X136599458Y-83746956D01*
X136578388Y-83756921D01*
X136556444Y-83764773D01*
X136533835Y-83770437D01*
X136510780Y-83773856D01*
X136487501Y-83775000D01*
X135912501Y-83775000D01*
X135889222Y-83773856D01*
X135866167Y-83770437D01*
X135843558Y-83764773D01*
X135821614Y-83756921D01*
X135800544Y-83746956D01*
X135780553Y-83734974D01*
X135761833Y-83721090D01*
X135744563Y-83705438D01*
X135728911Y-83688168D01*
X135715027Y-83669448D01*
X135703045Y-83649457D01*
X135693080Y-83628387D01*
X135685228Y-83606443D01*
X135679564Y-83583834D01*
X135676145Y-83560779D01*
X135675001Y-83537500D01*
X135675001Y-83062500D01*
X135676145Y-83039221D01*
X135679564Y-83016166D01*
X135685228Y-82993557D01*
X135693080Y-82971613D01*
X135703045Y-82950543D01*
X135715027Y-82930552D01*
X135728911Y-82911832D01*
X135744563Y-82894562D01*
X135761833Y-82878910D01*
X135780553Y-82865026D01*
X135800544Y-82853044D01*
X135821614Y-82843079D01*
X135843558Y-82835227D01*
X135866167Y-82829563D01*
X135889222Y-82826144D01*
X135912501Y-82825000D01*
X136487501Y-82825000D01*
X136510780Y-82826144D01*
G37*
G36*
X134760780Y-82826144D02*
G01*
X134783835Y-82829563D01*
X134806444Y-82835227D01*
X134828388Y-82843079D01*
X134849458Y-82853044D01*
X134869449Y-82865026D01*
X134888169Y-82878910D01*
X134905439Y-82894562D01*
X134921091Y-82911832D01*
X134934975Y-82930552D01*
X134946957Y-82950543D01*
X134956922Y-82971613D01*
X134964774Y-82993557D01*
X134970438Y-83016166D01*
X134973857Y-83039221D01*
X134975001Y-83062500D01*
X134975001Y-83537500D01*
X134973857Y-83560779D01*
X134970438Y-83583834D01*
X134964774Y-83606443D01*
X134956922Y-83628387D01*
X134946957Y-83649457D01*
X134934975Y-83669448D01*
X134921091Y-83688168D01*
X134905439Y-83705438D01*
X134888169Y-83721090D01*
X134869449Y-83734974D01*
X134849458Y-83746956D01*
X134828388Y-83756921D01*
X134806444Y-83764773D01*
X134783835Y-83770437D01*
X134760780Y-83773856D01*
X134737501Y-83775000D01*
X134162501Y-83775000D01*
X134139222Y-83773856D01*
X134116167Y-83770437D01*
X134093558Y-83764773D01*
X134071614Y-83756921D01*
X134050544Y-83746956D01*
X134030553Y-83734974D01*
X134011833Y-83721090D01*
X133994563Y-83705438D01*
X133978911Y-83688168D01*
X133965027Y-83669448D01*
X133953045Y-83649457D01*
X133943080Y-83628387D01*
X133935228Y-83606443D01*
X133929564Y-83583834D01*
X133926145Y-83560779D01*
X133925001Y-83537500D01*
X133925001Y-83062500D01*
X133926145Y-83039221D01*
X133929564Y-83016166D01*
X133935228Y-82993557D01*
X133943080Y-82971613D01*
X133953045Y-82950543D01*
X133965027Y-82930552D01*
X133978911Y-82911832D01*
X133994563Y-82894562D01*
X134011833Y-82878910D01*
X134030553Y-82865026D01*
X134050544Y-82853044D01*
X134071614Y-82843079D01*
X134093558Y-82835227D01*
X134116167Y-82829563D01*
X134139222Y-82826144D01*
X134162501Y-82825000D01*
X134737501Y-82825000D01*
X134760780Y-82826144D01*
G37*
G36*
X140160779Y-82826144D02*
G01*
X140183834Y-82829563D01*
X140206443Y-82835227D01*
X140228387Y-82843079D01*
X140249457Y-82853044D01*
X140269448Y-82865026D01*
X140288168Y-82878910D01*
X140305438Y-82894562D01*
X140321090Y-82911832D01*
X140334974Y-82930552D01*
X140346956Y-82950543D01*
X140356921Y-82971613D01*
X140364773Y-82993557D01*
X140370437Y-83016166D01*
X140373856Y-83039221D01*
X140375000Y-83062500D01*
X140375000Y-83537500D01*
X140373856Y-83560779D01*
X140370437Y-83583834D01*
X140364773Y-83606443D01*
X140356921Y-83628387D01*
X140346956Y-83649457D01*
X140334974Y-83669448D01*
X140321090Y-83688168D01*
X140305438Y-83705438D01*
X140288168Y-83721090D01*
X140269448Y-83734974D01*
X140249457Y-83746956D01*
X140228387Y-83756921D01*
X140206443Y-83764773D01*
X140183834Y-83770437D01*
X140160779Y-83773856D01*
X140137500Y-83775000D01*
X139562500Y-83775000D01*
X139539221Y-83773856D01*
X139516166Y-83770437D01*
X139493557Y-83764773D01*
X139471613Y-83756921D01*
X139450543Y-83746956D01*
X139430552Y-83734974D01*
X139411832Y-83721090D01*
X139394562Y-83705438D01*
X139378910Y-83688168D01*
X139365026Y-83669448D01*
X139353044Y-83649457D01*
X139343079Y-83628387D01*
X139335227Y-83606443D01*
X139329563Y-83583834D01*
X139326144Y-83560779D01*
X139325000Y-83537500D01*
X139325000Y-83062500D01*
X139326144Y-83039221D01*
X139329563Y-83016166D01*
X139335227Y-82993557D01*
X139343079Y-82971613D01*
X139353044Y-82950543D01*
X139365026Y-82930552D01*
X139378910Y-82911832D01*
X139394562Y-82894562D01*
X139411832Y-82878910D01*
X139430552Y-82865026D01*
X139450543Y-82853044D01*
X139471613Y-82843079D01*
X139493557Y-82835227D01*
X139516166Y-82829563D01*
X139539221Y-82826144D01*
X139562500Y-82825000D01*
X140137500Y-82825000D01*
X140160779Y-82826144D01*
G37*
G36*
X138410779Y-82826144D02*
G01*
X138433834Y-82829563D01*
X138456443Y-82835227D01*
X138478387Y-82843079D01*
X138499457Y-82853044D01*
X138519448Y-82865026D01*
X138538168Y-82878910D01*
X138555438Y-82894562D01*
X138571090Y-82911832D01*
X138584974Y-82930552D01*
X138596956Y-82950543D01*
X138606921Y-82971613D01*
X138614773Y-82993557D01*
X138620437Y-83016166D01*
X138623856Y-83039221D01*
X138625000Y-83062500D01*
X138625000Y-83537500D01*
X138623856Y-83560779D01*
X138620437Y-83583834D01*
X138614773Y-83606443D01*
X138606921Y-83628387D01*
X138596956Y-83649457D01*
X138584974Y-83669448D01*
X138571090Y-83688168D01*
X138555438Y-83705438D01*
X138538168Y-83721090D01*
X138519448Y-83734974D01*
X138499457Y-83746956D01*
X138478387Y-83756921D01*
X138456443Y-83764773D01*
X138433834Y-83770437D01*
X138410779Y-83773856D01*
X138387500Y-83775000D01*
X137812500Y-83775000D01*
X137789221Y-83773856D01*
X137766166Y-83770437D01*
X137743557Y-83764773D01*
X137721613Y-83756921D01*
X137700543Y-83746956D01*
X137680552Y-83734974D01*
X137661832Y-83721090D01*
X137644562Y-83705438D01*
X137628910Y-83688168D01*
X137615026Y-83669448D01*
X137603044Y-83649457D01*
X137593079Y-83628387D01*
X137585227Y-83606443D01*
X137579563Y-83583834D01*
X137576144Y-83560779D01*
X137575000Y-83537500D01*
X137575000Y-83062500D01*
X137576144Y-83039221D01*
X137579563Y-83016166D01*
X137585227Y-82993557D01*
X137593079Y-82971613D01*
X137603044Y-82950543D01*
X137615026Y-82930552D01*
X137628910Y-82911832D01*
X137644562Y-82894562D01*
X137661832Y-82878910D01*
X137680552Y-82865026D01*
X137700543Y-82853044D01*
X137721613Y-82843079D01*
X137743557Y-82835227D01*
X137766166Y-82829563D01*
X137789221Y-82826144D01*
X137812500Y-82825000D01*
X138387500Y-82825000D01*
X138410779Y-82826144D01*
G37*
G36*
X143110778Y-74526144D02*
G01*
X143133833Y-74529563D01*
X143156442Y-74535227D01*
X143178386Y-74543079D01*
X143199456Y-74553044D01*
X143219447Y-74565026D01*
X143238167Y-74578910D01*
X143255437Y-74594562D01*
X143271089Y-74611832D01*
X143284973Y-74630552D01*
X143296955Y-74650543D01*
X143306920Y-74671613D01*
X143314772Y-74693557D01*
X143320436Y-74716166D01*
X143323855Y-74739221D01*
X143324999Y-74762500D01*
X143324999Y-75237500D01*
X143323855Y-75260779D01*
X143320436Y-75283834D01*
X143314772Y-75306443D01*
X143306920Y-75328387D01*
X143296955Y-75349457D01*
X143284973Y-75369448D01*
X143271089Y-75388168D01*
X143255437Y-75405438D01*
X143238167Y-75421090D01*
X143219447Y-75434974D01*
X143199456Y-75446956D01*
X143178386Y-75456921D01*
X143156442Y-75464773D01*
X143133833Y-75470437D01*
X143110778Y-75473856D01*
X143087499Y-75475000D01*
X142512499Y-75475000D01*
X142489220Y-75473856D01*
X142466165Y-75470437D01*
X142443556Y-75464773D01*
X142421612Y-75456921D01*
X142400542Y-75446956D01*
X142380551Y-75434974D01*
X142361831Y-75421090D01*
X142344561Y-75405438D01*
X142328909Y-75388168D01*
X142315025Y-75369448D01*
X142303043Y-75349457D01*
X142293078Y-75328387D01*
X142285226Y-75306443D01*
X142279562Y-75283834D01*
X142276143Y-75260779D01*
X142274999Y-75237500D01*
X142274999Y-74762500D01*
X142276143Y-74739221D01*
X142279562Y-74716166D01*
X142285226Y-74693557D01*
X142293078Y-74671613D01*
X142303043Y-74650543D01*
X142315025Y-74630552D01*
X142328909Y-74611832D01*
X142344561Y-74594562D01*
X142361831Y-74578910D01*
X142380551Y-74565026D01*
X142400542Y-74553044D01*
X142421612Y-74543079D01*
X142443556Y-74535227D01*
X142466165Y-74529563D01*
X142489220Y-74526144D01*
X142512499Y-74525000D01*
X143087499Y-74525000D01*
X143110778Y-74526144D01*
G37*
G36*
X141360778Y-74526144D02*
G01*
X141383833Y-74529563D01*
X141406442Y-74535227D01*
X141428386Y-74543079D01*
X141449456Y-74553044D01*
X141469447Y-74565026D01*
X141488167Y-74578910D01*
X141505437Y-74594562D01*
X141521089Y-74611832D01*
X141534973Y-74630552D01*
X141546955Y-74650543D01*
X141556920Y-74671613D01*
X141564772Y-74693557D01*
X141570436Y-74716166D01*
X141573855Y-74739221D01*
X141574999Y-74762500D01*
X141574999Y-75237500D01*
X141573855Y-75260779D01*
X141570436Y-75283834D01*
X141564772Y-75306443D01*
X141556920Y-75328387D01*
X141546955Y-75349457D01*
X141534973Y-75369448D01*
X141521089Y-75388168D01*
X141505437Y-75405438D01*
X141488167Y-75421090D01*
X141469447Y-75434974D01*
X141449456Y-75446956D01*
X141428386Y-75456921D01*
X141406442Y-75464773D01*
X141383833Y-75470437D01*
X141360778Y-75473856D01*
X141337499Y-75475000D01*
X140762499Y-75475000D01*
X140739220Y-75473856D01*
X140716165Y-75470437D01*
X140693556Y-75464773D01*
X140671612Y-75456921D01*
X140650542Y-75446956D01*
X140630551Y-75434974D01*
X140611831Y-75421090D01*
X140594561Y-75405438D01*
X140578909Y-75388168D01*
X140565025Y-75369448D01*
X140553043Y-75349457D01*
X140543078Y-75328387D01*
X140535226Y-75306443D01*
X140529562Y-75283834D01*
X140526143Y-75260779D01*
X140524999Y-75237500D01*
X140524999Y-74762500D01*
X140526143Y-74739221D01*
X140529562Y-74716166D01*
X140535226Y-74693557D01*
X140543078Y-74671613D01*
X140553043Y-74650543D01*
X140565025Y-74630552D01*
X140578909Y-74611832D01*
X140594561Y-74594562D01*
X140611831Y-74578910D01*
X140630551Y-74565026D01*
X140650542Y-74553044D01*
X140671612Y-74543079D01*
X140693556Y-74535227D01*
X140716165Y-74529563D01*
X140739220Y-74526144D01*
X140762499Y-74525000D01*
X141337499Y-74525000D01*
X141360778Y-74526144D01*
G37*
G36*
X127925360Y-82429849D02*
G01*
X127948415Y-82433268D01*
X127971024Y-82438932D01*
X127992968Y-82446784D01*
X128014038Y-82456749D01*
X128034029Y-82468731D01*
X128052749Y-82482615D01*
X128070019Y-82498267D01*
X128476605Y-82904853D01*
X128492257Y-82922123D01*
X128506141Y-82940843D01*
X128518123Y-82960834D01*
X128528088Y-82981904D01*
X128535940Y-83003848D01*
X128541604Y-83026457D01*
X128545023Y-83049512D01*
X128546167Y-83072791D01*
X128545023Y-83096070D01*
X128541604Y-83119125D01*
X128535940Y-83141734D01*
X128528088Y-83163678D01*
X128518123Y-83184748D01*
X128506141Y-83204739D01*
X128492257Y-83223459D01*
X128476605Y-83240729D01*
X128140729Y-83576605D01*
X128123459Y-83592257D01*
X128104739Y-83606141D01*
X128084748Y-83618123D01*
X128063678Y-83628088D01*
X128041734Y-83635940D01*
X128019125Y-83641604D01*
X127996070Y-83645023D01*
X127972791Y-83646167D01*
X127949512Y-83645023D01*
X127926457Y-83641604D01*
X127903848Y-83635940D01*
X127881904Y-83628088D01*
X127860834Y-83618123D01*
X127840843Y-83606141D01*
X127822123Y-83592257D01*
X127804853Y-83576605D01*
X127398267Y-83170019D01*
X127382615Y-83152749D01*
X127368731Y-83134029D01*
X127356749Y-83114038D01*
X127346784Y-83092968D01*
X127338932Y-83071024D01*
X127333268Y-83048415D01*
X127329849Y-83025360D01*
X127328705Y-83002081D01*
X127329849Y-82978802D01*
X127333268Y-82955747D01*
X127338932Y-82933138D01*
X127346784Y-82911194D01*
X127356749Y-82890124D01*
X127368731Y-82870133D01*
X127382615Y-82851413D01*
X127398267Y-82834143D01*
X127734143Y-82498267D01*
X127751413Y-82482615D01*
X127770133Y-82468731D01*
X127790124Y-82456749D01*
X127811194Y-82446784D01*
X127833138Y-82438932D01*
X127855747Y-82433268D01*
X127878802Y-82429849D01*
X127902081Y-82428705D01*
X127925360Y-82429849D01*
G37*
G36*
X126687924Y-81192413D02*
G01*
X126710979Y-81195832D01*
X126733588Y-81201496D01*
X126755532Y-81209348D01*
X126776602Y-81219313D01*
X126796593Y-81231295D01*
X126815313Y-81245179D01*
X126832583Y-81260831D01*
X127239169Y-81667417D01*
X127254821Y-81684687D01*
X127268705Y-81703407D01*
X127280687Y-81723398D01*
X127290652Y-81744468D01*
X127298504Y-81766412D01*
X127304168Y-81789021D01*
X127307587Y-81812076D01*
X127308731Y-81835355D01*
X127307587Y-81858634D01*
X127304168Y-81881689D01*
X127298504Y-81904298D01*
X127290652Y-81926242D01*
X127280687Y-81947312D01*
X127268705Y-81967303D01*
X127254821Y-81986023D01*
X127239169Y-82003293D01*
X126903293Y-82339169D01*
X126886023Y-82354821D01*
X126867303Y-82368705D01*
X126847312Y-82380687D01*
X126826242Y-82390652D01*
X126804298Y-82398504D01*
X126781689Y-82404168D01*
X126758634Y-82407587D01*
X126735355Y-82408731D01*
X126712076Y-82407587D01*
X126689021Y-82404168D01*
X126666412Y-82398504D01*
X126644468Y-82390652D01*
X126623398Y-82380687D01*
X126603407Y-82368705D01*
X126584687Y-82354821D01*
X126567417Y-82339169D01*
X126160831Y-81932583D01*
X126145179Y-81915313D01*
X126131295Y-81896593D01*
X126119313Y-81876602D01*
X126109348Y-81855532D01*
X126101496Y-81833588D01*
X126095832Y-81810979D01*
X126092413Y-81787924D01*
X126091269Y-81764645D01*
X126092413Y-81741366D01*
X126095832Y-81718311D01*
X126101496Y-81695702D01*
X126109348Y-81673758D01*
X126119313Y-81652688D01*
X126131295Y-81632697D01*
X126145179Y-81613977D01*
X126160831Y-81596707D01*
X126496707Y-81260831D01*
X126513977Y-81245179D01*
X126532697Y-81231295D01*
X126552688Y-81219313D01*
X126573758Y-81209348D01*
X126595702Y-81201496D01*
X126618311Y-81195832D01*
X126641366Y-81192413D01*
X126664645Y-81191269D01*
X126687924Y-81192413D01*
G37*
G36*
X126650488Y-73954977D02*
G01*
X126673543Y-73958396D01*
X126696152Y-73964060D01*
X126718096Y-73971912D01*
X126739166Y-73981877D01*
X126759157Y-73993859D01*
X126777877Y-74007743D01*
X126795147Y-74023395D01*
X127201733Y-74429981D01*
X127217385Y-74447251D01*
X127231269Y-74465971D01*
X127243251Y-74485962D01*
X127253216Y-74507032D01*
X127261068Y-74528976D01*
X127266732Y-74551585D01*
X127270151Y-74574640D01*
X127271295Y-74597919D01*
X127270151Y-74621198D01*
X127266732Y-74644253D01*
X127261068Y-74666862D01*
X127253216Y-74688806D01*
X127243251Y-74709876D01*
X127231269Y-74729867D01*
X127217385Y-74748587D01*
X127201733Y-74765857D01*
X126865857Y-75101733D01*
X126848587Y-75117385D01*
X126829867Y-75131269D01*
X126809876Y-75143251D01*
X126788806Y-75153216D01*
X126766862Y-75161068D01*
X126744253Y-75166732D01*
X126721198Y-75170151D01*
X126697919Y-75171295D01*
X126674640Y-75170151D01*
X126651585Y-75166732D01*
X126628976Y-75161068D01*
X126607032Y-75153216D01*
X126585962Y-75143251D01*
X126565971Y-75131269D01*
X126547251Y-75117385D01*
X126529981Y-75101733D01*
X126123395Y-74695147D01*
X126107743Y-74677877D01*
X126093859Y-74659157D01*
X126081877Y-74639166D01*
X126071912Y-74618096D01*
X126064060Y-74596152D01*
X126058396Y-74573543D01*
X126054977Y-74550488D01*
X126053833Y-74527209D01*
X126054977Y-74503930D01*
X126058396Y-74480875D01*
X126064060Y-74458266D01*
X126071912Y-74436322D01*
X126081877Y-74415252D01*
X126093859Y-74395261D01*
X126107743Y-74376541D01*
X126123395Y-74359271D01*
X126459271Y-74023395D01*
X126476541Y-74007743D01*
X126495261Y-73993859D01*
X126515252Y-73981877D01*
X126536322Y-73971912D01*
X126558266Y-73964060D01*
X126580875Y-73958396D01*
X126603930Y-73954977D01*
X126627209Y-73953833D01*
X126650488Y-73954977D01*
G37*
G36*
X127887924Y-75192413D02*
G01*
X127910979Y-75195832D01*
X127933588Y-75201496D01*
X127955532Y-75209348D01*
X127976602Y-75219313D01*
X127996593Y-75231295D01*
X128015313Y-75245179D01*
X128032583Y-75260831D01*
X128439169Y-75667417D01*
X128454821Y-75684687D01*
X128468705Y-75703407D01*
X128480687Y-75723398D01*
X128490652Y-75744468D01*
X128498504Y-75766412D01*
X128504168Y-75789021D01*
X128507587Y-75812076D01*
X128508731Y-75835355D01*
X128507587Y-75858634D01*
X128504168Y-75881689D01*
X128498504Y-75904298D01*
X128490652Y-75926242D01*
X128480687Y-75947312D01*
X128468705Y-75967303D01*
X128454821Y-75986023D01*
X128439169Y-76003293D01*
X128103293Y-76339169D01*
X128086023Y-76354821D01*
X128067303Y-76368705D01*
X128047312Y-76380687D01*
X128026242Y-76390652D01*
X128004298Y-76398504D01*
X127981689Y-76404168D01*
X127958634Y-76407587D01*
X127935355Y-76408731D01*
X127912076Y-76407587D01*
X127889021Y-76404168D01*
X127866412Y-76398504D01*
X127844468Y-76390652D01*
X127823398Y-76380687D01*
X127803407Y-76368705D01*
X127784687Y-76354821D01*
X127767417Y-76339169D01*
X127360831Y-75932583D01*
X127345179Y-75915313D01*
X127331295Y-75896593D01*
X127319313Y-75876602D01*
X127309348Y-75855532D01*
X127301496Y-75833588D01*
X127295832Y-75810979D01*
X127292413Y-75787924D01*
X127291269Y-75764645D01*
X127292413Y-75741366D01*
X127295832Y-75718311D01*
X127301496Y-75695702D01*
X127309348Y-75673758D01*
X127319313Y-75652688D01*
X127331295Y-75632697D01*
X127345179Y-75613977D01*
X127360831Y-75596707D01*
X127696707Y-75260831D01*
X127713977Y-75245179D01*
X127732697Y-75231295D01*
X127752688Y-75219313D01*
X127773758Y-75209348D01*
X127795702Y-75201496D01*
X127818311Y-75195832D01*
X127841366Y-75192413D01*
X127864645Y-75191269D01*
X127887924Y-75192413D01*
G37*
G36*
X121287924Y-79292413D02*
G01*
X121310979Y-79295832D01*
X121333588Y-79301496D01*
X121355532Y-79309348D01*
X121376602Y-79319313D01*
X121396593Y-79331295D01*
X121415313Y-79345179D01*
X121432583Y-79360831D01*
X121839169Y-79767417D01*
X121854821Y-79784687D01*
X121868705Y-79803407D01*
X121880687Y-79823398D01*
X121890652Y-79844468D01*
X121898504Y-79866412D01*
X121904168Y-79889021D01*
X121907587Y-79912076D01*
X121908731Y-79935355D01*
X121907587Y-79958634D01*
X121904168Y-79981689D01*
X121898504Y-80004298D01*
X121890652Y-80026242D01*
X121880687Y-80047312D01*
X121868705Y-80067303D01*
X121854821Y-80086023D01*
X121839169Y-80103293D01*
X121503293Y-80439169D01*
X121486023Y-80454821D01*
X121467303Y-80468705D01*
X121447312Y-80480687D01*
X121426242Y-80490652D01*
X121404298Y-80498504D01*
X121381689Y-80504168D01*
X121358634Y-80507587D01*
X121335355Y-80508731D01*
X121312076Y-80507587D01*
X121289021Y-80504168D01*
X121266412Y-80498504D01*
X121244468Y-80490652D01*
X121223398Y-80480687D01*
X121203407Y-80468705D01*
X121184687Y-80454821D01*
X121167417Y-80439169D01*
X120760831Y-80032583D01*
X120745179Y-80015313D01*
X120731295Y-79996593D01*
X120719313Y-79976602D01*
X120709348Y-79955532D01*
X120701496Y-79933588D01*
X120695832Y-79910979D01*
X120692413Y-79887924D01*
X120691269Y-79864645D01*
X120692413Y-79841366D01*
X120695832Y-79818311D01*
X120701496Y-79795702D01*
X120709348Y-79773758D01*
X120719313Y-79752688D01*
X120731295Y-79732697D01*
X120745179Y-79713977D01*
X120760831Y-79696707D01*
X121096707Y-79360831D01*
X121113977Y-79345179D01*
X121132697Y-79331295D01*
X121152688Y-79319313D01*
X121173758Y-79309348D01*
X121195702Y-79301496D01*
X121218311Y-79295832D01*
X121241366Y-79292413D01*
X121264645Y-79291269D01*
X121287924Y-79292413D01*
G37*
G36*
X122525360Y-80529849D02*
G01*
X122548415Y-80533268D01*
X122571024Y-80538932D01*
X122592968Y-80546784D01*
X122614038Y-80556749D01*
X122634029Y-80568731D01*
X122652749Y-80582615D01*
X122670019Y-80598267D01*
X123076605Y-81004853D01*
X123092257Y-81022123D01*
X123106141Y-81040843D01*
X123118123Y-81060834D01*
X123128088Y-81081904D01*
X123135940Y-81103848D01*
X123141604Y-81126457D01*
X123145023Y-81149512D01*
X123146167Y-81172791D01*
X123145023Y-81196070D01*
X123141604Y-81219125D01*
X123135940Y-81241734D01*
X123128088Y-81263678D01*
X123118123Y-81284748D01*
X123106141Y-81304739D01*
X123092257Y-81323459D01*
X123076605Y-81340729D01*
X122740729Y-81676605D01*
X122723459Y-81692257D01*
X122704739Y-81706141D01*
X122684748Y-81718123D01*
X122663678Y-81728088D01*
X122641734Y-81735940D01*
X122619125Y-81741604D01*
X122596070Y-81745023D01*
X122572791Y-81746167D01*
X122549512Y-81745023D01*
X122526457Y-81741604D01*
X122503848Y-81735940D01*
X122481904Y-81728088D01*
X122460834Y-81718123D01*
X122440843Y-81706141D01*
X122422123Y-81692257D01*
X122404853Y-81676605D01*
X121998267Y-81270019D01*
X121982615Y-81252749D01*
X121968731Y-81234029D01*
X121956749Y-81214038D01*
X121946784Y-81192968D01*
X121938932Y-81171024D01*
X121933268Y-81148415D01*
X121929849Y-81125360D01*
X121928705Y-81102081D01*
X121929849Y-81078802D01*
X121933268Y-81055747D01*
X121938932Y-81033138D01*
X121946784Y-81011194D01*
X121956749Y-80990124D01*
X121968731Y-80970133D01*
X121982615Y-80951413D01*
X121998267Y-80934143D01*
X122334143Y-80598267D01*
X122351413Y-80582615D01*
X122370133Y-80568731D01*
X122390124Y-80556749D01*
X122411194Y-80546784D01*
X122433138Y-80538932D01*
X122455747Y-80533268D01*
X122478802Y-80529849D01*
X122502081Y-80528705D01*
X122525360Y-80529849D01*
G37*
G36*
X85409010Y-63560482D02*
G01*
X84560482Y-64409010D01*
X83924086Y-63772614D01*
X84772614Y-62924086D01*
X85409010Y-63560482D01*
G37*
G36*
X87742462Y-65893934D02*
G01*
X86893934Y-66742462D01*
X86257538Y-66106066D01*
X87106066Y-65257538D01*
X87742462Y-65893934D01*
G37*
G36*
X83742462Y-65893934D02*
G01*
X82893934Y-66742462D01*
X82257538Y-66106066D01*
X83106066Y-65257538D01*
X83742462Y-65893934D01*
G37*
G36*
X81409010Y-63560482D02*
G01*
X80560482Y-64409010D01*
X79924086Y-63772614D01*
X80772614Y-62924086D01*
X81409010Y-63560482D01*
G37*
G36*
X77409010Y-63560482D02*
G01*
X76560482Y-64409010D01*
X75924086Y-63772614D01*
X76772614Y-62924086D01*
X77409010Y-63560482D01*
G37*
G36*
X79742462Y-65893934D02*
G01*
X78893934Y-66742462D01*
X78257538Y-66106066D01*
X79106066Y-65257538D01*
X79742462Y-65893934D01*
G37*
G36*
X75742462Y-65943934D02*
G01*
X74893934Y-66792462D01*
X74257538Y-66156066D01*
X75106066Y-65307538D01*
X75742462Y-65943934D01*
G37*
G36*
X73409010Y-63610482D02*
G01*
X72560482Y-64459010D01*
X71924086Y-63822614D01*
X72772614Y-62974086D01*
X73409010Y-63610482D01*
G37*
G36*
X71742462Y-65893934D02*
G01*
X70893934Y-66742462D01*
X70257538Y-66106066D01*
X71106066Y-65257538D01*
X71742462Y-65893934D01*
G37*
G36*
X69409010Y-63560482D02*
G01*
X68560482Y-64409010D01*
X67924086Y-63772614D01*
X68772614Y-62924086D01*
X69409010Y-63560482D01*
G37*
G36*
X84560482Y-75590990D02*
G01*
X85409010Y-76439518D01*
X84772614Y-77075914D01*
X83924086Y-76227386D01*
X84560482Y-75590990D01*
G37*
G36*
X86893934Y-73257538D02*
G01*
X87742462Y-74106066D01*
X87106066Y-74742462D01*
X86257538Y-73893934D01*
X86893934Y-73257538D01*
G37*
G36*
X82893934Y-73257538D02*
G01*
X83742462Y-74106066D01*
X83106066Y-74742462D01*
X82257538Y-73893934D01*
X82893934Y-73257538D01*
G37*
G36*
X80560482Y-75590990D02*
G01*
X81409010Y-76439518D01*
X80772614Y-77075914D01*
X79924086Y-76227386D01*
X80560482Y-75590990D01*
G37*
G36*
X76560482Y-75590990D02*
G01*
X77409010Y-76439518D01*
X76772614Y-77075914D01*
X75924086Y-76227386D01*
X76560482Y-75590990D01*
G37*
G36*
X78893934Y-73257538D02*
G01*
X79742462Y-74106066D01*
X79106066Y-74742462D01*
X78257538Y-73893934D01*
X78893934Y-73257538D01*
G37*
G36*
X74893934Y-73257538D02*
G01*
X75742462Y-74106066D01*
X75106066Y-74742462D01*
X74257538Y-73893934D01*
X74893934Y-73257538D01*
G37*
G36*
X72560482Y-75590990D02*
G01*
X73409010Y-76439518D01*
X72772614Y-77075914D01*
X71924086Y-76227386D01*
X72560482Y-75590990D01*
G37*
G36*
X68560482Y-75590990D02*
G01*
X69409010Y-76439518D01*
X68772614Y-77075914D01*
X67924086Y-76227386D01*
X68560482Y-75590990D01*
G37*
G36*
X70893934Y-73257538D02*
G01*
X71742462Y-74106066D01*
X71106066Y-74742462D01*
X70257538Y-73893934D01*
X70893934Y-73257538D01*
G37*
D10*
X135527500Y-51697500D03*
X149377500Y-49157500D03*
X116721013Y-51697500D03*
X130571013Y-49157500D03*
X111277500Y-49157500D03*
X97427500Y-51697500D03*
X92227500Y-49157500D03*
X78377500Y-51697500D03*
X59327500Y-51697500D03*
X73177500Y-49157500D03*
X137041014Y-90832553D03*
X150891014Y-88292553D03*
X112547500Y-88292554D03*
X98697500Y-90832554D03*
X93741013Y-88292553D03*
X79891013Y-90832553D03*
X60597500Y-90832554D03*
X74447500Y-88292554D03*
D13*
G36*
X143110779Y-76126144D02*
G01*
X143133834Y-76129563D01*
X143156443Y-76135227D01*
X143178387Y-76143079D01*
X143199457Y-76153044D01*
X143219448Y-76165026D01*
X143238168Y-76178910D01*
X143255438Y-76194562D01*
X143271090Y-76211832D01*
X143284974Y-76230552D01*
X143296956Y-76250543D01*
X143306921Y-76271613D01*
X143314773Y-76293557D01*
X143320437Y-76316166D01*
X143323856Y-76339221D01*
X143325000Y-76362500D01*
X143325000Y-76837500D01*
X143323856Y-76860779D01*
X143320437Y-76883834D01*
X143314773Y-76906443D01*
X143306921Y-76928387D01*
X143296956Y-76949457D01*
X143284974Y-76969448D01*
X143271090Y-76988168D01*
X143255438Y-77005438D01*
X143238168Y-77021090D01*
X143219448Y-77034974D01*
X143199457Y-77046956D01*
X143178387Y-77056921D01*
X143156443Y-77064773D01*
X143133834Y-77070437D01*
X143110779Y-77073856D01*
X143087500Y-77075000D01*
X142512500Y-77075000D01*
X142489221Y-77073856D01*
X142466166Y-77070437D01*
X142443557Y-77064773D01*
X142421613Y-77056921D01*
X142400543Y-77046956D01*
X142380552Y-77034974D01*
X142361832Y-77021090D01*
X142344562Y-77005438D01*
X142328910Y-76988168D01*
X142315026Y-76969448D01*
X142303044Y-76949457D01*
X142293079Y-76928387D01*
X142285227Y-76906443D01*
X142279563Y-76883834D01*
X142276144Y-76860779D01*
X142275000Y-76837500D01*
X142275000Y-76362500D01*
X142276144Y-76339221D01*
X142279563Y-76316166D01*
X142285227Y-76293557D01*
X142293079Y-76271613D01*
X142303044Y-76250543D01*
X142315026Y-76230552D01*
X142328910Y-76211832D01*
X142344562Y-76194562D01*
X142361832Y-76178910D01*
X142380552Y-76165026D01*
X142400543Y-76153044D01*
X142421613Y-76143079D01*
X142443557Y-76135227D01*
X142466166Y-76129563D01*
X142489221Y-76126144D01*
X142512500Y-76125000D01*
X143087500Y-76125000D01*
X143110779Y-76126144D01*
G37*
G36*
X141360779Y-76126144D02*
G01*
X141383834Y-76129563D01*
X141406443Y-76135227D01*
X141428387Y-76143079D01*
X141449457Y-76153044D01*
X141469448Y-76165026D01*
X141488168Y-76178910D01*
X141505438Y-76194562D01*
X141521090Y-76211832D01*
X141534974Y-76230552D01*
X141546956Y-76250543D01*
X141556921Y-76271613D01*
X141564773Y-76293557D01*
X141570437Y-76316166D01*
X141573856Y-76339221D01*
X141575000Y-76362500D01*
X141575000Y-76837500D01*
X141573856Y-76860779D01*
X141570437Y-76883834D01*
X141564773Y-76906443D01*
X141556921Y-76928387D01*
X141546956Y-76949457D01*
X141534974Y-76969448D01*
X141521090Y-76988168D01*
X141505438Y-77005438D01*
X141488168Y-77021090D01*
X141469448Y-77034974D01*
X141449457Y-77046956D01*
X141428387Y-77056921D01*
X141406443Y-77064773D01*
X141383834Y-77070437D01*
X141360779Y-77073856D01*
X141337500Y-77075000D01*
X140762500Y-77075000D01*
X140739221Y-77073856D01*
X140716166Y-77070437D01*
X140693557Y-77064773D01*
X140671613Y-77056921D01*
X140650543Y-77046956D01*
X140630552Y-77034974D01*
X140611832Y-77021090D01*
X140594562Y-77005438D01*
X140578910Y-76988168D01*
X140565026Y-76969448D01*
X140553044Y-76949457D01*
X140543079Y-76928387D01*
X140535227Y-76906443D01*
X140529563Y-76883834D01*
X140526144Y-76860779D01*
X140525000Y-76837500D01*
X140525000Y-76362500D01*
X140526144Y-76339221D01*
X140529563Y-76316166D01*
X140535227Y-76293557D01*
X140543079Y-76271613D01*
X140553044Y-76250543D01*
X140565026Y-76230552D01*
X140578910Y-76211832D01*
X140594562Y-76194562D01*
X140611832Y-76178910D01*
X140630552Y-76165026D01*
X140650543Y-76153044D01*
X140671613Y-76143079D01*
X140693557Y-76135227D01*
X140716166Y-76129563D01*
X140739221Y-76126144D01*
X140762500Y-76125000D01*
X141337500Y-76125000D01*
X141360779Y-76126144D01*
G37*
G36*
X143110779Y-80926144D02*
G01*
X143133834Y-80929563D01*
X143156443Y-80935227D01*
X143178387Y-80943079D01*
X143199457Y-80953044D01*
X143219448Y-80965026D01*
X143238168Y-80978910D01*
X143255438Y-80994562D01*
X143271090Y-81011832D01*
X143284974Y-81030552D01*
X143296956Y-81050543D01*
X143306921Y-81071613D01*
X143314773Y-81093557D01*
X143320437Y-81116166D01*
X143323856Y-81139221D01*
X143325000Y-81162500D01*
X143325000Y-81637500D01*
X143323856Y-81660779D01*
X143320437Y-81683834D01*
X143314773Y-81706443D01*
X143306921Y-81728387D01*
X143296956Y-81749457D01*
X143284974Y-81769448D01*
X143271090Y-81788168D01*
X143255438Y-81805438D01*
X143238168Y-81821090D01*
X143219448Y-81834974D01*
X143199457Y-81846956D01*
X143178387Y-81856921D01*
X143156443Y-81864773D01*
X143133834Y-81870437D01*
X143110779Y-81873856D01*
X143087500Y-81875000D01*
X142512500Y-81875000D01*
X142489221Y-81873856D01*
X142466166Y-81870437D01*
X142443557Y-81864773D01*
X142421613Y-81856921D01*
X142400543Y-81846956D01*
X142380552Y-81834974D01*
X142361832Y-81821090D01*
X142344562Y-81805438D01*
X142328910Y-81788168D01*
X142315026Y-81769448D01*
X142303044Y-81749457D01*
X142293079Y-81728387D01*
X142285227Y-81706443D01*
X142279563Y-81683834D01*
X142276144Y-81660779D01*
X142275000Y-81637500D01*
X142275000Y-81162500D01*
X142276144Y-81139221D01*
X142279563Y-81116166D01*
X142285227Y-81093557D01*
X142293079Y-81071613D01*
X142303044Y-81050543D01*
X142315026Y-81030552D01*
X142328910Y-81011832D01*
X142344562Y-80994562D01*
X142361832Y-80978910D01*
X142380552Y-80965026D01*
X142400543Y-80953044D01*
X142421613Y-80943079D01*
X142443557Y-80935227D01*
X142466166Y-80929563D01*
X142489221Y-80926144D01*
X142512500Y-80925000D01*
X143087500Y-80925000D01*
X143110779Y-80926144D01*
G37*
G36*
X141360779Y-80926144D02*
G01*
X141383834Y-80929563D01*
X141406443Y-80935227D01*
X141428387Y-80943079D01*
X141449457Y-80953044D01*
X141469448Y-80965026D01*
X141488168Y-80978910D01*
X141505438Y-80994562D01*
X141521090Y-81011832D01*
X141534974Y-81030552D01*
X141546956Y-81050543D01*
X141556921Y-81071613D01*
X141564773Y-81093557D01*
X141570437Y-81116166D01*
X141573856Y-81139221D01*
X141575000Y-81162500D01*
X141575000Y-81637500D01*
X141573856Y-81660779D01*
X141570437Y-81683834D01*
X141564773Y-81706443D01*
X141556921Y-81728387D01*
X141546956Y-81749457D01*
X141534974Y-81769448D01*
X141521090Y-81788168D01*
X141505438Y-81805438D01*
X141488168Y-81821090D01*
X141469448Y-81834974D01*
X141449457Y-81846956D01*
X141428387Y-81856921D01*
X141406443Y-81864773D01*
X141383834Y-81870437D01*
X141360779Y-81873856D01*
X141337500Y-81875000D01*
X140762500Y-81875000D01*
X140739221Y-81873856D01*
X140716166Y-81870437D01*
X140693557Y-81864773D01*
X140671613Y-81856921D01*
X140650543Y-81846956D01*
X140630552Y-81834974D01*
X140611832Y-81821090D01*
X140594562Y-81805438D01*
X140578910Y-81788168D01*
X140565026Y-81769448D01*
X140553044Y-81749457D01*
X140543079Y-81728387D01*
X140535227Y-81706443D01*
X140529563Y-81683834D01*
X140526144Y-81660779D01*
X140525000Y-81637500D01*
X140525000Y-81162500D01*
X140526144Y-81139221D01*
X140529563Y-81116166D01*
X140535227Y-81093557D01*
X140543079Y-81071613D01*
X140553044Y-81050543D01*
X140565026Y-81030552D01*
X140578910Y-81011832D01*
X140594562Y-80994562D01*
X140611832Y-80978910D01*
X140630552Y-80965026D01*
X140650543Y-80953044D01*
X140671613Y-80943079D01*
X140693557Y-80935227D01*
X140716166Y-80929563D01*
X140739221Y-80926144D01*
X140762500Y-80925000D01*
X141337500Y-80925000D01*
X141360779Y-80926144D01*
G37*
G36*
X143085779Y-77726144D02*
G01*
X143108834Y-77729563D01*
X143131443Y-77735227D01*
X143153387Y-77743079D01*
X143174457Y-77753044D01*
X143194448Y-77765026D01*
X143213168Y-77778910D01*
X143230438Y-77794562D01*
X143246090Y-77811832D01*
X143259974Y-77830552D01*
X143271956Y-77850543D01*
X143281921Y-77871613D01*
X143289773Y-77893557D01*
X143295437Y-77916166D01*
X143298856Y-77939221D01*
X143300000Y-77962500D01*
X143300000Y-78437500D01*
X143298856Y-78460779D01*
X143295437Y-78483834D01*
X143289773Y-78506443D01*
X143281921Y-78528387D01*
X143271956Y-78549457D01*
X143259974Y-78569448D01*
X143246090Y-78588168D01*
X143230438Y-78605438D01*
X143213168Y-78621090D01*
X143194448Y-78634974D01*
X143174457Y-78646956D01*
X143153387Y-78656921D01*
X143131443Y-78664773D01*
X143108834Y-78670437D01*
X143085779Y-78673856D01*
X143062500Y-78675000D01*
X142487500Y-78675000D01*
X142464221Y-78673856D01*
X142441166Y-78670437D01*
X142418557Y-78664773D01*
X142396613Y-78656921D01*
X142375543Y-78646956D01*
X142355552Y-78634974D01*
X142336832Y-78621090D01*
X142319562Y-78605438D01*
X142303910Y-78588168D01*
X142290026Y-78569448D01*
X142278044Y-78549457D01*
X142268079Y-78528387D01*
X142260227Y-78506443D01*
X142254563Y-78483834D01*
X142251144Y-78460779D01*
X142250000Y-78437500D01*
X142250000Y-77962500D01*
X142251144Y-77939221D01*
X142254563Y-77916166D01*
X142260227Y-77893557D01*
X142268079Y-77871613D01*
X142278044Y-77850543D01*
X142290026Y-77830552D01*
X142303910Y-77811832D01*
X142319562Y-77794562D01*
X142336832Y-77778910D01*
X142355552Y-77765026D01*
X142375543Y-77753044D01*
X142396613Y-77743079D01*
X142418557Y-77735227D01*
X142441166Y-77729563D01*
X142464221Y-77726144D01*
X142487500Y-77725000D01*
X143062500Y-77725000D01*
X143085779Y-77726144D01*
G37*
G36*
X141335779Y-77726144D02*
G01*
X141358834Y-77729563D01*
X141381443Y-77735227D01*
X141403387Y-77743079D01*
X141424457Y-77753044D01*
X141444448Y-77765026D01*
X141463168Y-77778910D01*
X141480438Y-77794562D01*
X141496090Y-77811832D01*
X141509974Y-77830552D01*
X141521956Y-77850543D01*
X141531921Y-77871613D01*
X141539773Y-77893557D01*
X141545437Y-77916166D01*
X141548856Y-77939221D01*
X141550000Y-77962500D01*
X141550000Y-78437500D01*
X141548856Y-78460779D01*
X141545437Y-78483834D01*
X141539773Y-78506443D01*
X141531921Y-78528387D01*
X141521956Y-78549457D01*
X141509974Y-78569448D01*
X141496090Y-78588168D01*
X141480438Y-78605438D01*
X141463168Y-78621090D01*
X141444448Y-78634974D01*
X141424457Y-78646956D01*
X141403387Y-78656921D01*
X141381443Y-78664773D01*
X141358834Y-78670437D01*
X141335779Y-78673856D01*
X141312500Y-78675000D01*
X140737500Y-78675000D01*
X140714221Y-78673856D01*
X140691166Y-78670437D01*
X140668557Y-78664773D01*
X140646613Y-78656921D01*
X140625543Y-78646956D01*
X140605552Y-78634974D01*
X140586832Y-78621090D01*
X140569562Y-78605438D01*
X140553910Y-78588168D01*
X140540026Y-78569448D01*
X140528044Y-78549457D01*
X140518079Y-78528387D01*
X140510227Y-78506443D01*
X140504563Y-78483834D01*
X140501144Y-78460779D01*
X140500000Y-78437500D01*
X140500000Y-77962500D01*
X140501144Y-77939221D01*
X140504563Y-77916166D01*
X140510227Y-77893557D01*
X140518079Y-77871613D01*
X140528044Y-77850543D01*
X140540026Y-77830552D01*
X140553910Y-77811832D01*
X140569562Y-77794562D01*
X140586832Y-77778910D01*
X140605552Y-77765026D01*
X140625543Y-77753044D01*
X140646613Y-77743079D01*
X140668557Y-77735227D01*
X140691166Y-77729563D01*
X140714221Y-77726144D01*
X140737500Y-77725000D01*
X141312500Y-77725000D01*
X141335779Y-77726144D01*
G37*
G36*
X143085779Y-79326144D02*
G01*
X143108834Y-79329563D01*
X143131443Y-79335227D01*
X143153387Y-79343079D01*
X143174457Y-79353044D01*
X143194448Y-79365026D01*
X143213168Y-79378910D01*
X143230438Y-79394562D01*
X143246090Y-79411832D01*
X143259974Y-79430552D01*
X143271956Y-79450543D01*
X143281921Y-79471613D01*
X143289773Y-79493557D01*
X143295437Y-79516166D01*
X143298856Y-79539221D01*
X143300000Y-79562500D01*
X143300000Y-80037500D01*
X143298856Y-80060779D01*
X143295437Y-80083834D01*
X143289773Y-80106443D01*
X143281921Y-80128387D01*
X143271956Y-80149457D01*
X143259974Y-80169448D01*
X143246090Y-80188168D01*
X143230438Y-80205438D01*
X143213168Y-80221090D01*
X143194448Y-80234974D01*
X143174457Y-80246956D01*
X143153387Y-80256921D01*
X143131443Y-80264773D01*
X143108834Y-80270437D01*
X143085779Y-80273856D01*
X143062500Y-80275000D01*
X142487500Y-80275000D01*
X142464221Y-80273856D01*
X142441166Y-80270437D01*
X142418557Y-80264773D01*
X142396613Y-80256921D01*
X142375543Y-80246956D01*
X142355552Y-80234974D01*
X142336832Y-80221090D01*
X142319562Y-80205438D01*
X142303910Y-80188168D01*
X142290026Y-80169448D01*
X142278044Y-80149457D01*
X142268079Y-80128387D01*
X142260227Y-80106443D01*
X142254563Y-80083834D01*
X142251144Y-80060779D01*
X142250000Y-80037500D01*
X142250000Y-79562500D01*
X142251144Y-79539221D01*
X142254563Y-79516166D01*
X142260227Y-79493557D01*
X142268079Y-79471613D01*
X142278044Y-79450543D01*
X142290026Y-79430552D01*
X142303910Y-79411832D01*
X142319562Y-79394562D01*
X142336832Y-79378910D01*
X142355552Y-79365026D01*
X142375543Y-79353044D01*
X142396613Y-79343079D01*
X142418557Y-79335227D01*
X142441166Y-79329563D01*
X142464221Y-79326144D01*
X142487500Y-79325000D01*
X143062500Y-79325000D01*
X143085779Y-79326144D01*
G37*
G36*
X141335779Y-79326144D02*
G01*
X141358834Y-79329563D01*
X141381443Y-79335227D01*
X141403387Y-79343079D01*
X141424457Y-79353044D01*
X141444448Y-79365026D01*
X141463168Y-79378910D01*
X141480438Y-79394562D01*
X141496090Y-79411832D01*
X141509974Y-79430552D01*
X141521956Y-79450543D01*
X141531921Y-79471613D01*
X141539773Y-79493557D01*
X141545437Y-79516166D01*
X141548856Y-79539221D01*
X141550000Y-79562500D01*
X141550000Y-80037500D01*
X141548856Y-80060779D01*
X141545437Y-80083834D01*
X141539773Y-80106443D01*
X141531921Y-80128387D01*
X141521956Y-80149457D01*
X141509974Y-80169448D01*
X141496090Y-80188168D01*
X141480438Y-80205438D01*
X141463168Y-80221090D01*
X141444448Y-80234974D01*
X141424457Y-80246956D01*
X141403387Y-80256921D01*
X141381443Y-80264773D01*
X141358834Y-80270437D01*
X141335779Y-80273856D01*
X141312500Y-80275000D01*
X140737500Y-80275000D01*
X140714221Y-80273856D01*
X140691166Y-80270437D01*
X140668557Y-80264773D01*
X140646613Y-80256921D01*
X140625543Y-80246956D01*
X140605552Y-80234974D01*
X140586832Y-80221090D01*
X140569562Y-80205438D01*
X140553910Y-80188168D01*
X140540026Y-80169448D01*
X140528044Y-80149457D01*
X140518079Y-80128387D01*
X140510227Y-80106443D01*
X140504563Y-80083834D01*
X140501144Y-80060779D01*
X140500000Y-80037500D01*
X140500000Y-79562500D01*
X140501144Y-79539221D01*
X140504563Y-79516166D01*
X140510227Y-79493557D01*
X140518079Y-79471613D01*
X140528044Y-79450543D01*
X140540026Y-79430552D01*
X140553910Y-79411832D01*
X140569562Y-79394562D01*
X140586832Y-79378910D01*
X140605552Y-79365026D01*
X140625543Y-79353044D01*
X140646613Y-79343079D01*
X140668557Y-79335227D01*
X140691166Y-79329563D01*
X140714221Y-79326144D01*
X140737500Y-79325000D01*
X141312500Y-79325000D01*
X141335779Y-79326144D01*
G37*
G36*
X118750488Y-75154977D02*
G01*
X118773543Y-75158396D01*
X118796152Y-75164060D01*
X118818096Y-75171912D01*
X118839166Y-75181877D01*
X118859157Y-75193859D01*
X118877877Y-75207743D01*
X118895147Y-75223395D01*
X119301733Y-75629981D01*
X119317385Y-75647251D01*
X119331269Y-75665971D01*
X119343251Y-75685962D01*
X119353216Y-75707032D01*
X119361068Y-75728976D01*
X119366732Y-75751585D01*
X119370151Y-75774640D01*
X119371295Y-75797919D01*
X119370151Y-75821198D01*
X119366732Y-75844253D01*
X119361068Y-75866862D01*
X119353216Y-75888806D01*
X119343251Y-75909876D01*
X119331269Y-75929867D01*
X119317385Y-75948587D01*
X119301733Y-75965857D01*
X118965857Y-76301733D01*
X118948587Y-76317385D01*
X118929867Y-76331269D01*
X118909876Y-76343251D01*
X118888806Y-76353216D01*
X118866862Y-76361068D01*
X118844253Y-76366732D01*
X118821198Y-76370151D01*
X118797919Y-76371295D01*
X118774640Y-76370151D01*
X118751585Y-76366732D01*
X118728976Y-76361068D01*
X118707032Y-76353216D01*
X118685962Y-76343251D01*
X118665971Y-76331269D01*
X118647251Y-76317385D01*
X118629981Y-76301733D01*
X118223395Y-75895147D01*
X118207743Y-75877877D01*
X118193859Y-75859157D01*
X118181877Y-75839166D01*
X118171912Y-75818096D01*
X118164060Y-75796152D01*
X118158396Y-75773543D01*
X118154977Y-75750488D01*
X118153833Y-75727209D01*
X118154977Y-75703930D01*
X118158396Y-75680875D01*
X118164060Y-75658266D01*
X118171912Y-75636322D01*
X118181877Y-75615252D01*
X118193859Y-75595261D01*
X118207743Y-75576541D01*
X118223395Y-75559271D01*
X118559271Y-75223395D01*
X118576541Y-75207743D01*
X118595261Y-75193859D01*
X118615252Y-75181877D01*
X118636322Y-75171912D01*
X118658266Y-75164060D01*
X118680875Y-75158396D01*
X118703930Y-75154977D01*
X118727209Y-75153833D01*
X118750488Y-75154977D01*
G37*
G36*
X119987924Y-76392413D02*
G01*
X120010979Y-76395832D01*
X120033588Y-76401496D01*
X120055532Y-76409348D01*
X120076602Y-76419313D01*
X120096593Y-76431295D01*
X120115313Y-76445179D01*
X120132583Y-76460831D01*
X120539169Y-76867417D01*
X120554821Y-76884687D01*
X120568705Y-76903407D01*
X120580687Y-76923398D01*
X120590652Y-76944468D01*
X120598504Y-76966412D01*
X120604168Y-76989021D01*
X120607587Y-77012076D01*
X120608731Y-77035355D01*
X120607587Y-77058634D01*
X120604168Y-77081689D01*
X120598504Y-77104298D01*
X120590652Y-77126242D01*
X120580687Y-77147312D01*
X120568705Y-77167303D01*
X120554821Y-77186023D01*
X120539169Y-77203293D01*
X120203293Y-77539169D01*
X120186023Y-77554821D01*
X120167303Y-77568705D01*
X120147312Y-77580687D01*
X120126242Y-77590652D01*
X120104298Y-77598504D01*
X120081689Y-77604168D01*
X120058634Y-77607587D01*
X120035355Y-77608731D01*
X120012076Y-77607587D01*
X119989021Y-77604168D01*
X119966412Y-77598504D01*
X119944468Y-77590652D01*
X119923398Y-77580687D01*
X119903407Y-77568705D01*
X119884687Y-77554821D01*
X119867417Y-77539169D01*
X119460831Y-77132583D01*
X119445179Y-77115313D01*
X119431295Y-77096593D01*
X119419313Y-77076602D01*
X119409348Y-77055532D01*
X119401496Y-77033588D01*
X119395832Y-77010979D01*
X119392413Y-76987924D01*
X119391269Y-76964645D01*
X119392413Y-76941366D01*
X119395832Y-76918311D01*
X119401496Y-76895702D01*
X119409348Y-76873758D01*
X119419313Y-76852688D01*
X119431295Y-76832697D01*
X119445179Y-76813977D01*
X119460831Y-76796707D01*
X119796707Y-76460831D01*
X119813977Y-76445179D01*
X119832697Y-76431295D01*
X119852688Y-76419313D01*
X119873758Y-76409348D01*
X119895702Y-76401496D01*
X119918311Y-76395832D01*
X119941366Y-76392413D01*
X119964645Y-76391269D01*
X119987924Y-76392413D01*
G37*
G36*
X130458634Y-75092413D02*
G01*
X130481689Y-75095832D01*
X130504298Y-75101496D01*
X130526242Y-75109348D01*
X130547312Y-75119313D01*
X130567303Y-75131295D01*
X130586023Y-75145179D01*
X130603293Y-75160831D01*
X130939169Y-75496707D01*
X130954821Y-75513977D01*
X130968705Y-75532697D01*
X130980687Y-75552688D01*
X130990652Y-75573758D01*
X130998504Y-75595702D01*
X131004168Y-75618311D01*
X131007587Y-75641366D01*
X131008731Y-75664645D01*
X131007587Y-75687924D01*
X131004168Y-75710979D01*
X130998504Y-75733588D01*
X130990652Y-75755532D01*
X130980687Y-75776602D01*
X130968705Y-75796593D01*
X130954821Y-75815313D01*
X130939169Y-75832583D01*
X130532583Y-76239169D01*
X130515313Y-76254821D01*
X130496593Y-76268705D01*
X130476602Y-76280687D01*
X130455532Y-76290652D01*
X130433588Y-76298504D01*
X130410979Y-76304168D01*
X130387924Y-76307587D01*
X130364645Y-76308731D01*
X130341366Y-76307587D01*
X130318311Y-76304168D01*
X130295702Y-76298504D01*
X130273758Y-76290652D01*
X130252688Y-76280687D01*
X130232697Y-76268705D01*
X130213977Y-76254821D01*
X130196707Y-76239169D01*
X129860831Y-75903293D01*
X129845179Y-75886023D01*
X129831295Y-75867303D01*
X129819313Y-75847312D01*
X129809348Y-75826242D01*
X129801496Y-75804298D01*
X129795832Y-75781689D01*
X129792413Y-75758634D01*
X129791269Y-75735355D01*
X129792413Y-75712076D01*
X129795832Y-75689021D01*
X129801496Y-75666412D01*
X129809348Y-75644468D01*
X129819313Y-75623398D01*
X129831295Y-75603407D01*
X129845179Y-75584687D01*
X129860831Y-75567417D01*
X130267417Y-75160831D01*
X130284687Y-75145179D01*
X130303407Y-75131295D01*
X130323398Y-75119313D01*
X130344468Y-75109348D01*
X130366412Y-75101496D01*
X130389021Y-75095832D01*
X130412076Y-75092413D01*
X130435355Y-75091269D01*
X130458634Y-75092413D01*
G37*
G36*
X129221198Y-76329849D02*
G01*
X129244253Y-76333268D01*
X129266862Y-76338932D01*
X129288806Y-76346784D01*
X129309876Y-76356749D01*
X129329867Y-76368731D01*
X129348587Y-76382615D01*
X129365857Y-76398267D01*
X129701733Y-76734143D01*
X129717385Y-76751413D01*
X129731269Y-76770133D01*
X129743251Y-76790124D01*
X129753216Y-76811194D01*
X129761068Y-76833138D01*
X129766732Y-76855747D01*
X129770151Y-76878802D01*
X129771295Y-76902081D01*
X129770151Y-76925360D01*
X129766732Y-76948415D01*
X129761068Y-76971024D01*
X129753216Y-76992968D01*
X129743251Y-77014038D01*
X129731269Y-77034029D01*
X129717385Y-77052749D01*
X129701733Y-77070019D01*
X129295147Y-77476605D01*
X129277877Y-77492257D01*
X129259157Y-77506141D01*
X129239166Y-77518123D01*
X129218096Y-77528088D01*
X129196152Y-77535940D01*
X129173543Y-77541604D01*
X129150488Y-77545023D01*
X129127209Y-77546167D01*
X129103930Y-77545023D01*
X129080875Y-77541604D01*
X129058266Y-77535940D01*
X129036322Y-77528088D01*
X129015252Y-77518123D01*
X128995261Y-77506141D01*
X128976541Y-77492257D01*
X128959271Y-77476605D01*
X128623395Y-77140729D01*
X128607743Y-77123459D01*
X128593859Y-77104739D01*
X128581877Y-77084748D01*
X128571912Y-77063678D01*
X128564060Y-77041734D01*
X128558396Y-77019125D01*
X128554977Y-76996070D01*
X128553833Y-76972791D01*
X128554977Y-76949512D01*
X128558396Y-76926457D01*
X128564060Y-76903848D01*
X128571912Y-76881904D01*
X128581877Y-76860834D01*
X128593859Y-76840843D01*
X128607743Y-76822123D01*
X128623395Y-76804853D01*
X129029981Y-76398267D01*
X129047251Y-76382615D01*
X129065971Y-76368731D01*
X129085962Y-76356749D01*
X129107032Y-76346784D01*
X129128976Y-76338932D01*
X129151585Y-76333268D01*
X129174640Y-76329849D01*
X129197919Y-76328705D01*
X129221198Y-76329849D01*
G37*
D14*
X95700000Y-76599999D03*
X95700000Y-84399999D03*
D13*
G36*
X126932412Y-76747488D02*
G01*
X128205204Y-78020280D01*
X126720280Y-79505204D01*
X125447488Y-78232412D01*
X126932412Y-76747488D01*
G37*
G36*
X124881802Y-78798098D02*
G01*
X126154594Y-80070890D01*
X124669670Y-81555814D01*
X123396878Y-80283022D01*
X124881802Y-78798098D01*
G37*
G36*
X123255456Y-77171752D02*
G01*
X124528248Y-78444544D01*
X123043324Y-79929468D01*
X121770532Y-78656676D01*
X123255456Y-77171752D01*
G37*
G36*
X125306066Y-75121142D02*
G01*
X126578858Y-76393934D01*
X125093934Y-77878858D01*
X123821142Y-76606066D01*
X125306066Y-75121142D01*
G37*
M02*
