M48
; DRILL file {KiCad (5.1.5)-3} date 02.05.2020 19:50:44
; FORMAT={3:3/ absolute / metric / suppress leading zeros}
; #@! TF.CreationDate,2020-05-02T19:50:44+02:00
; #@! TF.GenerationSoftware,Kicad,Pcbnew,(5.1.5)-3
; #@! TF.FileFunction,Plated,1,2,PTH
FMAT,2
METRIC,TZ
T1C0.400
T2C0.500
T3C0.600
%
G90
G05
T1
X57600Y-75000
X58600Y-86000
X59200Y-78000
X59400Y-73400
X60400Y-74500
X61300Y-76000
X63000Y-79300
X64800Y-77500
X65500Y-73100
X66400Y-81200
X66500Y-75500
X70100Y-84100
X73300Y-78900
X75950Y-81500
X76100Y-49200
X77100Y-78900
X77400Y-88700
X81400Y-79100
X85300Y-78900
X90200Y-83900
X90800Y-74500
X91800Y-77300
X95100Y-49100
X96500Y-72900
X97900Y-84500
X104000Y-70000
X108600Y-60000
X110600Y-74600
X114100Y-49100
X114600Y-78800
X114700Y-91000
X117600Y-74400
X119100Y-82400
X121500Y-76000
X123000Y-75000
X124000Y-89100
X127100Y-91700
X128900Y-83900
X129100Y-74600
X130600Y-80000
X133200Y-49200
X133200Y-56000
X133200Y-73800
X133800Y-79300
X134200Y-73200
X135500Y-74600
X135700Y-82200
X136200Y-73100
X136400Y-85500
X136700Y-74600
X137200Y-93300
X138500Y-77000
X139500Y-75000
X139700Y-81300
X150900Y-91500
X151550Y-73500
X152800Y-56500
X153800Y-76300
T2
X56800Y-57800
X56800Y-58800
X56800Y-59800
X56800Y-60800
X56800Y-61800
X56800Y-62800
X56800Y-77200
X56800Y-78200
X56800Y-79200
X56800Y-80200
X56800Y-81200
X56800Y-82200
T3
G00X149420Y-74680
M15
G01X148320Y-74680
M16
G05
G00X149420Y-83320
M15
G01X148320Y-83320
M16
G05
G00X153350Y-74680
M15
G01X152750Y-74680
M16
G05
G00X153350Y-83320
M15
G01X152750Y-83320
M16
G05
T0
M30
