G04 #@! TF.GenerationSoftware,KiCad,Pcbnew,(5.1.5)-3*
G04 #@! TF.CreationDate,2020-05-02T19:50:40+02:00*
G04 #@! TF.ProjectId,kyrremann,6b797272-656d-4616-9e6e-2e6b69636164,rev?*
G04 #@! TF.SameCoordinates,Original*
G04 #@! TF.FileFunction,Copper,L1,Top*
G04 #@! TF.FilePolarity,Positive*
%FSLAX46Y46*%
G04 Gerber Fmt 4.6, Leading zero omitted, Abs format (unit mm)*
G04 Created by KiCad (PCBNEW (5.1.5)-3) date 2020-05-02 19:50:40*
%MOMM*%
%LPD*%
G04 APERTURE LIST*
%ADD10O,0.850000X0.850000*%
%ADD11R,0.850000X0.850000*%
%ADD12O,2.100000X1.000000*%
%ADD13O,1.600000X1.000000*%
%ADD14C,0.800000*%
%ADD15C,0.250000*%
%ADD16C,0.254000*%
G04 APERTURE END LIST*
D10*
X56800000Y-82200000D03*
X56800000Y-81200000D03*
X56800000Y-80200000D03*
X56800000Y-79200000D03*
X56800000Y-78200000D03*
D11*
X56800000Y-77200000D03*
D10*
X56800000Y-57800000D03*
X56800000Y-58800000D03*
X56800000Y-59800000D03*
X56800000Y-60800000D03*
X56800000Y-61800000D03*
D11*
X56800000Y-62800000D03*
D12*
X148870000Y-83320000D03*
X148870000Y-74680000D03*
D13*
X153050000Y-74680000D03*
X153050000Y-83320000D03*
D14*
X129100000Y-74600000D03*
X133800000Y-79300000D03*
X139700000Y-81300000D03*
X127100000Y-91700000D03*
X153800000Y-76300000D03*
X119100000Y-82400000D03*
X114700000Y-91000000D03*
X151550000Y-73500000D03*
X58600000Y-86000000D03*
X70100000Y-84100000D03*
X77400000Y-88700000D03*
X90200000Y-83900000D03*
X66400000Y-81200000D03*
X114600000Y-78800000D03*
X97900000Y-84500000D03*
X91800000Y-77300000D03*
X66500000Y-75500000D03*
X65500000Y-73100000D03*
X57600000Y-75000000D03*
X61300000Y-76000000D03*
X77100000Y-78900000D03*
X81400000Y-79100000D03*
X85300000Y-78900000D03*
X73300000Y-78900000D03*
X90800000Y-74500000D03*
X136200000Y-73100000D03*
X139500000Y-75000000D03*
X130600000Y-80000000D03*
X135700000Y-82200000D03*
X121500000Y-76000000D03*
X128900000Y-83900000D03*
X96500000Y-72900000D03*
X124000000Y-89100000D03*
X150900000Y-91500000D03*
X152800000Y-56500000D03*
X137200000Y-93300000D03*
X133200000Y-49200000D03*
X136400000Y-85500000D03*
X63000000Y-79300000D03*
X133200000Y-56000000D03*
X136700000Y-74600000D03*
X114100000Y-49100000D03*
X117600000Y-74400000D03*
X133200000Y-73800000D03*
X108600000Y-60000000D03*
X104000000Y-70000000D03*
X110600000Y-74600000D03*
X95100000Y-49100000D03*
X75950000Y-81500000D03*
X134200000Y-73200000D03*
X60400000Y-74500000D03*
X64800000Y-77500000D03*
X76100000Y-49200000D03*
X135500000Y-74600000D03*
X59400000Y-73400000D03*
X59200000Y-78000000D03*
X138500000Y-77000000D03*
X123000000Y-75000000D03*
D15*
X132800000Y-82200000D02*
X135700000Y-82200000D01*
X130600000Y-80000000D02*
X132800000Y-82200000D01*
X130600000Y-80000000D02*
X125500000Y-80000000D01*
X125500000Y-80000000D02*
X121500000Y-76000000D01*
X130600000Y-80000000D02*
X130600000Y-82200000D01*
X130600000Y-82200000D02*
X128900000Y-83900000D01*
X66900000Y-73100000D02*
X62800000Y-77200000D01*
X62800000Y-77200000D02*
X56800000Y-77200000D01*
X96500000Y-72900000D02*
X66900000Y-73100000D01*
X125017555Y-90117555D02*
X134117555Y-90117555D01*
X124000000Y-89100000D02*
X125017555Y-90117555D01*
X135227558Y-89007552D02*
X143207552Y-89007552D01*
X134117555Y-90117555D02*
X135227558Y-89007552D01*
X143207552Y-89007552D02*
X145700000Y-91500000D01*
X145700000Y-91500000D02*
X150900000Y-91500000D01*
X56800000Y-61800000D02*
X147500000Y-61800000D01*
X147500000Y-61800000D02*
X152800000Y-56500000D01*
X56049999Y-78348961D02*
X56049999Y-88949999D01*
X56800000Y-78200000D02*
X56198960Y-78200000D01*
X56198960Y-78200000D02*
X56049999Y-78348961D01*
X56049999Y-88949999D02*
X60400000Y-93300000D01*
X60400000Y-93300000D02*
X137200000Y-93300000D01*
X56800000Y-60800000D02*
X128400000Y-60800000D01*
X128400000Y-60800000D02*
X133200000Y-56000000D01*
X133200000Y-56000000D02*
X133200000Y-49200000D01*
X136400000Y-85500000D02*
X136400000Y-82573002D01*
X136400000Y-82573002D02*
X139225001Y-79748001D01*
X133200000Y-56000000D02*
X133200000Y-56000000D01*
X137265685Y-74600000D02*
X136700000Y-74600000D01*
X139225001Y-76559316D02*
X137265685Y-74600000D01*
X139225001Y-79748001D02*
X139225001Y-76559316D01*
X117600000Y-74400000D02*
X118175011Y-73824989D01*
X118175011Y-73824989D02*
X131775011Y-73824989D01*
X131800000Y-73800000D02*
X133200000Y-73800000D01*
X131775011Y-73824989D02*
X131800000Y-73800000D01*
X114100000Y-56300000D02*
X114100000Y-49100000D01*
X56800000Y-59800000D02*
X108600000Y-60000000D01*
X108600000Y-60000000D02*
X114100000Y-56300000D01*
X108600000Y-60000000D02*
X108600000Y-60000000D01*
X107999561Y-74600000D02*
X110600000Y-74600000D01*
X104000000Y-70000000D02*
X104000000Y-70600439D01*
X104000000Y-70600439D02*
X107999561Y-74600000D01*
X56800000Y-58800000D02*
X92700000Y-58800000D01*
X92700000Y-58800000D02*
X95100000Y-56400000D01*
X95100000Y-56400000D02*
X95100000Y-49100000D01*
X75950000Y-81500000D02*
X109426998Y-81500000D01*
X117851999Y-73074999D02*
X109426998Y-81500000D01*
X133709314Y-73074999D02*
X117851999Y-73074999D01*
X133709314Y-73074999D02*
X134074999Y-73074999D01*
X134074999Y-73074999D02*
X134200000Y-73200000D01*
X75384315Y-81500000D02*
X75950000Y-81500000D01*
X69773002Y-81500000D02*
X75384315Y-81500000D01*
X65773002Y-77500000D02*
X69773002Y-81500000D01*
X64800000Y-77500000D02*
X65773002Y-77500000D01*
X56439999Y-59049999D02*
X56049999Y-59439999D01*
X56550001Y-59049999D02*
X56439999Y-59049999D01*
X56049999Y-63485001D02*
X58564998Y-66000000D01*
X61409471Y-67372622D02*
X61409471Y-68009471D01*
X58564998Y-66000000D02*
X60036849Y-66000000D01*
X56049999Y-59439999D02*
X56049999Y-63485001D01*
X60036849Y-66000000D02*
X61409471Y-67372622D01*
X56800000Y-58800000D02*
X56550001Y-59049999D01*
X61409471Y-68009471D02*
X63808611Y-70408611D01*
X60965685Y-74500000D02*
X60400000Y-74500000D01*
X61936848Y-74500000D02*
X60965685Y-74500000D01*
X63808610Y-72628238D02*
X61936848Y-74500000D01*
X63808611Y-70408611D02*
X63808610Y-72628238D01*
X56800000Y-57800000D02*
X74700000Y-57800000D01*
X74700000Y-57800000D02*
X76100000Y-56400000D01*
X76100000Y-56400000D02*
X76100000Y-49200000D01*
X125622992Y-76549990D02*
X133550010Y-76549990D01*
X133550010Y-76549990D02*
X135500000Y-74600000D01*
X57425001Y-82825001D02*
X113601997Y-82825001D01*
X56800000Y-82200000D02*
X57425001Y-82825001D01*
X113601997Y-82825001D02*
X122151999Y-74274999D01*
X122151999Y-74274999D02*
X123348001Y-74274999D01*
X123348001Y-74274999D02*
X125622992Y-76549990D01*
X56439999Y-58049999D02*
X56550001Y-58049999D01*
X56550001Y-58049999D02*
X56800000Y-57800000D01*
X59169131Y-67240543D02*
X55599990Y-63671402D01*
X60959461Y-67559022D02*
X60640982Y-67240543D01*
X55599989Y-58890009D02*
X56439999Y-58049999D01*
X60640982Y-67240543D02*
X59169131Y-67240543D01*
X55599990Y-63671402D02*
X55599989Y-58890009D01*
X57025000Y-82200000D02*
X56800000Y-82200000D01*
X57401040Y-82200000D02*
X56800000Y-82200000D01*
X59200000Y-80401040D02*
X57401040Y-82200000D01*
X59200000Y-78000000D02*
X59200000Y-80401040D01*
X62400438Y-73400000D02*
X63358601Y-72441837D01*
X59400000Y-73400000D02*
X62400438Y-73400000D01*
X63358601Y-72441837D02*
X63358601Y-71358601D01*
X60959461Y-68959461D02*
X60959461Y-67859461D01*
X63358601Y-71358601D02*
X60959461Y-68959461D01*
X60959461Y-67859461D02*
X60959461Y-67559022D01*
X138500000Y-77000000D02*
X125000000Y-77000000D01*
X125000000Y-77000000D02*
X123000000Y-75000000D01*
D16*
G36*
X146423909Y-72614829D02*
G01*
X146519751Y-72758266D01*
X146641734Y-72880249D01*
X146785171Y-72976091D01*
X146944549Y-73042107D01*
X147113745Y-73075763D01*
X147286255Y-73075763D01*
X147455451Y-73042107D01*
X147600000Y-72982233D01*
X147744549Y-73042107D01*
X147913745Y-73075763D01*
X148086255Y-73075763D01*
X148255451Y-73042107D01*
X148400000Y-72982233D01*
X148544549Y-73042107D01*
X148713745Y-73075763D01*
X148886255Y-73075763D01*
X149055451Y-73042107D01*
X149200000Y-72982233D01*
X149344549Y-73042107D01*
X149513745Y-73075763D01*
X149686255Y-73075763D01*
X149855451Y-73042107D01*
X150014829Y-72976091D01*
X150158266Y-72880249D01*
X150280249Y-72758266D01*
X150324788Y-72691610D01*
X150768083Y-72731173D01*
X151511891Y-72934656D01*
X152207905Y-73266638D01*
X152601617Y-73549549D01*
X152404013Y-73591585D01*
X152198322Y-73679997D01*
X152013831Y-73806839D01*
X151857631Y-73967236D01*
X151735724Y-74155024D01*
X151655881Y-74378126D01*
X151782046Y-74553000D01*
X152923000Y-74553000D01*
X152923000Y-74533000D01*
X153177000Y-74533000D01*
X153177000Y-74553000D01*
X153197000Y-74553000D01*
X153197000Y-74807000D01*
X153177000Y-74807000D01*
X153177000Y-75815000D01*
X153477000Y-75815000D01*
X153695987Y-75768415D01*
X153901678Y-75680003D01*
X154083736Y-75554834D01*
X154110829Y-75616553D01*
X154292065Y-76371457D01*
X154340000Y-77024207D01*
X154340000Y-82757629D01*
X154242369Y-82607236D01*
X154086169Y-82446839D01*
X153901678Y-82319997D01*
X153695987Y-82231585D01*
X153477000Y-82185000D01*
X153177000Y-82185000D01*
X153177000Y-83193000D01*
X153197000Y-83193000D01*
X153197000Y-83447000D01*
X153177000Y-83447000D01*
X153177000Y-84455000D01*
X153477000Y-84455000D01*
X153695987Y-84408415D01*
X153901678Y-84320003D01*
X154086169Y-84193161D01*
X154242369Y-84032764D01*
X154340001Y-83882370D01*
X154340001Y-89970597D01*
X154268827Y-90768083D01*
X154065344Y-91511890D01*
X153733363Y-92207904D01*
X153283374Y-92834130D01*
X152729597Y-93370777D01*
X152089549Y-93800871D01*
X151383447Y-94110829D01*
X150628543Y-94292065D01*
X149975793Y-94340000D01*
X60029392Y-94340000D01*
X59231917Y-94268827D01*
X58488110Y-94065344D01*
X57792096Y-93733363D01*
X57165870Y-93283374D01*
X56629223Y-92729597D01*
X56199129Y-92089549D01*
X55889171Y-91383447D01*
X55707935Y-90628543D01*
X55660000Y-89975793D01*
X55660000Y-89634801D01*
X59836205Y-93811008D01*
X59859999Y-93840001D01*
X59888992Y-93863795D01*
X59888996Y-93863799D01*
X59935456Y-93901927D01*
X59975724Y-93934974D01*
X60107753Y-94005546D01*
X60251014Y-94049003D01*
X60362667Y-94060000D01*
X60362676Y-94060000D01*
X60399999Y-94063676D01*
X60437322Y-94060000D01*
X136496289Y-94060000D01*
X136540226Y-94103937D01*
X136709744Y-94217205D01*
X136898102Y-94295226D01*
X137098061Y-94335000D01*
X137301939Y-94335000D01*
X137501898Y-94295226D01*
X137690256Y-94217205D01*
X137859774Y-94103937D01*
X138003937Y-93959774D01*
X138117205Y-93790256D01*
X138195226Y-93601898D01*
X138235000Y-93401939D01*
X138235000Y-93198061D01*
X138195226Y-92998102D01*
X138117205Y-92809744D01*
X138003937Y-92640226D01*
X137859774Y-92496063D01*
X137690256Y-92382795D01*
X137501898Y-92304774D01*
X137301939Y-92265000D01*
X137098061Y-92265000D01*
X136898102Y-92304774D01*
X136709744Y-92382795D01*
X136540226Y-92496063D01*
X136496289Y-92540000D01*
X123028538Y-92540000D01*
X123101996Y-92490917D01*
X123399376Y-92193537D01*
X123633025Y-91843856D01*
X123793966Y-91455310D01*
X123876013Y-91042833D01*
X123876013Y-90622275D01*
X123793966Y-90209798D01*
X123750855Y-90105719D01*
X123898061Y-90135000D01*
X123960199Y-90135000D01*
X124453756Y-90628558D01*
X124477554Y-90657556D01*
X124506552Y-90681354D01*
X124593278Y-90752529D01*
X124671714Y-90794454D01*
X124725308Y-90823101D01*
X124868569Y-90866558D01*
X124980222Y-90877555D01*
X124980231Y-90877555D01*
X125017554Y-90881231D01*
X125054877Y-90877555D01*
X134080233Y-90877555D01*
X134117555Y-90881231D01*
X134154877Y-90877555D01*
X134154888Y-90877555D01*
X134266541Y-90866558D01*
X134409802Y-90823101D01*
X134541831Y-90752529D01*
X134657556Y-90657556D01*
X134681359Y-90628553D01*
X135542360Y-89767552D01*
X138934882Y-89767552D01*
X138899002Y-89821251D01*
X138738061Y-90209797D01*
X138656014Y-90622274D01*
X138656014Y-91042832D01*
X138738061Y-91455309D01*
X138899002Y-91843855D01*
X139132651Y-92193536D01*
X139430031Y-92490916D01*
X139779712Y-92724565D01*
X140168258Y-92885506D01*
X140580735Y-92967553D01*
X141001293Y-92967553D01*
X141413770Y-92885506D01*
X141802316Y-92724565D01*
X142151997Y-92490916D01*
X142449377Y-92193536D01*
X142683026Y-91843855D01*
X142843967Y-91455309D01*
X142926014Y-91042832D01*
X142926014Y-90622274D01*
X142843967Y-90209797D01*
X142683026Y-89821251D01*
X142647146Y-89767552D01*
X142892751Y-89767552D01*
X145136201Y-92011003D01*
X145159999Y-92040001D01*
X145275724Y-92134974D01*
X145407753Y-92205546D01*
X145551014Y-92249003D01*
X145662667Y-92260000D01*
X145662675Y-92260000D01*
X145700000Y-92263676D01*
X145737325Y-92260000D01*
X150196289Y-92260000D01*
X150240226Y-92303937D01*
X150409744Y-92417205D01*
X150598102Y-92495226D01*
X150798061Y-92535000D01*
X151001939Y-92535000D01*
X151201898Y-92495226D01*
X151390256Y-92417205D01*
X151559774Y-92303937D01*
X151703937Y-92159774D01*
X151817205Y-91990256D01*
X151895226Y-91801898D01*
X151935000Y-91601939D01*
X151935000Y-91398061D01*
X151895226Y-91198102D01*
X151817205Y-91009744D01*
X151703937Y-90840226D01*
X151559774Y-90696063D01*
X151390256Y-90582795D01*
X151201898Y-90504774D01*
X151001939Y-90465000D01*
X150798061Y-90465000D01*
X150598102Y-90504774D01*
X150409744Y-90582795D01*
X150240226Y-90696063D01*
X150196289Y-90740000D01*
X146014802Y-90740000D01*
X143771356Y-88496555D01*
X143747553Y-88467551D01*
X143632360Y-88373015D01*
X144097836Y-88280426D01*
X144576265Y-88082254D01*
X145006840Y-87794553D01*
X145077251Y-87724142D01*
X145006014Y-88082274D01*
X145006014Y-88502832D01*
X145088061Y-88915309D01*
X145249002Y-89303855D01*
X145482651Y-89653536D01*
X145780031Y-89950916D01*
X146129712Y-90184565D01*
X146518258Y-90345506D01*
X146930735Y-90427553D01*
X147351293Y-90427553D01*
X147763770Y-90345506D01*
X148152316Y-90184565D01*
X148501997Y-89950916D01*
X148799377Y-89653536D01*
X149033026Y-89303855D01*
X149193967Y-88915309D01*
X149276014Y-88502832D01*
X149276014Y-88082274D01*
X149193967Y-87669797D01*
X149033026Y-87281251D01*
X148939864Y-87141823D01*
X149114852Y-87069341D01*
X149358220Y-86906727D01*
X149565188Y-86699759D01*
X149727802Y-86456391D01*
X149839812Y-86185974D01*
X149896914Y-85898901D01*
X149896914Y-85606205D01*
X149839812Y-85319132D01*
X149727802Y-85048715D01*
X149565188Y-84805347D01*
X149358220Y-84598379D01*
X149143639Y-84455000D01*
X149547000Y-84455000D01*
X149765987Y-84408415D01*
X149971678Y-84320003D01*
X150156169Y-84193161D01*
X150312369Y-84032764D01*
X150434276Y-83844976D01*
X150514119Y-83621874D01*
X151655881Y-83621874D01*
X151735724Y-83844976D01*
X151857631Y-84032764D01*
X152013831Y-84193161D01*
X152198322Y-84320003D01*
X152404013Y-84408415D01*
X152623000Y-84455000D01*
X152923000Y-84455000D01*
X152923000Y-83447000D01*
X151782046Y-83447000D01*
X151655881Y-83621874D01*
X150514119Y-83621874D01*
X150387954Y-83447000D01*
X148997000Y-83447000D01*
X148997000Y-83467000D01*
X148743000Y-83467000D01*
X148743000Y-83447000D01*
X147352046Y-83447000D01*
X147225881Y-83621874D01*
X147305724Y-83844976D01*
X147427631Y-84032764D01*
X147583831Y-84193161D01*
X147768322Y-84320003D01*
X147875467Y-84366057D01*
X147707176Y-84435765D01*
X147463808Y-84598379D01*
X147256840Y-84805347D01*
X147094226Y-85048715D01*
X146982216Y-85319132D01*
X146925114Y-85606205D01*
X146925114Y-85898901D01*
X146976563Y-86157553D01*
X146930735Y-86157553D01*
X146518258Y-86239600D01*
X146129712Y-86400541D01*
X145823306Y-86605274D01*
X145858887Y-86519375D01*
X145959914Y-86011477D01*
X145959914Y-85493629D01*
X145858887Y-84985731D01*
X145660715Y-84507302D01*
X145373014Y-84076727D01*
X145006840Y-83710553D01*
X144576265Y-83422852D01*
X144097836Y-83224680D01*
X143589938Y-83123653D01*
X143072090Y-83123653D01*
X142564192Y-83224680D01*
X142085763Y-83422852D01*
X141655188Y-83710553D01*
X141289014Y-84076727D01*
X141001313Y-84507302D01*
X140803141Y-84985731D01*
X140702114Y-85493629D01*
X140702114Y-86011477D01*
X140803141Y-86519375D01*
X141001313Y-86997804D01*
X141289014Y-87428379D01*
X141655188Y-87794553D01*
X142085763Y-88082254D01*
X142484827Y-88247552D01*
X135264880Y-88247552D01*
X135227557Y-88243876D01*
X135190234Y-88247552D01*
X135190225Y-88247552D01*
X135078572Y-88258549D01*
X134935311Y-88302006D01*
X134803282Y-88372578D01*
X134687557Y-88467551D01*
X134663759Y-88496549D01*
X133802754Y-89357555D01*
X129947145Y-89357555D01*
X129983025Y-89303856D01*
X130143966Y-88915310D01*
X130226013Y-88502833D01*
X130226013Y-88082275D01*
X130143966Y-87669798D01*
X129983025Y-87281252D01*
X129889863Y-87141824D01*
X130064851Y-87069342D01*
X130308219Y-86906728D01*
X130515187Y-86699760D01*
X130677801Y-86456392D01*
X130789811Y-86185975D01*
X130846913Y-85898902D01*
X130846913Y-85606206D01*
X130789811Y-85319133D01*
X130677801Y-85048716D01*
X130515187Y-84805348D01*
X130308219Y-84598380D01*
X130064851Y-84435766D01*
X129837382Y-84341545D01*
X129895226Y-84201898D01*
X129935000Y-84001939D01*
X129935000Y-83939801D01*
X131111003Y-82763799D01*
X131140001Y-82740001D01*
X131192513Y-82676015D01*
X131234974Y-82624277D01*
X131305546Y-82492247D01*
X131333308Y-82400725D01*
X131349003Y-82348986D01*
X131360000Y-82237333D01*
X131360000Y-82237324D01*
X131363676Y-82200001D01*
X131360000Y-82162678D01*
X131360000Y-81834802D01*
X132236200Y-82711002D01*
X132259999Y-82740001D01*
X132375724Y-82834974D01*
X132507753Y-82905546D01*
X132651014Y-82949003D01*
X132762667Y-82960000D01*
X132762677Y-82960000D01*
X132800000Y-82963676D01*
X132837323Y-82960000D01*
X134996289Y-82960000D01*
X135040226Y-83003937D01*
X135209744Y-83117205D01*
X135398102Y-83195226D01*
X135598061Y-83235000D01*
X135640001Y-83235000D01*
X135640000Y-84796289D01*
X135596063Y-84840226D01*
X135482795Y-85009744D01*
X135404774Y-85198102D01*
X135365000Y-85398061D01*
X135365000Y-85601939D01*
X135404774Y-85801898D01*
X135482795Y-85990256D01*
X135596063Y-86159774D01*
X135740226Y-86303937D01*
X135909744Y-86417205D01*
X136098102Y-86495226D01*
X136298061Y-86535000D01*
X136501939Y-86535000D01*
X136701898Y-86495226D01*
X136890256Y-86417205D01*
X136911982Y-86402688D01*
X136934226Y-86456391D01*
X137096840Y-86699759D01*
X137303808Y-86906727D01*
X137547176Y-87069341D01*
X137817593Y-87181351D01*
X138104666Y-87238453D01*
X138397362Y-87238453D01*
X138684435Y-87181351D01*
X138954852Y-87069341D01*
X139198220Y-86906727D01*
X139405188Y-86699759D01*
X139567802Y-86456391D01*
X139679812Y-86185974D01*
X139736914Y-85898901D01*
X139736914Y-85606205D01*
X139679812Y-85319132D01*
X139567802Y-85048715D01*
X139405188Y-84805347D01*
X139198220Y-84598379D01*
X138954852Y-84435765D01*
X138684435Y-84323755D01*
X138397362Y-84266653D01*
X138104666Y-84266653D01*
X137817593Y-84323755D01*
X137547176Y-84435765D01*
X137303808Y-84598379D01*
X137160000Y-84742187D01*
X137160000Y-83018126D01*
X147225881Y-83018126D01*
X147352046Y-83193000D01*
X148743000Y-83193000D01*
X148743000Y-83173000D01*
X148997000Y-83173000D01*
X148997000Y-83193000D01*
X150387954Y-83193000D01*
X150514119Y-83018126D01*
X151655881Y-83018126D01*
X151782046Y-83193000D01*
X152923000Y-83193000D01*
X152923000Y-82185000D01*
X152623000Y-82185000D01*
X152404013Y-82231585D01*
X152198322Y-82319997D01*
X152013831Y-82446839D01*
X151857631Y-82607236D01*
X151735724Y-82795024D01*
X151655881Y-83018126D01*
X150514119Y-83018126D01*
X150434276Y-82795024D01*
X150312369Y-82607236D01*
X150171794Y-82462884D01*
X150250741Y-82344731D01*
X150323108Y-82170022D01*
X150360000Y-81984552D01*
X150360000Y-81795448D01*
X150323108Y-81609978D01*
X150250741Y-81435269D01*
X150145681Y-81278036D01*
X150011964Y-81144319D01*
X149854731Y-81039259D01*
X149680022Y-80966892D01*
X149494552Y-80930000D01*
X149305448Y-80930000D01*
X149119978Y-80966892D01*
X148945269Y-81039259D01*
X148788036Y-81144319D01*
X148654319Y-81278036D01*
X148549259Y-81435269D01*
X148476892Y-81609978D01*
X148440000Y-81795448D01*
X148440000Y-81984552D01*
X148476892Y-82170022D01*
X148483096Y-82185000D01*
X148193000Y-82185000D01*
X147974013Y-82231585D01*
X147768322Y-82319997D01*
X147583831Y-82446839D01*
X147427631Y-82607236D01*
X147305724Y-82795024D01*
X147225881Y-83018126D01*
X137160000Y-83018126D01*
X137160000Y-82887803D01*
X139736005Y-80311799D01*
X139765002Y-80288002D01*
X139859975Y-80172277D01*
X139930547Y-80040248D01*
X139974004Y-79896987D01*
X139985001Y-79785334D01*
X139985001Y-79785326D01*
X139988677Y-79748001D01*
X139985001Y-79710676D01*
X139985001Y-76596638D01*
X139988677Y-76559315D01*
X139985001Y-76521992D01*
X139985001Y-76521983D01*
X139974004Y-76410330D01*
X139930547Y-76267069D01*
X139859975Y-76135040D01*
X139765002Y-76019315D01*
X139736004Y-75995517D01*
X138722361Y-74981874D01*
X147225881Y-74981874D01*
X147305724Y-75204976D01*
X147427631Y-75392764D01*
X147583831Y-75553161D01*
X147768322Y-75680003D01*
X147974013Y-75768415D01*
X148193000Y-75815000D01*
X148483096Y-75815000D01*
X148476892Y-75829978D01*
X148440000Y-76015448D01*
X148440000Y-76204552D01*
X148476892Y-76390022D01*
X148549259Y-76564731D01*
X148654319Y-76721964D01*
X148788036Y-76855681D01*
X148945269Y-76960741D01*
X149119978Y-77033108D01*
X149305448Y-77070000D01*
X149494552Y-77070000D01*
X149680022Y-77033108D01*
X149854731Y-76960741D01*
X150011964Y-76855681D01*
X150145681Y-76721964D01*
X150250741Y-76564731D01*
X150323108Y-76390022D01*
X150360000Y-76204552D01*
X150360000Y-76015448D01*
X150323108Y-75829978D01*
X150250741Y-75655269D01*
X150171794Y-75537116D01*
X150312369Y-75392764D01*
X150434276Y-75204976D01*
X150514119Y-74981874D01*
X151655881Y-74981874D01*
X151735724Y-75204976D01*
X151857631Y-75392764D01*
X152013831Y-75553161D01*
X152198322Y-75680003D01*
X152404013Y-75768415D01*
X152623000Y-75815000D01*
X152923000Y-75815000D01*
X152923000Y-74807000D01*
X151782046Y-74807000D01*
X151655881Y-74981874D01*
X150514119Y-74981874D01*
X150387954Y-74807000D01*
X148997000Y-74807000D01*
X148997000Y-74827000D01*
X148743000Y-74827000D01*
X148743000Y-74807000D01*
X147352046Y-74807000D01*
X147225881Y-74981874D01*
X138722361Y-74981874D01*
X138118613Y-74378126D01*
X147225881Y-74378126D01*
X147352046Y-74553000D01*
X148743000Y-74553000D01*
X148743000Y-73545000D01*
X148997000Y-73545000D01*
X148997000Y-74553000D01*
X150387954Y-74553000D01*
X150514119Y-74378126D01*
X150434276Y-74155024D01*
X150312369Y-73967236D01*
X150156169Y-73806839D01*
X149971678Y-73679997D01*
X149765987Y-73591585D01*
X149547000Y-73545000D01*
X148997000Y-73545000D01*
X148743000Y-73545000D01*
X148193000Y-73545000D01*
X147974013Y-73591585D01*
X147768322Y-73679997D01*
X147583831Y-73806839D01*
X147427631Y-73967236D01*
X147305724Y-74155024D01*
X147225881Y-74378126D01*
X138118613Y-74378126D01*
X137829489Y-74089003D01*
X137805686Y-74059999D01*
X137689961Y-73965026D01*
X137557932Y-73894454D01*
X137414724Y-73851013D01*
X137359774Y-73796063D01*
X137190256Y-73682795D01*
X137001898Y-73604774D01*
X136801939Y-73565000D01*
X136598061Y-73565000D01*
X136398102Y-73604774D01*
X136209744Y-73682795D01*
X136100000Y-73756123D01*
X135990256Y-73682795D01*
X135801898Y-73604774D01*
X135601939Y-73565000D01*
X135398061Y-73565000D01*
X135198102Y-73604774D01*
X135143192Y-73627519D01*
X135195226Y-73501898D01*
X135235000Y-73301939D01*
X135235000Y-73098061D01*
X135195226Y-72898102D01*
X135117205Y-72709744D01*
X135083967Y-72660000D01*
X144854091Y-72660000D01*
X144919751Y-72758266D01*
X145041734Y-72880249D01*
X145185171Y-72976091D01*
X145344549Y-73042107D01*
X145513745Y-73075763D01*
X145686255Y-73075763D01*
X145855451Y-73042107D01*
X146014829Y-72976091D01*
X146158266Y-72880249D01*
X146280249Y-72758266D01*
X146376091Y-72614829D01*
X146400000Y-72557107D01*
X146423909Y-72614829D01*
G37*
X146423909Y-72614829D02*
X146519751Y-72758266D01*
X146641734Y-72880249D01*
X146785171Y-72976091D01*
X146944549Y-73042107D01*
X147113745Y-73075763D01*
X147286255Y-73075763D01*
X147455451Y-73042107D01*
X147600000Y-72982233D01*
X147744549Y-73042107D01*
X147913745Y-73075763D01*
X148086255Y-73075763D01*
X148255451Y-73042107D01*
X148400000Y-72982233D01*
X148544549Y-73042107D01*
X148713745Y-73075763D01*
X148886255Y-73075763D01*
X149055451Y-73042107D01*
X149200000Y-72982233D01*
X149344549Y-73042107D01*
X149513745Y-73075763D01*
X149686255Y-73075763D01*
X149855451Y-73042107D01*
X150014829Y-72976091D01*
X150158266Y-72880249D01*
X150280249Y-72758266D01*
X150324788Y-72691610D01*
X150768083Y-72731173D01*
X151511891Y-72934656D01*
X152207905Y-73266638D01*
X152601617Y-73549549D01*
X152404013Y-73591585D01*
X152198322Y-73679997D01*
X152013831Y-73806839D01*
X151857631Y-73967236D01*
X151735724Y-74155024D01*
X151655881Y-74378126D01*
X151782046Y-74553000D01*
X152923000Y-74553000D01*
X152923000Y-74533000D01*
X153177000Y-74533000D01*
X153177000Y-74553000D01*
X153197000Y-74553000D01*
X153197000Y-74807000D01*
X153177000Y-74807000D01*
X153177000Y-75815000D01*
X153477000Y-75815000D01*
X153695987Y-75768415D01*
X153901678Y-75680003D01*
X154083736Y-75554834D01*
X154110829Y-75616553D01*
X154292065Y-76371457D01*
X154340000Y-77024207D01*
X154340000Y-82757629D01*
X154242369Y-82607236D01*
X154086169Y-82446839D01*
X153901678Y-82319997D01*
X153695987Y-82231585D01*
X153477000Y-82185000D01*
X153177000Y-82185000D01*
X153177000Y-83193000D01*
X153197000Y-83193000D01*
X153197000Y-83447000D01*
X153177000Y-83447000D01*
X153177000Y-84455000D01*
X153477000Y-84455000D01*
X153695987Y-84408415D01*
X153901678Y-84320003D01*
X154086169Y-84193161D01*
X154242369Y-84032764D01*
X154340001Y-83882370D01*
X154340001Y-89970597D01*
X154268827Y-90768083D01*
X154065344Y-91511890D01*
X153733363Y-92207904D01*
X153283374Y-92834130D01*
X152729597Y-93370777D01*
X152089549Y-93800871D01*
X151383447Y-94110829D01*
X150628543Y-94292065D01*
X149975793Y-94340000D01*
X60029392Y-94340000D01*
X59231917Y-94268827D01*
X58488110Y-94065344D01*
X57792096Y-93733363D01*
X57165870Y-93283374D01*
X56629223Y-92729597D01*
X56199129Y-92089549D01*
X55889171Y-91383447D01*
X55707935Y-90628543D01*
X55660000Y-89975793D01*
X55660000Y-89634801D01*
X59836205Y-93811008D01*
X59859999Y-93840001D01*
X59888992Y-93863795D01*
X59888996Y-93863799D01*
X59935456Y-93901927D01*
X59975724Y-93934974D01*
X60107753Y-94005546D01*
X60251014Y-94049003D01*
X60362667Y-94060000D01*
X60362676Y-94060000D01*
X60399999Y-94063676D01*
X60437322Y-94060000D01*
X136496289Y-94060000D01*
X136540226Y-94103937D01*
X136709744Y-94217205D01*
X136898102Y-94295226D01*
X137098061Y-94335000D01*
X137301939Y-94335000D01*
X137501898Y-94295226D01*
X137690256Y-94217205D01*
X137859774Y-94103937D01*
X138003937Y-93959774D01*
X138117205Y-93790256D01*
X138195226Y-93601898D01*
X138235000Y-93401939D01*
X138235000Y-93198061D01*
X138195226Y-92998102D01*
X138117205Y-92809744D01*
X138003937Y-92640226D01*
X137859774Y-92496063D01*
X137690256Y-92382795D01*
X137501898Y-92304774D01*
X137301939Y-92265000D01*
X137098061Y-92265000D01*
X136898102Y-92304774D01*
X136709744Y-92382795D01*
X136540226Y-92496063D01*
X136496289Y-92540000D01*
X123028538Y-92540000D01*
X123101996Y-92490917D01*
X123399376Y-92193537D01*
X123633025Y-91843856D01*
X123793966Y-91455310D01*
X123876013Y-91042833D01*
X123876013Y-90622275D01*
X123793966Y-90209798D01*
X123750855Y-90105719D01*
X123898061Y-90135000D01*
X123960199Y-90135000D01*
X124453756Y-90628558D01*
X124477554Y-90657556D01*
X124506552Y-90681354D01*
X124593278Y-90752529D01*
X124671714Y-90794454D01*
X124725308Y-90823101D01*
X124868569Y-90866558D01*
X124980222Y-90877555D01*
X124980231Y-90877555D01*
X125017554Y-90881231D01*
X125054877Y-90877555D01*
X134080233Y-90877555D01*
X134117555Y-90881231D01*
X134154877Y-90877555D01*
X134154888Y-90877555D01*
X134266541Y-90866558D01*
X134409802Y-90823101D01*
X134541831Y-90752529D01*
X134657556Y-90657556D01*
X134681359Y-90628553D01*
X135542360Y-89767552D01*
X138934882Y-89767552D01*
X138899002Y-89821251D01*
X138738061Y-90209797D01*
X138656014Y-90622274D01*
X138656014Y-91042832D01*
X138738061Y-91455309D01*
X138899002Y-91843855D01*
X139132651Y-92193536D01*
X139430031Y-92490916D01*
X139779712Y-92724565D01*
X140168258Y-92885506D01*
X140580735Y-92967553D01*
X141001293Y-92967553D01*
X141413770Y-92885506D01*
X141802316Y-92724565D01*
X142151997Y-92490916D01*
X142449377Y-92193536D01*
X142683026Y-91843855D01*
X142843967Y-91455309D01*
X142926014Y-91042832D01*
X142926014Y-90622274D01*
X142843967Y-90209797D01*
X142683026Y-89821251D01*
X142647146Y-89767552D01*
X142892751Y-89767552D01*
X145136201Y-92011003D01*
X145159999Y-92040001D01*
X145275724Y-92134974D01*
X145407753Y-92205546D01*
X145551014Y-92249003D01*
X145662667Y-92260000D01*
X145662675Y-92260000D01*
X145700000Y-92263676D01*
X145737325Y-92260000D01*
X150196289Y-92260000D01*
X150240226Y-92303937D01*
X150409744Y-92417205D01*
X150598102Y-92495226D01*
X150798061Y-92535000D01*
X151001939Y-92535000D01*
X151201898Y-92495226D01*
X151390256Y-92417205D01*
X151559774Y-92303937D01*
X151703937Y-92159774D01*
X151817205Y-91990256D01*
X151895226Y-91801898D01*
X151935000Y-91601939D01*
X151935000Y-91398061D01*
X151895226Y-91198102D01*
X151817205Y-91009744D01*
X151703937Y-90840226D01*
X151559774Y-90696063D01*
X151390256Y-90582795D01*
X151201898Y-90504774D01*
X151001939Y-90465000D01*
X150798061Y-90465000D01*
X150598102Y-90504774D01*
X150409744Y-90582795D01*
X150240226Y-90696063D01*
X150196289Y-90740000D01*
X146014802Y-90740000D01*
X143771356Y-88496555D01*
X143747553Y-88467551D01*
X143632360Y-88373015D01*
X144097836Y-88280426D01*
X144576265Y-88082254D01*
X145006840Y-87794553D01*
X145077251Y-87724142D01*
X145006014Y-88082274D01*
X145006014Y-88502832D01*
X145088061Y-88915309D01*
X145249002Y-89303855D01*
X145482651Y-89653536D01*
X145780031Y-89950916D01*
X146129712Y-90184565D01*
X146518258Y-90345506D01*
X146930735Y-90427553D01*
X147351293Y-90427553D01*
X147763770Y-90345506D01*
X148152316Y-90184565D01*
X148501997Y-89950916D01*
X148799377Y-89653536D01*
X149033026Y-89303855D01*
X149193967Y-88915309D01*
X149276014Y-88502832D01*
X149276014Y-88082274D01*
X149193967Y-87669797D01*
X149033026Y-87281251D01*
X148939864Y-87141823D01*
X149114852Y-87069341D01*
X149358220Y-86906727D01*
X149565188Y-86699759D01*
X149727802Y-86456391D01*
X149839812Y-86185974D01*
X149896914Y-85898901D01*
X149896914Y-85606205D01*
X149839812Y-85319132D01*
X149727802Y-85048715D01*
X149565188Y-84805347D01*
X149358220Y-84598379D01*
X149143639Y-84455000D01*
X149547000Y-84455000D01*
X149765987Y-84408415D01*
X149971678Y-84320003D01*
X150156169Y-84193161D01*
X150312369Y-84032764D01*
X150434276Y-83844976D01*
X150514119Y-83621874D01*
X151655881Y-83621874D01*
X151735724Y-83844976D01*
X151857631Y-84032764D01*
X152013831Y-84193161D01*
X152198322Y-84320003D01*
X152404013Y-84408415D01*
X152623000Y-84455000D01*
X152923000Y-84455000D01*
X152923000Y-83447000D01*
X151782046Y-83447000D01*
X151655881Y-83621874D01*
X150514119Y-83621874D01*
X150387954Y-83447000D01*
X148997000Y-83447000D01*
X148997000Y-83467000D01*
X148743000Y-83467000D01*
X148743000Y-83447000D01*
X147352046Y-83447000D01*
X147225881Y-83621874D01*
X147305724Y-83844976D01*
X147427631Y-84032764D01*
X147583831Y-84193161D01*
X147768322Y-84320003D01*
X147875467Y-84366057D01*
X147707176Y-84435765D01*
X147463808Y-84598379D01*
X147256840Y-84805347D01*
X147094226Y-85048715D01*
X146982216Y-85319132D01*
X146925114Y-85606205D01*
X146925114Y-85898901D01*
X146976563Y-86157553D01*
X146930735Y-86157553D01*
X146518258Y-86239600D01*
X146129712Y-86400541D01*
X145823306Y-86605274D01*
X145858887Y-86519375D01*
X145959914Y-86011477D01*
X145959914Y-85493629D01*
X145858887Y-84985731D01*
X145660715Y-84507302D01*
X145373014Y-84076727D01*
X145006840Y-83710553D01*
X144576265Y-83422852D01*
X144097836Y-83224680D01*
X143589938Y-83123653D01*
X143072090Y-83123653D01*
X142564192Y-83224680D01*
X142085763Y-83422852D01*
X141655188Y-83710553D01*
X141289014Y-84076727D01*
X141001313Y-84507302D01*
X140803141Y-84985731D01*
X140702114Y-85493629D01*
X140702114Y-86011477D01*
X140803141Y-86519375D01*
X141001313Y-86997804D01*
X141289014Y-87428379D01*
X141655188Y-87794553D01*
X142085763Y-88082254D01*
X142484827Y-88247552D01*
X135264880Y-88247552D01*
X135227557Y-88243876D01*
X135190234Y-88247552D01*
X135190225Y-88247552D01*
X135078572Y-88258549D01*
X134935311Y-88302006D01*
X134803282Y-88372578D01*
X134687557Y-88467551D01*
X134663759Y-88496549D01*
X133802754Y-89357555D01*
X129947145Y-89357555D01*
X129983025Y-89303856D01*
X130143966Y-88915310D01*
X130226013Y-88502833D01*
X130226013Y-88082275D01*
X130143966Y-87669798D01*
X129983025Y-87281252D01*
X129889863Y-87141824D01*
X130064851Y-87069342D01*
X130308219Y-86906728D01*
X130515187Y-86699760D01*
X130677801Y-86456392D01*
X130789811Y-86185975D01*
X130846913Y-85898902D01*
X130846913Y-85606206D01*
X130789811Y-85319133D01*
X130677801Y-85048716D01*
X130515187Y-84805348D01*
X130308219Y-84598380D01*
X130064851Y-84435766D01*
X129837382Y-84341545D01*
X129895226Y-84201898D01*
X129935000Y-84001939D01*
X129935000Y-83939801D01*
X131111003Y-82763799D01*
X131140001Y-82740001D01*
X131192513Y-82676015D01*
X131234974Y-82624277D01*
X131305546Y-82492247D01*
X131333308Y-82400725D01*
X131349003Y-82348986D01*
X131360000Y-82237333D01*
X131360000Y-82237324D01*
X131363676Y-82200001D01*
X131360000Y-82162678D01*
X131360000Y-81834802D01*
X132236200Y-82711002D01*
X132259999Y-82740001D01*
X132375724Y-82834974D01*
X132507753Y-82905546D01*
X132651014Y-82949003D01*
X132762667Y-82960000D01*
X132762677Y-82960000D01*
X132800000Y-82963676D01*
X132837323Y-82960000D01*
X134996289Y-82960000D01*
X135040226Y-83003937D01*
X135209744Y-83117205D01*
X135398102Y-83195226D01*
X135598061Y-83235000D01*
X135640001Y-83235000D01*
X135640000Y-84796289D01*
X135596063Y-84840226D01*
X135482795Y-85009744D01*
X135404774Y-85198102D01*
X135365000Y-85398061D01*
X135365000Y-85601939D01*
X135404774Y-85801898D01*
X135482795Y-85990256D01*
X135596063Y-86159774D01*
X135740226Y-86303937D01*
X135909744Y-86417205D01*
X136098102Y-86495226D01*
X136298061Y-86535000D01*
X136501939Y-86535000D01*
X136701898Y-86495226D01*
X136890256Y-86417205D01*
X136911982Y-86402688D01*
X136934226Y-86456391D01*
X137096840Y-86699759D01*
X137303808Y-86906727D01*
X137547176Y-87069341D01*
X137817593Y-87181351D01*
X138104666Y-87238453D01*
X138397362Y-87238453D01*
X138684435Y-87181351D01*
X138954852Y-87069341D01*
X139198220Y-86906727D01*
X139405188Y-86699759D01*
X139567802Y-86456391D01*
X139679812Y-86185974D01*
X139736914Y-85898901D01*
X139736914Y-85606205D01*
X139679812Y-85319132D01*
X139567802Y-85048715D01*
X139405188Y-84805347D01*
X139198220Y-84598379D01*
X138954852Y-84435765D01*
X138684435Y-84323755D01*
X138397362Y-84266653D01*
X138104666Y-84266653D01*
X137817593Y-84323755D01*
X137547176Y-84435765D01*
X137303808Y-84598379D01*
X137160000Y-84742187D01*
X137160000Y-83018126D01*
X147225881Y-83018126D01*
X147352046Y-83193000D01*
X148743000Y-83193000D01*
X148743000Y-83173000D01*
X148997000Y-83173000D01*
X148997000Y-83193000D01*
X150387954Y-83193000D01*
X150514119Y-83018126D01*
X151655881Y-83018126D01*
X151782046Y-83193000D01*
X152923000Y-83193000D01*
X152923000Y-82185000D01*
X152623000Y-82185000D01*
X152404013Y-82231585D01*
X152198322Y-82319997D01*
X152013831Y-82446839D01*
X151857631Y-82607236D01*
X151735724Y-82795024D01*
X151655881Y-83018126D01*
X150514119Y-83018126D01*
X150434276Y-82795024D01*
X150312369Y-82607236D01*
X150171794Y-82462884D01*
X150250741Y-82344731D01*
X150323108Y-82170022D01*
X150360000Y-81984552D01*
X150360000Y-81795448D01*
X150323108Y-81609978D01*
X150250741Y-81435269D01*
X150145681Y-81278036D01*
X150011964Y-81144319D01*
X149854731Y-81039259D01*
X149680022Y-80966892D01*
X149494552Y-80930000D01*
X149305448Y-80930000D01*
X149119978Y-80966892D01*
X148945269Y-81039259D01*
X148788036Y-81144319D01*
X148654319Y-81278036D01*
X148549259Y-81435269D01*
X148476892Y-81609978D01*
X148440000Y-81795448D01*
X148440000Y-81984552D01*
X148476892Y-82170022D01*
X148483096Y-82185000D01*
X148193000Y-82185000D01*
X147974013Y-82231585D01*
X147768322Y-82319997D01*
X147583831Y-82446839D01*
X147427631Y-82607236D01*
X147305724Y-82795024D01*
X147225881Y-83018126D01*
X137160000Y-83018126D01*
X137160000Y-82887803D01*
X139736005Y-80311799D01*
X139765002Y-80288002D01*
X139859975Y-80172277D01*
X139930547Y-80040248D01*
X139974004Y-79896987D01*
X139985001Y-79785334D01*
X139985001Y-79785326D01*
X139988677Y-79748001D01*
X139985001Y-79710676D01*
X139985001Y-76596638D01*
X139988677Y-76559315D01*
X139985001Y-76521992D01*
X139985001Y-76521983D01*
X139974004Y-76410330D01*
X139930547Y-76267069D01*
X139859975Y-76135040D01*
X139765002Y-76019315D01*
X139736004Y-75995517D01*
X138722361Y-74981874D01*
X147225881Y-74981874D01*
X147305724Y-75204976D01*
X147427631Y-75392764D01*
X147583831Y-75553161D01*
X147768322Y-75680003D01*
X147974013Y-75768415D01*
X148193000Y-75815000D01*
X148483096Y-75815000D01*
X148476892Y-75829978D01*
X148440000Y-76015448D01*
X148440000Y-76204552D01*
X148476892Y-76390022D01*
X148549259Y-76564731D01*
X148654319Y-76721964D01*
X148788036Y-76855681D01*
X148945269Y-76960741D01*
X149119978Y-77033108D01*
X149305448Y-77070000D01*
X149494552Y-77070000D01*
X149680022Y-77033108D01*
X149854731Y-76960741D01*
X150011964Y-76855681D01*
X150145681Y-76721964D01*
X150250741Y-76564731D01*
X150323108Y-76390022D01*
X150360000Y-76204552D01*
X150360000Y-76015448D01*
X150323108Y-75829978D01*
X150250741Y-75655269D01*
X150171794Y-75537116D01*
X150312369Y-75392764D01*
X150434276Y-75204976D01*
X150514119Y-74981874D01*
X151655881Y-74981874D01*
X151735724Y-75204976D01*
X151857631Y-75392764D01*
X152013831Y-75553161D01*
X152198322Y-75680003D01*
X152404013Y-75768415D01*
X152623000Y-75815000D01*
X152923000Y-75815000D01*
X152923000Y-74807000D01*
X151782046Y-74807000D01*
X151655881Y-74981874D01*
X150514119Y-74981874D01*
X150387954Y-74807000D01*
X148997000Y-74807000D01*
X148997000Y-74827000D01*
X148743000Y-74827000D01*
X148743000Y-74807000D01*
X147352046Y-74807000D01*
X147225881Y-74981874D01*
X138722361Y-74981874D01*
X138118613Y-74378126D01*
X147225881Y-74378126D01*
X147352046Y-74553000D01*
X148743000Y-74553000D01*
X148743000Y-73545000D01*
X148997000Y-73545000D01*
X148997000Y-74553000D01*
X150387954Y-74553000D01*
X150514119Y-74378126D01*
X150434276Y-74155024D01*
X150312369Y-73967236D01*
X150156169Y-73806839D01*
X149971678Y-73679997D01*
X149765987Y-73591585D01*
X149547000Y-73545000D01*
X148997000Y-73545000D01*
X148743000Y-73545000D01*
X148193000Y-73545000D01*
X147974013Y-73591585D01*
X147768322Y-73679997D01*
X147583831Y-73806839D01*
X147427631Y-73967236D01*
X147305724Y-74155024D01*
X147225881Y-74378126D01*
X138118613Y-74378126D01*
X137829489Y-74089003D01*
X137805686Y-74059999D01*
X137689961Y-73965026D01*
X137557932Y-73894454D01*
X137414724Y-73851013D01*
X137359774Y-73796063D01*
X137190256Y-73682795D01*
X137001898Y-73604774D01*
X136801939Y-73565000D01*
X136598061Y-73565000D01*
X136398102Y-73604774D01*
X136209744Y-73682795D01*
X136100000Y-73756123D01*
X135990256Y-73682795D01*
X135801898Y-73604774D01*
X135601939Y-73565000D01*
X135398061Y-73565000D01*
X135198102Y-73604774D01*
X135143192Y-73627519D01*
X135195226Y-73501898D01*
X135235000Y-73301939D01*
X135235000Y-73098061D01*
X135195226Y-72898102D01*
X135117205Y-72709744D01*
X135083967Y-72660000D01*
X144854091Y-72660000D01*
X144919751Y-72758266D01*
X145041734Y-72880249D01*
X145185171Y-72976091D01*
X145344549Y-73042107D01*
X145513745Y-73075763D01*
X145686255Y-73075763D01*
X145855451Y-73042107D01*
X146014829Y-72976091D01*
X146158266Y-72880249D01*
X146280249Y-72758266D01*
X146376091Y-72614829D01*
X146400000Y-72557107D01*
X146423909Y-72614829D01*
G36*
X120840226Y-76803937D02*
G01*
X121009744Y-76917205D01*
X121198102Y-76995226D01*
X121398061Y-77035000D01*
X121460199Y-77035000D01*
X124936200Y-80511002D01*
X124959999Y-80540001D01*
X125075724Y-80634974D01*
X125207753Y-80705546D01*
X125351014Y-80749003D01*
X125462667Y-80760000D01*
X125462676Y-80760000D01*
X125499999Y-80763676D01*
X125537322Y-80760000D01*
X129840000Y-80760000D01*
X129840001Y-81885197D01*
X128860199Y-82865000D01*
X128798061Y-82865000D01*
X128598102Y-82904774D01*
X128409744Y-82982795D01*
X128240226Y-83096063D01*
X128096063Y-83240226D01*
X127982795Y-83409744D01*
X127904774Y-83598102D01*
X127865000Y-83798061D01*
X127865000Y-84001939D01*
X127904774Y-84201898D01*
X127982795Y-84390256D01*
X128096063Y-84559774D01*
X128240226Y-84703937D01*
X128281003Y-84731184D01*
X128206839Y-84805348D01*
X128044225Y-85048716D01*
X127932215Y-85319133D01*
X127875113Y-85606206D01*
X127875113Y-85898902D01*
X127926562Y-86157554D01*
X127880734Y-86157554D01*
X127468257Y-86239601D01*
X127079711Y-86400542D01*
X126773305Y-86605275D01*
X126808886Y-86519376D01*
X126909913Y-86011478D01*
X126909913Y-85493630D01*
X126808886Y-84985732D01*
X126610714Y-84507303D01*
X126323013Y-84076728D01*
X125956839Y-83710554D01*
X125526264Y-83422853D01*
X125047835Y-83224681D01*
X124539937Y-83123654D01*
X124022089Y-83123654D01*
X123514191Y-83224681D01*
X123035762Y-83422853D01*
X122605187Y-83710554D01*
X122239013Y-84076728D01*
X121951312Y-84507303D01*
X121753140Y-84985732D01*
X121652113Y-85493630D01*
X121652113Y-86011478D01*
X121753140Y-86519376D01*
X121951312Y-86997805D01*
X122239013Y-87428380D01*
X122605187Y-87794554D01*
X123035762Y-88082255D01*
X123421245Y-88241928D01*
X123340226Y-88296063D01*
X123196063Y-88440226D01*
X123082795Y-88609744D01*
X123004774Y-88798102D01*
X122965000Y-88998061D01*
X122965000Y-89082653D01*
X122752315Y-88940542D01*
X122363769Y-88779601D01*
X121951292Y-88697554D01*
X121530734Y-88697554D01*
X121118257Y-88779601D01*
X120729711Y-88940542D01*
X120380030Y-89174191D01*
X120082650Y-89471571D01*
X119849001Y-89821252D01*
X119688060Y-90209798D01*
X119606013Y-90622275D01*
X119606013Y-91042833D01*
X119688060Y-91455310D01*
X119849001Y-91843856D01*
X120082650Y-92193537D01*
X120380030Y-92490917D01*
X120453488Y-92540000D01*
X103735025Y-92540000D01*
X103808483Y-92490917D01*
X104105863Y-92193537D01*
X104339512Y-91843856D01*
X104500453Y-91455310D01*
X104582500Y-91042833D01*
X104582500Y-90622275D01*
X104500453Y-90209798D01*
X104339512Y-89821252D01*
X104105863Y-89471571D01*
X103808483Y-89174191D01*
X103458802Y-88940542D01*
X103070256Y-88779601D01*
X102657779Y-88697554D01*
X102237221Y-88697554D01*
X101824744Y-88779601D01*
X101436198Y-88940542D01*
X101086517Y-89174191D01*
X100789137Y-89471571D01*
X100555488Y-89821252D01*
X100394547Y-90209798D01*
X100312500Y-90622275D01*
X100312500Y-91042833D01*
X100394547Y-91455310D01*
X100555488Y-91843856D01*
X100789137Y-92193537D01*
X101086517Y-92490917D01*
X101159975Y-92540000D01*
X84928536Y-92540000D01*
X85001996Y-92490916D01*
X85299376Y-92193536D01*
X85533025Y-91843855D01*
X85693966Y-91455309D01*
X85776013Y-91042832D01*
X85776013Y-90622274D01*
X85693966Y-90209797D01*
X85533025Y-89821251D01*
X85299376Y-89471570D01*
X85001996Y-89174190D01*
X84652315Y-88940541D01*
X84263769Y-88779600D01*
X83851292Y-88697553D01*
X83430734Y-88697553D01*
X83018257Y-88779600D01*
X82629711Y-88940541D01*
X82280030Y-89174190D01*
X81982650Y-89471570D01*
X81749001Y-89821251D01*
X81588060Y-90209797D01*
X81506013Y-90622274D01*
X81506013Y-91042832D01*
X81588060Y-91455309D01*
X81749001Y-91843855D01*
X81982650Y-92193536D01*
X82280030Y-92490916D01*
X82353490Y-92540000D01*
X65635025Y-92540000D01*
X65708483Y-92490917D01*
X66005863Y-92193537D01*
X66239512Y-91843856D01*
X66400453Y-91455310D01*
X66482500Y-91042833D01*
X66482500Y-90622275D01*
X66400453Y-90209798D01*
X66239512Y-89821252D01*
X66005863Y-89471571D01*
X65708483Y-89174191D01*
X65358802Y-88940542D01*
X64970256Y-88779601D01*
X64557779Y-88697554D01*
X64137221Y-88697554D01*
X63724744Y-88779601D01*
X63336198Y-88940542D01*
X62986517Y-89174191D01*
X62689137Y-89471571D01*
X62455488Y-89821252D01*
X62294547Y-90209798D01*
X62212500Y-90622275D01*
X62212500Y-91042833D01*
X62294547Y-91455310D01*
X62455488Y-91843856D01*
X62689137Y-92193537D01*
X62986517Y-92490917D01*
X63059975Y-92540000D01*
X60714803Y-92540000D01*
X56809999Y-88635198D01*
X56809999Y-85606206D01*
X60321600Y-85606206D01*
X60321600Y-85898902D01*
X60378702Y-86185975D01*
X60490712Y-86456392D01*
X60653326Y-86699760D01*
X60860294Y-86906728D01*
X61103662Y-87069342D01*
X61374079Y-87181352D01*
X61661152Y-87238454D01*
X61953848Y-87238454D01*
X62240921Y-87181352D01*
X62511338Y-87069342D01*
X62754706Y-86906728D01*
X62961674Y-86699760D01*
X63124288Y-86456392D01*
X63236298Y-86185975D01*
X63293400Y-85898902D01*
X63293400Y-85606206D01*
X63236298Y-85319133D01*
X63124288Y-85048716D01*
X62961674Y-84805348D01*
X62754706Y-84598380D01*
X62511338Y-84435766D01*
X62240921Y-84323756D01*
X61953848Y-84266654D01*
X61661152Y-84266654D01*
X61374079Y-84323756D01*
X61103662Y-84435766D01*
X60860294Y-84598380D01*
X60653326Y-84805348D01*
X60490712Y-85048716D01*
X60378702Y-85319133D01*
X60321600Y-85606206D01*
X56809999Y-85606206D01*
X56809999Y-83284801D01*
X56861201Y-83336003D01*
X56885000Y-83365002D01*
X56913998Y-83388800D01*
X57000724Y-83459975D01*
X57132754Y-83530547D01*
X57276015Y-83574004D01*
X57387668Y-83585001D01*
X57387678Y-83585001D01*
X57425001Y-83588677D01*
X57462324Y-83585001D01*
X65399577Y-83585001D01*
X65211674Y-83710554D01*
X64845500Y-84076728D01*
X64557799Y-84507303D01*
X64359627Y-84985732D01*
X64258600Y-85493630D01*
X64258600Y-86011478D01*
X64359627Y-86519376D01*
X64557799Y-86997805D01*
X64845500Y-87428380D01*
X65211674Y-87794554D01*
X65642249Y-88082255D01*
X66120678Y-88280427D01*
X66628576Y-88381454D01*
X67146424Y-88381454D01*
X67654322Y-88280427D01*
X68132751Y-88082255D01*
X68563326Y-87794554D01*
X68633737Y-87724143D01*
X68562500Y-88082275D01*
X68562500Y-88502833D01*
X68644547Y-88915310D01*
X68805488Y-89303856D01*
X69039137Y-89653537D01*
X69336517Y-89950917D01*
X69686198Y-90184566D01*
X70074744Y-90345507D01*
X70487221Y-90427554D01*
X70907779Y-90427554D01*
X71320256Y-90345507D01*
X71708802Y-90184566D01*
X72058483Y-89950917D01*
X72355863Y-89653537D01*
X72589512Y-89303856D01*
X72750453Y-88915310D01*
X72832500Y-88502833D01*
X72832500Y-88082275D01*
X72750453Y-87669798D01*
X72589512Y-87281252D01*
X72496350Y-87141824D01*
X72671338Y-87069342D01*
X72914706Y-86906728D01*
X73121674Y-86699760D01*
X73284288Y-86456392D01*
X73396298Y-86185975D01*
X73453400Y-85898902D01*
X73453400Y-85606206D01*
X73453400Y-85606205D01*
X79615113Y-85606205D01*
X79615113Y-85898901D01*
X79672215Y-86185974D01*
X79784225Y-86456391D01*
X79946839Y-86699759D01*
X80153807Y-86906727D01*
X80397175Y-87069341D01*
X80667592Y-87181351D01*
X80954665Y-87238453D01*
X81247361Y-87238453D01*
X81534434Y-87181351D01*
X81804851Y-87069341D01*
X82048219Y-86906727D01*
X82255187Y-86699759D01*
X82417801Y-86456391D01*
X82529811Y-86185974D01*
X82586913Y-85898901D01*
X82586913Y-85606205D01*
X82529811Y-85319132D01*
X82417801Y-85048715D01*
X82255187Y-84805347D01*
X82048219Y-84598379D01*
X81804851Y-84435765D01*
X81534434Y-84323755D01*
X81247361Y-84266653D01*
X80954665Y-84266653D01*
X80667592Y-84323755D01*
X80397175Y-84435765D01*
X80153807Y-84598379D01*
X79946839Y-84805347D01*
X79784225Y-85048715D01*
X79672215Y-85319132D01*
X79615113Y-85606205D01*
X73453400Y-85606205D01*
X73396298Y-85319133D01*
X73284288Y-85048716D01*
X73121674Y-84805348D01*
X72914706Y-84598380D01*
X72671338Y-84435766D01*
X72400921Y-84323756D01*
X72113848Y-84266654D01*
X71821152Y-84266654D01*
X71534079Y-84323756D01*
X71263662Y-84435766D01*
X71020294Y-84598380D01*
X70813326Y-84805348D01*
X70650712Y-85048716D01*
X70538702Y-85319133D01*
X70481600Y-85606206D01*
X70481600Y-85898902D01*
X70533049Y-86157554D01*
X70487221Y-86157554D01*
X70074744Y-86239601D01*
X69686198Y-86400542D01*
X69379792Y-86605275D01*
X69415373Y-86519376D01*
X69516400Y-86011478D01*
X69516400Y-85493630D01*
X69415373Y-84985732D01*
X69217201Y-84507303D01*
X68929500Y-84076728D01*
X68563326Y-83710554D01*
X68375423Y-83585001D01*
X84693089Y-83585001D01*
X84505187Y-83710553D01*
X84139013Y-84076727D01*
X83851312Y-84507302D01*
X83653140Y-84985731D01*
X83552113Y-85493629D01*
X83552113Y-86011477D01*
X83653140Y-86519375D01*
X83851312Y-86997804D01*
X84139013Y-87428379D01*
X84505187Y-87794553D01*
X84935762Y-88082254D01*
X85414191Y-88280426D01*
X85922089Y-88381453D01*
X86439937Y-88381453D01*
X86947835Y-88280426D01*
X87426264Y-88082254D01*
X87856839Y-87794553D01*
X87927250Y-87724142D01*
X87856013Y-88082274D01*
X87856013Y-88502832D01*
X87938060Y-88915309D01*
X88099001Y-89303855D01*
X88332650Y-89653536D01*
X88630030Y-89950916D01*
X88979711Y-90184565D01*
X89368257Y-90345506D01*
X89780734Y-90427553D01*
X90201292Y-90427553D01*
X90613769Y-90345506D01*
X91002315Y-90184565D01*
X91351996Y-89950916D01*
X91649376Y-89653536D01*
X91883025Y-89303855D01*
X92043966Y-88915309D01*
X92126013Y-88502832D01*
X92126013Y-88082274D01*
X92043966Y-87669797D01*
X91883025Y-87281251D01*
X91789863Y-87141823D01*
X91964851Y-87069341D01*
X92208219Y-86906727D01*
X92415187Y-86699759D01*
X92577801Y-86456391D01*
X92689811Y-86185974D01*
X92746913Y-85898901D01*
X92746913Y-85606206D01*
X98421600Y-85606206D01*
X98421600Y-85898902D01*
X98478702Y-86185975D01*
X98590712Y-86456392D01*
X98753326Y-86699760D01*
X98960294Y-86906728D01*
X99203662Y-87069342D01*
X99474079Y-87181352D01*
X99761152Y-87238454D01*
X100053848Y-87238454D01*
X100340921Y-87181352D01*
X100611338Y-87069342D01*
X100854706Y-86906728D01*
X101061674Y-86699760D01*
X101224288Y-86456392D01*
X101336298Y-86185975D01*
X101393400Y-85898902D01*
X101393400Y-85606206D01*
X101336298Y-85319133D01*
X101224288Y-85048716D01*
X101061674Y-84805348D01*
X100854706Y-84598380D01*
X100611338Y-84435766D01*
X100340921Y-84323756D01*
X100053848Y-84266654D01*
X99761152Y-84266654D01*
X99474079Y-84323756D01*
X99203662Y-84435766D01*
X98960294Y-84598380D01*
X98753326Y-84805348D01*
X98590712Y-85048716D01*
X98478702Y-85319133D01*
X98421600Y-85606206D01*
X92746913Y-85606206D01*
X92746913Y-85606205D01*
X92689811Y-85319132D01*
X92577801Y-85048715D01*
X92415187Y-84805347D01*
X92208219Y-84598379D01*
X91964851Y-84435765D01*
X91694434Y-84323755D01*
X91407361Y-84266653D01*
X91114665Y-84266653D01*
X90827592Y-84323755D01*
X90557175Y-84435765D01*
X90313807Y-84598379D01*
X90106839Y-84805347D01*
X89944225Y-85048715D01*
X89832215Y-85319132D01*
X89775113Y-85606205D01*
X89775113Y-85898901D01*
X89826562Y-86157553D01*
X89780734Y-86157553D01*
X89368257Y-86239600D01*
X88979711Y-86400541D01*
X88673305Y-86605274D01*
X88708886Y-86519375D01*
X88809913Y-86011477D01*
X88809913Y-85493629D01*
X88708886Y-84985731D01*
X88510714Y-84507302D01*
X88223013Y-84076727D01*
X87856839Y-83710553D01*
X87668937Y-83585001D01*
X103499577Y-83585001D01*
X103311674Y-83710554D01*
X102945500Y-84076728D01*
X102657799Y-84507303D01*
X102459627Y-84985732D01*
X102358600Y-85493630D01*
X102358600Y-86011478D01*
X102459627Y-86519376D01*
X102657799Y-86997805D01*
X102945500Y-87428380D01*
X103311674Y-87794554D01*
X103742249Y-88082255D01*
X104220678Y-88280427D01*
X104728576Y-88381454D01*
X105246424Y-88381454D01*
X105754322Y-88280427D01*
X106232751Y-88082255D01*
X106663326Y-87794554D01*
X106733737Y-87724143D01*
X106662500Y-88082275D01*
X106662500Y-88502833D01*
X106744547Y-88915310D01*
X106905488Y-89303856D01*
X107139137Y-89653537D01*
X107436517Y-89950917D01*
X107786198Y-90184566D01*
X108174744Y-90345507D01*
X108587221Y-90427554D01*
X109007779Y-90427554D01*
X109420256Y-90345507D01*
X109808802Y-90184566D01*
X110158483Y-89950917D01*
X110455863Y-89653537D01*
X110689512Y-89303856D01*
X110850453Y-88915310D01*
X110932500Y-88502833D01*
X110932500Y-88082275D01*
X110850453Y-87669798D01*
X110689512Y-87281252D01*
X110596350Y-87141824D01*
X110771338Y-87069342D01*
X111014706Y-86906728D01*
X111221674Y-86699760D01*
X111384288Y-86456392D01*
X111496298Y-86185975D01*
X111553400Y-85898902D01*
X111553400Y-85606206D01*
X117715113Y-85606206D01*
X117715113Y-85898902D01*
X117772215Y-86185975D01*
X117884225Y-86456392D01*
X118046839Y-86699760D01*
X118253807Y-86906728D01*
X118497175Y-87069342D01*
X118767592Y-87181352D01*
X119054665Y-87238454D01*
X119347361Y-87238454D01*
X119634434Y-87181352D01*
X119904851Y-87069342D01*
X120148219Y-86906728D01*
X120355187Y-86699760D01*
X120517801Y-86456392D01*
X120629811Y-86185975D01*
X120686913Y-85898902D01*
X120686913Y-85606206D01*
X120629811Y-85319133D01*
X120517801Y-85048716D01*
X120355187Y-84805348D01*
X120148219Y-84598380D01*
X119904851Y-84435766D01*
X119634434Y-84323756D01*
X119347361Y-84266654D01*
X119054665Y-84266654D01*
X118767592Y-84323756D01*
X118497175Y-84435766D01*
X118253807Y-84598380D01*
X118046839Y-84805348D01*
X117884225Y-85048716D01*
X117772215Y-85319133D01*
X117715113Y-85606206D01*
X111553400Y-85606206D01*
X111496298Y-85319133D01*
X111384288Y-85048716D01*
X111221674Y-84805348D01*
X111014706Y-84598380D01*
X110771338Y-84435766D01*
X110500921Y-84323756D01*
X110213848Y-84266654D01*
X109921152Y-84266654D01*
X109634079Y-84323756D01*
X109363662Y-84435766D01*
X109120294Y-84598380D01*
X108913326Y-84805348D01*
X108750712Y-85048716D01*
X108638702Y-85319133D01*
X108581600Y-85606206D01*
X108581600Y-85898902D01*
X108633049Y-86157554D01*
X108587221Y-86157554D01*
X108174744Y-86239601D01*
X107786198Y-86400542D01*
X107479792Y-86605275D01*
X107515373Y-86519376D01*
X107616400Y-86011478D01*
X107616400Y-85493630D01*
X107515373Y-84985732D01*
X107317201Y-84507303D01*
X107029500Y-84076728D01*
X106663326Y-83710554D01*
X106475423Y-83585001D01*
X113564675Y-83585001D01*
X113601997Y-83588677D01*
X113639319Y-83585001D01*
X113639330Y-83585001D01*
X113750983Y-83574004D01*
X113894244Y-83530547D01*
X114026273Y-83459975D01*
X114141998Y-83365002D01*
X114165801Y-83335998D01*
X120769044Y-76732755D01*
X120840226Y-76803937D01*
G37*
X120840226Y-76803937D02*
X121009744Y-76917205D01*
X121198102Y-76995226D01*
X121398061Y-77035000D01*
X121460199Y-77035000D01*
X124936200Y-80511002D01*
X124959999Y-80540001D01*
X125075724Y-80634974D01*
X125207753Y-80705546D01*
X125351014Y-80749003D01*
X125462667Y-80760000D01*
X125462676Y-80760000D01*
X125499999Y-80763676D01*
X125537322Y-80760000D01*
X129840000Y-80760000D01*
X129840001Y-81885197D01*
X128860199Y-82865000D01*
X128798061Y-82865000D01*
X128598102Y-82904774D01*
X128409744Y-82982795D01*
X128240226Y-83096063D01*
X128096063Y-83240226D01*
X127982795Y-83409744D01*
X127904774Y-83598102D01*
X127865000Y-83798061D01*
X127865000Y-84001939D01*
X127904774Y-84201898D01*
X127982795Y-84390256D01*
X128096063Y-84559774D01*
X128240226Y-84703937D01*
X128281003Y-84731184D01*
X128206839Y-84805348D01*
X128044225Y-85048716D01*
X127932215Y-85319133D01*
X127875113Y-85606206D01*
X127875113Y-85898902D01*
X127926562Y-86157554D01*
X127880734Y-86157554D01*
X127468257Y-86239601D01*
X127079711Y-86400542D01*
X126773305Y-86605275D01*
X126808886Y-86519376D01*
X126909913Y-86011478D01*
X126909913Y-85493630D01*
X126808886Y-84985732D01*
X126610714Y-84507303D01*
X126323013Y-84076728D01*
X125956839Y-83710554D01*
X125526264Y-83422853D01*
X125047835Y-83224681D01*
X124539937Y-83123654D01*
X124022089Y-83123654D01*
X123514191Y-83224681D01*
X123035762Y-83422853D01*
X122605187Y-83710554D01*
X122239013Y-84076728D01*
X121951312Y-84507303D01*
X121753140Y-84985732D01*
X121652113Y-85493630D01*
X121652113Y-86011478D01*
X121753140Y-86519376D01*
X121951312Y-86997805D01*
X122239013Y-87428380D01*
X122605187Y-87794554D01*
X123035762Y-88082255D01*
X123421245Y-88241928D01*
X123340226Y-88296063D01*
X123196063Y-88440226D01*
X123082795Y-88609744D01*
X123004774Y-88798102D01*
X122965000Y-88998061D01*
X122965000Y-89082653D01*
X122752315Y-88940542D01*
X122363769Y-88779601D01*
X121951292Y-88697554D01*
X121530734Y-88697554D01*
X121118257Y-88779601D01*
X120729711Y-88940542D01*
X120380030Y-89174191D01*
X120082650Y-89471571D01*
X119849001Y-89821252D01*
X119688060Y-90209798D01*
X119606013Y-90622275D01*
X119606013Y-91042833D01*
X119688060Y-91455310D01*
X119849001Y-91843856D01*
X120082650Y-92193537D01*
X120380030Y-92490917D01*
X120453488Y-92540000D01*
X103735025Y-92540000D01*
X103808483Y-92490917D01*
X104105863Y-92193537D01*
X104339512Y-91843856D01*
X104500453Y-91455310D01*
X104582500Y-91042833D01*
X104582500Y-90622275D01*
X104500453Y-90209798D01*
X104339512Y-89821252D01*
X104105863Y-89471571D01*
X103808483Y-89174191D01*
X103458802Y-88940542D01*
X103070256Y-88779601D01*
X102657779Y-88697554D01*
X102237221Y-88697554D01*
X101824744Y-88779601D01*
X101436198Y-88940542D01*
X101086517Y-89174191D01*
X100789137Y-89471571D01*
X100555488Y-89821252D01*
X100394547Y-90209798D01*
X100312500Y-90622275D01*
X100312500Y-91042833D01*
X100394547Y-91455310D01*
X100555488Y-91843856D01*
X100789137Y-92193537D01*
X101086517Y-92490917D01*
X101159975Y-92540000D01*
X84928536Y-92540000D01*
X85001996Y-92490916D01*
X85299376Y-92193536D01*
X85533025Y-91843855D01*
X85693966Y-91455309D01*
X85776013Y-91042832D01*
X85776013Y-90622274D01*
X85693966Y-90209797D01*
X85533025Y-89821251D01*
X85299376Y-89471570D01*
X85001996Y-89174190D01*
X84652315Y-88940541D01*
X84263769Y-88779600D01*
X83851292Y-88697553D01*
X83430734Y-88697553D01*
X83018257Y-88779600D01*
X82629711Y-88940541D01*
X82280030Y-89174190D01*
X81982650Y-89471570D01*
X81749001Y-89821251D01*
X81588060Y-90209797D01*
X81506013Y-90622274D01*
X81506013Y-91042832D01*
X81588060Y-91455309D01*
X81749001Y-91843855D01*
X81982650Y-92193536D01*
X82280030Y-92490916D01*
X82353490Y-92540000D01*
X65635025Y-92540000D01*
X65708483Y-92490917D01*
X66005863Y-92193537D01*
X66239512Y-91843856D01*
X66400453Y-91455310D01*
X66482500Y-91042833D01*
X66482500Y-90622275D01*
X66400453Y-90209798D01*
X66239512Y-89821252D01*
X66005863Y-89471571D01*
X65708483Y-89174191D01*
X65358802Y-88940542D01*
X64970256Y-88779601D01*
X64557779Y-88697554D01*
X64137221Y-88697554D01*
X63724744Y-88779601D01*
X63336198Y-88940542D01*
X62986517Y-89174191D01*
X62689137Y-89471571D01*
X62455488Y-89821252D01*
X62294547Y-90209798D01*
X62212500Y-90622275D01*
X62212500Y-91042833D01*
X62294547Y-91455310D01*
X62455488Y-91843856D01*
X62689137Y-92193537D01*
X62986517Y-92490917D01*
X63059975Y-92540000D01*
X60714803Y-92540000D01*
X56809999Y-88635198D01*
X56809999Y-85606206D01*
X60321600Y-85606206D01*
X60321600Y-85898902D01*
X60378702Y-86185975D01*
X60490712Y-86456392D01*
X60653326Y-86699760D01*
X60860294Y-86906728D01*
X61103662Y-87069342D01*
X61374079Y-87181352D01*
X61661152Y-87238454D01*
X61953848Y-87238454D01*
X62240921Y-87181352D01*
X62511338Y-87069342D01*
X62754706Y-86906728D01*
X62961674Y-86699760D01*
X63124288Y-86456392D01*
X63236298Y-86185975D01*
X63293400Y-85898902D01*
X63293400Y-85606206D01*
X63236298Y-85319133D01*
X63124288Y-85048716D01*
X62961674Y-84805348D01*
X62754706Y-84598380D01*
X62511338Y-84435766D01*
X62240921Y-84323756D01*
X61953848Y-84266654D01*
X61661152Y-84266654D01*
X61374079Y-84323756D01*
X61103662Y-84435766D01*
X60860294Y-84598380D01*
X60653326Y-84805348D01*
X60490712Y-85048716D01*
X60378702Y-85319133D01*
X60321600Y-85606206D01*
X56809999Y-85606206D01*
X56809999Y-83284801D01*
X56861201Y-83336003D01*
X56885000Y-83365002D01*
X56913998Y-83388800D01*
X57000724Y-83459975D01*
X57132754Y-83530547D01*
X57276015Y-83574004D01*
X57387668Y-83585001D01*
X57387678Y-83585001D01*
X57425001Y-83588677D01*
X57462324Y-83585001D01*
X65399577Y-83585001D01*
X65211674Y-83710554D01*
X64845500Y-84076728D01*
X64557799Y-84507303D01*
X64359627Y-84985732D01*
X64258600Y-85493630D01*
X64258600Y-86011478D01*
X64359627Y-86519376D01*
X64557799Y-86997805D01*
X64845500Y-87428380D01*
X65211674Y-87794554D01*
X65642249Y-88082255D01*
X66120678Y-88280427D01*
X66628576Y-88381454D01*
X67146424Y-88381454D01*
X67654322Y-88280427D01*
X68132751Y-88082255D01*
X68563326Y-87794554D01*
X68633737Y-87724143D01*
X68562500Y-88082275D01*
X68562500Y-88502833D01*
X68644547Y-88915310D01*
X68805488Y-89303856D01*
X69039137Y-89653537D01*
X69336517Y-89950917D01*
X69686198Y-90184566D01*
X70074744Y-90345507D01*
X70487221Y-90427554D01*
X70907779Y-90427554D01*
X71320256Y-90345507D01*
X71708802Y-90184566D01*
X72058483Y-89950917D01*
X72355863Y-89653537D01*
X72589512Y-89303856D01*
X72750453Y-88915310D01*
X72832500Y-88502833D01*
X72832500Y-88082275D01*
X72750453Y-87669798D01*
X72589512Y-87281252D01*
X72496350Y-87141824D01*
X72671338Y-87069342D01*
X72914706Y-86906728D01*
X73121674Y-86699760D01*
X73284288Y-86456392D01*
X73396298Y-86185975D01*
X73453400Y-85898902D01*
X73453400Y-85606206D01*
X73453400Y-85606205D01*
X79615113Y-85606205D01*
X79615113Y-85898901D01*
X79672215Y-86185974D01*
X79784225Y-86456391D01*
X79946839Y-86699759D01*
X80153807Y-86906727D01*
X80397175Y-87069341D01*
X80667592Y-87181351D01*
X80954665Y-87238453D01*
X81247361Y-87238453D01*
X81534434Y-87181351D01*
X81804851Y-87069341D01*
X82048219Y-86906727D01*
X82255187Y-86699759D01*
X82417801Y-86456391D01*
X82529811Y-86185974D01*
X82586913Y-85898901D01*
X82586913Y-85606205D01*
X82529811Y-85319132D01*
X82417801Y-85048715D01*
X82255187Y-84805347D01*
X82048219Y-84598379D01*
X81804851Y-84435765D01*
X81534434Y-84323755D01*
X81247361Y-84266653D01*
X80954665Y-84266653D01*
X80667592Y-84323755D01*
X80397175Y-84435765D01*
X80153807Y-84598379D01*
X79946839Y-84805347D01*
X79784225Y-85048715D01*
X79672215Y-85319132D01*
X79615113Y-85606205D01*
X73453400Y-85606205D01*
X73396298Y-85319133D01*
X73284288Y-85048716D01*
X73121674Y-84805348D01*
X72914706Y-84598380D01*
X72671338Y-84435766D01*
X72400921Y-84323756D01*
X72113848Y-84266654D01*
X71821152Y-84266654D01*
X71534079Y-84323756D01*
X71263662Y-84435766D01*
X71020294Y-84598380D01*
X70813326Y-84805348D01*
X70650712Y-85048716D01*
X70538702Y-85319133D01*
X70481600Y-85606206D01*
X70481600Y-85898902D01*
X70533049Y-86157554D01*
X70487221Y-86157554D01*
X70074744Y-86239601D01*
X69686198Y-86400542D01*
X69379792Y-86605275D01*
X69415373Y-86519376D01*
X69516400Y-86011478D01*
X69516400Y-85493630D01*
X69415373Y-84985732D01*
X69217201Y-84507303D01*
X68929500Y-84076728D01*
X68563326Y-83710554D01*
X68375423Y-83585001D01*
X84693089Y-83585001D01*
X84505187Y-83710553D01*
X84139013Y-84076727D01*
X83851312Y-84507302D01*
X83653140Y-84985731D01*
X83552113Y-85493629D01*
X83552113Y-86011477D01*
X83653140Y-86519375D01*
X83851312Y-86997804D01*
X84139013Y-87428379D01*
X84505187Y-87794553D01*
X84935762Y-88082254D01*
X85414191Y-88280426D01*
X85922089Y-88381453D01*
X86439937Y-88381453D01*
X86947835Y-88280426D01*
X87426264Y-88082254D01*
X87856839Y-87794553D01*
X87927250Y-87724142D01*
X87856013Y-88082274D01*
X87856013Y-88502832D01*
X87938060Y-88915309D01*
X88099001Y-89303855D01*
X88332650Y-89653536D01*
X88630030Y-89950916D01*
X88979711Y-90184565D01*
X89368257Y-90345506D01*
X89780734Y-90427553D01*
X90201292Y-90427553D01*
X90613769Y-90345506D01*
X91002315Y-90184565D01*
X91351996Y-89950916D01*
X91649376Y-89653536D01*
X91883025Y-89303855D01*
X92043966Y-88915309D01*
X92126013Y-88502832D01*
X92126013Y-88082274D01*
X92043966Y-87669797D01*
X91883025Y-87281251D01*
X91789863Y-87141823D01*
X91964851Y-87069341D01*
X92208219Y-86906727D01*
X92415187Y-86699759D01*
X92577801Y-86456391D01*
X92689811Y-86185974D01*
X92746913Y-85898901D01*
X92746913Y-85606206D01*
X98421600Y-85606206D01*
X98421600Y-85898902D01*
X98478702Y-86185975D01*
X98590712Y-86456392D01*
X98753326Y-86699760D01*
X98960294Y-86906728D01*
X99203662Y-87069342D01*
X99474079Y-87181352D01*
X99761152Y-87238454D01*
X100053848Y-87238454D01*
X100340921Y-87181352D01*
X100611338Y-87069342D01*
X100854706Y-86906728D01*
X101061674Y-86699760D01*
X101224288Y-86456392D01*
X101336298Y-86185975D01*
X101393400Y-85898902D01*
X101393400Y-85606206D01*
X101336298Y-85319133D01*
X101224288Y-85048716D01*
X101061674Y-84805348D01*
X100854706Y-84598380D01*
X100611338Y-84435766D01*
X100340921Y-84323756D01*
X100053848Y-84266654D01*
X99761152Y-84266654D01*
X99474079Y-84323756D01*
X99203662Y-84435766D01*
X98960294Y-84598380D01*
X98753326Y-84805348D01*
X98590712Y-85048716D01*
X98478702Y-85319133D01*
X98421600Y-85606206D01*
X92746913Y-85606206D01*
X92746913Y-85606205D01*
X92689811Y-85319132D01*
X92577801Y-85048715D01*
X92415187Y-84805347D01*
X92208219Y-84598379D01*
X91964851Y-84435765D01*
X91694434Y-84323755D01*
X91407361Y-84266653D01*
X91114665Y-84266653D01*
X90827592Y-84323755D01*
X90557175Y-84435765D01*
X90313807Y-84598379D01*
X90106839Y-84805347D01*
X89944225Y-85048715D01*
X89832215Y-85319132D01*
X89775113Y-85606205D01*
X89775113Y-85898901D01*
X89826562Y-86157553D01*
X89780734Y-86157553D01*
X89368257Y-86239600D01*
X88979711Y-86400541D01*
X88673305Y-86605274D01*
X88708886Y-86519375D01*
X88809913Y-86011477D01*
X88809913Y-85493629D01*
X88708886Y-84985731D01*
X88510714Y-84507302D01*
X88223013Y-84076727D01*
X87856839Y-83710553D01*
X87668937Y-83585001D01*
X103499577Y-83585001D01*
X103311674Y-83710554D01*
X102945500Y-84076728D01*
X102657799Y-84507303D01*
X102459627Y-84985732D01*
X102358600Y-85493630D01*
X102358600Y-86011478D01*
X102459627Y-86519376D01*
X102657799Y-86997805D01*
X102945500Y-87428380D01*
X103311674Y-87794554D01*
X103742249Y-88082255D01*
X104220678Y-88280427D01*
X104728576Y-88381454D01*
X105246424Y-88381454D01*
X105754322Y-88280427D01*
X106232751Y-88082255D01*
X106663326Y-87794554D01*
X106733737Y-87724143D01*
X106662500Y-88082275D01*
X106662500Y-88502833D01*
X106744547Y-88915310D01*
X106905488Y-89303856D01*
X107139137Y-89653537D01*
X107436517Y-89950917D01*
X107786198Y-90184566D01*
X108174744Y-90345507D01*
X108587221Y-90427554D01*
X109007779Y-90427554D01*
X109420256Y-90345507D01*
X109808802Y-90184566D01*
X110158483Y-89950917D01*
X110455863Y-89653537D01*
X110689512Y-89303856D01*
X110850453Y-88915310D01*
X110932500Y-88502833D01*
X110932500Y-88082275D01*
X110850453Y-87669798D01*
X110689512Y-87281252D01*
X110596350Y-87141824D01*
X110771338Y-87069342D01*
X111014706Y-86906728D01*
X111221674Y-86699760D01*
X111384288Y-86456392D01*
X111496298Y-86185975D01*
X111553400Y-85898902D01*
X111553400Y-85606206D01*
X117715113Y-85606206D01*
X117715113Y-85898902D01*
X117772215Y-86185975D01*
X117884225Y-86456392D01*
X118046839Y-86699760D01*
X118253807Y-86906728D01*
X118497175Y-87069342D01*
X118767592Y-87181352D01*
X119054665Y-87238454D01*
X119347361Y-87238454D01*
X119634434Y-87181352D01*
X119904851Y-87069342D01*
X120148219Y-86906728D01*
X120355187Y-86699760D01*
X120517801Y-86456392D01*
X120629811Y-86185975D01*
X120686913Y-85898902D01*
X120686913Y-85606206D01*
X120629811Y-85319133D01*
X120517801Y-85048716D01*
X120355187Y-84805348D01*
X120148219Y-84598380D01*
X119904851Y-84435766D01*
X119634434Y-84323756D01*
X119347361Y-84266654D01*
X119054665Y-84266654D01*
X118767592Y-84323756D01*
X118497175Y-84435766D01*
X118253807Y-84598380D01*
X118046839Y-84805348D01*
X117884225Y-85048716D01*
X117772215Y-85319133D01*
X117715113Y-85606206D01*
X111553400Y-85606206D01*
X111496298Y-85319133D01*
X111384288Y-85048716D01*
X111221674Y-84805348D01*
X111014706Y-84598380D01*
X110771338Y-84435766D01*
X110500921Y-84323756D01*
X110213848Y-84266654D01*
X109921152Y-84266654D01*
X109634079Y-84323756D01*
X109363662Y-84435766D01*
X109120294Y-84598380D01*
X108913326Y-84805348D01*
X108750712Y-85048716D01*
X108638702Y-85319133D01*
X108581600Y-85606206D01*
X108581600Y-85898902D01*
X108633049Y-86157554D01*
X108587221Y-86157554D01*
X108174744Y-86239601D01*
X107786198Y-86400542D01*
X107479792Y-86605275D01*
X107515373Y-86519376D01*
X107616400Y-86011478D01*
X107616400Y-85493630D01*
X107515373Y-84985732D01*
X107317201Y-84507303D01*
X107029500Y-84076728D01*
X106663326Y-83710554D01*
X106475423Y-83585001D01*
X113564675Y-83585001D01*
X113601997Y-83588677D01*
X113639319Y-83585001D01*
X113639330Y-83585001D01*
X113750983Y-83574004D01*
X113894244Y-83530547D01*
X114026273Y-83459975D01*
X114141998Y-83365002D01*
X114165801Y-83335998D01*
X120769044Y-76732755D01*
X120840226Y-76803937D01*
G36*
X113287196Y-82065001D02*
G01*
X109936536Y-82065001D01*
X109966999Y-82040001D01*
X109990802Y-82010997D01*
X116869044Y-75132755D01*
X116940226Y-75203937D01*
X117109744Y-75317205D01*
X117298102Y-75395226D01*
X117498061Y-75435000D01*
X117701939Y-75435000D01*
X117901898Y-75395226D01*
X118090256Y-75317205D01*
X118259774Y-75203937D01*
X118403937Y-75059774D01*
X118517205Y-74890256D01*
X118595226Y-74701898D01*
X118618480Y-74584989D01*
X120767207Y-74584989D01*
X113287196Y-82065001D01*
G37*
X113287196Y-82065001D02*
X109936536Y-82065001D01*
X109966999Y-82040001D01*
X109990802Y-82010997D01*
X116869044Y-75132755D01*
X116940226Y-75203937D01*
X117109744Y-75317205D01*
X117298102Y-75395226D01*
X117498061Y-75435000D01*
X117701939Y-75435000D01*
X117901898Y-75395226D01*
X118090256Y-75317205D01*
X118259774Y-75203937D01*
X118403937Y-75059774D01*
X118517205Y-74890256D01*
X118595226Y-74701898D01*
X118618480Y-74584989D01*
X120767207Y-74584989D01*
X113287196Y-82065001D01*
G36*
X63765000Y-77398061D02*
G01*
X63765000Y-77601939D01*
X63804774Y-77801898D01*
X63882795Y-77990256D01*
X63996063Y-78159774D01*
X64140226Y-78303937D01*
X64309744Y-78417205D01*
X64498102Y-78495226D01*
X64698061Y-78535000D01*
X64901939Y-78535000D01*
X65101898Y-78495226D01*
X65290256Y-78417205D01*
X65459774Y-78303937D01*
X65480956Y-78282755D01*
X69209203Y-82011003D01*
X69233001Y-82040001D01*
X69263464Y-82065001D01*
X58610840Y-82065001D01*
X59711003Y-80964839D01*
X59740001Y-80941041D01*
X59834974Y-80825316D01*
X59905546Y-80693287D01*
X59949003Y-80550026D01*
X59960000Y-80438373D01*
X59960000Y-80438365D01*
X59963676Y-80401040D01*
X59960000Y-80363715D01*
X59960000Y-79198061D01*
X61965000Y-79198061D01*
X61965000Y-79401939D01*
X62004774Y-79601898D01*
X62082795Y-79790256D01*
X62196063Y-79959774D01*
X62340226Y-80103937D01*
X62509744Y-80217205D01*
X62698102Y-80295226D01*
X62898061Y-80335000D01*
X63101939Y-80335000D01*
X63301898Y-80295226D01*
X63490256Y-80217205D01*
X63659774Y-80103937D01*
X63803937Y-79959774D01*
X63917205Y-79790256D01*
X63995226Y-79601898D01*
X64035000Y-79401939D01*
X64035000Y-79198061D01*
X63995226Y-78998102D01*
X63917205Y-78809744D01*
X63803937Y-78640226D01*
X63659774Y-78496063D01*
X63490256Y-78382795D01*
X63301898Y-78304774D01*
X63101939Y-78265000D01*
X62898061Y-78265000D01*
X62698102Y-78304774D01*
X62509744Y-78382795D01*
X62340226Y-78496063D01*
X62196063Y-78640226D01*
X62082795Y-78809744D01*
X62004774Y-78998102D01*
X61965000Y-79198061D01*
X59960000Y-79198061D01*
X59960000Y-78703711D01*
X60003937Y-78659774D01*
X60117205Y-78490256D01*
X60195226Y-78301898D01*
X60235000Y-78101939D01*
X60235000Y-77960000D01*
X62762678Y-77960000D01*
X62800000Y-77963676D01*
X62837322Y-77960000D01*
X62837333Y-77960000D01*
X62948986Y-77949003D01*
X63092247Y-77905546D01*
X63224276Y-77834974D01*
X63340001Y-77740001D01*
X63363804Y-77710997D01*
X63786915Y-77287886D01*
X63765000Y-77398061D01*
G37*
X63765000Y-77398061D02*
X63765000Y-77601939D01*
X63804774Y-77801898D01*
X63882795Y-77990256D01*
X63996063Y-78159774D01*
X64140226Y-78303937D01*
X64309744Y-78417205D01*
X64498102Y-78495226D01*
X64698061Y-78535000D01*
X64901939Y-78535000D01*
X65101898Y-78495226D01*
X65290256Y-78417205D01*
X65459774Y-78303937D01*
X65480956Y-78282755D01*
X69209203Y-82011003D01*
X69233001Y-82040001D01*
X69263464Y-82065001D01*
X58610840Y-82065001D01*
X59711003Y-80964839D01*
X59740001Y-80941041D01*
X59834974Y-80825316D01*
X59905546Y-80693287D01*
X59949003Y-80550026D01*
X59960000Y-80438373D01*
X59960000Y-80438365D01*
X59963676Y-80401040D01*
X59960000Y-80363715D01*
X59960000Y-79198061D01*
X61965000Y-79198061D01*
X61965000Y-79401939D01*
X62004774Y-79601898D01*
X62082795Y-79790256D01*
X62196063Y-79959774D01*
X62340226Y-80103937D01*
X62509744Y-80217205D01*
X62698102Y-80295226D01*
X62898061Y-80335000D01*
X63101939Y-80335000D01*
X63301898Y-80295226D01*
X63490256Y-80217205D01*
X63659774Y-80103937D01*
X63803937Y-79959774D01*
X63917205Y-79790256D01*
X63995226Y-79601898D01*
X64035000Y-79401939D01*
X64035000Y-79198061D01*
X63995226Y-78998102D01*
X63917205Y-78809744D01*
X63803937Y-78640226D01*
X63659774Y-78496063D01*
X63490256Y-78382795D01*
X63301898Y-78304774D01*
X63101939Y-78265000D01*
X62898061Y-78265000D01*
X62698102Y-78304774D01*
X62509744Y-78382795D01*
X62340226Y-78496063D01*
X62196063Y-78640226D01*
X62082795Y-78809744D01*
X62004774Y-78998102D01*
X61965000Y-79198061D01*
X59960000Y-79198061D01*
X59960000Y-78703711D01*
X60003937Y-78659774D01*
X60117205Y-78490256D01*
X60195226Y-78301898D01*
X60235000Y-78101939D01*
X60235000Y-77960000D01*
X62762678Y-77960000D01*
X62800000Y-77963676D01*
X62837322Y-77960000D01*
X62837333Y-77960000D01*
X62948986Y-77949003D01*
X63092247Y-77905546D01*
X63224276Y-77834974D01*
X63340001Y-77740001D01*
X63363804Y-77710997D01*
X63786915Y-77287886D01*
X63765000Y-77398061D01*
G36*
X122698102Y-75995226D02*
G01*
X122898061Y-76035000D01*
X122960199Y-76035000D01*
X124436201Y-77511003D01*
X124459999Y-77540001D01*
X124488997Y-77563799D01*
X124575723Y-77634974D01*
X124693452Y-77697902D01*
X124707753Y-77705546D01*
X124851014Y-77749003D01*
X124962667Y-77760000D01*
X124962676Y-77760000D01*
X124999999Y-77763676D01*
X125037322Y-77760000D01*
X137796289Y-77760000D01*
X137840226Y-77803937D01*
X138009744Y-77917205D01*
X138198102Y-77995226D01*
X138398061Y-78035000D01*
X138465002Y-78035000D01*
X138465001Y-79433199D01*
X136430956Y-81467245D01*
X136359774Y-81396063D01*
X136190256Y-81282795D01*
X136001898Y-81204774D01*
X135801939Y-81165000D01*
X135598061Y-81165000D01*
X135398102Y-81204774D01*
X135209744Y-81282795D01*
X135040226Y-81396063D01*
X134996289Y-81440000D01*
X133114802Y-81440000D01*
X131635000Y-79960199D01*
X131635000Y-79898061D01*
X131595226Y-79698102D01*
X131517205Y-79509744D01*
X131403937Y-79340226D01*
X131259774Y-79196063D01*
X131090256Y-79082795D01*
X130901898Y-79004774D01*
X130701939Y-78965000D01*
X130498061Y-78965000D01*
X130298102Y-79004774D01*
X130109744Y-79082795D01*
X129940226Y-79196063D01*
X129896289Y-79240000D01*
X125814802Y-79240000D01*
X122535000Y-75960199D01*
X122535000Y-75927666D01*
X122698102Y-75995226D01*
G37*
X122698102Y-75995226D02*
X122898061Y-76035000D01*
X122960199Y-76035000D01*
X124436201Y-77511003D01*
X124459999Y-77540001D01*
X124488997Y-77563799D01*
X124575723Y-77634974D01*
X124693452Y-77697902D01*
X124707753Y-77705546D01*
X124851014Y-77749003D01*
X124962667Y-77760000D01*
X124962676Y-77760000D01*
X124999999Y-77763676D01*
X125037322Y-77760000D01*
X137796289Y-77760000D01*
X137840226Y-77803937D01*
X138009744Y-77917205D01*
X138198102Y-77995226D01*
X138398061Y-78035000D01*
X138465002Y-78035000D01*
X138465001Y-79433199D01*
X136430956Y-81467245D01*
X136359774Y-81396063D01*
X136190256Y-81282795D01*
X136001898Y-81204774D01*
X135801939Y-81165000D01*
X135598061Y-81165000D01*
X135398102Y-81204774D01*
X135209744Y-81282795D01*
X135040226Y-81396063D01*
X134996289Y-81440000D01*
X133114802Y-81440000D01*
X131635000Y-79960199D01*
X131635000Y-79898061D01*
X131595226Y-79698102D01*
X131517205Y-79509744D01*
X131403937Y-79340226D01*
X131259774Y-79196063D01*
X131090256Y-79082795D01*
X130901898Y-79004774D01*
X130701939Y-78965000D01*
X130498061Y-78965000D01*
X130298102Y-79004774D01*
X130109744Y-79082795D01*
X129940226Y-79196063D01*
X129896289Y-79240000D01*
X125814802Y-79240000D01*
X122535000Y-75960199D01*
X122535000Y-75927666D01*
X122698102Y-75995226D01*
G36*
X101719751Y-72758266D02*
G01*
X101841734Y-72880249D01*
X101985171Y-72976091D01*
X102144549Y-73042107D01*
X102313745Y-73075763D01*
X102486255Y-73075763D01*
X102655451Y-73042107D01*
X102800000Y-72982233D01*
X102944549Y-73042107D01*
X103113745Y-73075763D01*
X103286255Y-73075763D01*
X103455451Y-73042107D01*
X103600000Y-72982233D01*
X103744549Y-73042107D01*
X103913745Y-73075763D01*
X104086255Y-73075763D01*
X104255451Y-73042107D01*
X104400000Y-72982233D01*
X104544549Y-73042107D01*
X104713745Y-73075763D01*
X104886255Y-73075763D01*
X105055451Y-73042107D01*
X105214829Y-72976091D01*
X105266395Y-72941636D01*
X107435766Y-75111008D01*
X107459560Y-75140001D01*
X107488553Y-75163795D01*
X107488557Y-75163799D01*
X107537466Y-75203937D01*
X107575285Y-75234974D01*
X107707314Y-75305546D01*
X107850575Y-75349003D01*
X107962228Y-75360000D01*
X107962237Y-75360000D01*
X107999560Y-75363676D01*
X108036883Y-75360000D01*
X109896289Y-75360000D01*
X109940226Y-75403937D01*
X110109744Y-75517205D01*
X110298102Y-75595226D01*
X110498061Y-75635000D01*
X110701939Y-75635000D01*
X110901898Y-75595226D01*
X111090256Y-75517205D01*
X111259774Y-75403937D01*
X111403937Y-75259774D01*
X111517205Y-75090256D01*
X111595226Y-74901898D01*
X111635000Y-74701939D01*
X111635000Y-74498061D01*
X111595226Y-74298102D01*
X111517205Y-74109744D01*
X111403937Y-73940226D01*
X111259774Y-73796063D01*
X111090256Y-73682795D01*
X110901898Y-73604774D01*
X110701939Y-73565000D01*
X110498061Y-73565000D01*
X110298102Y-73604774D01*
X110109744Y-73682795D01*
X109940226Y-73796063D01*
X109896289Y-73840000D01*
X108314364Y-73840000D01*
X107141284Y-72666921D01*
X107145909Y-72660000D01*
X117192196Y-72660000D01*
X109112197Y-80740000D01*
X76653711Y-80740000D01*
X76609774Y-80696063D01*
X76440256Y-80582795D01*
X76251898Y-80504774D01*
X76051939Y-80465000D01*
X75848061Y-80465000D01*
X75648102Y-80504774D01*
X75459744Y-80582795D01*
X75290226Y-80696063D01*
X75246289Y-80740000D01*
X70087804Y-80740000D01*
X66336806Y-76989003D01*
X66313003Y-76959999D01*
X66197278Y-76865026D01*
X66065249Y-76794454D01*
X65921988Y-76750997D01*
X65810335Y-76740000D01*
X65810324Y-76740000D01*
X65773002Y-76736324D01*
X65735680Y-76740000D01*
X65503711Y-76740000D01*
X65459774Y-76696063D01*
X65290256Y-76582795D01*
X65101898Y-76504774D01*
X64901939Y-76465000D01*
X64698061Y-76465000D01*
X64587886Y-76486915D01*
X67216927Y-73857875D01*
X95801029Y-73664740D01*
X95840226Y-73703937D01*
X96009744Y-73817205D01*
X96198102Y-73895226D01*
X96398061Y-73935000D01*
X96601939Y-73935000D01*
X96801898Y-73895226D01*
X96990256Y-73817205D01*
X97159774Y-73703937D01*
X97303937Y-73559774D01*
X97417205Y-73390256D01*
X97495226Y-73201898D01*
X97535000Y-73001939D01*
X97535000Y-72798061D01*
X97507538Y-72660000D01*
X101654091Y-72660000D01*
X101719751Y-72758266D01*
G37*
X101719751Y-72758266D02*
X101841734Y-72880249D01*
X101985171Y-72976091D01*
X102144549Y-73042107D01*
X102313745Y-73075763D01*
X102486255Y-73075763D01*
X102655451Y-73042107D01*
X102800000Y-72982233D01*
X102944549Y-73042107D01*
X103113745Y-73075763D01*
X103286255Y-73075763D01*
X103455451Y-73042107D01*
X103600000Y-72982233D01*
X103744549Y-73042107D01*
X103913745Y-73075763D01*
X104086255Y-73075763D01*
X104255451Y-73042107D01*
X104400000Y-72982233D01*
X104544549Y-73042107D01*
X104713745Y-73075763D01*
X104886255Y-73075763D01*
X105055451Y-73042107D01*
X105214829Y-72976091D01*
X105266395Y-72941636D01*
X107435766Y-75111008D01*
X107459560Y-75140001D01*
X107488553Y-75163795D01*
X107488557Y-75163799D01*
X107537466Y-75203937D01*
X107575285Y-75234974D01*
X107707314Y-75305546D01*
X107850575Y-75349003D01*
X107962228Y-75360000D01*
X107962237Y-75360000D01*
X107999560Y-75363676D01*
X108036883Y-75360000D01*
X109896289Y-75360000D01*
X109940226Y-75403937D01*
X110109744Y-75517205D01*
X110298102Y-75595226D01*
X110498061Y-75635000D01*
X110701939Y-75635000D01*
X110901898Y-75595226D01*
X111090256Y-75517205D01*
X111259774Y-75403937D01*
X111403937Y-75259774D01*
X111517205Y-75090256D01*
X111595226Y-74901898D01*
X111635000Y-74701939D01*
X111635000Y-74498061D01*
X111595226Y-74298102D01*
X111517205Y-74109744D01*
X111403937Y-73940226D01*
X111259774Y-73796063D01*
X111090256Y-73682795D01*
X110901898Y-73604774D01*
X110701939Y-73565000D01*
X110498061Y-73565000D01*
X110298102Y-73604774D01*
X110109744Y-73682795D01*
X109940226Y-73796063D01*
X109896289Y-73840000D01*
X108314364Y-73840000D01*
X107141284Y-72666921D01*
X107145909Y-72660000D01*
X117192196Y-72660000D01*
X109112197Y-80740000D01*
X76653711Y-80740000D01*
X76609774Y-80696063D01*
X76440256Y-80582795D01*
X76251898Y-80504774D01*
X76051939Y-80465000D01*
X75848061Y-80465000D01*
X75648102Y-80504774D01*
X75459744Y-80582795D01*
X75290226Y-80696063D01*
X75246289Y-80740000D01*
X70087804Y-80740000D01*
X66336806Y-76989003D01*
X66313003Y-76959999D01*
X66197278Y-76865026D01*
X66065249Y-76794454D01*
X65921988Y-76750997D01*
X65810335Y-76740000D01*
X65810324Y-76740000D01*
X65773002Y-76736324D01*
X65735680Y-76740000D01*
X65503711Y-76740000D01*
X65459774Y-76696063D01*
X65290256Y-76582795D01*
X65101898Y-76504774D01*
X64901939Y-76465000D01*
X64698061Y-76465000D01*
X64587886Y-76486915D01*
X67216927Y-73857875D01*
X95801029Y-73664740D01*
X95840226Y-73703937D01*
X96009744Y-73817205D01*
X96198102Y-73895226D01*
X96398061Y-73935000D01*
X96601939Y-73935000D01*
X96801898Y-73895226D01*
X96990256Y-73817205D01*
X97159774Y-73703937D01*
X97303937Y-73559774D01*
X97417205Y-73390256D01*
X97495226Y-73201898D01*
X97535000Y-73001939D01*
X97535000Y-72798061D01*
X97507538Y-72660000D01*
X101654091Y-72660000D01*
X101719751Y-72758266D01*
G36*
X62485199Y-76440000D02*
G01*
X57765957Y-76440000D01*
X57755537Y-76420506D01*
X57676185Y-76323815D01*
X57579494Y-76244463D01*
X57469180Y-76185498D01*
X57349482Y-76149188D01*
X57225000Y-76136928D01*
X56375000Y-76136928D01*
X56250518Y-76149188D01*
X56130820Y-76185498D01*
X56020506Y-76244463D01*
X55923815Y-76323815D01*
X55844463Y-76420506D01*
X55785498Y-76530820D01*
X55749188Y-76650518D01*
X55736928Y-76775000D01*
X55736928Y-77596012D01*
X55660000Y-77659145D01*
X55660000Y-77029392D01*
X55731173Y-76231917D01*
X55934656Y-75488109D01*
X56266638Y-74792095D01*
X56716626Y-74165870D01*
X57270403Y-73629223D01*
X57910451Y-73199129D01*
X58463484Y-72956364D01*
X58404774Y-73098102D01*
X58365000Y-73298061D01*
X58365000Y-73501939D01*
X58404774Y-73701898D01*
X58482795Y-73890256D01*
X58596063Y-74059774D01*
X58740226Y-74203937D01*
X58909744Y-74317205D01*
X59098102Y-74395226D01*
X59298061Y-74435000D01*
X59365000Y-74435000D01*
X59365000Y-74601939D01*
X59404774Y-74801898D01*
X59482795Y-74990256D01*
X59596063Y-75159774D01*
X59740226Y-75303937D01*
X59909744Y-75417205D01*
X60098102Y-75495226D01*
X60298061Y-75535000D01*
X60501939Y-75535000D01*
X60701898Y-75495226D01*
X60890256Y-75417205D01*
X61059774Y-75303937D01*
X61103711Y-75260000D01*
X61899526Y-75260000D01*
X61936848Y-75263676D01*
X61974170Y-75260000D01*
X61974181Y-75260000D01*
X62085834Y-75249003D01*
X62229095Y-75205546D01*
X62361124Y-75134974D01*
X62476849Y-75040001D01*
X62500652Y-75010997D01*
X64319617Y-73192033D01*
X64348610Y-73168239D01*
X64372404Y-73139246D01*
X64372409Y-73139241D01*
X64424504Y-73075763D01*
X64486255Y-73075763D01*
X64655451Y-73042107D01*
X64814829Y-72976091D01*
X64958266Y-72880249D01*
X65080249Y-72758266D01*
X65145909Y-72660000D01*
X66265198Y-72660000D01*
X62485199Y-76440000D01*
G37*
X62485199Y-76440000D02*
X57765957Y-76440000D01*
X57755537Y-76420506D01*
X57676185Y-76323815D01*
X57579494Y-76244463D01*
X57469180Y-76185498D01*
X57349482Y-76149188D01*
X57225000Y-76136928D01*
X56375000Y-76136928D01*
X56250518Y-76149188D01*
X56130820Y-76185498D01*
X56020506Y-76244463D01*
X55923815Y-76323815D01*
X55844463Y-76420506D01*
X55785498Y-76530820D01*
X55749188Y-76650518D01*
X55736928Y-76775000D01*
X55736928Y-77596012D01*
X55660000Y-77659145D01*
X55660000Y-77029392D01*
X55731173Y-76231917D01*
X55934656Y-75488109D01*
X56266638Y-74792095D01*
X56716626Y-74165870D01*
X57270403Y-73629223D01*
X57910451Y-73199129D01*
X58463484Y-72956364D01*
X58404774Y-73098102D01*
X58365000Y-73298061D01*
X58365000Y-73501939D01*
X58404774Y-73701898D01*
X58482795Y-73890256D01*
X58596063Y-74059774D01*
X58740226Y-74203937D01*
X58909744Y-74317205D01*
X59098102Y-74395226D01*
X59298061Y-74435000D01*
X59365000Y-74435000D01*
X59365000Y-74601939D01*
X59404774Y-74801898D01*
X59482795Y-74990256D01*
X59596063Y-75159774D01*
X59740226Y-75303937D01*
X59909744Y-75417205D01*
X60098102Y-75495226D01*
X60298061Y-75535000D01*
X60501939Y-75535000D01*
X60701898Y-75495226D01*
X60890256Y-75417205D01*
X61059774Y-75303937D01*
X61103711Y-75260000D01*
X61899526Y-75260000D01*
X61936848Y-75263676D01*
X61974170Y-75260000D01*
X61974181Y-75260000D01*
X62085834Y-75249003D01*
X62229095Y-75205546D01*
X62361124Y-75134974D01*
X62476849Y-75040001D01*
X62500652Y-75010997D01*
X64319617Y-73192033D01*
X64348610Y-73168239D01*
X64372404Y-73139246D01*
X64372409Y-73139241D01*
X64424504Y-73075763D01*
X64486255Y-73075763D01*
X64655451Y-73042107D01*
X64814829Y-72976091D01*
X64958266Y-72880249D01*
X65080249Y-72758266D01*
X65145909Y-72660000D01*
X66265198Y-72660000D01*
X62485199Y-76440000D01*
G36*
X134504774Y-74298102D02*
G01*
X134465000Y-74498061D01*
X134465000Y-74560198D01*
X133235209Y-75789990D01*
X125937794Y-75789990D01*
X124732792Y-74584989D01*
X131737689Y-74584989D01*
X131775011Y-74588665D01*
X131812333Y-74584989D01*
X131812344Y-74584989D01*
X131923997Y-74573992D01*
X131970123Y-74560000D01*
X132496289Y-74560000D01*
X132540226Y-74603937D01*
X132709744Y-74717205D01*
X132898102Y-74795226D01*
X133098061Y-74835000D01*
X133301939Y-74835000D01*
X133501898Y-74795226D01*
X133690256Y-74717205D01*
X133859774Y-74603937D01*
X134003937Y-74459774D01*
X134117205Y-74290256D01*
X134140093Y-74235000D01*
X134301939Y-74235000D01*
X134501898Y-74195226D01*
X134556808Y-74172481D01*
X134504774Y-74298102D01*
G37*
X134504774Y-74298102D02*
X134465000Y-74498061D01*
X134465000Y-74560198D01*
X133235209Y-75789990D01*
X125937794Y-75789990D01*
X124732792Y-74584989D01*
X131737689Y-74584989D01*
X131775011Y-74588665D01*
X131812333Y-74584989D01*
X131812344Y-74584989D01*
X131923997Y-74573992D01*
X131970123Y-74560000D01*
X132496289Y-74560000D01*
X132540226Y-74603937D01*
X132709744Y-74717205D01*
X132898102Y-74795226D01*
X133098061Y-74835000D01*
X133301939Y-74835000D01*
X133501898Y-74795226D01*
X133690256Y-74717205D01*
X133859774Y-74603937D01*
X134003937Y-74459774D01*
X134117205Y-74290256D01*
X134140093Y-74235000D01*
X134301939Y-74235000D01*
X134501898Y-74195226D01*
X134556808Y-74172481D01*
X134504774Y-74298102D01*
M02*
