G04 #@! TF.GenerationSoftware,KiCad,Pcbnew,(5.1.5)-3*
G04 #@! TF.CreationDate,2020-05-02T19:50:40+02:00*
G04 #@! TF.ProjectId,kyrremann,6b797272-656d-4616-9e6e-2e6b69636164,rev?*
G04 #@! TF.SameCoordinates,Original*
G04 #@! TF.FileFunction,Profile,NP*
%FSLAX46Y46*%
G04 Gerber Fmt 4.6, Leading zero omitted, Abs format (unit mm)*
G04 Created by KiCad (PCBNEW (5.1.5)-3) date 2020-05-02 19:50:40*
%MOMM*%
%LPD*%
G04 APERTURE LIST*
%ADD10C,0.050000*%
G04 APERTURE END LIST*
D10*
X149000000Y-72200000D02*
G75*
G03X149000000Y-72200000I-200000J0D01*
G01*
X147400000Y-72200000D02*
G75*
G03X147400000Y-72200000I-200000J0D01*
G01*
X146600000Y-67800000D02*
G75*
G03X146600000Y-67800000I-200000J0D01*
G01*
X145800000Y-72200000D02*
G75*
G03X145800000Y-72200000I-200000J0D01*
G01*
X145800000Y-67800000D02*
G75*
G03X145800000Y-67800000I-200000J0D01*
G01*
X147400000Y-67800000D02*
G75*
G03X147400000Y-67800000I-200000J0D01*
G01*
X149800000Y-72200000D02*
G75*
G03X149800000Y-72200000I-200000J0D01*
G01*
X149800000Y-67800000D02*
G75*
G03X149800000Y-67800000I-200000J0D01*
G01*
X148200000Y-72200000D02*
G75*
G03X148200000Y-72200000I-200000J0D01*
G01*
X148200000Y-67800000D02*
G75*
G03X148200000Y-67800000I-200000J0D01*
G01*
X122600000Y-72200000D02*
G75*
G03X122600000Y-72200000I-200000J0D01*
G01*
X125800000Y-72200000D02*
G75*
G03X125800000Y-72200000I-200000J0D01*
G01*
X123400000Y-72200000D02*
G75*
G03X123400000Y-72200000I-200000J0D01*
G01*
X126600000Y-72200000D02*
G75*
G03X126600000Y-72200000I-200000J0D01*
G01*
X124200000Y-72200000D02*
G75*
G03X124200000Y-72200000I-200000J0D01*
G01*
X122600000Y-67800000D02*
G75*
G03X122600000Y-67800000I-200000J0D01*
G01*
X123400000Y-67800000D02*
G75*
G03X123400000Y-67800000I-200000J0D01*
G01*
X125000000Y-72200000D02*
G75*
G03X125000000Y-72200000I-200000J0D01*
G01*
X125800000Y-67800000D02*
G75*
G03X125800000Y-67800000I-200000J0D01*
G01*
X124200000Y-67800000D02*
G75*
G03X124200000Y-67800000I-200000J0D01*
G01*
X126600000Y-67800000D02*
G75*
G03X126600000Y-67800000I-200000J0D01*
G01*
X125000000Y-67800000D02*
G75*
G03X125000000Y-67800000I-200000J0D01*
G01*
X104200000Y-72200000D02*
G75*
G03X104200000Y-72200000I-200000J0D01*
G01*
X102600000Y-72200000D02*
G75*
G03X102600000Y-72200000I-200000J0D01*
G01*
X102600000Y-67800000D02*
G75*
G03X102600000Y-67800000I-200000J0D01*
G01*
X104200000Y-67800000D02*
G75*
G03X104200000Y-67800000I-200000J0D01*
G01*
X105800000Y-67800000D02*
G75*
G03X105800000Y-67800000I-200000J0D01*
G01*
X106600000Y-72200000D02*
G75*
G03X106600000Y-72200000I-200000J0D01*
G01*
X106600000Y-67800000D02*
G75*
G03X106600000Y-67800000I-200000J0D01*
G01*
X105000000Y-72200000D02*
G75*
G03X105000000Y-72200000I-200000J0D01*
G01*
X105000000Y-67800000D02*
G75*
G03X105000000Y-67800000I-200000J0D01*
G01*
X103400000Y-72200000D02*
G75*
G03X103400000Y-72200000I-200000J0D01*
G01*
X84200000Y-72200000D02*
G75*
G03X84200000Y-72200000I-200000J0D01*
G01*
X83400000Y-67800000D02*
G75*
G03X83400000Y-67800000I-200000J0D01*
G01*
X85800000Y-72200000D02*
G75*
G03X85800000Y-72200000I-200000J0D01*
G01*
X82600000Y-72200000D02*
G75*
G03X82600000Y-72200000I-200000J0D01*
G01*
X82600000Y-67800000D02*
G75*
G03X82600000Y-67800000I-200000J0D01*
G01*
X84200000Y-67800000D02*
G75*
G03X84200000Y-67800000I-200000J0D01*
G01*
X85800000Y-67800000D02*
G75*
G03X85800000Y-67800000I-200000J0D01*
G01*
X86600000Y-72200000D02*
G75*
G03X86600000Y-72200000I-200000J0D01*
G01*
X86600000Y-67800000D02*
G75*
G03X86600000Y-67800000I-200000J0D01*
G01*
X85000000Y-72200000D02*
G75*
G03X85000000Y-72200000I-200000J0D01*
G01*
X85000000Y-67800000D02*
G75*
G03X85000000Y-67800000I-200000J0D01*
G01*
X83400000Y-72200000D02*
G75*
G03X83400000Y-72200000I-200000J0D01*
G01*
X62200000Y-67800000D02*
G75*
G03X62200000Y-67800000I-200000J0D01*
G01*
X63800000Y-67800000D02*
G75*
G03X63800000Y-67800000I-200000J0D01*
G01*
X60600000Y-67800000D02*
G75*
G03X60600000Y-67800000I-200000J0D01*
G01*
X64600000Y-67800000D02*
G75*
G03X64600000Y-67800000I-200000J0D01*
G01*
X63000000Y-67800000D02*
G75*
G03X63000000Y-67800000I-200000J0D01*
G01*
X64600000Y-72200000D02*
G75*
G03X64600000Y-72200000I-200000J0D01*
G01*
X63000000Y-72200000D02*
G75*
G03X63000000Y-72200000I-200000J0D01*
G01*
X62200000Y-72200000D02*
G75*
G03X62200000Y-72200000I-200000J0D01*
G01*
X61400000Y-72200000D02*
G75*
G03X61400000Y-72200000I-200000J0D01*
G01*
X60600000Y-72200000D02*
G75*
G03X60600000Y-72200000I-200000J0D01*
G01*
X155000000Y-63000000D02*
G75*
G02X150000000Y-68000000I-5000000J0D01*
G01*
X150000000Y-72000000D02*
G75*
G02X155000000Y-77000000I0J-5000000D01*
G01*
X60000000Y-68000000D02*
G75*
G02X55000000Y-63000000I0J5000000D01*
G01*
X55000000Y-77000000D02*
G75*
G02X60000000Y-72000000I5000000J0D01*
G01*
X126800000Y-72000000D02*
X145200000Y-72000000D01*
X106800000Y-72000000D02*
X122000000Y-72000000D01*
X86800000Y-72000000D02*
X102000000Y-72000000D01*
X64800000Y-72000000D02*
X82000000Y-72000000D01*
X126800000Y-68000000D02*
X145200000Y-68000000D01*
X106800000Y-68000000D02*
X122000000Y-68000000D01*
X86800000Y-68000000D02*
X102000000Y-68000000D01*
X64800000Y-68000000D02*
X82000000Y-68000000D01*
X55000000Y-50000000D02*
X55000000Y-63000000D01*
X155000000Y-50000000D02*
X155000000Y-63000000D01*
X122000000Y-72000000D02*
X122000000Y-68000000D01*
X126800000Y-68000000D02*
X126800000Y-72000000D01*
X145200000Y-72000000D02*
X145200000Y-68000000D01*
X150000000Y-68000000D02*
X150000000Y-72000000D01*
X86800000Y-72000000D02*
X86800000Y-68000000D01*
X82000000Y-68000000D02*
X82000000Y-72000000D01*
X106800000Y-68000000D02*
X106800000Y-72000000D01*
X102000000Y-68000000D02*
X102000000Y-72000000D01*
X64800000Y-68000000D02*
X64800000Y-72000000D01*
X60000000Y-68000000D02*
X60000000Y-72000000D01*
X155000000Y-90000000D02*
G75*
G02X150000000Y-95000000I-5000000J0D01*
G01*
X155000000Y-50000000D02*
G75*
G03X150000000Y-45000000I-5000000J0D01*
G01*
X55000000Y-50000000D02*
G75*
G02X60000000Y-45000000I5000000J0D01*
G01*
X60000000Y-95000000D02*
G75*
G02X55000000Y-90000000I0J5000000D01*
G01*
X155000000Y-77000000D02*
X155000000Y-90000000D01*
X55000000Y-77000000D02*
X55000000Y-90000000D01*
X60000000Y-95000000D02*
X150000000Y-95000000D01*
X60000000Y-45000000D02*
X150000000Y-45000000D01*
M02*
