G04 #@! TF.GenerationSoftware,KiCad,Pcbnew,(5.1.5)-3*
G04 #@! TF.CreationDate,2020-05-02T19:50:40+02:00*
G04 #@! TF.ProjectId,kyrremann,6b797272-656d-4616-9e6e-2e6b69636164,rev?*
G04 #@! TF.SameCoordinates,Original*
G04 #@! TF.FileFunction,Soldermask,Bot*
G04 #@! TF.FilePolarity,Negative*
%FSLAX46Y46*%
G04 Gerber Fmt 4.6, Leading zero omitted, Abs format (unit mm)*
G04 Created by KiCad (PCBNEW (5.1.5)-3) date 2020-05-02 19:50:40*
%MOMM*%
%LPD*%
G04 APERTURE LIST*
%ADD10C,0.100000*%
G04 APERTURE END LIST*
D10*
G36*
X64650085Y-89311356D02*
G01*
X64799910Y-89341158D01*
X65082174Y-89458075D01*
X65336205Y-89627813D01*
X65552241Y-89843849D01*
X65721979Y-90097880D01*
X65838896Y-90380144D01*
X65898500Y-90679794D01*
X65898500Y-90985314D01*
X65838896Y-91284964D01*
X65721979Y-91567228D01*
X65552241Y-91821259D01*
X65336205Y-92037295D01*
X65082174Y-92207033D01*
X64799910Y-92323950D01*
X64650085Y-92353752D01*
X64500261Y-92383554D01*
X64194739Y-92383554D01*
X64044915Y-92353752D01*
X63895090Y-92323950D01*
X63612826Y-92207033D01*
X63358795Y-92037295D01*
X63142759Y-91821259D01*
X62973021Y-91567228D01*
X62856104Y-91284964D01*
X62796500Y-90985314D01*
X62796500Y-90679794D01*
X62856104Y-90380144D01*
X62973021Y-90097880D01*
X63142759Y-89843849D01*
X63358795Y-89627813D01*
X63612826Y-89458075D01*
X63895090Y-89341158D01*
X64044915Y-89311356D01*
X64194739Y-89281554D01*
X64500261Y-89281554D01*
X64650085Y-89311356D01*
G37*
G36*
X102750085Y-89311356D02*
G01*
X102899910Y-89341158D01*
X103182174Y-89458075D01*
X103436205Y-89627813D01*
X103652241Y-89843849D01*
X103821979Y-90097880D01*
X103938896Y-90380144D01*
X103998500Y-90679794D01*
X103998500Y-90985314D01*
X103938896Y-91284964D01*
X103821979Y-91567228D01*
X103652241Y-91821259D01*
X103436205Y-92037295D01*
X103182174Y-92207033D01*
X102899910Y-92323950D01*
X102750085Y-92353752D01*
X102600261Y-92383554D01*
X102294739Y-92383554D01*
X102144915Y-92353752D01*
X101995090Y-92323950D01*
X101712826Y-92207033D01*
X101458795Y-92037295D01*
X101242759Y-91821259D01*
X101073021Y-91567228D01*
X100956104Y-91284964D01*
X100896500Y-90985314D01*
X100896500Y-90679794D01*
X100956104Y-90380144D01*
X101073021Y-90097880D01*
X101242759Y-89843849D01*
X101458795Y-89627813D01*
X101712826Y-89458075D01*
X101995090Y-89341158D01*
X102144915Y-89311356D01*
X102294739Y-89281554D01*
X102600261Y-89281554D01*
X102750085Y-89311356D01*
G37*
G36*
X122043598Y-89311356D02*
G01*
X122193423Y-89341158D01*
X122475687Y-89458075D01*
X122729718Y-89627813D01*
X122945754Y-89843849D01*
X123115492Y-90097880D01*
X123232409Y-90380144D01*
X123292013Y-90679794D01*
X123292013Y-90985314D01*
X123232409Y-91284964D01*
X123115492Y-91567228D01*
X122945754Y-91821259D01*
X122729718Y-92037295D01*
X122475687Y-92207033D01*
X122193423Y-92323950D01*
X122043598Y-92353752D01*
X121893774Y-92383554D01*
X121588252Y-92383554D01*
X121438428Y-92353752D01*
X121288603Y-92323950D01*
X121006339Y-92207033D01*
X120752308Y-92037295D01*
X120536272Y-91821259D01*
X120366534Y-91567228D01*
X120249617Y-91284964D01*
X120190013Y-90985314D01*
X120190013Y-90679794D01*
X120249617Y-90380144D01*
X120366534Y-90097880D01*
X120536272Y-89843849D01*
X120752308Y-89627813D01*
X121006339Y-89458075D01*
X121288603Y-89341158D01*
X121438428Y-89311356D01*
X121588252Y-89281554D01*
X121893774Y-89281554D01*
X122043598Y-89311356D01*
G37*
G36*
X83943598Y-89311355D02*
G01*
X84093423Y-89341157D01*
X84375687Y-89458074D01*
X84629718Y-89627812D01*
X84845754Y-89843848D01*
X85015492Y-90097879D01*
X85132409Y-90380143D01*
X85192013Y-90679793D01*
X85192013Y-90985313D01*
X85132409Y-91284963D01*
X85015492Y-91567227D01*
X84845754Y-91821258D01*
X84629718Y-92037294D01*
X84375687Y-92207032D01*
X84093423Y-92323949D01*
X83943598Y-92353751D01*
X83793774Y-92383553D01*
X83488252Y-92383553D01*
X83338428Y-92353751D01*
X83188603Y-92323949D01*
X82906339Y-92207032D01*
X82652308Y-92037294D01*
X82436272Y-91821258D01*
X82266534Y-91567227D01*
X82149617Y-91284963D01*
X82090013Y-90985313D01*
X82090013Y-90679793D01*
X82149617Y-90380143D01*
X82266534Y-90097879D01*
X82436272Y-89843848D01*
X82652308Y-89627812D01*
X82906339Y-89458074D01*
X83188603Y-89341157D01*
X83338428Y-89311355D01*
X83488252Y-89281553D01*
X83793774Y-89281553D01*
X83943598Y-89311355D01*
G37*
G36*
X141093599Y-89311355D02*
G01*
X141243424Y-89341157D01*
X141525688Y-89458074D01*
X141779719Y-89627812D01*
X141995755Y-89843848D01*
X142165493Y-90097879D01*
X142282410Y-90380143D01*
X142342014Y-90679793D01*
X142342014Y-90985313D01*
X142282410Y-91284963D01*
X142165493Y-91567227D01*
X141995755Y-91821258D01*
X141779719Y-92037294D01*
X141525688Y-92207032D01*
X141243424Y-92323949D01*
X141093599Y-92353751D01*
X140943775Y-92383553D01*
X140638253Y-92383553D01*
X140488429Y-92353751D01*
X140338604Y-92323949D01*
X140056340Y-92207032D01*
X139802309Y-92037294D01*
X139586273Y-91821258D01*
X139416535Y-91567227D01*
X139299618Y-91284963D01*
X139240014Y-90985313D01*
X139240014Y-90679793D01*
X139299618Y-90380143D01*
X139416535Y-90097879D01*
X139586273Y-89843848D01*
X139802309Y-89627812D01*
X140056340Y-89458074D01*
X140338604Y-89341157D01*
X140488429Y-89311355D01*
X140638253Y-89281553D01*
X140943775Y-89281553D01*
X141093599Y-89311355D01*
G37*
G36*
X119317013Y-92133554D02*
G01*
X116665013Y-92133554D01*
X116665013Y-89531554D01*
X119317013Y-89531554D01*
X119317013Y-92133554D01*
G37*
G36*
X61923500Y-92133554D02*
G01*
X59271500Y-92133554D01*
X59271500Y-89531554D01*
X61923500Y-89531554D01*
X61923500Y-92133554D01*
G37*
G36*
X100023500Y-92133554D02*
G01*
X97371500Y-92133554D01*
X97371500Y-89531554D01*
X100023500Y-89531554D01*
X100023500Y-92133554D01*
G37*
G36*
X138367014Y-92133553D02*
G01*
X135715014Y-92133553D01*
X135715014Y-89531553D01*
X138367014Y-89531553D01*
X138367014Y-92133553D01*
G37*
G36*
X81217013Y-92133553D02*
G01*
X78565013Y-92133553D01*
X78565013Y-89531553D01*
X81217013Y-89531553D01*
X81217013Y-92133553D01*
G37*
G36*
X109100085Y-86771356D02*
G01*
X109249910Y-86801158D01*
X109532174Y-86918075D01*
X109786205Y-87087813D01*
X110002241Y-87303849D01*
X110171979Y-87557880D01*
X110288896Y-87840144D01*
X110348500Y-88139794D01*
X110348500Y-88445314D01*
X110288896Y-88744964D01*
X110171979Y-89027228D01*
X110002241Y-89281259D01*
X109786205Y-89497295D01*
X109532174Y-89667033D01*
X109249910Y-89783950D01*
X109100085Y-89813752D01*
X108950261Y-89843554D01*
X108644739Y-89843554D01*
X108494915Y-89813752D01*
X108345090Y-89783950D01*
X108062826Y-89667033D01*
X107808795Y-89497295D01*
X107592759Y-89281259D01*
X107423021Y-89027228D01*
X107306104Y-88744964D01*
X107246500Y-88445314D01*
X107246500Y-88139794D01*
X107306104Y-87840144D01*
X107423021Y-87557880D01*
X107592759Y-87303849D01*
X107808795Y-87087813D01*
X108062826Y-86918075D01*
X108345090Y-86801158D01*
X108494915Y-86771356D01*
X108644739Y-86741554D01*
X108950261Y-86741554D01*
X109100085Y-86771356D01*
G37*
G36*
X71000085Y-86771356D02*
G01*
X71149910Y-86801158D01*
X71432174Y-86918075D01*
X71686205Y-87087813D01*
X71902241Y-87303849D01*
X72071979Y-87557880D01*
X72188896Y-87840144D01*
X72248500Y-88139794D01*
X72248500Y-88445314D01*
X72188896Y-88744964D01*
X72071979Y-89027228D01*
X71902241Y-89281259D01*
X71686205Y-89497295D01*
X71432174Y-89667033D01*
X71149910Y-89783950D01*
X71000085Y-89813752D01*
X70850261Y-89843554D01*
X70544739Y-89843554D01*
X70394915Y-89813752D01*
X70245090Y-89783950D01*
X69962826Y-89667033D01*
X69708795Y-89497295D01*
X69492759Y-89281259D01*
X69323021Y-89027228D01*
X69206104Y-88744964D01*
X69146500Y-88445314D01*
X69146500Y-88139794D01*
X69206104Y-87840144D01*
X69323021Y-87557880D01*
X69492759Y-87303849D01*
X69708795Y-87087813D01*
X69962826Y-86918075D01*
X70245090Y-86801158D01*
X70394915Y-86771356D01*
X70544739Y-86741554D01*
X70850261Y-86741554D01*
X71000085Y-86771356D01*
G37*
G36*
X128393598Y-86771356D02*
G01*
X128543423Y-86801158D01*
X128825687Y-86918075D01*
X129079718Y-87087813D01*
X129295754Y-87303849D01*
X129465492Y-87557880D01*
X129582409Y-87840144D01*
X129642013Y-88139794D01*
X129642013Y-88445314D01*
X129582409Y-88744964D01*
X129465492Y-89027228D01*
X129295754Y-89281259D01*
X129079718Y-89497295D01*
X128825687Y-89667033D01*
X128543423Y-89783950D01*
X128393598Y-89813752D01*
X128243774Y-89843554D01*
X127938252Y-89843554D01*
X127788428Y-89813752D01*
X127638603Y-89783950D01*
X127356339Y-89667033D01*
X127102308Y-89497295D01*
X126886272Y-89281259D01*
X126716534Y-89027228D01*
X126599617Y-88744964D01*
X126540013Y-88445314D01*
X126540013Y-88139794D01*
X126599617Y-87840144D01*
X126716534Y-87557880D01*
X126886272Y-87303849D01*
X127102308Y-87087813D01*
X127356339Y-86918075D01*
X127638603Y-86801158D01*
X127788428Y-86771356D01*
X127938252Y-86741554D01*
X128243774Y-86741554D01*
X128393598Y-86771356D01*
G37*
G36*
X90293598Y-86771355D02*
G01*
X90443423Y-86801157D01*
X90725687Y-86918074D01*
X90979718Y-87087812D01*
X91195754Y-87303848D01*
X91365492Y-87557879D01*
X91482409Y-87840143D01*
X91542013Y-88139793D01*
X91542013Y-88445313D01*
X91482409Y-88744963D01*
X91365492Y-89027227D01*
X91195754Y-89281258D01*
X90979718Y-89497294D01*
X90725687Y-89667032D01*
X90443423Y-89783949D01*
X90293598Y-89813751D01*
X90143774Y-89843553D01*
X89838252Y-89843553D01*
X89688428Y-89813751D01*
X89538603Y-89783949D01*
X89256339Y-89667032D01*
X89002308Y-89497294D01*
X88786272Y-89281258D01*
X88616534Y-89027227D01*
X88499617Y-88744963D01*
X88440013Y-88445313D01*
X88440013Y-88139793D01*
X88499617Y-87840143D01*
X88616534Y-87557879D01*
X88786272Y-87303848D01*
X89002308Y-87087812D01*
X89256339Y-86918074D01*
X89538603Y-86801157D01*
X89688428Y-86771355D01*
X89838252Y-86741553D01*
X90143774Y-86741553D01*
X90293598Y-86771355D01*
G37*
G36*
X147443599Y-86771355D02*
G01*
X147593424Y-86801157D01*
X147875688Y-86918074D01*
X148129719Y-87087812D01*
X148345755Y-87303848D01*
X148515493Y-87557879D01*
X148632410Y-87840143D01*
X148692014Y-88139793D01*
X148692014Y-88445313D01*
X148632410Y-88744963D01*
X148515493Y-89027227D01*
X148345755Y-89281258D01*
X148129719Y-89497294D01*
X147875688Y-89667032D01*
X147593424Y-89783949D01*
X147443599Y-89813751D01*
X147293775Y-89843553D01*
X146988253Y-89843553D01*
X146838429Y-89813751D01*
X146688604Y-89783949D01*
X146406340Y-89667032D01*
X146152309Y-89497294D01*
X145936273Y-89281258D01*
X145766535Y-89027227D01*
X145649618Y-88744963D01*
X145590014Y-88445313D01*
X145590014Y-88139793D01*
X145649618Y-87840143D01*
X145766535Y-87557879D01*
X145936273Y-87303848D01*
X146152309Y-87087812D01*
X146406340Y-86918074D01*
X146688604Y-86801157D01*
X146838429Y-86771355D01*
X146988253Y-86741553D01*
X147293775Y-86741553D01*
X147443599Y-86771355D01*
G37*
G36*
X75773500Y-89593554D02*
G01*
X73121500Y-89593554D01*
X73121500Y-86991554D01*
X75773500Y-86991554D01*
X75773500Y-89593554D01*
G37*
G36*
X113873500Y-89593554D02*
G01*
X111221500Y-89593554D01*
X111221500Y-86991554D01*
X113873500Y-86991554D01*
X113873500Y-89593554D01*
G37*
G36*
X133167013Y-89593554D02*
G01*
X130515013Y-89593554D01*
X130515013Y-86991554D01*
X133167013Y-86991554D01*
X133167013Y-89593554D01*
G37*
G36*
X152217014Y-89593553D02*
G01*
X149565014Y-89593553D01*
X149565014Y-86991553D01*
X152217014Y-86991553D01*
X152217014Y-89593553D01*
G37*
G36*
X95067013Y-89593553D02*
G01*
X92415013Y-89593553D01*
X92415013Y-86991553D01*
X95067013Y-86991553D01*
X95067013Y-89593553D01*
G37*
G36*
X105583974Y-83786238D02*
G01*
X105769359Y-83863027D01*
X105956123Y-83940387D01*
X106291048Y-84164177D01*
X106575877Y-84449006D01*
X106799667Y-84783931D01*
X106863517Y-84938080D01*
X106953816Y-85156080D01*
X107032400Y-85551148D01*
X107032400Y-85953960D01*
X106953816Y-86349028D01*
X106869822Y-86551806D01*
X106799667Y-86721177D01*
X106575877Y-87056102D01*
X106291048Y-87340931D01*
X105956123Y-87564721D01*
X105801974Y-87628571D01*
X105583974Y-87718870D01*
X105188906Y-87797454D01*
X104786094Y-87797454D01*
X104391026Y-87718870D01*
X104173026Y-87628571D01*
X104018877Y-87564721D01*
X103683952Y-87340931D01*
X103399123Y-87056102D01*
X103175333Y-86721177D01*
X103105178Y-86551806D01*
X103021184Y-86349028D01*
X102942600Y-85953960D01*
X102942600Y-85551148D01*
X103021184Y-85156080D01*
X103111483Y-84938080D01*
X103175333Y-84783931D01*
X103399123Y-84449006D01*
X103683952Y-84164177D01*
X104018877Y-83940387D01*
X104205641Y-83863027D01*
X104391026Y-83786238D01*
X104786094Y-83707654D01*
X105188906Y-83707654D01*
X105583974Y-83786238D01*
G37*
G36*
X124877487Y-83786238D02*
G01*
X125062872Y-83863027D01*
X125249636Y-83940387D01*
X125584561Y-84164177D01*
X125869390Y-84449006D01*
X126093180Y-84783931D01*
X126157030Y-84938080D01*
X126247329Y-85156080D01*
X126325913Y-85551148D01*
X126325913Y-85953960D01*
X126247329Y-86349028D01*
X126163335Y-86551806D01*
X126093180Y-86721177D01*
X125869390Y-87056102D01*
X125584561Y-87340931D01*
X125249636Y-87564721D01*
X125095487Y-87628571D01*
X124877487Y-87718870D01*
X124482419Y-87797454D01*
X124079607Y-87797454D01*
X123684539Y-87718870D01*
X123466539Y-87628571D01*
X123312390Y-87564721D01*
X122977465Y-87340931D01*
X122692636Y-87056102D01*
X122468846Y-86721177D01*
X122398691Y-86551806D01*
X122314697Y-86349028D01*
X122236113Y-85953960D01*
X122236113Y-85551148D01*
X122314697Y-85156080D01*
X122404996Y-84938080D01*
X122468846Y-84783931D01*
X122692636Y-84449006D01*
X122977465Y-84164177D01*
X123312390Y-83940387D01*
X123499154Y-83863027D01*
X123684539Y-83786238D01*
X124079607Y-83707654D01*
X124482419Y-83707654D01*
X124877487Y-83786238D01*
G37*
G36*
X67483974Y-83786238D02*
G01*
X67669359Y-83863027D01*
X67856123Y-83940387D01*
X68191048Y-84164177D01*
X68475877Y-84449006D01*
X68699667Y-84783931D01*
X68763517Y-84938080D01*
X68853816Y-85156080D01*
X68932400Y-85551148D01*
X68932400Y-85953960D01*
X68853816Y-86349028D01*
X68769822Y-86551806D01*
X68699667Y-86721177D01*
X68475877Y-87056102D01*
X68191048Y-87340931D01*
X67856123Y-87564721D01*
X67701974Y-87628571D01*
X67483974Y-87718870D01*
X67088906Y-87797454D01*
X66686094Y-87797454D01*
X66291026Y-87718870D01*
X66073026Y-87628571D01*
X65918877Y-87564721D01*
X65583952Y-87340931D01*
X65299123Y-87056102D01*
X65075333Y-86721177D01*
X65005178Y-86551806D01*
X64921184Y-86349028D01*
X64842600Y-85953960D01*
X64842600Y-85551148D01*
X64921184Y-85156080D01*
X65011483Y-84938080D01*
X65075333Y-84783931D01*
X65299123Y-84449006D01*
X65583952Y-84164177D01*
X65918877Y-83940387D01*
X66105641Y-83863027D01*
X66291026Y-83786238D01*
X66686094Y-83707654D01*
X67088906Y-83707654D01*
X67483974Y-83786238D01*
G37*
G36*
X143927488Y-83786237D02*
G01*
X144112875Y-83863027D01*
X144299637Y-83940386D01*
X144634562Y-84164176D01*
X144919391Y-84449005D01*
X145143181Y-84783930D01*
X145185175Y-84885313D01*
X145297330Y-85156079D01*
X145375914Y-85551147D01*
X145375914Y-85953959D01*
X145297330Y-86349027D01*
X145254218Y-86453108D01*
X145143181Y-86721176D01*
X144919391Y-87056101D01*
X144634562Y-87340930D01*
X144299637Y-87564720D01*
X144145488Y-87628570D01*
X143927488Y-87718869D01*
X143532420Y-87797453D01*
X143129608Y-87797453D01*
X142734540Y-87718869D01*
X142516540Y-87628570D01*
X142362391Y-87564720D01*
X142027466Y-87340930D01*
X141742637Y-87056101D01*
X141518847Y-86721176D01*
X141407810Y-86453108D01*
X141364698Y-86349027D01*
X141286114Y-85953959D01*
X141286114Y-85551147D01*
X141364698Y-85156079D01*
X141476853Y-84885313D01*
X141518847Y-84783930D01*
X141742637Y-84449005D01*
X142027466Y-84164176D01*
X142362391Y-83940386D01*
X142549153Y-83863027D01*
X142734540Y-83786237D01*
X143129608Y-83707653D01*
X143532420Y-83707653D01*
X143927488Y-83786237D01*
G37*
G36*
X86777487Y-83786237D02*
G01*
X86962874Y-83863027D01*
X87149636Y-83940386D01*
X87484561Y-84164176D01*
X87769390Y-84449005D01*
X87993180Y-84783930D01*
X88035174Y-84885313D01*
X88147329Y-85156079D01*
X88225913Y-85551147D01*
X88225913Y-85953959D01*
X88147329Y-86349027D01*
X88104217Y-86453108D01*
X87993180Y-86721176D01*
X87769390Y-87056101D01*
X87484561Y-87340930D01*
X87149636Y-87564720D01*
X86995487Y-87628570D01*
X86777487Y-87718869D01*
X86382419Y-87797453D01*
X85979607Y-87797453D01*
X85584539Y-87718869D01*
X85366539Y-87628570D01*
X85212390Y-87564720D01*
X84877465Y-87340930D01*
X84592636Y-87056101D01*
X84368846Y-86721176D01*
X84257809Y-86453108D01*
X84214697Y-86349027D01*
X84136113Y-85953959D01*
X84136113Y-85551147D01*
X84214697Y-85156079D01*
X84326852Y-84885313D01*
X84368846Y-84783930D01*
X84592636Y-84449005D01*
X84877465Y-84164176D01*
X85212390Y-83940386D01*
X85399152Y-83863027D01*
X85584539Y-83786237D01*
X85979607Y-83707653D01*
X86382419Y-83707653D01*
X86777487Y-83786237D01*
G37*
G36*
X72143452Y-84867983D02*
G01*
X72230575Y-84885313D01*
X72339998Y-84930638D01*
X72394711Y-84953301D01*
X72541433Y-85051337D01*
X72542428Y-85052002D01*
X72668052Y-85177626D01*
X72668053Y-85177628D01*
X72668054Y-85177629D01*
X72766753Y-85325343D01*
X72766753Y-85325344D01*
X72834741Y-85489479D01*
X72834741Y-85489481D01*
X72869400Y-85663722D01*
X72869400Y-85841383D01*
X72834741Y-86015629D01*
X72789416Y-86125052D01*
X72766753Y-86179765D01*
X72668717Y-86326487D01*
X72668052Y-86327482D01*
X72542428Y-86453106D01*
X72542425Y-86453108D01*
X72394711Y-86551807D01*
X72339998Y-86574470D01*
X72230575Y-86619795D01*
X72143452Y-86637125D01*
X72056331Y-86654454D01*
X71878669Y-86654454D01*
X71791548Y-86637125D01*
X71704425Y-86619795D01*
X71595002Y-86574470D01*
X71540289Y-86551807D01*
X71392575Y-86453108D01*
X71392572Y-86453106D01*
X71266948Y-86327482D01*
X71266283Y-86326487D01*
X71168247Y-86179765D01*
X71145584Y-86125052D01*
X71100259Y-86015629D01*
X71065600Y-85841383D01*
X71065600Y-85663725D01*
X71065601Y-85663722D01*
X71100259Y-85489481D01*
X71100259Y-85489479D01*
X71168247Y-85325344D01*
X71168247Y-85325343D01*
X71266946Y-85177629D01*
X71266947Y-85177628D01*
X71266948Y-85177626D01*
X71392572Y-85052002D01*
X71393567Y-85051337D01*
X71540289Y-84953301D01*
X71595002Y-84930638D01*
X71704425Y-84885313D01*
X71791548Y-84867983D01*
X71878669Y-84850654D01*
X72056331Y-84850654D01*
X72143452Y-84867983D01*
G37*
G36*
X61983452Y-84867983D02*
G01*
X62070575Y-84885313D01*
X62179998Y-84930638D01*
X62234711Y-84953301D01*
X62381433Y-85051337D01*
X62382428Y-85052002D01*
X62508052Y-85177626D01*
X62508053Y-85177628D01*
X62508054Y-85177629D01*
X62606753Y-85325343D01*
X62606753Y-85325344D01*
X62674741Y-85489479D01*
X62674741Y-85489481D01*
X62709400Y-85663722D01*
X62709400Y-85841383D01*
X62674741Y-86015629D01*
X62629416Y-86125052D01*
X62606753Y-86179765D01*
X62508717Y-86326487D01*
X62508052Y-86327482D01*
X62382428Y-86453106D01*
X62382425Y-86453108D01*
X62234711Y-86551807D01*
X62179998Y-86574470D01*
X62070575Y-86619795D01*
X61983452Y-86637125D01*
X61896331Y-86654454D01*
X61718669Y-86654454D01*
X61631548Y-86637125D01*
X61544425Y-86619795D01*
X61435002Y-86574470D01*
X61380289Y-86551807D01*
X61232575Y-86453108D01*
X61232572Y-86453106D01*
X61106948Y-86327482D01*
X61106283Y-86326487D01*
X61008247Y-86179765D01*
X60985584Y-86125052D01*
X60940259Y-86015629D01*
X60905600Y-85841383D01*
X60905600Y-85663725D01*
X60905601Y-85663722D01*
X60940259Y-85489481D01*
X60940259Y-85489479D01*
X61008247Y-85325344D01*
X61008247Y-85325343D01*
X61106946Y-85177629D01*
X61106947Y-85177628D01*
X61106948Y-85177626D01*
X61232572Y-85052002D01*
X61233567Y-85051337D01*
X61380289Y-84953301D01*
X61435002Y-84930638D01*
X61544425Y-84885313D01*
X61631548Y-84867983D01*
X61718669Y-84850654D01*
X61896331Y-84850654D01*
X61983452Y-84867983D01*
G37*
G36*
X100083452Y-84867983D02*
G01*
X100170575Y-84885313D01*
X100279998Y-84930638D01*
X100334711Y-84953301D01*
X100481433Y-85051337D01*
X100482428Y-85052002D01*
X100608052Y-85177626D01*
X100608053Y-85177628D01*
X100608054Y-85177629D01*
X100706753Y-85325343D01*
X100706753Y-85325344D01*
X100774741Y-85489479D01*
X100774741Y-85489481D01*
X100809400Y-85663722D01*
X100809400Y-85841383D01*
X100774741Y-86015629D01*
X100729416Y-86125052D01*
X100706753Y-86179765D01*
X100608717Y-86326487D01*
X100608052Y-86327482D01*
X100482428Y-86453106D01*
X100482425Y-86453108D01*
X100334711Y-86551807D01*
X100279998Y-86574470D01*
X100170575Y-86619795D01*
X100083452Y-86637125D01*
X99996331Y-86654454D01*
X99818669Y-86654454D01*
X99731548Y-86637125D01*
X99644425Y-86619795D01*
X99535002Y-86574470D01*
X99480289Y-86551807D01*
X99332575Y-86453108D01*
X99332572Y-86453106D01*
X99206948Y-86327482D01*
X99206283Y-86326487D01*
X99108247Y-86179765D01*
X99085584Y-86125052D01*
X99040259Y-86015629D01*
X99005600Y-85841383D01*
X99005600Y-85663725D01*
X99005601Y-85663722D01*
X99040259Y-85489481D01*
X99040259Y-85489479D01*
X99108247Y-85325344D01*
X99108247Y-85325343D01*
X99206946Y-85177629D01*
X99206947Y-85177628D01*
X99206948Y-85177626D01*
X99332572Y-85052002D01*
X99333567Y-85051337D01*
X99480289Y-84953301D01*
X99535002Y-84930638D01*
X99644425Y-84885313D01*
X99731548Y-84867983D01*
X99818669Y-84850654D01*
X99996331Y-84850654D01*
X100083452Y-84867983D01*
G37*
G36*
X110243452Y-84867983D02*
G01*
X110330575Y-84885313D01*
X110439998Y-84930638D01*
X110494711Y-84953301D01*
X110641433Y-85051337D01*
X110642428Y-85052002D01*
X110768052Y-85177626D01*
X110768053Y-85177628D01*
X110768054Y-85177629D01*
X110866753Y-85325343D01*
X110866753Y-85325344D01*
X110934741Y-85489479D01*
X110934741Y-85489481D01*
X110969400Y-85663722D01*
X110969400Y-85841383D01*
X110934741Y-86015629D01*
X110889416Y-86125052D01*
X110866753Y-86179765D01*
X110768717Y-86326487D01*
X110768052Y-86327482D01*
X110642428Y-86453106D01*
X110642425Y-86453108D01*
X110494711Y-86551807D01*
X110439998Y-86574470D01*
X110330575Y-86619795D01*
X110243452Y-86637124D01*
X110156331Y-86654454D01*
X109978669Y-86654454D01*
X109891548Y-86637125D01*
X109804425Y-86619795D01*
X109695002Y-86574470D01*
X109640289Y-86551807D01*
X109492575Y-86453108D01*
X109492572Y-86453106D01*
X109366948Y-86327482D01*
X109366283Y-86326487D01*
X109268247Y-86179765D01*
X109245584Y-86125052D01*
X109200259Y-86015629D01*
X109165600Y-85841383D01*
X109165600Y-85663725D01*
X109165601Y-85663722D01*
X109200259Y-85489481D01*
X109200259Y-85489479D01*
X109268247Y-85325344D01*
X109268247Y-85325343D01*
X109366946Y-85177629D01*
X109366947Y-85177628D01*
X109366948Y-85177626D01*
X109492572Y-85052002D01*
X109493567Y-85051337D01*
X109640289Y-84953301D01*
X109695002Y-84930638D01*
X109804425Y-84885313D01*
X109891548Y-84867983D01*
X109978669Y-84850654D01*
X110156331Y-84850654D01*
X110243452Y-84867983D01*
G37*
G36*
X119376965Y-84867983D02*
G01*
X119464088Y-84885313D01*
X119573511Y-84930638D01*
X119628224Y-84953301D01*
X119774946Y-85051337D01*
X119775941Y-85052002D01*
X119901565Y-85177626D01*
X119901566Y-85177628D01*
X119901567Y-85177629D01*
X120000266Y-85325343D01*
X120000266Y-85325344D01*
X120068254Y-85489479D01*
X120068254Y-85489481D01*
X120102913Y-85663722D01*
X120102913Y-85841383D01*
X120068254Y-86015629D01*
X120022929Y-86125052D01*
X120000266Y-86179765D01*
X119902230Y-86326487D01*
X119901565Y-86327482D01*
X119775941Y-86453106D01*
X119775938Y-86453108D01*
X119628224Y-86551807D01*
X119573511Y-86574470D01*
X119464088Y-86619795D01*
X119376965Y-86637124D01*
X119289844Y-86654454D01*
X119112182Y-86654454D01*
X119025061Y-86637125D01*
X118937938Y-86619795D01*
X118828515Y-86574470D01*
X118773802Y-86551807D01*
X118626088Y-86453108D01*
X118626085Y-86453106D01*
X118500461Y-86327482D01*
X118499796Y-86326487D01*
X118401760Y-86179765D01*
X118379097Y-86125052D01*
X118333772Y-86015629D01*
X118299113Y-85841383D01*
X118299113Y-85663725D01*
X118299114Y-85663722D01*
X118333772Y-85489481D01*
X118333772Y-85489479D01*
X118401760Y-85325344D01*
X118401760Y-85325343D01*
X118500459Y-85177629D01*
X118500460Y-85177628D01*
X118500461Y-85177626D01*
X118626085Y-85052002D01*
X118627080Y-85051337D01*
X118773802Y-84953301D01*
X118828515Y-84930638D01*
X118937938Y-84885313D01*
X119025061Y-84867984D01*
X119112182Y-84850654D01*
X119289844Y-84850654D01*
X119376965Y-84867983D01*
G37*
G36*
X129536965Y-84867983D02*
G01*
X129624088Y-84885313D01*
X129733511Y-84930638D01*
X129788224Y-84953301D01*
X129934946Y-85051337D01*
X129935941Y-85052002D01*
X130061565Y-85177626D01*
X130061566Y-85177628D01*
X130061567Y-85177629D01*
X130160266Y-85325343D01*
X130160266Y-85325344D01*
X130228254Y-85489479D01*
X130228254Y-85489481D01*
X130262913Y-85663722D01*
X130262913Y-85841383D01*
X130228254Y-86015629D01*
X130182929Y-86125052D01*
X130160266Y-86179765D01*
X130062230Y-86326487D01*
X130061565Y-86327482D01*
X129935941Y-86453106D01*
X129935938Y-86453108D01*
X129788224Y-86551807D01*
X129733511Y-86574470D01*
X129624088Y-86619795D01*
X129536965Y-86637124D01*
X129449844Y-86654454D01*
X129272182Y-86654454D01*
X129185061Y-86637125D01*
X129097938Y-86619795D01*
X128988515Y-86574470D01*
X128933802Y-86551807D01*
X128786088Y-86453108D01*
X128786085Y-86453106D01*
X128660461Y-86327482D01*
X128659796Y-86326487D01*
X128561760Y-86179765D01*
X128539097Y-86125052D01*
X128493772Y-86015629D01*
X128459113Y-85841383D01*
X128459113Y-85663725D01*
X128459114Y-85663722D01*
X128493772Y-85489481D01*
X128493772Y-85489479D01*
X128561760Y-85325344D01*
X128561760Y-85325343D01*
X128660459Y-85177629D01*
X128660460Y-85177628D01*
X128660461Y-85177626D01*
X128786085Y-85052002D01*
X128787080Y-85051337D01*
X128933802Y-84953301D01*
X128988515Y-84930638D01*
X129097938Y-84885313D01*
X129185061Y-84867984D01*
X129272182Y-84850654D01*
X129449844Y-84850654D01*
X129536965Y-84867983D01*
G37*
G36*
X148586966Y-84867982D02*
G01*
X148674089Y-84885312D01*
X148783512Y-84930637D01*
X148838225Y-84953300D01*
X148984947Y-85051336D01*
X148985942Y-85052001D01*
X149111566Y-85177625D01*
X149111568Y-85177628D01*
X149210267Y-85325342D01*
X149232930Y-85380055D01*
X149278255Y-85489478D01*
X149290521Y-85551147D01*
X149312914Y-85663722D01*
X149312914Y-85841384D01*
X149295584Y-85928505D01*
X149278255Y-86015628D01*
X149232930Y-86125051D01*
X149210267Y-86179764D01*
X149210266Y-86179765D01*
X149111566Y-86327481D01*
X148985942Y-86453105D01*
X148985939Y-86453107D01*
X148838225Y-86551806D01*
X148783512Y-86574469D01*
X148674089Y-86619794D01*
X148586966Y-86637124D01*
X148499845Y-86654453D01*
X148322183Y-86654453D01*
X148235062Y-86637124D01*
X148147939Y-86619794D01*
X148038516Y-86574469D01*
X147983803Y-86551806D01*
X147836089Y-86453107D01*
X147836086Y-86453105D01*
X147710462Y-86327481D01*
X147611762Y-86179765D01*
X147611761Y-86179764D01*
X147589098Y-86125051D01*
X147543773Y-86015628D01*
X147526443Y-85928505D01*
X147509114Y-85841384D01*
X147509114Y-85663722D01*
X147531507Y-85551147D01*
X147543773Y-85489478D01*
X147589098Y-85380055D01*
X147611761Y-85325342D01*
X147710460Y-85177628D01*
X147710462Y-85177625D01*
X147836086Y-85052001D01*
X147837081Y-85051336D01*
X147983803Y-84953300D01*
X148038516Y-84930637D01*
X148147939Y-84885312D01*
X148235062Y-84867982D01*
X148322183Y-84850653D01*
X148499845Y-84850653D01*
X148586966Y-84867982D01*
G37*
G36*
X91436965Y-84867982D02*
G01*
X91524088Y-84885312D01*
X91633511Y-84930637D01*
X91688224Y-84953300D01*
X91834946Y-85051336D01*
X91835941Y-85052001D01*
X91961565Y-85177625D01*
X91961567Y-85177628D01*
X92060266Y-85325342D01*
X92082929Y-85380055D01*
X92128254Y-85489478D01*
X92140520Y-85551147D01*
X92162913Y-85663722D01*
X92162913Y-85841384D01*
X92145584Y-85928505D01*
X92128254Y-86015628D01*
X92082929Y-86125051D01*
X92060266Y-86179764D01*
X92060265Y-86179765D01*
X91961565Y-86327481D01*
X91835941Y-86453105D01*
X91835938Y-86453107D01*
X91688224Y-86551806D01*
X91633511Y-86574469D01*
X91524088Y-86619794D01*
X91436965Y-86637124D01*
X91349844Y-86654453D01*
X91172182Y-86654453D01*
X91085061Y-86637124D01*
X90997938Y-86619794D01*
X90888515Y-86574469D01*
X90833802Y-86551806D01*
X90686088Y-86453107D01*
X90686085Y-86453105D01*
X90560461Y-86327481D01*
X90461761Y-86179765D01*
X90461760Y-86179764D01*
X90439097Y-86125051D01*
X90393772Y-86015628D01*
X90376442Y-85928505D01*
X90359113Y-85841384D01*
X90359113Y-85663722D01*
X90381506Y-85551147D01*
X90393772Y-85489478D01*
X90439097Y-85380055D01*
X90461760Y-85325342D01*
X90560459Y-85177628D01*
X90560461Y-85177625D01*
X90686085Y-85052001D01*
X90687080Y-85051336D01*
X90833802Y-84953300D01*
X90888515Y-84930637D01*
X90997938Y-84885312D01*
X91085061Y-84867982D01*
X91172182Y-84850653D01*
X91349844Y-84850653D01*
X91436965Y-84867982D01*
G37*
G36*
X81276965Y-84867982D02*
G01*
X81364088Y-84885312D01*
X81473511Y-84930637D01*
X81528224Y-84953300D01*
X81674946Y-85051336D01*
X81675941Y-85052001D01*
X81801565Y-85177625D01*
X81801567Y-85177628D01*
X81900266Y-85325342D01*
X81922929Y-85380055D01*
X81968254Y-85489478D01*
X81980520Y-85551147D01*
X82002913Y-85663722D01*
X82002913Y-85841384D01*
X81985584Y-85928505D01*
X81968254Y-86015628D01*
X81922929Y-86125051D01*
X81900266Y-86179764D01*
X81900265Y-86179765D01*
X81801565Y-86327481D01*
X81675941Y-86453105D01*
X81675938Y-86453107D01*
X81528224Y-86551806D01*
X81473511Y-86574469D01*
X81364088Y-86619794D01*
X81276965Y-86637124D01*
X81189844Y-86654453D01*
X81012182Y-86654453D01*
X80925061Y-86637124D01*
X80837938Y-86619794D01*
X80728515Y-86574469D01*
X80673802Y-86551806D01*
X80526088Y-86453107D01*
X80526085Y-86453105D01*
X80400461Y-86327481D01*
X80301761Y-86179765D01*
X80301760Y-86179764D01*
X80279097Y-86125051D01*
X80233772Y-86015628D01*
X80216442Y-85928505D01*
X80199113Y-85841384D01*
X80199113Y-85663722D01*
X80221506Y-85551147D01*
X80233772Y-85489478D01*
X80279097Y-85380055D01*
X80301760Y-85325342D01*
X80400459Y-85177628D01*
X80400461Y-85177625D01*
X80526085Y-85052001D01*
X80527080Y-85051336D01*
X80673802Y-84953300D01*
X80728515Y-84930637D01*
X80837938Y-84885312D01*
X80925061Y-84867982D01*
X81012182Y-84850653D01*
X81189844Y-84850653D01*
X81276965Y-84867982D01*
G37*
G36*
X138426966Y-84867982D02*
G01*
X138514089Y-84885312D01*
X138623512Y-84930637D01*
X138678225Y-84953300D01*
X138824947Y-85051336D01*
X138825942Y-85052001D01*
X138951566Y-85177625D01*
X138951568Y-85177628D01*
X139050267Y-85325342D01*
X139072930Y-85380055D01*
X139118255Y-85489478D01*
X139130521Y-85551147D01*
X139152914Y-85663722D01*
X139152914Y-85841384D01*
X139135584Y-85928505D01*
X139118255Y-86015628D01*
X139072930Y-86125051D01*
X139050267Y-86179764D01*
X139050266Y-86179765D01*
X138951566Y-86327481D01*
X138825942Y-86453105D01*
X138825939Y-86453107D01*
X138678225Y-86551806D01*
X138623512Y-86574469D01*
X138514089Y-86619794D01*
X138426966Y-86637124D01*
X138339845Y-86654453D01*
X138162183Y-86654453D01*
X138075062Y-86637124D01*
X137987939Y-86619794D01*
X137878516Y-86574469D01*
X137823803Y-86551806D01*
X137676089Y-86453107D01*
X137676086Y-86453105D01*
X137550462Y-86327481D01*
X137451762Y-86179765D01*
X137451761Y-86179764D01*
X137429098Y-86125051D01*
X137383773Y-86015628D01*
X137366443Y-85928505D01*
X137349114Y-85841384D01*
X137349114Y-85663722D01*
X137371507Y-85551147D01*
X137383773Y-85489478D01*
X137429098Y-85380055D01*
X137451761Y-85325342D01*
X137550460Y-85177628D01*
X137550462Y-85177625D01*
X137676086Y-85052001D01*
X137677081Y-85051336D01*
X137823803Y-84953300D01*
X137878516Y-84930637D01*
X137987939Y-84885312D01*
X138075062Y-84867982D01*
X138162183Y-84850653D01*
X138339845Y-84850653D01*
X138426966Y-84867982D01*
G37*
G36*
X96501000Y-85200999D02*
G01*
X94899000Y-85200999D01*
X94899000Y-83598999D01*
X96501000Y-83598999D01*
X96501000Y-85200999D01*
G37*
G36*
X149528015Y-74136973D02*
G01*
X149631879Y-74168479D01*
X149659055Y-74183005D01*
X149727600Y-74219643D01*
X149811501Y-74288499D01*
X149880357Y-74372400D01*
X149916995Y-74440945D01*
X149931521Y-74468121D01*
X149963027Y-74571985D01*
X149973666Y-74680000D01*
X149963027Y-74788015D01*
X149931521Y-74891879D01*
X149931519Y-74891882D01*
X149880357Y-74987600D01*
X149811501Y-75071501D01*
X149727600Y-75140357D01*
X149677967Y-75166886D01*
X149631879Y-75191521D01*
X149528015Y-75223027D01*
X149447067Y-75231000D01*
X148855999Y-75231000D01*
X148831613Y-75233402D01*
X148808164Y-75240515D01*
X148786553Y-75252066D01*
X148767611Y-75267611D01*
X148752066Y-75286553D01*
X148740515Y-75308164D01*
X148733402Y-75331613D01*
X148731000Y-75355999D01*
X148731000Y-82644001D01*
X148733402Y-82668387D01*
X148740515Y-82691836D01*
X148752066Y-82713447D01*
X148767611Y-82732389D01*
X148786553Y-82747934D01*
X148808164Y-82759485D01*
X148831613Y-82766598D01*
X148855999Y-82769000D01*
X149447067Y-82769000D01*
X149528015Y-82776973D01*
X149631879Y-82808479D01*
X149646159Y-82816112D01*
X149727600Y-82859643D01*
X149811501Y-82928499D01*
X149880357Y-83012400D01*
X149902266Y-83053390D01*
X149931521Y-83108121D01*
X149963027Y-83211985D01*
X149973666Y-83320000D01*
X149963027Y-83428015D01*
X149931521Y-83531879D01*
X149931519Y-83531882D01*
X149880357Y-83627600D01*
X149811501Y-83711501D01*
X149727600Y-83780357D01*
X149659055Y-83816995D01*
X149631879Y-83831521D01*
X149528015Y-83863027D01*
X149447067Y-83871000D01*
X148292933Y-83871000D01*
X148211985Y-83863027D01*
X148108121Y-83831521D01*
X148080945Y-83816995D01*
X148012400Y-83780357D01*
X147928499Y-83711501D01*
X147859643Y-83627600D01*
X147808481Y-83531882D01*
X147808479Y-83531879D01*
X147776973Y-83428015D01*
X147766334Y-83320000D01*
X147776973Y-83211985D01*
X147808479Y-83108121D01*
X147837734Y-83053390D01*
X147859643Y-83012400D01*
X147928499Y-82928499D01*
X147961477Y-82901435D01*
X148012400Y-82859644D01*
X148056193Y-82836236D01*
X148076563Y-82822625D01*
X148093890Y-82805298D01*
X148107504Y-82784924D01*
X148116881Y-82762285D01*
X148121662Y-82738252D01*
X148121662Y-82713748D01*
X148116882Y-82689714D01*
X148107505Y-82667076D01*
X148093891Y-82646701D01*
X148076564Y-82629374D01*
X148056190Y-82615760D01*
X148033551Y-82606383D01*
X148009518Y-82601602D01*
X147997265Y-82601000D01*
X147179000Y-82601000D01*
X147179000Y-75399000D01*
X147997265Y-75399000D01*
X148021651Y-75396598D01*
X148045100Y-75389485D01*
X148066711Y-75377934D01*
X148085653Y-75362389D01*
X148101198Y-75343447D01*
X148112749Y-75321836D01*
X148119862Y-75298387D01*
X148122264Y-75274001D01*
X148119862Y-75249615D01*
X148112749Y-75226166D01*
X148101198Y-75204555D01*
X148085653Y-75185613D01*
X148066711Y-75170068D01*
X148056198Y-75163767D01*
X148012400Y-75140356D01*
X147928499Y-75071501D01*
X147910047Y-75049017D01*
X147859643Y-74987600D01*
X147808481Y-74891882D01*
X147808479Y-74891879D01*
X147776973Y-74788015D01*
X147766334Y-74680000D01*
X147776973Y-74571985D01*
X147808479Y-74468121D01*
X147823005Y-74440945D01*
X147859643Y-74372400D01*
X147928499Y-74288499D01*
X148012400Y-74219643D01*
X148080945Y-74183005D01*
X148108121Y-74168479D01*
X148211985Y-74136973D01*
X148292933Y-74129000D01*
X149447067Y-74129000D01*
X149528015Y-74136973D01*
G37*
G36*
X153458015Y-82776973D02*
G01*
X153561879Y-82808479D01*
X153576159Y-82816112D01*
X153657600Y-82859643D01*
X153741501Y-82928499D01*
X153810357Y-83012400D01*
X153832266Y-83053390D01*
X153861521Y-83108121D01*
X153893027Y-83211985D01*
X153903666Y-83320000D01*
X153893027Y-83428015D01*
X153861521Y-83531879D01*
X153861519Y-83531882D01*
X153810357Y-83627600D01*
X153741501Y-83711501D01*
X153657600Y-83780357D01*
X153589055Y-83816995D01*
X153561879Y-83831521D01*
X153458015Y-83863027D01*
X153377067Y-83871000D01*
X152722933Y-83871000D01*
X152641985Y-83863027D01*
X152538121Y-83831521D01*
X152510945Y-83816995D01*
X152442400Y-83780357D01*
X152358499Y-83711501D01*
X152289643Y-83627600D01*
X152238481Y-83531882D01*
X152238479Y-83531879D01*
X152206973Y-83428015D01*
X152196334Y-83320000D01*
X152206973Y-83211985D01*
X152238479Y-83108121D01*
X152267734Y-83053390D01*
X152289643Y-83012400D01*
X152358499Y-82928499D01*
X152442400Y-82859643D01*
X152523841Y-82816112D01*
X152538121Y-82808479D01*
X152641985Y-82776973D01*
X152722933Y-82769000D01*
X153377067Y-82769000D01*
X153458015Y-82776973D01*
G37*
G36*
X140264499Y-82778445D02*
G01*
X140301995Y-82789820D01*
X140336554Y-82808292D01*
X140366847Y-82833153D01*
X140391708Y-82863446D01*
X140410180Y-82898005D01*
X140421555Y-82935501D01*
X140426000Y-82980638D01*
X140426000Y-83619362D01*
X140421555Y-83664499D01*
X140410180Y-83701995D01*
X140391708Y-83736554D01*
X140366847Y-83766847D01*
X140336554Y-83791708D01*
X140301995Y-83810180D01*
X140264499Y-83821555D01*
X140219362Y-83826000D01*
X139480638Y-83826000D01*
X139435501Y-83821555D01*
X139398005Y-83810180D01*
X139363446Y-83791708D01*
X139333153Y-83766847D01*
X139308292Y-83736554D01*
X139289820Y-83701995D01*
X139278445Y-83664499D01*
X139274000Y-83619362D01*
X139274000Y-82980638D01*
X139278445Y-82935501D01*
X139289820Y-82898005D01*
X139308292Y-82863446D01*
X139333153Y-82833153D01*
X139363446Y-82808292D01*
X139398005Y-82789820D01*
X139435501Y-82778445D01*
X139480638Y-82774000D01*
X140219362Y-82774000D01*
X140264499Y-82778445D01*
G37*
G36*
X138514499Y-82778445D02*
G01*
X138551995Y-82789820D01*
X138586554Y-82808292D01*
X138616847Y-82833153D01*
X138641708Y-82863446D01*
X138660180Y-82898005D01*
X138671555Y-82935501D01*
X138676000Y-82980638D01*
X138676000Y-83619362D01*
X138671555Y-83664499D01*
X138660180Y-83701995D01*
X138641708Y-83736554D01*
X138616847Y-83766847D01*
X138586554Y-83791708D01*
X138551995Y-83810180D01*
X138514499Y-83821555D01*
X138469362Y-83826000D01*
X137730638Y-83826000D01*
X137685501Y-83821555D01*
X137648005Y-83810180D01*
X137613446Y-83791708D01*
X137583153Y-83766847D01*
X137558292Y-83736554D01*
X137539820Y-83701995D01*
X137528445Y-83664499D01*
X137524000Y-83619362D01*
X137524000Y-82980638D01*
X137528445Y-82935501D01*
X137539820Y-82898005D01*
X137558292Y-82863446D01*
X137583153Y-82833153D01*
X137613446Y-82808292D01*
X137648005Y-82789820D01*
X137685501Y-82778445D01*
X137730638Y-82774000D01*
X138469362Y-82774000D01*
X138514499Y-82778445D01*
G37*
G36*
X136614500Y-82778445D02*
G01*
X136651996Y-82789820D01*
X136686555Y-82808292D01*
X136716848Y-82833153D01*
X136741709Y-82863446D01*
X136760181Y-82898005D01*
X136771556Y-82935501D01*
X136776001Y-82980638D01*
X136776001Y-83619362D01*
X136771556Y-83664499D01*
X136760181Y-83701995D01*
X136741709Y-83736554D01*
X136716848Y-83766847D01*
X136686555Y-83791708D01*
X136651996Y-83810180D01*
X136614500Y-83821555D01*
X136569363Y-83826000D01*
X135830639Y-83826000D01*
X135785502Y-83821555D01*
X135748006Y-83810180D01*
X135713447Y-83791708D01*
X135683154Y-83766847D01*
X135658293Y-83736554D01*
X135639821Y-83701995D01*
X135628446Y-83664499D01*
X135624001Y-83619362D01*
X135624001Y-82980638D01*
X135628446Y-82935501D01*
X135639821Y-82898005D01*
X135658293Y-82863446D01*
X135683154Y-82833153D01*
X135713447Y-82808292D01*
X135748006Y-82789820D01*
X135785502Y-82778445D01*
X135830639Y-82774000D01*
X136569363Y-82774000D01*
X136614500Y-82778445D01*
G37*
G36*
X134864500Y-82778445D02*
G01*
X134901996Y-82789820D01*
X134936555Y-82808292D01*
X134966848Y-82833153D01*
X134991709Y-82863446D01*
X135010181Y-82898005D01*
X135021556Y-82935501D01*
X135026001Y-82980638D01*
X135026001Y-83619362D01*
X135021556Y-83664499D01*
X135010181Y-83701995D01*
X134991709Y-83736554D01*
X134966848Y-83766847D01*
X134936555Y-83791708D01*
X134901996Y-83810180D01*
X134864500Y-83821555D01*
X134819363Y-83826000D01*
X134080639Y-83826000D01*
X134035502Y-83821555D01*
X133998006Y-83810180D01*
X133963447Y-83791708D01*
X133933154Y-83766847D01*
X133908293Y-83736554D01*
X133889821Y-83701995D01*
X133878446Y-83664499D01*
X133874001Y-83619362D01*
X133874001Y-82980638D01*
X133878446Y-82935501D01*
X133889821Y-82898005D01*
X133908293Y-82863446D01*
X133933154Y-82833153D01*
X133963447Y-82808292D01*
X133998006Y-82789820D01*
X134035502Y-82778445D01*
X134080639Y-82774000D01*
X134819363Y-82774000D01*
X134864500Y-82778445D01*
G37*
G36*
X127941080Y-82345699D02*
G01*
X127978576Y-82357074D01*
X128013135Y-82375546D01*
X128048199Y-82404322D01*
X128570550Y-82926673D01*
X128599326Y-82961737D01*
X128617798Y-82996296D01*
X128629173Y-83033792D01*
X128633013Y-83072791D01*
X128629173Y-83111790D01*
X128617798Y-83149286D01*
X128599326Y-83183845D01*
X128570550Y-83218909D01*
X128118909Y-83670550D01*
X128083845Y-83699326D01*
X128049286Y-83717798D01*
X128011790Y-83729173D01*
X127972791Y-83733013D01*
X127933792Y-83729173D01*
X127896296Y-83717798D01*
X127861737Y-83699326D01*
X127826673Y-83670550D01*
X127304322Y-83148199D01*
X127275546Y-83113135D01*
X127257074Y-83078576D01*
X127245699Y-83041080D01*
X127241859Y-83002081D01*
X127245699Y-82963082D01*
X127257074Y-82925586D01*
X127275546Y-82891027D01*
X127304322Y-82855963D01*
X127755963Y-82404322D01*
X127791027Y-82375546D01*
X127825586Y-82357074D01*
X127863082Y-82345699D01*
X127902081Y-82341859D01*
X127941080Y-82345699D01*
G37*
G36*
X57276000Y-77676000D02*
G01*
X57250940Y-77676000D01*
X57226554Y-77678402D01*
X57203105Y-77685515D01*
X57181494Y-77697066D01*
X57162552Y-77712611D01*
X57147007Y-77731553D01*
X57135456Y-77753164D01*
X57128343Y-77776613D01*
X57125941Y-77800999D01*
X57128343Y-77825385D01*
X57135456Y-77848834D01*
X57147007Y-77870445D01*
X57162552Y-77889387D01*
X57169733Y-77896568D01*
X57221826Y-77974530D01*
X57231158Y-77997060D01*
X57257708Y-78061157D01*
X57276000Y-78153117D01*
X57276000Y-78246883D01*
X57257708Y-78338843D01*
X57239586Y-78382593D01*
X57221826Y-78425470D01*
X57198546Y-78460310D01*
X57169733Y-78503432D01*
X57103430Y-78569735D01*
X57064021Y-78596067D01*
X57045079Y-78611612D01*
X57029534Y-78630554D01*
X57017982Y-78652164D01*
X57010869Y-78675613D01*
X57008467Y-78699999D01*
X57010869Y-78724385D01*
X57017982Y-78747834D01*
X57029533Y-78769445D01*
X57045078Y-78788387D01*
X57064021Y-78803933D01*
X57103430Y-78830265D01*
X57169733Y-78896568D01*
X57221826Y-78974530D01*
X57236689Y-79010412D01*
X57257708Y-79061157D01*
X57276000Y-79153117D01*
X57276000Y-79246883D01*
X57257708Y-79338843D01*
X57247517Y-79363446D01*
X57221826Y-79425470D01*
X57181587Y-79485691D01*
X57169733Y-79503432D01*
X57103430Y-79569735D01*
X57064021Y-79596067D01*
X57045079Y-79611612D01*
X57029534Y-79630554D01*
X57017982Y-79652164D01*
X57010869Y-79675613D01*
X57008467Y-79699999D01*
X57010869Y-79724385D01*
X57017982Y-79747834D01*
X57029533Y-79769445D01*
X57045078Y-79788387D01*
X57064021Y-79803933D01*
X57103430Y-79830265D01*
X57169733Y-79896568D01*
X57221826Y-79974530D01*
X57233035Y-80001592D01*
X57257708Y-80061157D01*
X57276000Y-80153117D01*
X57276000Y-80246883D01*
X57257708Y-80338843D01*
X57248963Y-80359954D01*
X57221826Y-80425470D01*
X57193981Y-80467142D01*
X57169733Y-80503432D01*
X57103430Y-80569735D01*
X57064021Y-80596067D01*
X57045079Y-80611612D01*
X57029534Y-80630554D01*
X57017982Y-80652164D01*
X57010869Y-80675613D01*
X57008467Y-80699999D01*
X57010869Y-80724385D01*
X57017982Y-80747834D01*
X57029533Y-80769445D01*
X57045078Y-80788387D01*
X57064021Y-80803933D01*
X57103430Y-80830265D01*
X57169733Y-80896568D01*
X57221826Y-80974530D01*
X57236689Y-81010412D01*
X57257708Y-81061157D01*
X57276000Y-81153117D01*
X57276000Y-81246883D01*
X57257708Y-81338843D01*
X57241226Y-81378633D01*
X57221826Y-81425470D01*
X57169733Y-81503432D01*
X57103430Y-81569735D01*
X57064021Y-81596067D01*
X57045079Y-81611612D01*
X57029534Y-81630554D01*
X57017982Y-81652164D01*
X57010869Y-81675613D01*
X57008467Y-81699999D01*
X57010869Y-81724385D01*
X57017982Y-81747834D01*
X57029533Y-81769445D01*
X57045078Y-81788387D01*
X57064021Y-81803933D01*
X57103430Y-81830265D01*
X57169733Y-81896568D01*
X57221826Y-81974530D01*
X57232240Y-81999672D01*
X57257708Y-82061157D01*
X57276000Y-82153117D01*
X57276000Y-82246883D01*
X57257708Y-82338843D01*
X57254868Y-82345699D01*
X57221826Y-82425470D01*
X57169733Y-82503432D01*
X57103432Y-82569733D01*
X57025470Y-82621826D01*
X57007247Y-82629374D01*
X56938843Y-82657708D01*
X56846883Y-82676000D01*
X56753117Y-82676000D01*
X56661157Y-82657708D01*
X56592753Y-82629374D01*
X56574530Y-82621826D01*
X56496568Y-82569733D01*
X56430267Y-82503432D01*
X56378174Y-82425470D01*
X56345132Y-82345699D01*
X56342292Y-82338843D01*
X56324000Y-82246883D01*
X56324000Y-82153117D01*
X56342292Y-82061157D01*
X56367760Y-81999672D01*
X56378174Y-81974530D01*
X56430267Y-81896568D01*
X56496570Y-81830265D01*
X56535979Y-81803933D01*
X56554921Y-81788388D01*
X56570466Y-81769446D01*
X56582018Y-81747836D01*
X56589131Y-81724387D01*
X56591533Y-81700001D01*
X56589131Y-81675615D01*
X56582018Y-81652166D01*
X56570467Y-81630555D01*
X56554922Y-81611613D01*
X56535979Y-81596067D01*
X56496570Y-81569735D01*
X56430267Y-81503432D01*
X56378174Y-81425470D01*
X56358774Y-81378633D01*
X56342292Y-81338843D01*
X56324000Y-81246883D01*
X56324000Y-81153117D01*
X56342292Y-81061157D01*
X56363311Y-81010412D01*
X56378174Y-80974530D01*
X56430267Y-80896568D01*
X56496570Y-80830265D01*
X56535979Y-80803933D01*
X56554921Y-80788388D01*
X56570466Y-80769446D01*
X56582018Y-80747836D01*
X56589131Y-80724387D01*
X56591533Y-80700001D01*
X56589131Y-80675615D01*
X56582018Y-80652166D01*
X56570467Y-80630555D01*
X56554922Y-80611613D01*
X56535979Y-80596067D01*
X56496570Y-80569735D01*
X56430267Y-80503432D01*
X56406019Y-80467142D01*
X56378174Y-80425470D01*
X56351037Y-80359954D01*
X56342292Y-80338843D01*
X56324000Y-80246883D01*
X56324000Y-80153117D01*
X56342292Y-80061157D01*
X56366965Y-80001592D01*
X56378174Y-79974530D01*
X56430267Y-79896568D01*
X56496570Y-79830265D01*
X56535979Y-79803933D01*
X56554921Y-79788388D01*
X56570466Y-79769446D01*
X56582018Y-79747836D01*
X56589131Y-79724387D01*
X56591533Y-79700001D01*
X56589131Y-79675615D01*
X56582018Y-79652166D01*
X56570467Y-79630555D01*
X56554922Y-79611613D01*
X56535979Y-79596067D01*
X56496570Y-79569735D01*
X56430267Y-79503432D01*
X56418413Y-79485691D01*
X56378174Y-79425470D01*
X56352483Y-79363446D01*
X56342292Y-79338843D01*
X56324000Y-79246883D01*
X56324000Y-79153117D01*
X56342292Y-79061157D01*
X56363311Y-79010412D01*
X56378174Y-78974530D01*
X56430267Y-78896568D01*
X56496570Y-78830265D01*
X56535979Y-78803933D01*
X56554921Y-78788388D01*
X56570466Y-78769446D01*
X56582018Y-78747836D01*
X56589131Y-78724387D01*
X56591533Y-78700001D01*
X56589131Y-78675615D01*
X56582018Y-78652166D01*
X56570467Y-78630555D01*
X56554922Y-78611613D01*
X56535979Y-78596067D01*
X56496570Y-78569735D01*
X56430267Y-78503432D01*
X56401454Y-78460310D01*
X56378174Y-78425470D01*
X56360414Y-78382593D01*
X56342292Y-78338843D01*
X56324000Y-78246883D01*
X56324000Y-78153117D01*
X56342292Y-78061157D01*
X56368842Y-77997060D01*
X56378174Y-77974530D01*
X56430267Y-77896568D01*
X56437448Y-77889387D01*
X56452993Y-77870445D01*
X56464544Y-77848834D01*
X56471657Y-77825385D01*
X56474059Y-77800999D01*
X56471657Y-77776613D01*
X56464544Y-77753164D01*
X56452993Y-77731553D01*
X56437448Y-77712611D01*
X56418506Y-77697066D01*
X56396895Y-77685515D01*
X56373446Y-77678402D01*
X56349060Y-77676000D01*
X56324000Y-77676000D01*
X56324000Y-76724000D01*
X57276000Y-76724000D01*
X57276000Y-77676000D01*
G37*
G36*
X126703644Y-81108263D02*
G01*
X126741140Y-81119638D01*
X126775699Y-81138110D01*
X126810763Y-81166886D01*
X127333114Y-81689237D01*
X127361890Y-81724301D01*
X127380362Y-81758860D01*
X127391737Y-81796356D01*
X127395577Y-81835355D01*
X127391737Y-81874354D01*
X127380362Y-81911850D01*
X127361890Y-81946409D01*
X127333114Y-81981473D01*
X126881473Y-82433114D01*
X126846409Y-82461890D01*
X126811850Y-82480362D01*
X126774354Y-82491737D01*
X126735355Y-82495577D01*
X126696356Y-82491737D01*
X126658860Y-82480362D01*
X126624301Y-82461890D01*
X126589237Y-82433114D01*
X126066886Y-81910763D01*
X126038110Y-81875699D01*
X126019638Y-81841140D01*
X126008263Y-81803644D01*
X126004423Y-81764645D01*
X126008263Y-81725646D01*
X126019638Y-81688150D01*
X126038110Y-81653591D01*
X126066886Y-81618527D01*
X126518527Y-81166886D01*
X126553591Y-81138110D01*
X126588150Y-81119638D01*
X126625646Y-81108263D01*
X126664645Y-81104423D01*
X126703644Y-81108263D01*
G37*
G36*
X149509672Y-81528449D02*
G01*
X149509674Y-81528450D01*
X149509675Y-81528450D01*
X149578103Y-81556793D01*
X149639686Y-81597942D01*
X149692058Y-81650314D01*
X149733207Y-81711897D01*
X149755055Y-81764645D01*
X149761551Y-81780328D01*
X149776000Y-81852966D01*
X149776000Y-81927034D01*
X149765172Y-81981470D01*
X149761550Y-81999675D01*
X149733207Y-82068103D01*
X149692058Y-82129686D01*
X149639686Y-82182058D01*
X149578103Y-82223207D01*
X149509675Y-82251550D01*
X149509674Y-82251550D01*
X149509672Y-82251551D01*
X149437034Y-82266000D01*
X149362966Y-82266000D01*
X149290328Y-82251551D01*
X149290326Y-82251550D01*
X149290325Y-82251550D01*
X149221897Y-82223207D01*
X149160314Y-82182058D01*
X149107942Y-82129686D01*
X149066793Y-82068103D01*
X149038450Y-81999675D01*
X149034829Y-81981470D01*
X149024000Y-81927034D01*
X149024000Y-81852966D01*
X149038449Y-81780328D01*
X149044945Y-81764645D01*
X149066793Y-81711897D01*
X149107942Y-81650314D01*
X149160314Y-81597942D01*
X149221897Y-81556793D01*
X149290325Y-81528450D01*
X149290326Y-81528450D01*
X149290328Y-81528449D01*
X149362966Y-81514000D01*
X149437034Y-81514000D01*
X149509672Y-81528449D01*
G37*
G36*
X143214499Y-80878445D02*
G01*
X143251995Y-80889820D01*
X143286554Y-80908292D01*
X143316847Y-80933153D01*
X143341708Y-80963446D01*
X143360180Y-80998005D01*
X143371555Y-81035501D01*
X143376000Y-81080638D01*
X143376000Y-81719362D01*
X143371555Y-81764499D01*
X143360180Y-81801995D01*
X143341708Y-81836554D01*
X143316847Y-81866847D01*
X143286554Y-81891708D01*
X143251995Y-81910180D01*
X143214499Y-81921555D01*
X143169362Y-81926000D01*
X142430638Y-81926000D01*
X142385501Y-81921555D01*
X142348005Y-81910180D01*
X142313446Y-81891708D01*
X142283153Y-81866847D01*
X142258292Y-81836554D01*
X142239820Y-81801995D01*
X142228445Y-81764499D01*
X142224000Y-81719362D01*
X142224000Y-81080638D01*
X142228445Y-81035501D01*
X142239820Y-80998005D01*
X142258292Y-80963446D01*
X142283153Y-80933153D01*
X142313446Y-80908292D01*
X142348005Y-80889820D01*
X142385501Y-80878445D01*
X142430638Y-80874000D01*
X143169362Y-80874000D01*
X143214499Y-80878445D01*
G37*
G36*
X141464499Y-80878445D02*
G01*
X141501995Y-80889820D01*
X141536554Y-80908292D01*
X141566847Y-80933153D01*
X141591708Y-80963446D01*
X141610180Y-80998005D01*
X141621555Y-81035501D01*
X141626000Y-81080638D01*
X141626000Y-81719362D01*
X141621555Y-81764499D01*
X141610180Y-81801995D01*
X141591708Y-81836554D01*
X141566847Y-81866847D01*
X141536554Y-81891708D01*
X141501995Y-81910180D01*
X141464499Y-81921555D01*
X141419362Y-81926000D01*
X140680638Y-81926000D01*
X140635501Y-81921555D01*
X140598005Y-81910180D01*
X140563446Y-81891708D01*
X140533153Y-81866847D01*
X140508292Y-81836554D01*
X140489820Y-81801995D01*
X140478445Y-81764499D01*
X140474000Y-81719362D01*
X140474000Y-81080638D01*
X140478445Y-81035501D01*
X140489820Y-80998005D01*
X140508292Y-80963446D01*
X140533153Y-80933153D01*
X140563446Y-80908292D01*
X140598005Y-80889820D01*
X140635501Y-80878445D01*
X140680638Y-80874000D01*
X141419362Y-80874000D01*
X141464499Y-80878445D01*
G37*
G36*
X122541080Y-80445699D02*
G01*
X122578576Y-80457074D01*
X122613135Y-80475546D01*
X122648199Y-80504322D01*
X123170550Y-81026673D01*
X123199326Y-81061737D01*
X123217798Y-81096296D01*
X123229173Y-81133792D01*
X123233013Y-81172791D01*
X123229173Y-81211790D01*
X123217798Y-81249286D01*
X123199326Y-81283845D01*
X123170550Y-81318909D01*
X122718909Y-81770550D01*
X122683845Y-81799326D01*
X122649286Y-81817798D01*
X122611790Y-81829173D01*
X122572791Y-81833013D01*
X122533792Y-81829173D01*
X122496296Y-81817798D01*
X122461737Y-81799326D01*
X122426673Y-81770550D01*
X121904322Y-81248199D01*
X121875546Y-81213135D01*
X121857074Y-81178576D01*
X121845699Y-81141080D01*
X121841859Y-81102081D01*
X121845699Y-81063082D01*
X121857074Y-81025586D01*
X121875546Y-80991027D01*
X121904322Y-80955963D01*
X122355963Y-80504322D01*
X122391027Y-80475546D01*
X122425586Y-80457074D01*
X122463082Y-80445699D01*
X122502081Y-80441859D01*
X122541080Y-80445699D01*
G37*
G36*
X126226719Y-80070890D02*
G01*
X124669670Y-81627939D01*
X123324753Y-80283022D01*
X124881802Y-78725973D01*
X126226719Y-80070890D01*
G37*
G36*
X134511962Y-74780763D02*
G01*
X134516636Y-74782181D01*
X134520938Y-74784480D01*
X134529477Y-74791488D01*
X134733638Y-74995649D01*
X134740646Y-75004188D01*
X134742945Y-75008490D01*
X134744363Y-75013164D01*
X134745171Y-75021367D01*
X134749952Y-75045400D01*
X134759330Y-75068039D01*
X134772944Y-75088413D01*
X134790272Y-75105739D01*
X134810646Y-75119353D01*
X134833285Y-75128729D01*
X134857313Y-75133509D01*
X134865515Y-75134317D01*
X134870189Y-75135735D01*
X134874491Y-75138034D01*
X134883030Y-75145042D01*
X135087191Y-75349203D01*
X135094199Y-75357742D01*
X135096498Y-75362044D01*
X135097916Y-75366718D01*
X135098724Y-75374920D01*
X135103505Y-75398954D01*
X135112883Y-75421592D01*
X135126498Y-75441966D01*
X135143825Y-75459293D01*
X135164200Y-75472906D01*
X135186839Y-75482283D01*
X135210866Y-75487062D01*
X135219069Y-75487870D01*
X135223743Y-75489288D01*
X135228045Y-75491587D01*
X135236584Y-75498595D01*
X135440745Y-75702756D01*
X135447753Y-75711295D01*
X135450052Y-75715597D01*
X135451470Y-75720271D01*
X135452278Y-75728474D01*
X135457059Y-75752507D01*
X135466437Y-75775146D01*
X135480051Y-75795520D01*
X135497379Y-75812846D01*
X135517753Y-75826460D01*
X135540392Y-75835836D01*
X135564420Y-75840616D01*
X135572622Y-75841424D01*
X135577296Y-75842842D01*
X135581598Y-75845141D01*
X135590137Y-75852149D01*
X135794298Y-76056310D01*
X135801306Y-76064849D01*
X135803605Y-76069151D01*
X135805023Y-76073825D01*
X135805831Y-76082027D01*
X135810612Y-76106061D01*
X135819990Y-76128699D01*
X135833605Y-76149073D01*
X135850932Y-76166400D01*
X135871307Y-76180013D01*
X135893946Y-76189390D01*
X135917973Y-76194169D01*
X135926175Y-76194977D01*
X135930849Y-76196395D01*
X135935151Y-76198694D01*
X135943690Y-76205702D01*
X136147851Y-76409863D01*
X136154859Y-76418402D01*
X136157158Y-76422704D01*
X136158576Y-76427378D01*
X136159384Y-76435580D01*
X136164165Y-76459614D01*
X136173543Y-76482252D01*
X136187158Y-76502626D01*
X136204485Y-76519953D01*
X136224860Y-76533566D01*
X136247499Y-76542943D01*
X136271526Y-76547722D01*
X136279729Y-76548530D01*
X136284403Y-76549948D01*
X136288705Y-76552247D01*
X136297244Y-76559255D01*
X136501405Y-76763416D01*
X136508413Y-76771955D01*
X136510712Y-76776257D01*
X136512130Y-76780931D01*
X136512938Y-76789134D01*
X136517719Y-76813167D01*
X136527097Y-76835806D01*
X136540711Y-76856180D01*
X136558039Y-76873506D01*
X136578413Y-76887120D01*
X136601052Y-76896496D01*
X136625080Y-76901276D01*
X136633282Y-76902084D01*
X136637956Y-76903502D01*
X136642258Y-76905801D01*
X136650797Y-76912809D01*
X136854958Y-77116970D01*
X136861966Y-77125509D01*
X136864265Y-77129811D01*
X136865683Y-77134485D01*
X136866491Y-77142687D01*
X136871272Y-77166721D01*
X136880650Y-77189359D01*
X136894265Y-77209733D01*
X136911592Y-77227060D01*
X136931967Y-77240673D01*
X136954606Y-77250050D01*
X136978633Y-77254829D01*
X136986836Y-77255637D01*
X136991510Y-77257055D01*
X136995812Y-77259354D01*
X137004351Y-77266362D01*
X137208512Y-77470523D01*
X137215520Y-77479062D01*
X137217819Y-77483364D01*
X137219237Y-77488038D01*
X137219715Y-77492893D01*
X137219237Y-77497748D01*
X137217819Y-77502422D01*
X137215520Y-77506724D01*
X137208512Y-77515263D01*
X136612163Y-78111612D01*
X136596618Y-78130554D01*
X136585067Y-78152165D01*
X136577954Y-78175614D01*
X136575552Y-78200000D01*
X136577954Y-78224386D01*
X136585067Y-78247835D01*
X136596618Y-78269446D01*
X136612163Y-78288388D01*
X137208512Y-78884737D01*
X137215520Y-78893276D01*
X137217819Y-78897578D01*
X137219237Y-78902252D01*
X137219715Y-78907107D01*
X137219237Y-78911962D01*
X137217819Y-78916636D01*
X137215520Y-78920938D01*
X137208512Y-78929477D01*
X137004351Y-79133638D01*
X136995812Y-79140646D01*
X136991510Y-79142945D01*
X136986836Y-79144363D01*
X136978633Y-79145171D01*
X136954600Y-79149952D01*
X136931961Y-79159330D01*
X136911587Y-79172944D01*
X136894261Y-79190272D01*
X136880647Y-79210646D01*
X136871271Y-79233285D01*
X136866491Y-79257313D01*
X136865683Y-79265515D01*
X136864265Y-79270189D01*
X136861966Y-79274491D01*
X136854958Y-79283030D01*
X136650797Y-79487191D01*
X136642258Y-79494199D01*
X136637956Y-79496498D01*
X136633282Y-79497916D01*
X136625080Y-79498724D01*
X136601046Y-79503505D01*
X136578408Y-79512883D01*
X136558034Y-79526498D01*
X136540707Y-79543825D01*
X136527094Y-79564200D01*
X136517717Y-79586839D01*
X136512938Y-79610866D01*
X136512130Y-79619069D01*
X136510712Y-79623743D01*
X136508413Y-79628045D01*
X136501405Y-79636584D01*
X136297244Y-79840745D01*
X136288705Y-79847753D01*
X136284403Y-79850052D01*
X136279729Y-79851470D01*
X136271526Y-79852278D01*
X136247493Y-79857059D01*
X136224854Y-79866437D01*
X136204480Y-79880051D01*
X136187154Y-79897379D01*
X136173540Y-79917753D01*
X136164164Y-79940392D01*
X136159384Y-79964420D01*
X136158576Y-79972622D01*
X136157158Y-79977296D01*
X136154859Y-79981598D01*
X136147851Y-79990137D01*
X135943690Y-80194298D01*
X135935151Y-80201306D01*
X135930849Y-80203605D01*
X135926175Y-80205023D01*
X135917973Y-80205831D01*
X135893939Y-80210612D01*
X135871301Y-80219990D01*
X135850927Y-80233605D01*
X135833600Y-80250932D01*
X135819987Y-80271307D01*
X135810610Y-80293946D01*
X135805831Y-80317973D01*
X135805023Y-80326175D01*
X135803605Y-80330849D01*
X135801306Y-80335151D01*
X135794298Y-80343690D01*
X135590137Y-80547851D01*
X135581598Y-80554859D01*
X135577296Y-80557158D01*
X135572622Y-80558576D01*
X135564420Y-80559384D01*
X135540386Y-80564165D01*
X135517748Y-80573543D01*
X135497374Y-80587158D01*
X135480047Y-80604485D01*
X135466434Y-80624860D01*
X135457057Y-80647499D01*
X135452278Y-80671526D01*
X135451470Y-80679729D01*
X135450052Y-80684403D01*
X135447753Y-80688705D01*
X135440745Y-80697244D01*
X135236584Y-80901405D01*
X135228045Y-80908413D01*
X135223743Y-80910712D01*
X135219069Y-80912130D01*
X135210866Y-80912938D01*
X135186833Y-80917719D01*
X135164194Y-80927097D01*
X135143820Y-80940711D01*
X135126494Y-80958039D01*
X135112880Y-80978413D01*
X135103504Y-81001052D01*
X135098724Y-81025080D01*
X135097916Y-81033282D01*
X135096498Y-81037956D01*
X135094199Y-81042258D01*
X135087191Y-81050797D01*
X134883030Y-81254958D01*
X134874491Y-81261966D01*
X134870189Y-81264265D01*
X134865515Y-81265683D01*
X134857313Y-81266491D01*
X134833279Y-81271272D01*
X134810641Y-81280650D01*
X134790267Y-81294265D01*
X134772940Y-81311592D01*
X134759327Y-81331967D01*
X134749950Y-81354606D01*
X134745171Y-81378633D01*
X134744363Y-81386836D01*
X134742945Y-81391510D01*
X134740646Y-81395812D01*
X134733638Y-81404351D01*
X134529477Y-81608512D01*
X134520938Y-81615520D01*
X134516636Y-81617819D01*
X134511962Y-81619237D01*
X134507107Y-81619715D01*
X134502252Y-81619237D01*
X134497578Y-81617819D01*
X134493276Y-81615520D01*
X134484737Y-81608512D01*
X133888388Y-81012163D01*
X133869446Y-80996618D01*
X133847835Y-80985067D01*
X133824386Y-80977954D01*
X133800000Y-80975552D01*
X133775614Y-80977954D01*
X133752165Y-80985067D01*
X133730554Y-80996618D01*
X133711612Y-81012163D01*
X133115263Y-81608512D01*
X133106724Y-81615520D01*
X133102422Y-81617819D01*
X133097748Y-81619237D01*
X133092893Y-81619715D01*
X133088038Y-81619237D01*
X133083364Y-81617819D01*
X133079062Y-81615520D01*
X133070523Y-81608512D01*
X132866362Y-81404351D01*
X132859354Y-81395812D01*
X132857055Y-81391510D01*
X132855637Y-81386836D01*
X132854829Y-81378633D01*
X132850048Y-81354600D01*
X132840670Y-81331961D01*
X132827056Y-81311587D01*
X132809728Y-81294261D01*
X132789354Y-81280647D01*
X132766715Y-81271271D01*
X132742687Y-81266491D01*
X132734485Y-81265683D01*
X132729811Y-81264265D01*
X132725509Y-81261966D01*
X132716970Y-81254958D01*
X132512809Y-81050797D01*
X132505801Y-81042258D01*
X132503502Y-81037956D01*
X132502084Y-81033282D01*
X132501276Y-81025080D01*
X132496495Y-81001046D01*
X132487117Y-80978408D01*
X132473502Y-80958034D01*
X132456175Y-80940707D01*
X132435800Y-80927094D01*
X132413161Y-80917717D01*
X132389134Y-80912938D01*
X132380931Y-80912130D01*
X132376257Y-80910712D01*
X132371955Y-80908413D01*
X132363416Y-80901405D01*
X132159255Y-80697244D01*
X132152247Y-80688705D01*
X132149948Y-80684403D01*
X132148530Y-80679729D01*
X132147722Y-80671526D01*
X132142941Y-80647493D01*
X132133563Y-80624854D01*
X132119949Y-80604480D01*
X132102621Y-80587154D01*
X132082247Y-80573540D01*
X132059608Y-80564164D01*
X132035580Y-80559384D01*
X132027378Y-80558576D01*
X132022704Y-80557158D01*
X132018402Y-80554859D01*
X132009863Y-80547851D01*
X131805702Y-80343690D01*
X131798694Y-80335151D01*
X131796395Y-80330849D01*
X131794977Y-80326175D01*
X131794169Y-80317973D01*
X131789388Y-80293939D01*
X131780010Y-80271301D01*
X131766395Y-80250927D01*
X131749068Y-80233600D01*
X131728693Y-80219987D01*
X131706054Y-80210610D01*
X131682027Y-80205831D01*
X131673825Y-80205023D01*
X131669151Y-80203605D01*
X131664849Y-80201306D01*
X131656310Y-80194298D01*
X131452149Y-79990137D01*
X131445141Y-79981598D01*
X131442842Y-79977296D01*
X131441424Y-79972622D01*
X131440616Y-79964420D01*
X131435835Y-79940386D01*
X131426457Y-79917748D01*
X131412842Y-79897374D01*
X131395515Y-79880047D01*
X131375140Y-79866434D01*
X131352501Y-79857057D01*
X131328474Y-79852278D01*
X131320271Y-79851470D01*
X131315597Y-79850052D01*
X131311295Y-79847753D01*
X131302756Y-79840745D01*
X131098595Y-79636584D01*
X131091587Y-79628045D01*
X131089288Y-79623743D01*
X131087870Y-79619069D01*
X131087062Y-79610866D01*
X131082281Y-79586833D01*
X131072903Y-79564194D01*
X131059289Y-79543820D01*
X131041961Y-79526494D01*
X131021587Y-79512880D01*
X130998948Y-79503504D01*
X130974920Y-79498724D01*
X130966718Y-79497916D01*
X130962044Y-79496498D01*
X130957742Y-79494199D01*
X130949203Y-79487191D01*
X130745042Y-79283030D01*
X130738034Y-79274491D01*
X130735735Y-79270189D01*
X130734317Y-79265515D01*
X130733509Y-79257313D01*
X130728728Y-79233279D01*
X130719350Y-79210641D01*
X130705735Y-79190267D01*
X130688408Y-79172940D01*
X130668033Y-79159327D01*
X130645394Y-79149950D01*
X130621367Y-79145171D01*
X130613164Y-79144363D01*
X130608490Y-79142945D01*
X130604188Y-79140646D01*
X130595649Y-79133638D01*
X130391488Y-78929477D01*
X130384480Y-78920938D01*
X130382181Y-78916636D01*
X130380763Y-78911962D01*
X130380285Y-78907107D01*
X130380763Y-78902252D01*
X130382181Y-78897578D01*
X130384480Y-78893276D01*
X130391488Y-78884737D01*
X130987837Y-78288388D01*
X131003382Y-78269446D01*
X131014933Y-78247835D01*
X131022046Y-78224386D01*
X131024448Y-78200000D01*
X131095474Y-78200000D01*
X131097876Y-78224386D01*
X131104989Y-78247835D01*
X131116540Y-78269446D01*
X131132085Y-78288388D01*
X131286492Y-78442795D01*
X131293500Y-78451334D01*
X131295799Y-78455636D01*
X131297217Y-78460310D01*
X131298025Y-78468512D01*
X131302806Y-78492546D01*
X131312184Y-78515184D01*
X131325799Y-78535558D01*
X131343126Y-78552885D01*
X131363501Y-78566498D01*
X131386140Y-78575875D01*
X131410167Y-78580654D01*
X131418370Y-78581462D01*
X131423044Y-78582880D01*
X131427346Y-78585179D01*
X131435885Y-78592187D01*
X131640046Y-78796348D01*
X131647054Y-78804887D01*
X131649353Y-78809189D01*
X131650771Y-78813863D01*
X131651579Y-78822066D01*
X131656360Y-78846099D01*
X131665738Y-78868738D01*
X131679352Y-78889112D01*
X131696680Y-78906438D01*
X131717054Y-78920052D01*
X131739693Y-78929428D01*
X131763721Y-78934208D01*
X131771923Y-78935016D01*
X131776597Y-78936434D01*
X131780899Y-78938733D01*
X131789438Y-78945741D01*
X131993599Y-79149902D01*
X132000607Y-79158441D01*
X132002906Y-79162743D01*
X132004324Y-79167417D01*
X132005132Y-79175619D01*
X132009913Y-79199653D01*
X132019291Y-79222291D01*
X132032906Y-79242665D01*
X132050233Y-79259992D01*
X132070608Y-79273605D01*
X132093247Y-79282982D01*
X132117274Y-79287761D01*
X132125477Y-79288569D01*
X132130151Y-79289987D01*
X132134453Y-79292286D01*
X132142992Y-79299294D01*
X132347153Y-79503455D01*
X132354161Y-79511994D01*
X132356460Y-79516296D01*
X132357878Y-79520970D01*
X132358686Y-79529172D01*
X132363467Y-79553206D01*
X132372845Y-79575844D01*
X132386460Y-79596218D01*
X132403787Y-79613545D01*
X132424162Y-79627158D01*
X132446801Y-79636535D01*
X132470828Y-79641314D01*
X132479030Y-79642122D01*
X132483704Y-79643540D01*
X132488006Y-79645839D01*
X132496545Y-79652847D01*
X132700706Y-79857008D01*
X132707714Y-79865547D01*
X132710013Y-79869849D01*
X132711431Y-79874523D01*
X132712239Y-79882726D01*
X132717020Y-79906759D01*
X132726398Y-79929398D01*
X132740012Y-79949772D01*
X132757340Y-79967098D01*
X132777714Y-79980712D01*
X132800353Y-79990088D01*
X132824381Y-79994868D01*
X132832583Y-79995676D01*
X132837257Y-79997094D01*
X132841559Y-79999393D01*
X132850098Y-80006401D01*
X133054259Y-80210562D01*
X133061267Y-80219101D01*
X133063566Y-80223403D01*
X133064984Y-80228077D01*
X133065792Y-80236279D01*
X133070573Y-80260313D01*
X133079951Y-80282951D01*
X133093566Y-80303325D01*
X133110893Y-80320652D01*
X133131268Y-80334265D01*
X133153907Y-80343642D01*
X133177934Y-80348421D01*
X133186137Y-80349229D01*
X133190811Y-80350647D01*
X133195113Y-80352946D01*
X133203652Y-80359954D01*
X133407813Y-80564115D01*
X133414821Y-80572654D01*
X133417120Y-80576956D01*
X133418538Y-80581630D01*
X133419346Y-80589833D01*
X133424127Y-80613866D01*
X133433505Y-80636505D01*
X133447119Y-80656879D01*
X133464447Y-80674205D01*
X133484821Y-80687819D01*
X133507460Y-80697195D01*
X133531488Y-80701975D01*
X133539690Y-80702783D01*
X133544364Y-80704201D01*
X133548666Y-80706500D01*
X133557205Y-80713508D01*
X133711612Y-80867915D01*
X133730554Y-80883460D01*
X133752165Y-80895011D01*
X133775614Y-80902124D01*
X133800000Y-80904526D01*
X133824386Y-80902124D01*
X133847835Y-80895011D01*
X133869446Y-80883460D01*
X133888388Y-80867915D01*
X134042795Y-80713508D01*
X134051334Y-80706500D01*
X134055636Y-80704201D01*
X134060310Y-80702783D01*
X134068512Y-80701975D01*
X134092546Y-80697194D01*
X134115184Y-80687816D01*
X134135558Y-80674201D01*
X134152885Y-80656874D01*
X134166498Y-80636499D01*
X134175875Y-80613860D01*
X134180654Y-80589833D01*
X134181462Y-80581630D01*
X134182880Y-80576956D01*
X134185179Y-80572654D01*
X134192187Y-80564115D01*
X134396348Y-80359954D01*
X134404887Y-80352946D01*
X134409189Y-80350647D01*
X134413863Y-80349229D01*
X134422066Y-80348421D01*
X134446099Y-80343640D01*
X134468738Y-80334262D01*
X134489112Y-80320648D01*
X134506438Y-80303320D01*
X134520052Y-80282946D01*
X134529428Y-80260307D01*
X134534208Y-80236279D01*
X134535016Y-80228077D01*
X134536434Y-80223403D01*
X134538733Y-80219101D01*
X134545741Y-80210562D01*
X134749902Y-80006401D01*
X134758441Y-79999393D01*
X134762743Y-79997094D01*
X134767417Y-79995676D01*
X134775619Y-79994868D01*
X134799653Y-79990087D01*
X134822291Y-79980709D01*
X134842665Y-79967094D01*
X134859992Y-79949767D01*
X134873605Y-79929392D01*
X134882982Y-79906753D01*
X134887761Y-79882726D01*
X134888569Y-79874523D01*
X134889987Y-79869849D01*
X134892286Y-79865547D01*
X134899294Y-79857008D01*
X135103455Y-79652847D01*
X135111994Y-79645839D01*
X135116296Y-79643540D01*
X135120970Y-79642122D01*
X135129172Y-79641314D01*
X135153206Y-79636533D01*
X135175844Y-79627155D01*
X135196218Y-79613540D01*
X135213545Y-79596213D01*
X135227158Y-79575838D01*
X135236535Y-79553199D01*
X135241314Y-79529172D01*
X135242122Y-79520970D01*
X135243540Y-79516296D01*
X135245839Y-79511994D01*
X135252847Y-79503455D01*
X135457008Y-79299294D01*
X135465547Y-79292286D01*
X135469849Y-79289987D01*
X135474523Y-79288569D01*
X135482726Y-79287761D01*
X135506759Y-79282980D01*
X135529398Y-79273602D01*
X135549772Y-79259988D01*
X135567098Y-79242660D01*
X135580712Y-79222286D01*
X135590088Y-79199647D01*
X135594868Y-79175619D01*
X135595676Y-79167417D01*
X135597094Y-79162743D01*
X135599393Y-79158441D01*
X135606401Y-79149902D01*
X135810562Y-78945741D01*
X135819101Y-78938733D01*
X135823403Y-78936434D01*
X135828077Y-78935016D01*
X135836279Y-78934208D01*
X135860313Y-78929427D01*
X135882951Y-78920049D01*
X135903325Y-78906434D01*
X135920652Y-78889107D01*
X135934265Y-78868732D01*
X135943642Y-78846093D01*
X135948421Y-78822066D01*
X135949229Y-78813863D01*
X135950647Y-78809189D01*
X135952946Y-78804887D01*
X135959954Y-78796348D01*
X136164115Y-78592187D01*
X136172654Y-78585179D01*
X136176956Y-78582880D01*
X136181630Y-78581462D01*
X136189833Y-78580654D01*
X136213866Y-78575873D01*
X136236505Y-78566495D01*
X136256879Y-78552881D01*
X136274205Y-78535553D01*
X136287819Y-78515179D01*
X136297195Y-78492540D01*
X136301975Y-78468512D01*
X136302783Y-78460310D01*
X136304201Y-78455636D01*
X136306500Y-78451334D01*
X136313508Y-78442795D01*
X136467915Y-78288388D01*
X136483460Y-78269446D01*
X136495011Y-78247835D01*
X136502124Y-78224386D01*
X136504526Y-78200000D01*
X136502124Y-78175614D01*
X136495011Y-78152165D01*
X136483460Y-78130554D01*
X136467915Y-78111612D01*
X136313508Y-77957205D01*
X136306500Y-77948666D01*
X136304201Y-77944364D01*
X136302783Y-77939690D01*
X136301975Y-77931488D01*
X136297194Y-77907454D01*
X136287816Y-77884816D01*
X136274201Y-77864442D01*
X136256874Y-77847115D01*
X136236499Y-77833502D01*
X136213860Y-77824125D01*
X136189833Y-77819346D01*
X136181630Y-77818538D01*
X136176956Y-77817120D01*
X136172654Y-77814821D01*
X136164115Y-77807813D01*
X135959954Y-77603652D01*
X135952946Y-77595113D01*
X135950647Y-77590811D01*
X135949229Y-77586137D01*
X135948421Y-77577934D01*
X135943640Y-77553901D01*
X135934262Y-77531262D01*
X135920648Y-77510888D01*
X135903320Y-77493562D01*
X135882946Y-77479948D01*
X135860307Y-77470572D01*
X135836279Y-77465792D01*
X135828077Y-77464984D01*
X135823403Y-77463566D01*
X135819101Y-77461267D01*
X135810562Y-77454259D01*
X135606401Y-77250098D01*
X135599393Y-77241559D01*
X135597094Y-77237257D01*
X135595676Y-77232583D01*
X135594868Y-77224381D01*
X135590087Y-77200347D01*
X135580709Y-77177709D01*
X135567094Y-77157335D01*
X135549767Y-77140008D01*
X135529392Y-77126395D01*
X135506753Y-77117018D01*
X135482726Y-77112239D01*
X135474523Y-77111431D01*
X135469849Y-77110013D01*
X135465547Y-77107714D01*
X135457008Y-77100706D01*
X135252847Y-76896545D01*
X135245839Y-76888006D01*
X135243540Y-76883704D01*
X135242122Y-76879030D01*
X135241314Y-76870828D01*
X135236533Y-76846794D01*
X135227155Y-76824156D01*
X135213540Y-76803782D01*
X135196213Y-76786455D01*
X135175838Y-76772842D01*
X135153199Y-76763465D01*
X135129172Y-76758686D01*
X135120970Y-76757878D01*
X135116296Y-76756460D01*
X135111994Y-76754161D01*
X135103455Y-76747153D01*
X134899294Y-76542992D01*
X134892286Y-76534453D01*
X134889987Y-76530151D01*
X134888569Y-76525477D01*
X134887761Y-76517274D01*
X134882980Y-76493241D01*
X134873602Y-76470602D01*
X134859988Y-76450228D01*
X134842660Y-76432902D01*
X134822286Y-76419288D01*
X134799647Y-76409912D01*
X134775619Y-76405132D01*
X134767417Y-76404324D01*
X134762743Y-76402906D01*
X134758441Y-76400607D01*
X134749902Y-76393599D01*
X134545741Y-76189438D01*
X134538733Y-76180899D01*
X134536434Y-76176597D01*
X134535016Y-76171923D01*
X134534208Y-76163721D01*
X134529427Y-76139687D01*
X134520049Y-76117049D01*
X134506434Y-76096675D01*
X134489107Y-76079348D01*
X134468732Y-76065735D01*
X134446093Y-76056358D01*
X134422066Y-76051579D01*
X134413863Y-76050771D01*
X134409189Y-76049353D01*
X134404887Y-76047054D01*
X134396348Y-76040046D01*
X134192187Y-75835885D01*
X134185179Y-75827346D01*
X134182880Y-75823044D01*
X134181462Y-75818370D01*
X134180654Y-75810167D01*
X134175873Y-75786134D01*
X134166495Y-75763495D01*
X134152881Y-75743121D01*
X134135553Y-75725795D01*
X134115179Y-75712181D01*
X134092540Y-75702805D01*
X134068512Y-75698025D01*
X134060310Y-75697217D01*
X134055636Y-75695799D01*
X134051334Y-75693500D01*
X134042795Y-75686492D01*
X133888388Y-75532085D01*
X133869446Y-75516540D01*
X133847835Y-75504989D01*
X133824386Y-75497876D01*
X133800000Y-75495474D01*
X133775614Y-75497876D01*
X133752165Y-75504989D01*
X133730554Y-75516540D01*
X133711612Y-75532085D01*
X133557205Y-75686492D01*
X133548666Y-75693500D01*
X133544364Y-75695799D01*
X133539690Y-75697217D01*
X133531488Y-75698025D01*
X133507454Y-75702806D01*
X133484816Y-75712184D01*
X133464442Y-75725799D01*
X133447115Y-75743126D01*
X133433502Y-75763501D01*
X133424125Y-75786140D01*
X133419346Y-75810167D01*
X133418538Y-75818370D01*
X133417120Y-75823044D01*
X133414821Y-75827346D01*
X133407813Y-75835885D01*
X133203652Y-76040046D01*
X133195113Y-76047054D01*
X133190811Y-76049353D01*
X133186137Y-76050771D01*
X133177934Y-76051579D01*
X133153901Y-76056360D01*
X133131262Y-76065738D01*
X133110888Y-76079352D01*
X133093562Y-76096680D01*
X133079948Y-76117054D01*
X133070572Y-76139693D01*
X133065792Y-76163721D01*
X133064984Y-76171923D01*
X133063566Y-76176597D01*
X133061267Y-76180899D01*
X133054259Y-76189438D01*
X132850098Y-76393599D01*
X132841559Y-76400607D01*
X132837257Y-76402906D01*
X132832583Y-76404324D01*
X132824381Y-76405132D01*
X132800347Y-76409913D01*
X132777709Y-76419291D01*
X132757335Y-76432906D01*
X132740008Y-76450233D01*
X132726395Y-76470608D01*
X132717018Y-76493247D01*
X132712239Y-76517274D01*
X132711431Y-76525477D01*
X132710013Y-76530151D01*
X132707714Y-76534453D01*
X132700706Y-76542992D01*
X132496545Y-76747153D01*
X132488006Y-76754161D01*
X132483704Y-76756460D01*
X132479030Y-76757878D01*
X132470828Y-76758686D01*
X132446794Y-76763467D01*
X132424156Y-76772845D01*
X132403782Y-76786460D01*
X132386455Y-76803787D01*
X132372842Y-76824162D01*
X132363465Y-76846801D01*
X132358686Y-76870828D01*
X132357878Y-76879030D01*
X132356460Y-76883704D01*
X132354161Y-76888006D01*
X132347153Y-76896545D01*
X132142992Y-77100706D01*
X132134453Y-77107714D01*
X132130151Y-77110013D01*
X132125477Y-77111431D01*
X132117274Y-77112239D01*
X132093241Y-77117020D01*
X132070602Y-77126398D01*
X132050228Y-77140012D01*
X132032902Y-77157340D01*
X132019288Y-77177714D01*
X132009912Y-77200353D01*
X132005132Y-77224381D01*
X132004324Y-77232583D01*
X132002906Y-77237257D01*
X132000607Y-77241559D01*
X131993599Y-77250098D01*
X131789438Y-77454259D01*
X131780899Y-77461267D01*
X131776597Y-77463566D01*
X131771923Y-77464984D01*
X131763721Y-77465792D01*
X131739687Y-77470573D01*
X131717049Y-77479951D01*
X131696675Y-77493566D01*
X131679348Y-77510893D01*
X131665735Y-77531268D01*
X131656358Y-77553907D01*
X131651579Y-77577934D01*
X131650771Y-77586137D01*
X131649353Y-77590811D01*
X131647054Y-77595113D01*
X131640046Y-77603652D01*
X131435885Y-77807813D01*
X131427346Y-77814821D01*
X131423044Y-77817120D01*
X131418370Y-77818538D01*
X131410167Y-77819346D01*
X131386134Y-77824127D01*
X131363495Y-77833505D01*
X131343121Y-77847119D01*
X131325795Y-77864447D01*
X131312181Y-77884821D01*
X131302805Y-77907460D01*
X131298025Y-77931488D01*
X131297217Y-77939690D01*
X131295799Y-77944364D01*
X131293500Y-77948666D01*
X131286492Y-77957205D01*
X131132085Y-78111612D01*
X131116540Y-78130554D01*
X131104989Y-78152165D01*
X131097876Y-78175614D01*
X131095474Y-78200000D01*
X131024448Y-78200000D01*
X131022046Y-78175614D01*
X131014933Y-78152165D01*
X131003382Y-78130554D01*
X130987837Y-78111612D01*
X130391488Y-77515263D01*
X130384480Y-77506724D01*
X130382181Y-77502422D01*
X130380763Y-77497748D01*
X130380285Y-77492893D01*
X130380763Y-77488038D01*
X130382181Y-77483364D01*
X130384480Y-77479062D01*
X130391488Y-77470523D01*
X130595649Y-77266362D01*
X130604188Y-77259354D01*
X130608490Y-77257055D01*
X130613164Y-77255637D01*
X130621367Y-77254829D01*
X130645400Y-77250048D01*
X130668039Y-77240670D01*
X130688413Y-77227056D01*
X130705739Y-77209728D01*
X130719353Y-77189354D01*
X130728729Y-77166715D01*
X130733509Y-77142687D01*
X130734317Y-77134485D01*
X130735735Y-77129811D01*
X130738034Y-77125509D01*
X130745042Y-77116970D01*
X130949203Y-76912809D01*
X130957742Y-76905801D01*
X130962044Y-76903502D01*
X130966718Y-76902084D01*
X130974920Y-76901276D01*
X130998954Y-76896495D01*
X131021592Y-76887117D01*
X131041966Y-76873502D01*
X131059293Y-76856175D01*
X131072906Y-76835800D01*
X131082283Y-76813161D01*
X131087062Y-76789134D01*
X131087870Y-76780931D01*
X131089288Y-76776257D01*
X131091587Y-76771955D01*
X131098595Y-76763416D01*
X131302756Y-76559255D01*
X131311295Y-76552247D01*
X131315597Y-76549948D01*
X131320271Y-76548530D01*
X131328474Y-76547722D01*
X131352507Y-76542941D01*
X131375146Y-76533563D01*
X131395520Y-76519949D01*
X131412846Y-76502621D01*
X131426460Y-76482247D01*
X131435836Y-76459608D01*
X131440616Y-76435580D01*
X131441424Y-76427378D01*
X131442842Y-76422704D01*
X131445141Y-76418402D01*
X131452149Y-76409863D01*
X131656310Y-76205702D01*
X131664849Y-76198694D01*
X131669151Y-76196395D01*
X131673825Y-76194977D01*
X131682027Y-76194169D01*
X131706061Y-76189388D01*
X131728699Y-76180010D01*
X131749073Y-76166395D01*
X131766400Y-76149068D01*
X131780013Y-76128693D01*
X131789390Y-76106054D01*
X131794169Y-76082027D01*
X131794977Y-76073825D01*
X131796395Y-76069151D01*
X131798694Y-76064849D01*
X131805702Y-76056310D01*
X132009863Y-75852149D01*
X132018402Y-75845141D01*
X132022704Y-75842842D01*
X132027378Y-75841424D01*
X132035580Y-75840616D01*
X132059614Y-75835835D01*
X132082252Y-75826457D01*
X132102626Y-75812842D01*
X132119953Y-75795515D01*
X132133566Y-75775140D01*
X132142943Y-75752501D01*
X132147722Y-75728474D01*
X132148530Y-75720271D01*
X132149948Y-75715597D01*
X132152247Y-75711295D01*
X132159255Y-75702756D01*
X132363416Y-75498595D01*
X132371955Y-75491587D01*
X132376257Y-75489288D01*
X132380931Y-75487870D01*
X132389134Y-75487062D01*
X132413167Y-75482281D01*
X132435806Y-75472903D01*
X132456180Y-75459289D01*
X132473506Y-75441961D01*
X132487120Y-75421587D01*
X132496496Y-75398948D01*
X132501276Y-75374920D01*
X132502084Y-75366718D01*
X132503502Y-75362044D01*
X132505801Y-75357742D01*
X132512809Y-75349203D01*
X132716970Y-75145042D01*
X132725509Y-75138034D01*
X132729811Y-75135735D01*
X132734485Y-75134317D01*
X132742687Y-75133509D01*
X132766721Y-75128728D01*
X132789359Y-75119350D01*
X132809733Y-75105735D01*
X132827060Y-75088408D01*
X132840673Y-75068033D01*
X132850050Y-75045394D01*
X132854829Y-75021367D01*
X132855637Y-75013164D01*
X132857055Y-75008490D01*
X132859354Y-75004188D01*
X132866362Y-74995649D01*
X133070523Y-74791488D01*
X133079062Y-74784480D01*
X133083364Y-74782181D01*
X133088038Y-74780763D01*
X133092893Y-74780285D01*
X133097748Y-74780763D01*
X133102422Y-74782181D01*
X133106724Y-74784480D01*
X133115263Y-74791488D01*
X133711612Y-75387837D01*
X133730554Y-75403382D01*
X133752165Y-75414933D01*
X133775614Y-75422046D01*
X133800000Y-75424448D01*
X133824386Y-75422046D01*
X133847835Y-75414933D01*
X133869446Y-75403382D01*
X133888388Y-75387837D01*
X134484737Y-74791488D01*
X134493276Y-74784480D01*
X134497578Y-74782181D01*
X134502252Y-74780763D01*
X134507107Y-74780285D01*
X134511962Y-74780763D01*
G37*
G36*
X133829804Y-76002919D02*
G01*
X133858468Y-76011614D01*
X133884882Y-76025733D01*
X133912801Y-76048645D01*
X133982587Y-76118431D01*
X133982593Y-76118436D01*
X135881564Y-78017407D01*
X135881569Y-78017413D01*
X135951355Y-78087199D01*
X135974267Y-78115118D01*
X135988386Y-78141532D01*
X135997081Y-78170196D01*
X136000016Y-78200000D01*
X135997081Y-78229804D01*
X135988386Y-78258468D01*
X135974267Y-78284882D01*
X135951355Y-78312801D01*
X135881569Y-78382587D01*
X135881564Y-78382593D01*
X133982593Y-80281564D01*
X133982587Y-80281569D01*
X133912801Y-80351355D01*
X133884882Y-80374267D01*
X133858468Y-80388386D01*
X133829804Y-80397081D01*
X133800000Y-80400016D01*
X133770196Y-80397081D01*
X133741532Y-80388386D01*
X133715118Y-80374267D01*
X133687199Y-80351355D01*
X133617413Y-80281569D01*
X133617407Y-80281564D01*
X131718436Y-78382593D01*
X131718431Y-78382587D01*
X131648645Y-78312801D01*
X131625733Y-78284882D01*
X131611614Y-78258468D01*
X131602919Y-78229804D01*
X131599984Y-78200000D01*
X131602919Y-78170196D01*
X131611614Y-78141532D01*
X131625733Y-78115118D01*
X131648645Y-78087199D01*
X131718431Y-78017413D01*
X131718436Y-78017407D01*
X133617407Y-76118436D01*
X133617413Y-76118431D01*
X133687199Y-76048645D01*
X133715118Y-76025733D01*
X133741532Y-76011614D01*
X133770196Y-76002919D01*
X133800000Y-75999984D01*
X133829804Y-76002919D01*
G37*
G36*
X121303644Y-79208263D02*
G01*
X121341140Y-79219638D01*
X121375699Y-79238110D01*
X121410763Y-79266886D01*
X121933114Y-79789237D01*
X121961890Y-79824301D01*
X121980362Y-79858860D01*
X121991737Y-79896356D01*
X121995577Y-79935355D01*
X121991737Y-79974354D01*
X121980362Y-80011850D01*
X121961890Y-80046409D01*
X121933114Y-80081473D01*
X121481473Y-80533114D01*
X121446409Y-80561890D01*
X121411850Y-80580362D01*
X121374354Y-80591737D01*
X121335355Y-80595577D01*
X121296356Y-80591737D01*
X121258860Y-80580362D01*
X121224301Y-80561890D01*
X121189237Y-80533114D01*
X120666886Y-80010763D01*
X120638110Y-79975699D01*
X120619638Y-79941140D01*
X120608263Y-79903644D01*
X120604423Y-79864645D01*
X120608263Y-79825646D01*
X120619638Y-79788150D01*
X120638110Y-79753591D01*
X120666886Y-79718527D01*
X121118527Y-79266886D01*
X121153591Y-79238110D01*
X121188150Y-79219638D01*
X121225646Y-79208263D01*
X121264645Y-79204423D01*
X121303644Y-79208263D01*
G37*
G36*
X141439499Y-79278445D02*
G01*
X141476995Y-79289820D01*
X141511554Y-79308292D01*
X141541847Y-79333153D01*
X141566708Y-79363446D01*
X141585180Y-79398005D01*
X141596555Y-79435501D01*
X141601000Y-79480638D01*
X141601000Y-80119362D01*
X141596555Y-80164499D01*
X141585180Y-80201995D01*
X141566708Y-80236554D01*
X141541847Y-80266847D01*
X141511554Y-80291708D01*
X141476995Y-80310180D01*
X141439499Y-80321555D01*
X141394362Y-80326000D01*
X140655638Y-80326000D01*
X140610501Y-80321555D01*
X140573005Y-80310180D01*
X140538446Y-80291708D01*
X140508153Y-80266847D01*
X140483292Y-80236554D01*
X140464820Y-80201995D01*
X140453445Y-80164499D01*
X140449000Y-80119362D01*
X140449000Y-79480638D01*
X140453445Y-79435501D01*
X140464820Y-79398005D01*
X140483292Y-79363446D01*
X140508153Y-79333153D01*
X140538446Y-79308292D01*
X140573005Y-79289820D01*
X140610501Y-79278445D01*
X140655638Y-79274000D01*
X141394362Y-79274000D01*
X141439499Y-79278445D01*
G37*
G36*
X143189499Y-79278445D02*
G01*
X143226995Y-79289820D01*
X143261554Y-79308292D01*
X143291847Y-79333153D01*
X143316708Y-79363446D01*
X143335180Y-79398005D01*
X143346555Y-79435501D01*
X143351000Y-79480638D01*
X143351000Y-80119362D01*
X143346555Y-80164499D01*
X143335180Y-80201995D01*
X143316708Y-80236554D01*
X143291847Y-80266847D01*
X143261554Y-80291708D01*
X143226995Y-80310180D01*
X143189499Y-80321555D01*
X143144362Y-80326000D01*
X142405638Y-80326000D01*
X142360501Y-80321555D01*
X142323005Y-80310180D01*
X142288446Y-80291708D01*
X142258153Y-80266847D01*
X142233292Y-80236554D01*
X142214820Y-80201995D01*
X142203445Y-80164499D01*
X142199000Y-80119362D01*
X142199000Y-79480638D01*
X142203445Y-79435501D01*
X142214820Y-79398005D01*
X142233292Y-79363446D01*
X142258153Y-79333153D01*
X142288446Y-79308292D01*
X142323005Y-79289820D01*
X142360501Y-79278445D01*
X142405638Y-79274000D01*
X143144362Y-79274000D01*
X143189499Y-79278445D01*
G37*
G36*
X124600373Y-78444544D02*
G01*
X123043324Y-80001593D01*
X121698407Y-78656676D01*
X123255456Y-77099627D01*
X124600373Y-78444544D01*
G37*
G36*
X128277329Y-78020280D02*
G01*
X126720280Y-79577329D01*
X125375363Y-78232412D01*
X126932412Y-76675363D01*
X128277329Y-78020280D01*
G37*
G36*
X141439499Y-77678445D02*
G01*
X141476995Y-77689820D01*
X141511554Y-77708292D01*
X141541847Y-77733153D01*
X141566708Y-77763446D01*
X141585180Y-77798005D01*
X141596555Y-77835501D01*
X141601000Y-77880638D01*
X141601000Y-78519362D01*
X141596555Y-78564499D01*
X141585180Y-78601995D01*
X141566708Y-78636554D01*
X141541847Y-78666847D01*
X141511554Y-78691708D01*
X141476995Y-78710180D01*
X141439499Y-78721555D01*
X141394362Y-78726000D01*
X140655638Y-78726000D01*
X140610501Y-78721555D01*
X140573005Y-78710180D01*
X140538446Y-78691708D01*
X140508153Y-78666847D01*
X140483292Y-78636554D01*
X140464820Y-78601995D01*
X140453445Y-78564499D01*
X140449000Y-78519362D01*
X140449000Y-77880638D01*
X140453445Y-77835501D01*
X140464820Y-77798005D01*
X140483292Y-77763446D01*
X140508153Y-77733153D01*
X140538446Y-77708292D01*
X140573005Y-77689820D01*
X140610501Y-77678445D01*
X140655638Y-77674000D01*
X141394362Y-77674000D01*
X141439499Y-77678445D01*
G37*
G36*
X143189499Y-77678445D02*
G01*
X143226995Y-77689820D01*
X143261554Y-77708292D01*
X143291847Y-77733153D01*
X143316708Y-77763446D01*
X143335180Y-77798005D01*
X143346555Y-77835501D01*
X143351000Y-77880638D01*
X143351000Y-78519362D01*
X143346555Y-78564499D01*
X143335180Y-78601995D01*
X143316708Y-78636554D01*
X143291847Y-78666847D01*
X143261554Y-78691708D01*
X143226995Y-78710180D01*
X143189499Y-78721555D01*
X143144362Y-78726000D01*
X142405638Y-78726000D01*
X142360501Y-78721555D01*
X142323005Y-78710180D01*
X142288446Y-78691708D01*
X142258153Y-78666847D01*
X142233292Y-78636554D01*
X142214820Y-78601995D01*
X142203445Y-78564499D01*
X142199000Y-78519362D01*
X142199000Y-77880638D01*
X142203445Y-77835501D01*
X142214820Y-77798005D01*
X142233292Y-77763446D01*
X142258153Y-77733153D01*
X142288446Y-77708292D01*
X142323005Y-77689820D01*
X142360501Y-77678445D01*
X142405638Y-77674000D01*
X143144362Y-77674000D01*
X143189499Y-77678445D01*
G37*
G36*
X126650983Y-76393934D02*
G01*
X125093934Y-77950983D01*
X123749017Y-76606066D01*
X125306066Y-75049017D01*
X126650983Y-76393934D01*
G37*
G36*
X120003644Y-76308263D02*
G01*
X120041140Y-76319638D01*
X120075699Y-76338110D01*
X120110763Y-76366886D01*
X120633114Y-76889237D01*
X120661890Y-76924301D01*
X120680362Y-76958860D01*
X120691737Y-76996356D01*
X120695577Y-77035355D01*
X120691737Y-77074354D01*
X120680362Y-77111850D01*
X120661890Y-77146409D01*
X120633114Y-77181473D01*
X120181473Y-77633114D01*
X120146409Y-77661890D01*
X120111850Y-77680362D01*
X120074354Y-77691737D01*
X120035355Y-77695577D01*
X119996356Y-77691737D01*
X119958860Y-77680362D01*
X119924301Y-77661890D01*
X119889237Y-77633114D01*
X119366886Y-77110763D01*
X119338110Y-77075699D01*
X119319638Y-77041140D01*
X119308263Y-77003644D01*
X119304423Y-76964645D01*
X119308263Y-76925646D01*
X119319638Y-76888150D01*
X119338110Y-76853591D01*
X119366886Y-76818527D01*
X119818527Y-76366886D01*
X119853591Y-76338110D01*
X119888150Y-76319638D01*
X119925646Y-76308263D01*
X119964645Y-76304423D01*
X120003644Y-76308263D01*
G37*
G36*
X129236918Y-76245699D02*
G01*
X129274414Y-76257074D01*
X129308973Y-76275546D01*
X129344037Y-76304322D01*
X129795678Y-76755963D01*
X129824454Y-76791027D01*
X129842926Y-76825586D01*
X129854301Y-76863082D01*
X129858141Y-76902081D01*
X129854301Y-76941080D01*
X129842926Y-76978576D01*
X129824454Y-77013135D01*
X129795678Y-77048199D01*
X129273327Y-77570550D01*
X129238263Y-77599326D01*
X129203704Y-77617798D01*
X129166208Y-77629173D01*
X129127209Y-77633013D01*
X129088210Y-77629173D01*
X129050714Y-77617798D01*
X129016155Y-77599326D01*
X128981091Y-77570550D01*
X128529450Y-77118909D01*
X128500674Y-77083845D01*
X128482202Y-77049286D01*
X128470827Y-77011790D01*
X128466987Y-76972791D01*
X128470827Y-76933792D01*
X128482202Y-76896296D01*
X128500674Y-76861737D01*
X128529450Y-76826673D01*
X129051801Y-76304322D01*
X129086865Y-76275546D01*
X129121424Y-76257074D01*
X129158920Y-76245699D01*
X129197919Y-76241859D01*
X129236918Y-76245699D01*
G37*
G36*
X96501000Y-77400999D02*
G01*
X94899000Y-77400999D01*
X94899000Y-75798999D01*
X96501000Y-75798999D01*
X96501000Y-77400999D01*
G37*
G36*
X77481135Y-76439518D02*
G01*
X76772614Y-77148039D01*
X75851961Y-76227386D01*
X76560482Y-75518865D01*
X77481135Y-76439518D01*
G37*
G36*
X85481135Y-76439518D02*
G01*
X84772614Y-77148039D01*
X83851961Y-76227386D01*
X84560482Y-75518865D01*
X85481135Y-76439518D01*
G37*
G36*
X81481135Y-76439518D02*
G01*
X80772614Y-77148039D01*
X79851961Y-76227386D01*
X80560482Y-75518865D01*
X81481135Y-76439518D01*
G37*
G36*
X69481135Y-76439518D02*
G01*
X68772614Y-77148039D01*
X67851961Y-76227386D01*
X68560482Y-75518865D01*
X69481135Y-76439518D01*
G37*
G36*
X73481135Y-76439518D02*
G01*
X72772614Y-77148039D01*
X71851961Y-76227386D01*
X72560482Y-75518865D01*
X73481135Y-76439518D01*
G37*
G36*
X143214499Y-76078445D02*
G01*
X143251995Y-76089820D01*
X143286554Y-76108292D01*
X143316847Y-76133153D01*
X143341708Y-76163446D01*
X143360180Y-76198005D01*
X143371555Y-76235501D01*
X143376000Y-76280638D01*
X143376000Y-76919362D01*
X143371555Y-76964499D01*
X143360180Y-77001995D01*
X143341708Y-77036554D01*
X143316847Y-77066847D01*
X143286554Y-77091708D01*
X143251995Y-77110180D01*
X143214499Y-77121555D01*
X143169362Y-77126000D01*
X142430638Y-77126000D01*
X142385501Y-77121555D01*
X142348005Y-77110180D01*
X142313446Y-77091708D01*
X142283153Y-77066847D01*
X142258292Y-77036554D01*
X142239820Y-77001995D01*
X142228445Y-76964499D01*
X142224000Y-76919362D01*
X142224000Y-76280638D01*
X142228445Y-76235501D01*
X142239820Y-76198005D01*
X142258292Y-76163446D01*
X142283153Y-76133153D01*
X142313446Y-76108292D01*
X142348005Y-76089820D01*
X142385501Y-76078445D01*
X142430638Y-76074000D01*
X143169362Y-76074000D01*
X143214499Y-76078445D01*
G37*
G36*
X141464499Y-76078445D02*
G01*
X141501995Y-76089820D01*
X141536554Y-76108292D01*
X141566847Y-76133153D01*
X141591708Y-76163446D01*
X141610180Y-76198005D01*
X141621555Y-76235501D01*
X141626000Y-76280638D01*
X141626000Y-76919362D01*
X141621555Y-76964499D01*
X141610180Y-77001995D01*
X141591708Y-77036554D01*
X141566847Y-77066847D01*
X141536554Y-77091708D01*
X141501995Y-77110180D01*
X141464499Y-77121555D01*
X141419362Y-77126000D01*
X140680638Y-77126000D01*
X140635501Y-77121555D01*
X140598005Y-77110180D01*
X140563446Y-77091708D01*
X140533153Y-77066847D01*
X140508292Y-77036554D01*
X140489820Y-77001995D01*
X140478445Y-76964499D01*
X140474000Y-76919362D01*
X140474000Y-76280638D01*
X140478445Y-76235501D01*
X140489820Y-76198005D01*
X140508292Y-76163446D01*
X140533153Y-76133153D01*
X140563446Y-76108292D01*
X140598005Y-76089820D01*
X140635501Y-76078445D01*
X140680638Y-76074000D01*
X141419362Y-76074000D01*
X141464499Y-76078445D01*
G37*
G36*
X127903644Y-75108263D02*
G01*
X127941140Y-75119638D01*
X127975699Y-75138110D01*
X128010763Y-75166886D01*
X128533114Y-75689237D01*
X128561890Y-75724301D01*
X128580362Y-75758860D01*
X128591737Y-75796356D01*
X128595577Y-75835355D01*
X128591737Y-75874354D01*
X128580362Y-75911850D01*
X128561890Y-75946409D01*
X128533114Y-75981473D01*
X128081473Y-76433114D01*
X128046409Y-76461890D01*
X128011850Y-76480362D01*
X127974354Y-76491737D01*
X127935355Y-76495577D01*
X127896356Y-76491737D01*
X127858860Y-76480362D01*
X127824301Y-76461890D01*
X127789237Y-76433114D01*
X127266886Y-75910763D01*
X127238110Y-75875699D01*
X127219638Y-75841140D01*
X127208263Y-75803644D01*
X127204423Y-75764645D01*
X127208263Y-75725646D01*
X127219638Y-75688150D01*
X127238110Y-75653591D01*
X127266886Y-75618527D01*
X127718527Y-75166886D01*
X127753591Y-75138110D01*
X127788150Y-75119638D01*
X127825646Y-75108263D01*
X127864645Y-75104423D01*
X127903644Y-75108263D01*
G37*
G36*
X149509672Y-75748449D02*
G01*
X149509674Y-75748450D01*
X149509675Y-75748450D01*
X149578103Y-75776793D01*
X149639686Y-75817942D01*
X149692058Y-75870314D01*
X149733207Y-75931897D01*
X149761409Y-75999984D01*
X149761551Y-76000328D01*
X149776000Y-76072966D01*
X149776000Y-76147034D01*
X149762290Y-76215958D01*
X149761550Y-76219675D01*
X149733207Y-76288103D01*
X149692058Y-76349686D01*
X149639686Y-76402058D01*
X149578103Y-76443207D01*
X149509675Y-76471550D01*
X149509674Y-76471550D01*
X149509672Y-76471551D01*
X149437034Y-76486000D01*
X149362966Y-76486000D01*
X149290328Y-76471551D01*
X149290326Y-76471550D01*
X149290325Y-76471550D01*
X149221897Y-76443207D01*
X149160314Y-76402058D01*
X149107942Y-76349686D01*
X149066793Y-76288103D01*
X149038450Y-76219675D01*
X149037711Y-76215958D01*
X149024000Y-76147034D01*
X149024000Y-76072966D01*
X149038449Y-76000328D01*
X149038591Y-75999984D01*
X149066793Y-75931897D01*
X149107942Y-75870314D01*
X149160314Y-75817942D01*
X149221897Y-75776793D01*
X149290325Y-75748450D01*
X149290326Y-75748450D01*
X149290328Y-75748449D01*
X149362966Y-75734000D01*
X149437034Y-75734000D01*
X149509672Y-75748449D01*
G37*
G36*
X118766208Y-75070827D02*
G01*
X118803704Y-75082202D01*
X118838263Y-75100674D01*
X118873327Y-75129450D01*
X119395678Y-75651801D01*
X119424454Y-75686865D01*
X119442926Y-75721424D01*
X119454301Y-75758920D01*
X119458141Y-75797919D01*
X119454301Y-75836918D01*
X119442926Y-75874414D01*
X119424454Y-75908973D01*
X119395678Y-75944037D01*
X118944037Y-76395678D01*
X118908973Y-76424454D01*
X118874414Y-76442926D01*
X118836918Y-76454301D01*
X118797919Y-76458141D01*
X118758920Y-76454301D01*
X118721424Y-76442926D01*
X118686865Y-76424454D01*
X118651801Y-76395678D01*
X118129450Y-75873327D01*
X118100674Y-75838263D01*
X118082202Y-75803704D01*
X118070827Y-75766208D01*
X118066987Y-75727209D01*
X118070827Y-75688210D01*
X118082202Y-75650714D01*
X118100674Y-75616155D01*
X118129450Y-75581091D01*
X118581091Y-75129450D01*
X118616155Y-75100674D01*
X118650714Y-75082202D01*
X118688210Y-75070827D01*
X118727209Y-75066987D01*
X118766208Y-75070827D01*
G37*
G36*
X130474354Y-75008263D02*
G01*
X130511850Y-75019638D01*
X130546409Y-75038110D01*
X130581473Y-75066886D01*
X131033114Y-75518527D01*
X131061890Y-75553591D01*
X131080362Y-75588150D01*
X131091737Y-75625646D01*
X131095577Y-75664645D01*
X131091737Y-75703644D01*
X131080362Y-75741140D01*
X131061890Y-75775699D01*
X131033114Y-75810763D01*
X130510763Y-76333114D01*
X130475699Y-76361890D01*
X130441140Y-76380362D01*
X130403644Y-76391737D01*
X130364645Y-76395577D01*
X130325646Y-76391737D01*
X130288150Y-76380362D01*
X130253591Y-76361890D01*
X130218527Y-76333114D01*
X129766886Y-75881473D01*
X129738110Y-75846409D01*
X129719638Y-75811850D01*
X129708263Y-75774354D01*
X129704423Y-75735355D01*
X129708263Y-75696356D01*
X129719638Y-75658860D01*
X129738110Y-75624301D01*
X129766886Y-75589237D01*
X130289237Y-75066886D01*
X130324301Y-75038110D01*
X130358860Y-75019638D01*
X130396356Y-75008263D01*
X130435355Y-75004423D01*
X130474354Y-75008263D01*
G37*
G36*
X143214498Y-74478445D02*
G01*
X143251994Y-74489820D01*
X143286553Y-74508292D01*
X143316846Y-74533153D01*
X143341707Y-74563446D01*
X143360179Y-74598005D01*
X143371554Y-74635501D01*
X143375999Y-74680638D01*
X143375999Y-75319362D01*
X143371554Y-75364499D01*
X143360179Y-75401995D01*
X143341707Y-75436554D01*
X143316846Y-75466847D01*
X143286553Y-75491708D01*
X143251994Y-75510180D01*
X143214498Y-75521555D01*
X143169361Y-75526000D01*
X142430637Y-75526000D01*
X142385500Y-75521555D01*
X142348004Y-75510180D01*
X142313445Y-75491708D01*
X142283152Y-75466847D01*
X142258291Y-75436554D01*
X142239819Y-75401995D01*
X142228444Y-75364499D01*
X142223999Y-75319362D01*
X142223999Y-74680638D01*
X142228444Y-74635501D01*
X142239819Y-74598005D01*
X142258291Y-74563446D01*
X142283152Y-74533153D01*
X142313445Y-74508292D01*
X142348004Y-74489820D01*
X142385500Y-74478445D01*
X142430637Y-74474000D01*
X143169361Y-74474000D01*
X143214498Y-74478445D01*
G37*
G36*
X141464498Y-74478445D02*
G01*
X141501994Y-74489820D01*
X141536553Y-74508292D01*
X141566846Y-74533153D01*
X141591707Y-74563446D01*
X141610179Y-74598005D01*
X141621554Y-74635501D01*
X141625999Y-74680638D01*
X141625999Y-75319362D01*
X141621554Y-75364499D01*
X141610179Y-75401995D01*
X141591707Y-75436554D01*
X141566846Y-75466847D01*
X141536553Y-75491708D01*
X141501994Y-75510180D01*
X141464498Y-75521555D01*
X141419361Y-75526000D01*
X140680637Y-75526000D01*
X140635500Y-75521555D01*
X140598004Y-75510180D01*
X140563445Y-75491708D01*
X140533152Y-75466847D01*
X140508291Y-75436554D01*
X140489819Y-75401995D01*
X140478444Y-75364499D01*
X140473999Y-75319362D01*
X140473999Y-74680638D01*
X140478444Y-74635501D01*
X140489819Y-74598005D01*
X140508291Y-74563446D01*
X140533152Y-74533153D01*
X140563445Y-74508292D01*
X140598004Y-74489820D01*
X140635500Y-74478445D01*
X140680637Y-74474000D01*
X141419361Y-74474000D01*
X141464498Y-74478445D01*
G37*
G36*
X126666208Y-73870827D02*
G01*
X126703704Y-73882202D01*
X126738263Y-73900674D01*
X126773327Y-73929450D01*
X127295678Y-74451801D01*
X127324454Y-74486865D01*
X127342926Y-74521424D01*
X127354301Y-74558920D01*
X127358141Y-74597919D01*
X127354301Y-74636918D01*
X127342926Y-74674414D01*
X127324454Y-74708973D01*
X127295678Y-74744037D01*
X126844037Y-75195678D01*
X126808973Y-75224454D01*
X126774414Y-75242926D01*
X126736918Y-75254301D01*
X126697919Y-75258141D01*
X126658920Y-75254301D01*
X126621424Y-75242926D01*
X126586865Y-75224454D01*
X126551801Y-75195678D01*
X126029450Y-74673327D01*
X126000674Y-74638263D01*
X125982202Y-74603704D01*
X125970827Y-74566208D01*
X125966987Y-74527209D01*
X125970827Y-74488210D01*
X125982202Y-74450714D01*
X126000674Y-74416155D01*
X126029450Y-74381091D01*
X126481091Y-73929450D01*
X126516155Y-73900674D01*
X126550714Y-73882202D01*
X126588210Y-73870827D01*
X126627209Y-73866987D01*
X126666208Y-73870827D01*
G37*
G36*
X153458015Y-74136973D02*
G01*
X153561879Y-74168479D01*
X153589055Y-74183005D01*
X153657600Y-74219643D01*
X153741501Y-74288499D01*
X153810357Y-74372400D01*
X153846995Y-74440945D01*
X153861521Y-74468121D01*
X153893027Y-74571985D01*
X153903666Y-74680000D01*
X153893027Y-74788015D01*
X153861521Y-74891879D01*
X153861519Y-74891882D01*
X153810357Y-74987600D01*
X153741501Y-75071501D01*
X153657600Y-75140357D01*
X153607967Y-75166886D01*
X153561879Y-75191521D01*
X153458015Y-75223027D01*
X153377067Y-75231000D01*
X152722933Y-75231000D01*
X152641985Y-75223027D01*
X152538121Y-75191521D01*
X152492033Y-75166886D01*
X152442400Y-75140357D01*
X152358499Y-75071501D01*
X152289643Y-74987600D01*
X152238481Y-74891882D01*
X152238479Y-74891879D01*
X152206973Y-74788015D01*
X152196334Y-74680000D01*
X152206973Y-74571985D01*
X152238479Y-74468121D01*
X152253005Y-74440945D01*
X152289643Y-74372400D01*
X152358499Y-74288499D01*
X152442400Y-74219643D01*
X152510945Y-74183005D01*
X152538121Y-74168479D01*
X152641985Y-74136973D01*
X152722933Y-74129000D01*
X153377067Y-74129000D01*
X153458015Y-74136973D01*
G37*
G36*
X87814587Y-74106066D02*
G01*
X87106066Y-74814587D01*
X86185413Y-73893934D01*
X86893934Y-73185413D01*
X87814587Y-74106066D01*
G37*
G36*
X71814587Y-74106066D02*
G01*
X71106066Y-74814587D01*
X70185413Y-73893934D01*
X70893934Y-73185413D01*
X71814587Y-74106066D01*
G37*
G36*
X83814587Y-74106066D02*
G01*
X83106066Y-74814587D01*
X82185413Y-73893934D01*
X82893934Y-73185413D01*
X83814587Y-74106066D01*
G37*
G36*
X79814587Y-74106066D02*
G01*
X79106066Y-74814587D01*
X78185413Y-73893934D01*
X78893934Y-73185413D01*
X79814587Y-74106066D01*
G37*
G36*
X75814587Y-74106066D02*
G01*
X75106066Y-74814587D01*
X74185413Y-73893934D01*
X74893934Y-73185413D01*
X75814587Y-74106066D01*
G37*
G36*
X75814587Y-65943934D02*
G01*
X74893934Y-66864587D01*
X74185413Y-66156066D01*
X75106066Y-65235413D01*
X75814587Y-65943934D01*
G37*
G36*
X87814587Y-65893934D02*
G01*
X86893934Y-66814587D01*
X86185413Y-66106066D01*
X87106066Y-65185413D01*
X87814587Y-65893934D01*
G37*
G36*
X83814587Y-65893934D02*
G01*
X82893934Y-66814587D01*
X82185413Y-66106066D01*
X83106066Y-65185413D01*
X83814587Y-65893934D01*
G37*
G36*
X79814587Y-65893934D02*
G01*
X78893934Y-66814587D01*
X78185413Y-66106066D01*
X79106066Y-65185413D01*
X79814587Y-65893934D01*
G37*
G36*
X71814587Y-65893934D02*
G01*
X70893934Y-66814587D01*
X70185413Y-66106066D01*
X71106066Y-65185413D01*
X71814587Y-65893934D01*
G37*
G36*
X73481135Y-63610482D02*
G01*
X72560482Y-64531135D01*
X71851961Y-63822614D01*
X72772614Y-62901961D01*
X73481135Y-63610482D01*
G37*
G36*
X69481135Y-63560482D02*
G01*
X68560482Y-64481135D01*
X67851961Y-63772614D01*
X68772614Y-62851961D01*
X69481135Y-63560482D01*
G37*
G36*
X77481135Y-63560482D02*
G01*
X76560482Y-64481135D01*
X75851961Y-63772614D01*
X76772614Y-62851961D01*
X77481135Y-63560482D01*
G37*
G36*
X81481135Y-63560482D02*
G01*
X80560482Y-64481135D01*
X79851961Y-63772614D01*
X80772614Y-62851961D01*
X81481135Y-63560482D01*
G37*
G36*
X85481135Y-63560482D02*
G01*
X84560482Y-64481135D01*
X83851961Y-63772614D01*
X84772614Y-62851961D01*
X85481135Y-63560482D01*
G37*
G36*
X56938843Y-57342292D02*
G01*
X56989588Y-57363311D01*
X57025470Y-57378174D01*
X57103432Y-57430267D01*
X57169733Y-57496568D01*
X57221826Y-57574530D01*
X57221826Y-57574531D01*
X57257708Y-57661157D01*
X57276000Y-57753117D01*
X57276000Y-57846883D01*
X57257708Y-57938843D01*
X57236689Y-57989588D01*
X57221826Y-58025470D01*
X57169733Y-58103432D01*
X57103430Y-58169735D01*
X57064021Y-58196067D01*
X57045079Y-58211612D01*
X57029534Y-58230554D01*
X57017982Y-58252164D01*
X57010869Y-58275613D01*
X57008467Y-58299999D01*
X57010869Y-58324385D01*
X57017982Y-58347834D01*
X57029533Y-58369445D01*
X57045078Y-58388387D01*
X57064021Y-58403933D01*
X57103430Y-58430265D01*
X57169733Y-58496568D01*
X57221826Y-58574530D01*
X57221826Y-58574531D01*
X57257708Y-58661157D01*
X57276000Y-58753117D01*
X57276000Y-58846883D01*
X57257708Y-58938843D01*
X57236689Y-58989588D01*
X57221826Y-59025470D01*
X57169733Y-59103432D01*
X57103430Y-59169735D01*
X57064021Y-59196067D01*
X57045079Y-59211612D01*
X57029534Y-59230554D01*
X57017982Y-59252164D01*
X57010869Y-59275613D01*
X57008467Y-59299999D01*
X57010869Y-59324385D01*
X57017982Y-59347834D01*
X57029533Y-59369445D01*
X57045078Y-59388387D01*
X57064021Y-59403933D01*
X57103430Y-59430265D01*
X57169733Y-59496568D01*
X57221826Y-59574530D01*
X57221826Y-59574531D01*
X57257708Y-59661157D01*
X57276000Y-59753117D01*
X57276000Y-59846883D01*
X57257708Y-59938843D01*
X57236689Y-59989588D01*
X57221826Y-60025470D01*
X57169733Y-60103432D01*
X57103430Y-60169735D01*
X57064021Y-60196067D01*
X57045079Y-60211612D01*
X57029534Y-60230554D01*
X57017982Y-60252164D01*
X57010869Y-60275613D01*
X57008467Y-60299999D01*
X57010869Y-60324385D01*
X57017982Y-60347834D01*
X57029533Y-60369445D01*
X57045078Y-60388387D01*
X57064021Y-60403933D01*
X57103430Y-60430265D01*
X57169733Y-60496568D01*
X57221826Y-60574530D01*
X57221826Y-60574531D01*
X57257708Y-60661157D01*
X57276000Y-60753117D01*
X57276000Y-60846883D01*
X57257708Y-60938843D01*
X57236689Y-60989588D01*
X57221826Y-61025470D01*
X57169733Y-61103432D01*
X57103430Y-61169735D01*
X57064021Y-61196067D01*
X57045079Y-61211612D01*
X57029534Y-61230554D01*
X57017982Y-61252164D01*
X57010869Y-61275613D01*
X57008467Y-61299999D01*
X57010869Y-61324385D01*
X57017982Y-61347834D01*
X57029533Y-61369445D01*
X57045078Y-61388387D01*
X57064021Y-61403933D01*
X57103430Y-61430265D01*
X57169733Y-61496568D01*
X57221826Y-61574530D01*
X57221826Y-61574531D01*
X57257708Y-61661157D01*
X57276000Y-61753117D01*
X57276000Y-61846883D01*
X57257708Y-61938843D01*
X57236689Y-61989588D01*
X57221826Y-62025470D01*
X57169733Y-62103432D01*
X57162552Y-62110613D01*
X57147007Y-62129555D01*
X57135456Y-62151166D01*
X57128343Y-62174615D01*
X57125941Y-62199001D01*
X57128343Y-62223387D01*
X57135456Y-62246836D01*
X57147007Y-62268447D01*
X57162552Y-62287389D01*
X57181494Y-62302934D01*
X57203105Y-62314485D01*
X57226554Y-62321598D01*
X57250940Y-62324000D01*
X57276000Y-62324000D01*
X57276000Y-63276000D01*
X56324000Y-63276000D01*
X56324000Y-62324000D01*
X56349060Y-62324000D01*
X56373446Y-62321598D01*
X56396895Y-62314485D01*
X56418506Y-62302934D01*
X56437448Y-62287389D01*
X56452993Y-62268447D01*
X56464544Y-62246836D01*
X56471657Y-62223387D01*
X56474059Y-62199001D01*
X56471657Y-62174615D01*
X56464544Y-62151166D01*
X56452993Y-62129555D01*
X56437448Y-62110613D01*
X56430267Y-62103432D01*
X56378174Y-62025470D01*
X56363311Y-61989588D01*
X56342292Y-61938843D01*
X56324000Y-61846883D01*
X56324000Y-61753117D01*
X56342292Y-61661157D01*
X56378174Y-61574531D01*
X56378174Y-61574530D01*
X56430267Y-61496568D01*
X56496570Y-61430265D01*
X56535979Y-61403933D01*
X56554921Y-61388388D01*
X56570466Y-61369446D01*
X56582018Y-61347836D01*
X56589131Y-61324387D01*
X56591533Y-61300001D01*
X56589131Y-61275615D01*
X56582018Y-61252166D01*
X56570467Y-61230555D01*
X56554922Y-61211613D01*
X56535979Y-61196067D01*
X56496570Y-61169735D01*
X56430267Y-61103432D01*
X56378174Y-61025470D01*
X56363311Y-60989588D01*
X56342292Y-60938843D01*
X56324000Y-60846883D01*
X56324000Y-60753117D01*
X56342292Y-60661157D01*
X56378174Y-60574531D01*
X56378174Y-60574530D01*
X56430267Y-60496568D01*
X56496570Y-60430265D01*
X56535979Y-60403933D01*
X56554921Y-60388388D01*
X56570466Y-60369446D01*
X56582018Y-60347836D01*
X56589131Y-60324387D01*
X56591533Y-60300001D01*
X56589131Y-60275615D01*
X56582018Y-60252166D01*
X56570467Y-60230555D01*
X56554922Y-60211613D01*
X56535979Y-60196067D01*
X56496570Y-60169735D01*
X56430267Y-60103432D01*
X56378174Y-60025470D01*
X56363311Y-59989588D01*
X56342292Y-59938843D01*
X56324000Y-59846883D01*
X56324000Y-59753117D01*
X56342292Y-59661157D01*
X56378174Y-59574531D01*
X56378174Y-59574530D01*
X56430267Y-59496568D01*
X56496570Y-59430265D01*
X56535979Y-59403933D01*
X56554921Y-59388388D01*
X56570466Y-59369446D01*
X56582018Y-59347836D01*
X56589131Y-59324387D01*
X56591533Y-59300001D01*
X56589131Y-59275615D01*
X56582018Y-59252166D01*
X56570467Y-59230555D01*
X56554922Y-59211613D01*
X56535979Y-59196067D01*
X56496570Y-59169735D01*
X56430267Y-59103432D01*
X56378174Y-59025470D01*
X56363311Y-58989588D01*
X56342292Y-58938843D01*
X56324000Y-58846883D01*
X56324000Y-58753117D01*
X56342292Y-58661157D01*
X56378174Y-58574531D01*
X56378174Y-58574530D01*
X56430267Y-58496568D01*
X56496570Y-58430265D01*
X56535979Y-58403933D01*
X56554921Y-58388388D01*
X56570466Y-58369446D01*
X56582018Y-58347836D01*
X56589131Y-58324387D01*
X56591533Y-58300001D01*
X56589131Y-58275615D01*
X56582018Y-58252166D01*
X56570467Y-58230555D01*
X56554922Y-58211613D01*
X56535979Y-58196067D01*
X56496570Y-58169735D01*
X56430267Y-58103432D01*
X56378174Y-58025470D01*
X56363311Y-57989588D01*
X56342292Y-57938843D01*
X56324000Y-57846883D01*
X56324000Y-57753117D01*
X56342292Y-57661157D01*
X56378174Y-57574531D01*
X56378174Y-57574530D01*
X56430267Y-57496568D01*
X56496568Y-57430267D01*
X56574530Y-57378174D01*
X56610412Y-57363311D01*
X56661157Y-57342292D01*
X56753117Y-57324000D01*
X56846883Y-57324000D01*
X56938843Y-57342292D01*
G37*
G36*
X124877487Y-52271184D02*
G01*
X125095487Y-52361483D01*
X125249636Y-52425333D01*
X125584561Y-52649123D01*
X125869390Y-52933952D01*
X126093180Y-53268877D01*
X126157030Y-53423026D01*
X126247329Y-53641026D01*
X126325913Y-54036094D01*
X126325913Y-54438906D01*
X126247329Y-54833974D01*
X126163335Y-55036753D01*
X126093180Y-55206123D01*
X125869390Y-55541048D01*
X125584561Y-55825877D01*
X125249636Y-56049667D01*
X125095487Y-56113517D01*
X124877487Y-56203816D01*
X124482419Y-56282400D01*
X124079607Y-56282400D01*
X123684539Y-56203816D01*
X123466539Y-56113517D01*
X123312390Y-56049667D01*
X122977465Y-55825877D01*
X122692636Y-55541048D01*
X122468846Y-55206123D01*
X122398691Y-55036753D01*
X122314697Y-54833974D01*
X122236113Y-54438906D01*
X122236113Y-54036094D01*
X122314697Y-53641026D01*
X122404996Y-53423026D01*
X122468846Y-53268877D01*
X122692636Y-52933952D01*
X122977465Y-52649123D01*
X123312390Y-52425333D01*
X123466539Y-52361483D01*
X123684539Y-52271184D01*
X124079607Y-52192600D01*
X124482419Y-52192600D01*
X124877487Y-52271184D01*
G37*
G36*
X105583974Y-52271184D02*
G01*
X105801974Y-52361483D01*
X105956123Y-52425333D01*
X106291048Y-52649123D01*
X106575877Y-52933952D01*
X106799667Y-53268877D01*
X106863517Y-53423026D01*
X106953816Y-53641026D01*
X107032400Y-54036094D01*
X107032400Y-54438906D01*
X106953816Y-54833974D01*
X106869822Y-55036753D01*
X106799667Y-55206123D01*
X106575877Y-55541048D01*
X106291048Y-55825877D01*
X105956123Y-56049667D01*
X105801974Y-56113517D01*
X105583974Y-56203816D01*
X105188906Y-56282400D01*
X104786094Y-56282400D01*
X104391026Y-56203816D01*
X104173026Y-56113517D01*
X104018877Y-56049667D01*
X103683952Y-55825877D01*
X103399123Y-55541048D01*
X103175333Y-55206123D01*
X103105178Y-55036753D01*
X103021184Y-54833974D01*
X102942600Y-54438906D01*
X102942600Y-54036094D01*
X103021184Y-53641026D01*
X103111483Y-53423026D01*
X103175333Y-53268877D01*
X103399123Y-52933952D01*
X103683952Y-52649123D01*
X104018877Y-52425333D01*
X104173026Y-52361483D01*
X104391026Y-52271184D01*
X104786094Y-52192600D01*
X105188906Y-52192600D01*
X105583974Y-52271184D01*
G37*
G36*
X86533974Y-52271184D02*
G01*
X86751974Y-52361483D01*
X86906123Y-52425333D01*
X87241048Y-52649123D01*
X87525877Y-52933952D01*
X87749667Y-53268877D01*
X87813517Y-53423026D01*
X87903816Y-53641026D01*
X87982400Y-54036094D01*
X87982400Y-54438906D01*
X87903816Y-54833974D01*
X87819822Y-55036753D01*
X87749667Y-55206123D01*
X87525877Y-55541048D01*
X87241048Y-55825877D01*
X86906123Y-56049667D01*
X86751974Y-56113517D01*
X86533974Y-56203816D01*
X86138906Y-56282400D01*
X85736094Y-56282400D01*
X85341026Y-56203816D01*
X85123026Y-56113517D01*
X84968877Y-56049667D01*
X84633952Y-55825877D01*
X84349123Y-55541048D01*
X84125333Y-55206123D01*
X84055178Y-55036753D01*
X83971184Y-54833974D01*
X83892600Y-54438906D01*
X83892600Y-54036094D01*
X83971184Y-53641026D01*
X84061483Y-53423026D01*
X84125333Y-53268877D01*
X84349123Y-52933952D01*
X84633952Y-52649123D01*
X84968877Y-52425333D01*
X85123026Y-52361483D01*
X85341026Y-52271184D01*
X85736094Y-52192600D01*
X86138906Y-52192600D01*
X86533974Y-52271184D01*
G37*
G36*
X143683974Y-52271184D02*
G01*
X143901974Y-52361483D01*
X144056123Y-52425333D01*
X144391048Y-52649123D01*
X144675877Y-52933952D01*
X144899667Y-53268877D01*
X144963517Y-53423026D01*
X145053816Y-53641026D01*
X145132400Y-54036094D01*
X145132400Y-54438906D01*
X145053816Y-54833974D01*
X144969822Y-55036753D01*
X144899667Y-55206123D01*
X144675877Y-55541048D01*
X144391048Y-55825877D01*
X144056123Y-56049667D01*
X143901974Y-56113517D01*
X143683974Y-56203816D01*
X143288906Y-56282400D01*
X142886094Y-56282400D01*
X142491026Y-56203816D01*
X142273026Y-56113517D01*
X142118877Y-56049667D01*
X141783952Y-55825877D01*
X141499123Y-55541048D01*
X141275333Y-55206123D01*
X141205178Y-55036753D01*
X141121184Y-54833974D01*
X141042600Y-54438906D01*
X141042600Y-54036094D01*
X141121184Y-53641026D01*
X141211483Y-53423026D01*
X141275333Y-53268877D01*
X141499123Y-52933952D01*
X141783952Y-52649123D01*
X142118877Y-52425333D01*
X142273026Y-52361483D01*
X142491026Y-52271184D01*
X142886094Y-52192600D01*
X143288906Y-52192600D01*
X143683974Y-52271184D01*
G37*
G36*
X67483974Y-52271184D02*
G01*
X67701974Y-52361483D01*
X67856123Y-52425333D01*
X68191048Y-52649123D01*
X68475877Y-52933952D01*
X68699667Y-53268877D01*
X68763517Y-53423026D01*
X68853816Y-53641026D01*
X68932400Y-54036094D01*
X68932400Y-54438906D01*
X68853816Y-54833974D01*
X68769822Y-55036753D01*
X68699667Y-55206123D01*
X68475877Y-55541048D01*
X68191048Y-55825877D01*
X67856123Y-56049667D01*
X67701974Y-56113517D01*
X67483974Y-56203816D01*
X67088906Y-56282400D01*
X66686094Y-56282400D01*
X66291026Y-56203816D01*
X66073026Y-56113517D01*
X65918877Y-56049667D01*
X65583952Y-55825877D01*
X65299123Y-55541048D01*
X65075333Y-55206123D01*
X65005178Y-55036753D01*
X64921184Y-54833974D01*
X64842600Y-54438906D01*
X64842600Y-54036094D01*
X64921184Y-53641026D01*
X65011483Y-53423026D01*
X65075333Y-53268877D01*
X65299123Y-52933952D01*
X65583952Y-52649123D01*
X65918877Y-52425333D01*
X66073026Y-52361483D01*
X66291026Y-52271184D01*
X66686094Y-52192600D01*
X67088906Y-52192600D01*
X67483974Y-52271184D01*
G37*
G36*
X61983452Y-53352930D02*
G01*
X62070575Y-53370259D01*
X62179998Y-53415584D01*
X62234711Y-53438247D01*
X62381433Y-53536283D01*
X62382428Y-53536948D01*
X62508052Y-53662572D01*
X62508054Y-53662575D01*
X62606753Y-53810289D01*
X62606753Y-53810290D01*
X62674741Y-53974425D01*
X62709400Y-54148671D01*
X62709400Y-54326329D01*
X62674741Y-54500575D01*
X62629416Y-54609998D01*
X62606753Y-54664711D01*
X62508717Y-54811433D01*
X62508052Y-54812428D01*
X62382428Y-54938052D01*
X62382425Y-54938054D01*
X62234711Y-55036753D01*
X62179998Y-55059416D01*
X62070575Y-55104741D01*
X61983452Y-55122071D01*
X61896331Y-55139400D01*
X61718669Y-55139400D01*
X61631548Y-55122071D01*
X61544425Y-55104741D01*
X61435002Y-55059416D01*
X61380289Y-55036753D01*
X61232575Y-54938054D01*
X61232572Y-54938052D01*
X61106948Y-54812428D01*
X61106283Y-54811433D01*
X61008247Y-54664711D01*
X60985584Y-54609998D01*
X60940259Y-54500575D01*
X60905600Y-54326329D01*
X60905600Y-54148671D01*
X60940259Y-53974425D01*
X61008247Y-53810290D01*
X61008247Y-53810289D01*
X61106946Y-53662575D01*
X61106948Y-53662572D01*
X61232572Y-53536948D01*
X61233567Y-53536283D01*
X61380289Y-53438247D01*
X61435002Y-53415584D01*
X61544425Y-53370259D01*
X61631548Y-53352930D01*
X61718669Y-53335600D01*
X61896331Y-53335600D01*
X61983452Y-53352930D01*
G37*
G36*
X72143452Y-53352930D02*
G01*
X72230575Y-53370259D01*
X72339998Y-53415584D01*
X72394711Y-53438247D01*
X72541433Y-53536283D01*
X72542428Y-53536948D01*
X72668052Y-53662572D01*
X72668054Y-53662575D01*
X72766753Y-53810289D01*
X72766753Y-53810290D01*
X72834741Y-53974425D01*
X72869400Y-54148671D01*
X72869400Y-54326329D01*
X72834741Y-54500575D01*
X72789416Y-54609998D01*
X72766753Y-54664711D01*
X72668717Y-54811433D01*
X72668052Y-54812428D01*
X72542428Y-54938052D01*
X72542425Y-54938054D01*
X72394711Y-55036753D01*
X72339998Y-55059416D01*
X72230575Y-55104741D01*
X72143452Y-55122071D01*
X72056331Y-55139400D01*
X71878669Y-55139400D01*
X71791548Y-55122071D01*
X71704425Y-55104741D01*
X71595002Y-55059416D01*
X71540289Y-55036753D01*
X71392575Y-54938054D01*
X71392572Y-54938052D01*
X71266948Y-54812428D01*
X71266283Y-54811433D01*
X71168247Y-54664711D01*
X71145584Y-54609998D01*
X71100259Y-54500575D01*
X71065600Y-54326329D01*
X71065600Y-54148671D01*
X71100259Y-53974425D01*
X71168247Y-53810290D01*
X71168247Y-53810289D01*
X71266946Y-53662575D01*
X71266948Y-53662572D01*
X71392572Y-53536948D01*
X71393567Y-53536283D01*
X71540289Y-53438247D01*
X71595002Y-53415584D01*
X71704425Y-53370259D01*
X71791548Y-53352930D01*
X71878669Y-53335600D01*
X72056331Y-53335600D01*
X72143452Y-53352930D01*
G37*
G36*
X81033452Y-53352930D02*
G01*
X81120575Y-53370259D01*
X81229998Y-53415584D01*
X81284711Y-53438247D01*
X81431433Y-53536283D01*
X81432428Y-53536948D01*
X81558052Y-53662572D01*
X81558054Y-53662575D01*
X81656753Y-53810289D01*
X81656753Y-53810290D01*
X81724741Y-53974425D01*
X81759400Y-54148671D01*
X81759400Y-54326329D01*
X81724741Y-54500575D01*
X81679416Y-54609998D01*
X81656753Y-54664711D01*
X81558717Y-54811433D01*
X81558052Y-54812428D01*
X81432428Y-54938052D01*
X81432425Y-54938054D01*
X81284711Y-55036753D01*
X81229998Y-55059416D01*
X81120575Y-55104741D01*
X81033452Y-55122071D01*
X80946331Y-55139400D01*
X80768669Y-55139400D01*
X80681548Y-55122071D01*
X80594425Y-55104741D01*
X80485002Y-55059416D01*
X80430289Y-55036753D01*
X80282575Y-54938054D01*
X80282572Y-54938052D01*
X80156948Y-54812428D01*
X80156283Y-54811433D01*
X80058247Y-54664711D01*
X80035584Y-54609998D01*
X79990259Y-54500575D01*
X79955600Y-54326329D01*
X79955600Y-54148671D01*
X79990259Y-53974425D01*
X80058247Y-53810290D01*
X80058247Y-53810289D01*
X80156946Y-53662575D01*
X80156948Y-53662572D01*
X80282572Y-53536948D01*
X80283567Y-53536283D01*
X80430289Y-53438247D01*
X80485002Y-53415584D01*
X80594425Y-53370259D01*
X80681548Y-53352930D01*
X80768669Y-53335600D01*
X80946331Y-53335600D01*
X81033452Y-53352930D01*
G37*
G36*
X110243452Y-53352930D02*
G01*
X110330575Y-53370259D01*
X110439998Y-53415584D01*
X110494711Y-53438247D01*
X110641433Y-53536283D01*
X110642428Y-53536948D01*
X110768052Y-53662572D01*
X110768054Y-53662575D01*
X110866753Y-53810289D01*
X110866753Y-53810290D01*
X110934741Y-53974425D01*
X110969400Y-54148671D01*
X110969400Y-54326329D01*
X110934741Y-54500575D01*
X110889416Y-54609998D01*
X110866753Y-54664711D01*
X110768717Y-54811433D01*
X110768052Y-54812428D01*
X110642428Y-54938052D01*
X110642425Y-54938054D01*
X110494711Y-55036753D01*
X110439998Y-55059416D01*
X110330575Y-55104741D01*
X110243452Y-55122071D01*
X110156331Y-55139400D01*
X109978669Y-55139400D01*
X109891548Y-55122071D01*
X109804425Y-55104741D01*
X109695002Y-55059416D01*
X109640289Y-55036753D01*
X109492575Y-54938054D01*
X109492572Y-54938052D01*
X109366948Y-54812428D01*
X109366283Y-54811433D01*
X109268247Y-54664711D01*
X109245584Y-54609998D01*
X109200259Y-54500575D01*
X109165600Y-54326329D01*
X109165600Y-54148671D01*
X109200259Y-53974425D01*
X109268247Y-53810290D01*
X109268247Y-53810289D01*
X109366946Y-53662575D01*
X109366948Y-53662572D01*
X109492572Y-53536948D01*
X109493567Y-53536283D01*
X109640289Y-53438247D01*
X109695002Y-53415584D01*
X109804425Y-53370259D01*
X109891548Y-53352930D01*
X109978669Y-53335600D01*
X110156331Y-53335600D01*
X110243452Y-53352930D01*
G37*
G36*
X91193452Y-53352930D02*
G01*
X91280575Y-53370259D01*
X91389998Y-53415584D01*
X91444711Y-53438247D01*
X91591433Y-53536283D01*
X91592428Y-53536948D01*
X91718052Y-53662572D01*
X91718054Y-53662575D01*
X91816753Y-53810289D01*
X91816753Y-53810290D01*
X91884741Y-53974425D01*
X91919400Y-54148671D01*
X91919400Y-54326329D01*
X91884741Y-54500575D01*
X91839416Y-54609998D01*
X91816753Y-54664711D01*
X91718717Y-54811433D01*
X91718052Y-54812428D01*
X91592428Y-54938052D01*
X91592425Y-54938054D01*
X91444711Y-55036753D01*
X91389998Y-55059416D01*
X91280575Y-55104741D01*
X91193452Y-55122071D01*
X91106331Y-55139400D01*
X90928669Y-55139400D01*
X90841548Y-55122071D01*
X90754425Y-55104741D01*
X90645002Y-55059416D01*
X90590289Y-55036753D01*
X90442575Y-54938054D01*
X90442572Y-54938052D01*
X90316948Y-54812428D01*
X90316283Y-54811433D01*
X90218247Y-54664711D01*
X90195584Y-54609998D01*
X90150259Y-54500575D01*
X90115600Y-54326329D01*
X90115600Y-54148671D01*
X90150259Y-53974425D01*
X90218247Y-53810290D01*
X90218247Y-53810289D01*
X90316946Y-53662575D01*
X90316948Y-53662572D01*
X90442572Y-53536948D01*
X90443567Y-53536283D01*
X90590289Y-53438247D01*
X90645002Y-53415584D01*
X90754425Y-53370259D01*
X90841548Y-53352930D01*
X90928669Y-53335600D01*
X91106331Y-53335600D01*
X91193452Y-53352930D01*
G37*
G36*
X100083452Y-53352930D02*
G01*
X100170575Y-53370259D01*
X100279998Y-53415584D01*
X100334711Y-53438247D01*
X100481433Y-53536283D01*
X100482428Y-53536948D01*
X100608052Y-53662572D01*
X100608054Y-53662575D01*
X100706753Y-53810289D01*
X100706753Y-53810290D01*
X100774741Y-53974425D01*
X100809400Y-54148671D01*
X100809400Y-54326329D01*
X100774741Y-54500575D01*
X100729416Y-54609998D01*
X100706753Y-54664711D01*
X100608717Y-54811433D01*
X100608052Y-54812428D01*
X100482428Y-54938052D01*
X100482425Y-54938054D01*
X100334711Y-55036753D01*
X100279998Y-55059416D01*
X100170575Y-55104741D01*
X100083452Y-55122071D01*
X99996331Y-55139400D01*
X99818669Y-55139400D01*
X99731548Y-55122071D01*
X99644425Y-55104741D01*
X99535002Y-55059416D01*
X99480289Y-55036753D01*
X99332575Y-54938054D01*
X99332572Y-54938052D01*
X99206948Y-54812428D01*
X99206283Y-54811433D01*
X99108247Y-54664711D01*
X99085584Y-54609998D01*
X99040259Y-54500575D01*
X99005600Y-54326329D01*
X99005600Y-54148671D01*
X99040259Y-53974425D01*
X99108247Y-53810290D01*
X99108247Y-53810289D01*
X99206946Y-53662575D01*
X99206948Y-53662572D01*
X99332572Y-53536948D01*
X99333567Y-53536283D01*
X99480289Y-53438247D01*
X99535002Y-53415584D01*
X99644425Y-53370259D01*
X99731548Y-53352930D01*
X99818669Y-53335600D01*
X99996331Y-53335600D01*
X100083452Y-53352930D01*
G37*
G36*
X119376965Y-53352930D02*
G01*
X119464088Y-53370259D01*
X119573511Y-53415584D01*
X119628224Y-53438247D01*
X119774946Y-53536283D01*
X119775941Y-53536948D01*
X119901565Y-53662572D01*
X119901567Y-53662575D01*
X120000266Y-53810289D01*
X120000266Y-53810290D01*
X120068254Y-53974425D01*
X120102913Y-54148671D01*
X120102913Y-54326329D01*
X120068254Y-54500575D01*
X120022929Y-54609998D01*
X120000266Y-54664711D01*
X119902230Y-54811433D01*
X119901565Y-54812428D01*
X119775941Y-54938052D01*
X119775938Y-54938054D01*
X119628224Y-55036753D01*
X119573511Y-55059416D01*
X119464088Y-55104741D01*
X119376965Y-55122071D01*
X119289844Y-55139400D01*
X119112182Y-55139400D01*
X119025061Y-55122071D01*
X118937938Y-55104741D01*
X118828515Y-55059416D01*
X118773802Y-55036753D01*
X118626088Y-54938054D01*
X118626085Y-54938052D01*
X118500461Y-54812428D01*
X118499796Y-54811433D01*
X118401760Y-54664711D01*
X118379097Y-54609998D01*
X118333772Y-54500575D01*
X118299113Y-54326329D01*
X118299113Y-54148671D01*
X118333772Y-53974425D01*
X118401760Y-53810290D01*
X118401760Y-53810289D01*
X118500459Y-53662575D01*
X118500461Y-53662572D01*
X118626085Y-53536948D01*
X118627080Y-53536283D01*
X118773802Y-53438247D01*
X118828515Y-53415584D01*
X118937938Y-53370259D01*
X119025061Y-53352930D01*
X119112182Y-53335600D01*
X119289844Y-53335600D01*
X119376965Y-53352930D01*
G37*
G36*
X129536965Y-53352930D02*
G01*
X129624088Y-53370259D01*
X129733511Y-53415584D01*
X129788224Y-53438247D01*
X129934946Y-53536283D01*
X129935941Y-53536948D01*
X130061565Y-53662572D01*
X130061567Y-53662575D01*
X130160266Y-53810289D01*
X130160266Y-53810290D01*
X130228254Y-53974425D01*
X130262913Y-54148671D01*
X130262913Y-54326329D01*
X130228254Y-54500575D01*
X130182929Y-54609998D01*
X130160266Y-54664711D01*
X130062230Y-54811433D01*
X130061565Y-54812428D01*
X129935941Y-54938052D01*
X129935938Y-54938054D01*
X129788224Y-55036753D01*
X129733511Y-55059416D01*
X129624088Y-55104741D01*
X129536965Y-55122071D01*
X129449844Y-55139400D01*
X129272182Y-55139400D01*
X129185061Y-55122071D01*
X129097938Y-55104741D01*
X128988515Y-55059416D01*
X128933802Y-55036753D01*
X128786088Y-54938054D01*
X128786085Y-54938052D01*
X128660461Y-54812428D01*
X128659796Y-54811433D01*
X128561760Y-54664711D01*
X128539097Y-54609998D01*
X128493772Y-54500575D01*
X128459113Y-54326329D01*
X128459113Y-54148671D01*
X128493772Y-53974425D01*
X128561760Y-53810290D01*
X128561760Y-53810289D01*
X128660459Y-53662575D01*
X128660461Y-53662572D01*
X128786085Y-53536948D01*
X128787080Y-53536283D01*
X128933802Y-53438247D01*
X128988515Y-53415584D01*
X129097938Y-53370259D01*
X129185061Y-53352930D01*
X129272182Y-53335600D01*
X129449844Y-53335600D01*
X129536965Y-53352930D01*
G37*
G36*
X138183452Y-53352930D02*
G01*
X138270575Y-53370259D01*
X138379998Y-53415584D01*
X138434711Y-53438247D01*
X138581433Y-53536283D01*
X138582428Y-53536948D01*
X138708052Y-53662572D01*
X138708054Y-53662575D01*
X138806753Y-53810289D01*
X138806753Y-53810290D01*
X138874741Y-53974425D01*
X138909400Y-54148671D01*
X138909400Y-54326329D01*
X138874741Y-54500575D01*
X138829416Y-54609998D01*
X138806753Y-54664711D01*
X138708717Y-54811433D01*
X138708052Y-54812428D01*
X138582428Y-54938052D01*
X138582425Y-54938054D01*
X138434711Y-55036753D01*
X138379998Y-55059416D01*
X138270575Y-55104741D01*
X138183452Y-55122071D01*
X138096331Y-55139400D01*
X137918669Y-55139400D01*
X137831548Y-55122071D01*
X137744425Y-55104741D01*
X137635002Y-55059416D01*
X137580289Y-55036753D01*
X137432575Y-54938054D01*
X137432572Y-54938052D01*
X137306948Y-54812428D01*
X137306283Y-54811433D01*
X137208247Y-54664711D01*
X137185584Y-54609998D01*
X137140259Y-54500575D01*
X137105600Y-54326329D01*
X137105600Y-54148671D01*
X137140259Y-53974425D01*
X137208247Y-53810290D01*
X137208247Y-53810289D01*
X137306946Y-53662575D01*
X137306948Y-53662572D01*
X137432572Y-53536948D01*
X137433567Y-53536283D01*
X137580289Y-53438247D01*
X137635002Y-53415584D01*
X137744425Y-53370259D01*
X137831548Y-53352930D01*
X137918669Y-53335600D01*
X138096331Y-53335600D01*
X138183452Y-53352930D01*
G37*
G36*
X148343452Y-53352930D02*
G01*
X148430575Y-53370259D01*
X148539998Y-53415584D01*
X148594711Y-53438247D01*
X148741433Y-53536283D01*
X148742428Y-53536948D01*
X148868052Y-53662572D01*
X148868054Y-53662575D01*
X148966753Y-53810289D01*
X148966753Y-53810290D01*
X149034741Y-53974425D01*
X149069400Y-54148671D01*
X149069400Y-54326329D01*
X149034741Y-54500575D01*
X148989416Y-54609998D01*
X148966753Y-54664711D01*
X148868717Y-54811433D01*
X148868052Y-54812428D01*
X148742428Y-54938052D01*
X148742425Y-54938054D01*
X148594711Y-55036753D01*
X148539998Y-55059416D01*
X148430575Y-55104741D01*
X148343452Y-55122071D01*
X148256331Y-55139400D01*
X148078669Y-55139400D01*
X147991548Y-55122071D01*
X147904425Y-55104741D01*
X147795002Y-55059416D01*
X147740289Y-55036753D01*
X147592575Y-54938054D01*
X147592572Y-54938052D01*
X147466948Y-54812428D01*
X147466283Y-54811433D01*
X147368247Y-54664711D01*
X147345584Y-54609998D01*
X147300259Y-54500575D01*
X147265600Y-54326329D01*
X147265600Y-54148671D01*
X147300259Y-53974425D01*
X147368247Y-53810290D01*
X147368247Y-53810289D01*
X147466946Y-53662575D01*
X147466948Y-53662572D01*
X147592572Y-53536948D01*
X147593567Y-53536283D01*
X147740289Y-53438247D01*
X147795002Y-53415584D01*
X147904425Y-53370259D01*
X147991548Y-53352930D01*
X148078669Y-53335600D01*
X148256331Y-53335600D01*
X148343452Y-53352930D01*
G37*
G36*
X101480085Y-50176302D02*
G01*
X101629910Y-50206104D01*
X101912174Y-50323021D01*
X102166205Y-50492759D01*
X102382241Y-50708795D01*
X102551979Y-50962826D01*
X102668896Y-51245090D01*
X102728500Y-51544740D01*
X102728500Y-51850260D01*
X102668896Y-52149910D01*
X102551979Y-52432174D01*
X102382241Y-52686205D01*
X102166205Y-52902241D01*
X101912174Y-53071979D01*
X101629910Y-53188896D01*
X101480085Y-53218698D01*
X101330261Y-53248500D01*
X101024739Y-53248500D01*
X100874915Y-53218698D01*
X100725090Y-53188896D01*
X100442826Y-53071979D01*
X100188795Y-52902241D01*
X99972759Y-52686205D01*
X99803021Y-52432174D01*
X99686104Y-52149910D01*
X99626500Y-51850260D01*
X99626500Y-51544740D01*
X99686104Y-51245090D01*
X99803021Y-50962826D01*
X99972759Y-50708795D01*
X100188795Y-50492759D01*
X100442826Y-50323021D01*
X100725090Y-50206104D01*
X100874915Y-50176302D01*
X101024739Y-50146500D01*
X101330261Y-50146500D01*
X101480085Y-50176302D01*
G37*
G36*
X120773598Y-50176302D02*
G01*
X120923423Y-50206104D01*
X121205687Y-50323021D01*
X121459718Y-50492759D01*
X121675754Y-50708795D01*
X121845492Y-50962826D01*
X121962409Y-51245090D01*
X122022013Y-51544740D01*
X122022013Y-51850260D01*
X121962409Y-52149910D01*
X121845492Y-52432174D01*
X121675754Y-52686205D01*
X121459718Y-52902241D01*
X121205687Y-53071979D01*
X120923423Y-53188896D01*
X120773598Y-53218698D01*
X120623774Y-53248500D01*
X120318252Y-53248500D01*
X120168428Y-53218698D01*
X120018603Y-53188896D01*
X119736339Y-53071979D01*
X119482308Y-52902241D01*
X119266272Y-52686205D01*
X119096534Y-52432174D01*
X118979617Y-52149910D01*
X118920013Y-51850260D01*
X118920013Y-51544740D01*
X118979617Y-51245090D01*
X119096534Y-50962826D01*
X119266272Y-50708795D01*
X119482308Y-50492759D01*
X119736339Y-50323021D01*
X120018603Y-50206104D01*
X120168428Y-50176302D01*
X120318252Y-50146500D01*
X120623774Y-50146500D01*
X120773598Y-50176302D01*
G37*
G36*
X63380085Y-50176302D02*
G01*
X63529910Y-50206104D01*
X63812174Y-50323021D01*
X64066205Y-50492759D01*
X64282241Y-50708795D01*
X64451979Y-50962826D01*
X64568896Y-51245090D01*
X64628500Y-51544740D01*
X64628500Y-51850260D01*
X64568896Y-52149910D01*
X64451979Y-52432174D01*
X64282241Y-52686205D01*
X64066205Y-52902241D01*
X63812174Y-53071979D01*
X63529910Y-53188896D01*
X63380085Y-53218698D01*
X63230261Y-53248500D01*
X62924739Y-53248500D01*
X62774915Y-53218698D01*
X62625090Y-53188896D01*
X62342826Y-53071979D01*
X62088795Y-52902241D01*
X61872759Y-52686205D01*
X61703021Y-52432174D01*
X61586104Y-52149910D01*
X61526500Y-51850260D01*
X61526500Y-51544740D01*
X61586104Y-51245090D01*
X61703021Y-50962826D01*
X61872759Y-50708795D01*
X62088795Y-50492759D01*
X62342826Y-50323021D01*
X62625090Y-50206104D01*
X62774915Y-50176302D01*
X62924739Y-50146500D01*
X63230261Y-50146500D01*
X63380085Y-50176302D01*
G37*
G36*
X82430085Y-50176302D02*
G01*
X82579910Y-50206104D01*
X82862174Y-50323021D01*
X83116205Y-50492759D01*
X83332241Y-50708795D01*
X83501979Y-50962826D01*
X83618896Y-51245090D01*
X83678500Y-51544740D01*
X83678500Y-51850260D01*
X83618896Y-52149910D01*
X83501979Y-52432174D01*
X83332241Y-52686205D01*
X83116205Y-52902241D01*
X82862174Y-53071979D01*
X82579910Y-53188896D01*
X82430085Y-53218698D01*
X82280261Y-53248500D01*
X81974739Y-53248500D01*
X81824915Y-53218698D01*
X81675090Y-53188896D01*
X81392826Y-53071979D01*
X81138795Y-52902241D01*
X80922759Y-52686205D01*
X80753021Y-52432174D01*
X80636104Y-52149910D01*
X80576500Y-51850260D01*
X80576500Y-51544740D01*
X80636104Y-51245090D01*
X80753021Y-50962826D01*
X80922759Y-50708795D01*
X81138795Y-50492759D01*
X81392826Y-50323021D01*
X81675090Y-50206104D01*
X81824915Y-50176302D01*
X81974739Y-50146500D01*
X82280261Y-50146500D01*
X82430085Y-50176302D01*
G37*
G36*
X139580085Y-50176302D02*
G01*
X139729910Y-50206104D01*
X140012174Y-50323021D01*
X140266205Y-50492759D01*
X140482241Y-50708795D01*
X140651979Y-50962826D01*
X140768896Y-51245090D01*
X140828500Y-51544740D01*
X140828500Y-51850260D01*
X140768896Y-52149910D01*
X140651979Y-52432174D01*
X140482241Y-52686205D01*
X140266205Y-52902241D01*
X140012174Y-53071979D01*
X139729910Y-53188896D01*
X139580085Y-53218698D01*
X139430261Y-53248500D01*
X139124739Y-53248500D01*
X138974915Y-53218698D01*
X138825090Y-53188896D01*
X138542826Y-53071979D01*
X138288795Y-52902241D01*
X138072759Y-52686205D01*
X137903021Y-52432174D01*
X137786104Y-52149910D01*
X137726500Y-51850260D01*
X137726500Y-51544740D01*
X137786104Y-51245090D01*
X137903021Y-50962826D01*
X138072759Y-50708795D01*
X138288795Y-50492759D01*
X138542826Y-50323021D01*
X138825090Y-50206104D01*
X138974915Y-50176302D01*
X139124739Y-50146500D01*
X139430261Y-50146500D01*
X139580085Y-50176302D01*
G37*
G36*
X136853500Y-52998500D02*
G01*
X134201500Y-52998500D01*
X134201500Y-50396500D01*
X136853500Y-50396500D01*
X136853500Y-52998500D01*
G37*
G36*
X60653500Y-52998500D02*
G01*
X58001500Y-52998500D01*
X58001500Y-50396500D01*
X60653500Y-50396500D01*
X60653500Y-52998500D01*
G37*
G36*
X79703500Y-52998500D02*
G01*
X77051500Y-52998500D01*
X77051500Y-50396500D01*
X79703500Y-50396500D01*
X79703500Y-52998500D01*
G37*
G36*
X98753500Y-52998500D02*
G01*
X96101500Y-52998500D01*
X96101500Y-50396500D01*
X98753500Y-50396500D01*
X98753500Y-52998500D01*
G37*
G36*
X118047013Y-52998500D02*
G01*
X115395013Y-52998500D01*
X115395013Y-50396500D01*
X118047013Y-50396500D01*
X118047013Y-52998500D01*
G37*
G36*
X69730085Y-47636302D02*
G01*
X69879910Y-47666104D01*
X70162174Y-47783021D01*
X70416205Y-47952759D01*
X70632241Y-48168795D01*
X70801979Y-48422826D01*
X70918896Y-48705090D01*
X70978500Y-49004740D01*
X70978500Y-49310260D01*
X70918896Y-49609910D01*
X70801979Y-49892174D01*
X70632241Y-50146205D01*
X70416205Y-50362241D01*
X70162174Y-50531979D01*
X69879910Y-50648896D01*
X69730085Y-50678698D01*
X69580261Y-50708500D01*
X69274739Y-50708500D01*
X69124915Y-50678698D01*
X68975090Y-50648896D01*
X68692826Y-50531979D01*
X68438795Y-50362241D01*
X68222759Y-50146205D01*
X68053021Y-49892174D01*
X67936104Y-49609910D01*
X67876500Y-49310260D01*
X67876500Y-49004740D01*
X67936104Y-48705090D01*
X68053021Y-48422826D01*
X68222759Y-48168795D01*
X68438795Y-47952759D01*
X68692826Y-47783021D01*
X68975090Y-47666104D01*
X69124915Y-47636302D01*
X69274739Y-47606500D01*
X69580261Y-47606500D01*
X69730085Y-47636302D01*
G37*
G36*
X127123598Y-47636302D02*
G01*
X127273423Y-47666104D01*
X127555687Y-47783021D01*
X127809718Y-47952759D01*
X128025754Y-48168795D01*
X128195492Y-48422826D01*
X128312409Y-48705090D01*
X128372013Y-49004740D01*
X128372013Y-49310260D01*
X128312409Y-49609910D01*
X128195492Y-49892174D01*
X128025754Y-50146205D01*
X127809718Y-50362241D01*
X127555687Y-50531979D01*
X127273423Y-50648896D01*
X127123598Y-50678698D01*
X126973774Y-50708500D01*
X126668252Y-50708500D01*
X126518428Y-50678698D01*
X126368603Y-50648896D01*
X126086339Y-50531979D01*
X125832308Y-50362241D01*
X125616272Y-50146205D01*
X125446534Y-49892174D01*
X125329617Y-49609910D01*
X125270013Y-49310260D01*
X125270013Y-49004740D01*
X125329617Y-48705090D01*
X125446534Y-48422826D01*
X125616272Y-48168795D01*
X125832308Y-47952759D01*
X126086339Y-47783021D01*
X126368603Y-47666104D01*
X126518428Y-47636302D01*
X126668252Y-47606500D01*
X126973774Y-47606500D01*
X127123598Y-47636302D01*
G37*
G36*
X88780085Y-47636302D02*
G01*
X88929910Y-47666104D01*
X89212174Y-47783021D01*
X89466205Y-47952759D01*
X89682241Y-48168795D01*
X89851979Y-48422826D01*
X89968896Y-48705090D01*
X90028500Y-49004740D01*
X90028500Y-49310260D01*
X89968896Y-49609910D01*
X89851979Y-49892174D01*
X89682241Y-50146205D01*
X89466205Y-50362241D01*
X89212174Y-50531979D01*
X88929910Y-50648896D01*
X88780085Y-50678698D01*
X88630261Y-50708500D01*
X88324739Y-50708500D01*
X88174915Y-50678698D01*
X88025090Y-50648896D01*
X87742826Y-50531979D01*
X87488795Y-50362241D01*
X87272759Y-50146205D01*
X87103021Y-49892174D01*
X86986104Y-49609910D01*
X86926500Y-49310260D01*
X86926500Y-49004740D01*
X86986104Y-48705090D01*
X87103021Y-48422826D01*
X87272759Y-48168795D01*
X87488795Y-47952759D01*
X87742826Y-47783021D01*
X88025090Y-47666104D01*
X88174915Y-47636302D01*
X88324739Y-47606500D01*
X88630261Y-47606500D01*
X88780085Y-47636302D01*
G37*
G36*
X107830085Y-47636302D02*
G01*
X107979910Y-47666104D01*
X108262174Y-47783021D01*
X108516205Y-47952759D01*
X108732241Y-48168795D01*
X108901979Y-48422826D01*
X109018896Y-48705090D01*
X109078500Y-49004740D01*
X109078500Y-49310260D01*
X109018896Y-49609910D01*
X108901979Y-49892174D01*
X108732241Y-50146205D01*
X108516205Y-50362241D01*
X108262174Y-50531979D01*
X107979910Y-50648896D01*
X107830085Y-50678698D01*
X107680261Y-50708500D01*
X107374739Y-50708500D01*
X107224915Y-50678698D01*
X107075090Y-50648896D01*
X106792826Y-50531979D01*
X106538795Y-50362241D01*
X106322759Y-50146205D01*
X106153021Y-49892174D01*
X106036104Y-49609910D01*
X105976500Y-49310260D01*
X105976500Y-49004740D01*
X106036104Y-48705090D01*
X106153021Y-48422826D01*
X106322759Y-48168795D01*
X106538795Y-47952759D01*
X106792826Y-47783021D01*
X107075090Y-47666104D01*
X107224915Y-47636302D01*
X107374739Y-47606500D01*
X107680261Y-47606500D01*
X107830085Y-47636302D01*
G37*
G36*
X145930085Y-47636302D02*
G01*
X146079910Y-47666104D01*
X146362174Y-47783021D01*
X146616205Y-47952759D01*
X146832241Y-48168795D01*
X147001979Y-48422826D01*
X147118896Y-48705090D01*
X147178500Y-49004740D01*
X147178500Y-49310260D01*
X147118896Y-49609910D01*
X147001979Y-49892174D01*
X146832241Y-50146205D01*
X146616205Y-50362241D01*
X146362174Y-50531979D01*
X146079910Y-50648896D01*
X145930085Y-50678698D01*
X145780261Y-50708500D01*
X145474739Y-50708500D01*
X145324915Y-50678698D01*
X145175090Y-50648896D01*
X144892826Y-50531979D01*
X144638795Y-50362241D01*
X144422759Y-50146205D01*
X144253021Y-49892174D01*
X144136104Y-49609910D01*
X144076500Y-49310260D01*
X144076500Y-49004740D01*
X144136104Y-48705090D01*
X144253021Y-48422826D01*
X144422759Y-48168795D01*
X144638795Y-47952759D01*
X144892826Y-47783021D01*
X145175090Y-47666104D01*
X145324915Y-47636302D01*
X145474739Y-47606500D01*
X145780261Y-47606500D01*
X145930085Y-47636302D01*
G37*
G36*
X112603500Y-50458500D02*
G01*
X109951500Y-50458500D01*
X109951500Y-47856500D01*
X112603500Y-47856500D01*
X112603500Y-50458500D01*
G37*
G36*
X93553500Y-50458500D02*
G01*
X90901500Y-50458500D01*
X90901500Y-47856500D01*
X93553500Y-47856500D01*
X93553500Y-50458500D01*
G37*
G36*
X74503500Y-50458500D02*
G01*
X71851500Y-50458500D01*
X71851500Y-47856500D01*
X74503500Y-47856500D01*
X74503500Y-50458500D01*
G37*
G36*
X150703500Y-50458500D02*
G01*
X148051500Y-50458500D01*
X148051500Y-47856500D01*
X150703500Y-47856500D01*
X150703500Y-50458500D01*
G37*
G36*
X131897013Y-50458500D02*
G01*
X129245013Y-50458500D01*
X129245013Y-47856500D01*
X131897013Y-47856500D01*
X131897013Y-50458500D01*
G37*
M02*
