G04 #@! TF.GenerationSoftware,KiCad,Pcbnew,(5.1.5)-3*
G04 #@! TF.CreationDate,2020-05-02T19:50:40+02:00*
G04 #@! TF.ProjectId,kyrremann,6b797272-656d-4616-9e6e-2e6b69636164,rev?*
G04 #@! TF.SameCoordinates,Original*
G04 #@! TF.FileFunction,Soldermask,Top*
G04 #@! TF.FilePolarity,Negative*
%FSLAX46Y46*%
G04 Gerber Fmt 4.6, Leading zero omitted, Abs format (unit mm)*
G04 Created by KiCad (PCBNEW (5.1.5)-3) date 2020-05-02 19:50:40*
%MOMM*%
%LPD*%
G04 APERTURE LIST*
%ADD10C,0.100000*%
G04 APERTURE END LIST*
D10*
G36*
X122043598Y-89311356D02*
G01*
X122193423Y-89341158D01*
X122475687Y-89458075D01*
X122729718Y-89627813D01*
X122945754Y-89843849D01*
X123115492Y-90097880D01*
X123232409Y-90380144D01*
X123292013Y-90679794D01*
X123292013Y-90985314D01*
X123232409Y-91284964D01*
X123115492Y-91567228D01*
X122945754Y-91821259D01*
X122729718Y-92037295D01*
X122475687Y-92207033D01*
X122193423Y-92323950D01*
X122043598Y-92353752D01*
X121893774Y-92383554D01*
X121588252Y-92383554D01*
X121438428Y-92353752D01*
X121288603Y-92323950D01*
X121006339Y-92207033D01*
X120752308Y-92037295D01*
X120536272Y-91821259D01*
X120366534Y-91567228D01*
X120249617Y-91284964D01*
X120190013Y-90985314D01*
X120190013Y-90679794D01*
X120249617Y-90380144D01*
X120366534Y-90097880D01*
X120536272Y-89843849D01*
X120752308Y-89627813D01*
X121006339Y-89458075D01*
X121288603Y-89341158D01*
X121438428Y-89311356D01*
X121588252Y-89281554D01*
X121893774Y-89281554D01*
X122043598Y-89311356D01*
G37*
G36*
X102750085Y-89311356D02*
G01*
X102899910Y-89341158D01*
X103182174Y-89458075D01*
X103436205Y-89627813D01*
X103652241Y-89843849D01*
X103821979Y-90097880D01*
X103938896Y-90380144D01*
X103998500Y-90679794D01*
X103998500Y-90985314D01*
X103938896Y-91284964D01*
X103821979Y-91567228D01*
X103652241Y-91821259D01*
X103436205Y-92037295D01*
X103182174Y-92207033D01*
X102899910Y-92323950D01*
X102750085Y-92353752D01*
X102600261Y-92383554D01*
X102294739Y-92383554D01*
X102144915Y-92353752D01*
X101995090Y-92323950D01*
X101712826Y-92207033D01*
X101458795Y-92037295D01*
X101242759Y-91821259D01*
X101073021Y-91567228D01*
X100956104Y-91284964D01*
X100896500Y-90985314D01*
X100896500Y-90679794D01*
X100956104Y-90380144D01*
X101073021Y-90097880D01*
X101242759Y-89843849D01*
X101458795Y-89627813D01*
X101712826Y-89458075D01*
X101995090Y-89341158D01*
X102144915Y-89311356D01*
X102294739Y-89281554D01*
X102600261Y-89281554D01*
X102750085Y-89311356D01*
G37*
G36*
X64650085Y-89311356D02*
G01*
X64799910Y-89341158D01*
X65082174Y-89458075D01*
X65336205Y-89627813D01*
X65552241Y-89843849D01*
X65721979Y-90097880D01*
X65838896Y-90380144D01*
X65898500Y-90679794D01*
X65898500Y-90985314D01*
X65838896Y-91284964D01*
X65721979Y-91567228D01*
X65552241Y-91821259D01*
X65336205Y-92037295D01*
X65082174Y-92207033D01*
X64799910Y-92323950D01*
X64650085Y-92353752D01*
X64500261Y-92383554D01*
X64194739Y-92383554D01*
X64044915Y-92353752D01*
X63895090Y-92323950D01*
X63612826Y-92207033D01*
X63358795Y-92037295D01*
X63142759Y-91821259D01*
X62973021Y-91567228D01*
X62856104Y-91284964D01*
X62796500Y-90985314D01*
X62796500Y-90679794D01*
X62856104Y-90380144D01*
X62973021Y-90097880D01*
X63142759Y-89843849D01*
X63358795Y-89627813D01*
X63612826Y-89458075D01*
X63895090Y-89341158D01*
X64044915Y-89311356D01*
X64194739Y-89281554D01*
X64500261Y-89281554D01*
X64650085Y-89311356D01*
G37*
G36*
X141093599Y-89311355D02*
G01*
X141243424Y-89341157D01*
X141525688Y-89458074D01*
X141779719Y-89627812D01*
X141995755Y-89843848D01*
X142165493Y-90097879D01*
X142282410Y-90380143D01*
X142342014Y-90679793D01*
X142342014Y-90985313D01*
X142282410Y-91284963D01*
X142165493Y-91567227D01*
X141995755Y-91821258D01*
X141779719Y-92037294D01*
X141525688Y-92207032D01*
X141243424Y-92323949D01*
X141093599Y-92353751D01*
X140943775Y-92383553D01*
X140638253Y-92383553D01*
X140488429Y-92353751D01*
X140338604Y-92323949D01*
X140056340Y-92207032D01*
X139802309Y-92037294D01*
X139586273Y-91821258D01*
X139416535Y-91567227D01*
X139299618Y-91284963D01*
X139240014Y-90985313D01*
X139240014Y-90679793D01*
X139299618Y-90380143D01*
X139416535Y-90097879D01*
X139586273Y-89843848D01*
X139802309Y-89627812D01*
X140056340Y-89458074D01*
X140338604Y-89341157D01*
X140488429Y-89311355D01*
X140638253Y-89281553D01*
X140943775Y-89281553D01*
X141093599Y-89311355D01*
G37*
G36*
X83943598Y-89311355D02*
G01*
X84093423Y-89341157D01*
X84375687Y-89458074D01*
X84629718Y-89627812D01*
X84845754Y-89843848D01*
X85015492Y-90097879D01*
X85132409Y-90380143D01*
X85192013Y-90679793D01*
X85192013Y-90985313D01*
X85132409Y-91284963D01*
X85015492Y-91567227D01*
X84845754Y-91821258D01*
X84629718Y-92037294D01*
X84375687Y-92207032D01*
X84093423Y-92323949D01*
X83943598Y-92353751D01*
X83793774Y-92383553D01*
X83488252Y-92383553D01*
X83338428Y-92353751D01*
X83188603Y-92323949D01*
X82906339Y-92207032D01*
X82652308Y-92037294D01*
X82436272Y-91821258D01*
X82266534Y-91567227D01*
X82149617Y-91284963D01*
X82090013Y-90985313D01*
X82090013Y-90679793D01*
X82149617Y-90380143D01*
X82266534Y-90097879D01*
X82436272Y-89843848D01*
X82652308Y-89627812D01*
X82906339Y-89458074D01*
X83188603Y-89341157D01*
X83338428Y-89311355D01*
X83488252Y-89281553D01*
X83793774Y-89281553D01*
X83943598Y-89311355D01*
G37*
G36*
X109100085Y-86771356D02*
G01*
X109249910Y-86801158D01*
X109532174Y-86918075D01*
X109786205Y-87087813D01*
X110002241Y-87303849D01*
X110171979Y-87557880D01*
X110288896Y-87840144D01*
X110348500Y-88139794D01*
X110348500Y-88445314D01*
X110288896Y-88744964D01*
X110171979Y-89027228D01*
X110002241Y-89281259D01*
X109786205Y-89497295D01*
X109532174Y-89667033D01*
X109249910Y-89783950D01*
X109100085Y-89813752D01*
X108950261Y-89843554D01*
X108644739Y-89843554D01*
X108494915Y-89813752D01*
X108345090Y-89783950D01*
X108062826Y-89667033D01*
X107808795Y-89497295D01*
X107592759Y-89281259D01*
X107423021Y-89027228D01*
X107306104Y-88744964D01*
X107246500Y-88445314D01*
X107246500Y-88139794D01*
X107306104Y-87840144D01*
X107423021Y-87557880D01*
X107592759Y-87303849D01*
X107808795Y-87087813D01*
X108062826Y-86918075D01*
X108345090Y-86801158D01*
X108494915Y-86771356D01*
X108644739Y-86741554D01*
X108950261Y-86741554D01*
X109100085Y-86771356D01*
G37*
G36*
X128393598Y-86771356D02*
G01*
X128543423Y-86801158D01*
X128825687Y-86918075D01*
X129079718Y-87087813D01*
X129295754Y-87303849D01*
X129465492Y-87557880D01*
X129582409Y-87840144D01*
X129642013Y-88139794D01*
X129642013Y-88445314D01*
X129582409Y-88744964D01*
X129465492Y-89027228D01*
X129295754Y-89281259D01*
X129079718Y-89497295D01*
X128825687Y-89667033D01*
X128543423Y-89783950D01*
X128393598Y-89813752D01*
X128243774Y-89843554D01*
X127938252Y-89843554D01*
X127788428Y-89813752D01*
X127638603Y-89783950D01*
X127356339Y-89667033D01*
X127102308Y-89497295D01*
X126886272Y-89281259D01*
X126716534Y-89027228D01*
X126599617Y-88744964D01*
X126540013Y-88445314D01*
X126540013Y-88139794D01*
X126599617Y-87840144D01*
X126716534Y-87557880D01*
X126886272Y-87303849D01*
X127102308Y-87087813D01*
X127356339Y-86918075D01*
X127638603Y-86801158D01*
X127788428Y-86771356D01*
X127938252Y-86741554D01*
X128243774Y-86741554D01*
X128393598Y-86771356D01*
G37*
G36*
X71000085Y-86771356D02*
G01*
X71149910Y-86801158D01*
X71432174Y-86918075D01*
X71686205Y-87087813D01*
X71902241Y-87303849D01*
X72071979Y-87557880D01*
X72188896Y-87840144D01*
X72248500Y-88139794D01*
X72248500Y-88445314D01*
X72188896Y-88744964D01*
X72071979Y-89027228D01*
X71902241Y-89281259D01*
X71686205Y-89497295D01*
X71432174Y-89667033D01*
X71149910Y-89783950D01*
X71000085Y-89813752D01*
X70850261Y-89843554D01*
X70544739Y-89843554D01*
X70394915Y-89813752D01*
X70245090Y-89783950D01*
X69962826Y-89667033D01*
X69708795Y-89497295D01*
X69492759Y-89281259D01*
X69323021Y-89027228D01*
X69206104Y-88744964D01*
X69146500Y-88445314D01*
X69146500Y-88139794D01*
X69206104Y-87840144D01*
X69323021Y-87557880D01*
X69492759Y-87303849D01*
X69708795Y-87087813D01*
X69962826Y-86918075D01*
X70245090Y-86801158D01*
X70394915Y-86771356D01*
X70544739Y-86741554D01*
X70850261Y-86741554D01*
X71000085Y-86771356D01*
G37*
G36*
X90293598Y-86771355D02*
G01*
X90443423Y-86801157D01*
X90725687Y-86918074D01*
X90979718Y-87087812D01*
X91195754Y-87303848D01*
X91365492Y-87557879D01*
X91482409Y-87840143D01*
X91542013Y-88139793D01*
X91542013Y-88445313D01*
X91482409Y-88744963D01*
X91365492Y-89027227D01*
X91195754Y-89281258D01*
X90979718Y-89497294D01*
X90725687Y-89667032D01*
X90443423Y-89783949D01*
X90293598Y-89813751D01*
X90143774Y-89843553D01*
X89838252Y-89843553D01*
X89688428Y-89813751D01*
X89538603Y-89783949D01*
X89256339Y-89667032D01*
X89002308Y-89497294D01*
X88786272Y-89281258D01*
X88616534Y-89027227D01*
X88499617Y-88744963D01*
X88440013Y-88445313D01*
X88440013Y-88139793D01*
X88499617Y-87840143D01*
X88616534Y-87557879D01*
X88786272Y-87303848D01*
X89002308Y-87087812D01*
X89256339Y-86918074D01*
X89538603Y-86801157D01*
X89688428Y-86771355D01*
X89838252Y-86741553D01*
X90143774Y-86741553D01*
X90293598Y-86771355D01*
G37*
G36*
X147443599Y-86771355D02*
G01*
X147593424Y-86801157D01*
X147875688Y-86918074D01*
X148129719Y-87087812D01*
X148345755Y-87303848D01*
X148515493Y-87557879D01*
X148632410Y-87840143D01*
X148692014Y-88139793D01*
X148692014Y-88445313D01*
X148632410Y-88744963D01*
X148515493Y-89027227D01*
X148345755Y-89281258D01*
X148129719Y-89497294D01*
X147875688Y-89667032D01*
X147593424Y-89783949D01*
X147443599Y-89813751D01*
X147293775Y-89843553D01*
X146988253Y-89843553D01*
X146838429Y-89813751D01*
X146688604Y-89783949D01*
X146406340Y-89667032D01*
X146152309Y-89497294D01*
X145936273Y-89281258D01*
X145766535Y-89027227D01*
X145649618Y-88744963D01*
X145590014Y-88445313D01*
X145590014Y-88139793D01*
X145649618Y-87840143D01*
X145766535Y-87557879D01*
X145936273Y-87303848D01*
X146152309Y-87087812D01*
X146406340Y-86918074D01*
X146688604Y-86801157D01*
X146838429Y-86771355D01*
X146988253Y-86741553D01*
X147293775Y-86741553D01*
X147443599Y-86771355D01*
G37*
G36*
X124877487Y-83786238D02*
G01*
X125062872Y-83863027D01*
X125249636Y-83940387D01*
X125584561Y-84164177D01*
X125869390Y-84449006D01*
X126093180Y-84783931D01*
X126157030Y-84938080D01*
X126247329Y-85156080D01*
X126325913Y-85551148D01*
X126325913Y-85953960D01*
X126247329Y-86349028D01*
X126163335Y-86551806D01*
X126093180Y-86721177D01*
X125869390Y-87056102D01*
X125584561Y-87340931D01*
X125249636Y-87564721D01*
X125095487Y-87628571D01*
X124877487Y-87718870D01*
X124482419Y-87797454D01*
X124079607Y-87797454D01*
X123684539Y-87718870D01*
X123466539Y-87628571D01*
X123312390Y-87564721D01*
X122977465Y-87340931D01*
X122692636Y-87056102D01*
X122468846Y-86721177D01*
X122398691Y-86551806D01*
X122314697Y-86349028D01*
X122236113Y-85953960D01*
X122236113Y-85551148D01*
X122314697Y-85156080D01*
X122404996Y-84938080D01*
X122468846Y-84783931D01*
X122692636Y-84449006D01*
X122977465Y-84164177D01*
X123312390Y-83940387D01*
X123499154Y-83863027D01*
X123684539Y-83786238D01*
X124079607Y-83707654D01*
X124482419Y-83707654D01*
X124877487Y-83786238D01*
G37*
G36*
X67483974Y-83786238D02*
G01*
X67669359Y-83863027D01*
X67856123Y-83940387D01*
X68191048Y-84164177D01*
X68475877Y-84449006D01*
X68699667Y-84783931D01*
X68763517Y-84938080D01*
X68853816Y-85156080D01*
X68932400Y-85551148D01*
X68932400Y-85953960D01*
X68853816Y-86349028D01*
X68769822Y-86551806D01*
X68699667Y-86721177D01*
X68475877Y-87056102D01*
X68191048Y-87340931D01*
X67856123Y-87564721D01*
X67701974Y-87628571D01*
X67483974Y-87718870D01*
X67088906Y-87797454D01*
X66686094Y-87797454D01*
X66291026Y-87718870D01*
X66073026Y-87628571D01*
X65918877Y-87564721D01*
X65583952Y-87340931D01*
X65299123Y-87056102D01*
X65075333Y-86721177D01*
X65005178Y-86551806D01*
X64921184Y-86349028D01*
X64842600Y-85953960D01*
X64842600Y-85551148D01*
X64921184Y-85156080D01*
X65011483Y-84938080D01*
X65075333Y-84783931D01*
X65299123Y-84449006D01*
X65583952Y-84164177D01*
X65918877Y-83940387D01*
X66105641Y-83863027D01*
X66291026Y-83786238D01*
X66686094Y-83707654D01*
X67088906Y-83707654D01*
X67483974Y-83786238D01*
G37*
G36*
X105583974Y-83786238D02*
G01*
X105769359Y-83863027D01*
X105956123Y-83940387D01*
X106291048Y-84164177D01*
X106575877Y-84449006D01*
X106799667Y-84783931D01*
X106863517Y-84938080D01*
X106953816Y-85156080D01*
X107032400Y-85551148D01*
X107032400Y-85953960D01*
X106953816Y-86349028D01*
X106869822Y-86551806D01*
X106799667Y-86721177D01*
X106575877Y-87056102D01*
X106291048Y-87340931D01*
X105956123Y-87564721D01*
X105801974Y-87628571D01*
X105583974Y-87718870D01*
X105188906Y-87797454D01*
X104786094Y-87797454D01*
X104391026Y-87718870D01*
X104173026Y-87628571D01*
X104018877Y-87564721D01*
X103683952Y-87340931D01*
X103399123Y-87056102D01*
X103175333Y-86721177D01*
X103105178Y-86551806D01*
X103021184Y-86349028D01*
X102942600Y-85953960D01*
X102942600Y-85551148D01*
X103021184Y-85156080D01*
X103111483Y-84938080D01*
X103175333Y-84783931D01*
X103399123Y-84449006D01*
X103683952Y-84164177D01*
X104018877Y-83940387D01*
X104205641Y-83863027D01*
X104391026Y-83786238D01*
X104786094Y-83707654D01*
X105188906Y-83707654D01*
X105583974Y-83786238D01*
G37*
G36*
X143927488Y-83786237D02*
G01*
X144112875Y-83863027D01*
X144299637Y-83940386D01*
X144634562Y-84164176D01*
X144919391Y-84449005D01*
X145143181Y-84783930D01*
X145185175Y-84885313D01*
X145297330Y-85156079D01*
X145375914Y-85551147D01*
X145375914Y-85953959D01*
X145297330Y-86349027D01*
X145254218Y-86453108D01*
X145143181Y-86721176D01*
X144919391Y-87056101D01*
X144634562Y-87340930D01*
X144299637Y-87564720D01*
X144145488Y-87628570D01*
X143927488Y-87718869D01*
X143532420Y-87797453D01*
X143129608Y-87797453D01*
X142734540Y-87718869D01*
X142516540Y-87628570D01*
X142362391Y-87564720D01*
X142027466Y-87340930D01*
X141742637Y-87056101D01*
X141518847Y-86721176D01*
X141407810Y-86453108D01*
X141364698Y-86349027D01*
X141286114Y-85953959D01*
X141286114Y-85551147D01*
X141364698Y-85156079D01*
X141476853Y-84885313D01*
X141518847Y-84783930D01*
X141742637Y-84449005D01*
X142027466Y-84164176D01*
X142362391Y-83940386D01*
X142549153Y-83863027D01*
X142734540Y-83786237D01*
X143129608Y-83707653D01*
X143532420Y-83707653D01*
X143927488Y-83786237D01*
G37*
G36*
X86777487Y-83786237D02*
G01*
X86962874Y-83863027D01*
X87149636Y-83940386D01*
X87484561Y-84164176D01*
X87769390Y-84449005D01*
X87993180Y-84783930D01*
X88035174Y-84885313D01*
X88147329Y-85156079D01*
X88225913Y-85551147D01*
X88225913Y-85953959D01*
X88147329Y-86349027D01*
X88104217Y-86453108D01*
X87993180Y-86721176D01*
X87769390Y-87056101D01*
X87484561Y-87340930D01*
X87149636Y-87564720D01*
X86995487Y-87628570D01*
X86777487Y-87718869D01*
X86382419Y-87797453D01*
X85979607Y-87797453D01*
X85584539Y-87718869D01*
X85366539Y-87628570D01*
X85212390Y-87564720D01*
X84877465Y-87340930D01*
X84592636Y-87056101D01*
X84368846Y-86721176D01*
X84257809Y-86453108D01*
X84214697Y-86349027D01*
X84136113Y-85953959D01*
X84136113Y-85551147D01*
X84214697Y-85156079D01*
X84326852Y-84885313D01*
X84368846Y-84783930D01*
X84592636Y-84449005D01*
X84877465Y-84164176D01*
X85212390Y-83940386D01*
X85399152Y-83863027D01*
X85584539Y-83786237D01*
X85979607Y-83707653D01*
X86382419Y-83707653D01*
X86777487Y-83786237D01*
G37*
G36*
X100083452Y-84867983D02*
G01*
X100170575Y-84885313D01*
X100279998Y-84930638D01*
X100334711Y-84953301D01*
X100481433Y-85051337D01*
X100482428Y-85052002D01*
X100608052Y-85177626D01*
X100608053Y-85177628D01*
X100608054Y-85177629D01*
X100706753Y-85325343D01*
X100706753Y-85325344D01*
X100774741Y-85489479D01*
X100774741Y-85489481D01*
X100809400Y-85663722D01*
X100809400Y-85841383D01*
X100774741Y-86015629D01*
X100729416Y-86125052D01*
X100706753Y-86179765D01*
X100608717Y-86326487D01*
X100608052Y-86327482D01*
X100482428Y-86453106D01*
X100482425Y-86453108D01*
X100334711Y-86551807D01*
X100279998Y-86574470D01*
X100170575Y-86619795D01*
X100083452Y-86637125D01*
X99996331Y-86654454D01*
X99818669Y-86654454D01*
X99731548Y-86637125D01*
X99644425Y-86619795D01*
X99535002Y-86574470D01*
X99480289Y-86551807D01*
X99332575Y-86453108D01*
X99332572Y-86453106D01*
X99206948Y-86327482D01*
X99206283Y-86326487D01*
X99108247Y-86179765D01*
X99085584Y-86125052D01*
X99040259Y-86015629D01*
X99005600Y-85841383D01*
X99005600Y-85663725D01*
X99005601Y-85663722D01*
X99040259Y-85489481D01*
X99040259Y-85489479D01*
X99108247Y-85325344D01*
X99108247Y-85325343D01*
X99206946Y-85177629D01*
X99206947Y-85177628D01*
X99206948Y-85177626D01*
X99332572Y-85052002D01*
X99333567Y-85051337D01*
X99480289Y-84953301D01*
X99535002Y-84930638D01*
X99644425Y-84885313D01*
X99731548Y-84867983D01*
X99818669Y-84850654D01*
X99996331Y-84850654D01*
X100083452Y-84867983D01*
G37*
G36*
X72143452Y-84867983D02*
G01*
X72230575Y-84885313D01*
X72339998Y-84930638D01*
X72394711Y-84953301D01*
X72541433Y-85051337D01*
X72542428Y-85052002D01*
X72668052Y-85177626D01*
X72668053Y-85177628D01*
X72668054Y-85177629D01*
X72766753Y-85325343D01*
X72766753Y-85325344D01*
X72834741Y-85489479D01*
X72834741Y-85489481D01*
X72869400Y-85663722D01*
X72869400Y-85841383D01*
X72834741Y-86015629D01*
X72789416Y-86125052D01*
X72766753Y-86179765D01*
X72668717Y-86326487D01*
X72668052Y-86327482D01*
X72542428Y-86453106D01*
X72542425Y-86453108D01*
X72394711Y-86551807D01*
X72339998Y-86574470D01*
X72230575Y-86619795D01*
X72143452Y-86637125D01*
X72056331Y-86654454D01*
X71878669Y-86654454D01*
X71791548Y-86637125D01*
X71704425Y-86619795D01*
X71595002Y-86574470D01*
X71540289Y-86551807D01*
X71392575Y-86453108D01*
X71392572Y-86453106D01*
X71266948Y-86327482D01*
X71266283Y-86326487D01*
X71168247Y-86179765D01*
X71145584Y-86125052D01*
X71100259Y-86015629D01*
X71065600Y-85841383D01*
X71065600Y-85663725D01*
X71065601Y-85663722D01*
X71100259Y-85489481D01*
X71100259Y-85489479D01*
X71168247Y-85325344D01*
X71168247Y-85325343D01*
X71266946Y-85177629D01*
X71266947Y-85177628D01*
X71266948Y-85177626D01*
X71392572Y-85052002D01*
X71393567Y-85051337D01*
X71540289Y-84953301D01*
X71595002Y-84930638D01*
X71704425Y-84885313D01*
X71791548Y-84867983D01*
X71878669Y-84850654D01*
X72056331Y-84850654D01*
X72143452Y-84867983D01*
G37*
G36*
X61983452Y-84867983D02*
G01*
X62070575Y-84885313D01*
X62179998Y-84930638D01*
X62234711Y-84953301D01*
X62381433Y-85051337D01*
X62382428Y-85052002D01*
X62508052Y-85177626D01*
X62508053Y-85177628D01*
X62508054Y-85177629D01*
X62606753Y-85325343D01*
X62606753Y-85325344D01*
X62674741Y-85489479D01*
X62674741Y-85489481D01*
X62709400Y-85663722D01*
X62709400Y-85841383D01*
X62674741Y-86015629D01*
X62629416Y-86125052D01*
X62606753Y-86179765D01*
X62508717Y-86326487D01*
X62508052Y-86327482D01*
X62382428Y-86453106D01*
X62382425Y-86453108D01*
X62234711Y-86551807D01*
X62179998Y-86574470D01*
X62070575Y-86619795D01*
X61983452Y-86637125D01*
X61896331Y-86654454D01*
X61718669Y-86654454D01*
X61631548Y-86637125D01*
X61544425Y-86619795D01*
X61435002Y-86574470D01*
X61380289Y-86551807D01*
X61232575Y-86453108D01*
X61232572Y-86453106D01*
X61106948Y-86327482D01*
X61106283Y-86326487D01*
X61008247Y-86179765D01*
X60985584Y-86125052D01*
X60940259Y-86015629D01*
X60905600Y-85841383D01*
X60905600Y-85663725D01*
X60905601Y-85663722D01*
X60940259Y-85489481D01*
X60940259Y-85489479D01*
X61008247Y-85325344D01*
X61008247Y-85325343D01*
X61106946Y-85177629D01*
X61106947Y-85177628D01*
X61106948Y-85177626D01*
X61232572Y-85052002D01*
X61233567Y-85051337D01*
X61380289Y-84953301D01*
X61435002Y-84930638D01*
X61544425Y-84885313D01*
X61631548Y-84867983D01*
X61718669Y-84850654D01*
X61896331Y-84850654D01*
X61983452Y-84867983D01*
G37*
G36*
X119376965Y-84867983D02*
G01*
X119464088Y-84885313D01*
X119573511Y-84930638D01*
X119628224Y-84953301D01*
X119774946Y-85051337D01*
X119775941Y-85052002D01*
X119901565Y-85177626D01*
X119901566Y-85177628D01*
X119901567Y-85177629D01*
X120000266Y-85325343D01*
X120000266Y-85325344D01*
X120068254Y-85489479D01*
X120068254Y-85489481D01*
X120102913Y-85663722D01*
X120102913Y-85841383D01*
X120068254Y-86015629D01*
X120022929Y-86125052D01*
X120000266Y-86179765D01*
X119902230Y-86326487D01*
X119901565Y-86327482D01*
X119775941Y-86453106D01*
X119775938Y-86453108D01*
X119628224Y-86551807D01*
X119573511Y-86574470D01*
X119464088Y-86619795D01*
X119376965Y-86637124D01*
X119289844Y-86654454D01*
X119112182Y-86654454D01*
X119025061Y-86637125D01*
X118937938Y-86619795D01*
X118828515Y-86574470D01*
X118773802Y-86551807D01*
X118626088Y-86453108D01*
X118626085Y-86453106D01*
X118500461Y-86327482D01*
X118499796Y-86326487D01*
X118401760Y-86179765D01*
X118379097Y-86125052D01*
X118333772Y-86015629D01*
X118299113Y-85841383D01*
X118299113Y-85663725D01*
X118299114Y-85663722D01*
X118333772Y-85489481D01*
X118333772Y-85489479D01*
X118401760Y-85325344D01*
X118401760Y-85325343D01*
X118500459Y-85177629D01*
X118500460Y-85177628D01*
X118500461Y-85177626D01*
X118626085Y-85052002D01*
X118627080Y-85051337D01*
X118773802Y-84953301D01*
X118828515Y-84930638D01*
X118937938Y-84885313D01*
X119025061Y-84867984D01*
X119112182Y-84850654D01*
X119289844Y-84850654D01*
X119376965Y-84867983D01*
G37*
G36*
X129536965Y-84867983D02*
G01*
X129624088Y-84885313D01*
X129733511Y-84930638D01*
X129788224Y-84953301D01*
X129934946Y-85051337D01*
X129935941Y-85052002D01*
X130061565Y-85177626D01*
X130061566Y-85177628D01*
X130061567Y-85177629D01*
X130160266Y-85325343D01*
X130160266Y-85325344D01*
X130228254Y-85489479D01*
X130228254Y-85489481D01*
X130262913Y-85663722D01*
X130262913Y-85841383D01*
X130228254Y-86015629D01*
X130182929Y-86125052D01*
X130160266Y-86179765D01*
X130062230Y-86326487D01*
X130061565Y-86327482D01*
X129935941Y-86453106D01*
X129935938Y-86453108D01*
X129788224Y-86551807D01*
X129733511Y-86574470D01*
X129624088Y-86619795D01*
X129536965Y-86637124D01*
X129449844Y-86654454D01*
X129272182Y-86654454D01*
X129185061Y-86637125D01*
X129097938Y-86619795D01*
X128988515Y-86574470D01*
X128933802Y-86551807D01*
X128786088Y-86453108D01*
X128786085Y-86453106D01*
X128660461Y-86327482D01*
X128659796Y-86326487D01*
X128561760Y-86179765D01*
X128539097Y-86125052D01*
X128493772Y-86015629D01*
X128459113Y-85841383D01*
X128459113Y-85663725D01*
X128459114Y-85663722D01*
X128493772Y-85489481D01*
X128493772Y-85489479D01*
X128561760Y-85325344D01*
X128561760Y-85325343D01*
X128660459Y-85177629D01*
X128660460Y-85177628D01*
X128660461Y-85177626D01*
X128786085Y-85052002D01*
X128787080Y-85051337D01*
X128933802Y-84953301D01*
X128988515Y-84930638D01*
X129097938Y-84885313D01*
X129185061Y-84867984D01*
X129272182Y-84850654D01*
X129449844Y-84850654D01*
X129536965Y-84867983D01*
G37*
G36*
X110243452Y-84867983D02*
G01*
X110330575Y-84885313D01*
X110439998Y-84930638D01*
X110494711Y-84953301D01*
X110641433Y-85051337D01*
X110642428Y-85052002D01*
X110768052Y-85177626D01*
X110768053Y-85177628D01*
X110768054Y-85177629D01*
X110866753Y-85325343D01*
X110866753Y-85325344D01*
X110934741Y-85489479D01*
X110934741Y-85489481D01*
X110969400Y-85663722D01*
X110969400Y-85841383D01*
X110934741Y-86015629D01*
X110889416Y-86125052D01*
X110866753Y-86179765D01*
X110768717Y-86326487D01*
X110768052Y-86327482D01*
X110642428Y-86453106D01*
X110642425Y-86453108D01*
X110494711Y-86551807D01*
X110439998Y-86574470D01*
X110330575Y-86619795D01*
X110243452Y-86637124D01*
X110156331Y-86654454D01*
X109978669Y-86654454D01*
X109891548Y-86637125D01*
X109804425Y-86619795D01*
X109695002Y-86574470D01*
X109640289Y-86551807D01*
X109492575Y-86453108D01*
X109492572Y-86453106D01*
X109366948Y-86327482D01*
X109366283Y-86326487D01*
X109268247Y-86179765D01*
X109245584Y-86125052D01*
X109200259Y-86015629D01*
X109165600Y-85841383D01*
X109165600Y-85663725D01*
X109165601Y-85663722D01*
X109200259Y-85489481D01*
X109200259Y-85489479D01*
X109268247Y-85325344D01*
X109268247Y-85325343D01*
X109366946Y-85177629D01*
X109366947Y-85177628D01*
X109366948Y-85177626D01*
X109492572Y-85052002D01*
X109493567Y-85051337D01*
X109640289Y-84953301D01*
X109695002Y-84930638D01*
X109804425Y-84885313D01*
X109891548Y-84867983D01*
X109978669Y-84850654D01*
X110156331Y-84850654D01*
X110243452Y-84867983D01*
G37*
G36*
X91436965Y-84867982D02*
G01*
X91524088Y-84885312D01*
X91633511Y-84930637D01*
X91688224Y-84953300D01*
X91834946Y-85051336D01*
X91835941Y-85052001D01*
X91961565Y-85177625D01*
X91961567Y-85177628D01*
X92060266Y-85325342D01*
X92082929Y-85380055D01*
X92128254Y-85489478D01*
X92140520Y-85551147D01*
X92162913Y-85663722D01*
X92162913Y-85841384D01*
X92145584Y-85928505D01*
X92128254Y-86015628D01*
X92082929Y-86125051D01*
X92060266Y-86179764D01*
X92060265Y-86179765D01*
X91961565Y-86327481D01*
X91835941Y-86453105D01*
X91835938Y-86453107D01*
X91688224Y-86551806D01*
X91633511Y-86574469D01*
X91524088Y-86619794D01*
X91436965Y-86637124D01*
X91349844Y-86654453D01*
X91172182Y-86654453D01*
X91085061Y-86637124D01*
X90997938Y-86619794D01*
X90888515Y-86574469D01*
X90833802Y-86551806D01*
X90686088Y-86453107D01*
X90686085Y-86453105D01*
X90560461Y-86327481D01*
X90461761Y-86179765D01*
X90461760Y-86179764D01*
X90439097Y-86125051D01*
X90393772Y-86015628D01*
X90376442Y-85928505D01*
X90359113Y-85841384D01*
X90359113Y-85663722D01*
X90381506Y-85551147D01*
X90393772Y-85489478D01*
X90439097Y-85380055D01*
X90461760Y-85325342D01*
X90560459Y-85177628D01*
X90560461Y-85177625D01*
X90686085Y-85052001D01*
X90687080Y-85051336D01*
X90833802Y-84953300D01*
X90888515Y-84930637D01*
X90997938Y-84885312D01*
X91085061Y-84867982D01*
X91172182Y-84850653D01*
X91349844Y-84850653D01*
X91436965Y-84867982D01*
G37*
G36*
X138426966Y-84867982D02*
G01*
X138514089Y-84885312D01*
X138623512Y-84930637D01*
X138678225Y-84953300D01*
X138824947Y-85051336D01*
X138825942Y-85052001D01*
X138951566Y-85177625D01*
X138951568Y-85177628D01*
X139050267Y-85325342D01*
X139072930Y-85380055D01*
X139118255Y-85489478D01*
X139130521Y-85551147D01*
X139152914Y-85663722D01*
X139152914Y-85841384D01*
X139135584Y-85928505D01*
X139118255Y-86015628D01*
X139072930Y-86125051D01*
X139050267Y-86179764D01*
X139050266Y-86179765D01*
X138951566Y-86327481D01*
X138825942Y-86453105D01*
X138825939Y-86453107D01*
X138678225Y-86551806D01*
X138623512Y-86574469D01*
X138514089Y-86619794D01*
X138426966Y-86637124D01*
X138339845Y-86654453D01*
X138162183Y-86654453D01*
X138075062Y-86637124D01*
X137987939Y-86619794D01*
X137878516Y-86574469D01*
X137823803Y-86551806D01*
X137676089Y-86453107D01*
X137676086Y-86453105D01*
X137550462Y-86327481D01*
X137451762Y-86179765D01*
X137451761Y-86179764D01*
X137429098Y-86125051D01*
X137383773Y-86015628D01*
X137366443Y-85928505D01*
X137349114Y-85841384D01*
X137349114Y-85663722D01*
X137371507Y-85551147D01*
X137383773Y-85489478D01*
X137429098Y-85380055D01*
X137451761Y-85325342D01*
X137550460Y-85177628D01*
X137550462Y-85177625D01*
X137676086Y-85052001D01*
X137677081Y-85051336D01*
X137823803Y-84953300D01*
X137878516Y-84930637D01*
X137987939Y-84885312D01*
X138075062Y-84867982D01*
X138162183Y-84850653D01*
X138339845Y-84850653D01*
X138426966Y-84867982D01*
G37*
G36*
X148586966Y-84867982D02*
G01*
X148674089Y-84885312D01*
X148783512Y-84930637D01*
X148838225Y-84953300D01*
X148984947Y-85051336D01*
X148985942Y-85052001D01*
X149111566Y-85177625D01*
X149111568Y-85177628D01*
X149210267Y-85325342D01*
X149232930Y-85380055D01*
X149278255Y-85489478D01*
X149290521Y-85551147D01*
X149312914Y-85663722D01*
X149312914Y-85841384D01*
X149295584Y-85928505D01*
X149278255Y-86015628D01*
X149232930Y-86125051D01*
X149210267Y-86179764D01*
X149210266Y-86179765D01*
X149111566Y-86327481D01*
X148985942Y-86453105D01*
X148985939Y-86453107D01*
X148838225Y-86551806D01*
X148783512Y-86574469D01*
X148674089Y-86619794D01*
X148586966Y-86637124D01*
X148499845Y-86654453D01*
X148322183Y-86654453D01*
X148235062Y-86637124D01*
X148147939Y-86619794D01*
X148038516Y-86574469D01*
X147983803Y-86551806D01*
X147836089Y-86453107D01*
X147836086Y-86453105D01*
X147710462Y-86327481D01*
X147611762Y-86179765D01*
X147611761Y-86179764D01*
X147589098Y-86125051D01*
X147543773Y-86015628D01*
X147526443Y-85928505D01*
X147509114Y-85841384D01*
X147509114Y-85663722D01*
X147531507Y-85551147D01*
X147543773Y-85489478D01*
X147589098Y-85380055D01*
X147611761Y-85325342D01*
X147710460Y-85177628D01*
X147710462Y-85177625D01*
X147836086Y-85052001D01*
X147837081Y-85051336D01*
X147983803Y-84953300D01*
X148038516Y-84930637D01*
X148147939Y-84885312D01*
X148235062Y-84867982D01*
X148322183Y-84850653D01*
X148499845Y-84850653D01*
X148586966Y-84867982D01*
G37*
G36*
X81276965Y-84867982D02*
G01*
X81364088Y-84885312D01*
X81473511Y-84930637D01*
X81528224Y-84953300D01*
X81674946Y-85051336D01*
X81675941Y-85052001D01*
X81801565Y-85177625D01*
X81801567Y-85177628D01*
X81900266Y-85325342D01*
X81922929Y-85380055D01*
X81968254Y-85489478D01*
X81980520Y-85551147D01*
X82002913Y-85663722D01*
X82002913Y-85841384D01*
X81985584Y-85928505D01*
X81968254Y-86015628D01*
X81922929Y-86125051D01*
X81900266Y-86179764D01*
X81900265Y-86179765D01*
X81801565Y-86327481D01*
X81675941Y-86453105D01*
X81675938Y-86453107D01*
X81528224Y-86551806D01*
X81473511Y-86574469D01*
X81364088Y-86619794D01*
X81276965Y-86637124D01*
X81189844Y-86654453D01*
X81012182Y-86654453D01*
X80925061Y-86637124D01*
X80837938Y-86619794D01*
X80728515Y-86574469D01*
X80673802Y-86551806D01*
X80526088Y-86453107D01*
X80526085Y-86453105D01*
X80400461Y-86327481D01*
X80301761Y-86179765D01*
X80301760Y-86179764D01*
X80279097Y-86125051D01*
X80233772Y-86015628D01*
X80216442Y-85928505D01*
X80199113Y-85841384D01*
X80199113Y-85663722D01*
X80221506Y-85551147D01*
X80233772Y-85489478D01*
X80279097Y-85380055D01*
X80301760Y-85325342D01*
X80400459Y-85177628D01*
X80400461Y-85177625D01*
X80526085Y-85052001D01*
X80527080Y-85051336D01*
X80673802Y-84953300D01*
X80728515Y-84930637D01*
X80837938Y-84885312D01*
X80925061Y-84867982D01*
X81012182Y-84850653D01*
X81189844Y-84850653D01*
X81276965Y-84867982D01*
G37*
G36*
X153458015Y-82776973D02*
G01*
X153561879Y-82808479D01*
X153589055Y-82823005D01*
X153657600Y-82859643D01*
X153741501Y-82928499D01*
X153810357Y-83012400D01*
X153846995Y-83080945D01*
X153861521Y-83108121D01*
X153893027Y-83211985D01*
X153903666Y-83320000D01*
X153893027Y-83428015D01*
X153861521Y-83531879D01*
X153861519Y-83531882D01*
X153810357Y-83627600D01*
X153741501Y-83711501D01*
X153657600Y-83780357D01*
X153589055Y-83816995D01*
X153561879Y-83831521D01*
X153458015Y-83863027D01*
X153377067Y-83871000D01*
X152722933Y-83871000D01*
X152641985Y-83863027D01*
X152538121Y-83831521D01*
X152510945Y-83816995D01*
X152442400Y-83780357D01*
X152358499Y-83711501D01*
X152289643Y-83627600D01*
X152238481Y-83531882D01*
X152238479Y-83531879D01*
X152206973Y-83428015D01*
X152196334Y-83320000D01*
X152206973Y-83211985D01*
X152238479Y-83108121D01*
X152253005Y-83080945D01*
X152289643Y-83012400D01*
X152358499Y-82928499D01*
X152442400Y-82859643D01*
X152510945Y-82823005D01*
X152538121Y-82808479D01*
X152641985Y-82776973D01*
X152722933Y-82769000D01*
X153377067Y-82769000D01*
X153458015Y-82776973D01*
G37*
G36*
X149528015Y-82776973D02*
G01*
X149631879Y-82808479D01*
X149659055Y-82823005D01*
X149727600Y-82859643D01*
X149811501Y-82928499D01*
X149880357Y-83012400D01*
X149916995Y-83080945D01*
X149931521Y-83108121D01*
X149963027Y-83211985D01*
X149973666Y-83320000D01*
X149963027Y-83428015D01*
X149931521Y-83531879D01*
X149931519Y-83531882D01*
X149880357Y-83627600D01*
X149811501Y-83711501D01*
X149727600Y-83780357D01*
X149659055Y-83816995D01*
X149631879Y-83831521D01*
X149528015Y-83863027D01*
X149447067Y-83871000D01*
X148292933Y-83871000D01*
X148211985Y-83863027D01*
X148108121Y-83831521D01*
X148080945Y-83816995D01*
X148012400Y-83780357D01*
X147928499Y-83711501D01*
X147859643Y-83627600D01*
X147808481Y-83531882D01*
X147808479Y-83531879D01*
X147776973Y-83428015D01*
X147766334Y-83320000D01*
X147776973Y-83211985D01*
X147808479Y-83108121D01*
X147823005Y-83080945D01*
X147859643Y-83012400D01*
X147928499Y-82928499D01*
X148012400Y-82859643D01*
X148080945Y-82823005D01*
X148108121Y-82808479D01*
X148211985Y-82776973D01*
X148292933Y-82769000D01*
X149447067Y-82769000D01*
X149528015Y-82776973D01*
G37*
G36*
X57276000Y-77676000D02*
G01*
X57250940Y-77676000D01*
X57226554Y-77678402D01*
X57203105Y-77685515D01*
X57181494Y-77697066D01*
X57162552Y-77712611D01*
X57147007Y-77731553D01*
X57135456Y-77753164D01*
X57128343Y-77776613D01*
X57125941Y-77800999D01*
X57128343Y-77825385D01*
X57135456Y-77848834D01*
X57147007Y-77870445D01*
X57162552Y-77889387D01*
X57169733Y-77896568D01*
X57221826Y-77974530D01*
X57221826Y-77974531D01*
X57257708Y-78061157D01*
X57276000Y-78153117D01*
X57276000Y-78246883D01*
X57257708Y-78338843D01*
X57236689Y-78389588D01*
X57221826Y-78425470D01*
X57169733Y-78503432D01*
X57103430Y-78569735D01*
X57064021Y-78596067D01*
X57045079Y-78611612D01*
X57029534Y-78630554D01*
X57017982Y-78652164D01*
X57010869Y-78675613D01*
X57008467Y-78699999D01*
X57010869Y-78724385D01*
X57017982Y-78747834D01*
X57029533Y-78769445D01*
X57045078Y-78788387D01*
X57064021Y-78803933D01*
X57103430Y-78830265D01*
X57169733Y-78896568D01*
X57221826Y-78974530D01*
X57221826Y-78974531D01*
X57257708Y-79061157D01*
X57276000Y-79153117D01*
X57276000Y-79246883D01*
X57257708Y-79338843D01*
X57236689Y-79389588D01*
X57221826Y-79425470D01*
X57169733Y-79503432D01*
X57103430Y-79569735D01*
X57064021Y-79596067D01*
X57045079Y-79611612D01*
X57029534Y-79630554D01*
X57017982Y-79652164D01*
X57010869Y-79675613D01*
X57008467Y-79699999D01*
X57010869Y-79724385D01*
X57017982Y-79747834D01*
X57029533Y-79769445D01*
X57045078Y-79788387D01*
X57064021Y-79803933D01*
X57103430Y-79830265D01*
X57169733Y-79896568D01*
X57221826Y-79974530D01*
X57221826Y-79974531D01*
X57257708Y-80061157D01*
X57276000Y-80153117D01*
X57276000Y-80246883D01*
X57257708Y-80338843D01*
X57236689Y-80389588D01*
X57221826Y-80425470D01*
X57169733Y-80503432D01*
X57103430Y-80569735D01*
X57064021Y-80596067D01*
X57045079Y-80611612D01*
X57029534Y-80630554D01*
X57017982Y-80652164D01*
X57010869Y-80675613D01*
X57008467Y-80699999D01*
X57010869Y-80724385D01*
X57017982Y-80747834D01*
X57029533Y-80769445D01*
X57045078Y-80788387D01*
X57064021Y-80803933D01*
X57103430Y-80830265D01*
X57169733Y-80896568D01*
X57221826Y-80974530D01*
X57221826Y-80974531D01*
X57257708Y-81061157D01*
X57276000Y-81153117D01*
X57276000Y-81246883D01*
X57257708Y-81338843D01*
X57236689Y-81389588D01*
X57221826Y-81425470D01*
X57169733Y-81503432D01*
X57103430Y-81569735D01*
X57064021Y-81596067D01*
X57045079Y-81611612D01*
X57029534Y-81630554D01*
X57017982Y-81652164D01*
X57010869Y-81675613D01*
X57008467Y-81699999D01*
X57010869Y-81724385D01*
X57017982Y-81747834D01*
X57029533Y-81769445D01*
X57045078Y-81788387D01*
X57064021Y-81803933D01*
X57103430Y-81830265D01*
X57169733Y-81896568D01*
X57221826Y-81974530D01*
X57221826Y-81974531D01*
X57257708Y-82061157D01*
X57276000Y-82153117D01*
X57276000Y-82246883D01*
X57257708Y-82338843D01*
X57236689Y-82389588D01*
X57221826Y-82425470D01*
X57169733Y-82503432D01*
X57103432Y-82569733D01*
X57025470Y-82621826D01*
X56989588Y-82636689D01*
X56938843Y-82657708D01*
X56846883Y-82676000D01*
X56753117Y-82676000D01*
X56661157Y-82657708D01*
X56610412Y-82636689D01*
X56574530Y-82621826D01*
X56496568Y-82569733D01*
X56430267Y-82503432D01*
X56378174Y-82425470D01*
X56363311Y-82389588D01*
X56342292Y-82338843D01*
X56324000Y-82246883D01*
X56324000Y-82153117D01*
X56342292Y-82061157D01*
X56378174Y-81974531D01*
X56378174Y-81974530D01*
X56430267Y-81896568D01*
X56496570Y-81830265D01*
X56535979Y-81803933D01*
X56554921Y-81788388D01*
X56570466Y-81769446D01*
X56582018Y-81747836D01*
X56589131Y-81724387D01*
X56591533Y-81700001D01*
X56589131Y-81675615D01*
X56582018Y-81652166D01*
X56570467Y-81630555D01*
X56554922Y-81611613D01*
X56535979Y-81596067D01*
X56496570Y-81569735D01*
X56430267Y-81503432D01*
X56378174Y-81425470D01*
X56363311Y-81389588D01*
X56342292Y-81338843D01*
X56324000Y-81246883D01*
X56324000Y-81153117D01*
X56342292Y-81061157D01*
X56378174Y-80974531D01*
X56378174Y-80974530D01*
X56430267Y-80896568D01*
X56496570Y-80830265D01*
X56535979Y-80803933D01*
X56554921Y-80788388D01*
X56570466Y-80769446D01*
X56582018Y-80747836D01*
X56589131Y-80724387D01*
X56591533Y-80700001D01*
X56589131Y-80675615D01*
X56582018Y-80652166D01*
X56570467Y-80630555D01*
X56554922Y-80611613D01*
X56535979Y-80596067D01*
X56496570Y-80569735D01*
X56430267Y-80503432D01*
X56378174Y-80425470D01*
X56363311Y-80389588D01*
X56342292Y-80338843D01*
X56324000Y-80246883D01*
X56324000Y-80153117D01*
X56342292Y-80061157D01*
X56378174Y-79974531D01*
X56378174Y-79974530D01*
X56430267Y-79896568D01*
X56496570Y-79830265D01*
X56535979Y-79803933D01*
X56554921Y-79788388D01*
X56570466Y-79769446D01*
X56582018Y-79747836D01*
X56589131Y-79724387D01*
X56591533Y-79700001D01*
X56589131Y-79675615D01*
X56582018Y-79652166D01*
X56570467Y-79630555D01*
X56554922Y-79611613D01*
X56535979Y-79596067D01*
X56496570Y-79569735D01*
X56430267Y-79503432D01*
X56378174Y-79425470D01*
X56363311Y-79389588D01*
X56342292Y-79338843D01*
X56324000Y-79246883D01*
X56324000Y-79153117D01*
X56342292Y-79061157D01*
X56378174Y-78974531D01*
X56378174Y-78974530D01*
X56430267Y-78896568D01*
X56496570Y-78830265D01*
X56535979Y-78803933D01*
X56554921Y-78788388D01*
X56570466Y-78769446D01*
X56582018Y-78747836D01*
X56589131Y-78724387D01*
X56591533Y-78700001D01*
X56589131Y-78675615D01*
X56582018Y-78652166D01*
X56570467Y-78630555D01*
X56554922Y-78611613D01*
X56535979Y-78596067D01*
X56496570Y-78569735D01*
X56430267Y-78503432D01*
X56378174Y-78425470D01*
X56363311Y-78389588D01*
X56342292Y-78338843D01*
X56324000Y-78246883D01*
X56324000Y-78153117D01*
X56342292Y-78061157D01*
X56378174Y-77974531D01*
X56378174Y-77974530D01*
X56430267Y-77896568D01*
X56437448Y-77889387D01*
X56452993Y-77870445D01*
X56464544Y-77848834D01*
X56471657Y-77825385D01*
X56474059Y-77800999D01*
X56471657Y-77776613D01*
X56464544Y-77753164D01*
X56452993Y-77731553D01*
X56437448Y-77712611D01*
X56418506Y-77697066D01*
X56396895Y-77685515D01*
X56373446Y-77678402D01*
X56349060Y-77676000D01*
X56324000Y-77676000D01*
X56324000Y-76724000D01*
X57276000Y-76724000D01*
X57276000Y-77676000D01*
G37*
G36*
X149509672Y-81528449D02*
G01*
X149509674Y-81528450D01*
X149509675Y-81528450D01*
X149578103Y-81556793D01*
X149639686Y-81597942D01*
X149692058Y-81650314D01*
X149733207Y-81711897D01*
X149757043Y-81769445D01*
X149761551Y-81780328D01*
X149776000Y-81852966D01*
X149776000Y-81927033D01*
X149761550Y-81999675D01*
X149733207Y-82068103D01*
X149692058Y-82129686D01*
X149639686Y-82182058D01*
X149578103Y-82223207D01*
X149509675Y-82251550D01*
X149509674Y-82251550D01*
X149509672Y-82251551D01*
X149437034Y-82266000D01*
X149362966Y-82266000D01*
X149290328Y-82251551D01*
X149290326Y-82251550D01*
X149290325Y-82251550D01*
X149221897Y-82223207D01*
X149160314Y-82182058D01*
X149107942Y-82129686D01*
X149066793Y-82068103D01*
X149038450Y-81999675D01*
X149024000Y-81927033D01*
X149024000Y-81852966D01*
X149038449Y-81780328D01*
X149042957Y-81769445D01*
X149066793Y-81711897D01*
X149107942Y-81650314D01*
X149160314Y-81597942D01*
X149221897Y-81556793D01*
X149290325Y-81528450D01*
X149290326Y-81528450D01*
X149290328Y-81528449D01*
X149362966Y-81514000D01*
X149437034Y-81514000D01*
X149509672Y-81528449D01*
G37*
G36*
X149509672Y-75748449D02*
G01*
X149509674Y-75748450D01*
X149509675Y-75748450D01*
X149578103Y-75776793D01*
X149639686Y-75817942D01*
X149692058Y-75870314D01*
X149733207Y-75931897D01*
X149761550Y-76000325D01*
X149776000Y-76072967D01*
X149776000Y-76147033D01*
X149761550Y-76219675D01*
X149733207Y-76288103D01*
X149692058Y-76349686D01*
X149639686Y-76402058D01*
X149578103Y-76443207D01*
X149509675Y-76471550D01*
X149509674Y-76471550D01*
X149509672Y-76471551D01*
X149437034Y-76486000D01*
X149362966Y-76486000D01*
X149290328Y-76471551D01*
X149290326Y-76471550D01*
X149290325Y-76471550D01*
X149221897Y-76443207D01*
X149160314Y-76402058D01*
X149107942Y-76349686D01*
X149066793Y-76288103D01*
X149038450Y-76219675D01*
X149024000Y-76147033D01*
X149024000Y-76072967D01*
X149038450Y-76000325D01*
X149066793Y-75931897D01*
X149107942Y-75870314D01*
X149160314Y-75817942D01*
X149221897Y-75776793D01*
X149290325Y-75748450D01*
X149290326Y-75748450D01*
X149290328Y-75748449D01*
X149362966Y-75734000D01*
X149437034Y-75734000D01*
X149509672Y-75748449D01*
G37*
G36*
X149528015Y-74136973D02*
G01*
X149631879Y-74168479D01*
X149659055Y-74183005D01*
X149727600Y-74219643D01*
X149811501Y-74288499D01*
X149880357Y-74372400D01*
X149916995Y-74440945D01*
X149931521Y-74468121D01*
X149963027Y-74571985D01*
X149973666Y-74680000D01*
X149963027Y-74788015D01*
X149931521Y-74891879D01*
X149931519Y-74891882D01*
X149880357Y-74987600D01*
X149811501Y-75071501D01*
X149727600Y-75140357D01*
X149659055Y-75176995D01*
X149631879Y-75191521D01*
X149528015Y-75223027D01*
X149447067Y-75231000D01*
X148292933Y-75231000D01*
X148211985Y-75223027D01*
X148108121Y-75191521D01*
X148080945Y-75176995D01*
X148012400Y-75140357D01*
X147928499Y-75071501D01*
X147859643Y-74987600D01*
X147808481Y-74891882D01*
X147808479Y-74891879D01*
X147776973Y-74788015D01*
X147766334Y-74680000D01*
X147776973Y-74571985D01*
X147808479Y-74468121D01*
X147823005Y-74440945D01*
X147859643Y-74372400D01*
X147928499Y-74288499D01*
X148012400Y-74219643D01*
X148080945Y-74183005D01*
X148108121Y-74168479D01*
X148211985Y-74136973D01*
X148292933Y-74129000D01*
X149447067Y-74129000D01*
X149528015Y-74136973D01*
G37*
G36*
X153458015Y-74136973D02*
G01*
X153561879Y-74168479D01*
X153589055Y-74183005D01*
X153657600Y-74219643D01*
X153741501Y-74288499D01*
X153810357Y-74372400D01*
X153846995Y-74440945D01*
X153861521Y-74468121D01*
X153893027Y-74571985D01*
X153903666Y-74680000D01*
X153893027Y-74788015D01*
X153861521Y-74891879D01*
X153861519Y-74891882D01*
X153810357Y-74987600D01*
X153741501Y-75071501D01*
X153657600Y-75140357D01*
X153589055Y-75176995D01*
X153561879Y-75191521D01*
X153458015Y-75223027D01*
X153377067Y-75231000D01*
X152722933Y-75231000D01*
X152641985Y-75223027D01*
X152538121Y-75191521D01*
X152510945Y-75176995D01*
X152442400Y-75140357D01*
X152358499Y-75071501D01*
X152289643Y-74987600D01*
X152238481Y-74891882D01*
X152238479Y-74891879D01*
X152206973Y-74788015D01*
X152196334Y-74680000D01*
X152206973Y-74571985D01*
X152238479Y-74468121D01*
X152253005Y-74440945D01*
X152289643Y-74372400D01*
X152358499Y-74288499D01*
X152442400Y-74219643D01*
X152510945Y-74183005D01*
X152538121Y-74168479D01*
X152641985Y-74136973D01*
X152722933Y-74129000D01*
X153377067Y-74129000D01*
X153458015Y-74136973D01*
G37*
G36*
X56938843Y-57342292D02*
G01*
X56989588Y-57363311D01*
X57025470Y-57378174D01*
X57103432Y-57430267D01*
X57169733Y-57496568D01*
X57221826Y-57574530D01*
X57221826Y-57574531D01*
X57257708Y-57661157D01*
X57276000Y-57753117D01*
X57276000Y-57846883D01*
X57257708Y-57938843D01*
X57236689Y-57989588D01*
X57221826Y-58025470D01*
X57169733Y-58103432D01*
X57103430Y-58169735D01*
X57064021Y-58196067D01*
X57045079Y-58211612D01*
X57029534Y-58230554D01*
X57017982Y-58252164D01*
X57010869Y-58275613D01*
X57008467Y-58299999D01*
X57010869Y-58324385D01*
X57017982Y-58347834D01*
X57029533Y-58369445D01*
X57045078Y-58388387D01*
X57064021Y-58403933D01*
X57103430Y-58430265D01*
X57169733Y-58496568D01*
X57221826Y-58574530D01*
X57221826Y-58574531D01*
X57257708Y-58661157D01*
X57276000Y-58753117D01*
X57276000Y-58846883D01*
X57257708Y-58938843D01*
X57236689Y-58989588D01*
X57221826Y-59025470D01*
X57169733Y-59103432D01*
X57103430Y-59169735D01*
X57064021Y-59196067D01*
X57045079Y-59211612D01*
X57029534Y-59230554D01*
X57017982Y-59252164D01*
X57010869Y-59275613D01*
X57008467Y-59299999D01*
X57010869Y-59324385D01*
X57017982Y-59347834D01*
X57029533Y-59369445D01*
X57045078Y-59388387D01*
X57064021Y-59403933D01*
X57103430Y-59430265D01*
X57169733Y-59496568D01*
X57221826Y-59574530D01*
X57221826Y-59574531D01*
X57257708Y-59661157D01*
X57276000Y-59753117D01*
X57276000Y-59846883D01*
X57257708Y-59938843D01*
X57236689Y-59989588D01*
X57221826Y-60025470D01*
X57169733Y-60103432D01*
X57103430Y-60169735D01*
X57064021Y-60196067D01*
X57045079Y-60211612D01*
X57029534Y-60230554D01*
X57017982Y-60252164D01*
X57010869Y-60275613D01*
X57008467Y-60299999D01*
X57010869Y-60324385D01*
X57017982Y-60347834D01*
X57029533Y-60369445D01*
X57045078Y-60388387D01*
X57064021Y-60403933D01*
X57103430Y-60430265D01*
X57169733Y-60496568D01*
X57221826Y-60574530D01*
X57221826Y-60574531D01*
X57257708Y-60661157D01*
X57276000Y-60753117D01*
X57276000Y-60846883D01*
X57257708Y-60938843D01*
X57236689Y-60989588D01*
X57221826Y-61025470D01*
X57169733Y-61103432D01*
X57103430Y-61169735D01*
X57064021Y-61196067D01*
X57045079Y-61211612D01*
X57029534Y-61230554D01*
X57017982Y-61252164D01*
X57010869Y-61275613D01*
X57008467Y-61299999D01*
X57010869Y-61324385D01*
X57017982Y-61347834D01*
X57029533Y-61369445D01*
X57045078Y-61388387D01*
X57064021Y-61403933D01*
X57103430Y-61430265D01*
X57169733Y-61496568D01*
X57221826Y-61574530D01*
X57221826Y-61574531D01*
X57257708Y-61661157D01*
X57276000Y-61753117D01*
X57276000Y-61846883D01*
X57257708Y-61938843D01*
X57236689Y-61989588D01*
X57221826Y-62025470D01*
X57169733Y-62103432D01*
X57162552Y-62110613D01*
X57147007Y-62129555D01*
X57135456Y-62151166D01*
X57128343Y-62174615D01*
X57125941Y-62199001D01*
X57128343Y-62223387D01*
X57135456Y-62246836D01*
X57147007Y-62268447D01*
X57162552Y-62287389D01*
X57181494Y-62302934D01*
X57203105Y-62314485D01*
X57226554Y-62321598D01*
X57250940Y-62324000D01*
X57276000Y-62324000D01*
X57276000Y-63276000D01*
X56324000Y-63276000D01*
X56324000Y-62324000D01*
X56349060Y-62324000D01*
X56373446Y-62321598D01*
X56396895Y-62314485D01*
X56418506Y-62302934D01*
X56437448Y-62287389D01*
X56452993Y-62268447D01*
X56464544Y-62246836D01*
X56471657Y-62223387D01*
X56474059Y-62199001D01*
X56471657Y-62174615D01*
X56464544Y-62151166D01*
X56452993Y-62129555D01*
X56437448Y-62110613D01*
X56430267Y-62103432D01*
X56378174Y-62025470D01*
X56363311Y-61989588D01*
X56342292Y-61938843D01*
X56324000Y-61846883D01*
X56324000Y-61753117D01*
X56342292Y-61661157D01*
X56378174Y-61574531D01*
X56378174Y-61574530D01*
X56430267Y-61496568D01*
X56496570Y-61430265D01*
X56535979Y-61403933D01*
X56554921Y-61388388D01*
X56570466Y-61369446D01*
X56582018Y-61347836D01*
X56589131Y-61324387D01*
X56591533Y-61300001D01*
X56589131Y-61275615D01*
X56582018Y-61252166D01*
X56570467Y-61230555D01*
X56554922Y-61211613D01*
X56535979Y-61196067D01*
X56496570Y-61169735D01*
X56430267Y-61103432D01*
X56378174Y-61025470D01*
X56363311Y-60989588D01*
X56342292Y-60938843D01*
X56324000Y-60846883D01*
X56324000Y-60753117D01*
X56342292Y-60661157D01*
X56378174Y-60574531D01*
X56378174Y-60574530D01*
X56430267Y-60496568D01*
X56496570Y-60430265D01*
X56535979Y-60403933D01*
X56554921Y-60388388D01*
X56570466Y-60369446D01*
X56582018Y-60347836D01*
X56589131Y-60324387D01*
X56591533Y-60300001D01*
X56589131Y-60275615D01*
X56582018Y-60252166D01*
X56570467Y-60230555D01*
X56554922Y-60211613D01*
X56535979Y-60196067D01*
X56496570Y-60169735D01*
X56430267Y-60103432D01*
X56378174Y-60025470D01*
X56363311Y-59989588D01*
X56342292Y-59938843D01*
X56324000Y-59846883D01*
X56324000Y-59753117D01*
X56342292Y-59661157D01*
X56378174Y-59574531D01*
X56378174Y-59574530D01*
X56430267Y-59496568D01*
X56496570Y-59430265D01*
X56535979Y-59403933D01*
X56554921Y-59388388D01*
X56570466Y-59369446D01*
X56582018Y-59347836D01*
X56589131Y-59324387D01*
X56591533Y-59300001D01*
X56589131Y-59275615D01*
X56582018Y-59252166D01*
X56570467Y-59230555D01*
X56554922Y-59211613D01*
X56535979Y-59196067D01*
X56496570Y-59169735D01*
X56430267Y-59103432D01*
X56378174Y-59025470D01*
X56363311Y-58989588D01*
X56342292Y-58938843D01*
X56324000Y-58846883D01*
X56324000Y-58753117D01*
X56342292Y-58661157D01*
X56378174Y-58574531D01*
X56378174Y-58574530D01*
X56430267Y-58496568D01*
X56496570Y-58430265D01*
X56535979Y-58403933D01*
X56554921Y-58388388D01*
X56570466Y-58369446D01*
X56582018Y-58347836D01*
X56589131Y-58324387D01*
X56591533Y-58300001D01*
X56589131Y-58275615D01*
X56582018Y-58252166D01*
X56570467Y-58230555D01*
X56554922Y-58211613D01*
X56535979Y-58196067D01*
X56496570Y-58169735D01*
X56430267Y-58103432D01*
X56378174Y-58025470D01*
X56363311Y-57989588D01*
X56342292Y-57938843D01*
X56324000Y-57846883D01*
X56324000Y-57753117D01*
X56342292Y-57661157D01*
X56378174Y-57574531D01*
X56378174Y-57574530D01*
X56430267Y-57496568D01*
X56496568Y-57430267D01*
X56574530Y-57378174D01*
X56610412Y-57363311D01*
X56661157Y-57342292D01*
X56753117Y-57324000D01*
X56846883Y-57324000D01*
X56938843Y-57342292D01*
G37*
G36*
X67483974Y-52271184D02*
G01*
X67701974Y-52361483D01*
X67856123Y-52425333D01*
X68191048Y-52649123D01*
X68475877Y-52933952D01*
X68699667Y-53268877D01*
X68763517Y-53423026D01*
X68853816Y-53641026D01*
X68932400Y-54036094D01*
X68932400Y-54438906D01*
X68853816Y-54833974D01*
X68769822Y-55036753D01*
X68699667Y-55206123D01*
X68475877Y-55541048D01*
X68191048Y-55825877D01*
X67856123Y-56049667D01*
X67701974Y-56113517D01*
X67483974Y-56203816D01*
X67088906Y-56282400D01*
X66686094Y-56282400D01*
X66291026Y-56203816D01*
X66073026Y-56113517D01*
X65918877Y-56049667D01*
X65583952Y-55825877D01*
X65299123Y-55541048D01*
X65075333Y-55206123D01*
X65005178Y-55036753D01*
X64921184Y-54833974D01*
X64842600Y-54438906D01*
X64842600Y-54036094D01*
X64921184Y-53641026D01*
X65011483Y-53423026D01*
X65075333Y-53268877D01*
X65299123Y-52933952D01*
X65583952Y-52649123D01*
X65918877Y-52425333D01*
X66073026Y-52361483D01*
X66291026Y-52271184D01*
X66686094Y-52192600D01*
X67088906Y-52192600D01*
X67483974Y-52271184D01*
G37*
G36*
X143683974Y-52271184D02*
G01*
X143901974Y-52361483D01*
X144056123Y-52425333D01*
X144391048Y-52649123D01*
X144675877Y-52933952D01*
X144899667Y-53268877D01*
X144963517Y-53423026D01*
X145053816Y-53641026D01*
X145132400Y-54036094D01*
X145132400Y-54438906D01*
X145053816Y-54833974D01*
X144969822Y-55036753D01*
X144899667Y-55206123D01*
X144675877Y-55541048D01*
X144391048Y-55825877D01*
X144056123Y-56049667D01*
X143901974Y-56113517D01*
X143683974Y-56203816D01*
X143288906Y-56282400D01*
X142886094Y-56282400D01*
X142491026Y-56203816D01*
X142273026Y-56113517D01*
X142118877Y-56049667D01*
X141783952Y-55825877D01*
X141499123Y-55541048D01*
X141275333Y-55206123D01*
X141205178Y-55036753D01*
X141121184Y-54833974D01*
X141042600Y-54438906D01*
X141042600Y-54036094D01*
X141121184Y-53641026D01*
X141211483Y-53423026D01*
X141275333Y-53268877D01*
X141499123Y-52933952D01*
X141783952Y-52649123D01*
X142118877Y-52425333D01*
X142273026Y-52361483D01*
X142491026Y-52271184D01*
X142886094Y-52192600D01*
X143288906Y-52192600D01*
X143683974Y-52271184D01*
G37*
G36*
X124877487Y-52271184D02*
G01*
X125095487Y-52361483D01*
X125249636Y-52425333D01*
X125584561Y-52649123D01*
X125869390Y-52933952D01*
X126093180Y-53268877D01*
X126157030Y-53423026D01*
X126247329Y-53641026D01*
X126325913Y-54036094D01*
X126325913Y-54438906D01*
X126247329Y-54833974D01*
X126163335Y-55036753D01*
X126093180Y-55206123D01*
X125869390Y-55541048D01*
X125584561Y-55825877D01*
X125249636Y-56049667D01*
X125095487Y-56113517D01*
X124877487Y-56203816D01*
X124482419Y-56282400D01*
X124079607Y-56282400D01*
X123684539Y-56203816D01*
X123466539Y-56113517D01*
X123312390Y-56049667D01*
X122977465Y-55825877D01*
X122692636Y-55541048D01*
X122468846Y-55206123D01*
X122398691Y-55036753D01*
X122314697Y-54833974D01*
X122236113Y-54438906D01*
X122236113Y-54036094D01*
X122314697Y-53641026D01*
X122404996Y-53423026D01*
X122468846Y-53268877D01*
X122692636Y-52933952D01*
X122977465Y-52649123D01*
X123312390Y-52425333D01*
X123466539Y-52361483D01*
X123684539Y-52271184D01*
X124079607Y-52192600D01*
X124482419Y-52192600D01*
X124877487Y-52271184D01*
G37*
G36*
X105583974Y-52271184D02*
G01*
X105801974Y-52361483D01*
X105956123Y-52425333D01*
X106291048Y-52649123D01*
X106575877Y-52933952D01*
X106799667Y-53268877D01*
X106863517Y-53423026D01*
X106953816Y-53641026D01*
X107032400Y-54036094D01*
X107032400Y-54438906D01*
X106953816Y-54833974D01*
X106869822Y-55036753D01*
X106799667Y-55206123D01*
X106575877Y-55541048D01*
X106291048Y-55825877D01*
X105956123Y-56049667D01*
X105801974Y-56113517D01*
X105583974Y-56203816D01*
X105188906Y-56282400D01*
X104786094Y-56282400D01*
X104391026Y-56203816D01*
X104173026Y-56113517D01*
X104018877Y-56049667D01*
X103683952Y-55825877D01*
X103399123Y-55541048D01*
X103175333Y-55206123D01*
X103105178Y-55036753D01*
X103021184Y-54833974D01*
X102942600Y-54438906D01*
X102942600Y-54036094D01*
X103021184Y-53641026D01*
X103111483Y-53423026D01*
X103175333Y-53268877D01*
X103399123Y-52933952D01*
X103683952Y-52649123D01*
X104018877Y-52425333D01*
X104173026Y-52361483D01*
X104391026Y-52271184D01*
X104786094Y-52192600D01*
X105188906Y-52192600D01*
X105583974Y-52271184D01*
G37*
G36*
X86533974Y-52271184D02*
G01*
X86751974Y-52361483D01*
X86906123Y-52425333D01*
X87241048Y-52649123D01*
X87525877Y-52933952D01*
X87749667Y-53268877D01*
X87813517Y-53423026D01*
X87903816Y-53641026D01*
X87982400Y-54036094D01*
X87982400Y-54438906D01*
X87903816Y-54833974D01*
X87819822Y-55036753D01*
X87749667Y-55206123D01*
X87525877Y-55541048D01*
X87241048Y-55825877D01*
X86906123Y-56049667D01*
X86751974Y-56113517D01*
X86533974Y-56203816D01*
X86138906Y-56282400D01*
X85736094Y-56282400D01*
X85341026Y-56203816D01*
X85123026Y-56113517D01*
X84968877Y-56049667D01*
X84633952Y-55825877D01*
X84349123Y-55541048D01*
X84125333Y-55206123D01*
X84055178Y-55036753D01*
X83971184Y-54833974D01*
X83892600Y-54438906D01*
X83892600Y-54036094D01*
X83971184Y-53641026D01*
X84061483Y-53423026D01*
X84125333Y-53268877D01*
X84349123Y-52933952D01*
X84633952Y-52649123D01*
X84968877Y-52425333D01*
X85123026Y-52361483D01*
X85341026Y-52271184D01*
X85736094Y-52192600D01*
X86138906Y-52192600D01*
X86533974Y-52271184D01*
G37*
G36*
X110243452Y-53352930D02*
G01*
X110330575Y-53370259D01*
X110439998Y-53415584D01*
X110494711Y-53438247D01*
X110641433Y-53536283D01*
X110642428Y-53536948D01*
X110768052Y-53662572D01*
X110768054Y-53662575D01*
X110866753Y-53810289D01*
X110866753Y-53810290D01*
X110934741Y-53974425D01*
X110969400Y-54148671D01*
X110969400Y-54326329D01*
X110934741Y-54500575D01*
X110889416Y-54609998D01*
X110866753Y-54664711D01*
X110768717Y-54811433D01*
X110768052Y-54812428D01*
X110642428Y-54938052D01*
X110642425Y-54938054D01*
X110494711Y-55036753D01*
X110439998Y-55059416D01*
X110330575Y-55104741D01*
X110243452Y-55122071D01*
X110156331Y-55139400D01*
X109978669Y-55139400D01*
X109891548Y-55122071D01*
X109804425Y-55104741D01*
X109695002Y-55059416D01*
X109640289Y-55036753D01*
X109492575Y-54938054D01*
X109492572Y-54938052D01*
X109366948Y-54812428D01*
X109366283Y-54811433D01*
X109268247Y-54664711D01*
X109245584Y-54609998D01*
X109200259Y-54500575D01*
X109165600Y-54326329D01*
X109165600Y-54148671D01*
X109200259Y-53974425D01*
X109268247Y-53810290D01*
X109268247Y-53810289D01*
X109366946Y-53662575D01*
X109366948Y-53662572D01*
X109492572Y-53536948D01*
X109493567Y-53536283D01*
X109640289Y-53438247D01*
X109695002Y-53415584D01*
X109804425Y-53370259D01*
X109891548Y-53352930D01*
X109978669Y-53335600D01*
X110156331Y-53335600D01*
X110243452Y-53352930D01*
G37*
G36*
X148343452Y-53352930D02*
G01*
X148430575Y-53370259D01*
X148539998Y-53415584D01*
X148594711Y-53438247D01*
X148741433Y-53536283D01*
X148742428Y-53536948D01*
X148868052Y-53662572D01*
X148868054Y-53662575D01*
X148966753Y-53810289D01*
X148966753Y-53810290D01*
X149034741Y-53974425D01*
X149069400Y-54148671D01*
X149069400Y-54326329D01*
X149034741Y-54500575D01*
X148989416Y-54609998D01*
X148966753Y-54664711D01*
X148868717Y-54811433D01*
X148868052Y-54812428D01*
X148742428Y-54938052D01*
X148742425Y-54938054D01*
X148594711Y-55036753D01*
X148539998Y-55059416D01*
X148430575Y-55104741D01*
X148343452Y-55122071D01*
X148256331Y-55139400D01*
X148078669Y-55139400D01*
X147991548Y-55122071D01*
X147904425Y-55104741D01*
X147795002Y-55059416D01*
X147740289Y-55036753D01*
X147592575Y-54938054D01*
X147592572Y-54938052D01*
X147466948Y-54812428D01*
X147466283Y-54811433D01*
X147368247Y-54664711D01*
X147345584Y-54609998D01*
X147300259Y-54500575D01*
X147265600Y-54326329D01*
X147265600Y-54148671D01*
X147300259Y-53974425D01*
X147368247Y-53810290D01*
X147368247Y-53810289D01*
X147466946Y-53662575D01*
X147466948Y-53662572D01*
X147592572Y-53536948D01*
X147593567Y-53536283D01*
X147740289Y-53438247D01*
X147795002Y-53415584D01*
X147904425Y-53370259D01*
X147991548Y-53352930D01*
X148078669Y-53335600D01*
X148256331Y-53335600D01*
X148343452Y-53352930D01*
G37*
G36*
X129536965Y-53352930D02*
G01*
X129624088Y-53370259D01*
X129733511Y-53415584D01*
X129788224Y-53438247D01*
X129934946Y-53536283D01*
X129935941Y-53536948D01*
X130061565Y-53662572D01*
X130061567Y-53662575D01*
X130160266Y-53810289D01*
X130160266Y-53810290D01*
X130228254Y-53974425D01*
X130262913Y-54148671D01*
X130262913Y-54326329D01*
X130228254Y-54500575D01*
X130182929Y-54609998D01*
X130160266Y-54664711D01*
X130062230Y-54811433D01*
X130061565Y-54812428D01*
X129935941Y-54938052D01*
X129935938Y-54938054D01*
X129788224Y-55036753D01*
X129733511Y-55059416D01*
X129624088Y-55104741D01*
X129536965Y-55122071D01*
X129449844Y-55139400D01*
X129272182Y-55139400D01*
X129185061Y-55122071D01*
X129097938Y-55104741D01*
X128988515Y-55059416D01*
X128933802Y-55036753D01*
X128786088Y-54938054D01*
X128786085Y-54938052D01*
X128660461Y-54812428D01*
X128659796Y-54811433D01*
X128561760Y-54664711D01*
X128539097Y-54609998D01*
X128493772Y-54500575D01*
X128459113Y-54326329D01*
X128459113Y-54148671D01*
X128493772Y-53974425D01*
X128561760Y-53810290D01*
X128561760Y-53810289D01*
X128660459Y-53662575D01*
X128660461Y-53662572D01*
X128786085Y-53536948D01*
X128787080Y-53536283D01*
X128933802Y-53438247D01*
X128988515Y-53415584D01*
X129097938Y-53370259D01*
X129185061Y-53352930D01*
X129272182Y-53335600D01*
X129449844Y-53335600D01*
X129536965Y-53352930D01*
G37*
G36*
X119376965Y-53352930D02*
G01*
X119464088Y-53370259D01*
X119573511Y-53415584D01*
X119628224Y-53438247D01*
X119774946Y-53536283D01*
X119775941Y-53536948D01*
X119901565Y-53662572D01*
X119901567Y-53662575D01*
X120000266Y-53810289D01*
X120000266Y-53810290D01*
X120068254Y-53974425D01*
X120102913Y-54148671D01*
X120102913Y-54326329D01*
X120068254Y-54500575D01*
X120022929Y-54609998D01*
X120000266Y-54664711D01*
X119902230Y-54811433D01*
X119901565Y-54812428D01*
X119775941Y-54938052D01*
X119775938Y-54938054D01*
X119628224Y-55036753D01*
X119573511Y-55059416D01*
X119464088Y-55104741D01*
X119376965Y-55122071D01*
X119289844Y-55139400D01*
X119112182Y-55139400D01*
X119025061Y-55122071D01*
X118937938Y-55104741D01*
X118828515Y-55059416D01*
X118773802Y-55036753D01*
X118626088Y-54938054D01*
X118626085Y-54938052D01*
X118500461Y-54812428D01*
X118499796Y-54811433D01*
X118401760Y-54664711D01*
X118379097Y-54609998D01*
X118333772Y-54500575D01*
X118299113Y-54326329D01*
X118299113Y-54148671D01*
X118333772Y-53974425D01*
X118401760Y-53810290D01*
X118401760Y-53810289D01*
X118500459Y-53662575D01*
X118500461Y-53662572D01*
X118626085Y-53536948D01*
X118627080Y-53536283D01*
X118773802Y-53438247D01*
X118828515Y-53415584D01*
X118937938Y-53370259D01*
X119025061Y-53352930D01*
X119112182Y-53335600D01*
X119289844Y-53335600D01*
X119376965Y-53352930D01*
G37*
G36*
X100083452Y-53352930D02*
G01*
X100170575Y-53370259D01*
X100279998Y-53415584D01*
X100334711Y-53438247D01*
X100481433Y-53536283D01*
X100482428Y-53536948D01*
X100608052Y-53662572D01*
X100608054Y-53662575D01*
X100706753Y-53810289D01*
X100706753Y-53810290D01*
X100774741Y-53974425D01*
X100809400Y-54148671D01*
X100809400Y-54326329D01*
X100774741Y-54500575D01*
X100729416Y-54609998D01*
X100706753Y-54664711D01*
X100608717Y-54811433D01*
X100608052Y-54812428D01*
X100482428Y-54938052D01*
X100482425Y-54938054D01*
X100334711Y-55036753D01*
X100279998Y-55059416D01*
X100170575Y-55104741D01*
X100083452Y-55122071D01*
X99996331Y-55139400D01*
X99818669Y-55139400D01*
X99731548Y-55122071D01*
X99644425Y-55104741D01*
X99535002Y-55059416D01*
X99480289Y-55036753D01*
X99332575Y-54938054D01*
X99332572Y-54938052D01*
X99206948Y-54812428D01*
X99206283Y-54811433D01*
X99108247Y-54664711D01*
X99085584Y-54609998D01*
X99040259Y-54500575D01*
X99005600Y-54326329D01*
X99005600Y-54148671D01*
X99040259Y-53974425D01*
X99108247Y-53810290D01*
X99108247Y-53810289D01*
X99206946Y-53662575D01*
X99206948Y-53662572D01*
X99332572Y-53536948D01*
X99333567Y-53536283D01*
X99480289Y-53438247D01*
X99535002Y-53415584D01*
X99644425Y-53370259D01*
X99731548Y-53352930D01*
X99818669Y-53335600D01*
X99996331Y-53335600D01*
X100083452Y-53352930D01*
G37*
G36*
X91193452Y-53352930D02*
G01*
X91280575Y-53370259D01*
X91389998Y-53415584D01*
X91444711Y-53438247D01*
X91591433Y-53536283D01*
X91592428Y-53536948D01*
X91718052Y-53662572D01*
X91718054Y-53662575D01*
X91816753Y-53810289D01*
X91816753Y-53810290D01*
X91884741Y-53974425D01*
X91919400Y-54148671D01*
X91919400Y-54326329D01*
X91884741Y-54500575D01*
X91839416Y-54609998D01*
X91816753Y-54664711D01*
X91718717Y-54811433D01*
X91718052Y-54812428D01*
X91592428Y-54938052D01*
X91592425Y-54938054D01*
X91444711Y-55036753D01*
X91389998Y-55059416D01*
X91280575Y-55104741D01*
X91193452Y-55122071D01*
X91106331Y-55139400D01*
X90928669Y-55139400D01*
X90841548Y-55122071D01*
X90754425Y-55104741D01*
X90645002Y-55059416D01*
X90590289Y-55036753D01*
X90442575Y-54938054D01*
X90442572Y-54938052D01*
X90316948Y-54812428D01*
X90316283Y-54811433D01*
X90218247Y-54664711D01*
X90195584Y-54609998D01*
X90150259Y-54500575D01*
X90115600Y-54326329D01*
X90115600Y-54148671D01*
X90150259Y-53974425D01*
X90218247Y-53810290D01*
X90218247Y-53810289D01*
X90316946Y-53662575D01*
X90316948Y-53662572D01*
X90442572Y-53536948D01*
X90443567Y-53536283D01*
X90590289Y-53438247D01*
X90645002Y-53415584D01*
X90754425Y-53370259D01*
X90841548Y-53352930D01*
X90928669Y-53335600D01*
X91106331Y-53335600D01*
X91193452Y-53352930D01*
G37*
G36*
X72143452Y-53352930D02*
G01*
X72230575Y-53370259D01*
X72339998Y-53415584D01*
X72394711Y-53438247D01*
X72541433Y-53536283D01*
X72542428Y-53536948D01*
X72668052Y-53662572D01*
X72668054Y-53662575D01*
X72766753Y-53810289D01*
X72766753Y-53810290D01*
X72834741Y-53974425D01*
X72869400Y-54148671D01*
X72869400Y-54326329D01*
X72834741Y-54500575D01*
X72789416Y-54609998D01*
X72766753Y-54664711D01*
X72668717Y-54811433D01*
X72668052Y-54812428D01*
X72542428Y-54938052D01*
X72542425Y-54938054D01*
X72394711Y-55036753D01*
X72339998Y-55059416D01*
X72230575Y-55104741D01*
X72143452Y-55122071D01*
X72056331Y-55139400D01*
X71878669Y-55139400D01*
X71791548Y-55122071D01*
X71704425Y-55104741D01*
X71595002Y-55059416D01*
X71540289Y-55036753D01*
X71392575Y-54938054D01*
X71392572Y-54938052D01*
X71266948Y-54812428D01*
X71266283Y-54811433D01*
X71168247Y-54664711D01*
X71145584Y-54609998D01*
X71100259Y-54500575D01*
X71065600Y-54326329D01*
X71065600Y-54148671D01*
X71100259Y-53974425D01*
X71168247Y-53810290D01*
X71168247Y-53810289D01*
X71266946Y-53662575D01*
X71266948Y-53662572D01*
X71392572Y-53536948D01*
X71393567Y-53536283D01*
X71540289Y-53438247D01*
X71595002Y-53415584D01*
X71704425Y-53370259D01*
X71791548Y-53352930D01*
X71878669Y-53335600D01*
X72056331Y-53335600D01*
X72143452Y-53352930D01*
G37*
G36*
X61983452Y-53352930D02*
G01*
X62070575Y-53370259D01*
X62179998Y-53415584D01*
X62234711Y-53438247D01*
X62381433Y-53536283D01*
X62382428Y-53536948D01*
X62508052Y-53662572D01*
X62508054Y-53662575D01*
X62606753Y-53810289D01*
X62606753Y-53810290D01*
X62674741Y-53974425D01*
X62709400Y-54148671D01*
X62709400Y-54326329D01*
X62674741Y-54500575D01*
X62629416Y-54609998D01*
X62606753Y-54664711D01*
X62508717Y-54811433D01*
X62508052Y-54812428D01*
X62382428Y-54938052D01*
X62382425Y-54938054D01*
X62234711Y-55036753D01*
X62179998Y-55059416D01*
X62070575Y-55104741D01*
X61983452Y-55122071D01*
X61896331Y-55139400D01*
X61718669Y-55139400D01*
X61631548Y-55122071D01*
X61544425Y-55104741D01*
X61435002Y-55059416D01*
X61380289Y-55036753D01*
X61232575Y-54938054D01*
X61232572Y-54938052D01*
X61106948Y-54812428D01*
X61106283Y-54811433D01*
X61008247Y-54664711D01*
X60985584Y-54609998D01*
X60940259Y-54500575D01*
X60905600Y-54326329D01*
X60905600Y-54148671D01*
X60940259Y-53974425D01*
X61008247Y-53810290D01*
X61008247Y-53810289D01*
X61106946Y-53662575D01*
X61106948Y-53662572D01*
X61232572Y-53536948D01*
X61233567Y-53536283D01*
X61380289Y-53438247D01*
X61435002Y-53415584D01*
X61544425Y-53370259D01*
X61631548Y-53352930D01*
X61718669Y-53335600D01*
X61896331Y-53335600D01*
X61983452Y-53352930D01*
G37*
G36*
X138183452Y-53352930D02*
G01*
X138270575Y-53370259D01*
X138379998Y-53415584D01*
X138434711Y-53438247D01*
X138581433Y-53536283D01*
X138582428Y-53536948D01*
X138708052Y-53662572D01*
X138708054Y-53662575D01*
X138806753Y-53810289D01*
X138806753Y-53810290D01*
X138874741Y-53974425D01*
X138909400Y-54148671D01*
X138909400Y-54326329D01*
X138874741Y-54500575D01*
X138829416Y-54609998D01*
X138806753Y-54664711D01*
X138708717Y-54811433D01*
X138708052Y-54812428D01*
X138582428Y-54938052D01*
X138582425Y-54938054D01*
X138434711Y-55036753D01*
X138379998Y-55059416D01*
X138270575Y-55104741D01*
X138183452Y-55122071D01*
X138096331Y-55139400D01*
X137918669Y-55139400D01*
X137831548Y-55122071D01*
X137744425Y-55104741D01*
X137635002Y-55059416D01*
X137580289Y-55036753D01*
X137432575Y-54938054D01*
X137432572Y-54938052D01*
X137306948Y-54812428D01*
X137306283Y-54811433D01*
X137208247Y-54664711D01*
X137185584Y-54609998D01*
X137140259Y-54500575D01*
X137105600Y-54326329D01*
X137105600Y-54148671D01*
X137140259Y-53974425D01*
X137208247Y-53810290D01*
X137208247Y-53810289D01*
X137306946Y-53662575D01*
X137306948Y-53662572D01*
X137432572Y-53536948D01*
X137433567Y-53536283D01*
X137580289Y-53438247D01*
X137635002Y-53415584D01*
X137744425Y-53370259D01*
X137831548Y-53352930D01*
X137918669Y-53335600D01*
X138096331Y-53335600D01*
X138183452Y-53352930D01*
G37*
G36*
X81033452Y-53352930D02*
G01*
X81120575Y-53370259D01*
X81229998Y-53415584D01*
X81284711Y-53438247D01*
X81431433Y-53536283D01*
X81432428Y-53536948D01*
X81558052Y-53662572D01*
X81558054Y-53662575D01*
X81656753Y-53810289D01*
X81656753Y-53810290D01*
X81724741Y-53974425D01*
X81759400Y-54148671D01*
X81759400Y-54326329D01*
X81724741Y-54500575D01*
X81679416Y-54609998D01*
X81656753Y-54664711D01*
X81558717Y-54811433D01*
X81558052Y-54812428D01*
X81432428Y-54938052D01*
X81432425Y-54938054D01*
X81284711Y-55036753D01*
X81229998Y-55059416D01*
X81120575Y-55104741D01*
X81033452Y-55122071D01*
X80946331Y-55139400D01*
X80768669Y-55139400D01*
X80681548Y-55122071D01*
X80594425Y-55104741D01*
X80485002Y-55059416D01*
X80430289Y-55036753D01*
X80282575Y-54938054D01*
X80282572Y-54938052D01*
X80156948Y-54812428D01*
X80156283Y-54811433D01*
X80058247Y-54664711D01*
X80035584Y-54609998D01*
X79990259Y-54500575D01*
X79955600Y-54326329D01*
X79955600Y-54148671D01*
X79990259Y-53974425D01*
X80058247Y-53810290D01*
X80058247Y-53810289D01*
X80156946Y-53662575D01*
X80156948Y-53662572D01*
X80282572Y-53536948D01*
X80283567Y-53536283D01*
X80430289Y-53438247D01*
X80485002Y-53415584D01*
X80594425Y-53370259D01*
X80681548Y-53352930D01*
X80768669Y-53335600D01*
X80946331Y-53335600D01*
X81033452Y-53352930D01*
G37*
G36*
X120773598Y-50176302D02*
G01*
X120923423Y-50206104D01*
X121205687Y-50323021D01*
X121459718Y-50492759D01*
X121675754Y-50708795D01*
X121845492Y-50962826D01*
X121962409Y-51245090D01*
X122022013Y-51544740D01*
X122022013Y-51850260D01*
X121962409Y-52149910D01*
X121845492Y-52432174D01*
X121675754Y-52686205D01*
X121459718Y-52902241D01*
X121205687Y-53071979D01*
X120923423Y-53188896D01*
X120773598Y-53218698D01*
X120623774Y-53248500D01*
X120318252Y-53248500D01*
X120168428Y-53218698D01*
X120018603Y-53188896D01*
X119736339Y-53071979D01*
X119482308Y-52902241D01*
X119266272Y-52686205D01*
X119096534Y-52432174D01*
X118979617Y-52149910D01*
X118920013Y-51850260D01*
X118920013Y-51544740D01*
X118979617Y-51245090D01*
X119096534Y-50962826D01*
X119266272Y-50708795D01*
X119482308Y-50492759D01*
X119736339Y-50323021D01*
X120018603Y-50206104D01*
X120168428Y-50176302D01*
X120318252Y-50146500D01*
X120623774Y-50146500D01*
X120773598Y-50176302D01*
G37*
G36*
X139580085Y-50176302D02*
G01*
X139729910Y-50206104D01*
X140012174Y-50323021D01*
X140266205Y-50492759D01*
X140482241Y-50708795D01*
X140651979Y-50962826D01*
X140768896Y-51245090D01*
X140828500Y-51544740D01*
X140828500Y-51850260D01*
X140768896Y-52149910D01*
X140651979Y-52432174D01*
X140482241Y-52686205D01*
X140266205Y-52902241D01*
X140012174Y-53071979D01*
X139729910Y-53188896D01*
X139580085Y-53218698D01*
X139430261Y-53248500D01*
X139124739Y-53248500D01*
X138974915Y-53218698D01*
X138825090Y-53188896D01*
X138542826Y-53071979D01*
X138288795Y-52902241D01*
X138072759Y-52686205D01*
X137903021Y-52432174D01*
X137786104Y-52149910D01*
X137726500Y-51850260D01*
X137726500Y-51544740D01*
X137786104Y-51245090D01*
X137903021Y-50962826D01*
X138072759Y-50708795D01*
X138288795Y-50492759D01*
X138542826Y-50323021D01*
X138825090Y-50206104D01*
X138974915Y-50176302D01*
X139124739Y-50146500D01*
X139430261Y-50146500D01*
X139580085Y-50176302D01*
G37*
G36*
X101480085Y-50176302D02*
G01*
X101629910Y-50206104D01*
X101912174Y-50323021D01*
X102166205Y-50492759D01*
X102382241Y-50708795D01*
X102551979Y-50962826D01*
X102668896Y-51245090D01*
X102728500Y-51544740D01*
X102728500Y-51850260D01*
X102668896Y-52149910D01*
X102551979Y-52432174D01*
X102382241Y-52686205D01*
X102166205Y-52902241D01*
X101912174Y-53071979D01*
X101629910Y-53188896D01*
X101480085Y-53218698D01*
X101330261Y-53248500D01*
X101024739Y-53248500D01*
X100874915Y-53218698D01*
X100725090Y-53188896D01*
X100442826Y-53071979D01*
X100188795Y-52902241D01*
X99972759Y-52686205D01*
X99803021Y-52432174D01*
X99686104Y-52149910D01*
X99626500Y-51850260D01*
X99626500Y-51544740D01*
X99686104Y-51245090D01*
X99803021Y-50962826D01*
X99972759Y-50708795D01*
X100188795Y-50492759D01*
X100442826Y-50323021D01*
X100725090Y-50206104D01*
X100874915Y-50176302D01*
X101024739Y-50146500D01*
X101330261Y-50146500D01*
X101480085Y-50176302D01*
G37*
G36*
X82430085Y-50176302D02*
G01*
X82579910Y-50206104D01*
X82862174Y-50323021D01*
X83116205Y-50492759D01*
X83332241Y-50708795D01*
X83501979Y-50962826D01*
X83618896Y-51245090D01*
X83678500Y-51544740D01*
X83678500Y-51850260D01*
X83618896Y-52149910D01*
X83501979Y-52432174D01*
X83332241Y-52686205D01*
X83116205Y-52902241D01*
X82862174Y-53071979D01*
X82579910Y-53188896D01*
X82430085Y-53218698D01*
X82280261Y-53248500D01*
X81974739Y-53248500D01*
X81824915Y-53218698D01*
X81675090Y-53188896D01*
X81392826Y-53071979D01*
X81138795Y-52902241D01*
X80922759Y-52686205D01*
X80753021Y-52432174D01*
X80636104Y-52149910D01*
X80576500Y-51850260D01*
X80576500Y-51544740D01*
X80636104Y-51245090D01*
X80753021Y-50962826D01*
X80922759Y-50708795D01*
X81138795Y-50492759D01*
X81392826Y-50323021D01*
X81675090Y-50206104D01*
X81824915Y-50176302D01*
X81974739Y-50146500D01*
X82280261Y-50146500D01*
X82430085Y-50176302D01*
G37*
G36*
X63380085Y-50176302D02*
G01*
X63529910Y-50206104D01*
X63812174Y-50323021D01*
X64066205Y-50492759D01*
X64282241Y-50708795D01*
X64451979Y-50962826D01*
X64568896Y-51245090D01*
X64628500Y-51544740D01*
X64628500Y-51850260D01*
X64568896Y-52149910D01*
X64451979Y-52432174D01*
X64282241Y-52686205D01*
X64066205Y-52902241D01*
X63812174Y-53071979D01*
X63529910Y-53188896D01*
X63380085Y-53218698D01*
X63230261Y-53248500D01*
X62924739Y-53248500D01*
X62774915Y-53218698D01*
X62625090Y-53188896D01*
X62342826Y-53071979D01*
X62088795Y-52902241D01*
X61872759Y-52686205D01*
X61703021Y-52432174D01*
X61586104Y-52149910D01*
X61526500Y-51850260D01*
X61526500Y-51544740D01*
X61586104Y-51245090D01*
X61703021Y-50962826D01*
X61872759Y-50708795D01*
X62088795Y-50492759D01*
X62342826Y-50323021D01*
X62625090Y-50206104D01*
X62774915Y-50176302D01*
X62924739Y-50146500D01*
X63230261Y-50146500D01*
X63380085Y-50176302D01*
G37*
G36*
X145930085Y-47636302D02*
G01*
X146079910Y-47666104D01*
X146362174Y-47783021D01*
X146616205Y-47952759D01*
X146832241Y-48168795D01*
X147001979Y-48422826D01*
X147118896Y-48705090D01*
X147178500Y-49004740D01*
X147178500Y-49310260D01*
X147118896Y-49609910D01*
X147001979Y-49892174D01*
X146832241Y-50146205D01*
X146616205Y-50362241D01*
X146362174Y-50531979D01*
X146079910Y-50648896D01*
X145930085Y-50678698D01*
X145780261Y-50708500D01*
X145474739Y-50708500D01*
X145324915Y-50678698D01*
X145175090Y-50648896D01*
X144892826Y-50531979D01*
X144638795Y-50362241D01*
X144422759Y-50146205D01*
X144253021Y-49892174D01*
X144136104Y-49609910D01*
X144076500Y-49310260D01*
X144076500Y-49004740D01*
X144136104Y-48705090D01*
X144253021Y-48422826D01*
X144422759Y-48168795D01*
X144638795Y-47952759D01*
X144892826Y-47783021D01*
X145175090Y-47666104D01*
X145324915Y-47636302D01*
X145474739Y-47606500D01*
X145780261Y-47606500D01*
X145930085Y-47636302D01*
G37*
G36*
X127123598Y-47636302D02*
G01*
X127273423Y-47666104D01*
X127555687Y-47783021D01*
X127809718Y-47952759D01*
X128025754Y-48168795D01*
X128195492Y-48422826D01*
X128312409Y-48705090D01*
X128372013Y-49004740D01*
X128372013Y-49310260D01*
X128312409Y-49609910D01*
X128195492Y-49892174D01*
X128025754Y-50146205D01*
X127809718Y-50362241D01*
X127555687Y-50531979D01*
X127273423Y-50648896D01*
X127123598Y-50678698D01*
X126973774Y-50708500D01*
X126668252Y-50708500D01*
X126518428Y-50678698D01*
X126368603Y-50648896D01*
X126086339Y-50531979D01*
X125832308Y-50362241D01*
X125616272Y-50146205D01*
X125446534Y-49892174D01*
X125329617Y-49609910D01*
X125270013Y-49310260D01*
X125270013Y-49004740D01*
X125329617Y-48705090D01*
X125446534Y-48422826D01*
X125616272Y-48168795D01*
X125832308Y-47952759D01*
X126086339Y-47783021D01*
X126368603Y-47666104D01*
X126518428Y-47636302D01*
X126668252Y-47606500D01*
X126973774Y-47606500D01*
X127123598Y-47636302D01*
G37*
G36*
X107830085Y-47636302D02*
G01*
X107979910Y-47666104D01*
X108262174Y-47783021D01*
X108516205Y-47952759D01*
X108732241Y-48168795D01*
X108901979Y-48422826D01*
X109018896Y-48705090D01*
X109078500Y-49004740D01*
X109078500Y-49310260D01*
X109018896Y-49609910D01*
X108901979Y-49892174D01*
X108732241Y-50146205D01*
X108516205Y-50362241D01*
X108262174Y-50531979D01*
X107979910Y-50648896D01*
X107830085Y-50678698D01*
X107680261Y-50708500D01*
X107374739Y-50708500D01*
X107224915Y-50678698D01*
X107075090Y-50648896D01*
X106792826Y-50531979D01*
X106538795Y-50362241D01*
X106322759Y-50146205D01*
X106153021Y-49892174D01*
X106036104Y-49609910D01*
X105976500Y-49310260D01*
X105976500Y-49004740D01*
X106036104Y-48705090D01*
X106153021Y-48422826D01*
X106322759Y-48168795D01*
X106538795Y-47952759D01*
X106792826Y-47783021D01*
X107075090Y-47666104D01*
X107224915Y-47636302D01*
X107374739Y-47606500D01*
X107680261Y-47606500D01*
X107830085Y-47636302D01*
G37*
G36*
X88780085Y-47636302D02*
G01*
X88929910Y-47666104D01*
X89212174Y-47783021D01*
X89466205Y-47952759D01*
X89682241Y-48168795D01*
X89851979Y-48422826D01*
X89968896Y-48705090D01*
X90028500Y-49004740D01*
X90028500Y-49310260D01*
X89968896Y-49609910D01*
X89851979Y-49892174D01*
X89682241Y-50146205D01*
X89466205Y-50362241D01*
X89212174Y-50531979D01*
X88929910Y-50648896D01*
X88780085Y-50678698D01*
X88630261Y-50708500D01*
X88324739Y-50708500D01*
X88174915Y-50678698D01*
X88025090Y-50648896D01*
X87742826Y-50531979D01*
X87488795Y-50362241D01*
X87272759Y-50146205D01*
X87103021Y-49892174D01*
X86986104Y-49609910D01*
X86926500Y-49310260D01*
X86926500Y-49004740D01*
X86986104Y-48705090D01*
X87103021Y-48422826D01*
X87272759Y-48168795D01*
X87488795Y-47952759D01*
X87742826Y-47783021D01*
X88025090Y-47666104D01*
X88174915Y-47636302D01*
X88324739Y-47606500D01*
X88630261Y-47606500D01*
X88780085Y-47636302D01*
G37*
G36*
X69730085Y-47636302D02*
G01*
X69879910Y-47666104D01*
X70162174Y-47783021D01*
X70416205Y-47952759D01*
X70632241Y-48168795D01*
X70801979Y-48422826D01*
X70918896Y-48705090D01*
X70978500Y-49004740D01*
X70978500Y-49310260D01*
X70918896Y-49609910D01*
X70801979Y-49892174D01*
X70632241Y-50146205D01*
X70416205Y-50362241D01*
X70162174Y-50531979D01*
X69879910Y-50648896D01*
X69730085Y-50678698D01*
X69580261Y-50708500D01*
X69274739Y-50708500D01*
X69124915Y-50678698D01*
X68975090Y-50648896D01*
X68692826Y-50531979D01*
X68438795Y-50362241D01*
X68222759Y-50146205D01*
X68053021Y-49892174D01*
X67936104Y-49609910D01*
X67876500Y-49310260D01*
X67876500Y-49004740D01*
X67936104Y-48705090D01*
X68053021Y-48422826D01*
X68222759Y-48168795D01*
X68438795Y-47952759D01*
X68692826Y-47783021D01*
X68975090Y-47666104D01*
X69124915Y-47636302D01*
X69274739Y-47606500D01*
X69580261Y-47606500D01*
X69730085Y-47636302D01*
G37*
M02*
