%TF.GenerationSoftware,KiCad,Pcbnew,(5.1.6)-1*%
%TF.CreationDate,2020-05-31T03:06:52+03:00*%
%TF.ProjectId,Project,50726f6a-6563-4742-9e6b-696361645f70,rev?*%
%TF.SameCoordinates,Original*%
%TF.FileFunction,Paste,Bot*%
%TF.FilePolarity,Positive*%
%FSLAX46Y46*%
G04 Gerber Fmt 4.6, Leading zero omitted, Abs format (unit mm)*
G04 Created by KiCad (PCBNEW (5.1.6)-1) date 2020-05-31 03:06:52*
%MOMM*%
%LPD*%
G01*
G04 APERTURE LIST*
%ADD10R,1.000000X1.700000*%
%ADD11R,0.700000X1.000000*%
%ADD12R,0.700000X0.600000*%
%ADD13R,1.150000X0.600000*%
%ADD14R,1.150000X0.300000*%
%ADD15R,2.000000X0.400000*%
G04 APERTURE END LIST*
%TO.C,C11*%
G36*
G01*
X72370200Y-107541350D02*
X72370200Y-108053850D01*
G75*
G02*
X72151450Y-108272600I-218750J0D01*
G01*
X71713950Y-108272600D01*
G75*
G02*
X71495200Y-108053850I0J218750D01*
G01*
X71495200Y-107541350D01*
G75*
G02*
X71713950Y-107322600I218750J0D01*
G01*
X72151450Y-107322600D01*
G75*
G02*
X72370200Y-107541350I0J-218750D01*
G01*
G37*
G36*
G01*
X73945200Y-107541350D02*
X73945200Y-108053850D01*
G75*
G02*
X73726450Y-108272600I-218750J0D01*
G01*
X73288950Y-108272600D01*
G75*
G02*
X73070200Y-108053850I0J218750D01*
G01*
X73070200Y-107541350D01*
G75*
G02*
X73288950Y-107322600I218750J0D01*
G01*
X73726450Y-107322600D01*
G75*
G02*
X73945200Y-107541350I0J-218750D01*
G01*
G37*
%TD*%
%TO.C,C10*%
G36*
G01*
X73970600Y-101419950D02*
X73970600Y-101932450D01*
G75*
G02*
X73751850Y-102151200I-218750J0D01*
G01*
X73314350Y-102151200D01*
G75*
G02*
X73095600Y-101932450I0J218750D01*
G01*
X73095600Y-101419950D01*
G75*
G02*
X73314350Y-101201200I218750J0D01*
G01*
X73751850Y-101201200D01*
G75*
G02*
X73970600Y-101419950I0J-218750D01*
G01*
G37*
G36*
G01*
X72395600Y-101419950D02*
X72395600Y-101932450D01*
G75*
G02*
X72176850Y-102151200I-218750J0D01*
G01*
X71739350Y-102151200D01*
G75*
G02*
X71520600Y-101932450I0J218750D01*
G01*
X71520600Y-101419950D01*
G75*
G02*
X71739350Y-101201200I218750J0D01*
G01*
X72176850Y-101201200D01*
G75*
G02*
X72395600Y-101419950I0J-218750D01*
G01*
G37*
%TD*%
%TO.C,U2*%
G36*
G01*
X74398001Y-72362000D02*
X73847999Y-72362000D01*
G75*
G02*
X73598000Y-72112001I0J249999D01*
G01*
X73598000Y-71561999D01*
G75*
G02*
X73847999Y-71312000I249999J0D01*
G01*
X74398001Y-71312000D01*
G75*
G02*
X74648000Y-71561999I0J-249999D01*
G01*
X74648000Y-72112001D01*
G75*
G02*
X74398001Y-72362000I-249999J0D01*
G01*
G37*
G36*
G01*
X75698001Y-72362000D02*
X75147999Y-72362000D01*
G75*
G02*
X74898000Y-72112001I0J249999D01*
G01*
X74898000Y-71561999D01*
G75*
G02*
X75147999Y-71312000I249999J0D01*
G01*
X75698001Y-71312000D01*
G75*
G02*
X75948000Y-71561999I0J-249999D01*
G01*
X75948000Y-72112001D01*
G75*
G02*
X75698001Y-72362000I-249999J0D01*
G01*
G37*
G36*
G01*
X76998001Y-72362000D02*
X76447999Y-72362000D01*
G75*
G02*
X76198000Y-72112001I0J249999D01*
G01*
X76198000Y-71561999D01*
G75*
G02*
X76447999Y-71312000I249999J0D01*
G01*
X76998001Y-71312000D01*
G75*
G02*
X77248000Y-71561999I0J-249999D01*
G01*
X77248000Y-72112001D01*
G75*
G02*
X76998001Y-72362000I-249999J0D01*
G01*
G37*
G36*
G01*
X78298001Y-72362000D02*
X77747999Y-72362000D01*
G75*
G02*
X77498000Y-72112001I0J249999D01*
G01*
X77498000Y-71561999D01*
G75*
G02*
X77747999Y-71312000I249999J0D01*
G01*
X78298001Y-71312000D01*
G75*
G02*
X78548000Y-71561999I0J-249999D01*
G01*
X78548000Y-72112001D01*
G75*
G02*
X78298001Y-72362000I-249999J0D01*
G01*
G37*
G36*
G01*
X74398001Y-73662000D02*
X73847999Y-73662000D01*
G75*
G02*
X73598000Y-73412001I0J249999D01*
G01*
X73598000Y-72861999D01*
G75*
G02*
X73847999Y-72612000I249999J0D01*
G01*
X74398001Y-72612000D01*
G75*
G02*
X74648000Y-72861999I0J-249999D01*
G01*
X74648000Y-73412001D01*
G75*
G02*
X74398001Y-73662000I-249999J0D01*
G01*
G37*
G36*
G01*
X75698001Y-73662000D02*
X75147999Y-73662000D01*
G75*
G02*
X74898000Y-73412001I0J249999D01*
G01*
X74898000Y-72861999D01*
G75*
G02*
X75147999Y-72612000I249999J0D01*
G01*
X75698001Y-72612000D01*
G75*
G02*
X75948000Y-72861999I0J-249999D01*
G01*
X75948000Y-73412001D01*
G75*
G02*
X75698001Y-73662000I-249999J0D01*
G01*
G37*
G36*
G01*
X76998001Y-73662000D02*
X76447999Y-73662000D01*
G75*
G02*
X76198000Y-73412001I0J249999D01*
G01*
X76198000Y-72861999D01*
G75*
G02*
X76447999Y-72612000I249999J0D01*
G01*
X76998001Y-72612000D01*
G75*
G02*
X77248000Y-72861999I0J-249999D01*
G01*
X77248000Y-73412001D01*
G75*
G02*
X76998001Y-73662000I-249999J0D01*
G01*
G37*
G36*
G01*
X78298001Y-73662000D02*
X77747999Y-73662000D01*
G75*
G02*
X77498000Y-73412001I0J249999D01*
G01*
X77498000Y-72861999D01*
G75*
G02*
X77747999Y-72612000I249999J0D01*
G01*
X78298001Y-72612000D01*
G75*
G02*
X78548000Y-72861999I0J-249999D01*
G01*
X78548000Y-73412001D01*
G75*
G02*
X78298001Y-73662000I-249999J0D01*
G01*
G37*
G36*
G01*
X74398001Y-74962000D02*
X73847999Y-74962000D01*
G75*
G02*
X73598000Y-74712001I0J249999D01*
G01*
X73598000Y-74161999D01*
G75*
G02*
X73847999Y-73912000I249999J0D01*
G01*
X74398001Y-73912000D01*
G75*
G02*
X74648000Y-74161999I0J-249999D01*
G01*
X74648000Y-74712001D01*
G75*
G02*
X74398001Y-74962000I-249999J0D01*
G01*
G37*
G36*
G01*
X75698001Y-74962000D02*
X75147999Y-74962000D01*
G75*
G02*
X74898000Y-74712001I0J249999D01*
G01*
X74898000Y-74161999D01*
G75*
G02*
X75147999Y-73912000I249999J0D01*
G01*
X75698001Y-73912000D01*
G75*
G02*
X75948000Y-74161999I0J-249999D01*
G01*
X75948000Y-74712001D01*
G75*
G02*
X75698001Y-74962000I-249999J0D01*
G01*
G37*
G36*
G01*
X76998001Y-74962000D02*
X76447999Y-74962000D01*
G75*
G02*
X76198000Y-74712001I0J249999D01*
G01*
X76198000Y-74161999D01*
G75*
G02*
X76447999Y-73912000I249999J0D01*
G01*
X76998001Y-73912000D01*
G75*
G02*
X77248000Y-74161999I0J-249999D01*
G01*
X77248000Y-74712001D01*
G75*
G02*
X76998001Y-74962000I-249999J0D01*
G01*
G37*
G36*
G01*
X78298001Y-74962000D02*
X77747999Y-74962000D01*
G75*
G02*
X77498000Y-74712001I0J249999D01*
G01*
X77498000Y-74161999D01*
G75*
G02*
X77747999Y-73912000I249999J0D01*
G01*
X78298001Y-73912000D01*
G75*
G02*
X78548000Y-74161999I0J-249999D01*
G01*
X78548000Y-74712001D01*
G75*
G02*
X78298001Y-74962000I-249999J0D01*
G01*
G37*
G36*
G01*
X74398001Y-76262000D02*
X73847999Y-76262000D01*
G75*
G02*
X73598000Y-76012001I0J249999D01*
G01*
X73598000Y-75461999D01*
G75*
G02*
X73847999Y-75212000I249999J0D01*
G01*
X74398001Y-75212000D01*
G75*
G02*
X74648000Y-75461999I0J-249999D01*
G01*
X74648000Y-76012001D01*
G75*
G02*
X74398001Y-76262000I-249999J0D01*
G01*
G37*
G36*
G01*
X75698001Y-76262000D02*
X75147999Y-76262000D01*
G75*
G02*
X74898000Y-76012001I0J249999D01*
G01*
X74898000Y-75461999D01*
G75*
G02*
X75147999Y-75212000I249999J0D01*
G01*
X75698001Y-75212000D01*
G75*
G02*
X75948000Y-75461999I0J-249999D01*
G01*
X75948000Y-76012001D01*
G75*
G02*
X75698001Y-76262000I-249999J0D01*
G01*
G37*
G36*
G01*
X76998001Y-76262000D02*
X76447999Y-76262000D01*
G75*
G02*
X76198000Y-76012001I0J249999D01*
G01*
X76198000Y-75461999D01*
G75*
G02*
X76447999Y-75212000I249999J0D01*
G01*
X76998001Y-75212000D01*
G75*
G02*
X77248000Y-75461999I0J-249999D01*
G01*
X77248000Y-76012001D01*
G75*
G02*
X76998001Y-76262000I-249999J0D01*
G01*
G37*
G36*
G01*
X78298001Y-76262000D02*
X77747999Y-76262000D01*
G75*
G02*
X77498000Y-76012001I0J249999D01*
G01*
X77498000Y-75461999D01*
G75*
G02*
X77747999Y-75212000I249999J0D01*
G01*
X78298001Y-75212000D01*
G75*
G02*
X78548000Y-75461999I0J-249999D01*
G01*
X78548000Y-76012001D01*
G75*
G02*
X78298001Y-76262000I-249999J0D01*
G01*
G37*
G36*
G01*
X79885500Y-76412000D02*
X78935500Y-76412000D01*
G75*
G02*
X78873000Y-76349500I0J62500D01*
G01*
X78873000Y-76224500D01*
G75*
G02*
X78935500Y-76162000I62500J0D01*
G01*
X79885500Y-76162000D01*
G75*
G02*
X79948000Y-76224500I0J-62500D01*
G01*
X79948000Y-76349500D01*
G75*
G02*
X79885500Y-76412000I-62500J0D01*
G01*
G37*
G36*
G01*
X79885500Y-75912000D02*
X78935500Y-75912000D01*
G75*
G02*
X78873000Y-75849500I0J62500D01*
G01*
X78873000Y-75724500D01*
G75*
G02*
X78935500Y-75662000I62500J0D01*
G01*
X79885500Y-75662000D01*
G75*
G02*
X79948000Y-75724500I0J-62500D01*
G01*
X79948000Y-75849500D01*
G75*
G02*
X79885500Y-75912000I-62500J0D01*
G01*
G37*
G36*
G01*
X79885500Y-75412000D02*
X78935500Y-75412000D01*
G75*
G02*
X78873000Y-75349500I0J62500D01*
G01*
X78873000Y-75224500D01*
G75*
G02*
X78935500Y-75162000I62500J0D01*
G01*
X79885500Y-75162000D01*
G75*
G02*
X79948000Y-75224500I0J-62500D01*
G01*
X79948000Y-75349500D01*
G75*
G02*
X79885500Y-75412000I-62500J0D01*
G01*
G37*
G36*
G01*
X79885500Y-74912000D02*
X78935500Y-74912000D01*
G75*
G02*
X78873000Y-74849500I0J62500D01*
G01*
X78873000Y-74724500D01*
G75*
G02*
X78935500Y-74662000I62500J0D01*
G01*
X79885500Y-74662000D01*
G75*
G02*
X79948000Y-74724500I0J-62500D01*
G01*
X79948000Y-74849500D01*
G75*
G02*
X79885500Y-74912000I-62500J0D01*
G01*
G37*
G36*
G01*
X79885500Y-74412000D02*
X78935500Y-74412000D01*
G75*
G02*
X78873000Y-74349500I0J62500D01*
G01*
X78873000Y-74224500D01*
G75*
G02*
X78935500Y-74162000I62500J0D01*
G01*
X79885500Y-74162000D01*
G75*
G02*
X79948000Y-74224500I0J-62500D01*
G01*
X79948000Y-74349500D01*
G75*
G02*
X79885500Y-74412000I-62500J0D01*
G01*
G37*
G36*
G01*
X79885500Y-73912000D02*
X78935500Y-73912000D01*
G75*
G02*
X78873000Y-73849500I0J62500D01*
G01*
X78873000Y-73724500D01*
G75*
G02*
X78935500Y-73662000I62500J0D01*
G01*
X79885500Y-73662000D01*
G75*
G02*
X79948000Y-73724500I0J-62500D01*
G01*
X79948000Y-73849500D01*
G75*
G02*
X79885500Y-73912000I-62500J0D01*
G01*
G37*
G36*
G01*
X79885500Y-73412000D02*
X78935500Y-73412000D01*
G75*
G02*
X78873000Y-73349500I0J62500D01*
G01*
X78873000Y-73224500D01*
G75*
G02*
X78935500Y-73162000I62500J0D01*
G01*
X79885500Y-73162000D01*
G75*
G02*
X79948000Y-73224500I0J-62500D01*
G01*
X79948000Y-73349500D01*
G75*
G02*
X79885500Y-73412000I-62500J0D01*
G01*
G37*
G36*
G01*
X79885500Y-72912000D02*
X78935500Y-72912000D01*
G75*
G02*
X78873000Y-72849500I0J62500D01*
G01*
X78873000Y-72724500D01*
G75*
G02*
X78935500Y-72662000I62500J0D01*
G01*
X79885500Y-72662000D01*
G75*
G02*
X79948000Y-72724500I0J-62500D01*
G01*
X79948000Y-72849500D01*
G75*
G02*
X79885500Y-72912000I-62500J0D01*
G01*
G37*
G36*
G01*
X79885500Y-72412000D02*
X78935500Y-72412000D01*
G75*
G02*
X78873000Y-72349500I0J62500D01*
G01*
X78873000Y-72224500D01*
G75*
G02*
X78935500Y-72162000I62500J0D01*
G01*
X79885500Y-72162000D01*
G75*
G02*
X79948000Y-72224500I0J-62500D01*
G01*
X79948000Y-72349500D01*
G75*
G02*
X79885500Y-72412000I-62500J0D01*
G01*
G37*
G36*
G01*
X79885500Y-71912000D02*
X78935500Y-71912000D01*
G75*
G02*
X78873000Y-71849500I0J62500D01*
G01*
X78873000Y-71724500D01*
G75*
G02*
X78935500Y-71662000I62500J0D01*
G01*
X79885500Y-71662000D01*
G75*
G02*
X79948000Y-71724500I0J-62500D01*
G01*
X79948000Y-71849500D01*
G75*
G02*
X79885500Y-71912000I-62500J0D01*
G01*
G37*
G36*
G01*
X79885500Y-71412000D02*
X78935500Y-71412000D01*
G75*
G02*
X78873000Y-71349500I0J62500D01*
G01*
X78873000Y-71224500D01*
G75*
G02*
X78935500Y-71162000I62500J0D01*
G01*
X79885500Y-71162000D01*
G75*
G02*
X79948000Y-71224500I0J-62500D01*
G01*
X79948000Y-71349500D01*
G75*
G02*
X79885500Y-71412000I-62500J0D01*
G01*
G37*
G36*
G01*
X78635500Y-70987000D02*
X78510500Y-70987000D01*
G75*
G02*
X78448000Y-70924500I0J62500D01*
G01*
X78448000Y-69974500D01*
G75*
G02*
X78510500Y-69912000I62500J0D01*
G01*
X78635500Y-69912000D01*
G75*
G02*
X78698000Y-69974500I0J-62500D01*
G01*
X78698000Y-70924500D01*
G75*
G02*
X78635500Y-70987000I-62500J0D01*
G01*
G37*
G36*
G01*
X78135500Y-70987000D02*
X78010500Y-70987000D01*
G75*
G02*
X77948000Y-70924500I0J62500D01*
G01*
X77948000Y-69974500D01*
G75*
G02*
X78010500Y-69912000I62500J0D01*
G01*
X78135500Y-69912000D01*
G75*
G02*
X78198000Y-69974500I0J-62500D01*
G01*
X78198000Y-70924500D01*
G75*
G02*
X78135500Y-70987000I-62500J0D01*
G01*
G37*
G36*
G01*
X77635500Y-70987000D02*
X77510500Y-70987000D01*
G75*
G02*
X77448000Y-70924500I0J62500D01*
G01*
X77448000Y-69974500D01*
G75*
G02*
X77510500Y-69912000I62500J0D01*
G01*
X77635500Y-69912000D01*
G75*
G02*
X77698000Y-69974500I0J-62500D01*
G01*
X77698000Y-70924500D01*
G75*
G02*
X77635500Y-70987000I-62500J0D01*
G01*
G37*
G36*
G01*
X77135500Y-70987000D02*
X77010500Y-70987000D01*
G75*
G02*
X76948000Y-70924500I0J62500D01*
G01*
X76948000Y-69974500D01*
G75*
G02*
X77010500Y-69912000I62500J0D01*
G01*
X77135500Y-69912000D01*
G75*
G02*
X77198000Y-69974500I0J-62500D01*
G01*
X77198000Y-70924500D01*
G75*
G02*
X77135500Y-70987000I-62500J0D01*
G01*
G37*
G36*
G01*
X76635500Y-70987000D02*
X76510500Y-70987000D01*
G75*
G02*
X76448000Y-70924500I0J62500D01*
G01*
X76448000Y-69974500D01*
G75*
G02*
X76510500Y-69912000I62500J0D01*
G01*
X76635500Y-69912000D01*
G75*
G02*
X76698000Y-69974500I0J-62500D01*
G01*
X76698000Y-70924500D01*
G75*
G02*
X76635500Y-70987000I-62500J0D01*
G01*
G37*
G36*
G01*
X76135500Y-70987000D02*
X76010500Y-70987000D01*
G75*
G02*
X75948000Y-70924500I0J62500D01*
G01*
X75948000Y-69974500D01*
G75*
G02*
X76010500Y-69912000I62500J0D01*
G01*
X76135500Y-69912000D01*
G75*
G02*
X76198000Y-69974500I0J-62500D01*
G01*
X76198000Y-70924500D01*
G75*
G02*
X76135500Y-70987000I-62500J0D01*
G01*
G37*
G36*
G01*
X75635500Y-70987000D02*
X75510500Y-70987000D01*
G75*
G02*
X75448000Y-70924500I0J62500D01*
G01*
X75448000Y-69974500D01*
G75*
G02*
X75510500Y-69912000I62500J0D01*
G01*
X75635500Y-69912000D01*
G75*
G02*
X75698000Y-69974500I0J-62500D01*
G01*
X75698000Y-70924500D01*
G75*
G02*
X75635500Y-70987000I-62500J0D01*
G01*
G37*
G36*
G01*
X75135500Y-70987000D02*
X75010500Y-70987000D01*
G75*
G02*
X74948000Y-70924500I0J62500D01*
G01*
X74948000Y-69974500D01*
G75*
G02*
X75010500Y-69912000I62500J0D01*
G01*
X75135500Y-69912000D01*
G75*
G02*
X75198000Y-69974500I0J-62500D01*
G01*
X75198000Y-70924500D01*
G75*
G02*
X75135500Y-70987000I-62500J0D01*
G01*
G37*
G36*
G01*
X74635500Y-70987000D02*
X74510500Y-70987000D01*
G75*
G02*
X74448000Y-70924500I0J62500D01*
G01*
X74448000Y-69974500D01*
G75*
G02*
X74510500Y-69912000I62500J0D01*
G01*
X74635500Y-69912000D01*
G75*
G02*
X74698000Y-69974500I0J-62500D01*
G01*
X74698000Y-70924500D01*
G75*
G02*
X74635500Y-70987000I-62500J0D01*
G01*
G37*
G36*
G01*
X74135500Y-70987000D02*
X74010500Y-70987000D01*
G75*
G02*
X73948000Y-70924500I0J62500D01*
G01*
X73948000Y-69974500D01*
G75*
G02*
X74010500Y-69912000I62500J0D01*
G01*
X74135500Y-69912000D01*
G75*
G02*
X74198000Y-69974500I0J-62500D01*
G01*
X74198000Y-70924500D01*
G75*
G02*
X74135500Y-70987000I-62500J0D01*
G01*
G37*
G36*
G01*
X73635500Y-70987000D02*
X73510500Y-70987000D01*
G75*
G02*
X73448000Y-70924500I0J62500D01*
G01*
X73448000Y-69974500D01*
G75*
G02*
X73510500Y-69912000I62500J0D01*
G01*
X73635500Y-69912000D01*
G75*
G02*
X73698000Y-69974500I0J-62500D01*
G01*
X73698000Y-70924500D01*
G75*
G02*
X73635500Y-70987000I-62500J0D01*
G01*
G37*
G36*
G01*
X73210500Y-71412000D02*
X72260500Y-71412000D01*
G75*
G02*
X72198000Y-71349500I0J62500D01*
G01*
X72198000Y-71224500D01*
G75*
G02*
X72260500Y-71162000I62500J0D01*
G01*
X73210500Y-71162000D01*
G75*
G02*
X73273000Y-71224500I0J-62500D01*
G01*
X73273000Y-71349500D01*
G75*
G02*
X73210500Y-71412000I-62500J0D01*
G01*
G37*
G36*
G01*
X73210500Y-71912000D02*
X72260500Y-71912000D01*
G75*
G02*
X72198000Y-71849500I0J62500D01*
G01*
X72198000Y-71724500D01*
G75*
G02*
X72260500Y-71662000I62500J0D01*
G01*
X73210500Y-71662000D01*
G75*
G02*
X73273000Y-71724500I0J-62500D01*
G01*
X73273000Y-71849500D01*
G75*
G02*
X73210500Y-71912000I-62500J0D01*
G01*
G37*
G36*
G01*
X73210500Y-72412000D02*
X72260500Y-72412000D01*
G75*
G02*
X72198000Y-72349500I0J62500D01*
G01*
X72198000Y-72224500D01*
G75*
G02*
X72260500Y-72162000I62500J0D01*
G01*
X73210500Y-72162000D01*
G75*
G02*
X73273000Y-72224500I0J-62500D01*
G01*
X73273000Y-72349500D01*
G75*
G02*
X73210500Y-72412000I-62500J0D01*
G01*
G37*
G36*
G01*
X73210500Y-72912000D02*
X72260500Y-72912000D01*
G75*
G02*
X72198000Y-72849500I0J62500D01*
G01*
X72198000Y-72724500D01*
G75*
G02*
X72260500Y-72662000I62500J0D01*
G01*
X73210500Y-72662000D01*
G75*
G02*
X73273000Y-72724500I0J-62500D01*
G01*
X73273000Y-72849500D01*
G75*
G02*
X73210500Y-72912000I-62500J0D01*
G01*
G37*
G36*
G01*
X73210500Y-73412000D02*
X72260500Y-73412000D01*
G75*
G02*
X72198000Y-73349500I0J62500D01*
G01*
X72198000Y-73224500D01*
G75*
G02*
X72260500Y-73162000I62500J0D01*
G01*
X73210500Y-73162000D01*
G75*
G02*
X73273000Y-73224500I0J-62500D01*
G01*
X73273000Y-73349500D01*
G75*
G02*
X73210500Y-73412000I-62500J0D01*
G01*
G37*
G36*
G01*
X73210500Y-73912000D02*
X72260500Y-73912000D01*
G75*
G02*
X72198000Y-73849500I0J62500D01*
G01*
X72198000Y-73724500D01*
G75*
G02*
X72260500Y-73662000I62500J0D01*
G01*
X73210500Y-73662000D01*
G75*
G02*
X73273000Y-73724500I0J-62500D01*
G01*
X73273000Y-73849500D01*
G75*
G02*
X73210500Y-73912000I-62500J0D01*
G01*
G37*
G36*
G01*
X73210500Y-74412000D02*
X72260500Y-74412000D01*
G75*
G02*
X72198000Y-74349500I0J62500D01*
G01*
X72198000Y-74224500D01*
G75*
G02*
X72260500Y-74162000I62500J0D01*
G01*
X73210500Y-74162000D01*
G75*
G02*
X73273000Y-74224500I0J-62500D01*
G01*
X73273000Y-74349500D01*
G75*
G02*
X73210500Y-74412000I-62500J0D01*
G01*
G37*
G36*
G01*
X73210500Y-74912000D02*
X72260500Y-74912000D01*
G75*
G02*
X72198000Y-74849500I0J62500D01*
G01*
X72198000Y-74724500D01*
G75*
G02*
X72260500Y-74662000I62500J0D01*
G01*
X73210500Y-74662000D01*
G75*
G02*
X73273000Y-74724500I0J-62500D01*
G01*
X73273000Y-74849500D01*
G75*
G02*
X73210500Y-74912000I-62500J0D01*
G01*
G37*
G36*
G01*
X73210500Y-75412000D02*
X72260500Y-75412000D01*
G75*
G02*
X72198000Y-75349500I0J62500D01*
G01*
X72198000Y-75224500D01*
G75*
G02*
X72260500Y-75162000I62500J0D01*
G01*
X73210500Y-75162000D01*
G75*
G02*
X73273000Y-75224500I0J-62500D01*
G01*
X73273000Y-75349500D01*
G75*
G02*
X73210500Y-75412000I-62500J0D01*
G01*
G37*
G36*
G01*
X73210500Y-75912000D02*
X72260500Y-75912000D01*
G75*
G02*
X72198000Y-75849500I0J62500D01*
G01*
X72198000Y-75724500D01*
G75*
G02*
X72260500Y-75662000I62500J0D01*
G01*
X73210500Y-75662000D01*
G75*
G02*
X73273000Y-75724500I0J-62500D01*
G01*
X73273000Y-75849500D01*
G75*
G02*
X73210500Y-75912000I-62500J0D01*
G01*
G37*
G36*
G01*
X73210500Y-76412000D02*
X72260500Y-76412000D01*
G75*
G02*
X72198000Y-76349500I0J62500D01*
G01*
X72198000Y-76224500D01*
G75*
G02*
X72260500Y-76162000I62500J0D01*
G01*
X73210500Y-76162000D01*
G75*
G02*
X73273000Y-76224500I0J-62500D01*
G01*
X73273000Y-76349500D01*
G75*
G02*
X73210500Y-76412000I-62500J0D01*
G01*
G37*
G36*
G01*
X73635500Y-77662000D02*
X73510500Y-77662000D01*
G75*
G02*
X73448000Y-77599500I0J62500D01*
G01*
X73448000Y-76649500D01*
G75*
G02*
X73510500Y-76587000I62500J0D01*
G01*
X73635500Y-76587000D01*
G75*
G02*
X73698000Y-76649500I0J-62500D01*
G01*
X73698000Y-77599500D01*
G75*
G02*
X73635500Y-77662000I-62500J0D01*
G01*
G37*
G36*
G01*
X74135500Y-77662000D02*
X74010500Y-77662000D01*
G75*
G02*
X73948000Y-77599500I0J62500D01*
G01*
X73948000Y-76649500D01*
G75*
G02*
X74010500Y-76587000I62500J0D01*
G01*
X74135500Y-76587000D01*
G75*
G02*
X74198000Y-76649500I0J-62500D01*
G01*
X74198000Y-77599500D01*
G75*
G02*
X74135500Y-77662000I-62500J0D01*
G01*
G37*
G36*
G01*
X74635500Y-77662000D02*
X74510500Y-77662000D01*
G75*
G02*
X74448000Y-77599500I0J62500D01*
G01*
X74448000Y-76649500D01*
G75*
G02*
X74510500Y-76587000I62500J0D01*
G01*
X74635500Y-76587000D01*
G75*
G02*
X74698000Y-76649500I0J-62500D01*
G01*
X74698000Y-77599500D01*
G75*
G02*
X74635500Y-77662000I-62500J0D01*
G01*
G37*
G36*
G01*
X75135500Y-77662000D02*
X75010500Y-77662000D01*
G75*
G02*
X74948000Y-77599500I0J62500D01*
G01*
X74948000Y-76649500D01*
G75*
G02*
X75010500Y-76587000I62500J0D01*
G01*
X75135500Y-76587000D01*
G75*
G02*
X75198000Y-76649500I0J-62500D01*
G01*
X75198000Y-77599500D01*
G75*
G02*
X75135500Y-77662000I-62500J0D01*
G01*
G37*
G36*
G01*
X75635500Y-77662000D02*
X75510500Y-77662000D01*
G75*
G02*
X75448000Y-77599500I0J62500D01*
G01*
X75448000Y-76649500D01*
G75*
G02*
X75510500Y-76587000I62500J0D01*
G01*
X75635500Y-76587000D01*
G75*
G02*
X75698000Y-76649500I0J-62500D01*
G01*
X75698000Y-77599500D01*
G75*
G02*
X75635500Y-77662000I-62500J0D01*
G01*
G37*
G36*
G01*
X76135500Y-77662000D02*
X76010500Y-77662000D01*
G75*
G02*
X75948000Y-77599500I0J62500D01*
G01*
X75948000Y-76649500D01*
G75*
G02*
X76010500Y-76587000I62500J0D01*
G01*
X76135500Y-76587000D01*
G75*
G02*
X76198000Y-76649500I0J-62500D01*
G01*
X76198000Y-77599500D01*
G75*
G02*
X76135500Y-77662000I-62500J0D01*
G01*
G37*
G36*
G01*
X76635500Y-77662000D02*
X76510500Y-77662000D01*
G75*
G02*
X76448000Y-77599500I0J62500D01*
G01*
X76448000Y-76649500D01*
G75*
G02*
X76510500Y-76587000I62500J0D01*
G01*
X76635500Y-76587000D01*
G75*
G02*
X76698000Y-76649500I0J-62500D01*
G01*
X76698000Y-77599500D01*
G75*
G02*
X76635500Y-77662000I-62500J0D01*
G01*
G37*
G36*
G01*
X77135500Y-77662000D02*
X77010500Y-77662000D01*
G75*
G02*
X76948000Y-77599500I0J62500D01*
G01*
X76948000Y-76649500D01*
G75*
G02*
X77010500Y-76587000I62500J0D01*
G01*
X77135500Y-76587000D01*
G75*
G02*
X77198000Y-76649500I0J-62500D01*
G01*
X77198000Y-77599500D01*
G75*
G02*
X77135500Y-77662000I-62500J0D01*
G01*
G37*
G36*
G01*
X77635500Y-77662000D02*
X77510500Y-77662000D01*
G75*
G02*
X77448000Y-77599500I0J62500D01*
G01*
X77448000Y-76649500D01*
G75*
G02*
X77510500Y-76587000I62500J0D01*
G01*
X77635500Y-76587000D01*
G75*
G02*
X77698000Y-76649500I0J-62500D01*
G01*
X77698000Y-77599500D01*
G75*
G02*
X77635500Y-77662000I-62500J0D01*
G01*
G37*
G36*
G01*
X78135500Y-77662000D02*
X78010500Y-77662000D01*
G75*
G02*
X77948000Y-77599500I0J62500D01*
G01*
X77948000Y-76649500D01*
G75*
G02*
X78010500Y-76587000I62500J0D01*
G01*
X78135500Y-76587000D01*
G75*
G02*
X78198000Y-76649500I0J-62500D01*
G01*
X78198000Y-77599500D01*
G75*
G02*
X78135500Y-77662000I-62500J0D01*
G01*
G37*
G36*
G01*
X78635500Y-77662000D02*
X78510500Y-77662000D01*
G75*
G02*
X78448000Y-77599500I0J62500D01*
G01*
X78448000Y-76649500D01*
G75*
G02*
X78510500Y-76587000I62500J0D01*
G01*
X78635500Y-76587000D01*
G75*
G02*
X78698000Y-76649500I0J-62500D01*
G01*
X78698000Y-77599500D01*
G75*
G02*
X78635500Y-77662000I-62500J0D01*
G01*
G37*
%TD*%
D10*
%TO.C,Reset*%
X80830500Y-107036000D03*
X80830500Y-100736000D03*
X77030500Y-107036000D03*
X77030500Y-100736000D03*
%TD*%
D11*
%TO.C,U1*%
X76311000Y-86753000D03*
D12*
X74311000Y-86553000D03*
X76311000Y-88453000D03*
X74311000Y-88453000D03*
%TD*%
D13*
%TO.C,USB1*%
X70044600Y-86011400D03*
X70044600Y-92411400D03*
X70044600Y-86811400D03*
X70044600Y-91611400D03*
D14*
X70044600Y-90961400D03*
X70044600Y-87461400D03*
X70044600Y-90461400D03*
X70044600Y-87961400D03*
X70044600Y-89961400D03*
X70044600Y-88461400D03*
X70044600Y-88961400D03*
X70044600Y-89461400D03*
%TD*%
D15*
%TO.C,X1*%
X69469000Y-74168000D03*
X69469000Y-72968000D03*
X69469000Y-75368000D03*
%TD*%
%TO.C,C1*%
G36*
G01*
X79509000Y-79250250D02*
X79509000Y-78737750D01*
G75*
G02*
X79727750Y-78519000I218750J0D01*
G01*
X80165250Y-78519000D01*
G75*
G02*
X80384000Y-78737750I0J-218750D01*
G01*
X80384000Y-79250250D01*
G75*
G02*
X80165250Y-79469000I-218750J0D01*
G01*
X79727750Y-79469000D01*
G75*
G02*
X79509000Y-79250250I0J218750D01*
G01*
G37*
G36*
G01*
X81084000Y-79250250D02*
X81084000Y-78737750D01*
G75*
G02*
X81302750Y-78519000I218750J0D01*
G01*
X81740250Y-78519000D01*
G75*
G02*
X81959000Y-78737750I0J-218750D01*
G01*
X81959000Y-79250250D01*
G75*
G02*
X81740250Y-79469000I-218750J0D01*
G01*
X81302750Y-79469000D01*
G75*
G02*
X81084000Y-79250250I0J218750D01*
G01*
G37*
%TD*%
%TO.C,C2*%
G36*
G01*
X81388500Y-76583250D02*
X81388500Y-76070750D01*
G75*
G02*
X81607250Y-75852000I218750J0D01*
G01*
X82044750Y-75852000D01*
G75*
G02*
X82263500Y-76070750I0J-218750D01*
G01*
X82263500Y-76583250D01*
G75*
G02*
X82044750Y-76802000I-218750J0D01*
G01*
X81607250Y-76802000D01*
G75*
G02*
X81388500Y-76583250I0J218750D01*
G01*
G37*
G36*
G01*
X82963500Y-76583250D02*
X82963500Y-76070750D01*
G75*
G02*
X83182250Y-75852000I218750J0D01*
G01*
X83619750Y-75852000D01*
G75*
G02*
X83838500Y-76070750I0J-218750D01*
G01*
X83838500Y-76583250D01*
G75*
G02*
X83619750Y-76802000I-218750J0D01*
G01*
X83182250Y-76802000D01*
G75*
G02*
X82963500Y-76583250I0J218750D01*
G01*
G37*
%TD*%
%TO.C,C3*%
G36*
G01*
X83027000Y-71503250D02*
X83027000Y-70990750D01*
G75*
G02*
X83245750Y-70772000I218750J0D01*
G01*
X83683250Y-70772000D01*
G75*
G02*
X83902000Y-70990750I0J-218750D01*
G01*
X83902000Y-71503250D01*
G75*
G02*
X83683250Y-71722000I-218750J0D01*
G01*
X83245750Y-71722000D01*
G75*
G02*
X83027000Y-71503250I0J218750D01*
G01*
G37*
G36*
G01*
X81452000Y-71503250D02*
X81452000Y-70990750D01*
G75*
G02*
X81670750Y-70772000I218750J0D01*
G01*
X82108250Y-70772000D01*
G75*
G02*
X82327000Y-70990750I0J-218750D01*
G01*
X82327000Y-71503250D01*
G75*
G02*
X82108250Y-71722000I-218750J0D01*
G01*
X81670750Y-71722000D01*
G75*
G02*
X81452000Y-71503250I0J218750D01*
G01*
G37*
%TD*%
%TO.C,C4*%
G36*
G01*
X74360750Y-68789000D02*
X73848250Y-68789000D01*
G75*
G02*
X73629500Y-68570250I0J218750D01*
G01*
X73629500Y-68132750D01*
G75*
G02*
X73848250Y-67914000I218750J0D01*
G01*
X74360750Y-67914000D01*
G75*
G02*
X74579500Y-68132750I0J-218750D01*
G01*
X74579500Y-68570250D01*
G75*
G02*
X74360750Y-68789000I-218750J0D01*
G01*
G37*
G36*
G01*
X74360750Y-67214000D02*
X73848250Y-67214000D01*
G75*
G02*
X73629500Y-66995250I0J218750D01*
G01*
X73629500Y-66557750D01*
G75*
G02*
X73848250Y-66339000I218750J0D01*
G01*
X74360750Y-66339000D01*
G75*
G02*
X74579500Y-66557750I0J-218750D01*
G01*
X74579500Y-66995250D01*
G75*
G02*
X74360750Y-67214000I-218750J0D01*
G01*
G37*
%TD*%
%TO.C,C5*%
G36*
G01*
X69881000Y-78229750D02*
X69881000Y-78742250D01*
G75*
G02*
X69662250Y-78961000I-218750J0D01*
G01*
X69224750Y-78961000D01*
G75*
G02*
X69006000Y-78742250I0J218750D01*
G01*
X69006000Y-78229750D01*
G75*
G02*
X69224750Y-78011000I218750J0D01*
G01*
X69662250Y-78011000D01*
G75*
G02*
X69881000Y-78229750I0J-218750D01*
G01*
G37*
G36*
G01*
X71456000Y-78229750D02*
X71456000Y-78742250D01*
G75*
G02*
X71237250Y-78961000I-218750J0D01*
G01*
X70799750Y-78961000D01*
G75*
G02*
X70581000Y-78742250I0J218750D01*
G01*
X70581000Y-78229750D01*
G75*
G02*
X70799750Y-78011000I218750J0D01*
G01*
X71237250Y-78011000D01*
G75*
G02*
X71456000Y-78229750I0J-218750D01*
G01*
G37*
%TD*%
%TO.C,C6*%
G36*
G01*
X73399000Y-79499750D02*
X73399000Y-80012250D01*
G75*
G02*
X73180250Y-80231000I-218750J0D01*
G01*
X72742750Y-80231000D01*
G75*
G02*
X72524000Y-80012250I0J218750D01*
G01*
X72524000Y-79499750D01*
G75*
G02*
X72742750Y-79281000I218750J0D01*
G01*
X73180250Y-79281000D01*
G75*
G02*
X73399000Y-79499750I0J-218750D01*
G01*
G37*
G36*
G01*
X74974000Y-79499750D02*
X74974000Y-80012250D01*
G75*
G02*
X74755250Y-80231000I-218750J0D01*
G01*
X74317750Y-80231000D01*
G75*
G02*
X74099000Y-80012250I0J218750D01*
G01*
X74099000Y-79499750D01*
G75*
G02*
X74317750Y-79281000I218750J0D01*
G01*
X74755250Y-79281000D01*
G75*
G02*
X74974000Y-79499750I0J-218750D01*
G01*
G37*
%TD*%
%TO.C,C12*%
G36*
G01*
X86913000Y-69039450D02*
X86913000Y-68526950D01*
G75*
G02*
X87131750Y-68308200I218750J0D01*
G01*
X87569250Y-68308200D01*
G75*
G02*
X87788000Y-68526950I0J-218750D01*
G01*
X87788000Y-69039450D01*
G75*
G02*
X87569250Y-69258200I-218750J0D01*
G01*
X87131750Y-69258200D01*
G75*
G02*
X86913000Y-69039450I0J218750D01*
G01*
G37*
G36*
G01*
X88488000Y-69039450D02*
X88488000Y-68526950D01*
G75*
G02*
X88706750Y-68308200I218750J0D01*
G01*
X89144250Y-68308200D01*
G75*
G02*
X89363000Y-68526950I0J-218750D01*
G01*
X89363000Y-69039450D01*
G75*
G02*
X89144250Y-69258200I-218750J0D01*
G01*
X88706750Y-69258200D01*
G75*
G02*
X88488000Y-69039450I0J218750D01*
G01*
G37*
%TD*%
%TO.C,R1*%
G36*
G01*
X71456000Y-80007750D02*
X71456000Y-80520250D01*
G75*
G02*
X71237250Y-80739000I-218750J0D01*
G01*
X70799750Y-80739000D01*
G75*
G02*
X70581000Y-80520250I0J218750D01*
G01*
X70581000Y-80007750D01*
G75*
G02*
X70799750Y-79789000I218750J0D01*
G01*
X71237250Y-79789000D01*
G75*
G02*
X71456000Y-80007750I0J-218750D01*
G01*
G37*
G36*
G01*
X69881000Y-80007750D02*
X69881000Y-80520250D01*
G75*
G02*
X69662250Y-80739000I-218750J0D01*
G01*
X69224750Y-80739000D01*
G75*
G02*
X69006000Y-80520250I0J218750D01*
G01*
X69006000Y-80007750D01*
G75*
G02*
X69224750Y-79789000I218750J0D01*
G01*
X69662250Y-79789000D01*
G75*
G02*
X69881000Y-80007750I0J-218750D01*
G01*
G37*
%TD*%
%TO.C,R2*%
G36*
G01*
X83140000Y-68577750D02*
X83140000Y-69090250D01*
G75*
G02*
X82921250Y-69309000I-218750J0D01*
G01*
X82483750Y-69309000D01*
G75*
G02*
X82265000Y-69090250I0J218750D01*
G01*
X82265000Y-68577750D01*
G75*
G02*
X82483750Y-68359000I218750J0D01*
G01*
X82921250Y-68359000D01*
G75*
G02*
X83140000Y-68577750I0J-218750D01*
G01*
G37*
G36*
G01*
X81565000Y-68577750D02*
X81565000Y-69090250D01*
G75*
G02*
X81346250Y-69309000I-218750J0D01*
G01*
X80908750Y-69309000D01*
G75*
G02*
X80690000Y-69090250I0J218750D01*
G01*
X80690000Y-68577750D01*
G75*
G02*
X80908750Y-68359000I218750J0D01*
G01*
X81346250Y-68359000D01*
G75*
G02*
X81565000Y-68577750I0J-218750D01*
G01*
G37*
%TD*%
%TO.C,R3*%
G36*
G01*
X89363000Y-66952150D02*
X89363000Y-67464650D01*
G75*
G02*
X89144250Y-67683400I-218750J0D01*
G01*
X88706750Y-67683400D01*
G75*
G02*
X88488000Y-67464650I0J218750D01*
G01*
X88488000Y-66952150D01*
G75*
G02*
X88706750Y-66733400I218750J0D01*
G01*
X89144250Y-66733400D01*
G75*
G02*
X89363000Y-66952150I0J-218750D01*
G01*
G37*
G36*
G01*
X87788000Y-66952150D02*
X87788000Y-67464650D01*
G75*
G02*
X87569250Y-67683400I-218750J0D01*
G01*
X87131750Y-67683400D01*
G75*
G02*
X86913000Y-67464650I0J218750D01*
G01*
X86913000Y-66952150D01*
G75*
G02*
X87131750Y-66733400I218750J0D01*
G01*
X87569250Y-66733400D01*
G75*
G02*
X87788000Y-66952150I0J-218750D01*
G01*
G37*
%TD*%
%TO.C,R4*%
G36*
G01*
X87788000Y-65377350D02*
X87788000Y-65889850D01*
G75*
G02*
X87569250Y-66108600I-218750J0D01*
G01*
X87131750Y-66108600D01*
G75*
G02*
X86913000Y-65889850I0J218750D01*
G01*
X86913000Y-65377350D01*
G75*
G02*
X87131750Y-65158600I218750J0D01*
G01*
X87569250Y-65158600D01*
G75*
G02*
X87788000Y-65377350I0J-218750D01*
G01*
G37*
G36*
G01*
X89363000Y-65377350D02*
X89363000Y-65889850D01*
G75*
G02*
X89144250Y-66108600I-218750J0D01*
G01*
X88706750Y-66108600D01*
G75*
G02*
X88488000Y-65889850I0J218750D01*
G01*
X88488000Y-65377350D01*
G75*
G02*
X88706750Y-65158600I218750J0D01*
G01*
X89144250Y-65158600D01*
G75*
G02*
X89363000Y-65377350I0J-218750D01*
G01*
G37*
%TD*%
%TO.C,UR1*%
G36*
G01*
X78361250Y-81311000D02*
X77848750Y-81311000D01*
G75*
G02*
X77630000Y-81092250I0J218750D01*
G01*
X77630000Y-80654750D01*
G75*
G02*
X77848750Y-80436000I218750J0D01*
G01*
X78361250Y-80436000D01*
G75*
G02*
X78580000Y-80654750I0J-218750D01*
G01*
X78580000Y-81092250D01*
G75*
G02*
X78361250Y-81311000I-218750J0D01*
G01*
G37*
G36*
G01*
X78361250Y-82886000D02*
X77848750Y-82886000D01*
G75*
G02*
X77630000Y-82667250I0J218750D01*
G01*
X77630000Y-82229750D01*
G75*
G02*
X77848750Y-82011000I218750J0D01*
G01*
X78361250Y-82011000D01*
G75*
G02*
X78580000Y-82229750I0J-218750D01*
G01*
X78580000Y-82667250D01*
G75*
G02*
X78361250Y-82886000I-218750J0D01*
G01*
G37*
%TD*%
%TO.C,UR2*%
G36*
G01*
X76837250Y-81311000D02*
X76324750Y-81311000D01*
G75*
G02*
X76106000Y-81092250I0J218750D01*
G01*
X76106000Y-80654750D01*
G75*
G02*
X76324750Y-80436000I218750J0D01*
G01*
X76837250Y-80436000D01*
G75*
G02*
X77056000Y-80654750I0J-218750D01*
G01*
X77056000Y-81092250D01*
G75*
G02*
X76837250Y-81311000I-218750J0D01*
G01*
G37*
G36*
G01*
X76837250Y-82886000D02*
X76324750Y-82886000D01*
G75*
G02*
X76106000Y-82667250I0J218750D01*
G01*
X76106000Y-82229750D01*
G75*
G02*
X76324750Y-82011000I218750J0D01*
G01*
X76837250Y-82011000D01*
G75*
G02*
X77056000Y-82229750I0J-218750D01*
G01*
X77056000Y-82667250D01*
G75*
G02*
X76837250Y-82886000I-218750J0D01*
G01*
G37*
%TD*%
%TO.C,UR3*%
G36*
G01*
X72641750Y-98444800D02*
X73154250Y-98444800D01*
G75*
G02*
X73373000Y-98663550I0J-218750D01*
G01*
X73373000Y-99101050D01*
G75*
G02*
X73154250Y-99319800I-218750J0D01*
G01*
X72641750Y-99319800D01*
G75*
G02*
X72423000Y-99101050I0J218750D01*
G01*
X72423000Y-98663550D01*
G75*
G02*
X72641750Y-98444800I218750J0D01*
G01*
G37*
G36*
G01*
X72641750Y-96869800D02*
X73154250Y-96869800D01*
G75*
G02*
X73373000Y-97088550I0J-218750D01*
G01*
X73373000Y-97526050D01*
G75*
G02*
X73154250Y-97744800I-218750J0D01*
G01*
X72641750Y-97744800D01*
G75*
G02*
X72423000Y-97526050I0J218750D01*
G01*
X72423000Y-97088550D01*
G75*
G02*
X72641750Y-96869800I218750J0D01*
G01*
G37*
%TD*%
%TO.C,UR4*%
G36*
G01*
X71117750Y-96869800D02*
X71630250Y-96869800D01*
G75*
G02*
X71849000Y-97088550I0J-218750D01*
G01*
X71849000Y-97526050D01*
G75*
G02*
X71630250Y-97744800I-218750J0D01*
G01*
X71117750Y-97744800D01*
G75*
G02*
X70899000Y-97526050I0J218750D01*
G01*
X70899000Y-97088550D01*
G75*
G02*
X71117750Y-96869800I218750J0D01*
G01*
G37*
G36*
G01*
X71117750Y-98444800D02*
X71630250Y-98444800D01*
G75*
G02*
X71849000Y-98663550I0J-218750D01*
G01*
X71849000Y-99101050D01*
G75*
G02*
X71630250Y-99319800I-218750J0D01*
G01*
X71117750Y-99319800D01*
G75*
G02*
X70899000Y-99101050I0J218750D01*
G01*
X70899000Y-98663550D01*
G75*
G02*
X71117750Y-98444800I218750J0D01*
G01*
G37*
%TD*%
%TO.C,UR5*%
G36*
G01*
X66088550Y-96844500D02*
X66601050Y-96844500D01*
G75*
G02*
X66819800Y-97063250I0J-218750D01*
G01*
X66819800Y-97500750D01*
G75*
G02*
X66601050Y-97719500I-218750J0D01*
G01*
X66088550Y-97719500D01*
G75*
G02*
X65869800Y-97500750I0J218750D01*
G01*
X65869800Y-97063250D01*
G75*
G02*
X66088550Y-96844500I218750J0D01*
G01*
G37*
G36*
G01*
X66088550Y-98419500D02*
X66601050Y-98419500D01*
G75*
G02*
X66819800Y-98638250I0J-218750D01*
G01*
X66819800Y-99075750D01*
G75*
G02*
X66601050Y-99294500I-218750J0D01*
G01*
X66088550Y-99294500D01*
G75*
G02*
X65869800Y-99075750I0J218750D01*
G01*
X65869800Y-98638250D01*
G75*
G02*
X66088550Y-98419500I218750J0D01*
G01*
G37*
%TD*%
%TO.C,UCAP1*%
G36*
G01*
X65077050Y-99294300D02*
X64564550Y-99294300D01*
G75*
G02*
X64345800Y-99075550I0J218750D01*
G01*
X64345800Y-98638050D01*
G75*
G02*
X64564550Y-98419300I218750J0D01*
G01*
X65077050Y-98419300D01*
G75*
G02*
X65295800Y-98638050I0J-218750D01*
G01*
X65295800Y-99075550D01*
G75*
G02*
X65077050Y-99294300I-218750J0D01*
G01*
G37*
G36*
G01*
X65077050Y-97719300D02*
X64564550Y-97719300D01*
G75*
G02*
X64345800Y-97500550I0J218750D01*
G01*
X64345800Y-97063050D01*
G75*
G02*
X64564550Y-96844300I218750J0D01*
G01*
X65077050Y-96844300D01*
G75*
G02*
X65295800Y-97063050I0J-218750D01*
G01*
X65295800Y-97500550D01*
G75*
G02*
X65077050Y-97719300I-218750J0D01*
G01*
G37*
%TD*%
M02*
