%TF.GenerationSoftware,KiCad,Pcbnew,(5.1.6)-1*%
%TF.CreationDate,2020-05-31T03:06:52+03:00*%
%TF.ProjectId,Project,50726f6a-6563-4742-9e6b-696361645f70,rev?*%
%TF.SameCoordinates,Original*%
%TF.FileFunction,Soldermask,Bot*%
%TF.FilePolarity,Negative*%
%FSLAX46Y46*%
G04 Gerber Fmt 4.6, Leading zero omitted, Abs format (unit mm)*
G04 Created by KiCad (PCBNEW (5.1.6)-1) date 2020-05-31 03:06:52*
%MOMM*%
%LPD*%
G01*
G04 APERTURE LIST*
%ADD10R,5.300000X5.300000*%
%ADD11R,1.100000X1.800000*%
%ADD12R,0.800000X1.100000*%
%ADD13R,0.800000X0.700000*%
%ADD14R,1.250000X0.700000*%
%ADD15R,1.250000X0.400000*%
%ADD16O,1.900000X1.100000*%
%ADD17O,2.300000X1.100000*%
%ADD18R,2.100000X0.500000*%
G04 APERTURE END LIST*
%TO.C,C11*%
G36*
G01*
X72420200Y-107516350D02*
X72420200Y-108078850D01*
G75*
G02*
X72176450Y-108322600I-243750J0D01*
G01*
X71688950Y-108322600D01*
G75*
G02*
X71445200Y-108078850I0J243750D01*
G01*
X71445200Y-107516350D01*
G75*
G02*
X71688950Y-107272600I243750J0D01*
G01*
X72176450Y-107272600D01*
G75*
G02*
X72420200Y-107516350I0J-243750D01*
G01*
G37*
G36*
G01*
X73995200Y-107516350D02*
X73995200Y-108078850D01*
G75*
G02*
X73751450Y-108322600I-243750J0D01*
G01*
X73263950Y-108322600D01*
G75*
G02*
X73020200Y-108078850I0J243750D01*
G01*
X73020200Y-107516350D01*
G75*
G02*
X73263950Y-107272600I243750J0D01*
G01*
X73751450Y-107272600D01*
G75*
G02*
X73995200Y-107516350I0J-243750D01*
G01*
G37*
%TD*%
%TO.C,C10*%
G36*
G01*
X74020600Y-101394950D02*
X74020600Y-101957450D01*
G75*
G02*
X73776850Y-102201200I-243750J0D01*
G01*
X73289350Y-102201200D01*
G75*
G02*
X73045600Y-101957450I0J243750D01*
G01*
X73045600Y-101394950D01*
G75*
G02*
X73289350Y-101151200I243750J0D01*
G01*
X73776850Y-101151200D01*
G75*
G02*
X74020600Y-101394950I0J-243750D01*
G01*
G37*
G36*
G01*
X72445600Y-101394950D02*
X72445600Y-101957450D01*
G75*
G02*
X72201850Y-102201200I-243750J0D01*
G01*
X71714350Y-102201200D01*
G75*
G02*
X71470600Y-101957450I0J243750D01*
G01*
X71470600Y-101394950D01*
G75*
G02*
X71714350Y-101151200I243750J0D01*
G01*
X72201850Y-101151200D01*
G75*
G02*
X72445600Y-101394950I0J-243750D01*
G01*
G37*
%TD*%
D10*
%TO.C,U2*%
X76073000Y-73787000D03*
G36*
G01*
X79910500Y-76462000D02*
X78910500Y-76462000D01*
G75*
G02*
X78823000Y-76374500I0J87500D01*
G01*
X78823000Y-76199500D01*
G75*
G02*
X78910500Y-76112000I87500J0D01*
G01*
X79910500Y-76112000D01*
G75*
G02*
X79998000Y-76199500I0J-87500D01*
G01*
X79998000Y-76374500D01*
G75*
G02*
X79910500Y-76462000I-87500J0D01*
G01*
G37*
G36*
G01*
X79910500Y-75962000D02*
X78910500Y-75962000D01*
G75*
G02*
X78823000Y-75874500I0J87500D01*
G01*
X78823000Y-75699500D01*
G75*
G02*
X78910500Y-75612000I87500J0D01*
G01*
X79910500Y-75612000D01*
G75*
G02*
X79998000Y-75699500I0J-87500D01*
G01*
X79998000Y-75874500D01*
G75*
G02*
X79910500Y-75962000I-87500J0D01*
G01*
G37*
G36*
G01*
X79910500Y-75462000D02*
X78910500Y-75462000D01*
G75*
G02*
X78823000Y-75374500I0J87500D01*
G01*
X78823000Y-75199500D01*
G75*
G02*
X78910500Y-75112000I87500J0D01*
G01*
X79910500Y-75112000D01*
G75*
G02*
X79998000Y-75199500I0J-87500D01*
G01*
X79998000Y-75374500D01*
G75*
G02*
X79910500Y-75462000I-87500J0D01*
G01*
G37*
G36*
G01*
X79910500Y-74962000D02*
X78910500Y-74962000D01*
G75*
G02*
X78823000Y-74874500I0J87500D01*
G01*
X78823000Y-74699500D01*
G75*
G02*
X78910500Y-74612000I87500J0D01*
G01*
X79910500Y-74612000D01*
G75*
G02*
X79998000Y-74699500I0J-87500D01*
G01*
X79998000Y-74874500D01*
G75*
G02*
X79910500Y-74962000I-87500J0D01*
G01*
G37*
G36*
G01*
X79910500Y-74462000D02*
X78910500Y-74462000D01*
G75*
G02*
X78823000Y-74374500I0J87500D01*
G01*
X78823000Y-74199500D01*
G75*
G02*
X78910500Y-74112000I87500J0D01*
G01*
X79910500Y-74112000D01*
G75*
G02*
X79998000Y-74199500I0J-87500D01*
G01*
X79998000Y-74374500D01*
G75*
G02*
X79910500Y-74462000I-87500J0D01*
G01*
G37*
G36*
G01*
X79910500Y-73962000D02*
X78910500Y-73962000D01*
G75*
G02*
X78823000Y-73874500I0J87500D01*
G01*
X78823000Y-73699500D01*
G75*
G02*
X78910500Y-73612000I87500J0D01*
G01*
X79910500Y-73612000D01*
G75*
G02*
X79998000Y-73699500I0J-87500D01*
G01*
X79998000Y-73874500D01*
G75*
G02*
X79910500Y-73962000I-87500J0D01*
G01*
G37*
G36*
G01*
X79910500Y-73462000D02*
X78910500Y-73462000D01*
G75*
G02*
X78823000Y-73374500I0J87500D01*
G01*
X78823000Y-73199500D01*
G75*
G02*
X78910500Y-73112000I87500J0D01*
G01*
X79910500Y-73112000D01*
G75*
G02*
X79998000Y-73199500I0J-87500D01*
G01*
X79998000Y-73374500D01*
G75*
G02*
X79910500Y-73462000I-87500J0D01*
G01*
G37*
G36*
G01*
X79910500Y-72962000D02*
X78910500Y-72962000D01*
G75*
G02*
X78823000Y-72874500I0J87500D01*
G01*
X78823000Y-72699500D01*
G75*
G02*
X78910500Y-72612000I87500J0D01*
G01*
X79910500Y-72612000D01*
G75*
G02*
X79998000Y-72699500I0J-87500D01*
G01*
X79998000Y-72874500D01*
G75*
G02*
X79910500Y-72962000I-87500J0D01*
G01*
G37*
G36*
G01*
X79910500Y-72462000D02*
X78910500Y-72462000D01*
G75*
G02*
X78823000Y-72374500I0J87500D01*
G01*
X78823000Y-72199500D01*
G75*
G02*
X78910500Y-72112000I87500J0D01*
G01*
X79910500Y-72112000D01*
G75*
G02*
X79998000Y-72199500I0J-87500D01*
G01*
X79998000Y-72374500D01*
G75*
G02*
X79910500Y-72462000I-87500J0D01*
G01*
G37*
G36*
G01*
X79910500Y-71962000D02*
X78910500Y-71962000D01*
G75*
G02*
X78823000Y-71874500I0J87500D01*
G01*
X78823000Y-71699500D01*
G75*
G02*
X78910500Y-71612000I87500J0D01*
G01*
X79910500Y-71612000D01*
G75*
G02*
X79998000Y-71699500I0J-87500D01*
G01*
X79998000Y-71874500D01*
G75*
G02*
X79910500Y-71962000I-87500J0D01*
G01*
G37*
G36*
G01*
X79910500Y-71462000D02*
X78910500Y-71462000D01*
G75*
G02*
X78823000Y-71374500I0J87500D01*
G01*
X78823000Y-71199500D01*
G75*
G02*
X78910500Y-71112000I87500J0D01*
G01*
X79910500Y-71112000D01*
G75*
G02*
X79998000Y-71199500I0J-87500D01*
G01*
X79998000Y-71374500D01*
G75*
G02*
X79910500Y-71462000I-87500J0D01*
G01*
G37*
G36*
G01*
X78660500Y-71037000D02*
X78485500Y-71037000D01*
G75*
G02*
X78398000Y-70949500I0J87500D01*
G01*
X78398000Y-69949500D01*
G75*
G02*
X78485500Y-69862000I87500J0D01*
G01*
X78660500Y-69862000D01*
G75*
G02*
X78748000Y-69949500I0J-87500D01*
G01*
X78748000Y-70949500D01*
G75*
G02*
X78660500Y-71037000I-87500J0D01*
G01*
G37*
G36*
G01*
X78160500Y-71037000D02*
X77985500Y-71037000D01*
G75*
G02*
X77898000Y-70949500I0J87500D01*
G01*
X77898000Y-69949500D01*
G75*
G02*
X77985500Y-69862000I87500J0D01*
G01*
X78160500Y-69862000D01*
G75*
G02*
X78248000Y-69949500I0J-87500D01*
G01*
X78248000Y-70949500D01*
G75*
G02*
X78160500Y-71037000I-87500J0D01*
G01*
G37*
G36*
G01*
X77660500Y-71037000D02*
X77485500Y-71037000D01*
G75*
G02*
X77398000Y-70949500I0J87500D01*
G01*
X77398000Y-69949500D01*
G75*
G02*
X77485500Y-69862000I87500J0D01*
G01*
X77660500Y-69862000D01*
G75*
G02*
X77748000Y-69949500I0J-87500D01*
G01*
X77748000Y-70949500D01*
G75*
G02*
X77660500Y-71037000I-87500J0D01*
G01*
G37*
G36*
G01*
X77160500Y-71037000D02*
X76985500Y-71037000D01*
G75*
G02*
X76898000Y-70949500I0J87500D01*
G01*
X76898000Y-69949500D01*
G75*
G02*
X76985500Y-69862000I87500J0D01*
G01*
X77160500Y-69862000D01*
G75*
G02*
X77248000Y-69949500I0J-87500D01*
G01*
X77248000Y-70949500D01*
G75*
G02*
X77160500Y-71037000I-87500J0D01*
G01*
G37*
G36*
G01*
X76660500Y-71037000D02*
X76485500Y-71037000D01*
G75*
G02*
X76398000Y-70949500I0J87500D01*
G01*
X76398000Y-69949500D01*
G75*
G02*
X76485500Y-69862000I87500J0D01*
G01*
X76660500Y-69862000D01*
G75*
G02*
X76748000Y-69949500I0J-87500D01*
G01*
X76748000Y-70949500D01*
G75*
G02*
X76660500Y-71037000I-87500J0D01*
G01*
G37*
G36*
G01*
X76160500Y-71037000D02*
X75985500Y-71037000D01*
G75*
G02*
X75898000Y-70949500I0J87500D01*
G01*
X75898000Y-69949500D01*
G75*
G02*
X75985500Y-69862000I87500J0D01*
G01*
X76160500Y-69862000D01*
G75*
G02*
X76248000Y-69949500I0J-87500D01*
G01*
X76248000Y-70949500D01*
G75*
G02*
X76160500Y-71037000I-87500J0D01*
G01*
G37*
G36*
G01*
X75660500Y-71037000D02*
X75485500Y-71037000D01*
G75*
G02*
X75398000Y-70949500I0J87500D01*
G01*
X75398000Y-69949500D01*
G75*
G02*
X75485500Y-69862000I87500J0D01*
G01*
X75660500Y-69862000D01*
G75*
G02*
X75748000Y-69949500I0J-87500D01*
G01*
X75748000Y-70949500D01*
G75*
G02*
X75660500Y-71037000I-87500J0D01*
G01*
G37*
G36*
G01*
X75160500Y-71037000D02*
X74985500Y-71037000D01*
G75*
G02*
X74898000Y-70949500I0J87500D01*
G01*
X74898000Y-69949500D01*
G75*
G02*
X74985500Y-69862000I87500J0D01*
G01*
X75160500Y-69862000D01*
G75*
G02*
X75248000Y-69949500I0J-87500D01*
G01*
X75248000Y-70949500D01*
G75*
G02*
X75160500Y-71037000I-87500J0D01*
G01*
G37*
G36*
G01*
X74660500Y-71037000D02*
X74485500Y-71037000D01*
G75*
G02*
X74398000Y-70949500I0J87500D01*
G01*
X74398000Y-69949500D01*
G75*
G02*
X74485500Y-69862000I87500J0D01*
G01*
X74660500Y-69862000D01*
G75*
G02*
X74748000Y-69949500I0J-87500D01*
G01*
X74748000Y-70949500D01*
G75*
G02*
X74660500Y-71037000I-87500J0D01*
G01*
G37*
G36*
G01*
X74160500Y-71037000D02*
X73985500Y-71037000D01*
G75*
G02*
X73898000Y-70949500I0J87500D01*
G01*
X73898000Y-69949500D01*
G75*
G02*
X73985500Y-69862000I87500J0D01*
G01*
X74160500Y-69862000D01*
G75*
G02*
X74248000Y-69949500I0J-87500D01*
G01*
X74248000Y-70949500D01*
G75*
G02*
X74160500Y-71037000I-87500J0D01*
G01*
G37*
G36*
G01*
X73660500Y-71037000D02*
X73485500Y-71037000D01*
G75*
G02*
X73398000Y-70949500I0J87500D01*
G01*
X73398000Y-69949500D01*
G75*
G02*
X73485500Y-69862000I87500J0D01*
G01*
X73660500Y-69862000D01*
G75*
G02*
X73748000Y-69949500I0J-87500D01*
G01*
X73748000Y-70949500D01*
G75*
G02*
X73660500Y-71037000I-87500J0D01*
G01*
G37*
G36*
G01*
X73235500Y-71462000D02*
X72235500Y-71462000D01*
G75*
G02*
X72148000Y-71374500I0J87500D01*
G01*
X72148000Y-71199500D01*
G75*
G02*
X72235500Y-71112000I87500J0D01*
G01*
X73235500Y-71112000D01*
G75*
G02*
X73323000Y-71199500I0J-87500D01*
G01*
X73323000Y-71374500D01*
G75*
G02*
X73235500Y-71462000I-87500J0D01*
G01*
G37*
G36*
G01*
X73235500Y-71962000D02*
X72235500Y-71962000D01*
G75*
G02*
X72148000Y-71874500I0J87500D01*
G01*
X72148000Y-71699500D01*
G75*
G02*
X72235500Y-71612000I87500J0D01*
G01*
X73235500Y-71612000D01*
G75*
G02*
X73323000Y-71699500I0J-87500D01*
G01*
X73323000Y-71874500D01*
G75*
G02*
X73235500Y-71962000I-87500J0D01*
G01*
G37*
G36*
G01*
X73235500Y-72462000D02*
X72235500Y-72462000D01*
G75*
G02*
X72148000Y-72374500I0J87500D01*
G01*
X72148000Y-72199500D01*
G75*
G02*
X72235500Y-72112000I87500J0D01*
G01*
X73235500Y-72112000D01*
G75*
G02*
X73323000Y-72199500I0J-87500D01*
G01*
X73323000Y-72374500D01*
G75*
G02*
X73235500Y-72462000I-87500J0D01*
G01*
G37*
G36*
G01*
X73235500Y-72962000D02*
X72235500Y-72962000D01*
G75*
G02*
X72148000Y-72874500I0J87500D01*
G01*
X72148000Y-72699500D01*
G75*
G02*
X72235500Y-72612000I87500J0D01*
G01*
X73235500Y-72612000D01*
G75*
G02*
X73323000Y-72699500I0J-87500D01*
G01*
X73323000Y-72874500D01*
G75*
G02*
X73235500Y-72962000I-87500J0D01*
G01*
G37*
G36*
G01*
X73235500Y-73462000D02*
X72235500Y-73462000D01*
G75*
G02*
X72148000Y-73374500I0J87500D01*
G01*
X72148000Y-73199500D01*
G75*
G02*
X72235500Y-73112000I87500J0D01*
G01*
X73235500Y-73112000D01*
G75*
G02*
X73323000Y-73199500I0J-87500D01*
G01*
X73323000Y-73374500D01*
G75*
G02*
X73235500Y-73462000I-87500J0D01*
G01*
G37*
G36*
G01*
X73235500Y-73962000D02*
X72235500Y-73962000D01*
G75*
G02*
X72148000Y-73874500I0J87500D01*
G01*
X72148000Y-73699500D01*
G75*
G02*
X72235500Y-73612000I87500J0D01*
G01*
X73235500Y-73612000D01*
G75*
G02*
X73323000Y-73699500I0J-87500D01*
G01*
X73323000Y-73874500D01*
G75*
G02*
X73235500Y-73962000I-87500J0D01*
G01*
G37*
G36*
G01*
X73235500Y-74462000D02*
X72235500Y-74462000D01*
G75*
G02*
X72148000Y-74374500I0J87500D01*
G01*
X72148000Y-74199500D01*
G75*
G02*
X72235500Y-74112000I87500J0D01*
G01*
X73235500Y-74112000D01*
G75*
G02*
X73323000Y-74199500I0J-87500D01*
G01*
X73323000Y-74374500D01*
G75*
G02*
X73235500Y-74462000I-87500J0D01*
G01*
G37*
G36*
G01*
X73235500Y-74962000D02*
X72235500Y-74962000D01*
G75*
G02*
X72148000Y-74874500I0J87500D01*
G01*
X72148000Y-74699500D01*
G75*
G02*
X72235500Y-74612000I87500J0D01*
G01*
X73235500Y-74612000D01*
G75*
G02*
X73323000Y-74699500I0J-87500D01*
G01*
X73323000Y-74874500D01*
G75*
G02*
X73235500Y-74962000I-87500J0D01*
G01*
G37*
G36*
G01*
X73235500Y-75462000D02*
X72235500Y-75462000D01*
G75*
G02*
X72148000Y-75374500I0J87500D01*
G01*
X72148000Y-75199500D01*
G75*
G02*
X72235500Y-75112000I87500J0D01*
G01*
X73235500Y-75112000D01*
G75*
G02*
X73323000Y-75199500I0J-87500D01*
G01*
X73323000Y-75374500D01*
G75*
G02*
X73235500Y-75462000I-87500J0D01*
G01*
G37*
G36*
G01*
X73235500Y-75962000D02*
X72235500Y-75962000D01*
G75*
G02*
X72148000Y-75874500I0J87500D01*
G01*
X72148000Y-75699500D01*
G75*
G02*
X72235500Y-75612000I87500J0D01*
G01*
X73235500Y-75612000D01*
G75*
G02*
X73323000Y-75699500I0J-87500D01*
G01*
X73323000Y-75874500D01*
G75*
G02*
X73235500Y-75962000I-87500J0D01*
G01*
G37*
G36*
G01*
X73235500Y-76462000D02*
X72235500Y-76462000D01*
G75*
G02*
X72148000Y-76374500I0J87500D01*
G01*
X72148000Y-76199500D01*
G75*
G02*
X72235500Y-76112000I87500J0D01*
G01*
X73235500Y-76112000D01*
G75*
G02*
X73323000Y-76199500I0J-87500D01*
G01*
X73323000Y-76374500D01*
G75*
G02*
X73235500Y-76462000I-87500J0D01*
G01*
G37*
G36*
G01*
X73660500Y-77712000D02*
X73485500Y-77712000D01*
G75*
G02*
X73398000Y-77624500I0J87500D01*
G01*
X73398000Y-76624500D01*
G75*
G02*
X73485500Y-76537000I87500J0D01*
G01*
X73660500Y-76537000D01*
G75*
G02*
X73748000Y-76624500I0J-87500D01*
G01*
X73748000Y-77624500D01*
G75*
G02*
X73660500Y-77712000I-87500J0D01*
G01*
G37*
G36*
G01*
X74160500Y-77712000D02*
X73985500Y-77712000D01*
G75*
G02*
X73898000Y-77624500I0J87500D01*
G01*
X73898000Y-76624500D01*
G75*
G02*
X73985500Y-76537000I87500J0D01*
G01*
X74160500Y-76537000D01*
G75*
G02*
X74248000Y-76624500I0J-87500D01*
G01*
X74248000Y-77624500D01*
G75*
G02*
X74160500Y-77712000I-87500J0D01*
G01*
G37*
G36*
G01*
X74660500Y-77712000D02*
X74485500Y-77712000D01*
G75*
G02*
X74398000Y-77624500I0J87500D01*
G01*
X74398000Y-76624500D01*
G75*
G02*
X74485500Y-76537000I87500J0D01*
G01*
X74660500Y-76537000D01*
G75*
G02*
X74748000Y-76624500I0J-87500D01*
G01*
X74748000Y-77624500D01*
G75*
G02*
X74660500Y-77712000I-87500J0D01*
G01*
G37*
G36*
G01*
X75160500Y-77712000D02*
X74985500Y-77712000D01*
G75*
G02*
X74898000Y-77624500I0J87500D01*
G01*
X74898000Y-76624500D01*
G75*
G02*
X74985500Y-76537000I87500J0D01*
G01*
X75160500Y-76537000D01*
G75*
G02*
X75248000Y-76624500I0J-87500D01*
G01*
X75248000Y-77624500D01*
G75*
G02*
X75160500Y-77712000I-87500J0D01*
G01*
G37*
G36*
G01*
X75660500Y-77712000D02*
X75485500Y-77712000D01*
G75*
G02*
X75398000Y-77624500I0J87500D01*
G01*
X75398000Y-76624500D01*
G75*
G02*
X75485500Y-76537000I87500J0D01*
G01*
X75660500Y-76537000D01*
G75*
G02*
X75748000Y-76624500I0J-87500D01*
G01*
X75748000Y-77624500D01*
G75*
G02*
X75660500Y-77712000I-87500J0D01*
G01*
G37*
G36*
G01*
X76160500Y-77712000D02*
X75985500Y-77712000D01*
G75*
G02*
X75898000Y-77624500I0J87500D01*
G01*
X75898000Y-76624500D01*
G75*
G02*
X75985500Y-76537000I87500J0D01*
G01*
X76160500Y-76537000D01*
G75*
G02*
X76248000Y-76624500I0J-87500D01*
G01*
X76248000Y-77624500D01*
G75*
G02*
X76160500Y-77712000I-87500J0D01*
G01*
G37*
G36*
G01*
X76660500Y-77712000D02*
X76485500Y-77712000D01*
G75*
G02*
X76398000Y-77624500I0J87500D01*
G01*
X76398000Y-76624500D01*
G75*
G02*
X76485500Y-76537000I87500J0D01*
G01*
X76660500Y-76537000D01*
G75*
G02*
X76748000Y-76624500I0J-87500D01*
G01*
X76748000Y-77624500D01*
G75*
G02*
X76660500Y-77712000I-87500J0D01*
G01*
G37*
G36*
G01*
X77160500Y-77712000D02*
X76985500Y-77712000D01*
G75*
G02*
X76898000Y-77624500I0J87500D01*
G01*
X76898000Y-76624500D01*
G75*
G02*
X76985500Y-76537000I87500J0D01*
G01*
X77160500Y-76537000D01*
G75*
G02*
X77248000Y-76624500I0J-87500D01*
G01*
X77248000Y-77624500D01*
G75*
G02*
X77160500Y-77712000I-87500J0D01*
G01*
G37*
G36*
G01*
X77660500Y-77712000D02*
X77485500Y-77712000D01*
G75*
G02*
X77398000Y-77624500I0J87500D01*
G01*
X77398000Y-76624500D01*
G75*
G02*
X77485500Y-76537000I87500J0D01*
G01*
X77660500Y-76537000D01*
G75*
G02*
X77748000Y-76624500I0J-87500D01*
G01*
X77748000Y-77624500D01*
G75*
G02*
X77660500Y-77712000I-87500J0D01*
G01*
G37*
G36*
G01*
X78160500Y-77712000D02*
X77985500Y-77712000D01*
G75*
G02*
X77898000Y-77624500I0J87500D01*
G01*
X77898000Y-76624500D01*
G75*
G02*
X77985500Y-76537000I87500J0D01*
G01*
X78160500Y-76537000D01*
G75*
G02*
X78248000Y-76624500I0J-87500D01*
G01*
X78248000Y-77624500D01*
G75*
G02*
X78160500Y-77712000I-87500J0D01*
G01*
G37*
G36*
G01*
X78660500Y-77712000D02*
X78485500Y-77712000D01*
G75*
G02*
X78398000Y-77624500I0J87500D01*
G01*
X78398000Y-76624500D01*
G75*
G02*
X78485500Y-76537000I87500J0D01*
G01*
X78660500Y-76537000D01*
G75*
G02*
X78748000Y-76624500I0J-87500D01*
G01*
X78748000Y-77624500D01*
G75*
G02*
X78660500Y-77712000I-87500J0D01*
G01*
G37*
%TD*%
D11*
%TO.C,Reset*%
X80830500Y-107036000D03*
X80830500Y-100736000D03*
X77030500Y-107036000D03*
X77030500Y-100736000D03*
%TD*%
D12*
%TO.C,U1*%
X76311000Y-86753000D03*
D13*
X74311000Y-86553000D03*
X76311000Y-88453000D03*
X74311000Y-88453000D03*
%TD*%
D14*
%TO.C,USB1*%
X70044600Y-86011400D03*
X70044600Y-92411400D03*
X70044600Y-86811400D03*
X70044600Y-91611400D03*
D15*
X70044600Y-90961400D03*
X70044600Y-87461400D03*
X70044600Y-90461400D03*
X70044600Y-87961400D03*
X70044600Y-89961400D03*
X70044600Y-88461400D03*
X70044600Y-88961400D03*
X70044600Y-89461400D03*
D16*
X68744600Y-94831400D03*
X68744600Y-83591400D03*
D17*
X64744600Y-94831400D03*
X64744600Y-83591400D03*
%TD*%
D18*
%TO.C,X1*%
X69469000Y-74168000D03*
X69469000Y-72968000D03*
X69469000Y-75368000D03*
%TD*%
%TO.C,C1*%
G36*
G01*
X79459000Y-79275250D02*
X79459000Y-78712750D01*
G75*
G02*
X79702750Y-78469000I243750J0D01*
G01*
X80190250Y-78469000D01*
G75*
G02*
X80434000Y-78712750I0J-243750D01*
G01*
X80434000Y-79275250D01*
G75*
G02*
X80190250Y-79519000I-243750J0D01*
G01*
X79702750Y-79519000D01*
G75*
G02*
X79459000Y-79275250I0J243750D01*
G01*
G37*
G36*
G01*
X81034000Y-79275250D02*
X81034000Y-78712750D01*
G75*
G02*
X81277750Y-78469000I243750J0D01*
G01*
X81765250Y-78469000D01*
G75*
G02*
X82009000Y-78712750I0J-243750D01*
G01*
X82009000Y-79275250D01*
G75*
G02*
X81765250Y-79519000I-243750J0D01*
G01*
X81277750Y-79519000D01*
G75*
G02*
X81034000Y-79275250I0J243750D01*
G01*
G37*
%TD*%
%TO.C,C2*%
G36*
G01*
X81338500Y-76608250D02*
X81338500Y-76045750D01*
G75*
G02*
X81582250Y-75802000I243750J0D01*
G01*
X82069750Y-75802000D01*
G75*
G02*
X82313500Y-76045750I0J-243750D01*
G01*
X82313500Y-76608250D01*
G75*
G02*
X82069750Y-76852000I-243750J0D01*
G01*
X81582250Y-76852000D01*
G75*
G02*
X81338500Y-76608250I0J243750D01*
G01*
G37*
G36*
G01*
X82913500Y-76608250D02*
X82913500Y-76045750D01*
G75*
G02*
X83157250Y-75802000I243750J0D01*
G01*
X83644750Y-75802000D01*
G75*
G02*
X83888500Y-76045750I0J-243750D01*
G01*
X83888500Y-76608250D01*
G75*
G02*
X83644750Y-76852000I-243750J0D01*
G01*
X83157250Y-76852000D01*
G75*
G02*
X82913500Y-76608250I0J243750D01*
G01*
G37*
%TD*%
%TO.C,C3*%
G36*
G01*
X82977000Y-71528250D02*
X82977000Y-70965750D01*
G75*
G02*
X83220750Y-70722000I243750J0D01*
G01*
X83708250Y-70722000D01*
G75*
G02*
X83952000Y-70965750I0J-243750D01*
G01*
X83952000Y-71528250D01*
G75*
G02*
X83708250Y-71772000I-243750J0D01*
G01*
X83220750Y-71772000D01*
G75*
G02*
X82977000Y-71528250I0J243750D01*
G01*
G37*
G36*
G01*
X81402000Y-71528250D02*
X81402000Y-70965750D01*
G75*
G02*
X81645750Y-70722000I243750J0D01*
G01*
X82133250Y-70722000D01*
G75*
G02*
X82377000Y-70965750I0J-243750D01*
G01*
X82377000Y-71528250D01*
G75*
G02*
X82133250Y-71772000I-243750J0D01*
G01*
X81645750Y-71772000D01*
G75*
G02*
X81402000Y-71528250I0J243750D01*
G01*
G37*
%TD*%
%TO.C,C4*%
G36*
G01*
X74385750Y-68839000D02*
X73823250Y-68839000D01*
G75*
G02*
X73579500Y-68595250I0J243750D01*
G01*
X73579500Y-68107750D01*
G75*
G02*
X73823250Y-67864000I243750J0D01*
G01*
X74385750Y-67864000D01*
G75*
G02*
X74629500Y-68107750I0J-243750D01*
G01*
X74629500Y-68595250D01*
G75*
G02*
X74385750Y-68839000I-243750J0D01*
G01*
G37*
G36*
G01*
X74385750Y-67264000D02*
X73823250Y-67264000D01*
G75*
G02*
X73579500Y-67020250I0J243750D01*
G01*
X73579500Y-66532750D01*
G75*
G02*
X73823250Y-66289000I243750J0D01*
G01*
X74385750Y-66289000D01*
G75*
G02*
X74629500Y-66532750I0J-243750D01*
G01*
X74629500Y-67020250D01*
G75*
G02*
X74385750Y-67264000I-243750J0D01*
G01*
G37*
%TD*%
%TO.C,C5*%
G36*
G01*
X69931000Y-78204750D02*
X69931000Y-78767250D01*
G75*
G02*
X69687250Y-79011000I-243750J0D01*
G01*
X69199750Y-79011000D01*
G75*
G02*
X68956000Y-78767250I0J243750D01*
G01*
X68956000Y-78204750D01*
G75*
G02*
X69199750Y-77961000I243750J0D01*
G01*
X69687250Y-77961000D01*
G75*
G02*
X69931000Y-78204750I0J-243750D01*
G01*
G37*
G36*
G01*
X71506000Y-78204750D02*
X71506000Y-78767250D01*
G75*
G02*
X71262250Y-79011000I-243750J0D01*
G01*
X70774750Y-79011000D01*
G75*
G02*
X70531000Y-78767250I0J243750D01*
G01*
X70531000Y-78204750D01*
G75*
G02*
X70774750Y-77961000I243750J0D01*
G01*
X71262250Y-77961000D01*
G75*
G02*
X71506000Y-78204750I0J-243750D01*
G01*
G37*
%TD*%
%TO.C,C6*%
G36*
G01*
X73449000Y-79474750D02*
X73449000Y-80037250D01*
G75*
G02*
X73205250Y-80281000I-243750J0D01*
G01*
X72717750Y-80281000D01*
G75*
G02*
X72474000Y-80037250I0J243750D01*
G01*
X72474000Y-79474750D01*
G75*
G02*
X72717750Y-79231000I243750J0D01*
G01*
X73205250Y-79231000D01*
G75*
G02*
X73449000Y-79474750I0J-243750D01*
G01*
G37*
G36*
G01*
X75024000Y-79474750D02*
X75024000Y-80037250D01*
G75*
G02*
X74780250Y-80281000I-243750J0D01*
G01*
X74292750Y-80281000D01*
G75*
G02*
X74049000Y-80037250I0J243750D01*
G01*
X74049000Y-79474750D01*
G75*
G02*
X74292750Y-79231000I243750J0D01*
G01*
X74780250Y-79231000D01*
G75*
G02*
X75024000Y-79474750I0J-243750D01*
G01*
G37*
%TD*%
%TO.C,C12*%
G36*
G01*
X86863000Y-69064450D02*
X86863000Y-68501950D01*
G75*
G02*
X87106750Y-68258200I243750J0D01*
G01*
X87594250Y-68258200D01*
G75*
G02*
X87838000Y-68501950I0J-243750D01*
G01*
X87838000Y-69064450D01*
G75*
G02*
X87594250Y-69308200I-243750J0D01*
G01*
X87106750Y-69308200D01*
G75*
G02*
X86863000Y-69064450I0J243750D01*
G01*
G37*
G36*
G01*
X88438000Y-69064450D02*
X88438000Y-68501950D01*
G75*
G02*
X88681750Y-68258200I243750J0D01*
G01*
X89169250Y-68258200D01*
G75*
G02*
X89413000Y-68501950I0J-243750D01*
G01*
X89413000Y-69064450D01*
G75*
G02*
X89169250Y-69308200I-243750J0D01*
G01*
X88681750Y-69308200D01*
G75*
G02*
X88438000Y-69064450I0J243750D01*
G01*
G37*
%TD*%
%TO.C,R1*%
G36*
G01*
X71506000Y-79982750D02*
X71506000Y-80545250D01*
G75*
G02*
X71262250Y-80789000I-243750J0D01*
G01*
X70774750Y-80789000D01*
G75*
G02*
X70531000Y-80545250I0J243750D01*
G01*
X70531000Y-79982750D01*
G75*
G02*
X70774750Y-79739000I243750J0D01*
G01*
X71262250Y-79739000D01*
G75*
G02*
X71506000Y-79982750I0J-243750D01*
G01*
G37*
G36*
G01*
X69931000Y-79982750D02*
X69931000Y-80545250D01*
G75*
G02*
X69687250Y-80789000I-243750J0D01*
G01*
X69199750Y-80789000D01*
G75*
G02*
X68956000Y-80545250I0J243750D01*
G01*
X68956000Y-79982750D01*
G75*
G02*
X69199750Y-79739000I243750J0D01*
G01*
X69687250Y-79739000D01*
G75*
G02*
X69931000Y-79982750I0J-243750D01*
G01*
G37*
%TD*%
%TO.C,R2*%
G36*
G01*
X83190000Y-68552750D02*
X83190000Y-69115250D01*
G75*
G02*
X82946250Y-69359000I-243750J0D01*
G01*
X82458750Y-69359000D01*
G75*
G02*
X82215000Y-69115250I0J243750D01*
G01*
X82215000Y-68552750D01*
G75*
G02*
X82458750Y-68309000I243750J0D01*
G01*
X82946250Y-68309000D01*
G75*
G02*
X83190000Y-68552750I0J-243750D01*
G01*
G37*
G36*
G01*
X81615000Y-68552750D02*
X81615000Y-69115250D01*
G75*
G02*
X81371250Y-69359000I-243750J0D01*
G01*
X80883750Y-69359000D01*
G75*
G02*
X80640000Y-69115250I0J243750D01*
G01*
X80640000Y-68552750D01*
G75*
G02*
X80883750Y-68309000I243750J0D01*
G01*
X81371250Y-68309000D01*
G75*
G02*
X81615000Y-68552750I0J-243750D01*
G01*
G37*
%TD*%
%TO.C,R3*%
G36*
G01*
X89413000Y-66927150D02*
X89413000Y-67489650D01*
G75*
G02*
X89169250Y-67733400I-243750J0D01*
G01*
X88681750Y-67733400D01*
G75*
G02*
X88438000Y-67489650I0J243750D01*
G01*
X88438000Y-66927150D01*
G75*
G02*
X88681750Y-66683400I243750J0D01*
G01*
X89169250Y-66683400D01*
G75*
G02*
X89413000Y-66927150I0J-243750D01*
G01*
G37*
G36*
G01*
X87838000Y-66927150D02*
X87838000Y-67489650D01*
G75*
G02*
X87594250Y-67733400I-243750J0D01*
G01*
X87106750Y-67733400D01*
G75*
G02*
X86863000Y-67489650I0J243750D01*
G01*
X86863000Y-66927150D01*
G75*
G02*
X87106750Y-66683400I243750J0D01*
G01*
X87594250Y-66683400D01*
G75*
G02*
X87838000Y-66927150I0J-243750D01*
G01*
G37*
%TD*%
%TO.C,R4*%
G36*
G01*
X87838000Y-65352350D02*
X87838000Y-65914850D01*
G75*
G02*
X87594250Y-66158600I-243750J0D01*
G01*
X87106750Y-66158600D01*
G75*
G02*
X86863000Y-65914850I0J243750D01*
G01*
X86863000Y-65352350D01*
G75*
G02*
X87106750Y-65108600I243750J0D01*
G01*
X87594250Y-65108600D01*
G75*
G02*
X87838000Y-65352350I0J-243750D01*
G01*
G37*
G36*
G01*
X89413000Y-65352350D02*
X89413000Y-65914850D01*
G75*
G02*
X89169250Y-66158600I-243750J0D01*
G01*
X88681750Y-66158600D01*
G75*
G02*
X88438000Y-65914850I0J243750D01*
G01*
X88438000Y-65352350D01*
G75*
G02*
X88681750Y-65108600I243750J0D01*
G01*
X89169250Y-65108600D01*
G75*
G02*
X89413000Y-65352350I0J-243750D01*
G01*
G37*
%TD*%
%TO.C,UR1*%
G36*
G01*
X78386250Y-81361000D02*
X77823750Y-81361000D01*
G75*
G02*
X77580000Y-81117250I0J243750D01*
G01*
X77580000Y-80629750D01*
G75*
G02*
X77823750Y-80386000I243750J0D01*
G01*
X78386250Y-80386000D01*
G75*
G02*
X78630000Y-80629750I0J-243750D01*
G01*
X78630000Y-81117250D01*
G75*
G02*
X78386250Y-81361000I-243750J0D01*
G01*
G37*
G36*
G01*
X78386250Y-82936000D02*
X77823750Y-82936000D01*
G75*
G02*
X77580000Y-82692250I0J243750D01*
G01*
X77580000Y-82204750D01*
G75*
G02*
X77823750Y-81961000I243750J0D01*
G01*
X78386250Y-81961000D01*
G75*
G02*
X78630000Y-82204750I0J-243750D01*
G01*
X78630000Y-82692250D01*
G75*
G02*
X78386250Y-82936000I-243750J0D01*
G01*
G37*
%TD*%
%TO.C,UR2*%
G36*
G01*
X76862250Y-81361000D02*
X76299750Y-81361000D01*
G75*
G02*
X76056000Y-81117250I0J243750D01*
G01*
X76056000Y-80629750D01*
G75*
G02*
X76299750Y-80386000I243750J0D01*
G01*
X76862250Y-80386000D01*
G75*
G02*
X77106000Y-80629750I0J-243750D01*
G01*
X77106000Y-81117250D01*
G75*
G02*
X76862250Y-81361000I-243750J0D01*
G01*
G37*
G36*
G01*
X76862250Y-82936000D02*
X76299750Y-82936000D01*
G75*
G02*
X76056000Y-82692250I0J243750D01*
G01*
X76056000Y-82204750D01*
G75*
G02*
X76299750Y-81961000I243750J0D01*
G01*
X76862250Y-81961000D01*
G75*
G02*
X77106000Y-82204750I0J-243750D01*
G01*
X77106000Y-82692250D01*
G75*
G02*
X76862250Y-82936000I-243750J0D01*
G01*
G37*
%TD*%
%TO.C,UR3*%
G36*
G01*
X72616750Y-98394800D02*
X73179250Y-98394800D01*
G75*
G02*
X73423000Y-98638550I0J-243750D01*
G01*
X73423000Y-99126050D01*
G75*
G02*
X73179250Y-99369800I-243750J0D01*
G01*
X72616750Y-99369800D01*
G75*
G02*
X72373000Y-99126050I0J243750D01*
G01*
X72373000Y-98638550D01*
G75*
G02*
X72616750Y-98394800I243750J0D01*
G01*
G37*
G36*
G01*
X72616750Y-96819800D02*
X73179250Y-96819800D01*
G75*
G02*
X73423000Y-97063550I0J-243750D01*
G01*
X73423000Y-97551050D01*
G75*
G02*
X73179250Y-97794800I-243750J0D01*
G01*
X72616750Y-97794800D01*
G75*
G02*
X72373000Y-97551050I0J243750D01*
G01*
X72373000Y-97063550D01*
G75*
G02*
X72616750Y-96819800I243750J0D01*
G01*
G37*
%TD*%
%TO.C,UR4*%
G36*
G01*
X71092750Y-96819800D02*
X71655250Y-96819800D01*
G75*
G02*
X71899000Y-97063550I0J-243750D01*
G01*
X71899000Y-97551050D01*
G75*
G02*
X71655250Y-97794800I-243750J0D01*
G01*
X71092750Y-97794800D01*
G75*
G02*
X70849000Y-97551050I0J243750D01*
G01*
X70849000Y-97063550D01*
G75*
G02*
X71092750Y-96819800I243750J0D01*
G01*
G37*
G36*
G01*
X71092750Y-98394800D02*
X71655250Y-98394800D01*
G75*
G02*
X71899000Y-98638550I0J-243750D01*
G01*
X71899000Y-99126050D01*
G75*
G02*
X71655250Y-99369800I-243750J0D01*
G01*
X71092750Y-99369800D01*
G75*
G02*
X70849000Y-99126050I0J243750D01*
G01*
X70849000Y-98638550D01*
G75*
G02*
X71092750Y-98394800I243750J0D01*
G01*
G37*
%TD*%
%TO.C,UR5*%
G36*
G01*
X66063550Y-96794500D02*
X66626050Y-96794500D01*
G75*
G02*
X66869800Y-97038250I0J-243750D01*
G01*
X66869800Y-97525750D01*
G75*
G02*
X66626050Y-97769500I-243750J0D01*
G01*
X66063550Y-97769500D01*
G75*
G02*
X65819800Y-97525750I0J243750D01*
G01*
X65819800Y-97038250D01*
G75*
G02*
X66063550Y-96794500I243750J0D01*
G01*
G37*
G36*
G01*
X66063550Y-98369500D02*
X66626050Y-98369500D01*
G75*
G02*
X66869800Y-98613250I0J-243750D01*
G01*
X66869800Y-99100750D01*
G75*
G02*
X66626050Y-99344500I-243750J0D01*
G01*
X66063550Y-99344500D01*
G75*
G02*
X65819800Y-99100750I0J243750D01*
G01*
X65819800Y-98613250D01*
G75*
G02*
X66063550Y-98369500I243750J0D01*
G01*
G37*
%TD*%
%TO.C,UCAP1*%
G36*
G01*
X65102050Y-99344300D02*
X64539550Y-99344300D01*
G75*
G02*
X64295800Y-99100550I0J243750D01*
G01*
X64295800Y-98613050D01*
G75*
G02*
X64539550Y-98369300I243750J0D01*
G01*
X65102050Y-98369300D01*
G75*
G02*
X65345800Y-98613050I0J-243750D01*
G01*
X65345800Y-99100550D01*
G75*
G02*
X65102050Y-99344300I-243750J0D01*
G01*
G37*
G36*
G01*
X65102050Y-97769300D02*
X64539550Y-97769300D01*
G75*
G02*
X64295800Y-97525550I0J243750D01*
G01*
X64295800Y-97038050D01*
G75*
G02*
X64539550Y-96794300I243750J0D01*
G01*
X65102050Y-96794300D01*
G75*
G02*
X65345800Y-97038050I0J-243750D01*
G01*
X65345800Y-97525550D01*
G75*
G02*
X65102050Y-97769300I-243750J0D01*
G01*
G37*
%TD*%
M02*
