%TF.GenerationSoftware,KiCad,Pcbnew,(5.1.6)-1*%
%TF.CreationDate,2020-05-31T03:06:52+03:00*%
%TF.ProjectId,Project,50726f6a-6563-4742-9e6b-696361645f70,rev?*%
%TF.SameCoordinates,Original*%
%TF.FileFunction,Paste,Top*%
%TF.FilePolarity,Positive*%
%FSLAX46Y46*%
G04 Gerber Fmt 4.6, Leading zero omitted, Abs format (unit mm)*
G04 Created by KiCad (PCBNEW (5.1.6)-1) date 2020-05-31 03:06:52*
%MOMM*%
%LPD*%
G01*
G04 APERTURE LIST*
%ADD10R,0.900000X1.200000*%
%ADD11R,1.525000X0.650000*%
%ADD12R,1.700000X1.000000*%
G04 APERTURE END LIST*
D10*
%TO.C,D9*%
X83336400Y-86004400D03*
X80036400Y-86004400D03*
%TD*%
D11*
%TO.C,IC1*%
X88919600Y-92430600D03*
X88919600Y-91160600D03*
X88919600Y-89890600D03*
X88919600Y-88620600D03*
X83495600Y-88620600D03*
X83495600Y-89890600D03*
X83495600Y-91160600D03*
X83495600Y-92430600D03*
%TD*%
%TO.C,F1*%
G36*
G01*
X74704000Y-83262150D02*
X74704000Y-84174650D01*
G75*
G02*
X74460250Y-84418400I-243750J0D01*
G01*
X73972750Y-84418400D01*
G75*
G02*
X73729000Y-84174650I0J243750D01*
G01*
X73729000Y-83262150D01*
G75*
G02*
X73972750Y-83018400I243750J0D01*
G01*
X74460250Y-83018400D01*
G75*
G02*
X74704000Y-83262150I0J-243750D01*
G01*
G37*
G36*
G01*
X72829000Y-83262150D02*
X72829000Y-84174650D01*
G75*
G02*
X72585250Y-84418400I-243750J0D01*
G01*
X72097750Y-84418400D01*
G75*
G02*
X71854000Y-84174650I0J243750D01*
G01*
X71854000Y-83262150D01*
G75*
G02*
X72097750Y-83018400I243750J0D01*
G01*
X72585250Y-83018400D01*
G75*
G02*
X72829000Y-83262150I0J-243750D01*
G01*
G37*
%TD*%
D12*
%TO.C,SW2*%
X66877800Y-99852400D03*
X73177800Y-99852400D03*
X66877800Y-103652400D03*
X73177800Y-103652400D03*
%TD*%
%TO.C,SW3*%
X73177800Y-109723000D03*
X66877800Y-109723000D03*
X73177800Y-105923000D03*
X66877800Y-105923000D03*
%TD*%
%TO.C,C7*%
G36*
G01*
X85757730Y-85308960D02*
X85245230Y-85308960D01*
G75*
G02*
X85026480Y-85090210I0J218750D01*
G01*
X85026480Y-84652710D01*
G75*
G02*
X85245230Y-84433960I218750J0D01*
G01*
X85757730Y-84433960D01*
G75*
G02*
X85976480Y-84652710I0J-218750D01*
G01*
X85976480Y-85090210D01*
G75*
G02*
X85757730Y-85308960I-218750J0D01*
G01*
G37*
G36*
G01*
X85757730Y-86883960D02*
X85245230Y-86883960D01*
G75*
G02*
X85026480Y-86665210I0J218750D01*
G01*
X85026480Y-86227710D01*
G75*
G02*
X85245230Y-86008960I218750J0D01*
G01*
X85757730Y-86008960D01*
G75*
G02*
X85976480Y-86227710I0J-218750D01*
G01*
X85976480Y-86665210D01*
G75*
G02*
X85757730Y-86883960I-218750J0D01*
G01*
G37*
%TD*%
%TO.C,C8*%
G36*
G01*
X87332530Y-86883960D02*
X86820030Y-86883960D01*
G75*
G02*
X86601280Y-86665210I0J218750D01*
G01*
X86601280Y-86227710D01*
G75*
G02*
X86820030Y-86008960I218750J0D01*
G01*
X87332530Y-86008960D01*
G75*
G02*
X87551280Y-86227710I0J-218750D01*
G01*
X87551280Y-86665210D01*
G75*
G02*
X87332530Y-86883960I-218750J0D01*
G01*
G37*
G36*
G01*
X87332530Y-85308960D02*
X86820030Y-85308960D01*
G75*
G02*
X86601280Y-85090210I0J218750D01*
G01*
X86601280Y-84652710D01*
G75*
G02*
X86820030Y-84433960I218750J0D01*
G01*
X87332530Y-84433960D01*
G75*
G02*
X87551280Y-84652710I0J-218750D01*
G01*
X87551280Y-85090210D01*
G75*
G02*
X87332530Y-85308960I-218750J0D01*
G01*
G37*
%TD*%
%TO.C,C9*%
G36*
G01*
X88907330Y-85283660D02*
X88394830Y-85283660D01*
G75*
G02*
X88176080Y-85064910I0J218750D01*
G01*
X88176080Y-84627410D01*
G75*
G02*
X88394830Y-84408660I218750J0D01*
G01*
X88907330Y-84408660D01*
G75*
G02*
X89126080Y-84627410I0J-218750D01*
G01*
X89126080Y-85064910D01*
G75*
G02*
X88907330Y-85283660I-218750J0D01*
G01*
G37*
G36*
G01*
X88907330Y-86858660D02*
X88394830Y-86858660D01*
G75*
G02*
X88176080Y-86639910I0J218750D01*
G01*
X88176080Y-86202410D01*
G75*
G02*
X88394830Y-85983660I218750J0D01*
G01*
X88907330Y-85983660D01*
G75*
G02*
X89126080Y-86202410I0J-218750D01*
G01*
X89126080Y-86639910D01*
G75*
G02*
X88907330Y-86858660I-218750J0D01*
G01*
G37*
%TD*%
M02*
