%TF.GenerationSoftware,KiCad,Pcbnew,(5.1.6)-1*%
%TF.CreationDate,2020-05-31T03:06:51+03:00*%
%TF.ProjectId,Project,50726f6a-6563-4742-9e6b-696361645f70,rev?*%
%TF.SameCoordinates,Original*%
%TF.FileFunction,Copper,L1,Top*%
%TF.FilePolarity,Positive*%
%FSLAX46Y46*%
G04 Gerber Fmt 4.6, Leading zero omitted, Abs format (unit mm)*
G04 Created by KiCad (PCBNEW (5.1.6)-1) date 2020-05-31 03:06:51*
%MOMM*%
%LPD*%
G01*
G04 APERTURE LIST*
%TA.AperFunction,SMDPad,CuDef*%
%ADD10R,0.900000X1.200000*%
%TD*%
%TA.AperFunction,SMDPad,CuDef*%
%ADD11R,1.525000X0.650000*%
%TD*%
%TA.AperFunction,SMDPad,CuDef*%
%ADD12R,1.700000X1.000000*%
%TD*%
%TA.AperFunction,ComponentPad*%
%ADD13O,1.800000X1.000000*%
%TD*%
%TA.AperFunction,ComponentPad*%
%ADD14O,2.200000X1.000000*%
%TD*%
%TA.AperFunction,ViaPad*%
%ADD15C,0.800000*%
%TD*%
%TA.AperFunction,ViaPad*%
%ADD16C,1.270000*%
%TD*%
%TA.AperFunction,ViaPad*%
%ADD17C,0.400000*%
%TD*%
%TA.AperFunction,Conductor*%
%ADD18C,0.250000*%
%TD*%
%TA.AperFunction,Conductor*%
%ADD19C,0.600000*%
%TD*%
%TA.AperFunction,Conductor*%
%ADD20C,0.400000*%
%TD*%
%TA.AperFunction,Conductor*%
%ADD21C,0.254000*%
%TD*%
G04 APERTURE END LIST*
D10*
%TO.P,D9,1*%
%TO.N,Net-(C7-Pad1)*%
X83336400Y-86004400D03*
%TO.P,D9,2*%
%TO.N,+5V*%
X80036400Y-86004400D03*
%TD*%
D11*
%TO.P,IC1,1*%
%TO.N,Net-(C7-Pad1)*%
X88919600Y-92430600D03*
%TO.P,IC1,2*%
%TO.N,Net-(AE1-Pad2)*%
X88919600Y-91160600D03*
%TO.P,IC1,3*%
X88919600Y-89890600D03*
%TO.P,IC1,4*%
%TO.N,GND*%
X88919600Y-88620600D03*
%TO.P,IC1,5*%
%TO.N,SDA*%
X83495600Y-88620600D03*
%TO.P,IC1,6*%
%TO.N,SCL*%
X83495600Y-89890600D03*
%TO.P,IC1,7*%
%TO.N,BUSY*%
X83495600Y-91160600D03*
%TO.P,IC1,8*%
%TO.N,Net-(C7-Pad1)*%
X83495600Y-92430600D03*
%TD*%
%TO.P,F1,1*%
%TO.N,VCC*%
%TA.AperFunction,SMDPad,CuDef*%
G36*
G01*
X74704000Y-83262150D02*
X74704000Y-84174650D01*
G75*
G02*
X74460250Y-84418400I-243750J0D01*
G01*
X73972750Y-84418400D01*
G75*
G02*
X73729000Y-84174650I0J243750D01*
G01*
X73729000Y-83262150D01*
G75*
G02*
X73972750Y-83018400I243750J0D01*
G01*
X74460250Y-83018400D01*
G75*
G02*
X74704000Y-83262150I0J-243750D01*
G01*
G37*
%TD.AperFunction*%
%TO.P,F1,2*%
%TO.N,+5V*%
%TA.AperFunction,SMDPad,CuDef*%
G36*
G01*
X72829000Y-83262150D02*
X72829000Y-84174650D01*
G75*
G02*
X72585250Y-84418400I-243750J0D01*
G01*
X72097750Y-84418400D01*
G75*
G02*
X71854000Y-84174650I0J243750D01*
G01*
X71854000Y-83262150D01*
G75*
G02*
X72097750Y-83018400I243750J0D01*
G01*
X72585250Y-83018400D01*
G75*
G02*
X72829000Y-83262150I0J-243750D01*
G01*
G37*
%TD.AperFunction*%
%TD*%
D12*
%TO.P,SW2,1*%
%TO.N,Net-(C10-Pad1)*%
X66877800Y-99852400D03*
X73177800Y-99852400D03*
%TO.P,SW2,2*%
%TO.N,GND*%
X66877800Y-103652400D03*
X73177800Y-103652400D03*
%TD*%
%TO.P,SW3,2*%
%TO.N,GND*%
X73177800Y-109723000D03*
X66877800Y-109723000D03*
%TO.P,SW3,1*%
%TO.N,Net-(C11-Pad1)*%
X73177800Y-105923000D03*
X66877800Y-105923000D03*
%TD*%
D13*
%TO.P,USB1,13*%
%TO.N,Net-(UR5-Pad1)*%
X68744600Y-94831400D03*
X68744600Y-83591400D03*
D14*
X64744600Y-94831400D03*
X64744600Y-83591400D03*
%TD*%
%TO.P,C7,2*%
%TO.N,GND*%
%TA.AperFunction,SMDPad,CuDef*%
G36*
G01*
X85757730Y-85308960D02*
X85245230Y-85308960D01*
G75*
G02*
X85026480Y-85090210I0J218750D01*
G01*
X85026480Y-84652710D01*
G75*
G02*
X85245230Y-84433960I218750J0D01*
G01*
X85757730Y-84433960D01*
G75*
G02*
X85976480Y-84652710I0J-218750D01*
G01*
X85976480Y-85090210D01*
G75*
G02*
X85757730Y-85308960I-218750J0D01*
G01*
G37*
%TD.AperFunction*%
%TO.P,C7,1*%
%TO.N,Net-(C7-Pad1)*%
%TA.AperFunction,SMDPad,CuDef*%
G36*
G01*
X85757730Y-86883960D02*
X85245230Y-86883960D01*
G75*
G02*
X85026480Y-86665210I0J218750D01*
G01*
X85026480Y-86227710D01*
G75*
G02*
X85245230Y-86008960I218750J0D01*
G01*
X85757730Y-86008960D01*
G75*
G02*
X85976480Y-86227710I0J-218750D01*
G01*
X85976480Y-86665210D01*
G75*
G02*
X85757730Y-86883960I-218750J0D01*
G01*
G37*
%TD.AperFunction*%
%TD*%
%TO.P,C8,1*%
%TO.N,Net-(C7-Pad1)*%
%TA.AperFunction,SMDPad,CuDef*%
G36*
G01*
X87332530Y-86883960D02*
X86820030Y-86883960D01*
G75*
G02*
X86601280Y-86665210I0J218750D01*
G01*
X86601280Y-86227710D01*
G75*
G02*
X86820030Y-86008960I218750J0D01*
G01*
X87332530Y-86008960D01*
G75*
G02*
X87551280Y-86227710I0J-218750D01*
G01*
X87551280Y-86665210D01*
G75*
G02*
X87332530Y-86883960I-218750J0D01*
G01*
G37*
%TD.AperFunction*%
%TO.P,C8,2*%
%TO.N,GND*%
%TA.AperFunction,SMDPad,CuDef*%
G36*
G01*
X87332530Y-85308960D02*
X86820030Y-85308960D01*
G75*
G02*
X86601280Y-85090210I0J218750D01*
G01*
X86601280Y-84652710D01*
G75*
G02*
X86820030Y-84433960I218750J0D01*
G01*
X87332530Y-84433960D01*
G75*
G02*
X87551280Y-84652710I0J-218750D01*
G01*
X87551280Y-85090210D01*
G75*
G02*
X87332530Y-85308960I-218750J0D01*
G01*
G37*
%TD.AperFunction*%
%TD*%
%TO.P,C9,2*%
%TO.N,GND*%
%TA.AperFunction,SMDPad,CuDef*%
G36*
G01*
X88907330Y-85283660D02*
X88394830Y-85283660D01*
G75*
G02*
X88176080Y-85064910I0J218750D01*
G01*
X88176080Y-84627410D01*
G75*
G02*
X88394830Y-84408660I218750J0D01*
G01*
X88907330Y-84408660D01*
G75*
G02*
X89126080Y-84627410I0J-218750D01*
G01*
X89126080Y-85064910D01*
G75*
G02*
X88907330Y-85283660I-218750J0D01*
G01*
G37*
%TD.AperFunction*%
%TO.P,C9,1*%
%TO.N,Net-(C7-Pad1)*%
%TA.AperFunction,SMDPad,CuDef*%
G36*
G01*
X88907330Y-86858660D02*
X88394830Y-86858660D01*
G75*
G02*
X88176080Y-86639910I0J218750D01*
G01*
X88176080Y-86202410D01*
G75*
G02*
X88394830Y-85983660I218750J0D01*
G01*
X88907330Y-85983660D01*
G75*
G02*
X89126080Y-86202410I0J-218750D01*
G01*
X89126080Y-86639910D01*
G75*
G02*
X88907330Y-86858660I-218750J0D01*
G01*
G37*
%TD.AperFunction*%
%TD*%
D15*
%TO.N,+5V*%
X74676000Y-78422500D03*
X78422500Y-78549500D03*
X68135500Y-80200500D03*
X72517000Y-68326000D03*
X81915000Y-72834500D03*
X81851500Y-77660500D03*
%TO.N,GND*%
X75387200Y-74447400D03*
X76708000Y-74472800D03*
X75412600Y-73152000D03*
X76708000Y-73126600D03*
X70993000Y-84010500D03*
X67135497Y-80200500D03*
X72517000Y-66802000D03*
X82677000Y-67246500D03*
X84137500Y-77787500D03*
X80721200Y-72186800D03*
X80467200Y-70307200D03*
X72212200Y-81711800D03*
X76809600Y-85852000D03*
X80746600Y-109728000D03*
X84231480Y-84416900D03*
X75946000Y-93472000D03*
X73533000Y-93472000D03*
%TO.N,Net-(C10-Pad1)*%
X70383400Y-70002400D03*
X74752200Y-101625400D03*
%TO.N,Net-(C11-Pad1)*%
X71526400Y-69850000D03*
X74904600Y-107746800D03*
%TO.N,VCC*%
X75590400Y-91897200D03*
X75412600Y-83972400D03*
D16*
%TO.N,Net-(AE1-Pad2)*%
X96005420Y-89865680D03*
X104805420Y-90565680D03*
D17*
X94505420Y-89865680D03*
X94505420Y-91165680D03*
D15*
X94505420Y-91165680D03*
X94505420Y-89865680D03*
%TO.N,SDA*%
X85902800Y-67208400D03*
%TO.N,SCL*%
X84516390Y-65145490D03*
%TO.N,BUSY*%
X83750277Y-66934186D03*
%TO.N,RST*%
X72453500Y-77533500D03*
X77025500Y-98869500D03*
%TO.N,Net-(U1-Pad3)*%
X73787000Y-89789000D03*
X72593200Y-86817198D03*
%TO.N,Net-(U1-Pad2)*%
X72644000Y-90551000D03*
X72618600Y-87918720D03*
%TO.N,Net-(UR3-Pad1)*%
X71882000Y-91389200D03*
X72644000Y-94488000D03*
%TO.N,Net-(UR4-Pad1)*%
X71526400Y-94488000D03*
X72593200Y-85815000D03*
%TD*%
D18*
%TO.N,+5V*%
X74676000Y-78422500D02*
X78295500Y-78422500D01*
X78295500Y-78422500D02*
X78422500Y-78549500D01*
X68135500Y-80200500D02*
X68135500Y-77724000D01*
X68135500Y-77724000D02*
X66294000Y-75882500D01*
X66294000Y-75882500D02*
X66294000Y-71882000D01*
X66294000Y-71882000D02*
X69850000Y-68326000D01*
X69850000Y-68326000D02*
X72517000Y-68326000D01*
X72517000Y-68326000D02*
X80073500Y-68326000D01*
X80073500Y-68326000D02*
X81915000Y-70167500D01*
X81915000Y-70167500D02*
X81915000Y-72834500D01*
X81915000Y-72834500D02*
X81915000Y-77597000D01*
X81915000Y-77597000D02*
X81851500Y-77660500D01*
X68823600Y-80200500D02*
X68135500Y-80200500D01*
X72341500Y-83718400D02*
X68823600Y-80200500D01*
X81851500Y-77660500D02*
X81851500Y-80886300D01*
X80036400Y-82701400D02*
X80036400Y-86004400D01*
X81851500Y-80886300D02*
X80036400Y-82701400D01*
%TO.N,GND*%
X67135497Y-80200500D02*
X67135497Y-78120997D01*
X67135497Y-78120997D02*
X65278000Y-76263500D01*
X65278000Y-76263500D02*
X65278000Y-71310500D01*
X65278000Y-71310500D02*
X69786500Y-66802000D01*
X69786500Y-66802000D02*
X72517000Y-66802000D01*
X72517000Y-66802000D02*
X82232500Y-66802000D01*
X82232500Y-66802000D02*
X82677000Y-67246500D01*
X82677000Y-67246500D02*
X84074000Y-68643500D01*
X84074000Y-68643500D02*
X84074000Y-77724000D01*
X84074000Y-77724000D02*
X84137500Y-77787500D01*
X80721200Y-72186800D02*
X80721200Y-70561200D01*
X80721200Y-70561200D02*
X80467200Y-70307200D01*
X72212200Y-81711800D02*
X72034400Y-81711800D01*
X76809600Y-84124800D02*
X76809600Y-84074000D01*
X76809600Y-85852000D02*
X76809600Y-84124800D01*
X74447400Y-81711800D02*
X72212200Y-81711800D01*
X76809600Y-84074000D02*
X74447400Y-81711800D01*
X66877800Y-103652400D02*
X65511600Y-103652400D01*
X65511600Y-103652400D02*
X64998600Y-104165400D01*
X64998600Y-104165400D02*
X64998600Y-109296200D01*
X65425400Y-109723000D02*
X66877800Y-109723000D01*
X64998600Y-109296200D02*
X65425400Y-109723000D01*
X66877800Y-109723000D02*
X73177800Y-109723000D01*
X66877800Y-103652400D02*
X73177800Y-103652400D01*
X73177800Y-109723000D02*
X80741600Y-109723000D01*
X80741600Y-109723000D02*
X80746600Y-109728000D01*
X88676480Y-84820760D02*
X88651080Y-84846160D01*
X85526780Y-84846160D02*
X85501480Y-84871460D01*
X88651080Y-84846160D02*
X85526780Y-84846160D01*
X88919600Y-88620600D02*
X89009220Y-88620600D01*
X89009220Y-88620600D02*
X90233500Y-87396320D01*
X90233500Y-87396320D02*
X90233500Y-85095080D01*
X89984580Y-84846160D02*
X88651080Y-84846160D01*
X90233500Y-85095080D02*
X89984580Y-84846160D01*
X85501480Y-84871460D02*
X84686040Y-84871460D01*
X84686040Y-84871460D02*
X84231480Y-84416900D01*
%TO.N,Net-(C7-Pad1)*%
X85526780Y-86421160D02*
X85501480Y-86446460D01*
X88651080Y-86421160D02*
X85526780Y-86421160D01*
X88919600Y-92430600D02*
X87360760Y-92430600D01*
X87360760Y-92430600D02*
X86106000Y-91175840D01*
X84851240Y-92430600D02*
X86106000Y-91175840D01*
X84518500Y-92430600D02*
X84851240Y-92430600D01*
X84518500Y-92430600D02*
X83495600Y-92430600D01*
X83336400Y-86004400D02*
X83632040Y-86004400D01*
X83336400Y-86004400D02*
X84099400Y-86004400D01*
X84541460Y-86446460D02*
X85501480Y-86446460D01*
X84099400Y-86004400D02*
X84541460Y-86446460D01*
X86106000Y-89535000D02*
X86106000Y-91175840D01*
X88651080Y-86421160D02*
X88651080Y-86989920D01*
X88651080Y-86989920D02*
X86106000Y-89535000D01*
%TO.N,Net-(C10-Pad1)*%
X73177800Y-99852400D02*
X66877800Y-99852400D01*
X78130400Y-99491800D02*
X78130400Y-84175600D01*
X73177800Y-99852400D02*
X77769800Y-99852400D01*
X77769800Y-99852400D02*
X78130400Y-99491800D01*
X73177800Y-99852400D02*
X73177800Y-101194000D01*
X73177800Y-101194000D02*
X73609200Y-101625400D01*
X73609200Y-101625400D02*
X74752200Y-101625400D01*
X78110510Y-84175600D02*
X78110509Y-84027299D01*
X78130400Y-84175600D02*
X78110510Y-84175600D01*
X78110509Y-84027299D02*
X73279000Y-79195790D01*
X73279000Y-72898000D02*
X72136000Y-71755000D01*
X73279000Y-79195790D02*
X73279000Y-72898000D01*
X72136000Y-71755000D02*
X70383400Y-70002400D01*
%TO.N,Net-(C11-Pad1)*%
X66877800Y-105923000D02*
X73177800Y-105923000D01*
X73177800Y-105923000D02*
X73177800Y-107036000D01*
X73177800Y-107036000D02*
X73888600Y-107746800D01*
X73888600Y-107746800D02*
X74904600Y-107746800D01*
X71526400Y-70485000D02*
X71526400Y-69850000D01*
X73177800Y-105923000D02*
X76992400Y-105923000D01*
X73729010Y-79009390D02*
X73729010Y-72687610D01*
X78613000Y-104302400D02*
X78613000Y-83893380D01*
X73729010Y-72687610D02*
X71526400Y-70485000D01*
X76992400Y-105923000D02*
X78613000Y-104302400D01*
X78613000Y-83893380D02*
X73729010Y-79009390D01*
%TO.N,VCC*%
X75590400Y-91897200D02*
X75590400Y-84150200D01*
X75158600Y-83718400D02*
X75412600Y-83972400D01*
X74216500Y-83718400D02*
X75158600Y-83718400D01*
X75590400Y-84150200D02*
X75412600Y-83972400D01*
D19*
%TO.N,Net-(AE1-Pad2)*%
X122105420Y-100665680D02*
X122105420Y-79865680D01*
X122105420Y-79865680D02*
X102305420Y-79865680D01*
X102305420Y-101865680D02*
X102305420Y-79865680D01*
X123305420Y-101865680D02*
X123305420Y-78665680D01*
X123305420Y-78665680D02*
X101105420Y-78665680D01*
X101105420Y-103065680D02*
X101105420Y-78665680D01*
X124505420Y-103065680D02*
X124505420Y-77465680D01*
X124505420Y-77465680D02*
X99905420Y-77465680D01*
X99905420Y-104265680D02*
X99905420Y-77465680D01*
X125705420Y-104265680D02*
X125705420Y-76265680D01*
X125705420Y-76265680D02*
X98705420Y-76265680D01*
X98705420Y-105465680D02*
X98705420Y-76265680D01*
X126905420Y-105465680D02*
X126905420Y-75065680D01*
X126905420Y-75065680D02*
X97505420Y-75065680D01*
X97505420Y-88365680D02*
X97505420Y-75065680D01*
X126905420Y-105465680D02*
X98705420Y-105465680D01*
X125705420Y-104265680D02*
X99905420Y-104265680D01*
X124505420Y-103065680D02*
X101105420Y-103065680D01*
X123305420Y-101865680D02*
X102305420Y-101865680D01*
X122105420Y-100665680D02*
X103505420Y-100665680D01*
X103505420Y-100665680D02*
X103505420Y-91865680D01*
X103505420Y-91865680D02*
X104805420Y-90565680D01*
X96005420Y-89865680D02*
X97505420Y-88365680D01*
D20*
X94505420Y-91165680D02*
X91855420Y-91165680D01*
X94505420Y-89865680D02*
X91755420Y-89865680D01*
X91755420Y-89865680D02*
X88874600Y-89865680D01*
X91855420Y-91165680D02*
X88925400Y-91165680D01*
X94505420Y-89865680D02*
X96005420Y-89865680D01*
D18*
%TO.N,SDA*%
X86048008Y-68179108D02*
X85902800Y-68033900D01*
X82466180Y-88620600D02*
X82007300Y-88161720D01*
X85902800Y-68033900D02*
X85902800Y-67208400D01*
X82007300Y-88161720D02*
X82007300Y-85302780D01*
X83495600Y-88620600D02*
X82466180Y-88620600D01*
X82007300Y-85302780D02*
X86048008Y-81262070D01*
X86048008Y-81262070D02*
X86048008Y-68179108D01*
%TO.N,SCL*%
X84516390Y-65145490D02*
X84516390Y-67306480D01*
X84516390Y-67306480D02*
X85598000Y-68388090D01*
X85598000Y-68388090D02*
X85597999Y-81075671D01*
X85597999Y-81075671D02*
X81557290Y-85116380D01*
X81557290Y-85116380D02*
X81557290Y-89489710D01*
X81958180Y-89890600D02*
X83495600Y-89890600D01*
X81557290Y-89489710D02*
X81958180Y-89890600D01*
%TO.N,BUSY*%
X83750277Y-67176777D02*
X85147990Y-68574490D01*
X83750277Y-66934186D02*
X83750277Y-67176777D01*
X85147990Y-80152670D02*
X85147990Y-80889270D01*
X85147990Y-68574490D02*
X85147990Y-80152670D01*
X85147990Y-80889270D02*
X81107280Y-84929980D01*
X81107280Y-84929980D02*
X81107280Y-90266520D01*
X82001360Y-91160600D02*
X83495600Y-91160600D01*
X81107280Y-90266520D02*
X82001360Y-91160600D01*
%TO.N,RST*%
X77660500Y-98234500D02*
X77025500Y-98869500D01*
X77660500Y-84213700D02*
X77660500Y-98234500D01*
X72453500Y-77533500D02*
X72453500Y-79006700D01*
X72453500Y-79006700D02*
X77660500Y-84213700D01*
%TO.N,Net-(U1-Pad3)*%
X73787000Y-89789000D02*
X73787000Y-88010998D01*
X73787000Y-88010998D02*
X72593200Y-86817198D01*
%TO.N,Net-(U1-Pad2)*%
X72644000Y-87944120D02*
X72618600Y-87918720D01*
X72644000Y-90551000D02*
X72644000Y-87944120D01*
%TO.N,Net-(UR3-Pad1)*%
X71882000Y-91389200D02*
X71882000Y-93726000D01*
X71882000Y-93726000D02*
X72644000Y-94488000D01*
%TO.N,Net-(UR4-Pad1)*%
X71526400Y-94183200D02*
X71526400Y-94488000D01*
X70764400Y-93421200D02*
X71526400Y-94183200D01*
X70764400Y-87078115D02*
X70764400Y-93421200D01*
X72593200Y-85815000D02*
X72027515Y-85815000D01*
X72027515Y-85815000D02*
X70764400Y-87078115D01*
%TO.N,Net-(UR5-Pad1)*%
X69240400Y-83591400D02*
X68744600Y-83591400D01*
X70586600Y-84937600D02*
X69240400Y-83591400D01*
X74015600Y-84937600D02*
X70586600Y-84937600D01*
X74676000Y-85598000D02*
X74015600Y-84937600D01*
X74676000Y-95046800D02*
X74676000Y-85598000D01*
X73406000Y-96316800D02*
X74676000Y-95046800D01*
X68744600Y-94831400D02*
X68744600Y-94906600D01*
X68744600Y-94906600D02*
X70154800Y-96316800D01*
X70154800Y-96316800D02*
X73406000Y-96316800D01*
%TD*%
D21*
%TO.N,GND*%
G36*
X76900500Y-84528502D02*
G01*
X76900501Y-97839087D01*
X76723602Y-97874274D01*
X76535244Y-97952295D01*
X76365726Y-98065563D01*
X76221563Y-98209726D01*
X76108295Y-98379244D01*
X76030274Y-98567602D01*
X75990500Y-98767561D01*
X75990500Y-98971439D01*
X76014560Y-99092400D01*
X74608846Y-99092400D01*
X74558337Y-98997906D01*
X74478985Y-98901215D01*
X74382294Y-98821863D01*
X74271980Y-98762898D01*
X74152282Y-98726588D01*
X74027800Y-98714328D01*
X72327800Y-98714328D01*
X72203318Y-98726588D01*
X72083620Y-98762898D01*
X71973306Y-98821863D01*
X71876615Y-98901215D01*
X71797263Y-98997906D01*
X71746754Y-99092400D01*
X68308846Y-99092400D01*
X68258337Y-98997906D01*
X68178985Y-98901215D01*
X68082294Y-98821863D01*
X67971980Y-98762898D01*
X67852282Y-98726588D01*
X67727800Y-98714328D01*
X66027800Y-98714328D01*
X65903318Y-98726588D01*
X65783620Y-98762898D01*
X65673306Y-98821863D01*
X65576615Y-98901215D01*
X65497263Y-98997906D01*
X65438298Y-99108220D01*
X65401988Y-99227918D01*
X65389728Y-99352400D01*
X65389728Y-100352400D01*
X65401988Y-100476882D01*
X65438298Y-100596580D01*
X65497263Y-100706894D01*
X65576615Y-100803585D01*
X65673306Y-100882937D01*
X65783620Y-100941902D01*
X65903318Y-100978212D01*
X66027800Y-100990472D01*
X67727800Y-100990472D01*
X67852282Y-100978212D01*
X67971980Y-100941902D01*
X68082294Y-100882937D01*
X68178985Y-100803585D01*
X68258337Y-100706894D01*
X68308846Y-100612400D01*
X71746754Y-100612400D01*
X71797263Y-100706894D01*
X71876615Y-100803585D01*
X71973306Y-100882937D01*
X72083620Y-100941902D01*
X72203318Y-100978212D01*
X72327800Y-100990472D01*
X72417801Y-100990472D01*
X72417801Y-101156668D01*
X72414124Y-101194000D01*
X72428798Y-101342985D01*
X72472254Y-101486246D01*
X72542826Y-101618276D01*
X72614001Y-101705002D01*
X72637800Y-101734001D01*
X72666798Y-101757799D01*
X73045396Y-102136397D01*
X73069199Y-102165401D01*
X73184924Y-102260374D01*
X73316953Y-102330946D01*
X73460214Y-102374403D01*
X73571867Y-102385400D01*
X73571875Y-102385400D01*
X73609200Y-102389076D01*
X73646525Y-102385400D01*
X74048489Y-102385400D01*
X74092426Y-102429337D01*
X74261944Y-102542605D01*
X74450302Y-102620626D01*
X74650261Y-102660400D01*
X74854139Y-102660400D01*
X75054098Y-102620626D01*
X75242456Y-102542605D01*
X75411974Y-102429337D01*
X75556137Y-102285174D01*
X75669405Y-102115656D01*
X75747426Y-101927298D01*
X75787200Y-101727339D01*
X75787200Y-101523461D01*
X75747426Y-101323502D01*
X75669405Y-101135144D01*
X75556137Y-100965626D01*
X75411974Y-100821463D01*
X75242456Y-100708195D01*
X75054098Y-100630174D01*
X74964741Y-100612400D01*
X77732478Y-100612400D01*
X77769800Y-100616076D01*
X77807122Y-100612400D01*
X77807133Y-100612400D01*
X77853000Y-100607882D01*
X77853000Y-103987597D01*
X76677599Y-105163000D01*
X74608846Y-105163000D01*
X74558337Y-105068506D01*
X74478985Y-104971815D01*
X74382294Y-104892463D01*
X74271980Y-104833498D01*
X74152282Y-104797188D01*
X74055946Y-104787700D01*
X74152282Y-104778212D01*
X74271980Y-104741902D01*
X74382294Y-104682937D01*
X74478985Y-104603585D01*
X74558337Y-104506894D01*
X74617302Y-104396580D01*
X74653612Y-104276882D01*
X74665872Y-104152400D01*
X74662800Y-103938150D01*
X74504050Y-103779400D01*
X73304800Y-103779400D01*
X73304800Y-103799400D01*
X73050800Y-103799400D01*
X73050800Y-103779400D01*
X71851550Y-103779400D01*
X71692800Y-103938150D01*
X71689728Y-104152400D01*
X71701988Y-104276882D01*
X71738298Y-104396580D01*
X71797263Y-104506894D01*
X71876615Y-104603585D01*
X71973306Y-104682937D01*
X72083620Y-104741902D01*
X72203318Y-104778212D01*
X72299654Y-104787700D01*
X72203318Y-104797188D01*
X72083620Y-104833498D01*
X71973306Y-104892463D01*
X71876615Y-104971815D01*
X71797263Y-105068506D01*
X71746754Y-105163000D01*
X68308846Y-105163000D01*
X68258337Y-105068506D01*
X68178985Y-104971815D01*
X68082294Y-104892463D01*
X67971980Y-104833498D01*
X67852282Y-104797188D01*
X67755946Y-104787700D01*
X67852282Y-104778212D01*
X67971980Y-104741902D01*
X68082294Y-104682937D01*
X68178985Y-104603585D01*
X68258337Y-104506894D01*
X68317302Y-104396580D01*
X68353612Y-104276882D01*
X68365872Y-104152400D01*
X68362800Y-103938150D01*
X68204050Y-103779400D01*
X67004800Y-103779400D01*
X67004800Y-103799400D01*
X66750800Y-103799400D01*
X66750800Y-103779400D01*
X65551550Y-103779400D01*
X65392800Y-103938150D01*
X65389728Y-104152400D01*
X65401988Y-104276882D01*
X65438298Y-104396580D01*
X65497263Y-104506894D01*
X65576615Y-104603585D01*
X65673306Y-104682937D01*
X65783620Y-104741902D01*
X65903318Y-104778212D01*
X65999654Y-104787700D01*
X65903318Y-104797188D01*
X65783620Y-104833498D01*
X65673306Y-104892463D01*
X65576615Y-104971815D01*
X65497263Y-105068506D01*
X65438298Y-105178820D01*
X65401988Y-105298518D01*
X65389728Y-105423000D01*
X65389728Y-106423000D01*
X65401988Y-106547482D01*
X65438298Y-106667180D01*
X65497263Y-106777494D01*
X65576615Y-106874185D01*
X65673306Y-106953537D01*
X65783620Y-107012502D01*
X65903318Y-107048812D01*
X66027800Y-107061072D01*
X67727800Y-107061072D01*
X67852282Y-107048812D01*
X67971980Y-107012502D01*
X68082294Y-106953537D01*
X68178985Y-106874185D01*
X68258337Y-106777494D01*
X68308846Y-106683000D01*
X71746754Y-106683000D01*
X71797263Y-106777494D01*
X71876615Y-106874185D01*
X71973306Y-106953537D01*
X72083620Y-107012502D01*
X72203318Y-107048812D01*
X72327800Y-107061072D01*
X72416593Y-107061072D01*
X72428798Y-107184985D01*
X72472254Y-107328246D01*
X72542826Y-107460276D01*
X72614001Y-107547002D01*
X72637800Y-107576001D01*
X72666798Y-107599799D01*
X73324801Y-108257802D01*
X73348599Y-108286801D01*
X73377597Y-108310599D01*
X73464323Y-108381774D01*
X73596353Y-108452346D01*
X73739614Y-108495803D01*
X73851267Y-108506800D01*
X73851277Y-108506800D01*
X73888599Y-108510476D01*
X73925922Y-108506800D01*
X74200889Y-108506800D01*
X74244826Y-108550737D01*
X74414344Y-108664005D01*
X74602702Y-108742026D01*
X74802661Y-108781800D01*
X75006539Y-108781800D01*
X75206498Y-108742026D01*
X75394856Y-108664005D01*
X75564374Y-108550737D01*
X75708537Y-108406574D01*
X75821805Y-108237056D01*
X75899826Y-108048698D01*
X75939600Y-107848739D01*
X75939600Y-107644861D01*
X75899826Y-107444902D01*
X75821805Y-107256544D01*
X75708537Y-107087026D01*
X75564374Y-106942863D01*
X75394856Y-106829595D01*
X75206498Y-106751574D01*
X75006539Y-106711800D01*
X74802661Y-106711800D01*
X74602702Y-106751574D01*
X74563516Y-106767806D01*
X74608846Y-106683000D01*
X76955078Y-106683000D01*
X76992400Y-106686676D01*
X77029722Y-106683000D01*
X77029733Y-106683000D01*
X77141386Y-106672003D01*
X77284647Y-106628546D01*
X77416676Y-106557974D01*
X77532401Y-106463001D01*
X77556203Y-106433998D01*
X79124009Y-104866194D01*
X79153001Y-104842401D01*
X79176795Y-104813408D01*
X79176799Y-104813404D01*
X79247973Y-104726677D01*
X79247974Y-104726676D01*
X79318546Y-104594647D01*
X79362003Y-104451386D01*
X79373000Y-104339733D01*
X79373000Y-104339724D01*
X79376676Y-104302401D01*
X79373000Y-104265078D01*
X79373000Y-87203239D01*
X79461918Y-87230212D01*
X79586400Y-87242472D01*
X80347280Y-87242472D01*
X80347281Y-90229188D01*
X80343604Y-90266520D01*
X80347281Y-90303853D01*
X80358278Y-90415506D01*
X80362857Y-90430601D01*
X80401734Y-90558766D01*
X80472306Y-90690796D01*
X80543481Y-90777522D01*
X80567280Y-90806521D01*
X80596278Y-90830319D01*
X81437561Y-91671603D01*
X81461359Y-91700601D01*
X81490357Y-91724399D01*
X81577083Y-91795574D01*
X81709113Y-91866146D01*
X81852374Y-91909603D01*
X81964027Y-91920600D01*
X81964036Y-91920600D01*
X82001359Y-91924276D01*
X82038682Y-91920600D01*
X82125646Y-91920600D01*
X82107288Y-91981118D01*
X82095028Y-92105600D01*
X82095028Y-92755600D01*
X82107288Y-92880082D01*
X82143598Y-92999780D01*
X82202563Y-93110094D01*
X82281915Y-93206785D01*
X82378606Y-93286137D01*
X82488920Y-93345102D01*
X82608618Y-93381412D01*
X82733100Y-93393672D01*
X84258100Y-93393672D01*
X84382582Y-93381412D01*
X84502280Y-93345102D01*
X84612594Y-93286137D01*
X84709285Y-93206785D01*
X84722568Y-93190600D01*
X84813918Y-93190600D01*
X84851240Y-93194276D01*
X84888562Y-93190600D01*
X84888573Y-93190600D01*
X85000226Y-93179603D01*
X85143487Y-93136146D01*
X85275516Y-93065574D01*
X85391241Y-92970601D01*
X85415044Y-92941597D01*
X86106000Y-92250642D01*
X86796961Y-92941603D01*
X86820759Y-92970601D01*
X86849757Y-92994399D01*
X86936484Y-93065574D01*
X87068513Y-93136146D01*
X87211774Y-93179603D01*
X87360760Y-93194277D01*
X87398093Y-93190600D01*
X87692632Y-93190600D01*
X87705915Y-93206785D01*
X87802606Y-93286137D01*
X87912920Y-93345102D01*
X88032618Y-93381412D01*
X88157100Y-93393672D01*
X89682100Y-93393672D01*
X89806582Y-93381412D01*
X89926280Y-93345102D01*
X90036594Y-93286137D01*
X90133285Y-93206785D01*
X90212637Y-93110094D01*
X90271602Y-92999780D01*
X90307912Y-92880082D01*
X90320172Y-92755600D01*
X90320172Y-92105600D01*
X90309839Y-92000680D01*
X91313000Y-92000680D01*
X91313000Y-113576500D01*
X65693923Y-113576500D01*
X65197914Y-113527866D01*
X64751844Y-113393189D01*
X64340435Y-113174439D01*
X63979345Y-112879942D01*
X63682335Y-112520918D01*
X63460716Y-112111043D01*
X63322928Y-111665922D01*
X63271000Y-111171863D01*
X63271000Y-110223000D01*
X65389728Y-110223000D01*
X65401988Y-110347482D01*
X65438298Y-110467180D01*
X65497263Y-110577494D01*
X65576615Y-110674185D01*
X65673306Y-110753537D01*
X65783620Y-110812502D01*
X65903318Y-110848812D01*
X66027800Y-110861072D01*
X66592050Y-110858000D01*
X66750800Y-110699250D01*
X66750800Y-109850000D01*
X67004800Y-109850000D01*
X67004800Y-110699250D01*
X67163550Y-110858000D01*
X67727800Y-110861072D01*
X67852282Y-110848812D01*
X67971980Y-110812502D01*
X68082294Y-110753537D01*
X68178985Y-110674185D01*
X68258337Y-110577494D01*
X68317302Y-110467180D01*
X68353612Y-110347482D01*
X68365872Y-110223000D01*
X71689728Y-110223000D01*
X71701988Y-110347482D01*
X71738298Y-110467180D01*
X71797263Y-110577494D01*
X71876615Y-110674185D01*
X71973306Y-110753537D01*
X72083620Y-110812502D01*
X72203318Y-110848812D01*
X72327800Y-110861072D01*
X72892050Y-110858000D01*
X73050800Y-110699250D01*
X73050800Y-109850000D01*
X73304800Y-109850000D01*
X73304800Y-110699250D01*
X73463550Y-110858000D01*
X74027800Y-110861072D01*
X74152282Y-110848812D01*
X74271980Y-110812502D01*
X74382294Y-110753537D01*
X74478985Y-110674185D01*
X74558337Y-110577494D01*
X74617302Y-110467180D01*
X74653612Y-110347482D01*
X74665872Y-110223000D01*
X74662800Y-110008750D01*
X74504050Y-109850000D01*
X73304800Y-109850000D01*
X73050800Y-109850000D01*
X71851550Y-109850000D01*
X71692800Y-110008750D01*
X71689728Y-110223000D01*
X68365872Y-110223000D01*
X68362800Y-110008750D01*
X68204050Y-109850000D01*
X67004800Y-109850000D01*
X66750800Y-109850000D01*
X65551550Y-109850000D01*
X65392800Y-110008750D01*
X65389728Y-110223000D01*
X63271000Y-110223000D01*
X63271000Y-109223000D01*
X65389728Y-109223000D01*
X65392800Y-109437250D01*
X65551550Y-109596000D01*
X66750800Y-109596000D01*
X66750800Y-108746750D01*
X67004800Y-108746750D01*
X67004800Y-109596000D01*
X68204050Y-109596000D01*
X68362800Y-109437250D01*
X68365872Y-109223000D01*
X71689728Y-109223000D01*
X71692800Y-109437250D01*
X71851550Y-109596000D01*
X73050800Y-109596000D01*
X73050800Y-108746750D01*
X73304800Y-108746750D01*
X73304800Y-109596000D01*
X74504050Y-109596000D01*
X74662800Y-109437250D01*
X74665872Y-109223000D01*
X74653612Y-109098518D01*
X74617302Y-108978820D01*
X74558337Y-108868506D01*
X74478985Y-108771815D01*
X74382294Y-108692463D01*
X74271980Y-108633498D01*
X74152282Y-108597188D01*
X74027800Y-108584928D01*
X73463550Y-108588000D01*
X73304800Y-108746750D01*
X73050800Y-108746750D01*
X72892050Y-108588000D01*
X72327800Y-108584928D01*
X72203318Y-108597188D01*
X72083620Y-108633498D01*
X71973306Y-108692463D01*
X71876615Y-108771815D01*
X71797263Y-108868506D01*
X71738298Y-108978820D01*
X71701988Y-109098518D01*
X71689728Y-109223000D01*
X68365872Y-109223000D01*
X68353612Y-109098518D01*
X68317302Y-108978820D01*
X68258337Y-108868506D01*
X68178985Y-108771815D01*
X68082294Y-108692463D01*
X67971980Y-108633498D01*
X67852282Y-108597188D01*
X67727800Y-108584928D01*
X67163550Y-108588000D01*
X67004800Y-108746750D01*
X66750800Y-108746750D01*
X66592050Y-108588000D01*
X66027800Y-108584928D01*
X65903318Y-108597188D01*
X65783620Y-108633498D01*
X65673306Y-108692463D01*
X65576615Y-108771815D01*
X65497263Y-108868506D01*
X65438298Y-108978820D01*
X65401988Y-109098518D01*
X65389728Y-109223000D01*
X63271000Y-109223000D01*
X63271000Y-103152400D01*
X65389728Y-103152400D01*
X65392800Y-103366650D01*
X65551550Y-103525400D01*
X66750800Y-103525400D01*
X66750800Y-102676150D01*
X67004800Y-102676150D01*
X67004800Y-103525400D01*
X68204050Y-103525400D01*
X68362800Y-103366650D01*
X68365872Y-103152400D01*
X71689728Y-103152400D01*
X71692800Y-103366650D01*
X71851550Y-103525400D01*
X73050800Y-103525400D01*
X73050800Y-102676150D01*
X73304800Y-102676150D01*
X73304800Y-103525400D01*
X74504050Y-103525400D01*
X74662800Y-103366650D01*
X74665872Y-103152400D01*
X74653612Y-103027918D01*
X74617302Y-102908220D01*
X74558337Y-102797906D01*
X74478985Y-102701215D01*
X74382294Y-102621863D01*
X74271980Y-102562898D01*
X74152282Y-102526588D01*
X74027800Y-102514328D01*
X73463550Y-102517400D01*
X73304800Y-102676150D01*
X73050800Y-102676150D01*
X72892050Y-102517400D01*
X72327800Y-102514328D01*
X72203318Y-102526588D01*
X72083620Y-102562898D01*
X71973306Y-102621863D01*
X71876615Y-102701215D01*
X71797263Y-102797906D01*
X71738298Y-102908220D01*
X71701988Y-103027918D01*
X71689728Y-103152400D01*
X68365872Y-103152400D01*
X68353612Y-103027918D01*
X68317302Y-102908220D01*
X68258337Y-102797906D01*
X68178985Y-102701215D01*
X68082294Y-102621863D01*
X67971980Y-102562898D01*
X67852282Y-102526588D01*
X67727800Y-102514328D01*
X67163550Y-102517400D01*
X67004800Y-102676150D01*
X66750800Y-102676150D01*
X66592050Y-102517400D01*
X66027800Y-102514328D01*
X65903318Y-102526588D01*
X65783620Y-102562898D01*
X65673306Y-102621863D01*
X65576615Y-102701215D01*
X65497263Y-102797906D01*
X65438298Y-102908220D01*
X65401988Y-103027918D01*
X65389728Y-103152400D01*
X63271000Y-103152400D01*
X63271000Y-95556025D01*
X63338151Y-95637849D01*
X63510977Y-95779684D01*
X63708153Y-95885076D01*
X63922101Y-95949977D01*
X64088848Y-95966400D01*
X65400352Y-95966400D01*
X65567099Y-95949977D01*
X65781047Y-95885076D01*
X65978223Y-95779684D01*
X66151049Y-95637849D01*
X66292884Y-95465023D01*
X66398276Y-95267847D01*
X66463177Y-95053899D01*
X66485091Y-94831400D01*
X66463177Y-94608901D01*
X66457201Y-94589200D01*
X67231999Y-94589200D01*
X67226023Y-94608901D01*
X67204109Y-94831400D01*
X67226023Y-95053899D01*
X67290924Y-95267847D01*
X67396316Y-95465023D01*
X67538151Y-95637849D01*
X67710977Y-95779684D01*
X67908153Y-95885076D01*
X68122101Y-95949977D01*
X68288848Y-95966400D01*
X68729599Y-95966400D01*
X69591001Y-96827803D01*
X69614799Y-96856801D01*
X69643797Y-96880599D01*
X69730523Y-96951774D01*
X69862553Y-97022346D01*
X70005814Y-97065803D01*
X70117467Y-97076800D01*
X70117477Y-97076800D01*
X70154800Y-97080476D01*
X70192123Y-97076800D01*
X73368678Y-97076800D01*
X73406000Y-97080476D01*
X73443322Y-97076800D01*
X73443333Y-97076800D01*
X73554986Y-97065803D01*
X73698247Y-97022346D01*
X73830276Y-96951774D01*
X73946001Y-96856801D01*
X73969804Y-96827797D01*
X75187004Y-95610598D01*
X75216001Y-95586801D01*
X75310974Y-95471076D01*
X75381546Y-95339047D01*
X75425003Y-95195786D01*
X75436000Y-95084133D01*
X75436000Y-95084124D01*
X75439676Y-95046801D01*
X75436000Y-95009478D01*
X75436000Y-92921765D01*
X75488461Y-92932200D01*
X75692339Y-92932200D01*
X75892298Y-92892426D01*
X76080656Y-92814405D01*
X76250174Y-92701137D01*
X76394337Y-92556974D01*
X76507605Y-92387456D01*
X76585626Y-92199098D01*
X76625400Y-91999139D01*
X76625400Y-91795261D01*
X76585626Y-91595302D01*
X76507605Y-91406944D01*
X76394337Y-91237426D01*
X76350400Y-91193489D01*
X76350400Y-84412936D01*
X76407826Y-84274298D01*
X76447390Y-84075392D01*
X76900500Y-84528502D01*
G37*
X76900500Y-84528502D02*
X76900501Y-97839087D01*
X76723602Y-97874274D01*
X76535244Y-97952295D01*
X76365726Y-98065563D01*
X76221563Y-98209726D01*
X76108295Y-98379244D01*
X76030274Y-98567602D01*
X75990500Y-98767561D01*
X75990500Y-98971439D01*
X76014560Y-99092400D01*
X74608846Y-99092400D01*
X74558337Y-98997906D01*
X74478985Y-98901215D01*
X74382294Y-98821863D01*
X74271980Y-98762898D01*
X74152282Y-98726588D01*
X74027800Y-98714328D01*
X72327800Y-98714328D01*
X72203318Y-98726588D01*
X72083620Y-98762898D01*
X71973306Y-98821863D01*
X71876615Y-98901215D01*
X71797263Y-98997906D01*
X71746754Y-99092400D01*
X68308846Y-99092400D01*
X68258337Y-98997906D01*
X68178985Y-98901215D01*
X68082294Y-98821863D01*
X67971980Y-98762898D01*
X67852282Y-98726588D01*
X67727800Y-98714328D01*
X66027800Y-98714328D01*
X65903318Y-98726588D01*
X65783620Y-98762898D01*
X65673306Y-98821863D01*
X65576615Y-98901215D01*
X65497263Y-98997906D01*
X65438298Y-99108220D01*
X65401988Y-99227918D01*
X65389728Y-99352400D01*
X65389728Y-100352400D01*
X65401988Y-100476882D01*
X65438298Y-100596580D01*
X65497263Y-100706894D01*
X65576615Y-100803585D01*
X65673306Y-100882937D01*
X65783620Y-100941902D01*
X65903318Y-100978212D01*
X66027800Y-100990472D01*
X67727800Y-100990472D01*
X67852282Y-100978212D01*
X67971980Y-100941902D01*
X68082294Y-100882937D01*
X68178985Y-100803585D01*
X68258337Y-100706894D01*
X68308846Y-100612400D01*
X71746754Y-100612400D01*
X71797263Y-100706894D01*
X71876615Y-100803585D01*
X71973306Y-100882937D01*
X72083620Y-100941902D01*
X72203318Y-100978212D01*
X72327800Y-100990472D01*
X72417801Y-100990472D01*
X72417801Y-101156668D01*
X72414124Y-101194000D01*
X72428798Y-101342985D01*
X72472254Y-101486246D01*
X72542826Y-101618276D01*
X72614001Y-101705002D01*
X72637800Y-101734001D01*
X72666798Y-101757799D01*
X73045396Y-102136397D01*
X73069199Y-102165401D01*
X73184924Y-102260374D01*
X73316953Y-102330946D01*
X73460214Y-102374403D01*
X73571867Y-102385400D01*
X73571875Y-102385400D01*
X73609200Y-102389076D01*
X73646525Y-102385400D01*
X74048489Y-102385400D01*
X74092426Y-102429337D01*
X74261944Y-102542605D01*
X74450302Y-102620626D01*
X74650261Y-102660400D01*
X74854139Y-102660400D01*
X75054098Y-102620626D01*
X75242456Y-102542605D01*
X75411974Y-102429337D01*
X75556137Y-102285174D01*
X75669405Y-102115656D01*
X75747426Y-101927298D01*
X75787200Y-101727339D01*
X75787200Y-101523461D01*
X75747426Y-101323502D01*
X75669405Y-101135144D01*
X75556137Y-100965626D01*
X75411974Y-100821463D01*
X75242456Y-100708195D01*
X75054098Y-100630174D01*
X74964741Y-100612400D01*
X77732478Y-100612400D01*
X77769800Y-100616076D01*
X77807122Y-100612400D01*
X77807133Y-100612400D01*
X77853000Y-100607882D01*
X77853000Y-103987597D01*
X76677599Y-105163000D01*
X74608846Y-105163000D01*
X74558337Y-105068506D01*
X74478985Y-104971815D01*
X74382294Y-104892463D01*
X74271980Y-104833498D01*
X74152282Y-104797188D01*
X74055946Y-104787700D01*
X74152282Y-104778212D01*
X74271980Y-104741902D01*
X74382294Y-104682937D01*
X74478985Y-104603585D01*
X74558337Y-104506894D01*
X74617302Y-104396580D01*
X74653612Y-104276882D01*
X74665872Y-104152400D01*
X74662800Y-103938150D01*
X74504050Y-103779400D01*
X73304800Y-103779400D01*
X73304800Y-103799400D01*
X73050800Y-103799400D01*
X73050800Y-103779400D01*
X71851550Y-103779400D01*
X71692800Y-103938150D01*
X71689728Y-104152400D01*
X71701988Y-104276882D01*
X71738298Y-104396580D01*
X71797263Y-104506894D01*
X71876615Y-104603585D01*
X71973306Y-104682937D01*
X72083620Y-104741902D01*
X72203318Y-104778212D01*
X72299654Y-104787700D01*
X72203318Y-104797188D01*
X72083620Y-104833498D01*
X71973306Y-104892463D01*
X71876615Y-104971815D01*
X71797263Y-105068506D01*
X71746754Y-105163000D01*
X68308846Y-105163000D01*
X68258337Y-105068506D01*
X68178985Y-104971815D01*
X68082294Y-104892463D01*
X67971980Y-104833498D01*
X67852282Y-104797188D01*
X67755946Y-104787700D01*
X67852282Y-104778212D01*
X67971980Y-104741902D01*
X68082294Y-104682937D01*
X68178985Y-104603585D01*
X68258337Y-104506894D01*
X68317302Y-104396580D01*
X68353612Y-104276882D01*
X68365872Y-104152400D01*
X68362800Y-103938150D01*
X68204050Y-103779400D01*
X67004800Y-103779400D01*
X67004800Y-103799400D01*
X66750800Y-103799400D01*
X66750800Y-103779400D01*
X65551550Y-103779400D01*
X65392800Y-103938150D01*
X65389728Y-104152400D01*
X65401988Y-104276882D01*
X65438298Y-104396580D01*
X65497263Y-104506894D01*
X65576615Y-104603585D01*
X65673306Y-104682937D01*
X65783620Y-104741902D01*
X65903318Y-104778212D01*
X65999654Y-104787700D01*
X65903318Y-104797188D01*
X65783620Y-104833498D01*
X65673306Y-104892463D01*
X65576615Y-104971815D01*
X65497263Y-105068506D01*
X65438298Y-105178820D01*
X65401988Y-105298518D01*
X65389728Y-105423000D01*
X65389728Y-106423000D01*
X65401988Y-106547482D01*
X65438298Y-106667180D01*
X65497263Y-106777494D01*
X65576615Y-106874185D01*
X65673306Y-106953537D01*
X65783620Y-107012502D01*
X65903318Y-107048812D01*
X66027800Y-107061072D01*
X67727800Y-107061072D01*
X67852282Y-107048812D01*
X67971980Y-107012502D01*
X68082294Y-106953537D01*
X68178985Y-106874185D01*
X68258337Y-106777494D01*
X68308846Y-106683000D01*
X71746754Y-106683000D01*
X71797263Y-106777494D01*
X71876615Y-106874185D01*
X71973306Y-106953537D01*
X72083620Y-107012502D01*
X72203318Y-107048812D01*
X72327800Y-107061072D01*
X72416593Y-107061072D01*
X72428798Y-107184985D01*
X72472254Y-107328246D01*
X72542826Y-107460276D01*
X72614001Y-107547002D01*
X72637800Y-107576001D01*
X72666798Y-107599799D01*
X73324801Y-108257802D01*
X73348599Y-108286801D01*
X73377597Y-108310599D01*
X73464323Y-108381774D01*
X73596353Y-108452346D01*
X73739614Y-108495803D01*
X73851267Y-108506800D01*
X73851277Y-108506800D01*
X73888599Y-108510476D01*
X73925922Y-108506800D01*
X74200889Y-108506800D01*
X74244826Y-108550737D01*
X74414344Y-108664005D01*
X74602702Y-108742026D01*
X74802661Y-108781800D01*
X75006539Y-108781800D01*
X75206498Y-108742026D01*
X75394856Y-108664005D01*
X75564374Y-108550737D01*
X75708537Y-108406574D01*
X75821805Y-108237056D01*
X75899826Y-108048698D01*
X75939600Y-107848739D01*
X75939600Y-107644861D01*
X75899826Y-107444902D01*
X75821805Y-107256544D01*
X75708537Y-107087026D01*
X75564374Y-106942863D01*
X75394856Y-106829595D01*
X75206498Y-106751574D01*
X75006539Y-106711800D01*
X74802661Y-106711800D01*
X74602702Y-106751574D01*
X74563516Y-106767806D01*
X74608846Y-106683000D01*
X76955078Y-106683000D01*
X76992400Y-106686676D01*
X77029722Y-106683000D01*
X77029733Y-106683000D01*
X77141386Y-106672003D01*
X77284647Y-106628546D01*
X77416676Y-106557974D01*
X77532401Y-106463001D01*
X77556203Y-106433998D01*
X79124009Y-104866194D01*
X79153001Y-104842401D01*
X79176795Y-104813408D01*
X79176799Y-104813404D01*
X79247973Y-104726677D01*
X79247974Y-104726676D01*
X79318546Y-104594647D01*
X79362003Y-104451386D01*
X79373000Y-104339733D01*
X79373000Y-104339724D01*
X79376676Y-104302401D01*
X79373000Y-104265078D01*
X79373000Y-87203239D01*
X79461918Y-87230212D01*
X79586400Y-87242472D01*
X80347280Y-87242472D01*
X80347281Y-90229188D01*
X80343604Y-90266520D01*
X80347281Y-90303853D01*
X80358278Y-90415506D01*
X80362857Y-90430601D01*
X80401734Y-90558766D01*
X80472306Y-90690796D01*
X80543481Y-90777522D01*
X80567280Y-90806521D01*
X80596278Y-90830319D01*
X81437561Y-91671603D01*
X81461359Y-91700601D01*
X81490357Y-91724399D01*
X81577083Y-91795574D01*
X81709113Y-91866146D01*
X81852374Y-91909603D01*
X81964027Y-91920600D01*
X81964036Y-91920600D01*
X82001359Y-91924276D01*
X82038682Y-91920600D01*
X82125646Y-91920600D01*
X82107288Y-91981118D01*
X82095028Y-92105600D01*
X82095028Y-92755600D01*
X82107288Y-92880082D01*
X82143598Y-92999780D01*
X82202563Y-93110094D01*
X82281915Y-93206785D01*
X82378606Y-93286137D01*
X82488920Y-93345102D01*
X82608618Y-93381412D01*
X82733100Y-93393672D01*
X84258100Y-93393672D01*
X84382582Y-93381412D01*
X84502280Y-93345102D01*
X84612594Y-93286137D01*
X84709285Y-93206785D01*
X84722568Y-93190600D01*
X84813918Y-93190600D01*
X84851240Y-93194276D01*
X84888562Y-93190600D01*
X84888573Y-93190600D01*
X85000226Y-93179603D01*
X85143487Y-93136146D01*
X85275516Y-93065574D01*
X85391241Y-92970601D01*
X85415044Y-92941597D01*
X86106000Y-92250642D01*
X86796961Y-92941603D01*
X86820759Y-92970601D01*
X86849757Y-92994399D01*
X86936484Y-93065574D01*
X87068513Y-93136146D01*
X87211774Y-93179603D01*
X87360760Y-93194277D01*
X87398093Y-93190600D01*
X87692632Y-93190600D01*
X87705915Y-93206785D01*
X87802606Y-93286137D01*
X87912920Y-93345102D01*
X88032618Y-93381412D01*
X88157100Y-93393672D01*
X89682100Y-93393672D01*
X89806582Y-93381412D01*
X89926280Y-93345102D01*
X90036594Y-93286137D01*
X90133285Y-93206785D01*
X90212637Y-93110094D01*
X90271602Y-92999780D01*
X90307912Y-92880082D01*
X90320172Y-92755600D01*
X90320172Y-92105600D01*
X90309839Y-92000680D01*
X91313000Y-92000680D01*
X91313000Y-113576500D01*
X65693923Y-113576500D01*
X65197914Y-113527866D01*
X64751844Y-113393189D01*
X64340435Y-113174439D01*
X63979345Y-112879942D01*
X63682335Y-112520918D01*
X63460716Y-112111043D01*
X63322928Y-111665922D01*
X63271000Y-111171863D01*
X63271000Y-110223000D01*
X65389728Y-110223000D01*
X65401988Y-110347482D01*
X65438298Y-110467180D01*
X65497263Y-110577494D01*
X65576615Y-110674185D01*
X65673306Y-110753537D01*
X65783620Y-110812502D01*
X65903318Y-110848812D01*
X66027800Y-110861072D01*
X66592050Y-110858000D01*
X66750800Y-110699250D01*
X66750800Y-109850000D01*
X67004800Y-109850000D01*
X67004800Y-110699250D01*
X67163550Y-110858000D01*
X67727800Y-110861072D01*
X67852282Y-110848812D01*
X67971980Y-110812502D01*
X68082294Y-110753537D01*
X68178985Y-110674185D01*
X68258337Y-110577494D01*
X68317302Y-110467180D01*
X68353612Y-110347482D01*
X68365872Y-110223000D01*
X71689728Y-110223000D01*
X71701988Y-110347482D01*
X71738298Y-110467180D01*
X71797263Y-110577494D01*
X71876615Y-110674185D01*
X71973306Y-110753537D01*
X72083620Y-110812502D01*
X72203318Y-110848812D01*
X72327800Y-110861072D01*
X72892050Y-110858000D01*
X73050800Y-110699250D01*
X73050800Y-109850000D01*
X73304800Y-109850000D01*
X73304800Y-110699250D01*
X73463550Y-110858000D01*
X74027800Y-110861072D01*
X74152282Y-110848812D01*
X74271980Y-110812502D01*
X74382294Y-110753537D01*
X74478985Y-110674185D01*
X74558337Y-110577494D01*
X74617302Y-110467180D01*
X74653612Y-110347482D01*
X74665872Y-110223000D01*
X74662800Y-110008750D01*
X74504050Y-109850000D01*
X73304800Y-109850000D01*
X73050800Y-109850000D01*
X71851550Y-109850000D01*
X71692800Y-110008750D01*
X71689728Y-110223000D01*
X68365872Y-110223000D01*
X68362800Y-110008750D01*
X68204050Y-109850000D01*
X67004800Y-109850000D01*
X66750800Y-109850000D01*
X65551550Y-109850000D01*
X65392800Y-110008750D01*
X65389728Y-110223000D01*
X63271000Y-110223000D01*
X63271000Y-109223000D01*
X65389728Y-109223000D01*
X65392800Y-109437250D01*
X65551550Y-109596000D01*
X66750800Y-109596000D01*
X66750800Y-108746750D01*
X67004800Y-108746750D01*
X67004800Y-109596000D01*
X68204050Y-109596000D01*
X68362800Y-109437250D01*
X68365872Y-109223000D01*
X71689728Y-109223000D01*
X71692800Y-109437250D01*
X71851550Y-109596000D01*
X73050800Y-109596000D01*
X73050800Y-108746750D01*
X73304800Y-108746750D01*
X73304800Y-109596000D01*
X74504050Y-109596000D01*
X74662800Y-109437250D01*
X74665872Y-109223000D01*
X74653612Y-109098518D01*
X74617302Y-108978820D01*
X74558337Y-108868506D01*
X74478985Y-108771815D01*
X74382294Y-108692463D01*
X74271980Y-108633498D01*
X74152282Y-108597188D01*
X74027800Y-108584928D01*
X73463550Y-108588000D01*
X73304800Y-108746750D01*
X73050800Y-108746750D01*
X72892050Y-108588000D01*
X72327800Y-108584928D01*
X72203318Y-108597188D01*
X72083620Y-108633498D01*
X71973306Y-108692463D01*
X71876615Y-108771815D01*
X71797263Y-108868506D01*
X71738298Y-108978820D01*
X71701988Y-109098518D01*
X71689728Y-109223000D01*
X68365872Y-109223000D01*
X68353612Y-109098518D01*
X68317302Y-108978820D01*
X68258337Y-108868506D01*
X68178985Y-108771815D01*
X68082294Y-108692463D01*
X67971980Y-108633498D01*
X67852282Y-108597188D01*
X67727800Y-108584928D01*
X67163550Y-108588000D01*
X67004800Y-108746750D01*
X66750800Y-108746750D01*
X66592050Y-108588000D01*
X66027800Y-108584928D01*
X65903318Y-108597188D01*
X65783620Y-108633498D01*
X65673306Y-108692463D01*
X65576615Y-108771815D01*
X65497263Y-108868506D01*
X65438298Y-108978820D01*
X65401988Y-109098518D01*
X65389728Y-109223000D01*
X63271000Y-109223000D01*
X63271000Y-103152400D01*
X65389728Y-103152400D01*
X65392800Y-103366650D01*
X65551550Y-103525400D01*
X66750800Y-103525400D01*
X66750800Y-102676150D01*
X67004800Y-102676150D01*
X67004800Y-103525400D01*
X68204050Y-103525400D01*
X68362800Y-103366650D01*
X68365872Y-103152400D01*
X71689728Y-103152400D01*
X71692800Y-103366650D01*
X71851550Y-103525400D01*
X73050800Y-103525400D01*
X73050800Y-102676150D01*
X73304800Y-102676150D01*
X73304800Y-103525400D01*
X74504050Y-103525400D01*
X74662800Y-103366650D01*
X74665872Y-103152400D01*
X74653612Y-103027918D01*
X74617302Y-102908220D01*
X74558337Y-102797906D01*
X74478985Y-102701215D01*
X74382294Y-102621863D01*
X74271980Y-102562898D01*
X74152282Y-102526588D01*
X74027800Y-102514328D01*
X73463550Y-102517400D01*
X73304800Y-102676150D01*
X73050800Y-102676150D01*
X72892050Y-102517400D01*
X72327800Y-102514328D01*
X72203318Y-102526588D01*
X72083620Y-102562898D01*
X71973306Y-102621863D01*
X71876615Y-102701215D01*
X71797263Y-102797906D01*
X71738298Y-102908220D01*
X71701988Y-103027918D01*
X71689728Y-103152400D01*
X68365872Y-103152400D01*
X68353612Y-103027918D01*
X68317302Y-102908220D01*
X68258337Y-102797906D01*
X68178985Y-102701215D01*
X68082294Y-102621863D01*
X67971980Y-102562898D01*
X67852282Y-102526588D01*
X67727800Y-102514328D01*
X67163550Y-102517400D01*
X67004800Y-102676150D01*
X66750800Y-102676150D01*
X66592050Y-102517400D01*
X66027800Y-102514328D01*
X65903318Y-102526588D01*
X65783620Y-102562898D01*
X65673306Y-102621863D01*
X65576615Y-102701215D01*
X65497263Y-102797906D01*
X65438298Y-102908220D01*
X65401988Y-103027918D01*
X65389728Y-103152400D01*
X63271000Y-103152400D01*
X63271000Y-95556025D01*
X63338151Y-95637849D01*
X63510977Y-95779684D01*
X63708153Y-95885076D01*
X63922101Y-95949977D01*
X64088848Y-95966400D01*
X65400352Y-95966400D01*
X65567099Y-95949977D01*
X65781047Y-95885076D01*
X65978223Y-95779684D01*
X66151049Y-95637849D01*
X66292884Y-95465023D01*
X66398276Y-95267847D01*
X66463177Y-95053899D01*
X66485091Y-94831400D01*
X66463177Y-94608901D01*
X66457201Y-94589200D01*
X67231999Y-94589200D01*
X67226023Y-94608901D01*
X67204109Y-94831400D01*
X67226023Y-95053899D01*
X67290924Y-95267847D01*
X67396316Y-95465023D01*
X67538151Y-95637849D01*
X67710977Y-95779684D01*
X67908153Y-95885076D01*
X68122101Y-95949977D01*
X68288848Y-95966400D01*
X68729599Y-95966400D01*
X69591001Y-96827803D01*
X69614799Y-96856801D01*
X69643797Y-96880599D01*
X69730523Y-96951774D01*
X69862553Y-97022346D01*
X70005814Y-97065803D01*
X70117467Y-97076800D01*
X70117477Y-97076800D01*
X70154800Y-97080476D01*
X70192123Y-97076800D01*
X73368678Y-97076800D01*
X73406000Y-97080476D01*
X73443322Y-97076800D01*
X73443333Y-97076800D01*
X73554986Y-97065803D01*
X73698247Y-97022346D01*
X73830276Y-96951774D01*
X73946001Y-96856801D01*
X73969804Y-96827797D01*
X75187004Y-95610598D01*
X75216001Y-95586801D01*
X75310974Y-95471076D01*
X75381546Y-95339047D01*
X75425003Y-95195786D01*
X75436000Y-95084133D01*
X75436000Y-95084124D01*
X75439676Y-95046801D01*
X75436000Y-95009478D01*
X75436000Y-92921765D01*
X75488461Y-92932200D01*
X75692339Y-92932200D01*
X75892298Y-92892426D01*
X76080656Y-92814405D01*
X76250174Y-92701137D01*
X76394337Y-92556974D01*
X76507605Y-92387456D01*
X76585626Y-92199098D01*
X76625400Y-91999139D01*
X76625400Y-91795261D01*
X76585626Y-91595302D01*
X76507605Y-91406944D01*
X76394337Y-91237426D01*
X76350400Y-91193489D01*
X76350400Y-84412936D01*
X76407826Y-84274298D01*
X76447390Y-84075392D01*
X76900500Y-84528502D01*
G36*
X70022800Y-85448602D02*
G01*
X70046599Y-85477601D01*
X70162324Y-85572574D01*
X70294353Y-85643146D01*
X70437614Y-85686603D01*
X70549267Y-85697600D01*
X70549276Y-85697600D01*
X70586599Y-85701276D01*
X70623922Y-85697600D01*
X71070113Y-85697600D01*
X70253403Y-86514311D01*
X70224399Y-86538114D01*
X70194128Y-86575000D01*
X70129426Y-86653839D01*
X70084063Y-86738707D01*
X70058854Y-86785869D01*
X70015397Y-86929130D01*
X70004400Y-87040783D01*
X70004400Y-87040793D01*
X70000724Y-87078115D01*
X70004400Y-87115438D01*
X70004401Y-93383868D01*
X70000724Y-93421200D01*
X70004401Y-93458533D01*
X70015398Y-93570186D01*
X70022407Y-93593291D01*
X70058854Y-93713446D01*
X70129426Y-93845476D01*
X70195131Y-93925537D01*
X70224400Y-93961201D01*
X70253398Y-93984999D01*
X70518453Y-94250055D01*
X70491400Y-94386061D01*
X70491400Y-94589939D01*
X70531174Y-94789898D01*
X70609195Y-94978256D01*
X70722463Y-95147774D01*
X70866626Y-95291937D01*
X71036144Y-95405205D01*
X71224502Y-95483226D01*
X71424461Y-95523000D01*
X71628339Y-95523000D01*
X71828298Y-95483226D01*
X72016656Y-95405205D01*
X72085200Y-95359405D01*
X72153744Y-95405205D01*
X72342102Y-95483226D01*
X72542061Y-95523000D01*
X72745939Y-95523000D01*
X72945898Y-95483226D01*
X73134256Y-95405205D01*
X73303774Y-95291937D01*
X73447937Y-95147774D01*
X73561205Y-94978256D01*
X73639226Y-94789898D01*
X73679000Y-94589939D01*
X73679000Y-94386061D01*
X73639226Y-94186102D01*
X73561205Y-93997744D01*
X73447937Y-93828226D01*
X73303774Y-93684063D01*
X73134256Y-93570795D01*
X72945898Y-93492774D01*
X72745939Y-93453000D01*
X72683801Y-93453000D01*
X72642000Y-93411199D01*
X72642000Y-92092911D01*
X72685937Y-92048974D01*
X72799205Y-91879456D01*
X72877226Y-91691098D01*
X72904401Y-91554480D01*
X72945898Y-91546226D01*
X73134256Y-91468205D01*
X73303774Y-91354937D01*
X73447937Y-91210774D01*
X73561205Y-91041256D01*
X73639226Y-90852898D01*
X73646500Y-90816330D01*
X73685061Y-90824000D01*
X73888939Y-90824000D01*
X73916000Y-90818617D01*
X73916000Y-94731998D01*
X73091199Y-95556800D01*
X70469602Y-95556800D01*
X70192136Y-95279334D01*
X70198276Y-95267847D01*
X70263177Y-95053899D01*
X70285091Y-94831400D01*
X70263177Y-94608901D01*
X70198276Y-94394953D01*
X70092884Y-94197777D01*
X69951049Y-94024951D01*
X69939901Y-94015802D01*
X69945528Y-93997165D01*
X69956952Y-93939470D01*
X69967050Y-93906183D01*
X69970328Y-93872897D01*
X69970549Y-93870797D01*
X69973451Y-93841196D01*
X69973451Y-93841192D01*
X69976600Y-93809219D01*
X69976600Y-85402402D01*
X70022800Y-85448602D01*
G37*
X70022800Y-85448602D02*
X70046599Y-85477601D01*
X70162324Y-85572574D01*
X70294353Y-85643146D01*
X70437614Y-85686603D01*
X70549267Y-85697600D01*
X70549276Y-85697600D01*
X70586599Y-85701276D01*
X70623922Y-85697600D01*
X71070113Y-85697600D01*
X70253403Y-86514311D01*
X70224399Y-86538114D01*
X70194128Y-86575000D01*
X70129426Y-86653839D01*
X70084063Y-86738707D01*
X70058854Y-86785869D01*
X70015397Y-86929130D01*
X70004400Y-87040783D01*
X70004400Y-87040793D01*
X70000724Y-87078115D01*
X70004400Y-87115438D01*
X70004401Y-93383868D01*
X70000724Y-93421200D01*
X70004401Y-93458533D01*
X70015398Y-93570186D01*
X70022407Y-93593291D01*
X70058854Y-93713446D01*
X70129426Y-93845476D01*
X70195131Y-93925537D01*
X70224400Y-93961201D01*
X70253398Y-93984999D01*
X70518453Y-94250055D01*
X70491400Y-94386061D01*
X70491400Y-94589939D01*
X70531174Y-94789898D01*
X70609195Y-94978256D01*
X70722463Y-95147774D01*
X70866626Y-95291937D01*
X71036144Y-95405205D01*
X71224502Y-95483226D01*
X71424461Y-95523000D01*
X71628339Y-95523000D01*
X71828298Y-95483226D01*
X72016656Y-95405205D01*
X72085200Y-95359405D01*
X72153744Y-95405205D01*
X72342102Y-95483226D01*
X72542061Y-95523000D01*
X72745939Y-95523000D01*
X72945898Y-95483226D01*
X73134256Y-95405205D01*
X73303774Y-95291937D01*
X73447937Y-95147774D01*
X73561205Y-94978256D01*
X73639226Y-94789898D01*
X73679000Y-94589939D01*
X73679000Y-94386061D01*
X73639226Y-94186102D01*
X73561205Y-93997744D01*
X73447937Y-93828226D01*
X73303774Y-93684063D01*
X73134256Y-93570795D01*
X72945898Y-93492774D01*
X72745939Y-93453000D01*
X72683801Y-93453000D01*
X72642000Y-93411199D01*
X72642000Y-92092911D01*
X72685937Y-92048974D01*
X72799205Y-91879456D01*
X72877226Y-91691098D01*
X72904401Y-91554480D01*
X72945898Y-91546226D01*
X73134256Y-91468205D01*
X73303774Y-91354937D01*
X73447937Y-91210774D01*
X73561205Y-91041256D01*
X73639226Y-90852898D01*
X73646500Y-90816330D01*
X73685061Y-90824000D01*
X73888939Y-90824000D01*
X73916000Y-90818617D01*
X73916000Y-94731998D01*
X73091199Y-95556800D01*
X70469602Y-95556800D01*
X70192136Y-95279334D01*
X70198276Y-95267847D01*
X70263177Y-95053899D01*
X70285091Y-94831400D01*
X70263177Y-94608901D01*
X70198276Y-94394953D01*
X70092884Y-94197777D01*
X69951049Y-94024951D01*
X69939901Y-94015802D01*
X69945528Y-93997165D01*
X69956952Y-93939470D01*
X69967050Y-93906183D01*
X69970328Y-93872897D01*
X69970549Y-93870797D01*
X69973451Y-93841196D01*
X69973451Y-93841192D01*
X69976600Y-93809219D01*
X69976600Y-85402402D01*
X70022800Y-85448602D01*
G36*
X91313000Y-64907378D02*
G01*
X91313000Y-89030680D01*
X90311793Y-89030680D01*
X90320172Y-88945600D01*
X90317100Y-88906350D01*
X90158350Y-88747600D01*
X89046600Y-88747600D01*
X89046600Y-88767600D01*
X88792600Y-88767600D01*
X88792600Y-88747600D01*
X88772600Y-88747600D01*
X88772600Y-88493600D01*
X88792600Y-88493600D01*
X88792600Y-88473600D01*
X89046600Y-88473600D01*
X89046600Y-88493600D01*
X90158350Y-88493600D01*
X90317100Y-88334850D01*
X90320172Y-88295600D01*
X90307912Y-88171118D01*
X90271602Y-88051420D01*
X90212637Y-87941106D01*
X90133285Y-87844415D01*
X90036594Y-87765063D01*
X89926280Y-87706098D01*
X89806582Y-87669788D01*
X89682100Y-87657528D01*
X89205350Y-87660600D01*
X89046602Y-87819348D01*
X89046602Y-87669200D01*
X89162083Y-87553719D01*
X89191081Y-87529921D01*
X89286054Y-87414196D01*
X89293430Y-87400397D01*
X89383355Y-87352331D01*
X89513195Y-87245775D01*
X89619751Y-87115935D01*
X89698930Y-86967802D01*
X89747688Y-86807068D01*
X89764152Y-86639910D01*
X89764152Y-86202410D01*
X89747688Y-86035252D01*
X89698930Y-85874518D01*
X89619751Y-85726385D01*
X89601980Y-85704730D01*
X89656617Y-85638154D01*
X89715582Y-85527840D01*
X89751892Y-85408142D01*
X89764152Y-85283660D01*
X89761080Y-85131910D01*
X89602330Y-84973160D01*
X88778080Y-84973160D01*
X88778080Y-84993160D01*
X88524080Y-84993160D01*
X88524080Y-84973160D01*
X87699830Y-84973160D01*
X87674530Y-84998460D01*
X87203280Y-84998460D01*
X87203280Y-85018460D01*
X86949280Y-85018460D01*
X86949280Y-84998460D01*
X85628480Y-84998460D01*
X85628480Y-85018460D01*
X85374480Y-85018460D01*
X85374480Y-84998460D01*
X84550230Y-84998460D01*
X84391480Y-85157210D01*
X84390448Y-85208173D01*
X84375902Y-85160220D01*
X84316937Y-85049906D01*
X84237585Y-84953215D01*
X84140894Y-84873863D01*
X84030580Y-84814898D01*
X83910882Y-84778588D01*
X83786400Y-84766328D01*
X83618553Y-84766328D01*
X83950920Y-84433960D01*
X84388408Y-84433960D01*
X84391480Y-84585710D01*
X84550230Y-84744460D01*
X85374480Y-84744460D01*
X85374480Y-83957710D01*
X85628480Y-83957710D01*
X85628480Y-84744460D01*
X86949280Y-84744460D01*
X86949280Y-83957710D01*
X87203280Y-83957710D01*
X87203280Y-84744460D01*
X88027530Y-84744460D01*
X88052830Y-84719160D01*
X88524080Y-84719160D01*
X88524080Y-83932410D01*
X88778080Y-83932410D01*
X88778080Y-84719160D01*
X89602330Y-84719160D01*
X89761080Y-84560410D01*
X89764152Y-84408660D01*
X89751892Y-84284178D01*
X89715582Y-84164480D01*
X89656617Y-84054166D01*
X89577265Y-83957475D01*
X89480574Y-83878123D01*
X89370260Y-83819158D01*
X89250562Y-83782848D01*
X89126080Y-83770588D01*
X88936830Y-83773660D01*
X88778080Y-83932410D01*
X88524080Y-83932410D01*
X88365330Y-83773660D01*
X88176080Y-83770588D01*
X88051598Y-83782848D01*
X87931900Y-83819158D01*
X87840014Y-83868273D01*
X87795460Y-83844458D01*
X87675762Y-83808148D01*
X87551280Y-83795888D01*
X87362030Y-83798960D01*
X87203280Y-83957710D01*
X86949280Y-83957710D01*
X86790530Y-83798960D01*
X86601280Y-83795888D01*
X86476798Y-83808148D01*
X86357100Y-83844458D01*
X86288880Y-83880923D01*
X86220660Y-83844458D01*
X86100962Y-83808148D01*
X85976480Y-83795888D01*
X85787230Y-83798960D01*
X85628480Y-83957710D01*
X85374480Y-83957710D01*
X85215730Y-83798960D01*
X85026480Y-83795888D01*
X84901998Y-83808148D01*
X84782300Y-83844458D01*
X84671986Y-83903423D01*
X84575295Y-83982775D01*
X84495943Y-84079466D01*
X84436978Y-84189780D01*
X84400668Y-84309478D01*
X84388408Y-84433960D01*
X83950920Y-84433960D01*
X86559012Y-81825868D01*
X86588009Y-81802071D01*
X86682982Y-81686346D01*
X86753554Y-81554317D01*
X86797011Y-81411056D01*
X86808008Y-81299403D01*
X86808008Y-81299394D01*
X86811684Y-81262071D01*
X86808008Y-81224748D01*
X86808008Y-68216430D01*
X86811684Y-68179107D01*
X86808008Y-68141785D01*
X86808008Y-68141775D01*
X86797011Y-68030122D01*
X86753554Y-67886861D01*
X86727198Y-67837552D01*
X86820005Y-67698656D01*
X86898026Y-67510298D01*
X86937800Y-67310339D01*
X86937800Y-67106461D01*
X86898026Y-66906502D01*
X86820005Y-66718144D01*
X86706737Y-66548626D01*
X86562574Y-66404463D01*
X86393056Y-66291195D01*
X86204698Y-66213174D01*
X86004739Y-66173400D01*
X85800861Y-66173400D01*
X85600902Y-66213174D01*
X85412544Y-66291195D01*
X85276390Y-66382170D01*
X85276390Y-65849201D01*
X85320327Y-65805264D01*
X85433595Y-65635746D01*
X85511616Y-65447388D01*
X85551390Y-65247429D01*
X85551390Y-65043551D01*
X85524271Y-64907215D01*
X91313000Y-64907378D01*
G37*
X91313000Y-64907378D02*
X91313000Y-89030680D01*
X90311793Y-89030680D01*
X90320172Y-88945600D01*
X90317100Y-88906350D01*
X90158350Y-88747600D01*
X89046600Y-88747600D01*
X89046600Y-88767600D01*
X88792600Y-88767600D01*
X88792600Y-88747600D01*
X88772600Y-88747600D01*
X88772600Y-88493600D01*
X88792600Y-88493600D01*
X88792600Y-88473600D01*
X89046600Y-88473600D01*
X89046600Y-88493600D01*
X90158350Y-88493600D01*
X90317100Y-88334850D01*
X90320172Y-88295600D01*
X90307912Y-88171118D01*
X90271602Y-88051420D01*
X90212637Y-87941106D01*
X90133285Y-87844415D01*
X90036594Y-87765063D01*
X89926280Y-87706098D01*
X89806582Y-87669788D01*
X89682100Y-87657528D01*
X89205350Y-87660600D01*
X89046602Y-87819348D01*
X89046602Y-87669200D01*
X89162083Y-87553719D01*
X89191081Y-87529921D01*
X89286054Y-87414196D01*
X89293430Y-87400397D01*
X89383355Y-87352331D01*
X89513195Y-87245775D01*
X89619751Y-87115935D01*
X89698930Y-86967802D01*
X89747688Y-86807068D01*
X89764152Y-86639910D01*
X89764152Y-86202410D01*
X89747688Y-86035252D01*
X89698930Y-85874518D01*
X89619751Y-85726385D01*
X89601980Y-85704730D01*
X89656617Y-85638154D01*
X89715582Y-85527840D01*
X89751892Y-85408142D01*
X89764152Y-85283660D01*
X89761080Y-85131910D01*
X89602330Y-84973160D01*
X88778080Y-84973160D01*
X88778080Y-84993160D01*
X88524080Y-84993160D01*
X88524080Y-84973160D01*
X87699830Y-84973160D01*
X87674530Y-84998460D01*
X87203280Y-84998460D01*
X87203280Y-85018460D01*
X86949280Y-85018460D01*
X86949280Y-84998460D01*
X85628480Y-84998460D01*
X85628480Y-85018460D01*
X85374480Y-85018460D01*
X85374480Y-84998460D01*
X84550230Y-84998460D01*
X84391480Y-85157210D01*
X84390448Y-85208173D01*
X84375902Y-85160220D01*
X84316937Y-85049906D01*
X84237585Y-84953215D01*
X84140894Y-84873863D01*
X84030580Y-84814898D01*
X83910882Y-84778588D01*
X83786400Y-84766328D01*
X83618553Y-84766328D01*
X83950920Y-84433960D01*
X84388408Y-84433960D01*
X84391480Y-84585710D01*
X84550230Y-84744460D01*
X85374480Y-84744460D01*
X85374480Y-83957710D01*
X85628480Y-83957710D01*
X85628480Y-84744460D01*
X86949280Y-84744460D01*
X86949280Y-83957710D01*
X87203280Y-83957710D01*
X87203280Y-84744460D01*
X88027530Y-84744460D01*
X88052830Y-84719160D01*
X88524080Y-84719160D01*
X88524080Y-83932410D01*
X88778080Y-83932410D01*
X88778080Y-84719160D01*
X89602330Y-84719160D01*
X89761080Y-84560410D01*
X89764152Y-84408660D01*
X89751892Y-84284178D01*
X89715582Y-84164480D01*
X89656617Y-84054166D01*
X89577265Y-83957475D01*
X89480574Y-83878123D01*
X89370260Y-83819158D01*
X89250562Y-83782848D01*
X89126080Y-83770588D01*
X88936830Y-83773660D01*
X88778080Y-83932410D01*
X88524080Y-83932410D01*
X88365330Y-83773660D01*
X88176080Y-83770588D01*
X88051598Y-83782848D01*
X87931900Y-83819158D01*
X87840014Y-83868273D01*
X87795460Y-83844458D01*
X87675762Y-83808148D01*
X87551280Y-83795888D01*
X87362030Y-83798960D01*
X87203280Y-83957710D01*
X86949280Y-83957710D01*
X86790530Y-83798960D01*
X86601280Y-83795888D01*
X86476798Y-83808148D01*
X86357100Y-83844458D01*
X86288880Y-83880923D01*
X86220660Y-83844458D01*
X86100962Y-83808148D01*
X85976480Y-83795888D01*
X85787230Y-83798960D01*
X85628480Y-83957710D01*
X85374480Y-83957710D01*
X85215730Y-83798960D01*
X85026480Y-83795888D01*
X84901998Y-83808148D01*
X84782300Y-83844458D01*
X84671986Y-83903423D01*
X84575295Y-83982775D01*
X84495943Y-84079466D01*
X84436978Y-84189780D01*
X84400668Y-84309478D01*
X84388408Y-84433960D01*
X83950920Y-84433960D01*
X86559012Y-81825868D01*
X86588009Y-81802071D01*
X86682982Y-81686346D01*
X86753554Y-81554317D01*
X86797011Y-81411056D01*
X86808008Y-81299403D01*
X86808008Y-81299394D01*
X86811684Y-81262071D01*
X86808008Y-81224748D01*
X86808008Y-68216430D01*
X86811684Y-68179107D01*
X86808008Y-68141785D01*
X86808008Y-68141775D01*
X86797011Y-68030122D01*
X86753554Y-67886861D01*
X86727198Y-67837552D01*
X86820005Y-67698656D01*
X86898026Y-67510298D01*
X86937800Y-67310339D01*
X86937800Y-67106461D01*
X86898026Y-66906502D01*
X86820005Y-66718144D01*
X86706737Y-66548626D01*
X86562574Y-66404463D01*
X86393056Y-66291195D01*
X86204698Y-66213174D01*
X86004739Y-66173400D01*
X85800861Y-66173400D01*
X85600902Y-66213174D01*
X85412544Y-66291195D01*
X85276390Y-66382170D01*
X85276390Y-65849201D01*
X85320327Y-65805264D01*
X85433595Y-65635746D01*
X85511616Y-65447388D01*
X85551390Y-65247429D01*
X85551390Y-65043551D01*
X85524271Y-64907215D01*
X91313000Y-64907378D01*
G36*
X83508520Y-64907158D02*
G01*
X83481390Y-65043551D01*
X83481390Y-65247429D01*
X83521164Y-65447388D01*
X83599185Y-65635746D01*
X83712453Y-65805264D01*
X83756390Y-65849201D01*
X83756390Y-65899186D01*
X83648338Y-65899186D01*
X83448379Y-65938960D01*
X83260021Y-66016981D01*
X83090503Y-66130249D01*
X82946340Y-66274412D01*
X82833072Y-66443930D01*
X82755051Y-66632288D01*
X82715277Y-66832247D01*
X82715277Y-67036125D01*
X82755051Y-67236084D01*
X82833072Y-67424442D01*
X82946340Y-67593960D01*
X83090503Y-67738123D01*
X83260021Y-67851391D01*
X83413779Y-67915080D01*
X84387990Y-68889292D01*
X84387991Y-80115328D01*
X84387990Y-80115338D01*
X84387990Y-80574468D01*
X80796400Y-84166059D01*
X80796400Y-83016201D01*
X82362503Y-81450099D01*
X82391501Y-81426301D01*
X82439415Y-81367918D01*
X82486474Y-81310577D01*
X82557046Y-81178547D01*
X82588252Y-81075672D01*
X82600503Y-81035286D01*
X82611500Y-80923633D01*
X82611500Y-80923624D01*
X82615176Y-80886301D01*
X82611500Y-80848978D01*
X82611500Y-78364211D01*
X82655437Y-78320274D01*
X82768705Y-78150756D01*
X82846726Y-77962398D01*
X82886500Y-77762439D01*
X82886500Y-77558561D01*
X82846726Y-77358602D01*
X82768705Y-77170244D01*
X82675000Y-77030004D01*
X82675000Y-73538211D01*
X82718937Y-73494274D01*
X82832205Y-73324756D01*
X82910226Y-73136398D01*
X82950000Y-72936439D01*
X82950000Y-72732561D01*
X82910226Y-72532602D01*
X82832205Y-72344244D01*
X82718937Y-72174726D01*
X82675000Y-72130789D01*
X82675000Y-70204822D01*
X82678676Y-70167499D01*
X82675000Y-70130176D01*
X82675000Y-70130167D01*
X82664003Y-70018514D01*
X82620546Y-69875253D01*
X82549974Y-69743224D01*
X82455001Y-69627499D01*
X82426004Y-69603702D01*
X80637304Y-67815003D01*
X80613501Y-67785999D01*
X80497776Y-67691026D01*
X80365747Y-67620454D01*
X80222486Y-67576997D01*
X80110833Y-67566000D01*
X80110822Y-67566000D01*
X80073500Y-67562324D01*
X80036178Y-67566000D01*
X73220711Y-67566000D01*
X73176774Y-67522063D01*
X73007256Y-67408795D01*
X72818898Y-67330774D01*
X72618939Y-67291000D01*
X72415061Y-67291000D01*
X72215102Y-67330774D01*
X72026744Y-67408795D01*
X71857226Y-67522063D01*
X71813289Y-67566000D01*
X69887322Y-67566000D01*
X69849999Y-67562324D01*
X69812676Y-67566000D01*
X69812667Y-67566000D01*
X69701014Y-67576997D01*
X69557753Y-67620454D01*
X69425724Y-67691026D01*
X69425722Y-67691027D01*
X69425723Y-67691027D01*
X69338996Y-67762201D01*
X69338992Y-67762205D01*
X69309999Y-67785999D01*
X69286205Y-67814992D01*
X65782998Y-71318201D01*
X65754000Y-71341999D01*
X65730202Y-71370997D01*
X65730201Y-71370998D01*
X65659026Y-71457724D01*
X65588454Y-71589754D01*
X65544998Y-71733015D01*
X65530324Y-71882000D01*
X65534001Y-71919332D01*
X65534000Y-75845177D01*
X65530324Y-75882500D01*
X65534000Y-75919822D01*
X65534000Y-75919832D01*
X65544997Y-76031485D01*
X65588454Y-76174746D01*
X65659026Y-76306776D01*
X65698871Y-76355326D01*
X65753999Y-76422501D01*
X65783003Y-76446304D01*
X67375501Y-78038803D01*
X67375500Y-79496789D01*
X67331563Y-79540726D01*
X67218295Y-79710244D01*
X67140274Y-79898602D01*
X67100500Y-80098561D01*
X67100500Y-80302439D01*
X67140274Y-80502398D01*
X67218295Y-80690756D01*
X67331563Y-80860274D01*
X67475726Y-81004437D01*
X67645244Y-81117705D01*
X67833602Y-81195726D01*
X68033561Y-81235500D01*
X68237439Y-81235500D01*
X68437398Y-81195726D01*
X68625756Y-81117705D01*
X68649883Y-81101584D01*
X71215928Y-83667630D01*
X71215928Y-84174650D01*
X71216219Y-84177600D01*
X70901402Y-84177600D01*
X70281801Y-83558000D01*
X70263177Y-83368901D01*
X70198276Y-83154953D01*
X70092884Y-82957777D01*
X69951049Y-82784951D01*
X69778223Y-82643116D01*
X69581047Y-82537724D01*
X69367099Y-82472823D01*
X69200352Y-82456400D01*
X68288848Y-82456400D01*
X68122101Y-82472823D01*
X67908153Y-82537724D01*
X67710977Y-82643116D01*
X67538151Y-82784951D01*
X67396316Y-82957777D01*
X67290924Y-83154953D01*
X67226023Y-83368901D01*
X67204109Y-83591400D01*
X67226023Y-83813899D01*
X67235700Y-83845800D01*
X66453500Y-83845800D01*
X66463177Y-83813899D01*
X66485091Y-83591400D01*
X66463177Y-83368901D01*
X66398276Y-83154953D01*
X66292884Y-82957777D01*
X66151049Y-82784951D01*
X65978223Y-82643116D01*
X65781047Y-82537724D01*
X65567099Y-82472823D01*
X65400352Y-82456400D01*
X64088848Y-82456400D01*
X63922101Y-82472823D01*
X63708153Y-82537724D01*
X63510977Y-82643116D01*
X63338151Y-82784951D01*
X63271000Y-82866775D01*
X63271000Y-67329579D01*
X63319634Y-66833571D01*
X63454311Y-66387500D01*
X63673062Y-65976089D01*
X63967560Y-65614999D01*
X64326582Y-65317991D01*
X64736458Y-65096372D01*
X65181578Y-64958584D01*
X65675635Y-64906656D01*
X83508520Y-64907158D01*
G37*
X83508520Y-64907158D02*
X83481390Y-65043551D01*
X83481390Y-65247429D01*
X83521164Y-65447388D01*
X83599185Y-65635746D01*
X83712453Y-65805264D01*
X83756390Y-65849201D01*
X83756390Y-65899186D01*
X83648338Y-65899186D01*
X83448379Y-65938960D01*
X83260021Y-66016981D01*
X83090503Y-66130249D01*
X82946340Y-66274412D01*
X82833072Y-66443930D01*
X82755051Y-66632288D01*
X82715277Y-66832247D01*
X82715277Y-67036125D01*
X82755051Y-67236084D01*
X82833072Y-67424442D01*
X82946340Y-67593960D01*
X83090503Y-67738123D01*
X83260021Y-67851391D01*
X83413779Y-67915080D01*
X84387990Y-68889292D01*
X84387991Y-80115328D01*
X84387990Y-80115338D01*
X84387990Y-80574468D01*
X80796400Y-84166059D01*
X80796400Y-83016201D01*
X82362503Y-81450099D01*
X82391501Y-81426301D01*
X82439415Y-81367918D01*
X82486474Y-81310577D01*
X82557046Y-81178547D01*
X82588252Y-81075672D01*
X82600503Y-81035286D01*
X82611500Y-80923633D01*
X82611500Y-80923624D01*
X82615176Y-80886301D01*
X82611500Y-80848978D01*
X82611500Y-78364211D01*
X82655437Y-78320274D01*
X82768705Y-78150756D01*
X82846726Y-77962398D01*
X82886500Y-77762439D01*
X82886500Y-77558561D01*
X82846726Y-77358602D01*
X82768705Y-77170244D01*
X82675000Y-77030004D01*
X82675000Y-73538211D01*
X82718937Y-73494274D01*
X82832205Y-73324756D01*
X82910226Y-73136398D01*
X82950000Y-72936439D01*
X82950000Y-72732561D01*
X82910226Y-72532602D01*
X82832205Y-72344244D01*
X82718937Y-72174726D01*
X82675000Y-72130789D01*
X82675000Y-70204822D01*
X82678676Y-70167499D01*
X82675000Y-70130176D01*
X82675000Y-70130167D01*
X82664003Y-70018514D01*
X82620546Y-69875253D01*
X82549974Y-69743224D01*
X82455001Y-69627499D01*
X82426004Y-69603702D01*
X80637304Y-67815003D01*
X80613501Y-67785999D01*
X80497776Y-67691026D01*
X80365747Y-67620454D01*
X80222486Y-67576997D01*
X80110833Y-67566000D01*
X80110822Y-67566000D01*
X80073500Y-67562324D01*
X80036178Y-67566000D01*
X73220711Y-67566000D01*
X73176774Y-67522063D01*
X73007256Y-67408795D01*
X72818898Y-67330774D01*
X72618939Y-67291000D01*
X72415061Y-67291000D01*
X72215102Y-67330774D01*
X72026744Y-67408795D01*
X71857226Y-67522063D01*
X71813289Y-67566000D01*
X69887322Y-67566000D01*
X69849999Y-67562324D01*
X69812676Y-67566000D01*
X69812667Y-67566000D01*
X69701014Y-67576997D01*
X69557753Y-67620454D01*
X69425724Y-67691026D01*
X69425722Y-67691027D01*
X69425723Y-67691027D01*
X69338996Y-67762201D01*
X69338992Y-67762205D01*
X69309999Y-67785999D01*
X69286205Y-67814992D01*
X65782998Y-71318201D01*
X65754000Y-71341999D01*
X65730202Y-71370997D01*
X65730201Y-71370998D01*
X65659026Y-71457724D01*
X65588454Y-71589754D01*
X65544998Y-71733015D01*
X65530324Y-71882000D01*
X65534001Y-71919332D01*
X65534000Y-75845177D01*
X65530324Y-75882500D01*
X65534000Y-75919822D01*
X65534000Y-75919832D01*
X65544997Y-76031485D01*
X65588454Y-76174746D01*
X65659026Y-76306776D01*
X65698871Y-76355326D01*
X65753999Y-76422501D01*
X65783003Y-76446304D01*
X67375501Y-78038803D01*
X67375500Y-79496789D01*
X67331563Y-79540726D01*
X67218295Y-79710244D01*
X67140274Y-79898602D01*
X67100500Y-80098561D01*
X67100500Y-80302439D01*
X67140274Y-80502398D01*
X67218295Y-80690756D01*
X67331563Y-80860274D01*
X67475726Y-81004437D01*
X67645244Y-81117705D01*
X67833602Y-81195726D01*
X68033561Y-81235500D01*
X68237439Y-81235500D01*
X68437398Y-81195726D01*
X68625756Y-81117705D01*
X68649883Y-81101584D01*
X71215928Y-83667630D01*
X71215928Y-84174650D01*
X71216219Y-84177600D01*
X70901402Y-84177600D01*
X70281801Y-83558000D01*
X70263177Y-83368901D01*
X70198276Y-83154953D01*
X70092884Y-82957777D01*
X69951049Y-82784951D01*
X69778223Y-82643116D01*
X69581047Y-82537724D01*
X69367099Y-82472823D01*
X69200352Y-82456400D01*
X68288848Y-82456400D01*
X68122101Y-82472823D01*
X67908153Y-82537724D01*
X67710977Y-82643116D01*
X67538151Y-82784951D01*
X67396316Y-82957777D01*
X67290924Y-83154953D01*
X67226023Y-83368901D01*
X67204109Y-83591400D01*
X67226023Y-83813899D01*
X67235700Y-83845800D01*
X66453500Y-83845800D01*
X66463177Y-83813899D01*
X66485091Y-83591400D01*
X66463177Y-83368901D01*
X66398276Y-83154953D01*
X66292884Y-82957777D01*
X66151049Y-82784951D01*
X65978223Y-82643116D01*
X65781047Y-82537724D01*
X65567099Y-82472823D01*
X65400352Y-82456400D01*
X64088848Y-82456400D01*
X63922101Y-82472823D01*
X63708153Y-82537724D01*
X63510977Y-82643116D01*
X63338151Y-82784951D01*
X63271000Y-82866775D01*
X63271000Y-67329579D01*
X63319634Y-66833571D01*
X63454311Y-66387500D01*
X63673062Y-65976089D01*
X63967560Y-65614999D01*
X64326582Y-65317991D01*
X64736458Y-65096372D01*
X65181578Y-64958584D01*
X65675635Y-64906656D01*
X83508520Y-64907158D01*
G36*
X81155000Y-70482302D02*
G01*
X81155001Y-72130788D01*
X81111063Y-72174726D01*
X80997795Y-72344244D01*
X80919774Y-72532602D01*
X80880000Y-72732561D01*
X80880000Y-72936439D01*
X80919774Y-73136398D01*
X80997795Y-73324756D01*
X81111063Y-73494274D01*
X81155000Y-73538211D01*
X81155001Y-76893288D01*
X81047563Y-77000726D01*
X80934295Y-77170244D01*
X80856274Y-77358602D01*
X80816500Y-77558561D01*
X80816500Y-77762439D01*
X80856274Y-77962398D01*
X80934295Y-78150756D01*
X81047563Y-78320274D01*
X81091500Y-78364211D01*
X81091501Y-80571497D01*
X79525403Y-82137596D01*
X79496399Y-82161399D01*
X79441271Y-82228574D01*
X79401426Y-82277124D01*
X79346262Y-82380328D01*
X79330854Y-82409154D01*
X79287397Y-82552415D01*
X79276400Y-82664068D01*
X79276400Y-82664078D01*
X79272724Y-82701400D01*
X79276400Y-82738723D01*
X79276400Y-83522285D01*
X79268847Y-83508154D01*
X79247974Y-83469103D01*
X79176799Y-83382377D01*
X79153001Y-83353379D01*
X79124003Y-83329581D01*
X75143537Y-79349116D01*
X75166256Y-79339705D01*
X75335774Y-79226437D01*
X75379711Y-79182500D01*
X77600673Y-79182500D01*
X77618563Y-79209274D01*
X77762726Y-79353437D01*
X77932244Y-79466705D01*
X78120602Y-79544726D01*
X78320561Y-79584500D01*
X78524439Y-79584500D01*
X78724398Y-79544726D01*
X78912756Y-79466705D01*
X79082274Y-79353437D01*
X79226437Y-79209274D01*
X79339705Y-79039756D01*
X79417726Y-78851398D01*
X79457500Y-78651439D01*
X79457500Y-78447561D01*
X79417726Y-78247602D01*
X79339705Y-78059244D01*
X79226437Y-77889726D01*
X79082274Y-77745563D01*
X78912756Y-77632295D01*
X78724398Y-77554274D01*
X78524439Y-77514500D01*
X78320561Y-77514500D01*
X78120602Y-77554274D01*
X77932244Y-77632295D01*
X77887039Y-77662500D01*
X75379711Y-77662500D01*
X75335774Y-77618563D01*
X75166256Y-77505295D01*
X74977898Y-77427274D01*
X74777939Y-77387500D01*
X74574061Y-77387500D01*
X74489010Y-77404418D01*
X74489010Y-72724933D01*
X74492686Y-72687610D01*
X74489010Y-72650287D01*
X74489010Y-72650277D01*
X74478013Y-72538624D01*
X74434556Y-72395363D01*
X74393631Y-72318799D01*
X74363984Y-72263333D01*
X74292809Y-72176607D01*
X74269011Y-72147609D01*
X74240013Y-72123811D01*
X72447369Y-70331168D01*
X72521626Y-70151898D01*
X72561400Y-69951939D01*
X72561400Y-69748061D01*
X72521626Y-69548102D01*
X72444125Y-69361000D01*
X72618939Y-69361000D01*
X72818898Y-69321226D01*
X73007256Y-69243205D01*
X73176774Y-69129937D01*
X73220711Y-69086000D01*
X79758699Y-69086000D01*
X81155000Y-70482302D01*
G37*
X81155000Y-70482302D02*
X81155001Y-72130788D01*
X81111063Y-72174726D01*
X80997795Y-72344244D01*
X80919774Y-72532602D01*
X80880000Y-72732561D01*
X80880000Y-72936439D01*
X80919774Y-73136398D01*
X80997795Y-73324756D01*
X81111063Y-73494274D01*
X81155000Y-73538211D01*
X81155001Y-76893288D01*
X81047563Y-77000726D01*
X80934295Y-77170244D01*
X80856274Y-77358602D01*
X80816500Y-77558561D01*
X80816500Y-77762439D01*
X80856274Y-77962398D01*
X80934295Y-78150756D01*
X81047563Y-78320274D01*
X81091500Y-78364211D01*
X81091501Y-80571497D01*
X79525403Y-82137596D01*
X79496399Y-82161399D01*
X79441271Y-82228574D01*
X79401426Y-82277124D01*
X79346262Y-82380328D01*
X79330854Y-82409154D01*
X79287397Y-82552415D01*
X79276400Y-82664068D01*
X79276400Y-82664078D01*
X79272724Y-82701400D01*
X79276400Y-82738723D01*
X79276400Y-83522285D01*
X79268847Y-83508154D01*
X79247974Y-83469103D01*
X79176799Y-83382377D01*
X79153001Y-83353379D01*
X79124003Y-83329581D01*
X75143537Y-79349116D01*
X75166256Y-79339705D01*
X75335774Y-79226437D01*
X75379711Y-79182500D01*
X77600673Y-79182500D01*
X77618563Y-79209274D01*
X77762726Y-79353437D01*
X77932244Y-79466705D01*
X78120602Y-79544726D01*
X78320561Y-79584500D01*
X78524439Y-79584500D01*
X78724398Y-79544726D01*
X78912756Y-79466705D01*
X79082274Y-79353437D01*
X79226437Y-79209274D01*
X79339705Y-79039756D01*
X79417726Y-78851398D01*
X79457500Y-78651439D01*
X79457500Y-78447561D01*
X79417726Y-78247602D01*
X79339705Y-78059244D01*
X79226437Y-77889726D01*
X79082274Y-77745563D01*
X78912756Y-77632295D01*
X78724398Y-77554274D01*
X78524439Y-77514500D01*
X78320561Y-77514500D01*
X78120602Y-77554274D01*
X77932244Y-77632295D01*
X77887039Y-77662500D01*
X75379711Y-77662500D01*
X75335774Y-77618563D01*
X75166256Y-77505295D01*
X74977898Y-77427274D01*
X74777939Y-77387500D01*
X74574061Y-77387500D01*
X74489010Y-77404418D01*
X74489010Y-72724933D01*
X74492686Y-72687610D01*
X74489010Y-72650287D01*
X74489010Y-72650277D01*
X74478013Y-72538624D01*
X74434556Y-72395363D01*
X74393631Y-72318799D01*
X74363984Y-72263333D01*
X74292809Y-72176607D01*
X74269011Y-72147609D01*
X74240013Y-72123811D01*
X72447369Y-70331168D01*
X72521626Y-70151898D01*
X72561400Y-69951939D01*
X72561400Y-69748061D01*
X72521626Y-69548102D01*
X72444125Y-69361000D01*
X72618939Y-69361000D01*
X72818898Y-69321226D01*
X73007256Y-69243205D01*
X73176774Y-69129937D01*
X73220711Y-69086000D01*
X79758699Y-69086000D01*
X81155000Y-70482302D01*
G36*
X69348400Y-70104339D02*
G01*
X69388174Y-70304298D01*
X69466195Y-70492656D01*
X69579463Y-70662174D01*
X69723626Y-70806337D01*
X69893144Y-70919605D01*
X70081502Y-70997626D01*
X70281461Y-71037400D01*
X70343599Y-71037400D01*
X71624997Y-72318799D01*
X71625002Y-72318803D01*
X72519001Y-73212803D01*
X72519000Y-76498500D01*
X72351561Y-76498500D01*
X72151602Y-76538274D01*
X71963244Y-76616295D01*
X71793726Y-76729563D01*
X71649563Y-76873726D01*
X71536295Y-77043244D01*
X71458274Y-77231602D01*
X71418500Y-77431561D01*
X71418500Y-77635439D01*
X71458274Y-77835398D01*
X71536295Y-78023756D01*
X71649563Y-78193274D01*
X71693500Y-78237211D01*
X71693501Y-78969368D01*
X71689824Y-79006700D01*
X71693501Y-79044033D01*
X71697268Y-79082274D01*
X71704498Y-79155685D01*
X71747954Y-79298946D01*
X71818526Y-79430976D01*
X71871032Y-79494954D01*
X71913500Y-79546701D01*
X71942498Y-79570499D01*
X74844418Y-82472419D01*
X74797709Y-82447453D01*
X74632285Y-82397272D01*
X74460250Y-82380328D01*
X73972750Y-82380328D01*
X73800715Y-82397272D01*
X73635291Y-82447453D01*
X73482836Y-82528942D01*
X73349208Y-82638608D01*
X73279000Y-82724156D01*
X73208792Y-82638608D01*
X73075164Y-82528942D01*
X72922709Y-82447453D01*
X72757285Y-82397272D01*
X72585250Y-82380328D01*
X72097750Y-82380328D01*
X72079980Y-82382078D01*
X69387404Y-79689503D01*
X69363601Y-79660499D01*
X69247876Y-79565526D01*
X69115847Y-79494954D01*
X68972586Y-79451497D01*
X68895500Y-79443905D01*
X68895500Y-77761322D01*
X68899176Y-77723999D01*
X68895500Y-77686676D01*
X68895500Y-77686667D01*
X68884503Y-77575014D01*
X68841046Y-77431753D01*
X68770474Y-77299724D01*
X68675501Y-77183999D01*
X68646503Y-77160201D01*
X67054000Y-75567699D01*
X67054000Y-72196801D01*
X69348400Y-69902402D01*
X69348400Y-70104339D01*
G37*
X69348400Y-70104339D02*
X69388174Y-70304298D01*
X69466195Y-70492656D01*
X69579463Y-70662174D01*
X69723626Y-70806337D01*
X69893144Y-70919605D01*
X70081502Y-70997626D01*
X70281461Y-71037400D01*
X70343599Y-71037400D01*
X71624997Y-72318799D01*
X71625002Y-72318803D01*
X72519001Y-73212803D01*
X72519000Y-76498500D01*
X72351561Y-76498500D01*
X72151602Y-76538274D01*
X71963244Y-76616295D01*
X71793726Y-76729563D01*
X71649563Y-76873726D01*
X71536295Y-77043244D01*
X71458274Y-77231602D01*
X71418500Y-77431561D01*
X71418500Y-77635439D01*
X71458274Y-77835398D01*
X71536295Y-78023756D01*
X71649563Y-78193274D01*
X71693500Y-78237211D01*
X71693501Y-78969368D01*
X71689824Y-79006700D01*
X71693501Y-79044033D01*
X71697268Y-79082274D01*
X71704498Y-79155685D01*
X71747954Y-79298946D01*
X71818526Y-79430976D01*
X71871032Y-79494954D01*
X71913500Y-79546701D01*
X71942498Y-79570499D01*
X74844418Y-82472419D01*
X74797709Y-82447453D01*
X74632285Y-82397272D01*
X74460250Y-82380328D01*
X73972750Y-82380328D01*
X73800715Y-82397272D01*
X73635291Y-82447453D01*
X73482836Y-82528942D01*
X73349208Y-82638608D01*
X73279000Y-82724156D01*
X73208792Y-82638608D01*
X73075164Y-82528942D01*
X72922709Y-82447453D01*
X72757285Y-82397272D01*
X72585250Y-82380328D01*
X72097750Y-82380328D01*
X72079980Y-82382078D01*
X69387404Y-79689503D01*
X69363601Y-79660499D01*
X69247876Y-79565526D01*
X69115847Y-79494954D01*
X68972586Y-79451497D01*
X68895500Y-79443905D01*
X68895500Y-77761322D01*
X68899176Y-77723999D01*
X68895500Y-77686676D01*
X68895500Y-77686667D01*
X68884503Y-77575014D01*
X68841046Y-77431753D01*
X68770474Y-77299724D01*
X68675501Y-77183999D01*
X68646503Y-77160201D01*
X67054000Y-75567699D01*
X67054000Y-72196801D01*
X69348400Y-69902402D01*
X69348400Y-70104339D01*
%TD*%
M02*
