M48
; DRILL file {KiCad (5.1.6)-1} date 05/31/20 03:06:53
; FORMAT={-:-/ absolute / inch / decimal}
; #@! TF.CreationDate,2020-05-31T03:06:53+03:00
; #@! TF.GenerationSoftware,Kicad,Pcbnew,(5.1.6)-1
; #@! TF.FileFunction,Plated,1,2,PTH
FMAT,2
INCH
T1C0.0157
T2C0.0236
%
G90
G05
T1
X2.6431Y-3.1575
X2.6825Y-3.1575
X2.771Y-2.756
X2.795Y-3.3075
X2.816Y-2.75
X2.816Y-3.72
X2.83Y-3.598
X2.843Y-3.217
X2.8525Y-3.0525
X2.855Y-2.63
X2.855Y-2.69
X2.858Y-3.3785
X2.858Y-3.418
X2.859Y-3.4614
X2.86Y-3.565
X2.86Y-3.72
X2.895Y-3.68
X2.905Y-3.535
X2.94Y-3.0875
X2.943Y-4.001
X2.949Y-4.242
X2.968Y-2.931
X2.969Y-2.88
X2.969Y-3.306
X2.976Y-3.618
X2.99Y-3.68
X3.02Y-2.879
X3.02Y-2.932
X3.024Y-3.38
X3.0325Y-3.8925
X3.0875Y-3.0925
X3.168Y-2.768
X3.178Y-2.842
X3.179Y-4.32
X3.2225Y-3.0575
X3.225Y-2.8675
X3.255Y-2.6475
X3.2973Y-2.6352
X3.3125Y-3.0625
X3.3162Y-3.3235
X3.3274Y-2.5648
X3.382Y-2.646
X3.7207Y-3.538
X3.7207Y-3.538
X3.7207Y-3.5892
X3.7207Y-3.5892
X3.7797Y-3.538
X4.1262Y-3.5656
T2
G00X2.5254Y-3.291
M15
G01X2.5726Y-3.291
M16
G05
G00X2.5254Y-3.7335
M15
G01X2.5726Y-3.7335
M16
G05
G00X2.6907Y-3.291
M15
G01X2.7222Y-3.291
M16
G05
G00X2.6907Y-3.7335
M15
G01X2.7222Y-3.7335
M16
G05
T0
M30
