G04                                                      *
G04 Greetings!                                           *
G04 This Gerber was generated by PCBmodE, an open source *
G04 PCB design software. Get it here:                    *
G04                                                      *
G04   http://pcbmode.com                                 *
G04                                                      *
G04 Also visit                                           *
G04                                                      *
G04   http://boldport.com                                *
G04                                                      *
G04 and follow @boldport / @pcbmode for updates!         *
G04                                                      *

G04 leading zeros omitted (L); absolute data (A); 6 integer digits and 6 fractional digits *
%FSLAX66Y66*%

G04 mode (MO): millimeters (MM) *
%MOMM*%

G04 Aperture definitions *
%ADD10C,0.001X*%
%ADD11C,0.001X*%

%LPD*%
G36*
G01X23050000Y-17050000D02*
G01X25950000Y-17050000D01*
G01X25950000Y-19950000D01*
G01X23050000Y-19950000D01*
G01X23050000Y-17050000D01*
G37*
G36*
G01X23050000Y-30050000D02*
G01X25950000Y-30050000D01*
G01X25950000Y-32950000D01*
G01X23050000Y-32950000D01*
G01X23050000Y-30050000D01*
G37*
G36*
G01X83500000Y-21950000D02*
G01X84650000Y-21950000D01*
G01X84650000Y-21950000D01*
G01X84685355Y-21964645D01*
G01X84700000Y-22000000D01*
G01X84700000Y-22000000D01*
G01X84700000Y-22500000D01*
G01X84700000Y-23000000D01*
G01X84700000Y-23000000D01*
G01X84685355Y-23035355D01*
G01X84650000Y-23050000D01*
G01X84650000Y-23050000D01*
G01X83500000Y-23050000D01*
G01X82350000Y-23050000D01*
G01X82350000Y-23050000D01*
G01X82314645Y-23035355D01*
G01X82300000Y-23000000D01*
G01X82300000Y-23000000D01*
G01X82300000Y-22500000D01*
G01X82300000Y-22000000D01*
G01X82300000Y-22000000D01*
G01X82314645Y-21964645D01*
G01X82350000Y-21950000D01*
G01X82350000Y-21950000D01*
G01X83500000Y-21950000D01*
G37*
G36*
G01X83500000Y-26950000D02*
G01X84650000Y-26950000D01*
G01X84650000Y-26950000D01*
G01X84685355Y-26964645D01*
G01X84700000Y-27000000D01*
G01X84700000Y-27000000D01*
G01X84700000Y-27500000D01*
G01X84700000Y-28000000D01*
G01X84700000Y-28000000D01*
G01X84685355Y-28035355D01*
G01X84650000Y-28050000D01*
G01X84650000Y-28050000D01*
G01X83500000Y-28050000D01*
G01X82350000Y-28050000D01*
G01X82350000Y-28050000D01*
G01X82314645Y-28035355D01*
G01X82300000Y-28000000D01*
G01X82300000Y-28000000D01*
G01X82300000Y-27500000D01*
G01X82300000Y-27000000D01*
G01X82300000Y-27000000D01*
G01X82314645Y-26964645D01*
G01X82350000Y-26950000D01*
G01X82350000Y-26950000D01*
G01X83500000Y-26950000D01*
G37*
G36*
G01X83500000Y-24450000D02*
G01X84650000Y-24450000D01*
G01X84650000Y-24450000D01*
G01X84685355Y-24464645D01*
G01X84700000Y-24500000D01*
G01X84700000Y-24500000D01*
G01X84700000Y-25000000D01*
G01X84700000Y-25500000D01*
G01X84700000Y-25500000D01*
G01X84685355Y-25535355D01*
G01X84650000Y-25550000D01*
G01X84650000Y-25550000D01*
G01X83500000Y-25550000D01*
G01X82350000Y-25550000D01*
G01X82350000Y-25550000D01*
G01X82314645Y-25535355D01*
G01X82300000Y-25500000D01*
G01X82300000Y-25500000D01*
G01X82300000Y-25000000D01*
G01X82300000Y-24500000D01*
G01X82300000Y-24500000D01*
G01X82314645Y-24464645D01*
G01X82350000Y-24450000D01*
G01X82350000Y-24450000D01*
G01X83500000Y-24450000D01*
G37*
G36*
G01X78000000Y-24450000D02*
G01X79150000Y-24450000D01*
G01X79150000Y-24450000D01*
G01X79185355Y-24464645D01*
G01X79200000Y-24500000D01*
G01X79200000Y-24500000D01*
G01X79200000Y-25000000D01*
G01X79200000Y-25500000D01*
G01X79200000Y-25500000D01*
G01X79185355Y-25535355D01*
G01X79150000Y-25550000D01*
G01X79150000Y-25550000D01*
G01X78000000Y-25550000D01*
G01X76850000Y-25550000D01*
G01X76850000Y-25550000D01*
G01X76814645Y-25535355D01*
G01X76800000Y-25500000D01*
G01X76800000Y-25500000D01*
G01X76800000Y-25000000D01*
G01X76800000Y-24500000D01*
G01X76800000Y-24500000D01*
G01X76814645Y-24464645D01*
G01X76850000Y-24450000D01*
G01X76850000Y-24450000D01*
G01X78000000Y-24450000D01*
G37*
G36*
G01X78000000Y-21950000D02*
G01X79150000Y-21950000D01*
G01X79150000Y-21950000D01*
G01X79185355Y-21964645D01*
G01X79200000Y-22000000D01*
G01X79200000Y-22000000D01*
G01X79200000Y-22500000D01*
G01X79200000Y-23000000D01*
G01X79200000Y-23000000D01*
G01X79185355Y-23035355D01*
G01X79150000Y-23050000D01*
G01X79150000Y-23050000D01*
G01X78000000Y-23050000D01*
G01X76850000Y-23050000D01*
G01X76850000Y-23050000D01*
G01X76814645Y-23035355D01*
G01X76800000Y-23000000D01*
G01X76800000Y-23000000D01*
G01X76800000Y-22500000D01*
G01X76800000Y-22000000D01*
G01X76800000Y-22000000D01*
G01X76814645Y-21964645D01*
G01X76850000Y-21950000D01*
G01X76850000Y-21950000D01*
G01X78000000Y-21950000D01*
G37*
G36*
G01X78000000Y-26950000D02*
G01X79150000Y-26950000D01*
G01X79150000Y-26950000D01*
G01X79185355Y-26964645D01*
G01X79200000Y-27000000D01*
G01X79200000Y-27000000D01*
G01X79200000Y-27500000D01*
G01X79200000Y-28000000D01*
G01X79200000Y-28000000D01*
G01X79185355Y-28035355D01*
G01X79150000Y-28050000D01*
G01X79150000Y-28050000D01*
G01X78000000Y-28050000D01*
G01X76850000Y-28050000D01*
G01X76850000Y-28050000D01*
G01X76814645Y-28035355D01*
G01X76800000Y-28000000D01*
G01X76800000Y-28000000D01*
G01X76800000Y-27500000D01*
G01X76800000Y-27000000D01*
G01X76800000Y-27000000D01*
G01X76814645Y-26964645D01*
G01X76850000Y-26950000D01*
G01X76850000Y-26950000D01*
G01X78000000Y-26950000D01*
G37*
G36*
G01X13300000Y-30465000D02*
G01X14700000Y-30465000D01*
G01X14700000Y-30965000D01*
G01X13300000Y-30965000D01*
G01X13300000Y-30465000D01*
G37*
G36*
G01X3800000Y-30465000D02*
G01X5200000Y-30465000D01*
G01X5200000Y-30965000D01*
G01X3800000Y-30965000D01*
G01X3800000Y-30465000D01*
G37*
G36*
G01X13300000Y-27925000D02*
G01X14700000Y-27925000D01*
G01X14700000Y-28425000D01*
G01X13300000Y-28425000D01*
G01X13300000Y-27925000D01*
G37*
G36*
G01X13300000Y-29195000D02*
G01X14700000Y-29195000D01*
G01X14700000Y-29695000D01*
G01X13300000Y-29695000D01*
G01X13300000Y-29195000D01*
G37*
G36*
G01X13300000Y-25385000D02*
G01X14700000Y-25385000D01*
G01X14700000Y-25885000D01*
G01X13300000Y-25885000D01*
G01X13300000Y-25385000D01*
G37*
G36*
G01X13300000Y-26655000D02*
G01X14700000Y-26655000D01*
G01X14700000Y-27155000D01*
G01X13300000Y-27155000D01*
G01X13300000Y-26655000D01*
G37*
G36*
G01X13300000Y-22845000D02*
G01X14700000Y-22845000D01*
G01X14700000Y-23345000D01*
G01X13300000Y-23345000D01*
G01X13300000Y-22845000D01*
G37*
G36*
G01X13300000Y-24115000D02*
G01X14700000Y-24115000D01*
G01X14700000Y-24615000D01*
G01X13300000Y-24615000D01*
G01X13300000Y-24115000D01*
G37*
G36*
G01X13300000Y-20305000D02*
G01X14700000Y-20305000D01*
G01X14700000Y-20805000D01*
G01X13300000Y-20805000D01*
G01X13300000Y-20305000D01*
G37*
G36*
G01X13300000Y-21575000D02*
G01X14700000Y-21575000D01*
G01X14700000Y-22075000D01*
G01X13300000Y-22075000D01*
G01X13300000Y-21575000D01*
G37*
G36*
G01X13300000Y-19035000D02*
G01X14700000Y-19035000D01*
G01X14700000Y-19535000D01*
G01X13300000Y-19535000D01*
G01X13300000Y-19035000D01*
G37*
G36*
G01X3800000Y-19035000D02*
G01X5200000Y-19035000D01*
G01X5200000Y-19535000D01*
G01X3800000Y-19535000D01*
G01X3800000Y-19035000D01*
G37*
G36*
G01X3800000Y-21575000D02*
G01X5200000Y-21575000D01*
G01X5200000Y-22075000D01*
G01X3800000Y-22075000D01*
G01X3800000Y-21575000D01*
G37*
G36*
G01X3800000Y-20305000D02*
G01X5200000Y-20305000D01*
G01X5200000Y-20805000D01*
G01X3800000Y-20805000D01*
G01X3800000Y-20305000D01*
G37*
G36*
G01X3800000Y-24115000D02*
G01X5200000Y-24115000D01*
G01X5200000Y-24615000D01*
G01X3800000Y-24615000D01*
G01X3800000Y-24115000D01*
G37*
G36*
G01X3800000Y-22845000D02*
G01X5200000Y-22845000D01*
G01X5200000Y-23345000D01*
G01X3800000Y-23345000D01*
G01X3800000Y-22845000D01*
G37*
G36*
G01X3800000Y-26655000D02*
G01X5200000Y-26655000D01*
G01X5200000Y-27155000D01*
G01X3800000Y-27155000D01*
G01X3800000Y-26655000D01*
G37*
G36*
G01X3800000Y-25385000D02*
G01X5200000Y-25385000D01*
G01X5200000Y-25885000D01*
G01X3800000Y-25885000D01*
G01X3800000Y-25385000D01*
G37*
G36*
G01X3800000Y-29195000D02*
G01X5200000Y-29195000D01*
G01X5200000Y-29695000D01*
G01X3800000Y-29695000D01*
G01X3800000Y-29195000D01*
G37*
G36*
G01X3800000Y-27925000D02*
G01X5200000Y-27925000D01*
G01X5200000Y-28425000D01*
G01X3800000Y-28425000D01*
G01X3800000Y-27925000D01*
G37*
G36*
G01X42460000Y-2827000D02*
G01X42460000Y-2827000D01*
G01X42519175Y-2825086D01*
G01X42577328Y-2819422D01*
G01X42634341Y-2810126D01*
G01X42690094Y-2797319D01*
G01X42744470Y-2781117D01*
G01X42797349Y-2761641D01*
G01X42848613Y-2739007D01*
G01X42898143Y-2713335D01*
G01X42945821Y-2684744D01*
G01X42991528Y-2653352D01*
G01X43035146Y-2619278D01*
G01X43076556Y-2582640D01*
G01X43115640Y-2543556D01*
G01X43152278Y-2502146D01*
G01X43186352Y-2458528D01*
G01X43217744Y-2412821D01*
G01X43246335Y-2365143D01*
G01X43272007Y-2315613D01*
G01X43294641Y-2264349D01*
G01X43314117Y-2211470D01*
G01X43330319Y-2157094D01*
G01X43343126Y-2101341D01*
G01X43352422Y-2044328D01*
G01X43358086Y-1986175D01*
G01X43360000Y-1927000D01*
G01X43360000Y-1927000D01*
G01X43360000Y-1927000D01*
G01X43358086Y-1867825D01*
G01X43352422Y-1809672D01*
G01X43343126Y-1752659D01*
G01X43330319Y-1696906D01*
G01X43314117Y-1642530D01*
G01X43294641Y-1589651D01*
G01X43272007Y-1538387D01*
G01X43246335Y-1488857D01*
G01X43217744Y-1441179D01*
G01X43186352Y-1395472D01*
G01X43152278Y-1351854D01*
G01X43115640Y-1310444D01*
G01X43076556Y-1271360D01*
G01X43035146Y-1234722D01*
G01X42991528Y-1200648D01*
G01X42945821Y-1169256D01*
G01X42898143Y-1140665D01*
G01X42848613Y-1114993D01*
G01X42797349Y-1092359D01*
G01X42744470Y-1072883D01*
G01X42690094Y-1056681D01*
G01X42634341Y-1043874D01*
G01X42577328Y-1034578D01*
G01X42519175Y-1028914D01*
G01X42460000Y-1027000D01*
G01X42460000Y-1027000D01*
G01X42460000Y-1027000D01*
G01X42400825Y-1028914D01*
G01X42342672Y-1034578D01*
G01X42285659Y-1043874D01*
G01X42229906Y-1056681D01*
G01X42175530Y-1072883D01*
G01X42122651Y-1092359D01*
G01X42071387Y-1114993D01*
G01X42021857Y-1140665D01*
G01X41974179Y-1169256D01*
G01X41928472Y-1200648D01*
G01X41884854Y-1234722D01*
G01X41843444Y-1271360D01*
G01X41804360Y-1310444D01*
G01X41767722Y-1351854D01*
G01X41733648Y-1395472D01*
G01X41702256Y-1441179D01*
G01X41673665Y-1488857D01*
G01X41647993Y-1538387D01*
G01X41625359Y-1589651D01*
G01X41605883Y-1642530D01*
G01X41589681Y-1696906D01*
G01X41576874Y-1752659D01*
G01X41567578Y-1809672D01*
G01X41561914Y-1867825D01*
G01X41560000Y-1927000D01*
G01X41560000Y-1927000D01*
G01X41560000Y-1927000D01*
G01X41561914Y-1986175D01*
G01X41567578Y-2044328D01*
G01X41576874Y-2101341D01*
G01X41589681Y-2157094D01*
G01X41605883Y-2211470D01*
G01X41625359Y-2264349D01*
G01X41647993Y-2315613D01*
G01X41673665Y-2365143D01*
G01X41702256Y-2412821D01*
G01X41733648Y-2458528D01*
G01X41767722Y-2502146D01*
G01X41804360Y-2543556D01*
G01X41843444Y-2582640D01*
G01X41884854Y-2619278D01*
G01X41928472Y-2653352D01*
G01X41974179Y-2684744D01*
G01X42021857Y-2713335D01*
G01X42071387Y-2739007D01*
G01X42122651Y-2761641D01*
G01X42175530Y-2781117D01*
G01X42229906Y-2797319D01*
G01X42285659Y-2810126D01*
G01X42342672Y-2819422D01*
G01X42400825Y-2825086D01*
G01X42460000Y-2827000D01*
G01X42460000Y-2827000D01*
G37*
G36*
G01X47540000Y-2827000D02*
G01X47540000Y-2827000D01*
G01X47599175Y-2825086D01*
G01X47657328Y-2819422D01*
G01X47714341Y-2810126D01*
G01X47770094Y-2797319D01*
G01X47824470Y-2781117D01*
G01X47877349Y-2761641D01*
G01X47928613Y-2739007D01*
G01X47978143Y-2713335D01*
G01X48025821Y-2684744D01*
G01X48071528Y-2653352D01*
G01X48115146Y-2619278D01*
G01X48156556Y-2582640D01*
G01X48195640Y-2543556D01*
G01X48232278Y-2502146D01*
G01X48266352Y-2458528D01*
G01X48297744Y-2412821D01*
G01X48326335Y-2365143D01*
G01X48352007Y-2315613D01*
G01X48374641Y-2264349D01*
G01X48394117Y-2211470D01*
G01X48410319Y-2157094D01*
G01X48423126Y-2101341D01*
G01X48432422Y-2044328D01*
G01X48438086Y-1986175D01*
G01X48440000Y-1927000D01*
G01X48440000Y-1927000D01*
G01X48440000Y-1927000D01*
G01X48438086Y-1867825D01*
G01X48432422Y-1809672D01*
G01X48423126Y-1752659D01*
G01X48410319Y-1696906D01*
G01X48394117Y-1642530D01*
G01X48374641Y-1589651D01*
G01X48352007Y-1538387D01*
G01X48326335Y-1488857D01*
G01X48297744Y-1441179D01*
G01X48266352Y-1395472D01*
G01X48232278Y-1351854D01*
G01X48195640Y-1310444D01*
G01X48156556Y-1271360D01*
G01X48115146Y-1234722D01*
G01X48071528Y-1200648D01*
G01X48025821Y-1169256D01*
G01X47978143Y-1140665D01*
G01X47928613Y-1114993D01*
G01X47877349Y-1092359D01*
G01X47824470Y-1072883D01*
G01X47770094Y-1056681D01*
G01X47714341Y-1043874D01*
G01X47657328Y-1034578D01*
G01X47599175Y-1028914D01*
G01X47540000Y-1027000D01*
G01X47540000Y-1027000D01*
G01X47540000Y-1027000D01*
G01X47480825Y-1028914D01*
G01X47422672Y-1034578D01*
G01X47365659Y-1043874D01*
G01X47309906Y-1056681D01*
G01X47255530Y-1072883D01*
G01X47202651Y-1092359D01*
G01X47151387Y-1114993D01*
G01X47101857Y-1140665D01*
G01X47054179Y-1169256D01*
G01X47008472Y-1200648D01*
G01X46964854Y-1234722D01*
G01X46923444Y-1271360D01*
G01X46884360Y-1310444D01*
G01X46847722Y-1351854D01*
G01X46813648Y-1395472D01*
G01X46782256Y-1441179D01*
G01X46753665Y-1488857D01*
G01X46727993Y-1538387D01*
G01X46705359Y-1589651D01*
G01X46685883Y-1642530D01*
G01X46669681Y-1696906D01*
G01X46656874Y-1752659D01*
G01X46647578Y-1809672D01*
G01X46641914Y-1867825D01*
G01X46640000Y-1927000D01*
G01X46640000Y-1927000D01*
G01X46640000Y-1927000D01*
G01X46641914Y-1986175D01*
G01X46647578Y-2044328D01*
G01X46656874Y-2101341D01*
G01X46669681Y-2157094D01*
G01X46685883Y-2211470D01*
G01X46705359Y-2264349D01*
G01X46727993Y-2315613D01*
G01X46753665Y-2365143D01*
G01X46782256Y-2412821D01*
G01X46813648Y-2458528D01*
G01X46847722Y-2502146D01*
G01X46884360Y-2543556D01*
G01X46923444Y-2582640D01*
G01X46964854Y-2619278D01*
G01X47008472Y-2653352D01*
G01X47054179Y-2684744D01*
G01X47101857Y-2713335D01*
G01X47151387Y-2739007D01*
G01X47202651Y-2761641D01*
G01X47255530Y-2781117D01*
G01X47309906Y-2797319D01*
G01X47365659Y-2810126D01*
G01X47422672Y-2819422D01*
G01X47480825Y-2825086D01*
G01X47540000Y-2827000D01*
G01X47540000Y-2827000D01*
G37*
G36*
G01X45000000Y-2573000D02*
G01X45000000Y-2573000D01*
G01X45059175Y-2571086D01*
G01X45117328Y-2565422D01*
G01X45174341Y-2556126D01*
G01X45230094Y-2543319D01*
G01X45284470Y-2527117D01*
G01X45337349Y-2507641D01*
G01X45388613Y-2485007D01*
G01X45438143Y-2459335D01*
G01X45485821Y-2430744D01*
G01X45531528Y-2399352D01*
G01X45575146Y-2365278D01*
G01X45616556Y-2328640D01*
G01X45655640Y-2289556D01*
G01X45692278Y-2248146D01*
G01X45726352Y-2204528D01*
G01X45757744Y-2158821D01*
G01X45786335Y-2111143D01*
G01X45812007Y-2061613D01*
G01X45834641Y-2010349D01*
G01X45854117Y-1957470D01*
G01X45870319Y-1903094D01*
G01X45883126Y-1847341D01*
G01X45892422Y-1790328D01*
G01X45898086Y-1732175D01*
G01X45900000Y-1673000D01*
G01X45900000Y-1673000D01*
G01X45900000Y-1673000D01*
G01X45898086Y-1613825D01*
G01X45892422Y-1555672D01*
G01X45883126Y-1498659D01*
G01X45870319Y-1442906D01*
G01X45854117Y-1388530D01*
G01X45834641Y-1335651D01*
G01X45812007Y-1284387D01*
G01X45786335Y-1234857D01*
G01X45757744Y-1187179D01*
G01X45726352Y-1141472D01*
G01X45692278Y-1097854D01*
G01X45655640Y-1056444D01*
G01X45616556Y-1017360D01*
G01X45575146Y-0980722D01*
G01X45531528Y-0946648D01*
G01X45485821Y-0915256D01*
G01X45438143Y-0886665D01*
G01X45388613Y-0860993D01*
G01X45337349Y-0838359D01*
G01X45284470Y-0818883D01*
G01X45230094Y-0802681D01*
G01X45174341Y-0789874D01*
G01X45117328Y-0780578D01*
G01X45059175Y-0774914D01*
G01X45000000Y-0773000D01*
G01X45000000Y-0773000D01*
G01X45000000Y-0773000D01*
G01X44940825Y-0774914D01*
G01X44882672Y-0780578D01*
G01X44825659Y-0789874D01*
G01X44769906Y-0802681D01*
G01X44715530Y-0818883D01*
G01X44662651Y-0838359D01*
G01X44611387Y-0860993D01*
G01X44561857Y-0886665D01*
G01X44514179Y-0915256D01*
G01X44468472Y-0946648D01*
G01X44424854Y-0980722D01*
G01X44383444Y-1017360D01*
G01X44344360Y-1056444D01*
G01X44307722Y-1097854D01*
G01X44273648Y-1141472D01*
G01X44242256Y-1187179D01*
G01X44213665Y-1234857D01*
G01X44187993Y-1284387D01*
G01X44165359Y-1335651D01*
G01X44145883Y-1388530D01*
G01X44129681Y-1442906D01*
G01X44116874Y-1498659D01*
G01X44107578Y-1555672D01*
G01X44101914Y-1613825D01*
G01X44100000Y-1673000D01*
G01X44100000Y-1673000D01*
G01X44100000Y-1673000D01*
G01X44101914Y-1732175D01*
G01X44107578Y-1790328D01*
G01X44116874Y-1847341D01*
G01X44129681Y-1903094D01*
G01X44145883Y-1957470D01*
G01X44165359Y-2010349D01*
G01X44187993Y-2061613D01*
G01X44213665Y-2111143D01*
G01X44242256Y-2158821D01*
G01X44273648Y-2204528D01*
G01X44307722Y-2248146D01*
G01X44344360Y-2289556D01*
G01X44383444Y-2328640D01*
G01X44424854Y-2365278D01*
G01X44468472Y-2399352D01*
G01X44514179Y-2430744D01*
G01X44561857Y-2459335D01*
G01X44611387Y-2485007D01*
G01X44662651Y-2507641D01*
G01X44715530Y-2527117D01*
G01X44769906Y-2543319D01*
G01X44825659Y-2556126D01*
G01X44882672Y-2565422D01*
G01X44940825Y-2571086D01*
G01X45000000Y-2573000D01*
G01X45000000Y-2573000D01*
G37*
G36*
G01X80750000Y-36300000D02*
G01X80750000Y-36300000D01*
G01X80812463Y-36297979D01*
G01X80873847Y-36292001D01*
G01X80934027Y-36282189D01*
G01X80992877Y-36268670D01*
G01X81050273Y-36251568D01*
G01X81106090Y-36231010D01*
G01X81160202Y-36207119D01*
G01X81212484Y-36180021D01*
G01X81262811Y-36149841D01*
G01X81311058Y-36116705D01*
G01X81357099Y-36080738D01*
G01X81400809Y-36042064D01*
G01X81442064Y-36000809D01*
G01X81480738Y-35957099D01*
G01X81516705Y-35911058D01*
G01X81549841Y-35862811D01*
G01X81580021Y-35812484D01*
G01X81607119Y-35760202D01*
G01X81631010Y-35706090D01*
G01X81651568Y-35650273D01*
G01X81668670Y-35592877D01*
G01X81682189Y-35534027D01*
G01X81692001Y-35473847D01*
G01X81697979Y-35412463D01*
G01X81700000Y-35350000D01*
G01X81700000Y-35350000D01*
G01X81700000Y-35350000D01*
G01X81697979Y-35287537D01*
G01X81692001Y-35226153D01*
G01X81682189Y-35165973D01*
G01X81668670Y-35107123D01*
G01X81651568Y-35049727D01*
G01X81631010Y-34993910D01*
G01X81607119Y-34939798D01*
G01X81580021Y-34887516D01*
G01X81549841Y-34837189D01*
G01X81516705Y-34788942D01*
G01X81480738Y-34742901D01*
G01X81442064Y-34699191D01*
G01X81400809Y-34657936D01*
G01X81357099Y-34619262D01*
G01X81311058Y-34583295D01*
G01X81262811Y-34550159D01*
G01X81212484Y-34519979D01*
G01X81160202Y-34492881D01*
G01X81106090Y-34468990D01*
G01X81050273Y-34448432D01*
G01X80992877Y-34431330D01*
G01X80934027Y-34417811D01*
G01X80873847Y-34407999D01*
G01X80812463Y-34402021D01*
G01X80750000Y-34400000D01*
G01X80750000Y-34400000D01*
G01X80750000Y-34400000D01*
G01X80687537Y-34402021D01*
G01X80626153Y-34407999D01*
G01X80565973Y-34417811D01*
G01X80507123Y-34431330D01*
G01X80449727Y-34448432D01*
G01X80393910Y-34468990D01*
G01X80339798Y-34492881D01*
G01X80287516Y-34519979D01*
G01X80237189Y-34550159D01*
G01X80188942Y-34583295D01*
G01X80142901Y-34619262D01*
G01X80099191Y-34657936D01*
G01X80057936Y-34699191D01*
G01X80019262Y-34742901D01*
G01X79983295Y-34788942D01*
G01X79950159Y-34837189D01*
G01X79919979Y-34887516D01*
G01X79892881Y-34939798D01*
G01X79868990Y-34993910D01*
G01X79848432Y-35049727D01*
G01X79831330Y-35107123D01*
G01X79817811Y-35165973D01*
G01X79807999Y-35226153D01*
G01X79802021Y-35287537D01*
G01X79800000Y-35350000D01*
G01X79800000Y-35350000D01*
G01X79800000Y-35350000D01*
G01X79802021Y-35412463D01*
G01X79807999Y-35473847D01*
G01X79817811Y-35534027D01*
G01X79831330Y-35592877D01*
G01X79848432Y-35650273D01*
G01X79868990Y-35706090D01*
G01X79892881Y-35760202D01*
G01X79919979Y-35812484D01*
G01X79950159Y-35862811D01*
G01X79983295Y-35911058D01*
G01X80019262Y-35957099D01*
G01X80057936Y-36000809D01*
G01X80099191Y-36042064D01*
G01X80142901Y-36080738D01*
G01X80188942Y-36116705D01*
G01X80237189Y-36149841D01*
G01X80287516Y-36180021D01*
G01X80339798Y-36207119D01*
G01X80393910Y-36231010D01*
G01X80449727Y-36251568D01*
G01X80507123Y-36268670D01*
G01X80565973Y-36282189D01*
G01X80626153Y-36292001D01*
G01X80687537Y-36297979D01*
G01X80750000Y-36300000D01*
G01X80750000Y-36300000D01*
G37*
G36*
G01X85750000Y-38400000D02*
G01X85750000Y-38400000D01*
G01X85812463Y-38397979D01*
G01X85873847Y-38392001D01*
G01X85934027Y-38382189D01*
G01X85992877Y-38368670D01*
G01X86050273Y-38351568D01*
G01X86106090Y-38331010D01*
G01X86160202Y-38307119D01*
G01X86212484Y-38280021D01*
G01X86262811Y-38249841D01*
G01X86311058Y-38216705D01*
G01X86357099Y-38180738D01*
G01X86400809Y-38142064D01*
G01X86442064Y-38100809D01*
G01X86480738Y-38057099D01*
G01X86516705Y-38011058D01*
G01X86549841Y-37962811D01*
G01X86580021Y-37912484D01*
G01X86607119Y-37860202D01*
G01X86631010Y-37806090D01*
G01X86651568Y-37750273D01*
G01X86668670Y-37692877D01*
G01X86682189Y-37634027D01*
G01X86692001Y-37573847D01*
G01X86697979Y-37512463D01*
G01X86700000Y-37450000D01*
G01X86700000Y-37450000D01*
G01X86700000Y-37450000D01*
G01X86697979Y-37387537D01*
G01X86692001Y-37326153D01*
G01X86682189Y-37265973D01*
G01X86668670Y-37207123D01*
G01X86651568Y-37149727D01*
G01X86631010Y-37093910D01*
G01X86607119Y-37039798D01*
G01X86580021Y-36987516D01*
G01X86549841Y-36937189D01*
G01X86516705Y-36888942D01*
G01X86480738Y-36842901D01*
G01X86442064Y-36799191D01*
G01X86400809Y-36757936D01*
G01X86357099Y-36719262D01*
G01X86311058Y-36683295D01*
G01X86262811Y-36650159D01*
G01X86212484Y-36619979D01*
G01X86160202Y-36592881D01*
G01X86106090Y-36568990D01*
G01X86050273Y-36548432D01*
G01X85992877Y-36531330D01*
G01X85934027Y-36517811D01*
G01X85873847Y-36507999D01*
G01X85812463Y-36502021D01*
G01X85750000Y-36500000D01*
G01X85750000Y-36500000D01*
G01X85750000Y-36500000D01*
G01X85687537Y-36502021D01*
G01X85626153Y-36507999D01*
G01X85565973Y-36517811D01*
G01X85507123Y-36531330D01*
G01X85449727Y-36548432D01*
G01X85393910Y-36568990D01*
G01X85339798Y-36592881D01*
G01X85287516Y-36619979D01*
G01X85237189Y-36650159D01*
G01X85188942Y-36683295D01*
G01X85142901Y-36719262D01*
G01X85099191Y-36757936D01*
G01X85057936Y-36799191D01*
G01X85019262Y-36842901D01*
G01X84983295Y-36888942D01*
G01X84950159Y-36937189D01*
G01X84919979Y-36987516D01*
G01X84892881Y-37039798D01*
G01X84868990Y-37093910D01*
G01X84848432Y-37149727D01*
G01X84831330Y-37207123D01*
G01X84817811Y-37265973D01*
G01X84807999Y-37326153D01*
G01X84802021Y-37387537D01*
G01X84800000Y-37450000D01*
G01X84800000Y-37450000D01*
G01X84800000Y-37450000D01*
G01X84802021Y-37512463D01*
G01X84807999Y-37573847D01*
G01X84817811Y-37634027D01*
G01X84831330Y-37692877D01*
G01X84848432Y-37750273D01*
G01X84868990Y-37806090D01*
G01X84892881Y-37860202D01*
G01X84919979Y-37912484D01*
G01X84950159Y-37962811D01*
G01X84983295Y-38011058D01*
G01X85019262Y-38057099D01*
G01X85057936Y-38100809D01*
G01X85099191Y-38142064D01*
G01X85142901Y-38180738D01*
G01X85188942Y-38216705D01*
G01X85237189Y-38249841D01*
G01X85287516Y-38280021D01*
G01X85339798Y-38307119D01*
G01X85393910Y-38331010D01*
G01X85449727Y-38351568D01*
G01X85507123Y-38368670D01*
G01X85565973Y-38382189D01*
G01X85626153Y-38392001D01*
G01X85687537Y-38397979D01*
G01X85750000Y-38400000D01*
G01X85750000Y-38400000D01*
G37*
G36*
G01X56312588Y-31523956D02*
G01X55468454Y-31523480D01*
G01X55468454Y-31523480D01*
G01X55478682Y-31479650D01*
G01X55488721Y-31434949D01*
G01X55498571Y-31389410D01*
G01X55508229Y-31343066D01*
G01X55517697Y-31295951D01*
G01X55526972Y-31248100D01*
G01X55536054Y-31199545D01*
G01X55544943Y-31150321D01*
G01X55553638Y-31100461D01*
G01X55562138Y-31049999D01*
G01X55570442Y-30998969D01*
G01X55578550Y-30947404D01*
G01X55586460Y-30895339D01*
G01X55594173Y-30842806D01*
G01X55601687Y-30789840D01*
G01X55609002Y-30736475D01*
G01X55616117Y-30682743D01*
G01X55623032Y-30628680D01*
G01X55629745Y-30574318D01*
G01X55636255Y-30519692D01*
G01X55642563Y-30464835D01*
G01X55648668Y-30409780D01*
G01X55654568Y-30354562D01*
G01X55660263Y-30299215D01*
G01X55665752Y-30243771D01*
G01X55671035Y-30188265D01*
G01X55676111Y-30132731D01*
G01X55680978Y-30077202D01*
G01X55685638Y-30021712D01*
G01X55690087Y-29966295D01*
G01X55694327Y-29910984D01*
G01X55698356Y-29855813D01*
G01X55702174Y-29800816D01*
G01X55705779Y-29746027D01*
G01X55709172Y-29691479D01*
G01X55712351Y-29637207D01*
G01X55715315Y-29583243D01*
G01X55718064Y-29529622D01*
G01X55720598Y-29476377D01*
G01X55722915Y-29423542D01*
G01X55725015Y-29371151D01*
G01X55726896Y-29319238D01*
G01X55728560Y-29267836D01*
G01X55730003Y-29216979D01*
G01X55731227Y-29166700D01*
G01X55732230Y-29117034D01*
G01X55733011Y-29068015D01*
G01X55733570Y-29019675D01*
G01X55733906Y-28972049D01*
G01X55734018Y-28925170D01*
G01X55734018Y-28925170D01*
G01X55734018Y-28925170D01*
G01X55733907Y-28878508D01*
G01X55733575Y-28831439D01*
G01X55733022Y-28783982D01*
G01X55732250Y-28736157D01*
G01X55731258Y-28687983D01*
G01X55730047Y-28639481D01*
G01X55728618Y-28590668D01*
G01X55726972Y-28541566D01*
G01X55725109Y-28492194D01*
G01X55723030Y-28442571D01*
G01X55720735Y-28392716D01*
G01X55718226Y-28342650D01*
G01X55715502Y-28292392D01*
G01X55712565Y-28241961D01*
G01X55709414Y-28191377D01*
G01X55706051Y-28140660D01*
G01X55702477Y-28089829D01*
G01X55698691Y-28038903D01*
G01X55694695Y-27987903D01*
G01X55690489Y-27936847D01*
G01X55686073Y-27885756D01*
G01X55681449Y-27834649D01*
G01X55676618Y-27783545D01*
G01X55671578Y-27732464D01*
G01X55666333Y-27681426D01*
G01X55660880Y-27630450D01*
G01X55655223Y-27579556D01*
G01X55649361Y-27528763D01*
G01X55643294Y-27478091D01*
G01X55637024Y-27427559D01*
G01X55630551Y-27377187D01*
G01X55623876Y-27326994D01*
G01X55616999Y-27277001D01*
G01X55609921Y-27227226D01*
G01X55602643Y-27177689D01*
G01X55595165Y-27128410D01*
G01X55587487Y-27079409D01*
G01X55579612Y-27030704D01*
G01X55571538Y-26982316D01*
G01X55563267Y-26934263D01*
G01X55554799Y-26886566D01*
G01X55546136Y-26839244D01*
G01X55537277Y-26792317D01*
G01X55528223Y-26745804D01*
G01X55518975Y-26699725D01*
G01X55509534Y-26654099D01*
G01X55499900Y-26608946D01*
G01X55490074Y-26564285D01*
G01X55480056Y-26520137D01*
G01X55469847Y-26476519D01*
G01X55469847Y-26476519D01*
G01X56312588Y-26476043D01*
G01X57004639Y-26476519D01*
G01X57004639Y-26476519D01*
G01X57002731Y-26476996D01*
G01X57002731Y-26476996D01*
G01X57002731Y-26476996D01*
G01X57040440Y-26480727D01*
G01X57076451Y-26491283D01*
G01X57109118Y-26507902D01*
G01X57109118Y-26507902D01*
G01X57141315Y-26527717D01*
G01X57172851Y-26558575D01*
G01X57195278Y-26609539D01*
G01X57195278Y-26609539D01*
G01X57208792Y-26671505D01*
G01X57221935Y-26734618D01*
G01X57234706Y-26798814D01*
G01X57247100Y-26864027D01*
G01X57259117Y-26930192D01*
G01X57270752Y-26997243D01*
G01X57282004Y-27065114D01*
G01X57292870Y-27133741D01*
G01X57303348Y-27203057D01*
G01X57313434Y-27272998D01*
G01X57323126Y-27343497D01*
G01X57332422Y-27414490D01*
G01X57341319Y-27485910D01*
G01X57349815Y-27557692D01*
G01X57357907Y-27629772D01*
G01X57365592Y-27702083D01*
G01X57372867Y-27774559D01*
G01X57379731Y-27847136D01*
G01X57386181Y-27919748D01*
G01X57392213Y-27992330D01*
G01X57397826Y-28064815D01*
G01X57403017Y-28137139D01*
G01X57407783Y-28209236D01*
G01X57412122Y-28281040D01*
G01X57416032Y-28352487D01*
G01X57419508Y-28423510D01*
G01X57422550Y-28494044D01*
G01X57425154Y-28564023D01*
G01X57427318Y-28633383D01*
G01X57429040Y-28702058D01*
G01X57430316Y-28769981D01*
G01X57431144Y-28837089D01*
G01X57431521Y-28903314D01*
G01X57431547Y-28925182D01*
G01X57431547Y-28925182D01*
G01X57431487Y-28968972D01*
G01X57431307Y-29013508D01*
G01X57431002Y-29058757D01*
G01X57430567Y-29104687D01*
G01X57429999Y-29151263D01*
G01X57429292Y-29198452D01*
G01X57428443Y-29246222D01*
G01X57427447Y-29294539D01*
G01X57426301Y-29343370D01*
G01X57424999Y-29392681D01*
G01X57423537Y-29442440D01*
G01X57421912Y-29492613D01*
G01X57420119Y-29543167D01*
G01X57418153Y-29594069D01*
G01X57416010Y-29645286D01*
G01X57413686Y-29696784D01*
G01X57411177Y-29748529D01*
G01X57408478Y-29800490D01*
G01X57405585Y-29852633D01*
G01X57402494Y-29904924D01*
G01X57399200Y-29957330D01*
G01X57395699Y-30009818D01*
G01X57391987Y-30062355D01*
G01X57388060Y-30114908D01*
G01X57383912Y-30167443D01*
G01X57379541Y-30219927D01*
G01X57374941Y-30272327D01*
G01X57370109Y-30324609D01*
G01X57365039Y-30376742D01*
G01X57359728Y-30428690D01*
G01X57354172Y-30480422D01*
G01X57348365Y-30531903D01*
G01X57342305Y-30583101D01*
G01X57335986Y-30633982D01*
G01X57329404Y-30684514D01*
G01X57322555Y-30734662D01*
G01X57315434Y-30784395D01*
G01X57308038Y-30833677D01*
G01X57300362Y-30882477D01*
G01X57292401Y-30930761D01*
G01X57284152Y-30978496D01*
G01X57275610Y-31025649D01*
G01X57266770Y-31072186D01*
G01X57257629Y-31118074D01*
G01X57248183Y-31163280D01*
G01X57238426Y-31207771D01*
G01X57228354Y-31251514D01*
G01X57217964Y-31294475D01*
G01X57207251Y-31336621D01*
G01X57196210Y-31377918D01*
G01X57196210Y-31377918D01*
G01X57196210Y-31377918D01*
G01X57181016Y-31418384D01*
G01X57156968Y-31464031D01*
G01X57131099Y-31497446D01*
G01X57131099Y-31497446D01*
G01X57091701Y-31515900D01*
G01X57045611Y-31521924D01*
G01X57014362Y-31523483D01*
G37*
G36*
G01X33687412Y-26476044D02*
G01X34531546Y-26476520D01*
G01X34531546Y-26476520D01*
G01X34521318Y-26520350D01*
G01X34511279Y-26565051D01*
G01X34501429Y-26610590D01*
G01X34491771Y-26656934D01*
G01X34482303Y-26704049D01*
G01X34473028Y-26751900D01*
G01X34463946Y-26800455D01*
G01X34455057Y-26849679D01*
G01X34446362Y-26899539D01*
G01X34437862Y-26950001D01*
G01X34429558Y-27001031D01*
G01X34421450Y-27052596D01*
G01X34413540Y-27104661D01*
G01X34405827Y-27157194D01*
G01X34398313Y-27210160D01*
G01X34390998Y-27263525D01*
G01X34383883Y-27317257D01*
G01X34376968Y-27371320D01*
G01X34370255Y-27425682D01*
G01X34363745Y-27480308D01*
G01X34357437Y-27535165D01*
G01X34351332Y-27590220D01*
G01X34345432Y-27645438D01*
G01X34339737Y-27700785D01*
G01X34334248Y-27756229D01*
G01X34328965Y-27811735D01*
G01X34323889Y-27867269D01*
G01X34319022Y-27922798D01*
G01X34314362Y-27978288D01*
G01X34309913Y-28033705D01*
G01X34305673Y-28089016D01*
G01X34301644Y-28144187D01*
G01X34297826Y-28199184D01*
G01X34294221Y-28253973D01*
G01X34290828Y-28308521D01*
G01X34287649Y-28362793D01*
G01X34284685Y-28416757D01*
G01X34281936Y-28470378D01*
G01X34279402Y-28523623D01*
G01X34277085Y-28576458D01*
G01X34274985Y-28628849D01*
G01X34273104Y-28680762D01*
G01X34271440Y-28732164D01*
G01X34269997Y-28783021D01*
G01X34268773Y-28833300D01*
G01X34267770Y-28882966D01*
G01X34266989Y-28931985D01*
G01X34266430Y-28980325D01*
G01X34266094Y-29027951D01*
G01X34265982Y-29074830D01*
G01X34265982Y-29074830D01*
G01X34265982Y-29074830D01*
G01X34266093Y-29121492D01*
G01X34266425Y-29168561D01*
G01X34266978Y-29216018D01*
G01X34267750Y-29263843D01*
G01X34268742Y-29312017D01*
G01X34269953Y-29360519D01*
G01X34271382Y-29409332D01*
G01X34273028Y-29458434D01*
G01X34274891Y-29507806D01*
G01X34276970Y-29557429D01*
G01X34279265Y-29607284D01*
G01X34281774Y-29657350D01*
G01X34284498Y-29707608D01*
G01X34287435Y-29758039D01*
G01X34290586Y-29808623D01*
G01X34293949Y-29859340D01*
G01X34297523Y-29910171D01*
G01X34301309Y-29961097D01*
G01X34305305Y-30012097D01*
G01X34309511Y-30063153D01*
G01X34313927Y-30114244D01*
G01X34318551Y-30165351D01*
G01X34323382Y-30216455D01*
G01X34328422Y-30267536D01*
G01X34333667Y-30318574D01*
G01X34339120Y-30369550D01*
G01X34344777Y-30420444D01*
G01X34350639Y-30471237D01*
G01X34356706Y-30521909D01*
G01X34362976Y-30572441D01*
G01X34369449Y-30622813D01*
G01X34376124Y-30673006D01*
G01X34383001Y-30722999D01*
G01X34390079Y-30772774D01*
G01X34397357Y-30822311D01*
G01X34404835Y-30871590D01*
G01X34412513Y-30920591D01*
G01X34420388Y-30969296D01*
G01X34428462Y-31017684D01*
G01X34436733Y-31065737D01*
G01X34445201Y-31113434D01*
G01X34453864Y-31160756D01*
G01X34462723Y-31207683D01*
G01X34471777Y-31254196D01*
G01X34481025Y-31300275D01*
G01X34490466Y-31345901D01*
G01X34500100Y-31391054D01*
G01X34509926Y-31435715D01*
G01X34519944Y-31479863D01*
G01X34530153Y-31523481D01*
G01X34530153Y-31523481D01*
G01X33687412Y-31523957D01*
G01X32995361Y-31523481D01*
G01X32995361Y-31523481D01*
G01X32997269Y-31523004D01*
G01X32997269Y-31523004D01*
G01X32997269Y-31523004D01*
G01X32959560Y-31519273D01*
G01X32923549Y-31508717D01*
G01X32890882Y-31492098D01*
G01X32890882Y-31492098D01*
G01X32858685Y-31472283D01*
G01X32827149Y-31441425D01*
G01X32804722Y-31390461D01*
G01X32804722Y-31390461D01*
G01X32791208Y-31328495D01*
G01X32778065Y-31265382D01*
G01X32765294Y-31201186D01*
G01X32752900Y-31135973D01*
G01X32740883Y-31069808D01*
G01X32729248Y-31002757D01*
G01X32717996Y-30934886D01*
G01X32707130Y-30866259D01*
G01X32696652Y-30796943D01*
G01X32686566Y-30727002D01*
G01X32676874Y-30656503D01*
G01X32667578Y-30585510D01*
G01X32658681Y-30514090D01*
G01X32650185Y-30442308D01*
G01X32642093Y-30370228D01*
G01X32634408Y-30297917D01*
G01X32627133Y-30225441D01*
G01X32620269Y-30152864D01*
G01X32613819Y-30080252D01*
G01X32607787Y-30007670D01*
G01X32602174Y-29935185D01*
G01X32596983Y-29862861D01*
G01X32592217Y-29790764D01*
G01X32587878Y-29718960D01*
G01X32583968Y-29647513D01*
G01X32580492Y-29576490D01*
G01X32577450Y-29505956D01*
G01X32574846Y-29435977D01*
G01X32572682Y-29366617D01*
G01X32570960Y-29297942D01*
G01X32569684Y-29230019D01*
G01X32568856Y-29162911D01*
G01X32568479Y-29096686D01*
G01X32568453Y-29074818D01*
G01X32568453Y-29074818D01*
G01X32568513Y-29031028D01*
G01X32568693Y-28986492D01*
G01X32568998Y-28941243D01*
G01X32569433Y-28895313D01*
G01X32570001Y-28848737D01*
G01X32570708Y-28801548D01*
G01X32571557Y-28753778D01*
G01X32572553Y-28705461D01*
G01X32573699Y-28656630D01*
G01X32575001Y-28607319D01*
G01X32576463Y-28557560D01*
G01X32578088Y-28507387D01*
G01X32579881Y-28456833D01*
G01X32581847Y-28405931D01*
G01X32583990Y-28354714D01*
G01X32586314Y-28303216D01*
G01X32588823Y-28251471D01*
G01X32591522Y-28199510D01*
G01X32594415Y-28147367D01*
G01X32597506Y-28095076D01*
G01X32600800Y-28042670D01*
G01X32604301Y-27990182D01*
G01X32608013Y-27937645D01*
G01X32611940Y-27885092D01*
G01X32616088Y-27832557D01*
G01X32620459Y-27780073D01*
G01X32625059Y-27727673D01*
G01X32629891Y-27675391D01*
G01X32634961Y-27623258D01*
G01X32640272Y-27571310D01*
G01X32645828Y-27519578D01*
G01X32651635Y-27468097D01*
G01X32657695Y-27416899D01*
G01X32664014Y-27366018D01*
G01X32670596Y-27315486D01*
G01X32677445Y-27265338D01*
G01X32684566Y-27215605D01*
G01X32691962Y-27166323D01*
G01X32699638Y-27117523D01*
G01X32707599Y-27069239D01*
G01X32715848Y-27021504D01*
G01X32724390Y-26974351D01*
G01X32733230Y-26927814D01*
G01X32742371Y-26881926D01*
G01X32751817Y-26836720D01*
G01X32761574Y-26792229D01*
G01X32771646Y-26748486D01*
G01X32782036Y-26705525D01*
G01X32792749Y-26663379D01*
G01X32803790Y-26622082D01*
G01X32803790Y-26622082D01*
G01X32803790Y-26622082D01*
G01X32818984Y-26581616D01*
G01X32843032Y-26535969D01*
G01X32868901Y-26502554D01*
G01X32868901Y-26502554D01*
G01X32908299Y-26484100D01*
G01X32954389Y-26478076D01*
G01X32985638Y-26476517D01*
G37*
G36*
G01X45000000Y-36450000D02*
G01X45000000Y-36450000D01*
G01X45123199Y-36449002D01*
G01X45245916Y-36446018D01*
G01X45368134Y-36441063D01*
G01X45489840Y-36434153D01*
G01X45611016Y-36425303D01*
G01X45731648Y-36414529D01*
G01X45851721Y-36401845D01*
G01X45971219Y-36387268D01*
G01X46090126Y-36370812D01*
G01X46208429Y-36352492D01*
G01X46326110Y-36332325D01*
G01X46443156Y-36310325D01*
G01X46559549Y-36286508D01*
G01X46675276Y-36260889D01*
G01X46790321Y-36233483D01*
G01X46904669Y-36204306D01*
G01X47018303Y-36173374D01*
G01X47131209Y-36140701D01*
G01X47243372Y-36106302D01*
G01X47354776Y-36070194D01*
G01X47465406Y-36032391D01*
G01X47575246Y-35992909D01*
G01X47684282Y-35951764D01*
G01X47792497Y-35908969D01*
G01X47899876Y-35864542D01*
G01X48006405Y-35818497D01*
G01X48112067Y-35770849D01*
G01X48216848Y-35721614D01*
G01X48320732Y-35670808D01*
G01X48423704Y-35618445D01*
G01X48525748Y-35564540D01*
G01X48626849Y-35509110D01*
G01X48726992Y-35452170D01*
G01X48826162Y-35393734D01*
G01X48924342Y-35333819D01*
G01X49021518Y-35272439D01*
G01X49117675Y-35209610D01*
G01X49212796Y-35145347D01*
G01X49306868Y-35079666D01*
G01X49399873Y-35012582D01*
G01X49491798Y-34944110D01*
G01X49582626Y-34874266D01*
G01X49672343Y-34803065D01*
G01X49760933Y-34730521D01*
G01X49848380Y-34656652D01*
G01X49934670Y-34581471D01*
G01X50019787Y-34504995D01*
G01X50103715Y-34427239D01*
G01X50186440Y-34348217D01*
G01X50267946Y-34267946D01*
G01X50348217Y-34186440D01*
G01X50427239Y-34103715D01*
G01X50504995Y-34019787D01*
G01X50581471Y-33934670D01*
G01X50656652Y-33848380D01*
G01X50730521Y-33760933D01*
G01X50803065Y-33672343D01*
G01X50874266Y-33582626D01*
G01X50944110Y-33491798D01*
G01X51012582Y-33399873D01*
G01X51079666Y-33306868D01*
G01X51145347Y-33212796D01*
G01X51209610Y-33117675D01*
G01X51272439Y-33021518D01*
G01X51333819Y-32924342D01*
G01X51393734Y-32826162D01*
G01X51452170Y-32726992D01*
G01X51509110Y-32626849D01*
G01X51564540Y-32525748D01*
G01X51618445Y-32423704D01*
G01X51670808Y-32320732D01*
G01X51721614Y-32216848D01*
G01X51770849Y-32112067D01*
G01X51818497Y-32006405D01*
G01X51864542Y-31899876D01*
G01X51908969Y-31792497D01*
G01X51951764Y-31684282D01*
G01X51992909Y-31575246D01*
G01X52032391Y-31465406D01*
G01X52070194Y-31354776D01*
G01X52106302Y-31243372D01*
G01X52140701Y-31131209D01*
G01X52173374Y-31018303D01*
G01X52204306Y-30904669D01*
G01X52233483Y-30790321D01*
G01X52260889Y-30675276D01*
G01X52286508Y-30559549D01*
G01X52310325Y-30443156D01*
G01X52332325Y-30326110D01*
G01X52352492Y-30208429D01*
G01X52370812Y-30090126D01*
G01X52387268Y-29971219D01*
G01X52401845Y-29851721D01*
G01X52414529Y-29731648D01*
G01X52425303Y-29611016D01*
G01X52434153Y-29489840D01*
G01X52441063Y-29368134D01*
G01X52446018Y-29245916D01*
G01X52449002Y-29123199D01*
G01X52450000Y-29000000D01*
G01X52450000Y-29000000D01*
G01X52450000Y-29000000D01*
G01X52449002Y-28876801D01*
G01X52446018Y-28754084D01*
G01X52441063Y-28631866D01*
G01X52434153Y-28510160D01*
G01X52425303Y-28388984D01*
G01X52414529Y-28268352D01*
G01X52401845Y-28148279D01*
G01X52387268Y-28028781D01*
G01X52370812Y-27909874D01*
G01X52352492Y-27791571D01*
G01X52332325Y-27673890D01*
G01X52310325Y-27556844D01*
G01X52286508Y-27440451D01*
G01X52260889Y-27324724D01*
G01X52233483Y-27209679D01*
G01X52204306Y-27095331D01*
G01X52173374Y-26981697D01*
G01X52140701Y-26868791D01*
G01X52106302Y-26756628D01*
G01X52070194Y-26645224D01*
G01X52032391Y-26534594D01*
G01X51992909Y-26424754D01*
G01X51951764Y-26315718D01*
G01X51908969Y-26207503D01*
G01X51864542Y-26100124D01*
G01X51818497Y-25993595D01*
G01X51770849Y-25887933D01*
G01X51721614Y-25783152D01*
G01X51670808Y-25679268D01*
G01X51618445Y-25576296D01*
G01X51564540Y-25474252D01*
G01X51509110Y-25373151D01*
G01X51452170Y-25273008D01*
G01X51393734Y-25173838D01*
G01X51333819Y-25075658D01*
G01X51272439Y-24978482D01*
G01X51209610Y-24882325D01*
G01X51145347Y-24787204D01*
G01X51079666Y-24693132D01*
G01X51012582Y-24600127D01*
G01X50944110Y-24508202D01*
G01X50874266Y-24417374D01*
G01X50803065Y-24327657D01*
G01X50730521Y-24239067D01*
G01X50656652Y-24151620D01*
G01X50581471Y-24065330D01*
G01X50504995Y-23980213D01*
G01X50427239Y-23896285D01*
G01X50348217Y-23813560D01*
G01X50267946Y-23732054D01*
G01X50186440Y-23651783D01*
G01X50103715Y-23572761D01*
G01X50019787Y-23495005D01*
G01X49934670Y-23418529D01*
G01X49848380Y-23343348D01*
G01X49760933Y-23269479D01*
G01X49672343Y-23196935D01*
G01X49582626Y-23125734D01*
G01X49491798Y-23055890D01*
G01X49399873Y-22987418D01*
G01X49306868Y-22920334D01*
G01X49212796Y-22854653D01*
G01X49117675Y-22790390D01*
G01X49021518Y-22727561D01*
G01X48924342Y-22666181D01*
G01X48826162Y-22606266D01*
G01X48726992Y-22547830D01*
G01X48626849Y-22490890D01*
G01X48525748Y-22435460D01*
G01X48423704Y-22381555D01*
G01X48320732Y-22329192D01*
G01X48216848Y-22278386D01*
G01X48112067Y-22229151D01*
G01X48006405Y-22181503D01*
G01X47899876Y-22135458D01*
G01X47792497Y-22091031D01*
G01X47684282Y-22048236D01*
G01X47575246Y-22007091D01*
G01X47465406Y-21967609D01*
G01X47354776Y-21929806D01*
G01X47243372Y-21893698D01*
G01X47131209Y-21859299D01*
G01X47018303Y-21826626D01*
G01X46904669Y-21795694D01*
G01X46790321Y-21766517D01*
G01X46675276Y-21739111D01*
G01X46559549Y-21713492D01*
G01X46443156Y-21689675D01*
G01X46326110Y-21667675D01*
G01X46208429Y-21647508D01*
G01X46090126Y-21629188D01*
G01X45971219Y-21612732D01*
G01X45851721Y-21598155D01*
G01X45731648Y-21585471D01*
G01X45611016Y-21574697D01*
G01X45489840Y-21565847D01*
G01X45368134Y-21558937D01*
G01X45245916Y-21553982D01*
G01X45123199Y-21550998D01*
G01X45000000Y-21550000D01*
G01X45000000Y-21550000D01*
G01X45000000Y-21550000D01*
G01X44876801Y-21550998D01*
G01X44754084Y-21553982D01*
G01X44631866Y-21558937D01*
G01X44510160Y-21565847D01*
G01X44388984Y-21574697D01*
G01X44268352Y-21585471D01*
G01X44148279Y-21598155D01*
G01X44028781Y-21612732D01*
G01X43909874Y-21629188D01*
G01X43791571Y-21647508D01*
G01X43673890Y-21667675D01*
G01X43556844Y-21689675D01*
G01X43440451Y-21713492D01*
G01X43324724Y-21739111D01*
G01X43209679Y-21766517D01*
G01X43095331Y-21795694D01*
G01X42981697Y-21826626D01*
G01X42868791Y-21859299D01*
G01X42756628Y-21893698D01*
G01X42645224Y-21929806D01*
G01X42534594Y-21967609D01*
G01X42424754Y-22007091D01*
G01X42315718Y-22048236D01*
G01X42207503Y-22091031D01*
G01X42100124Y-22135458D01*
G01X41993595Y-22181503D01*
G01X41887933Y-22229151D01*
G01X41783152Y-22278386D01*
G01X41679268Y-22329192D01*
G01X41576296Y-22381555D01*
G01X41474252Y-22435460D01*
G01X41373151Y-22490890D01*
G01X41273008Y-22547830D01*
G01X41173838Y-22606266D01*
G01X41075658Y-22666181D01*
G01X40978482Y-22727561D01*
G01X40882325Y-22790390D01*
G01X40787204Y-22854653D01*
G01X40693132Y-22920334D01*
G01X40600127Y-22987418D01*
G01X40508202Y-23055890D01*
G01X40417374Y-23125734D01*
G01X40327657Y-23196935D01*
G01X40239067Y-23269479D01*
G01X40151620Y-23343348D01*
G01X40065330Y-23418529D01*
G01X39980213Y-23495005D01*
G01X39896285Y-23572761D01*
G01X39813560Y-23651783D01*
G01X39732054Y-23732054D01*
G01X39651783Y-23813560D01*
G01X39572761Y-23896285D01*
G01X39495005Y-23980213D01*
G01X39418529Y-24065330D01*
G01X39343348Y-24151620D01*
G01X39269479Y-24239067D01*
G01X39196935Y-24327657D01*
G01X39125734Y-24417374D01*
G01X39055890Y-24508202D01*
G01X38987418Y-24600127D01*
G01X38920334Y-24693132D01*
G01X38854653Y-24787204D01*
G01X38790390Y-24882325D01*
G01X38727561Y-24978482D01*
G01X38666181Y-25075658D01*
G01X38606266Y-25173838D01*
G01X38547830Y-25273008D01*
G01X38490890Y-25373151D01*
G01X38435460Y-25474252D01*
G01X38381555Y-25576296D01*
G01X38329192Y-25679268D01*
G01X38278386Y-25783152D01*
G01X38229151Y-25887933D01*
G01X38181503Y-25993595D01*
G01X38135458Y-26100124D01*
G01X38091031Y-26207503D01*
G01X38048236Y-26315718D01*
G01X38007091Y-26424754D01*
G01X37967609Y-26534594D01*
G01X37929806Y-26645224D01*
G01X37893698Y-26756628D01*
G01X37859299Y-26868791D01*
G01X37826626Y-26981697D01*
G01X37795694Y-27095331D01*
G01X37766517Y-27209679D01*
G01X37739111Y-27324724D01*
G01X37713492Y-27440451D01*
G01X37689675Y-27556844D01*
G01X37667675Y-27673890D01*
G01X37647508Y-27791571D01*
G01X37629188Y-27909874D01*
G01X37612732Y-28028781D01*
G01X37598155Y-28148279D01*
G01X37585471Y-28268352D01*
G01X37574697Y-28388984D01*
G01X37565847Y-28510160D01*
G01X37558937Y-28631866D01*
G01X37553982Y-28754084D01*
G01X37550998Y-28876801D01*
G01X37550000Y-29000000D01*
G01X37550000Y-29000000D01*
G01X37550000Y-29000000D01*
G01X37550998Y-29123199D01*
G01X37553982Y-29245916D01*
G01X37558937Y-29368134D01*
G01X37565847Y-29489840D01*
G01X37574697Y-29611016D01*
G01X37585471Y-29731648D01*
G01X37598155Y-29851721D01*
G01X37612732Y-29971219D01*
G01X37629188Y-30090126D01*
G01X37647508Y-30208429D01*
G01X37667675Y-30326110D01*
G01X37689675Y-30443156D01*
G01X37713492Y-30559549D01*
G01X37739111Y-30675276D01*
G01X37766517Y-30790321D01*
G01X37795694Y-30904669D01*
G01X37826626Y-31018303D01*
G01X37859299Y-31131209D01*
G01X37893698Y-31243372D01*
G01X37929806Y-31354776D01*
G01X37967609Y-31465406D01*
G01X38007091Y-31575246D01*
G01X38048236Y-31684282D01*
G01X38091031Y-31792497D01*
G01X38135458Y-31899876D01*
G01X38181503Y-32006405D01*
G01X38229151Y-32112067D01*
G01X38278386Y-32216848D01*
G01X38329192Y-32320732D01*
G01X38381555Y-32423704D01*
G01X38435460Y-32525748D01*
G01X38490890Y-32626849D01*
G01X38547830Y-32726992D01*
G01X38606266Y-32826162D01*
G01X38666181Y-32924342D01*
G01X38727561Y-33021518D01*
G01X38790390Y-33117675D01*
G01X38854653Y-33212796D01*
G01X38920334Y-33306868D01*
G01X38987418Y-33399873D01*
G01X39055890Y-33491798D01*
G01X39125734Y-33582626D01*
G01X39196935Y-33672343D01*
G01X39269479Y-33760933D01*
G01X39343348Y-33848380D01*
G01X39418529Y-33934670D01*
G01X39495005Y-34019787D01*
G01X39572761Y-34103715D01*
G01X39651783Y-34186440D01*
G01X39732054Y-34267946D01*
G01X39813560Y-34348217D01*
G01X39896285Y-34427239D01*
G01X39980213Y-34504995D01*
G01X40065330Y-34581471D01*
G01X40151620Y-34656652D01*
G01X40239067Y-34730521D01*
G01X40327657Y-34803065D01*
G01X40417374Y-34874266D01*
G01X40508202Y-34944110D01*
G01X40600127Y-35012582D01*
G01X40693132Y-35079666D01*
G01X40787204Y-35145347D01*
G01X40882325Y-35209610D01*
G01X40978482Y-35272439D01*
G01X41075658Y-35333819D01*
G01X41173838Y-35393734D01*
G01X41273008Y-35452170D01*
G01X41373151Y-35509110D01*
G01X41474252Y-35564540D01*
G01X41576296Y-35618445D01*
G01X41679268Y-35670808D01*
G01X41783152Y-35721614D01*
G01X41887933Y-35770849D01*
G01X41993595Y-35818497D01*
G01X42100124Y-35864542D01*
G01X42207503Y-35908969D01*
G01X42315718Y-35951764D01*
G01X42424754Y-35992909D01*
G01X42534594Y-36032391D01*
G01X42645224Y-36070194D01*
G01X42756628Y-36106302D01*
G01X42868791Y-36140701D01*
G01X42981697Y-36173374D01*
G01X43095331Y-36204306D01*
G01X43209679Y-36233483D01*
G01X43324724Y-36260889D01*
G01X43440451Y-36286508D01*
G01X43556844Y-36310325D01*
G01X43673890Y-36332325D01*
G01X43791571Y-36352492D01*
G01X43909874Y-36370812D01*
G01X44028781Y-36387268D01*
G01X44148279Y-36401845D01*
G01X44268352Y-36414529D01*
G01X44388984Y-36425303D01*
G01X44510160Y-36434153D01*
G01X44631866Y-36441063D01*
G01X44754084Y-36446018D01*
G01X44876801Y-36449002D01*
G01X45000000Y-36450000D01*
G01X45000000Y-36450000D01*
G37*
G36*
G01X9250000Y-3800000D02*
G01X9250000Y-3800000D01*
G01X9312463Y-3797979D01*
G01X9373847Y-3792001D01*
G01X9434027Y-3782189D01*
G01X9492877Y-3768670D01*
G01X9550273Y-3751568D01*
G01X9606090Y-3731010D01*
G01X9660202Y-3707119D01*
G01X9712484Y-3680021D01*
G01X9762811Y-3649841D01*
G01X9811058Y-3616705D01*
G01X9857099Y-3580738D01*
G01X9900809Y-3542064D01*
G01X9942064Y-3500809D01*
G01X9980738Y-3457099D01*
G01X10016705Y-3411058D01*
G01X10049841Y-3362811D01*
G01X10080021Y-3312484D01*
G01X10107119Y-3260202D01*
G01X10131010Y-3206090D01*
G01X10151568Y-3150273D01*
G01X10168670Y-3092877D01*
G01X10182189Y-3034027D01*
G01X10192001Y-2973847D01*
G01X10197979Y-2912463D01*
G01X10200000Y-2850000D01*
G01X10200000Y-2850000D01*
G01X10200000Y-2850000D01*
G01X10197979Y-2787537D01*
G01X10192001Y-2726153D01*
G01X10182189Y-2665973D01*
G01X10168670Y-2607123D01*
G01X10151568Y-2549727D01*
G01X10131010Y-2493910D01*
G01X10107119Y-2439798D01*
G01X10080021Y-2387516D01*
G01X10049841Y-2337189D01*
G01X10016705Y-2288942D01*
G01X9980738Y-2242901D01*
G01X9942064Y-2199191D01*
G01X9900809Y-2157936D01*
G01X9857099Y-2119262D01*
G01X9811058Y-2083295D01*
G01X9762811Y-2050159D01*
G01X9712484Y-2019979D01*
G01X9660202Y-1992881D01*
G01X9606090Y-1968990D01*
G01X9550273Y-1948432D01*
G01X9492877Y-1931330D01*
G01X9434027Y-1917811D01*
G01X9373847Y-1907999D01*
G01X9312463Y-1902021D01*
G01X9250000Y-1900000D01*
G01X9250000Y-1900000D01*
G01X9250000Y-1900000D01*
G01X9187537Y-1902021D01*
G01X9126153Y-1907999D01*
G01X9065973Y-1917811D01*
G01X9007123Y-1931330D01*
G01X8949727Y-1948432D01*
G01X8893910Y-1968990D01*
G01X8839798Y-1992881D01*
G01X8787516Y-2019979D01*
G01X8737189Y-2050159D01*
G01X8688942Y-2083295D01*
G01X8642901Y-2119262D01*
G01X8599191Y-2157936D01*
G01X8557936Y-2199191D01*
G01X8519262Y-2242901D01*
G01X8483295Y-2288942D01*
G01X8450159Y-2337189D01*
G01X8419979Y-2387516D01*
G01X8392881Y-2439798D01*
G01X8368990Y-2493910D01*
G01X8348432Y-2549727D01*
G01X8331330Y-2607123D01*
G01X8317811Y-2665973D01*
G01X8307999Y-2726153D01*
G01X8302021Y-2787537D01*
G01X8300000Y-2850000D01*
G01X8300000Y-2850000D01*
G01X8300000Y-2850000D01*
G01X8302021Y-2912463D01*
G01X8307999Y-2973847D01*
G01X8317811Y-3034027D01*
G01X8331330Y-3092877D01*
G01X8348432Y-3150273D01*
G01X8368990Y-3206090D01*
G01X8392881Y-3260202D01*
G01X8419979Y-3312484D01*
G01X8450159Y-3362811D01*
G01X8483295Y-3411058D01*
G01X8519262Y-3457099D01*
G01X8557936Y-3500809D01*
G01X8599191Y-3542064D01*
G01X8642901Y-3580738D01*
G01X8688942Y-3616705D01*
G01X8737189Y-3649841D01*
G01X8787516Y-3680021D01*
G01X8839798Y-3707119D01*
G01X8893910Y-3731010D01*
G01X8949727Y-3751568D01*
G01X9007123Y-3768670D01*
G01X9065973Y-3782189D01*
G01X9126153Y-3792001D01*
G01X9187537Y-3797979D01*
G01X9250000Y-3800000D01*
G01X9250000Y-3800000D01*
G37*
G36*
G01X14250000Y-5900000D02*
G01X14250000Y-5900000D01*
G01X14312463Y-5897979D01*
G01X14373847Y-5892001D01*
G01X14434027Y-5882189D01*
G01X14492877Y-5868670D01*
G01X14550273Y-5851568D01*
G01X14606090Y-5831010D01*
G01X14660202Y-5807119D01*
G01X14712484Y-5780021D01*
G01X14762811Y-5749841D01*
G01X14811058Y-5716705D01*
G01X14857099Y-5680738D01*
G01X14900809Y-5642064D01*
G01X14942064Y-5600809D01*
G01X14980738Y-5557099D01*
G01X15016705Y-5511058D01*
G01X15049841Y-5462811D01*
G01X15080021Y-5412484D01*
G01X15107119Y-5360202D01*
G01X15131010Y-5306090D01*
G01X15151568Y-5250273D01*
G01X15168670Y-5192877D01*
G01X15182189Y-5134027D01*
G01X15192001Y-5073847D01*
G01X15197979Y-5012463D01*
G01X15200000Y-4950000D01*
G01X15200000Y-4950000D01*
G01X15200000Y-4950000D01*
G01X15197979Y-4887537D01*
G01X15192001Y-4826153D01*
G01X15182189Y-4765973D01*
G01X15168670Y-4707123D01*
G01X15151568Y-4649727D01*
G01X15131010Y-4593910D01*
G01X15107119Y-4539798D01*
G01X15080021Y-4487516D01*
G01X15049841Y-4437189D01*
G01X15016705Y-4388942D01*
G01X14980738Y-4342901D01*
G01X14942064Y-4299191D01*
G01X14900809Y-4257936D01*
G01X14857099Y-4219262D01*
G01X14811058Y-4183295D01*
G01X14762811Y-4150159D01*
G01X14712484Y-4119979D01*
G01X14660202Y-4092881D01*
G01X14606090Y-4068990D01*
G01X14550273Y-4048432D01*
G01X14492877Y-4031330D01*
G01X14434027Y-4017811D01*
G01X14373847Y-4007999D01*
G01X14312463Y-4002021D01*
G01X14250000Y-4000000D01*
G01X14250000Y-4000000D01*
G01X14250000Y-4000000D01*
G01X14187537Y-4002021D01*
G01X14126153Y-4007999D01*
G01X14065973Y-4017811D01*
G01X14007123Y-4031330D01*
G01X13949727Y-4048432D01*
G01X13893910Y-4068990D01*
G01X13839798Y-4092881D01*
G01X13787516Y-4119979D01*
G01X13737189Y-4150159D01*
G01X13688942Y-4183295D01*
G01X13642901Y-4219262D01*
G01X13599191Y-4257936D01*
G01X13557936Y-4299191D01*
G01X13519262Y-4342901D01*
G01X13483295Y-4388942D01*
G01X13450159Y-4437189D01*
G01X13419979Y-4487516D01*
G01X13392881Y-4539798D01*
G01X13368990Y-4593910D01*
G01X13348432Y-4649727D01*
G01X13331330Y-4707123D01*
G01X13317811Y-4765973D01*
G01X13307999Y-4826153D01*
G01X13302021Y-4887537D01*
G01X13300000Y-4950000D01*
G01X13300000Y-4950000D01*
G01X13300000Y-4950000D01*
G01X13302021Y-5012463D01*
G01X13307999Y-5073847D01*
G01X13317811Y-5134027D01*
G01X13331330Y-5192877D01*
G01X13348432Y-5250273D01*
G01X13368990Y-5306090D01*
G01X13392881Y-5360202D01*
G01X13419979Y-5412484D01*
G01X13450159Y-5462811D01*
G01X13483295Y-5511058D01*
G01X13519262Y-5557099D01*
G01X13557936Y-5600809D01*
G01X13599191Y-5642064D01*
G01X13642901Y-5680738D01*
G01X13688942Y-5716705D01*
G01X13737189Y-5749841D01*
G01X13787516Y-5780021D01*
G01X13839798Y-5807119D01*
G01X13893910Y-5831010D01*
G01X13949727Y-5851568D01*
G01X14007123Y-5868670D01*
G01X14065973Y-5882189D01*
G01X14126153Y-5892001D01*
G01X14187537Y-5897979D01*
G01X14250000Y-5900000D01*
G01X14250000Y-5900000D01*
G37*
G36*
G01X20362474Y-5451587D02*
G01X20107347Y-5358728D01*
G01X20107347Y-5358728D01*
G01X20060046Y-5335674D01*
G01X20019793Y-5304310D01*
G01X19987265Y-5266086D01*
G01X19963137Y-5222453D01*
G01X19948086Y-5174858D01*
G01X19942786Y-5124752D01*
G01X19947915Y-5073584D01*
G01X19957929Y-5038300D01*
G01X20119021Y-4595705D01*
G01X20365617Y-3918186D01*
G01X20855667Y-4096550D01*
G01X21345717Y-4274913D01*
G01X21099120Y-4952432D01*
G01X20938029Y-5395027D01*
G01X20938029Y-5395027D01*
G01X20914974Y-5442328D01*
G01X20883610Y-5482581D01*
G01X20845387Y-5515109D01*
G01X20801753Y-5539237D01*
G01X20754159Y-5554289D01*
G01X20704053Y-5559588D01*
G01X20652885Y-5554460D01*
G01X20617601Y-5544445D01*
G01X20362474Y-5451587D01*
G37*
G36*
G01X21637526Y-1948413D02*
G01X21892653Y-2041272D01*
G01X21892653Y-2041272D01*
G01X21939954Y-2064326D01*
G01X21980207Y-2095690D01*
G01X22012735Y-2133914D01*
G01X22036863Y-2177547D01*
G01X22051914Y-2225142D01*
G01X22057214Y-2275248D01*
G01X22052085Y-2326416D01*
G01X22042071Y-2361700D01*
G01X21880979Y-2804295D01*
G01X21634383Y-3481814D01*
G01X21144333Y-3303450D01*
G01X20654283Y-3125087D01*
G01X20900880Y-2447568D01*
G01X21061971Y-2004973D01*
G01X21061971Y-2004973D01*
G01X21085026Y-1957672D01*
G01X21116390Y-1917419D01*
G01X21154613Y-1884891D01*
G01X21198247Y-1860763D01*
G01X21245841Y-1845711D01*
G01X21295947Y-1840412D01*
G01X21347115Y-1845540D01*
G01X21382399Y-1855555D01*
G01X21637526Y-1948413D01*
G37*
G36*
G01X9250000Y-36300000D02*
G01X9250000Y-36300000D01*
G01X9312463Y-36297979D01*
G01X9373847Y-36292001D01*
G01X9434027Y-36282189D01*
G01X9492877Y-36268670D01*
G01X9550273Y-36251568D01*
G01X9606090Y-36231010D01*
G01X9660202Y-36207119D01*
G01X9712484Y-36180021D01*
G01X9762811Y-36149841D01*
G01X9811058Y-36116705D01*
G01X9857099Y-36080738D01*
G01X9900809Y-36042064D01*
G01X9942064Y-36000809D01*
G01X9980738Y-35957099D01*
G01X10016705Y-35911058D01*
G01X10049841Y-35862811D01*
G01X10080021Y-35812484D01*
G01X10107119Y-35760202D01*
G01X10131010Y-35706090D01*
G01X10151568Y-35650273D01*
G01X10168670Y-35592877D01*
G01X10182189Y-35534027D01*
G01X10192001Y-35473847D01*
G01X10197979Y-35412463D01*
G01X10200000Y-35350000D01*
G01X10200000Y-35350000D01*
G01X10200000Y-35350000D01*
G01X10197979Y-35287537D01*
G01X10192001Y-35226153D01*
G01X10182189Y-35165973D01*
G01X10168670Y-35107123D01*
G01X10151568Y-35049727D01*
G01X10131010Y-34993910D01*
G01X10107119Y-34939798D01*
G01X10080021Y-34887516D01*
G01X10049841Y-34837189D01*
G01X10016705Y-34788942D01*
G01X9980738Y-34742901D01*
G01X9942064Y-34699191D01*
G01X9900809Y-34657936D01*
G01X9857099Y-34619262D01*
G01X9811058Y-34583295D01*
G01X9762811Y-34550159D01*
G01X9712484Y-34519979D01*
G01X9660202Y-34492881D01*
G01X9606090Y-34468990D01*
G01X9550273Y-34448432D01*
G01X9492877Y-34431330D01*
G01X9434027Y-34417811D01*
G01X9373847Y-34407999D01*
G01X9312463Y-34402021D01*
G01X9250000Y-34400000D01*
G01X9250000Y-34400000D01*
G01X9250000Y-34400000D01*
G01X9187537Y-34402021D01*
G01X9126153Y-34407999D01*
G01X9065973Y-34417811D01*
G01X9007123Y-34431330D01*
G01X8949727Y-34448432D01*
G01X8893910Y-34468990D01*
G01X8839798Y-34492881D01*
G01X8787516Y-34519979D01*
G01X8737189Y-34550159D01*
G01X8688942Y-34583295D01*
G01X8642901Y-34619262D01*
G01X8599191Y-34657936D01*
G01X8557936Y-34699191D01*
G01X8519262Y-34742901D01*
G01X8483295Y-34788942D01*
G01X8450159Y-34837189D01*
G01X8419979Y-34887516D01*
G01X8392881Y-34939798D01*
G01X8368990Y-34993910D01*
G01X8348432Y-35049727D01*
G01X8331330Y-35107123D01*
G01X8317811Y-35165973D01*
G01X8307999Y-35226153D01*
G01X8302021Y-35287537D01*
G01X8300000Y-35350000D01*
G01X8300000Y-35350000D01*
G01X8300000Y-35350000D01*
G01X8302021Y-35412463D01*
G01X8307999Y-35473847D01*
G01X8317811Y-35534027D01*
G01X8331330Y-35592877D01*
G01X8348432Y-35650273D01*
G01X8368990Y-35706090D01*
G01X8392881Y-35760202D01*
G01X8419979Y-35812484D01*
G01X8450159Y-35862811D01*
G01X8483295Y-35911058D01*
G01X8519262Y-35957099D01*
G01X8557936Y-36000809D01*
G01X8599191Y-36042064D01*
G01X8642901Y-36080738D01*
G01X8688942Y-36116705D01*
G01X8737189Y-36149841D01*
G01X8787516Y-36180021D01*
G01X8839798Y-36207119D01*
G01X8893910Y-36231010D01*
G01X8949727Y-36251568D01*
G01X9007123Y-36268670D01*
G01X9065973Y-36282189D01*
G01X9126153Y-36292001D01*
G01X9187537Y-36297979D01*
G01X9250000Y-36300000D01*
G01X9250000Y-36300000D01*
G37*
G36*
G01X14250000Y-38400000D02*
G01X14250000Y-38400000D01*
G01X14312463Y-38397979D01*
G01X14373847Y-38392001D01*
G01X14434027Y-38382189D01*
G01X14492877Y-38368670D01*
G01X14550273Y-38351568D01*
G01X14606090Y-38331010D01*
G01X14660202Y-38307119D01*
G01X14712484Y-38280021D01*
G01X14762811Y-38249841D01*
G01X14811058Y-38216705D01*
G01X14857099Y-38180738D01*
G01X14900809Y-38142064D01*
G01X14942064Y-38100809D01*
G01X14980738Y-38057099D01*
G01X15016705Y-38011058D01*
G01X15049841Y-37962811D01*
G01X15080021Y-37912484D01*
G01X15107119Y-37860202D01*
G01X15131010Y-37806090D01*
G01X15151568Y-37750273D01*
G01X15168670Y-37692877D01*
G01X15182189Y-37634027D01*
G01X15192001Y-37573847D01*
G01X15197979Y-37512463D01*
G01X15200000Y-37450000D01*
G01X15200000Y-37450000D01*
G01X15200000Y-37450000D01*
G01X15197979Y-37387537D01*
G01X15192001Y-37326153D01*
G01X15182189Y-37265973D01*
G01X15168670Y-37207123D01*
G01X15151568Y-37149727D01*
G01X15131010Y-37093910D01*
G01X15107119Y-37039798D01*
G01X15080021Y-36987516D01*
G01X15049841Y-36937189D01*
G01X15016705Y-36888942D01*
G01X14980738Y-36842901D01*
G01X14942064Y-36799191D01*
G01X14900809Y-36757936D01*
G01X14857099Y-36719262D01*
G01X14811058Y-36683295D01*
G01X14762811Y-36650159D01*
G01X14712484Y-36619979D01*
G01X14660202Y-36592881D01*
G01X14606090Y-36568990D01*
G01X14550273Y-36548432D01*
G01X14492877Y-36531330D01*
G01X14434027Y-36517811D01*
G01X14373847Y-36507999D01*
G01X14312463Y-36502021D01*
G01X14250000Y-36500000D01*
G01X14250000Y-36500000D01*
G01X14250000Y-36500000D01*
G01X14187537Y-36502021D01*
G01X14126153Y-36507999D01*
G01X14065973Y-36517811D01*
G01X14007123Y-36531330D01*
G01X13949727Y-36548432D01*
G01X13893910Y-36568990D01*
G01X13839798Y-36592881D01*
G01X13787516Y-36619979D01*
G01X13737189Y-36650159D01*
G01X13688942Y-36683295D01*
G01X13642901Y-36719262D01*
G01X13599191Y-36757936D01*
G01X13557936Y-36799191D01*
G01X13519262Y-36842901D01*
G01X13483295Y-36888942D01*
G01X13450159Y-36937189D01*
G01X13419979Y-36987516D01*
G01X13392881Y-37039798D01*
G01X13368990Y-37093910D01*
G01X13348432Y-37149727D01*
G01X13331330Y-37207123D01*
G01X13317811Y-37265973D01*
G01X13307999Y-37326153D01*
G01X13302021Y-37387537D01*
G01X13300000Y-37450000D01*
G01X13300000Y-37450000D01*
G01X13300000Y-37450000D01*
G01X13302021Y-37512463D01*
G01X13307999Y-37573847D01*
G01X13317811Y-37634027D01*
G01X13331330Y-37692877D01*
G01X13348432Y-37750273D01*
G01X13368990Y-37806090D01*
G01X13392881Y-37860202D01*
G01X13419979Y-37912484D01*
G01X13450159Y-37962811D01*
G01X13483295Y-38011058D01*
G01X13519262Y-38057099D01*
G01X13557936Y-38100809D01*
G01X13599191Y-38142064D01*
G01X13642901Y-38180738D01*
G01X13688942Y-38216705D01*
G01X13737189Y-38249841D01*
G01X13787516Y-38280021D01*
G01X13839798Y-38307119D01*
G01X13893910Y-38331010D01*
G01X13949727Y-38351568D01*
G01X14007123Y-38368670D01*
G01X14065973Y-38382189D01*
G01X14126153Y-38392001D01*
G01X14187537Y-38397979D01*
G01X14250000Y-38400000D01*
G01X14250000Y-38400000D01*
G37*
G36*
G01X41190000Y-10500000D02*
G01X41190000Y-10500000D01*
G01X41249175Y-10498086D01*
G01X41307328Y-10492422D01*
G01X41364341Y-10483126D01*
G01X41420094Y-10470319D01*
G01X41474470Y-10454117D01*
G01X41527349Y-10434641D01*
G01X41578613Y-10412007D01*
G01X41628143Y-10386335D01*
G01X41675821Y-10357744D01*
G01X41721528Y-10326352D01*
G01X41765146Y-10292278D01*
G01X41806556Y-10255640D01*
G01X41845640Y-10216556D01*
G01X41882278Y-10175146D01*
G01X41916352Y-10131528D01*
G01X41947744Y-10085821D01*
G01X41976335Y-10038143D01*
G01X42002007Y-9988613D01*
G01X42024641Y-9937349D01*
G01X42044117Y-9884470D01*
G01X42060319Y-9830094D01*
G01X42073126Y-9774341D01*
G01X42082422Y-9717328D01*
G01X42088086Y-9659175D01*
G01X42090000Y-9600000D01*
G01X42090000Y-9600000D01*
G01X42090000Y-9600000D01*
G01X42088086Y-9540825D01*
G01X42082422Y-9482672D01*
G01X42073126Y-9425659D01*
G01X42060319Y-9369906D01*
G01X42044117Y-9315530D01*
G01X42024641Y-9262651D01*
G01X42002007Y-9211387D01*
G01X41976335Y-9161857D01*
G01X41947744Y-9114179D01*
G01X41916352Y-9068472D01*
G01X41882278Y-9024854D01*
G01X41845640Y-8983444D01*
G01X41806556Y-8944360D01*
G01X41765146Y-8907722D01*
G01X41721528Y-8873648D01*
G01X41675821Y-8842256D01*
G01X41628143Y-8813665D01*
G01X41578613Y-8787993D01*
G01X41527349Y-8765359D01*
G01X41474470Y-8745883D01*
G01X41420094Y-8729681D01*
G01X41364341Y-8716874D01*
G01X41307328Y-8707578D01*
G01X41249175Y-8701914D01*
G01X41190000Y-8700000D01*
G01X41190000Y-8700000D01*
G01X41190000Y-8700000D01*
G01X41130825Y-8701914D01*
G01X41072672Y-8707578D01*
G01X41015659Y-8716874D01*
G01X40959906Y-8729681D01*
G01X40905530Y-8745883D01*
G01X40852651Y-8765359D01*
G01X40801387Y-8787993D01*
G01X40751857Y-8813665D01*
G01X40704179Y-8842256D01*
G01X40658472Y-8873648D01*
G01X40614854Y-8907722D01*
G01X40573444Y-8944360D01*
G01X40534360Y-8983444D01*
G01X40497722Y-9024854D01*
G01X40463648Y-9068472D01*
G01X40432256Y-9114179D01*
G01X40403665Y-9161857D01*
G01X40377993Y-9211387D01*
G01X40355359Y-9262651D01*
G01X40335883Y-9315530D01*
G01X40319681Y-9369906D01*
G01X40306874Y-9425659D01*
G01X40297578Y-9482672D01*
G01X40291914Y-9540825D01*
G01X40290000Y-9600000D01*
G01X40290000Y-9600000D01*
G01X40290000Y-9600000D01*
G01X40291914Y-9659175D01*
G01X40297578Y-9717328D01*
G01X40306874Y-9774341D01*
G01X40319681Y-9830094D01*
G01X40335883Y-9884470D01*
G01X40355359Y-9937349D01*
G01X40377993Y-9988613D01*
G01X40403665Y-10038143D01*
G01X40432256Y-10085821D01*
G01X40463648Y-10131528D01*
G01X40497722Y-10175146D01*
G01X40534360Y-10216556D01*
G01X40573444Y-10255640D01*
G01X40614854Y-10292278D01*
G01X40658472Y-10326352D01*
G01X40704179Y-10357744D01*
G01X40751857Y-10386335D01*
G01X40801387Y-10412007D01*
G01X40852651Y-10434641D01*
G01X40905530Y-10454117D01*
G01X40959906Y-10470319D01*
G01X41015659Y-10483126D01*
G01X41072672Y-10492422D01*
G01X41130825Y-10498086D01*
G01X41190000Y-10500000D01*
G01X41190000Y-10500000D01*
G37*
G36*
G01X46270000Y-10500000D02*
G01X46270000Y-10500000D01*
G01X46329175Y-10498086D01*
G01X46387328Y-10492422D01*
G01X46444341Y-10483126D01*
G01X46500094Y-10470319D01*
G01X46554470Y-10454117D01*
G01X46607349Y-10434641D01*
G01X46658613Y-10412007D01*
G01X46708143Y-10386335D01*
G01X46755821Y-10357744D01*
G01X46801528Y-10326352D01*
G01X46845146Y-10292278D01*
G01X46886556Y-10255640D01*
G01X46925640Y-10216556D01*
G01X46962278Y-10175146D01*
G01X46996352Y-10131528D01*
G01X47027744Y-10085821D01*
G01X47056335Y-10038143D01*
G01X47082007Y-9988613D01*
G01X47104641Y-9937349D01*
G01X47124117Y-9884470D01*
G01X47140319Y-9830094D01*
G01X47153126Y-9774341D01*
G01X47162422Y-9717328D01*
G01X47168086Y-9659175D01*
G01X47170000Y-9600000D01*
G01X47170000Y-9600000D01*
G01X47170000Y-9600000D01*
G01X47168086Y-9540825D01*
G01X47162422Y-9482672D01*
G01X47153126Y-9425659D01*
G01X47140319Y-9369906D01*
G01X47124117Y-9315530D01*
G01X47104641Y-9262651D01*
G01X47082007Y-9211387D01*
G01X47056335Y-9161857D01*
G01X47027744Y-9114179D01*
G01X46996352Y-9068472D01*
G01X46962278Y-9024854D01*
G01X46925640Y-8983444D01*
G01X46886556Y-8944360D01*
G01X46845146Y-8907722D01*
G01X46801528Y-8873648D01*
G01X46755821Y-8842256D01*
G01X46708143Y-8813665D01*
G01X46658613Y-8787993D01*
G01X46607349Y-8765359D01*
G01X46554470Y-8745883D01*
G01X46500094Y-8729681D01*
G01X46444341Y-8716874D01*
G01X46387328Y-8707578D01*
G01X46329175Y-8701914D01*
G01X46270000Y-8700000D01*
G01X46270000Y-8700000D01*
G01X46270000Y-8700000D01*
G01X46210825Y-8701914D01*
G01X46152672Y-8707578D01*
G01X46095659Y-8716874D01*
G01X46039906Y-8729681D01*
G01X45985530Y-8745883D01*
G01X45932651Y-8765359D01*
G01X45881387Y-8787993D01*
G01X45831857Y-8813665D01*
G01X45784179Y-8842256D01*
G01X45738472Y-8873648D01*
G01X45694854Y-8907722D01*
G01X45653444Y-8944360D01*
G01X45614360Y-8983444D01*
G01X45577722Y-9024854D01*
G01X45543648Y-9068472D01*
G01X45512256Y-9114179D01*
G01X45483665Y-9161857D01*
G01X45457993Y-9211387D01*
G01X45435359Y-9262651D01*
G01X45415883Y-9315530D01*
G01X45399681Y-9369906D01*
G01X45386874Y-9425659D01*
G01X45377578Y-9482672D01*
G01X45371914Y-9540825D01*
G01X45370000Y-9600000D01*
G01X45370000Y-9600000D01*
G01X45370000Y-9600000D01*
G01X45371914Y-9659175D01*
G01X45377578Y-9717328D01*
G01X45386874Y-9774341D01*
G01X45399681Y-9830094D01*
G01X45415883Y-9884470D01*
G01X45435359Y-9937349D01*
G01X45457993Y-9988613D01*
G01X45483665Y-10038143D01*
G01X45512256Y-10085821D01*
G01X45543648Y-10131528D01*
G01X45577722Y-10175146D01*
G01X45614360Y-10216556D01*
G01X45653444Y-10255640D01*
G01X45694854Y-10292278D01*
G01X45738472Y-10326352D01*
G01X45784179Y-10357744D01*
G01X45831857Y-10386335D01*
G01X45881387Y-10412007D01*
G01X45932651Y-10434641D01*
G01X45985530Y-10454117D01*
G01X46039906Y-10470319D01*
G01X46095659Y-10483126D01*
G01X46152672Y-10492422D01*
G01X46210825Y-10498086D01*
G01X46270000Y-10500000D01*
G01X46270000Y-10500000D01*
G37*
G36*
G01X43730000Y-10500000D02*
G01X43730000Y-10500000D01*
G01X43789175Y-10498086D01*
G01X43847328Y-10492422D01*
G01X43904341Y-10483126D01*
G01X43960094Y-10470319D01*
G01X44014470Y-10454117D01*
G01X44067349Y-10434641D01*
G01X44118613Y-10412007D01*
G01X44168143Y-10386335D01*
G01X44215821Y-10357744D01*
G01X44261528Y-10326352D01*
G01X44305146Y-10292278D01*
G01X44346556Y-10255640D01*
G01X44385640Y-10216556D01*
G01X44422278Y-10175146D01*
G01X44456352Y-10131528D01*
G01X44487744Y-10085821D01*
G01X44516335Y-10038143D01*
G01X44542007Y-9988613D01*
G01X44564641Y-9937349D01*
G01X44584117Y-9884470D01*
G01X44600319Y-9830094D01*
G01X44613126Y-9774341D01*
G01X44622422Y-9717328D01*
G01X44628086Y-9659175D01*
G01X44630000Y-9600000D01*
G01X44630000Y-9600000D01*
G01X44630000Y-9600000D01*
G01X44628086Y-9540825D01*
G01X44622422Y-9482672D01*
G01X44613126Y-9425659D01*
G01X44600319Y-9369906D01*
G01X44584117Y-9315530D01*
G01X44564641Y-9262651D01*
G01X44542007Y-9211387D01*
G01X44516335Y-9161857D01*
G01X44487744Y-9114179D01*
G01X44456352Y-9068472D01*
G01X44422278Y-9024854D01*
G01X44385640Y-8983444D01*
G01X44346556Y-8944360D01*
G01X44305146Y-8907722D01*
G01X44261528Y-8873648D01*
G01X44215821Y-8842256D01*
G01X44168143Y-8813665D01*
G01X44118613Y-8787993D01*
G01X44067349Y-8765359D01*
G01X44014470Y-8745883D01*
G01X43960094Y-8729681D01*
G01X43904341Y-8716874D01*
G01X43847328Y-8707578D01*
G01X43789175Y-8701914D01*
G01X43730000Y-8700000D01*
G01X43730000Y-8700000D01*
G01X43730000Y-8700000D01*
G01X43670825Y-8701914D01*
G01X43612672Y-8707578D01*
G01X43555659Y-8716874D01*
G01X43499906Y-8729681D01*
G01X43445530Y-8745883D01*
G01X43392651Y-8765359D01*
G01X43341387Y-8787993D01*
G01X43291857Y-8813665D01*
G01X43244179Y-8842256D01*
G01X43198472Y-8873648D01*
G01X43154854Y-8907722D01*
G01X43113444Y-8944360D01*
G01X43074360Y-8983444D01*
G01X43037722Y-9024854D01*
G01X43003648Y-9068472D01*
G01X42972256Y-9114179D01*
G01X42943665Y-9161857D01*
G01X42917993Y-9211387D01*
G01X42895359Y-9262651D01*
G01X42875883Y-9315530D01*
G01X42859681Y-9369906D01*
G01X42846874Y-9425659D01*
G01X42837578Y-9482672D01*
G01X42831914Y-9540825D01*
G01X42830000Y-9600000D01*
G01X42830000Y-9600000D01*
G01X42830000Y-9600000D01*
G01X42831914Y-9659175D01*
G01X42837578Y-9717328D01*
G01X42846874Y-9774341D01*
G01X42859681Y-9830094D01*
G01X42875883Y-9884470D01*
G01X42895359Y-9937349D01*
G01X42917993Y-9988613D01*
G01X42943665Y-10038143D01*
G01X42972256Y-10085821D01*
G01X43003648Y-10131528D01*
G01X43037722Y-10175146D01*
G01X43074360Y-10216556D01*
G01X43113444Y-10255640D01*
G01X43154854Y-10292278D01*
G01X43198472Y-10326352D01*
G01X43244179Y-10357744D01*
G01X43291857Y-10386335D01*
G01X43341387Y-10412007D01*
G01X43392651Y-10434641D01*
G01X43445530Y-10454117D01*
G01X43499906Y-10470319D01*
G01X43555659Y-10483126D01*
G01X43612672Y-10492422D01*
G01X43670825Y-10498086D01*
G01X43730000Y-10500000D01*
G01X43730000Y-10500000D01*
G37*
G36*
G01X48810000Y-10500000D02*
G01X48810000Y-10500000D01*
G01X48869175Y-10498086D01*
G01X48927328Y-10492422D01*
G01X48984341Y-10483126D01*
G01X49040094Y-10470319D01*
G01X49094470Y-10454117D01*
G01X49147349Y-10434641D01*
G01X49198613Y-10412007D01*
G01X49248143Y-10386335D01*
G01X49295821Y-10357744D01*
G01X49341528Y-10326352D01*
G01X49385146Y-10292278D01*
G01X49426556Y-10255640D01*
G01X49465640Y-10216556D01*
G01X49502278Y-10175146D01*
G01X49536352Y-10131528D01*
G01X49567744Y-10085821D01*
G01X49596335Y-10038143D01*
G01X49622007Y-9988613D01*
G01X49644641Y-9937349D01*
G01X49664117Y-9884470D01*
G01X49680319Y-9830094D01*
G01X49693126Y-9774341D01*
G01X49702422Y-9717328D01*
G01X49708086Y-9659175D01*
G01X49710000Y-9600000D01*
G01X49710000Y-9600000D01*
G01X49710000Y-9600000D01*
G01X49708086Y-9540825D01*
G01X49702422Y-9482672D01*
G01X49693126Y-9425659D01*
G01X49680319Y-9369906D01*
G01X49664117Y-9315530D01*
G01X49644641Y-9262651D01*
G01X49622007Y-9211387D01*
G01X49596335Y-9161857D01*
G01X49567744Y-9114179D01*
G01X49536352Y-9068472D01*
G01X49502278Y-9024854D01*
G01X49465640Y-8983444D01*
G01X49426556Y-8944360D01*
G01X49385146Y-8907722D01*
G01X49341528Y-8873648D01*
G01X49295821Y-8842256D01*
G01X49248143Y-8813665D01*
G01X49198613Y-8787993D01*
G01X49147349Y-8765359D01*
G01X49094470Y-8745883D01*
G01X49040094Y-8729681D01*
G01X48984341Y-8716874D01*
G01X48927328Y-8707578D01*
G01X48869175Y-8701914D01*
G01X48810000Y-8700000D01*
G01X48810000Y-8700000D01*
G01X48810000Y-8700000D01*
G01X48750825Y-8701914D01*
G01X48692672Y-8707578D01*
G01X48635659Y-8716874D01*
G01X48579906Y-8729681D01*
G01X48525530Y-8745883D01*
G01X48472651Y-8765359D01*
G01X48421387Y-8787993D01*
G01X48371857Y-8813665D01*
G01X48324179Y-8842256D01*
G01X48278472Y-8873648D01*
G01X48234854Y-8907722D01*
G01X48193444Y-8944360D01*
G01X48154360Y-8983444D01*
G01X48117722Y-9024854D01*
G01X48083648Y-9068472D01*
G01X48052256Y-9114179D01*
G01X48023665Y-9161857D01*
G01X47997993Y-9211387D01*
G01X47975359Y-9262651D01*
G01X47955883Y-9315530D01*
G01X47939681Y-9369906D01*
G01X47926874Y-9425659D01*
G01X47917578Y-9482672D01*
G01X47911914Y-9540825D01*
G01X47910000Y-9600000D01*
G01X47910000Y-9600000D01*
G01X47910000Y-9600000D01*
G01X47911914Y-9659175D01*
G01X47917578Y-9717328D01*
G01X47926874Y-9774341D01*
G01X47939681Y-9830094D01*
G01X47955883Y-9884470D01*
G01X47975359Y-9937349D01*
G01X47997993Y-9988613D01*
G01X48023665Y-10038143D01*
G01X48052256Y-10085821D01*
G01X48083648Y-10131528D01*
G01X48117722Y-10175146D01*
G01X48154360Y-10216556D01*
G01X48193444Y-10255640D01*
G01X48234854Y-10292278D01*
G01X48278472Y-10326352D01*
G01X48324179Y-10357744D01*
G01X48371857Y-10386335D01*
G01X48421387Y-10412007D01*
G01X48472651Y-10434641D01*
G01X48525530Y-10454117D01*
G01X48579906Y-10470319D01*
G01X48635659Y-10483126D01*
G01X48692672Y-10492422D01*
G01X48750825Y-10498086D01*
G01X48810000Y-10500000D01*
G01X48810000Y-10500000D01*
G37*
G36*
G01X80750000Y-3800000D02*
G01X80750000Y-3800000D01*
G01X80812463Y-3797979D01*
G01X80873847Y-3792001D01*
G01X80934027Y-3782189D01*
G01X80992877Y-3768670D01*
G01X81050273Y-3751568D01*
G01X81106090Y-3731010D01*
G01X81160202Y-3707119D01*
G01X81212484Y-3680021D01*
G01X81262811Y-3649841D01*
G01X81311058Y-3616705D01*
G01X81357099Y-3580738D01*
G01X81400809Y-3542064D01*
G01X81442064Y-3500809D01*
G01X81480738Y-3457099D01*
G01X81516705Y-3411058D01*
G01X81549841Y-3362811D01*
G01X81580021Y-3312484D01*
G01X81607119Y-3260202D01*
G01X81631010Y-3206090D01*
G01X81651568Y-3150273D01*
G01X81668670Y-3092877D01*
G01X81682189Y-3034027D01*
G01X81692001Y-2973847D01*
G01X81697979Y-2912463D01*
G01X81700000Y-2850000D01*
G01X81700000Y-2850000D01*
G01X81700000Y-2850000D01*
G01X81697979Y-2787537D01*
G01X81692001Y-2726153D01*
G01X81682189Y-2665973D01*
G01X81668670Y-2607123D01*
G01X81651568Y-2549727D01*
G01X81631010Y-2493910D01*
G01X81607119Y-2439798D01*
G01X81580021Y-2387516D01*
G01X81549841Y-2337189D01*
G01X81516705Y-2288942D01*
G01X81480738Y-2242901D01*
G01X81442064Y-2199191D01*
G01X81400809Y-2157936D01*
G01X81357099Y-2119262D01*
G01X81311058Y-2083295D01*
G01X81262811Y-2050159D01*
G01X81212484Y-2019979D01*
G01X81160202Y-1992881D01*
G01X81106090Y-1968990D01*
G01X81050273Y-1948432D01*
G01X80992877Y-1931330D01*
G01X80934027Y-1917811D01*
G01X80873847Y-1907999D01*
G01X80812463Y-1902021D01*
G01X80750000Y-1900000D01*
G01X80750000Y-1900000D01*
G01X80750000Y-1900000D01*
G01X80687537Y-1902021D01*
G01X80626153Y-1907999D01*
G01X80565973Y-1917811D01*
G01X80507123Y-1931330D01*
G01X80449727Y-1948432D01*
G01X80393910Y-1968990D01*
G01X80339798Y-1992881D01*
G01X80287516Y-2019979D01*
G01X80237189Y-2050159D01*
G01X80188942Y-2083295D01*
G01X80142901Y-2119262D01*
G01X80099191Y-2157936D01*
G01X80057936Y-2199191D01*
G01X80019262Y-2242901D01*
G01X79983295Y-2288942D01*
G01X79950159Y-2337189D01*
G01X79919979Y-2387516D01*
G01X79892881Y-2439798D01*
G01X79868990Y-2493910D01*
G01X79848432Y-2549727D01*
G01X79831330Y-2607123D01*
G01X79817811Y-2665973D01*
G01X79807999Y-2726153D01*
G01X79802021Y-2787537D01*
G01X79800000Y-2850000D01*
G01X79800000Y-2850000D01*
G01X79800000Y-2850000D01*
G01X79802021Y-2912463D01*
G01X79807999Y-2973847D01*
G01X79817811Y-3034027D01*
G01X79831330Y-3092877D01*
G01X79848432Y-3150273D01*
G01X79868990Y-3206090D01*
G01X79892881Y-3260202D01*
G01X79919979Y-3312484D01*
G01X79950159Y-3362811D01*
G01X79983295Y-3411058D01*
G01X80019262Y-3457099D01*
G01X80057936Y-3500809D01*
G01X80099191Y-3542064D01*
G01X80142901Y-3580738D01*
G01X80188942Y-3616705D01*
G01X80237189Y-3649841D01*
G01X80287516Y-3680021D01*
G01X80339798Y-3707119D01*
G01X80393910Y-3731010D01*
G01X80449727Y-3751568D01*
G01X80507123Y-3768670D01*
G01X80565973Y-3782189D01*
G01X80626153Y-3792001D01*
G01X80687537Y-3797979D01*
G01X80750000Y-3800000D01*
G01X80750000Y-3800000D01*
G37*
G36*
G01X85750000Y-5900000D02*
G01X85750000Y-5900000D01*
G01X85812463Y-5897979D01*
G01X85873847Y-5892001D01*
G01X85934027Y-5882189D01*
G01X85992877Y-5868670D01*
G01X86050273Y-5851568D01*
G01X86106090Y-5831010D01*
G01X86160202Y-5807119D01*
G01X86212484Y-5780021D01*
G01X86262811Y-5749841D01*
G01X86311058Y-5716705D01*
G01X86357099Y-5680738D01*
G01X86400809Y-5642064D01*
G01X86442064Y-5600809D01*
G01X86480738Y-5557099D01*
G01X86516705Y-5511058D01*
G01X86549841Y-5462811D01*
G01X86580021Y-5412484D01*
G01X86607119Y-5360202D01*
G01X86631010Y-5306090D01*
G01X86651568Y-5250273D01*
G01X86668670Y-5192877D01*
G01X86682189Y-5134027D01*
G01X86692001Y-5073847D01*
G01X86697979Y-5012463D01*
G01X86700000Y-4950000D01*
G01X86700000Y-4950000D01*
G01X86700000Y-4950000D01*
G01X86697979Y-4887537D01*
G01X86692001Y-4826153D01*
G01X86682189Y-4765973D01*
G01X86668670Y-4707123D01*
G01X86651568Y-4649727D01*
G01X86631010Y-4593910D01*
G01X86607119Y-4539798D01*
G01X86580021Y-4487516D01*
G01X86549841Y-4437189D01*
G01X86516705Y-4388942D01*
G01X86480738Y-4342901D01*
G01X86442064Y-4299191D01*
G01X86400809Y-4257936D01*
G01X86357099Y-4219262D01*
G01X86311058Y-4183295D01*
G01X86262811Y-4150159D01*
G01X86212484Y-4119979D01*
G01X86160202Y-4092881D01*
G01X86106090Y-4068990D01*
G01X86050273Y-4048432D01*
G01X85992877Y-4031330D01*
G01X85934027Y-4017811D01*
G01X85873847Y-4007999D01*
G01X85812463Y-4002021D01*
G01X85750000Y-4000000D01*
G01X85750000Y-4000000D01*
G01X85750000Y-4000000D01*
G01X85687537Y-4002021D01*
G01X85626153Y-4007999D01*
G01X85565973Y-4017811D01*
G01X85507123Y-4031330D01*
G01X85449727Y-4048432D01*
G01X85393910Y-4068990D01*
G01X85339798Y-4092881D01*
G01X85287516Y-4119979D01*
G01X85237189Y-4150159D01*
G01X85188942Y-4183295D01*
G01X85142901Y-4219262D01*
G01X85099191Y-4257936D01*
G01X85057936Y-4299191D01*
G01X85019262Y-4342901D01*
G01X84983295Y-4388942D01*
G01X84950159Y-4437189D01*
G01X84919979Y-4487516D01*
G01X84892881Y-4539798D01*
G01X84868990Y-4593910D01*
G01X84848432Y-4649727D01*
G01X84831330Y-4707123D01*
G01X84817811Y-4765973D01*
G01X84807999Y-4826153D01*
G01X84802021Y-4887537D01*
G01X84800000Y-4950000D01*
G01X84800000Y-4950000D01*
G01X84800000Y-4950000D01*
G01X84802021Y-5012463D01*
G01X84807999Y-5073847D01*
G01X84817811Y-5134027D01*
G01X84831330Y-5192877D01*
G01X84848432Y-5250273D01*
G01X84868990Y-5306090D01*
G01X84892881Y-5360202D01*
G01X84919979Y-5412484D01*
G01X84950159Y-5462811D01*
G01X84983295Y-5511058D01*
G01X85019262Y-5557099D01*
G01X85057936Y-5600809D01*
G01X85099191Y-5642064D01*
G01X85142901Y-5680738D01*
G01X85188942Y-5716705D01*
G01X85237189Y-5749841D01*
G01X85287516Y-5780021D01*
G01X85339798Y-5807119D01*
G01X85393910Y-5831010D01*
G01X85449727Y-5851568D01*
G01X85507123Y-5868670D01*
G01X85565973Y-5882189D01*
G01X85626153Y-5892001D01*
G01X85687537Y-5897979D01*
G01X85750000Y-5900000D01*
G01X85750000Y-5900000D01*
G37*
G36*
G01X16600000Y-24300000D02*
G01X16600000Y-24300000D01*
G01X16648662Y-24296074D01*
G01X16694823Y-24284706D01*
G01X16737867Y-24266515D01*
G01X16777176Y-24242117D01*
G01X16812132Y-24212132D01*
G01X16842117Y-24177176D01*
G01X16866515Y-24137867D01*
G01X16884706Y-24094823D01*
G01X16896074Y-24048662D01*
G01X16900000Y-24000000D01*
G01X16900000Y-24000000D01*
G01X16900000Y-24000000D01*
G01X16896074Y-23951338D01*
G01X16884706Y-23905177D01*
G01X16866515Y-23862133D01*
G01X16842117Y-23822824D01*
G01X16812132Y-23787868D01*
G01X16777176Y-23757883D01*
G01X16737867Y-23733485D01*
G01X16694823Y-23715294D01*
G01X16648662Y-23703926D01*
G01X16600000Y-23700000D01*
G01X16600000Y-23700000D01*
G01X16600000Y-23700000D01*
G01X16551338Y-23703926D01*
G01X16505177Y-23715294D01*
G01X16462133Y-23733485D01*
G01X16422824Y-23757883D01*
G01X16387868Y-23787868D01*
G01X16357883Y-23822824D01*
G01X16333485Y-23862133D01*
G01X16315294Y-23905177D01*
G01X16303926Y-23951338D01*
G01X16300000Y-24000000D01*
G01X16300000Y-24000000D01*
G01X16300000Y-24000000D01*
G01X16303926Y-24048662D01*
G01X16315294Y-24094823D01*
G01X16333485Y-24137867D01*
G01X16357883Y-24177176D01*
G01X16387868Y-24212132D01*
G01X16422824Y-24242117D01*
G01X16462133Y-24266515D01*
G01X16505177Y-24284706D01*
G01X16551338Y-24296074D01*
G01X16600000Y-24300000D01*
G01X16600000Y-24300000D01*
G37*
G36*
G01X6414063Y-26411229D02*
G01X6414063Y-26411229D01*
G01X6462725Y-26407303D01*
G01X6508886Y-26395935D01*
G01X6551930Y-26377744D01*
G01X6591239Y-26353346D01*
G01X6626195Y-26323361D01*
G01X6656180Y-26288405D01*
G01X6680578Y-26249096D01*
G01X6698769Y-26206052D01*
G01X6710137Y-26159891D01*
G01X6714063Y-26111229D01*
G01X6714063Y-26111229D01*
G01X6714063Y-26111229D01*
G01X6710137Y-26062567D01*
G01X6698769Y-26016406D01*
G01X6680578Y-25973362D01*
G01X6656180Y-25934053D01*
G01X6626195Y-25899097D01*
G01X6591239Y-25869112D01*
G01X6551930Y-25844714D01*
G01X6508886Y-25826523D01*
G01X6462725Y-25815155D01*
G01X6414063Y-25811229D01*
G01X6414063Y-25811229D01*
G01X6414063Y-25811229D01*
G01X6365401Y-25815155D01*
G01X6319240Y-25826523D01*
G01X6276196Y-25844714D01*
G01X6236887Y-25869112D01*
G01X6201931Y-25899097D01*
G01X6171946Y-25934053D01*
G01X6147548Y-25973362D01*
G01X6129357Y-26016406D01*
G01X6117989Y-26062567D01*
G01X6114063Y-26111229D01*
G01X6114063Y-26111229D01*
G01X6114063Y-26111229D01*
G01X6117989Y-26159891D01*
G01X6129357Y-26206052D01*
G01X6147548Y-26249096D01*
G01X6171946Y-26288405D01*
G01X6201931Y-26323361D01*
G01X6236887Y-26353346D01*
G01X6276196Y-26377744D01*
G01X6319240Y-26395935D01*
G01X6365401Y-26407303D01*
G01X6414063Y-26411229D01*
G01X6414063Y-26411229D01*
G37*
G36*
G01X8908844Y-31238127D02*
G01X8908844Y-31238127D01*
G01X8957506Y-31234201D01*
G01X9003667Y-31222833D01*
G01X9046711Y-31204642D01*
G01X9086020Y-31180244D01*
G01X9120976Y-31150259D01*
G01X9150961Y-31115303D01*
G01X9175359Y-31075994D01*
G01X9193550Y-31032950D01*
G01X9204918Y-30986789D01*
G01X9208844Y-30938127D01*
G01X9208844Y-30938127D01*
G01X9208844Y-30938127D01*
G01X9204918Y-30889465D01*
G01X9193550Y-30843304D01*
G01X9175359Y-30800260D01*
G01X9150961Y-30760951D01*
G01X9120976Y-30725995D01*
G01X9086020Y-30696010D01*
G01X9046711Y-30671612D01*
G01X9003667Y-30653421D01*
G01X8957506Y-30642053D01*
G01X8908844Y-30638127D01*
G01X8908844Y-30638127D01*
G01X8908844Y-30638127D01*
G01X8860182Y-30642053D01*
G01X8814021Y-30653421D01*
G01X8770977Y-30671612D01*
G01X8731668Y-30696010D01*
G01X8696712Y-30725995D01*
G01X8666727Y-30760951D01*
G01X8642329Y-30800260D01*
G01X8624138Y-30843304D01*
G01X8612770Y-30889465D01*
G01X8608844Y-30938127D01*
G01X8608844Y-30938127D01*
G01X8608844Y-30938127D01*
G01X8612770Y-30986789D01*
G01X8624138Y-31032950D01*
G01X8642329Y-31075994D01*
G01X8666727Y-31115303D01*
G01X8696712Y-31150259D01*
G01X8731668Y-31180244D01*
G01X8770977Y-31204642D01*
G01X8814021Y-31222833D01*
G01X8860182Y-31234201D01*
G01X8908844Y-31238127D01*
G01X8908844Y-31238127D01*
G37*
G36*
G01X91400000Y-5800000D02*
G01X92600000Y-5800000D01*
G01X92600000Y-7000000D01*
G01X91400000Y-7000000D01*
G01X91400000Y-5800000D01*
G37*
G36*
G01X92850000Y-6179102D02*
G01X92850000Y-6179102D01*
G01X92867871Y-6143946D01*
G01X92867871Y-6143946D01*
G01X92924878Y-6136381D01*
G01X92929102Y-6136329D01*
G01X92963086Y-6136329D01*
G01X92963086Y-6136329D01*
G01X92959595Y-6057561D01*
G01X92956267Y-6010582D01*
G01X92955469Y-6001563D01*
G01X92955469Y-6001563D01*
G01X92995312Y-5998047D01*
G01X92995312Y-5998047D01*
G01X93049583Y-6028967D01*
G01X93052734Y-6043750D01*
G01X93052734Y-6043750D01*
G01X93050110Y-6102063D01*
G01X93048047Y-6137500D01*
G01X93048047Y-6137500D01*
G01X93143811Y-6136493D01*
G01X93205957Y-6134278D01*
G01X93239539Y-6132062D01*
G01X93249609Y-6131055D01*
G01X93249609Y-6131055D01*
G01X93249609Y-6131055D01*
G01X93254297Y-6159180D01*
G01X93254297Y-6159180D01*
G01X93241699Y-6191407D01*
G01X93241699Y-6191407D01*
G01X93201562Y-6200782D01*
G01X93201562Y-6200782D01*
G01X93143618Y-6201601D01*
G01X93078115Y-6201907D01*
G01X93045737Y-6201954D01*
G01X93045703Y-6201954D01*
G01X93045703Y-6201954D01*
G01X93044605Y-6276151D01*
G01X93043918Y-6346828D01*
G01X93043546Y-6407548D01*
G01X93043392Y-6451872D01*
G01X93043360Y-6473362D01*
G01X93043359Y-6474414D01*
G01X93043359Y-6474414D01*
G01X93050285Y-6560115D01*
G01X93062313Y-6601574D01*
G01X93066797Y-6610059D01*
G01X93066797Y-6610059D01*
G01X93121865Y-6640169D01*
G01X93144141Y-6642579D01*
G01X93144141Y-6642579D01*
G01X93208777Y-6622782D01*
G01X93230273Y-6606250D01*
G01X93230273Y-6606250D01*
G01X93251953Y-6649610D01*
G01X93251953Y-6649610D01*
G01X93221220Y-6690166D01*
G01X93220898Y-6690332D01*
G01X93220898Y-6690332D01*
G01X93159191Y-6705194D01*
G01X93145312Y-6705860D01*
G01X93145312Y-6705860D01*
G01X93067041Y-6691983D01*
G01X93021248Y-6665405D01*
G01X93004594Y-6648706D01*
G01X93004394Y-6648438D01*
G01X93004394Y-6648438D01*
G01X92978504Y-6590592D01*
G01X92966605Y-6528545D01*
G01X92963255Y-6484832D01*
G01X92963086Y-6476758D01*
G01X92963086Y-6476758D01*
G01X92964184Y-6369360D01*
G01X92964871Y-6292231D01*
G01X92965243Y-6241250D01*
G01X92965397Y-6212292D01*
G01X92965429Y-6201234D01*
G01X92965430Y-6200782D01*
G01X92965430Y-6200782D01*
G01X92916402Y-6204519D01*
G01X92856554Y-6209325D01*
G01X92853516Y-6209571D01*
G01X92853516Y-6209571D01*
G01X92850000Y-6179102D01*
G37*
G36*
G01X93325781Y-6415821D02*
G01X93325781Y-6415821D01*
G01X93334711Y-6336638D01*
G01X93355361Y-6274311D01*
G01X93378523Y-6230636D01*
G01X93394987Y-6207411D01*
G01X93397852Y-6204004D01*
G01X93397852Y-6204004D01*
G01X93455210Y-6159133D01*
G01X93514593Y-6135270D01*
G01X93562636Y-6125780D01*
G01X93585974Y-6124029D01*
G01X93586523Y-6124024D01*
G01X93586523Y-6124024D01*
G01X93663016Y-6135633D01*
G01X93721473Y-6161616D01*
G01X93759758Y-6188704D01*
G01X93775731Y-6203631D01*
G01X93776074Y-6204004D01*
G01X93776074Y-6204004D01*
G01X93813789Y-6262365D01*
G01X93835246Y-6324049D01*
G01X93845030Y-6377320D01*
G01X93847727Y-6410443D01*
G01X93847852Y-6415821D01*
G01X93847852Y-6415821D01*
G01X93838207Y-6498098D01*
G01X93816260Y-6561712D01*
G01X93792491Y-6604739D01*
G01X93777379Y-6625253D01*
G01X93776074Y-6626758D01*
G01X93776074Y-6626758D01*
G01X93718710Y-6671136D01*
G01X93659034Y-6694737D01*
G01X93610629Y-6704123D01*
G01X93587078Y-6705855D01*
G01X93586523Y-6705860D01*
G01X93586523Y-6705860D01*
G01X93510646Y-6694378D01*
G01X93452443Y-6668681D01*
G01X93414198Y-6641890D01*
G01X93398196Y-6627128D01*
G01X93397852Y-6626758D01*
G01X93397852Y-6626758D01*
G01X93359982Y-6568859D01*
G01X93338438Y-6507439D01*
G01X93328614Y-6454287D01*
G01X93325906Y-6421197D01*
G01X93325781Y-6415821D01*
G37*
%LPC*%
G36*
G01X93410156Y-6398829D02*
G01X93410156Y-6398829D01*
G01X93419067Y-6476577D01*
G01X93437619Y-6533587D01*
G01X93453542Y-6565382D01*
G01X93456738Y-6570508D01*
G01X93456738Y-6570508D01*
G01X93510512Y-6618444D01*
G01X93562378Y-6636368D01*
G01X93586499Y-6639063D01*
G01X93586523Y-6639063D01*
G01X93586523Y-6639063D01*
G01X93660509Y-6623214D01*
G01X93704800Y-6594963D01*
G01X93717187Y-6582813D01*
G01X93717187Y-6582813D01*
G01X93749323Y-6521594D01*
G01X93761875Y-6463139D01*
G01X93764059Y-6433255D01*
G01X93764062Y-6432813D01*
G01X93764062Y-6432813D01*
G01X93754871Y-6354953D01*
G01X93735736Y-6297709D01*
G01X93719312Y-6265713D01*
G01X93716016Y-6260547D01*
G01X93716016Y-6260547D01*
G01X93661665Y-6212202D01*
G01X93610255Y-6194124D01*
G01X93586548Y-6191407D01*
G01X93586523Y-6191407D01*
G01X93586523Y-6191407D01*
G01X93512703Y-6207420D01*
G01X93468706Y-6235966D01*
G01X93456445Y-6248243D01*
G01X93456445Y-6248243D01*
G01X93424711Y-6309864D01*
G01X93412316Y-6368475D01*
G01X93410159Y-6398387D01*
G01X93410156Y-6398829D01*
G37*
%LPD*%
G36*
G01X93973828Y-6142188D02*
G01X93973828Y-6142188D01*
G01X94020703Y-6132813D01*
G01X94020703Y-6132813D01*
G01X94068166Y-6168930D01*
G01X94072266Y-6192579D01*
G01X94072266Y-6192579D01*
G01X94140399Y-6152945D01*
G01X94201172Y-6132593D01*
G01X94244806Y-6125095D01*
G01X94261523Y-6124024D01*
G01X94261523Y-6124024D01*
G01X94261523Y-6124024D01*
G01X94335449Y-6138698D01*
G01X94386249Y-6167431D01*
G01X94409211Y-6187285D01*
G01X94410059Y-6188184D01*
G01X94410059Y-6188184D01*
G01X94443764Y-6245784D01*
G01X94461072Y-6309949D01*
G01X94467448Y-6362084D01*
G01X94468359Y-6383594D01*
G01X94468359Y-6383594D01*
G01X94468359Y-6383594D01*
G01X94461775Y-6459919D01*
G01X94449164Y-6516070D01*
G01X94441241Y-6540872D01*
G01X94441113Y-6541211D01*
G01X94441113Y-6541211D01*
G01X94405672Y-6604637D01*
G01X94369438Y-6645678D01*
G01X94354102Y-6659278D01*
G01X94354102Y-6659278D01*
G01X94290810Y-6691850D01*
G01X94234939Y-6704029D01*
G01X94209986Y-6705860D01*
G01X94209961Y-6705860D01*
G01X94209961Y-6705860D01*
G01X94138949Y-6693913D01*
G01X94089443Y-6673164D01*
G01X94075781Y-6665430D01*
G01X94075781Y-6665430D01*
G01X94076306Y-6722430D01*
G01X94076367Y-6728418D01*
G01X94076367Y-6728418D01*
G01X94077349Y-6797617D01*
G01X94077539Y-6805762D01*
G01X94077539Y-6805762D01*
G01X94080220Y-6864140D01*
G01X94080469Y-6868750D01*
G01X94080469Y-6868750D01*
G01X94086722Y-6932415D01*
G01X94087793Y-6939063D01*
G01X94087793Y-6939063D01*
G01X94099803Y-6988275D01*
G01X94099805Y-6988282D01*
G01X94099805Y-6988282D01*
G01X94051758Y-6997657D01*
G01X94051758Y-6997657D01*
G01X94005176Y-6982129D01*
G01X94005176Y-6982129D01*
G01X94005176Y-6982129D01*
G01X93993173Y-6929970D01*
G01X93993164Y-6929102D01*
G01X93993164Y-6929102D01*
G01X93993314Y-6861405D01*
G01X93993683Y-6790867D01*
G01X93994148Y-6725525D01*
G01X93994586Y-6673417D01*
G01X93994873Y-6642580D01*
G01X93994922Y-6637598D01*
G01X93994922Y-6637598D01*
G01X93995813Y-6541724D01*
G01X93996337Y-6471644D01*
G01X93996591Y-6425323D01*
G01X93996672Y-6400728D01*
G01X93996680Y-6395313D01*
G01X93996680Y-6395313D01*
G01X93994303Y-6296313D01*
G01X93988636Y-6224454D01*
G01X93981872Y-6176782D01*
G01X93976205Y-6150344D01*
G01X93973828Y-6142188D01*
G01X93973828Y-6142188D01*
G37*
%LPC*%
G36*
G01X94075781Y-6257618D02*
G01X94075781Y-6257618D01*
G01X94076686Y-6364310D01*
G01X94077321Y-6448442D01*
G01X94077735Y-6512056D01*
G01X94077975Y-6557191D01*
G01X94078088Y-6585889D01*
G01X94078123Y-6600191D01*
G01X94078125Y-6602735D01*
G01X94078125Y-6602735D01*
G01X94141254Y-6628358D01*
G01X94198938Y-6637750D01*
G01X94222266Y-6639063D01*
G01X94222266Y-6639063D01*
G01X94288330Y-6620752D01*
G01X94313965Y-6602442D01*
G01X94313965Y-6602442D01*
G01X94313965Y-6602442D01*
G01X94353742Y-6546459D01*
G01X94367210Y-6513918D01*
G01X94367285Y-6513672D01*
G01X94367285Y-6513672D01*
G01X94380086Y-6445912D01*
G01X94382786Y-6403661D01*
G01X94382812Y-6401172D01*
G01X94382812Y-6401172D01*
G01X94373364Y-6317118D01*
G01X94354865Y-6264788D01*
G01X94342083Y-6243135D01*
G01X94341504Y-6242383D01*
G01X94341504Y-6242383D01*
G01X94283474Y-6201353D01*
G01X94239788Y-6191616D01*
G01X94235156Y-6191407D01*
G01X94235156Y-6191407D01*
G01X94167001Y-6204882D01*
G01X94111508Y-6232390D01*
G01X94079569Y-6254552D01*
G01X94075781Y-6257618D01*
G37*
%LPD*%
G36*
G01X94845703Y-6610352D02*
G01X94845703Y-6610352D01*
G01X94883681Y-6566249D01*
G01X94899609Y-6559961D01*
G01X94899609Y-6559961D01*
G01X94940510Y-6609257D01*
G01X94956738Y-6618848D01*
G01X94956738Y-6618848D01*
G01X95022890Y-6636827D01*
G01X95051953Y-6639063D01*
G01X95051953Y-6639063D01*
G01X95119462Y-6624918D01*
G01X95135449Y-6616211D01*
G01X95135449Y-6616211D01*
G01X95165765Y-6561336D01*
G01X95167383Y-6545313D01*
G01X95167383Y-6545313D01*
G01X95140084Y-6493536D01*
G01X95135449Y-6490235D01*
G01X95135449Y-6490235D01*
G01X95075333Y-6465254D01*
G01X95058105Y-6460645D01*
G01X95058105Y-6460645D01*
G01X94991527Y-6443680D01*
G01X94966992Y-6436622D01*
G01X94966992Y-6436622D01*
G01X94908632Y-6403367D01*
G01X94889355Y-6384473D01*
G01X94889355Y-6384473D01*
G01X94862176Y-6323012D01*
G01X94857429Y-6283477D01*
G01X94857422Y-6282813D01*
G01X94857422Y-6282813D01*
G01X94877417Y-6215300D01*
G01X94910265Y-6175983D01*
G01X94919238Y-6168555D01*
G01X94919238Y-6168555D01*
G01X94984183Y-6136826D01*
G01X95038126Y-6125483D01*
G01X95058984Y-6124024D01*
G01X95058984Y-6124024D01*
G01X95127601Y-6134365D01*
G01X95167182Y-6148218D01*
G01X95169434Y-6149219D01*
G01X95169434Y-6149219D01*
G01X95218357Y-6196894D01*
G01X95223633Y-6218946D01*
G01X95223633Y-6218946D01*
G01X95185655Y-6263632D01*
G01X95169727Y-6269336D01*
G01X95169727Y-6269336D01*
G01X95128809Y-6221545D01*
G01X95115527Y-6213086D01*
G01X95115527Y-6213086D01*
G01X95051132Y-6193130D01*
G01X95030273Y-6191407D01*
G01X95030273Y-6191407D01*
G01X94968464Y-6207998D01*
G01X94959375Y-6213672D01*
G01X94959375Y-6213672D01*
G01X94930299Y-6267034D01*
G01X94929492Y-6276368D01*
G01X94929492Y-6276368D01*
G01X94956436Y-6328855D01*
G01X94961426Y-6332618D01*
G01X94961426Y-6332618D01*
G01X95020741Y-6358837D01*
G01X95038769Y-6363965D01*
G01X95038769Y-6363965D01*
G01X95104371Y-6381183D01*
G01X95129883Y-6388575D01*
G01X95129883Y-6388575D01*
G01X95189016Y-6421179D01*
G01X95207519Y-6438379D01*
G01X95207519Y-6438379D01*
G01X95235461Y-6498914D01*
G01X95239453Y-6532422D01*
G01X95239453Y-6532422D01*
G01X95239453Y-6532422D01*
G01X95223032Y-6604822D01*
G01X95193020Y-6648147D01*
G01X95178223Y-6661622D01*
G01X95178223Y-6661622D01*
G01X95113907Y-6692555D01*
G01X95057652Y-6704121D01*
G01X95032642Y-6705860D01*
G01X95032617Y-6705860D01*
G01X95032617Y-6705860D01*
G01X94958447Y-6696952D01*
G01X94911801Y-6682318D01*
G01X94902539Y-6678321D01*
G01X94902539Y-6678321D01*
G01X94851235Y-6630827D01*
G01X94845703Y-6610352D01*
G37*
G36*
G01X95341992Y-6415821D02*
G01X95341992Y-6415821D01*
G01X95350922Y-6336638D01*
G01X95371572Y-6274311D01*
G01X95394734Y-6230636D01*
G01X95411198Y-6207411D01*
G01X95414062Y-6204004D01*
G01X95414062Y-6204004D01*
G01X95471421Y-6159133D01*
G01X95530804Y-6135270D01*
G01X95578847Y-6125780D01*
G01X95602185Y-6124029D01*
G01X95602734Y-6124024D01*
G01X95602734Y-6124024D01*
G01X95679227Y-6135633D01*
G01X95737684Y-6161616D01*
G01X95775969Y-6188704D01*
G01X95791942Y-6203631D01*
G01X95792285Y-6204004D01*
G01X95792285Y-6204004D01*
G01X95830000Y-6262365D01*
G01X95851457Y-6324049D01*
G01X95861241Y-6377320D01*
G01X95863938Y-6410443D01*
G01X95864062Y-6415821D01*
G01X95864062Y-6415821D01*
G01X95854418Y-6498098D01*
G01X95832471Y-6561712D01*
G01X95808702Y-6604739D01*
G01X95793590Y-6625253D01*
G01X95792285Y-6626758D01*
G01X95792285Y-6626758D01*
G01X95734921Y-6671136D01*
G01X95675245Y-6694737D01*
G01X95626840Y-6704123D01*
G01X95603289Y-6705855D01*
G01X95602734Y-6705860D01*
G01X95602734Y-6705860D01*
G01X95526857Y-6694378D01*
G01X95468654Y-6668681D01*
G01X95430409Y-6641890D01*
G01X95414407Y-6627128D01*
G01X95414062Y-6626758D01*
G01X95414062Y-6626758D01*
G01X95376193Y-6568859D01*
G01X95354649Y-6507438D01*
G01X95344825Y-6454287D01*
G01X95342117Y-6421197D01*
G01X95341992Y-6415821D01*
G37*
%LPC*%
G36*
G01X95426367Y-6398829D02*
G01X95426367Y-6398829D01*
G01X95435278Y-6476577D01*
G01X95453830Y-6533587D01*
G01X95469753Y-6565382D01*
G01X95472949Y-6570508D01*
G01X95472949Y-6570508D01*
G01X95526723Y-6618444D01*
G01X95578589Y-6636368D01*
G01X95602709Y-6639063D01*
G01X95602734Y-6639063D01*
G01X95602734Y-6639063D01*
G01X95676720Y-6623214D01*
G01X95721011Y-6594963D01*
G01X95733398Y-6582813D01*
G01X95733398Y-6582813D01*
G01X95765534Y-6521594D01*
G01X95778086Y-6463139D01*
G01X95780270Y-6433255D01*
G01X95780273Y-6432813D01*
G01X95780273Y-6432813D01*
G01X95771082Y-6354953D01*
G01X95751946Y-6297709D01*
G01X95735523Y-6265713D01*
G01X95732227Y-6260547D01*
G01X95732227Y-6260547D01*
G01X95677876Y-6212202D01*
G01X95626466Y-6194124D01*
G01X95602759Y-6191407D01*
G01X95602734Y-6191407D01*
G01X95602734Y-6191407D01*
G01X95528914Y-6207420D01*
G01X95484917Y-6235966D01*
G01X95472656Y-6248243D01*
G01X95472656Y-6248243D01*
G01X95440922Y-6309864D01*
G01X95428527Y-6368475D01*
G01X95426370Y-6398387D01*
G01X95426367Y-6398829D01*
G37*
%LPD*%
G36*
G01X95990039Y-5805860D02*
G01X95990039Y-5805860D01*
G01X96032227Y-5802344D01*
G01X96032227Y-5802344D01*
G01X96084515Y-5833907D01*
G01X96087305Y-5848047D01*
G01X96087305Y-5848047D01*
G01X96085765Y-5904789D01*
G01X96085547Y-5912207D01*
G01X96085547Y-5912207D01*
G01X96083705Y-5976627D01*
G01X96082013Y-6037843D01*
G01X96081165Y-6069071D01*
G01X96081152Y-6069532D01*
G01X96081152Y-6069532D01*
G01X96079584Y-6144038D01*
G01X96078807Y-6208111D01*
G01X96078544Y-6251555D01*
G01X96078516Y-6264649D01*
G01X96078516Y-6451563D01*
G01X96078516Y-6451563D01*
G01X96081116Y-6541160D01*
G01X96087223Y-6609312D01*
G01X96094297Y-6656279D01*
G01X96099799Y-6682322D01*
G01X96101367Y-6688282D01*
G01X96101367Y-6688282D01*
G01X96056250Y-6697657D01*
G01X96056250Y-6697657D01*
G01X96009961Y-6683301D01*
G01X96009961Y-6683301D01*
G01X95997070Y-6635547D01*
G01X95997070Y-6635547D01*
G01X95997070Y-6635547D01*
G01X95997369Y-6585454D01*
G01X95997928Y-6518080D01*
G01X95998242Y-6482949D01*
G01X95998242Y-6482911D01*
G01X95998242Y-6482911D01*
G01X95998958Y-6393698D01*
G01X95999300Y-6332444D01*
G01X95999406Y-6299047D01*
G01X95999414Y-6292188D01*
G01X95999414Y-6152735D01*
G01X95999414Y-6152735D01*
G01X95998844Y-6039649D01*
G01X95997389Y-5953003D01*
G01X95995427Y-5889653D01*
G01X95993339Y-5846454D01*
G01X95991504Y-5820261D01*
G01X95990302Y-5807931D01*
G01X95990039Y-5805860D01*
G37*
G36*
G01X96227344Y-6415821D02*
G01X96227344Y-6415821D01*
G01X96236491Y-6337181D01*
G01X96257645Y-6275036D01*
G01X96281372Y-6231333D01*
G01X96298238Y-6208018D01*
G01X96301172Y-6204590D01*
G01X96301172Y-6204590D01*
G01X96360150Y-6158013D01*
G01X96417920Y-6134095D01*
G01X96461847Y-6125283D01*
G01X96479297Y-6124024D01*
G01X96479297Y-6124024D01*
G01X96479297Y-6124024D01*
G01X96550560Y-6135580D01*
G01X96602249Y-6156180D01*
G01X96618750Y-6165039D01*
G01X96618750Y-6165039D01*
G01X96620612Y-6086439D01*
G01X96621080Y-6044792D01*
G01X96621094Y-6040235D01*
G01X96621094Y-6040235D01*
G01X96619932Y-5951904D01*
G01X96617246Y-5882917D01*
G01X96614233Y-5834921D01*
G01X96612091Y-5809562D01*
G01X96611719Y-5805860D01*
G01X96611719Y-5805860D01*
G01X96654492Y-5802344D01*
G01X96654492Y-5802344D01*
G01X96705883Y-5834543D01*
G01X96708398Y-5848047D01*
G01X96708398Y-5848047D01*
G01X96707900Y-5889368D01*
G01X96706693Y-5952903D01*
G01X96705212Y-6022159D01*
G01X96703890Y-6080644D01*
G01X96703163Y-6111862D01*
G01X96703125Y-6113477D01*
G01X96703125Y-6113477D01*
G01X96700977Y-6210156D01*
G01X96699510Y-6287669D01*
G01X96698593Y-6347009D01*
G01X96698098Y-6389170D01*
G01X96697894Y-6415146D01*
G01X96697852Y-6425929D01*
G01X96697852Y-6426368D01*
G01X96697852Y-6426368D01*
G01X96700013Y-6526081D01*
G01X96705243Y-6598900D01*
G01X96711661Y-6648005D01*
G01X96717386Y-6676581D01*
G01X96720537Y-6687811D01*
G01X96720703Y-6688282D01*
G01X96720703Y-6688282D01*
G01X96675000Y-6697657D01*
G01X96675000Y-6697657D01*
G01X96627199Y-6661539D01*
G01X96622266Y-6637891D01*
G01X96622266Y-6637891D01*
G01X96559194Y-6681533D01*
G01X96503851Y-6700824D01*
G01X96470470Y-6705710D01*
G01X96466406Y-6705860D01*
G01X96465234Y-6705860D01*
G01X96465234Y-6705860D01*
G01X96393808Y-6691149D01*
G01X96338800Y-6659933D01*
G01X96305607Y-6631587D01*
G01X96298242Y-6623829D01*
G01X96298242Y-6623829D01*
G01X96259711Y-6562320D01*
G01X96238508Y-6499268D01*
G01X96229456Y-6447078D01*
G01X96227380Y-6418152D01*
G01X96227344Y-6415821D01*
G37*
%LPC*%
G36*
G01X96311719Y-6398829D02*
G01X96311719Y-6398829D01*
G01X96321358Y-6478780D01*
G01X96341427Y-6536803D01*
G01X96358652Y-6568884D01*
G01X96362109Y-6574024D01*
G01X96362109Y-6574024D01*
G01X96418802Y-6623752D01*
G01X96467183Y-6640728D01*
G01X96483984Y-6642579D01*
G01X96483984Y-6642579D01*
G01X96549834Y-6625109D01*
G01X96598835Y-6592410D01*
G01X96618731Y-6574044D01*
G01X96618750Y-6574024D01*
G01X96618750Y-6574024D01*
G01X96617846Y-6452175D01*
G01X96617210Y-6362406D01*
G01X96616796Y-6299935D01*
G01X96616556Y-6259980D01*
G01X96616443Y-6237760D01*
G01X96616409Y-6228492D01*
G01X96616406Y-6227149D01*
G01X96616406Y-6227149D01*
G01X96546855Y-6199519D01*
G01X96500859Y-6191787D01*
G01X96492773Y-6191407D01*
G01X96492773Y-6191407D01*
G01X96420030Y-6206650D01*
G01X96374850Y-6234507D01*
G01X96360352Y-6248243D01*
G01X96360352Y-6248243D01*
G01X96327010Y-6309864D01*
G01X96313988Y-6368475D01*
G01X96311722Y-6398387D01*
G01X96311719Y-6398829D01*
G37*
%LPD*%
G36*
G01X96846094Y-6418164D02*
G01X96846094Y-6418164D01*
G01X96856004Y-6334220D01*
G01X96878920Y-6270006D01*
G01X96904624Y-6226198D01*
G01X96922895Y-6203468D01*
G01X96926074Y-6200196D01*
G01X96926074Y-6200196D01*
G01X96989159Y-6156159D01*
G01X97049963Y-6133545D01*
G01X97095772Y-6125214D01*
G01X97113867Y-6124024D01*
G01X97113867Y-6124024D01*
G01X97113867Y-6124024D01*
G01X97189338Y-6137396D01*
G01X97236278Y-6161233D01*
G01X97249805Y-6171485D01*
G01X97249805Y-6171485D01*
G01X97290689Y-6231175D01*
G01X97301536Y-6275791D01*
G01X97301953Y-6282813D01*
G01X97301953Y-6282813D01*
G01X97290421Y-6348760D01*
G01X97285254Y-6360743D01*
G01X97285254Y-6360743D01*
G01X97245745Y-6406645D01*
G01X97241602Y-6409668D01*
G01X97241602Y-6409668D01*
G01X97182484Y-6432883D01*
G01X97163672Y-6437207D01*
G01X97163672Y-6437207D01*
G01X97094458Y-6446839D01*
G01X97063477Y-6449219D01*
G01X97063477Y-6449219D01*
G01X97063477Y-6449219D01*
G01X96998324Y-6451031D01*
G01X96944455Y-6451538D01*
G01X96933984Y-6451563D01*
G01X96933984Y-6451563D01*
G01X96952057Y-6526526D01*
G01X96975267Y-6573309D01*
G01X96985840Y-6588379D01*
G01X96985840Y-6588379D01*
G01X97042645Y-6626984D01*
G01X97092348Y-6638362D01*
G01X97103906Y-6639063D01*
G01X97103906Y-6639063D01*
G01X97179297Y-6622249D01*
G01X97220111Y-6591519D01*
G01X97231641Y-6576368D01*
G01X97231641Y-6576368D01*
G01X97277804Y-6619079D01*
G01X97279102Y-6626758D01*
G01X97279102Y-6626758D01*
G01X97243791Y-6674261D01*
G01X97224609Y-6684180D01*
G01X97224609Y-6684180D01*
G01X97156616Y-6701407D01*
G01X97108816Y-6705733D01*
G01X97102734Y-6705860D01*
G01X97102734Y-6705860D01*
G01X97026141Y-6694736D01*
G01X96967895Y-6670264D01*
G01X96930853Y-6645792D01*
G01X96917871Y-6634668D01*
G01X96917871Y-6634668D01*
G01X96917871Y-6634668D01*
G01X96880156Y-6579256D01*
G01X96858699Y-6516338D01*
G01X96848915Y-6459934D01*
G01X96846218Y-6424063D01*
G01X96846094Y-6418164D01*
G37*
%LPC*%
G36*
G01X96932812Y-6391797D02*
G01X96932812Y-6391797D01*
G01X97003072Y-6391055D01*
G01X97018945Y-6390625D01*
G01X97018945Y-6390625D01*
G01X97081904Y-6384997D01*
G01X97094531Y-6383301D01*
G01X97094531Y-6383301D01*
G01X97155604Y-6368374D01*
G01X97160742Y-6366309D01*
G01X97160742Y-6366309D01*
G01X97202004Y-6335308D01*
G01X97202051Y-6335254D01*
G01X97202051Y-6335254D01*
G01X97219330Y-6285582D01*
G01X97219336Y-6285157D01*
G01X97219336Y-6285157D01*
G01X97196181Y-6227423D01*
G01X97187695Y-6218360D01*
G01X97187695Y-6218360D01*
G01X97128538Y-6192173D01*
G01X97109180Y-6190235D01*
G01X97109180Y-6190235D01*
G01X97039358Y-6205463D01*
G01X96995946Y-6231202D01*
G01X96986133Y-6239454D01*
G01X96986133Y-6239454D01*
G01X96951366Y-6296090D01*
G01X96936368Y-6355740D01*
G01X96932863Y-6390335D01*
G01X96932812Y-6391797D01*
G37*
%LPD*%
G36*
G01X97427930Y-6136329D02*
G01X97427930Y-6136329D01*
G01X97468945Y-6132813D01*
G01X97468945Y-6132813D01*
G01X97518481Y-6165830D01*
G01X97520508Y-6177930D01*
G01X97520508Y-6177930D01*
G01X97519922Y-6194336D01*
G01X97519922Y-6194336D01*
G01X97519336Y-6220118D01*
G01X97519336Y-6220118D01*
G01X97563492Y-6170230D01*
G01X97583496Y-6153614D01*
G01X97583496Y-6153614D01*
G01X97645738Y-6126063D01*
G01X97662891Y-6124024D01*
G01X97662891Y-6124024D01*
G01X97706250Y-6136622D01*
G01X97706250Y-6136622D01*
G01X97722070Y-6170899D01*
G01X97722070Y-6170899D01*
G01X97699695Y-6222581D01*
G01X97698047Y-6224805D01*
G01X97698047Y-6224805D01*
G01X97643883Y-6202165D01*
G01X97640039Y-6201954D01*
G01X97640039Y-6201954D01*
G01X97581650Y-6222290D01*
G01X97572949Y-6228321D01*
G01X97572949Y-6228321D01*
G01X97528655Y-6278005D01*
G01X97516406Y-6298047D01*
G01X97516406Y-6298047D01*
G01X97515587Y-6355096D01*
G01X97515280Y-6418922D01*
G01X97515234Y-6450358D01*
G01X97515234Y-6450391D01*
G01X97515234Y-6450391D01*
G01X97517834Y-6541043D01*
G01X97523941Y-6609580D01*
G01X97531016Y-6656523D01*
G01X97536518Y-6682393D01*
G01X97538086Y-6688282D01*
G01X97538086Y-6688282D01*
G01X97492383Y-6697657D01*
G01X97492383Y-6697657D01*
G01X97445801Y-6682129D01*
G01X97445801Y-6682129D01*
G01X97445801Y-6682129D01*
G01X97433798Y-6629970D01*
G01X97433789Y-6629102D01*
G01X97433789Y-6629102D01*
G01X97434428Y-6570743D01*
G01X97434961Y-6534473D01*
G01X97434961Y-6534473D01*
G01X97435916Y-6456431D01*
G01X97436130Y-6419448D01*
G01X97436133Y-6416993D01*
G01X97436133Y-6416993D01*
G01X97435431Y-6330650D01*
G01X97433709Y-6258114D01*
G01X97431540Y-6201006D01*
G01X97429499Y-6160946D01*
G01X97428159Y-6139552D01*
G01X97427930Y-6136329D01*
G37*
G36*
G01X97805859Y-6142188D02*
G01X97805859Y-6142188D01*
G01X97852734Y-6132813D01*
G01X97852734Y-6132813D01*
G01X97900197Y-6168930D01*
G01X97904297Y-6192579D01*
G01X97904297Y-6192579D01*
G01X97972430Y-6152945D01*
G01X98033203Y-6132593D01*
G01X98076837Y-6125095D01*
G01X98093555Y-6124024D01*
G01X98093555Y-6124024D01*
G01X98093555Y-6124024D01*
G01X98167481Y-6138698D01*
G01X98218281Y-6167431D01*
G01X98241242Y-6187285D01*
G01X98242090Y-6188184D01*
G01X98242090Y-6188184D01*
G01X98275795Y-6245784D01*
G01X98293103Y-6309949D01*
G01X98299480Y-6362084D01*
G01X98300391Y-6383594D01*
G01X98300391Y-6383594D01*
G01X98300391Y-6383594D01*
G01X98293806Y-6459919D01*
G01X98281195Y-6516070D01*
G01X98273272Y-6540872D01*
G01X98273145Y-6541211D01*
G01X98273145Y-6541211D01*
G01X98237703Y-6604637D01*
G01X98201469Y-6645678D01*
G01X98186133Y-6659278D01*
G01X98186133Y-6659278D01*
G01X98122842Y-6691850D01*
G01X98066970Y-6704029D01*
G01X98042017Y-6705860D01*
G01X98041992Y-6705860D01*
G01X98041992Y-6705860D01*
G01X97970980Y-6693913D01*
G01X97921474Y-6673164D01*
G01X97907812Y-6665430D01*
G01X97907812Y-6665430D01*
G01X97908337Y-6722430D01*
G01X97908398Y-6728418D01*
G01X97908398Y-6728418D01*
G01X97909380Y-6797617D01*
G01X97909570Y-6805762D01*
G01X97909570Y-6805762D01*
G01X97912252Y-6864140D01*
G01X97912500Y-6868750D01*
G01X97912500Y-6868750D01*
G01X97918753Y-6932415D01*
G01X97919824Y-6939063D01*
G01X97919824Y-6939063D01*
G01X97931834Y-6988275D01*
G01X97931836Y-6988282D01*
G01X97931836Y-6988282D01*
G01X97883789Y-6997657D01*
G01X97883789Y-6997657D01*
G01X97837207Y-6982129D01*
G01X97837207Y-6982129D01*
G01X97837207Y-6982129D01*
G01X97825204Y-6929970D01*
G01X97825195Y-6929102D01*
G01X97825195Y-6929102D01*
G01X97825346Y-6861405D01*
G01X97825715Y-6790867D01*
G01X97826179Y-6725525D01*
G01X97826617Y-6673417D01*
G01X97826904Y-6642580D01*
G01X97826953Y-6637598D01*
G01X97826953Y-6637598D01*
G01X97827844Y-6541724D01*
G01X97828368Y-6471644D01*
G01X97828622Y-6425323D01*
G01X97828704Y-6400728D01*
G01X97828711Y-6395313D01*
G01X97828711Y-6395313D01*
G01X97826334Y-6296313D01*
G01X97820667Y-6224454D01*
G01X97813903Y-6176782D01*
G01X97808236Y-6150344D01*
G01X97805859Y-6142188D01*
G01X97805859Y-6142188D01*
G37*
%LPC*%
G36*
G01X97907812Y-6257618D02*
G01X97907812Y-6257618D01*
G01X97908717Y-6364310D01*
G01X97909352Y-6448442D01*
G01X97909766Y-6512056D01*
G01X97910006Y-6557191D01*
G01X97910120Y-6585889D01*
G01X97910154Y-6600191D01*
G01X97910156Y-6602735D01*
G01X97910156Y-6602735D01*
G01X97973285Y-6628358D01*
G01X98030969Y-6637750D01*
G01X98054297Y-6639063D01*
G01X98054297Y-6639063D01*
G01X98120361Y-6620752D01*
G01X98145996Y-6602442D01*
G01X98145996Y-6602442D01*
G01X98145996Y-6602442D01*
G01X98185773Y-6546459D01*
G01X98199241Y-6513918D01*
G01X98199316Y-6513672D01*
G01X98199316Y-6513672D01*
G01X98212117Y-6445912D01*
G01X98214817Y-6403661D01*
G01X98214844Y-6401172D01*
G01X98214844Y-6401172D01*
G01X98205396Y-6317118D01*
G01X98186897Y-6264788D01*
G01X98174114Y-6243135D01*
G01X98173535Y-6242383D01*
G01X98173535Y-6242383D01*
G01X98115505Y-6201353D01*
G01X98071819Y-6191616D01*
G01X98067187Y-6191407D01*
G01X98067187Y-6191407D01*
G01X97999032Y-6204882D01*
G01X97943540Y-6232390D01*
G01X97911600Y-6254552D01*
G01X97907812Y-6257618D01*
G37*
%LPD*%
G36*
G01X98407617Y-6537110D02*
G01X98407617Y-6537110D01*
G01X98422833Y-6467540D01*
G01X98436328Y-6447168D01*
G01X98436328Y-6447168D01*
G01X98491385Y-6412388D01*
G01X98515430Y-6403516D01*
G01X98515430Y-6403516D01*
G01X98579977Y-6389877D01*
G01X98646572Y-6380345D01*
G01X98703313Y-6374434D01*
G01X98738294Y-6371657D01*
G01X98743945Y-6371289D01*
G01X98743945Y-6371289D01*
G01X98736847Y-6286357D01*
G01X98724192Y-6241541D01*
G01X98718750Y-6230372D01*
G01X98718750Y-6230372D01*
G01X98665762Y-6198623D01*
G01X98615966Y-6191514D01*
G01X98611523Y-6191407D01*
G01X98611523Y-6191407D01*
G01X98551327Y-6207902D01*
G01X98542090Y-6212793D01*
G01X98542090Y-6212793D01*
G01X98496591Y-6259390D01*
G01X98487891Y-6275196D01*
G01X98487891Y-6275196D01*
G01X98435382Y-6238722D01*
G01X98432812Y-6227149D01*
G01X98432812Y-6227149D01*
G01X98462536Y-6171304D01*
G01X98490527Y-6152149D01*
G01X98490527Y-6152149D01*
G01X98557559Y-6131056D01*
G01X98611117Y-6124518D01*
G01X98625000Y-6124024D01*
G01X98625000Y-6124024D01*
G01X98707310Y-6134361D01*
G01X98757163Y-6154158D01*
G01X98775941Y-6166597D01*
G01X98776172Y-6166797D01*
G01X98776172Y-6166797D01*
G01X98808435Y-6220714D01*
G01X98821582Y-6281749D01*
G01X98824202Y-6318169D01*
G01X98824219Y-6319727D01*
G01X98824219Y-6319727D01*
G01X98823285Y-6377642D01*
G01X98823047Y-6390332D01*
G01X98823047Y-6390332D01*
G01X98821982Y-6463495D01*
G01X98821875Y-6482032D01*
G01X98821875Y-6482032D01*
G01X98825446Y-6572596D01*
G01X98833301Y-6637012D01*
G01X98841156Y-6675501D01*
G01X98844727Y-6688282D01*
G01X98844727Y-6688282D01*
G01X98844727Y-6688282D01*
G01X98797852Y-6697657D01*
G01X98797852Y-6697657D01*
G01X98760645Y-6685059D01*
G01X98760645Y-6685059D01*
G01X98746289Y-6644922D01*
G01X98746289Y-6644922D01*
G01X98680313Y-6684958D01*
G01X98625380Y-6701960D01*
G01X98595063Y-6705799D01*
G01X98592773Y-6705860D01*
G01X98592773Y-6705860D01*
G01X98509919Y-6691426D01*
G01X98456414Y-6655996D01*
G01X98425840Y-6611381D01*
G01X98411781Y-6569391D01*
G01X98407818Y-6541835D01*
G01X98407617Y-6537110D01*
G37*
%LPC*%
G36*
G01X98491992Y-6537110D02*
G01X98491992Y-6537110D01*
G01X98510759Y-6602310D01*
G01X98523047Y-6616797D01*
G01X98523047Y-6616797D01*
G01X98583248Y-6640929D01*
G01X98602148Y-6642579D01*
G01X98602148Y-6642579D01*
G01X98675264Y-6628121D01*
G01X98723581Y-6601700D01*
G01X98739844Y-6588672D01*
G01X98739844Y-6588672D01*
G01X98738673Y-6533765D01*
G01X98738672Y-6532422D01*
G01X98738672Y-6532422D01*
G01X98740999Y-6463043D01*
G01X98742773Y-6432813D01*
G01X98742773Y-6432813D01*
G01X98690709Y-6438661D01*
G01X98690625Y-6438672D01*
G01X98690625Y-6438672D01*
G01X98643457Y-6444532D01*
G01X98643457Y-6444532D01*
G01X98599512Y-6451563D01*
G01X98599512Y-6451563D01*
G01X98564355Y-6461231D01*
G01X98564355Y-6461231D01*
G01X98533301Y-6474707D01*
G01X98533301Y-6474707D01*
G01X98511621Y-6490821D01*
G01X98511621Y-6490821D01*
G01X98496094Y-6511036D01*
G01X98496094Y-6511036D01*
G01X98491992Y-6537110D01*
G37*
%LPD*%
G36*
G01X98958398Y-6610352D02*
G01X98958398Y-6610352D01*
G01X98996376Y-6566249D01*
G01X99012305Y-6559961D01*
G01X99012305Y-6559961D01*
G01X99053205Y-6609257D01*
G01X99069434Y-6618848D01*
G01X99069434Y-6618848D01*
G01X99135586Y-6636827D01*
G01X99164648Y-6639063D01*
G01X99164648Y-6639063D01*
G01X99232157Y-6624918D01*
G01X99248144Y-6616211D01*
G01X99248144Y-6616211D01*
G01X99278461Y-6561336D01*
G01X99280078Y-6545313D01*
G01X99280078Y-6545313D01*
G01X99252780Y-6493536D01*
G01X99248144Y-6490235D01*
G01X99248144Y-6490235D01*
G01X99188028Y-6465254D01*
G01X99170801Y-6460645D01*
G01X99170801Y-6460645D01*
G01X99104223Y-6443680D01*
G01X99079687Y-6436622D01*
G01X99079687Y-6436622D01*
G01X99021327Y-6403367D01*
G01X99002051Y-6384473D01*
G01X99002051Y-6384473D01*
G01X98974871Y-6323012D01*
G01X98970124Y-6283477D01*
G01X98970117Y-6282813D01*
G01X98970117Y-6282813D01*
G01X98990112Y-6215300D01*
G01X99022961Y-6175983D01*
G01X99031934Y-6168555D01*
G01X99031934Y-6168555D01*
G01X99096878Y-6136826D01*
G01X99150821Y-6125483D01*
G01X99171680Y-6124024D01*
G01X99171680Y-6124024D01*
G01X99240296Y-6134365D01*
G01X99279878Y-6148218D01*
G01X99282129Y-6149219D01*
G01X99282129Y-6149219D01*
G01X99331053Y-6196894D01*
G01X99336328Y-6218946D01*
G01X99336328Y-6218946D01*
G01X99298350Y-6263632D01*
G01X99282422Y-6269336D01*
G01X99282422Y-6269336D01*
G01X99241505Y-6221545D01*
G01X99228223Y-6213086D01*
G01X99228223Y-6213086D01*
G01X99163827Y-6193130D01*
G01X99142969Y-6191407D01*
G01X99142969Y-6191407D01*
G01X99081159Y-6207998D01*
G01X99072070Y-6213672D01*
G01X99072070Y-6213672D01*
G01X99042994Y-6267034D01*
G01X99042187Y-6276368D01*
G01X99042187Y-6276368D01*
G01X99069131Y-6328855D01*
G01X99074121Y-6332618D01*
G01X99074121Y-6332618D01*
G01X99133437Y-6358837D01*
G01X99151465Y-6363965D01*
G01X99151465Y-6363965D01*
G01X99217066Y-6381183D01*
G01X99242578Y-6388575D01*
G01X99242578Y-6388575D01*
G01X99301711Y-6421179D01*
G01X99320215Y-6438379D01*
G01X99320215Y-6438379D01*
G01X99348157Y-6498914D01*
G01X99352148Y-6532422D01*
G01X99352148Y-6532422D01*
G01X99352148Y-6532422D01*
G01X99335727Y-6604822D01*
G01X99305715Y-6648147D01*
G01X99290918Y-6661622D01*
G01X99290918Y-6661622D01*
G01X99226602Y-6692555D01*
G01X99170348Y-6704121D01*
G01X99145338Y-6705860D01*
G01X99145312Y-6705860D01*
G01X99145312Y-6705860D01*
G01X99071142Y-6696952D01*
G01X99024497Y-6682318D01*
G01X99015234Y-6678321D01*
G01X99015234Y-6678321D01*
G01X98963931Y-6630827D01*
G01X98958398Y-6610352D01*
G37*
G36*
G01X99400781Y-6179102D02*
G01X99400781Y-6179102D01*
G01X99418652Y-6143946D01*
G01X99418652Y-6143946D01*
G01X99475659Y-6136381D01*
G01X99479883Y-6136329D01*
G01X99513867Y-6136329D01*
G01X99513867Y-6136329D01*
G01X99510376Y-6057561D01*
G01X99507048Y-6010582D01*
G01X99506250Y-6001563D01*
G01X99506250Y-6001563D01*
G01X99546094Y-5998047D01*
G01X99546094Y-5998047D01*
G01X99600365Y-6028967D01*
G01X99603516Y-6043750D01*
G01X99603516Y-6043750D01*
G01X99600891Y-6102063D01*
G01X99598828Y-6137500D01*
G01X99598828Y-6137500D01*
G01X99694592Y-6136493D01*
G01X99756738Y-6134278D01*
G01X99790320Y-6132062D01*
G01X99800391Y-6131055D01*
G01X99800391Y-6131055D01*
G01X99800391Y-6131055D01*
G01X99805078Y-6159180D01*
G01X99805078Y-6159180D01*
G01X99792480Y-6191407D01*
G01X99792480Y-6191407D01*
G01X99752344Y-6200782D01*
G01X99752344Y-6200782D01*
G01X99694399Y-6201601D01*
G01X99628897Y-6201907D01*
G01X99596519Y-6201954D01*
G01X99596484Y-6201954D01*
G01X99596484Y-6201954D01*
G01X99595386Y-6276151D01*
G01X99594699Y-6346828D01*
G01X99594327Y-6407548D01*
G01X99594173Y-6451872D01*
G01X99594141Y-6473362D01*
G01X99594141Y-6474414D01*
G01X99594141Y-6474414D01*
G01X99601066Y-6560115D01*
G01X99613095Y-6601574D01*
G01X99617578Y-6610059D01*
G01X99617578Y-6610059D01*
G01X99672646Y-6640169D01*
G01X99694922Y-6642579D01*
G01X99694922Y-6642579D01*
G01X99759558Y-6622782D01*
G01X99781055Y-6606250D01*
G01X99781055Y-6606250D01*
G01X99802734Y-6649610D01*
G01X99802734Y-6649610D01*
G01X99772002Y-6690166D01*
G01X99771680Y-6690332D01*
G01X99771680Y-6690332D01*
G01X99709972Y-6705194D01*
G01X99696094Y-6705860D01*
G01X99696094Y-6705860D01*
G01X99617822Y-6691983D01*
G01X99572029Y-6665405D01*
G01X99555375Y-6648706D01*
G01X99555176Y-6648438D01*
G01X99555176Y-6648438D01*
G01X99529285Y-6590592D01*
G01X99517386Y-6528545D01*
G01X99514036Y-6484832D01*
G01X99513867Y-6476758D01*
G01X99513867Y-6476758D01*
G01X99514965Y-6369360D01*
G01X99515652Y-6292231D01*
G01X99516025Y-6241250D01*
G01X99516178Y-6212292D01*
G01X99516211Y-6201234D01*
G01X99516211Y-6200782D01*
G01X99516211Y-6200782D01*
G01X99467184Y-6204519D01*
G01X99407336Y-6209325D01*
G01X99404297Y-6209571D01*
G01X99404297Y-6209571D01*
G01X99400781Y-6179102D01*
G37*
G36*
G01X99876562Y-6418164D02*
G01X99876562Y-6418164D01*
G01X99886472Y-6334220D01*
G01X99909389Y-6270006D01*
G01X99935093Y-6226198D01*
G01X99953364Y-6203468D01*
G01X99956543Y-6200196D01*
G01X99956543Y-6200196D01*
G01X100019627Y-6156159D01*
G01X100080432Y-6133545D01*
G01X100126241Y-6125214D01*
G01X100144336Y-6124024D01*
G01X100144336Y-6124024D01*
G01X100144336Y-6124024D01*
G01X100219807Y-6137396D01*
G01X100266747Y-6161233D01*
G01X100280273Y-6171485D01*
G01X100280273Y-6171485D01*
G01X100321158Y-6231175D01*
G01X100332005Y-6275791D01*
G01X100332422Y-6282813D01*
G01X100332422Y-6282813D01*
G01X100320889Y-6348760D01*
G01X100315723Y-6360743D01*
G01X100315723Y-6360743D01*
G01X100276213Y-6406645D01*
G01X100272070Y-6409668D01*
G01X100272070Y-6409668D01*
G01X100212952Y-6432883D01*
G01X100194141Y-6437207D01*
G01X100194141Y-6437207D01*
G01X100124927Y-6446839D01*
G01X100093945Y-6449219D01*
G01X100093945Y-6449219D01*
G01X100093945Y-6449219D01*
G01X100028793Y-6451031D01*
G01X99974923Y-6451538D01*
G01X99964453Y-6451563D01*
G01X99964453Y-6451563D01*
G01X99982526Y-6526526D01*
G01X100005735Y-6573309D01*
G01X100016309Y-6588379D01*
G01X100016309Y-6588379D01*
G01X100073113Y-6626984D01*
G01X100122816Y-6638362D01*
G01X100134375Y-6639063D01*
G01X100134375Y-6639063D01*
G01X100209766Y-6622249D01*
G01X100250580Y-6591519D01*
G01X100262109Y-6576368D01*
G01X100262109Y-6576368D01*
G01X100308273Y-6619079D01*
G01X100309570Y-6626758D01*
G01X100309570Y-6626758D01*
G01X100274259Y-6674261D01*
G01X100255078Y-6684180D01*
G01X100255078Y-6684180D01*
G01X100187084Y-6701407D01*
G01X100139285Y-6705733D01*
G01X100133203Y-6705860D01*
G01X100133203Y-6705860D01*
G01X100056610Y-6694736D01*
G01X99998364Y-6670264D01*
G01X99961322Y-6645792D01*
G01X99948340Y-6634668D01*
G01X99948340Y-6634668D01*
G01X99948340Y-6634668D01*
G01X99910625Y-6579256D01*
G01X99889168Y-6516338D01*
G01X99879384Y-6459934D01*
G01X99876687Y-6424063D01*
G01X99876562Y-6418164D01*
G37*
%LPC*%
G36*
G01X99963281Y-6391797D02*
G01X99963281Y-6391797D01*
G01X100033540Y-6391055D01*
G01X100049414Y-6390625D01*
G01X100049414Y-6390625D01*
G01X100112373Y-6384997D01*
G01X100125000Y-6383301D01*
G01X100125000Y-6383301D01*
G01X100186072Y-6368374D01*
G01X100191211Y-6366309D01*
G01X100191211Y-6366309D01*
G01X100232473Y-6335308D01*
G01X100232519Y-6335254D01*
G01X100232519Y-6335254D01*
G01X100249799Y-6285582D01*
G01X100249805Y-6285157D01*
G01X100249805Y-6285157D01*
G01X100226650Y-6227423D01*
G01X100218164Y-6218360D01*
G01X100218164Y-6218360D01*
G01X100159007Y-6192173D01*
G01X100139648Y-6190235D01*
G01X100139648Y-6190235D01*
G01X100069827Y-6205463D01*
G01X100026414Y-6231202D01*
G01X100016602Y-6239454D01*
G01X100016602Y-6239454D01*
G01X99981835Y-6296090D01*
G01X99966836Y-6355740D01*
G01X99963332Y-6390335D01*
G01X99963281Y-6391797D01*
G37*

G04 Pad flashes *
%LPD*%
D11*

G04 end of program *
M02*
