M48
METRIC,TZ
G90
M71
T1C1.2
T2C0.35
T3C1.9
T4C1.0
T5C3.4
T6C2.5
M95
T1
X80.750000Y-35.350000
X85.750000Y-37.450000
X75.530000Y-45.450000
X9.250000Y-2.850000
X14.250000Y-4.950000
X4.030000Y-12.950000
X9.250000Y-35.350000
X14.250000Y-37.450000
X4.030000Y-45.450000
X80.750000Y-2.850000
X85.750000Y-4.950000
X75.530000Y-12.950000
T2
X16.600000Y-24.000000
X6.414063Y-26.111229
X8.908844Y-30.938127
T3
X75.250000Y-41.250000
X86.250000Y-41.250000
X3.750000Y-8.750000
X14.750000Y-8.750000
X3.750000Y-41.250000
X14.750000Y-41.250000
X75.250000Y-8.750000
X86.250000Y-8.750000
T4
X42.460000Y-1.927000
X47.540000Y-1.927000
X45.000000Y-1.673000
X41.190000Y-9.600000
X46.270000Y-9.600000
X43.730000Y-9.600000
X48.810000Y-9.600000
T5
X80.750000Y-41.250000
X9.250000Y-8.750000
X9.250000Y-41.250000
X80.750000Y-8.750000
T6
X32.100000Y-34.830000
X57.900000Y-34.830000
M30
