G04                                                      *
G04 Greetings!                                           *
G04 This Gerber was generated by PCBmodE, an open source *
G04 PCB design software. Get it here:                    *
G04                                                      *
G04   http://pcbmode.com                                 *
G04                                                      *
G04 Also visit                                           *
G04                                                      *
G04   http://boldport.com                                *
G04                                                      *
G04 and follow @boldport / @pcbmode for updates!         *
G04                                                      *

G04 leading zeros omitted (L); absolute data (A); 6 integer digits and 6 fractional digits *
%FSLAX66Y66*%

G04 mode (MO): millimeters (MM) *
%MOMM*%

G04 Aperture definitions *
%ADD10C,0.001X*%
%ADD11C,0.001X*%
%ADD20C,0.05X*%

%LPD*%
D20*
G01X0000000Y-25000000D02*
G01X0000000Y-1000000D01*
G01X0000000Y-1000000D01*
G01X0002127Y-0934250D01*
G01X0008420Y-0869635D01*
G01X0018748Y-0806288D01*
G01X0032979Y-0744340D01*
G01X0050981Y-0683923D01*
G01X0072622Y-0625168D01*
G01X0097770Y-0568208D01*
G01X0126294Y-0513174D01*
G01X0158062Y-0460199D01*
G01X0192942Y-0409413D01*
G01X0230802Y-0360949D01*
G01X0271512Y-0314937D01*
G01X0314937Y-0271512D01*
G01X0360949Y-0230802D01*
G01X0409413Y-0192942D01*
G01X0460199Y-0158062D01*
G01X0513174Y-0126294D01*
G01X0568208Y-0097770D01*
G01X0625168Y-0072622D01*
G01X0683923Y-0050981D01*
G01X0744340Y-0032979D01*
G01X0806288Y-0018748D01*
G01X0869635Y-0008420D01*
G01X0934250Y-0002127D01*
G01X1000000Y-0000000D01*
G01X1000000Y-0000000D01*
G01X45000000Y-0000000D01*
G01X89000000Y-0000000D01*
G01X89000000Y-0000000D01*
G01X89065750Y-0002127D01*
G01X89130365Y-0008420D01*
G01X89193712Y-0018748D01*
G01X89255660Y-0032979D01*
G01X89316077Y-0050981D01*
G01X89374832Y-0072622D01*
G01X89431792Y-0097770D01*
G01X89486826Y-0126294D01*
G01X89539801Y-0158062D01*
G01X89590587Y-0192942D01*
G01X89639051Y-0230802D01*
G01X89685063Y-0271512D01*
G01X89728488Y-0314937D01*
G01X89769198Y-0360949D01*
G01X89807058Y-0409413D01*
G01X89841938Y-0460199D01*
G01X89873706Y-0513174D01*
G01X89902230Y-0568208D01*
G01X89927378Y-0625168D01*
G01X89949019Y-0683923D01*
G01X89967021Y-0744340D01*
G01X89981252Y-0806288D01*
G01X89991580Y-0869635D01*
G01X89997873Y-0934250D01*
G01X90000000Y-1000000D01*
G01X90000000Y-1000000D01*
G01X90000000Y-25000000D01*
G01X90000000Y-49000000D01*
G01X90000000Y-49000000D01*
G01X89997873Y-49065750D01*
G01X89991580Y-49130365D01*
G01X89981252Y-49193712D01*
G01X89967021Y-49255660D01*
G01X89949019Y-49316077D01*
G01X89927378Y-49374832D01*
G01X89902230Y-49431792D01*
G01X89873706Y-49486826D01*
G01X89841938Y-49539801D01*
G01X89807058Y-49590587D01*
G01X89769198Y-49639051D01*
G01X89728488Y-49685063D01*
G01X89685063Y-49728488D01*
G01X89639051Y-49769198D01*
G01X89590587Y-49807058D01*
G01X89539801Y-49841938D01*
G01X89486826Y-49873706D01*
G01X89431792Y-49902230D01*
G01X89374832Y-49927378D01*
G01X89316077Y-49949019D01*
G01X89255660Y-49967021D01*
G01X89193712Y-49981252D01*
G01X89130365Y-49991580D01*
G01X89065750Y-49997873D01*
G01X89000000Y-50000000D01*
G01X89000000Y-50000000D01*
G01X45000000Y-50000000D01*
G01X1000000Y-50000000D01*
G01X1000000Y-50000000D01*
G01X0934250Y-49997873D01*
G01X0869635Y-49991580D01*
G01X0806288Y-49981252D01*
G01X0744340Y-49967021D01*
G01X0683923Y-49949019D01*
G01X0625168Y-49927378D01*
G01X0568208Y-49902230D01*
G01X0513174Y-49873706D01*
G01X0460199Y-49841938D01*
G01X0409413Y-49807058D01*
G01X0360949Y-49769198D01*
G01X0314937Y-49728488D01*
G01X0271512Y-49685063D01*
G01X0230802Y-49639051D01*
G01X0192942Y-49590587D01*
G01X0158062Y-49539801D01*
G01X0126294Y-49486826D01*
G01X0097770Y-49431792D01*
G01X0072622Y-49374832D01*
G01X0050981Y-49316077D01*
G01X0032979Y-49255660D01*
G01X0018748Y-49193712D01*
G01X0008420Y-49130365D01*
G01X0002127Y-49065750D01*
G01X0000000Y-49000000D01*
G01X0000000Y-49000000D01*
G01X0000000Y-25000000D01*
G04 end of program *
M02*
