G04                                                      *
G04 Greetings!                                           *
G04 This Gerber was generated by PCBmodE, an open source *
G04 PCB design software. Get it here:                    *
G04                                                      *
G04   http://pcbmode.com                                 *
G04                                                      *
G04 Also visit                                           *
G04                                                      *
G04   http://boldport.com                                *
G04                                                      *
G04 and follow @boldport / @pcbmode for updates!         *
G04                                                      *

G04 leading zeros omitted (L); absolute data (A); 6 integer digits and 6 fractional digits *
%FSLAX66Y66*%

G04 mode (MO): millimeters (MM) *
%MOMM*%

G04 Aperture definitions *
%ADD10C,0.001X*%
%ADD11C,0.001X*%

%LPD*%
G36*
G01X42460000Y-2902000D02*
G01X42460000Y-2902000D01*
G01X42524107Y-2899926D01*
G01X42587106Y-2893790D01*
G01X42648869Y-2883720D01*
G01X42709269Y-2869845D01*
G01X42768175Y-2852294D01*
G01X42825461Y-2831194D01*
G01X42880997Y-2806674D01*
G01X42934655Y-2778863D01*
G01X42986306Y-2747890D01*
G01X43035822Y-2713882D01*
G01X43083075Y-2676968D01*
G01X43127936Y-2637276D01*
G01X43170276Y-2594936D01*
G01X43209968Y-2550075D01*
G01X43246882Y-2502822D01*
G01X43280890Y-2453306D01*
G01X43311863Y-2401655D01*
G01X43339674Y-2347997D01*
G01X43364194Y-2292461D01*
G01X43385294Y-2235175D01*
G01X43402845Y-2176269D01*
G01X43416720Y-2115869D01*
G01X43426790Y-2054106D01*
G01X43432926Y-1991107D01*
G01X43435000Y-1927000D01*
G01X43435000Y-1927000D01*
G01X43435000Y-1927000D01*
G01X43432926Y-1862893D01*
G01X43426790Y-1799894D01*
G01X43416720Y-1738131D01*
G01X43402845Y-1677731D01*
G01X43385294Y-1618825D01*
G01X43364194Y-1561539D01*
G01X43339674Y-1506003D01*
G01X43311863Y-1452345D01*
G01X43280890Y-1400694D01*
G01X43246882Y-1351178D01*
G01X43209968Y-1303925D01*
G01X43170276Y-1259064D01*
G01X43127936Y-1216724D01*
G01X43083075Y-1177032D01*
G01X43035822Y-1140118D01*
G01X42986306Y-1106110D01*
G01X42934655Y-1075137D01*
G01X42880997Y-1047326D01*
G01X42825461Y-1022806D01*
G01X42768175Y-1001706D01*
G01X42709269Y-0984155D01*
G01X42648869Y-0970280D01*
G01X42587106Y-0960210D01*
G01X42524107Y-0954074D01*
G01X42460000Y-0952000D01*
G01X42460000Y-0952000D01*
G01X42460000Y-0952000D01*
G01X42395893Y-0954074D01*
G01X42332894Y-0960210D01*
G01X42271131Y-0970280D01*
G01X42210731Y-0984155D01*
G01X42151825Y-1001706D01*
G01X42094539Y-1022806D01*
G01X42039003Y-1047326D01*
G01X41985345Y-1075137D01*
G01X41933694Y-1106110D01*
G01X41884178Y-1140118D01*
G01X41836925Y-1177032D01*
G01X41792064Y-1216724D01*
G01X41749724Y-1259064D01*
G01X41710032Y-1303925D01*
G01X41673118Y-1351178D01*
G01X41639110Y-1400694D01*
G01X41608137Y-1452345D01*
G01X41580326Y-1506003D01*
G01X41555806Y-1561539D01*
G01X41534706Y-1618825D01*
G01X41517155Y-1677731D01*
G01X41503280Y-1738131D01*
G01X41493210Y-1799894D01*
G01X41487074Y-1862893D01*
G01X41485000Y-1927000D01*
G01X41485000Y-1927000D01*
G01X41485000Y-1927000D01*
G01X41487074Y-1991107D01*
G01X41493210Y-2054106D01*
G01X41503280Y-2115869D01*
G01X41517155Y-2176269D01*
G01X41534706Y-2235175D01*
G01X41555806Y-2292461D01*
G01X41580326Y-2347997D01*
G01X41608137Y-2401655D01*
G01X41639110Y-2453306D01*
G01X41673118Y-2502822D01*
G01X41710032Y-2550075D01*
G01X41749724Y-2594936D01*
G01X41792064Y-2637276D01*
G01X41836925Y-2676968D01*
G01X41884178Y-2713882D01*
G01X41933694Y-2747890D01*
G01X41985345Y-2778863D01*
G01X42039003Y-2806674D01*
G01X42094539Y-2831194D01*
G01X42151825Y-2852294D01*
G01X42210731Y-2869845D01*
G01X42271131Y-2883720D01*
G01X42332894Y-2893790D01*
G01X42395893Y-2899926D01*
G01X42460000Y-2902000D01*
G01X42460000Y-2902000D01*
G37*
G36*
G01X47540000Y-2902000D02*
G01X47540000Y-2902000D01*
G01X47604107Y-2899926D01*
G01X47667106Y-2893790D01*
G01X47728869Y-2883720D01*
G01X47789269Y-2869845D01*
G01X47848175Y-2852294D01*
G01X47905461Y-2831194D01*
G01X47960997Y-2806674D01*
G01X48014655Y-2778863D01*
G01X48066306Y-2747890D01*
G01X48115822Y-2713882D01*
G01X48163075Y-2676968D01*
G01X48207936Y-2637276D01*
G01X48250276Y-2594936D01*
G01X48289968Y-2550075D01*
G01X48326882Y-2502822D01*
G01X48360890Y-2453306D01*
G01X48391863Y-2401655D01*
G01X48419674Y-2347997D01*
G01X48444194Y-2292461D01*
G01X48465294Y-2235175D01*
G01X48482845Y-2176269D01*
G01X48496720Y-2115869D01*
G01X48506790Y-2054106D01*
G01X48512926Y-1991107D01*
G01X48515000Y-1927000D01*
G01X48515000Y-1927000D01*
G01X48515000Y-1927000D01*
G01X48512926Y-1862893D01*
G01X48506790Y-1799894D01*
G01X48496720Y-1738131D01*
G01X48482845Y-1677731D01*
G01X48465294Y-1618825D01*
G01X48444194Y-1561539D01*
G01X48419674Y-1506003D01*
G01X48391863Y-1452345D01*
G01X48360890Y-1400694D01*
G01X48326882Y-1351178D01*
G01X48289968Y-1303925D01*
G01X48250276Y-1259064D01*
G01X48207936Y-1216724D01*
G01X48163075Y-1177032D01*
G01X48115822Y-1140118D01*
G01X48066306Y-1106110D01*
G01X48014655Y-1075137D01*
G01X47960997Y-1047326D01*
G01X47905461Y-1022806D01*
G01X47848175Y-1001706D01*
G01X47789269Y-0984155D01*
G01X47728869Y-0970280D01*
G01X47667106Y-0960210D01*
G01X47604107Y-0954074D01*
G01X47540000Y-0952000D01*
G01X47540000Y-0952000D01*
G01X47540000Y-0952000D01*
G01X47475893Y-0954074D01*
G01X47412894Y-0960210D01*
G01X47351131Y-0970280D01*
G01X47290731Y-0984155D01*
G01X47231825Y-1001706D01*
G01X47174539Y-1022806D01*
G01X47119003Y-1047326D01*
G01X47065345Y-1075137D01*
G01X47013694Y-1106110D01*
G01X46964178Y-1140118D01*
G01X46916925Y-1177032D01*
G01X46872064Y-1216724D01*
G01X46829724Y-1259064D01*
G01X46790032Y-1303925D01*
G01X46753118Y-1351178D01*
G01X46719110Y-1400694D01*
G01X46688137Y-1452345D01*
G01X46660326Y-1506003D01*
G01X46635806Y-1561539D01*
G01X46614706Y-1618825D01*
G01X46597155Y-1677731D01*
G01X46583280Y-1738131D01*
G01X46573210Y-1799894D01*
G01X46567074Y-1862893D01*
G01X46565000Y-1927000D01*
G01X46565000Y-1927000D01*
G01X46565000Y-1927000D01*
G01X46567074Y-1991107D01*
G01X46573210Y-2054106D01*
G01X46583280Y-2115869D01*
G01X46597155Y-2176269D01*
G01X46614706Y-2235175D01*
G01X46635806Y-2292461D01*
G01X46660326Y-2347997D01*
G01X46688137Y-2401655D01*
G01X46719110Y-2453306D01*
G01X46753118Y-2502822D01*
G01X46790032Y-2550075D01*
G01X46829724Y-2594936D01*
G01X46872064Y-2637276D01*
G01X46916925Y-2676968D01*
G01X46964178Y-2713882D01*
G01X47013694Y-2747890D01*
G01X47065345Y-2778863D01*
G01X47119003Y-2806674D01*
G01X47174539Y-2831194D01*
G01X47231825Y-2852294D01*
G01X47290731Y-2869845D01*
G01X47351131Y-2883720D01*
G01X47412894Y-2893790D01*
G01X47475893Y-2899926D01*
G01X47540000Y-2902000D01*
G01X47540000Y-2902000D01*
G37*
G36*
G01X45000000Y-2648000D02*
G01X45000000Y-2648000D01*
G01X45064107Y-2645926D01*
G01X45127106Y-2639790D01*
G01X45188869Y-2629720D01*
G01X45249269Y-2615845D01*
G01X45308175Y-2598294D01*
G01X45365461Y-2577194D01*
G01X45420997Y-2552674D01*
G01X45474655Y-2524863D01*
G01X45526306Y-2493890D01*
G01X45575822Y-2459882D01*
G01X45623075Y-2422968D01*
G01X45667936Y-2383276D01*
G01X45710276Y-2340936D01*
G01X45749968Y-2296075D01*
G01X45786882Y-2248822D01*
G01X45820890Y-2199306D01*
G01X45851863Y-2147655D01*
G01X45879674Y-2093997D01*
G01X45904194Y-2038461D01*
G01X45925294Y-1981175D01*
G01X45942845Y-1922269D01*
G01X45956720Y-1861869D01*
G01X45966790Y-1800106D01*
G01X45972926Y-1737107D01*
G01X45975000Y-1673000D01*
G01X45975000Y-1673000D01*
G01X45975000Y-1673000D01*
G01X45972926Y-1608893D01*
G01X45966790Y-1545894D01*
G01X45956720Y-1484131D01*
G01X45942845Y-1423731D01*
G01X45925294Y-1364825D01*
G01X45904194Y-1307539D01*
G01X45879674Y-1252003D01*
G01X45851863Y-1198345D01*
G01X45820890Y-1146694D01*
G01X45786882Y-1097178D01*
G01X45749968Y-1049925D01*
G01X45710276Y-1005064D01*
G01X45667936Y-0962724D01*
G01X45623075Y-0923032D01*
G01X45575822Y-0886118D01*
G01X45526306Y-0852110D01*
G01X45474655Y-0821137D01*
G01X45420997Y-0793326D01*
G01X45365461Y-0768806D01*
G01X45308175Y-0747706D01*
G01X45249269Y-0730155D01*
G01X45188869Y-0716280D01*
G01X45127106Y-0706210D01*
G01X45064107Y-0700074D01*
G01X45000000Y-0698000D01*
G01X45000000Y-0698000D01*
G01X45000000Y-0698000D01*
G01X44935893Y-0700074D01*
G01X44872894Y-0706210D01*
G01X44811131Y-0716280D01*
G01X44750731Y-0730155D01*
G01X44691825Y-0747706D01*
G01X44634539Y-0768806D01*
G01X44579003Y-0793326D01*
G01X44525345Y-0821137D01*
G01X44473694Y-0852110D01*
G01X44424178Y-0886118D01*
G01X44376925Y-0923032D01*
G01X44332064Y-0962724D01*
G01X44289724Y-1005064D01*
G01X44250032Y-1049925D01*
G01X44213118Y-1097178D01*
G01X44179110Y-1146694D01*
G01X44148137Y-1198345D01*
G01X44120326Y-1252003D01*
G01X44095806Y-1307539D01*
G01X44074706Y-1364825D01*
G01X44057155Y-1423731D01*
G01X44043280Y-1484131D01*
G01X44033210Y-1545894D01*
G01X44027074Y-1608893D01*
G01X44025000Y-1673000D01*
G01X44025000Y-1673000D01*
G01X44025000Y-1673000D01*
G01X44027074Y-1737107D01*
G01X44033210Y-1800106D01*
G01X44043280Y-1861869D01*
G01X44057155Y-1922269D01*
G01X44074706Y-1981175D01*
G01X44095806Y-2038461D01*
G01X44120326Y-2093997D01*
G01X44148137Y-2147655D01*
G01X44179110Y-2199306D01*
G01X44213118Y-2248822D01*
G01X44250032Y-2296075D01*
G01X44289724Y-2340936D01*
G01X44332064Y-2383276D01*
G01X44376925Y-2422968D01*
G01X44424178Y-2459882D01*
G01X44473694Y-2493890D01*
G01X44525345Y-2524863D01*
G01X44579003Y-2552674D01*
G01X44634539Y-2577194D01*
G01X44691825Y-2598294D01*
G01X44750731Y-2615845D01*
G01X44811131Y-2629720D01*
G01X44872894Y-2639790D01*
G01X44935893Y-2645926D01*
G01X45000000Y-2648000D01*
G01X45000000Y-2648000D01*
G37*
G36*
G01X7500000Y-31245000D02*
G01X7500000Y-31245000D01*
G01X7435893Y-31242926D01*
G01X7372894Y-31236790D01*
G01X7311131Y-31226720D01*
G01X7250731Y-31212845D01*
G01X7191825Y-31195294D01*
G01X7134539Y-31174194D01*
G01X7079003Y-31149674D01*
G01X7025345Y-31121863D01*
G01X6973694Y-31090890D01*
G01X6924178Y-31056882D01*
G01X6876925Y-31019968D01*
G01X6832064Y-30980276D01*
G01X6789724Y-30937936D01*
G01X6750032Y-30893075D01*
G01X6713118Y-30845822D01*
G01X6679110Y-30796306D01*
G01X6648137Y-30744655D01*
G01X6620326Y-30690997D01*
G01X6595806Y-30635461D01*
G01X6574706Y-30578175D01*
G01X6557155Y-30519269D01*
G01X6543280Y-30458869D01*
G01X6533210Y-30397106D01*
G01X6527074Y-30334107D01*
G01X6525000Y-30270000D01*
G01X6525000Y-30270000D01*
G01X6525000Y-30270000D01*
G01X6527074Y-30205893D01*
G01X6533210Y-30142894D01*
G01X6543280Y-30081131D01*
G01X6557155Y-30020731D01*
G01X6574706Y-29961825D01*
G01X6595806Y-29904539D01*
G01X6620326Y-29849003D01*
G01X6648137Y-29795345D01*
G01X6679110Y-29743694D01*
G01X6713118Y-29694178D01*
G01X6750032Y-29646925D01*
G01X6789724Y-29602064D01*
G01X6832064Y-29559724D01*
G01X6876925Y-29520032D01*
G01X6924178Y-29483118D01*
G01X6973694Y-29449110D01*
G01X7025345Y-29418137D01*
G01X7079003Y-29390326D01*
G01X7134539Y-29365806D01*
G01X7191825Y-29344706D01*
G01X7250731Y-29327155D01*
G01X7311131Y-29313280D01*
G01X7372894Y-29303210D01*
G01X7435893Y-29297074D01*
G01X7500000Y-29295000D01*
G01X7500000Y-29295000D01*
G01X7500000Y-29295000D01*
G01X7564107Y-29297074D01*
G01X7627106Y-29303210D01*
G01X7688869Y-29313280D01*
G01X7749269Y-29327155D01*
G01X7808175Y-29344706D01*
G01X7865461Y-29365806D01*
G01X7920997Y-29390326D01*
G01X7974655Y-29418137D01*
G01X8026306Y-29449110D01*
G01X8075822Y-29483118D01*
G01X8123075Y-29520032D01*
G01X8167936Y-29559724D01*
G01X8210276Y-29602064D01*
G01X8249968Y-29646925D01*
G01X8286882Y-29694178D01*
G01X8320890Y-29743694D01*
G01X8351863Y-29795345D01*
G01X8379674Y-29849003D01*
G01X8404194Y-29904539D01*
G01X8425294Y-29961825D01*
G01X8442845Y-30020731D01*
G01X8456720Y-30081131D01*
G01X8466790Y-30142894D01*
G01X8472926Y-30205893D01*
G01X8475000Y-30270000D01*
G01X8475000Y-30270000D01*
G01X8475000Y-30270000D01*
G01X8472926Y-30334107D01*
G01X8466790Y-30397106D01*
G01X8456720Y-30458869D01*
G01X8442845Y-30519269D01*
G01X8425294Y-30578175D01*
G01X8404194Y-30635461D01*
G01X8379674Y-30690997D01*
G01X8351863Y-30744655D01*
G01X8320890Y-30796306D01*
G01X8286882Y-30845822D01*
G01X8249968Y-30893075D01*
G01X8210276Y-30937936D01*
G01X8167936Y-30980276D01*
G01X8123075Y-31019968D01*
G01X8075822Y-31056882D01*
G01X8026306Y-31090890D01*
G01X7974655Y-31121863D01*
G01X7920997Y-31149674D01*
G01X7865461Y-31174194D01*
G01X7808175Y-31195294D01*
G01X7749269Y-31212845D01*
G01X7688869Y-31226720D01*
G01X7627106Y-31236790D01*
G01X7564107Y-31242926D01*
G01X7500000Y-31245000D01*
G01X7500000Y-31245000D01*
G37*
G36*
G01X7500000Y-28705000D02*
G01X7500000Y-28705000D01*
G01X7435893Y-28702926D01*
G01X7372894Y-28696790D01*
G01X7311131Y-28686720D01*
G01X7250731Y-28672845D01*
G01X7191825Y-28655294D01*
G01X7134539Y-28634194D01*
G01X7079003Y-28609674D01*
G01X7025345Y-28581863D01*
G01X6973694Y-28550890D01*
G01X6924178Y-28516882D01*
G01X6876925Y-28479968D01*
G01X6832064Y-28440276D01*
G01X6789724Y-28397936D01*
G01X6750032Y-28353075D01*
G01X6713118Y-28305822D01*
G01X6679110Y-28256306D01*
G01X6648137Y-28204655D01*
G01X6620326Y-28150997D01*
G01X6595806Y-28095461D01*
G01X6574706Y-28038175D01*
G01X6557155Y-27979269D01*
G01X6543280Y-27918869D01*
G01X6533210Y-27857106D01*
G01X6527074Y-27794107D01*
G01X6525000Y-27730000D01*
G01X6525000Y-27730000D01*
G01X6525000Y-27730000D01*
G01X6527074Y-27665893D01*
G01X6533210Y-27602894D01*
G01X6543280Y-27541131D01*
G01X6557155Y-27480731D01*
G01X6574706Y-27421825D01*
G01X6595806Y-27364539D01*
G01X6620326Y-27309003D01*
G01X6648137Y-27255345D01*
G01X6679110Y-27203694D01*
G01X6713118Y-27154178D01*
G01X6750032Y-27106925D01*
G01X6789724Y-27062064D01*
G01X6832064Y-27019724D01*
G01X6876925Y-26980032D01*
G01X6924178Y-26943118D01*
G01X6973694Y-26909110D01*
G01X7025345Y-26878137D01*
G01X7079003Y-26850326D01*
G01X7134539Y-26825806D01*
G01X7191825Y-26804706D01*
G01X7250731Y-26787155D01*
G01X7311131Y-26773280D01*
G01X7372894Y-26763210D01*
G01X7435893Y-26757074D01*
G01X7500000Y-26755000D01*
G01X7500000Y-26755000D01*
G01X7500000Y-26755000D01*
G01X7564107Y-26757074D01*
G01X7627106Y-26763210D01*
G01X7688869Y-26773280D01*
G01X7749269Y-26787155D01*
G01X7808175Y-26804706D01*
G01X7865461Y-26825806D01*
G01X7920997Y-26850326D01*
G01X7974655Y-26878137D01*
G01X8026306Y-26909110D01*
G01X8075822Y-26943118D01*
G01X8123075Y-26980032D01*
G01X8167936Y-27019724D01*
G01X8210276Y-27062064D01*
G01X8249968Y-27106925D01*
G01X8286882Y-27154178D01*
G01X8320890Y-27203694D01*
G01X8351863Y-27255345D01*
G01X8379674Y-27309003D01*
G01X8404194Y-27364539D01*
G01X8425294Y-27421825D01*
G01X8442845Y-27480731D01*
G01X8456720Y-27541131D01*
G01X8466790Y-27602894D01*
G01X8472926Y-27665893D01*
G01X8475000Y-27730000D01*
G01X8475000Y-27730000D01*
G01X8475000Y-27730000D01*
G01X8472926Y-27794107D01*
G01X8466790Y-27857106D01*
G01X8456720Y-27918869D01*
G01X8442845Y-27979269D01*
G01X8425294Y-28038175D01*
G01X8404194Y-28095461D01*
G01X8379674Y-28150997D01*
G01X8351863Y-28204655D01*
G01X8320890Y-28256306D01*
G01X8286882Y-28305822D01*
G01X8249968Y-28353075D01*
G01X8210276Y-28397936D01*
G01X8167936Y-28440276D01*
G01X8123075Y-28479968D01*
G01X8075822Y-28516882D01*
G01X8026306Y-28550890D01*
G01X7974655Y-28581863D01*
G01X7920997Y-28609674D01*
G01X7865461Y-28634194D01*
G01X7808175Y-28655294D01*
G01X7749269Y-28672845D01*
G01X7688869Y-28686720D01*
G01X7627106Y-28696790D01*
G01X7564107Y-28702926D01*
G01X7500000Y-28705000D01*
G01X7500000Y-28705000D01*
G37*
G36*
G01X80750000Y-36375000D02*
G01X80750000Y-36375000D01*
G01X80817394Y-36372820D01*
G01X80883624Y-36366369D01*
G01X80948555Y-36355783D01*
G01X81012052Y-36341197D01*
G01X81073979Y-36322745D01*
G01X81134203Y-36300563D01*
G01X81192587Y-36274786D01*
G01X81248996Y-36245549D01*
G01X81303296Y-36212987D01*
G01X81355352Y-36177234D01*
G01X81405028Y-36138427D01*
G01X81452189Y-36096701D01*
G01X81496701Y-36052189D01*
G01X81538427Y-36005028D01*
G01X81577234Y-35955352D01*
G01X81612987Y-35903296D01*
G01X81645549Y-35848996D01*
G01X81674786Y-35792586D01*
G01X81700563Y-35734203D01*
G01X81722745Y-35673979D01*
G01X81741197Y-35612052D01*
G01X81755783Y-35548555D01*
G01X81766369Y-35483624D01*
G01X81772820Y-35417394D01*
G01X81775000Y-35350000D01*
G01X81775000Y-35350000D01*
G01X81775000Y-35350000D01*
G01X81772820Y-35282606D01*
G01X81766369Y-35216376D01*
G01X81755783Y-35151445D01*
G01X81741197Y-35087948D01*
G01X81722745Y-35026021D01*
G01X81700563Y-34965797D01*
G01X81674786Y-34907413D01*
G01X81645549Y-34851004D01*
G01X81612987Y-34796704D01*
G01X81577234Y-34744648D01*
G01X81538427Y-34694972D01*
G01X81496701Y-34647811D01*
G01X81452189Y-34603299D01*
G01X81405028Y-34561573D01*
G01X81355352Y-34522766D01*
G01X81303296Y-34487013D01*
G01X81248996Y-34454451D01*
G01X81192587Y-34425214D01*
G01X81134203Y-34399437D01*
G01X81073979Y-34377255D01*
G01X81012052Y-34358803D01*
G01X80948555Y-34344217D01*
G01X80883624Y-34333631D01*
G01X80817394Y-34327180D01*
G01X80750000Y-34325000D01*
G01X80750000Y-34325000D01*
G01X80750000Y-34325000D01*
G01X80682606Y-34327180D01*
G01X80616376Y-34333631D01*
G01X80551445Y-34344217D01*
G01X80487948Y-34358803D01*
G01X80426021Y-34377255D01*
G01X80365797Y-34399437D01*
G01X80307413Y-34425214D01*
G01X80251004Y-34454451D01*
G01X80196704Y-34487013D01*
G01X80144648Y-34522766D01*
G01X80094972Y-34561573D01*
G01X80047811Y-34603299D01*
G01X80003299Y-34647811D01*
G01X79961573Y-34694972D01*
G01X79922766Y-34744648D01*
G01X79887013Y-34796704D01*
G01X79854451Y-34851004D01*
G01X79825214Y-34907413D01*
G01X79799437Y-34965797D01*
G01X79777255Y-35026021D01*
G01X79758803Y-35087948D01*
G01X79744217Y-35151445D01*
G01X79733631Y-35216376D01*
G01X79727180Y-35282606D01*
G01X79725000Y-35350000D01*
G01X79725000Y-35350000D01*
G01X79725000Y-35350000D01*
G01X79727180Y-35417394D01*
G01X79733631Y-35483624D01*
G01X79744217Y-35548555D01*
G01X79758803Y-35612052D01*
G01X79777255Y-35673979D01*
G01X79799437Y-35734203D01*
G01X79825214Y-35792586D01*
G01X79854451Y-35848996D01*
G01X79887013Y-35903296D01*
G01X79922766Y-35955352D01*
G01X79961573Y-36005028D01*
G01X80003299Y-36052189D01*
G01X80047811Y-36096701D01*
G01X80094972Y-36138427D01*
G01X80144648Y-36177234D01*
G01X80196704Y-36212987D01*
G01X80251004Y-36245549D01*
G01X80307413Y-36274786D01*
G01X80365797Y-36300563D01*
G01X80426021Y-36322745D01*
G01X80487948Y-36341197D01*
G01X80551445Y-36355783D01*
G01X80616376Y-36366369D01*
G01X80682606Y-36372820D01*
G01X80750000Y-36375000D01*
G01X80750000Y-36375000D01*
G37*
G36*
G01X85750000Y-38475000D02*
G01X85750000Y-38475000D01*
G01X85817394Y-38472820D01*
G01X85883624Y-38466369D01*
G01X85948555Y-38455783D01*
G01X86012052Y-38441197D01*
G01X86073979Y-38422745D01*
G01X86134203Y-38400563D01*
G01X86192587Y-38374786D01*
G01X86248996Y-38345549D01*
G01X86303296Y-38312987D01*
G01X86355352Y-38277234D01*
G01X86405028Y-38238427D01*
G01X86452189Y-38196701D01*
G01X86496701Y-38152189D01*
G01X86538427Y-38105028D01*
G01X86577234Y-38055352D01*
G01X86612987Y-38003296D01*
G01X86645549Y-37948996D01*
G01X86674786Y-37892587D01*
G01X86700563Y-37834203D01*
G01X86722745Y-37773979D01*
G01X86741197Y-37712052D01*
G01X86755783Y-37648555D01*
G01X86766369Y-37583624D01*
G01X86772820Y-37517394D01*
G01X86775000Y-37450000D01*
G01X86775000Y-37450000D01*
G01X86775000Y-37450000D01*
G01X86772820Y-37382606D01*
G01X86766369Y-37316376D01*
G01X86755783Y-37251445D01*
G01X86741197Y-37187948D01*
G01X86722745Y-37126021D01*
G01X86700563Y-37065797D01*
G01X86674786Y-37007413D01*
G01X86645549Y-36951004D01*
G01X86612987Y-36896704D01*
G01X86577234Y-36844648D01*
G01X86538427Y-36794972D01*
G01X86496701Y-36747811D01*
G01X86452189Y-36703299D01*
G01X86405028Y-36661573D01*
G01X86355352Y-36622766D01*
G01X86303296Y-36587013D01*
G01X86248996Y-36554451D01*
G01X86192587Y-36525214D01*
G01X86134203Y-36499437D01*
G01X86073979Y-36477255D01*
G01X86012052Y-36458803D01*
G01X85948555Y-36444217D01*
G01X85883624Y-36433631D01*
G01X85817394Y-36427180D01*
G01X85750000Y-36425000D01*
G01X85750000Y-36425000D01*
G01X85750000Y-36425000D01*
G01X85682606Y-36427180D01*
G01X85616376Y-36433631D01*
G01X85551445Y-36444217D01*
G01X85487948Y-36458803D01*
G01X85426021Y-36477255D01*
G01X85365797Y-36499437D01*
G01X85307413Y-36525214D01*
G01X85251004Y-36554451D01*
G01X85196704Y-36587013D01*
G01X85144648Y-36622766D01*
G01X85094972Y-36661573D01*
G01X85047811Y-36703299D01*
G01X85003299Y-36747811D01*
G01X84961573Y-36794972D01*
G01X84922766Y-36844648D01*
G01X84887013Y-36896704D01*
G01X84854451Y-36951004D01*
G01X84825214Y-37007413D01*
G01X84799437Y-37065797D01*
G01X84777255Y-37126021D01*
G01X84758803Y-37187948D01*
G01X84744217Y-37251445D01*
G01X84733631Y-37316376D01*
G01X84727180Y-37382606D01*
G01X84725000Y-37450000D01*
G01X84725000Y-37450000D01*
G01X84725000Y-37450000D01*
G01X84727180Y-37517394D01*
G01X84733631Y-37583624D01*
G01X84744217Y-37648555D01*
G01X84758803Y-37712052D01*
G01X84777255Y-37773979D01*
G01X84799437Y-37834203D01*
G01X84825214Y-37892587D01*
G01X84854451Y-37948996D01*
G01X84887013Y-38003296D01*
G01X84922766Y-38055352D01*
G01X84961573Y-38105028D01*
G01X85003299Y-38152189D01*
G01X85047811Y-38196701D01*
G01X85094972Y-38238427D01*
G01X85144648Y-38277234D01*
G01X85196704Y-38312987D01*
G01X85251004Y-38345549D01*
G01X85307413Y-38374786D01*
G01X85365797Y-38400563D01*
G01X85426021Y-38422745D01*
G01X85487948Y-38441197D01*
G01X85551445Y-38455783D01*
G01X85616376Y-38466369D01*
G01X85682606Y-38472820D01*
G01X85750000Y-38475000D01*
G01X85750000Y-38475000D01*
G37*
G36*
G01X9250000Y-3875000D02*
G01X9250000Y-3875000D01*
G01X9317394Y-3872820D01*
G01X9383624Y-3866369D01*
G01X9448555Y-3855783D01*
G01X9512052Y-3841197D01*
G01X9573979Y-3822745D01*
G01X9634203Y-3800563D01*
G01X9692587Y-3774786D01*
G01X9748996Y-3745549D01*
G01X9803296Y-3712987D01*
G01X9855352Y-3677234D01*
G01X9905028Y-3638427D01*
G01X9952189Y-3596701D01*
G01X9996701Y-3552189D01*
G01X10038427Y-3505028D01*
G01X10077234Y-3455352D01*
G01X10112987Y-3403296D01*
G01X10145549Y-3348996D01*
G01X10174786Y-3292587D01*
G01X10200563Y-3234203D01*
G01X10222745Y-3173979D01*
G01X10241197Y-3112052D01*
G01X10255783Y-3048555D01*
G01X10266369Y-2983624D01*
G01X10272820Y-2917394D01*
G01X10275000Y-2850000D01*
G01X10275000Y-2850000D01*
G01X10275000Y-2850000D01*
G01X10272820Y-2782606D01*
G01X10266369Y-2716376D01*
G01X10255783Y-2651445D01*
G01X10241197Y-2587948D01*
G01X10222745Y-2526021D01*
G01X10200563Y-2465797D01*
G01X10174786Y-2407414D01*
G01X10145549Y-2351004D01*
G01X10112987Y-2296704D01*
G01X10077234Y-2244648D01*
G01X10038427Y-2194972D01*
G01X9996701Y-2147811D01*
G01X9952189Y-2103299D01*
G01X9905028Y-2061573D01*
G01X9855352Y-2022766D01*
G01X9803296Y-1987013D01*
G01X9748996Y-1954451D01*
G01X9692587Y-1925214D01*
G01X9634203Y-1899437D01*
G01X9573979Y-1877255D01*
G01X9512052Y-1858803D01*
G01X9448555Y-1844217D01*
G01X9383624Y-1833631D01*
G01X9317394Y-1827180D01*
G01X9250000Y-1825000D01*
G01X9250000Y-1825000D01*
G01X9250000Y-1825000D01*
G01X9182606Y-1827180D01*
G01X9116376Y-1833631D01*
G01X9051445Y-1844217D01*
G01X8987948Y-1858803D01*
G01X8926021Y-1877255D01*
G01X8865797Y-1899437D01*
G01X8807413Y-1925214D01*
G01X8751004Y-1954451D01*
G01X8696704Y-1987013D01*
G01X8644648Y-2022766D01*
G01X8594972Y-2061573D01*
G01X8547811Y-2103299D01*
G01X8503299Y-2147811D01*
G01X8461573Y-2194972D01*
G01X8422766Y-2244648D01*
G01X8387013Y-2296704D01*
G01X8354451Y-2351004D01*
G01X8325214Y-2407414D01*
G01X8299437Y-2465797D01*
G01X8277255Y-2526021D01*
G01X8258803Y-2587948D01*
G01X8244217Y-2651445D01*
G01X8233631Y-2716376D01*
G01X8227180Y-2782606D01*
G01X8225000Y-2850000D01*
G01X8225000Y-2850000D01*
G01X8225000Y-2850000D01*
G01X8227180Y-2917394D01*
G01X8233631Y-2983624D01*
G01X8244217Y-3048555D01*
G01X8258803Y-3112052D01*
G01X8277255Y-3173979D01*
G01X8299437Y-3234203D01*
G01X8325214Y-3292587D01*
G01X8354451Y-3348996D01*
G01X8387013Y-3403296D01*
G01X8422766Y-3455352D01*
G01X8461573Y-3505028D01*
G01X8503299Y-3552189D01*
G01X8547811Y-3596701D01*
G01X8594972Y-3638427D01*
G01X8644648Y-3677234D01*
G01X8696704Y-3712987D01*
G01X8751004Y-3745549D01*
G01X8807413Y-3774786D01*
G01X8865797Y-3800563D01*
G01X8926021Y-3822745D01*
G01X8987948Y-3841197D01*
G01X9051445Y-3855783D01*
G01X9116376Y-3866369D01*
G01X9182606Y-3872820D01*
G01X9250000Y-3875000D01*
G01X9250000Y-3875000D01*
G37*
G36*
G01X14250000Y-5975000D02*
G01X14250000Y-5975000D01*
G01X14317394Y-5972820D01*
G01X14383624Y-5966369D01*
G01X14448555Y-5955783D01*
G01X14512052Y-5941197D01*
G01X14573979Y-5922745D01*
G01X14634203Y-5900563D01*
G01X14692587Y-5874786D01*
G01X14748996Y-5845549D01*
G01X14803296Y-5812987D01*
G01X14855352Y-5777234D01*
G01X14905028Y-5738427D01*
G01X14952189Y-5696701D01*
G01X14996701Y-5652189D01*
G01X15038427Y-5605028D01*
G01X15077234Y-5555352D01*
G01X15112987Y-5503296D01*
G01X15145549Y-5448996D01*
G01X15174786Y-5392587D01*
G01X15200563Y-5334203D01*
G01X15222745Y-5273979D01*
G01X15241197Y-5212052D01*
G01X15255783Y-5148555D01*
G01X15266369Y-5083624D01*
G01X15272820Y-5017394D01*
G01X15275000Y-4950000D01*
G01X15275000Y-4950000D01*
G01X15275000Y-4950000D01*
G01X15272820Y-4882606D01*
G01X15266369Y-4816376D01*
G01X15255783Y-4751445D01*
G01X15241197Y-4687948D01*
G01X15222745Y-4626021D01*
G01X15200563Y-4565797D01*
G01X15174786Y-4507414D01*
G01X15145549Y-4451004D01*
G01X15112987Y-4396704D01*
G01X15077234Y-4344648D01*
G01X15038427Y-4294972D01*
G01X14996701Y-4247811D01*
G01X14952189Y-4203299D01*
G01X14905028Y-4161573D01*
G01X14855352Y-4122766D01*
G01X14803296Y-4087013D01*
G01X14748996Y-4054451D01*
G01X14692587Y-4025214D01*
G01X14634203Y-3999437D01*
G01X14573979Y-3977255D01*
G01X14512052Y-3958803D01*
G01X14448555Y-3944217D01*
G01X14383624Y-3933631D01*
G01X14317394Y-3927180D01*
G01X14250000Y-3925000D01*
G01X14250000Y-3925000D01*
G01X14250000Y-3925000D01*
G01X14182606Y-3927180D01*
G01X14116376Y-3933631D01*
G01X14051445Y-3944217D01*
G01X13987948Y-3958803D01*
G01X13926021Y-3977255D01*
G01X13865797Y-3999437D01*
G01X13807413Y-4025214D01*
G01X13751004Y-4054451D01*
G01X13696704Y-4087013D01*
G01X13644648Y-4122766D01*
G01X13594972Y-4161573D01*
G01X13547811Y-4203299D01*
G01X13503299Y-4247811D01*
G01X13461573Y-4294972D01*
G01X13422766Y-4344648D01*
G01X13387013Y-4396704D01*
G01X13354451Y-4451004D01*
G01X13325214Y-4507414D01*
G01X13299437Y-4565797D01*
G01X13277255Y-4626021D01*
G01X13258803Y-4687948D01*
G01X13244217Y-4751445D01*
G01X13233631Y-4816376D01*
G01X13227180Y-4882606D01*
G01X13225000Y-4950000D01*
G01X13225000Y-4950000D01*
G01X13225000Y-4950000D01*
G01X13227180Y-5017394D01*
G01X13233631Y-5083624D01*
G01X13244217Y-5148555D01*
G01X13258803Y-5212052D01*
G01X13277255Y-5273979D01*
G01X13299437Y-5334203D01*
G01X13325214Y-5392587D01*
G01X13354451Y-5448996D01*
G01X13387013Y-5503296D01*
G01X13422766Y-5555352D01*
G01X13461573Y-5605028D01*
G01X13503299Y-5652189D01*
G01X13547811Y-5696701D01*
G01X13594972Y-5738427D01*
G01X13644648Y-5777234D01*
G01X13696704Y-5812987D01*
G01X13751004Y-5845549D01*
G01X13807413Y-5874786D01*
G01X13865797Y-5900563D01*
G01X13926021Y-5922745D01*
G01X13987948Y-5941197D01*
G01X14051445Y-5955783D01*
G01X14116376Y-5966369D01*
G01X14182606Y-5972820D01*
G01X14250000Y-5975000D01*
G01X14250000Y-5975000D01*
G37*
G36*
G01X9250000Y-36375000D02*
G01X9250000Y-36375000D01*
G01X9317394Y-36372820D01*
G01X9383624Y-36366369D01*
G01X9448555Y-36355783D01*
G01X9512052Y-36341197D01*
G01X9573979Y-36322745D01*
G01X9634203Y-36300563D01*
G01X9692587Y-36274786D01*
G01X9748996Y-36245549D01*
G01X9803296Y-36212987D01*
G01X9855352Y-36177234D01*
G01X9905028Y-36138427D01*
G01X9952189Y-36096701D01*
G01X9996701Y-36052189D01*
G01X10038427Y-36005028D01*
G01X10077234Y-35955352D01*
G01X10112987Y-35903296D01*
G01X10145549Y-35848996D01*
G01X10174786Y-35792586D01*
G01X10200563Y-35734203D01*
G01X10222745Y-35673979D01*
G01X10241197Y-35612052D01*
G01X10255783Y-35548555D01*
G01X10266369Y-35483624D01*
G01X10272820Y-35417394D01*
G01X10275000Y-35350000D01*
G01X10275000Y-35350000D01*
G01X10275000Y-35350000D01*
G01X10272820Y-35282606D01*
G01X10266369Y-35216376D01*
G01X10255783Y-35151445D01*
G01X10241197Y-35087948D01*
G01X10222745Y-35026021D01*
G01X10200563Y-34965797D01*
G01X10174786Y-34907413D01*
G01X10145549Y-34851004D01*
G01X10112987Y-34796704D01*
G01X10077234Y-34744648D01*
G01X10038427Y-34694972D01*
G01X9996701Y-34647811D01*
G01X9952189Y-34603299D01*
G01X9905028Y-34561573D01*
G01X9855352Y-34522766D01*
G01X9803296Y-34487013D01*
G01X9748996Y-34454451D01*
G01X9692587Y-34425214D01*
G01X9634203Y-34399437D01*
G01X9573979Y-34377255D01*
G01X9512052Y-34358803D01*
G01X9448555Y-34344217D01*
G01X9383624Y-34333631D01*
G01X9317394Y-34327180D01*
G01X9250000Y-34325000D01*
G01X9250000Y-34325000D01*
G01X9250000Y-34325000D01*
G01X9182606Y-34327180D01*
G01X9116376Y-34333631D01*
G01X9051445Y-34344217D01*
G01X8987948Y-34358803D01*
G01X8926021Y-34377255D01*
G01X8865797Y-34399437D01*
G01X8807413Y-34425214D01*
G01X8751004Y-34454451D01*
G01X8696704Y-34487013D01*
G01X8644648Y-34522766D01*
G01X8594972Y-34561573D01*
G01X8547811Y-34603299D01*
G01X8503299Y-34647811D01*
G01X8461573Y-34694972D01*
G01X8422766Y-34744648D01*
G01X8387013Y-34796704D01*
G01X8354451Y-34851004D01*
G01X8325214Y-34907413D01*
G01X8299437Y-34965797D01*
G01X8277255Y-35026021D01*
G01X8258803Y-35087948D01*
G01X8244217Y-35151445D01*
G01X8233631Y-35216376D01*
G01X8227180Y-35282606D01*
G01X8225000Y-35350000D01*
G01X8225000Y-35350000D01*
G01X8225000Y-35350000D01*
G01X8227180Y-35417394D01*
G01X8233631Y-35483624D01*
G01X8244217Y-35548555D01*
G01X8258803Y-35612052D01*
G01X8277255Y-35673979D01*
G01X8299437Y-35734203D01*
G01X8325214Y-35792586D01*
G01X8354451Y-35848996D01*
G01X8387013Y-35903296D01*
G01X8422766Y-35955352D01*
G01X8461573Y-36005028D01*
G01X8503299Y-36052189D01*
G01X8547811Y-36096701D01*
G01X8594972Y-36138427D01*
G01X8644648Y-36177234D01*
G01X8696704Y-36212987D01*
G01X8751004Y-36245549D01*
G01X8807413Y-36274786D01*
G01X8865797Y-36300563D01*
G01X8926021Y-36322745D01*
G01X8987948Y-36341197D01*
G01X9051445Y-36355783D01*
G01X9116376Y-36366369D01*
G01X9182606Y-36372820D01*
G01X9250000Y-36375000D01*
G01X9250000Y-36375000D01*
G37*
G36*
G01X14250000Y-38475000D02*
G01X14250000Y-38475000D01*
G01X14317394Y-38472820D01*
G01X14383624Y-38466369D01*
G01X14448555Y-38455783D01*
G01X14512052Y-38441197D01*
G01X14573979Y-38422745D01*
G01X14634203Y-38400563D01*
G01X14692587Y-38374786D01*
G01X14748996Y-38345549D01*
G01X14803296Y-38312987D01*
G01X14855352Y-38277234D01*
G01X14905028Y-38238427D01*
G01X14952189Y-38196701D01*
G01X14996701Y-38152189D01*
G01X15038427Y-38105028D01*
G01X15077234Y-38055352D01*
G01X15112987Y-38003296D01*
G01X15145549Y-37948996D01*
G01X15174786Y-37892587D01*
G01X15200563Y-37834203D01*
G01X15222745Y-37773979D01*
G01X15241197Y-37712052D01*
G01X15255783Y-37648555D01*
G01X15266369Y-37583624D01*
G01X15272820Y-37517394D01*
G01X15275000Y-37450000D01*
G01X15275000Y-37450000D01*
G01X15275000Y-37450000D01*
G01X15272820Y-37382606D01*
G01X15266369Y-37316376D01*
G01X15255783Y-37251445D01*
G01X15241197Y-37187948D01*
G01X15222745Y-37126021D01*
G01X15200563Y-37065797D01*
G01X15174786Y-37007413D01*
G01X15145549Y-36951004D01*
G01X15112987Y-36896704D01*
G01X15077234Y-36844648D01*
G01X15038427Y-36794972D01*
G01X14996701Y-36747811D01*
G01X14952189Y-36703299D01*
G01X14905028Y-36661573D01*
G01X14855352Y-36622766D01*
G01X14803296Y-36587013D01*
G01X14748996Y-36554451D01*
G01X14692587Y-36525214D01*
G01X14634203Y-36499437D01*
G01X14573979Y-36477255D01*
G01X14512052Y-36458803D01*
G01X14448555Y-36444217D01*
G01X14383624Y-36433631D01*
G01X14317394Y-36427180D01*
G01X14250000Y-36425000D01*
G01X14250000Y-36425000D01*
G01X14250000Y-36425000D01*
G01X14182606Y-36427180D01*
G01X14116376Y-36433631D01*
G01X14051445Y-36444217D01*
G01X13987948Y-36458803D01*
G01X13926021Y-36477255D01*
G01X13865797Y-36499437D01*
G01X13807413Y-36525214D01*
G01X13751004Y-36554451D01*
G01X13696704Y-36587013D01*
G01X13644648Y-36622766D01*
G01X13594972Y-36661573D01*
G01X13547811Y-36703299D01*
G01X13503299Y-36747811D01*
G01X13461573Y-36794972D01*
G01X13422766Y-36844648D01*
G01X13387013Y-36896704D01*
G01X13354451Y-36951004D01*
G01X13325214Y-37007413D01*
G01X13299437Y-37065797D01*
G01X13277255Y-37126021D01*
G01X13258803Y-37187948D01*
G01X13244217Y-37251445D01*
G01X13233631Y-37316376D01*
G01X13227180Y-37382606D01*
G01X13225000Y-37450000D01*
G01X13225000Y-37450000D01*
G01X13225000Y-37450000D01*
G01X13227180Y-37517394D01*
G01X13233631Y-37583624D01*
G01X13244217Y-37648555D01*
G01X13258803Y-37712052D01*
G01X13277255Y-37773979D01*
G01X13299437Y-37834203D01*
G01X13325214Y-37892587D01*
G01X13354451Y-37948996D01*
G01X13387013Y-38003296D01*
G01X13422766Y-38055352D01*
G01X13461573Y-38105028D01*
G01X13503299Y-38152189D01*
G01X13547811Y-38196701D01*
G01X13594972Y-38238427D01*
G01X13644648Y-38277234D01*
G01X13696704Y-38312987D01*
G01X13751004Y-38345549D01*
G01X13807413Y-38374786D01*
G01X13865797Y-38400563D01*
G01X13926021Y-38422745D01*
G01X13987948Y-38441197D01*
G01X14051445Y-38455783D01*
G01X14116376Y-38466369D01*
G01X14182606Y-38472820D01*
G01X14250000Y-38475000D01*
G01X14250000Y-38475000D01*
G37*
G36*
G01X41190000Y-10575000D02*
G01X41190000Y-10575000D01*
G01X41254107Y-10572926D01*
G01X41317106Y-10566790D01*
G01X41378869Y-10556720D01*
G01X41439269Y-10542845D01*
G01X41498175Y-10525294D01*
G01X41555461Y-10504194D01*
G01X41610997Y-10479674D01*
G01X41664655Y-10451863D01*
G01X41716306Y-10420890D01*
G01X41765822Y-10386882D01*
G01X41813075Y-10349968D01*
G01X41857936Y-10310276D01*
G01X41900276Y-10267936D01*
G01X41939968Y-10223075D01*
G01X41976882Y-10175822D01*
G01X42010890Y-10126306D01*
G01X42041863Y-10074655D01*
G01X42069674Y-10020997D01*
G01X42094194Y-9965461D01*
G01X42115294Y-9908175D01*
G01X42132845Y-9849269D01*
G01X42146720Y-9788869D01*
G01X42156790Y-9727106D01*
G01X42162926Y-9664107D01*
G01X42165000Y-9600000D01*
G01X42165000Y-9600000D01*
G01X42165000Y-9600000D01*
G01X42162926Y-9535893D01*
G01X42156790Y-9472894D01*
G01X42146720Y-9411131D01*
G01X42132845Y-9350731D01*
G01X42115294Y-9291825D01*
G01X42094194Y-9234539D01*
G01X42069674Y-9179003D01*
G01X42041863Y-9125345D01*
G01X42010890Y-9073694D01*
G01X41976882Y-9024178D01*
G01X41939968Y-8976925D01*
G01X41900276Y-8932064D01*
G01X41857936Y-8889724D01*
G01X41813075Y-8850032D01*
G01X41765822Y-8813118D01*
G01X41716306Y-8779110D01*
G01X41664655Y-8748137D01*
G01X41610997Y-8720326D01*
G01X41555461Y-8695806D01*
G01X41498175Y-8674706D01*
G01X41439269Y-8657155D01*
G01X41378869Y-8643280D01*
G01X41317106Y-8633210D01*
G01X41254107Y-8627074D01*
G01X41190000Y-8625000D01*
G01X41190000Y-8625000D01*
G01X41190000Y-8625000D01*
G01X41125893Y-8627074D01*
G01X41062894Y-8633210D01*
G01X41001131Y-8643280D01*
G01X40940731Y-8657155D01*
G01X40881825Y-8674706D01*
G01X40824539Y-8695806D01*
G01X40769003Y-8720326D01*
G01X40715345Y-8748137D01*
G01X40663694Y-8779110D01*
G01X40614178Y-8813118D01*
G01X40566925Y-8850032D01*
G01X40522064Y-8889724D01*
G01X40479724Y-8932064D01*
G01X40440032Y-8976925D01*
G01X40403118Y-9024178D01*
G01X40369110Y-9073694D01*
G01X40338137Y-9125345D01*
G01X40310326Y-9179003D01*
G01X40285806Y-9234539D01*
G01X40264706Y-9291825D01*
G01X40247155Y-9350731D01*
G01X40233280Y-9411131D01*
G01X40223210Y-9472894D01*
G01X40217074Y-9535893D01*
G01X40215000Y-9600000D01*
G01X40215000Y-9600000D01*
G01X40215000Y-9600000D01*
G01X40217074Y-9664107D01*
G01X40223210Y-9727106D01*
G01X40233280Y-9788869D01*
G01X40247155Y-9849269D01*
G01X40264706Y-9908175D01*
G01X40285806Y-9965461D01*
G01X40310326Y-10020997D01*
G01X40338137Y-10074655D01*
G01X40369110Y-10126306D01*
G01X40403118Y-10175822D01*
G01X40440032Y-10223075D01*
G01X40479724Y-10267936D01*
G01X40522064Y-10310276D01*
G01X40566925Y-10349968D01*
G01X40614178Y-10386882D01*
G01X40663694Y-10420890D01*
G01X40715345Y-10451863D01*
G01X40769003Y-10479674D01*
G01X40824539Y-10504194D01*
G01X40881825Y-10525294D01*
G01X40940731Y-10542845D01*
G01X41001131Y-10556720D01*
G01X41062894Y-10566790D01*
G01X41125893Y-10572926D01*
G01X41190000Y-10575000D01*
G01X41190000Y-10575000D01*
G37*
G36*
G01X46270000Y-10575000D02*
G01X46270000Y-10575000D01*
G01X46334107Y-10572926D01*
G01X46397106Y-10566790D01*
G01X46458869Y-10556720D01*
G01X46519269Y-10542845D01*
G01X46578175Y-10525294D01*
G01X46635461Y-10504194D01*
G01X46690997Y-10479674D01*
G01X46744655Y-10451863D01*
G01X46796306Y-10420890D01*
G01X46845822Y-10386882D01*
G01X46893075Y-10349968D01*
G01X46937936Y-10310276D01*
G01X46980276Y-10267936D01*
G01X47019968Y-10223075D01*
G01X47056882Y-10175822D01*
G01X47090890Y-10126306D01*
G01X47121863Y-10074655D01*
G01X47149674Y-10020997D01*
G01X47174194Y-9965461D01*
G01X47195294Y-9908175D01*
G01X47212845Y-9849269D01*
G01X47226720Y-9788869D01*
G01X47236790Y-9727106D01*
G01X47242926Y-9664107D01*
G01X47245000Y-9600000D01*
G01X47245000Y-9600000D01*
G01X47245000Y-9600000D01*
G01X47242926Y-9535893D01*
G01X47236790Y-9472894D01*
G01X47226720Y-9411131D01*
G01X47212845Y-9350731D01*
G01X47195294Y-9291825D01*
G01X47174194Y-9234539D01*
G01X47149674Y-9179003D01*
G01X47121863Y-9125345D01*
G01X47090890Y-9073694D01*
G01X47056882Y-9024178D01*
G01X47019968Y-8976925D01*
G01X46980276Y-8932064D01*
G01X46937936Y-8889724D01*
G01X46893075Y-8850032D01*
G01X46845822Y-8813118D01*
G01X46796306Y-8779110D01*
G01X46744655Y-8748137D01*
G01X46690997Y-8720326D01*
G01X46635461Y-8695806D01*
G01X46578175Y-8674706D01*
G01X46519269Y-8657155D01*
G01X46458869Y-8643280D01*
G01X46397106Y-8633210D01*
G01X46334107Y-8627074D01*
G01X46270000Y-8625000D01*
G01X46270000Y-8625000D01*
G01X46270000Y-8625000D01*
G01X46205893Y-8627074D01*
G01X46142894Y-8633210D01*
G01X46081131Y-8643280D01*
G01X46020731Y-8657155D01*
G01X45961825Y-8674706D01*
G01X45904539Y-8695806D01*
G01X45849003Y-8720326D01*
G01X45795345Y-8748137D01*
G01X45743694Y-8779110D01*
G01X45694178Y-8813118D01*
G01X45646925Y-8850032D01*
G01X45602064Y-8889724D01*
G01X45559724Y-8932064D01*
G01X45520032Y-8976925D01*
G01X45483118Y-9024178D01*
G01X45449110Y-9073694D01*
G01X45418137Y-9125345D01*
G01X45390326Y-9179003D01*
G01X45365806Y-9234539D01*
G01X45344706Y-9291825D01*
G01X45327155Y-9350731D01*
G01X45313280Y-9411131D01*
G01X45303210Y-9472894D01*
G01X45297074Y-9535893D01*
G01X45295000Y-9600000D01*
G01X45295000Y-9600000D01*
G01X45295000Y-9600000D01*
G01X45297074Y-9664107D01*
G01X45303210Y-9727106D01*
G01X45313280Y-9788869D01*
G01X45327155Y-9849269D01*
G01X45344706Y-9908175D01*
G01X45365806Y-9965461D01*
G01X45390326Y-10020997D01*
G01X45418137Y-10074655D01*
G01X45449110Y-10126306D01*
G01X45483118Y-10175822D01*
G01X45520032Y-10223075D01*
G01X45559724Y-10267936D01*
G01X45602064Y-10310276D01*
G01X45646925Y-10349968D01*
G01X45694178Y-10386882D01*
G01X45743694Y-10420890D01*
G01X45795345Y-10451863D01*
G01X45849003Y-10479674D01*
G01X45904539Y-10504194D01*
G01X45961825Y-10525294D01*
G01X46020731Y-10542845D01*
G01X46081131Y-10556720D01*
G01X46142894Y-10566790D01*
G01X46205893Y-10572926D01*
G01X46270000Y-10575000D01*
G01X46270000Y-10575000D01*
G37*
G36*
G01X43730000Y-10575000D02*
G01X43730000Y-10575000D01*
G01X43794107Y-10572926D01*
G01X43857106Y-10566790D01*
G01X43918869Y-10556720D01*
G01X43979269Y-10542845D01*
G01X44038175Y-10525294D01*
G01X44095461Y-10504194D01*
G01X44150997Y-10479674D01*
G01X44204655Y-10451863D01*
G01X44256306Y-10420890D01*
G01X44305822Y-10386882D01*
G01X44353075Y-10349968D01*
G01X44397936Y-10310276D01*
G01X44440276Y-10267936D01*
G01X44479968Y-10223075D01*
G01X44516882Y-10175822D01*
G01X44550890Y-10126306D01*
G01X44581863Y-10074655D01*
G01X44609674Y-10020997D01*
G01X44634194Y-9965461D01*
G01X44655294Y-9908175D01*
G01X44672845Y-9849269D01*
G01X44686720Y-9788869D01*
G01X44696790Y-9727106D01*
G01X44702926Y-9664107D01*
G01X44705000Y-9600000D01*
G01X44705000Y-9600000D01*
G01X44705000Y-9600000D01*
G01X44702926Y-9535893D01*
G01X44696790Y-9472894D01*
G01X44686720Y-9411131D01*
G01X44672845Y-9350731D01*
G01X44655294Y-9291825D01*
G01X44634194Y-9234539D01*
G01X44609674Y-9179003D01*
G01X44581863Y-9125345D01*
G01X44550890Y-9073694D01*
G01X44516882Y-9024178D01*
G01X44479968Y-8976925D01*
G01X44440276Y-8932064D01*
G01X44397936Y-8889724D01*
G01X44353075Y-8850032D01*
G01X44305822Y-8813118D01*
G01X44256306Y-8779110D01*
G01X44204655Y-8748137D01*
G01X44150997Y-8720326D01*
G01X44095461Y-8695806D01*
G01X44038175Y-8674706D01*
G01X43979269Y-8657155D01*
G01X43918869Y-8643280D01*
G01X43857106Y-8633210D01*
G01X43794107Y-8627074D01*
G01X43730000Y-8625000D01*
G01X43730000Y-8625000D01*
G01X43730000Y-8625000D01*
G01X43665893Y-8627074D01*
G01X43602894Y-8633210D01*
G01X43541131Y-8643280D01*
G01X43480731Y-8657155D01*
G01X43421825Y-8674706D01*
G01X43364539Y-8695806D01*
G01X43309003Y-8720326D01*
G01X43255345Y-8748137D01*
G01X43203694Y-8779110D01*
G01X43154178Y-8813118D01*
G01X43106925Y-8850032D01*
G01X43062064Y-8889724D01*
G01X43019724Y-8932064D01*
G01X42980032Y-8976925D01*
G01X42943118Y-9024178D01*
G01X42909110Y-9073694D01*
G01X42878137Y-9125345D01*
G01X42850326Y-9179003D01*
G01X42825806Y-9234539D01*
G01X42804706Y-9291825D01*
G01X42787155Y-9350731D01*
G01X42773280Y-9411131D01*
G01X42763210Y-9472894D01*
G01X42757074Y-9535893D01*
G01X42755000Y-9600000D01*
G01X42755000Y-9600000D01*
G01X42755000Y-9600000D01*
G01X42757074Y-9664107D01*
G01X42763210Y-9727106D01*
G01X42773280Y-9788869D01*
G01X42787155Y-9849269D01*
G01X42804706Y-9908175D01*
G01X42825806Y-9965461D01*
G01X42850326Y-10020997D01*
G01X42878137Y-10074655D01*
G01X42909110Y-10126306D01*
G01X42943118Y-10175822D01*
G01X42980032Y-10223075D01*
G01X43019724Y-10267936D01*
G01X43062064Y-10310276D01*
G01X43106925Y-10349968D01*
G01X43154178Y-10386882D01*
G01X43203694Y-10420890D01*
G01X43255345Y-10451863D01*
G01X43309003Y-10479674D01*
G01X43364539Y-10504194D01*
G01X43421825Y-10525294D01*
G01X43480731Y-10542845D01*
G01X43541131Y-10556720D01*
G01X43602894Y-10566790D01*
G01X43665893Y-10572926D01*
G01X43730000Y-10575000D01*
G01X43730000Y-10575000D01*
G37*
G36*
G01X48810000Y-10575000D02*
G01X48810000Y-10575000D01*
G01X48874107Y-10572926D01*
G01X48937106Y-10566790D01*
G01X48998869Y-10556720D01*
G01X49059269Y-10542845D01*
G01X49118175Y-10525294D01*
G01X49175461Y-10504194D01*
G01X49230997Y-10479674D01*
G01X49284655Y-10451863D01*
G01X49336306Y-10420890D01*
G01X49385822Y-10386882D01*
G01X49433075Y-10349968D01*
G01X49477936Y-10310276D01*
G01X49520276Y-10267936D01*
G01X49559968Y-10223075D01*
G01X49596882Y-10175822D01*
G01X49630890Y-10126306D01*
G01X49661863Y-10074655D01*
G01X49689674Y-10020997D01*
G01X49714194Y-9965461D01*
G01X49735294Y-9908175D01*
G01X49752845Y-9849269D01*
G01X49766720Y-9788869D01*
G01X49776790Y-9727106D01*
G01X49782926Y-9664107D01*
G01X49785000Y-9600000D01*
G01X49785000Y-9600000D01*
G01X49785000Y-9600000D01*
G01X49782926Y-9535893D01*
G01X49776790Y-9472894D01*
G01X49766720Y-9411131D01*
G01X49752845Y-9350731D01*
G01X49735294Y-9291825D01*
G01X49714194Y-9234539D01*
G01X49689674Y-9179003D01*
G01X49661863Y-9125345D01*
G01X49630890Y-9073694D01*
G01X49596882Y-9024178D01*
G01X49559968Y-8976925D01*
G01X49520276Y-8932064D01*
G01X49477936Y-8889724D01*
G01X49433075Y-8850032D01*
G01X49385822Y-8813118D01*
G01X49336306Y-8779110D01*
G01X49284655Y-8748137D01*
G01X49230997Y-8720326D01*
G01X49175461Y-8695806D01*
G01X49118175Y-8674706D01*
G01X49059269Y-8657155D01*
G01X48998869Y-8643280D01*
G01X48937106Y-8633210D01*
G01X48874107Y-8627074D01*
G01X48810000Y-8625000D01*
G01X48810000Y-8625000D01*
G01X48810000Y-8625000D01*
G01X48745893Y-8627074D01*
G01X48682894Y-8633210D01*
G01X48621131Y-8643280D01*
G01X48560731Y-8657155D01*
G01X48501825Y-8674706D01*
G01X48444539Y-8695806D01*
G01X48389003Y-8720326D01*
G01X48335345Y-8748137D01*
G01X48283694Y-8779110D01*
G01X48234178Y-8813118D01*
G01X48186925Y-8850032D01*
G01X48142064Y-8889724D01*
G01X48099724Y-8932064D01*
G01X48060032Y-8976925D01*
G01X48023118Y-9024178D01*
G01X47989110Y-9073694D01*
G01X47958137Y-9125345D01*
G01X47930326Y-9179003D01*
G01X47905806Y-9234539D01*
G01X47884706Y-9291825D01*
G01X47867155Y-9350731D01*
G01X47853280Y-9411131D01*
G01X47843210Y-9472894D01*
G01X47837074Y-9535893D01*
G01X47835000Y-9600000D01*
G01X47835000Y-9600000D01*
G01X47835000Y-9600000D01*
G01X47837074Y-9664107D01*
G01X47843210Y-9727106D01*
G01X47853280Y-9788869D01*
G01X47867155Y-9849269D01*
G01X47884706Y-9908175D01*
G01X47905806Y-9965461D01*
G01X47930326Y-10020997D01*
G01X47958137Y-10074655D01*
G01X47989110Y-10126306D01*
G01X48023118Y-10175822D01*
G01X48060032Y-10223075D01*
G01X48099724Y-10267936D01*
G01X48142064Y-10310276D01*
G01X48186925Y-10349968D01*
G01X48234178Y-10386882D01*
G01X48283694Y-10420890D01*
G01X48335345Y-10451863D01*
G01X48389003Y-10479674D01*
G01X48444539Y-10504194D01*
G01X48501825Y-10525294D01*
G01X48560731Y-10542845D01*
G01X48621131Y-10556720D01*
G01X48682894Y-10566790D01*
G01X48745893Y-10572926D01*
G01X48810000Y-10575000D01*
G01X48810000Y-10575000D01*
G37*
G36*
G01X80750000Y-3875000D02*
G01X80750000Y-3875000D01*
G01X80817394Y-3872820D01*
G01X80883624Y-3866369D01*
G01X80948555Y-3855783D01*
G01X81012052Y-3841197D01*
G01X81073979Y-3822745D01*
G01X81134203Y-3800563D01*
G01X81192587Y-3774786D01*
G01X81248996Y-3745549D01*
G01X81303296Y-3712987D01*
G01X81355352Y-3677234D01*
G01X81405028Y-3638427D01*
G01X81452189Y-3596701D01*
G01X81496701Y-3552189D01*
G01X81538427Y-3505028D01*
G01X81577234Y-3455352D01*
G01X81612987Y-3403296D01*
G01X81645549Y-3348996D01*
G01X81674786Y-3292587D01*
G01X81700563Y-3234203D01*
G01X81722745Y-3173979D01*
G01X81741197Y-3112052D01*
G01X81755783Y-3048555D01*
G01X81766369Y-2983624D01*
G01X81772820Y-2917394D01*
G01X81775000Y-2850000D01*
G01X81775000Y-2850000D01*
G01X81775000Y-2850000D01*
G01X81772820Y-2782606D01*
G01X81766369Y-2716376D01*
G01X81755783Y-2651445D01*
G01X81741197Y-2587948D01*
G01X81722745Y-2526021D01*
G01X81700563Y-2465797D01*
G01X81674786Y-2407414D01*
G01X81645549Y-2351004D01*
G01X81612987Y-2296704D01*
G01X81577234Y-2244648D01*
G01X81538427Y-2194972D01*
G01X81496701Y-2147811D01*
G01X81452189Y-2103299D01*
G01X81405028Y-2061573D01*
G01X81355352Y-2022766D01*
G01X81303296Y-1987013D01*
G01X81248996Y-1954451D01*
G01X81192587Y-1925214D01*
G01X81134203Y-1899437D01*
G01X81073979Y-1877255D01*
G01X81012052Y-1858803D01*
G01X80948555Y-1844217D01*
G01X80883624Y-1833631D01*
G01X80817394Y-1827180D01*
G01X80750000Y-1825000D01*
G01X80750000Y-1825000D01*
G01X80750000Y-1825000D01*
G01X80682606Y-1827180D01*
G01X80616376Y-1833631D01*
G01X80551445Y-1844217D01*
G01X80487948Y-1858803D01*
G01X80426021Y-1877255D01*
G01X80365797Y-1899437D01*
G01X80307413Y-1925214D01*
G01X80251004Y-1954451D01*
G01X80196704Y-1987013D01*
G01X80144648Y-2022766D01*
G01X80094972Y-2061573D01*
G01X80047811Y-2103299D01*
G01X80003299Y-2147811D01*
G01X79961573Y-2194972D01*
G01X79922766Y-2244648D01*
G01X79887013Y-2296704D01*
G01X79854451Y-2351004D01*
G01X79825214Y-2407414D01*
G01X79799437Y-2465797D01*
G01X79777255Y-2526021D01*
G01X79758803Y-2587948D01*
G01X79744217Y-2651445D01*
G01X79733631Y-2716376D01*
G01X79727180Y-2782606D01*
G01X79725000Y-2850000D01*
G01X79725000Y-2850000D01*
G01X79725000Y-2850000D01*
G01X79727180Y-2917394D01*
G01X79733631Y-2983624D01*
G01X79744217Y-3048555D01*
G01X79758803Y-3112052D01*
G01X79777255Y-3173979D01*
G01X79799437Y-3234203D01*
G01X79825214Y-3292587D01*
G01X79854451Y-3348996D01*
G01X79887013Y-3403296D01*
G01X79922766Y-3455352D01*
G01X79961573Y-3505028D01*
G01X80003299Y-3552189D01*
G01X80047811Y-3596701D01*
G01X80094972Y-3638427D01*
G01X80144648Y-3677234D01*
G01X80196704Y-3712987D01*
G01X80251004Y-3745549D01*
G01X80307413Y-3774786D01*
G01X80365797Y-3800563D01*
G01X80426021Y-3822745D01*
G01X80487948Y-3841197D01*
G01X80551445Y-3855783D01*
G01X80616376Y-3866369D01*
G01X80682606Y-3872820D01*
G01X80750000Y-3875000D01*
G01X80750000Y-3875000D01*
G37*
G36*
G01X85750000Y-5975000D02*
G01X85750000Y-5975000D01*
G01X85817394Y-5972820D01*
G01X85883624Y-5966369D01*
G01X85948555Y-5955783D01*
G01X86012052Y-5941197D01*
G01X86073979Y-5922745D01*
G01X86134203Y-5900563D01*
G01X86192587Y-5874786D01*
G01X86248996Y-5845549D01*
G01X86303296Y-5812987D01*
G01X86355352Y-5777234D01*
G01X86405028Y-5738427D01*
G01X86452189Y-5696701D01*
G01X86496701Y-5652189D01*
G01X86538427Y-5605028D01*
G01X86577234Y-5555352D01*
G01X86612987Y-5503296D01*
G01X86645549Y-5448996D01*
G01X86674786Y-5392587D01*
G01X86700563Y-5334203D01*
G01X86722745Y-5273979D01*
G01X86741197Y-5212052D01*
G01X86755783Y-5148555D01*
G01X86766369Y-5083624D01*
G01X86772820Y-5017394D01*
G01X86775000Y-4950000D01*
G01X86775000Y-4950000D01*
G01X86775000Y-4950000D01*
G01X86772820Y-4882606D01*
G01X86766369Y-4816376D01*
G01X86755783Y-4751445D01*
G01X86741197Y-4687948D01*
G01X86722745Y-4626021D01*
G01X86700563Y-4565797D01*
G01X86674786Y-4507414D01*
G01X86645549Y-4451004D01*
G01X86612987Y-4396704D01*
G01X86577234Y-4344648D01*
G01X86538427Y-4294972D01*
G01X86496701Y-4247811D01*
G01X86452189Y-4203299D01*
G01X86405028Y-4161573D01*
G01X86355352Y-4122766D01*
G01X86303296Y-4087013D01*
G01X86248996Y-4054451D01*
G01X86192587Y-4025214D01*
G01X86134203Y-3999437D01*
G01X86073979Y-3977255D01*
G01X86012052Y-3958803D01*
G01X85948555Y-3944217D01*
G01X85883624Y-3933631D01*
G01X85817394Y-3927180D01*
G01X85750000Y-3925000D01*
G01X85750000Y-3925000D01*
G01X85750000Y-3925000D01*
G01X85682606Y-3927180D01*
G01X85616376Y-3933631D01*
G01X85551445Y-3944217D01*
G01X85487948Y-3958803D01*
G01X85426021Y-3977255D01*
G01X85365797Y-3999437D01*
G01X85307413Y-4025214D01*
G01X85251004Y-4054451D01*
G01X85196704Y-4087013D01*
G01X85144648Y-4122766D01*
G01X85094972Y-4161573D01*
G01X85047811Y-4203299D01*
G01X85003299Y-4247811D01*
G01X84961573Y-4294972D01*
G01X84922766Y-4344648D01*
G01X84887013Y-4396704D01*
G01X84854451Y-4451004D01*
G01X84825214Y-4507414D01*
G01X84799437Y-4565797D01*
G01X84777255Y-4626021D01*
G01X84758803Y-4687948D01*
G01X84744217Y-4751445D01*
G01X84733631Y-4816376D01*
G01X84727180Y-4882606D01*
G01X84725000Y-4950000D01*
G01X84725000Y-4950000D01*
G01X84725000Y-4950000D01*
G01X84727180Y-5017394D01*
G01X84733631Y-5083624D01*
G01X84744217Y-5148555D01*
G01X84758803Y-5212052D01*
G01X84777255Y-5273979D01*
G01X84799437Y-5334203D01*
G01X84825214Y-5392587D01*
G01X84854451Y-5448996D01*
G01X84887013Y-5503296D01*
G01X84922766Y-5555352D01*
G01X84961573Y-5605028D01*
G01X85003299Y-5652189D01*
G01X85047811Y-5696701D01*
G01X85094972Y-5738427D01*
G01X85144648Y-5777234D01*
G01X85196704Y-5812987D01*
G01X85251004Y-5845549D01*
G01X85307413Y-5874786D01*
G01X85365797Y-5900563D01*
G01X85426021Y-5922745D01*
G01X85487948Y-5941197D01*
G01X85551445Y-5955783D01*
G01X85616376Y-5966369D01*
G01X85682606Y-5972820D01*
G01X85750000Y-5975000D01*
G01X85750000Y-5975000D01*
G37*
G36*
G01X91400000Y-10275000D02*
G01X92600000Y-10275000D01*
G01X92600000Y-11475000D01*
G01X91400000Y-11475000D01*
G01X91400000Y-10275000D01*
G37*
G36*
G01X92850000Y-10426758D02*
G01X92850000Y-10426758D01*
G01X92893360Y-10423242D01*
G01X92893360Y-10423242D01*
G01X92944751Y-10455441D01*
G01X92947266Y-10468945D01*
G01X92947266Y-10468945D01*
G01X92946983Y-10514271D01*
G01X92946440Y-10584544D01*
G01X92946099Y-10626774D01*
G01X92946094Y-10627442D01*
G01X92946094Y-10627442D01*
G01X92945360Y-10724262D01*
G01X92945022Y-10780763D01*
G01X92944927Y-10805552D01*
G01X92944922Y-10808789D01*
G01X92944922Y-10808789D01*
G01X93013602Y-10770803D01*
G01X93074953Y-10751985D01*
G01X93117604Y-10745602D01*
G01X93130664Y-10744922D01*
G01X93130664Y-10744922D01*
G01X93204851Y-10759603D01*
G01X93256193Y-10788966D01*
G01X93280989Y-10810988D01*
G01X93282715Y-10812891D01*
G01X93282715Y-10812891D01*
G01X93315423Y-10870499D01*
G01X93332818Y-10934369D01*
G01X93339736Y-10987879D01*
G01X93341012Y-11014408D01*
G01X93341016Y-11015039D01*
G01X93341016Y-11015039D01*
G01X93332957Y-11095456D01*
G01X93314322Y-11160638D01*
G01X93293420Y-11207513D01*
G01X93278562Y-11233014D01*
G01X93275977Y-11236817D01*
G01X93275977Y-11236817D01*
G01X93221713Y-11287276D01*
G01X93162524Y-11314111D01*
G01X93113331Y-11324784D01*
G01X93089053Y-11326752D01*
G01X93088477Y-11326758D01*
G01X93088477Y-11326758D01*
G01X93010708Y-11317491D01*
G01X92945750Y-11295725D01*
G01X92896956Y-11270511D01*
G01X92867680Y-11250900D01*
G01X92860547Y-11245313D01*
G01X92860547Y-11245313D01*
G01X92864611Y-11190825D01*
G01X92867185Y-11123428D01*
G01X92868605Y-11057494D01*
G01X92869210Y-11007394D01*
G01X92869336Y-10987500D01*
G01X92869336Y-10987500D01*
G01X92869336Y-10987500D01*
G01X92868863Y-10926138D01*
G01X92867686Y-10856754D01*
G01X92866168Y-10788244D01*
G01X92864671Y-10729502D01*
G01X92863558Y-10689425D01*
G01X92863184Y-10676660D01*
G01X92863184Y-10676660D01*
G01X92859450Y-10572258D01*
G01X92855885Y-10500481D01*
G01X92852869Y-10455914D01*
G01X92850781Y-10433145D01*
G01X92850000Y-10426758D01*
G01X92850000Y-10426758D01*
G37*
%LPC*%
G36*
G01X92943750Y-11197266D02*
G01X92943750Y-11197266D01*
G01X93008682Y-11238198D01*
G01X93065166Y-11255780D01*
G01X93097160Y-11259883D01*
G01X93099610Y-11259961D01*
G01X93099610Y-11259961D01*
G01X93167966Y-11240481D01*
G01X93207124Y-11205755D01*
G01X93217676Y-11190820D01*
G01X93217676Y-11190820D01*
G01X93243276Y-11124892D01*
G01X93254147Y-11064595D01*
G01X93256602Y-11029485D01*
G01X93256641Y-11026758D01*
G01X93256641Y-11026758D01*
G01X93247339Y-10944408D01*
G01X93228734Y-10891294D01*
G01X93214780Y-10867226D01*
G01X93213574Y-10865625D01*
G01X93213574Y-10865625D01*
G01X93155519Y-10823256D01*
G01X93111283Y-10812616D01*
G01X93105469Y-10812305D01*
G01X93103711Y-10812305D01*
G01X93103711Y-10812305D01*
G01X93034372Y-10825184D01*
G01X92980072Y-10851474D01*
G01X92949645Y-10872656D01*
G01X92946094Y-10875586D01*
G01X92946094Y-10875586D01*
G01X92946515Y-10934427D01*
G01X92946680Y-10952637D01*
G01X92946680Y-10952637D01*
G01X92947193Y-11026575D01*
G01X92947266Y-11053711D01*
G01X92947266Y-11053711D01*
G01X92947266Y-11053711D01*
G01X92946275Y-11136787D01*
G01X92944510Y-11184420D01*
G01X92943750Y-11197266D01*
G37*
%LPD*%
G36*
G01X93441211Y-11036719D02*
G01X93441211Y-11036719D01*
G01X93450141Y-10957536D01*
G01X93470791Y-10895209D01*
G01X93493953Y-10851534D01*
G01X93510417Y-10828309D01*
G01X93513282Y-10824903D01*
G01X93513282Y-10824903D01*
G01X93570640Y-10780032D01*
G01X93630023Y-10756168D01*
G01X93678066Y-10746678D01*
G01X93701404Y-10744927D01*
G01X93701953Y-10744922D01*
G01X93701953Y-10744922D01*
G01X93778446Y-10756531D01*
G01X93836903Y-10782514D01*
G01X93875188Y-10809603D01*
G01X93891161Y-10824529D01*
G01X93891504Y-10824903D01*
G01X93891504Y-10824903D01*
G01X93929219Y-10883263D01*
G01X93950676Y-10944947D01*
G01X93960460Y-10998218D01*
G01X93963157Y-11031341D01*
G01X93963281Y-11036719D01*
G01X93963281Y-11036719D01*
G01X93953637Y-11118996D01*
G01X93931690Y-11182610D01*
G01X93907921Y-11225637D01*
G01X93892809Y-11246151D01*
G01X93891504Y-11247656D01*
G01X93891504Y-11247656D01*
G01X93834140Y-11292034D01*
G01X93774464Y-11315636D01*
G01X93726059Y-11325022D01*
G01X93702508Y-11326753D01*
G01X93701953Y-11326758D01*
G01X93701953Y-11326758D01*
G01X93626076Y-11315276D01*
G01X93567873Y-11289579D01*
G01X93529628Y-11262788D01*
G01X93513626Y-11248026D01*
G01X93513282Y-11247656D01*
G01X93513282Y-11247656D01*
G01X93475412Y-11189758D01*
G01X93453868Y-11128337D01*
G01X93444044Y-11075185D01*
G01X93441336Y-11042095D01*
G01X93441211Y-11036719D01*
G37*
%LPC*%
G36*
G01X93525586Y-11019727D02*
G01X93525586Y-11019727D01*
G01X93534497Y-11097475D01*
G01X93553049Y-11154485D01*
G01X93568972Y-11186281D01*
G01X93572168Y-11191406D01*
G01X93572168Y-11191406D01*
G01X93625942Y-11239342D01*
G01X93677808Y-11257267D01*
G01X93701929Y-11259961D01*
G01X93701953Y-11259961D01*
G01X93701953Y-11259961D01*
G01X93775939Y-11244113D01*
G01X93820230Y-11215861D01*
G01X93832617Y-11203711D01*
G01X93832617Y-11203711D01*
G01X93864753Y-11142492D01*
G01X93877305Y-11084038D01*
G01X93879489Y-11054153D01*
G01X93879492Y-11053711D01*
G01X93879492Y-11053711D01*
G01X93870301Y-10975851D01*
G01X93851166Y-10918608D01*
G01X93834742Y-10886611D01*
G01X93831446Y-10881445D01*
G01X93831446Y-10881445D01*
G01X93777095Y-10833100D01*
G01X93725685Y-10815022D01*
G01X93701978Y-10812305D01*
G01X93701953Y-10812305D01*
G01X93701953Y-10812305D01*
G01X93628133Y-10828318D01*
G01X93584136Y-10856864D01*
G01X93571875Y-10869141D01*
G01X93571875Y-10869141D01*
G01X93540141Y-10930762D01*
G01X93527746Y-10989373D01*
G01X93525589Y-11019285D01*
G01X93525586Y-11019727D01*
G37*
%LPD*%
G36*
G01X94017188Y-10800000D02*
G01X94017188Y-10800000D01*
G01X94035059Y-10764844D01*
G01X94035059Y-10764844D01*
G01X94092066Y-10757279D01*
G01X94096289Y-10757227D01*
G01X94130274Y-10757227D01*
G01X94130274Y-10757227D01*
G01X94126783Y-10678459D01*
G01X94123454Y-10631480D01*
G01X94122657Y-10622461D01*
G01X94122657Y-10622461D01*
G01X94162500Y-10618945D01*
G01X94162500Y-10618945D01*
G01X94216771Y-10649866D01*
G01X94219922Y-10664649D01*
G01X94219922Y-10664649D01*
G01X94217298Y-10722961D01*
G01X94215235Y-10758399D01*
G01X94215235Y-10758399D01*
G01X94310999Y-10757392D01*
G01X94373145Y-10755176D01*
G01X94406726Y-10752960D01*
G01X94416797Y-10751953D01*
G01X94416797Y-10751953D01*
G01X94416797Y-10751953D01*
G01X94421485Y-10780078D01*
G01X94421485Y-10780078D01*
G01X94408887Y-10812305D01*
G01X94408887Y-10812305D01*
G01X94368750Y-10821680D01*
G01X94368750Y-10821680D01*
G01X94310805Y-10822499D01*
G01X94245303Y-10822806D01*
G01X94212925Y-10822852D01*
G01X94212891Y-10822852D01*
G01X94212891Y-10822852D01*
G01X94211793Y-10897049D01*
G01X94211106Y-10967726D01*
G01X94210733Y-11028446D01*
G01X94210580Y-11072770D01*
G01X94210547Y-11094260D01*
G01X94210547Y-11095313D01*
G01X94210547Y-11095313D01*
G01X94217473Y-11181013D01*
G01X94229501Y-11222473D01*
G01X94233985Y-11230957D01*
G01X94233985Y-11230957D01*
G01X94289052Y-11261067D01*
G01X94311328Y-11263477D01*
G01X94311328Y-11263477D01*
G01X94375965Y-11243680D01*
G01X94397461Y-11227149D01*
G01X94397461Y-11227149D01*
G01X94419141Y-11270508D01*
G01X94419141Y-11270508D01*
G01X94388408Y-11311064D01*
G01X94388086Y-11311231D01*
G01X94388086Y-11311231D01*
G01X94326378Y-11326092D01*
G01X94312500Y-11326758D01*
G01X94312500Y-11326758D01*
G01X94234228Y-11312881D01*
G01X94188436Y-11286304D01*
G01X94171782Y-11269604D01*
G01X94171582Y-11269336D01*
G01X94171582Y-11269336D01*
G01X94145692Y-11211490D01*
G01X94133793Y-11149443D01*
G01X94130443Y-11105731D01*
G01X94130274Y-11097656D01*
G01X94130274Y-11097656D01*
G01X94131372Y-10990258D01*
G01X94132059Y-10913130D01*
G01X94132431Y-10862148D01*
G01X94132585Y-10833190D01*
G01X94132617Y-10822132D01*
G01X94132617Y-10821680D01*
G01X94132617Y-10821680D01*
G01X94083590Y-10825417D01*
G01X94023742Y-10830223D01*
G01X94020703Y-10830469D01*
G01X94020703Y-10830469D01*
G01X94017188Y-10800000D01*
G37*
G36*
G01X94439063Y-10800000D02*
G01X94439063Y-10800000D01*
G01X94456934Y-10764844D01*
G01X94456934Y-10764844D01*
G01X94513941Y-10757279D01*
G01X94518164Y-10757227D01*
G01X94552149Y-10757227D01*
G01X94552149Y-10757227D01*
G01X94548658Y-10678459D01*
G01X94545329Y-10631480D01*
G01X94544532Y-10622461D01*
G01X94544532Y-10622461D01*
G01X94584375Y-10618945D01*
G01X94584375Y-10618945D01*
G01X94638646Y-10649866D01*
G01X94641797Y-10664649D01*
G01X94641797Y-10664649D01*
G01X94639173Y-10722961D01*
G01X94637110Y-10758399D01*
G01X94637110Y-10758399D01*
G01X94732874Y-10757392D01*
G01X94795020Y-10755176D01*
G01X94828601Y-10752960D01*
G01X94838672Y-10751953D01*
G01X94838672Y-10751953D01*
G01X94838672Y-10751953D01*
G01X94843360Y-10780078D01*
G01X94843360Y-10780078D01*
G01X94830762Y-10812305D01*
G01X94830762Y-10812305D01*
G01X94790625Y-10821680D01*
G01X94790625Y-10821680D01*
G01X94732680Y-10822499D01*
G01X94667178Y-10822806D01*
G01X94634800Y-10822852D01*
G01X94634766Y-10822852D01*
G01X94634766Y-10822852D01*
G01X94633668Y-10897049D01*
G01X94632981Y-10967726D01*
G01X94632608Y-11028446D01*
G01X94632455Y-11072770D01*
G01X94632422Y-11094260D01*
G01X94632422Y-11095313D01*
G01X94632422Y-11095313D01*
G01X94639348Y-11181013D01*
G01X94651376Y-11222473D01*
G01X94655860Y-11230957D01*
G01X94655860Y-11230957D01*
G01X94710927Y-11261067D01*
G01X94733203Y-11263477D01*
G01X94733203Y-11263477D01*
G01X94797840Y-11243680D01*
G01X94819336Y-11227149D01*
G01X94819336Y-11227149D01*
G01X94841016Y-11270508D01*
G01X94841016Y-11270508D01*
G01X94810283Y-11311064D01*
G01X94809961Y-11311231D01*
G01X94809961Y-11311231D01*
G01X94748253Y-11326092D01*
G01X94734375Y-11326758D01*
G01X94734375Y-11326758D01*
G01X94656103Y-11312881D01*
G01X94610311Y-11286304D01*
G01X94593657Y-11269604D01*
G01X94593457Y-11269336D01*
G01X94593457Y-11269336D01*
G01X94567567Y-11211490D01*
G01X94555668Y-11149443D01*
G01X94552318Y-11105731D01*
G01X94552149Y-11097656D01*
G01X94552149Y-11097656D01*
G01X94553247Y-10990258D01*
G01X94553934Y-10913130D01*
G01X94554306Y-10862148D01*
G01X94554460Y-10833190D01*
G01X94554492Y-10822132D01*
G01X94554492Y-10821680D01*
G01X94554492Y-10821680D01*
G01X94505465Y-10825417D01*
G01X94445617Y-10830223D01*
G01X94442578Y-10830469D01*
G01X94442578Y-10830469D01*
G01X94439063Y-10800000D01*
G37*
G36*
G01X94914844Y-11036719D02*
G01X94914844Y-11036719D01*
G01X94923774Y-10957536D01*
G01X94944424Y-10895209D01*
G01X94967586Y-10851534D01*
G01X94984050Y-10828309D01*
G01X94986914Y-10824903D01*
G01X94986914Y-10824903D01*
G01X95044272Y-10780032D01*
G01X95103656Y-10756168D01*
G01X95151699Y-10746678D01*
G01X95175037Y-10744927D01*
G01X95175586Y-10744922D01*
G01X95175586Y-10744922D01*
G01X95252079Y-10756531D01*
G01X95310536Y-10782514D01*
G01X95348821Y-10809603D01*
G01X95364794Y-10824529D01*
G01X95365137Y-10824903D01*
G01X95365137Y-10824903D01*
G01X95402852Y-10883263D01*
G01X95424309Y-10944947D01*
G01X95434093Y-10998218D01*
G01X95436790Y-11031341D01*
G01X95436914Y-11036719D01*
G01X95436914Y-11036719D01*
G01X95427270Y-11118996D01*
G01X95405323Y-11182610D01*
G01X95381554Y-11225637D01*
G01X95366442Y-11246151D01*
G01X95365137Y-11247656D01*
G01X95365137Y-11247656D01*
G01X95307773Y-11292034D01*
G01X95248097Y-11315636D01*
G01X95199691Y-11325022D01*
G01X95176141Y-11326753D01*
G01X95175586Y-11326758D01*
G01X95175586Y-11326758D01*
G01X95099709Y-11315276D01*
G01X95041506Y-11289579D01*
G01X95003261Y-11262788D01*
G01X94987258Y-11248026D01*
G01X94986914Y-11247656D01*
G01X94986914Y-11247656D01*
G01X94949045Y-11189758D01*
G01X94927501Y-11128337D01*
G01X94917677Y-11075185D01*
G01X94914969Y-11042095D01*
G01X94914844Y-11036719D01*
G37*
%LPC*%
G36*
G01X94999219Y-11019727D02*
G01X94999219Y-11019727D01*
G01X95008130Y-11097475D01*
G01X95026682Y-11154485D01*
G01X95042605Y-11186281D01*
G01X95045801Y-11191406D01*
G01X95045801Y-11191406D01*
G01X95099575Y-11239342D01*
G01X95151441Y-11257267D01*
G01X95175561Y-11259961D01*
G01X95175586Y-11259961D01*
G01X95175586Y-11259961D01*
G01X95249572Y-11244113D01*
G01X95293863Y-11215861D01*
G01X95306250Y-11203711D01*
G01X95306250Y-11203711D01*
G01X95338386Y-11142492D01*
G01X95350938Y-11084038D01*
G01X95353122Y-11054153D01*
G01X95353125Y-11053711D01*
G01X95353125Y-11053711D01*
G01X95343934Y-10975851D01*
G01X95324798Y-10918608D01*
G01X95308375Y-10886611D01*
G01X95305078Y-10881445D01*
G01X95305078Y-10881445D01*
G01X95250728Y-10833100D01*
G01X95199318Y-10815022D01*
G01X95175611Y-10812305D01*
G01X95175586Y-10812305D01*
G01X95175586Y-10812305D01*
G01X95101766Y-10828318D01*
G01X95057769Y-10856864D01*
G01X95045508Y-10869141D01*
G01X95045508Y-10869141D01*
G01X95013774Y-10930762D01*
G01X95001379Y-10989373D01*
G01X94999222Y-11019285D01*
G01X94999219Y-11019727D01*
G37*
%LPD*%
G36*
G01X95562891Y-10763086D02*
G01X95562891Y-10763086D01*
G01X95606250Y-10753711D01*
G01X95606250Y-10753711D01*
G01X95656309Y-10788061D01*
G01X95661328Y-10813477D01*
G01X95661328Y-10813477D01*
G01X95719409Y-10777661D01*
G01X95749805Y-10764258D01*
G01X95749805Y-10764258D01*
G01X95749805Y-10764258D01*
G01X95818946Y-10747339D01*
G01X95849414Y-10744922D01*
G01X95849414Y-10744922D01*
G01X95849414Y-10744922D01*
G01X95923815Y-10762746D01*
G01X95966392Y-10797645D01*
G01X95982490Y-10821760D01*
G01X95983008Y-10822852D01*
G01X95983008Y-10822852D01*
G01X96036967Y-10785024D01*
G01X96072924Y-10768018D01*
G01X96073535Y-10767774D01*
G01X96073535Y-10767774D01*
G01X96144063Y-10748724D01*
G01X96181897Y-10744945D01*
G01X96183399Y-10744922D01*
G01X96183399Y-10744922D01*
G01X96253730Y-10761395D01*
G01X96287430Y-10783464D01*
G01X96289160Y-10785059D01*
G01X96289160Y-10785059D01*
G01X96319700Y-10842715D01*
G01X96329167Y-10898621D01*
G01X96329883Y-10914258D01*
G01X96329883Y-10914258D01*
G01X96328614Y-10968473D01*
G01X96327832Y-11000684D01*
G01X96327832Y-11000684D01*
G01X96326224Y-11081867D01*
G01X96325798Y-11122943D01*
G01X96325782Y-11128125D01*
G01X96325782Y-11128125D01*
G01X96329705Y-11210728D01*
G01X96337872Y-11270697D01*
G01X96344882Y-11303864D01*
G01X96346289Y-11309180D01*
G01X96346289Y-11309180D01*
G01X96299414Y-11318555D01*
G01X96299414Y-11318555D01*
G01X96254590Y-11304785D01*
G01X96254590Y-11304785D01*
G01X96240821Y-11257617D01*
G01X96240821Y-11257617D01*
G01X96240821Y-11257617D01*
G01X96241625Y-11200627D01*
G01X96243199Y-11134183D01*
G01X96244287Y-11094106D01*
G01X96244336Y-11092383D01*
G01X96244336Y-11092383D01*
G01X96246886Y-10997209D01*
G01X96247757Y-10954964D01*
G01X96247852Y-10946485D01*
G01X96247852Y-10946485D01*
G01X96235053Y-10873205D01*
G01X96220018Y-10845472D01*
G01X96219727Y-10845117D01*
G01X96219727Y-10845117D01*
G01X96162999Y-10814251D01*
G01X96145899Y-10812305D01*
G01X96145899Y-10812305D01*
G01X96080986Y-10826778D01*
G01X96026482Y-10855117D01*
G01X95998203Y-10874699D01*
G01X95997071Y-10875586D01*
G01X95997071Y-10875586D01*
G01X95998259Y-10967196D01*
G01X95998957Y-11036413D01*
G01X95999296Y-11083792D01*
G01X95999405Y-11109885D01*
G01X95999414Y-11115821D01*
G01X95999414Y-11115821D01*
G01X96000691Y-11198826D01*
G01X96003451Y-11262692D01*
G01X96006088Y-11302534D01*
G01X96007032Y-11313867D01*
G01X96007032Y-11313867D01*
G01X95966016Y-11317383D01*
G01X95966016Y-11317383D01*
G01X95914625Y-11285185D01*
G01X95912110Y-11271680D01*
G01X95912110Y-11271680D01*
G01X95913867Y-11223340D01*
G01X95913867Y-11223340D01*
G01X95915729Y-11159405D01*
G01X95916710Y-11109466D01*
G01X95916797Y-11104102D01*
G01X95916797Y-11104102D01*
G01X95917601Y-11032458D01*
G01X95917914Y-10974250D01*
G01X95917969Y-10946873D01*
G01X95917969Y-10946485D01*
G01X95917969Y-10946485D01*
G01X95899055Y-10864503D01*
G01X95858920Y-10825365D01*
G01X95822476Y-10813225D01*
G01X95812500Y-10812305D01*
G01X95812500Y-10812305D01*
G01X95748374Y-10827449D01*
G01X95694192Y-10857100D01*
G01X95665976Y-10877588D01*
G01X95664844Y-10878516D01*
G01X95664844Y-10878516D01*
G01X95666076Y-10973562D01*
G01X95666776Y-11043585D01*
G01X95667096Y-11089595D01*
G01X95667184Y-11112604D01*
G01X95667188Y-11115821D01*
G01X95667188Y-11115821D01*
G01X95668367Y-11198826D01*
G01X95670914Y-11262692D01*
G01X95673348Y-11302534D01*
G01X95674219Y-11313867D01*
G01X95674219Y-11313867D01*
G01X95633789Y-11317383D01*
G01X95633789Y-11317383D01*
G01X95582398Y-11285185D01*
G01X95579883Y-11271680D01*
G01X95579883Y-11271680D01*
G01X95581654Y-11216907D01*
G01X95582813Y-11183496D01*
G01X95582813Y-11183496D01*
G01X95584780Y-11108533D01*
G01X95585582Y-11048688D01*
G01X95585741Y-11018569D01*
G01X95585742Y-11017383D01*
G01X95585742Y-11017383D01*
G01X95583366Y-10915336D01*
G01X95577699Y-10842821D01*
G01X95570935Y-10795899D01*
G01X95565267Y-10770633D01*
G01X95562891Y-10763086D01*
G01X95562891Y-10763086D01*
G37*
G36*
G01X96742383Y-11231250D02*
G01X96742383Y-11231250D01*
G01X96780361Y-11187147D01*
G01X96796289Y-11180860D01*
G01X96796289Y-11180860D01*
G01X96837190Y-11230156D01*
G01X96853418Y-11239746D01*
G01X96853418Y-11239746D01*
G01X96919570Y-11257725D01*
G01X96948633Y-11259961D01*
G01X96948633Y-11259961D01*
G01X97016142Y-11245817D01*
G01X97032129Y-11237110D01*
G01X97032129Y-11237110D01*
G01X97062445Y-11182234D01*
G01X97064063Y-11166211D01*
G01X97064063Y-11166211D01*
G01X97036764Y-11114434D01*
G01X97032129Y-11111133D01*
G01X97032129Y-11111133D01*
G01X96972013Y-11086152D01*
G01X96954785Y-11081543D01*
G01X96954785Y-11081543D01*
G01X96888207Y-11064578D01*
G01X96863672Y-11057520D01*
G01X96863672Y-11057520D01*
G01X96805312Y-11024265D01*
G01X96786035Y-11005371D01*
G01X96786035Y-11005371D01*
G01X96758856Y-10943910D01*
G01X96754109Y-10904375D01*
G01X96754102Y-10903711D01*
G01X96754102Y-10903711D01*
G01X96774097Y-10836198D01*
G01X96806945Y-10796881D01*
G01X96815918Y-10789453D01*
G01X96815918Y-10789453D01*
G01X96880863Y-10757725D01*
G01X96934806Y-10746381D01*
G01X96955664Y-10744922D01*
G01X96955664Y-10744922D01*
G01X97024281Y-10755263D01*
G01X97063862Y-10769116D01*
G01X97066114Y-10770117D01*
G01X97066114Y-10770117D01*
G01X97115037Y-10817792D01*
G01X97120313Y-10839844D01*
G01X97120313Y-10839844D01*
G01X97082335Y-10884530D01*
G01X97066407Y-10890235D01*
G01X97066407Y-10890235D01*
G01X97025489Y-10842443D01*
G01X97012207Y-10833985D01*
G01X97012207Y-10833985D01*
G01X96947812Y-10814029D01*
G01X96926953Y-10812305D01*
G01X96926953Y-10812305D01*
G01X96865144Y-10828897D01*
G01X96856055Y-10834570D01*
G01X96856055Y-10834570D01*
G01X96826979Y-10887932D01*
G01X96826172Y-10897266D01*
G01X96826172Y-10897266D01*
G01X96853116Y-10949753D01*
G01X96858106Y-10953516D01*
G01X96858106Y-10953516D01*
G01X96917421Y-10979735D01*
G01X96935449Y-10984863D01*
G01X96935449Y-10984863D01*
G01X97001051Y-11002082D01*
G01X97026563Y-11009473D01*
G01X97026563Y-11009473D01*
G01X97085696Y-11042077D01*
G01X97104199Y-11059278D01*
G01X97104199Y-11059278D01*
G01X97132141Y-11119812D01*
G01X97136133Y-11153320D01*
G01X97136133Y-11153320D01*
G01X97136133Y-11153320D01*
G01X97119712Y-11225720D01*
G01X97089700Y-11269045D01*
G01X97074903Y-11282520D01*
G01X97074903Y-11282520D01*
G01X97010587Y-11313453D01*
G01X96954332Y-11325019D01*
G01X96929322Y-11326758D01*
G01X96929297Y-11326758D01*
G01X96929297Y-11326758D01*
G01X96855127Y-11317850D01*
G01X96808481Y-11303216D01*
G01X96799219Y-11299219D01*
G01X96799219Y-11299219D01*
G01X96747915Y-11251725D01*
G01X96742383Y-11231250D01*
G37*
G36*
G01X97238672Y-11036719D02*
G01X97238672Y-11036719D01*
G01X97247602Y-10957536D01*
G01X97268252Y-10895209D01*
G01X97291414Y-10851534D01*
G01X97307878Y-10828309D01*
G01X97310742Y-10824903D01*
G01X97310742Y-10824903D01*
G01X97368101Y-10780032D01*
G01X97427484Y-10756168D01*
G01X97475527Y-10746678D01*
G01X97498865Y-10744927D01*
G01X97499414Y-10744922D01*
G01X97499414Y-10744922D01*
G01X97575907Y-10756531D01*
G01X97634364Y-10782514D01*
G01X97672649Y-10809603D01*
G01X97688622Y-10824529D01*
G01X97688965Y-10824903D01*
G01X97688965Y-10824903D01*
G01X97726680Y-10883263D01*
G01X97748137Y-10944947D01*
G01X97757921Y-10998218D01*
G01X97760618Y-11031341D01*
G01X97760742Y-11036719D01*
G01X97760742Y-11036719D01*
G01X97751098Y-11118996D01*
G01X97729151Y-11182610D01*
G01X97705382Y-11225637D01*
G01X97690270Y-11246151D01*
G01X97688965Y-11247656D01*
G01X97688965Y-11247656D01*
G01X97631601Y-11292034D01*
G01X97571925Y-11315636D01*
G01X97523520Y-11325022D01*
G01X97499969Y-11326753D01*
G01X97499414Y-11326758D01*
G01X97499414Y-11326758D01*
G01X97423537Y-11315276D01*
G01X97365334Y-11289579D01*
G01X97327089Y-11262788D01*
G01X97311087Y-11248026D01*
G01X97310742Y-11247656D01*
G01X97310742Y-11247656D01*
G01X97272873Y-11189758D01*
G01X97251329Y-11128337D01*
G01X97241505Y-11075185D01*
G01X97238797Y-11042095D01*
G01X97238672Y-11036719D01*
G37*
%LPC*%
G36*
G01X97323047Y-11019727D02*
G01X97323047Y-11019727D01*
G01X97331958Y-11097475D01*
G01X97350510Y-11154485D01*
G01X97366433Y-11186281D01*
G01X97369629Y-11191406D01*
G01X97369629Y-11191406D01*
G01X97423403Y-11239342D01*
G01X97475269Y-11257267D01*
G01X97499389Y-11259961D01*
G01X97499414Y-11259961D01*
G01X97499414Y-11259961D01*
G01X97573400Y-11244113D01*
G01X97617691Y-11215861D01*
G01X97630078Y-11203711D01*
G01X97630078Y-11203711D01*
G01X97662214Y-11142492D01*
G01X97674766Y-11084038D01*
G01X97676950Y-11054153D01*
G01X97676953Y-11053711D01*
G01X97676953Y-11053711D01*
G01X97667762Y-10975851D01*
G01X97648626Y-10918608D01*
G01X97632203Y-10886611D01*
G01X97628907Y-10881445D01*
G01X97628907Y-10881445D01*
G01X97574556Y-10833100D01*
G01X97523146Y-10815022D01*
G01X97499439Y-10812305D01*
G01X97499414Y-10812305D01*
G01X97499414Y-10812305D01*
G01X97425594Y-10828318D01*
G01X97381597Y-10856864D01*
G01X97369336Y-10869141D01*
G01X97369336Y-10869141D01*
G01X97337602Y-10930762D01*
G01X97325207Y-10989373D01*
G01X97323050Y-11019285D01*
G01X97323047Y-11019727D01*
G37*
%LPD*%
G36*
G01X97886719Y-10426758D02*
G01X97886719Y-10426758D01*
G01X97928907Y-10423242D01*
G01X97928907Y-10423242D01*
G01X97981195Y-10454805D01*
G01X97983985Y-10468945D01*
G01X97983985Y-10468945D01*
G01X97982445Y-10525687D01*
G01X97982227Y-10533106D01*
G01X97982227Y-10533106D01*
G01X97980385Y-10597525D01*
G01X97978693Y-10658741D01*
G01X97977845Y-10689969D01*
G01X97977832Y-10690430D01*
G01X97977832Y-10690430D01*
G01X97976264Y-10764936D01*
G01X97975487Y-10829009D01*
G01X97975224Y-10872454D01*
G01X97975196Y-10885547D01*
G01X97975196Y-11072461D01*
G01X97975196Y-11072461D01*
G01X97977796Y-11162058D01*
G01X97983903Y-11230210D01*
G01X97990977Y-11277177D01*
G01X97996479Y-11303221D01*
G01X97998047Y-11309180D01*
G01X97998047Y-11309180D01*
G01X97952930Y-11318555D01*
G01X97952930Y-11318555D01*
G01X97906641Y-11304199D01*
G01X97906641Y-11304199D01*
G01X97893750Y-11256445D01*
G01X97893750Y-11256445D01*
G01X97893750Y-11256445D01*
G01X97894049Y-11206353D01*
G01X97894608Y-11138978D01*
G01X97894922Y-11103847D01*
G01X97894922Y-11103809D01*
G01X97894922Y-11103809D01*
G01X97895638Y-11014596D01*
G01X97895980Y-10953343D01*
G01X97896086Y-10919945D01*
G01X97896094Y-10913086D01*
G01X97896094Y-10773633D01*
G01X97896094Y-10773633D01*
G01X97895524Y-10660547D01*
G01X97894069Y-10573902D01*
G01X97892107Y-10510551D01*
G01X97890019Y-10467352D01*
G01X97888184Y-10441159D01*
G01X97886982Y-10428829D01*
G01X97886719Y-10426758D01*
G37*
G36*
G01X98124024Y-11036719D02*
G01X98124024Y-11036719D01*
G01X98133171Y-10958079D01*
G01X98154325Y-10895935D01*
G01X98178052Y-10852231D01*
G01X98194918Y-10828916D01*
G01X98197852Y-10825488D01*
G01X98197852Y-10825488D01*
G01X98256830Y-10778911D01*
G01X98314600Y-10754993D01*
G01X98358527Y-10746181D01*
G01X98375977Y-10744922D01*
G01X98375977Y-10744922D01*
G01X98375977Y-10744922D01*
G01X98447240Y-10756478D01*
G01X98498929Y-10777078D01*
G01X98515430Y-10785938D01*
G01X98515430Y-10785938D01*
G01X98517292Y-10707337D01*
G01X98517760Y-10665690D01*
G01X98517774Y-10661133D01*
G01X98517774Y-10661133D01*
G01X98516612Y-10572802D01*
G01X98513926Y-10503815D01*
G01X98510913Y-10455819D01*
G01X98508771Y-10430460D01*
G01X98508399Y-10426758D01*
G01X98508399Y-10426758D01*
G01X98551172Y-10423242D01*
G01X98551172Y-10423242D01*
G01X98602563Y-10455441D01*
G01X98605078Y-10468945D01*
G01X98605078Y-10468945D01*
G01X98604580Y-10510266D01*
G01X98603373Y-10573801D01*
G01X98601892Y-10643058D01*
G01X98600570Y-10701542D01*
G01X98599843Y-10732760D01*
G01X98599805Y-10734375D01*
G01X98599805Y-10734375D01*
G01X98597657Y-10831055D01*
G01X98596190Y-10908567D01*
G01X98595273Y-10967908D01*
G01X98594778Y-11010069D01*
G01X98594574Y-11036044D01*
G01X98594532Y-11046827D01*
G01X98594532Y-11047266D01*
G01X98594532Y-11047266D01*
G01X98596693Y-11146980D01*
G01X98601923Y-11219798D01*
G01X98608341Y-11268903D01*
G01X98614066Y-11297479D01*
G01X98617217Y-11308709D01*
G01X98617383Y-11309180D01*
G01X98617383Y-11309180D01*
G01X98571680Y-11318555D01*
G01X98571680Y-11318555D01*
G01X98523879Y-11282438D01*
G01X98518946Y-11258789D01*
G01X98518946Y-11258789D01*
G01X98455874Y-11302431D01*
G01X98400531Y-11321722D01*
G01X98367150Y-11326609D01*
G01X98363086Y-11326758D01*
G01X98361914Y-11326758D01*
G01X98361914Y-11326758D01*
G01X98290488Y-11312047D01*
G01X98235480Y-11280831D01*
G01X98202287Y-11252485D01*
G01X98194922Y-11244727D01*
G01X98194922Y-11244727D01*
G01X98156391Y-11183218D01*
G01X98135188Y-11120167D01*
G01X98126136Y-11067976D01*
G01X98124060Y-11039051D01*
G01X98124024Y-11036719D01*
G37*
%LPC*%
G36*
G01X98208399Y-11019727D02*
G01X98208399Y-11019727D01*
G01X98218038Y-11099678D01*
G01X98238107Y-11157701D01*
G01X98255332Y-11189782D01*
G01X98258789Y-11194922D01*
G01X98258789Y-11194922D01*
G01X98315482Y-11244650D01*
G01X98363863Y-11261626D01*
G01X98380664Y-11263477D01*
G01X98380664Y-11263477D01*
G01X98446514Y-11246007D01*
G01X98495515Y-11213308D01*
G01X98515411Y-11194942D01*
G01X98515430Y-11194922D01*
G01X98515430Y-11194922D01*
G01X98514526Y-11073073D01*
G01X98513890Y-10983304D01*
G01X98513476Y-10920833D01*
G01X98513236Y-10880878D01*
G01X98513123Y-10858658D01*
G01X98513089Y-10849391D01*
G01X98513086Y-10848047D01*
G01X98513086Y-10848047D01*
G01X98443535Y-10820418D01*
G01X98397539Y-10812685D01*
G01X98389453Y-10812305D01*
G01X98389453Y-10812305D01*
G01X98316710Y-10827548D01*
G01X98271530Y-10855406D01*
G01X98257032Y-10869141D01*
G01X98257032Y-10869141D01*
G01X98223690Y-10930762D01*
G01X98210668Y-10989373D01*
G01X98208402Y-11019285D01*
G01X98208399Y-11019727D01*
G37*
%LPD*%
G36*
G01X98742774Y-11039063D02*
G01X98742774Y-11039063D01*
G01X98752684Y-10955118D01*
G01X98775600Y-10890904D01*
G01X98801304Y-10847096D01*
G01X98819575Y-10824366D01*
G01X98822754Y-10821094D01*
G01X98822754Y-10821094D01*
G01X98885839Y-10777057D01*
G01X98946643Y-10754444D01*
G01X98992452Y-10746112D01*
G01X99010547Y-10744922D01*
G01X99010547Y-10744922D01*
G01X99010547Y-10744922D01*
G01X99086018Y-10758294D01*
G01X99132958Y-10782131D01*
G01X99146485Y-10792383D01*
G01X99146485Y-10792383D01*
G01X99187369Y-10852074D01*
G01X99198216Y-10896689D01*
G01X99198633Y-10903711D01*
G01X99198633Y-10903711D01*
G01X99187101Y-10969658D01*
G01X99181934Y-10981641D01*
G01X99181934Y-10981641D01*
G01X99142425Y-11027543D01*
G01X99138282Y-11030567D01*
G01X99138282Y-11030567D01*
G01X99079164Y-11053781D01*
G01X99060352Y-11058106D01*
G01X99060352Y-11058106D01*
G01X98991138Y-11067737D01*
G01X98960157Y-11070117D01*
G01X98960157Y-11070117D01*
G01X98960157Y-11070117D01*
G01X98895004Y-11071929D01*
G01X98841135Y-11072436D01*
G01X98830664Y-11072461D01*
G01X98830664Y-11072461D01*
G01X98848737Y-11147424D01*
G01X98871947Y-11194207D01*
G01X98882520Y-11209278D01*
G01X98882520Y-11209278D01*
G01X98939325Y-11247882D01*
G01X98989028Y-11259260D01*
G01X99000586Y-11259961D01*
G01X99000586Y-11259961D01*
G01X99075977Y-11243147D01*
G01X99116791Y-11212417D01*
G01X99128321Y-11197266D01*
G01X99128321Y-11197266D01*
G01X99174484Y-11239978D01*
G01X99175782Y-11247656D01*
G01X99175782Y-11247656D01*
G01X99140471Y-11295160D01*
G01X99121289Y-11305078D01*
G01X99121289Y-11305078D01*
G01X99053296Y-11322305D01*
G01X99005496Y-11326632D01*
G01X98999414Y-11326758D01*
G01X98999414Y-11326758D01*
G01X98922821Y-11315634D01*
G01X98864575Y-11291162D01*
G01X98827533Y-11266690D01*
G01X98814551Y-11255567D01*
G01X98814551Y-11255567D01*
G01X98814551Y-11255567D01*
G01X98776836Y-11200154D01*
G01X98755379Y-11137237D01*
G01X98745595Y-11080832D01*
G01X98742898Y-11044961D01*
G01X98742774Y-11039063D01*
G37*
%LPC*%
G36*
G01X98829492Y-11012695D02*
G01X98829492Y-11012695D01*
G01X98899752Y-11011953D01*
G01X98915625Y-11011524D01*
G01X98915625Y-11011524D01*
G01X98978584Y-11005895D01*
G01X98991211Y-11004199D01*
G01X98991211Y-11004199D01*
G01X99052284Y-10989272D01*
G01X99057422Y-10987207D01*
G01X99057422Y-10987207D01*
G01X99098684Y-10956206D01*
G01X99098731Y-10956153D01*
G01X99098731Y-10956153D01*
G01X99116010Y-10906481D01*
G01X99116016Y-10906055D01*
G01X99116016Y-10906055D01*
G01X99092861Y-10848321D01*
G01X99084375Y-10839258D01*
G01X99084375Y-10839258D01*
G01X99025218Y-10813071D01*
G01X99005860Y-10811133D01*
G01X99005860Y-10811133D01*
G01X98936038Y-10826361D01*
G01X98892626Y-10852100D01*
G01X98882813Y-10860352D01*
G01X98882813Y-10860352D01*
G01X98848046Y-10916988D01*
G01X98833048Y-10976638D01*
G01X98829543Y-11011233D01*
G01X98829492Y-11012695D01*
G37*
%LPD*%
G36*
G01X99324610Y-10757227D02*
G01X99324610Y-10757227D01*
G01X99365625Y-10753711D01*
G01X99365625Y-10753711D01*
G01X99415161Y-10786728D01*
G01X99417188Y-10798828D01*
G01X99417188Y-10798828D01*
G01X99416602Y-10815235D01*
G01X99416602Y-10815235D01*
G01X99416016Y-10841016D01*
G01X99416016Y-10841016D01*
G01X99460172Y-10791128D01*
G01X99480176Y-10774512D01*
G01X99480176Y-10774512D01*
G01X99542418Y-10746961D01*
G01X99559571Y-10744922D01*
G01X99559571Y-10744922D01*
G01X99602930Y-10757520D01*
G01X99602930Y-10757520D01*
G01X99618750Y-10791797D01*
G01X99618750Y-10791797D01*
G01X99596375Y-10843479D01*
G01X99594727Y-10845703D01*
G01X99594727Y-10845703D01*
G01X99540563Y-10823063D01*
G01X99536719Y-10822852D01*
G01X99536719Y-10822852D01*
G01X99478330Y-10843188D01*
G01X99469629Y-10849219D01*
G01X99469629Y-10849219D01*
G01X99425335Y-10898903D01*
G01X99413086Y-10918945D01*
G01X99413086Y-10918945D01*
G01X99412267Y-10975994D01*
G01X99411960Y-11039820D01*
G01X99411914Y-11071256D01*
G01X99411914Y-11071289D01*
G01X99411914Y-11071289D01*
G01X99414514Y-11161941D01*
G01X99420621Y-11230478D01*
G01X99427696Y-11277421D01*
G01X99433198Y-11303291D01*
G01X99434766Y-11309180D01*
G01X99434766Y-11309180D01*
G01X99389063Y-11318555D01*
G01X99389063Y-11318555D01*
G01X99342481Y-11303028D01*
G01X99342481Y-11303028D01*
G01X99342481Y-11303028D01*
G01X99330478Y-11250868D01*
G01X99330469Y-11250000D01*
G01X99330469Y-11250000D01*
G01X99331108Y-11191641D01*
G01X99331641Y-11155371D01*
G01X99331641Y-11155371D01*
G01X99332596Y-11077329D01*
G01X99332810Y-11040346D01*
G01X99332813Y-11037891D01*
G01X99332813Y-11037891D01*
G01X99332111Y-10951548D01*
G01X99330389Y-10879012D01*
G01X99328220Y-10821904D01*
G01X99326179Y-10781844D01*
G01X99324839Y-10760450D01*
G01X99324610Y-10757227D01*
G37*
G36*
G01X99702539Y-10763086D02*
G01X99702539Y-10763086D01*
G01X99745899Y-10753711D01*
G01X99745899Y-10753711D01*
G01X99795958Y-10788061D01*
G01X99800977Y-10813477D01*
G01X99800977Y-10813477D01*
G01X99859058Y-10777661D01*
G01X99889453Y-10764258D01*
G01X99889453Y-10764258D01*
G01X99889453Y-10764258D01*
G01X99958594Y-10747339D01*
G01X99989063Y-10744922D01*
G01X99989063Y-10744922D01*
G01X99989063Y-10744922D01*
G01X100063463Y-10762746D01*
G01X100106041Y-10797645D01*
G01X100122138Y-10821760D01*
G01X100122657Y-10822852D01*
G01X100122657Y-10822852D01*
G01X100176615Y-10785024D01*
G01X100212572Y-10768018D01*
G01X100213184Y-10767774D01*
G01X100213184Y-10767774D01*
G01X100283712Y-10748724D01*
G01X100321545Y-10744945D01*
G01X100323047Y-10744922D01*
G01X100323047Y-10744922D01*
G01X100393378Y-10761395D01*
G01X100427078Y-10783464D01*
G01X100428809Y-10785059D01*
G01X100428809Y-10785059D01*
G01X100459349Y-10842715D01*
G01X100468816Y-10898621D01*
G01X100469532Y-10914258D01*
G01X100469532Y-10914258D01*
G01X100468262Y-10968473D01*
G01X100467481Y-11000684D01*
G01X100467481Y-11000684D01*
G01X100465873Y-11081867D01*
G01X100465446Y-11122943D01*
G01X100465430Y-11128125D01*
G01X100465430Y-11128125D01*
G01X100469353Y-11210728D01*
G01X100477521Y-11270697D01*
G01X100484531Y-11303864D01*
G01X100485938Y-11309180D01*
G01X100485938Y-11309180D01*
G01X100439063Y-11318555D01*
G01X100439063Y-11318555D01*
G01X100394239Y-11304785D01*
G01X100394239Y-11304785D01*
G01X100380469Y-11257617D01*
G01X100380469Y-11257617D01*
G01X100380469Y-11257617D01*
G01X100381273Y-11200627D01*
G01X100382847Y-11134183D01*
G01X100383935Y-11094106D01*
G01X100383985Y-11092383D01*
G01X100383985Y-11092383D01*
G01X100386535Y-10997209D01*
G01X100387405Y-10954964D01*
G01X100387500Y-10946485D01*
G01X100387500Y-10946485D01*
G01X100374702Y-10873205D01*
G01X100359667Y-10845472D01*
G01X100359375Y-10845117D01*
G01X100359375Y-10845117D01*
G01X100302648Y-10814251D01*
G01X100285547Y-10812305D01*
G01X100285547Y-10812305D01*
G01X100220634Y-10826778D01*
G01X100166131Y-10855117D01*
G01X100137851Y-10874699D01*
G01X100136719Y-10875586D01*
G01X100136719Y-10875586D01*
G01X100137907Y-10967196D01*
G01X100138605Y-11036413D01*
G01X100138944Y-11083792D01*
G01X100139053Y-11109885D01*
G01X100139063Y-11115821D01*
G01X100139063Y-11115821D01*
G01X100140340Y-11198826D01*
G01X100143100Y-11262692D01*
G01X100145736Y-11302534D01*
G01X100146680Y-11313867D01*
G01X100146680Y-11313867D01*
G01X100105664Y-11317383D01*
G01X100105664Y-11317383D01*
G01X100054273Y-11285185D01*
G01X100051758Y-11271680D01*
G01X100051758Y-11271680D01*
G01X100053516Y-11223340D01*
G01X100053516Y-11223340D01*
G01X100055377Y-11159405D01*
G01X100056358Y-11109466D01*
G01X100056446Y-11104102D01*
G01X100056446Y-11104102D01*
G01X100057249Y-11032458D01*
G01X100057563Y-10974250D01*
G01X100057617Y-10946873D01*
G01X100057617Y-10946485D01*
G01X100057617Y-10946485D01*
G01X100038703Y-10864503D01*
G01X99998568Y-10825365D01*
G01X99962124Y-10813225D01*
G01X99952149Y-10812305D01*
G01X99952149Y-10812305D01*
G01X99888023Y-10827449D01*
G01X99833840Y-10857100D01*
G01X99805624Y-10877588D01*
G01X99804492Y-10878516D01*
G01X99804492Y-10878516D01*
G01X99805724Y-10973562D01*
G01X99806425Y-11043585D01*
G01X99806744Y-11089595D01*
G01X99806832Y-11112604D01*
G01X99806836Y-11115821D01*
G01X99806836Y-11115821D01*
G01X99808015Y-11198826D01*
G01X99810563Y-11262692D01*
G01X99812996Y-11302534D01*
G01X99813867Y-11313867D01*
G01X99813867Y-11313867D01*
G01X99773438Y-11317383D01*
G01X99773438Y-11317383D01*
G01X99722047Y-11285185D01*
G01X99719532Y-11271680D01*
G01X99719532Y-11271680D01*
G01X99721302Y-11216907D01*
G01X99722461Y-11183496D01*
G01X99722461Y-11183496D01*
G01X99724428Y-11108533D01*
G01X99725230Y-11048688D01*
G01X99725390Y-11018569D01*
G01X99725391Y-11017383D01*
G01X99725391Y-11017383D01*
G01X99723014Y-10915336D01*
G01X99717347Y-10842821D01*
G01X99710583Y-10795899D01*
G01X99704916Y-10770633D01*
G01X99702539Y-10763086D01*
G01X99702539Y-10763086D01*
G37*
G36*
G01X100611914Y-11158008D02*
G01X100611914Y-11158008D01*
G01X100627131Y-11088438D01*
G01X100640625Y-11068067D01*
G01X100640625Y-11068067D01*
G01X100695682Y-11033286D01*
G01X100719727Y-11024414D01*
G01X100719727Y-11024414D01*
G01X100784274Y-11010775D01*
G01X100850870Y-11001243D01*
G01X100907610Y-10995332D01*
G01X100942591Y-10992555D01*
G01X100948242Y-10992188D01*
G01X100948242Y-10992188D01*
G01X100941144Y-10907255D01*
G01X100928489Y-10862439D01*
G01X100923047Y-10851270D01*
G01X100923047Y-10851270D01*
G01X100870059Y-10819521D01*
G01X100820263Y-10812412D01*
G01X100815821Y-10812305D01*
G01X100815821Y-10812305D01*
G01X100755624Y-10828800D01*
G01X100746387Y-10833692D01*
G01X100746387Y-10833692D01*
G01X100700888Y-10880288D01*
G01X100692188Y-10896094D01*
G01X100692188Y-10896094D01*
G01X100639679Y-10859620D01*
G01X100637110Y-10848047D01*
G01X100637110Y-10848047D01*
G01X100666833Y-10792203D01*
G01X100694825Y-10773047D01*
G01X100694825Y-10773047D01*
G01X100761856Y-10751955D01*
G01X100815414Y-10745416D01*
G01X100829297Y-10744922D01*
G01X100829297Y-10744922D01*
G01X100911608Y-10755259D01*
G01X100961460Y-10775056D01*
G01X100980238Y-10787496D01*
G01X100980469Y-10787695D01*
G01X100980469Y-10787695D01*
G01X101012732Y-10841612D01*
G01X101025880Y-10902647D01*
G01X101028499Y-10939067D01*
G01X101028516Y-10940625D01*
G01X101028516Y-10940625D01*
G01X101027583Y-10998540D01*
G01X101027344Y-11011231D01*
G01X101027344Y-11011231D01*
G01X101026279Y-11084393D01*
G01X101026172Y-11102930D01*
G01X101026172Y-11102930D01*
G01X101029743Y-11193494D01*
G01X101037598Y-11257910D01*
G01X101045453Y-11296399D01*
G01X101049024Y-11309180D01*
G01X101049024Y-11309180D01*
G01X101049024Y-11309180D01*
G01X101002149Y-11318555D01*
G01X101002149Y-11318555D01*
G01X100964942Y-11305957D01*
G01X100964942Y-11305957D01*
G01X100950586Y-11265820D01*
G01X100950586Y-11265820D01*
G01X100884610Y-11305856D01*
G01X100829677Y-11322858D01*
G01X100799360Y-11326697D01*
G01X100797071Y-11326758D01*
G01X100797071Y-11326758D01*
G01X100714216Y-11312324D01*
G01X100660711Y-11276894D01*
G01X100630138Y-11232280D01*
G01X100616078Y-11190289D01*
G01X100612115Y-11162733D01*
G01X100611914Y-11158008D01*
G37*
%LPC*%
G36*
G01X100696289Y-11158008D02*
G01X100696289Y-11158008D01*
G01X100715056Y-11223208D01*
G01X100727344Y-11237695D01*
G01X100727344Y-11237695D01*
G01X100787546Y-11261827D01*
G01X100806446Y-11263477D01*
G01X100806446Y-11263477D01*
G01X100879561Y-11249020D01*
G01X100927879Y-11222598D01*
G01X100944141Y-11209570D01*
G01X100944141Y-11209570D01*
G01X100942971Y-11154664D01*
G01X100942969Y-11153320D01*
G01X100942969Y-11153320D01*
G01X100945297Y-11083941D01*
G01X100947071Y-11053711D01*
G01X100947071Y-11053711D01*
G01X100895006Y-11059559D01*
G01X100894922Y-11059570D01*
G01X100894922Y-11059570D01*
G01X100847754Y-11065430D01*
G01X100847754Y-11065430D01*
G01X100803809Y-11072461D01*
G01X100803809Y-11072461D01*
G01X100768653Y-11082129D01*
G01X100768653Y-11082129D01*
G01X100737598Y-11095606D01*
G01X100737598Y-11095606D01*
G01X100715918Y-11111719D01*
G01X100715918Y-11111719D01*
G01X100700391Y-11131934D01*
G01X100700391Y-11131934D01*
G01X100696289Y-11158008D01*
G37*
%LPD*%
G36*
G01X101162696Y-11231250D02*
G01X101162696Y-11231250D01*
G01X101200673Y-11187147D01*
G01X101216602Y-11180860D01*
G01X101216602Y-11180860D01*
G01X101257503Y-11230156D01*
G01X101273731Y-11239746D01*
G01X101273731Y-11239746D01*
G01X101339883Y-11257725D01*
G01X101368946Y-11259961D01*
G01X101368946Y-11259961D01*
G01X101436454Y-11245817D01*
G01X101452442Y-11237110D01*
G01X101452442Y-11237110D01*
G01X101482758Y-11182234D01*
G01X101484375Y-11166211D01*
G01X101484375Y-11166211D01*
G01X101457077Y-11114434D01*
G01X101452442Y-11111133D01*
G01X101452442Y-11111133D01*
G01X101392325Y-11086152D01*
G01X101375098Y-11081543D01*
G01X101375098Y-11081543D01*
G01X101308520Y-11064578D01*
G01X101283985Y-11057520D01*
G01X101283985Y-11057520D01*
G01X101225624Y-11024265D01*
G01X101206348Y-11005371D01*
G01X101206348Y-11005371D01*
G01X101179169Y-10943910D01*
G01X101174421Y-10904375D01*
G01X101174414Y-10903711D01*
G01X101174414Y-10903711D01*
G01X101194409Y-10836198D01*
G01X101227258Y-10796881D01*
G01X101236231Y-10789453D01*
G01X101236231Y-10789453D01*
G01X101301175Y-10757725D01*
G01X101355118Y-10746381D01*
G01X101375977Y-10744922D01*
G01X101375977Y-10744922D01*
G01X101444594Y-10755263D01*
G01X101484175Y-10769116D01*
G01X101486426Y-10770117D01*
G01X101486426Y-10770117D01*
G01X101535350Y-10817792D01*
G01X101540625Y-10839844D01*
G01X101540625Y-10839844D01*
G01X101502648Y-10884530D01*
G01X101486719Y-10890235D01*
G01X101486719Y-10890235D01*
G01X101445802Y-10842443D01*
G01X101432520Y-10833985D01*
G01X101432520Y-10833985D01*
G01X101368124Y-10814029D01*
G01X101347266Y-10812305D01*
G01X101347266Y-10812305D01*
G01X101285456Y-10828897D01*
G01X101276367Y-10834570D01*
G01X101276367Y-10834570D01*
G01X101247291Y-10887932D01*
G01X101246485Y-10897266D01*
G01X101246485Y-10897266D01*
G01X101273429Y-10949753D01*
G01X101278418Y-10953516D01*
G01X101278418Y-10953516D01*
G01X101337734Y-10979735D01*
G01X101355762Y-10984863D01*
G01X101355762Y-10984863D01*
G01X101421363Y-11002082D01*
G01X101446875Y-11009473D01*
G01X101446875Y-11009473D01*
G01X101506009Y-11042077D01*
G01X101524512Y-11059278D01*
G01X101524512Y-11059278D01*
G01X101552454Y-11119812D01*
G01X101556446Y-11153320D01*
G01X101556446Y-11153320D01*
G01X101556446Y-11153320D01*
G01X101540024Y-11225720D01*
G01X101510012Y-11269045D01*
G01X101495215Y-11282520D01*
G01X101495215Y-11282520D01*
G01X101430900Y-11313453D01*
G01X101374645Y-11325019D01*
G01X101349635Y-11326758D01*
G01X101349610Y-11326758D01*
G01X101349610Y-11326758D01*
G01X101275439Y-11317850D01*
G01X101228794Y-11303216D01*
G01X101219532Y-11299219D01*
G01X101219532Y-11299219D01*
G01X101168228Y-11251725D01*
G01X101162696Y-11231250D01*
G37*
G36*
G01X101677149Y-10426758D02*
G01X101677149Y-10426758D01*
G01X101719336Y-10423242D01*
G01X101719336Y-10423242D01*
G01X101771624Y-10454805D01*
G01X101774414Y-10468945D01*
G01X101774414Y-10468945D01*
G01X101772697Y-10522869D01*
G01X101772657Y-10524024D01*
G01X101772657Y-10524024D01*
G01X101770465Y-10589412D01*
G01X101768669Y-10645094D01*
G01X101768262Y-10657910D01*
G01X101768262Y-10657910D01*
G01X101766530Y-10730866D01*
G01X101765794Y-10790358D01*
G01X101765628Y-10822766D01*
G01X101765625Y-10825195D01*
G01X101765625Y-10825195D01*
G01X101830216Y-10778787D01*
G01X101889478Y-10754956D01*
G01X101932810Y-10746176D01*
G01X101949610Y-10744922D01*
G01X101949610Y-10744922D01*
G01X101949610Y-10744922D01*
G01X102023601Y-10759365D01*
G01X102062387Y-10782396D01*
G01X102068262Y-10787695D01*
G01X102068262Y-10787695D01*
G01X102101833Y-10848449D01*
G01X102108914Y-10890036D01*
G01X102108985Y-10892578D01*
G01X102108985Y-10892578D01*
G01X102095116Y-10964003D01*
G01X102071675Y-11008914D01*
G01X102064160Y-11019141D01*
G01X102064160Y-11019141D01*
G01X102008864Y-11060294D01*
G01X101957153Y-11077912D01*
G01X101938477Y-11081250D01*
G01X101938477Y-11081250D01*
G01X101988634Y-11160211D01*
G01X102017940Y-11201200D01*
G01X102028584Y-11214123D01*
G01X102028711Y-11214258D01*
G01X102028711Y-11214258D01*
G01X102086839Y-11250265D01*
G01X102103125Y-11252930D01*
G01X102103125Y-11252930D01*
G01X102134180Y-11247656D01*
G01X102134180Y-11247656D01*
G01X102145313Y-11282813D01*
G01X102145313Y-11282813D01*
G01X102120117Y-11315625D01*
G01X102120117Y-11315625D01*
G01X102072071Y-11326758D01*
G01X102072071Y-11326758D01*
G01X102010191Y-11304730D01*
G01X101985352Y-11283985D01*
G01X101985352Y-11283985D01*
G01X101955176Y-11247949D01*
G01X101955176Y-11247949D01*
G01X101925367Y-11204996D01*
G01X101925293Y-11204883D01*
G01X101925293Y-11204883D01*
G01X101900098Y-11164453D01*
G01X101900098Y-11164453D01*
G01X101872813Y-11118300D01*
G01X101872559Y-11117871D01*
G01X101872559Y-11117871D01*
G01X101848828Y-11077149D01*
G01X101848828Y-11077149D01*
G01X101817188Y-11051953D01*
G01X101817188Y-11051953D01*
G01X101823633Y-11023242D01*
G01X101823633Y-11023242D01*
G01X101882441Y-11031933D01*
G01X101884571Y-11032031D01*
G01X101884571Y-11032031D01*
G01X101956216Y-11015913D01*
G01X101986128Y-10996076D01*
G01X101986817Y-10995410D01*
G01X101986817Y-10995410D01*
G01X102019344Y-10935454D01*
G01X102022852Y-10910742D01*
G01X102022852Y-10910742D01*
G01X102004514Y-10849806D01*
G01X101998242Y-10841016D01*
G01X101998242Y-10841016D01*
G01X101942704Y-10813536D01*
G01X101929102Y-10812305D01*
G01X101929102Y-10812305D01*
G01X101865880Y-10826814D01*
G01X101843848Y-10836914D01*
G01X101843848Y-10836914D01*
G01X101786882Y-10877639D01*
G01X101765625Y-10898438D01*
G01X101765625Y-11072461D01*
G01X101765625Y-11072461D01*
G01X101768225Y-11162058D01*
G01X101774332Y-11230210D01*
G01X101781407Y-11277177D01*
G01X101786909Y-11303221D01*
G01X101788477Y-11309180D01*
G01X101788477Y-11309180D01*
G01X101743360Y-11318555D01*
G01X101743360Y-11318555D01*
G01X101697071Y-11304199D01*
G01X101697071Y-11304199D01*
G01X101684180Y-11256445D01*
G01X101684180Y-11256445D01*
G01X101684180Y-11256445D01*
G01X101684479Y-11206353D01*
G01X101685038Y-11138978D01*
G01X101685351Y-11103847D01*
G01X101685352Y-11103809D01*
G01X101685352Y-11103809D01*
G01X101686068Y-11014596D01*
G01X101686410Y-10953343D01*
G01X101686516Y-10919945D01*
G01X101686524Y-10913086D01*
G01X101686524Y-10773633D01*
G01X101686524Y-10773633D01*
G01X101685954Y-10660547D01*
G01X101684499Y-10573901D01*
G01X101682537Y-10510551D01*
G01X101680449Y-10467352D01*
G01X101678614Y-10441159D01*
G01X101677411Y-10428829D01*
G01X101677149Y-10426758D01*
G37*

G04 Pad flashes *
%LPD*%
D11*

G04 end of program *
M02*
