<svg version="1.1" xmlns="http://www.w3.org/2000/svg" xmlns:xlink="http://www.w3.org/1999/xlink" stroke-linecap="round" stroke-linejoin="round" stroke-width="0" fill-rule="evenodd" width="95.62910099999999mm" height="37.627mm" viewBox="6600 -38400 95629.101 37627"><defs><mask id="bU5TTPpZo9VY_clear-1" fill="#000" stroke="#000"><g><rect x="6600" y="-38400" width="86741.015" height="37627" fill="#fff"/><path d="M 92943.75 -15401.367 92943.75 -15401.367 93008.682 -15442.299 93065.165 -15459.881 93097.159 -15463.984 93099.609 -15464.062 93099.609 -15464.062 93167.966 -15444.582 93207.123 -15409.856 93217.676 -15394.922 93217.676 -15394.922 93243.275 -15328.993 93254.147 -15268.697 93256.601 -15233.586 93256.64 -15230.859 93256.64 -15230.859 93247.338 -15148.509 93228.733 -15095.395 93214.78 -15071.327 93213.574 -15069.726 93213.574 -15069.726 93155.518 -15027.357 93111.283 -15016.717 93105.469 -15016.406 93103.711 -15016.406 93103.711 -15016.406 93034.371 -15029.285 92980.072 -15055.575 92949.645 -15076.757 92946.094 -15079.687 92946.094 -15079.687 92946.514 -15138.528 92946.679 -15156.738 92946.679 -15156.738 92947.192 -15230.676 92947.265 -15257.812 92947.265 -15257.812 92947.265 -15257.812 92946.275 -15340.888 92944.509 -15388.521 92943.75 -15401.367"/></g></mask><mask id="bU5TTPpZo9VY_clear-2" fill="#000" stroke="#000"><g><rect x="6600" y="-38400" width="87363.281" height="37627" fill="#fff"/><path d="M 93525.586 -15223.828 93525.586 -15223.828 93534.497 -15301.576 93553.049 -15358.586 93568.972 -15390.382 93572.168 -15395.507 93572.168 -15395.507 93625.942 -15443.443 93677.808 -15461.368 93701.928 -15464.062 93701.953 -15464.062 93701.953 -15464.062 93775.938 -15448.214 93820.23 -15419.962 93832.617 -15407.812 93832.617 -15407.812 93864.753 -15346.593 93877.305 -15288.139 93879.489 -15258.254 93879.492 -15257.812 93879.492 -15257.812 93870.301 -15179.952 93851.165 -15122.709 93834.741 -15090.712 93831.445 -15085.546 93831.445 -15085.546 93777.095 -15037.201 93725.684 -15019.123 93701.977 -15016.406 93701.953 -15016.406 93701.953 -15016.406 93628.132 -15032.419 93584.136 -15060.965 93571.875 -15073.242 93571.875 -15073.242 93540.14 -15134.863 93527.745 -15193.474 93525.589 -15223.386 93525.586 -15223.828"/></g></mask><mask id="bU5TTPpZo9VY_clear-3" fill="#000" stroke="#000"><g><rect x="6600" y="-38400" width="88836.914" height="37627" fill="#fff"/><path d="M 94999.219 -15223.828 94999.219 -15223.828 95008.129 -15301.576 95026.682 -15358.586 95042.605 -15390.382 95045.801 -15395.507 95045.801 -15395.507 95099.575 -15443.443 95151.44 -15461.368 95175.561 -15464.062 95175.586 -15464.062 95175.586 -15464.062 95249.571 -15448.214 95293.862 -15419.962 95306.25 -15407.812 95306.25 -15407.812 95338.386 -15346.593 95350.938 -15288.139 95353.122 -15258.254 95353.125 -15257.812 95353.125 -15257.812 95343.934 -15179.952 95324.798 -15122.709 95308.374 -15090.712 95305.078 -15085.546 95305.078 -15085.546 95250.727 -15037.201 95199.317 -15019.123 95175.61 -15016.406 95175.586 -15016.406 95175.586 -15016.406 95101.765 -15032.419 95057.768 -15060.965 95045.508 -15073.242 95045.508 -15073.242 95013.773 -15134.863 95001.378 -15193.474 94999.221 -15223.386 94999.219 -15223.828"/></g></mask><mask id="bU5TTPpZo9VY_clear-4" fill="#000" stroke="#000"><g><rect x="6600" y="-38400" width="91160.742" height="37627" fill="#fff"/><path d="M 97323.047 -15223.828 97323.047 -15223.828 97331.958 -15301.576 97350.51 -15358.586 97366.433 -15390.382 97369.629 -15395.507 97369.629 -15395.507 97423.403 -15443.443 97475.269 -15461.368 97499.389 -15464.062 97499.414 -15464.062 97499.414 -15464.062 97573.399 -15448.214 97617.691 -15419.962 97630.078 -15407.812 97630.078 -15407.812 97662.214 -15346.593 97674.766 -15288.139 97676.95 -15258.254 97676.953 -15257.812 97676.953 -15257.812 97667.762 -15179.952 97648.626 -15122.709 97632.202 -15090.712 97628.906 -15085.546 97628.906 -15085.546 97574.555 -15037.201 97523.145 -15019.123 97499.438 -15016.406 97499.414 -15016.406 97499.414 -15016.406 97425.593 -15032.419 97381.596 -15060.965 97369.336 -15073.242 97369.336 -15073.242 97337.601 -15134.863 97325.206 -15193.474 97323.05 -15223.386 97323.047 -15223.828"/></g></mask><mask id="bU5TTPpZo9VY_clear-5" fill="#000" stroke="#000"><g><rect x="6600" y="-38400" width="92017.383" height="37627" fill="#fff"/><path d="M 98208.398 -15223.828 98208.398 -15223.828 98218.038 -15303.779 98238.107 -15361.802 98255.332 -15393.883 98258.789 -15399.023 98258.789 -15399.023 98315.482 -15448.751 98363.863 -15465.727 98380.664 -15467.578 98380.664 -15467.578 98446.514 -15450.108 98495.514 -15417.409 98515.41 -15399.043 98515.429 -15399.023 98515.429 -15399.023 98514.525 -15277.174 98513.89 -15187.405 98513.476 -15124.934 98513.236 -15084.979 98513.122 -15062.759 98513.088 -15053.492 98513.086 -15052.148 98513.086 -15052.148 98443.535 -15024.519 98397.538 -15016.786 98389.453 -15016.406 98389.453 -15016.406 98316.71 -15031.649 98271.529 -15059.507 98257.031 -15073.242 98257.031 -15073.242 98223.69 -15134.863 98210.667 -15193.474 98208.401 -15223.386 98208.398 -15223.828"/></g></mask><mask id="bU5TTPpZo9VY_clear-6" fill="#000" stroke="#000"><g><rect x="6600" y="-38400" width="92598.633" height="37627" fill="#fff"/><path d="M 98829.492 -15216.796 98829.492 -15216.796 98899.751 -15216.054 98915.625 -15215.625 98915.625 -15215.625 98978.584 -15209.996 98991.211 -15208.3 98991.211 -15208.3 99052.283 -15193.373 99057.422 -15191.308 99057.422 -15191.308 99098.684 -15160.307 99098.73 -15160.254 99098.73 -15160.254 99116.009 -15110.582 99116.015 -15110.156 99116.015 -15110.156 99092.861 -15052.422 99084.375 -15043.359 99084.375 -15043.359 99025.218 -15017.172 99005.859 -15015.234 99005.859 -15015.234 98936.038 -15030.462 98892.625 -15056.201 98882.812 -15064.453 98882.812 -15064.453 98848.046 -15121.089 98833.047 -15180.739 98829.542 -15215.334 98829.492 -15216.796"/></g></mask><mask id="bU5TTPpZo9VY_clear-7" fill="#000" stroke="#000"><g><rect x="6600" y="-38400" width="93597.07" height="37627" fill="#fff"/><path d="M 99804.492 -15082.617 99804.492 -15082.617 99805.396 -15189.309 99806.032 -15273.441 99806.446 -15337.055 99806.686 -15382.19 99806.799 -15410.888 99806.833 -15425.19 99806.836 -15427.734 99806.836 -15427.734 99869.965 -15453.358 99927.648 -15462.749 99950.976 -15464.062 99950.976 -15464.062 100017.041 -15445.752 100042.676 -15427.441 100042.676 -15427.441 100042.676 -15427.441 100082.453 -15371.459 100095.921 -15338.917 100095.996 -15338.672 100095.996 -15338.672 100108.796 -15270.911 100111.496 -15228.66 100111.523 -15226.171 100111.523 -15226.171 100102.075 -15142.117 100083.576 -15089.787 100070.794 -15068.134 100070.215 -15067.382 100070.215 -15067.382 100012.184 -15026.352 99968.498 -15016.615 99963.867 -15016.406 99963.867 -15016.406 99895.711 -15029.881 99840.219 -15057.389 99808.28 -15079.551 99804.492 -15082.617"/></g></mask><mask id="bU5TTPpZo9VY_clear-8" fill="#000" stroke="#000"><g><rect x="6600" y="-38400" width="94141.406" height="37627" fill="#fff"/><path d="M 100388.672 -15362.109 100388.672 -15362.109 100407.438 -15427.309 100419.726 -15441.796 100419.726 -15441.796 100479.928 -15465.928 100498.828 -15467.578 100498.828 -15467.578 100571.944 -15453.121 100620.261 -15426.699 100636.523 -15413.671 100636.523 -15413.671 100635.353 -15358.765 100635.351 -15357.421 100635.351 -15357.421 100637.679 -15288.042 100639.453 -15257.812 100639.453 -15257.812 100587.389 -15263.66 100587.304 -15263.671 100587.304 -15263.671 100540.137 -15269.531 100540.137 -15269.531 100496.191 -15276.562 100496.191 -15276.562 100461.035 -15286.23 100461.035 -15286.23 100429.98 -15299.707 100429.98 -15299.707 100408.301 -15315.82 100408.301 -15315.82 100392.773 -15336.035 100392.773 -15336.035 100388.672 -15362.109"/></g></mask><mask id="bU5TTPpZo9VY_clear-9" fill="#000" stroke="#000"><g><rect x="6600" y="-38400" width="95629.101" height="37627" fill="#fff"/><path d="M 101859.961 -15216.796 101859.961 -15216.796 101930.22 -15216.054 101946.094 -15215.625 101946.094 -15215.625 102009.052 -15209.996 102021.679 -15208.3 102021.679 -15208.3 102082.752 -15193.373 102087.89 -15191.308 102087.89 -15191.308 102129.153 -15160.307 102129.199 -15160.254 102129.199 -15160.254 102146.478 -15110.582 102146.484 -15110.156 102146.484 -15110.156 102123.329 -15052.422 102114.844 -15043.359 102114.844 -15043.359 102055.686 -15017.172 102036.328 -15015.234 102036.328 -15015.234 101966.507 -15030.462 101923.094 -15056.201 101913.281 -15064.453 101913.281 -15064.453 101878.515 -15121.089 101863.516 -15180.739 101860.011 -15215.334 101859.961 -15216.796"/></g></mask></defs><g transform="translate(0,-39173) scale(1,-1)" fill="currentColor" stroke="currentColor"><g mask="url(#bU5TTPpZo9VY_clear-9)"><g mask="url(#bU5TTPpZo9VY_clear-8)"><g mask="url(#bU5TTPpZo9VY_clear-7)"><g mask="url(#bU5TTPpZo9VY_clear-6)"><g mask="url(#bU5TTPpZo9VY_clear-5)"><g mask="url(#bU5TTPpZo9VY_clear-4)"><g mask="url(#bU5TTPpZo9VY_clear-3)"><g mask="url(#bU5TTPpZo9VY_clear-2)"><g mask="url(#bU5TTPpZo9VY_clear-1)"><path d="M 42460 -2827 42460 -2827 42519.175 -2825.086 42577.328 -2819.422 42634.341 -2810.126 42690.094 -2797.319 42744.47 -2781.117 42797.349 -2761.641 42848.613 -2739.007 42898.143 -2713.335 42945.821 -2684.744 42991.528 -2653.352 43035.146 -2619.278 43076.556 -2582.64 43115.64 -2543.556 43152.278 -2502.146 43186.352 -2458.528 43217.744 -2412.821 43246.335 -2365.143 43272.007 -2315.613 43294.641 -2264.349 43314.117 -2211.47 43330.319 -2157.094 43343.126 -2101.341 43352.422 -2044.328 43358.086 -1986.175 43360 -1927 43360 -1927 43360 -1927 43358.086 -1867.825 43352.422 -1809.672 43343.126 -1752.659 43330.319 -1696.906 43314.117 -1642.53 43294.641 -1589.651 43272.007 -1538.387 43246.335 -1488.857 43217.744 -1441.179 43186.352 -1395.472 43152.278 -1351.854 43115.64 -1310.444 43076.556 -1271.36 43035.146 -1234.722 42991.528 -1200.648 42945.821 -1169.256 42898.143 -1140.665 42848.613 -1114.993 42797.349 -1092.359 42744.47 -1072.883 42690.094 -1056.681 42634.341 -1043.874 42577.328 -1034.578 42519.175 -1028.914 42460 -1027 42460 -1027 42460 -1027 42400.825 -1028.914 42342.672 -1034.578 42285.659 -1043.874 42229.906 -1056.681 42175.53 -1072.883 42122.651 -1092.359 42071.387 -1114.993 42021.857 -1140.665 41974.179 -1169.256 41928.472 -1200.648 41884.854 -1234.722 41843.444 -1271.36 41804.36 -1310.444 41767.722 -1351.854 41733.648 -1395.472 41702.256 -1441.179 41673.665 -1488.857 41647.993 -1538.387 41625.359 -1589.651 41605.883 -1642.53 41589.681 -1696.906 41576.874 -1752.659 41567.578 -1809.672 41561.914 -1867.825 41560 -1927 41560 -1927 41560 -1927 41561.914 -1986.175 41567.578 -2044.328 41576.874 -2101.341 41589.681 -2157.094 41605.883 -2211.47 41625.359 -2264.349 41647.993 -2315.613 41673.665 -2365.143 41702.256 -2412.821 41733.648 -2458.528 41767.722 -2502.146 41804.36 -2543.556 41843.444 -2582.64 41884.854 -2619.278 41928.472 -2653.352 41974.179 -2684.744 42021.857 -2713.335 42071.387 -2739.007 42122.651 -2761.641 42175.53 -2781.117 42229.906 -2797.319 42285.659 -2810.126 42342.672 -2819.422 42400.825 -2825.086 42460 -2827 42460 -2827"/><path d="M 47540 -2827 47540 -2827 47599.175 -2825.086 47657.328 -2819.422 47714.341 -2810.126 47770.094 -2797.319 47824.47 -2781.117 47877.349 -2761.641 47928.613 -2739.007 47978.143 -2713.335 48025.821 -2684.744 48071.528 -2653.352 48115.146 -2619.278 48156.556 -2582.64 48195.64 -2543.556 48232.278 -2502.146 48266.352 -2458.528 48297.744 -2412.821 48326.335 -2365.143 48352.007 -2315.613 48374.641 -2264.349 48394.117 -2211.47 48410.319 -2157.094 48423.126 -2101.341 48432.422 -2044.328 48438.086 -1986.175 48440 -1927 48440 -1927 48440 -1927 48438.086 -1867.825 48432.422 -1809.672 48423.126 -1752.659 48410.319 -1696.906 48394.117 -1642.53 48374.641 -1589.651 48352.007 -1538.387 48326.335 -1488.857 48297.744 -1441.179 48266.352 -1395.472 48232.278 -1351.854 48195.64 -1310.444 48156.556 -1271.36 48115.146 -1234.722 48071.528 -1200.648 48025.821 -1169.256 47978.143 -1140.665 47928.613 -1114.993 47877.349 -1092.359 47824.47 -1072.883 47770.094 -1056.681 47714.341 -1043.874 47657.328 -1034.578 47599.175 -1028.914 47540 -1027 47540 -1027 47540 -1027 47480.825 -1028.914 47422.672 -1034.578 47365.659 -1043.874 47309.906 -1056.681 47255.53 -1072.883 47202.651 -1092.359 47151.387 -1114.993 47101.857 -1140.665 47054.179 -1169.256 47008.472 -1200.648 46964.854 -1234.722 46923.444 -1271.36 46884.36 -1310.444 46847.722 -1351.854 46813.648 -1395.472 46782.256 -1441.179 46753.665 -1488.857 46727.993 -1538.387 46705.359 -1589.651 46685.883 -1642.53 46669.681 -1696.906 46656.874 -1752.659 46647.578 -1809.672 46641.914 -1867.825 46640 -1927 46640 -1927 46640 -1927 46641.914 -1986.175 46647.578 -2044.328 46656.874 -2101.341 46669.681 -2157.094 46685.883 -2211.47 46705.359 -2264.349 46727.993 -2315.613 46753.665 -2365.143 46782.256 -2412.821 46813.648 -2458.528 46847.722 -2502.146 46884.36 -2543.556 46923.444 -2582.64 46964.854 -2619.278 47008.472 -2653.352 47054.179 -2684.744 47101.857 -2713.335 47151.387 -2739.007 47202.651 -2761.641 47255.53 -2781.117 47309.906 -2797.319 47365.659 -2810.126 47422.672 -2819.422 47480.825 -2825.086 47540 -2827 47540 -2827"/><path d="M 45000 -2573 45000 -2573 45059.175 -2571.086 45117.328 -2565.422 45174.341 -2556.126 45230.094 -2543.319 45284.47 -2527.117 45337.349 -2507.641 45388.613 -2485.007 45438.143 -2459.335 45485.821 -2430.744 45531.528 -2399.352 45575.146 -2365.278 45616.556 -2328.64 45655.64 -2289.556 45692.278 -2248.146 45726.352 -2204.528 45757.744 -2158.821 45786.335 -2111.143 45812.007 -2061.613 45834.641 -2010.349 45854.117 -1957.47 45870.319 -1903.094 45883.126 -1847.341 45892.422 -1790.328 45898.086 -1732.175 45900 -1673 45900 -1673 45900 -1673 45898.086 -1613.825 45892.422 -1555.672 45883.126 -1498.659 45870.319 -1442.906 45854.117 -1388.53 45834.641 -1335.651 45812.007 -1284.387 45786.335 -1234.857 45757.744 -1187.179 45726.352 -1141.472 45692.278 -1097.854 45655.64 -1056.444 45616.556 -1017.36 45575.146 -980.722 45531.528 -946.648 45485.821 -915.256 45438.143 -886.665 45388.613 -860.993 45337.349 -838.359 45284.47 -818.883 45230.094 -802.681 45174.341 -789.874 45117.328 -780.578 45059.175 -774.914 45000 -773 45000 -773 45000 -773 44940.825 -774.914 44882.672 -780.578 44825.659 -789.874 44769.906 -802.681 44715.53 -818.883 44662.651 -838.359 44611.387 -860.993 44561.857 -886.665 44514.179 -915.256 44468.472 -946.648 44424.854 -980.722 44383.444 -1017.36 44344.36 -1056.444 44307.722 -1097.854 44273.648 -1141.472 44242.256 -1187.179 44213.665 -1234.857 44187.993 -1284.387 44165.359 -1335.651 44145.883 -1388.53 44129.681 -1442.906 44116.874 -1498.659 44107.578 -1555.672 44101.914 -1613.825 44100 -1673 44100 -1673 44100 -1673 44101.914 -1732.175 44107.578 -1790.328 44116.874 -1847.341 44129.681 -1903.094 44145.883 -1957.47 44165.359 -2010.349 44187.993 -2061.613 44213.665 -2111.143 44242.256 -2158.821 44273.648 -2204.528 44307.722 -2248.146 44344.36 -2289.556 44383.444 -2328.64 44424.854 -2365.278 44468.472 -2399.352 44514.179 -2430.744 44561.857 -2459.335 44611.387 -2485.007 44662.651 -2507.641 44715.53 -2527.117 44769.906 -2543.319 44825.659 -2556.126 44882.672 -2565.422 44940.825 -2571.086 45000 -2573 45000 -2573"/><path d="M 7500 -31170 7500 -31170 7440.825 -31168.086 7382.672 -31162.422 7325.659 -31153.126 7269.906 -31140.319 7215.53 -31124.117 7162.651 -31104.641 7111.387 -31082.007 7061.857 -31056.335 7014.179 -31027.744 6968.472 -30996.352 6924.854 -30962.278 6883.444 -30925.64 6844.36 -30886.556 6807.722 -30845.146 6773.648 -30801.528 6742.256 -30755.821 6713.665 -30708.143 6687.993 -30658.613 6665.359 -30607.349 6645.883 -30554.47 6629.681 -30500.094 6616.874 -30444.341 6607.578 -30387.328 6601.914 -30329.175 6600 -30270 6600 -30270 6600 -30270 6601.914 -30210.825 6607.578 -30152.672 6616.874 -30095.659 6629.681 -30039.906 6645.883 -29985.53 6665.359 -29932.651 6687.993 -29881.387 6713.665 -29831.857 6742.256 -29784.179 6773.648 -29738.472 6807.722 -29694.854 6844.36 -29653.444 6883.444 -29614.36 6924.854 -29577.722 6968.472 -29543.648 7014.179 -29512.256 7061.857 -29483.665 7111.387 -29457.993 7162.651 -29435.359 7215.53 -29415.883 7269.906 -29399.681 7325.659 -29386.874 7382.672 -29377.578 7440.825 -29371.914 7500 -29370 7500 -29370 7500 -29370 7559.175 -29371.914 7617.328 -29377.578 7674.341 -29386.874 7730.094 -29399.681 7784.47 -29415.883 7837.349 -29435.359 7888.613 -29457.993 7938.143 -29483.665 7985.821 -29512.256 8031.528 -29543.648 8075.146 -29577.722 8116.556 -29614.36 8155.64 -29653.444 8192.278 -29694.854 8226.352 -29738.472 8257.744 -29784.179 8286.335 -29831.857 8312.007 -29881.387 8334.641 -29932.651 8354.117 -29985.53 8370.319 -30039.906 8383.126 -30095.659 8392.422 -30152.672 8398.086 -30210.825 8400 -30270 8400 -30270 8400 -30270 8398.086 -30329.175 8392.422 -30387.328 8383.126 -30444.341 8370.319 -30500.094 8354.117 -30554.47 8334.641 -30607.349 8312.007 -30658.613 8286.335 -30708.143 8257.744 -30755.821 8226.352 -30801.528 8192.278 -30845.146 8155.64 -30886.556 8116.556 -30925.64 8075.146 -30962.278 8031.528 -30996.352 7985.821 -31027.744 7938.143 -31056.335 7888.613 -31082.007 7837.349 -31104.641 7784.47 -31124.117 7730.094 -31140.319 7674.341 -31153.126 7617.328 -31162.422 7559.175 -31168.086 7500 -31170 7500 -31170"/><path d="M 7500 -28630 7500 -28630 7440.825 -28628.086 7382.672 -28622.422 7325.659 -28613.126 7269.906 -28600.319 7215.53 -28584.117 7162.651 -28564.641 7111.387 -28542.007 7061.857 -28516.335 7014.179 -28487.744 6968.472 -28456.352 6924.854 -28422.278 6883.444 -28385.64 6844.36 -28346.556 6807.722 -28305.146 6773.648 -28261.528 6742.256 -28215.821 6713.665 -28168.143 6687.993 -28118.613 6665.359 -28067.349 6645.883 -28014.47 6629.681 -27960.094 6616.874 -27904.341 6607.578 -27847.328 6601.914 -27789.175 6600 -27730 6600 -27730 6600 -27730 6601.914 -27670.825 6607.578 -27612.672 6616.874 -27555.659 6629.681 -27499.906 6645.883 -27445.53 6665.359 -27392.651 6687.993 -27341.387 6713.665 -27291.857 6742.256 -27244.179 6773.648 -27198.472 6807.722 -27154.854 6844.36 -27113.444 6883.444 -27074.36 6924.854 -27037.722 6968.472 -27003.648 7014.179 -26972.256 7061.857 -26943.665 7111.387 -26917.993 7162.651 -26895.359 7215.53 -26875.883 7269.906 -26859.681 7325.659 -26846.874 7382.672 -26837.578 7440.825 -26831.914 7500 -26830 7500 -26830 7500 -26830 7559.175 -26831.914 7617.328 -26837.578 7674.341 -26846.874 7730.094 -26859.681 7784.47 -26875.883 7837.349 -26895.359 7888.613 -26917.993 7938.143 -26943.665 7985.821 -26972.256 8031.528 -27003.648 8075.146 -27037.722 8116.556 -27074.36 8155.64 -27113.444 8192.278 -27154.854 8226.352 -27198.472 8257.744 -27244.179 8286.335 -27291.857 8312.007 -27341.387 8334.641 -27392.651 8354.117 -27445.53 8370.319 -27499.906 8383.126 -27555.659 8392.422 -27612.672 8398.086 -27670.825 8400 -27730 8400 -27730 8400 -27730 8398.086 -27789.175 8392.422 -27847.328 8383.126 -27904.341 8370.319 -27960.094 8354.117 -28014.47 8334.641 -28067.349 8312.007 -28118.613 8286.335 -28168.143 8257.744 -28215.821 8226.352 -28261.528 8192.278 -28305.146 8155.64 -28346.556 8116.556 -28385.64 8075.146 -28422.278 8031.528 -28456.352 7985.821 -28487.744 7938.143 -28516.335 7888.613 -28542.007 7837.349 -28564.641 7784.47 -28584.117 7730.094 -28600.319 7674.341 -28613.126 7617.328 -28622.422 7559.175 -28628.086 7500 -28630 7500 -28630"/><path d="M 80750 -36300 80750 -36300 80812.463 -36297.979 80873.847 -36292.001 80934.027 -36282.189 80992.877 -36268.67 81050.273 -36251.568 81106.09 -36231.01 81160.202 -36207.119 81212.484 -36180.021 81262.811 -36149.841 81311.058 -36116.705 81357.099 -36080.738 81400.809 -36042.064 81442.064 -36000.809 81480.738 -35957.099 81516.705 -35911.058 81549.841 -35862.811 81580.021 -35812.484 81607.119 -35760.202 81631.01 -35706.09 81651.568 -35650.273 81668.67 -35592.877 81682.189 -35534.027 81692.001 -35473.847 81697.979 -35412.463 81700 -35350 81700 -35350 81700 -35350 81697.979 -35287.537 81692.001 -35226.153 81682.189 -35165.973 81668.67 -35107.123 81651.568 -35049.727 81631.01 -34993.91 81607.119 -34939.798 81580.021 -34887.516 81549.841 -34837.189 81516.705 -34788.942 81480.738 -34742.901 81442.064 -34699.191 81400.809 -34657.936 81357.099 -34619.262 81311.058 -34583.295 81262.811 -34550.159 81212.484 -34519.979 81160.202 -34492.881 81106.09 -34468.99 81050.273 -34448.432 80992.877 -34431.33 80934.027 -34417.811 80873.847 -34407.999 80812.463 -34402.021 80750 -34400 80750 -34400 80750 -34400 80687.537 -34402.021 80626.153 -34407.999 80565.973 -34417.811 80507.123 -34431.33 80449.727 -34448.432 80393.91 -34468.99 80339.798 -34492.881 80287.516 -34519.979 80237.189 -34550.159 80188.942 -34583.295 80142.901 -34619.262 80099.191 -34657.936 80057.936 -34699.191 80019.262 -34742.901 79983.295 -34788.942 79950.159 -34837.189 79919.979 -34887.516 79892.881 -34939.798 79868.99 -34993.91 79848.432 -35049.727 79831.33 -35107.123 79817.811 -35165.973 79807.999 -35226.153 79802.021 -35287.537 79800 -35350 79800 -35350 79800 -35350 79802.021 -35412.463 79807.999 -35473.847 79817.811 -35534.027 79831.33 -35592.877 79848.432 -35650.273 79868.99 -35706.09 79892.881 -35760.202 79919.979 -35812.484 79950.159 -35862.811 79983.295 -35911.058 80019.262 -35957.099 80057.936 -36000.809 80099.191 -36042.064 80142.901 -36080.738 80188.942 -36116.705 80237.189 -36149.841 80287.516 -36180.021 80339.798 -36207.119 80393.91 -36231.01 80449.727 -36251.568 80507.123 -36268.67 80565.973 -36282.189 80626.153 -36292.001 80687.537 -36297.979 80750 -36300 80750 -36300"/><path d="M 85750 -38400 85750 -38400 85812.463 -38397.979 85873.847 -38392.001 85934.027 -38382.189 85992.877 -38368.67 86050.273 -38351.568 86106.09 -38331.01 86160.202 -38307.119 86212.484 -38280.021 86262.811 -38249.841 86311.058 -38216.705 86357.099 -38180.738 86400.809 -38142.064 86442.064 -38100.809 86480.738 -38057.099 86516.705 -38011.058 86549.841 -37962.811 86580.021 -37912.484 86607.119 -37860.202 86631.01 -37806.09 86651.568 -37750.273 86668.67 -37692.877 86682.189 -37634.027 86692.001 -37573.847 86697.979 -37512.463 86700 -37450 86700 -37450 86700 -37450 86697.979 -37387.537 86692.001 -37326.153 86682.189 -37265.973 86668.67 -37207.123 86651.568 -37149.727 86631.01 -37093.91 86607.119 -37039.798 86580.021 -36987.516 86549.841 -36937.189 86516.705 -36888.942 86480.738 -36842.901 86442.064 -36799.191 86400.809 -36757.936 86357.099 -36719.262 86311.058 -36683.295 86262.811 -36650.159 86212.484 -36619.979 86160.202 -36592.881 86106.09 -36568.99 86050.273 -36548.432 85992.877 -36531.33 85934.027 -36517.811 85873.847 -36507.999 85812.463 -36502.021 85750 -36500 85750 -36500 85750 -36500 85687.537 -36502.021 85626.153 -36507.999 85565.973 -36517.811 85507.123 -36531.33 85449.727 -36548.432 85393.91 -36568.99 85339.798 -36592.881 85287.516 -36619.979 85237.189 -36650.159 85188.942 -36683.295 85142.901 -36719.262 85099.191 -36757.936 85057.936 -36799.191 85019.262 -36842.901 84983.295 -36888.942 84950.159 -36937.189 84919.979 -36987.516 84892.881 -37039.798 84868.99 -37093.91 84848.432 -37149.727 84831.33 -37207.123 84817.811 -37265.973 84807.999 -37326.153 84802.021 -37387.537 84800 -37450 84800 -37450 84800 -37450 84802.021 -37512.463 84807.999 -37573.847 84817.811 -37634.027 84831.33 -37692.877 84848.432 -37750.273 84868.99 -37806.09 84892.881 -37860.202 84919.979 -37912.484 84950.159 -37962.811 84983.295 -38011.058 85019.262 -38057.099 85057.936 -38100.809 85099.191 -38142.064 85142.901 -38180.738 85188.942 -38216.705 85237.189 -38249.841 85287.516 -38280.021 85339.798 -38307.119 85393.91 -38331.01 85449.727 -38351.568 85507.123 -38368.67 85565.973 -38382.189 85626.153 -38392.001 85687.537 -38397.979 85750 -38400 85750 -38400"/><path d="M 9250 -3800 9250 -3800 9312.463 -3797.979 9373.847 -3792.001 9434.027 -3782.189 9492.877 -3768.67 9550.273 -3751.568 9606.09 -3731.01 9660.202 -3707.119 9712.484 -3680.021 9762.811 -3649.841 9811.058 -3616.705 9857.099 -3580.738 9900.809 -3542.064 9942.064 -3500.809 9980.738 -3457.099 10016.705 -3411.058 10049.841 -3362.811 10080.021 -3312.484 10107.119 -3260.202 10131.01 -3206.09 10151.568 -3150.273 10168.67 -3092.877 10182.189 -3034.027 10192.001 -2973.847 10197.979 -2912.463 10200 -2850 10200 -2850 10200 -2850 10197.979 -2787.537 10192.001 -2726.153 10182.189 -2665.973 10168.67 -2607.123 10151.568 -2549.727 10131.01 -2493.91 10107.119 -2439.798 10080.021 -2387.516 10049.841 -2337.189 10016.705 -2288.942 9980.738 -2242.901 9942.064 -2199.191 9900.809 -2157.936 9857.099 -2119.262 9811.058 -2083.295 9762.811 -2050.159 9712.484 -2019.979 9660.202 -1992.881 9606.09 -1968.99 9550.273 -1948.432 9492.877 -1931.33 9434.027 -1917.811 9373.847 -1907.999 9312.463 -1902.021 9250 -1900 9250 -1900 9250 -1900 9187.537 -1902.021 9126.153 -1907.999 9065.973 -1917.811 9007.123 -1931.33 8949.727 -1948.432 8893.91 -1968.99 8839.798 -1992.881 8787.516 -2019.979 8737.189 -2050.159 8688.942 -2083.295 8642.901 -2119.262 8599.191 -2157.936 8557.936 -2199.191 8519.262 -2242.901 8483.295 -2288.942 8450.159 -2337.189 8419.979 -2387.516 8392.881 -2439.798 8368.99 -2493.91 8348.432 -2549.727 8331.33 -2607.123 8317.811 -2665.973 8307.999 -2726.153 8302.021 -2787.537 8300 -2850 8300 -2850 8300 -2850 8302.021 -2912.463 8307.999 -2973.847 8317.811 -3034.027 8331.33 -3092.877 8348.432 -3150.273 8368.99 -3206.09 8392.881 -3260.202 8419.979 -3312.484 8450.159 -3362.811 8483.295 -3411.058 8519.262 -3457.099 8557.936 -3500.809 8599.191 -3542.064 8642.901 -3580.738 8688.942 -3616.705 8737.189 -3649.841 8787.516 -3680.021 8839.798 -3707.119 8893.91 -3731.01 8949.727 -3751.568 9007.123 -3768.67 9065.973 -3782.189 9126.153 -3792.001 9187.537 -3797.979 9250 -3800 9250 -3800"/><path d="M 14250 -5900 14250 -5900 14312.463 -5897.979 14373.847 -5892.001 14434.027 -5882.189 14492.877 -5868.67 14550.273 -5851.568 14606.09 -5831.01 14660.202 -5807.119 14712.484 -5780.021 14762.811 -5749.841 14811.058 -5716.705 14857.099 -5680.738 14900.809 -5642.064 14942.064 -5600.809 14980.738 -5557.099 15016.705 -5511.058 15049.841 -5462.811 15080.021 -5412.484 15107.119 -5360.202 15131.01 -5306.09 15151.568 -5250.273 15168.67 -5192.877 15182.189 -5134.027 15192.001 -5073.847 15197.979 -5012.463 15200 -4950 15200 -4950 15200 -4950 15197.979 -4887.537 15192.001 -4826.153 15182.189 -4765.973 15168.67 -4707.123 15151.568 -4649.727 15131.01 -4593.91 15107.119 -4539.798 15080.021 -4487.516 15049.841 -4437.189 15016.705 -4388.942 14980.738 -4342.901 14942.064 -4299.191 14900.809 -4257.936 14857.099 -4219.262 14811.058 -4183.295 14762.811 -4150.159 14712.484 -4119.979 14660.202 -4092.881 14606.09 -4068.99 14550.273 -4048.432 14492.877 -4031.33 14434.027 -4017.811 14373.847 -4007.999 14312.463 -4002.021 14250 -4000 14250 -4000 14250 -4000 14187.537 -4002.021 14126.153 -4007.999 14065.973 -4017.811 14007.123 -4031.33 13949.727 -4048.432 13893.91 -4068.99 13839.798 -4092.881 13787.516 -4119.979 13737.189 -4150.159 13688.942 -4183.295 13642.901 -4219.262 13599.191 -4257.936 13557.936 -4299.191 13519.262 -4342.901 13483.295 -4388.942 13450.159 -4437.189 13419.979 -4487.516 13392.881 -4539.798 13368.99 -4593.91 13348.432 -4649.727 13331.33 -4707.123 13317.811 -4765.973 13307.999 -4826.153 13302.021 -4887.537 13300 -4950 13300 -4950 13300 -4950 13302.021 -5012.463 13307.999 -5073.847 13317.811 -5134.027 13331.33 -5192.877 13348.432 -5250.273 13368.99 -5306.09 13392.881 -5360.202 13419.979 -5412.484 13450.159 -5462.811 13483.295 -5511.058 13519.262 -5557.099 13557.936 -5600.809 13599.191 -5642.064 13642.901 -5680.738 13688.942 -5716.705 13737.189 -5749.841 13787.516 -5780.021 13839.798 -5807.119 13893.91 -5831.01 13949.727 -5851.568 14007.123 -5868.67 14065.973 -5882.189 14126.153 -5892.001 14187.537 -5897.979 14250 -5900 14250 -5900"/><path d="M 9250 -36300 9250 -36300 9312.463 -36297.979 9373.847 -36292.001 9434.027 -36282.189 9492.877 -36268.67 9550.273 -36251.568 9606.09 -36231.01 9660.202 -36207.119 9712.484 -36180.021 9762.811 -36149.841 9811.058 -36116.705 9857.099 -36080.738 9900.809 -36042.064 9942.064 -36000.809 9980.738 -35957.099 10016.705 -35911.058 10049.841 -35862.811 10080.021 -35812.484 10107.119 -35760.202 10131.01 -35706.09 10151.568 -35650.273 10168.67 -35592.877 10182.189 -35534.027 10192.001 -35473.847 10197.979 -35412.463 10200 -35350 10200 -35350 10200 -35350 10197.979 -35287.537 10192.001 -35226.153 10182.189 -35165.973 10168.67 -35107.123 10151.568 -35049.727 10131.01 -34993.91 10107.119 -34939.798 10080.021 -34887.516 10049.841 -34837.189 10016.705 -34788.942 9980.738 -34742.901 9942.064 -34699.191 9900.809 -34657.936 9857.099 -34619.262 9811.058 -34583.295 9762.811 -34550.159 9712.484 -34519.979 9660.202 -34492.881 9606.09 -34468.99 9550.273 -34448.432 9492.877 -34431.33 9434.027 -34417.811 9373.847 -34407.999 9312.463 -34402.021 9250 -34400 9250 -34400 9250 -34400 9187.537 -34402.021 9126.153 -34407.999 9065.973 -34417.811 9007.123 -34431.33 8949.727 -34448.432 8893.91 -34468.99 8839.798 -34492.881 8787.516 -34519.979 8737.189 -34550.159 8688.942 -34583.295 8642.901 -34619.262 8599.191 -34657.936 8557.936 -34699.191 8519.262 -34742.901 8483.295 -34788.942 8450.159 -34837.189 8419.979 -34887.516 8392.881 -34939.798 8368.99 -34993.91 8348.432 -35049.727 8331.33 -35107.123 8317.811 -35165.973 8307.999 -35226.153 8302.021 -35287.537 8300 -35350 8300 -35350 8300 -35350 8302.021 -35412.463 8307.999 -35473.847 8317.811 -35534.027 8331.33 -35592.877 8348.432 -35650.273 8368.99 -35706.09 8392.881 -35760.202 8419.979 -35812.484 8450.159 -35862.811 8483.295 -35911.058 8519.262 -35957.099 8557.936 -36000.809 8599.191 -36042.064 8642.901 -36080.738 8688.942 -36116.705 8737.189 -36149.841 8787.516 -36180.021 8839.798 -36207.119 8893.91 -36231.01 8949.727 -36251.568 9007.123 -36268.67 9065.973 -36282.189 9126.153 -36292.001 9187.537 -36297.979 9250 -36300 9250 -36300"/><path d="M 14250 -38400 14250 -38400 14312.463 -38397.979 14373.847 -38392.001 14434.027 -38382.189 14492.877 -38368.67 14550.273 -38351.568 14606.09 -38331.01 14660.202 -38307.119 14712.484 -38280.021 14762.811 -38249.841 14811.058 -38216.705 14857.099 -38180.738 14900.809 -38142.064 14942.064 -38100.809 14980.738 -38057.099 15016.705 -38011.058 15049.841 -37962.811 15080.021 -37912.484 15107.119 -37860.202 15131.01 -37806.09 15151.568 -37750.273 15168.67 -37692.877 15182.189 -37634.027 15192.001 -37573.847 15197.979 -37512.463 15200 -37450 15200 -37450 15200 -37450 15197.979 -37387.537 15192.001 -37326.153 15182.189 -37265.973 15168.67 -37207.123 15151.568 -37149.727 15131.01 -37093.91 15107.119 -37039.798 15080.021 -36987.516 15049.841 -36937.189 15016.705 -36888.942 14980.738 -36842.901 14942.064 -36799.191 14900.809 -36757.936 14857.099 -36719.262 14811.058 -36683.295 14762.811 -36650.159 14712.484 -36619.979 14660.202 -36592.881 14606.09 -36568.99 14550.273 -36548.432 14492.877 -36531.33 14434.027 -36517.811 14373.847 -36507.999 14312.463 -36502.021 14250 -36500 14250 -36500 14250 -36500 14187.537 -36502.021 14126.153 -36507.999 14065.973 -36517.811 14007.123 -36531.33 13949.727 -36548.432 13893.91 -36568.99 13839.798 -36592.881 13787.516 -36619.979 13737.189 -36650.159 13688.942 -36683.295 13642.901 -36719.262 13599.191 -36757.936 13557.936 -36799.191 13519.262 -36842.901 13483.295 -36888.942 13450.159 -36937.189 13419.979 -36987.516 13392.881 -37039.798 13368.99 -37093.91 13348.432 -37149.727 13331.33 -37207.123 13317.811 -37265.973 13307.999 -37326.153 13302.021 -37387.537 13300 -37450 13300 -37450 13300 -37450 13302.021 -37512.463 13307.999 -37573.847 13317.811 -37634.027 13331.33 -37692.877 13348.432 -37750.273 13368.99 -37806.09 13392.881 -37860.202 13419.979 -37912.484 13450.159 -37962.811 13483.295 -38011.058 13519.262 -38057.099 13557.936 -38100.809 13599.191 -38142.064 13642.901 -38180.738 13688.942 -38216.705 13737.189 -38249.841 13787.516 -38280.021 13839.798 -38307.119 13893.91 -38331.01 13949.727 -38351.568 14007.123 -38368.67 14065.973 -38382.189 14126.153 -38392.001 14187.537 -38397.979 14250 -38400 14250 -38400"/><path d="M 41190 -10500 41190 -10500 41249.175 -10498.086 41307.328 -10492.422 41364.341 -10483.126 41420.094 -10470.319 41474.47 -10454.117 41527.349 -10434.641 41578.613 -10412.007 41628.143 -10386.335 41675.821 -10357.744 41721.528 -10326.352 41765.146 -10292.278 41806.556 -10255.64 41845.64 -10216.556 41882.278 -10175.146 41916.352 -10131.528 41947.744 -10085.821 41976.335 -10038.143 42002.007 -9988.613 42024.641 -9937.349 42044.117 -9884.47 42060.319 -9830.094 42073.126 -9774.341 42082.422 -9717.328 42088.086 -9659.175 42090 -9600 42090 -9600 42090 -9600 42088.086 -9540.825 42082.422 -9482.672 42073.126 -9425.659 42060.319 -9369.906 42044.117 -9315.53 42024.641 -9262.651 42002.007 -9211.387 41976.335 -9161.857 41947.744 -9114.179 41916.352 -9068.472 41882.278 -9024.854 41845.64 -8983.444 41806.556 -8944.36 41765.146 -8907.722 41721.528 -8873.648 41675.821 -8842.256 41628.143 -8813.665 41578.613 -8787.993 41527.349 -8765.359 41474.47 -8745.883 41420.094 -8729.681 41364.341 -8716.874 41307.328 -8707.578 41249.175 -8701.914 41190 -8700 41190 -8700 41190 -8700 41130.825 -8701.914 41072.672 -8707.578 41015.659 -8716.874 40959.906 -8729.681 40905.53 -8745.883 40852.651 -8765.359 40801.387 -8787.993 40751.857 -8813.665 40704.179 -8842.256 40658.472 -8873.648 40614.854 -8907.722 40573.444 -8944.36 40534.36 -8983.444 40497.722 -9024.854 40463.648 -9068.472 40432.256 -9114.179 40403.665 -9161.857 40377.993 -9211.387 40355.359 -9262.651 40335.883 -9315.53 40319.681 -9369.906 40306.874 -9425.659 40297.578 -9482.672 40291.914 -9540.825 40290 -9600 40290 -9600 40290 -9600 40291.914 -9659.175 40297.578 -9717.328 40306.874 -9774.341 40319.681 -9830.094 40335.883 -9884.47 40355.359 -9937.349 40377.993 -9988.613 40403.665 -10038.143 40432.256 -10085.821 40463.648 -10131.528 40497.722 -10175.146 40534.36 -10216.556 40573.444 -10255.64 40614.854 -10292.278 40658.472 -10326.352 40704.179 -10357.744 40751.857 -10386.335 40801.387 -10412.007 40852.651 -10434.641 40905.53 -10454.117 40959.906 -10470.319 41015.659 -10483.126 41072.672 -10492.422 41130.825 -10498.086 41190 -10500 41190 -10500"/><path d="M 46270 -10500 46270 -10500 46329.175 -10498.086 46387.328 -10492.422 46444.341 -10483.126 46500.094 -10470.319 46554.47 -10454.117 46607.349 -10434.641 46658.613 -10412.007 46708.143 -10386.335 46755.821 -10357.744 46801.528 -10326.352 46845.146 -10292.278 46886.556 -10255.64 46925.64 -10216.556 46962.278 -10175.146 46996.352 -10131.528 47027.744 -10085.821 47056.335 -10038.143 47082.007 -9988.613 47104.641 -9937.349 47124.117 -9884.47 47140.319 -9830.094 47153.126 -9774.341 47162.422 -9717.328 47168.086 -9659.175 47170 -9600 47170 -9600 47170 -9600 47168.086 -9540.825 47162.422 -9482.672 47153.126 -9425.659 47140.319 -9369.906 47124.117 -9315.53 47104.641 -9262.651 47082.007 -9211.387 47056.335 -9161.857 47027.744 -9114.179 46996.352 -9068.472 46962.278 -9024.854 46925.64 -8983.444 46886.556 -8944.36 46845.146 -8907.722 46801.528 -8873.648 46755.821 -8842.256 46708.143 -8813.665 46658.613 -8787.993 46607.349 -8765.359 46554.47 -8745.883 46500.094 -8729.681 46444.341 -8716.874 46387.328 -8707.578 46329.175 -8701.914 46270 -8700 46270 -8700 46270 -8700 46210.825 -8701.914 46152.672 -8707.578 46095.659 -8716.874 46039.906 -8729.681 45985.53 -8745.883 45932.651 -8765.359 45881.387 -8787.993 45831.857 -8813.665 45784.179 -8842.256 45738.472 -8873.648 45694.854 -8907.722 45653.444 -8944.36 45614.36 -8983.444 45577.722 -9024.854 45543.648 -9068.472 45512.256 -9114.179 45483.665 -9161.857 45457.993 -9211.387 45435.359 -9262.651 45415.883 -9315.53 45399.681 -9369.906 45386.874 -9425.659 45377.578 -9482.672 45371.914 -9540.825 45370 -9600 45370 -9600 45370 -9600 45371.914 -9659.175 45377.578 -9717.328 45386.874 -9774.341 45399.681 -9830.094 45415.883 -9884.47 45435.359 -9937.349 45457.993 -9988.613 45483.665 -10038.143 45512.256 -10085.821 45543.648 -10131.528 45577.722 -10175.146 45614.36 -10216.556 45653.444 -10255.64 45694.854 -10292.278 45738.472 -10326.352 45784.179 -10357.744 45831.857 -10386.335 45881.387 -10412.007 45932.651 -10434.641 45985.53 -10454.117 46039.906 -10470.319 46095.659 -10483.126 46152.672 -10492.422 46210.825 -10498.086 46270 -10500 46270 -10500"/><path d="M 43730 -10500 43730 -10500 43789.175 -10498.086 43847.328 -10492.422 43904.341 -10483.126 43960.094 -10470.319 44014.47 -10454.117 44067.349 -10434.641 44118.613 -10412.007 44168.143 -10386.335 44215.821 -10357.744 44261.528 -10326.352 44305.146 -10292.278 44346.556 -10255.64 44385.64 -10216.556 44422.278 -10175.146 44456.352 -10131.528 44487.744 -10085.821 44516.335 -10038.143 44542.007 -9988.613 44564.641 -9937.349 44584.117 -9884.47 44600.319 -9830.094 44613.126 -9774.341 44622.422 -9717.328 44628.086 -9659.175 44630 -9600 44630 -9600 44630 -9600 44628.086 -9540.825 44622.422 -9482.672 44613.126 -9425.659 44600.319 -9369.906 44584.117 -9315.53 44564.641 -9262.651 44542.007 -9211.387 44516.335 -9161.857 44487.744 -9114.179 44456.352 -9068.472 44422.278 -9024.854 44385.64 -8983.444 44346.556 -8944.36 44305.146 -8907.722 44261.528 -8873.648 44215.821 -8842.256 44168.143 -8813.665 44118.613 -8787.993 44067.349 -8765.359 44014.47 -8745.883 43960.094 -8729.681 43904.341 -8716.874 43847.328 -8707.578 43789.175 -8701.914 43730 -8700 43730 -8700 43730 -8700 43670.825 -8701.914 43612.672 -8707.578 43555.659 -8716.874 43499.906 -8729.681 43445.53 -8745.883 43392.651 -8765.359 43341.387 -8787.993 43291.857 -8813.665 43244.179 -8842.256 43198.472 -8873.648 43154.854 -8907.722 43113.444 -8944.36 43074.36 -8983.444 43037.722 -9024.854 43003.648 -9068.472 42972.256 -9114.179 42943.665 -9161.857 42917.993 -9211.387 42895.359 -9262.651 42875.883 -9315.53 42859.681 -9369.906 42846.874 -9425.659 42837.578 -9482.672 42831.914 -9540.825 42830 -9600 42830 -9600 42830 -9600 42831.914 -9659.175 42837.578 -9717.328 42846.874 -9774.341 42859.681 -9830.094 42875.883 -9884.47 42895.359 -9937.349 42917.993 -9988.613 42943.665 -10038.143 42972.256 -10085.821 43003.648 -10131.528 43037.722 -10175.146 43074.36 -10216.556 43113.444 -10255.64 43154.854 -10292.278 43198.472 -10326.352 43244.179 -10357.744 43291.857 -10386.335 43341.387 -10412.007 43392.651 -10434.641 43445.53 -10454.117 43499.906 -10470.319 43555.659 -10483.126 43612.672 -10492.422 43670.825 -10498.086 43730 -10500 43730 -10500"/><path d="M 48810 -10500 48810 -10500 48869.175 -10498.086 48927.328 -10492.422 48984.341 -10483.126 49040.094 -10470.319 49094.47 -10454.117 49147.349 -10434.641 49198.613 -10412.007 49248.143 -10386.335 49295.821 -10357.744 49341.528 -10326.352 49385.146 -10292.278 49426.556 -10255.64 49465.64 -10216.556 49502.278 -10175.146 49536.352 -10131.528 49567.744 -10085.821 49596.335 -10038.143 49622.007 -9988.613 49644.641 -9937.349 49664.117 -9884.47 49680.319 -9830.094 49693.126 -9774.341 49702.422 -9717.328 49708.086 -9659.175 49710 -9600 49710 -9600 49710 -9600 49708.086 -9540.825 49702.422 -9482.672 49693.126 -9425.659 49680.319 -9369.906 49664.117 -9315.53 49644.641 -9262.651 49622.007 -9211.387 49596.335 -9161.857 49567.744 -9114.179 49536.352 -9068.472 49502.278 -9024.854 49465.64 -8983.444 49426.556 -8944.36 49385.146 -8907.722 49341.528 -8873.648 49295.821 -8842.256 49248.143 -8813.665 49198.613 -8787.993 49147.349 -8765.359 49094.47 -8745.883 49040.094 -8729.681 48984.341 -8716.874 48927.328 -8707.578 48869.175 -8701.914 48810 -8700 48810 -8700 48810 -8700 48750.825 -8701.914 48692.672 -8707.578 48635.659 -8716.874 48579.906 -8729.681 48525.53 -8745.883 48472.651 -8765.359 48421.387 -8787.993 48371.857 -8813.665 48324.179 -8842.256 48278.472 -8873.648 48234.854 -8907.722 48193.444 -8944.36 48154.36 -8983.444 48117.722 -9024.854 48083.648 -9068.472 48052.256 -9114.179 48023.665 -9161.857 47997.993 -9211.387 47975.359 -9262.651 47955.883 -9315.53 47939.681 -9369.906 47926.874 -9425.659 47917.578 -9482.672 47911.914 -9540.825 47910 -9600 47910 -9600 47910 -9600 47911.914 -9659.175 47917.578 -9717.328 47926.874 -9774.341 47939.681 -9830.094 47955.883 -9884.47 47975.359 -9937.349 47997.993 -9988.613 48023.665 -10038.143 48052.256 -10085.821 48083.648 -10131.528 48117.722 -10175.146 48154.36 -10216.556 48193.444 -10255.64 48234.854 -10292.278 48278.472 -10326.352 48324.179 -10357.744 48371.857 -10386.335 48421.387 -10412.007 48472.651 -10434.641 48525.53 -10454.117 48579.906 -10470.319 48635.659 -10483.126 48692.672 -10492.422 48750.825 -10498.086 48810 -10500 48810 -10500"/><path d="M 80750 -3800 80750 -3800 80812.463 -3797.979 80873.847 -3792.001 80934.027 -3782.189 80992.877 -3768.67 81050.273 -3751.568 81106.09 -3731.01 81160.202 -3707.119 81212.484 -3680.021 81262.811 -3649.841 81311.058 -3616.705 81357.099 -3580.738 81400.809 -3542.064 81442.064 -3500.809 81480.738 -3457.099 81516.705 -3411.058 81549.841 -3362.811 81580.021 -3312.484 81607.119 -3260.202 81631.01 -3206.09 81651.568 -3150.273 81668.67 -3092.877 81682.189 -3034.027 81692.001 -2973.847 81697.979 -2912.463 81700 -2850 81700 -2850 81700 -2850 81697.979 -2787.537 81692.001 -2726.153 81682.189 -2665.973 81668.67 -2607.123 81651.568 -2549.727 81631.01 -2493.91 81607.119 -2439.798 81580.021 -2387.516 81549.841 -2337.189 81516.705 -2288.942 81480.738 -2242.901 81442.064 -2199.191 81400.809 -2157.936 81357.099 -2119.262 81311.058 -2083.295 81262.811 -2050.159 81212.484 -2019.979 81160.202 -1992.881 81106.09 -1968.99 81050.273 -1948.432 80992.877 -1931.33 80934.027 -1917.811 80873.847 -1907.999 80812.463 -1902.021 80750 -1900 80750 -1900 80750 -1900 80687.537 -1902.021 80626.153 -1907.999 80565.973 -1917.811 80507.123 -1931.33 80449.727 -1948.432 80393.91 -1968.99 80339.798 -1992.881 80287.516 -2019.979 80237.189 -2050.159 80188.942 -2083.295 80142.901 -2119.262 80099.191 -2157.936 80057.936 -2199.191 80019.262 -2242.901 79983.295 -2288.942 79950.159 -2337.189 79919.979 -2387.516 79892.881 -2439.798 79868.99 -2493.91 79848.432 -2549.727 79831.33 -2607.123 79817.811 -2665.973 79807.999 -2726.153 79802.021 -2787.537 79800 -2850 79800 -2850 79800 -2850 79802.021 -2912.463 79807.999 -2973.847 79817.811 -3034.027 79831.33 -3092.877 79848.432 -3150.273 79868.99 -3206.09 79892.881 -3260.202 79919.979 -3312.484 79950.159 -3362.811 79983.295 -3411.058 80019.262 -3457.099 80057.936 -3500.809 80099.191 -3542.064 80142.901 -3580.738 80188.942 -3616.705 80237.189 -3649.841 80287.516 -3680.021 80339.798 -3707.119 80393.91 -3731.01 80449.727 -3751.568 80507.123 -3768.67 80565.973 -3782.189 80626.153 -3792.001 80687.537 -3797.979 80750 -3800 80750 -3800"/><path d="M 85750 -5900 85750 -5900 85812.463 -5897.979 85873.847 -5892.001 85934.027 -5882.189 85992.877 -5868.67 86050.273 -5851.568 86106.09 -5831.01 86160.202 -5807.119 86212.484 -5780.021 86262.811 -5749.841 86311.058 -5716.705 86357.099 -5680.738 86400.809 -5642.064 86442.064 -5600.809 86480.738 -5557.099 86516.705 -5511.058 86549.841 -5462.811 86580.021 -5412.484 86607.119 -5360.202 86631.01 -5306.09 86651.568 -5250.273 86668.67 -5192.877 86682.189 -5134.027 86692.001 -5073.847 86697.979 -5012.463 86700 -4950 86700 -4950 86700 -4950 86697.979 -4887.537 86692.001 -4826.153 86682.189 -4765.973 86668.67 -4707.123 86651.568 -4649.727 86631.01 -4593.91 86607.119 -4539.798 86580.021 -4487.516 86549.841 -4437.189 86516.705 -4388.942 86480.738 -4342.901 86442.064 -4299.191 86400.809 -4257.936 86357.099 -4219.262 86311.058 -4183.295 86262.811 -4150.159 86212.484 -4119.979 86160.202 -4092.881 86106.09 -4068.99 86050.273 -4048.432 85992.877 -4031.33 85934.027 -4017.811 85873.847 -4007.999 85812.463 -4002.021 85750 -4000 85750 -4000 85750 -4000 85687.537 -4002.021 85626.153 -4007.999 85565.973 -4017.811 85507.123 -4031.33 85449.727 -4048.432 85393.91 -4068.99 85339.798 -4092.881 85287.516 -4119.979 85237.189 -4150.159 85188.942 -4183.295 85142.901 -4219.262 85099.191 -4257.936 85057.936 -4299.191 85019.262 -4342.901 84983.295 -4388.942 84950.159 -4437.189 84919.979 -4487.516 84892.881 -4539.798 84868.99 -4593.91 84848.432 -4649.727 84831.33 -4707.123 84817.811 -4765.973 84807.999 -4826.153 84802.021 -4887.537 84800 -4950 84800 -4950 84800 -4950 84802.021 -5012.463 84807.999 -5073.847 84817.811 -5134.027 84831.33 -5192.877 84848.432 -5250.273 84868.99 -5306.09 84892.881 -5360.202 84919.979 -5412.484 84950.159 -5462.811 84983.295 -5511.058 85019.262 -5557.099 85057.936 -5600.809 85099.191 -5642.064 85142.901 -5680.738 85188.942 -5716.705 85237.189 -5749.841 85287.516 -5780.021 85339.798 -5807.119 85393.91 -5831.01 85449.727 -5851.568 85507.123 -5868.67 85565.973 -5882.189 85626.153 -5892.001 85687.537 -5897.979 85750 -5900 85750 -5900"/><path d="M 91400 -14625 92600 -14625 92600 -15825 91400 -15825 91400 -14625"/><path d="M 92850 -14630.859 92850 -14630.859 92893.359 -14627.343 92893.359 -14627.343 92944.75 -14659.542 92947.265 -14673.046 92947.265 -14673.046 92946.982 -14718.372 92946.44 -14788.645 92946.099 -14830.875 92946.094 -14831.543 92946.094 -14831.543 92945.359 -14928.363 92945.021 -14984.864 92944.926 -15009.653 92944.922 -15012.89 92944.922 -15012.89 93013.602 -14974.904 93074.952 -14956.086 93117.604 -14949.703 93130.664 -14949.023 93130.664 -14949.023 93204.851 -14963.704 93256.193 -14993.067 93280.988 -15015.089 93282.715 -15016.992 93282.715 -15016.992 93315.423 -15074.6 93332.818 -15138.47 93339.736 -15191.98 93341.012 -15218.509 93341.015 -15219.14 93341.015 -15219.14 93332.957 -15299.557 93314.321 -15364.739 93293.419 -15411.614 93278.561 -15437.115 93275.976 -15440.918 93275.976 -15440.918 93221.712 -15491.377 93162.524 -15518.213 93113.33 -15528.885 93089.053 -15530.853 93088.476 -15530.859 93088.476 -15530.859 93010.707 -15521.592 92945.749 -15499.826 92896.955 -15474.612 92867.679 -15455.001 92860.547 -15449.414 92860.547 -15449.414 92864.611 -15394.926 92867.184 -15327.529 92868.604 -15261.595 92869.209 -15211.495 92869.336 -15191.601 92869.336 -15191.601 92869.336 -15191.601 92868.863 -15130.239 92867.686 -15060.855 92866.167 -14992.345 92864.67 -14933.603 92863.557 -14893.526 92863.183 -14880.761 92863.183 -14880.761 92859.45 -14776.359 92855.885 -14704.582 92852.869 -14660.015 92850.78 -14637.246 92850 -14630.859 92850 -14630.859"/></g><path d="M 93441.211 -15240.82 93441.211 -15240.82 93450.141 -15161.637 93470.791 -15099.31 93493.952 -15055.635 93510.417 -15032.41 93513.281 -15029.004 93513.281 -15029.004 93570.639 -14984.133 93630.022 -14960.269 93678.065 -14950.779 93701.404 -14949.028 93701.953 -14949.023 93701.953 -14949.023 93778.445 -14960.632 93836.903 -14986.615 93875.188 -15013.704 93891.161 -15028.63 93891.504 -15029.004 93891.504 -15029.004 93929.219 -15087.364 93950.676 -15149.048 93960.46 -15202.319 93963.157 -15235.442 93963.281 -15240.82 93963.281 -15240.82 93953.637 -15323.097 93931.69 -15386.711 93907.92 -15429.738 93892.808 -15450.252 93891.504 -15451.757 93891.504 -15451.757 93834.14 -15496.135 93774.463 -15519.737 93726.058 -15529.123 93702.508 -15530.854 93701.953 -15530.859 93701.953 -15530.859 93626.075 -15519.377 93567.872 -15493.68 93529.627 -15466.889 93513.625 -15452.127 93513.281 -15451.757 93513.281 -15451.757 93475.412 -15393.859 93453.867 -15332.438 93444.043 -15279.286 93441.335 -15246.196 93441.211 -15240.82"/></g><path d="M 94017.187 -15004.101 94017.187 -15004.101 94035.058 -14968.945 94035.058 -14968.945 94092.065 -14961.38 94096.289 -14961.328 94130.273 -14961.328 94130.273 -14961.328 94126.782 -14882.56 94123.454 -14835.581 94122.656 -14826.562 94122.656 -14826.562 94162.5 -14823.046 94162.5 -14823.046 94216.771 -14853.967 94219.922 -14868.75 94219.922 -14868.75 94217.297 -14927.062 94215.234 -14962.5 94215.234 -14962.5 94310.998 -14961.493 94373.144 -14959.277 94406.726 -14957.061 94416.797 -14956.054 94416.797 -14956.054 94416.797 -14956.054 94421.484 -14984.179 94421.484 -14984.179 94408.886 -15016.406 94408.886 -15016.406 94368.75 -15025.781 94368.75 -15025.781 94310.805 -15026.6 94245.303 -15026.907 94212.925 -15026.953 94212.89 -15026.953 94212.89 -15026.953 94211.792 -15101.15 94211.105 -15171.827 94210.733 -15232.547 94210.579 -15276.871 94210.547 -15298.361 94210.547 -15299.414 94210.547 -15299.414 94217.472 -15385.114 94229.501 -15426.574 94233.984 -15435.058 94233.984 -15435.058 94289.052 -15465.168 94311.328 -15467.578 94311.328 -15467.578 94375.964 -15447.781 94397.461 -15431.25 94397.461 -15431.25 94419.14 -15474.609 94419.14 -15474.609 94388.408 -15515.165 94388.086 -15515.332 94388.086 -15515.332 94326.378 -15530.193 94312.5 -15530.859 94312.5 -15530.859 94234.228 -15516.982 94188.435 -15490.405 94171.781 -15473.705 94171.582 -15473.437 94171.582 -15473.437 94145.692 -15415.591 94133.792 -15353.544 94130.442 -15309.832 94130.273 -15301.757 94130.273 -15301.757 94131.371 -15194.359 94132.058 -15117.23 94132.431 -15066.249 94132.585 -15037.291 94132.617 -15026.233 94132.617 -15025.781 94132.617 -15025.781 94083.59 -15029.518 94023.742 -15034.324 94020.703 -15034.57 94020.703 -15034.57 94017.187 -15004.101"/><path d="M 94439.062 -15004.101 94439.062 -15004.101 94456.933 -14968.945 94456.933 -14968.945 94513.94 -14961.38 94518.164 -14961.328 94552.148 -14961.328 94552.148 -14961.328 94548.657 -14882.56 94545.329 -14835.581 94544.531 -14826.562 94544.531 -14826.562 94584.375 -14823.046 94584.375 -14823.046 94638.646 -14853.967 94641.797 -14868.75 94641.797 -14868.75 94639.172 -14927.062 94637.109 -14962.5 94637.109 -14962.5 94732.873 -14961.493 94795.019 -14959.277 94828.601 -14957.061 94838.672 -14956.054 94838.672 -14956.054 94838.672 -14956.054 94843.359 -14984.179 94843.359 -14984.179 94830.761 -15016.406 94830.761 -15016.406 94790.625 -15025.781 94790.625 -15025.781 94732.68 -15026.6 94667.178 -15026.907 94634.8 -15026.953 94634.765 -15026.953 94634.765 -15026.953 94633.667 -15101.15 94632.98 -15171.827 94632.608 -15232.547 94632.454 -15276.871 94632.422 -15298.361 94632.422 -15299.414 94632.422 -15299.414 94639.347 -15385.114 94651.376 -15426.574 94655.859 -15435.058 94655.859 -15435.058 94710.927 -15465.168 94733.203 -15467.578 94733.203 -15467.578 94797.839 -15447.781 94819.336 -15431.25 94819.336 -15431.25 94841.015 -15474.609 94841.015 -15474.609 94810.283 -15515.165 94809.961 -15515.332 94809.961 -15515.332 94748.253 -15530.193 94734.375 -15530.859 94734.375 -15530.859 94656.103 -15516.982 94610.31 -15490.405 94593.656 -15473.705 94593.457 -15473.437 94593.457 -15473.437 94567.567 -15415.591 94555.667 -15353.544 94552.317 -15309.832 94552.148 -15301.757 94552.148 -15301.757 94553.246 -15194.359 94553.933 -15117.23 94554.306 -15066.249 94554.46 -15037.291 94554.492 -15026.233 94554.492 -15025.781 94554.492 -15025.781 94505.465 -15029.518 94445.617 -15034.324 94442.578 -15034.57 94442.578 -15034.57 94439.062 -15004.101"/><path d="M 94914.844 -15240.82 94914.844 -15240.82 94923.773 -15161.637 94944.423 -15099.31 94967.585 -15055.635 94984.049 -15032.41 94986.914 -15029.004 94986.914 -15029.004 95044.272 -14984.133 95103.655 -14960.269 95151.698 -14950.779 95175.036 -14949.028 95175.586 -14949.023 95175.586 -14949.023 95252.078 -14960.632 95310.536 -14986.615 95348.82 -15013.704 95364.794 -15028.63 95365.136 -15029.004 95365.136 -15029.004 95402.852 -15087.364 95424.309 -15149.048 95434.093 -15202.319 95436.79 -15235.442 95436.914 -15240.82 95436.914 -15240.82 95427.269 -15323.097 95405.323 -15386.711 95381.553 -15429.738 95366.441 -15450.252 95365.136 -15451.757 95365.136 -15451.757 95307.773 -15496.135 95248.096 -15519.737 95199.691 -15529.123 95176.141 -15530.854 95175.586 -15530.859 95175.586 -15530.859 95099.708 -15519.377 95041.505 -15493.68 95003.26 -15466.889 94987.258 -15452.127 94986.914 -15451.757 94986.914 -15451.757 94949.045 -15393.859 94927.5 -15332.438 94917.676 -15279.286 94914.968 -15246.196 94914.844 -15240.82"/></g><path d="M 95562.89 -14967.187 95562.89 -14967.187 95606.25 -14957.812 95606.25 -14957.812 95656.309 -14992.162 95661.328 -15017.578 95661.328 -15017.578 95719.409 -14981.762 95749.804 -14968.359 95749.804 -14968.359 95749.804 -14968.359 95818.945 -14951.44 95849.414 -14949.023 95849.414 -14949.023 95849.414 -14949.023 95923.814 -14966.847 95966.392 -15001.746 95982.489 -15025.861 95983.008 -15026.953 95983.008 -15026.953 96036.966 -14989.125 96072.924 -14972.119 96073.535 -14971.875 96073.535 -14971.875 96144.063 -14952.825 96181.896 -14949.046 96183.398 -14949.023 96183.398 -14949.023 96253.729 -14965.496 96287.429 -14987.565 96289.16 -14989.16 96289.16 -14989.16 96319.7 -15046.816 96329.167 -15102.722 96329.883 -15118.359 96329.883 -15118.359 96328.613 -15172.574 96327.832 -15204.785 96327.832 -15204.785 96326.224 -15285.968 96325.797 -15327.044 96325.781 -15332.226 96325.781 -15332.226 96329.704 -15414.829 96337.872 -15474.798 96344.882 -15507.965 96346.289 -15513.281 96346.289 -15513.281 96299.414 -15522.656 96299.414 -15522.656 96254.59 -15508.886 96254.59 -15508.886 96240.82 -15461.718 96240.82 -15461.718 96240.82 -15461.718 96241.624 -15404.728 96243.199 -15338.284 96244.286 -15298.207 96244.336 -15296.484 96244.336 -15296.484 96246.886 -15201.31 96247.756 -15159.065 96247.851 -15150.586 96247.851 -15150.586 96235.053 -15077.306 96220.018 -15049.573 96219.726 -15049.218 96219.726 -15049.218 96162.999 -15018.352 96145.898 -15016.406 96145.898 -15016.406 96080.986 -15030.879 96026.482 -15059.218 95998.203 -15078.8 95997.07 -15079.687 95997.07 -15079.687 95998.258 -15171.297 95998.957 -15240.514 95999.295 -15287.893 95999.404 -15313.986 95999.414 -15319.922 95999.414 -15319.922 96000.691 -15402.927 96003.451 -15466.793 96006.087 -15506.635 96007.031 -15517.968 96007.031 -15517.968 95966.015 -15521.484 95966.015 -15521.484 95914.624 -15489.286 95912.109 -15475.781 95912.109 -15475.781 95913.867 -15427.441 95913.867 -15427.441 95915.728 -15363.506 95916.709 -15313.567 95916.797 -15308.203 95916.797 -15308.203 95917.6 -15236.559 95917.914 -15178.351 95917.968 -15150.974 95917.969 -15150.586 95917.969 -15150.586 95899.054 -15068.604 95858.92 -15029.466 95822.475 -15017.326 95812.5 -15016.406 95812.5 -15016.406 95748.374 -15031.55 95694.191 -15061.201 95665.976 -15081.689 95664.844 -15082.617 95664.844 -15082.617 95666.075 -15177.663 95666.776 -15247.686 95667.095 -15293.696 95667.183 -15316.705 95667.187 -15319.922 95667.187 -15319.922 95668.366 -15402.927 95670.914 -15466.793 95673.347 -15506.635 95674.219 -15517.968 95674.219 -15517.968 95633.789 -15521.484 95633.789 -15521.484 95582.398 -15489.286 95579.883 -15475.781 95579.883 -15475.781 95581.653 -15421.008 95582.812 -15387.597 95582.812 -15387.597 95584.78 -15312.634 95585.581 -15252.789 95585.741 -15222.67 95585.742 -15221.484 95585.742 -15221.484 95583.365 -15119.437 95577.698 -15046.922 95570.934 -15000 95565.267 -14974.734 95562.89 -14967.187 95562.89 -14967.187"/><path d="M 96742.383 -15435.351 96742.383 -15435.351 96780.36 -15391.248 96796.289 -15384.961 96796.289 -15384.961 96837.19 -15434.257 96853.418 -15443.847 96853.418 -15443.847 96919.57 -15461.827 96948.633 -15464.062 96948.633 -15464.062 97016.141 -15449.918 97032.129 -15441.211 97032.129 -15441.211 97062.445 -15386.335 97064.062 -15370.312 97064.062 -15370.312 97036.764 -15318.535 97032.129 -15315.234 97032.129 -15315.234 96972.012 -15290.253 96954.785 -15285.644 96954.785 -15285.644 96888.207 -15268.679 96863.672 -15261.621 96863.672 -15261.621 96805.311 -15228.366 96786.035 -15209.472 96786.035 -15209.472 96758.856 -15148.011 96754.108 -15108.476 96754.101 -15107.812 96754.101 -15107.812 96774.096 -15040.299 96806.945 -15000.982 96815.918 -14993.554 96815.918 -14993.554 96880.862 -14961.826 96934.805 -14950.482 96955.664 -14949.023 96955.664 -14949.023 97024.281 -14959.364 97063.862 -14973.217 97066.113 -14974.218 97066.113 -14974.218 97115.037 -15021.893 97120.312 -15043.945 97120.312 -15043.945 97082.335 -15088.631 97066.406 -15094.336 97066.406 -15094.336 97025.489 -15046.544 97012.207 -15038.086 97012.207 -15038.086 96947.811 -15018.13 96926.953 -15016.406 96926.953 -15016.406 96865.143 -15032.998 96856.054 -15038.671 96856.054 -15038.671 96826.978 -15092.033 96826.172 -15101.367 96826.172 -15101.367 96853.116 -15153.854 96858.105 -15157.617 96858.105 -15157.617 96917.421 -15183.836 96935.449 -15188.964 96935.449 -15188.964 97001.05 -15206.183 97026.562 -15213.574 97026.562 -15213.574 97085.696 -15246.178 97104.199 -15263.379 97104.199 -15263.379 97132.141 -15323.913 97136.133 -15357.421 97136.133 -15357.421 97136.133 -15357.421 97119.711 -15429.821 97089.699 -15473.146 97074.902 -15486.621 97074.902 -15486.621 97010.587 -15517.554 96954.332 -15529.12 96929.322 -15530.859 96929.297 -15530.859 96929.297 -15530.859 96855.126 -15521.951 96808.481 -15507.317 96799.219 -15503.32 96799.219 -15503.32 96747.915 -15455.826 96742.383 -15435.351"/><path d="M 97238.672 -15240.82 97238.672 -15240.82 97247.601 -15161.637 97268.252 -15099.31 97291.413 -15055.635 97307.878 -15032.41 97310.742 -15029.004 97310.742 -15029.004 97368.1 -14984.133 97427.483 -14960.269 97475.526 -14950.779 97498.864 -14949.028 97499.414 -14949.023 97499.414 -14949.023 97575.906 -14960.632 97634.364 -14986.615 97672.649 -15013.704 97688.622 -15028.63 97688.965 -15029.004 97688.965 -15029.004 97726.68 -15087.364 97748.137 -15149.048 97757.921 -15202.319 97760.618 -15235.442 97760.742 -15240.82 97760.742 -15240.82 97751.098 -15323.097 97729.151 -15386.711 97705.381 -15429.738 97690.269 -15450.252 97688.965 -15451.757 97688.965 -15451.757 97631.601 -15496.135 97571.924 -15519.737 97523.519 -15529.123 97499.969 -15530.854 97499.414 -15530.859 97499.414 -15530.859 97423.536 -15519.377 97365.333 -15493.68 97327.088 -15466.889 97311.086 -15452.127 97310.742 -15451.757 97310.742 -15451.757 97272.873 -15393.859 97251.328 -15332.438 97241.504 -15279.286 97238.796 -15246.196 97238.672 -15240.82"/></g><path d="M 97886.719 -14630.859 97886.719 -14630.859 97928.906 -14627.343 97928.906 -14627.343 97981.194 -14658.906 97983.984 -14673.046 97983.984 -14673.046 97982.444 -14729.788 97982.226 -14737.207 97982.226 -14737.207 97980.384 -14801.626 97978.693 -14862.842 97977.844 -14894.07 97977.832 -14894.531 97977.832 -14894.531 97976.264 -14969.037 97975.487 -15033.11 97975.223 -15076.555 97975.195 -15089.648 97975.195 -15276.562 97975.195 -15276.562 97977.795 -15366.159 97983.902 -15434.311 97990.977 -15481.278 97996.479 -15507.322 97998.047 -15513.281 97998.047 -15513.281 97952.929 -15522.656 97952.929 -15522.656 97906.64 -15508.3 97906.64 -15508.3 97893.75 -15460.546 97893.75 -15460.546 97893.75 -15460.546 97894.048 -15410.454 97894.607 -15343.079 97894.921 -15307.948 97894.922 -15307.91 97894.922 -15307.91 97895.638 -15218.697 97895.979 -15157.444 97896.085 -15124.046 97896.094 -15117.187 97896.094 -14977.734 97896.094 -14977.734 97895.524 -14864.648 97894.069 -14778.003 97892.107 -14714.652 97890.019 -14671.453 97888.183 -14645.26 97886.981 -14632.93 97886.719 -14630.859"/><path d="M 98124.023 -15240.82 98124.023 -15240.82 98133.171 -15162.18 98154.325 -15100.036 98178.051 -15056.332 98194.917 -15033.017 98197.851 -15029.589 98197.851 -15029.589 98256.83 -14983.012 98314.599 -14959.094 98358.526 -14950.282 98375.976 -14949.023 98375.976 -14949.023 98375.976 -14949.023 98447.239 -14960.579 98498.929 -14981.179 98515.429 -14990.039 98515.429 -14990.039 98517.292 -14911.438 98517.76 -14869.791 98517.773 -14865.234 98517.773 -14865.234 98516.612 -14776.903 98513.925 -14707.916 98510.913 -14659.92 98508.771 -14634.561 98508.398 -14630.859 98508.398 -14630.859 98551.172 -14627.343 98551.172 -14627.343 98602.563 -14659.542 98605.078 -14673.046 98605.078 -14673.046 98604.579 -14714.367 98603.372 -14777.902 98601.891 -14847.159 98600.57 -14905.643 98599.843 -14936.861 98599.804 -14938.476 98599.804 -14938.476 98597.657 -15035.156 98596.189 -15112.668 98595.273 -15172.009 98594.777 -15214.17 98594.573 -15240.145 98594.531 -15250.928 98594.531 -15251.367 98594.531 -15251.367 98596.692 -15351.081 98601.923 -15423.899 98608.341 -15473.004 98614.066 -15501.58 98617.217 -15512.81 98617.383 -15513.281 98617.383 -15513.281 98571.679 -15522.656 98571.679 -15522.656 98523.879 -15486.539 98518.945 -15462.89 98518.945 -15462.89 98455.874 -15506.532 98400.531 -15525.823 98367.15 -15530.71 98363.086 -15530.859 98361.914 -15530.859 98361.914 -15530.859 98290.488 -15516.148 98235.479 -15484.932 98202.286 -15456.586 98194.922 -15448.828 98194.922 -15448.828 98156.391 -15387.319 98135.187 -15324.268 98126.135 -15272.077 98124.06 -15243.152 98124.023 -15240.82"/></g><path d="M 98742.773 -15243.164 98742.773 -15243.164 98752.683 -15159.219 98775.6 -15095.005 98801.304 -15051.197 98819.575 -15028.467 98822.754 -15025.195 98822.754 -15025.195 98885.838 -14981.158 98946.643 -14958.545 98992.451 -14950.213 99010.547 -14949.023 99010.547 -14949.023 99010.547 -14949.023 99086.018 -14962.395 99132.958 -14986.232 99146.484 -14996.484 99146.484 -14996.484 99187.369 -15056.175 99198.215 -15100.79 99198.633 -15107.812 99198.633 -15107.812 99187.1 -15173.759 99181.933 -15185.742 99181.933 -15185.742 99142.424 -15231.644 99138.281 -15234.668 99138.281 -15234.668 99079.163 -15257.882 99060.351 -15262.207 99060.351 -15262.207 98991.137 -15271.838 98960.156 -15274.218 98960.156 -15274.218 98960.156 -15274.218 98895.004 -15276.03 98841.134 -15276.537 98830.664 -15276.562 98830.664 -15276.562 98848.737 -15351.525 98871.946 -15398.308 98882.519 -15413.379 98882.519 -15413.379 98939.324 -15451.983 98989.027 -15463.361 99000.586 -15464.062 99000.586 -15464.062 99075.977 -15447.248 99116.791 -15416.518 99128.32 -15401.367 99128.32 -15401.367 99174.484 -15444.079 99175.781 -15451.757 99175.781 -15451.757 99140.47 -15499.261 99121.289 -15509.179 99121.289 -15509.179 99053.295 -15526.406 99005.495 -15530.733 98999.414 -15530.859 98999.414 -15530.859 98922.821 -15519.735 98864.575 -15495.263 98827.533 -15470.791 98814.551 -15459.668 98814.551 -15459.668 98814.551 -15459.668 98776.835 -15404.255 98755.379 -15341.338 98745.594 -15284.933 98742.897 -15249.062 98742.773 -15243.164"/></g><path d="M 99324.609 -14961.328 99324.609 -14961.328 99365.625 -14957.812 99365.625 -14957.812 99415.161 -14990.829 99417.187 -15002.929 99417.187 -15002.929 99416.601 -15019.336 99416.601 -15019.336 99416.015 -15045.117 99416.015 -15045.117 99460.172 -14995.229 99480.176 -14978.613 99480.176 -14978.613 99542.418 -14951.062 99559.57 -14949.023 99559.57 -14949.023 99602.929 -14961.621 99602.929 -14961.621 99618.75 -14995.898 99618.75 -14995.898 99596.375 -15047.58 99594.726 -15049.804 99594.726 -15049.804 99540.563 -15027.164 99536.719 -15026.953 99536.719 -15026.953 99478.33 -15047.289 99469.629 -15053.32 99469.629 -15053.32 99425.335 -15103.004 99413.086 -15123.046 99413.086 -15123.046 99412.266 -15180.095 99411.96 -15243.921 99411.914 -15275.357 99411.914 -15275.39 99411.914 -15275.39 99414.514 -15366.042 99420.621 -15434.579 99427.695 -15481.522 99433.198 -15507.392 99434.765 -15513.281 99434.765 -15513.281 99389.062 -15522.656 99389.062 -15522.656 99342.48 -15507.129 99342.48 -15507.129 99342.48 -15507.129 99330.477 -15454.969 99330.469 -15454.101 99330.469 -15454.101 99331.107 -15395.742 99331.64 -15359.472 99331.64 -15359.472 99332.595 -15281.43 99332.809 -15244.447 99332.812 -15241.992 99332.812 -15241.992 99332.111 -15155.649 99330.388 -15083.113 99328.22 -15026.005 99326.178 -14985.945 99324.839 -14964.551 99324.609 -14961.328"/><path d="M 99702.539 -14967.187 99702.539 -14967.187 99749.414 -14957.812 99749.414 -14957.812 99796.877 -14993.929 99800.976 -15017.578 99800.976 -15017.578 99869.11 -14977.945 99929.883 -14957.592 99973.517 -14950.094 99990.234 -14949.023 99990.234 -14949.023 99990.234 -14949.023 100064.16 -14963.698 100114.96 -14992.43 100137.921 -15012.284 100138.769 -15013.183 100138.769 -15013.183 100172.474 -15070.784 100189.783 -15134.948 100196.159 -15187.083 100197.07 -15208.593 100197.07 -15208.593 100197.07 -15208.593 100190.486 -15284.918 100177.875 -15341.069 100169.951 -15365.871 100169.824 -15366.211 100169.824 -15366.211 100134.382 -15429.636 100098.148 -15470.677 100082.812 -15484.277 100082.812 -15484.277 100019.521 -15516.849 99963.649 -15529.028 99938.697 -15530.859 99938.672 -15530.859 99938.672 -15530.859 99867.66 -15518.913 99818.154 -15498.163 99804.492 -15490.429 99804.492 -15490.429 99805.017 -15547.429 99805.078 -15553.418 99805.078 -15553.418 99806.06 -15622.616 99806.25 -15630.761 99806.25 -15630.761 99808.931 -15689.139 99809.179 -15693.75 99809.179 -15693.75 99815.433 -15757.414 99816.504 -15764.062 99816.504 -15764.062 99828.513 -15813.274 99828.515 -15813.281 99828.515 -15813.281 99780.469 -15822.656 99780.469 -15822.656 99733.887 -15807.129 99733.887 -15807.129 99733.887 -15807.129 99721.884 -15754.969 99721.875 -15754.101 99721.875 -15754.101 99722.025 -15686.404 99722.394 -15615.866 99722.859 -15550.525 99723.296 -15498.417 99723.583 -15467.58 99723.633 -15462.597 99723.633 -15462.597 99724.524 -15366.723 99725.047 -15296.643 99725.301 -15250.322 99725.383 -15225.727 99725.39 -15220.312 99725.39 -15220.312 99723.014 -15121.312 99717.347 -15049.453 99710.583 -15001.781 99704.915 -14975.343 99702.539 -14967.187 99702.539 -14967.187"/></g><path d="M 100304.297 -15362.109 100304.297 -15362.109 100319.513 -15292.539 100333.008 -15272.168 100333.008 -15272.168 100388.064 -15237.387 100412.109 -15228.515 100412.109 -15228.515 100476.656 -15214.876 100543.252 -15205.344 100599.992 -15199.433 100634.973 -15196.656 100640.625 -15196.289 100640.625 -15196.289 100633.526 -15111.356 100620.872 -15066.54 100615.43 -15055.371 100615.43 -15055.371 100562.442 -15023.622 100512.645 -15016.513 100508.203 -15016.406 100508.203 -15016.406 100448.006 -15032.901 100438.769 -15037.793 100438.769 -15037.793 100393.27 -15084.389 100384.57 -15100.195 100384.57 -15100.195 100332.062 -15063.721 100329.492 -15052.148 100329.492 -15052.148 100359.215 -14996.304 100387.207 -14977.148 100387.207 -14977.148 100454.239 -14956.056 100507.797 -14949.517 100521.68 -14949.023 100521.68 -14949.023 100603.99 -14959.36 100653.843 -14979.157 100672.62 -14991.597 100672.851 -14991.796 100672.851 -14991.796 100705.114 -15045.713 100718.262 -15106.748 100720.882 -15143.168 100720.898 -15144.726 100720.898 -15144.726 100719.965 -15202.641 100719.726 -15215.332 100719.726 -15215.332 100718.661 -15288.494 100718.555 -15307.031 100718.555 -15307.031 100722.125 -15397.595 100729.98 -15462.011 100737.836 -15500.5 100741.406 -15513.281 100741.406 -15513.281 100741.406 -15513.281 100694.531 -15522.656 100694.531 -15522.656 100657.324 -15510.058 100657.324 -15510.058 100642.969 -15469.921 100642.969 -15469.921 100576.993 -15509.957 100522.059 -15526.959 100491.742 -15530.798 100489.453 -15530.859 100489.453 -15530.859 100406.599 -15516.425 100353.094 -15480.995 100322.52 -15436.381 100308.46 -15394.39 100304.498 -15366.834 100304.297 -15362.109"/></g><path d="M 100855.078 -15435.351 100855.078 -15435.351 100893.056 -15391.248 100908.984 -15384.961 100908.984 -15384.961 100949.885 -15434.257 100966.113 -15443.847 100966.113 -15443.847 101032.265 -15461.827 101061.328 -15464.062 101061.328 -15464.062 101128.836 -15449.918 101144.824 -15441.211 101144.824 -15441.211 101175.14 -15386.335 101176.758 -15370.312 101176.758 -15370.312 101149.459 -15318.535 101144.824 -15315.234 101144.824 -15315.234 101084.708 -15290.253 101067.48 -15285.644 101067.48 -15285.644 101000.902 -15268.679 100976.367 -15261.621 100976.367 -15261.621 100918.007 -15228.366 100898.73 -15209.472 100898.73 -15209.472 100871.551 -15148.011 100866.804 -15108.477 100866.797 -15107.812 100866.797 -15107.812 100886.792 -15040.299 100919.64 -15000.982 100928.613 -14993.554 100928.613 -14993.554 100993.558 -14961.826 101047.501 -14950.482 101068.359 -14949.023 101068.359 -14949.023 101136.976 -14959.364 101176.557 -14973.217 101178.808 -14974.218 101178.808 -14974.218 101227.732 -15021.893 101233.008 -15043.945 101233.008 -15043.945 101195.03 -15088.631 101179.101 -15094.336 101179.101 -15094.336 101138.184 -15046.544 101124.902 -15038.086 101124.902 -15038.086 101060.506 -15018.13 101039.648 -15016.406 101039.648 -15016.406 100977.839 -15032.998 100968.75 -15038.671 100968.75 -15038.671 100939.674 -15092.033 100938.867 -15101.367 100938.867 -15101.367 100965.811 -15153.854 100970.801 -15157.617 100970.801 -15157.617 101030.116 -15183.836 101048.144 -15188.964 101048.144 -15188.964 101113.746 -15206.183 101139.258 -15213.574 101139.258 -15213.574 101198.391 -15246.178 101216.894 -15263.379 101216.894 -15263.379 101244.836 -15323.913 101248.828 -15357.421 101248.828 -15357.421 101248.828 -15357.421 101232.406 -15429.821 101202.395 -15473.146 101187.597 -15486.621 101187.597 -15486.621 101123.282 -15517.554 101067.027 -15529.12 101042.017 -15530.859 101041.992 -15530.859 101041.992 -15530.859 100967.822 -15521.951 100921.176 -15507.317 100911.914 -15503.32 100911.914 -15503.32 100860.61 -15455.826 100855.078 -15435.351"/><path d="M 101297.461 -15004.101 101297.461 -15004.101 101315.332 -14968.945 101315.332 -14968.945 101372.339 -14961.38 101376.562 -14961.328 101410.547 -14961.328 101410.547 -14961.328 101407.056 -14882.56 101403.727 -14835.581 101402.929 -14826.562 101402.929 -14826.562 101442.773 -14823.046 101442.773 -14823.046 101497.044 -14853.967 101500.195 -14868.75 101500.195 -14868.75 101497.571 -14927.062 101495.508 -14962.5 101495.508 -14962.5 101591.272 -14961.493 101653.418 -14959.277 101686.999 -14957.061 101697.07 -14956.054 101697.07 -14956.054 101697.07 -14956.054 101701.758 -14984.179 101701.758 -14984.179 101689.16 -15016.406 101689.16 -15016.406 101649.023 -15025.781 101649.023 -15025.781 101591.078 -15026.6 101525.576 -15026.907 101493.198 -15026.953 101493.164 -15026.953 101493.164 -15026.953 101492.066 -15101.15 101491.379 -15171.827 101491.006 -15232.547 101490.853 -15276.871 101490.82 -15298.361 101490.82 -15299.414 101490.82 -15299.414 101497.746 -15385.114 101509.774 -15426.574 101514.258 -15435.058 101514.258 -15435.058 101569.325 -15465.168 101591.601 -15467.578 101591.601 -15467.578 101656.238 -15447.781 101677.734 -15431.25 101677.734 -15431.25 101699.414 -15474.609 101699.414 -15474.609 101668.681 -15515.165 101668.359 -15515.332 101668.359 -15515.332 101606.651 -15530.193 101592.773 -15530.859 101592.773 -15530.859 101514.501 -15516.982 101468.709 -15490.405 101452.055 -15473.705 101451.855 -15473.437 101451.855 -15473.437 101425.965 -15415.591 101414.065 -15353.544 101410.716 -15309.832 101410.547 -15301.757 101410.547 -15301.757 101411.645 -15194.359 101412.332 -15117.23 101412.704 -15066.249 101412.858 -15037.291 101412.89 -15026.233 101412.89 -15025.781 101412.89 -15025.781 101363.863 -15029.518 101304.015 -15034.324 101300.976 -15034.57 101300.976 -15034.57 101297.461 -15004.101"/><path d="M 101773.242 -15243.164 101773.242 -15243.164 101783.152 -15159.219 101806.069 -15095.005 101831.772 -15051.197 101850.044 -15028.467 101853.222 -15025.195 101853.222 -15025.195 101916.307 -14981.158 101977.112 -14958.545 102022.92 -14950.213 102041.015 -14949.023 102041.015 -14949.023 102041.015 -14949.023 102116.487 -14962.395 102163.427 -14986.232 102176.953 -14996.484 102176.953 -14996.484 102217.837 -15056.175 102228.684 -15100.79 102229.101 -15107.812 102229.101 -15107.812 102217.569 -15173.759 102212.402 -15185.742 102212.402 -15185.742 102172.893 -15231.644 102168.75 -15234.668 102168.75 -15234.668 102109.632 -15257.882 102090.82 -15262.207 102090.82 -15262.207 102021.606 -15271.838 101990.625 -15274.218 101990.625 -15274.218 101990.625 -15274.218 101925.472 -15276.03 101871.603 -15276.537 101861.133 -15276.562 101861.133 -15276.562 101879.205 -15351.525 101902.415 -15398.308 101912.988 -15413.379 101912.988 -15413.379 101969.793 -15451.983 102019.496 -15463.361 102031.054 -15464.062 102031.054 -15464.062 102106.445 -15447.248 102147.259 -15416.518 102158.789 -15401.367 102158.789 -15401.367 102204.952 -15444.079 102206.25 -15451.757 102206.25 -15451.757 102170.939 -15499.261 102151.758 -15509.179 102151.758 -15509.179 102083.764 -15526.406 102035.964 -15530.733 102029.883 -15530.859 102029.883 -15530.859 101953.29 -15519.735 101895.044 -15495.263 101858.002 -15470.791 101845.019 -15459.668 101845.019 -15459.668 101845.019 -15459.668 101807.304 -15404.255 101785.847 -15341.338 101776.063 -15284.933 101773.366 -15249.062 101773.242 -15243.164"/></g></g></svg>