<svg version="1.1" xmlns="http://www.w3.org/2000/svg" xmlns:xlink="http://www.w3.org/1999/xlink" stroke-linecap="round" stroke-linejoin="round" stroke-width="0" fill-rule="evenodd" width="95.620313mm" height="37.777mm" viewBox="6525 -38475 95620.313 37777"><defs><mask id="g69XWly7p2Yx_clear-1" fill="#000" stroke="#000"><g><rect x="6525" y="-38475" width="86816.016" height="37777" fill="#fff"/><path d="M 92943.75 -11197.266 92943.75 -11197.266 93008.682 -11238.198 93065.166 -11255.78 93097.16 -11259.883 93099.61 -11259.961 93099.61 -11259.961 93167.966 -11240.481 93207.124 -11205.755 93217.676 -11190.82 93217.676 -11190.82 93243.276 -11124.892 93254.147 -11064.595 93256.602 -11029.485 93256.641 -11026.758 93256.641 -11026.758 93247.339 -10944.408 93228.734 -10891.294 93214.78 -10867.226 93213.574 -10865.625 93213.574 -10865.625 93155.519 -10823.256 93111.283 -10812.616 93105.469 -10812.305 93103.711 -10812.305 93103.711 -10812.305 93034.372 -10825.184 92980.072 -10851.474 92949.645 -10872.656 92946.094 -10875.586 92946.094 -10875.586 92946.515 -10934.427 92946.68 -10952.637 92946.68 -10952.637 92947.193 -11026.575 92947.266 -11053.711 92947.266 -11053.711 92947.266 -11053.711 92946.275 -11136.787 92944.51 -11184.42 92943.75 -11197.266"/></g></mask><mask id="g69XWly7p2Yx_clear-2" fill="#000" stroke="#000"><g><rect x="6525" y="-38475" width="87438.281" height="37777" fill="#fff"/><path d="M 93525.586 -11019.727 93525.586 -11019.727 93534.497 -11097.475 93553.049 -11154.485 93568.972 -11186.281 93572.168 -11191.406 93572.168 -11191.406 93625.942 -11239.342 93677.808 -11257.267 93701.929 -11259.961 93701.953 -11259.961 93701.953 -11259.961 93775.939 -11244.113 93820.23 -11215.861 93832.617 -11203.711 93832.617 -11203.711 93864.753 -11142.492 93877.305 -11084.038 93879.489 -11054.153 93879.492 -11053.711 93879.492 -11053.711 93870.301 -10975.851 93851.166 -10918.608 93834.742 -10886.611 93831.446 -10881.445 93831.446 -10881.445 93777.095 -10833.1 93725.685 -10815.022 93701.978 -10812.305 93701.953 -10812.305 93701.953 -10812.305 93628.133 -10828.318 93584.136 -10856.864 93571.875 -10869.141 93571.875 -10869.141 93540.141 -10930.762 93527.746 -10989.373 93525.589 -11019.285 93525.586 -11019.727"/></g></mask><mask id="g69XWly7p2Yx_clear-3" fill="#000" stroke="#000"><g><rect x="6525" y="-38475" width="88911.914" height="37777" fill="#fff"/><path d="M 94999.219 -11019.727 94999.219 -11019.727 95008.13 -11097.475 95026.682 -11154.485 95042.605 -11186.281 95045.801 -11191.406 95045.801 -11191.406 95099.575 -11239.342 95151.441 -11257.267 95175.561 -11259.961 95175.586 -11259.961 95175.586 -11259.961 95249.572 -11244.113 95293.863 -11215.861 95306.25 -11203.711 95306.25 -11203.711 95338.386 -11142.492 95350.938 -11084.038 95353.122 -11054.153 95353.125 -11053.711 95353.125 -11053.711 95343.934 -10975.851 95324.798 -10918.608 95308.375 -10886.611 95305.078 -10881.445 95305.078 -10881.445 95250.728 -10833.1 95199.318 -10815.022 95175.611 -10812.305 95175.586 -10812.305 95175.586 -10812.305 95101.766 -10828.318 95057.769 -10856.864 95045.508 -10869.141 95045.508 -10869.141 95013.774 -10930.762 95001.379 -10989.373 94999.222 -11019.285 94999.219 -11019.727"/></g></mask><mask id="g69XWly7p2Yx_clear-4" fill="#000" stroke="#000"><g><rect x="6525" y="-38475" width="91235.742" height="37777" fill="#fff"/><path d="M 97323.047 -11019.727 97323.047 -11019.727 97331.958 -11097.475 97350.51 -11154.485 97366.433 -11186.281 97369.629 -11191.406 97369.629 -11191.406 97423.403 -11239.342 97475.269 -11257.267 97499.389 -11259.961 97499.414 -11259.961 97499.414 -11259.961 97573.4 -11244.113 97617.691 -11215.861 97630.078 -11203.711 97630.078 -11203.711 97662.214 -11142.492 97674.766 -11084.038 97676.95 -11054.153 97676.953 -11053.711 97676.953 -11053.711 97667.762 -10975.851 97648.626 -10918.608 97632.203 -10886.611 97628.907 -10881.445 97628.907 -10881.445 97574.556 -10833.1 97523.146 -10815.022 97499.439 -10812.305 97499.414 -10812.305 97499.414 -10812.305 97425.594 -10828.318 97381.597 -10856.864 97369.336 -10869.141 97369.336 -10869.141 97337.602 -10930.762 97325.207 -10989.373 97323.05 -11019.285 97323.047 -11019.727"/></g></mask><mask id="g69XWly7p2Yx_clear-5" fill="#000" stroke="#000"><g><rect x="6525" y="-38475" width="92092.383" height="37777" fill="#fff"/><path d="M 98208.399 -11019.727 98208.399 -11019.727 98218.038 -11099.678 98238.107 -11157.701 98255.332 -11189.782 98258.789 -11194.922 98258.789 -11194.922 98315.482 -11244.65 98363.863 -11261.626 98380.664 -11263.477 98380.664 -11263.477 98446.514 -11246.007 98495.515 -11213.308 98515.411 -11194.942 98515.43 -11194.922 98515.43 -11194.922 98514.526 -11073.073 98513.89 -10983.304 98513.476 -10920.833 98513.236 -10880.878 98513.123 -10858.658 98513.089 -10849.391 98513.086 -10848.047 98513.086 -10848.047 98443.535 -10820.418 98397.539 -10812.685 98389.453 -10812.305 98389.453 -10812.305 98316.71 -10827.548 98271.53 -10855.406 98257.032 -10869.141 98257.032 -10869.141 98223.69 -10930.762 98210.668 -10989.373 98208.402 -11019.285 98208.399 -11019.727"/></g></mask><mask id="g69XWly7p2Yx_clear-6" fill="#000" stroke="#000"><g><rect x="6525" y="-38475" width="92673.633" height="37777" fill="#fff"/><path d="M 98829.492 -11012.695 98829.492 -11012.695 98899.752 -11011.953 98915.625 -11011.524 98915.625 -11011.524 98978.584 -11005.895 98991.211 -11004.199 98991.211 -11004.199 99052.284 -10989.272 99057.422 -10987.207 99057.422 -10987.207 99098.684 -10956.206 99098.731 -10956.153 99098.731 -10956.153 99116.01 -10906.481 99116.016 -10906.055 99116.016 -10906.055 99092.861 -10848.321 99084.375 -10839.258 99084.375 -10839.258 99025.218 -10813.071 99005.86 -10811.133 99005.86 -10811.133 98936.038 -10826.361 98892.626 -10852.1 98882.813 -10860.352 98882.813 -10860.352 98848.046 -10916.988 98833.048 -10976.638 98829.543 -11011.233 98829.492 -11012.695"/></g></mask><mask id="g69XWly7p2Yx_clear-7" fill="#000" stroke="#000"><g><rect x="6525" y="-38475" width="94524.024" height="37777" fill="#fff"/><path d="M 100696.289 -11158.008 100696.289 -11158.008 100715.056 -11223.208 100727.344 -11237.695 100727.344 -11237.695 100787.546 -11261.827 100806.446 -11263.477 100806.446 -11263.477 100879.561 -11249.02 100927.879 -11222.598 100944.141 -11209.57 100944.141 -11209.57 100942.971 -11154.664 100942.969 -11153.32 100942.969 -11153.32 100945.297 -11083.941 100947.071 -11053.711 100947.071 -11053.711 100895.006 -11059.559 100894.922 -11059.57 100894.922 -11059.57 100847.754 -11065.43 100847.754 -11065.43 100803.809 -11072.461 100803.809 -11072.461 100768.653 -11082.129 100768.653 -11082.129 100737.598 -11095.606 100737.598 -11095.606 100715.918 -11111.719 100715.918 -11111.719 100700.391 -11131.934 100700.391 -11131.934 100696.289 -11158.008"/></g></mask></defs><g transform="translate(0,-39173) scale(1,-1)" fill="currentColor" stroke="currentColor"><g mask="url(#g69XWly7p2Yx_clear-7)"><g mask="url(#g69XWly7p2Yx_clear-6)"><g mask="url(#g69XWly7p2Yx_clear-5)"><g mask="url(#g69XWly7p2Yx_clear-4)"><g mask="url(#g69XWly7p2Yx_clear-3)"><g mask="url(#g69XWly7p2Yx_clear-2)"><g mask="url(#g69XWly7p2Yx_clear-1)"><path d="M 42460 -2902 42460 -2902 42524.107 -2899.926 42587.106 -2893.79 42648.869 -2883.72 42709.269 -2869.845 42768.175 -2852.294 42825.461 -2831.194 42880.997 -2806.674 42934.655 -2778.863 42986.306 -2747.89 43035.822 -2713.882 43083.075 -2676.968 43127.936 -2637.276 43170.276 -2594.936 43209.968 -2550.075 43246.882 -2502.822 43280.89 -2453.306 43311.863 -2401.655 43339.674 -2347.997 43364.194 -2292.461 43385.294 -2235.175 43402.845 -2176.269 43416.72 -2115.869 43426.79 -2054.106 43432.926 -1991.107 43435 -1927 43435 -1927 43435 -1927 43432.926 -1862.893 43426.79 -1799.894 43416.72 -1738.131 43402.845 -1677.731 43385.294 -1618.825 43364.194 -1561.539 43339.674 -1506.003 43311.863 -1452.345 43280.89 -1400.694 43246.882 -1351.178 43209.968 -1303.925 43170.276 -1259.064 43127.936 -1216.724 43083.075 -1177.032 43035.822 -1140.118 42986.306 -1106.11 42934.655 -1075.137 42880.997 -1047.326 42825.461 -1022.806 42768.175 -1001.706 42709.269 -984.155 42648.869 -970.28 42587.106 -960.21 42524.107 -954.074 42460 -952 42460 -952 42460 -952 42395.893 -954.074 42332.894 -960.21 42271.131 -970.28 42210.731 -984.155 42151.825 -1001.706 42094.539 -1022.806 42039.003 -1047.326 41985.345 -1075.137 41933.694 -1106.11 41884.178 -1140.118 41836.925 -1177.032 41792.064 -1216.724 41749.724 -1259.064 41710.032 -1303.925 41673.118 -1351.178 41639.11 -1400.694 41608.137 -1452.345 41580.326 -1506.003 41555.806 -1561.539 41534.706 -1618.825 41517.155 -1677.731 41503.28 -1738.131 41493.21 -1799.894 41487.074 -1862.893 41485 -1927 41485 -1927 41485 -1927 41487.074 -1991.107 41493.21 -2054.106 41503.28 -2115.869 41517.155 -2176.269 41534.706 -2235.175 41555.806 -2292.461 41580.326 -2347.997 41608.137 -2401.655 41639.11 -2453.306 41673.118 -2502.822 41710.032 -2550.075 41749.724 -2594.936 41792.064 -2637.276 41836.925 -2676.968 41884.178 -2713.882 41933.694 -2747.89 41985.345 -2778.863 42039.003 -2806.674 42094.539 -2831.194 42151.825 -2852.294 42210.731 -2869.845 42271.131 -2883.72 42332.894 -2893.79 42395.893 -2899.926 42460 -2902 42460 -2902"/><path d="M 47540 -2902 47540 -2902 47604.107 -2899.926 47667.106 -2893.79 47728.869 -2883.72 47789.269 -2869.845 47848.175 -2852.294 47905.461 -2831.194 47960.997 -2806.674 48014.655 -2778.863 48066.306 -2747.89 48115.822 -2713.882 48163.075 -2676.968 48207.936 -2637.276 48250.276 -2594.936 48289.968 -2550.075 48326.882 -2502.822 48360.89 -2453.306 48391.863 -2401.655 48419.674 -2347.997 48444.194 -2292.461 48465.294 -2235.175 48482.845 -2176.269 48496.72 -2115.869 48506.79 -2054.106 48512.926 -1991.107 48515 -1927 48515 -1927 48515 -1927 48512.926 -1862.893 48506.79 -1799.894 48496.72 -1738.131 48482.845 -1677.731 48465.294 -1618.825 48444.194 -1561.539 48419.674 -1506.003 48391.863 -1452.345 48360.89 -1400.694 48326.882 -1351.178 48289.968 -1303.925 48250.276 -1259.064 48207.936 -1216.724 48163.075 -1177.032 48115.822 -1140.118 48066.306 -1106.11 48014.655 -1075.137 47960.997 -1047.326 47905.461 -1022.806 47848.175 -1001.706 47789.269 -984.155 47728.869 -970.28 47667.106 -960.21 47604.107 -954.074 47540 -952 47540 -952 47540 -952 47475.893 -954.074 47412.894 -960.21 47351.131 -970.28 47290.731 -984.155 47231.825 -1001.706 47174.539 -1022.806 47119.003 -1047.326 47065.345 -1075.137 47013.694 -1106.11 46964.178 -1140.118 46916.925 -1177.032 46872.064 -1216.724 46829.724 -1259.064 46790.032 -1303.925 46753.118 -1351.178 46719.11 -1400.694 46688.137 -1452.345 46660.326 -1506.003 46635.806 -1561.539 46614.706 -1618.825 46597.155 -1677.731 46583.28 -1738.131 46573.21 -1799.894 46567.074 -1862.893 46565 -1927 46565 -1927 46565 -1927 46567.074 -1991.107 46573.21 -2054.106 46583.28 -2115.869 46597.155 -2176.269 46614.706 -2235.175 46635.806 -2292.461 46660.326 -2347.997 46688.137 -2401.655 46719.11 -2453.306 46753.118 -2502.822 46790.032 -2550.075 46829.724 -2594.936 46872.064 -2637.276 46916.925 -2676.968 46964.178 -2713.882 47013.694 -2747.89 47065.345 -2778.863 47119.003 -2806.674 47174.539 -2831.194 47231.825 -2852.294 47290.731 -2869.845 47351.131 -2883.72 47412.894 -2893.79 47475.893 -2899.926 47540 -2902 47540 -2902"/><path d="M 45000 -2648 45000 -2648 45064.107 -2645.926 45127.106 -2639.79 45188.869 -2629.72 45249.269 -2615.845 45308.175 -2598.294 45365.461 -2577.194 45420.997 -2552.674 45474.655 -2524.863 45526.306 -2493.89 45575.822 -2459.882 45623.075 -2422.968 45667.936 -2383.276 45710.276 -2340.936 45749.968 -2296.075 45786.882 -2248.822 45820.89 -2199.306 45851.863 -2147.655 45879.674 -2093.997 45904.194 -2038.461 45925.294 -1981.175 45942.845 -1922.269 45956.72 -1861.869 45966.79 -1800.106 45972.926 -1737.107 45975 -1673 45975 -1673 45975 -1673 45972.926 -1608.893 45966.79 -1545.894 45956.72 -1484.131 45942.845 -1423.731 45925.294 -1364.825 45904.194 -1307.539 45879.674 -1252.003 45851.863 -1198.345 45820.89 -1146.694 45786.882 -1097.178 45749.968 -1049.925 45710.276 -1005.064 45667.936 -962.724 45623.075 -923.032 45575.822 -886.118 45526.306 -852.11 45474.655 -821.137 45420.997 -793.326 45365.461 -768.806 45308.175 -747.706 45249.269 -730.155 45188.869 -716.28 45127.106 -706.21 45064.107 -700.074 45000 -698 45000 -698 45000 -698 44935.893 -700.074 44872.894 -706.21 44811.131 -716.28 44750.731 -730.155 44691.825 -747.706 44634.539 -768.806 44579.003 -793.326 44525.345 -821.137 44473.694 -852.11 44424.178 -886.118 44376.925 -923.032 44332.064 -962.724 44289.724 -1005.064 44250.032 -1049.925 44213.118 -1097.178 44179.11 -1146.694 44148.137 -1198.345 44120.326 -1252.003 44095.806 -1307.539 44074.706 -1364.825 44057.155 -1423.731 44043.28 -1484.131 44033.21 -1545.894 44027.074 -1608.893 44025 -1673 44025 -1673 44025 -1673 44027.074 -1737.107 44033.21 -1800.106 44043.28 -1861.869 44057.155 -1922.269 44074.706 -1981.175 44095.806 -2038.461 44120.326 -2093.997 44148.137 -2147.655 44179.11 -2199.306 44213.118 -2248.822 44250.032 -2296.075 44289.724 -2340.936 44332.064 -2383.276 44376.925 -2422.968 44424.178 -2459.882 44473.694 -2493.89 44525.345 -2524.863 44579.003 -2552.674 44634.539 -2577.194 44691.825 -2598.294 44750.731 -2615.845 44811.131 -2629.72 44872.894 -2639.79 44935.893 -2645.926 45000 -2648 45000 -2648"/><path d="M 7500 -31245 7500 -31245 7435.893 -31242.926 7372.894 -31236.79 7311.131 -31226.72 7250.731 -31212.845 7191.825 -31195.294 7134.539 -31174.194 7079.003 -31149.674 7025.345 -31121.863 6973.694 -31090.89 6924.178 -31056.882 6876.925 -31019.968 6832.064 -30980.276 6789.724 -30937.936 6750.032 -30893.075 6713.118 -30845.822 6679.11 -30796.306 6648.137 -30744.655 6620.326 -30690.997 6595.806 -30635.461 6574.706 -30578.175 6557.155 -30519.269 6543.28 -30458.869 6533.21 -30397.106 6527.074 -30334.107 6525 -30270 6525 -30270 6525 -30270 6527.074 -30205.893 6533.21 -30142.894 6543.28 -30081.131 6557.155 -30020.731 6574.706 -29961.825 6595.806 -29904.539 6620.326 -29849.003 6648.137 -29795.345 6679.11 -29743.694 6713.118 -29694.178 6750.032 -29646.925 6789.724 -29602.064 6832.064 -29559.724 6876.925 -29520.032 6924.178 -29483.118 6973.694 -29449.11 7025.345 -29418.137 7079.003 -29390.326 7134.539 -29365.806 7191.825 -29344.706 7250.731 -29327.155 7311.131 -29313.28 7372.894 -29303.21 7435.893 -29297.074 7500 -29295 7500 -29295 7500 -29295 7564.107 -29297.074 7627.106 -29303.21 7688.869 -29313.28 7749.269 -29327.155 7808.175 -29344.706 7865.461 -29365.806 7920.997 -29390.326 7974.655 -29418.137 8026.306 -29449.11 8075.822 -29483.118 8123.075 -29520.032 8167.936 -29559.724 8210.276 -29602.064 8249.968 -29646.925 8286.882 -29694.178 8320.89 -29743.694 8351.863 -29795.345 8379.674 -29849.003 8404.194 -29904.539 8425.294 -29961.825 8442.845 -30020.731 8456.72 -30081.131 8466.79 -30142.894 8472.926 -30205.893 8475 -30270 8475 -30270 8475 -30270 8472.926 -30334.107 8466.79 -30397.106 8456.72 -30458.869 8442.845 -30519.269 8425.294 -30578.175 8404.194 -30635.461 8379.674 -30690.997 8351.863 -30744.655 8320.89 -30796.306 8286.882 -30845.822 8249.968 -30893.075 8210.276 -30937.936 8167.936 -30980.276 8123.075 -31019.968 8075.822 -31056.882 8026.306 -31090.89 7974.655 -31121.863 7920.997 -31149.674 7865.461 -31174.194 7808.175 -31195.294 7749.269 -31212.845 7688.869 -31226.72 7627.106 -31236.79 7564.107 -31242.926 7500 -31245 7500 -31245"/><path d="M 7500 -28705 7500 -28705 7435.893 -28702.926 7372.894 -28696.79 7311.131 -28686.72 7250.731 -28672.845 7191.825 -28655.294 7134.539 -28634.194 7079.003 -28609.674 7025.345 -28581.863 6973.694 -28550.89 6924.178 -28516.882 6876.925 -28479.968 6832.064 -28440.276 6789.724 -28397.936 6750.032 -28353.075 6713.118 -28305.822 6679.11 -28256.306 6648.137 -28204.655 6620.326 -28150.997 6595.806 -28095.461 6574.706 -28038.175 6557.155 -27979.269 6543.28 -27918.869 6533.21 -27857.106 6527.074 -27794.107 6525 -27730 6525 -27730 6525 -27730 6527.074 -27665.893 6533.21 -27602.894 6543.28 -27541.131 6557.155 -27480.731 6574.706 -27421.825 6595.806 -27364.539 6620.326 -27309.003 6648.137 -27255.345 6679.11 -27203.694 6713.118 -27154.178 6750.032 -27106.925 6789.724 -27062.064 6832.064 -27019.724 6876.925 -26980.032 6924.178 -26943.118 6973.694 -26909.11 7025.345 -26878.137 7079.003 -26850.326 7134.539 -26825.806 7191.825 -26804.706 7250.731 -26787.155 7311.131 -26773.28 7372.894 -26763.21 7435.893 -26757.074 7500 -26755 7500 -26755 7500 -26755 7564.107 -26757.074 7627.106 -26763.21 7688.869 -26773.28 7749.269 -26787.155 7808.175 -26804.706 7865.461 -26825.806 7920.997 -26850.326 7974.655 -26878.137 8026.306 -26909.11 8075.822 -26943.118 8123.075 -26980.032 8167.936 -27019.724 8210.276 -27062.064 8249.968 -27106.925 8286.882 -27154.178 8320.89 -27203.694 8351.863 -27255.345 8379.674 -27309.003 8404.194 -27364.539 8425.294 -27421.825 8442.845 -27480.731 8456.72 -27541.131 8466.79 -27602.894 8472.926 -27665.893 8475 -27730 8475 -27730 8475 -27730 8472.926 -27794.107 8466.79 -27857.106 8456.72 -27918.869 8442.845 -27979.269 8425.294 -28038.175 8404.194 -28095.461 8379.674 -28150.997 8351.863 -28204.655 8320.89 -28256.306 8286.882 -28305.822 8249.968 -28353.075 8210.276 -28397.936 8167.936 -28440.276 8123.075 -28479.968 8075.822 -28516.882 8026.306 -28550.89 7974.655 -28581.863 7920.997 -28609.674 7865.461 -28634.194 7808.175 -28655.294 7749.269 -28672.845 7688.869 -28686.72 7627.106 -28696.79 7564.107 -28702.926 7500 -28705 7500 -28705"/><path d="M 80750 -36375 80750 -36375 80817.394 -36372.82 80883.624 -36366.369 80948.555 -36355.783 81012.052 -36341.197 81073.979 -36322.745 81134.203 -36300.563 81192.587 -36274.786 81248.996 -36245.549 81303.296 -36212.987 81355.352 -36177.234 81405.028 -36138.427 81452.189 -36096.701 81496.701 -36052.189 81538.427 -36005.028 81577.234 -35955.352 81612.987 -35903.296 81645.549 -35848.996 81674.786 -35792.586 81700.563 -35734.203 81722.745 -35673.979 81741.197 -35612.052 81755.783 -35548.555 81766.369 -35483.624 81772.82 -35417.394 81775 -35350 81775 -35350 81775 -35350 81772.82 -35282.606 81766.369 -35216.376 81755.783 -35151.445 81741.197 -35087.948 81722.745 -35026.021 81700.563 -34965.797 81674.786 -34907.413 81645.549 -34851.004 81612.987 -34796.704 81577.234 -34744.648 81538.427 -34694.972 81496.701 -34647.811 81452.189 -34603.299 81405.028 -34561.573 81355.352 -34522.766 81303.296 -34487.013 81248.996 -34454.451 81192.587 -34425.214 81134.203 -34399.437 81073.979 -34377.255 81012.052 -34358.803 80948.555 -34344.217 80883.624 -34333.631 80817.394 -34327.18 80750 -34325 80750 -34325 80750 -34325 80682.606 -34327.18 80616.376 -34333.631 80551.445 -34344.217 80487.948 -34358.803 80426.021 -34377.255 80365.797 -34399.437 80307.413 -34425.214 80251.004 -34454.451 80196.704 -34487.013 80144.648 -34522.766 80094.972 -34561.573 80047.811 -34603.299 80003.299 -34647.811 79961.573 -34694.972 79922.766 -34744.648 79887.013 -34796.704 79854.451 -34851.004 79825.214 -34907.413 79799.437 -34965.797 79777.255 -35026.021 79758.803 -35087.948 79744.217 -35151.445 79733.631 -35216.376 79727.18 -35282.606 79725 -35350 79725 -35350 79725 -35350 79727.18 -35417.394 79733.631 -35483.624 79744.217 -35548.555 79758.803 -35612.052 79777.255 -35673.979 79799.437 -35734.203 79825.214 -35792.586 79854.451 -35848.996 79887.013 -35903.296 79922.766 -35955.352 79961.573 -36005.028 80003.299 -36052.189 80047.811 -36096.701 80094.972 -36138.427 80144.648 -36177.234 80196.704 -36212.987 80251.004 -36245.549 80307.413 -36274.786 80365.797 -36300.563 80426.021 -36322.745 80487.948 -36341.197 80551.445 -36355.783 80616.376 -36366.369 80682.606 -36372.82 80750 -36375 80750 -36375"/><path d="M 85750 -38475 85750 -38475 85817.394 -38472.82 85883.624 -38466.369 85948.555 -38455.783 86012.052 -38441.197 86073.979 -38422.745 86134.203 -38400.563 86192.587 -38374.786 86248.996 -38345.549 86303.296 -38312.987 86355.352 -38277.234 86405.028 -38238.427 86452.189 -38196.701 86496.701 -38152.189 86538.427 -38105.028 86577.234 -38055.352 86612.987 -38003.296 86645.549 -37948.996 86674.786 -37892.587 86700.563 -37834.203 86722.745 -37773.979 86741.197 -37712.052 86755.783 -37648.555 86766.369 -37583.624 86772.82 -37517.394 86775 -37450 86775 -37450 86775 -37450 86772.82 -37382.606 86766.369 -37316.376 86755.783 -37251.445 86741.197 -37187.948 86722.745 -37126.021 86700.563 -37065.797 86674.786 -37007.413 86645.549 -36951.004 86612.987 -36896.704 86577.234 -36844.648 86538.427 -36794.972 86496.701 -36747.811 86452.189 -36703.299 86405.028 -36661.573 86355.352 -36622.766 86303.296 -36587.013 86248.996 -36554.451 86192.587 -36525.214 86134.203 -36499.437 86073.979 -36477.255 86012.052 -36458.803 85948.555 -36444.217 85883.624 -36433.631 85817.394 -36427.18 85750 -36425 85750 -36425 85750 -36425 85682.606 -36427.18 85616.376 -36433.631 85551.445 -36444.217 85487.948 -36458.803 85426.021 -36477.255 85365.797 -36499.437 85307.413 -36525.214 85251.004 -36554.451 85196.704 -36587.013 85144.648 -36622.766 85094.972 -36661.573 85047.811 -36703.299 85003.299 -36747.811 84961.573 -36794.972 84922.766 -36844.648 84887.013 -36896.704 84854.451 -36951.004 84825.214 -37007.413 84799.437 -37065.797 84777.255 -37126.021 84758.803 -37187.948 84744.217 -37251.445 84733.631 -37316.376 84727.18 -37382.606 84725 -37450 84725 -37450 84725 -37450 84727.18 -37517.394 84733.631 -37583.624 84744.217 -37648.555 84758.803 -37712.052 84777.255 -37773.979 84799.437 -37834.203 84825.214 -37892.587 84854.451 -37948.996 84887.013 -38003.296 84922.766 -38055.352 84961.573 -38105.028 85003.299 -38152.189 85047.811 -38196.701 85094.972 -38238.427 85144.648 -38277.234 85196.704 -38312.987 85251.004 -38345.549 85307.413 -38374.786 85365.797 -38400.563 85426.021 -38422.745 85487.948 -38441.197 85551.445 -38455.783 85616.376 -38466.369 85682.606 -38472.82 85750 -38475 85750 -38475"/><path d="M 9250 -3875 9250 -3875 9317.394 -3872.82 9383.624 -3866.369 9448.555 -3855.783 9512.052 -3841.197 9573.979 -3822.745 9634.203 -3800.563 9692.587 -3774.786 9748.996 -3745.549 9803.296 -3712.987 9855.352 -3677.234 9905.028 -3638.427 9952.189 -3596.701 9996.701 -3552.189 10038.427 -3505.028 10077.234 -3455.352 10112.987 -3403.296 10145.549 -3348.996 10174.786 -3292.587 10200.563 -3234.203 10222.745 -3173.979 10241.197 -3112.052 10255.783 -3048.555 10266.369 -2983.624 10272.82 -2917.394 10275 -2850 10275 -2850 10275 -2850 10272.82 -2782.606 10266.369 -2716.376 10255.783 -2651.445 10241.197 -2587.948 10222.745 -2526.021 10200.563 -2465.797 10174.786 -2407.414 10145.549 -2351.004 10112.987 -2296.704 10077.234 -2244.648 10038.427 -2194.972 9996.701 -2147.811 9952.189 -2103.299 9905.028 -2061.573 9855.352 -2022.766 9803.296 -1987.013 9748.996 -1954.451 9692.587 -1925.214 9634.203 -1899.437 9573.979 -1877.255 9512.052 -1858.803 9448.555 -1844.217 9383.624 -1833.631 9317.394 -1827.18 9250 -1825 9250 -1825 9250 -1825 9182.606 -1827.18 9116.376 -1833.631 9051.445 -1844.217 8987.948 -1858.803 8926.021 -1877.255 8865.797 -1899.437 8807.413 -1925.214 8751.004 -1954.451 8696.704 -1987.013 8644.648 -2022.766 8594.972 -2061.573 8547.811 -2103.299 8503.299 -2147.811 8461.573 -2194.972 8422.766 -2244.648 8387.013 -2296.704 8354.451 -2351.004 8325.214 -2407.414 8299.437 -2465.797 8277.255 -2526.021 8258.803 -2587.948 8244.217 -2651.445 8233.631 -2716.376 8227.18 -2782.606 8225 -2850 8225 -2850 8225 -2850 8227.18 -2917.394 8233.631 -2983.624 8244.217 -3048.555 8258.803 -3112.052 8277.255 -3173.979 8299.437 -3234.203 8325.214 -3292.587 8354.451 -3348.996 8387.013 -3403.296 8422.766 -3455.352 8461.573 -3505.028 8503.299 -3552.189 8547.811 -3596.701 8594.972 -3638.427 8644.648 -3677.234 8696.704 -3712.987 8751.004 -3745.549 8807.413 -3774.786 8865.797 -3800.563 8926.021 -3822.745 8987.948 -3841.197 9051.445 -3855.783 9116.376 -3866.369 9182.606 -3872.82 9250 -3875 9250 -3875"/><path d="M 14250 -5975 14250 -5975 14317.394 -5972.82 14383.624 -5966.369 14448.555 -5955.783 14512.052 -5941.197 14573.979 -5922.745 14634.203 -5900.563 14692.587 -5874.786 14748.996 -5845.549 14803.296 -5812.987 14855.352 -5777.234 14905.028 -5738.427 14952.189 -5696.701 14996.701 -5652.189 15038.427 -5605.028 15077.234 -5555.352 15112.987 -5503.296 15145.549 -5448.996 15174.786 -5392.587 15200.563 -5334.203 15222.745 -5273.979 15241.197 -5212.052 15255.783 -5148.555 15266.369 -5083.624 15272.82 -5017.394 15275 -4950 15275 -4950 15275 -4950 15272.82 -4882.606 15266.369 -4816.376 15255.783 -4751.445 15241.197 -4687.948 15222.745 -4626.021 15200.563 -4565.797 15174.786 -4507.414 15145.549 -4451.004 15112.987 -4396.704 15077.234 -4344.648 15038.427 -4294.972 14996.701 -4247.811 14952.189 -4203.299 14905.028 -4161.573 14855.352 -4122.766 14803.296 -4087.013 14748.996 -4054.451 14692.587 -4025.214 14634.203 -3999.437 14573.979 -3977.255 14512.052 -3958.803 14448.555 -3944.217 14383.624 -3933.631 14317.394 -3927.18 14250 -3925 14250 -3925 14250 -3925 14182.606 -3927.18 14116.376 -3933.631 14051.445 -3944.217 13987.948 -3958.803 13926.021 -3977.255 13865.797 -3999.437 13807.413 -4025.214 13751.004 -4054.451 13696.704 -4087.013 13644.648 -4122.766 13594.972 -4161.573 13547.811 -4203.299 13503.299 -4247.811 13461.573 -4294.972 13422.766 -4344.648 13387.013 -4396.704 13354.451 -4451.004 13325.214 -4507.414 13299.437 -4565.797 13277.255 -4626.021 13258.803 -4687.948 13244.217 -4751.445 13233.631 -4816.376 13227.18 -4882.606 13225 -4950 13225 -4950 13225 -4950 13227.18 -5017.394 13233.631 -5083.624 13244.217 -5148.555 13258.803 -5212.052 13277.255 -5273.979 13299.437 -5334.203 13325.214 -5392.587 13354.451 -5448.996 13387.013 -5503.296 13422.766 -5555.352 13461.573 -5605.028 13503.299 -5652.189 13547.811 -5696.701 13594.972 -5738.427 13644.648 -5777.234 13696.704 -5812.987 13751.004 -5845.549 13807.413 -5874.786 13865.797 -5900.563 13926.021 -5922.745 13987.948 -5941.197 14051.445 -5955.783 14116.376 -5966.369 14182.606 -5972.82 14250 -5975 14250 -5975"/><path d="M 9250 -36375 9250 -36375 9317.394 -36372.82 9383.624 -36366.369 9448.555 -36355.783 9512.052 -36341.197 9573.979 -36322.745 9634.203 -36300.563 9692.587 -36274.786 9748.996 -36245.549 9803.296 -36212.987 9855.352 -36177.234 9905.028 -36138.427 9952.189 -36096.701 9996.701 -36052.189 10038.427 -36005.028 10077.234 -35955.352 10112.987 -35903.296 10145.549 -35848.996 10174.786 -35792.586 10200.563 -35734.203 10222.745 -35673.979 10241.197 -35612.052 10255.783 -35548.555 10266.369 -35483.624 10272.82 -35417.394 10275 -35350 10275 -35350 10275 -35350 10272.82 -35282.606 10266.369 -35216.376 10255.783 -35151.445 10241.197 -35087.948 10222.745 -35026.021 10200.563 -34965.797 10174.786 -34907.413 10145.549 -34851.004 10112.987 -34796.704 10077.234 -34744.648 10038.427 -34694.972 9996.701 -34647.811 9952.189 -34603.299 9905.028 -34561.573 9855.352 -34522.766 9803.296 -34487.013 9748.996 -34454.451 9692.587 -34425.214 9634.203 -34399.437 9573.979 -34377.255 9512.052 -34358.803 9448.555 -34344.217 9383.624 -34333.631 9317.394 -34327.18 9250 -34325 9250 -34325 9250 -34325 9182.606 -34327.18 9116.376 -34333.631 9051.445 -34344.217 8987.948 -34358.803 8926.021 -34377.255 8865.797 -34399.437 8807.413 -34425.214 8751.004 -34454.451 8696.704 -34487.013 8644.648 -34522.766 8594.972 -34561.573 8547.811 -34603.299 8503.299 -34647.811 8461.573 -34694.972 8422.766 -34744.648 8387.013 -34796.704 8354.451 -34851.004 8325.214 -34907.413 8299.437 -34965.797 8277.255 -35026.021 8258.803 -35087.948 8244.217 -35151.445 8233.631 -35216.376 8227.18 -35282.606 8225 -35350 8225 -35350 8225 -35350 8227.18 -35417.394 8233.631 -35483.624 8244.217 -35548.555 8258.803 -35612.052 8277.255 -35673.979 8299.437 -35734.203 8325.214 -35792.586 8354.451 -35848.996 8387.013 -35903.296 8422.766 -35955.352 8461.573 -36005.028 8503.299 -36052.189 8547.811 -36096.701 8594.972 -36138.427 8644.648 -36177.234 8696.704 -36212.987 8751.004 -36245.549 8807.413 -36274.786 8865.797 -36300.563 8926.021 -36322.745 8987.948 -36341.197 9051.445 -36355.783 9116.376 -36366.369 9182.606 -36372.82 9250 -36375 9250 -36375"/><path d="M 14250 -38475 14250 -38475 14317.394 -38472.82 14383.624 -38466.369 14448.555 -38455.783 14512.052 -38441.197 14573.979 -38422.745 14634.203 -38400.563 14692.587 -38374.786 14748.996 -38345.549 14803.296 -38312.987 14855.352 -38277.234 14905.028 -38238.427 14952.189 -38196.701 14996.701 -38152.189 15038.427 -38105.028 15077.234 -38055.352 15112.987 -38003.296 15145.549 -37948.996 15174.786 -37892.587 15200.563 -37834.203 15222.745 -37773.979 15241.197 -37712.052 15255.783 -37648.555 15266.369 -37583.624 15272.82 -37517.394 15275 -37450 15275 -37450 15275 -37450 15272.82 -37382.606 15266.369 -37316.376 15255.783 -37251.445 15241.197 -37187.948 15222.745 -37126.021 15200.563 -37065.797 15174.786 -37007.413 15145.549 -36951.004 15112.987 -36896.704 15077.234 -36844.648 15038.427 -36794.972 14996.701 -36747.811 14952.189 -36703.299 14905.028 -36661.573 14855.352 -36622.766 14803.296 -36587.013 14748.996 -36554.451 14692.587 -36525.214 14634.203 -36499.437 14573.979 -36477.255 14512.052 -36458.803 14448.555 -36444.217 14383.624 -36433.631 14317.394 -36427.18 14250 -36425 14250 -36425 14250 -36425 14182.606 -36427.18 14116.376 -36433.631 14051.445 -36444.217 13987.948 -36458.803 13926.021 -36477.255 13865.797 -36499.437 13807.413 -36525.214 13751.004 -36554.451 13696.704 -36587.013 13644.648 -36622.766 13594.972 -36661.573 13547.811 -36703.299 13503.299 -36747.811 13461.573 -36794.972 13422.766 -36844.648 13387.013 -36896.704 13354.451 -36951.004 13325.214 -37007.413 13299.437 -37065.797 13277.255 -37126.021 13258.803 -37187.948 13244.217 -37251.445 13233.631 -37316.376 13227.18 -37382.606 13225 -37450 13225 -37450 13225 -37450 13227.18 -37517.394 13233.631 -37583.624 13244.217 -37648.555 13258.803 -37712.052 13277.255 -37773.979 13299.437 -37834.203 13325.214 -37892.587 13354.451 -37948.996 13387.013 -38003.296 13422.766 -38055.352 13461.573 -38105.028 13503.299 -38152.189 13547.811 -38196.701 13594.972 -38238.427 13644.648 -38277.234 13696.704 -38312.987 13751.004 -38345.549 13807.413 -38374.786 13865.797 -38400.563 13926.021 -38422.745 13987.948 -38441.197 14051.445 -38455.783 14116.376 -38466.369 14182.606 -38472.82 14250 -38475 14250 -38475"/><path d="M 41190 -10575 41190 -10575 41254.107 -10572.926 41317.106 -10566.79 41378.869 -10556.72 41439.269 -10542.845 41498.175 -10525.294 41555.461 -10504.194 41610.997 -10479.674 41664.655 -10451.863 41716.306 -10420.89 41765.822 -10386.882 41813.075 -10349.968 41857.936 -10310.276 41900.276 -10267.936 41939.968 -10223.075 41976.882 -10175.822 42010.89 -10126.306 42041.863 -10074.655 42069.674 -10020.997 42094.194 -9965.461 42115.294 -9908.175 42132.845 -9849.269 42146.72 -9788.869 42156.79 -9727.106 42162.926 -9664.107 42165 -9600 42165 -9600 42165 -9600 42162.926 -9535.893 42156.79 -9472.894 42146.72 -9411.131 42132.845 -9350.731 42115.294 -9291.825 42094.194 -9234.539 42069.674 -9179.003 42041.863 -9125.345 42010.89 -9073.694 41976.882 -9024.178 41939.968 -8976.925 41900.276 -8932.064 41857.936 -8889.724 41813.075 -8850.032 41765.822 -8813.118 41716.306 -8779.11 41664.655 -8748.137 41610.997 -8720.326 41555.461 -8695.806 41498.175 -8674.706 41439.269 -8657.155 41378.869 -8643.28 41317.106 -8633.21 41254.107 -8627.074 41190 -8625 41190 -8625 41190 -8625 41125.893 -8627.074 41062.894 -8633.21 41001.131 -8643.28 40940.731 -8657.155 40881.825 -8674.706 40824.539 -8695.806 40769.003 -8720.326 40715.345 -8748.137 40663.694 -8779.11 40614.178 -8813.118 40566.925 -8850.032 40522.064 -8889.724 40479.724 -8932.064 40440.032 -8976.925 40403.118 -9024.178 40369.11 -9073.694 40338.137 -9125.345 40310.326 -9179.003 40285.806 -9234.539 40264.706 -9291.825 40247.155 -9350.731 40233.28 -9411.131 40223.21 -9472.894 40217.074 -9535.893 40215 -9600 40215 -9600 40215 -9600 40217.074 -9664.107 40223.21 -9727.106 40233.28 -9788.869 40247.155 -9849.269 40264.706 -9908.175 40285.806 -9965.461 40310.326 -10020.997 40338.137 -10074.655 40369.11 -10126.306 40403.118 -10175.822 40440.032 -10223.075 40479.724 -10267.936 40522.064 -10310.276 40566.925 -10349.968 40614.178 -10386.882 40663.694 -10420.89 40715.345 -10451.863 40769.003 -10479.674 40824.539 -10504.194 40881.825 -10525.294 40940.731 -10542.845 41001.131 -10556.72 41062.894 -10566.79 41125.893 -10572.926 41190 -10575 41190 -10575"/><path d="M 46270 -10575 46270 -10575 46334.107 -10572.926 46397.106 -10566.79 46458.869 -10556.72 46519.269 -10542.845 46578.175 -10525.294 46635.461 -10504.194 46690.997 -10479.674 46744.655 -10451.863 46796.306 -10420.89 46845.822 -10386.882 46893.075 -10349.968 46937.936 -10310.276 46980.276 -10267.936 47019.968 -10223.075 47056.882 -10175.822 47090.89 -10126.306 47121.863 -10074.655 47149.674 -10020.997 47174.194 -9965.461 47195.294 -9908.175 47212.845 -9849.269 47226.72 -9788.869 47236.79 -9727.106 47242.926 -9664.107 47245 -9600 47245 -9600 47245 -9600 47242.926 -9535.893 47236.79 -9472.894 47226.72 -9411.131 47212.845 -9350.731 47195.294 -9291.825 47174.194 -9234.539 47149.674 -9179.003 47121.863 -9125.345 47090.89 -9073.694 47056.882 -9024.178 47019.968 -8976.925 46980.276 -8932.064 46937.936 -8889.724 46893.075 -8850.032 46845.822 -8813.118 46796.306 -8779.11 46744.655 -8748.137 46690.997 -8720.326 46635.461 -8695.806 46578.175 -8674.706 46519.269 -8657.155 46458.869 -8643.28 46397.106 -8633.21 46334.107 -8627.074 46270 -8625 46270 -8625 46270 -8625 46205.893 -8627.074 46142.894 -8633.21 46081.131 -8643.28 46020.731 -8657.155 45961.825 -8674.706 45904.539 -8695.806 45849.003 -8720.326 45795.345 -8748.137 45743.694 -8779.11 45694.178 -8813.118 45646.925 -8850.032 45602.064 -8889.724 45559.724 -8932.064 45520.032 -8976.925 45483.118 -9024.178 45449.11 -9073.694 45418.137 -9125.345 45390.326 -9179.003 45365.806 -9234.539 45344.706 -9291.825 45327.155 -9350.731 45313.28 -9411.131 45303.21 -9472.894 45297.074 -9535.893 45295 -9600 45295 -9600 45295 -9600 45297.074 -9664.107 45303.21 -9727.106 45313.28 -9788.869 45327.155 -9849.269 45344.706 -9908.175 45365.806 -9965.461 45390.326 -10020.997 45418.137 -10074.655 45449.11 -10126.306 45483.118 -10175.822 45520.032 -10223.075 45559.724 -10267.936 45602.064 -10310.276 45646.925 -10349.968 45694.178 -10386.882 45743.694 -10420.89 45795.345 -10451.863 45849.003 -10479.674 45904.539 -10504.194 45961.825 -10525.294 46020.731 -10542.845 46081.131 -10556.72 46142.894 -10566.79 46205.893 -10572.926 46270 -10575 46270 -10575"/><path d="M 43730 -10575 43730 -10575 43794.107 -10572.926 43857.106 -10566.79 43918.869 -10556.72 43979.269 -10542.845 44038.175 -10525.294 44095.461 -10504.194 44150.997 -10479.674 44204.655 -10451.863 44256.306 -10420.89 44305.822 -10386.882 44353.075 -10349.968 44397.936 -10310.276 44440.276 -10267.936 44479.968 -10223.075 44516.882 -10175.822 44550.89 -10126.306 44581.863 -10074.655 44609.674 -10020.997 44634.194 -9965.461 44655.294 -9908.175 44672.845 -9849.269 44686.72 -9788.869 44696.79 -9727.106 44702.926 -9664.107 44705 -9600 44705 -9600 44705 -9600 44702.926 -9535.893 44696.79 -9472.894 44686.72 -9411.131 44672.845 -9350.731 44655.294 -9291.825 44634.194 -9234.539 44609.674 -9179.003 44581.863 -9125.345 44550.89 -9073.694 44516.882 -9024.178 44479.968 -8976.925 44440.276 -8932.064 44397.936 -8889.724 44353.075 -8850.032 44305.822 -8813.118 44256.306 -8779.11 44204.655 -8748.137 44150.997 -8720.326 44095.461 -8695.806 44038.175 -8674.706 43979.269 -8657.155 43918.869 -8643.28 43857.106 -8633.21 43794.107 -8627.074 43730 -8625 43730 -8625 43730 -8625 43665.893 -8627.074 43602.894 -8633.21 43541.131 -8643.28 43480.731 -8657.155 43421.825 -8674.706 43364.539 -8695.806 43309.003 -8720.326 43255.345 -8748.137 43203.694 -8779.11 43154.178 -8813.118 43106.925 -8850.032 43062.064 -8889.724 43019.724 -8932.064 42980.032 -8976.925 42943.118 -9024.178 42909.11 -9073.694 42878.137 -9125.345 42850.326 -9179.003 42825.806 -9234.539 42804.706 -9291.825 42787.155 -9350.731 42773.28 -9411.131 42763.21 -9472.894 42757.074 -9535.893 42755 -9600 42755 -9600 42755 -9600 42757.074 -9664.107 42763.21 -9727.106 42773.28 -9788.869 42787.155 -9849.269 42804.706 -9908.175 42825.806 -9965.461 42850.326 -10020.997 42878.137 -10074.655 42909.11 -10126.306 42943.118 -10175.822 42980.032 -10223.075 43019.724 -10267.936 43062.064 -10310.276 43106.925 -10349.968 43154.178 -10386.882 43203.694 -10420.89 43255.345 -10451.863 43309.003 -10479.674 43364.539 -10504.194 43421.825 -10525.294 43480.731 -10542.845 43541.131 -10556.72 43602.894 -10566.79 43665.893 -10572.926 43730 -10575 43730 -10575"/><path d="M 48810 -10575 48810 -10575 48874.107 -10572.926 48937.106 -10566.79 48998.869 -10556.72 49059.269 -10542.845 49118.175 -10525.294 49175.461 -10504.194 49230.997 -10479.674 49284.655 -10451.863 49336.306 -10420.89 49385.822 -10386.882 49433.075 -10349.968 49477.936 -10310.276 49520.276 -10267.936 49559.968 -10223.075 49596.882 -10175.822 49630.89 -10126.306 49661.863 -10074.655 49689.674 -10020.997 49714.194 -9965.461 49735.294 -9908.175 49752.845 -9849.269 49766.72 -9788.869 49776.79 -9727.106 49782.926 -9664.107 49785 -9600 49785 -9600 49785 -9600 49782.926 -9535.893 49776.79 -9472.894 49766.72 -9411.131 49752.845 -9350.731 49735.294 -9291.825 49714.194 -9234.539 49689.674 -9179.003 49661.863 -9125.345 49630.89 -9073.694 49596.882 -9024.178 49559.968 -8976.925 49520.276 -8932.064 49477.936 -8889.724 49433.075 -8850.032 49385.822 -8813.118 49336.306 -8779.11 49284.655 -8748.137 49230.997 -8720.326 49175.461 -8695.806 49118.175 -8674.706 49059.269 -8657.155 48998.869 -8643.28 48937.106 -8633.21 48874.107 -8627.074 48810 -8625 48810 -8625 48810 -8625 48745.893 -8627.074 48682.894 -8633.21 48621.131 -8643.28 48560.731 -8657.155 48501.825 -8674.706 48444.539 -8695.806 48389.003 -8720.326 48335.345 -8748.137 48283.694 -8779.11 48234.178 -8813.118 48186.925 -8850.032 48142.064 -8889.724 48099.724 -8932.064 48060.032 -8976.925 48023.118 -9024.178 47989.11 -9073.694 47958.137 -9125.345 47930.326 -9179.003 47905.806 -9234.539 47884.706 -9291.825 47867.155 -9350.731 47853.28 -9411.131 47843.21 -9472.894 47837.074 -9535.893 47835 -9600 47835 -9600 47835 -9600 47837.074 -9664.107 47843.21 -9727.106 47853.28 -9788.869 47867.155 -9849.269 47884.706 -9908.175 47905.806 -9965.461 47930.326 -10020.997 47958.137 -10074.655 47989.11 -10126.306 48023.118 -10175.822 48060.032 -10223.075 48099.724 -10267.936 48142.064 -10310.276 48186.925 -10349.968 48234.178 -10386.882 48283.694 -10420.89 48335.345 -10451.863 48389.003 -10479.674 48444.539 -10504.194 48501.825 -10525.294 48560.731 -10542.845 48621.131 -10556.72 48682.894 -10566.79 48745.893 -10572.926 48810 -10575 48810 -10575"/><path d="M 80750 -3875 80750 -3875 80817.394 -3872.82 80883.624 -3866.369 80948.555 -3855.783 81012.052 -3841.197 81073.979 -3822.745 81134.203 -3800.563 81192.587 -3774.786 81248.996 -3745.549 81303.296 -3712.987 81355.352 -3677.234 81405.028 -3638.427 81452.189 -3596.701 81496.701 -3552.189 81538.427 -3505.028 81577.234 -3455.352 81612.987 -3403.296 81645.549 -3348.996 81674.786 -3292.587 81700.563 -3234.203 81722.745 -3173.979 81741.197 -3112.052 81755.783 -3048.555 81766.369 -2983.624 81772.82 -2917.394 81775 -2850 81775 -2850 81775 -2850 81772.82 -2782.606 81766.369 -2716.376 81755.783 -2651.445 81741.197 -2587.948 81722.745 -2526.021 81700.563 -2465.797 81674.786 -2407.414 81645.549 -2351.004 81612.987 -2296.704 81577.234 -2244.648 81538.427 -2194.972 81496.701 -2147.811 81452.189 -2103.299 81405.028 -2061.573 81355.352 -2022.766 81303.296 -1987.013 81248.996 -1954.451 81192.587 -1925.214 81134.203 -1899.437 81073.979 -1877.255 81012.052 -1858.803 80948.555 -1844.217 80883.624 -1833.631 80817.394 -1827.18 80750 -1825 80750 -1825 80750 -1825 80682.606 -1827.18 80616.376 -1833.631 80551.445 -1844.217 80487.948 -1858.803 80426.021 -1877.255 80365.797 -1899.437 80307.413 -1925.214 80251.004 -1954.451 80196.704 -1987.013 80144.648 -2022.766 80094.972 -2061.573 80047.811 -2103.299 80003.299 -2147.811 79961.573 -2194.972 79922.766 -2244.648 79887.013 -2296.704 79854.451 -2351.004 79825.214 -2407.414 79799.437 -2465.797 79777.255 -2526.021 79758.803 -2587.948 79744.217 -2651.445 79733.631 -2716.376 79727.18 -2782.606 79725 -2850 79725 -2850 79725 -2850 79727.18 -2917.394 79733.631 -2983.624 79744.217 -3048.555 79758.803 -3112.052 79777.255 -3173.979 79799.437 -3234.203 79825.214 -3292.587 79854.451 -3348.996 79887.013 -3403.296 79922.766 -3455.352 79961.573 -3505.028 80003.299 -3552.189 80047.811 -3596.701 80094.972 -3638.427 80144.648 -3677.234 80196.704 -3712.987 80251.004 -3745.549 80307.413 -3774.786 80365.797 -3800.563 80426.021 -3822.745 80487.948 -3841.197 80551.445 -3855.783 80616.376 -3866.369 80682.606 -3872.82 80750 -3875 80750 -3875"/><path d="M 85750 -5975 85750 -5975 85817.394 -5972.82 85883.624 -5966.369 85948.555 -5955.783 86012.052 -5941.197 86073.979 -5922.745 86134.203 -5900.563 86192.587 -5874.786 86248.996 -5845.549 86303.296 -5812.987 86355.352 -5777.234 86405.028 -5738.427 86452.189 -5696.701 86496.701 -5652.189 86538.427 -5605.028 86577.234 -5555.352 86612.987 -5503.296 86645.549 -5448.996 86674.786 -5392.587 86700.563 -5334.203 86722.745 -5273.979 86741.197 -5212.052 86755.783 -5148.555 86766.369 -5083.624 86772.82 -5017.394 86775 -4950 86775 -4950 86775 -4950 86772.82 -4882.606 86766.369 -4816.376 86755.783 -4751.445 86741.197 -4687.948 86722.745 -4626.021 86700.563 -4565.797 86674.786 -4507.414 86645.549 -4451.004 86612.987 -4396.704 86577.234 -4344.648 86538.427 -4294.972 86496.701 -4247.811 86452.189 -4203.299 86405.028 -4161.573 86355.352 -4122.766 86303.296 -4087.013 86248.996 -4054.451 86192.587 -4025.214 86134.203 -3999.437 86073.979 -3977.255 86012.052 -3958.803 85948.555 -3944.217 85883.624 -3933.631 85817.394 -3927.18 85750 -3925 85750 -3925 85750 -3925 85682.606 -3927.18 85616.376 -3933.631 85551.445 -3944.217 85487.948 -3958.803 85426.021 -3977.255 85365.797 -3999.437 85307.413 -4025.214 85251.004 -4054.451 85196.704 -4087.013 85144.648 -4122.766 85094.972 -4161.573 85047.811 -4203.299 85003.299 -4247.811 84961.573 -4294.972 84922.766 -4344.648 84887.013 -4396.704 84854.451 -4451.004 84825.214 -4507.414 84799.437 -4565.797 84777.255 -4626.021 84758.803 -4687.948 84744.217 -4751.445 84733.631 -4816.376 84727.18 -4882.606 84725 -4950 84725 -4950 84725 -4950 84727.18 -5017.394 84733.631 -5083.624 84744.217 -5148.555 84758.803 -5212.052 84777.255 -5273.979 84799.437 -5334.203 84825.214 -5392.587 84854.451 -5448.996 84887.013 -5503.296 84922.766 -5555.352 84961.573 -5605.028 85003.299 -5652.189 85047.811 -5696.701 85094.972 -5738.427 85144.648 -5777.234 85196.704 -5812.987 85251.004 -5845.549 85307.413 -5874.786 85365.797 -5900.563 85426.021 -5922.745 85487.948 -5941.197 85551.445 -5955.783 85616.376 -5966.369 85682.606 -5972.82 85750 -5975 85750 -5975"/><path d="M 91400 -10275 92600 -10275 92600 -11475 91400 -11475 91400 -10275"/><path d="M 92850 -10426.758 92850 -10426.758 92893.36 -10423.242 92893.36 -10423.242 92944.751 -10455.441 92947.266 -10468.945 92947.266 -10468.945 92946.983 -10514.271 92946.44 -10584.544 92946.099 -10626.774 92946.094 -10627.442 92946.094 -10627.442 92945.36 -10724.262 92945.022 -10780.763 92944.927 -10805.552 92944.922 -10808.789 92944.922 -10808.789 93013.602 -10770.803 93074.953 -10751.985 93117.604 -10745.602 93130.664 -10744.922 93130.664 -10744.922 93204.851 -10759.603 93256.193 -10788.966 93280.989 -10810.988 93282.715 -10812.891 93282.715 -10812.891 93315.423 -10870.499 93332.818 -10934.369 93339.736 -10987.879 93341.012 -11014.408 93341.016 -11015.039 93341.016 -11015.039 93332.957 -11095.456 93314.322 -11160.638 93293.42 -11207.513 93278.562 -11233.014 93275.977 -11236.817 93275.977 -11236.817 93221.713 -11287.276 93162.524 -11314.111 93113.331 -11324.784 93089.053 -11326.752 93088.477 -11326.758 93088.477 -11326.758 93010.708 -11317.491 92945.75 -11295.725 92896.956 -11270.511 92867.68 -11250.9 92860.547 -11245.313 92860.547 -11245.313 92864.611 -11190.825 92867.185 -11123.428 92868.605 -11057.494 92869.21 -11007.394 92869.336 -10987.5 92869.336 -10987.5 92869.336 -10987.5 92868.863 -10926.138 92867.686 -10856.754 92866.168 -10788.244 92864.671 -10729.502 92863.558 -10689.425 92863.184 -10676.66 92863.184 -10676.66 92859.45 -10572.258 92855.885 -10500.481 92852.869 -10455.914 92850.781 -10433.145 92850 -10426.758 92850 -10426.758"/></g><path d="M 93441.211 -11036.719 93441.211 -11036.719 93450.141 -10957.536 93470.791 -10895.209 93493.953 -10851.534 93510.417 -10828.309 93513.282 -10824.903 93513.282 -10824.903 93570.64 -10780.032 93630.023 -10756.168 93678.066 -10746.678 93701.404 -10744.927 93701.953 -10744.922 93701.953 -10744.922 93778.446 -10756.531 93836.903 -10782.514 93875.188 -10809.603 93891.161 -10824.529 93891.504 -10824.903 93891.504 -10824.903 93929.219 -10883.263 93950.676 -10944.947 93960.46 -10998.218 93963.157 -11031.341 93963.281 -11036.719 93963.281 -11036.719 93953.637 -11118.996 93931.69 -11182.61 93907.921 -11225.637 93892.809 -11246.151 93891.504 -11247.656 93891.504 -11247.656 93834.14 -11292.034 93774.464 -11315.636 93726.059 -11325.022 93702.508 -11326.753 93701.953 -11326.758 93701.953 -11326.758 93626.076 -11315.276 93567.873 -11289.579 93529.628 -11262.788 93513.626 -11248.026 93513.282 -11247.656 93513.282 -11247.656 93475.412 -11189.758 93453.868 -11128.337 93444.044 -11075.185 93441.336 -11042.095 93441.211 -11036.719"/></g><path d="M 94017.188 -10800 94017.188 -10800 94035.059 -10764.844 94035.059 -10764.844 94092.066 -10757.279 94096.289 -10757.227 94130.274 -10757.227 94130.274 -10757.227 94126.783 -10678.459 94123.454 -10631.48 94122.657 -10622.461 94122.657 -10622.461 94162.5 -10618.945 94162.5 -10618.945 94216.771 -10649.866 94219.922 -10664.649 94219.922 -10664.649 94217.298 -10722.961 94215.235 -10758.399 94215.235 -10758.399 94310.999 -10757.392 94373.145 -10755.176 94406.726 -10752.96 94416.797 -10751.953 94416.797 -10751.953 94416.797 -10751.953 94421.485 -10780.078 94421.485 -10780.078 94408.887 -10812.305 94408.887 -10812.305 94368.75 -10821.68 94368.75 -10821.68 94310.805 -10822.499 94245.303 -10822.806 94212.925 -10822.852 94212.891 -10822.852 94212.891 -10822.852 94211.793 -10897.049 94211.106 -10967.726 94210.733 -11028.446 94210.58 -11072.77 94210.547 -11094.26 94210.547 -11095.313 94210.547 -11095.313 94217.473 -11181.013 94229.501 -11222.473 94233.985 -11230.957 94233.985 -11230.957 94289.052 -11261.067 94311.328 -11263.477 94311.328 -11263.477 94375.965 -11243.68 94397.461 -11227.149 94397.461 -11227.149 94419.141 -11270.508 94419.141 -11270.508 94388.408 -11311.064 94388.086 -11311.231 94388.086 -11311.231 94326.378 -11326.092 94312.5 -11326.758 94312.5 -11326.758 94234.228 -11312.881 94188.436 -11286.304 94171.782 -11269.604 94171.582 -11269.336 94171.582 -11269.336 94145.692 -11211.49 94133.793 -11149.443 94130.443 -11105.731 94130.274 -11097.656 94130.274 -11097.656 94131.372 -10990.258 94132.059 -10913.13 94132.431 -10862.148 94132.585 -10833.19 94132.617 -10822.132 94132.617 -10821.68 94132.617 -10821.68 94083.59 -10825.417 94023.742 -10830.223 94020.703 -10830.469 94020.703 -10830.469 94017.188 -10800"/><path d="M 94439.063 -10800 94439.063 -10800 94456.934 -10764.844 94456.934 -10764.844 94513.941 -10757.279 94518.164 -10757.227 94552.149 -10757.227 94552.149 -10757.227 94548.658 -10678.459 94545.329 -10631.48 94544.532 -10622.461 94544.532 -10622.461 94584.375 -10618.945 94584.375 -10618.945 94638.646 -10649.866 94641.797 -10664.649 94641.797 -10664.649 94639.173 -10722.961 94637.11 -10758.399 94637.11 -10758.399 94732.874 -10757.392 94795.02 -10755.176 94828.601 -10752.96 94838.672 -10751.953 94838.672 -10751.953 94838.672 -10751.953 94843.36 -10780.078 94843.36 -10780.078 94830.762 -10812.305 94830.762 -10812.305 94790.625 -10821.68 94790.625 -10821.68 94732.68 -10822.499 94667.178 -10822.806 94634.8 -10822.852 94634.766 -10822.852 94634.766 -10822.852 94633.668 -10897.049 94632.981 -10967.726 94632.608 -11028.446 94632.455 -11072.77 94632.422 -11094.26 94632.422 -11095.313 94632.422 -11095.313 94639.348 -11181.013 94651.376 -11222.473 94655.86 -11230.957 94655.86 -11230.957 94710.927 -11261.067 94733.203 -11263.477 94733.203 -11263.477 94797.84 -11243.68 94819.336 -11227.149 94819.336 -11227.149 94841.016 -11270.508 94841.016 -11270.508 94810.283 -11311.064 94809.961 -11311.231 94809.961 -11311.231 94748.253 -11326.092 94734.375 -11326.758 94734.375 -11326.758 94656.103 -11312.881 94610.311 -11286.304 94593.657 -11269.604 94593.457 -11269.336 94593.457 -11269.336 94567.567 -11211.49 94555.668 -11149.443 94552.318 -11105.731 94552.149 -11097.656 94552.149 -11097.656 94553.247 -10990.258 94553.934 -10913.13 94554.306 -10862.148 94554.46 -10833.19 94554.492 -10822.132 94554.492 -10821.68 94554.492 -10821.68 94505.465 -10825.417 94445.617 -10830.223 94442.578 -10830.469 94442.578 -10830.469 94439.063 -10800"/><path d="M 94914.844 -11036.719 94914.844 -11036.719 94923.774 -10957.536 94944.424 -10895.209 94967.586 -10851.534 94984.05 -10828.309 94986.914 -10824.903 94986.914 -10824.903 95044.272 -10780.032 95103.656 -10756.168 95151.699 -10746.678 95175.037 -10744.927 95175.586 -10744.922 95175.586 -10744.922 95252.079 -10756.531 95310.536 -10782.514 95348.821 -10809.603 95364.794 -10824.529 95365.137 -10824.903 95365.137 -10824.903 95402.852 -10883.263 95424.309 -10944.947 95434.093 -10998.218 95436.79 -11031.341 95436.914 -11036.719 95436.914 -11036.719 95427.27 -11118.996 95405.323 -11182.61 95381.554 -11225.637 95366.442 -11246.151 95365.137 -11247.656 95365.137 -11247.656 95307.773 -11292.034 95248.097 -11315.636 95199.691 -11325.022 95176.141 -11326.753 95175.586 -11326.758 95175.586 -11326.758 95099.709 -11315.276 95041.506 -11289.579 95003.261 -11262.788 94987.258 -11248.026 94986.914 -11247.656 94986.914 -11247.656 94949.045 -11189.758 94927.501 -11128.337 94917.677 -11075.185 94914.969 -11042.095 94914.844 -11036.719"/></g><path d="M 95562.891 -10763.086 95562.891 -10763.086 95606.25 -10753.711 95606.25 -10753.711 95656.309 -10788.061 95661.328 -10813.477 95661.328 -10813.477 95719.409 -10777.661 95749.805 -10764.258 95749.805 -10764.258 95749.805 -10764.258 95818.946 -10747.339 95849.414 -10744.922 95849.414 -10744.922 95849.414 -10744.922 95923.815 -10762.746 95966.392 -10797.645 95982.49 -10821.76 95983.008 -10822.852 95983.008 -10822.852 96036.967 -10785.024 96072.924 -10768.018 96073.535 -10767.774 96073.535 -10767.774 96144.063 -10748.724 96181.897 -10744.945 96183.399 -10744.922 96183.399 -10744.922 96253.73 -10761.395 96287.43 -10783.464 96289.16 -10785.059 96289.16 -10785.059 96319.7 -10842.715 96329.167 -10898.621 96329.883 -10914.258 96329.883 -10914.258 96328.614 -10968.473 96327.832 -11000.684 96327.832 -11000.684 96326.224 -11081.867 96325.798 -11122.943 96325.782 -11128.125 96325.782 -11128.125 96329.705 -11210.728 96337.872 -11270.697 96344.882 -11303.864 96346.289 -11309.18 96346.289 -11309.18 96299.414 -11318.555 96299.414 -11318.555 96254.59 -11304.785 96254.59 -11304.785 96240.821 -11257.617 96240.821 -11257.617 96240.821 -11257.617 96241.625 -11200.627 96243.199 -11134.183 96244.287 -11094.106 96244.336 -11092.383 96244.336 -11092.383 96246.886 -10997.209 96247.757 -10954.964 96247.852 -10946.485 96247.852 -10946.485 96235.053 -10873.205 96220.018 -10845.472 96219.727 -10845.117 96219.727 -10845.117 96162.999 -10814.251 96145.899 -10812.305 96145.899 -10812.305 96080.986 -10826.778 96026.482 -10855.117 95998.203 -10874.699 95997.071 -10875.586 95997.071 -10875.586 95998.259 -10967.196 95998.957 -11036.413 95999.296 -11083.792 95999.405 -11109.885 95999.414 -11115.821 95999.414 -11115.821 96000.691 -11198.826 96003.451 -11262.692 96006.088 -11302.534 96007.032 -11313.867 96007.032 -11313.867 95966.016 -11317.383 95966.016 -11317.383 95914.625 -11285.185 95912.11 -11271.68 95912.11 -11271.68 95913.867 -11223.34 95913.867 -11223.34 95915.729 -11159.405 95916.71 -11109.466 95916.797 -11104.102 95916.797 -11104.102 95917.601 -11032.458 95917.914 -10974.25 95917.969 -10946.873 95917.969 -10946.485 95917.969 -10946.485 95899.055 -10864.503 95858.92 -10825.365 95822.476 -10813.225 95812.5 -10812.305 95812.5 -10812.305 95748.374 -10827.449 95694.192 -10857.1 95665.976 -10877.588 95664.844 -10878.516 95664.844 -10878.516 95666.076 -10973.562 95666.776 -11043.585 95667.096 -11089.595 95667.184 -11112.604 95667.188 -11115.821 95667.188 -11115.821 95668.367 -11198.826 95670.914 -11262.692 95673.348 -11302.534 95674.219 -11313.867 95674.219 -11313.867 95633.789 -11317.383 95633.789 -11317.383 95582.398 -11285.185 95579.883 -11271.68 95579.883 -11271.68 95581.654 -11216.907 95582.813 -11183.496 95582.813 -11183.496 95584.78 -11108.533 95585.582 -11048.688 95585.741 -11018.569 95585.742 -11017.383 95585.742 -11017.383 95583.366 -10915.336 95577.699 -10842.821 95570.935 -10795.899 95565.267 -10770.633 95562.891 -10763.086 95562.891 -10763.086"/><path d="M 96742.383 -11231.25 96742.383 -11231.25 96780.361 -11187.147 96796.289 -11180.86 96796.289 -11180.86 96837.19 -11230.156 96853.418 -11239.746 96853.418 -11239.746 96919.57 -11257.725 96948.633 -11259.961 96948.633 -11259.961 97016.142 -11245.817 97032.129 -11237.11 97032.129 -11237.11 97062.445 -11182.234 97064.063 -11166.211 97064.063 -11166.211 97036.764 -11114.434 97032.129 -11111.133 97032.129 -11111.133 96972.013 -11086.152 96954.785 -11081.543 96954.785 -11081.543 96888.207 -11064.578 96863.672 -11057.52 96863.672 -11057.52 96805.312 -11024.265 96786.035 -11005.371 96786.035 -11005.371 96758.856 -10943.91 96754.109 -10904.375 96754.102 -10903.711 96754.102 -10903.711 96774.097 -10836.198 96806.945 -10796.881 96815.918 -10789.453 96815.918 -10789.453 96880.863 -10757.725 96934.806 -10746.381 96955.664 -10744.922 96955.664 -10744.922 97024.281 -10755.263 97063.862 -10769.116 97066.114 -10770.117 97066.114 -10770.117 97115.037 -10817.792 97120.313 -10839.844 97120.313 -10839.844 97082.335 -10884.53 97066.407 -10890.235 97066.407 -10890.235 97025.489 -10842.443 97012.207 -10833.985 97012.207 -10833.985 96947.812 -10814.029 96926.953 -10812.305 96926.953 -10812.305 96865.144 -10828.897 96856.055 -10834.57 96856.055 -10834.57 96826.979 -10887.932 96826.172 -10897.266 96826.172 -10897.266 96853.116 -10949.753 96858.106 -10953.516 96858.106 -10953.516 96917.421 -10979.735 96935.449 -10984.863 96935.449 -10984.863 97001.051 -11002.082 97026.563 -11009.473 97026.563 -11009.473 97085.696 -11042.077 97104.199 -11059.278 97104.199 -11059.278 97132.141 -11119.812 97136.133 -11153.32 97136.133 -11153.32 97136.133 -11153.32 97119.712 -11225.72 97089.7 -11269.045 97074.903 -11282.52 97074.903 -11282.52 97010.587 -11313.453 96954.332 -11325.019 96929.322 -11326.758 96929.297 -11326.758 96929.297 -11326.758 96855.127 -11317.85 96808.481 -11303.216 96799.219 -11299.219 96799.219 -11299.219 96747.915 -11251.725 96742.383 -11231.25"/><path d="M 97238.672 -11036.719 97238.672 -11036.719 97247.602 -10957.536 97268.252 -10895.209 97291.414 -10851.534 97307.878 -10828.309 97310.742 -10824.903 97310.742 -10824.903 97368.101 -10780.032 97427.484 -10756.168 97475.527 -10746.678 97498.865 -10744.927 97499.414 -10744.922 97499.414 -10744.922 97575.907 -10756.531 97634.364 -10782.514 97672.649 -10809.603 97688.622 -10824.529 97688.965 -10824.903 97688.965 -10824.903 97726.68 -10883.263 97748.137 -10944.947 97757.921 -10998.218 97760.618 -11031.341 97760.742 -11036.719 97760.742 -11036.719 97751.098 -11118.996 97729.151 -11182.61 97705.382 -11225.637 97690.27 -11246.151 97688.965 -11247.656 97688.965 -11247.656 97631.601 -11292.034 97571.925 -11315.636 97523.52 -11325.022 97499.969 -11326.753 97499.414 -11326.758 97499.414 -11326.758 97423.537 -11315.276 97365.334 -11289.579 97327.089 -11262.788 97311.087 -11248.026 97310.742 -11247.656 97310.742 -11247.656 97272.873 -11189.758 97251.329 -11128.337 97241.505 -11075.185 97238.797 -11042.095 97238.672 -11036.719"/></g><path d="M 97886.719 -10426.758 97886.719 -10426.758 97928.907 -10423.242 97928.907 -10423.242 97981.195 -10454.805 97983.985 -10468.945 97983.985 -10468.945 97982.445 -10525.687 97982.227 -10533.106 97982.227 -10533.106 97980.385 -10597.525 97978.693 -10658.741 97977.845 -10689.969 97977.832 -10690.43 97977.832 -10690.43 97976.264 -10764.936 97975.487 -10829.009 97975.224 -10872.454 97975.196 -10885.547 97975.196 -11072.461 97975.196 -11072.461 97977.796 -11162.058 97983.903 -11230.21 97990.977 -11277.177 97996.479 -11303.221 97998.047 -11309.18 97998.047 -11309.18 97952.93 -11318.555 97952.93 -11318.555 97906.641 -11304.199 97906.641 -11304.199 97893.75 -11256.445 97893.75 -11256.445 97893.75 -11256.445 97894.049 -11206.353 97894.608 -11138.978 97894.922 -11103.847 97894.922 -11103.809 97894.922 -11103.809 97895.638 -11014.596 97895.98 -10953.343 97896.086 -10919.945 97896.094 -10913.086 97896.094 -10773.633 97896.094 -10773.633 97895.524 -10660.547 97894.069 -10573.902 97892.107 -10510.551 97890.019 -10467.352 97888.184 -10441.159 97886.982 -10428.829 97886.719 -10426.758"/><path d="M 98124.024 -11036.719 98124.024 -11036.719 98133.171 -10958.079 98154.325 -10895.935 98178.052 -10852.231 98194.918 -10828.916 98197.852 -10825.488 98197.852 -10825.488 98256.83 -10778.911 98314.6 -10754.993 98358.527 -10746.181 98375.977 -10744.922 98375.977 -10744.922 98375.977 -10744.922 98447.24 -10756.478 98498.929 -10777.078 98515.43 -10785.938 98515.43 -10785.938 98517.292 -10707.337 98517.76 -10665.69 98517.774 -10661.133 98517.774 -10661.133 98516.612 -10572.802 98513.926 -10503.815 98510.913 -10455.819 98508.771 -10430.46 98508.399 -10426.758 98508.399 -10426.758 98551.172 -10423.242 98551.172 -10423.242 98602.563 -10455.441 98605.078 -10468.945 98605.078 -10468.945 98604.58 -10510.266 98603.373 -10573.801 98601.892 -10643.058 98600.57 -10701.542 98599.843 -10732.76 98599.805 -10734.375 98599.805 -10734.375 98597.657 -10831.055 98596.19 -10908.567 98595.273 -10967.908 98594.778 -11010.069 98594.574 -11036.044 98594.532 -11046.827 98594.532 -11047.266 98594.532 -11047.266 98596.693 -11146.98 98601.923 -11219.798 98608.341 -11268.903 98614.066 -11297.479 98617.217 -11308.709 98617.383 -11309.18 98617.383 -11309.18 98571.68 -11318.555 98571.68 -11318.555 98523.879 -11282.438 98518.946 -11258.789 98518.946 -11258.789 98455.874 -11302.431 98400.531 -11321.722 98367.15 -11326.609 98363.086 -11326.758 98361.914 -11326.758 98361.914 -11326.758 98290.488 -11312.047 98235.48 -11280.831 98202.287 -11252.485 98194.922 -11244.727 98194.922 -11244.727 98156.391 -11183.218 98135.188 -11120.167 98126.136 -11067.976 98124.06 -11039.051 98124.024 -11036.719"/></g><path d="M 98742.774 -11039.063 98742.774 -11039.063 98752.684 -10955.118 98775.6 -10890.904 98801.304 -10847.096 98819.575 -10824.366 98822.754 -10821.094 98822.754 -10821.094 98885.839 -10777.057 98946.643 -10754.444 98992.452 -10746.112 99010.547 -10744.922 99010.547 -10744.922 99010.547 -10744.922 99086.018 -10758.294 99132.958 -10782.131 99146.485 -10792.383 99146.485 -10792.383 99187.369 -10852.074 99198.216 -10896.689 99198.633 -10903.711 99198.633 -10903.711 99187.101 -10969.658 99181.934 -10981.641 99181.934 -10981.641 99142.425 -11027.543 99138.282 -11030.567 99138.282 -11030.567 99079.164 -11053.781 99060.352 -11058.106 99060.352 -11058.106 98991.138 -11067.737 98960.157 -11070.117 98960.157 -11070.117 98960.157 -11070.117 98895.004 -11071.929 98841.135 -11072.436 98830.664 -11072.461 98830.664 -11072.461 98848.737 -11147.424 98871.947 -11194.207 98882.52 -11209.278 98882.52 -11209.278 98939.325 -11247.882 98989.028 -11259.26 99000.586 -11259.961 99000.586 -11259.961 99075.977 -11243.147 99116.791 -11212.417 99128.321 -11197.266 99128.321 -11197.266 99174.484 -11239.978 99175.782 -11247.656 99175.782 -11247.656 99140.471 -11295.16 99121.289 -11305.078 99121.289 -11305.078 99053.296 -11322.305 99005.496 -11326.632 98999.414 -11326.758 98999.414 -11326.758 98922.821 -11315.634 98864.575 -11291.162 98827.533 -11266.69 98814.551 -11255.567 98814.551 -11255.567 98814.551 -11255.567 98776.836 -11200.154 98755.379 -11137.237 98745.595 -11080.832 98742.898 -11044.961 98742.774 -11039.063"/></g><path d="M 99324.61 -10757.227 99324.61 -10757.227 99365.625 -10753.711 99365.625 -10753.711 99415.161 -10786.728 99417.188 -10798.828 99417.188 -10798.828 99416.602 -10815.235 99416.602 -10815.235 99416.016 -10841.016 99416.016 -10841.016 99460.172 -10791.128 99480.176 -10774.512 99480.176 -10774.512 99542.418 -10746.961 99559.571 -10744.922 99559.571 -10744.922 99602.93 -10757.52 99602.93 -10757.52 99618.75 -10791.797 99618.75 -10791.797 99596.375 -10843.479 99594.727 -10845.703 99594.727 -10845.703 99540.563 -10823.063 99536.719 -10822.852 99536.719 -10822.852 99478.33 -10843.188 99469.629 -10849.219 99469.629 -10849.219 99425.335 -10898.903 99413.086 -10918.945 99413.086 -10918.945 99412.267 -10975.994 99411.96 -11039.82 99411.914 -11071.256 99411.914 -11071.289 99411.914 -11071.289 99414.514 -11161.941 99420.621 -11230.478 99427.696 -11277.421 99433.198 -11303.291 99434.766 -11309.18 99434.766 -11309.18 99389.063 -11318.555 99389.063 -11318.555 99342.481 -11303.028 99342.481 -11303.028 99342.481 -11303.028 99330.478 -11250.868 99330.469 -11250 99330.469 -11250 99331.108 -11191.641 99331.641 -11155.371 99331.641 -11155.371 99332.596 -11077.329 99332.81 -11040.346 99332.813 -11037.891 99332.813 -11037.891 99332.111 -10951.548 99330.389 -10879.012 99328.22 -10821.904 99326.179 -10781.844 99324.839 -10760.45 99324.61 -10757.227"/><path d="M 99702.539 -10763.086 99702.539 -10763.086 99745.899 -10753.711 99745.899 -10753.711 99795.958 -10788.061 99800.977 -10813.477 99800.977 -10813.477 99859.058 -10777.661 99889.453 -10764.258 99889.453 -10764.258 99889.453 -10764.258 99958.594 -10747.339 99989.063 -10744.922 99989.063 -10744.922 99989.063 -10744.922 100063.463 -10762.746 100106.041 -10797.645 100122.138 -10821.76 100122.657 -10822.852 100122.657 -10822.852 100176.615 -10785.024 100212.572 -10768.018 100213.184 -10767.774 100213.184 -10767.774 100283.712 -10748.724 100321.545 -10744.945 100323.047 -10744.922 100323.047 -10744.922 100393.378 -10761.395 100427.078 -10783.464 100428.809 -10785.059 100428.809 -10785.059 100459.349 -10842.715 100468.816 -10898.621 100469.532 -10914.258 100469.532 -10914.258 100468.262 -10968.473 100467.481 -11000.684 100467.481 -11000.684 100465.873 -11081.867 100465.446 -11122.943 100465.43 -11128.125 100465.43 -11128.125 100469.353 -11210.728 100477.521 -11270.697 100484.531 -11303.864 100485.938 -11309.18 100485.938 -11309.18 100439.063 -11318.555 100439.063 -11318.555 100394.239 -11304.785 100394.239 -11304.785 100380.469 -11257.617 100380.469 -11257.617 100380.469 -11257.617 100381.273 -11200.627 100382.847 -11134.183 100383.935 -11094.106 100383.985 -11092.383 100383.985 -11092.383 100386.535 -10997.209 100387.405 -10954.964 100387.5 -10946.485 100387.5 -10946.485 100374.702 -10873.205 100359.667 -10845.472 100359.375 -10845.117 100359.375 -10845.117 100302.648 -10814.251 100285.547 -10812.305 100285.547 -10812.305 100220.634 -10826.778 100166.131 -10855.117 100137.851 -10874.699 100136.719 -10875.586 100136.719 -10875.586 100137.907 -10967.196 100138.605 -11036.413 100138.944 -11083.792 100139.053 -11109.885 100139.063 -11115.821 100139.063 -11115.821 100140.34 -11198.826 100143.1 -11262.692 100145.736 -11302.534 100146.68 -11313.867 100146.68 -11313.867 100105.664 -11317.383 100105.664 -11317.383 100054.273 -11285.185 100051.758 -11271.68 100051.758 -11271.68 100053.516 -11223.34 100053.516 -11223.34 100055.377 -11159.405 100056.358 -11109.466 100056.446 -11104.102 100056.446 -11104.102 100057.249 -11032.458 100057.563 -10974.25 100057.617 -10946.873 100057.617 -10946.485 100057.617 -10946.485 100038.703 -10864.503 99998.568 -10825.365 99962.124 -10813.225 99952.149 -10812.305 99952.149 -10812.305 99888.023 -10827.449 99833.84 -10857.1 99805.624 -10877.588 99804.492 -10878.516 99804.492 -10878.516 99805.724 -10973.562 99806.425 -11043.585 99806.744 -11089.595 99806.832 -11112.604 99806.836 -11115.821 99806.836 -11115.821 99808.015 -11198.826 99810.563 -11262.692 99812.996 -11302.534 99813.867 -11313.867 99813.867 -11313.867 99773.438 -11317.383 99773.438 -11317.383 99722.047 -11285.185 99719.532 -11271.68 99719.532 -11271.68 99721.302 -11216.907 99722.461 -11183.496 99722.461 -11183.496 99724.428 -11108.533 99725.23 -11048.688 99725.39 -11018.569 99725.391 -11017.383 99725.391 -11017.383 99723.014 -10915.336 99717.347 -10842.821 99710.583 -10795.899 99704.916 -10770.633 99702.539 -10763.086 99702.539 -10763.086"/><path d="M 100611.914 -11158.008 100611.914 -11158.008 100627.131 -11088.438 100640.625 -11068.067 100640.625 -11068.067 100695.682 -11033.286 100719.727 -11024.414 100719.727 -11024.414 100784.274 -11010.775 100850.87 -11001.243 100907.61 -10995.332 100942.591 -10992.555 100948.242 -10992.188 100948.242 -10992.188 100941.144 -10907.255 100928.489 -10862.439 100923.047 -10851.27 100923.047 -10851.27 100870.059 -10819.521 100820.263 -10812.412 100815.821 -10812.305 100815.821 -10812.305 100755.624 -10828.8 100746.387 -10833.692 100746.387 -10833.692 100700.888 -10880.288 100692.188 -10896.094 100692.188 -10896.094 100639.679 -10859.62 100637.11 -10848.047 100637.11 -10848.047 100666.833 -10792.203 100694.825 -10773.047 100694.825 -10773.047 100761.856 -10751.955 100815.414 -10745.416 100829.297 -10744.922 100829.297 -10744.922 100911.608 -10755.259 100961.46 -10775.056 100980.238 -10787.496 100980.469 -10787.695 100980.469 -10787.695 101012.732 -10841.612 101025.88 -10902.647 101028.499 -10939.067 101028.516 -10940.625 101028.516 -10940.625 101027.583 -10998.54 101027.344 -11011.231 101027.344 -11011.231 101026.279 -11084.393 101026.172 -11102.93 101026.172 -11102.93 101029.743 -11193.494 101037.598 -11257.91 101045.453 -11296.399 101049.024 -11309.18 101049.024 -11309.18 101049.024 -11309.18 101002.149 -11318.555 101002.149 -11318.555 100964.942 -11305.957 100964.942 -11305.957 100950.586 -11265.82 100950.586 -11265.82 100884.61 -11305.856 100829.677 -11322.858 100799.36 -11326.697 100797.071 -11326.758 100797.071 -11326.758 100714.216 -11312.324 100660.711 -11276.894 100630.138 -11232.28 100616.078 -11190.289 100612.115 -11162.733 100611.914 -11158.008"/></g><path d="M 101162.696 -11231.25 101162.696 -11231.25 101200.673 -11187.147 101216.602 -11180.86 101216.602 -11180.86 101257.503 -11230.156 101273.731 -11239.746 101273.731 -11239.746 101339.883 -11257.725 101368.946 -11259.961 101368.946 -11259.961 101436.454 -11245.817 101452.442 -11237.11 101452.442 -11237.11 101482.758 -11182.234 101484.375 -11166.211 101484.375 -11166.211 101457.077 -11114.434 101452.442 -11111.133 101452.442 -11111.133 101392.325 -11086.152 101375.098 -11081.543 101375.098 -11081.543 101308.52 -11064.578 101283.985 -11057.52 101283.985 -11057.52 101225.624 -11024.265 101206.348 -11005.371 101206.348 -11005.371 101179.169 -10943.91 101174.421 -10904.375 101174.414 -10903.711 101174.414 -10903.711 101194.409 -10836.198 101227.258 -10796.881 101236.231 -10789.453 101236.231 -10789.453 101301.175 -10757.725 101355.118 -10746.381 101375.977 -10744.922 101375.977 -10744.922 101444.594 -10755.263 101484.175 -10769.116 101486.426 -10770.117 101486.426 -10770.117 101535.35 -10817.792 101540.625 -10839.844 101540.625 -10839.844 101502.648 -10884.53 101486.719 -10890.235 101486.719 -10890.235 101445.802 -10842.443 101432.52 -10833.985 101432.52 -10833.985 101368.124 -10814.029 101347.266 -10812.305 101347.266 -10812.305 101285.456 -10828.897 101276.367 -10834.57 101276.367 -10834.57 101247.291 -10887.932 101246.485 -10897.266 101246.485 -10897.266 101273.429 -10949.753 101278.418 -10953.516 101278.418 -10953.516 101337.734 -10979.735 101355.762 -10984.863 101355.762 -10984.863 101421.363 -11002.082 101446.875 -11009.473 101446.875 -11009.473 101506.009 -11042.077 101524.512 -11059.278 101524.512 -11059.278 101552.454 -11119.812 101556.446 -11153.32 101556.446 -11153.32 101556.446 -11153.32 101540.024 -11225.72 101510.012 -11269.045 101495.215 -11282.52 101495.215 -11282.52 101430.9 -11313.453 101374.645 -11325.019 101349.635 -11326.758 101349.61 -11326.758 101349.61 -11326.758 101275.439 -11317.85 101228.794 -11303.216 101219.532 -11299.219 101219.532 -11299.219 101168.228 -11251.725 101162.696 -11231.25"/><path d="M 101677.149 -10426.758 101677.149 -10426.758 101719.336 -10423.242 101719.336 -10423.242 101771.624 -10454.805 101774.414 -10468.945 101774.414 -10468.945 101772.697 -10522.869 101772.657 -10524.024 101772.657 -10524.024 101770.465 -10589.412 101768.669 -10645.094 101768.262 -10657.91 101768.262 -10657.91 101766.53 -10730.866 101765.794 -10790.358 101765.628 -10822.766 101765.625 -10825.195 101765.625 -10825.195 101830.216 -10778.787 101889.478 -10754.956 101932.81 -10746.176 101949.61 -10744.922 101949.61 -10744.922 101949.61 -10744.922 102023.601 -10759.365 102062.387 -10782.396 102068.262 -10787.695 102068.262 -10787.695 102101.833 -10848.449 102108.914 -10890.036 102108.985 -10892.578 102108.985 -10892.578 102095.116 -10964.003 102071.675 -11008.914 102064.16 -11019.141 102064.16 -11019.141 102008.864 -11060.294 101957.153 -11077.912 101938.477 -11081.25 101938.477 -11081.25 101988.634 -11160.211 102017.94 -11201.2 102028.584 -11214.123 102028.711 -11214.258 102028.711 -11214.258 102086.839 -11250.265 102103.125 -11252.93 102103.125 -11252.93 102134.18 -11247.656 102134.18 -11247.656 102145.313 -11282.813 102145.313 -11282.813 102120.117 -11315.625 102120.117 -11315.625 102072.071 -11326.758 102072.071 -11326.758 102010.191 -11304.73 101985.352 -11283.985 101985.352 -11283.985 101955.176 -11247.949 101955.176 -11247.949 101925.367 -11204.996 101925.293 -11204.883 101925.293 -11204.883 101900.098 -11164.453 101900.098 -11164.453 101872.813 -11118.3 101872.559 -11117.871 101872.559 -11117.871 101848.828 -11077.149 101848.828 -11077.149 101817.188 -11051.953 101817.188 -11051.953 101823.633 -11023.242 101823.633 -11023.242 101882.441 -11031.933 101884.571 -11032.031 101884.571 -11032.031 101956.216 -11015.913 101986.128 -10996.076 101986.817 -10995.41 101986.817 -10995.41 102019.344 -10935.454 102022.852 -10910.742 102022.852 -10910.742 102004.514 -10849.806 101998.242 -10841.016 101998.242 -10841.016 101942.704 -10813.536 101929.102 -10812.305 101929.102 -10812.305 101865.88 -10826.814 101843.848 -10836.914 101843.848 -10836.914 101786.882 -10877.639 101765.625 -10898.438 101765.625 -11072.461 101765.625 -11072.461 101768.225 -11162.058 101774.332 -11230.21 101781.407 -11277.177 101786.909 -11303.221 101788.477 -11309.18 101788.477 -11309.18 101743.36 -11318.555 101743.36 -11318.555 101697.071 -11304.199 101697.071 -11304.199 101684.18 -11256.445 101684.18 -11256.445 101684.18 -11256.445 101684.479 -11206.353 101685.038 -11138.978 101685.351 -11103.847 101685.352 -11103.809 101685.352 -11103.809 101686.068 -11014.596 101686.41 -10953.343 101686.516 -10919.945 101686.524 -10913.086 101686.524 -10773.633 101686.524 -10773.633 101685.954 -10660.547 101684.499 -10573.901 101682.537 -10510.551 101680.449 -10467.352 101678.614 -10441.159 101677.411 -10428.829 101677.149 -10426.758"/></g></svg>