<svg version="1.1" xmlns="http://www.w3.org/2000/svg" xmlns:xlink="http://www.w3.org/1999/xlink" stroke-linecap="round" stroke-linejoin="round" stroke-width="0" fill-rule="evenodd" width="84.4mm" height="44.877mm" viewBox="2800 -46050 84400 44877"><defs><circle cx="0" cy="0" r="600" id="mqIOYf4lL3r7_pad-1"/><circle cx="0" cy="0" r="175" id="mqIOYf4lL3r7_pad-2"/><circle cx="0" cy="0" r="950" id="mqIOYf4lL3r7_pad-3"/><circle cx="0" cy="0" r="500" id="mqIOYf4lL3r7_pad-4"/><circle cx="0" cy="0" r="1700" id="mqIOYf4lL3r7_pad-5"/><circle cx="0" cy="0" r="1250" id="mqIOYf4lL3r7_pad-6"/></defs><g transform="translate(0,-47223) scale(1,-1)" fill="currentColor" stroke="currentColor"><use xlink:href="#mqIOYf4lL3r7_pad-1" x="80750" y="-35350"/><use xlink:href="#mqIOYf4lL3r7_pad-1" x="85750" y="-37450"/><use xlink:href="#mqIOYf4lL3r7_pad-1" x="75530" y="-45450"/><use xlink:href="#mqIOYf4lL3r7_pad-1" x="9250" y="-2850"/><use xlink:href="#mqIOYf4lL3r7_pad-1" x="14250" y="-4950"/><use xlink:href="#mqIOYf4lL3r7_pad-1" x="4030" y="-12950"/><use xlink:href="#mqIOYf4lL3r7_pad-1" x="9250" y="-35350"/><use xlink:href="#mqIOYf4lL3r7_pad-1" x="14250" y="-37450"/><use xlink:href="#mqIOYf4lL3r7_pad-1" x="4030" y="-45450"/><use xlink:href="#mqIOYf4lL3r7_pad-1" x="80750" y="-2850"/><use xlink:href="#mqIOYf4lL3r7_pad-1" x="85750" y="-4950"/><use xlink:href="#mqIOYf4lL3r7_pad-1" x="75530" y="-12950"/><use xlink:href="#mqIOYf4lL3r7_pad-2" x="16600" y="-24000"/><use xlink:href="#mqIOYf4lL3r7_pad-2" x="6414.063" y="-26111.229"/><use xlink:href="#mqIOYf4lL3r7_pad-2" x="8908.844" y="-30938.127"/><use xlink:href="#mqIOYf4lL3r7_pad-3" x="75250" y="-41250"/><use xlink:href="#mqIOYf4lL3r7_pad-3" x="86250" y="-41250"/><use xlink:href="#mqIOYf4lL3r7_pad-3" x="3750" y="-8750"/><use xlink:href="#mqIOYf4lL3r7_pad-3" x="14750" y="-8750"/><use xlink:href="#mqIOYf4lL3r7_pad-3" x="3750" y="-41250"/><use xlink:href="#mqIOYf4lL3r7_pad-3" x="14750" y="-41250"/><use xlink:href="#mqIOYf4lL3r7_pad-3" x="75250" y="-8750"/><use xlink:href="#mqIOYf4lL3r7_pad-3" x="86250" y="-8750"/><use xlink:href="#mqIOYf4lL3r7_pad-4" x="42460" y="-1927"/><use xlink:href="#mqIOYf4lL3r7_pad-4" x="47540" y="-1927"/><use xlink:href="#mqIOYf4lL3r7_pad-4" x="45000" y="-1673"/><use xlink:href="#mqIOYf4lL3r7_pad-4" x="41190" y="-9600"/><use xlink:href="#mqIOYf4lL3r7_pad-4" x="46270" y="-9600"/><use xlink:href="#mqIOYf4lL3r7_pad-4" x="43730" y="-9600"/><use xlink:href="#mqIOYf4lL3r7_pad-4" x="48810" y="-9600"/><use xlink:href="#mqIOYf4lL3r7_pad-5" x="80750" y="-41250"/><use xlink:href="#mqIOYf4lL3r7_pad-5" x="9250" y="-8750"/><use xlink:href="#mqIOYf4lL3r7_pad-5" x="9250" y="-41250"/><use xlink:href="#mqIOYf4lL3r7_pad-5" x="80750" y="-8750"/><use xlink:href="#mqIOYf4lL3r7_pad-6" x="32100" y="-34830"/><use xlink:href="#mqIOYf4lL3r7_pad-6" x="57900" y="-34830"/></g></svg>