<svg version="1.1" xmlns="http://www.w3.org/2000/svg" xmlns:xlink="http://www.w3.org/1999/xlink" stroke-linecap="round" stroke-linejoin="round" stroke-width="0" fill-rule="evenodd" width="90mm" height="50mm" viewBox="0 -50000 90000 50000"><g transform="translate(0,-50000) scale(1,-1)" fill="currentColor" stroke="currentColor"><path d="M 0 -25000 0 -1000 0 -1000 2.127 -934.25 8.42 -869.635 18.748 -806.288 32.979 -744.34 50.981 -683.923 72.622 -625.168 97.77 -568.208 126.294 -513.174 158.062 -460.199 192.942 -409.413 230.802 -360.949 271.512 -314.937 314.937 -271.512 360.949 -230.802 409.413 -192.942 460.199 -158.062 513.174 -126.294 568.208 -97.77 625.168 -72.622 683.923 -50.981 744.34 -32.979 806.288 -18.748 869.635 -8.42 934.25 -2.127 1000 0 1000 0 45000 0 89000 0 89000 0 89065.75 -2.127 89130.365 -8.42 89193.712 -18.748 89255.66 -32.979 89316.077 -50.981 89374.832 -72.622 89431.792 -97.77 89486.826 -126.294 89539.801 -158.062 89590.587 -192.942 89639.051 -230.802 89685.063 -271.512 89728.488 -314.937 89769.198 -360.949 89807.058 -409.413 89841.938 -460.199 89873.706 -513.174 89902.23 -568.208 89927.378 -625.168 89949.019 -683.923 89967.021 -744.34 89981.252 -806.288 89991.58 -869.635 89997.873 -934.25 90000 -1000 90000 -1000 90000 -25000 90000 -49000 90000 -49000 89997.873 -49065.75 89991.58 -49130.365 89981.252 -49193.712 89967.021 -49255.66 89949.019 -49316.077 89927.378 -49374.832 89902.23 -49431.792 89873.706 -49486.826 89841.938 -49539.801 89807.058 -49590.587 89769.198 -49639.051 89728.488 -49685.063 89685.063 -49728.488 89639.051 -49769.198 89590.587 -49807.058 89539.801 -49841.938 89486.826 -49873.706 89431.792 -49902.23 89374.832 -49927.378 89316.077 -49949.019 89255.66 -49967.021 89193.712 -49981.252 89130.365 -49991.58 89065.75 -49997.873 89000 -50000 89000 -50000 45000 -50000 1000 -50000 1000 -50000 934.25 -49997.873 869.635 -49991.58 806.288 -49981.252 744.34 -49967.021 683.923 -49949.019 625.168 -49927.378 568.208 -49902.23 513.174 -49873.706 460.199 -49841.938 409.413 -49807.058 360.949 -49769.198 314.937 -49728.488 271.512 -49685.063 230.802 -49639.051 192.942 -49590.587 158.062 -49539.801 126.294 -49486.826 97.77 -49431.792 72.622 -49374.832 50.981 -49316.077 32.979 -49255.66 18.748 -49193.712 8.42 -49130.365 2.127 -49065.75 0 -49000 0 -49000 0 -25000" fill="none" stroke-width="50"/></g></svg>