<svg version="1.1" xmlns="http://www.w3.org/2000/svg" xmlns:xlink="http://www.w3.org/1999/xlink" stroke-linecap="round" stroke-linejoin="round" stroke-width="0" fill-rule="evenodd" width="96.53242200000001mm" height="37.627mm" viewBox="3800 -38400 96532.422 37627"><defs><mask id="ZId5ULTxWIjm_clear-1" fill="#000" stroke="#000"><g><rect x="3800" y="-38400" width="90047.852" height="37627" fill="#fff"/><path d="M 93410.156 -6398.829 93410.156 -6398.829 93419.067 -6476.577 93437.619 -6533.587 93453.542 -6565.382 93456.738 -6570.508 93456.738 -6570.508 93510.512 -6618.444 93562.378 -6636.368 93586.499 -6639.063 93586.523 -6639.063 93586.523 -6639.063 93660.509 -6623.214 93704.8 -6594.963 93717.187 -6582.813 93717.187 -6582.813 93749.323 -6521.594 93761.875 -6463.139 93764.059 -6433.255 93764.062 -6432.813 93764.062 -6432.813 93754.871 -6354.953 93735.736 -6297.709 93719.312 -6265.713 93716.016 -6260.547 93716.016 -6260.547 93661.665 -6212.202 93610.255 -6194.124 93586.548 -6191.407 93586.523 -6191.407 93586.523 -6191.407 93512.703 -6207.42 93468.706 -6235.966 93456.445 -6248.243 93456.445 -6248.243 93424.711 -6309.864 93412.316 -6368.475 93410.159 -6398.387 93410.156 -6398.829"/></g></mask><mask id="ZId5ULTxWIjm_clear-2" fill="#000" stroke="#000"><g><rect x="3800" y="-38400" width="90668.359" height="37627" fill="#fff"/><path d="M 94075.781 -6257.618 94075.781 -6257.618 94076.686 -6364.31 94077.321 -6448.442 94077.735 -6512.056 94077.975 -6557.191 94078.088 -6585.889 94078.123 -6600.191 94078.125 -6602.735 94078.125 -6602.735 94141.254 -6628.358 94198.938 -6637.75 94222.266 -6639.063 94222.266 -6639.063 94288.33 -6620.752 94313.965 -6602.442 94313.965 -6602.442 94313.965 -6602.442 94353.742 -6546.459 94367.21 -6513.918 94367.285 -6513.672 94367.285 -6513.672 94380.086 -6445.912 94382.786 -6403.661 94382.812 -6401.172 94382.812 -6401.172 94373.364 -6317.118 94354.865 -6264.788 94342.083 -6243.135 94341.504 -6242.383 94341.504 -6242.383 94283.474 -6201.353 94239.788 -6191.616 94235.156 -6191.407 94235.156 -6191.407 94167.001 -6204.882 94111.508 -6232.39 94079.569 -6254.552 94075.781 -6257.618"/></g></mask><mask id="ZId5ULTxWIjm_clear-3" fill="#000" stroke="#000"><g><rect x="3800" y="-38400" width="92064.062" height="37627" fill="#fff"/><path d="M 95426.367 -6398.829 95426.367 -6398.829 95435.278 -6476.577 95453.83 -6533.587 95469.753 -6565.382 95472.949 -6570.508 95472.949 -6570.508 95526.723 -6618.444 95578.589 -6636.368 95602.709 -6639.063 95602.734 -6639.063 95602.734 -6639.063 95676.72 -6623.214 95721.011 -6594.963 95733.398 -6582.813 95733.398 -6582.813 95765.534 -6521.594 95778.086 -6463.139 95780.27 -6433.255 95780.273 -6432.813 95780.273 -6432.813 95771.082 -6354.953 95751.946 -6297.709 95735.523 -6265.713 95732.227 -6260.547 95732.227 -6260.547 95677.876 -6212.202 95626.466 -6194.124 95602.759 -6191.407 95602.734 -6191.407 95602.734 -6191.407 95528.914 -6207.42 95484.917 -6235.966 95472.656 -6248.243 95472.656 -6248.243 95440.922 -6309.864 95428.527 -6368.475 95426.37 -6398.387 95426.367 -6398.829"/></g></mask><mask id="ZId5ULTxWIjm_clear-4" fill="#000" stroke="#000"><g><rect x="3800" y="-38400" width="92920.703" height="37627" fill="#fff"/><path d="M 96311.719 -6398.829 96311.719 -6398.829 96321.358 -6478.78 96341.427 -6536.803 96358.652 -6568.884 96362.109 -6574.024 96362.109 -6574.024 96418.802 -6623.752 96467.183 -6640.728 96483.984 -6642.579 96483.984 -6642.579 96549.834 -6625.109 96598.835 -6592.41 96618.731 -6574.044 96618.75 -6574.024 96618.75 -6574.024 96617.846 -6452.175 96617.21 -6362.406 96616.796 -6299.935 96616.556 -6259.98 96616.443 -6237.76 96616.409 -6228.492 96616.406 -6227.149 96616.406 -6227.149 96546.855 -6199.519 96500.859 -6191.787 96492.773 -6191.407 96492.773 -6191.407 96420.03 -6206.65 96374.85 -6234.507 96360.352 -6248.243 96360.352 -6248.243 96327.01 -6309.864 96313.988 -6368.475 96311.722 -6398.387 96311.719 -6398.829"/></g></mask><mask id="ZId5ULTxWIjm_clear-5" fill="#000" stroke="#000"><g><rect x="3800" y="-38400" width="93501.953" height="37627" fill="#fff"/><path d="M 96932.812 -6391.797 96932.812 -6391.797 97003.072 -6391.055 97018.945 -6390.625 97018.945 -6390.625 97081.904 -6384.997 97094.531 -6383.301 97094.531 -6383.301 97155.604 -6368.374 97160.742 -6366.309 97160.742 -6366.309 97202.004 -6335.308 97202.051 -6335.254 97202.051 -6335.254 97219.33 -6285.582 97219.336 -6285.157 97219.336 -6285.157 97196.181 -6227.423 97187.695 -6218.36 97187.695 -6218.36 97128.538 -6192.173 97109.18 -6190.235 97109.18 -6190.235 97039.358 -6205.463 96995.946 -6231.202 96986.133 -6239.454 96986.133 -6239.454 96951.366 -6296.09 96936.368 -6355.74 96932.863 -6390.335 96932.812 -6391.797"/></g></mask><mask id="ZId5ULTxWIjm_clear-6" fill="#000" stroke="#000"><g><rect x="3800" y="-38400" width="94500.391" height="37627" fill="#fff"/><path d="M 97907.812 -6257.618 97907.812 -6257.618 97908.717 -6364.31 97909.352 -6448.442 97909.766 -6512.056 97910.006 -6557.191 97910.12 -6585.889 97910.154 -6600.191 97910.156 -6602.735 97910.156 -6602.735 97973.285 -6628.358 98030.969 -6637.75 98054.297 -6639.063 98054.297 -6639.063 98120.361 -6620.752 98145.996 -6602.442 98145.996 -6602.442 98145.996 -6602.442 98185.773 -6546.459 98199.241 -6513.918 98199.316 -6513.672 98199.316 -6513.672 98212.117 -6445.912 98214.817 -6403.661 98214.844 -6401.172 98214.844 -6401.172 98205.396 -6317.118 98186.897 -6264.788 98174.114 -6243.135 98173.535 -6242.383 98173.535 -6242.383 98115.505 -6201.353 98071.819 -6191.616 98067.187 -6191.407 98067.187 -6191.407 97999.032 -6204.882 97943.54 -6232.39 97911.6 -6254.552 97907.812 -6257.618"/></g></mask><mask id="ZId5ULTxWIjm_clear-7" fill="#000" stroke="#000"><g><rect x="3800" y="-38400" width="95044.727" height="37627" fill="#fff"/><path d="M 98491.992 -6537.11 98491.992 -6537.11 98510.759 -6602.31 98523.047 -6616.797 98523.047 -6616.797 98583.248 -6640.929 98602.148 -6642.579 98602.148 -6642.579 98675.264 -6628.121 98723.581 -6601.7 98739.844 -6588.672 98739.844 -6588.672 98738.673 -6533.765 98738.672 -6532.422 98738.672 -6532.422 98740.999 -6463.043 98742.773 -6432.813 98742.773 -6432.813 98690.709 -6438.661 98690.625 -6438.672 98690.625 -6438.672 98643.457 -6444.532 98643.457 -6444.532 98599.512 -6451.563 98599.512 -6451.563 98564.355 -6461.231 98564.355 -6461.231 98533.301 -6474.707 98533.301 -6474.707 98511.621 -6490.821 98511.621 -6490.821 98496.094 -6511.036 98496.094 -6511.036 98491.992 -6537.11"/></g></mask><mask id="ZId5ULTxWIjm_clear-8" fill="#000" stroke="#000"><g><rect x="3800" y="-38400" width="96532.422" height="37627" fill="#fff"/><path d="M 99963.281 -6391.797 99963.281 -6391.797 100033.54 -6391.055 100049.414 -6390.625 100049.414 -6390.625 100112.373 -6384.997 100125 -6383.301 100125 -6383.301 100186.072 -6368.374 100191.211 -6366.309 100191.211 -6366.309 100232.473 -6335.308 100232.519 -6335.254 100232.519 -6335.254 100249.799 -6285.582 100249.805 -6285.157 100249.805 -6285.157 100226.65 -6227.423 100218.164 -6218.36 100218.164 -6218.36 100159.007 -6192.173 100139.648 -6190.235 100139.648 -6190.235 100069.827 -6205.463 100026.414 -6231.202 100016.602 -6239.454 100016.602 -6239.454 99981.835 -6296.09 99966.836 -6355.74 99963.332 -6390.335 99963.281 -6391.797"/></g></mask></defs><g transform="translate(0,-39173) scale(1,-1)" fill="currentColor" stroke="currentColor"><g mask="url(#ZId5ULTxWIjm_clear-8)"><g mask="url(#ZId5ULTxWIjm_clear-7)"><g mask="url(#ZId5ULTxWIjm_clear-6)"><g mask="url(#ZId5ULTxWIjm_clear-5)"><g mask="url(#ZId5ULTxWIjm_clear-4)"><g mask="url(#ZId5ULTxWIjm_clear-3)"><g mask="url(#ZId5ULTxWIjm_clear-2)"><g mask="url(#ZId5ULTxWIjm_clear-1)"><path d="M 23050 -17050 25950 -17050 25950 -19950 23050 -19950 23050 -17050"/><path d="M 23050 -30050 25950 -30050 25950 -32950 23050 -32950 23050 -30050"/><path d="M 83500 -21950 84650 -21950 84650 -21950 84685.355 -21964.645 84700 -22000 84700 -22000 84700 -22500 84700 -23000 84700 -23000 84685.355 -23035.355 84650 -23050 84650 -23050 83500 -23050 82350 -23050 82350 -23050 82314.645 -23035.355 82300 -23000 82300 -23000 82300 -22500 82300 -22000 82300 -22000 82314.645 -21964.645 82350 -21950 82350 -21950 83500 -21950"/><path d="M 83500 -26950 84650 -26950 84650 -26950 84685.355 -26964.645 84700 -27000 84700 -27000 84700 -27500 84700 -28000 84700 -28000 84685.355 -28035.355 84650 -28050 84650 -28050 83500 -28050 82350 -28050 82350 -28050 82314.645 -28035.355 82300 -28000 82300 -28000 82300 -27500 82300 -27000 82300 -27000 82314.645 -26964.645 82350 -26950 82350 -26950 83500 -26950"/><path d="M 83500 -24450 84650 -24450 84650 -24450 84685.355 -24464.645 84700 -24500 84700 -24500 84700 -25000 84700 -25500 84700 -25500 84685.355 -25535.355 84650 -25550 84650 -25550 83500 -25550 82350 -25550 82350 -25550 82314.645 -25535.355 82300 -25500 82300 -25500 82300 -25000 82300 -24500 82300 -24500 82314.645 -24464.645 82350 -24450 82350 -24450 83500 -24450"/><path d="M 78000 -24450 79150 -24450 79150 -24450 79185.355 -24464.645 79200 -24500 79200 -24500 79200 -25000 79200 -25500 79200 -25500 79185.355 -25535.355 79150 -25550 79150 -25550 78000 -25550 76850 -25550 76850 -25550 76814.645 -25535.355 76800 -25500 76800 -25500 76800 -25000 76800 -24500 76800 -24500 76814.645 -24464.645 76850 -24450 76850 -24450 78000 -24450"/><path d="M 78000 -21950 79150 -21950 79150 -21950 79185.355 -21964.645 79200 -22000 79200 -22000 79200 -22500 79200 -23000 79200 -23000 79185.355 -23035.355 79150 -23050 79150 -23050 78000 -23050 76850 -23050 76850 -23050 76814.645 -23035.355 76800 -23000 76800 -23000 76800 -22500 76800 -22000 76800 -22000 76814.645 -21964.645 76850 -21950 76850 -21950 78000 -21950"/><path d="M 78000 -26950 79150 -26950 79150 -26950 79185.355 -26964.645 79200 -27000 79200 -27000 79200 -27500 79200 -28000 79200 -28000 79185.355 -28035.355 79150 -28050 79150 -28050 78000 -28050 76850 -28050 76850 -28050 76814.645 -28035.355 76800 -28000 76800 -28000 76800 -27500 76800 -27000 76800 -27000 76814.645 -26964.645 76850 -26950 76850 -26950 78000 -26950"/><path d="M 13300 -30465 14700 -30465 14700 -30965 13300 -30965 13300 -30465"/><path d="M 3800 -30465 5200 -30465 5200 -30965 3800 -30965 3800 -30465"/><path d="M 13300 -27925 14700 -27925 14700 -28425 13300 -28425 13300 -27925"/><path d="M 13300 -29195 14700 -29195 14700 -29695 13300 -29695 13300 -29195"/><path d="M 13300 -25385 14700 -25385 14700 -25885 13300 -25885 13300 -25385"/><path d="M 13300 -26655 14700 -26655 14700 -27155 13300 -27155 13300 -26655"/><path d="M 13300 -22845 14700 -22845 14700 -23345 13300 -23345 13300 -22845"/><path d="M 13300 -24115 14700 -24115 14700 -24615 13300 -24615 13300 -24115"/><path d="M 13300 -20305 14700 -20305 14700 -20805 13300 -20805 13300 -20305"/><path d="M 13300 -21575 14700 -21575 14700 -22075 13300 -22075 13300 -21575"/><path d="M 13300 -19035 14700 -19035 14700 -19535 13300 -19535 13300 -19035"/><path d="M 3800 -19035 5200 -19035 5200 -19535 3800 -19535 3800 -19035"/><path d="M 3800 -21575 5200 -21575 5200 -22075 3800 -22075 3800 -21575"/><path d="M 3800 -20305 5200 -20305 5200 -20805 3800 -20805 3800 -20305"/><path d="M 3800 -24115 5200 -24115 5200 -24615 3800 -24615 3800 -24115"/><path d="M 3800 -22845 5200 -22845 5200 -23345 3800 -23345 3800 -22845"/><path d="M 3800 -26655 5200 -26655 5200 -27155 3800 -27155 3800 -26655"/><path d="M 3800 -25385 5200 -25385 5200 -25885 3800 -25885 3800 -25385"/><path d="M 3800 -29195 5200 -29195 5200 -29695 3800 -29695 3800 -29195"/><path d="M 3800 -27925 5200 -27925 5200 -28425 3800 -28425 3800 -27925"/><path d="M 42460 -2827 42460 -2827 42519.175 -2825.086 42577.328 -2819.422 42634.341 -2810.126 42690.094 -2797.319 42744.47 -2781.117 42797.349 -2761.641 42848.613 -2739.007 42898.143 -2713.335 42945.821 -2684.744 42991.528 -2653.352 43035.146 -2619.278 43076.556 -2582.64 43115.64 -2543.556 43152.278 -2502.146 43186.352 -2458.528 43217.744 -2412.821 43246.335 -2365.143 43272.007 -2315.613 43294.641 -2264.349 43314.117 -2211.47 43330.319 -2157.094 43343.126 -2101.341 43352.422 -2044.328 43358.086 -1986.175 43360 -1927 43360 -1927 43360 -1927 43358.086 -1867.825 43352.422 -1809.672 43343.126 -1752.659 43330.319 -1696.906 43314.117 -1642.53 43294.641 -1589.651 43272.007 -1538.387 43246.335 -1488.857 43217.744 -1441.179 43186.352 -1395.472 43152.278 -1351.854 43115.64 -1310.444 43076.556 -1271.36 43035.146 -1234.722 42991.528 -1200.648 42945.821 -1169.256 42898.143 -1140.665 42848.613 -1114.993 42797.349 -1092.359 42744.47 -1072.883 42690.094 -1056.681 42634.341 -1043.874 42577.328 -1034.578 42519.175 -1028.914 42460 -1027 42460 -1027 42460 -1027 42400.825 -1028.914 42342.672 -1034.578 42285.659 -1043.874 42229.906 -1056.681 42175.53 -1072.883 42122.651 -1092.359 42071.387 -1114.993 42021.857 -1140.665 41974.179 -1169.256 41928.472 -1200.648 41884.854 -1234.722 41843.444 -1271.36 41804.36 -1310.444 41767.722 -1351.854 41733.648 -1395.472 41702.256 -1441.179 41673.665 -1488.857 41647.993 -1538.387 41625.359 -1589.651 41605.883 -1642.53 41589.681 -1696.906 41576.874 -1752.659 41567.578 -1809.672 41561.914 -1867.825 41560 -1927 41560 -1927 41560 -1927 41561.914 -1986.175 41567.578 -2044.328 41576.874 -2101.341 41589.681 -2157.094 41605.883 -2211.47 41625.359 -2264.349 41647.993 -2315.613 41673.665 -2365.143 41702.256 -2412.821 41733.648 -2458.528 41767.722 -2502.146 41804.36 -2543.556 41843.444 -2582.64 41884.854 -2619.278 41928.472 -2653.352 41974.179 -2684.744 42021.857 -2713.335 42071.387 -2739.007 42122.651 -2761.641 42175.53 -2781.117 42229.906 -2797.319 42285.659 -2810.126 42342.672 -2819.422 42400.825 -2825.086 42460 -2827 42460 -2827"/><path d="M 47540 -2827 47540 -2827 47599.175 -2825.086 47657.328 -2819.422 47714.341 -2810.126 47770.094 -2797.319 47824.47 -2781.117 47877.349 -2761.641 47928.613 -2739.007 47978.143 -2713.335 48025.821 -2684.744 48071.528 -2653.352 48115.146 -2619.278 48156.556 -2582.64 48195.64 -2543.556 48232.278 -2502.146 48266.352 -2458.528 48297.744 -2412.821 48326.335 -2365.143 48352.007 -2315.613 48374.641 -2264.349 48394.117 -2211.47 48410.319 -2157.094 48423.126 -2101.341 48432.422 -2044.328 48438.086 -1986.175 48440 -1927 48440 -1927 48440 -1927 48438.086 -1867.825 48432.422 -1809.672 48423.126 -1752.659 48410.319 -1696.906 48394.117 -1642.53 48374.641 -1589.651 48352.007 -1538.387 48326.335 -1488.857 48297.744 -1441.179 48266.352 -1395.472 48232.278 -1351.854 48195.64 -1310.444 48156.556 -1271.36 48115.146 -1234.722 48071.528 -1200.648 48025.821 -1169.256 47978.143 -1140.665 47928.613 -1114.993 47877.349 -1092.359 47824.47 -1072.883 47770.094 -1056.681 47714.341 -1043.874 47657.328 -1034.578 47599.175 -1028.914 47540 -1027 47540 -1027 47540 -1027 47480.825 -1028.914 47422.672 -1034.578 47365.659 -1043.874 47309.906 -1056.681 47255.53 -1072.883 47202.651 -1092.359 47151.387 -1114.993 47101.857 -1140.665 47054.179 -1169.256 47008.472 -1200.648 46964.854 -1234.722 46923.444 -1271.36 46884.36 -1310.444 46847.722 -1351.854 46813.648 -1395.472 46782.256 -1441.179 46753.665 -1488.857 46727.993 -1538.387 46705.359 -1589.651 46685.883 -1642.53 46669.681 -1696.906 46656.874 -1752.659 46647.578 -1809.672 46641.914 -1867.825 46640 -1927 46640 -1927 46640 -1927 46641.914 -1986.175 46647.578 -2044.328 46656.874 -2101.341 46669.681 -2157.094 46685.883 -2211.47 46705.359 -2264.349 46727.993 -2315.613 46753.665 -2365.143 46782.256 -2412.821 46813.648 -2458.528 46847.722 -2502.146 46884.36 -2543.556 46923.444 -2582.64 46964.854 -2619.278 47008.472 -2653.352 47054.179 -2684.744 47101.857 -2713.335 47151.387 -2739.007 47202.651 -2761.641 47255.53 -2781.117 47309.906 -2797.319 47365.659 -2810.126 47422.672 -2819.422 47480.825 -2825.086 47540 -2827 47540 -2827"/><path d="M 45000 -2573 45000 -2573 45059.175 -2571.086 45117.328 -2565.422 45174.341 -2556.126 45230.094 -2543.319 45284.47 -2527.117 45337.349 -2507.641 45388.613 -2485.007 45438.143 -2459.335 45485.821 -2430.744 45531.528 -2399.352 45575.146 -2365.278 45616.556 -2328.64 45655.64 -2289.556 45692.278 -2248.146 45726.352 -2204.528 45757.744 -2158.821 45786.335 -2111.143 45812.007 -2061.613 45834.641 -2010.349 45854.117 -1957.47 45870.319 -1903.094 45883.126 -1847.341 45892.422 -1790.328 45898.086 -1732.175 45900 -1673 45900 -1673 45900 -1673 45898.086 -1613.825 45892.422 -1555.672 45883.126 -1498.659 45870.319 -1442.906 45854.117 -1388.53 45834.641 -1335.651 45812.007 -1284.387 45786.335 -1234.857 45757.744 -1187.179 45726.352 -1141.472 45692.278 -1097.854 45655.64 -1056.444 45616.556 -1017.36 45575.146 -980.722 45531.528 -946.648 45485.821 -915.256 45438.143 -886.665 45388.613 -860.993 45337.349 -838.359 45284.47 -818.883 45230.094 -802.681 45174.341 -789.874 45117.328 -780.578 45059.175 -774.914 45000 -773 45000 -773 45000 -773 44940.825 -774.914 44882.672 -780.578 44825.659 -789.874 44769.906 -802.681 44715.53 -818.883 44662.651 -838.359 44611.387 -860.993 44561.857 -886.665 44514.179 -915.256 44468.472 -946.648 44424.854 -980.722 44383.444 -1017.36 44344.36 -1056.444 44307.722 -1097.854 44273.648 -1141.472 44242.256 -1187.179 44213.665 -1234.857 44187.993 -1284.387 44165.359 -1335.651 44145.883 -1388.53 44129.681 -1442.906 44116.874 -1498.659 44107.578 -1555.672 44101.914 -1613.825 44100 -1673 44100 -1673 44100 -1673 44101.914 -1732.175 44107.578 -1790.328 44116.874 -1847.341 44129.681 -1903.094 44145.883 -1957.47 44165.359 -2010.349 44187.993 -2061.613 44213.665 -2111.143 44242.256 -2158.821 44273.648 -2204.528 44307.722 -2248.146 44344.36 -2289.556 44383.444 -2328.64 44424.854 -2365.278 44468.472 -2399.352 44514.179 -2430.744 44561.857 -2459.335 44611.387 -2485.007 44662.651 -2507.641 44715.53 -2527.117 44769.906 -2543.319 44825.659 -2556.126 44882.672 -2565.422 44940.825 -2571.086 45000 -2573 45000 -2573"/><path d="M 80750 -36300 80750 -36300 80812.463 -36297.979 80873.847 -36292.001 80934.027 -36282.189 80992.877 -36268.67 81050.273 -36251.568 81106.09 -36231.01 81160.202 -36207.119 81212.484 -36180.021 81262.811 -36149.841 81311.058 -36116.705 81357.099 -36080.738 81400.809 -36042.064 81442.064 -36000.809 81480.738 -35957.099 81516.705 -35911.058 81549.841 -35862.811 81580.021 -35812.484 81607.119 -35760.202 81631.01 -35706.09 81651.568 -35650.273 81668.67 -35592.877 81682.189 -35534.027 81692.001 -35473.847 81697.979 -35412.463 81700 -35350 81700 -35350 81700 -35350 81697.979 -35287.537 81692.001 -35226.153 81682.189 -35165.973 81668.67 -35107.123 81651.568 -35049.727 81631.01 -34993.91 81607.119 -34939.798 81580.021 -34887.516 81549.841 -34837.189 81516.705 -34788.942 81480.738 -34742.901 81442.064 -34699.191 81400.809 -34657.936 81357.099 -34619.262 81311.058 -34583.295 81262.811 -34550.159 81212.484 -34519.979 81160.202 -34492.881 81106.09 -34468.99 81050.273 -34448.432 80992.877 -34431.33 80934.027 -34417.811 80873.847 -34407.999 80812.463 -34402.021 80750 -34400 80750 -34400 80750 -34400 80687.537 -34402.021 80626.153 -34407.999 80565.973 -34417.811 80507.123 -34431.33 80449.727 -34448.432 80393.91 -34468.99 80339.798 -34492.881 80287.516 -34519.979 80237.189 -34550.159 80188.942 -34583.295 80142.901 -34619.262 80099.191 -34657.936 80057.936 -34699.191 80019.262 -34742.901 79983.295 -34788.942 79950.159 -34837.189 79919.979 -34887.516 79892.881 -34939.798 79868.99 -34993.91 79848.432 -35049.727 79831.33 -35107.123 79817.811 -35165.973 79807.999 -35226.153 79802.021 -35287.537 79800 -35350 79800 -35350 79800 -35350 79802.021 -35412.463 79807.999 -35473.847 79817.811 -35534.027 79831.33 -35592.877 79848.432 -35650.273 79868.99 -35706.09 79892.881 -35760.202 79919.979 -35812.484 79950.159 -35862.811 79983.295 -35911.058 80019.262 -35957.099 80057.936 -36000.809 80099.191 -36042.064 80142.901 -36080.738 80188.942 -36116.705 80237.189 -36149.841 80287.516 -36180.021 80339.798 -36207.119 80393.91 -36231.01 80449.727 -36251.568 80507.123 -36268.67 80565.973 -36282.189 80626.153 -36292.001 80687.537 -36297.979 80750 -36300 80750 -36300"/><path d="M 85750 -38400 85750 -38400 85812.463 -38397.979 85873.847 -38392.001 85934.027 -38382.189 85992.877 -38368.67 86050.273 -38351.568 86106.09 -38331.01 86160.202 -38307.119 86212.484 -38280.021 86262.811 -38249.841 86311.058 -38216.705 86357.099 -38180.738 86400.809 -38142.064 86442.064 -38100.809 86480.738 -38057.099 86516.705 -38011.058 86549.841 -37962.811 86580.021 -37912.484 86607.119 -37860.202 86631.01 -37806.09 86651.568 -37750.273 86668.67 -37692.877 86682.189 -37634.027 86692.001 -37573.847 86697.979 -37512.463 86700 -37450 86700 -37450 86700 -37450 86697.979 -37387.537 86692.001 -37326.153 86682.189 -37265.973 86668.67 -37207.123 86651.568 -37149.727 86631.01 -37093.91 86607.119 -37039.798 86580.021 -36987.516 86549.841 -36937.189 86516.705 -36888.942 86480.738 -36842.901 86442.064 -36799.191 86400.809 -36757.936 86357.099 -36719.262 86311.058 -36683.295 86262.811 -36650.159 86212.484 -36619.979 86160.202 -36592.881 86106.09 -36568.99 86050.273 -36548.432 85992.877 -36531.33 85934.027 -36517.811 85873.847 -36507.999 85812.463 -36502.021 85750 -36500 85750 -36500 85750 -36500 85687.537 -36502.021 85626.153 -36507.999 85565.973 -36517.811 85507.123 -36531.33 85449.727 -36548.432 85393.91 -36568.99 85339.798 -36592.881 85287.516 -36619.979 85237.189 -36650.159 85188.942 -36683.295 85142.901 -36719.262 85099.191 -36757.936 85057.936 -36799.191 85019.262 -36842.901 84983.295 -36888.942 84950.159 -36937.189 84919.979 -36987.516 84892.881 -37039.798 84868.99 -37093.91 84848.432 -37149.727 84831.33 -37207.123 84817.811 -37265.973 84807.999 -37326.153 84802.021 -37387.537 84800 -37450 84800 -37450 84800 -37450 84802.021 -37512.463 84807.999 -37573.847 84817.811 -37634.027 84831.33 -37692.877 84848.432 -37750.273 84868.99 -37806.09 84892.881 -37860.202 84919.979 -37912.484 84950.159 -37962.811 84983.295 -38011.058 85019.262 -38057.099 85057.936 -38100.809 85099.191 -38142.064 85142.901 -38180.738 85188.942 -38216.705 85237.189 -38249.841 85287.516 -38280.021 85339.798 -38307.119 85393.91 -38331.01 85449.727 -38351.568 85507.123 -38368.67 85565.973 -38382.189 85626.153 -38392.001 85687.537 -38397.979 85750 -38400 85750 -38400"/><path d="M 56312.588 -31523.956 55468.454 -31523.48 55468.454 -31523.48 55478.682 -31479.65 55488.721 -31434.949 55498.571 -31389.41 55508.229 -31343.066 55517.697 -31295.951 55526.972 -31248.1 55536.054 -31199.545 55544.943 -31150.321 55553.638 -31100.461 55562.138 -31049.999 55570.442 -30998.969 55578.55 -30947.404 55586.46 -30895.339 55594.173 -30842.806 55601.687 -30789.84 55609.002 -30736.475 55616.117 -30682.743 55623.032 -30628.68 55629.745 -30574.318 55636.255 -30519.692 55642.563 -30464.835 55648.668 -30409.78 55654.568 -30354.562 55660.263 -30299.215 55665.752 -30243.771 55671.035 -30188.265 55676.111 -30132.731 55680.978 -30077.202 55685.638 -30021.712 55690.087 -29966.295 55694.327 -29910.984 55698.356 -29855.813 55702.174 -29800.816 55705.779 -29746.027 55709.172 -29691.479 55712.351 -29637.207 55715.315 -29583.243 55718.064 -29529.622 55720.598 -29476.377 55722.915 -29423.542 55725.015 -29371.151 55726.896 -29319.238 55728.56 -29267.836 55730.003 -29216.979 55731.227 -29166.7 55732.23 -29117.034 55733.011 -29068.015 55733.57 -29019.675 55733.906 -28972.049 55734.018 -28925.17 55734.018 -28925.17 55734.018 -28925.17 55733.907 -28878.508 55733.575 -28831.439 55733.022 -28783.982 55732.25 -28736.157 55731.258 -28687.983 55730.047 -28639.481 55728.618 -28590.668 55726.972 -28541.566 55725.109 -28492.194 55723.03 -28442.571 55720.735 -28392.716 55718.226 -28342.65 55715.502 -28292.392 55712.565 -28241.961 55709.414 -28191.377 55706.051 -28140.66 55702.477 -28089.829 55698.691 -28038.903 55694.695 -27987.903 55690.489 -27936.847 55686.073 -27885.756 55681.449 -27834.649 55676.618 -27783.545 55671.578 -27732.464 55666.333 -27681.426 55660.88 -27630.45 55655.223 -27579.556 55649.361 -27528.763 55643.294 -27478.091 55637.024 -27427.559 55630.551 -27377.187 55623.876 -27326.994 55616.999 -27277.001 55609.921 -27227.226 55602.643 -27177.689 55595.165 -27128.41 55587.487 -27079.409 55579.612 -27030.704 55571.538 -26982.316 55563.267 -26934.263 55554.799 -26886.566 55546.136 -26839.244 55537.277 -26792.317 55528.223 -26745.804 55518.975 -26699.725 55509.534 -26654.099 55499.9 -26608.946 55490.074 -26564.285 55480.056 -26520.137 55469.847 -26476.519 55469.847 -26476.519 56312.588 -26476.043 57004.639 -26476.519 57004.639 -26476.519 57002.731 -26476.996 57002.731 -26476.996 57002.731 -26476.996 57040.44 -26480.727 57076.451 -26491.283 57109.118 -26507.902 57109.118 -26507.902 57141.315 -26527.717 57172.851 -26558.575 57195.278 -26609.539 57195.278 -26609.539 57208.792 -26671.505 57221.935 -26734.618 57234.706 -26798.814 57247.1 -26864.027 57259.117 -26930.192 57270.752 -26997.243 57282.004 -27065.114 57292.87 -27133.741 57303.348 -27203.057 57313.434 -27272.998 57323.126 -27343.497 57332.422 -27414.49 57341.319 -27485.91 57349.815 -27557.692 57357.907 -27629.772 57365.592 -27702.083 57372.867 -27774.559 57379.731 -27847.136 57386.181 -27919.748 57392.213 -27992.33 57397.826 -28064.815 57403.017 -28137.139 57407.783 -28209.236 57412.122 -28281.04 57416.032 -28352.487 57419.508 -28423.51 57422.55 -28494.044 57425.154 -28564.023 57427.318 -28633.383 57429.04 -28702.058 57430.316 -28769.981 57431.144 -28837.089 57431.521 -28903.314 57431.547 -28925.182 57431.547 -28925.182 57431.487 -28968.972 57431.307 -29013.508 57431.002 -29058.757 57430.567 -29104.687 57429.999 -29151.263 57429.292 -29198.452 57428.443 -29246.222 57427.447 -29294.539 57426.301 -29343.37 57424.999 -29392.681 57423.537 -29442.44 57421.912 -29492.613 57420.119 -29543.167 57418.153 -29594.069 57416.01 -29645.286 57413.686 -29696.784 57411.177 -29748.529 57408.478 -29800.49 57405.585 -29852.633 57402.494 -29904.924 57399.2 -29957.33 57395.699 -30009.818 57391.987 -30062.355 57388.06 -30114.908 57383.912 -30167.443 57379.541 -30219.927 57374.941 -30272.327 57370.109 -30324.609 57365.039 -30376.742 57359.728 -30428.69 57354.172 -30480.422 57348.365 -30531.903 57342.305 -30583.101 57335.986 -30633.982 57329.404 -30684.514 57322.555 -30734.662 57315.434 -30784.395 57308.038 -30833.677 57300.362 -30882.477 57292.401 -30930.761 57284.152 -30978.496 57275.61 -31025.649 57266.77 -31072.186 57257.629 -31118.074 57248.183 -31163.28 57238.426 -31207.771 57228.354 -31251.514 57217.964 -31294.475 57207.251 -31336.621 57196.21 -31377.918 57196.21 -31377.918 57196.21 -31377.918 57181.016 -31418.384 57156.968 -31464.031 57131.099 -31497.446 57131.099 -31497.446 57091.701 -31515.9 57045.611 -31521.924 57014.362 -31523.483"/><path d="M 33687.412 -26476.044 34531.546 -26476.52 34531.546 -26476.52 34521.318 -26520.35 34511.279 -26565.051 34501.429 -26610.59 34491.771 -26656.934 34482.303 -26704.049 34473.028 -26751.9 34463.946 -26800.455 34455.057 -26849.679 34446.362 -26899.539 34437.862 -26950.001 34429.558 -27001.031 34421.45 -27052.596 34413.54 -27104.661 34405.827 -27157.194 34398.313 -27210.16 34390.998 -27263.525 34383.883 -27317.257 34376.968 -27371.32 34370.255 -27425.682 34363.745 -27480.308 34357.437 -27535.165 34351.332 -27590.22 34345.432 -27645.438 34339.737 -27700.785 34334.248 -27756.229 34328.965 -27811.735 34323.889 -27867.269 34319.022 -27922.798 34314.362 -27978.288 34309.913 -28033.705 34305.673 -28089.016 34301.644 -28144.187 34297.826 -28199.184 34294.221 -28253.973 34290.828 -28308.521 34287.649 -28362.793 34284.685 -28416.757 34281.936 -28470.378 34279.402 -28523.623 34277.085 -28576.458 34274.985 -28628.849 34273.104 -28680.762 34271.44 -28732.164 34269.997 -28783.021 34268.773 -28833.3 34267.77 -28882.966 34266.989 -28931.985 34266.43 -28980.325 34266.094 -29027.951 34265.982 -29074.83 34265.982 -29074.83 34265.982 -29074.83 34266.093 -29121.492 34266.425 -29168.561 34266.978 -29216.018 34267.75 -29263.843 34268.742 -29312.017 34269.953 -29360.519 34271.382 -29409.332 34273.028 -29458.434 34274.891 -29507.806 34276.97 -29557.429 34279.265 -29607.284 34281.774 -29657.35 34284.498 -29707.608 34287.435 -29758.039 34290.586 -29808.623 34293.949 -29859.34 34297.523 -29910.171 34301.309 -29961.097 34305.305 -30012.097 34309.511 -30063.153 34313.927 -30114.244 34318.551 -30165.351 34323.382 -30216.455 34328.422 -30267.536 34333.667 -30318.574 34339.12 -30369.55 34344.777 -30420.444 34350.639 -30471.237 34356.706 -30521.909 34362.976 -30572.441 34369.449 -30622.813 34376.124 -30673.006 34383.001 -30722.999 34390.079 -30772.774 34397.357 -30822.311 34404.835 -30871.59 34412.513 -30920.591 34420.388 -30969.296 34428.462 -31017.684 34436.733 -31065.737 34445.201 -31113.434 34453.864 -31160.756 34462.723 -31207.683 34471.777 -31254.196 34481.025 -31300.275 34490.466 -31345.901 34500.1 -31391.054 34509.926 -31435.715 34519.944 -31479.863 34530.153 -31523.481 34530.153 -31523.481 33687.412 -31523.957 32995.361 -31523.481 32995.361 -31523.481 32997.269 -31523.004 32997.269 -31523.004 32997.269 -31523.004 32959.56 -31519.273 32923.549 -31508.717 32890.882 -31492.098 32890.882 -31492.098 32858.685 -31472.283 32827.149 -31441.425 32804.722 -31390.461 32804.722 -31390.461 32791.208 -31328.495 32778.065 -31265.382 32765.294 -31201.186 32752.9 -31135.973 32740.883 -31069.808 32729.248 -31002.757 32717.996 -30934.886 32707.13 -30866.259 32696.652 -30796.943 32686.566 -30727.002 32676.874 -30656.503 32667.578 -30585.51 32658.681 -30514.09 32650.185 -30442.308 32642.093 -30370.228 32634.408 -30297.917 32627.133 -30225.441 32620.269 -30152.864 32613.819 -30080.252 32607.787 -30007.67 32602.174 -29935.185 32596.983 -29862.861 32592.217 -29790.764 32587.878 -29718.96 32583.968 -29647.513 32580.492 -29576.49 32577.45 -29505.956 32574.846 -29435.977 32572.682 -29366.617 32570.96 -29297.942 32569.684 -29230.019 32568.856 -29162.911 32568.479 -29096.686 32568.453 -29074.818 32568.453 -29074.818 32568.513 -29031.028 32568.693 -28986.492 32568.998 -28941.243 32569.433 -28895.313 32570.001 -28848.737 32570.708 -28801.548 32571.557 -28753.778 32572.553 -28705.461 32573.699 -28656.63 32575.001 -28607.319 32576.463 -28557.56 32578.088 -28507.387 32579.881 -28456.833 32581.847 -28405.931 32583.99 -28354.714 32586.314 -28303.216 32588.823 -28251.471 32591.522 -28199.51 32594.415 -28147.367 32597.506 -28095.076 32600.8 -28042.67 32604.301 -27990.182 32608.013 -27937.645 32611.94 -27885.092 32616.088 -27832.557 32620.459 -27780.073 32625.059 -27727.673 32629.891 -27675.391 32634.961 -27623.258 32640.272 -27571.31 32645.828 -27519.578 32651.635 -27468.097 32657.695 -27416.899 32664.014 -27366.018 32670.596 -27315.486 32677.445 -27265.338 32684.566 -27215.605 32691.962 -27166.323 32699.638 -27117.523 32707.599 -27069.239 32715.848 -27021.504 32724.39 -26974.351 32733.23 -26927.814 32742.371 -26881.926 32751.817 -26836.72 32761.574 -26792.229 32771.646 -26748.486 32782.036 -26705.525 32792.749 -26663.379 32803.79 -26622.082 32803.79 -26622.082 32803.79 -26622.082 32818.984 -26581.616 32843.032 -26535.969 32868.901 -26502.554 32868.901 -26502.554 32908.299 -26484.1 32954.389 -26478.076 32985.638 -26476.517"/><path d="M 45000 -36450 45000 -36450 45123.199 -36449.002 45245.916 -36446.018 45368.134 -36441.063 45489.84 -36434.153 45611.016 -36425.303 45731.648 -36414.529 45851.721 -36401.845 45971.219 -36387.268 46090.126 -36370.812 46208.429 -36352.492 46326.11 -36332.325 46443.156 -36310.325 46559.549 -36286.508 46675.276 -36260.889 46790.321 -36233.483 46904.669 -36204.306 47018.303 -36173.374 47131.209 -36140.701 47243.372 -36106.302 47354.776 -36070.194 47465.406 -36032.391 47575.246 -35992.909 47684.282 -35951.764 47792.497 -35908.969 47899.876 -35864.542 48006.405 -35818.497 48112.067 -35770.849 48216.848 -35721.614 48320.732 -35670.808 48423.704 -35618.445 48525.748 -35564.54 48626.849 -35509.11 48726.992 -35452.17 48826.162 -35393.734 48924.342 -35333.819 49021.518 -35272.439 49117.675 -35209.61 49212.796 -35145.347 49306.868 -35079.666 49399.873 -35012.582 49491.798 -34944.11 49582.626 -34874.266 49672.343 -34803.065 49760.933 -34730.521 49848.38 -34656.652 49934.67 -34581.471 50019.787 -34504.995 50103.715 -34427.239 50186.44 -34348.217 50267.946 -34267.946 50348.217 -34186.44 50427.239 -34103.715 50504.995 -34019.787 50581.471 -33934.67 50656.652 -33848.38 50730.521 -33760.933 50803.065 -33672.343 50874.266 -33582.626 50944.11 -33491.798 51012.582 -33399.873 51079.666 -33306.868 51145.347 -33212.796 51209.61 -33117.675 51272.439 -33021.518 51333.819 -32924.342 51393.734 -32826.162 51452.17 -32726.992 51509.11 -32626.849 51564.54 -32525.748 51618.445 -32423.704 51670.808 -32320.732 51721.614 -32216.848 51770.849 -32112.067 51818.497 -32006.405 51864.542 -31899.876 51908.969 -31792.497 51951.764 -31684.282 51992.909 -31575.246 52032.391 -31465.406 52070.194 -31354.776 52106.302 -31243.372 52140.701 -31131.209 52173.374 -31018.303 52204.306 -30904.669 52233.483 -30790.321 52260.889 -30675.276 52286.508 -30559.549 52310.325 -30443.156 52332.325 -30326.11 52352.492 -30208.429 52370.812 -30090.126 52387.268 -29971.219 52401.845 -29851.721 52414.529 -29731.648 52425.303 -29611.016 52434.153 -29489.84 52441.063 -29368.134 52446.018 -29245.916 52449.002 -29123.199 52450 -29000 52450 -29000 52450 -29000 52449.002 -28876.801 52446.018 -28754.084 52441.063 -28631.866 52434.153 -28510.16 52425.303 -28388.984 52414.529 -28268.352 52401.845 -28148.279 52387.268 -28028.781 52370.812 -27909.874 52352.492 -27791.571 52332.325 -27673.89 52310.325 -27556.844 52286.508 -27440.451 52260.889 -27324.724 52233.483 -27209.679 52204.306 -27095.331 52173.374 -26981.697 52140.701 -26868.791 52106.302 -26756.628 52070.194 -26645.224 52032.391 -26534.594 51992.909 -26424.754 51951.764 -26315.718 51908.969 -26207.503 51864.542 -26100.124 51818.497 -25993.595 51770.849 -25887.933 51721.614 -25783.152 51670.808 -25679.268 51618.445 -25576.296 51564.54 -25474.252 51509.11 -25373.151 51452.17 -25273.008 51393.734 -25173.838 51333.819 -25075.658 51272.439 -24978.482 51209.61 -24882.325 51145.347 -24787.204 51079.666 -24693.132 51012.582 -24600.127 50944.11 -24508.202 50874.266 -24417.374 50803.065 -24327.657 50730.521 -24239.067 50656.652 -24151.62 50581.471 -24065.33 50504.995 -23980.213 50427.239 -23896.285 50348.217 -23813.56 50267.946 -23732.054 50186.44 -23651.783 50103.715 -23572.761 50019.787 -23495.005 49934.67 -23418.529 49848.38 -23343.348 49760.933 -23269.479 49672.343 -23196.935 49582.626 -23125.734 49491.798 -23055.89 49399.873 -22987.418 49306.868 -22920.334 49212.796 -22854.653 49117.675 -22790.39 49021.518 -22727.561 48924.342 -22666.181 48826.162 -22606.266 48726.992 -22547.83 48626.849 -22490.89 48525.748 -22435.46 48423.704 -22381.555 48320.732 -22329.192 48216.848 -22278.386 48112.067 -22229.151 48006.405 -22181.503 47899.876 -22135.458 47792.497 -22091.031 47684.282 -22048.236 47575.246 -22007.091 47465.406 -21967.609 47354.776 -21929.806 47243.372 -21893.698 47131.209 -21859.299 47018.303 -21826.626 46904.669 -21795.694 46790.321 -21766.517 46675.276 -21739.111 46559.549 -21713.492 46443.156 -21689.675 46326.11 -21667.675 46208.429 -21647.508 46090.126 -21629.188 45971.219 -21612.732 45851.721 -21598.155 45731.648 -21585.471 45611.016 -21574.697 45489.84 -21565.847 45368.134 -21558.937 45245.916 -21553.982 45123.199 -21550.998 45000 -21550 45000 -21550 45000 -21550 44876.801 -21550.998 44754.084 -21553.982 44631.866 -21558.937 44510.16 -21565.847 44388.984 -21574.697 44268.352 -21585.471 44148.279 -21598.155 44028.781 -21612.732 43909.874 -21629.188 43791.571 -21647.508 43673.89 -21667.675 43556.844 -21689.675 43440.451 -21713.492 43324.724 -21739.111 43209.679 -21766.517 43095.331 -21795.694 42981.697 -21826.626 42868.791 -21859.299 42756.628 -21893.698 42645.224 -21929.806 42534.594 -21967.609 42424.754 -22007.091 42315.718 -22048.236 42207.503 -22091.031 42100.124 -22135.458 41993.595 -22181.503 41887.933 -22229.151 41783.152 -22278.386 41679.268 -22329.192 41576.296 -22381.555 41474.252 -22435.46 41373.151 -22490.89 41273.008 -22547.83 41173.838 -22606.266 41075.658 -22666.181 40978.482 -22727.561 40882.325 -22790.39 40787.204 -22854.653 40693.132 -22920.334 40600.127 -22987.418 40508.202 -23055.89 40417.374 -23125.734 40327.657 -23196.935 40239.067 -23269.479 40151.62 -23343.348 40065.33 -23418.529 39980.213 -23495.005 39896.285 -23572.761 39813.56 -23651.783 39732.054 -23732.054 39651.783 -23813.56 39572.761 -23896.285 39495.005 -23980.213 39418.529 -24065.33 39343.348 -24151.62 39269.479 -24239.067 39196.935 -24327.657 39125.734 -24417.374 39055.89 -24508.202 38987.418 -24600.127 38920.334 -24693.132 38854.653 -24787.204 38790.39 -24882.325 38727.561 -24978.482 38666.181 -25075.658 38606.266 -25173.838 38547.83 -25273.008 38490.89 -25373.151 38435.46 -25474.252 38381.555 -25576.296 38329.192 -25679.268 38278.386 -25783.152 38229.151 -25887.933 38181.503 -25993.595 38135.458 -26100.124 38091.031 -26207.503 38048.236 -26315.718 38007.091 -26424.754 37967.609 -26534.594 37929.806 -26645.224 37893.698 -26756.628 37859.299 -26868.791 37826.626 -26981.697 37795.694 -27095.331 37766.517 -27209.679 37739.111 -27324.724 37713.492 -27440.451 37689.675 -27556.844 37667.675 -27673.89 37647.508 -27791.571 37629.188 -27909.874 37612.732 -28028.781 37598.155 -28148.279 37585.471 -28268.352 37574.697 -28388.984 37565.847 -28510.16 37558.937 -28631.866 37553.982 -28754.084 37550.998 -28876.801 37550 -29000 37550 -29000 37550 -29000 37550.998 -29123.199 37553.982 -29245.916 37558.937 -29368.134 37565.847 -29489.84 37574.697 -29611.016 37585.471 -29731.648 37598.155 -29851.721 37612.732 -29971.219 37629.188 -30090.126 37647.508 -30208.429 37667.675 -30326.11 37689.675 -30443.156 37713.492 -30559.549 37739.111 -30675.276 37766.517 -30790.321 37795.694 -30904.669 37826.626 -31018.303 37859.299 -31131.209 37893.698 -31243.372 37929.806 -31354.776 37967.609 -31465.406 38007.091 -31575.246 38048.236 -31684.282 38091.031 -31792.497 38135.458 -31899.876 38181.503 -32006.405 38229.151 -32112.067 38278.386 -32216.848 38329.192 -32320.732 38381.555 -32423.704 38435.46 -32525.748 38490.89 -32626.849 38547.83 -32726.992 38606.266 -32826.162 38666.181 -32924.342 38727.561 -33021.518 38790.39 -33117.675 38854.653 -33212.796 38920.334 -33306.868 38987.418 -33399.873 39055.89 -33491.798 39125.734 -33582.626 39196.935 -33672.343 39269.479 -33760.933 39343.348 -33848.38 39418.529 -33934.67 39495.005 -34019.787 39572.761 -34103.715 39651.783 -34186.44 39732.054 -34267.946 39813.56 -34348.217 39896.285 -34427.239 39980.213 -34504.995 40065.33 -34581.471 40151.62 -34656.652 40239.067 -34730.521 40327.657 -34803.065 40417.374 -34874.266 40508.202 -34944.11 40600.127 -35012.582 40693.132 -35079.666 40787.204 -35145.347 40882.325 -35209.61 40978.482 -35272.439 41075.658 -35333.819 41173.838 -35393.734 41273.008 -35452.17 41373.151 -35509.11 41474.252 -35564.54 41576.296 -35618.445 41679.268 -35670.808 41783.152 -35721.614 41887.933 -35770.849 41993.595 -35818.497 42100.124 -35864.542 42207.503 -35908.969 42315.718 -35951.764 42424.754 -35992.909 42534.594 -36032.391 42645.224 -36070.194 42756.628 -36106.302 42868.791 -36140.701 42981.697 -36173.374 43095.331 -36204.306 43209.679 -36233.483 43324.724 -36260.889 43440.451 -36286.508 43556.844 -36310.325 43673.89 -36332.325 43791.571 -36352.492 43909.874 -36370.812 44028.781 -36387.268 44148.279 -36401.845 44268.352 -36414.529 44388.984 -36425.303 44510.16 -36434.153 44631.866 -36441.063 44754.084 -36446.018 44876.801 -36449.002 45000 -36450 45000 -36450"/><path d="M 9250 -3800 9250 -3800 9312.463 -3797.979 9373.847 -3792.001 9434.027 -3782.189 9492.877 -3768.67 9550.273 -3751.568 9606.09 -3731.01 9660.202 -3707.119 9712.484 -3680.021 9762.811 -3649.841 9811.058 -3616.705 9857.099 -3580.738 9900.809 -3542.064 9942.064 -3500.809 9980.738 -3457.099 10016.705 -3411.058 10049.841 -3362.811 10080.021 -3312.484 10107.119 -3260.202 10131.01 -3206.09 10151.568 -3150.273 10168.67 -3092.877 10182.189 -3034.027 10192.001 -2973.847 10197.979 -2912.463 10200 -2850 10200 -2850 10200 -2850 10197.979 -2787.537 10192.001 -2726.153 10182.189 -2665.973 10168.67 -2607.123 10151.568 -2549.727 10131.01 -2493.91 10107.119 -2439.798 10080.021 -2387.516 10049.841 -2337.189 10016.705 -2288.942 9980.738 -2242.901 9942.064 -2199.191 9900.809 -2157.936 9857.099 -2119.262 9811.058 -2083.295 9762.811 -2050.159 9712.484 -2019.979 9660.202 -1992.881 9606.09 -1968.99 9550.273 -1948.432 9492.877 -1931.33 9434.027 -1917.811 9373.847 -1907.999 9312.463 -1902.021 9250 -1900 9250 -1900 9250 -1900 9187.537 -1902.021 9126.153 -1907.999 9065.973 -1917.811 9007.123 -1931.33 8949.727 -1948.432 8893.91 -1968.99 8839.798 -1992.881 8787.516 -2019.979 8737.189 -2050.159 8688.942 -2083.295 8642.901 -2119.262 8599.191 -2157.936 8557.936 -2199.191 8519.262 -2242.901 8483.295 -2288.942 8450.159 -2337.189 8419.979 -2387.516 8392.881 -2439.798 8368.99 -2493.91 8348.432 -2549.727 8331.33 -2607.123 8317.811 -2665.973 8307.999 -2726.153 8302.021 -2787.537 8300 -2850 8300 -2850 8300 -2850 8302.021 -2912.463 8307.999 -2973.847 8317.811 -3034.027 8331.33 -3092.877 8348.432 -3150.273 8368.99 -3206.09 8392.881 -3260.202 8419.979 -3312.484 8450.159 -3362.811 8483.295 -3411.058 8519.262 -3457.099 8557.936 -3500.809 8599.191 -3542.064 8642.901 -3580.738 8688.942 -3616.705 8737.189 -3649.841 8787.516 -3680.021 8839.798 -3707.119 8893.91 -3731.01 8949.727 -3751.568 9007.123 -3768.67 9065.973 -3782.189 9126.153 -3792.001 9187.537 -3797.979 9250 -3800 9250 -3800"/><path d="M 14250 -5900 14250 -5900 14312.463 -5897.979 14373.847 -5892.001 14434.027 -5882.189 14492.877 -5868.67 14550.273 -5851.568 14606.09 -5831.01 14660.202 -5807.119 14712.484 -5780.021 14762.811 -5749.841 14811.058 -5716.705 14857.099 -5680.738 14900.809 -5642.064 14942.064 -5600.809 14980.738 -5557.099 15016.705 -5511.058 15049.841 -5462.811 15080.021 -5412.484 15107.119 -5360.202 15131.01 -5306.09 15151.568 -5250.273 15168.67 -5192.877 15182.189 -5134.027 15192.001 -5073.847 15197.979 -5012.463 15200 -4950 15200 -4950 15200 -4950 15197.979 -4887.537 15192.001 -4826.153 15182.189 -4765.973 15168.67 -4707.123 15151.568 -4649.727 15131.01 -4593.91 15107.119 -4539.798 15080.021 -4487.516 15049.841 -4437.189 15016.705 -4388.942 14980.738 -4342.901 14942.064 -4299.191 14900.809 -4257.936 14857.099 -4219.262 14811.058 -4183.295 14762.811 -4150.159 14712.484 -4119.979 14660.202 -4092.881 14606.09 -4068.99 14550.273 -4048.432 14492.877 -4031.33 14434.027 -4017.811 14373.847 -4007.999 14312.463 -4002.021 14250 -4000 14250 -4000 14250 -4000 14187.537 -4002.021 14126.153 -4007.999 14065.973 -4017.811 14007.123 -4031.33 13949.727 -4048.432 13893.91 -4068.99 13839.798 -4092.881 13787.516 -4119.979 13737.189 -4150.159 13688.942 -4183.295 13642.901 -4219.262 13599.191 -4257.936 13557.936 -4299.191 13519.262 -4342.901 13483.295 -4388.942 13450.159 -4437.189 13419.979 -4487.516 13392.881 -4539.798 13368.99 -4593.91 13348.432 -4649.727 13331.33 -4707.123 13317.811 -4765.973 13307.999 -4826.153 13302.021 -4887.537 13300 -4950 13300 -4950 13300 -4950 13302.021 -5012.463 13307.999 -5073.847 13317.811 -5134.027 13331.33 -5192.877 13348.432 -5250.273 13368.99 -5306.09 13392.881 -5360.202 13419.979 -5412.484 13450.159 -5462.811 13483.295 -5511.058 13519.262 -5557.099 13557.936 -5600.809 13599.191 -5642.064 13642.901 -5680.738 13688.942 -5716.705 13737.189 -5749.841 13787.516 -5780.021 13839.798 -5807.119 13893.91 -5831.01 13949.727 -5851.568 14007.123 -5868.67 14065.973 -5882.189 14126.153 -5892.001 14187.537 -5897.979 14250 -5900 14250 -5900"/><path d="M 20362.474 -5451.587 20107.347 -5358.728 20107.347 -5358.728 20060.046 -5335.674 20019.793 -5304.31 19987.265 -5266.086 19963.137 -5222.453 19948.086 -5174.858 19942.786 -5124.752 19947.915 -5073.584 19957.929 -5038.3 20119.021 -4595.705 20365.617 -3918.186 20855.667 -4096.55 21345.717 -4274.913 21099.12 -4952.432 20938.029 -5395.027 20938.029 -5395.027 20914.974 -5442.328 20883.61 -5482.581 20845.387 -5515.109 20801.753 -5539.237 20754.159 -5554.289 20704.053 -5559.588 20652.885 -5554.46 20617.601 -5544.445 20362.474 -5451.587"/><path d="M 21637.526 -1948.413 21892.653 -2041.272 21892.653 -2041.272 21939.954 -2064.326 21980.207 -2095.69 22012.735 -2133.914 22036.863 -2177.547 22051.914 -2225.142 22057.214 -2275.248 22052.085 -2326.416 22042.071 -2361.7 21880.979 -2804.295 21634.383 -3481.814 21144.333 -3303.45 20654.283 -3125.087 20900.88 -2447.568 21061.971 -2004.973 21061.971 -2004.973 21085.026 -1957.672 21116.39 -1917.419 21154.613 -1884.891 21198.247 -1860.763 21245.841 -1845.711 21295.947 -1840.412 21347.115 -1845.54 21382.399 -1855.555 21637.526 -1948.413"/><path d="M 9250 -36300 9250 -36300 9312.463 -36297.979 9373.847 -36292.001 9434.027 -36282.189 9492.877 -36268.67 9550.273 -36251.568 9606.09 -36231.01 9660.202 -36207.119 9712.484 -36180.021 9762.811 -36149.841 9811.058 -36116.705 9857.099 -36080.738 9900.809 -36042.064 9942.064 -36000.809 9980.738 -35957.099 10016.705 -35911.058 10049.841 -35862.811 10080.021 -35812.484 10107.119 -35760.202 10131.01 -35706.09 10151.568 -35650.273 10168.67 -35592.877 10182.189 -35534.027 10192.001 -35473.847 10197.979 -35412.463 10200 -35350 10200 -35350 10200 -35350 10197.979 -35287.537 10192.001 -35226.153 10182.189 -35165.973 10168.67 -35107.123 10151.568 -35049.727 10131.01 -34993.91 10107.119 -34939.798 10080.021 -34887.516 10049.841 -34837.189 10016.705 -34788.942 9980.738 -34742.901 9942.064 -34699.191 9900.809 -34657.936 9857.099 -34619.262 9811.058 -34583.295 9762.811 -34550.159 9712.484 -34519.979 9660.202 -34492.881 9606.09 -34468.99 9550.273 -34448.432 9492.877 -34431.33 9434.027 -34417.811 9373.847 -34407.999 9312.463 -34402.021 9250 -34400 9250 -34400 9250 -34400 9187.537 -34402.021 9126.153 -34407.999 9065.973 -34417.811 9007.123 -34431.33 8949.727 -34448.432 8893.91 -34468.99 8839.798 -34492.881 8787.516 -34519.979 8737.189 -34550.159 8688.942 -34583.295 8642.901 -34619.262 8599.191 -34657.936 8557.936 -34699.191 8519.262 -34742.901 8483.295 -34788.942 8450.159 -34837.189 8419.979 -34887.516 8392.881 -34939.798 8368.99 -34993.91 8348.432 -35049.727 8331.33 -35107.123 8317.811 -35165.973 8307.999 -35226.153 8302.021 -35287.537 8300 -35350 8300 -35350 8300 -35350 8302.021 -35412.463 8307.999 -35473.847 8317.811 -35534.027 8331.33 -35592.877 8348.432 -35650.273 8368.99 -35706.09 8392.881 -35760.202 8419.979 -35812.484 8450.159 -35862.811 8483.295 -35911.058 8519.262 -35957.099 8557.936 -36000.809 8599.191 -36042.064 8642.901 -36080.738 8688.942 -36116.705 8737.189 -36149.841 8787.516 -36180.021 8839.798 -36207.119 8893.91 -36231.01 8949.727 -36251.568 9007.123 -36268.67 9065.973 -36282.189 9126.153 -36292.001 9187.537 -36297.979 9250 -36300 9250 -36300"/><path d="M 14250 -38400 14250 -38400 14312.463 -38397.979 14373.847 -38392.001 14434.027 -38382.189 14492.877 -38368.67 14550.273 -38351.568 14606.09 -38331.01 14660.202 -38307.119 14712.484 -38280.021 14762.811 -38249.841 14811.058 -38216.705 14857.099 -38180.738 14900.809 -38142.064 14942.064 -38100.809 14980.738 -38057.099 15016.705 -38011.058 15049.841 -37962.811 15080.021 -37912.484 15107.119 -37860.202 15131.01 -37806.09 15151.568 -37750.273 15168.67 -37692.877 15182.189 -37634.027 15192.001 -37573.847 15197.979 -37512.463 15200 -37450 15200 -37450 15200 -37450 15197.979 -37387.537 15192.001 -37326.153 15182.189 -37265.973 15168.67 -37207.123 15151.568 -37149.727 15131.01 -37093.91 15107.119 -37039.798 15080.021 -36987.516 15049.841 -36937.189 15016.705 -36888.942 14980.738 -36842.901 14942.064 -36799.191 14900.809 -36757.936 14857.099 -36719.262 14811.058 -36683.295 14762.811 -36650.159 14712.484 -36619.979 14660.202 -36592.881 14606.09 -36568.99 14550.273 -36548.432 14492.877 -36531.33 14434.027 -36517.811 14373.847 -36507.999 14312.463 -36502.021 14250 -36500 14250 -36500 14250 -36500 14187.537 -36502.021 14126.153 -36507.999 14065.973 -36517.811 14007.123 -36531.33 13949.727 -36548.432 13893.91 -36568.99 13839.798 -36592.881 13787.516 -36619.979 13737.189 -36650.159 13688.942 -36683.295 13642.901 -36719.262 13599.191 -36757.936 13557.936 -36799.191 13519.262 -36842.901 13483.295 -36888.942 13450.159 -36937.189 13419.979 -36987.516 13392.881 -37039.798 13368.99 -37093.91 13348.432 -37149.727 13331.33 -37207.123 13317.811 -37265.973 13307.999 -37326.153 13302.021 -37387.537 13300 -37450 13300 -37450 13300 -37450 13302.021 -37512.463 13307.999 -37573.847 13317.811 -37634.027 13331.33 -37692.877 13348.432 -37750.273 13368.99 -37806.09 13392.881 -37860.202 13419.979 -37912.484 13450.159 -37962.811 13483.295 -38011.058 13519.262 -38057.099 13557.936 -38100.809 13599.191 -38142.064 13642.901 -38180.738 13688.942 -38216.705 13737.189 -38249.841 13787.516 -38280.021 13839.798 -38307.119 13893.91 -38331.01 13949.727 -38351.568 14007.123 -38368.67 14065.973 -38382.189 14126.153 -38392.001 14187.537 -38397.979 14250 -38400 14250 -38400"/><path d="M 41190 -10500 41190 -10500 41249.175 -10498.086 41307.328 -10492.422 41364.341 -10483.126 41420.094 -10470.319 41474.47 -10454.117 41527.349 -10434.641 41578.613 -10412.007 41628.143 -10386.335 41675.821 -10357.744 41721.528 -10326.352 41765.146 -10292.278 41806.556 -10255.64 41845.64 -10216.556 41882.278 -10175.146 41916.352 -10131.528 41947.744 -10085.821 41976.335 -10038.143 42002.007 -9988.613 42024.641 -9937.349 42044.117 -9884.47 42060.319 -9830.094 42073.126 -9774.341 42082.422 -9717.328 42088.086 -9659.175 42090 -9600 42090 -9600 42090 -9600 42088.086 -9540.825 42082.422 -9482.672 42073.126 -9425.659 42060.319 -9369.906 42044.117 -9315.53 42024.641 -9262.651 42002.007 -9211.387 41976.335 -9161.857 41947.744 -9114.179 41916.352 -9068.472 41882.278 -9024.854 41845.64 -8983.444 41806.556 -8944.36 41765.146 -8907.722 41721.528 -8873.648 41675.821 -8842.256 41628.143 -8813.665 41578.613 -8787.993 41527.349 -8765.359 41474.47 -8745.883 41420.094 -8729.681 41364.341 -8716.874 41307.328 -8707.578 41249.175 -8701.914 41190 -8700 41190 -8700 41190 -8700 41130.825 -8701.914 41072.672 -8707.578 41015.659 -8716.874 40959.906 -8729.681 40905.53 -8745.883 40852.651 -8765.359 40801.387 -8787.993 40751.857 -8813.665 40704.179 -8842.256 40658.472 -8873.648 40614.854 -8907.722 40573.444 -8944.36 40534.36 -8983.444 40497.722 -9024.854 40463.648 -9068.472 40432.256 -9114.179 40403.665 -9161.857 40377.993 -9211.387 40355.359 -9262.651 40335.883 -9315.53 40319.681 -9369.906 40306.874 -9425.659 40297.578 -9482.672 40291.914 -9540.825 40290 -9600 40290 -9600 40290 -9600 40291.914 -9659.175 40297.578 -9717.328 40306.874 -9774.341 40319.681 -9830.094 40335.883 -9884.47 40355.359 -9937.349 40377.993 -9988.613 40403.665 -10038.143 40432.256 -10085.821 40463.648 -10131.528 40497.722 -10175.146 40534.36 -10216.556 40573.444 -10255.64 40614.854 -10292.278 40658.472 -10326.352 40704.179 -10357.744 40751.857 -10386.335 40801.387 -10412.007 40852.651 -10434.641 40905.53 -10454.117 40959.906 -10470.319 41015.659 -10483.126 41072.672 -10492.422 41130.825 -10498.086 41190 -10500 41190 -10500"/><path d="M 46270 -10500 46270 -10500 46329.175 -10498.086 46387.328 -10492.422 46444.341 -10483.126 46500.094 -10470.319 46554.47 -10454.117 46607.349 -10434.641 46658.613 -10412.007 46708.143 -10386.335 46755.821 -10357.744 46801.528 -10326.352 46845.146 -10292.278 46886.556 -10255.64 46925.64 -10216.556 46962.278 -10175.146 46996.352 -10131.528 47027.744 -10085.821 47056.335 -10038.143 47082.007 -9988.613 47104.641 -9937.349 47124.117 -9884.47 47140.319 -9830.094 47153.126 -9774.341 47162.422 -9717.328 47168.086 -9659.175 47170 -9600 47170 -9600 47170 -9600 47168.086 -9540.825 47162.422 -9482.672 47153.126 -9425.659 47140.319 -9369.906 47124.117 -9315.53 47104.641 -9262.651 47082.007 -9211.387 47056.335 -9161.857 47027.744 -9114.179 46996.352 -9068.472 46962.278 -9024.854 46925.64 -8983.444 46886.556 -8944.36 46845.146 -8907.722 46801.528 -8873.648 46755.821 -8842.256 46708.143 -8813.665 46658.613 -8787.993 46607.349 -8765.359 46554.47 -8745.883 46500.094 -8729.681 46444.341 -8716.874 46387.328 -8707.578 46329.175 -8701.914 46270 -8700 46270 -8700 46270 -8700 46210.825 -8701.914 46152.672 -8707.578 46095.659 -8716.874 46039.906 -8729.681 45985.53 -8745.883 45932.651 -8765.359 45881.387 -8787.993 45831.857 -8813.665 45784.179 -8842.256 45738.472 -8873.648 45694.854 -8907.722 45653.444 -8944.36 45614.36 -8983.444 45577.722 -9024.854 45543.648 -9068.472 45512.256 -9114.179 45483.665 -9161.857 45457.993 -9211.387 45435.359 -9262.651 45415.883 -9315.53 45399.681 -9369.906 45386.874 -9425.659 45377.578 -9482.672 45371.914 -9540.825 45370 -9600 45370 -9600 45370 -9600 45371.914 -9659.175 45377.578 -9717.328 45386.874 -9774.341 45399.681 -9830.094 45415.883 -9884.47 45435.359 -9937.349 45457.993 -9988.613 45483.665 -10038.143 45512.256 -10085.821 45543.648 -10131.528 45577.722 -10175.146 45614.36 -10216.556 45653.444 -10255.64 45694.854 -10292.278 45738.472 -10326.352 45784.179 -10357.744 45831.857 -10386.335 45881.387 -10412.007 45932.651 -10434.641 45985.53 -10454.117 46039.906 -10470.319 46095.659 -10483.126 46152.672 -10492.422 46210.825 -10498.086 46270 -10500 46270 -10500"/><path d="M 43730 -10500 43730 -10500 43789.175 -10498.086 43847.328 -10492.422 43904.341 -10483.126 43960.094 -10470.319 44014.47 -10454.117 44067.349 -10434.641 44118.613 -10412.007 44168.143 -10386.335 44215.821 -10357.744 44261.528 -10326.352 44305.146 -10292.278 44346.556 -10255.64 44385.64 -10216.556 44422.278 -10175.146 44456.352 -10131.528 44487.744 -10085.821 44516.335 -10038.143 44542.007 -9988.613 44564.641 -9937.349 44584.117 -9884.47 44600.319 -9830.094 44613.126 -9774.341 44622.422 -9717.328 44628.086 -9659.175 44630 -9600 44630 -9600 44630 -9600 44628.086 -9540.825 44622.422 -9482.672 44613.126 -9425.659 44600.319 -9369.906 44584.117 -9315.53 44564.641 -9262.651 44542.007 -9211.387 44516.335 -9161.857 44487.744 -9114.179 44456.352 -9068.472 44422.278 -9024.854 44385.64 -8983.444 44346.556 -8944.36 44305.146 -8907.722 44261.528 -8873.648 44215.821 -8842.256 44168.143 -8813.665 44118.613 -8787.993 44067.349 -8765.359 44014.47 -8745.883 43960.094 -8729.681 43904.341 -8716.874 43847.328 -8707.578 43789.175 -8701.914 43730 -8700 43730 -8700 43730 -8700 43670.825 -8701.914 43612.672 -8707.578 43555.659 -8716.874 43499.906 -8729.681 43445.53 -8745.883 43392.651 -8765.359 43341.387 -8787.993 43291.857 -8813.665 43244.179 -8842.256 43198.472 -8873.648 43154.854 -8907.722 43113.444 -8944.36 43074.36 -8983.444 43037.722 -9024.854 43003.648 -9068.472 42972.256 -9114.179 42943.665 -9161.857 42917.993 -9211.387 42895.359 -9262.651 42875.883 -9315.53 42859.681 -9369.906 42846.874 -9425.659 42837.578 -9482.672 42831.914 -9540.825 42830 -9600 42830 -9600 42830 -9600 42831.914 -9659.175 42837.578 -9717.328 42846.874 -9774.341 42859.681 -9830.094 42875.883 -9884.47 42895.359 -9937.349 42917.993 -9988.613 42943.665 -10038.143 42972.256 -10085.821 43003.648 -10131.528 43037.722 -10175.146 43074.36 -10216.556 43113.444 -10255.64 43154.854 -10292.278 43198.472 -10326.352 43244.179 -10357.744 43291.857 -10386.335 43341.387 -10412.007 43392.651 -10434.641 43445.53 -10454.117 43499.906 -10470.319 43555.659 -10483.126 43612.672 -10492.422 43670.825 -10498.086 43730 -10500 43730 -10500"/><path d="M 48810 -10500 48810 -10500 48869.175 -10498.086 48927.328 -10492.422 48984.341 -10483.126 49040.094 -10470.319 49094.47 -10454.117 49147.349 -10434.641 49198.613 -10412.007 49248.143 -10386.335 49295.821 -10357.744 49341.528 -10326.352 49385.146 -10292.278 49426.556 -10255.64 49465.64 -10216.556 49502.278 -10175.146 49536.352 -10131.528 49567.744 -10085.821 49596.335 -10038.143 49622.007 -9988.613 49644.641 -9937.349 49664.117 -9884.47 49680.319 -9830.094 49693.126 -9774.341 49702.422 -9717.328 49708.086 -9659.175 49710 -9600 49710 -9600 49710 -9600 49708.086 -9540.825 49702.422 -9482.672 49693.126 -9425.659 49680.319 -9369.906 49664.117 -9315.53 49644.641 -9262.651 49622.007 -9211.387 49596.335 -9161.857 49567.744 -9114.179 49536.352 -9068.472 49502.278 -9024.854 49465.64 -8983.444 49426.556 -8944.36 49385.146 -8907.722 49341.528 -8873.648 49295.821 -8842.256 49248.143 -8813.665 49198.613 -8787.993 49147.349 -8765.359 49094.47 -8745.883 49040.094 -8729.681 48984.341 -8716.874 48927.328 -8707.578 48869.175 -8701.914 48810 -8700 48810 -8700 48810 -8700 48750.825 -8701.914 48692.672 -8707.578 48635.659 -8716.874 48579.906 -8729.681 48525.53 -8745.883 48472.651 -8765.359 48421.387 -8787.993 48371.857 -8813.665 48324.179 -8842.256 48278.472 -8873.648 48234.854 -8907.722 48193.444 -8944.36 48154.36 -8983.444 48117.722 -9024.854 48083.648 -9068.472 48052.256 -9114.179 48023.665 -9161.857 47997.993 -9211.387 47975.359 -9262.651 47955.883 -9315.53 47939.681 -9369.906 47926.874 -9425.659 47917.578 -9482.672 47911.914 -9540.825 47910 -9600 47910 -9600 47910 -9600 47911.914 -9659.175 47917.578 -9717.328 47926.874 -9774.341 47939.681 -9830.094 47955.883 -9884.47 47975.359 -9937.349 47997.993 -9988.613 48023.665 -10038.143 48052.256 -10085.821 48083.648 -10131.528 48117.722 -10175.146 48154.36 -10216.556 48193.444 -10255.64 48234.854 -10292.278 48278.472 -10326.352 48324.179 -10357.744 48371.857 -10386.335 48421.387 -10412.007 48472.651 -10434.641 48525.53 -10454.117 48579.906 -10470.319 48635.659 -10483.126 48692.672 -10492.422 48750.825 -10498.086 48810 -10500 48810 -10500"/><path d="M 80750 -3800 80750 -3800 80812.463 -3797.979 80873.847 -3792.001 80934.027 -3782.189 80992.877 -3768.67 81050.273 -3751.568 81106.09 -3731.01 81160.202 -3707.119 81212.484 -3680.021 81262.811 -3649.841 81311.058 -3616.705 81357.099 -3580.738 81400.809 -3542.064 81442.064 -3500.809 81480.738 -3457.099 81516.705 -3411.058 81549.841 -3362.811 81580.021 -3312.484 81607.119 -3260.202 81631.01 -3206.09 81651.568 -3150.273 81668.67 -3092.877 81682.189 -3034.027 81692.001 -2973.847 81697.979 -2912.463 81700 -2850 81700 -2850 81700 -2850 81697.979 -2787.537 81692.001 -2726.153 81682.189 -2665.973 81668.67 -2607.123 81651.568 -2549.727 81631.01 -2493.91 81607.119 -2439.798 81580.021 -2387.516 81549.841 -2337.189 81516.705 -2288.942 81480.738 -2242.901 81442.064 -2199.191 81400.809 -2157.936 81357.099 -2119.262 81311.058 -2083.295 81262.811 -2050.159 81212.484 -2019.979 81160.202 -1992.881 81106.09 -1968.99 81050.273 -1948.432 80992.877 -1931.33 80934.027 -1917.811 80873.847 -1907.999 80812.463 -1902.021 80750 -1900 80750 -1900 80750 -1900 80687.537 -1902.021 80626.153 -1907.999 80565.973 -1917.811 80507.123 -1931.33 80449.727 -1948.432 80393.91 -1968.99 80339.798 -1992.881 80287.516 -2019.979 80237.189 -2050.159 80188.942 -2083.295 80142.901 -2119.262 80099.191 -2157.936 80057.936 -2199.191 80019.262 -2242.901 79983.295 -2288.942 79950.159 -2337.189 79919.979 -2387.516 79892.881 -2439.798 79868.99 -2493.91 79848.432 -2549.727 79831.33 -2607.123 79817.811 -2665.973 79807.999 -2726.153 79802.021 -2787.537 79800 -2850 79800 -2850 79800 -2850 79802.021 -2912.463 79807.999 -2973.847 79817.811 -3034.027 79831.33 -3092.877 79848.432 -3150.273 79868.99 -3206.09 79892.881 -3260.202 79919.979 -3312.484 79950.159 -3362.811 79983.295 -3411.058 80019.262 -3457.099 80057.936 -3500.809 80099.191 -3542.064 80142.901 -3580.738 80188.942 -3616.705 80237.189 -3649.841 80287.516 -3680.021 80339.798 -3707.119 80393.91 -3731.01 80449.727 -3751.568 80507.123 -3768.67 80565.973 -3782.189 80626.153 -3792.001 80687.537 -3797.979 80750 -3800 80750 -3800"/><path d="M 85750 -5900 85750 -5900 85812.463 -5897.979 85873.847 -5892.001 85934.027 -5882.189 85992.877 -5868.67 86050.273 -5851.568 86106.09 -5831.01 86160.202 -5807.119 86212.484 -5780.021 86262.811 -5749.841 86311.058 -5716.705 86357.099 -5680.738 86400.809 -5642.064 86442.064 -5600.809 86480.738 -5557.099 86516.705 -5511.058 86549.841 -5462.811 86580.021 -5412.484 86607.119 -5360.202 86631.01 -5306.09 86651.568 -5250.273 86668.67 -5192.877 86682.189 -5134.027 86692.001 -5073.847 86697.979 -5012.463 86700 -4950 86700 -4950 86700 -4950 86697.979 -4887.537 86692.001 -4826.153 86682.189 -4765.973 86668.67 -4707.123 86651.568 -4649.727 86631.01 -4593.91 86607.119 -4539.798 86580.021 -4487.516 86549.841 -4437.189 86516.705 -4388.942 86480.738 -4342.901 86442.064 -4299.191 86400.809 -4257.936 86357.099 -4219.262 86311.058 -4183.295 86262.811 -4150.159 86212.484 -4119.979 86160.202 -4092.881 86106.09 -4068.99 86050.273 -4048.432 85992.877 -4031.33 85934.027 -4017.811 85873.847 -4007.999 85812.463 -4002.021 85750 -4000 85750 -4000 85750 -4000 85687.537 -4002.021 85626.153 -4007.999 85565.973 -4017.811 85507.123 -4031.33 85449.727 -4048.432 85393.91 -4068.99 85339.798 -4092.881 85287.516 -4119.979 85237.189 -4150.159 85188.942 -4183.295 85142.901 -4219.262 85099.191 -4257.936 85057.936 -4299.191 85019.262 -4342.901 84983.295 -4388.942 84950.159 -4437.189 84919.979 -4487.516 84892.881 -4539.798 84868.99 -4593.91 84848.432 -4649.727 84831.33 -4707.123 84817.811 -4765.973 84807.999 -4826.153 84802.021 -4887.537 84800 -4950 84800 -4950 84800 -4950 84802.021 -5012.463 84807.999 -5073.847 84817.811 -5134.027 84831.33 -5192.877 84848.432 -5250.273 84868.99 -5306.09 84892.881 -5360.202 84919.979 -5412.484 84950.159 -5462.811 84983.295 -5511.058 85019.262 -5557.099 85057.936 -5600.809 85099.191 -5642.064 85142.901 -5680.738 85188.942 -5716.705 85237.189 -5749.841 85287.516 -5780.021 85339.798 -5807.119 85393.91 -5831.01 85449.727 -5851.568 85507.123 -5868.67 85565.973 -5882.189 85626.153 -5892.001 85687.537 -5897.979 85750 -5900 85750 -5900"/><path d="M 16600 -24300 16600 -24300 16648.662 -24296.074 16694.823 -24284.706 16737.867 -24266.515 16777.176 -24242.117 16812.132 -24212.132 16842.117 -24177.176 16866.515 -24137.867 16884.706 -24094.823 16896.074 -24048.662 16900 -24000 16900 -24000 16900 -24000 16896.074 -23951.338 16884.706 -23905.177 16866.515 -23862.133 16842.117 -23822.824 16812.132 -23787.868 16777.176 -23757.883 16737.867 -23733.485 16694.823 -23715.294 16648.662 -23703.926 16600 -23700 16600 -23700 16600 -23700 16551.338 -23703.926 16505.177 -23715.294 16462.133 -23733.485 16422.824 -23757.883 16387.868 -23787.868 16357.883 -23822.824 16333.485 -23862.133 16315.294 -23905.177 16303.926 -23951.338 16300 -24000 16300 -24000 16300 -24000 16303.926 -24048.662 16315.294 -24094.823 16333.485 -24137.867 16357.883 -24177.176 16387.868 -24212.132 16422.824 -24242.117 16462.133 -24266.515 16505.177 -24284.706 16551.338 -24296.074 16600 -24300 16600 -24300"/><path d="M 6414.063 -26411.229 6414.063 -26411.229 6462.725 -26407.303 6508.886 -26395.935 6551.93 -26377.744 6591.239 -26353.346 6626.195 -26323.361 6656.18 -26288.405 6680.578 -26249.096 6698.769 -26206.052 6710.137 -26159.891 6714.063 -26111.229 6714.063 -26111.229 6714.063 -26111.229 6710.137 -26062.567 6698.769 -26016.406 6680.578 -25973.362 6656.18 -25934.053 6626.195 -25899.097 6591.239 -25869.112 6551.93 -25844.714 6508.886 -25826.523 6462.725 -25815.155 6414.063 -25811.229 6414.063 -25811.229 6414.063 -25811.229 6365.401 -25815.155 6319.24 -25826.523 6276.196 -25844.714 6236.887 -25869.112 6201.931 -25899.097 6171.946 -25934.053 6147.548 -25973.362 6129.357 -26016.406 6117.989 -26062.567 6114.063 -26111.229 6114.063 -26111.229 6114.063 -26111.229 6117.989 -26159.891 6129.357 -26206.052 6147.548 -26249.096 6171.946 -26288.405 6201.931 -26323.361 6236.887 -26353.346 6276.196 -26377.744 6319.24 -26395.935 6365.401 -26407.303 6414.063 -26411.229 6414.063 -26411.229"/><path d="M 8908.844 -31238.127 8908.844 -31238.127 8957.506 -31234.201 9003.667 -31222.833 9046.711 -31204.642 9086.02 -31180.244 9120.976 -31150.259 9150.961 -31115.303 9175.359 -31075.994 9193.55 -31032.95 9204.918 -30986.789 9208.844 -30938.127 9208.844 -30938.127 9208.844 -30938.127 9204.918 -30889.465 9193.55 -30843.304 9175.359 -30800.26 9150.961 -30760.951 9120.976 -30725.995 9086.02 -30696.01 9046.711 -30671.612 9003.667 -30653.421 8957.506 -30642.053 8908.844 -30638.127 8908.844 -30638.127 8908.844 -30638.127 8860.182 -30642.053 8814.021 -30653.421 8770.977 -30671.612 8731.668 -30696.01 8696.712 -30725.995 8666.727 -30760.951 8642.329 -30800.26 8624.138 -30843.304 8612.77 -30889.465 8608.844 -30938.127 8608.844 -30938.127 8608.844 -30938.127 8612.77 -30986.789 8624.138 -31032.95 8642.329 -31075.994 8666.727 -31115.303 8696.712 -31150.259 8731.668 -31180.244 8770.977 -31204.642 8814.021 -31222.833 8860.182 -31234.201 8908.844 -31238.127 8908.844 -31238.127"/><path d="M 91400 -5800 92600 -5800 92600 -7000 91400 -7000 91400 -5800"/><path d="M 92850 -6179.102 92850 -6179.102 92867.871 -6143.946 92867.871 -6143.946 92924.878 -6136.381 92929.102 -6136.329 92963.086 -6136.329 92963.086 -6136.329 92959.595 -6057.561 92956.267 -6010.582 92955.469 -6001.563 92955.469 -6001.563 92995.312 -5998.047 92995.312 -5998.047 93049.583 -6028.967 93052.734 -6043.75 93052.734 -6043.75 93050.11 -6102.063 93048.047 -6137.5 93048.047 -6137.5 93143.811 -6136.493 93205.957 -6134.278 93239.539 -6132.062 93249.609 -6131.055 93249.609 -6131.055 93249.609 -6131.055 93254.297 -6159.18 93254.297 -6159.18 93241.699 -6191.407 93241.699 -6191.407 93201.562 -6200.782 93201.562 -6200.782 93143.618 -6201.601 93078.115 -6201.907 93045.737 -6201.954 93045.703 -6201.954 93045.703 -6201.954 93044.605 -6276.151 93043.918 -6346.828 93043.546 -6407.548 93043.392 -6451.872 93043.36 -6473.362 93043.359 -6474.414 93043.359 -6474.414 93050.285 -6560.115 93062.313 -6601.574 93066.797 -6610.059 93066.797 -6610.059 93121.865 -6640.169 93144.141 -6642.579 93144.141 -6642.579 93208.777 -6622.782 93230.273 -6606.25 93230.273 -6606.25 93251.953 -6649.61 93251.953 -6649.61 93221.22 -6690.166 93220.898 -6690.332 93220.898 -6690.332 93159.191 -6705.194 93145.312 -6705.86 93145.312 -6705.86 93067.041 -6691.983 93021.248 -6665.405 93004.594 -6648.706 93004.394 -6648.438 93004.394 -6648.438 92978.504 -6590.592 92966.605 -6528.545 92963.255 -6484.832 92963.086 -6476.758 92963.086 -6476.758 92964.184 -6369.36 92964.871 -6292.231 92965.243 -6241.25 92965.397 -6212.292 92965.429 -6201.234 92965.43 -6200.782 92965.43 -6200.782 92916.402 -6204.519 92856.554 -6209.325 92853.516 -6209.571 92853.516 -6209.571 92850 -6179.102"/><path d="M 93325.781 -6415.821 93325.781 -6415.821 93334.711 -6336.638 93355.361 -6274.311 93378.523 -6230.636 93394.987 -6207.411 93397.852 -6204.004 93397.852 -6204.004 93455.21 -6159.133 93514.593 -6135.27 93562.636 -6125.78 93585.974 -6124.029 93586.523 -6124.024 93586.523 -6124.024 93663.016 -6135.633 93721.473 -6161.616 93759.758 -6188.704 93775.731 -6203.631 93776.074 -6204.004 93776.074 -6204.004 93813.789 -6262.365 93835.246 -6324.049 93845.03 -6377.32 93847.727 -6410.443 93847.852 -6415.821 93847.852 -6415.821 93838.207 -6498.098 93816.26 -6561.712 93792.491 -6604.739 93777.379 -6625.253 93776.074 -6626.758 93776.074 -6626.758 93718.71 -6671.136 93659.034 -6694.737 93610.629 -6704.123 93587.078 -6705.855 93586.523 -6705.86 93586.523 -6705.86 93510.646 -6694.378 93452.443 -6668.681 93414.198 -6641.89 93398.196 -6627.128 93397.852 -6626.758 93397.852 -6626.758 93359.982 -6568.859 93338.438 -6507.439 93328.614 -6454.287 93325.906 -6421.197 93325.781 -6415.821"/></g><path d="M 93973.828 -6142.188 93973.828 -6142.188 94020.703 -6132.813 94020.703 -6132.813 94068.166 -6168.93 94072.266 -6192.579 94072.266 -6192.579 94140.399 -6152.945 94201.172 -6132.593 94244.806 -6125.095 94261.523 -6124.024 94261.523 -6124.024 94261.523 -6124.024 94335.449 -6138.698 94386.249 -6167.431 94409.211 -6187.285 94410.059 -6188.184 94410.059 -6188.184 94443.764 -6245.784 94461.072 -6309.949 94467.448 -6362.084 94468.359 -6383.594 94468.359 -6383.594 94468.359 -6383.594 94461.775 -6459.919 94449.164 -6516.07 94441.241 -6540.872 94441.113 -6541.211 94441.113 -6541.211 94405.672 -6604.637 94369.438 -6645.678 94354.102 -6659.278 94354.102 -6659.278 94290.81 -6691.85 94234.939 -6704.029 94209.986 -6705.86 94209.961 -6705.86 94209.961 -6705.86 94138.949 -6693.913 94089.443 -6673.164 94075.781 -6665.43 94075.781 -6665.43 94076.306 -6722.43 94076.367 -6728.418 94076.367 -6728.418 94077.349 -6797.617 94077.539 -6805.762 94077.539 -6805.762 94080.22 -6864.14 94080.469 -6868.75 94080.469 -6868.75 94086.722 -6932.415 94087.793 -6939.063 94087.793 -6939.063 94099.803 -6988.275 94099.805 -6988.282 94099.805 -6988.282 94051.758 -6997.657 94051.758 -6997.657 94005.176 -6982.129 94005.176 -6982.129 94005.176 -6982.129 93993.173 -6929.97 93993.164 -6929.102 93993.164 -6929.102 93993.314 -6861.405 93993.683 -6790.867 93994.148 -6725.525 93994.586 -6673.417 93994.873 -6642.58 93994.922 -6637.598 93994.922 -6637.598 93995.813 -6541.724 93996.337 -6471.644 93996.591 -6425.323 93996.672 -6400.728 93996.68 -6395.313 93996.68 -6395.313 93994.303 -6296.313 93988.636 -6224.454 93981.872 -6176.782 93976.205 -6150.344 93973.828 -6142.188 93973.828 -6142.188"/></g><path d="M 94845.703 -6610.352 94845.703 -6610.352 94883.681 -6566.249 94899.609 -6559.961 94899.609 -6559.961 94940.51 -6609.257 94956.738 -6618.848 94956.738 -6618.848 95022.89 -6636.827 95051.953 -6639.063 95051.953 -6639.063 95119.462 -6624.918 95135.449 -6616.211 95135.449 -6616.211 95165.765 -6561.336 95167.383 -6545.313 95167.383 -6545.313 95140.084 -6493.536 95135.449 -6490.235 95135.449 -6490.235 95075.333 -6465.254 95058.105 -6460.645 95058.105 -6460.645 94991.527 -6443.68 94966.992 -6436.622 94966.992 -6436.622 94908.632 -6403.367 94889.355 -6384.473 94889.355 -6384.473 94862.176 -6323.012 94857.429 -6283.477 94857.422 -6282.813 94857.422 -6282.813 94877.417 -6215.3 94910.265 -6175.983 94919.238 -6168.555 94919.238 -6168.555 94984.183 -6136.826 95038.126 -6125.483 95058.984 -6124.024 95058.984 -6124.024 95127.601 -6134.365 95167.182 -6148.218 95169.434 -6149.219 95169.434 -6149.219 95218.357 -6196.894 95223.633 -6218.946 95223.633 -6218.946 95185.655 -6263.632 95169.727 -6269.336 95169.727 -6269.336 95128.809 -6221.545 95115.527 -6213.086 95115.527 -6213.086 95051.132 -6193.13 95030.273 -6191.407 95030.273 -6191.407 94968.464 -6207.998 94959.375 -6213.672 94959.375 -6213.672 94930.299 -6267.034 94929.492 -6276.368 94929.492 -6276.368 94956.436 -6328.855 94961.426 -6332.618 94961.426 -6332.618 95020.741 -6358.837 95038.769 -6363.965 95038.769 -6363.965 95104.371 -6381.183 95129.883 -6388.575 95129.883 -6388.575 95189.016 -6421.179 95207.519 -6438.379 95207.519 -6438.379 95235.461 -6498.914 95239.453 -6532.422 95239.453 -6532.422 95239.453 -6532.422 95223.032 -6604.822 95193.02 -6648.147 95178.223 -6661.622 95178.223 -6661.622 95113.907 -6692.555 95057.652 -6704.121 95032.642 -6705.86 95032.617 -6705.86 95032.617 -6705.86 94958.447 -6696.952 94911.801 -6682.318 94902.539 -6678.321 94902.539 -6678.321 94851.235 -6630.827 94845.703 -6610.352"/><path d="M 95341.992 -6415.821 95341.992 -6415.821 95350.922 -6336.638 95371.572 -6274.311 95394.734 -6230.636 95411.198 -6207.411 95414.062 -6204.004 95414.062 -6204.004 95471.421 -6159.133 95530.804 -6135.27 95578.847 -6125.78 95602.185 -6124.029 95602.734 -6124.024 95602.734 -6124.024 95679.227 -6135.633 95737.684 -6161.616 95775.969 -6188.704 95791.942 -6203.631 95792.285 -6204.004 95792.285 -6204.004 95830 -6262.365 95851.457 -6324.049 95861.241 -6377.32 95863.938 -6410.443 95864.062 -6415.821 95864.062 -6415.821 95854.418 -6498.098 95832.471 -6561.712 95808.702 -6604.739 95793.59 -6625.253 95792.285 -6626.758 95792.285 -6626.758 95734.921 -6671.136 95675.245 -6694.737 95626.84 -6704.123 95603.289 -6705.855 95602.734 -6705.86 95602.734 -6705.86 95526.857 -6694.378 95468.654 -6668.681 95430.409 -6641.89 95414.407 -6627.128 95414.062 -6626.758 95414.062 -6626.758 95376.193 -6568.859 95354.649 -6507.438 95344.825 -6454.287 95342.117 -6421.197 95341.992 -6415.821"/></g><path d="M 95990.039 -5805.86 95990.039 -5805.86 96032.227 -5802.344 96032.227 -5802.344 96084.515 -5833.907 96087.305 -5848.047 96087.305 -5848.047 96085.765 -5904.789 96085.547 -5912.207 96085.547 -5912.207 96083.705 -5976.627 96082.013 -6037.843 96081.165 -6069.071 96081.152 -6069.532 96081.152 -6069.532 96079.584 -6144.038 96078.807 -6208.111 96078.544 -6251.555 96078.516 -6264.649 96078.516 -6451.563 96078.516 -6451.563 96081.116 -6541.16 96087.223 -6609.312 96094.297 -6656.279 96099.799 -6682.322 96101.367 -6688.282 96101.367 -6688.282 96056.25 -6697.657 96056.25 -6697.657 96009.961 -6683.301 96009.961 -6683.301 95997.07 -6635.547 95997.07 -6635.547 95997.07 -6635.547 95997.369 -6585.454 95997.928 -6518.08 95998.242 -6482.949 95998.242 -6482.911 95998.242 -6482.911 95998.958 -6393.698 95999.3 -6332.444 95999.406 -6299.047 95999.414 -6292.188 95999.414 -6152.735 95999.414 -6152.735 95998.844 -6039.649 95997.389 -5953.003 95995.427 -5889.653 95993.339 -5846.454 95991.504 -5820.261 95990.302 -5807.931 95990.039 -5805.86"/><path d="M 96227.344 -6415.821 96227.344 -6415.821 96236.491 -6337.181 96257.645 -6275.036 96281.372 -6231.333 96298.238 -6208.018 96301.172 -6204.59 96301.172 -6204.59 96360.15 -6158.013 96417.92 -6134.095 96461.847 -6125.283 96479.297 -6124.024 96479.297 -6124.024 96479.297 -6124.024 96550.56 -6135.58 96602.249 -6156.18 96618.75 -6165.039 96618.75 -6165.039 96620.612 -6086.439 96621.08 -6044.792 96621.094 -6040.235 96621.094 -6040.235 96619.932 -5951.904 96617.246 -5882.917 96614.233 -5834.921 96612.091 -5809.562 96611.719 -5805.86 96611.719 -5805.86 96654.492 -5802.344 96654.492 -5802.344 96705.883 -5834.543 96708.398 -5848.047 96708.398 -5848.047 96707.9 -5889.368 96706.693 -5952.903 96705.212 -6022.159 96703.89 -6080.644 96703.163 -6111.862 96703.125 -6113.477 96703.125 -6113.477 96700.977 -6210.156 96699.51 -6287.669 96698.593 -6347.009 96698.098 -6389.17 96697.894 -6415.146 96697.852 -6425.929 96697.852 -6426.368 96697.852 -6426.368 96700.013 -6526.081 96705.243 -6598.9 96711.661 -6648.005 96717.386 -6676.581 96720.537 -6687.811 96720.703 -6688.282 96720.703 -6688.282 96675 -6697.657 96675 -6697.657 96627.199 -6661.539 96622.266 -6637.891 96622.266 -6637.891 96559.194 -6681.533 96503.851 -6700.824 96470.47 -6705.71 96466.406 -6705.86 96465.234 -6705.86 96465.234 -6705.86 96393.808 -6691.149 96338.8 -6659.933 96305.607 -6631.587 96298.242 -6623.829 96298.242 -6623.829 96259.711 -6562.32 96238.508 -6499.268 96229.456 -6447.078 96227.38 -6418.152 96227.344 -6415.821"/></g><path d="M 96846.094 -6418.164 96846.094 -6418.164 96856.004 -6334.22 96878.92 -6270.006 96904.624 -6226.198 96922.895 -6203.468 96926.074 -6200.196 96926.074 -6200.196 96989.159 -6156.159 97049.963 -6133.545 97095.772 -6125.214 97113.867 -6124.024 97113.867 -6124.024 97113.867 -6124.024 97189.338 -6137.396 97236.278 -6161.233 97249.805 -6171.485 97249.805 -6171.485 97290.689 -6231.175 97301.536 -6275.791 97301.953 -6282.813 97301.953 -6282.813 97290.421 -6348.76 97285.254 -6360.743 97285.254 -6360.743 97245.745 -6406.645 97241.602 -6409.668 97241.602 -6409.668 97182.484 -6432.883 97163.672 -6437.207 97163.672 -6437.207 97094.458 -6446.839 97063.477 -6449.219 97063.477 -6449.219 97063.477 -6449.219 96998.324 -6451.031 96944.455 -6451.538 96933.984 -6451.563 96933.984 -6451.563 96952.057 -6526.526 96975.267 -6573.309 96985.84 -6588.379 96985.84 -6588.379 97042.645 -6626.984 97092.348 -6638.362 97103.906 -6639.063 97103.906 -6639.063 97179.297 -6622.249 97220.111 -6591.519 97231.641 -6576.368 97231.641 -6576.368 97277.804 -6619.079 97279.102 -6626.758 97279.102 -6626.758 97243.791 -6674.261 97224.609 -6684.18 97224.609 -6684.18 97156.616 -6701.407 97108.816 -6705.733 97102.734 -6705.86 97102.734 -6705.86 97026.141 -6694.736 96967.895 -6670.264 96930.853 -6645.792 96917.871 -6634.668 96917.871 -6634.668 96917.871 -6634.668 96880.156 -6579.256 96858.699 -6516.338 96848.915 -6459.934 96846.218 -6424.063 96846.094 -6418.164"/></g><path d="M 97427.93 -6136.329 97427.93 -6136.329 97468.945 -6132.813 97468.945 -6132.813 97518.481 -6165.83 97520.508 -6177.93 97520.508 -6177.93 97519.922 -6194.336 97519.922 -6194.336 97519.336 -6220.118 97519.336 -6220.118 97563.492 -6170.23 97583.496 -6153.614 97583.496 -6153.614 97645.738 -6126.063 97662.891 -6124.024 97662.891 -6124.024 97706.25 -6136.622 97706.25 -6136.622 97722.07 -6170.899 97722.07 -6170.899 97699.695 -6222.581 97698.047 -6224.805 97698.047 -6224.805 97643.883 -6202.165 97640.039 -6201.954 97640.039 -6201.954 97581.65 -6222.29 97572.949 -6228.321 97572.949 -6228.321 97528.655 -6278.005 97516.406 -6298.047 97516.406 -6298.047 97515.587 -6355.096 97515.28 -6418.922 97515.234 -6450.358 97515.234 -6450.391 97515.234 -6450.391 97517.834 -6541.043 97523.941 -6609.58 97531.016 -6656.523 97536.518 -6682.393 97538.086 -6688.282 97538.086 -6688.282 97492.383 -6697.657 97492.383 -6697.657 97445.801 -6682.129 97445.801 -6682.129 97445.801 -6682.129 97433.798 -6629.97 97433.789 -6629.102 97433.789 -6629.102 97434.428 -6570.743 97434.961 -6534.473 97434.961 -6534.473 97435.916 -6456.431 97436.13 -6419.448 97436.133 -6416.993 97436.133 -6416.993 97435.431 -6330.65 97433.709 -6258.114 97431.54 -6201.006 97429.499 -6160.946 97428.159 -6139.552 97427.93 -6136.329"/><path d="M 97805.859 -6142.188 97805.859 -6142.188 97852.734 -6132.813 97852.734 -6132.813 97900.197 -6168.93 97904.297 -6192.579 97904.297 -6192.579 97972.43 -6152.945 98033.203 -6132.593 98076.837 -6125.095 98093.555 -6124.024 98093.555 -6124.024 98093.555 -6124.024 98167.481 -6138.698 98218.281 -6167.431 98241.242 -6187.285 98242.09 -6188.184 98242.09 -6188.184 98275.795 -6245.784 98293.103 -6309.949 98299.48 -6362.084 98300.391 -6383.594 98300.391 -6383.594 98300.391 -6383.594 98293.806 -6459.919 98281.195 -6516.07 98273.272 -6540.872 98273.145 -6541.211 98273.145 -6541.211 98237.703 -6604.637 98201.469 -6645.678 98186.133 -6659.278 98186.133 -6659.278 98122.842 -6691.85 98066.97 -6704.029 98042.017 -6705.86 98041.992 -6705.86 98041.992 -6705.86 97970.98 -6693.913 97921.474 -6673.164 97907.812 -6665.43 97907.812 -6665.43 97908.337 -6722.43 97908.398 -6728.418 97908.398 -6728.418 97909.38 -6797.617 97909.57 -6805.762 97909.57 -6805.762 97912.252 -6864.14 97912.5 -6868.75 97912.5 -6868.75 97918.753 -6932.415 97919.824 -6939.063 97919.824 -6939.063 97931.834 -6988.275 97931.836 -6988.282 97931.836 -6988.282 97883.789 -6997.657 97883.789 -6997.657 97837.207 -6982.129 97837.207 -6982.129 97837.207 -6982.129 97825.204 -6929.97 97825.195 -6929.102 97825.195 -6929.102 97825.346 -6861.405 97825.715 -6790.867 97826.179 -6725.525 97826.617 -6673.417 97826.904 -6642.58 97826.953 -6637.598 97826.953 -6637.598 97827.844 -6541.724 97828.368 -6471.644 97828.622 -6425.323 97828.704 -6400.728 97828.711 -6395.313 97828.711 -6395.313 97826.334 -6296.313 97820.667 -6224.454 97813.903 -6176.782 97808.236 -6150.344 97805.859 -6142.188 97805.859 -6142.188"/></g><path d="M 98407.617 -6537.11 98407.617 -6537.11 98422.833 -6467.54 98436.328 -6447.168 98436.328 -6447.168 98491.385 -6412.388 98515.43 -6403.516 98515.43 -6403.516 98579.977 -6389.877 98646.572 -6380.345 98703.313 -6374.434 98738.294 -6371.657 98743.945 -6371.289 98743.945 -6371.289 98736.847 -6286.357 98724.192 -6241.541 98718.75 -6230.372 98718.75 -6230.372 98665.762 -6198.623 98615.966 -6191.514 98611.523 -6191.407 98611.523 -6191.407 98551.327 -6207.902 98542.09 -6212.793 98542.09 -6212.793 98496.591 -6259.39 98487.891 -6275.196 98487.891 -6275.196 98435.382 -6238.722 98432.812 -6227.149 98432.812 -6227.149 98462.536 -6171.304 98490.527 -6152.149 98490.527 -6152.149 98557.559 -6131.056 98611.117 -6124.518 98625 -6124.024 98625 -6124.024 98707.31 -6134.361 98757.163 -6154.158 98775.941 -6166.597 98776.172 -6166.797 98776.172 -6166.797 98808.435 -6220.714 98821.582 -6281.749 98824.202 -6318.169 98824.219 -6319.727 98824.219 -6319.727 98823.285 -6377.642 98823.047 -6390.332 98823.047 -6390.332 98821.982 -6463.495 98821.875 -6482.032 98821.875 -6482.032 98825.446 -6572.596 98833.301 -6637.012 98841.156 -6675.501 98844.727 -6688.282 98844.727 -6688.282 98844.727 -6688.282 98797.852 -6697.657 98797.852 -6697.657 98760.645 -6685.059 98760.645 -6685.059 98746.289 -6644.922 98746.289 -6644.922 98680.313 -6684.958 98625.38 -6701.96 98595.063 -6705.799 98592.773 -6705.86 98592.773 -6705.86 98509.919 -6691.426 98456.414 -6655.996 98425.84 -6611.381 98411.781 -6569.391 98407.818 -6541.835 98407.617 -6537.11"/></g><path d="M 98958.398 -6610.352 98958.398 -6610.352 98996.376 -6566.249 99012.305 -6559.961 99012.305 -6559.961 99053.205 -6609.257 99069.434 -6618.848 99069.434 -6618.848 99135.586 -6636.827 99164.648 -6639.063 99164.648 -6639.063 99232.157 -6624.918 99248.144 -6616.211 99248.144 -6616.211 99278.461 -6561.336 99280.078 -6545.313 99280.078 -6545.313 99252.78 -6493.536 99248.144 -6490.235 99248.144 -6490.235 99188.028 -6465.254 99170.801 -6460.645 99170.801 -6460.645 99104.223 -6443.68 99079.687 -6436.622 99079.687 -6436.622 99021.327 -6403.367 99002.051 -6384.473 99002.051 -6384.473 98974.871 -6323.012 98970.124 -6283.477 98970.117 -6282.813 98970.117 -6282.813 98990.112 -6215.3 99022.961 -6175.983 99031.934 -6168.555 99031.934 -6168.555 99096.878 -6136.826 99150.821 -6125.483 99171.68 -6124.024 99171.68 -6124.024 99240.296 -6134.365 99279.878 -6148.218 99282.129 -6149.219 99282.129 -6149.219 99331.053 -6196.894 99336.328 -6218.946 99336.328 -6218.946 99298.35 -6263.632 99282.422 -6269.336 99282.422 -6269.336 99241.505 -6221.545 99228.223 -6213.086 99228.223 -6213.086 99163.827 -6193.13 99142.969 -6191.407 99142.969 -6191.407 99081.159 -6207.998 99072.07 -6213.672 99072.07 -6213.672 99042.994 -6267.034 99042.187 -6276.368 99042.187 -6276.368 99069.131 -6328.855 99074.121 -6332.618 99074.121 -6332.618 99133.437 -6358.837 99151.465 -6363.965 99151.465 -6363.965 99217.066 -6381.183 99242.578 -6388.575 99242.578 -6388.575 99301.711 -6421.179 99320.215 -6438.379 99320.215 -6438.379 99348.157 -6498.914 99352.148 -6532.422 99352.148 -6532.422 99352.148 -6532.422 99335.727 -6604.822 99305.715 -6648.147 99290.918 -6661.622 99290.918 -6661.622 99226.602 -6692.555 99170.348 -6704.121 99145.338 -6705.86 99145.312 -6705.86 99145.312 -6705.86 99071.142 -6696.952 99024.497 -6682.318 99015.234 -6678.321 99015.234 -6678.321 98963.931 -6630.827 98958.398 -6610.352"/><path d="M 99400.781 -6179.102 99400.781 -6179.102 99418.652 -6143.946 99418.652 -6143.946 99475.659 -6136.381 99479.883 -6136.329 99513.867 -6136.329 99513.867 -6136.329 99510.376 -6057.561 99507.048 -6010.582 99506.25 -6001.563 99506.25 -6001.563 99546.094 -5998.047 99546.094 -5998.047 99600.365 -6028.967 99603.516 -6043.75 99603.516 -6043.75 99600.891 -6102.063 99598.828 -6137.5 99598.828 -6137.5 99694.592 -6136.493 99756.738 -6134.278 99790.32 -6132.062 99800.391 -6131.055 99800.391 -6131.055 99800.391 -6131.055 99805.078 -6159.18 99805.078 -6159.18 99792.48 -6191.407 99792.48 -6191.407 99752.344 -6200.782 99752.344 -6200.782 99694.399 -6201.601 99628.897 -6201.907 99596.519 -6201.954 99596.484 -6201.954 99596.484 -6201.954 99595.386 -6276.151 99594.699 -6346.828 99594.327 -6407.548 99594.173 -6451.872 99594.141 -6473.362 99594.141 -6474.414 99594.141 -6474.414 99601.066 -6560.115 99613.095 -6601.574 99617.578 -6610.059 99617.578 -6610.059 99672.646 -6640.169 99694.922 -6642.579 99694.922 -6642.579 99759.558 -6622.782 99781.055 -6606.25 99781.055 -6606.25 99802.734 -6649.61 99802.734 -6649.61 99772.002 -6690.166 99771.68 -6690.332 99771.68 -6690.332 99709.972 -6705.194 99696.094 -6705.86 99696.094 -6705.86 99617.822 -6691.983 99572.029 -6665.405 99555.375 -6648.706 99555.176 -6648.438 99555.176 -6648.438 99529.285 -6590.592 99517.386 -6528.545 99514.036 -6484.832 99513.867 -6476.758 99513.867 -6476.758 99514.965 -6369.36 99515.652 -6292.231 99516.025 -6241.25 99516.178 -6212.292 99516.211 -6201.234 99516.211 -6200.782 99516.211 -6200.782 99467.184 -6204.519 99407.336 -6209.325 99404.297 -6209.571 99404.297 -6209.571 99400.781 -6179.102"/><path d="M 99876.562 -6418.164 99876.562 -6418.164 99886.472 -6334.22 99909.389 -6270.006 99935.093 -6226.198 99953.364 -6203.468 99956.543 -6200.196 99956.543 -6200.196 100019.627 -6156.159 100080.432 -6133.545 100126.241 -6125.214 100144.336 -6124.024 100144.336 -6124.024 100144.336 -6124.024 100219.807 -6137.396 100266.747 -6161.233 100280.273 -6171.485 100280.273 -6171.485 100321.158 -6231.175 100332.005 -6275.791 100332.422 -6282.813 100332.422 -6282.813 100320.889 -6348.76 100315.723 -6360.743 100315.723 -6360.743 100276.213 -6406.645 100272.07 -6409.668 100272.07 -6409.668 100212.952 -6432.883 100194.141 -6437.207 100194.141 -6437.207 100124.927 -6446.839 100093.945 -6449.219 100093.945 -6449.219 100093.945 -6449.219 100028.793 -6451.031 99974.923 -6451.538 99964.453 -6451.563 99964.453 -6451.563 99982.526 -6526.526 100005.735 -6573.309 100016.309 -6588.379 100016.309 -6588.379 100073.113 -6626.984 100122.816 -6638.362 100134.375 -6639.063 100134.375 -6639.063 100209.766 -6622.249 100250.58 -6591.519 100262.109 -6576.368 100262.109 -6576.368 100308.273 -6619.079 100309.57 -6626.758 100309.57 -6626.758 100274.259 -6674.261 100255.078 -6684.18 100255.078 -6684.18 100187.084 -6701.407 100139.285 -6705.733 100133.203 -6705.86 100133.203 -6705.86 100056.61 -6694.736 99998.364 -6670.264 99961.322 -6645.792 99948.34 -6634.668 99948.34 -6634.668 99948.34 -6634.668 99910.625 -6579.256 99889.168 -6516.338 99879.384 -6459.934 99876.687 -6424.063 99876.562 -6418.164"/></g></g></svg>