<svg version="1.1" xmlns="http://www.w3.org/2000/svg" xmlns:xlink="http://www.w3.org/1999/xlink" stroke-linecap="round" stroke-linejoin="round" stroke-width="0" fill-rule="evenodd" width="97.174902mm" height="30.560517mm" viewBox="4175.293 -30781.963 97174.902 30560.517"><defs><mask id="WxUK41S_NyO-_clear-1" fill="#000" stroke="#000"><g><rect x="40706.225" y="-5011.963" width="8903.887" height="4790.517" fill="#fff"/><path d="M 48527.592 -4085.449 48527.592 -4085.449 48525.083 -4139.607 48523.418 -4206.282 48522.422 -4275.135 48521.925 -4335.823 48521.753 -4378.004 48521.733 -4391.602 48521.733 -4503.662 48521.733 -4503.662 48454.177 -4529.781 48396.767 -4539.548 48371.612 -4541.016 48371.587 -4541.016 48371.587 -4541.016 48294.442 -4529.016 48241.508 -4504.521 48214.822 -4484.786 48211.919 -4482.056 48211.919 -4482.056 48174.767 -4423.628 48158.344 -4364.902 48154.184 -4326.832 48154.057 -4322.022 48154.057 -4322.022 48164.128 -4234.234 48186.284 -4175.354 48208.44 -4142.292 48218.51 -4131.958 48218.51 -4131.958 48218.51 -4131.958 48274.444 -4102.578 48337.931 -4086.953 48391.719 -4080.74 48418.553 -4079.593 48419.194 -4079.59 48419.194 -4079.59 48483.896 -4082.256 48526.863 -4085.389 48527.592 -4085.449"/></g></mask><mask id="WxUK41S_NyO-_clear-2" fill="#000" stroke="#000"><g><rect x="40706.225" y="-5011.963" width="8903.887" height="4790.517" fill="#fff"/><path d="M 47781.987 -4866.944 47781.987 -4866.944 47719.26 -4897.351 47656.695 -4913.522 47607.111 -4919.953 47583.324 -4921.139 47582.768 -4921.143 47582.768 -4921.143 47505.743 -4913.312 47449.482 -4897.65 47421.104 -4885.903 47419.072 -4884.888 47419.072 -4884.888 47358.548 -4841.462 47323.016 -4801.952 47313.237 -4787.842 47313.237 -4787.842 47280.674 -4722.31 47263.543 -4674.472 47260.136 -4662.598 47260.136 -4662.598 47247.778 -4592.507 47243.947 -4540.753 47243.657 -4527.832 47243.657 -4527.832 47249.573 -4440.538 47264.883 -4366.316 47285.936 -4305.192 47309.077 -4257.19 47330.651 -4222.333 47347.006 -4200.645 47354.487 -4192.152 47354.619 -4192.017 47354.619 -4192.017 47409.939 -4148.634 47471.976 -4118.152 47534.64 -4098.295 47591.844 -4086.785 47637.5 -4081.347 47665.518 -4079.702 47671.391 -4079.59 47671.391 -4079.59 47735.254 -4082.783 47767.339 -4085.449 47767.339 -4085.449 47764.285 -4153.887 47762.343 -4222.432 47761.27 -4281.112 47760.821 -4319.957 47760.747 -4330.078 47760.747 -4330.078 47761.341 -4426.091 47762.956 -4513.881 47765.335 -4593.005 47768.223 -4663.02 47771.367 -4723.48 47774.51 -4773.944 47777.399 -4813.965 47779.778 -4843.102 47781.392 -4860.909 47781.987 -4866.944 47781.987 -4866.944"/></g></mask><mask id="WxUK41S_NyO-_clear-3" fill="#000" stroke="#000"><g><rect x="40706.225" y="-5011.963" width="8903.887" height="4790.517" fill="#fff"/><path d="M 44288.335 -4866.944 44288.335 -4866.944 44225.608 -4897.351 44163.043 -4913.522 44113.458 -4919.953 44089.672 -4921.139 44089.116 -4921.143 44089.116 -4921.143 44012.091 -4913.312 43955.83 -4897.65 43927.452 -4885.903 43925.42 -4884.888 43925.42 -4884.888 43864.896 -4841.462 43829.364 -4801.952 43819.585 -4787.842 43819.585 -4787.842 43787.022 -4722.31 43769.89 -4674.472 43766.484 -4662.598 43766.484 -4662.598 43754.125 -4592.507 43750.294 -4540.753 43750.005 -4527.832 43750.005 -4527.832 43755.92 -4440.538 43771.231 -4366.316 43792.284 -4305.192 43815.424 -4257.19 43836.999 -4222.333 43853.354 -4200.645 43860.835 -4192.152 43860.966 -4192.017 43860.966 -4192.017 43916.287 -4148.634 43978.324 -4118.152 44040.988 -4098.295 44098.192 -4086.785 44143.847 -4081.347 44171.865 -4079.702 44177.739 -4079.59 44177.739 -4079.59 44241.601 -4082.783 44273.686 -4085.449 44273.686 -4085.449 44270.632 -4153.887 44268.691 -4222.432 44267.618 -4281.112 44267.169 -4319.957 44267.094 -4330.078 44267.094 -4330.078 44267.689 -4426.091 44269.303 -4513.881 44271.682 -4593.005 44274.571 -4663.02 44277.715 -4723.48 44280.858 -4773.944 44283.747 -4813.965 44286.126 -4843.102 44287.74 -4860.909 44288.335 -4866.944 44288.335 -4866.944"/></g></mask><mask id="WxUK41S_NyO-_clear-4" fill="#000" stroke="#000"><g><rect x="4175.293" y="-30781.963" width="89165.722" height="30560.517" fill="#fff"/><path d="M 92943.75 -12647.266 92943.75 -12647.266 93008.681 -12688.198 93065.165 -12705.78 93097.159 -12709.883 93099.609 -12709.961 93099.609 -12709.961 93167.966 -12690.481 93207.123 -12655.755 93217.675 -12640.821 93217.675 -12640.821 93243.275 -12574.892 93254.147 -12514.596 93256.601 -12479.485 93256.64 -12476.758 93256.64 -12476.758 93247.338 -12394.408 93228.733 -12341.294 93214.78 -12317.226 93213.574 -12315.625 93213.574 -12315.625 93155.518 -12273.256 93111.283 -12262.616 93105.468 -12262.305 93103.711 -12262.305 93103.711 -12262.305 93034.371 -12275.184 92980.072 -12301.474 92949.644 -12322.656 92946.093 -12325.586 92946.093 -12325.586 92946.514 -12384.427 92946.679 -12402.637 92946.679 -12402.637 92947.192 -12476.575 92947.265 -12503.711 92947.265 -12503.711 92947.265 -12503.711 92946.275 -12586.787 92944.509 -12634.42 92943.75 -12647.266"/></g></mask><mask id="WxUK41S_NyO-_clear-5" fill="#000" stroke="#000"><g><rect x="4175.293" y="-30781.963" width="89787.988" height="30560.517" fill="#fff"/><path d="M 93525.586 -12469.727 93525.586 -12469.727 93534.497 -12547.475 93553.049 -12604.485 93568.972 -12636.281 93572.168 -12641.406 93572.168 -12641.406 93625.942 -12689.342 93677.808 -12707.267 93701.928 -12709.961 93701.953 -12709.961 93701.953 -12709.961 93775.938 -12694.113 93820.23 -12665.861 93832.617 -12653.711 93832.617 -12653.711 93864.753 -12592.492 93877.305 -12534.038 93879.489 -12504.153 93879.492 -12503.711 93879.492 -12503.711 93870.301 -12425.851 93851.165 -12368.608 93834.741 -12336.611 93831.445 -12331.445 93831.445 -12331.445 93777.094 -12283.1 93725.684 -12265.022 93701.977 -12262.305 93701.953 -12262.305 93701.953 -12262.305 93628.132 -12278.318 93584.135 -12306.864 93571.875 -12319.141 93571.875 -12319.141 93540.14 -12380.762 93527.745 -12439.373 93525.589 -12469.285 93525.586 -12469.727"/></g></mask><mask id="WxUK41S_NyO-_clear-6" fill="#000" stroke="#000"><g><rect x="4175.293" y="-30781.963" width="91261.621" height="30560.517" fill="#fff"/><path d="M 94999.218 -12469.727 94999.218 -12469.727 95008.129 -12547.475 95026.682 -12604.485 95042.605 -12636.281 95045.8 -12641.406 95045.8 -12641.406 95099.575 -12689.342 95151.44 -12707.267 95175.561 -12709.961 95175.586 -12709.961 95175.586 -12709.961 95249.571 -12694.113 95293.862 -12665.861 95306.25 -12653.711 95306.25 -12653.711 95338.386 -12592.492 95350.938 -12534.038 95353.122 -12504.153 95353.125 -12503.711 95353.125 -12503.711 95343.933 -12425.851 95324.798 -12368.608 95308.374 -12336.611 95305.078 -12331.445 95305.078 -12331.445 95250.727 -12283.1 95199.317 -12265.022 95175.61 -12262.305 95175.586 -12262.305 95175.586 -12262.305 95101.765 -12278.318 95057.768 -12306.864 95045.507 -12319.141 95045.507 -12319.141 95013.773 -12380.762 95001.378 -12439.373 94999.221 -12469.285 94999.218 -12469.727"/></g></mask><mask id="WxUK41S_NyO-_clear-7" fill="#000" stroke="#000"><g><rect x="4175.293" y="-30781.963" width="96006.543" height="30560.517" fill="#fff"/><path d="M 99812.695 -12462.695 99812.695 -12462.695 99882.954 -12461.953 99898.828 -12461.524 99898.828 -12461.524 99961.787 -12455.895 99974.414 -12454.199 99974.414 -12454.199 100035.486 -12439.272 100040.625 -12437.207 100040.625 -12437.207 100081.887 -12406.206 100081.933 -12406.153 100081.933 -12406.153 100099.212 -12356.481 100099.218 -12356.055 100099.218 -12356.055 100076.064 -12298.321 100067.578 -12289.258 100067.578 -12289.258 100008.421 -12263.071 99989.062 -12261.133 99989.062 -12261.133 99919.241 -12276.361 99875.828 -12302.1 99866.015 -12310.352 99866.015 -12310.352 99831.249 -12366.988 99816.25 -12426.638 99812.745 -12461.233 99812.695 -12462.695"/></g></mask><mask id="WxUK41S_NyO-_clear-8" fill="#000" stroke="#000"><g><rect x="4175.293" y="-30781.963" width="96570.214" height="30560.517" fill="#fff"/><path d="M 100376.367 -12462.695 100376.367 -12462.695 100446.626 -12461.953 100462.5 -12461.524 100462.5 -12461.524 100525.459 -12455.895 100538.086 -12454.199 100538.086 -12454.199 100599.158 -12439.272 100604.297 -12437.207 100604.297 -12437.207 100645.559 -12406.206 100645.605 -12406.153 100645.605 -12406.153 100662.884 -12356.481 100662.89 -12356.055 100662.89 -12356.055 100639.735 -12298.321 100631.25 -12289.258 100631.25 -12289.258 100572.092 -12263.071 100552.734 -12261.133 100552.734 -12261.133 100482.913 -12276.361 100439.5 -12302.1 100429.687 -12310.352 100429.687 -12310.352 100394.921 -12366.988 100379.922 -12426.638 100376.417 -12461.233 100376.367 -12462.695"/></g></mask></defs><g transform="translate(0,-31003.409) scale(1,-1)" fill="currentColor" stroke="currentColor"><g mask="url(#WxUK41S_NyO-_clear-8)"><g mask="url(#WxUK41S_NyO-_clear-7)"><g mask="url(#WxUK41S_NyO-_clear-6)"><g mask="url(#WxUK41S_NyO-_clear-5)"><g mask="url(#WxUK41S_NyO-_clear-4)"><g mask="url(#WxUK41S_NyO-_clear-3)"><g mask="url(#WxUK41S_NyO-_clear-2)"><g mask="url(#WxUK41S_NyO-_clear-1)"><path d="M 49168.774 -2526.778 48604.33 -3253.554 41395.669 -3253.554 40831.225 -2526.778" fill="none" stroke-width="250"/><path d="M 40831.225 -1073.223 41395.669 -346.446 48604.33 -346.446 49168.774 -1073.223" fill="none" stroke-width="250"/><path d="M 49610.112 -4010.01 49610.112 -4010.01 49549.942 -3998.549 49541.997 -3998.291 49541.997 -3998.291 49482.465 -4012.814 49478.642 -4015.503 49478.642 -4015.503 49458.687 -4069.554 49458.501 -4074.463 49458.501 -4074.463 49459.44 -4122.205 49461.747 -4187.055 49464.652 -4255.866 49467.385 -4315.491 49469.179 -4352.782 49469.487 -4359.009 49469.487 -4359.009 49473.726 -4451.279 49476.705 -4529.713 49478.645 -4593.875 49479.77 -4643.326 49480.302 -4677.63 49480.462 -4696.348 49480.473 -4699.951 49480.473 -4699.951 49468.176 -4778.53 49443.072 -4831.383 49422.847 -4857.544 49420.049 -4860.352 49420.049 -4860.352 49357.454 -4899.274 49303.576 -4913.828 49279.814 -4916.016 49279.79 -4916.016 49279.79 -4916.016 49209.93 -4907.343 49152.689 -4890.732 49125.633 -4880.295 49125.249 -4880.127 49125.249 -4880.127 49057.3 -4844.018 49012.139 -4812.373 48993.654 -4796.856 48993.413 -4796.631 48993.413 -4796.631 48992.681 -4745.41 48992.68 -4745.362 48992.68 -4745.362 48992.14 -4684.584 48991.964 -4623.259 48991.948 -4603.272 48991.948 -4350.586 48991.948 -4350.586 48992.571 -4260.632 48994.163 -4182.093 48996.308 -4116.201 48998.592 -4064.186 49000.6 -4027.279 49001.915 -4006.712 49002.202 -4002.686 49002.202 -4002.686 48944.249 -3998.321 48940.678 -3998.291 48940.678 -3998.291 48877.152 -4025.999 48867.437 -4055.353 48867.436 -4055.42 48867.436 -4055.42 48870.299 -4109.52 48870.366 -4110.718 48870.366 -4110.718 48873.003 -4171.429 48875.117 -4235.779 48876.183 -4273.197 48876.225 -4274.781 48876.225 -4274.781 48877.655 -4344.598 48878.522 -4414.169 48878.967 -4474.723 48879.132 -4517.488 48879.155 -4533.692 48879.155 -4533.692 48879.155 -4533.692 48878.817 -4639.194 48877.976 -4720.334 48876.892 -4779.291 48875.822 -4818.247 48875.027 -4839.382 48874.76 -4844.971 48874.76 -4844.971 48866.326 -4919.01 48855.514 -4971.468 48850.591 -4989.99 48850.591 -4989.99 48911.412 -5001.393 48921.635 -5001.709 48921.635 -5001.709 48977.355 -4984.799 48979.131 -4983.032 48979.131 -4983.032 48994.409 -4925.369 48994.878 -4913.086 48994.878 -4896.973 48994.878 -4896.973 49052.45 -4937.539 49105.435 -4965.607 49136.39 -4979.159 49138.799 -4980.103 49138.799 -4980.103 49213.284 -5001.945 49268.284 -5010.477 49292.639 -5011.961 49292.973 -5011.963 49292.973 -5011.963 49377.368 -5003.705 49443.024 -4984.608 49488.538 -4963.188 49512.506 -4947.962 49515.996 -4945.313 49515.996 -4945.313 49555.848 -4895.192 49580.021 -4833.504 49592.434 -4773.293 49597.008 -4727.602 49597.661 -4709.473 49597.661 -4709.473 49597.661 -4709.473 49596.911 -4647.294 49595.149 -4580.374 49593.109 -4520.635 49591.521 -4480.003 49591.069 -4469.239 49591.069 -4469.239 49587.487 -4377.198 49585.515 -4309.909 49584.674 -4266.783 49584.481 -4247.232 49584.477 -4245.85 49584.477 -4245.85 49587.654 -4159.279 49594.999 -4089.932 49603.237 -4040.57 49609.093 -4013.954 49610.112 -4010.01"/><path d="M 48653.569 -4005.615 48653.569 -4005.615 48577.949 -3995.754 48511.066 -3990.509 48461.913 -3988.423 48439.479 -3988.038 48438.969 -3988.037 48430.18 -3988.037 48430.18 -3988.037 48331.091 -3995.432 48249.786 -4015.728 48184.504 -4046.093 48133.489 -4083.696 48094.98 -4125.704 48067.22 -4169.285 48048.448 -4211.608 48036.908 -4249.839 48030.839 -4281.149 48028.483 -4302.703 48028.081 -4311.671 48028.081 -4311.768 48028.081 -4311.768 48037.831 -4396.468 48061.081 -4463.08 48088.831 -4511.183 48112.081 -4540.354 48121.831 -4550.171 48121.831 -4550.171 48121.831 -4550.171 48183.692 -4591.943 48245.289 -4616.492 48297.832 -4628.395 48332.53 -4632.231 48341.557 -4632.569 48341.557 -4632.569 48419.711 -4624.031 48478.838 -4605.915 48514.008 -4589.464 48521.733 -4584.961 48521.733 -4692.627 48521.733 -4692.627 48519.537 -4786.509 48514.072 -4862.195 48507.022 -4920.029 48500.072 -4960.356 48494.904 -4983.524 48493.169 -4989.99 48493.169 -4989.99 48553.415 -5001.393 48563.481 -5001.709 48563.481 -5001.709 48619.801 -4984.319 48621.709 -4982.3 48621.709 -4982.3 48636.428 -4924.804 48636.723 -4916.016 48636.723 -4916.016 48636.144 -4859.082 48635.337 -4802.814 48635.258 -4797.73 48635.258 -4797.73 48634.196 -4714.602 48633.833 -4664.811 48633.794 -4650.879 48633.794 -4350.586 48633.794 -4350.586 48634.995 -4262.239 48638.065 -4184.664 48642.203 -4119.241 48646.608 -4067.35 48650.479 -4030.369 48653.015 -4009.678 48653.569 -4005.615"/></g><path d="M 47897.71 -4917.481 47897.71 -4917.481 47891.872 -4870.267 47887.04 -4812.762 47883.122 -4748.559 47880.026 -4681.254 47877.66 -4614.441 47875.93 -4551.715 47874.746 -4496.671 47874.014 -4452.903 47873.643 -4424.006 47873.54 -4413.574 47873.54 -4413.574 47873.54 -4413.574 47874.455 -4317.282 47876.855 -4233.185 47880.217 -4161.669 47884.02 -4103.119 47887.743 -4057.923 47890.865 -4026.467 47892.863 -4009.136 47893.315 -4005.615 47893.315 -4005.615 47828.139 -3996.062 47760.862 -3990.805 47704.957 -3988.561 47673.898 -3988.046 47671.391 -3988.037 47660.405 -3988.037 47660.405 -3988.037 47581.211 -3991.705 47516.147 -3999.914 47470.862 -4008.472 47451.006 -4013.188 47450.566 -4013.306 47450.566 -4013.306 47380.1 -4038.858 47323.671 -4067.69 47288.588 -4089.464 47280.644 -4094.971 47280.644 -4094.971 47229.277 -4143.482 47191.609 -4195.221 47168.429 -4236.386 47160.527 -4253.174 47160.527 -4253.174 47160.527 -4253.174 47138.805 -4321.036 47126.04 -4389.536 47119.851 -4448.458 47117.856 -4487.587 47117.68 -4497.803 47117.68 -4497.803 47123.243 -4581.288 47137.818 -4655.791 47158.239 -4720.463 47181.341 -4774.453 47203.955 -4816.913 47222.915 -4846.992 47235.054 -4863.842 47237.798 -4867.31 47237.798 -4867.31 47293.345 -4919.956 47355.534 -4957.972 47419.037 -4983.74 47478.522 -4999.641 47528.66 -5008.057 47564.121 -5011.371 47579.575 -5011.962 47579.839 -5011.963 47579.839 -5011.963 47665.349 -5006.223 47738.292 -4991.555 47798.164 -4971.784 47844.46 -4950.739 47876.675 -4932.244 47894.307 -4920.126 47897.71 -4917.481"/></g><path d="M 46945.561 -4002.686 46945.561 -4002.686 46887.608 -3998.321 46884.038 -3998.291 46884.038 -3998.291 46820.511 -4025.999 46810.796 -4055.353 46810.796 -4055.42 46810.796 -4055.42 46813.5 -4111.832 46813.725 -4115.845 46813.725 -4115.845 46816.979 -4181.852 46819.19 -4234.627 46819.585 -4244.751 46819.585 -4244.751 46821.71 -4320.405 46822.435 -4374.486 46822.514 -4391.602 46822.514 -4692.627 46822.514 -4692.627 46820.318 -4786.509 46814.854 -4862.195 46807.804 -4920.029 46800.853 -4960.356 46795.685 -4983.524 46793.95 -4989.99 46793.95 -4989.99 46854.484 -5001.393 46864.629 -5001.709 46864.629 -5001.709 46921.11 -4984.508 46923.222 -4982.3 46923.222 -4982.3 46937.941 -4924.804 46938.237 -4916.016 46938.237 -4916.016 46937.512 -4859.082 46936.504 -4802.814 46936.406 -4797.73 46936.406 -4797.73 46935.078 -4714.602 46934.624 -4664.811 46934.575 -4650.879 46934.575 -4350.586 46934.575 -4350.586 46935.242 -4260.632 46936.948 -4182.093 46939.247 -4116.201 46941.694 -4064.186 46943.845 -4027.279 46945.254 -4006.712 46945.561 -4002.686"/><path d="M 46295.171 -4499.268 46295.171 -4499.268 46289.252 -4410.954 46273.744 -4333.666 46252.015 -4267.81 46227.435 -4213.79 46203.373 -4172.012 46183.199 -4142.882 46170.282 -4126.806 46167.363 -4123.535 46167.363 -4123.535 46109.29 -4074.222 46045.787 -4038.612 45981.887 -4014.475 45922.626 -3999.58 45873.037 -3991.696 45838.156 -3988.592 45823.016 -3988.038 45822.758 -3988.037 45822.758 -3988.037 45742.593 -3995.419 45680.486 -4011.658 45640.351 -4027.897 45626.103 -4035.279 45626.103 -4035.279 45626.103 -4035.279 45568.459 -4088.944 45548.781 -4135.221 45546.635 -4151.367 45546.635 -4151.367 45577.77 -4205.086 45624.329 -4224.588 45631.596 -4226.074 45631.596 -4226.074 45669.651 -4162.628 45707.624 -4126.099 45721.684 -4116.211 45721.684 -4116.211 45789.125 -4088.747 45839.432 -4080.234 45852.055 -4079.59 45852.055 -4079.59 45926.741 -4090.154 45988.626 -4115.718 46036.173 -4147.089 46067.844 -4175.072 46082.103 -4190.475 46082.768 -4191.284 46082.768 -4191.284 46121.031 -4251.894 46146.434 -4315.457 46161.611 -4375.461 46169.196 -4425.4 46171.822 -4458.761 46172.124 -4469.239 46172.124 -4469.239 46166.651 -4551.184 46152.665 -4623.394 46133.814 -4684.491 46113.747 -4733.095 46096.112 -4767.826 46084.558 -4787.306 46082.036 -4791.138 46082.036 -4791.138 46027.9 -4849.462 45968.168 -4887.063 45910.913 -4908.489 45864.209 -4918.289 45836.129 -4921.013 45831.548 -4921.143 45831.548 -4921.143 45753.528 -4910.618 45693.895 -4887.062 45654.836 -4862.504 45638.538 -4848.972 45638.188 -4848.633 45638.188 -4848.633 45640.006 -4759.503 45642.24 -4684.199 45644.545 -4623.972 45646.576 -4580.076 45647.987 -4553.761 45648.442 -4546.143 45648.442 -4546.143 45594.775 -4541.031 45594.243 -4541.016 45594.243 -4541.016 45530.716 -4568.723 45521.001 -4598.077 45521.001 -4598.145 45526.128 -4694.092 45526.128 -4694.092 45529.42 -4771.947 45530.875 -4832.346 45531.243 -4865.966 45531.255 -4869.873 45531.255 -4869.873 45557.768 -4924.117 45602.582 -4959.698 45616.948 -4968.018 45616.948 -4968.018 45680.446 -4991.901 45744.593 -5005.043 45797.252 -5010.654 45826.284 -5011.941 45828.618 -5011.963 45828.618 -5011.963 45912.448 -5004.408 45985.661 -4984.852 46047.547 -4957.963 46097.392 -4928.407 46134.487 -4900.852 46158.119 -4879.963 46167.577 -4870.407 46167.729 -4870.24 46167.729 -4870.24 46211.25 -4811.226 46243.528 -4747.513 46266.244 -4683.276 46281.077 -4622.692 46289.707 -4569.935 46293.814 -4529.182 46295.078 -4504.608 46295.171 -4499.268"/><path d="M 45347.417 -4008.545 45347.417 -4008.545 45286.893 -3997.143 45277.104 -3996.826 45277.104 -3996.826 45229.863 -4007.447 45229.863 -4007.447 45192.876 -4040.039 45192.876 -4040.039 45160.818 -4080.139 45124.743 -4130.239 45087.395 -4185.298 45051.513 -4240.277 45019.842 -4290.135 44995.121 -4329.834 44980.095 -4354.334 44976.811 -4359.741 44976.811 -4359.741 44935.243 -4429.454 44895.717 -4497.322 44858.785 -4562.054 44824.995 -4622.353 44794.896 -4676.926 44769.038 -4724.479 44747.97 -4763.717 44732.241 -4793.347 44722.401 -4812.074 44718.999 -4818.604 44718.999 -4818.604 44718.999 -4818.604 44721.592 -4771.463 44723.617 -4712.382 44725.144 -4645.959 44726.244 -4576.792 44726.987 -4509.476 44727.442 -4448.611 44727.681 -4398.794 44727.773 -4364.621 44727.788 -4350.69 44727.788 -4350.586 44727.788 -4350.586 44728.411 -4260.632 44730.003 -4182.093 44732.148 -4116.201 44734.432 -4064.186 44736.44 -4027.279 44737.755 -4006.712 44738.042 -4002.686 44738.042 -4002.686 44691.899 -3998.291 44691.899 -3998.291 44628.373 -4025.999 44618.658 -4055.353 44618.657 -4055.42 44618.657 -4055.42 44621.361 -4111.832 44621.587 -4115.845 44621.587 -4115.845 44624.841 -4181.852 44627.052 -4234.627 44627.446 -4244.751 44627.446 -4244.751 44629.571 -4320.405 44630.297 -4374.486 44630.376 -4391.602 44630.376 -4647.949 44630.376 -4647.949 44629.753 -4737.904 44628.161 -4816.442 44626.015 -4882.335 44623.731 -4934.35 44621.724 -4971.256 44620.409 -4991.824 44620.122 -4995.85 44620.122 -4995.85 44669.194 -5001.709 44669.194 -5001.709 44731.367 -4978.556 44747.563 -4961.426 44747.563 -4961.426 44773.171 -4920.691 44804.033 -4869.562 44837.65 -4812.609 44871.524 -4754.405 44903.156 -4699.521 44930.049 -4652.527 44949.703 -4617.997 44959.621 -4600.5 44960.332 -4599.243 44960.332 -4599.243 45004.354 -4522.164 45045.413 -4451.772 45083.114 -4388.401 45117.064 -4332.39 45146.87 -4284.073 45172.139 -4243.787 45192.478 -4211.869 45207.492 -4188.654 45216.789 -4174.478 45219.975 -4169.678 45219.975 -4169.678 45219.975 -4169.678 45220.372 -4198.203 45220.69 -4246.002 45220.938 -4307.829 45221.124 -4378.436 45221.257 -4452.576 45221.346 -4525.002 45221.401 -4590.468 45221.428 -4643.725 45221.439 -4679.527 45221.44 -4692.627 45221.44 -4692.627 45221.44 -4692.627 45219.244 -4786.509 45213.779 -4862.195 45206.729 -4920.029 45199.779 -4960.356 45194.611 -4983.524 45192.876 -4989.99 45192.876 -4989.99 45247.358 -5001.689 45248.54 -5001.709 45248.54 -5001.709 45304.86 -4984.319 45306.767 -4982.3 45306.767 -4982.3 45321.486 -4924.804 45321.782 -4916.016 45321.782 -4916.016 45321.202 -4859.082 45320.395 -4802.814 45320.317 -4797.73 45320.317 -4797.73 45319.255 -4714.602 45318.892 -4664.811 45318.852 -4650.879 45318.852 -4350.586 45318.852 -4350.586 45320.588 -4248.367 45325.022 -4166.24 45330.999 -4102.84 45337.362 -4056.803 45342.953 -4026.764 45346.617 -4011.359 45347.417 -4008.545"/><path d="M 44404.057 -4917.481 44404.057 -4917.481 44398.219 -4870.267 44393.387 -4812.762 44389.47 -4748.559 44386.374 -4681.254 44384.007 -4614.441 44382.278 -4551.715 44381.094 -4496.671 44380.362 -4452.903 44379.991 -4424.006 44379.887 -4413.574 44379.887 -4413.574 44379.887 -4413.574 44380.803 -4317.282 44383.203 -4233.185 44386.565 -4161.669 44390.368 -4103.119 44394.091 -4057.923 44397.213 -4026.467 44399.211 -4009.136 44399.663 -4005.615 44399.663 -4005.615 44334.487 -3996.062 44267.209 -3990.805 44211.304 -3988.561 44180.246 -3988.046 44177.739 -3988.037 44166.753 -3988.037 44166.753 -3988.037 44087.559 -3991.705 44022.495 -3999.914 43977.21 -4008.472 43957.354 -4013.188 43956.914 -4013.306 43956.914 -4013.306 43886.448 -4038.858 43830.019 -4067.69 43794.936 -4089.464 43786.992 -4094.971 43786.992 -4094.971 43735.625 -4143.482 43697.957 -4195.221 43674.777 -4236.386 43666.875 -4253.174 43666.875 -4253.174 43666.875 -4253.174 43645.153 -4321.036 43632.388 -4389.536 43626.198 -4448.458 43624.203 -4487.587 43624.028 -4497.803 43624.028 -4497.803 43629.59 -4581.288 43644.165 -4655.791 43664.587 -4720.463 43687.688 -4774.453 43710.302 -4816.913 43729.262 -4846.992 43741.401 -4863.842 43744.145 -4867.31 43744.145 -4867.31 43799.692 -4919.956 43861.882 -4957.972 43925.384 -4983.74 43984.87 -4999.641 44035.007 -5008.057 44070.468 -5011.371 44085.922 -5011.962 44086.186 -5011.963 44086.186 -5011.963 44171.697 -5006.223 44244.64 -4991.555 44304.511 -4971.784 44350.807 -4950.739 44383.023 -4932.244 44400.654 -4920.126 44404.057 -4917.481"/></g><path d="M 43235.844 -4053.955 43235.844 -4053.955 43169.42 -4009.723 43132.367 -3998.616 43128.178 -3998.291 43128.178 -3998.291 43074.658 -4029.551 43054.237 -4062.668 43054.204 -4062.744 43054.204 -4062.744 43030.514 -4119.662 43006.031 -4183.286 42982.076 -4248.885 42959.973 -4311.729 42941.045 -4367.087 42926.613 -4410.228 42918 -4436.42 42916.142 -4442.139 42916.142 -4442.139 42889.054 -4527.746 42865.074 -4606.569 42844.305 -4677.393 42826.849 -4739.004 42812.809 -4790.186 42802.288 -4829.724 42795.387 -4856.403 42792.211 -4869.009 42791.997 -4869.873 42791.997 -4869.873 42757.154 -4823.914 42722.709 -4766.921 42690.102 -4704.531 42660.772 -4642.384 42636.155 -4586.116 42617.692 -4541.368 42606.82 -4513.777 42604.497 -4507.691 42604.497 -4507.691 42573.002 -4416.951 42549.024 -4334.88 42531.54 -4262.333 42519.523 -4200.165 42511.948 -4149.229 42507.79 -4110.379 42506.025 -4084.471 42505.626 -4072.358 42505.62 -4071.533 42505.62 -4071.533 42509.986 -4004.16 42511.479 -3996.826 42511.479 -3996.826 42451.294 -3988.119 42448.491 -3988.037 42448.491 -3988.037 42399.216 -4004.346 42399.052 -4004.517 42399.052 -4004.517 42384.099 -4058.448 42384.038 -4061.28 42384.038 -4061.28 42387.561 -4119.212 42397.015 -4182.174 42410.727 -4247.06 42427.025 -4310.764 42444.235 -4370.18 42460.685 -4422.202 42474.701 -4463.725 42484.611 -4491.642 42488.743 -4502.847 42488.774 -4502.93 42488.774 -4502.93 42523.37 -4589.317 42557.42 -4665.736 42590.006 -4732.166 42620.208 -4788.582 42647.11 -4834.96 42669.793 -4871.278 42687.337 -4897.513 42698.826 -4913.64 42703.341 -4919.636 42703.374 -4919.678 42703.374 -4919.678 42752.057 -4974.205 42766.362 -4985.596 42766.362 -4985.596 42822.635 -5001.58 42826.421 -5001.709 42826.421 -5001.709 42875.493 -4998.78 42875.493 -4998.78 42890.04 -4932.091 42907.047 -4863.657 42925.715 -4795.151 42945.247 -4728.245 42964.845 -4664.61 42983.712 -4605.92 43001.05 -4553.846 43016.061 -4510.061 43027.947 -4476.237 43035.911 -4454.047 43039.155 -4445.162 43039.189 -4445.069 43039.189 -4445.069 43079.165 -4342.54 43115.708 -4258.541 43148.328 -4191.475 43176.537 -4139.749 43199.844 -4101.768 43217.76 -4075.936 43229.794 -4060.66 43235.457 -4054.345 43235.844 -4053.955"/><path d="M 42296.147 -4499.268 42296.147 -4499.268 42290.229 -4410.954 42274.72 -4333.666 42252.991 -4267.81 42228.411 -4213.79 42204.349 -4172.012 42184.175 -4142.882 42171.259 -4126.806 42168.34 -4123.535 42168.34 -4123.535 42110.267 -4074.222 42046.763 -4038.612 41982.864 -4014.475 41923.603 -3999.58 41874.014 -3991.696 41839.133 -3988.592 41823.993 -3988.038 41823.735 -3988.037 41823.735 -3988.037 41743.569 -3995.419 41681.462 -4011.658 41641.328 -4027.897 41627.08 -4035.279 41627.08 -4035.279 41627.08 -4035.279 41569.436 -4088.944 41549.758 -4135.221 41547.612 -4151.367 41547.612 -4151.367 41578.747 -4205.086 41625.306 -4224.588 41632.573 -4226.074 41632.573 -4226.074 41670.627 -4162.628 41708.601 -4126.099 41722.661 -4116.211 41722.661 -4116.211 41790.102 -4088.747 41840.408 -4080.234 41853.032 -4079.59 41853.032 -4079.59 41927.718 -4090.154 41989.602 -4115.718 42037.149 -4147.089 42068.821 -4175.072 42083.079 -4190.475 42083.745 -4191.284 42083.745 -4191.284 42122.008 -4251.894 42147.411 -4315.457 42162.588 -4375.461 42170.172 -4425.4 42172.799 -4458.761 42173.1 -4469.239 42173.1 -4469.239 42167.627 -4551.184 42153.641 -4623.394 42134.79 -4684.491 42114.723 -4733.095 42097.089 -4767.826 42085.535 -4787.306 42083.012 -4791.138 42083.012 -4791.138 42028.751 -4849.462 41968.711 -4887.063 41911.069 -4908.489 41864.001 -4918.289 41835.682 -4921.013 41831.059 -4921.143 41831.059 -4921.143 41759.594 -4911.837 41710.215 -4895.673 41696.66 -4889.649 41696.66 -4889.649 41638.592 -4846.995 41605.266 -4807.499 41598.149 -4796.631 41598.149 -4796.631 41540.975 -4842.515 41532.232 -4869.818 41532.231 -4869.873 41532.231 -4869.873 41558.744 -4924.117 41603.558 -4959.698 41617.924 -4968.018 41617.924 -4968.018 41681.423 -4991.901 41745.57 -5005.043 41798.228 -5010.654 41827.261 -5011.941 41829.594 -5011.963 41829.594 -5011.963 41913.425 -5004.408 41986.638 -4984.852 42048.523 -4957.963 42098.369 -4928.407 42135.463 -4900.852 42159.095 -4879.963 42168.553 -4870.407 42168.706 -4870.239 42168.706 -4870.239 42212.227 -4811.226 42244.505 -4747.513 42267.22 -4683.276 42282.053 -4622.692 42290.683 -4569.935 42294.79 -4529.182 42296.054 -4504.608 42296.147 -4499.268"/><path d="M 41393.803 -4499.268 41393.803 -4499.268 41387.885 -4410.954 41372.377 -4333.666 41350.648 -4267.81 41326.067 -4213.79 41302.006 -4172.012 41281.832 -4142.882 41268.915 -4126.806 41265.996 -4123.535 41265.996 -4123.535 41207.923 -4074.222 41144.42 -4038.612 41080.52 -4014.475 41021.259 -3999.58 40971.67 -3991.696 40936.789 -3988.592 40921.649 -3988.038 40921.391 -3988.037 40921.391 -3988.037 40841.225 -3995.419 40779.118 -4011.658 40738.984 -4027.897 40724.736 -4035.279 40724.736 -4035.279 40724.736 -4035.279 40667.092 -4088.944 40647.414 -4135.221 40645.268 -4151.367 40645.268 -4151.367 40676.403 -4205.086 40722.962 -4224.588 40730.229 -4226.074 40730.229 -4226.074 40768.283 -4162.628 40806.257 -4126.099 40820.317 -4116.211 40820.317 -4116.211 40887.758 -4088.747 40938.065 -4080.234 40950.688 -4079.59 40950.688 -4079.59 41025.374 -4090.154 41087.259 -4115.718 41134.805 -4147.089 41166.477 -4175.072 41180.736 -4190.475 41181.401 -4191.284 41181.401 -4191.284 41219.664 -4251.894 41245.067 -4315.457 41260.244 -4375.461 41267.829 -4425.4 41270.455 -4458.761 41270.757 -4469.239 41270.757 -4469.239 41265.284 -4551.184 41251.298 -4623.394 41232.447 -4684.491 41212.38 -4733.095 41194.745 -4767.826 41183.191 -4787.306 41180.669 -4791.138 41180.669 -4791.138 41126.407 -4849.462 41066.367 -4887.063 41008.726 -4908.489 40961.657 -4918.289 40933.338 -4921.013 40928.716 -4921.143 40928.716 -4921.143 40857.25 -4911.837 40807.871 -4895.673 40794.316 -4889.649 40794.316 -4889.649 40736.249 -4846.995 40702.923 -4807.499 40695.805 -4796.631 40695.805 -4796.631 40638.631 -4842.515 40629.888 -4869.818 40629.887 -4869.873 40629.887 -4869.873 40656.4 -4924.117 40701.214 -4959.698 40715.581 -4968.018 40715.581 -4968.018 40779.079 -4991.901 40843.226 -5005.043 40895.885 -5010.654 40924.917 -5011.941 40927.251 -5011.963 40927.251 -5011.963 41011.081 -5004.408 41084.294 -4984.852 41146.179 -4957.963 41196.025 -4928.407 41233.12 -4900.852 41256.751 -4879.963 41266.209 -4870.407 41266.362 -4870.239 41266.362 -4870.239 41309.883 -4811.226 41342.161 -4747.513 41364.877 -4683.276 41379.709 -4622.692 41388.339 -4569.935 41392.446 -4529.182 41393.71 -4504.608 41393.803 -4499.268"/><path d="M 5725.83 -27235.615 5725.83 -27235.615 5650.21 -27225.753 5583.327 -27220.509 5534.174 -27218.423 5511.74 -27218.038 5511.23 -27218.037 5502.441 -27218.037 5502.441 -27218.037 5403.352 -27224.846 5322.047 -27243.535 5256.765 -27271.496 5205.75 -27306.121 5167.241 -27344.802 5139.48 -27384.932 5120.709 -27423.904 5109.169 -27459.108 5103.1 -27487.938 5100.744 -27507.786 5100.342 -27516.044 5100.342 -27516.133 5100.342 -27516.133 5110.122 -27596.168 5132.013 -27657.508 5154.834 -27697.783 5167.41 -27714.623 5167.725 -27714.985 5167.725 -27714.985 5224.075 -27762.129 5282.349 -27791.935 5327.988 -27807.528 5346.435 -27812.031 5346.435 -27812.031 5346.435 -27812.031 5322.771 -27863.183 5320.801 -27867.329 5320.801 -27867.329 5289.636 -27930.828 5285.278 -27939.106 5285.278 -27939.106 5257.683 -27991.552 5254.517 -27997.7 5254.517 -27997.7 5222.385 -28055.346 5217.895 -28062.519 5217.895 -28062.519 5187.5 -28101.338 5187.5 -28101.338 5128.464 -28138.117 5092.153 -28144.541 5091.553 -28144.551 5091.553 -28144.551 5050.537 -28140.156 5050.537 -28140.156 5037.353 -28185.566 5037.353 -28185.566 5072.652 -28228.522 5130.644 -28241.183 5146.484 -28241.963 5149.414 -28241.963 5149.414 -28241.963 5204.711 -28229.58 5206.543 -28228.779 5206.543 -28228.779 5255.833 -28191.033 5263.672 -28182.636 5263.672 -28182.636 5305.853 -28132.213 5312.378 -28124.043 5312.378 -28124.043 5346.961 -28070.559 5361.816 -28044.209 5361.816 -28044.209 5396.423 -27979.744 5403.198 -27966.938 5403.198 -27966.938 5429.595 -27912.336 5443.848 -27881.611 5443.848 -27881.611 5474.175 -27816.068 5476.807 -27810.566 5476.807 -27810.566 5518.463 -27778.875 5518.555 -27777.607 5518.555 -27777.607 5511.23 -27736.592 5511.23 -27736.592 5447.75 -27744.321 5440.918 -27744.648 5440.918 -27744.648 5362.653 -27731.834 5309.978 -27706.205 5285.147 -27686.983 5283.447 -27685.322 5283.447 -27685.322 5246.765 -27626.36 5230.551 -27566.922 5226.444 -27528.335 5226.318 -27523.457 5226.318 -27523.457 5238.368 -27439.206 5263.454 -27385.936 5284.985 -27360.173 5289.307 -27356.465 5289.307 -27356.465 5346.092 -27329.365 5409.607 -27315.449 5461.311 -27310.322 5482.666 -27309.59 5482.666 -27309.59 5482.666 -27309.59 5549.296 -27311.908 5596.05 -27315.137 5599.853 -27315.449 5599.853 -27315.449 5597.344 -27369.606 5595.679 -27436.282 5594.683 -27505.135 5594.186 -27565.822 5594.014 -27608.003 5593.994 -27621.601 5593.994 -27922.627 5593.994 -27922.627 5591.798 -28016.509 5586.333 -28092.194 5579.283 -28150.028 5572.333 -28190.356 5567.165 -28213.523 5565.43 -28219.99 5565.43 -28219.99 5625.676 -28231.392 5635.742 -28231.709 5635.742 -28231.709 5692.062 -28214.318 5693.97 -28212.3 5693.97 -28212.3 5708.689 -28154.804 5708.984 -28146.015 5708.984 -28146.015 5708.405 -28089.081 5707.598 -28032.813 5707.519 -28027.729 5707.519 -28027.729 5706.457 -27944.602 5706.094 -27894.81 5706.055 -27880.879 5706.055 -27580.586 5706.055 -27580.586 5707.256 -27492.238 5710.326 -27414.664 5714.464 -27349.241 5718.869 -27297.349 5722.74 -27260.369 5725.276 -27239.678 5725.83 -27235.615"/><path d="M 4992.676 -28162.861 4992.676 -28162.861 4985.064 -28132.69 4964.171 -28091.903 4932.912 -28043.303 4894.204 -27989.692 4850.96 -27933.874 4806.097 -27878.653 4762.53 -27826.831 4723.174 -27781.212 4690.943 -27744.598 4668.755 -27719.793 4659.523 -27709.601 4659.424 -27709.492 4659.424 -27709.492 4722.121 -27611.736 4777.976 -27529.849 4827.047 -27462.517 4869.389 -27408.426 4905.06 -27366.261 4934.117 -27334.709 4956.618 -27312.456 4972.619 -27298.187 4982.178 -27290.59 4985.351 -27288.349 4985.351 -27288.349 4985.351 -27288.349 4924.307 -27234.794 4882.68 -27219.009 4874.023 -27218.037 4874.023 -27218.037 4824.127 -27249.531 4797.851 -27281.025 4797.851 -27281.025 4797.851 -27281.025 4759.456 -27337.374 4720.401 -27396.69 4682.629 -27455.477 4648.079 -27510.24 4618.692 -27557.484 4596.408 -27593.714 4583.169 -27615.435 4580.322 -27620.136 4580.322 -27620.136 4534.621 -27561.281 4494.846 -27504.451 4462.955 -27455.164 4440.908 -27418.934 4430.664 -27401.278 4430.176 -27400.41 4430.176 -27400.41 4389.373 -27319.714 4366.501 -27262.148 4356.618 -27228.562 4354.736 -27219.502 4354.736 -27219.502 4277.701 -27252.449 4251.403 -27288.977 4248.535 -27302.998 4248.535 -27302.998 4264.165 -27349.874 4297.333 -27408.866 4327.45 -27455.408 4335.693 -27467.427 4335.693 -27467.427 4380.954 -27529.54 4425.49 -27587.113 4465.782 -27636.941 4498.31 -27675.816 4519.555 -27700.533 4526.123 -27708.027 4526.123 -27708.027 4465.87 -27808 4411.28 -27893.122 4362.356 -27964.523 4319.101 -28023.334 4281.519 -28070.686 4249.612 -28107.709 4223.385 -28135.536 4202.839 -28155.296 4187.979 -28168.121 4178.808 -28175.142 4175.328 -28177.488 4175.293 -28177.51 4175.293 -28177.51 4237.598 -28228.725 4274.284 -28241.587 4278.564 -28241.963 4278.564 -28241.963 4331.731 -28212.164 4356.201 -28184.101 4356.201 -28184.101 4387.743 -28140.535 4422.642 -28089.402 4459.044 -28034.036 4495.094 -27977.771 4528.938 -27923.942 4558.723 -27875.883 4582.594 -27836.926 4598.696 -27810.407 4605.177 -27799.66 4605.225 -27799.58 4605.225 -27799.58 4651.25 -27848.52 4694.641 -27901.443 4732.194 -27951.584 4760.707 -27992.178 4776.974 -28016.457 4779.541 -28020.405 4779.541 -28020.405 4826.803 -28099.897 4858.687 -28163.343 4877.838 -28209.136 4886.902 -28235.669 4888.672 -28241.963 4888.672 -28241.963 4965.412 -28210.165 4990.393 -28174.768 4992.676 -28162.861"/><path d="M 5824.707 -29829.814 5824.707 -29829.814 5808.96 -29789.165 5808.96 -29789.165 5758.951 -29777.087 5758.789 -29777.08 5758.789 -29777.08 5703.445 -29776.076 5636.49 -29775.683 5598.966 -29775.615 5598.389 -29775.615 5421.143 -29775.615 5421.143 -29775.615 5310.232 -29775.239 5230.68 -29774.316 5177.822 -29773.155 5146.993 -29772.061 5133.529 -29771.344 5131.836 -29771.22 5131.836 -29771.22 5127.441 -29810.039 5127.441 -29810.039 5143.188 -29850.688 5143.188 -29850.688 5193.197 -29862.766 5193.359 -29862.773 5193.359 -29862.773 5243.698 -29863.595 5312.191 -29864.032 5374.721 -29864.206 5407.169 -29864.238 5407.959 -29864.238 5407.959 -29864.238 5412.35 -29963.009 5415.265 -30039.989 5417.006 -30096.751 5417.877 -30134.874 5418.178 -30155.933 5418.213 -30161.601 5418.213 -30462.627 5418.213 -30462.627 5416.017 -30556.509 5410.552 -30632.194 5403.502 -30690.028 5396.551 -30730.356 5391.384 -30753.523 5389.648 -30759.99 5389.648 -30759.99 5450.182 -30771.392 5460.327 -30771.709 5460.327 -30771.709 5516.809 -30754.508 5518.921 -30752.3 5518.921 -30752.3 5533.64 -30694.804 5533.935 -30686.015 5533.935 -30686.015 5533.356 -30629.081 5532.549 -30572.813 5532.471 -30567.729 5532.471 -30567.729 5531.408 -30484.602 5531.045 -30434.81 5531.006 -30420.879 5531.006 -30120.586 5531.006 -30120.586 5531.463 -30040.488 5532.553 -29970.234 5533.853 -29914.394 5534.943 -29877.539 5535.4 -29864.238 5535.4 -29864.238 5535.4 -29864.238 5637.159 -29864.739 5713.872 -29865.969 5767.976 -29867.519 5801.903 -29868.977 5818.09 -29869.933 5820.312 -29870.097 5820.312 -29870.097 5824.707 -29829.814"/><path d="M 5090.088 -30702.861 5090.088 -30702.861 5082.476 -30672.69 5061.583 -30631.903 5030.324 -30583.303 4991.616 -30529.692 4948.372 -30473.874 4903.509 -30418.653 4859.942 -30366.831 4820.586 -30321.212 4788.355 -30284.598 4766.167 -30259.793 4756.935 -30249.601 4756.836 -30249.492 4756.836 -30249.492 4819.533 -30151.736 4875.389 -30069.849 4924.459 -30002.517 4966.801 -29948.426 5002.472 -29906.261 5031.529 -29874.709 5054.03 -29852.456 5070.031 -29838.187 5079.59 -29830.59 5082.764 -29828.349 5082.764 -29828.349 5082.764 -29828.349 5021.719 -29774.794 4980.092 -29759.009 4971.435 -29758.037 4971.435 -29758.037 4921.539 -29789.531 4895.264 -29821.025 4895.264 -29821.025 4895.264 -29821.025 4856.868 -29877.374 4817.813 -29936.69 4780.041 -29995.477 4745.491 -30050.24 4716.104 -30097.484 4693.82 -30133.714 4680.581 -30155.435 4677.734 -30160.136 4677.734 -30160.136 4632.034 -30101.281 4592.258 -30044.451 4560.367 -29995.164 4538.32 -29958.934 4528.076 -29941.278 4527.588 -29940.41 4527.588 -29940.41 4486.785 -29859.714 4463.914 -29802.148 4454.03 -29768.562 4452.148 -29759.502 4452.148 -29759.502 4375.113 -29792.449 4348.815 -29828.977 4345.947 -29842.998 4345.947 -29842.998 4361.578 -29889.874 4394.745 -29948.866 4424.862 -29995.408 4433.105 -30007.427 4433.105 -30007.427 4478.367 -30069.54 4522.903 -30127.113 4563.194 -30176.941 4595.722 -30215.816 4616.967 -30240.533 4623.535 -30248.027 4623.535 -30248.027 4563.282 -30348 4508.692 -30433.122 4459.768 -30504.523 4416.513 -30563.334 4378.931 -30610.686 4347.024 -30647.709 4320.797 -30675.536 4300.251 -30695.296 4285.391 -30708.121 4276.22 -30715.142 4272.74 -30717.488 4272.705 -30717.51 4272.705 -30717.51 4335.01 -30768.725 4371.696 -30781.587 4375.976 -30781.963 4375.976 -30781.963 4429.143 -30752.164 4453.613 -30724.101 4453.613 -30724.101 4485.155 -30680.535 4520.054 -30629.402 4556.456 -30574.036 4592.506 -30517.771 4626.351 -30463.942 4656.135 -30415.883 4680.006 -30376.926 4696.109 -30350.407 4702.589 -30339.66 4702.637 -30339.58 4702.637 -30339.58 4748.662 -30388.52 4792.053 -30441.443 4829.607 -30491.584 4858.119 -30532.178 4874.386 -30556.457 4876.953 -30560.405 4876.953 -30560.405 4924.215 -30639.897 4956.099 -30703.343 4975.25 -30749.136 4984.314 -30775.669 4986.084 -30781.963 4986.084 -30781.963 5062.824 -30750.165 5087.805 -30714.768 5090.088 -30702.861"/><path d="M 91400 -11725 92600 -11725 92600 -12925 91400 -12925 91400 -11725"/><path d="M 92850 -11876.758 92850 -11876.758 92893.359 -11873.242 92893.359 -11873.242 92944.75 -11905.441 92947.265 -11918.945 92947.265 -11918.945 92946.982 -11964.271 92946.44 -12034.544 92946.099 -12076.774 92946.093 -12077.442 92946.093 -12077.442 92945.359 -12174.262 92945.021 -12230.763 92944.926 -12255.552 92944.922 -12258.789 92944.922 -12258.789 93013.601 -12220.803 93074.952 -12201.985 93117.604 -12195.602 93130.664 -12194.922 93130.664 -12194.922 93204.85 -12209.603 93256.193 -12238.966 93280.988 -12260.988 93282.714 -12262.891 93282.714 -12262.891 93315.423 -12320.499 93332.818 -12384.369 93339.735 -12437.879 93341.012 -12464.408 93341.015 -12465.039 93341.015 -12465.039 93332.957 -12545.456 93314.321 -12610.638 93293.419 -12657.513 93278.561 -12683.014 93275.976 -12686.817 93275.976 -12686.817 93221.712 -12737.276 93162.524 -12764.112 93113.33 -12774.784 93089.053 -12776.752 93088.476 -12776.758 93088.476 -12776.758 93010.707 -12767.491 92945.749 -12745.725 92896.955 -12720.511 92867.679 -12700.9 92860.547 -12695.313 92860.547 -12695.313 92864.611 -12640.825 92867.184 -12573.428 92868.604 -12507.494 92869.209 -12457.394 92869.336 -12437.5 92869.336 -12437.5 92869.336 -12437.5 92868.863 -12376.138 92867.686 -12306.754 92866.167 -12238.244 92864.67 -12179.502 92863.557 -12139.425 92863.183 -12126.66 92863.183 -12126.66 92859.45 -12022.258 92855.885 -11950.481 92852.868 -11905.914 92850.78 -11883.145 92850 -11876.758 92850 -11876.758"/></g><path d="M 93441.211 -12486.719 93441.211 -12486.719 93450.14 -12407.536 93470.791 -12345.209 93493.952 -12301.534 93510.417 -12278.309 93513.281 -12274.903 93513.281 -12274.903 93570.639 -12230.032 93630.022 -12206.168 93678.065 -12196.678 93701.403 -12194.927 93701.953 -12194.922 93701.953 -12194.922 93778.445 -12206.531 93836.903 -12232.514 93875.187 -12259.603 93891.161 -12274.529 93891.504 -12274.903 93891.504 -12274.903 93929.219 -12333.263 93950.676 -12394.947 93960.46 -12448.218 93963.157 -12481.341 93963.281 -12486.719 93963.281 -12486.719 93953.636 -12568.996 93931.69 -12632.61 93907.92 -12675.637 93892.808 -12696.151 93891.504 -12697.656 93891.504 -12697.656 93834.14 -12742.034 93774.463 -12765.636 93726.058 -12775.022 93702.508 -12776.753 93701.953 -12776.758 93701.953 -12776.758 93626.075 -12765.276 93567.872 -12739.579 93529.627 -12712.788 93513.625 -12698.026 93513.281 -12697.656 93513.281 -12697.656 93475.412 -12639.758 93453.867 -12578.337 93444.043 -12525.185 93441.335 -12492.095 93441.211 -12486.719"/></g><path d="M 94017.187 -12250 94017.187 -12250 94035.058 -12214.844 94035.058 -12214.844 94092.065 -12207.279 94096.289 -12207.227 94130.273 -12207.227 94130.273 -12207.227 94126.782 -12128.459 94123.454 -12081.48 94122.656 -12072.461 94122.656 -12072.461 94162.5 -12068.945 94162.5 -12068.945 94216.771 -12099.866 94219.921 -12114.649 94219.921 -12114.649 94217.297 -12172.961 94215.234 -12208.399 94215.234 -12208.399 94310.998 -12207.392 94373.144 -12205.176 94406.726 -12202.96 94416.797 -12201.953 94416.797 -12201.953 94416.797 -12201.953 94421.484 -12230.078 94421.484 -12230.078 94408.886 -12262.305 94408.886 -12262.305 94368.75 -12271.68 94368.75 -12271.68 94310.805 -12272.499 94245.302 -12272.806 94212.925 -12272.852 94212.89 -12272.852 94212.89 -12272.852 94211.792 -12347.049 94211.105 -12417.726 94210.733 -12478.446 94210.579 -12522.77 94210.547 -12544.26 94210.547 -12545.313 94210.547 -12545.313 94217.472 -12631.013 94229.501 -12672.473 94233.984 -12680.957 94233.984 -12680.957 94289.052 -12711.067 94311.328 -12713.477 94311.328 -12713.477 94375.964 -12693.68 94397.461 -12677.149 94397.461 -12677.149 94419.14 -12720.508 94419.14 -12720.508 94388.408 -12761.064 94388.086 -12761.231 94388.086 -12761.231 94326.378 -12776.092 94312.5 -12776.758 94312.5 -12776.758 94234.228 -12762.881 94188.435 -12736.304 94171.781 -12719.604 94171.582 -12719.336 94171.582 -12719.336 94145.691 -12661.49 94133.792 -12599.443 94130.442 -12555.731 94130.273 -12547.656 94130.273 -12547.656 94131.371 -12440.258 94132.058 -12363.129 94132.43 -12312.148 94132.584 -12283.19 94132.617 -12272.132 94132.617 -12271.68 94132.617 -12271.68 94083.59 -12275.417 94023.741 -12280.223 94020.703 -12280.469 94020.703 -12280.469 94017.187 -12250"/><path d="M 94439.062 -12250 94439.062 -12250 94456.933 -12214.844 94456.933 -12214.844 94513.94 -12207.279 94518.164 -12207.227 94552.148 -12207.227 94552.148 -12207.227 94548.657 -12128.459 94545.329 -12081.48 94544.531 -12072.461 94544.531 -12072.461 94584.375 -12068.945 94584.375 -12068.945 94638.646 -12099.866 94641.796 -12114.649 94641.796 -12114.649 94639.172 -12172.961 94637.109 -12208.399 94637.109 -12208.399 94732.873 -12207.392 94795.019 -12205.176 94828.601 -12202.96 94838.672 -12201.953 94838.672 -12201.953 94838.672 -12201.953 94843.359 -12230.078 94843.359 -12230.078 94830.761 -12262.305 94830.761 -12262.305 94790.625 -12271.68 94790.625 -12271.68 94732.68 -12272.499 94667.177 -12272.806 94634.8 -12272.852 94634.765 -12272.852 94634.765 -12272.852 94633.667 -12347.049 94632.98 -12417.726 94632.608 -12478.446 94632.454 -12522.77 94632.422 -12544.26 94632.422 -12545.313 94632.422 -12545.313 94639.347 -12631.013 94651.376 -12672.473 94655.859 -12680.957 94655.859 -12680.957 94710.927 -12711.067 94733.203 -12713.477 94733.203 -12713.477 94797.839 -12693.68 94819.336 -12677.149 94819.336 -12677.149 94841.015 -12720.508 94841.015 -12720.508 94810.283 -12761.064 94809.961 -12761.231 94809.961 -12761.231 94748.253 -12776.092 94734.375 -12776.758 94734.375 -12776.758 94656.103 -12762.881 94610.31 -12736.304 94593.656 -12719.604 94593.457 -12719.336 94593.457 -12719.336 94567.566 -12661.49 94555.667 -12599.443 94552.317 -12555.731 94552.148 -12547.656 94552.148 -12547.656 94553.246 -12440.258 94553.933 -12363.129 94554.305 -12312.148 94554.459 -12283.19 94554.492 -12272.132 94554.492 -12271.68 94554.492 -12271.68 94505.465 -12275.417 94445.616 -12280.223 94442.578 -12280.469 94442.578 -12280.469 94439.062 -12250"/><path d="M 94914.843 -12486.719 94914.843 -12486.719 94923.773 -12407.536 94944.423 -12345.209 94967.585 -12301.534 94984.049 -12278.309 94986.914 -12274.903 94986.914 -12274.903 95044.272 -12230.032 95103.655 -12206.168 95151.698 -12196.678 95175.036 -12194.927 95175.586 -12194.922 95175.586 -12194.922 95252.078 -12206.531 95310.536 -12232.514 95348.82 -12259.603 95364.793 -12274.529 95365.136 -12274.903 95365.136 -12274.903 95402.852 -12333.263 95424.308 -12394.947 95434.093 -12448.218 95436.79 -12481.341 95436.914 -12486.719 95436.914 -12486.719 95427.269 -12568.996 95405.322 -12632.61 95381.553 -12675.637 95366.441 -12696.151 95365.136 -12697.656 95365.136 -12697.656 95307.772 -12742.034 95248.096 -12765.636 95199.691 -12775.022 95176.14 -12776.753 95175.586 -12776.758 95175.586 -12776.758 95099.708 -12765.276 95041.505 -12739.579 95003.26 -12712.788 94987.258 -12698.026 94986.914 -12697.656 94986.914 -12697.656 94949.044 -12639.758 94927.5 -12578.337 94917.676 -12525.185 94914.968 -12492.095 94914.843 -12486.719"/></g><path d="M 95562.89 -12213.086 95562.89 -12213.086 95606.25 -12203.711 95606.25 -12203.711 95656.309 -12238.061 95661.328 -12263.477 95661.328 -12263.477 95719.409 -12227.661 95749.804 -12214.258 95749.804 -12214.258 95749.804 -12214.258 95818.945 -12197.339 95849.414 -12194.922 95849.414 -12194.922 95849.414 -12194.922 95923.814 -12212.746 95966.392 -12247.645 95982.489 -12271.76 95983.007 -12272.852 95983.007 -12272.852 96036.966 -12235.024 96072.923 -12218.018 96073.535 -12217.774 96073.535 -12217.774 96144.063 -12198.724 96181.896 -12194.945 96183.398 -12194.922 96183.398 -12194.922 96253.729 -12211.395 96287.429 -12233.464 96289.16 -12235.059 96289.16 -12235.059 96319.7 -12292.715 96329.167 -12348.621 96329.882 -12364.258 96329.882 -12364.258 96328.613 -12418.473 96327.832 -12450.684 96327.832 -12450.684 96326.224 -12531.867 96325.797 -12572.943 96325.781 -12578.125 96325.781 -12578.125 96329.704 -12660.728 96337.872 -12720.697 96344.882 -12753.864 96346.289 -12759.18 96346.289 -12759.18 96299.414 -12768.555 96299.414 -12768.555 96254.589 -12754.785 96254.589 -12754.785 96240.82 -12707.617 96240.82 -12707.617 96240.82 -12707.617 96241.624 -12650.627 96243.198 -12584.183 96244.286 -12544.106 96244.336 -12542.383 96244.336 -12542.383 96246.886 -12447.209 96247.756 -12404.964 96247.851 -12396.485 96247.851 -12396.485 96235.053 -12323.205 96220.018 -12295.472 96219.726 -12295.117 96219.726 -12295.117 96162.999 -12264.251 96145.898 -12262.305 96145.898 -12262.305 96080.985 -12276.778 96026.482 -12305.117 95998.202 -12324.699 95997.07 -12325.586 95997.07 -12325.586 95998.258 -12417.196 95998.956 -12486.413 95999.295 -12533.792 95999.404 -12559.885 95999.414 -12565.821 95999.414 -12565.821 96000.691 -12648.826 96003.451 -12712.692 96006.087 -12752.534 96007.031 -12763.867 96007.031 -12763.867 95966.015 -12767.383 95966.015 -12767.383 95914.624 -12735.185 95912.109 -12721.68 95912.109 -12721.68 95913.867 -12673.34 95913.867 -12673.34 95915.728 -12609.405 95916.709 -12559.466 95916.797 -12554.102 95916.797 -12554.102 95917.6 -12482.458 95917.914 -12424.25 95917.968 -12396.873 95917.968 -12396.485 95917.968 -12396.485 95899.054 -12314.503 95858.919 -12275.365 95822.475 -12263.225 95812.5 -12262.305 95812.5 -12262.305 95748.374 -12277.449 95694.191 -12307.1 95665.975 -12327.588 95664.843 -12328.516 95664.843 -12328.516 95666.075 -12423.562 95666.776 -12493.585 95667.095 -12539.595 95667.183 -12562.604 95667.187 -12565.821 95667.187 -12565.821 95668.366 -12648.826 95670.914 -12712.692 95673.347 -12752.534 95674.218 -12763.867 95674.218 -12763.867 95633.789 -12767.383 95633.789 -12767.383 95582.397 -12735.185 95579.882 -12721.68 95579.882 -12721.68 95581.653 -12666.907 95582.812 -12633.496 95582.812 -12633.496 95584.779 -12558.533 95585.581 -12498.688 95585.741 -12468.569 95585.742 -12467.383 95585.742 -12467.383 95583.365 -12365.336 95577.698 -12292.821 95570.934 -12245.899 95565.267 -12220.633 95562.89 -12213.086 95562.89 -12213.086"/><path d="M 96742.382 -12681.25 96742.382 -12681.25 96780.36 -12637.147 96796.289 -12630.86 96796.289 -12630.86 96837.189 -12680.156 96853.418 -12689.746 96853.418 -12689.746 96919.57 -12707.726 96948.632 -12709.961 96948.632 -12709.961 97016.141 -12695.817 97032.129 -12687.11 97032.129 -12687.11 97062.445 -12632.234 97064.062 -12616.211 97064.062 -12616.211 97036.764 -12564.434 97032.129 -12561.133 97032.129 -12561.133 96972.012 -12536.152 96954.785 -12531.543 96954.785 -12531.543 96888.207 -12514.578 96863.672 -12507.52 96863.672 -12507.52 96805.311 -12474.265 96786.035 -12455.371 96786.035 -12455.371 96758.855 -12393.91 96754.108 -12354.375 96754.101 -12353.711 96754.101 -12353.711 96774.096 -12286.198 96806.945 -12246.881 96815.918 -12239.453 96815.918 -12239.453 96880.862 -12207.725 96934.805 -12196.381 96955.664 -12194.922 96955.664 -12194.922 97024.28 -12205.263 97063.862 -12219.116 97066.113 -12220.117 97066.113 -12220.117 97115.037 -12267.792 97120.312 -12289.844 97120.312 -12289.844 97082.335 -12334.53 97066.406 -12340.235 97066.406 -12340.235 97025.489 -12292.443 97012.207 -12283.985 97012.207 -12283.985 96947.811 -12264.029 96926.953 -12262.305 96926.953 -12262.305 96865.143 -12278.897 96856.054 -12284.57 96856.054 -12284.57 96826.978 -12337.932 96826.172 -12347.266 96826.172 -12347.266 96853.115 -12399.753 96858.105 -12403.516 96858.105 -12403.516 96917.421 -12429.735 96935.449 -12434.863 96935.449 -12434.863 97001.05 -12452.082 97026.562 -12459.473 97026.562 -12459.473 97085.695 -12492.077 97104.199 -12509.278 97104.199 -12509.278 97132.141 -12569.812 97136.132 -12603.32 97136.132 -12603.32 97136.132 -12603.32 97119.711 -12675.72 97089.699 -12719.045 97074.902 -12732.52 97074.902 -12732.52 97010.586 -12763.453 96954.332 -12775.019 96929.322 -12776.758 96929.297 -12776.758 96929.297 -12776.758 96855.126 -12767.85 96808.481 -12753.216 96799.218 -12749.219 96799.218 -12749.219 96747.915 -12701.725 96742.382 -12681.25"/><path d="M 97248.632 -12074.805 97248.632 -12074.805 97267.675 -12029.981 97267.675 -12029.981 97311.914 -12011.524 97311.914 -12011.524 97353.808 -12029.981 97353.808 -12029.981 97371.679 -12074.805 97371.679 -12074.805 97352.659 -12121.071 97352.636 -12121.094 97352.636 -12121.094 97309.57 -12139.844 97309.57 -12139.844 97266.504 -12121.973 97266.504 -12121.973 97248.633 -12074.883 97248.632 -12074.805"/><path d="M 97263.867 -12207.227 97263.867 -12207.227 97304.882 -12203.711 97304.882 -12203.711 97358.283 -12234.869 97361.132 -12248.828 97361.132 -12248.828 97358.789 -12298.047 97358.789 -12298.047 97355.673 -12363.633 97354.112 -12402.343 97354.101 -12402.637 97354.101 -12402.637 97352.192 -12475.74 97351.764 -12518.119 97351.757 -12521.289 97351.757 -12521.289 97354.357 -12611.941 97360.464 -12680.478 97367.539 -12727.421 97373.041 -12753.291 97374.609 -12759.18 97374.609 -12759.18 97328.906 -12768.555 97328.906 -12768.555 97282.035 -12753.032 97282.031 -12753.027 97282.031 -12753.027 97269.735 -12700.868 97269.726 -12700 97269.726 -12700 97270.524 -12641.641 97271.191 -12605.371 97271.191 -12605.371 97272.385 -12527.329 97272.652 -12490.346 97272.656 -12487.891 97272.656 -12487.891 97271.904 -12401.548 97270.059 -12329.012 97267.735 -12271.904 97265.548 -12231.844 97264.113 -12210.45 97263.867 -12207.227"/><path d="M 97512.304 -11876.758 97512.304 -11876.758 97554.492 -11873.242 97554.492 -11873.242 97606.78 -11904.805 97609.57 -11918.945 97609.57 -11918.945 97608.03 -11975.687 97607.812 -11983.106 97607.812 -11983.106 97605.97 -12047.525 97604.279 -12108.741 97603.43 -12139.969 97603.418 -12140.43 97603.418 -12140.43 97601.849 -12214.936 97601.072 -12279.009 97600.809 -12322.454 97600.781 -12335.547 97600.781 -12522.461 97600.781 -12522.461 97603.381 -12612.058 97609.488 -12680.21 97616.562 -12727.177 97622.065 -12753.221 97623.632 -12759.18 97623.632 -12759.18 97578.515 -12768.555 97578.515 -12768.555 97532.226 -12754.199 97532.226 -12754.199 97519.336 -12706.445 97519.336 -12706.445 97519.336 -12706.445 97519.634 -12656.353 97520.193 -12588.978 97520.507 -12553.847 97520.507 -12553.809 97520.507 -12553.809 97521.223 -12464.596 97521.565 -12403.343 97521.671 -12369.945 97521.679 -12363.086 97521.679 -12223.633 97521.679 -12223.633 97521.11 -12110.547 97519.654 -12023.902 97517.693 -11960.551 97515.604 -11917.352 97513.769 -11891.159 97512.567 -11878.829 97512.304 -11876.758"/><path d="M 97767.773 -11876.758 97767.773 -11876.758 97809.961 -11873.242 97809.961 -11873.242 97862.249 -11904.805 97865.039 -11918.945 97865.039 -11918.945 97863.321 -11972.869 97863.281 -11974.024 97863.281 -11974.024 97861.089 -12039.412 97859.293 -12095.094 97858.886 -12107.91 97858.886 -12107.91 97857.154 -12180.866 97856.418 -12240.358 97856.252 -12272.766 97856.25 -12275.195 97856.25 -12275.195 97920.84 -12228.787 97980.102 -12204.956 98023.434 -12196.176 98040.234 -12194.922 98040.234 -12194.922 98040.234 -12194.922 98114.226 -12209.365 98153.011 -12232.396 98158.886 -12237.695 98158.886 -12237.695 98192.457 -12298.449 98199.539 -12340.036 98199.609 -12342.578 98199.609 -12342.578 98185.741 -12414.003 98162.299 -12458.914 98154.785 -12469.141 98154.785 -12469.141 98099.488 -12510.294 98047.777 -12527.912 98029.101 -12531.25 98029.101 -12531.25 98079.259 -12610.211 98108.565 -12651.2 98119.208 -12664.123 98119.336 -12664.258 98119.336 -12664.258 98177.463 -12700.265 98193.75 -12702.93 98193.75 -12702.93 98224.804 -12697.656 98224.804 -12697.656 98235.937 -12732.813 98235.937 -12732.813 98210.742 -12765.625 98210.742 -12765.625 98162.695 -12776.758 98162.695 -12776.758 98100.815 -12754.73 98075.976 -12733.985 98075.976 -12733.985 98045.8 -12697.949 98045.8 -12697.949 98015.991 -12654.996 98015.918 -12654.883 98015.918 -12654.883 97990.722 -12614.453 97990.722 -12614.453 97963.437 -12568.3 97963.183 -12567.871 97963.183 -12567.871 97939.453 -12527.149 97939.453 -12527.149 97907.812 -12501.953 97907.812 -12501.953 97914.257 -12473.242 97914.257 -12473.242 97973.065 -12481.933 97975.195 -12482.031 97975.195 -12482.031 98046.84 -12465.913 98076.752 -12446.076 98077.441 -12445.41 98077.441 -12445.41 98109.969 -12385.454 98113.476 -12360.742 98113.476 -12360.742 98095.138 -12299.806 98088.867 -12291.016 98088.867 -12291.016 98033.328 -12263.536 98019.726 -12262.305 98019.726 -12262.305 97956.504 -12276.814 97934.472 -12286.914 97934.472 -12286.914 97877.506 -12327.639 97856.25 -12348.438 97856.25 -12522.461 97856.25 -12522.461 97858.85 -12612.058 97864.957 -12680.21 97872.031 -12727.177 97877.533 -12753.221 97879.101 -12759.18 97879.101 -12759.18 97833.984 -12768.555 97833.984 -12768.555 97787.695 -12754.199 97787.695 -12754.199 97774.804 -12706.445 97774.804 -12706.445 97774.804 -12706.445 97775.103 -12656.353 97775.662 -12588.978 97775.976 -12553.847 97775.976 -12553.809 97775.976 -12553.809 97776.692 -12464.596 97777.034 -12403.343 97777.14 -12369.945 97777.148 -12363.086 97777.148 -12223.633 97777.148 -12223.633 97776.579 -12110.547 97775.123 -12023.901 97773.161 -11960.551 97771.073 -11917.352 97769.238 -11891.159 97768.036 -11878.829 97767.773 -11876.758"/><path d="M 98315.625 -12681.25 98315.625 -12681.25 98353.602 -12637.147 98369.531 -12630.86 98369.531 -12630.86 98410.432 -12680.156 98426.66 -12689.746 98426.66 -12689.746 98492.812 -12707.726 98521.875 -12709.961 98521.875 -12709.961 98589.383 -12695.817 98605.371 -12687.11 98605.371 -12687.11 98635.687 -12632.234 98637.304 -12616.211 98637.304 -12616.211 98610.006 -12564.434 98605.371 -12561.133 98605.371 -12561.133 98545.255 -12536.152 98528.027 -12531.543 98528.027 -12531.543 98461.449 -12514.578 98436.914 -12507.52 98436.914 -12507.52 98378.554 -12474.265 98359.277 -12455.371 98359.277 -12455.371 98332.098 -12393.91 98327.35 -12354.375 98327.343 -12353.711 98327.343 -12353.711 98347.338 -12286.198 98380.187 -12246.881 98389.16 -12239.453 98389.16 -12239.453 98454.104 -12207.725 98508.047 -12196.381 98528.906 -12194.922 98528.906 -12194.922 98597.523 -12205.263 98637.104 -12219.116 98639.355 -12220.117 98639.355 -12220.117 98688.279 -12267.792 98693.554 -12289.844 98693.554 -12289.844 98655.577 -12334.53 98639.648 -12340.235 98639.648 -12340.235 98598.731 -12292.443 98585.449 -12283.985 98585.449 -12283.985 98521.053 -12264.029 98500.195 -12262.305 98500.195 -12262.305 98438.385 -12278.897 98429.297 -12284.57 98429.297 -12284.57 98400.221 -12337.932 98399.414 -12347.266 98399.414 -12347.266 98426.358 -12399.753 98431.347 -12403.516 98431.347 -12403.516 98490.663 -12429.735 98508.691 -12434.863 98508.691 -12434.863 98574.292 -12452.082 98599.804 -12459.473 98599.804 -12459.473 98658.938 -12492.077 98677.441 -12509.278 98677.441 -12509.278 98705.383 -12569.812 98709.375 -12603.32 98709.375 -12603.32 98709.375 -12603.32 98692.953 -12675.72 98662.941 -12719.045 98648.144 -12732.52 98648.144 -12732.52 98583.829 -12763.453 98527.574 -12775.019 98502.564 -12776.758 98502.539 -12776.758 98502.539 -12776.758 98428.368 -12767.85 98381.723 -12753.216 98372.461 -12749.219 98372.461 -12749.219 98321.157 -12701.725 98315.625 -12681.25"/><path d="M 98811.914 -12492.578 98811.914 -12492.578 98819.346 -12417.492 98831.91 -12368.819 98835.937 -12357.52 98835.937 -12357.52 98871.975 -12294.543 98897.898 -12265.516 98899.511 -12264.063 98899.511 -12264.063 98957.644 -12225.024 98984.179 -12212.5 98984.179 -12212.5 99051.149 -12196.633 99076.172 -12194.922 99076.172 -12194.922 99146.317 -12205.415 99188.432 -12220.572 99192.48 -12222.461 99192.48 -12222.461 99240.93 -12271.753 99247.851 -12300.391 99247.851 -12300.391 99247.851 -12300.391 99210.262 -12346.291 99189.843 -12351.953 99189.843 -12351.953 99154.246 -12296.919 99139.16 -12285.449 99139.16 -12285.449 99076.243 -12264.02 99056.836 -12262.305 99056.836 -12262.305 98990.634 -12281.542 98951.065 -12313.145 98943.457 -12321.778 98943.457 -12321.778 98912.571 -12383.557 98899.984 -12442.602 98897.476 -12475.399 98897.461 -12476.758 98897.461 -12476.758 98906.182 -12560.288 98924.689 -12616.84 98941.494 -12647.246 98946.093 -12653.418 98946.093 -12653.418 99004.658 -12695.139 99055.733 -12708.72 99071.484 -12709.961 99071.484 -12709.961 99133.667 -12698.391 99144.433 -12694.434 99144.433 -12694.434 99193.039 -12654.519 99197.461 -12647.266 99197.461 -12647.266 99243.869 -12688.998 99244.922 -12695.313 99244.922 -12695.313 99211.192 -12745.08 99190.429 -12755.957 99190.429 -12755.957 99123.576 -12772.265 99074.948 -12776.592 99067.382 -12776.758 99067.382 -12776.758 98990.282 -12764.823 98931.634 -12739.028 98895.391 -12714.387 98885.156 -12705.567 98885.156 -12705.567 98846.671 -12650.59 98824.776 -12588.68 98814.792 -12533.405 98812.04 -12498.337 98811.914 -12492.578"/><path d="M 99366.211 -12207.227 99366.211 -12207.227 99407.226 -12203.711 99407.226 -12203.711 99456.762 -12236.728 99458.789 -12248.828 99458.789 -12248.828 99458.203 -12265.235 99458.203 -12265.235 99457.617 -12291.016 99457.617 -12291.016 99501.773 -12241.128 99521.777 -12224.512 99521.777 -12224.512 99584.019 -12196.961 99601.172 -12194.922 99601.172 -12194.922 99644.531 -12207.52 99644.531 -12207.52 99660.351 -12241.797 99660.351 -12241.797 99637.976 -12293.479 99636.328 -12295.703 99636.328 -12295.703 99582.164 -12273.063 99578.32 -12272.852 99578.32 -12272.852 99519.931 -12293.188 99511.23 -12299.219 99511.23 -12299.219 99466.936 -12348.903 99454.687 -12368.945 99454.687 -12368.945 99453.868 -12425.994 99453.561 -12489.82 99453.515 -12521.256 99453.515 -12521.289 99453.515 -12521.289 99456.115 -12611.941 99462.222 -12680.478 99469.297 -12727.421 99474.799 -12753.291 99476.367 -12759.18 99476.367 -12759.18 99430.664 -12768.555 99430.664 -12768.555 99384.082 -12753.028 99384.082 -12753.028 99384.082 -12753.028 99372.079 -12700.868 99372.07 -12700 99372.07 -12700 99372.709 -12641.641 99373.242 -12605.371 99373.242 -12605.371 99374.197 -12527.329 99374.41 -12490.346 99374.414 -12487.891 99374.414 -12487.891 99373.712 -12401.548 99371.99 -12329.012 99369.821 -12271.904 99367.78 -12231.844 99366.44 -12210.45 99366.211 -12207.227"/><path d="M 99725.976 -12489.063 99725.976 -12489.063 99735.886 -12405.118 99758.803 -12340.904 99784.507 -12297.096 99802.778 -12274.366 99805.957 -12271.094 99805.957 -12271.094 99869.041 -12227.057 99929.846 -12204.444 99975.654 -12196.112 99993.75 -12194.922 99993.75 -12194.922 99993.75 -12194.922 100069.221 -12208.294 100116.161 -12232.131 100129.687 -12242.383 100129.687 -12242.383 100170.572 -12302.074 100181.418 -12346.689 100181.836 -12353.711 100181.836 -12353.711 100170.303 -12419.658 100165.136 -12431.641 100165.136 -12431.641 100125.627 -12477.543 100121.484 -12480.567 100121.484 -12480.567 100062.366 -12503.781 100043.554 -12508.106 100043.554 -12508.106 99974.34 -12517.737 99943.359 -12520.117 99943.359 -12520.117 99943.359 -12520.117 99878.207 -12521.929 99824.337 -12522.436 99813.867 -12522.461 99813.867 -12522.461 99831.939 -12597.424 99855.149 -12644.207 99865.722 -12659.278 99865.722 -12659.278 99922.527 -12697.882 99972.23 -12709.26 99983.789 -12709.961 99983.789 -12709.961 100059.18 -12693.147 100099.993 -12662.417 100111.523 -12647.266 100111.523 -12647.266 100157.687 -12689.978 100158.984 -12697.656 100158.984 -12697.656 100123.673 -12745.16 100104.492 -12755.078 100104.492 -12755.078 100036.498 -12772.305 99988.698 -12776.632 99982.617 -12776.758 99982.617 -12776.758 99906.024 -12765.634 99847.778 -12741.162 99810.736 -12716.69 99797.754 -12705.567 99797.754 -12705.567 99797.754 -12705.567 99760.038 -12650.154 99738.581 -12587.237 99728.797 -12530.832 99726.1 -12494.961 99725.976 -12489.063"/></g><path d="M 100289.648 -12489.063 100289.648 -12489.063 100299.558 -12405.118 100322.475 -12340.904 100348.178 -12297.096 100366.45 -12274.366 100369.629 -12271.094 100369.629 -12271.094 100432.713 -12227.057 100493.518 -12204.444 100539.326 -12196.112 100557.422 -12194.922 100557.422 -12194.922 100557.422 -12194.922 100632.893 -12208.294 100679.833 -12232.131 100693.359 -12242.383 100693.359 -12242.383 100734.243 -12302.074 100745.09 -12346.689 100745.507 -12353.711 100745.507 -12353.711 100733.975 -12419.658 100728.808 -12431.641 100728.808 -12431.641 100689.299 -12477.543 100685.156 -12480.567 100685.156 -12480.567 100626.038 -12503.781 100607.226 -12508.106 100607.226 -12508.106 100538.012 -12517.737 100507.031 -12520.117 100507.031 -12520.117 100507.031 -12520.117 100441.879 -12521.929 100388.009 -12522.436 100377.539 -12522.461 100377.539 -12522.461 100395.611 -12597.424 100418.821 -12644.207 100429.394 -12659.278 100429.394 -12659.278 100486.199 -12697.882 100535.902 -12709.26 100547.461 -12709.961 100547.461 -12709.961 100622.851 -12693.147 100663.665 -12662.417 100675.195 -12647.266 100675.195 -12647.266 100721.359 -12689.978 100722.656 -12697.656 100722.656 -12697.656 100687.345 -12745.16 100668.164 -12755.078 100668.164 -12755.078 100600.17 -12772.305 100552.37 -12776.632 100546.289 -12776.758 100546.289 -12776.758 100469.696 -12765.634 100411.45 -12741.162 100374.408 -12716.69 100361.425 -12705.567 100361.425 -12705.567 100361.425 -12705.567 100323.71 -12650.154 100302.253 -12587.237 100292.469 -12530.832 100289.772 -12494.961 100289.648 -12489.063"/></g><path d="M 100871.484 -12213.086 100871.484 -12213.086 100914.843 -12203.711 100914.843 -12203.711 100964.903 -12238.061 100969.921 -12263.477 100969.921 -12263.477 101027.214 -12230.171 101061.94 -12215.527 101062.207 -12215.43 101062.207 -12215.43 101132.266 -12198.334 101171.09 -12194.943 101172.656 -12194.922 101172.656 -12194.922 101245.419 -12209.63 101284.131 -12231.626 101288.379 -12235.059 101288.379 -12235.059 101321.452 -12290.991 101332.219 -12346.34 101333.203 -12364.258 101333.203 -12364.258 101332.115 -12418.473 101331.445 -12450.684 101331.445 -12450.684 101330.067 -12531.867 101329.701 -12572.943 101329.687 -12578.125 101329.687 -12578.125 101333.61 -12660.728 101341.778 -12720.697 101348.788 -12753.864 101350.195 -12759.18 101350.195 -12759.18 101303.32 -12768.555 101303.32 -12768.555 101258.496 -12754.785 101258.496 -12754.785 101244.726 -12707.617 101244.726 -12707.617 101244.726 -12707.617 101245.53 -12650.627 101247.105 -12584.183 101248.193 -12544.106 101248.242 -12542.383 101248.242 -12542.383 101250.792 -12447.209 101251.663 -12404.964 101251.757 -12396.485 101251.757 -12396.485 101236.693 -12323.935 101218.995 -12296.064 101218.652 -12295.703 101218.652 -12295.703 101159.9 -12265.556 101133.984 -12262.305 101133.984 -12262.305 101065.59 -12275.78 101009.611 -12303.288 100977.279 -12325.45 100973.437 -12328.516 100973.437 -12328.516 100974.669 -12423.562 100975.369 -12493.585 100975.689 -12539.595 100975.777 -12562.604 100975.781 -12565.821 100975.781 -12565.821 100976.96 -12648.826 100979.507 -12712.692 100981.941 -12752.534 100982.812 -12763.867 100982.812 -12763.867 100942.382 -12767.383 100942.382 -12767.383 100890.991 -12735.185 100888.476 -12721.68 100888.476 -12721.68 100890.247 -12666.907 100891.406 -12633.496 100891.406 -12633.496 100893.373 -12558.533 100894.175 -12498.688 100894.335 -12468.569 100894.336 -12467.383 100894.336 -12467.383 100891.959 -12365.336 100886.292 -12292.821 100879.528 -12245.899 100873.861 -12220.633 100871.484 -12213.086 100871.484 -12213.086"/></g></svg>