<svg version="1.1" xmlns="http://www.w3.org/2000/svg" xmlns:xlink="http://www.w3.org/1999/xlink" stroke-linecap="round" stroke-linejoin="round" stroke-width="0" fill-rule="evenodd" width="96.523633mm" height="37.777mm" viewBox="3725 -38475 96523.633 37777"><defs><mask id="dvLQXYJJYwfM_clear-1" fill="#000" stroke="#000"><g><rect x="3725" y="-38475" width="90122.852" height="37777" fill="#fff"/><path d="M 93410.157 -2048.829 93410.157 -2048.829 93419.068 -2126.577 93437.62 -2183.587 93453.543 -2215.382 93456.739 -2220.508 93456.739 -2220.508 93510.513 -2268.444 93562.379 -2286.368 93586.499 -2289.063 93586.524 -2289.063 93586.524 -2289.063 93660.509 -2273.214 93704.801 -2244.963 93717.188 -2232.813 93717.188 -2232.813 93749.324 -2171.594 93761.876 -2113.139 93764.06 -2083.255 93764.063 -2082.813 93764.063 -2082.813 93754.872 -2004.953 93735.736 -1947.709 93719.312 -1915.713 93716.016 -1910.547 93716.016 -1910.547 93661.666 -1862.202 93610.255 -1844.124 93586.548 -1841.407 93586.524 -1841.407 93586.524 -1841.407 93512.703 -1857.42 93468.706 -1885.966 93456.446 -1898.243 93456.446 -1898.243 93424.711 -1959.864 93412.316 -2018.475 93410.16 -2048.387 93410.157 -2048.829"/></g></mask><mask id="dvLQXYJJYwfM_clear-2" fill="#000" stroke="#000"><g><rect x="3725" y="-38475" width="90743.36" height="37777" fill="#fff"/><path d="M 94075.782 -1907.618 94075.782 -1907.618 94076.686 -2014.31 94077.322 -2098.442 94077.736 -2162.056 94077.975 -2207.191 94078.089 -2235.889 94078.123 -2250.191 94078.125 -2252.735 94078.125 -2252.735 94141.255 -2278.358 94198.938 -2287.75 94222.266 -2289.063 94222.266 -2289.063 94288.331 -2270.752 94313.965 -2252.442 94313.965 -2252.442 94313.965 -2252.442 94353.742 -2196.459 94367.211 -2163.918 94367.286 -2163.672 94367.286 -2163.672 94380.086 -2095.912 94382.786 -2053.661 94382.813 -2051.172 94382.813 -2051.172 94373.365 -1967.118 94354.866 -1914.788 94342.083 -1893.135 94341.504 -1892.383 94341.504 -1892.383 94283.474 -1851.353 94239.788 -1841.616 94235.157 -1841.407 94235.157 -1841.407 94167.001 -1854.882 94111.509 -1882.39 94079.569 -1904.552 94075.782 -1907.618"/></g></mask><mask id="dvLQXYJJYwfM_clear-3" fill="#000" stroke="#000"><g><rect x="3725" y="-38475" width="92139.063" height="37777" fill="#fff"/><path d="M 95426.368 -2048.829 95426.368 -2048.829 95435.279 -2126.577 95453.831 -2183.587 95469.754 -2215.382 95472.95 -2220.508 95472.95 -2220.508 95526.724 -2268.444 95578.59 -2286.368 95602.71 -2289.063 95602.735 -2289.063 95602.735 -2289.063 95676.72 -2273.214 95721.012 -2244.963 95733.399 -2232.813 95733.399 -2232.813 95765.535 -2171.594 95778.087 -2113.139 95780.271 -2083.255 95780.274 -2082.813 95780.274 -2082.813 95771.083 -2004.953 95751.947 -1947.709 95735.523 -1915.713 95732.227 -1910.547 95732.227 -1910.547 95677.876 -1862.202 95626.466 -1844.124 95602.759 -1841.407 95602.735 -1841.407 95602.735 -1841.407 95528.914 -1857.42 95484.917 -1885.966 95472.657 -1898.243 95472.657 -1898.243 95440.922 -1959.864 95428.527 -2018.475 95426.371 -2048.387 95426.368 -2048.829"/></g></mask><mask id="dvLQXYJJYwfM_clear-4" fill="#000" stroke="#000"><g><rect x="3725" y="-38475" width="92995.704" height="37777" fill="#fff"/><path d="M 96311.719 -2048.829 96311.719 -2048.829 96321.359 -2128.78 96341.428 -2186.803 96358.653 -2218.884 96362.11 -2224.024 96362.11 -2224.024 96418.803 -2273.752 96467.184 -2290.728 96483.985 -2292.579 96483.985 -2292.579 96549.835 -2275.109 96598.835 -2242.41 96618.731 -2224.044 96618.75 -2224.024 96618.75 -2224.024 96617.846 -2102.175 96617.211 -2012.406 96616.797 -1949.935 96616.557 -1909.98 96616.443 -1887.76 96616.409 -1878.492 96616.407 -1877.149 96616.407 -1877.149 96546.856 -1849.519 96500.859 -1841.787 96492.774 -1841.407 96492.774 -1841.407 96420.031 -1856.65 96374.85 -1884.507 96360.352 -1898.243 96360.352 -1898.243 96327.011 -1959.864 96313.988 -2018.475 96311.722 -2048.387 96311.719 -2048.829"/></g></mask><mask id="dvLQXYJJYwfM_clear-5" fill="#000" stroke="#000"><g><rect x="3725" y="-38475" width="93576.954" height="37777" fill="#fff"/><path d="M 96932.813 -2041.797 96932.813 -2041.797 97003.072 -2041.055 97018.946 -2040.625 97018.946 -2040.625 97081.905 -2034.997 97094.532 -2033.301 97094.532 -2033.301 97155.604 -2018.374 97160.743 -2016.309 97160.743 -2016.309 97202.005 -1985.308 97202.051 -1985.254 97202.051 -1985.254 97219.33 -1935.582 97219.336 -1935.157 97219.336 -1935.157 97196.182 -1877.423 97187.696 -1868.36 97187.696 -1868.36 97128.539 -1842.173 97109.18 -1840.235 97109.18 -1840.235 97039.359 -1855.463 96995.946 -1881.202 96986.133 -1889.454 96986.133 -1889.454 96951.367 -1946.09 96936.368 -2005.74 96932.863 -2040.335 96932.813 -2041.797"/></g></mask><mask id="dvLQXYJJYwfM_clear-6" fill="#000" stroke="#000"><g><rect x="3725" y="-38475" width="95427.344" height="37777" fill="#fff"/><path d="M 98799.61 -2187.11 98799.61 -2187.11 98818.377 -2252.31 98830.665 -2266.797 98830.665 -2266.797 98890.866 -2290.929 98909.766 -2292.579 98909.766 -2292.579 98982.882 -2278.121 99031.199 -2251.699 99047.461 -2238.672 99047.461 -2238.672 99046.291 -2183.765 99046.29 -2182.422 99046.29 -2182.422 99048.617 -2113.043 99050.391 -2082.813 99050.391 -2082.813 98998.327 -2088.661 98998.243 -2088.672 98998.243 -2088.672 98951.075 -2094.532 98951.075 -2094.532 98907.129 -2101.563 98907.129 -2101.563 98871.973 -2111.231 98871.973 -2111.231 98840.918 -2124.707 98840.918 -2124.707 98819.239 -2140.821 98819.239 -2140.821 98803.711 -2161.036 98803.711 -2161.036 98799.61 -2187.11"/></g></mask></defs><g transform="translate(0,-39173) scale(1,-1)" fill="currentColor" stroke="currentColor"><g mask="url(#dvLQXYJJYwfM_clear-6)"><g mask="url(#dvLQXYJJYwfM_clear-5)"><g mask="url(#dvLQXYJJYwfM_clear-4)"><g mask="url(#dvLQXYJJYwfM_clear-3)"><g mask="url(#dvLQXYJJYwfM_clear-2)"><g mask="url(#dvLQXYJJYwfM_clear-1)"><path d="M 22975 -16975 26025 -16975 26025 -20025 22975 -20025 22975 -16975"/><path d="M 22975 -29975 26025 -29975 26025 -33025 22975 -33025 22975 -29975"/><path d="M 83500 -21875 84725 -21875 84725 -21875 84760.355 -21889.645 84775 -21925 84775 -21925 84775 -22500 84775 -23075 84775 -23075 84760.355 -23110.355 84725 -23125 84725 -23125 83500 -23125 82275 -23125 82275 -23125 82239.645 -23110.355 82225 -23075 82225 -23075 82225 -22500 82225 -21925 82225 -21925 82239.645 -21889.645 82275 -21875 82275 -21875 83500 -21875"/><path d="M 83500 -26875 84725 -26875 84725 -26875 84760.355 -26889.645 84775 -26925 84775 -26925 84775 -27500 84775 -28075 84775 -28075 84760.355 -28110.355 84725 -28125 84725 -28125 83500 -28125 82275 -28125 82275 -28125 82239.645 -28110.355 82225 -28075 82225 -28075 82225 -27500 82225 -26925 82225 -26925 82239.645 -26889.645 82275 -26875 82275 -26875 83500 -26875"/><path d="M 83500 -24375 84725 -24375 84725 -24375 84760.355 -24389.645 84775 -24425 84775 -24425 84775 -25000 84775 -25575 84775 -25575 84760.355 -25610.355 84725 -25625 84725 -25625 83500 -25625 82275 -25625 82275 -25625 82239.645 -25610.355 82225 -25575 82225 -25575 82225 -25000 82225 -24425 82225 -24425 82239.645 -24389.645 82275 -24375 82275 -24375 83500 -24375"/><path d="M 78000 -24375 79225 -24375 79225 -24375 79260.355 -24389.645 79275 -24425 79275 -24425 79275 -25000 79275 -25575 79275 -25575 79260.355 -25610.355 79225 -25625 79225 -25625 78000 -25625 76775 -25625 76775 -25625 76739.645 -25610.355 76725 -25575 76725 -25575 76725 -25000 76725 -24425 76725 -24425 76739.645 -24389.645 76775 -24375 76775 -24375 78000 -24375"/><path d="M 78000 -21875 79225 -21875 79225 -21875 79260.355 -21889.645 79275 -21925 79275 -21925 79275 -22500 79275 -23075 79275 -23075 79260.355 -23110.355 79225 -23125 79225 -23125 78000 -23125 76775 -23125 76775 -23125 76739.645 -23110.355 76725 -23075 76725 -23075 76725 -22500 76725 -21925 76725 -21925 76739.645 -21889.645 76775 -21875 76775 -21875 78000 -21875"/><path d="M 78000 -26875 79225 -26875 79225 -26875 79260.355 -26889.645 79275 -26925 79275 -26925 79275 -27500 79275 -28075 79275 -28075 79260.355 -28110.355 79225 -28125 79225 -28125 78000 -28125 76775 -28125 76775 -28125 76739.645 -28110.355 76725 -28075 76725 -28075 76725 -27500 76725 -26925 76725 -26925 76739.645 -26889.645 76775 -26875 76775 -26875 78000 -26875"/><path d="M 13225 -30390 14775 -30390 14775 -31040 13225 -31040 13225 -30390"/><path d="M 3725 -30390 5275 -30390 5275 -31040 3725 -31040 3725 -30390"/><path d="M 13225 -27850 14775 -27850 14775 -28500 13225 -28500 13225 -27850"/><path d="M 13225 -29120 14775 -29120 14775 -29770 13225 -29770 13225 -29120"/><path d="M 13225 -25310 14775 -25310 14775 -25960 13225 -25960 13225 -25310"/><path d="M 13225 -26580 14775 -26580 14775 -27230 13225 -27230 13225 -26580"/><path d="M 13225 -22770 14775 -22770 14775 -23420 13225 -23420 13225 -22770"/><path d="M 13225 -24040 14775 -24040 14775 -24690 13225 -24690 13225 -24040"/><path d="M 13225 -20230 14775 -20230 14775 -20880 13225 -20880 13225 -20230"/><path d="M 13225 -21500 14775 -21500 14775 -22150 13225 -22150 13225 -21500"/><path d="M 13225 -18960 14775 -18960 14775 -19610 13225 -19610 13225 -18960"/><path d="M 3725 -18960 5275 -18960 5275 -19610 3725 -19610 3725 -18960"/><path d="M 3725 -21500 5275 -21500 5275 -22150 3725 -22150 3725 -21500"/><path d="M 3725 -20230 5275 -20230 5275 -20880 3725 -20880 3725 -20230"/><path d="M 3725 -24040 5275 -24040 5275 -24690 3725 -24690 3725 -24040"/><path d="M 3725 -22770 5275 -22770 5275 -23420 3725 -23420 3725 -22770"/><path d="M 3725 -26580 5275 -26580 5275 -27230 3725 -27230 3725 -26580"/><path d="M 3725 -25310 5275 -25310 5275 -25960 3725 -25960 3725 -25310"/><path d="M 3725 -29120 5275 -29120 5275 -29770 3725 -29770 3725 -29120"/><path d="M 3725 -27850 5275 -27850 5275 -28500 3725 -28500 3725 -27850"/><path d="M 42460 -2902 42460 -2902 42524.107 -2899.926 42587.106 -2893.79 42648.869 -2883.72 42709.269 -2869.845 42768.175 -2852.294 42825.461 -2831.194 42880.997 -2806.674 42934.655 -2778.863 42986.306 -2747.89 43035.822 -2713.882 43083.075 -2676.968 43127.936 -2637.276 43170.276 -2594.936 43209.968 -2550.075 43246.882 -2502.822 43280.89 -2453.306 43311.863 -2401.655 43339.674 -2347.997 43364.194 -2292.461 43385.294 -2235.175 43402.845 -2176.269 43416.72 -2115.869 43426.79 -2054.106 43432.926 -1991.107 43435 -1927 43435 -1927 43435 -1927 43432.926 -1862.893 43426.79 -1799.894 43416.72 -1738.131 43402.845 -1677.731 43385.294 -1618.825 43364.194 -1561.539 43339.674 -1506.003 43311.863 -1452.345 43280.89 -1400.694 43246.882 -1351.178 43209.968 -1303.925 43170.276 -1259.064 43127.936 -1216.724 43083.075 -1177.032 43035.822 -1140.118 42986.306 -1106.11 42934.655 -1075.137 42880.997 -1047.326 42825.461 -1022.806 42768.175 -1001.706 42709.269 -984.155 42648.869 -970.28 42587.106 -960.21 42524.107 -954.074 42460 -952 42460 -952 42460 -952 42395.893 -954.074 42332.894 -960.21 42271.131 -970.28 42210.731 -984.155 42151.825 -1001.706 42094.539 -1022.806 42039.003 -1047.326 41985.345 -1075.137 41933.694 -1106.11 41884.178 -1140.118 41836.925 -1177.032 41792.064 -1216.724 41749.724 -1259.064 41710.032 -1303.925 41673.118 -1351.178 41639.11 -1400.694 41608.137 -1452.345 41580.326 -1506.003 41555.806 -1561.539 41534.706 -1618.825 41517.155 -1677.731 41503.28 -1738.131 41493.21 -1799.894 41487.074 -1862.893 41485 -1927 41485 -1927 41485 -1927 41487.074 -1991.107 41493.21 -2054.106 41503.28 -2115.869 41517.155 -2176.269 41534.706 -2235.175 41555.806 -2292.461 41580.326 -2347.997 41608.137 -2401.655 41639.11 -2453.306 41673.118 -2502.822 41710.032 -2550.075 41749.724 -2594.936 41792.064 -2637.276 41836.925 -2676.968 41884.178 -2713.882 41933.694 -2747.89 41985.345 -2778.863 42039.003 -2806.674 42094.539 -2831.194 42151.825 -2852.294 42210.731 -2869.845 42271.131 -2883.72 42332.894 -2893.79 42395.893 -2899.926 42460 -2902 42460 -2902"/><path d="M 47540 -2902 47540 -2902 47604.107 -2899.926 47667.106 -2893.79 47728.869 -2883.72 47789.269 -2869.845 47848.175 -2852.294 47905.461 -2831.194 47960.997 -2806.674 48014.655 -2778.863 48066.306 -2747.89 48115.822 -2713.882 48163.075 -2676.968 48207.936 -2637.276 48250.276 -2594.936 48289.968 -2550.075 48326.882 -2502.822 48360.89 -2453.306 48391.863 -2401.655 48419.674 -2347.997 48444.194 -2292.461 48465.294 -2235.175 48482.845 -2176.269 48496.72 -2115.869 48506.79 -2054.106 48512.926 -1991.107 48515 -1927 48515 -1927 48515 -1927 48512.926 -1862.893 48506.79 -1799.894 48496.72 -1738.131 48482.845 -1677.731 48465.294 -1618.825 48444.194 -1561.539 48419.674 -1506.003 48391.863 -1452.345 48360.89 -1400.694 48326.882 -1351.178 48289.968 -1303.925 48250.276 -1259.064 48207.936 -1216.724 48163.075 -1177.032 48115.822 -1140.118 48066.306 -1106.11 48014.655 -1075.137 47960.997 -1047.326 47905.461 -1022.806 47848.175 -1001.706 47789.269 -984.155 47728.869 -970.28 47667.106 -960.21 47604.107 -954.074 47540 -952 47540 -952 47540 -952 47475.893 -954.074 47412.894 -960.21 47351.131 -970.28 47290.731 -984.155 47231.825 -1001.706 47174.539 -1022.806 47119.003 -1047.326 47065.345 -1075.137 47013.694 -1106.11 46964.178 -1140.118 46916.925 -1177.032 46872.064 -1216.724 46829.724 -1259.064 46790.032 -1303.925 46753.118 -1351.178 46719.11 -1400.694 46688.137 -1452.345 46660.326 -1506.003 46635.806 -1561.539 46614.706 -1618.825 46597.155 -1677.731 46583.28 -1738.131 46573.21 -1799.894 46567.074 -1862.893 46565 -1927 46565 -1927 46565 -1927 46567.074 -1991.107 46573.21 -2054.106 46583.28 -2115.869 46597.155 -2176.269 46614.706 -2235.175 46635.806 -2292.461 46660.326 -2347.997 46688.137 -2401.655 46719.11 -2453.306 46753.118 -2502.822 46790.032 -2550.075 46829.724 -2594.936 46872.064 -2637.276 46916.925 -2676.968 46964.178 -2713.882 47013.694 -2747.89 47065.345 -2778.863 47119.003 -2806.674 47174.539 -2831.194 47231.825 -2852.294 47290.731 -2869.845 47351.131 -2883.72 47412.894 -2893.79 47475.893 -2899.926 47540 -2902 47540 -2902"/><path d="M 45000 -2648 45000 -2648 45064.107 -2645.926 45127.106 -2639.79 45188.869 -2629.72 45249.269 -2615.845 45308.175 -2598.294 45365.461 -2577.194 45420.997 -2552.674 45474.655 -2524.863 45526.306 -2493.89 45575.822 -2459.882 45623.075 -2422.968 45667.936 -2383.276 45710.276 -2340.936 45749.968 -2296.075 45786.882 -2248.822 45820.89 -2199.306 45851.863 -2147.655 45879.674 -2093.997 45904.194 -2038.461 45925.294 -1981.175 45942.845 -1922.269 45956.72 -1861.869 45966.79 -1800.106 45972.926 -1737.107 45975 -1673 45975 -1673 45975 -1673 45972.926 -1608.893 45966.79 -1545.894 45956.72 -1484.131 45942.845 -1423.731 45925.294 -1364.825 45904.194 -1307.539 45879.674 -1252.003 45851.863 -1198.345 45820.89 -1146.694 45786.882 -1097.178 45749.968 -1049.925 45710.276 -1005.064 45667.936 -962.724 45623.075 -923.032 45575.822 -886.118 45526.306 -852.11 45474.655 -821.137 45420.997 -793.326 45365.461 -768.806 45308.175 -747.706 45249.269 -730.155 45188.869 -716.28 45127.106 -706.21 45064.107 -700.074 45000 -698 45000 -698 45000 -698 44935.893 -700.074 44872.894 -706.21 44811.131 -716.28 44750.731 -730.155 44691.825 -747.706 44634.539 -768.806 44579.003 -793.326 44525.345 -821.137 44473.694 -852.11 44424.178 -886.118 44376.925 -923.032 44332.064 -962.724 44289.724 -1005.064 44250.032 -1049.925 44213.118 -1097.178 44179.11 -1146.694 44148.137 -1198.345 44120.326 -1252.003 44095.806 -1307.539 44074.706 -1364.825 44057.155 -1423.731 44043.28 -1484.131 44033.21 -1545.894 44027.074 -1608.893 44025 -1673 44025 -1673 44025 -1673 44027.074 -1737.107 44033.21 -1800.106 44043.28 -1861.869 44057.155 -1922.269 44074.706 -1981.175 44095.806 -2038.461 44120.326 -2093.997 44148.137 -2147.655 44179.11 -2199.306 44213.118 -2248.822 44250.032 -2296.075 44289.724 -2340.936 44332.064 -2383.276 44376.925 -2422.968 44424.178 -2459.882 44473.694 -2493.89 44525.345 -2524.863 44579.003 -2552.674 44634.539 -2577.194 44691.825 -2598.294 44750.731 -2615.845 44811.131 -2629.72 44872.894 -2639.79 44935.893 -2645.926 45000 -2648 45000 -2648"/><path d="M 80750 -36375 80750 -36375 80817.394 -36372.82 80883.624 -36366.369 80948.555 -36355.783 81012.052 -36341.197 81073.979 -36322.745 81134.203 -36300.563 81192.587 -36274.786 81248.996 -36245.549 81303.296 -36212.987 81355.352 -36177.234 81405.028 -36138.427 81452.189 -36096.701 81496.701 -36052.189 81538.427 -36005.028 81577.234 -35955.352 81612.987 -35903.296 81645.549 -35848.996 81674.786 -35792.586 81700.563 -35734.203 81722.745 -35673.979 81741.197 -35612.052 81755.783 -35548.555 81766.369 -35483.624 81772.82 -35417.394 81775 -35350 81775 -35350 81775 -35350 81772.82 -35282.606 81766.369 -35216.376 81755.783 -35151.445 81741.197 -35087.948 81722.745 -35026.021 81700.563 -34965.797 81674.786 -34907.413 81645.549 -34851.004 81612.987 -34796.704 81577.234 -34744.648 81538.427 -34694.972 81496.701 -34647.811 81452.189 -34603.299 81405.028 -34561.573 81355.352 -34522.766 81303.296 -34487.013 81248.996 -34454.451 81192.587 -34425.214 81134.203 -34399.437 81073.979 -34377.255 81012.052 -34358.803 80948.555 -34344.217 80883.624 -34333.631 80817.394 -34327.18 80750 -34325 80750 -34325 80750 -34325 80682.606 -34327.18 80616.376 -34333.631 80551.445 -34344.217 80487.948 -34358.803 80426.021 -34377.255 80365.797 -34399.437 80307.413 -34425.214 80251.004 -34454.451 80196.704 -34487.013 80144.648 -34522.766 80094.972 -34561.573 80047.811 -34603.299 80003.299 -34647.811 79961.573 -34694.972 79922.766 -34744.648 79887.013 -34796.704 79854.451 -34851.004 79825.214 -34907.413 79799.437 -34965.797 79777.255 -35026.021 79758.803 -35087.948 79744.217 -35151.445 79733.631 -35216.376 79727.18 -35282.606 79725 -35350 79725 -35350 79725 -35350 79727.18 -35417.394 79733.631 -35483.624 79744.217 -35548.555 79758.803 -35612.052 79777.255 -35673.979 79799.437 -35734.203 79825.214 -35792.586 79854.451 -35848.996 79887.013 -35903.296 79922.766 -35955.352 79961.573 -36005.028 80003.299 -36052.189 80047.811 -36096.701 80094.972 -36138.427 80144.648 -36177.234 80196.704 -36212.987 80251.004 -36245.549 80307.413 -36274.786 80365.797 -36300.563 80426.021 -36322.745 80487.948 -36341.197 80551.445 -36355.783 80616.376 -36366.369 80682.606 -36372.82 80750 -36375 80750 -36375"/><path d="M 85750 -38475 85750 -38475 85817.394 -38472.82 85883.624 -38466.369 85948.555 -38455.783 86012.052 -38441.197 86073.979 -38422.745 86134.203 -38400.563 86192.587 -38374.786 86248.996 -38345.549 86303.296 -38312.987 86355.352 -38277.234 86405.028 -38238.427 86452.189 -38196.701 86496.701 -38152.189 86538.427 -38105.028 86577.234 -38055.352 86612.987 -38003.296 86645.549 -37948.996 86674.786 -37892.587 86700.563 -37834.203 86722.745 -37773.979 86741.197 -37712.052 86755.783 -37648.555 86766.369 -37583.624 86772.82 -37517.394 86775 -37450 86775 -37450 86775 -37450 86772.82 -37382.606 86766.369 -37316.376 86755.783 -37251.445 86741.197 -37187.948 86722.745 -37126.021 86700.563 -37065.797 86674.786 -37007.413 86645.549 -36951.004 86612.987 -36896.704 86577.234 -36844.648 86538.427 -36794.972 86496.701 -36747.811 86452.189 -36703.299 86405.028 -36661.573 86355.352 -36622.766 86303.296 -36587.013 86248.996 -36554.451 86192.587 -36525.214 86134.203 -36499.437 86073.979 -36477.255 86012.052 -36458.803 85948.555 -36444.217 85883.624 -36433.631 85817.394 -36427.18 85750 -36425 85750 -36425 85750 -36425 85682.606 -36427.18 85616.376 -36433.631 85551.445 -36444.217 85487.948 -36458.803 85426.021 -36477.255 85365.797 -36499.437 85307.413 -36525.214 85251.004 -36554.451 85196.704 -36587.013 85144.648 -36622.766 85094.972 -36661.573 85047.811 -36703.299 85003.299 -36747.811 84961.573 -36794.972 84922.766 -36844.648 84887.013 -36896.704 84854.451 -36951.004 84825.214 -37007.413 84799.437 -37065.797 84777.255 -37126.021 84758.803 -37187.948 84744.217 -37251.445 84733.631 -37316.376 84727.18 -37382.606 84725 -37450 84725 -37450 84725 -37450 84727.18 -37517.394 84733.631 -37583.624 84744.217 -37648.555 84758.803 -37712.052 84777.255 -37773.979 84799.437 -37834.203 84825.214 -37892.587 84854.451 -37948.996 84887.013 -38003.296 84922.766 -38055.352 84961.573 -38105.028 85003.299 -38152.189 85047.811 -38196.701 85094.972 -38238.427 85144.648 -38277.234 85196.704 -38312.987 85251.004 -38345.549 85307.413 -38374.786 85365.797 -38400.563 85426.021 -38422.745 85487.948 -38441.197 85551.445 -38455.783 85616.376 -38466.369 85682.606 -38472.82 85750 -38475 85750 -38475"/><path d="M 56296.927 -26113.235 55361.38 -26115.185 55361.38 -26115.185 55313.209 -26130.368 55283.776 -26169.091 55281.302 -26216.751 55281.302 -26216.751 55292.514 -26264.66 55303.519 -26313.173 55314.315 -26362.268 55324.902 -26411.922 55335.279 -26462.113 55345.446 -26512.819 55355.4 -26564.019 55365.143 -26615.689 55374.672 -26667.808 55383.988 -26720.354 55393.089 -26773.304 55401.975 -26826.637 55410.644 -26880.33 55419.097 -26934.361 55427.332 -26988.708 55435.348 -27043.348 55443.145 -27098.261 55450.722 -27153.423 55458.078 -27208.812 55465.212 -27264.407 55472.124 -27320.185 55478.813 -27376.124 55485.278 -27432.201 55491.518 -27488.396 55497.532 -27544.685 55503.32 -27601.047 55508.882 -27657.459 55514.215 -27713.899 55519.319 -27770.345 55524.195 -27826.775 55528.84 -27883.167 55533.253 -27939.499 55537.436 -27995.748 55541.385 -28051.893 55545.102 -28107.911 55548.584 -28163.78 55551.831 -28219.478 55554.843 -28274.983 55557.618 -28330.273 55560.156 -28385.325 55562.456 -28440.118 55564.517 -28494.629 55566.339 -28548.836 55567.92 -28602.718 55569.261 -28656.251 55570.359 -28709.414 55571.215 -28762.185 55571.827 -28814.542 55572.195 -28866.461 55572.318 -28917.922 55572.318 -28917.922 55572.318 -28917.922 55572.192 -28969.621 55571.817 -29022.162 55571.192 -29075.506 55570.32 -29129.615 55569.2 -29184.452 55567.835 -29239.978 55566.224 -29296.154 55564.369 -29352.943 55562.272 -29410.306 55559.932 -29468.206 55557.352 -29526.603 55554.531 -29585.46 55551.471 -29644.738 55548.173 -29704.4 55544.639 -29764.407 55540.868 -29824.72 55536.862 -29885.303 55532.622 -29946.115 55528.149 -30007.12 55523.444 -30068.279 55518.508 -30129.553 55513.342 -30190.905 55507.947 -30252.297 55502.324 -30313.689 55496.474 -30375.045 55490.398 -30436.325 55484.096 -30497.492 55477.571 -30558.507 55470.823 -30619.332 55463.852 -30679.929 55456.661 -30740.259 55449.249 -30800.285 55441.619 -30859.969 55433.77 -30919.271 55425.704 -30978.154 55417.422 -31036.579 55408.926 -31094.509 55400.215 -31151.906 55391.291 -31208.73 55382.154 -31264.943 55372.807 -31320.509 55363.25 -31375.387 55353.484 -31429.541 55343.509 -31482.932 55333.328 -31535.521 55322.94 -31587.271 55312.348 -31638.143 55301.551 -31688.099 55290.551 -31737.1 55279.349 -31785.11 55279.349 -31785.11 55279.349 -31785.11 55282.874 -31835.493 55313.661 -31873.148 55359.427 -31886.673 56296.927 -31886.673 57076.224 -31886.673 57076.224 -31886.673 57084.034 -31886.673 57084.034 -31886.673 57084.034 -31886.673 57103.746 -31885.322 57148.487 -31880.773 57148.487 -31880.773 57148.487 -31880.773 57184.614 -31875.562 57224.656 -31862.708 57263.721 -31835.853 57263.721 -31835.853 57300.546 -31793.893 57326.59 -31750.002 57344.638 -31706.067 57357.471 -31663.978 57357.471 -31663.978 57357.471 -31663.978 57370.015 -31617.086 57382.182 -31569.291 57393.978 -31520.63 57405.408 -31471.138 57416.477 -31420.852 57427.191 -31369.808 57437.553 -31318.04 57447.57 -31265.586 57457.247 -31212.48 57466.587 -31158.76 57475.597 -31104.461 57484.282 -31049.618 57492.646 -30994.268 57500.695 -30938.447 57508.433 -30882.19 57515.867 -30825.534 57523 -30768.514 57529.837 -30711.166 57536.385 -30653.527 57542.648 -30595.632 57548.631 -30537.516 57554.339 -30479.217 57559.777 -30420.77 57564.951 -30362.21 57569.864 -30303.574 57574.523 -30244.898 57578.933 -30186.217 57583.098 -30127.568 57587.023 -30068.986 57590.714 -30010.507 57594.176 -29952.167 57597.413 -29894.003 57600.431 -29836.049 57603.235 -29778.343 57605.83 -29720.919 57608.221 -29663.814 57610.412 -29607.063 57612.41 -29550.703 57614.219 -29494.77 57615.844 -29439.299 57617.291 -29384.327 57618.563 -29329.888 57619.667 -29276.02 57620.608 -29222.758 57621.39 -29170.137 57622.018 -29118.195 57622.498 -29066.966 57622.835 -29016.487 57623.034 -28966.794 57623.099 -28917.922 57623.099 -28917.922 57623.099 -28917.922 57622.985 -28868.83 57622.646 -28819.287 57622.081 -28769.314 57621.292 -28718.932 57620.279 -28668.163 57619.044 -28617.027 57617.587 -28565.547 57615.909 -28513.742 57614.011 -28461.635 57611.895 -28409.247 57609.559 -28356.598 57607.007 -28303.71 57604.238 -28250.604 57601.253 -28197.301 57598.054 -28143.823 57594.64 -28090.191 57591.014 -28036.425 57587.175 -27982.547 57583.125 -27928.579 57578.865 -27874.541 57574.395 -27820.454 57569.716 -27766.34 57564.829 -27712.221 57559.736 -27658.116 57554.436 -27604.048 57548.931 -27550.037 57543.221 -27496.105 57537.308 -27442.273 57531.192 -27388.562 57524.875 -27334.993 57518.356 -27281.587 57511.637 -27228.367 57504.72 -27175.352 57497.603 -27122.564 57490.29 -27070.025 57482.779 -27017.754 57475.073 -26965.775 57467.172 -26914.107 57459.077 -26862.772 57450.789 -26811.792 57442.309 -26761.186 57433.637 -26710.978 57424.774 -26661.187 57415.722 -26611.835 57406.481 -26562.943 57397.052 -26514.532 57387.436 -26466.624 57377.634 -26419.239 57367.646 -26372.399 57357.474 -26326.126 57357.474 -26326.126 57357.474 -26326.126 57357.474 -26324.176 57357.474 -26324.176 57357.474 -26324.176 57335.854 -26269.566 57306.024 -26226.724 57273.722 -26194.782 57244.688 -26172.867 57224.661 -26160.11 57224.661 -26160.11 57224.661 -26160.11 57187.031 -26140.389 57148.046 -26126.624 57108.306 -26118.372 57068.411 -26115.188 57068.411 -26115.188 57068.411 -26115.188 57066.461 -26115.188 57066.461 -26115.188"/><path d="M 33703.073 -31886.765 34638.62 -31884.815 34638.62 -31884.815 34686.791 -31869.632 34716.224 -31830.909 34718.698 -31783.249 34718.698 -31783.249 34707.486 -31735.34 34696.481 -31686.827 34685.685 -31637.732 34675.098 -31588.078 34664.721 -31537.887 34654.554 -31487.181 34644.6 -31435.981 34634.857 -31384.311 34625.328 -31332.192 34616.012 -31279.646 34606.911 -31226.696 34598.025 -31173.363 34589.356 -31119.67 34580.903 -31065.639 34572.668 -31011.292 34564.652 -30956.652 34556.855 -30901.739 34549.278 -30846.577 34541.922 -30791.188 34534.788 -30735.593 34527.876 -30679.815 34521.187 -30623.876 34514.722 -30567.799 34508.482 -30511.604 34502.468 -30455.315 34496.68 -30398.953 34491.118 -30342.541 34485.785 -30286.101 34480.681 -30229.655 34475.805 -30173.225 34471.16 -30116.833 34466.747 -30060.501 34462.564 -30004.252 34458.615 -29948.107 34454.898 -29892.089 34451.416 -29836.22 34448.169 -29780.522 34445.157 -29725.017 34442.382 -29669.727 34439.844 -29614.675 34437.544 -29559.882 34435.483 -29505.371 34433.661 -29451.164 34432.08 -29397.282 34430.739 -29343.749 34429.641 -29290.586 34428.785 -29237.815 34428.173 -29185.458 34427.805 -29133.539 34427.682 -29082.078 34427.682 -29082.078 34427.682 -29082.078 34427.808 -29030.379 34428.183 -28977.838 34428.808 -28924.494 34429.68 -28870.385 34430.8 -28815.548 34432.165 -28760.022 34433.776 -28703.846 34435.631 -28647.057 34437.728 -28589.694 34440.068 -28531.794 34442.648 -28473.397 34445.469 -28414.54 34448.529 -28355.262 34451.827 -28295.6 34455.361 -28235.593 34459.132 -28175.28 34463.138 -28114.697 34467.378 -28053.885 34471.851 -27992.88 34476.556 -27931.721 34481.492 -27870.447 34486.658 -27809.095 34492.053 -27747.703 34497.676 -27686.311 34503.526 -27624.955 34509.602 -27563.675 34515.904 -27502.508 34522.429 -27441.493 34529.177 -27380.668 34536.148 -27320.071 34543.339 -27259.741 34550.751 -27199.715 34558.381 -27140.031 34566.23 -27080.729 34574.296 -27021.846 34582.578 -26963.421 34591.074 -26905.491 34599.785 -26848.094 34608.709 -26791.27 34617.846 -26735.057 34627.193 -26679.491 34636.75 -26624.613 34646.516 -26570.459 34656.491 -26517.068 34666.672 -26464.479 34677.06 -26412.729 34687.652 -26361.857 34698.449 -26311.901 34709.449 -26262.9 34720.651 -26214.89 34720.651 -26214.89 34720.651 -26214.89 34717.126 -26164.507 34686.339 -26126.852 34640.573 -26113.327 33703.073 -26113.327 32923.776 -26113.327 32923.776 -26113.327 32915.966 -26113.327 32915.966 -26113.327 32915.966 -26113.327 32896.254 -26114.678 32851.513 -26119.227 32851.513 -26119.227 32851.513 -26119.227 32815.386 -26124.438 32775.344 -26137.292 32736.279 -26164.147 32736.279 -26164.147 32699.454 -26206.107 32673.41 -26249.998 32655.362 -26293.933 32642.529 -26336.022 32642.529 -26336.022 32642.529 -26336.022 32629.985 -26382.914 32617.818 -26430.709 32606.022 -26479.37 32594.592 -26528.862 32583.523 -26579.148 32572.809 -26630.192 32562.447 -26681.96 32552.43 -26734.414 32542.753 -26787.52 32533.413 -26841.24 32524.403 -26895.539 32515.718 -26950.382 32507.354 -27005.732 32499.305 -27061.553 32491.567 -27117.81 32484.133 -27174.466 32477 -27231.486 32470.163 -27288.834 32463.615 -27346.473 32457.352 -27404.368 32451.369 -27462.484 32445.661 -27520.783 32440.223 -27579.23 32435.049 -27637.79 32430.136 -27696.426 32425.477 -27755.102 32421.067 -27813.783 32416.902 -27872.432 32412.977 -27931.014 32409.286 -27989.493 32405.824 -28047.833 32402.587 -28105.997 32399.569 -28163.951 32396.765 -28221.657 32394.17 -28279.081 32391.779 -28336.186 32389.588 -28392.937 32387.59 -28449.297 32385.781 -28505.23 32384.156 -28560.701 32382.709 -28615.673 32381.437 -28670.112 32380.333 -28723.98 32379.392 -28777.242 32378.61 -28829.863 32377.982 -28881.805 32377.502 -28933.034 32377.165 -28983.513 32376.966 -29033.206 32376.901 -29082.078 32376.901 -29082.078 32376.901 -29082.078 32377.015 -29131.17 32377.354 -29180.713 32377.919 -29230.686 32378.708 -29281.068 32379.721 -29331.837 32380.956 -29382.973 32382.413 -29434.453 32384.091 -29486.258 32385.989 -29538.365 32388.105 -29590.753 32390.441 -29643.402 32392.993 -29696.29 32395.762 -29749.396 32398.747 -29802.699 32401.946 -29856.177 32405.36 -29909.809 32408.986 -29963.575 32412.825 -30017.453 32416.875 -30071.421 32421.135 -30125.459 32425.605 -30179.546 32430.284 -30233.66 32435.171 -30287.779 32440.264 -30341.884 32445.564 -30395.952 32451.069 -30449.963 32456.779 -30503.895 32462.692 -30557.727 32468.808 -30611.438 32475.125 -30665.007 32481.644 -30718.413 32488.363 -30771.633 32495.28 -30824.648 32502.397 -30877.436 32509.71 -30929.975 32517.221 -30982.246 32524.927 -31034.225 32532.828 -31085.893 32540.923 -31137.228 32549.211 -31188.208 32557.691 -31238.814 32566.363 -31289.022 32575.226 -31338.813 32584.278 -31388.165 32593.519 -31437.057 32602.948 -31485.468 32612.564 -31533.376 32622.366 -31580.761 32632.354 -31627.601 32642.526 -31673.874 32642.526 -31673.874 32642.526 -31673.874 32642.526 -31675.824 32642.526 -31675.824 32642.526 -31675.824 32664.146 -31730.434 32693.976 -31773.276 32726.278 -31805.218 32755.312 -31827.133 32775.339 -31839.89 32775.339 -31839.89 32775.339 -31839.89 32812.969 -31859.611 32851.954 -31873.376 32891.694 -31881.628 32931.589 -31884.812 32931.589 -31884.812 32931.589 -31884.812 32933.539 -31884.812 32933.539 -31884.812"/><path d="M 45000 -36525 45000 -36525 45124.44 -36523.992 45248.392 -36520.978 45371.841 -36515.973 45494.771 -36508.994 45617.167 -36500.055 45739.014 -36489.172 45860.295 -36476.361 45980.996 -36461.636 46101.101 -36445.014 46220.594 -36426.51 46339.46 -36406.14 46457.684 -36383.919 46575.25 -36359.862 46692.142 -36333.985 46808.345 -36306.303 46923.843 -36276.833 47038.622 -36245.589 47152.665 -36212.587 47265.957 -36177.842 47378.482 -36141.371 47490.225 -36103.187 47601.171 -36063.308 47711.304 -36021.748 47820.609 -35978.523 47929.07 -35933.648 48036.671 -35887.139 48143.397 -35839.012 48249.233 -35789.282 48354.162 -35737.963 48458.171 -35685.073 48561.242 -35630.626 48663.361 -35574.638 48764.512 -35517.125 48864.68 -35458.101 48963.849 -35397.582 49062.003 -35335.584 49159.128 -35272.123 49255.207 -35207.213 49350.225 -35140.871 49444.167 -35073.112 49537.017 -35003.95 49628.76 -34933.403 49719.38 -34861.485 49808.862 -34788.211 49897.189 -34713.598 49984.348 -34637.661 50070.321 -34560.415 50155.095 -34481.875 50238.652 -34402.058 50320.979 -34320.979 50402.058 -34238.652 50481.875 -34155.095 50560.415 -34070.321 50637.661 -33984.348 50713.598 -33897.189 50788.211 -33808.862 50861.485 -33719.38 50933.403 -33628.76 51003.95 -33537.017 51073.112 -33444.167 51140.871 -33350.225 51207.213 -33255.207 51272.123 -33159.128 51335.584 -33062.003 51397.582 -32963.849 51458.101 -32864.68 51517.125 -32764.512 51574.638 -32663.361 51630.626 -32561.242 51685.073 -32458.171 51737.963 -32354.162 51789.282 -32249.233 51839.012 -32143.397 51887.139 -32036.671 51933.648 -31929.07 51978.523 -31820.609 52021.748 -31711.304 52063.308 -31601.171 52103.187 -31490.225 52141.371 -31378.482 52177.842 -31265.957 52212.587 -31152.665 52245.589 -31038.622 52276.833 -30923.843 52306.303 -30808.345 52333.985 -30692.142 52359.862 -30575.25 52383.919 -30457.684 52406.14 -30339.46 52426.51 -30220.594 52445.014 -30101.101 52461.636 -29980.996 52476.361 -29860.295 52489.172 -29739.014 52500.055 -29617.167 52508.994 -29494.771 52515.973 -29371.841 52520.978 -29248.392 52523.992 -29124.44 52525 -29000 52525 -29000 52525 -29000 52523.992 -28875.56 52520.978 -28751.608 52515.973 -28628.159 52508.994 -28505.229 52500.055 -28382.833 52489.172 -28260.986 52476.361 -28139.705 52461.636 -28019.004 52445.014 -27898.899 52426.51 -27779.406 52406.14 -27660.54 52383.919 -27542.316 52359.862 -27424.75 52333.985 -27307.858 52306.303 -27191.655 52276.833 -27076.157 52245.589 -26961.378 52212.587 -26847.335 52177.842 -26734.043 52141.371 -26621.518 52103.187 -26509.775 52063.308 -26398.829 52021.748 -26288.696 51978.523 -26179.391 51933.648 -26070.93 51887.139 -25963.329 51839.012 -25856.603 51789.282 -25750.767 51737.963 -25645.838 51685.073 -25541.829 51630.626 -25438.758 51574.638 -25336.639 51517.125 -25235.488 51458.101 -25135.32 51397.582 -25036.151 51335.584 -24937.997 51272.123 -24840.872 51207.213 -24744.793 51140.871 -24649.775 51073.112 -24555.833 51003.95 -24462.983 50933.403 -24371.24 50861.485 -24280.62 50788.211 -24191.138 50713.598 -24102.811 50637.661 -24015.652 50560.415 -23929.679 50481.875 -23844.905 50402.058 -23761.348 50320.979 -23679.021 50238.652 -23597.942 50155.095 -23518.125 50070.321 -23439.585 49984.348 -23362.339 49897.189 -23286.402 49808.862 -23211.789 49719.38 -23138.515 49628.76 -23066.597 49537.017 -22996.05 49444.167 -22926.888 49350.225 -22859.129 49255.207 -22792.787 49159.128 -22727.877 49062.003 -22664.416 48963.849 -22602.418 48864.68 -22541.899 48764.512 -22482.875 48663.361 -22425.362 48561.242 -22369.374 48458.171 -22314.927 48354.162 -22262.037 48249.233 -22210.718 48143.397 -22160.988 48036.671 -22112.861 47929.07 -22066.352 47820.609 -22021.477 47711.304 -21978.252 47601.171 -21936.692 47490.225 -21896.813 47378.482 -21858.629 47265.957 -21822.158 47152.665 -21787.413 47038.622 -21754.411 46923.843 -21723.167 46808.345 -21693.697 46692.142 -21666.015 46575.25 -21640.138 46457.684 -21616.081 46339.46 -21593.86 46220.594 -21573.49 46101.101 -21554.986 45980.996 -21538.364 45860.295 -21523.639 45739.014 -21510.828 45617.167 -21499.945 45494.771 -21491.006 45371.841 -21484.027 45248.392 -21479.022 45124.44 -21476.008 45000 -21475 45000 -21475 45000 -21475 44875.56 -21476.008 44751.608 -21479.022 44628.159 -21484.027 44505.229 -21491.006 44382.833 -21499.945 44260.986 -21510.828 44139.705 -21523.639 44019.004 -21538.364 43898.899 -21554.986 43779.406 -21573.49 43660.54 -21593.86 43542.316 -21616.081 43424.75 -21640.138 43307.858 -21666.015 43191.655 -21693.697 43076.157 -21723.167 42961.378 -21754.411 42847.335 -21787.413 42734.043 -21822.158 42621.518 -21858.629 42509.775 -21896.813 42398.829 -21936.692 42288.696 -21978.252 42179.391 -22021.477 42070.93 -22066.352 41963.329 -22112.861 41856.603 -22160.988 41750.767 -22210.718 41645.838 -22262.037 41541.829 -22314.927 41438.758 -22369.374 41336.639 -22425.362 41235.488 -22482.875 41135.32 -22541.899 41036.151 -22602.418 40937.997 -22664.416 40840.872 -22727.877 40744.793 -22792.787 40649.775 -22859.129 40555.833 -22926.888 40462.983 -22996.05 40371.24 -23066.597 40280.62 -23138.515 40191.138 -23211.789 40102.811 -23286.402 40015.652 -23362.339 39929.679 -23439.585 39844.905 -23518.125 39761.348 -23597.942 39679.021 -23679.021 39597.942 -23761.348 39518.125 -23844.905 39439.585 -23929.679 39362.339 -24015.652 39286.402 -24102.811 39211.789 -24191.138 39138.515 -24280.62 39066.597 -24371.24 38996.05 -24462.983 38926.888 -24555.833 38859.129 -24649.775 38792.787 -24744.793 38727.877 -24840.872 38664.416 -24937.997 38602.418 -25036.151 38541.899 -25135.32 38482.875 -25235.488 38425.362 -25336.639 38369.374 -25438.758 38314.927 -25541.829 38262.037 -25645.838 38210.718 -25750.767 38160.988 -25856.603 38112.861 -25963.329 38066.352 -26070.93 38021.477 -26179.391 37978.252 -26288.696 37936.692 -26398.829 37896.813 -26509.775 37858.629 -26621.518 37822.158 -26734.043 37787.413 -26847.335 37754.411 -26961.378 37723.167 -27076.157 37693.697 -27191.655 37666.015 -27307.858 37640.138 -27424.75 37616.081 -27542.316 37593.86 -27660.54 37573.49 -27779.406 37554.986 -27898.899 37538.364 -28019.004 37523.639 -28139.705 37510.828 -28260.986 37499.945 -28382.833 37491.006 -28505.229 37484.027 -28628.159 37479.022 -28751.608 37476.008 -28875.56 37475 -29000 37475 -29000 37475 -29000 37476.008 -29124.44 37479.022 -29248.392 37484.027 -29371.841 37491.006 -29494.771 37499.945 -29617.167 37510.828 -29739.014 37523.639 -29860.295 37538.364 -29980.996 37554.986 -30101.101 37573.49 -30220.594 37593.86 -30339.46 37616.081 -30457.684 37640.138 -30575.25 37666.015 -30692.142 37693.697 -30808.345 37723.167 -30923.843 37754.411 -31038.622 37787.413 -31152.665 37822.158 -31265.957 37858.629 -31378.482 37896.813 -31490.225 37936.692 -31601.171 37978.252 -31711.304 38021.477 -31820.609 38066.352 -31929.07 38112.861 -32036.671 38160.988 -32143.397 38210.718 -32249.233 38262.037 -32354.162 38314.927 -32458.171 38369.374 -32561.242 38425.362 -32663.361 38482.875 -32764.512 38541.899 -32864.68 38602.418 -32963.849 38664.416 -33062.003 38727.877 -33159.128 38792.787 -33255.207 38859.129 -33350.225 38926.888 -33444.167 38996.05 -33537.017 39066.597 -33628.76 39138.515 -33719.38 39211.789 -33808.862 39286.402 -33897.189 39362.339 -33984.348 39439.585 -34070.321 39518.125 -34155.095 39597.942 -34238.652 39679.021 -34320.979 39761.348 -34402.058 39844.905 -34481.875 39929.679 -34560.415 40015.652 -34637.661 40102.811 -34713.598 40191.138 -34788.211 40280.62 -34861.485 40371.24 -34933.403 40462.983 -35003.95 40555.833 -35073.112 40649.775 -35140.871 40744.793 -35207.213 40840.872 -35272.123 40937.997 -35335.584 41036.151 -35397.582 41135.32 -35458.101 41235.488 -35517.125 41336.639 -35574.638 41438.758 -35630.626 41541.829 -35685.073 41645.838 -35737.963 41750.767 -35789.282 41856.603 -35839.012 41963.329 -35887.139 42070.93 -35933.648 42179.391 -35978.523 42288.696 -36021.748 42398.829 -36063.308 42509.775 -36103.187 42621.518 -36141.371 42734.043 -36177.842 42847.335 -36212.587 42961.378 -36245.589 43076.157 -36276.833 43191.655 -36306.303 43307.858 -36333.985 43424.75 -36359.862 43542.316 -36383.919 43660.54 -36406.14 43779.406 -36426.51 43898.899 -36445.014 44019.004 -36461.636 44139.705 -36476.361 44260.986 -36489.172 44382.833 -36500.055 44505.229 -36508.994 44628.159 -36515.973 44751.608 -36520.978 44875.56 -36523.992 45000 -36525 45000 -36525"/><path d="M 9250 -3875 9250 -3875 9317.394 -3872.82 9383.624 -3866.369 9448.555 -3855.783 9512.052 -3841.197 9573.979 -3822.745 9634.203 -3800.563 9692.587 -3774.786 9748.996 -3745.549 9803.296 -3712.987 9855.352 -3677.234 9905.028 -3638.427 9952.189 -3596.701 9996.701 -3552.189 10038.427 -3505.028 10077.234 -3455.352 10112.987 -3403.296 10145.549 -3348.996 10174.786 -3292.587 10200.563 -3234.203 10222.745 -3173.979 10241.197 -3112.052 10255.783 -3048.555 10266.369 -2983.624 10272.82 -2917.394 10275 -2850 10275 -2850 10275 -2850 10272.82 -2782.606 10266.369 -2716.376 10255.783 -2651.445 10241.197 -2587.948 10222.745 -2526.021 10200.563 -2465.797 10174.786 -2407.414 10145.549 -2351.004 10112.987 -2296.704 10077.234 -2244.648 10038.427 -2194.972 9996.701 -2147.811 9952.189 -2103.299 9905.028 -2061.573 9855.352 -2022.766 9803.296 -1987.013 9748.996 -1954.451 9692.587 -1925.214 9634.203 -1899.437 9573.979 -1877.255 9512.052 -1858.803 9448.555 -1844.217 9383.624 -1833.631 9317.394 -1827.18 9250 -1825 9250 -1825 9250 -1825 9182.606 -1827.18 9116.376 -1833.631 9051.445 -1844.217 8987.948 -1858.803 8926.021 -1877.255 8865.797 -1899.437 8807.413 -1925.214 8751.004 -1954.451 8696.704 -1987.013 8644.648 -2022.766 8594.972 -2061.573 8547.811 -2103.299 8503.299 -2147.811 8461.573 -2194.972 8422.766 -2244.648 8387.013 -2296.704 8354.451 -2351.004 8325.214 -2407.414 8299.437 -2465.797 8277.255 -2526.021 8258.803 -2587.948 8244.217 -2651.445 8233.631 -2716.376 8227.18 -2782.606 8225 -2850 8225 -2850 8225 -2850 8227.18 -2917.394 8233.631 -2983.624 8244.217 -3048.555 8258.803 -3112.052 8277.255 -3173.979 8299.437 -3234.203 8325.214 -3292.587 8354.451 -3348.996 8387.013 -3403.296 8422.766 -3455.352 8461.573 -3505.028 8503.299 -3552.189 8547.811 -3596.701 8594.972 -3638.427 8644.648 -3677.234 8696.704 -3712.987 8751.004 -3745.549 8807.413 -3774.786 8865.797 -3800.563 8926.021 -3822.745 8987.948 -3841.197 9051.445 -3855.783 9116.376 -3866.369 9182.606 -3872.82 9250 -3875 9250 -3875"/><path d="M 14250 -5975 14250 -5975 14317.394 -5972.82 14383.624 -5966.369 14448.555 -5955.783 14512.052 -5941.197 14573.979 -5922.745 14634.203 -5900.563 14692.587 -5874.786 14748.996 -5845.549 14803.296 -5812.987 14855.352 -5777.234 14905.028 -5738.427 14952.189 -5696.701 14996.701 -5652.189 15038.427 -5605.028 15077.234 -5555.352 15112.987 -5503.296 15145.549 -5448.996 15174.786 -5392.587 15200.563 -5334.203 15222.745 -5273.979 15241.197 -5212.052 15255.783 -5148.555 15266.369 -5083.624 15272.82 -5017.394 15275 -4950 15275 -4950 15275 -4950 15272.82 -4882.606 15266.369 -4816.376 15255.783 -4751.445 15241.197 -4687.948 15222.745 -4626.021 15200.563 -4565.797 15174.786 -4507.414 15145.549 -4451.004 15112.987 -4396.704 15077.234 -4344.648 15038.427 -4294.972 14996.701 -4247.811 14952.189 -4203.299 14905.028 -4161.573 14855.352 -4122.766 14803.296 -4087.013 14748.996 -4054.451 14692.587 -4025.214 14634.203 -3999.437 14573.979 -3977.255 14512.052 -3958.803 14448.555 -3944.217 14383.624 -3933.631 14317.394 -3927.18 14250 -3925 14250 -3925 14250 -3925 14182.606 -3927.18 14116.376 -3933.631 14051.445 -3944.217 13987.948 -3958.803 13926.021 -3977.255 13865.797 -3999.437 13807.413 -4025.214 13751.004 -4054.451 13696.704 -4087.013 13644.648 -4122.766 13594.972 -4161.573 13547.811 -4203.299 13503.299 -4247.811 13461.573 -4294.972 13422.766 -4344.648 13387.013 -4396.704 13354.451 -4451.004 13325.214 -4507.414 13299.437 -4565.797 13277.255 -4626.021 13258.803 -4687.948 13244.217 -4751.445 13233.631 -4816.376 13227.18 -4882.606 13225 -4950 13225 -4950 13225 -4950 13227.18 -5017.394 13233.631 -5083.624 13244.217 -5148.555 13258.803 -5212.052 13277.255 -5273.979 13299.437 -5334.203 13325.214 -5392.587 13354.451 -5448.996 13387.013 -5503.296 13422.766 -5555.352 13461.573 -5605.028 13503.299 -5652.189 13547.811 -5696.701 13594.972 -5738.427 13644.648 -5777.234 13696.704 -5812.987 13751.004 -5845.549 13807.413 -5874.786 13865.797 -5900.563 13926.021 -5922.745 13987.948 -5941.197 14051.445 -5955.783 14116.376 -5966.369 14182.606 -5972.82 14250 -5975 14250 -5975"/><path d="M 20336.823 -5522.064 20011.219 -5403.554 20011.219 -5403.554 19963.918 -5380.499 19923.666 -5349.135 19891.137 -5310.912 19867.01 -5267.278 19851.958 -5219.684 19846.658 -5169.578 19851.787 -5118.41 19861.801 -5083.126 20048.544 -4570.053 20320.792 -3822.058 20881.319 -4026.073 21441.846 -4230.088 21169.598 -4978.083 20982.855 -5491.156 20982.855 -5491.156 20959.8 -5538.457 20928.436 -5578.709 20890.213 -5611.238 20846.579 -5635.365 20798.985 -5650.417 20748.879 -5655.717 20697.711 -5650.588 20662.426 -5640.574 20336.823 -5522.064"/><path d="M 21663.177 -1877.936 21988.781 -1996.446 21988.781 -1996.446 22036.082 -2019.501 22076.334 -2050.865 22108.863 -2089.088 22132.99 -2132.722 22148.042 -2180.316 22153.342 -2230.422 22148.213 -2281.59 22138.199 -2316.874 21951.456 -2829.947 21679.208 -3577.942 21118.681 -3373.927 20558.154 -3169.912 20830.402 -2421.917 21017.145 -1908.844 21017.145 -1908.844 21040.2 -1861.543 21071.564 -1821.291 21109.787 -1788.762 21153.421 -1764.635 21201.015 -1749.583 21251.121 -1744.283 21302.289 -1749.412 21337.574 -1759.426 21663.177 -1877.936"/><path d="M 9250 -36375 9250 -36375 9317.394 -36372.82 9383.624 -36366.369 9448.555 -36355.783 9512.052 -36341.197 9573.979 -36322.745 9634.203 -36300.563 9692.587 -36274.786 9748.996 -36245.549 9803.296 -36212.987 9855.352 -36177.234 9905.028 -36138.427 9952.189 -36096.701 9996.701 -36052.189 10038.427 -36005.028 10077.234 -35955.352 10112.987 -35903.296 10145.549 -35848.996 10174.786 -35792.586 10200.563 -35734.203 10222.745 -35673.979 10241.197 -35612.052 10255.783 -35548.555 10266.369 -35483.624 10272.82 -35417.394 10275 -35350 10275 -35350 10275 -35350 10272.82 -35282.606 10266.369 -35216.376 10255.783 -35151.445 10241.197 -35087.948 10222.745 -35026.021 10200.563 -34965.797 10174.786 -34907.413 10145.549 -34851.004 10112.987 -34796.704 10077.234 -34744.648 10038.427 -34694.972 9996.701 -34647.811 9952.189 -34603.299 9905.028 -34561.573 9855.352 -34522.766 9803.296 -34487.013 9748.996 -34454.451 9692.587 -34425.214 9634.203 -34399.437 9573.979 -34377.255 9512.052 -34358.803 9448.555 -34344.217 9383.624 -34333.631 9317.394 -34327.18 9250 -34325 9250 -34325 9250 -34325 9182.606 -34327.18 9116.376 -34333.631 9051.445 -34344.217 8987.948 -34358.803 8926.021 -34377.255 8865.797 -34399.437 8807.413 -34425.214 8751.004 -34454.451 8696.704 -34487.013 8644.648 -34522.766 8594.972 -34561.573 8547.811 -34603.299 8503.299 -34647.811 8461.573 -34694.972 8422.766 -34744.648 8387.013 -34796.704 8354.451 -34851.004 8325.214 -34907.413 8299.437 -34965.797 8277.255 -35026.021 8258.803 -35087.948 8244.217 -35151.445 8233.631 -35216.376 8227.18 -35282.606 8225 -35350 8225 -35350 8225 -35350 8227.18 -35417.394 8233.631 -35483.624 8244.217 -35548.555 8258.803 -35612.052 8277.255 -35673.979 8299.437 -35734.203 8325.214 -35792.586 8354.451 -35848.996 8387.013 -35903.296 8422.766 -35955.352 8461.573 -36005.028 8503.299 -36052.189 8547.811 -36096.701 8594.972 -36138.427 8644.648 -36177.234 8696.704 -36212.987 8751.004 -36245.549 8807.413 -36274.786 8865.797 -36300.563 8926.021 -36322.745 8987.948 -36341.197 9051.445 -36355.783 9116.376 -36366.369 9182.606 -36372.82 9250 -36375 9250 -36375"/><path d="M 14250 -38475 14250 -38475 14317.394 -38472.82 14383.624 -38466.369 14448.555 -38455.783 14512.052 -38441.197 14573.979 -38422.745 14634.203 -38400.563 14692.587 -38374.786 14748.996 -38345.549 14803.296 -38312.987 14855.352 -38277.234 14905.028 -38238.427 14952.189 -38196.701 14996.701 -38152.189 15038.427 -38105.028 15077.234 -38055.352 15112.987 -38003.296 15145.549 -37948.996 15174.786 -37892.587 15200.563 -37834.203 15222.745 -37773.979 15241.197 -37712.052 15255.783 -37648.555 15266.369 -37583.624 15272.82 -37517.394 15275 -37450 15275 -37450 15275 -37450 15272.82 -37382.606 15266.369 -37316.376 15255.783 -37251.445 15241.197 -37187.948 15222.745 -37126.021 15200.563 -37065.797 15174.786 -37007.413 15145.549 -36951.004 15112.987 -36896.704 15077.234 -36844.648 15038.427 -36794.972 14996.701 -36747.811 14952.189 -36703.299 14905.028 -36661.573 14855.352 -36622.766 14803.296 -36587.013 14748.996 -36554.451 14692.587 -36525.214 14634.203 -36499.437 14573.979 -36477.255 14512.052 -36458.803 14448.555 -36444.217 14383.624 -36433.631 14317.394 -36427.18 14250 -36425 14250 -36425 14250 -36425 14182.606 -36427.18 14116.376 -36433.631 14051.445 -36444.217 13987.948 -36458.803 13926.021 -36477.255 13865.797 -36499.437 13807.413 -36525.214 13751.004 -36554.451 13696.704 -36587.013 13644.648 -36622.766 13594.972 -36661.573 13547.811 -36703.299 13503.299 -36747.811 13461.573 -36794.972 13422.766 -36844.648 13387.013 -36896.704 13354.451 -36951.004 13325.214 -37007.413 13299.437 -37065.797 13277.255 -37126.021 13258.803 -37187.948 13244.217 -37251.445 13233.631 -37316.376 13227.18 -37382.606 13225 -37450 13225 -37450 13225 -37450 13227.18 -37517.394 13233.631 -37583.624 13244.217 -37648.555 13258.803 -37712.052 13277.255 -37773.979 13299.437 -37834.203 13325.214 -37892.587 13354.451 -37948.996 13387.013 -38003.296 13422.766 -38055.352 13461.573 -38105.028 13503.299 -38152.189 13547.811 -38196.701 13594.972 -38238.427 13644.648 -38277.234 13696.704 -38312.987 13751.004 -38345.549 13807.413 -38374.786 13865.797 -38400.563 13926.021 -38422.745 13987.948 -38441.197 14051.445 -38455.783 14116.376 -38466.369 14182.606 -38472.82 14250 -38475 14250 -38475"/><path d="M 41190 -10575 41190 -10575 41254.107 -10572.926 41317.106 -10566.79 41378.869 -10556.72 41439.269 -10542.845 41498.175 -10525.294 41555.461 -10504.194 41610.997 -10479.674 41664.655 -10451.863 41716.306 -10420.89 41765.822 -10386.882 41813.075 -10349.968 41857.936 -10310.276 41900.276 -10267.936 41939.968 -10223.075 41976.882 -10175.822 42010.89 -10126.306 42041.863 -10074.655 42069.674 -10020.997 42094.194 -9965.461 42115.294 -9908.175 42132.845 -9849.269 42146.72 -9788.869 42156.79 -9727.106 42162.926 -9664.107 42165 -9600 42165 -9600 42165 -9600 42162.926 -9535.893 42156.79 -9472.894 42146.72 -9411.131 42132.845 -9350.731 42115.294 -9291.825 42094.194 -9234.539 42069.674 -9179.003 42041.863 -9125.345 42010.89 -9073.694 41976.882 -9024.178 41939.968 -8976.925 41900.276 -8932.064 41857.936 -8889.724 41813.075 -8850.032 41765.822 -8813.118 41716.306 -8779.11 41664.655 -8748.137 41610.997 -8720.326 41555.461 -8695.806 41498.175 -8674.706 41439.269 -8657.155 41378.869 -8643.28 41317.106 -8633.21 41254.107 -8627.074 41190 -8625 41190 -8625 41190 -8625 41125.893 -8627.074 41062.894 -8633.21 41001.131 -8643.28 40940.731 -8657.155 40881.825 -8674.706 40824.539 -8695.806 40769.003 -8720.326 40715.345 -8748.137 40663.694 -8779.11 40614.178 -8813.118 40566.925 -8850.032 40522.064 -8889.724 40479.724 -8932.064 40440.032 -8976.925 40403.118 -9024.178 40369.11 -9073.694 40338.137 -9125.345 40310.326 -9179.003 40285.806 -9234.539 40264.706 -9291.825 40247.155 -9350.731 40233.28 -9411.131 40223.21 -9472.894 40217.074 -9535.893 40215 -9600 40215 -9600 40215 -9600 40217.074 -9664.107 40223.21 -9727.106 40233.28 -9788.869 40247.155 -9849.269 40264.706 -9908.175 40285.806 -9965.461 40310.326 -10020.997 40338.137 -10074.655 40369.11 -10126.306 40403.118 -10175.822 40440.032 -10223.075 40479.724 -10267.936 40522.064 -10310.276 40566.925 -10349.968 40614.178 -10386.882 40663.694 -10420.89 40715.345 -10451.863 40769.003 -10479.674 40824.539 -10504.194 40881.825 -10525.294 40940.731 -10542.845 41001.131 -10556.72 41062.894 -10566.79 41125.893 -10572.926 41190 -10575 41190 -10575"/><path d="M 46270 -10575 46270 -10575 46334.107 -10572.926 46397.106 -10566.79 46458.869 -10556.72 46519.269 -10542.845 46578.175 -10525.294 46635.461 -10504.194 46690.997 -10479.674 46744.655 -10451.863 46796.306 -10420.89 46845.822 -10386.882 46893.075 -10349.968 46937.936 -10310.276 46980.276 -10267.936 47019.968 -10223.075 47056.882 -10175.822 47090.89 -10126.306 47121.863 -10074.655 47149.674 -10020.997 47174.194 -9965.461 47195.294 -9908.175 47212.845 -9849.269 47226.72 -9788.869 47236.79 -9727.106 47242.926 -9664.107 47245 -9600 47245 -9600 47245 -9600 47242.926 -9535.893 47236.79 -9472.894 47226.72 -9411.131 47212.845 -9350.731 47195.294 -9291.825 47174.194 -9234.539 47149.674 -9179.003 47121.863 -9125.345 47090.89 -9073.694 47056.882 -9024.178 47019.968 -8976.925 46980.276 -8932.064 46937.936 -8889.724 46893.075 -8850.032 46845.822 -8813.118 46796.306 -8779.11 46744.655 -8748.137 46690.997 -8720.326 46635.461 -8695.806 46578.175 -8674.706 46519.269 -8657.155 46458.869 -8643.28 46397.106 -8633.21 46334.107 -8627.074 46270 -8625 46270 -8625 46270 -8625 46205.893 -8627.074 46142.894 -8633.21 46081.131 -8643.28 46020.731 -8657.155 45961.825 -8674.706 45904.539 -8695.806 45849.003 -8720.326 45795.345 -8748.137 45743.694 -8779.11 45694.178 -8813.118 45646.925 -8850.032 45602.064 -8889.724 45559.724 -8932.064 45520.032 -8976.925 45483.118 -9024.178 45449.11 -9073.694 45418.137 -9125.345 45390.326 -9179.003 45365.806 -9234.539 45344.706 -9291.825 45327.155 -9350.731 45313.28 -9411.131 45303.21 -9472.894 45297.074 -9535.893 45295 -9600 45295 -9600 45295 -9600 45297.074 -9664.107 45303.21 -9727.106 45313.28 -9788.869 45327.155 -9849.269 45344.706 -9908.175 45365.806 -9965.461 45390.326 -10020.997 45418.137 -10074.655 45449.11 -10126.306 45483.118 -10175.822 45520.032 -10223.075 45559.724 -10267.936 45602.064 -10310.276 45646.925 -10349.968 45694.178 -10386.882 45743.694 -10420.89 45795.345 -10451.863 45849.003 -10479.674 45904.539 -10504.194 45961.825 -10525.294 46020.731 -10542.845 46081.131 -10556.72 46142.894 -10566.79 46205.893 -10572.926 46270 -10575 46270 -10575"/><path d="M 43730 -10575 43730 -10575 43794.107 -10572.926 43857.106 -10566.79 43918.869 -10556.72 43979.269 -10542.845 44038.175 -10525.294 44095.461 -10504.194 44150.997 -10479.674 44204.655 -10451.863 44256.306 -10420.89 44305.822 -10386.882 44353.075 -10349.968 44397.936 -10310.276 44440.276 -10267.936 44479.968 -10223.075 44516.882 -10175.822 44550.89 -10126.306 44581.863 -10074.655 44609.674 -10020.997 44634.194 -9965.461 44655.294 -9908.175 44672.845 -9849.269 44686.72 -9788.869 44696.79 -9727.106 44702.926 -9664.107 44705 -9600 44705 -9600 44705 -9600 44702.926 -9535.893 44696.79 -9472.894 44686.72 -9411.131 44672.845 -9350.731 44655.294 -9291.825 44634.194 -9234.539 44609.674 -9179.003 44581.863 -9125.345 44550.89 -9073.694 44516.882 -9024.178 44479.968 -8976.925 44440.276 -8932.064 44397.936 -8889.724 44353.075 -8850.032 44305.822 -8813.118 44256.306 -8779.11 44204.655 -8748.137 44150.997 -8720.326 44095.461 -8695.806 44038.175 -8674.706 43979.269 -8657.155 43918.869 -8643.28 43857.106 -8633.21 43794.107 -8627.074 43730 -8625 43730 -8625 43730 -8625 43665.893 -8627.074 43602.894 -8633.21 43541.131 -8643.28 43480.731 -8657.155 43421.825 -8674.706 43364.539 -8695.806 43309.003 -8720.326 43255.345 -8748.137 43203.694 -8779.11 43154.178 -8813.118 43106.925 -8850.032 43062.064 -8889.724 43019.724 -8932.064 42980.032 -8976.925 42943.118 -9024.178 42909.11 -9073.694 42878.137 -9125.345 42850.326 -9179.003 42825.806 -9234.539 42804.706 -9291.825 42787.155 -9350.731 42773.28 -9411.131 42763.21 -9472.894 42757.074 -9535.893 42755 -9600 42755 -9600 42755 -9600 42757.074 -9664.107 42763.21 -9727.106 42773.28 -9788.869 42787.155 -9849.269 42804.706 -9908.175 42825.806 -9965.461 42850.326 -10020.997 42878.137 -10074.655 42909.11 -10126.306 42943.118 -10175.822 42980.032 -10223.075 43019.724 -10267.936 43062.064 -10310.276 43106.925 -10349.968 43154.178 -10386.882 43203.694 -10420.89 43255.345 -10451.863 43309.003 -10479.674 43364.539 -10504.194 43421.825 -10525.294 43480.731 -10542.845 43541.131 -10556.72 43602.894 -10566.79 43665.893 -10572.926 43730 -10575 43730 -10575"/><path d="M 48810 -10575 48810 -10575 48874.107 -10572.926 48937.106 -10566.79 48998.869 -10556.72 49059.269 -10542.845 49118.175 -10525.294 49175.461 -10504.194 49230.997 -10479.674 49284.655 -10451.863 49336.306 -10420.89 49385.822 -10386.882 49433.075 -10349.968 49477.936 -10310.276 49520.276 -10267.936 49559.968 -10223.075 49596.882 -10175.822 49630.89 -10126.306 49661.863 -10074.655 49689.674 -10020.997 49714.194 -9965.461 49735.294 -9908.175 49752.845 -9849.269 49766.72 -9788.869 49776.79 -9727.106 49782.926 -9664.107 49785 -9600 49785 -9600 49785 -9600 49782.926 -9535.893 49776.79 -9472.894 49766.72 -9411.131 49752.845 -9350.731 49735.294 -9291.825 49714.194 -9234.539 49689.674 -9179.003 49661.863 -9125.345 49630.89 -9073.694 49596.882 -9024.178 49559.968 -8976.925 49520.276 -8932.064 49477.936 -8889.724 49433.075 -8850.032 49385.822 -8813.118 49336.306 -8779.11 49284.655 -8748.137 49230.997 -8720.326 49175.461 -8695.806 49118.175 -8674.706 49059.269 -8657.155 48998.869 -8643.28 48937.106 -8633.21 48874.107 -8627.074 48810 -8625 48810 -8625 48810 -8625 48745.893 -8627.074 48682.894 -8633.21 48621.131 -8643.28 48560.731 -8657.155 48501.825 -8674.706 48444.539 -8695.806 48389.003 -8720.326 48335.345 -8748.137 48283.694 -8779.11 48234.178 -8813.118 48186.925 -8850.032 48142.064 -8889.724 48099.724 -8932.064 48060.032 -8976.925 48023.118 -9024.178 47989.11 -9073.694 47958.137 -9125.345 47930.326 -9179.003 47905.806 -9234.539 47884.706 -9291.825 47867.155 -9350.731 47853.28 -9411.131 47843.21 -9472.894 47837.074 -9535.893 47835 -9600 47835 -9600 47835 -9600 47837.074 -9664.107 47843.21 -9727.106 47853.28 -9788.869 47867.155 -9849.269 47884.706 -9908.175 47905.806 -9965.461 47930.326 -10020.997 47958.137 -10074.655 47989.11 -10126.306 48023.118 -10175.822 48060.032 -10223.075 48099.724 -10267.936 48142.064 -10310.276 48186.925 -10349.968 48234.178 -10386.882 48283.694 -10420.89 48335.345 -10451.863 48389.003 -10479.674 48444.539 -10504.194 48501.825 -10525.294 48560.731 -10542.845 48621.131 -10556.72 48682.894 -10566.79 48745.893 -10572.926 48810 -10575 48810 -10575"/><path d="M 80750 -3875 80750 -3875 80817.394 -3872.82 80883.624 -3866.369 80948.555 -3855.783 81012.052 -3841.197 81073.979 -3822.745 81134.203 -3800.563 81192.587 -3774.786 81248.996 -3745.549 81303.296 -3712.987 81355.352 -3677.234 81405.028 -3638.427 81452.189 -3596.701 81496.701 -3552.189 81538.427 -3505.028 81577.234 -3455.352 81612.987 -3403.296 81645.549 -3348.996 81674.786 -3292.587 81700.563 -3234.203 81722.745 -3173.979 81741.197 -3112.052 81755.783 -3048.555 81766.369 -2983.624 81772.82 -2917.394 81775 -2850 81775 -2850 81775 -2850 81772.82 -2782.606 81766.369 -2716.376 81755.783 -2651.445 81741.197 -2587.948 81722.745 -2526.021 81700.563 -2465.797 81674.786 -2407.414 81645.549 -2351.004 81612.987 -2296.704 81577.234 -2244.648 81538.427 -2194.972 81496.701 -2147.811 81452.189 -2103.299 81405.028 -2061.573 81355.352 -2022.766 81303.296 -1987.013 81248.996 -1954.451 81192.587 -1925.214 81134.203 -1899.437 81073.979 -1877.255 81012.052 -1858.803 80948.555 -1844.217 80883.624 -1833.631 80817.394 -1827.18 80750 -1825 80750 -1825 80750 -1825 80682.606 -1827.18 80616.376 -1833.631 80551.445 -1844.217 80487.948 -1858.803 80426.021 -1877.255 80365.797 -1899.437 80307.413 -1925.214 80251.004 -1954.451 80196.704 -1987.013 80144.648 -2022.766 80094.972 -2061.573 80047.811 -2103.299 80003.299 -2147.811 79961.573 -2194.972 79922.766 -2244.648 79887.013 -2296.704 79854.451 -2351.004 79825.214 -2407.414 79799.437 -2465.797 79777.255 -2526.021 79758.803 -2587.948 79744.217 -2651.445 79733.631 -2716.376 79727.18 -2782.606 79725 -2850 79725 -2850 79725 -2850 79727.18 -2917.394 79733.631 -2983.624 79744.217 -3048.555 79758.803 -3112.052 79777.255 -3173.979 79799.437 -3234.203 79825.214 -3292.587 79854.451 -3348.996 79887.013 -3403.296 79922.766 -3455.352 79961.573 -3505.028 80003.299 -3552.189 80047.811 -3596.701 80094.972 -3638.427 80144.648 -3677.234 80196.704 -3712.987 80251.004 -3745.549 80307.413 -3774.786 80365.797 -3800.563 80426.021 -3822.745 80487.948 -3841.197 80551.445 -3855.783 80616.376 -3866.369 80682.606 -3872.82 80750 -3875 80750 -3875"/><path d="M 85750 -5975 85750 -5975 85817.394 -5972.82 85883.624 -5966.369 85948.555 -5955.783 86012.052 -5941.197 86073.979 -5922.745 86134.203 -5900.563 86192.587 -5874.786 86248.996 -5845.549 86303.296 -5812.987 86355.352 -5777.234 86405.028 -5738.427 86452.189 -5696.701 86496.701 -5652.189 86538.427 -5605.028 86577.234 -5555.352 86612.987 -5503.296 86645.549 -5448.996 86674.786 -5392.587 86700.563 -5334.203 86722.745 -5273.979 86741.197 -5212.052 86755.783 -5148.555 86766.369 -5083.624 86772.82 -5017.394 86775 -4950 86775 -4950 86775 -4950 86772.82 -4882.606 86766.369 -4816.376 86755.783 -4751.445 86741.197 -4687.948 86722.745 -4626.021 86700.563 -4565.797 86674.786 -4507.414 86645.549 -4451.004 86612.987 -4396.704 86577.234 -4344.648 86538.427 -4294.972 86496.701 -4247.811 86452.189 -4203.299 86405.028 -4161.573 86355.352 -4122.766 86303.296 -4087.013 86248.996 -4054.451 86192.587 -4025.214 86134.203 -3999.437 86073.979 -3977.255 86012.052 -3958.803 85948.555 -3944.217 85883.624 -3933.631 85817.394 -3927.18 85750 -3925 85750 -3925 85750 -3925 85682.606 -3927.18 85616.376 -3933.631 85551.445 -3944.217 85487.948 -3958.803 85426.021 -3977.255 85365.797 -3999.437 85307.413 -4025.214 85251.004 -4054.451 85196.704 -4087.013 85144.648 -4122.766 85094.972 -4161.573 85047.811 -4203.299 85003.299 -4247.811 84961.573 -4294.972 84922.766 -4344.648 84887.013 -4396.704 84854.451 -4451.004 84825.214 -4507.414 84799.437 -4565.797 84777.255 -4626.021 84758.803 -4687.948 84744.217 -4751.445 84733.631 -4816.376 84727.18 -4882.606 84725 -4950 84725 -4950 84725 -4950 84727.18 -5017.394 84733.631 -5083.624 84744.217 -5148.555 84758.803 -5212.052 84777.255 -5273.979 84799.437 -5334.203 84825.214 -5392.587 84854.451 -5448.996 84887.013 -5503.296 84922.766 -5555.352 84961.573 -5605.028 85003.299 -5652.189 85047.811 -5696.701 85094.972 -5738.427 85144.648 -5777.234 85196.704 -5812.987 85251.004 -5845.549 85307.413 -5874.786 85365.797 -5900.563 85426.021 -5922.745 85487.948 -5941.197 85551.445 -5955.783 85616.376 -5966.369 85682.606 -5972.82 85750 -5975 85750 -5975"/><path d="M 91400 -1450 92600 -1450 92600 -2650 91400 -2650 91400 -1450"/><path d="M 92850 -1829.102 92850 -1829.102 92867.872 -1793.946 92867.872 -1793.946 92924.878 -1786.381 92929.102 -1786.329 92963.086 -1786.329 92963.086 -1786.329 92959.595 -1707.561 92956.267 -1660.582 92955.469 -1651.563 92955.469 -1651.563 92995.313 -1648.047 92995.313 -1648.047 93049.584 -1678.967 93052.735 -1693.75 93052.735 -1693.75 93050.11 -1752.063 93048.047 -1787.5 93048.047 -1787.5 93143.811 -1786.493 93205.957 -1784.278 93239.539 -1782.062 93249.61 -1781.055 93249.61 -1781.055 93249.61 -1781.055 93254.297 -1809.18 93254.297 -1809.18 93241.7 -1841.407 93241.7 -1841.407 93201.563 -1850.782 93201.563 -1850.782 93143.618 -1851.601 93078.116 -1851.907 93045.738 -1851.954 93045.704 -1851.954 93045.704 -1851.954 93044.605 -1926.151 93043.918 -1996.828 93043.546 -2057.548 93043.392 -2101.872 93043.36 -2123.362 93043.36 -2124.414 93043.36 -2124.414 93050.285 -2210.115 93062.314 -2251.574 93066.797 -2260.059 93066.797 -2260.059 93121.865 -2290.169 93144.141 -2292.579 93144.141 -2292.579 93208.778 -2272.782 93230.274 -2256.25 93230.274 -2256.25 93251.954 -2299.61 93251.954 -2299.61 93221.221 -2340.166 93220.899 -2340.332 93220.899 -2340.332 93159.191 -2355.194 93145.313 -2355.86 93145.313 -2355.86 93067.041 -2341.983 93021.249 -2315.405 93004.594 -2298.706 93004.395 -2298.438 93004.395 -2298.438 92978.505 -2240.592 92966.605 -2178.545 92963.256 -2134.832 92963.086 -2126.758 92963.086 -2126.758 92964.185 -2019.36 92964.872 -1942.231 92965.244 -1891.25 92965.398 -1862.292 92965.43 -1851.234 92965.43 -1850.782 92965.43 -1850.782 92916.403 -1854.519 92856.555 -1859.325 92853.516 -1859.571 92853.516 -1859.571 92850 -1829.102"/><path d="M 93325.782 -2065.821 93325.782 -2065.821 93334.711 -1986.638 93355.362 -1924.311 93378.523 -1880.636 93394.988 -1857.411 93397.852 -1854.004 93397.852 -1854.004 93455.21 -1809.133 93514.593 -1785.27 93562.636 -1775.78 93585.974 -1774.029 93586.524 -1774.024 93586.524 -1774.024 93663.016 -1785.633 93721.474 -1811.616 93759.759 -1838.704 93775.732 -1853.631 93776.075 -1854.004 93776.075 -1854.004 93813.79 -1912.365 93835.247 -1974.049 93845.031 -2027.32 93847.728 -2060.443 93847.852 -2065.821 93847.852 -2065.821 93838.208 -2148.098 93816.261 -2211.712 93792.491 -2254.739 93777.379 -2275.253 93776.075 -2276.758 93776.075 -2276.758 93718.711 -2321.136 93659.034 -2344.737 93610.629 -2354.123 93587.079 -2355.855 93586.524 -2355.86 93586.524 -2355.86 93510.646 -2344.378 93452.443 -2318.681 93414.198 -2291.89 93398.196 -2277.128 93397.852 -2276.758 93397.852 -2276.758 93359.983 -2218.859 93338.438 -2157.439 93328.614 -2104.287 93325.906 -2071.197 93325.782 -2065.821"/></g><path d="M 93973.829 -1792.188 93973.829 -1792.188 94020.704 -1782.813 94020.704 -1782.813 94068.166 -1818.93 94072.266 -1842.579 94072.266 -1842.579 94140.4 -1802.945 94201.172 -1782.593 94244.806 -1775.095 94261.524 -1774.024 94261.524 -1774.024 94261.524 -1774.024 94335.45 -1788.698 94386.25 -1817.431 94409.211 -1837.285 94410.059 -1838.184 94410.059 -1838.184 94443.764 -1895.784 94461.072 -1959.949 94467.449 -2012.084 94468.36 -2033.594 94468.36 -2033.594 94468.36 -2033.594 94461.775 -2109.919 94449.165 -2166.07 94441.241 -2190.872 94441.114 -2191.211 94441.114 -2191.211 94405.672 -2254.637 94369.438 -2295.678 94354.102 -2309.278 94354.102 -2309.278 94290.811 -2341.85 94234.939 -2354.029 94209.987 -2355.86 94209.961 -2355.86 94209.961 -2355.86 94138.95 -2343.913 94089.444 -2323.164 94075.782 -2315.43 94075.782 -2315.43 94076.307 -2372.43 94076.368 -2378.418 94076.368 -2378.418 94077.349 -2447.617 94077.54 -2455.762 94077.54 -2455.762 94080.221 -2514.14 94080.469 -2518.75 94080.469 -2518.75 94086.723 -2582.415 94087.793 -2589.063 94087.793 -2589.063 94099.803 -2638.275 94099.805 -2638.282 94099.805 -2638.282 94051.758 -2647.657 94051.758 -2647.657 94005.176 -2632.129 94005.176 -2632.129 94005.176 -2632.129 93993.173 -2579.97 93993.165 -2579.102 93993.165 -2579.102 93993.315 -2511.405 93993.684 -2440.867 93994.149 -2375.525 93994.586 -2323.417 93994.873 -2292.58 93994.922 -2287.598 93994.922 -2287.598 93995.813 -2191.724 93996.337 -2121.644 93996.591 -2075.323 93996.673 -2050.728 93996.68 -2045.313 93996.68 -2045.313 93994.304 -1946.313 93988.636 -1874.454 93981.872 -1826.782 93976.205 -1800.344 93973.829 -1792.188 93973.829 -1792.188"/></g><path d="M 94845.704 -2260.352 94845.704 -2260.352 94883.681 -2216.249 94899.61 -2209.961 94899.61 -2209.961 94940.511 -2259.257 94956.739 -2268.848 94956.739 -2268.848 95022.891 -2286.827 95051.954 -2289.063 95051.954 -2289.063 95119.462 -2274.918 95135.45 -2266.211 95135.45 -2266.211 95165.766 -2211.336 95167.383 -2195.313 95167.383 -2195.313 95140.085 -2143.536 95135.45 -2140.235 95135.45 -2140.235 95075.333 -2115.254 95058.106 -2110.645 95058.106 -2110.645 94991.528 -2093.68 94966.993 -2086.622 94966.993 -2086.622 94908.632 -2053.367 94889.356 -2034.473 94889.356 -2034.473 94862.176 -1973.012 94857.429 -1933.477 94857.422 -1932.813 94857.422 -1932.813 94877.417 -1865.3 94910.266 -1825.983 94919.239 -1818.555 94919.239 -1818.555 94984.183 -1786.826 95038.126 -1775.483 95058.985 -1774.024 95058.985 -1774.024 95127.601 -1784.365 95167.183 -1798.218 95169.434 -1799.219 95169.434 -1799.219 95218.358 -1846.894 95223.633 -1868.946 95223.633 -1868.946 95185.656 -1913.632 95169.727 -1919.336 95169.727 -1919.336 95128.81 -1871.545 95115.528 -1863.086 95115.528 -1863.086 95051.132 -1843.13 95030.274 -1841.407 95030.274 -1841.407 94968.464 -1857.998 94959.375 -1863.672 94959.375 -1863.672 94930.299 -1917.034 94929.493 -1926.368 94929.493 -1926.368 94956.437 -1978.855 94961.426 -1982.618 94961.426 -1982.618 95020.742 -2008.837 95038.77 -2013.965 95038.77 -2013.965 95104.371 -2031.183 95129.883 -2038.575 95129.883 -2038.575 95189.017 -2071.179 95207.52 -2088.379 95207.52 -2088.379 95235.462 -2148.914 95239.454 -2182.422 95239.454 -2182.422 95239.454 -2182.422 95223.032 -2254.822 95193.02 -2298.147 95178.223 -2311.622 95178.223 -2311.622 95113.908 -2342.555 95057.653 -2354.121 95032.643 -2355.86 95032.618 -2355.86 95032.618 -2355.86 94958.447 -2346.952 94911.802 -2332.318 94902.539 -2328.321 94902.539 -2328.321 94851.236 -2280.827 94845.704 -2260.352"/><path d="M 95341.993 -2065.821 95341.993 -2065.821 95350.922 -1986.638 95371.573 -1924.311 95394.734 -1880.636 95411.199 -1857.411 95414.063 -1854.004 95414.063 -1854.004 95471.421 -1809.133 95530.804 -1785.27 95578.847 -1775.78 95602.185 -1774.029 95602.735 -1774.024 95602.735 -1774.024 95679.227 -1785.633 95737.685 -1811.616 95775.97 -1838.704 95791.943 -1853.631 95792.286 -1854.004 95792.286 -1854.004 95830.001 -1912.365 95851.458 -1974.049 95861.242 -2027.32 95863.939 -2060.443 95864.063 -2065.821 95864.063 -2065.821 95854.418 -2148.098 95832.472 -2211.712 95808.702 -2254.739 95793.59 -2275.253 95792.286 -2276.758 95792.286 -2276.758 95734.922 -2321.136 95675.245 -2344.737 95626.84 -2354.123 95603.29 -2355.855 95602.735 -2355.86 95602.735 -2355.86 95526.857 -2344.378 95468.654 -2318.681 95430.409 -2291.89 95414.407 -2277.128 95414.063 -2276.758 95414.063 -2276.758 95376.194 -2218.859 95354.649 -2157.438 95344.825 -2104.287 95342.117 -2071.197 95341.993 -2065.821"/></g><path d="M 95990.039 -1455.86 95990.039 -1455.86 96032.227 -1452.344 96032.227 -1452.344 96084.515 -1483.907 96087.305 -1498.047 96087.305 -1498.047 96085.765 -1554.789 96085.547 -1562.207 96085.547 -1562.207 96083.705 -1626.627 96082.014 -1687.843 96081.165 -1719.071 96081.153 -1719.532 96081.153 -1719.532 96079.585 -1794.038 96078.808 -1858.111 96078.544 -1901.555 96078.516 -1914.649 96078.516 -2101.563 96078.516 -2101.563 96081.116 -2191.16 96087.223 -2259.312 96094.297 -2306.279 96099.8 -2332.322 96101.368 -2338.282 96101.368 -2338.282 96056.25 -2347.657 96056.25 -2347.657 96009.961 -2333.301 96009.961 -2333.301 95997.071 -2285.547 95997.071 -2285.547 95997.071 -2285.547 95997.369 -2235.454 95997.928 -2168.08 95998.242 -2132.949 95998.243 -2132.911 95998.243 -2132.911 95998.959 -2043.698 95999.3 -1982.444 95999.406 -1949.047 95999.414 -1942.188 95999.414 -1802.735 95999.414 -1802.735 95998.845 -1689.649 95997.389 -1603.003 95995.428 -1539.653 95993.339 -1496.454 95991.504 -1470.261 95990.302 -1457.931 95990.039 -1455.86"/><path d="M 96227.344 -2065.821 96227.344 -2065.821 96236.492 -1987.181 96257.646 -1925.036 96281.372 -1881.333 96298.238 -1858.018 96301.172 -1854.59 96301.172 -1854.59 96360.151 -1808.013 96417.92 -1784.095 96461.847 -1775.283 96479.297 -1774.024 96479.297 -1774.024 96479.297 -1774.024 96550.56 -1785.58 96602.25 -1806.18 96618.75 -1815.039 96618.75 -1815.039 96620.613 -1736.439 96621.081 -1694.792 96621.094 -1690.235 96621.094 -1690.235 96619.933 -1601.904 96617.246 -1532.917 96614.233 -1484.921 96612.092 -1459.561 96611.719 -1455.86 96611.719 -1455.86 96654.493 -1452.344 96654.493 -1452.344 96705.884 -1484.543 96708.399 -1498.047 96708.399 -1498.047 96707.9 -1539.368 96706.693 -1602.903 96705.212 -1672.159 96703.891 -1730.644 96703.164 -1761.862 96703.125 -1763.477 96703.125 -1763.477 96700.978 -1860.156 96699.51 -1937.669 96698.593 -1997.009 96698.098 -2039.17 96697.894 -2065.146 96697.852 -2075.929 96697.852 -2076.368 96697.852 -2076.368 96700.013 -2176.081 96705.243 -2248.9 96711.662 -2298.005 96717.387 -2326.581 96720.538 -2337.811 96720.704 -2338.282 96720.704 -2338.282 96675 -2347.657 96675 -2347.657 96627.2 -2311.539 96622.266 -2287.891 96622.266 -2287.891 96559.195 -2331.533 96503.852 -2350.824 96470.471 -2355.71 96466.407 -2355.86 96465.235 -2355.86 96465.235 -2355.86 96393.809 -2341.149 96338.8 -2309.933 96305.607 -2281.587 96298.243 -2273.829 96298.243 -2273.829 96259.712 -2212.32 96238.508 -2149.268 96229.456 -2097.078 96227.38 -2068.152 96227.344 -2065.821"/></g><path d="M 96846.094 -2068.164 96846.094 -2068.164 96856.004 -1984.22 96878.921 -1920.006 96904.625 -1876.198 96922.896 -1853.468 96926.075 -1850.196 96926.075 -1850.196 96989.159 -1806.159 97049.964 -1783.545 97095.772 -1775.214 97113.868 -1774.024 97113.868 -1774.024 97113.868 -1774.024 97189.339 -1787.396 97236.279 -1811.233 97249.805 -1821.485 97249.805 -1821.485 97290.69 -1881.175 97301.536 -1925.791 97301.954 -1932.813 97301.954 -1932.813 97290.421 -1998.76 97285.254 -2010.743 97285.254 -2010.743 97245.745 -2056.645 97241.602 -2059.668 97241.602 -2059.668 97182.484 -2082.883 97163.672 -2087.207 97163.672 -2087.207 97094.458 -2096.839 97063.477 -2099.219 97063.477 -2099.219 97063.477 -2099.219 96998.325 -2101.031 96944.455 -2101.538 96933.985 -2101.563 96933.985 -2101.563 96952.057 -2176.526 96975.267 -2223.309 96985.84 -2238.379 96985.84 -2238.379 97042.645 -2276.984 97092.348 -2288.362 97103.907 -2289.063 97103.907 -2289.063 97179.298 -2272.249 97220.111 -2241.519 97231.641 -2226.368 97231.641 -2226.368 97277.805 -2269.079 97279.102 -2276.758 97279.102 -2276.758 97243.791 -2324.261 97224.61 -2334.18 97224.61 -2334.18 97156.616 -2351.407 97108.816 -2355.733 97102.735 -2355.86 97102.735 -2355.86 97026.142 -2344.736 96967.896 -2320.264 96930.854 -2295.792 96917.872 -2284.668 96917.872 -2284.668 96917.872 -2284.668 96880.156 -2229.256 96858.699 -2166.338 96848.915 -2109.934 96846.218 -2074.063 96846.094 -2068.164"/></g><path d="M 97427.93 -1786.329 97427.93 -1786.329 97468.946 -1782.813 97468.946 -1782.813 97518.482 -1815.83 97520.508 -1827.93 97520.508 -1827.93 97519.922 -1844.336 97519.922 -1844.336 97519.336 -1870.118 97519.336 -1870.118 97563.493 -1820.23 97583.497 -1803.614 97583.497 -1803.614 97645.738 -1776.063 97662.891 -1774.024 97662.891 -1774.024 97706.25 -1786.622 97706.25 -1786.622 97722.071 -1820.899 97722.071 -1820.899 97699.696 -1872.581 97698.047 -1874.805 97698.047 -1874.805 97643.884 -1852.165 97640.04 -1851.954 97640.04 -1851.954 97581.65 -1872.29 97572.95 -1878.321 97572.95 -1878.321 97528.656 -1928.005 97516.407 -1948.047 97516.407 -1948.047 97515.587 -2005.096 97515.281 -2068.922 97515.235 -2100.358 97515.235 -2100.391 97515.235 -2100.391 97517.835 -2191.043 97523.942 -2259.58 97531.016 -2306.523 97536.519 -2332.393 97538.086 -2338.282 97538.086 -2338.282 97492.383 -2347.657 97492.383 -2347.657 97445.801 -2332.129 97445.801 -2332.129 97445.801 -2332.129 97433.798 -2279.97 97433.79 -2279.102 97433.79 -2279.102 97434.428 -2220.743 97434.961 -2184.473 97434.961 -2184.473 97435.916 -2106.431 97436.13 -2069.448 97436.133 -2066.993 97436.133 -2066.993 97435.432 -1980.65 97433.709 -1908.114 97431.541 -1851.006 97429.499 -1810.946 97428.16 -1789.552 97427.93 -1786.329"/><path d="M 97805.86 -1792.188 97805.86 -1792.188 97849.219 -1782.813 97849.219 -1782.813 97899.278 -1817.163 97904.297 -1842.579 97904.297 -1842.579 97962.378 -1806.763 97992.774 -1793.36 97992.774 -1793.36 97992.774 -1793.36 98061.915 -1776.441 98092.383 -1774.024 98092.383 -1774.024 98092.383 -1774.024 98166.783 -1791.848 98209.361 -1826.747 98225.459 -1850.861 98225.977 -1851.954 98225.977 -1851.954 98279.936 -1814.126 98315.893 -1797.119 98316.504 -1796.875 98316.504 -1796.875 98387.032 -1777.826 98424.866 -1774.047 98426.368 -1774.024 98426.368 -1774.024 98496.699 -1790.497 98530.398 -1812.565 98532.129 -1814.161 98532.129 -1814.161 98562.669 -1871.817 98572.136 -1927.723 98572.852 -1943.36 98572.852 -1943.36 98571.583 -1997.575 98570.801 -2029.786 98570.801 -2029.786 98569.193 -2110.968 98568.767 -2152.045 98568.75 -2157.227 98568.75 -2157.227 98572.673 -2239.83 98580.841 -2299.799 98587.851 -2332.966 98589.258 -2338.282 98589.258 -2338.282 98542.383 -2347.657 98542.383 -2347.657 98497.559 -2333.887 98497.559 -2333.887 98483.79 -2286.719 98483.79 -2286.719 98483.79 -2286.719 98484.594 -2229.729 98486.168 -2163.285 98487.256 -2123.208 98487.305 -2121.485 98487.305 -2121.485 98489.855 -2026.311 98490.726 -1984.066 98490.821 -1975.586 98490.821 -1975.586 98478.022 -1902.306 98462.987 -1874.574 98462.696 -1874.219 98462.696 -1874.219 98405.968 -1843.353 98388.868 -1841.407 98388.868 -1841.407 98323.955 -1855.88 98269.451 -1884.219 98241.172 -1903.801 98240.04 -1904.688 98240.04 -1904.688 98241.228 -1996.298 98241.926 -2065.515 98242.265 -2112.893 98242.374 -2138.987 98242.383 -2144.922 98242.383 -2144.922 98243.66 -2227.928 98246.42 -2291.793 98249.057 -2331.636 98250 -2342.969 98250 -2342.969 98208.985 -2346.485 98208.985 -2346.485 98157.594 -2314.286 98155.079 -2300.782 98155.079 -2300.782 98156.836 -2252.442 98156.836 -2252.442 98158.698 -2188.507 98159.678 -2138.568 98159.766 -2133.204 98159.766 -2133.204 98160.569 -2061.56 98160.883 -2003.352 98160.938 -1975.974 98160.938 -1975.586 98160.938 -1975.586 98142.024 -1893.605 98101.889 -1854.467 98065.445 -1842.327 98055.469 -1841.407 98055.469 -1841.407 97991.343 -1856.55 97937.161 -1886.201 97908.945 -1906.69 97907.813 -1907.618 97907.813 -1907.618 97909.044 -2002.664 97909.745 -2072.687 97910.065 -2118.697 97910.153 -2141.706 97910.157 -2144.922 97910.157 -2144.922 97911.335 -2227.928 97913.883 -2291.793 97916.317 -2331.636 97917.188 -2342.969 97917.188 -2342.969 97876.758 -2346.485 97876.758 -2346.485 97825.367 -2314.286 97822.852 -2300.782 97822.852 -2300.782 97824.622 -2246.009 97825.782 -2212.598 97825.782 -2212.598 97827.749 -2137.635 97828.551 -2077.789 97828.71 -2047.671 97828.711 -2046.485 97828.711 -2046.485 97826.335 -1944.438 97820.668 -1871.922 97813.904 -1825.001 97808.236 -1799.735 97805.86 -1792.188 97805.86 -1792.188"/><path d="M 98715.235 -2187.11 98715.235 -2187.11 98730.451 -2117.54 98743.946 -2097.168 98743.946 -2097.168 98799.002 -2062.388 98823.047 -2053.516 98823.047 -2053.516 98887.594 -2039.877 98954.19 -2030.345 99010.93 -2024.434 99045.911 -2021.657 99051.563 -2021.289 99051.563 -2021.289 99044.464 -1936.357 99031.81 -1891.541 99026.368 -1880.372 99026.368 -1880.372 98973.38 -1848.623 98923.583 -1841.514 98919.141 -1841.407 98919.141 -1841.407 98858.944 -1857.902 98849.707 -1862.793 98849.707 -1862.793 98804.208 -1909.389 98795.508 -1925.196 98795.508 -1925.196 98743 -1888.722 98740.43 -1877.149 98740.43 -1877.149 98770.153 -1821.304 98798.145 -1802.149 98798.145 -1802.149 98865.177 -1781.056 98918.735 -1774.518 98932.618 -1774.024 98932.618 -1774.024 99014.928 -1784.361 99064.781 -1804.158 99083.558 -1816.597 99083.79 -1816.797 99083.79 -1816.797 99116.053 -1870.714 99129.2 -1931.749 99131.82 -1968.169 99131.836 -1969.727 99131.836 -1969.727 99130.903 -2027.642 99130.665 -2040.332 99130.665 -2040.332 99129.599 -2113.495 99129.493 -2132.032 99129.493 -2132.032 99133.063 -2222.596 99140.918 -2287.012 99148.774 -2325.501 99152.344 -2338.282 99152.344 -2338.282 99152.344 -2338.282 99105.469 -2347.657 99105.469 -2347.657 99068.262 -2335.059 99068.262 -2335.059 99053.907 -2294.922 99053.907 -2294.922 98987.931 -2334.958 98932.997 -2351.96 98902.68 -2355.799 98900.391 -2355.86 98900.391 -2355.86 98817.537 -2341.426 98764.032 -2305.996 98733.458 -2261.381 98719.399 -2219.391 98715.436 -2191.835 98715.235 -2187.11"/></g><path d="M 99266.016 -2260.352 99266.016 -2260.352 99303.994 -2216.249 99319.922 -2209.961 99319.922 -2209.961 99360.823 -2259.257 99377.051 -2268.848 99377.051 -2268.848 99443.203 -2286.827 99472.266 -2289.063 99472.266 -2289.063 99539.775 -2274.918 99555.762 -2266.211 99555.762 -2266.211 99586.078 -2211.336 99587.696 -2195.313 99587.696 -2195.313 99560.397 -2143.536 99555.762 -2140.235 99555.762 -2140.235 99495.646 -2115.254 99478.418 -2110.645 99478.418 -2110.645 99411.84 -2093.68 99387.305 -2086.622 99387.305 -2086.622 99328.945 -2053.367 99309.668 -2034.473 99309.668 -2034.473 99282.489 -1973.012 99277.742 -1933.477 99277.735 -1932.813 99277.735 -1932.813 99297.73 -1865.3 99330.578 -1825.983 99339.551 -1818.555 99339.551 -1818.555 99404.496 -1786.826 99458.439 -1775.483 99479.297 -1774.024 99479.297 -1774.024 99547.914 -1784.365 99587.495 -1798.218 99589.747 -1799.219 99589.747 -1799.219 99638.67 -1846.894 99643.946 -1868.946 99643.946 -1868.946 99605.968 -1913.632 99590.04 -1919.336 99590.04 -1919.336 99549.122 -1871.545 99535.84 -1863.086 99535.84 -1863.086 99471.445 -1843.13 99450.586 -1841.407 99450.586 -1841.407 99388.777 -1857.998 99379.688 -1863.672 99379.688 -1863.672 99350.612 -1917.034 99349.805 -1926.368 99349.805 -1926.368 99376.749 -1978.855 99381.739 -1982.618 99381.739 -1982.618 99441.054 -2008.837 99459.082 -2013.965 99459.082 -2013.965 99524.684 -2031.183 99550.196 -2038.575 99550.196 -2038.575 99609.329 -2071.179 99627.832 -2088.379 99627.832 -2088.379 99655.774 -2148.914 99659.766 -2182.422 99659.766 -2182.422 99659.766 -2182.422 99643.345 -2254.822 99613.333 -2298.147 99598.536 -2311.622 99598.536 -2311.622 99534.22 -2342.555 99477.965 -2354.121 99452.955 -2355.86 99452.93 -2355.86 99452.93 -2355.86 99378.76 -2346.952 99332.114 -2332.318 99322.852 -2328.321 99322.852 -2328.321 99271.548 -2280.827 99266.016 -2260.352"/><path d="M 99780.469 -1455.86 99780.469 -1455.86 99822.657 -1452.344 99822.657 -1452.344 99874.945 -1483.907 99877.735 -1498.047 99877.735 -1498.047 99876.017 -1551.971 99875.977 -1553.125 99875.977 -1553.125 99873.785 -1618.514 99871.989 -1674.196 99871.582 -1687.012 99871.582 -1687.012 99869.85 -1759.967 99869.114 -1819.46 99868.948 -1851.868 99868.946 -1854.297 99868.946 -1854.297 99933.536 -1807.889 99992.798 -1784.058 100036.13 -1775.278 100052.93 -1774.024 100052.93 -1774.024 100052.93 -1774.024 100126.922 -1788.467 100165.707 -1811.497 100171.582 -1816.797 100171.582 -1816.797 100205.154 -1877.551 100212.235 -1919.138 100212.305 -1921.68 100212.305 -1921.68 100198.437 -1993.105 100174.996 -2038.016 100167.481 -2048.243 100167.481 -2048.243 100112.184 -2089.396 100060.473 -2107.014 100041.797 -2110.352 100041.797 -2110.352 100091.955 -2189.313 100121.261 -2230.302 100131.904 -2243.224 100132.032 -2243.36 100132.032 -2243.36 100190.159 -2279.366 100206.446 -2282.032 100206.446 -2282.032 100237.5 -2276.758 100237.5 -2276.758 100248.633 -2311.914 100248.633 -2311.914 100223.438 -2344.727 100223.438 -2344.727 100175.391 -2355.86 100175.391 -2355.86 100113.511 -2333.832 100088.672 -2313.086 100088.672 -2313.086 100058.497 -2277.051 100058.497 -2277.051 100028.687 -2234.098 100028.614 -2233.985 100028.614 -2233.985 100003.418 -2193.555 100003.418 -2193.555 99976.133 -2147.402 99975.879 -2146.973 99975.879 -2146.973 99952.149 -2106.25 99952.149 -2106.25 99920.508 -2081.055 99920.508 -2081.055 99926.954 -2052.344 99926.954 -2052.344 99985.761 -2061.035 99987.891 -2061.133 99987.891 -2061.133 100059.536 -2045.015 100089.448 -2025.178 100090.137 -2024.512 100090.137 -2024.512 100122.665 -1964.555 100126.172 -1939.844 100126.172 -1939.844 100107.834 -1878.908 100101.563 -1870.118 100101.563 -1870.118 100046.024 -1842.638 100032.422 -1841.407 100032.422 -1841.407 99969.2 -1855.916 99947.168 -1866.016 99947.168 -1866.016 99890.202 -1906.741 99868.946 -1927.539 99868.946 -2101.563 99868.946 -2101.563 99871.546 -2191.16 99877.653 -2259.312 99884.727 -2306.279 99890.23 -2332.322 99891.797 -2338.282 99891.797 -2338.282 99846.68 -2347.657 99846.68 -2347.657 99800.391 -2333.301 99800.391 -2333.301 99787.5 -2285.547 99787.5 -2285.547 99787.5 -2285.547 99787.799 -2235.454 99788.358 -2168.08 99788.672 -2132.949 99788.672 -2132.911 99788.672 -2132.911 99789.388 -2043.698 99789.73 -1982.444 99789.836 -1949.047 99789.844 -1942.188 99789.844 -1802.735 99789.844 -1802.735 99789.275 -1689.649 99787.819 -1603.003 99785.857 -1539.653 99783.769 -1496.454 99781.934 -1470.261 99780.732 -1457.931 99780.469 -1455.86"/></g></svg>