G04 #@! TF.GenerationSoftware,KiCad,Pcbnew,(5.1.5)-3*
G04 #@! TF.CreationDate,2020-04-23T15:25:22-04:00*
G04 #@! TF.ProjectId,Flying_MX,466c7969-6e67-45f4-9d58-2e6b69636164,rev?*
G04 #@! TF.SameCoordinates,Original*
G04 #@! TF.FileFunction,Soldermask,Top*
G04 #@! TF.FilePolarity,Negative*
%FSLAX46Y46*%
G04 Gerber Fmt 4.6, Leading zero omitted, Abs format (unit mm)*
G04 Created by KiCad (PCBNEW (5.1.5)-3) date 2020-04-23 15:25:22*
%MOMM*%
%LPD*%
G04 APERTURE LIST*
%ADD10C,0.010000*%
%ADD11C,0.100000*%
G04 APERTURE END LIST*
D10*
G36*
X114665190Y-39454182D02*
G01*
X114788198Y-39454929D01*
X114803004Y-39455028D01*
X115299503Y-39458350D01*
X115334386Y-39585350D01*
X115349703Y-39641518D01*
X115369547Y-39714872D01*
X115391932Y-39798047D01*
X115414875Y-39883675D01*
X115429026Y-39936703D01*
X115488783Y-40161057D01*
X115604286Y-40201391D01*
X115671610Y-40226487D01*
X115747763Y-40257294D01*
X115818863Y-40288144D01*
X115835385Y-40295742D01*
X115950981Y-40349761D01*
X116267519Y-40167517D01*
X116584057Y-39985274D01*
X116935178Y-40336227D01*
X117286298Y-40687179D01*
X117127683Y-40961764D01*
X117082511Y-41039961D01*
X117040217Y-41113172D01*
X117002890Y-41177778D01*
X116972623Y-41230161D01*
X116951505Y-41266702D01*
X116943285Y-41280918D01*
X116917502Y-41325487D01*
X116965791Y-41420618D01*
X116991514Y-41475308D01*
X117020559Y-41543301D01*
X117048385Y-41613744D01*
X117061165Y-41648581D01*
X117108249Y-41781413D01*
X117465424Y-41876289D01*
X117822600Y-41971165D01*
X117822600Y-42965920D01*
X117106612Y-43156274D01*
X117070826Y-43263112D01*
X117048587Y-43323940D01*
X117019679Y-43395379D01*
X116989034Y-43465442D01*
X116976799Y-43491641D01*
X116918559Y-43613332D01*
X117286281Y-44246250D01*
X116934830Y-44599132D01*
X116583378Y-44952014D01*
X116267256Y-44769341D01*
X115951134Y-44586667D01*
X115835461Y-44640721D01*
X115768099Y-44670615D01*
X115691948Y-44701992D01*
X115620877Y-44729191D01*
X115604286Y-44735108D01*
X115488783Y-44775442D01*
X115428931Y-44999796D01*
X115406705Y-45083088D01*
X115383859Y-45168672D01*
X115362359Y-45249186D01*
X115344169Y-45317269D01*
X115335111Y-45351150D01*
X115301143Y-45478150D01*
X114803824Y-45481471D01*
X114678093Y-45482251D01*
X114575402Y-45482689D01*
X114493390Y-45482695D01*
X114429698Y-45482179D01*
X114381966Y-45481053D01*
X114347835Y-45479228D01*
X114324944Y-45476614D01*
X114310935Y-45473122D01*
X114303447Y-45468662D01*
X114300121Y-45463147D01*
X114299893Y-45462421D01*
X114294770Y-45443924D01*
X114284169Y-45404811D01*
X114269148Y-45349012D01*
X114250764Y-45280458D01*
X114230075Y-45203076D01*
X114222141Y-45173350D01*
X114199954Y-45090333D01*
X114178815Y-45011535D01*
X114160008Y-44941717D01*
X114144818Y-44885644D01*
X114134527Y-44848079D01*
X114132768Y-44841773D01*
X114114535Y-44776896D01*
X114000443Y-44736084D01*
X113933829Y-44710538D01*
X113858487Y-44679027D01*
X113788190Y-44647368D01*
X113772153Y-44639690D01*
X113657954Y-44584109D01*
X113338507Y-44769280D01*
X113019059Y-44954452D01*
X112668104Y-44603373D01*
X112317150Y-44252293D01*
X112337099Y-44217521D01*
X112348784Y-44197197D01*
X112371187Y-44158270D01*
X112402345Y-44104148D01*
X112440298Y-44038238D01*
X112483083Y-43963947D01*
X112519584Y-43900575D01*
X112682121Y-43618400D01*
X112623965Y-43487825D01*
X112595346Y-43421463D01*
X112566287Y-43350567D01*
X112541142Y-43285901D01*
X112530380Y-43256387D01*
X112494950Y-43155524D01*
X112155780Y-43064284D01*
X112066176Y-43040100D01*
X111984019Y-43017774D01*
X111912680Y-42998235D01*
X111855531Y-42982412D01*
X111815943Y-42971231D01*
X111797288Y-42965622D01*
X111796856Y-42965463D01*
X111791818Y-42961241D01*
X111787752Y-42951285D01*
X111784579Y-42933268D01*
X111782223Y-42904864D01*
X111780609Y-42863747D01*
X111780304Y-42845683D01*
X113434083Y-42845683D01*
X113434482Y-42860868D01*
X113443359Y-42893896D01*
X113458762Y-42939449D01*
X113478737Y-42992213D01*
X113501331Y-43046870D01*
X113524590Y-43098105D01*
X113533388Y-43115950D01*
X113625671Y-43270520D01*
X113738635Y-43413296D01*
X113869308Y-43541716D01*
X114014719Y-43653219D01*
X114171897Y-43745245D01*
X114337870Y-43815232D01*
X114349031Y-43819004D01*
X114388634Y-43831761D01*
X114416884Y-43840061D01*
X114427146Y-43842085D01*
X114430788Y-43829736D01*
X114440154Y-43795787D01*
X114454448Y-43743184D01*
X114472874Y-43674876D01*
X114494635Y-43593810D01*
X114518934Y-43502935D01*
X114532384Y-43452500D01*
X114557964Y-43356593D01*
X114581647Y-43267996D01*
X114602588Y-43189848D01*
X114619944Y-43125292D01*
X114632872Y-43077469D01*
X114640527Y-43049520D01*
X114642094Y-43044044D01*
X114641442Y-43039750D01*
X114965359Y-43039750D01*
X114968450Y-43054053D01*
X114977186Y-43089276D01*
X114990615Y-43141811D01*
X115007782Y-43208050D01*
X115027731Y-43284387D01*
X115049510Y-43367213D01*
X115072163Y-43452922D01*
X115094735Y-43537904D01*
X115116274Y-43618553D01*
X115135824Y-43691262D01*
X115152430Y-43752422D01*
X115165139Y-43798426D01*
X115172997Y-43825666D01*
X115174507Y-43830335D01*
X115188554Y-43834406D01*
X115220987Y-43828548D01*
X115267528Y-43814303D01*
X115323901Y-43793213D01*
X115385829Y-43766817D01*
X115449034Y-43736658D01*
X115481563Y-43719689D01*
X115641156Y-43619395D01*
X115784722Y-43499472D01*
X115911685Y-43360449D01*
X115991985Y-43249601D01*
X116031809Y-43184126D01*
X116071581Y-43110353D01*
X116108155Y-43034930D01*
X116138386Y-42964501D01*
X116159125Y-42905714D01*
X116164399Y-42885403D01*
X116167940Y-42857634D01*
X116158387Y-42842859D01*
X116131064Y-42831981D01*
X116102910Y-42823658D01*
X116056476Y-42810663D01*
X115995349Y-42793945D01*
X115923115Y-42774447D01*
X115843362Y-42753117D01*
X115759675Y-42730900D01*
X115675642Y-42708742D01*
X115594849Y-42687589D01*
X115520883Y-42668387D01*
X115457330Y-42652082D01*
X115407778Y-42639620D01*
X115375813Y-42631947D01*
X115365010Y-42629941D01*
X115358664Y-42642235D01*
X115344435Y-42671527D01*
X115325229Y-42711822D01*
X115322478Y-42717641D01*
X115263404Y-42814301D01*
X115185107Y-42898547D01*
X115092593Y-42965379D01*
X115054430Y-42985320D01*
X115012266Y-43006644D01*
X114980867Y-43025409D01*
X114965889Y-43038160D01*
X114965359Y-43039750D01*
X114641442Y-43039750D01*
X114639467Y-43026746D01*
X114615777Y-43015806D01*
X114610618Y-43014595D01*
X114568156Y-42998401D01*
X114515228Y-42968286D01*
X114458676Y-42928919D01*
X114405339Y-42884972D01*
X114370464Y-42850623D01*
X114338207Y-42810297D01*
X114306508Y-42762189D01*
X114279296Y-42713309D01*
X114260502Y-42670671D01*
X114254024Y-42642875D01*
X114247856Y-42628146D01*
X114244375Y-42627074D01*
X114229273Y-42630280D01*
X114193475Y-42639204D01*
X114140511Y-42652895D01*
X114073909Y-42670401D01*
X113997198Y-42690770D01*
X113913909Y-42713049D01*
X113827570Y-42736287D01*
X113741710Y-42759530D01*
X113659858Y-42781829D01*
X113585544Y-42802229D01*
X113522296Y-42819779D01*
X113473644Y-42833527D01*
X113443118Y-42842520D01*
X113434083Y-42845683D01*
X111780304Y-42845683D01*
X111779660Y-42807591D01*
X111779299Y-42734072D01*
X111779449Y-42640862D01*
X111780036Y-42525637D01*
X111780425Y-42465416D01*
X111782971Y-42088187D01*
X113433473Y-42088187D01*
X113434489Y-42091222D01*
X113447717Y-42095843D01*
X113481953Y-42105984D01*
X113533643Y-42120683D01*
X113599237Y-42138980D01*
X113675183Y-42159914D01*
X113757928Y-42182524D01*
X113843920Y-42205847D01*
X113929608Y-42228924D01*
X114011439Y-42250793D01*
X114085862Y-42270494D01*
X114149324Y-42287064D01*
X114198275Y-42299544D01*
X114229160Y-42306971D01*
X114238025Y-42308645D01*
X114252785Y-42299578D01*
X114254024Y-42293625D01*
X114259164Y-42274050D01*
X114272298Y-42240170D01*
X114285115Y-42211234D01*
X114333712Y-42131705D01*
X114400965Y-42056264D01*
X114480201Y-41990922D01*
X114564751Y-41941690D01*
X114600308Y-41927239D01*
X114629265Y-41913810D01*
X114643327Y-41900654D01*
X114643483Y-41897253D01*
X114643339Y-41896750D01*
X114965359Y-41896750D01*
X114976167Y-41907860D01*
X115004519Y-41925630D01*
X115044687Y-41946539D01*
X115052317Y-41950171D01*
X115148224Y-42008432D01*
X115232614Y-42085834D01*
X115300140Y-42177020D01*
X115324276Y-42222567D01*
X115344426Y-42264059D01*
X115360860Y-42294681D01*
X115370517Y-42308798D01*
X115371314Y-42309151D01*
X115384723Y-42305888D01*
X115419694Y-42296796D01*
X115473266Y-42282662D01*
X115542477Y-42264272D01*
X115624365Y-42242412D01*
X115715969Y-42217868D01*
X115771550Y-42202936D01*
X116165250Y-42097068D01*
X116162044Y-42057369D01*
X116152993Y-42016079D01*
X116132621Y-41958965D01*
X116103460Y-41891492D01*
X116068042Y-41819125D01*
X116028897Y-41747331D01*
X115988557Y-41681576D01*
X115986723Y-41678799D01*
X115874658Y-41532426D01*
X115743492Y-41401356D01*
X115595731Y-41287536D01*
X115433876Y-41192912D01*
X115272632Y-41123749D01*
X115222113Y-41106965D01*
X115191176Y-41100341D01*
X115176397Y-41103268D01*
X115174460Y-41106288D01*
X115168692Y-41125479D01*
X115157711Y-41164800D01*
X115142471Y-41220641D01*
X115123927Y-41289396D01*
X115103033Y-41367457D01*
X115080744Y-41451216D01*
X115058013Y-41537065D01*
X115035795Y-41621398D01*
X115015044Y-41700605D01*
X114996716Y-41771080D01*
X114981763Y-41829215D01*
X114971141Y-41871401D01*
X114965803Y-41894032D01*
X114965359Y-41896750D01*
X114643339Y-41896750D01*
X114639153Y-41882167D01*
X114629111Y-41845561D01*
X114614174Y-41790459D01*
X114595157Y-41719887D01*
X114572877Y-41636871D01*
X114548149Y-41544436D01*
X114533281Y-41488728D01*
X114427863Y-41093406D01*
X114386237Y-41104900D01*
X114237300Y-41158267D01*
X114090960Y-41234101D01*
X113950694Y-41329482D01*
X113819979Y-41441491D01*
X113702295Y-41567211D01*
X113601118Y-41703721D01*
X113533477Y-41820550D01*
X113510033Y-41869886D01*
X113486722Y-41924380D01*
X113465476Y-41978746D01*
X113448230Y-42027694D01*
X113436918Y-42065936D01*
X113433473Y-42088187D01*
X111782971Y-42088187D01*
X111783750Y-41972950D01*
X112494950Y-41781816D01*
X112530380Y-41680533D01*
X112551434Y-41623868D01*
X112578847Y-41554970D01*
X112608259Y-41484635D01*
X112623965Y-41448674D01*
X112682121Y-41318099D01*
X112519584Y-41035924D01*
X112474340Y-40957372D01*
X112432354Y-40884467D01*
X112395588Y-40820616D01*
X112366004Y-40769226D01*
X112345564Y-40733704D01*
X112337099Y-40718978D01*
X112317150Y-40684206D01*
X113018682Y-39982424D01*
X113337791Y-40167306D01*
X113656899Y-40352188D01*
X113787124Y-40290229D01*
X113851803Y-40260740D01*
X113919974Y-40231757D01*
X113981591Y-40207464D01*
X114011504Y-40196790D01*
X114057422Y-40179754D01*
X114093594Y-40163204D01*
X114113388Y-40150248D01*
X114114788Y-40148380D01*
X114120422Y-40131919D01*
X114131546Y-40094361D01*
X114147190Y-40039176D01*
X114166380Y-39969830D01*
X114188146Y-39889792D01*
X114208478Y-39813950D01*
X114231644Y-39727080D01*
X114252911Y-39647536D01*
X114271328Y-39578859D01*
X114285945Y-39524591D01*
X114295809Y-39488273D01*
X114299772Y-39474078D01*
X114302796Y-39468427D01*
X114309703Y-39463845D01*
X114322854Y-39460243D01*
X114344613Y-39457530D01*
X114377341Y-39455617D01*
X114423401Y-39454415D01*
X114485154Y-39453835D01*
X114564963Y-39453787D01*
X114665190Y-39454182D01*
G37*
X114665190Y-39454182D02*
X114788198Y-39454929D01*
X114803004Y-39455028D01*
X115299503Y-39458350D01*
X115334386Y-39585350D01*
X115349703Y-39641518D01*
X115369547Y-39714872D01*
X115391932Y-39798047D01*
X115414875Y-39883675D01*
X115429026Y-39936703D01*
X115488783Y-40161057D01*
X115604286Y-40201391D01*
X115671610Y-40226487D01*
X115747763Y-40257294D01*
X115818863Y-40288144D01*
X115835385Y-40295742D01*
X115950981Y-40349761D01*
X116267519Y-40167517D01*
X116584057Y-39985274D01*
X116935178Y-40336227D01*
X117286298Y-40687179D01*
X117127683Y-40961764D01*
X117082511Y-41039961D01*
X117040217Y-41113172D01*
X117002890Y-41177778D01*
X116972623Y-41230161D01*
X116951505Y-41266702D01*
X116943285Y-41280918D01*
X116917502Y-41325487D01*
X116965791Y-41420618D01*
X116991514Y-41475308D01*
X117020559Y-41543301D01*
X117048385Y-41613744D01*
X117061165Y-41648581D01*
X117108249Y-41781413D01*
X117465424Y-41876289D01*
X117822600Y-41971165D01*
X117822600Y-42965920D01*
X117106612Y-43156274D01*
X117070826Y-43263112D01*
X117048587Y-43323940D01*
X117019679Y-43395379D01*
X116989034Y-43465442D01*
X116976799Y-43491641D01*
X116918559Y-43613332D01*
X117286281Y-44246250D01*
X116934830Y-44599132D01*
X116583378Y-44952014D01*
X116267256Y-44769341D01*
X115951134Y-44586667D01*
X115835461Y-44640721D01*
X115768099Y-44670615D01*
X115691948Y-44701992D01*
X115620877Y-44729191D01*
X115604286Y-44735108D01*
X115488783Y-44775442D01*
X115428931Y-44999796D01*
X115406705Y-45083088D01*
X115383859Y-45168672D01*
X115362359Y-45249186D01*
X115344169Y-45317269D01*
X115335111Y-45351150D01*
X115301143Y-45478150D01*
X114803824Y-45481471D01*
X114678093Y-45482251D01*
X114575402Y-45482689D01*
X114493390Y-45482695D01*
X114429698Y-45482179D01*
X114381966Y-45481053D01*
X114347835Y-45479228D01*
X114324944Y-45476614D01*
X114310935Y-45473122D01*
X114303447Y-45468662D01*
X114300121Y-45463147D01*
X114299893Y-45462421D01*
X114294770Y-45443924D01*
X114284169Y-45404811D01*
X114269148Y-45349012D01*
X114250764Y-45280458D01*
X114230075Y-45203076D01*
X114222141Y-45173350D01*
X114199954Y-45090333D01*
X114178815Y-45011535D01*
X114160008Y-44941717D01*
X114144818Y-44885644D01*
X114134527Y-44848079D01*
X114132768Y-44841773D01*
X114114535Y-44776896D01*
X114000443Y-44736084D01*
X113933829Y-44710538D01*
X113858487Y-44679027D01*
X113788190Y-44647368D01*
X113772153Y-44639690D01*
X113657954Y-44584109D01*
X113338507Y-44769280D01*
X113019059Y-44954452D01*
X112668104Y-44603373D01*
X112317150Y-44252293D01*
X112337099Y-44217521D01*
X112348784Y-44197197D01*
X112371187Y-44158270D01*
X112402345Y-44104148D01*
X112440298Y-44038238D01*
X112483083Y-43963947D01*
X112519584Y-43900575D01*
X112682121Y-43618400D01*
X112623965Y-43487825D01*
X112595346Y-43421463D01*
X112566287Y-43350567D01*
X112541142Y-43285901D01*
X112530380Y-43256387D01*
X112494950Y-43155524D01*
X112155780Y-43064284D01*
X112066176Y-43040100D01*
X111984019Y-43017774D01*
X111912680Y-42998235D01*
X111855531Y-42982412D01*
X111815943Y-42971231D01*
X111797288Y-42965622D01*
X111796856Y-42965463D01*
X111791818Y-42961241D01*
X111787752Y-42951285D01*
X111784579Y-42933268D01*
X111782223Y-42904864D01*
X111780609Y-42863747D01*
X111780304Y-42845683D01*
X113434083Y-42845683D01*
X113434482Y-42860868D01*
X113443359Y-42893896D01*
X113458762Y-42939449D01*
X113478737Y-42992213D01*
X113501331Y-43046870D01*
X113524590Y-43098105D01*
X113533388Y-43115950D01*
X113625671Y-43270520D01*
X113738635Y-43413296D01*
X113869308Y-43541716D01*
X114014719Y-43653219D01*
X114171897Y-43745245D01*
X114337870Y-43815232D01*
X114349031Y-43819004D01*
X114388634Y-43831761D01*
X114416884Y-43840061D01*
X114427146Y-43842085D01*
X114430788Y-43829736D01*
X114440154Y-43795787D01*
X114454448Y-43743184D01*
X114472874Y-43674876D01*
X114494635Y-43593810D01*
X114518934Y-43502935D01*
X114532384Y-43452500D01*
X114557964Y-43356593D01*
X114581647Y-43267996D01*
X114602588Y-43189848D01*
X114619944Y-43125292D01*
X114632872Y-43077469D01*
X114640527Y-43049520D01*
X114642094Y-43044044D01*
X114641442Y-43039750D01*
X114965359Y-43039750D01*
X114968450Y-43054053D01*
X114977186Y-43089276D01*
X114990615Y-43141811D01*
X115007782Y-43208050D01*
X115027731Y-43284387D01*
X115049510Y-43367213D01*
X115072163Y-43452922D01*
X115094735Y-43537904D01*
X115116274Y-43618553D01*
X115135824Y-43691262D01*
X115152430Y-43752422D01*
X115165139Y-43798426D01*
X115172997Y-43825666D01*
X115174507Y-43830335D01*
X115188554Y-43834406D01*
X115220987Y-43828548D01*
X115267528Y-43814303D01*
X115323901Y-43793213D01*
X115385829Y-43766817D01*
X115449034Y-43736658D01*
X115481563Y-43719689D01*
X115641156Y-43619395D01*
X115784722Y-43499472D01*
X115911685Y-43360449D01*
X115991985Y-43249601D01*
X116031809Y-43184126D01*
X116071581Y-43110353D01*
X116108155Y-43034930D01*
X116138386Y-42964501D01*
X116159125Y-42905714D01*
X116164399Y-42885403D01*
X116167940Y-42857634D01*
X116158387Y-42842859D01*
X116131064Y-42831981D01*
X116102910Y-42823658D01*
X116056476Y-42810663D01*
X115995349Y-42793945D01*
X115923115Y-42774447D01*
X115843362Y-42753117D01*
X115759675Y-42730900D01*
X115675642Y-42708742D01*
X115594849Y-42687589D01*
X115520883Y-42668387D01*
X115457330Y-42652082D01*
X115407778Y-42639620D01*
X115375813Y-42631947D01*
X115365010Y-42629941D01*
X115358664Y-42642235D01*
X115344435Y-42671527D01*
X115325229Y-42711822D01*
X115322478Y-42717641D01*
X115263404Y-42814301D01*
X115185107Y-42898547D01*
X115092593Y-42965379D01*
X115054430Y-42985320D01*
X115012266Y-43006644D01*
X114980867Y-43025409D01*
X114965889Y-43038160D01*
X114965359Y-43039750D01*
X114641442Y-43039750D01*
X114639467Y-43026746D01*
X114615777Y-43015806D01*
X114610618Y-43014595D01*
X114568156Y-42998401D01*
X114515228Y-42968286D01*
X114458676Y-42928919D01*
X114405339Y-42884972D01*
X114370464Y-42850623D01*
X114338207Y-42810297D01*
X114306508Y-42762189D01*
X114279296Y-42713309D01*
X114260502Y-42670671D01*
X114254024Y-42642875D01*
X114247856Y-42628146D01*
X114244375Y-42627074D01*
X114229273Y-42630280D01*
X114193475Y-42639204D01*
X114140511Y-42652895D01*
X114073909Y-42670401D01*
X113997198Y-42690770D01*
X113913909Y-42713049D01*
X113827570Y-42736287D01*
X113741710Y-42759530D01*
X113659858Y-42781829D01*
X113585544Y-42802229D01*
X113522296Y-42819779D01*
X113473644Y-42833527D01*
X113443118Y-42842520D01*
X113434083Y-42845683D01*
X111780304Y-42845683D01*
X111779660Y-42807591D01*
X111779299Y-42734072D01*
X111779449Y-42640862D01*
X111780036Y-42525637D01*
X111780425Y-42465416D01*
X111782971Y-42088187D01*
X113433473Y-42088187D01*
X113434489Y-42091222D01*
X113447717Y-42095843D01*
X113481953Y-42105984D01*
X113533643Y-42120683D01*
X113599237Y-42138980D01*
X113675183Y-42159914D01*
X113757928Y-42182524D01*
X113843920Y-42205847D01*
X113929608Y-42228924D01*
X114011439Y-42250793D01*
X114085862Y-42270494D01*
X114149324Y-42287064D01*
X114198275Y-42299544D01*
X114229160Y-42306971D01*
X114238025Y-42308645D01*
X114252785Y-42299578D01*
X114254024Y-42293625D01*
X114259164Y-42274050D01*
X114272298Y-42240170D01*
X114285115Y-42211234D01*
X114333712Y-42131705D01*
X114400965Y-42056264D01*
X114480201Y-41990922D01*
X114564751Y-41941690D01*
X114600308Y-41927239D01*
X114629265Y-41913810D01*
X114643327Y-41900654D01*
X114643483Y-41897253D01*
X114643339Y-41896750D01*
X114965359Y-41896750D01*
X114976167Y-41907860D01*
X115004519Y-41925630D01*
X115044687Y-41946539D01*
X115052317Y-41950171D01*
X115148224Y-42008432D01*
X115232614Y-42085834D01*
X115300140Y-42177020D01*
X115324276Y-42222567D01*
X115344426Y-42264059D01*
X115360860Y-42294681D01*
X115370517Y-42308798D01*
X115371314Y-42309151D01*
X115384723Y-42305888D01*
X115419694Y-42296796D01*
X115473266Y-42282662D01*
X115542477Y-42264272D01*
X115624365Y-42242412D01*
X115715969Y-42217868D01*
X115771550Y-42202936D01*
X116165250Y-42097068D01*
X116162044Y-42057369D01*
X116152993Y-42016079D01*
X116132621Y-41958965D01*
X116103460Y-41891492D01*
X116068042Y-41819125D01*
X116028897Y-41747331D01*
X115988557Y-41681576D01*
X115986723Y-41678799D01*
X115874658Y-41532426D01*
X115743492Y-41401356D01*
X115595731Y-41287536D01*
X115433876Y-41192912D01*
X115272632Y-41123749D01*
X115222113Y-41106965D01*
X115191176Y-41100341D01*
X115176397Y-41103268D01*
X115174460Y-41106288D01*
X115168692Y-41125479D01*
X115157711Y-41164800D01*
X115142471Y-41220641D01*
X115123927Y-41289396D01*
X115103033Y-41367457D01*
X115080744Y-41451216D01*
X115058013Y-41537065D01*
X115035795Y-41621398D01*
X115015044Y-41700605D01*
X114996716Y-41771080D01*
X114981763Y-41829215D01*
X114971141Y-41871401D01*
X114965803Y-41894032D01*
X114965359Y-41896750D01*
X114643339Y-41896750D01*
X114639153Y-41882167D01*
X114629111Y-41845561D01*
X114614174Y-41790459D01*
X114595157Y-41719887D01*
X114572877Y-41636871D01*
X114548149Y-41544436D01*
X114533281Y-41488728D01*
X114427863Y-41093406D01*
X114386237Y-41104900D01*
X114237300Y-41158267D01*
X114090960Y-41234101D01*
X113950694Y-41329482D01*
X113819979Y-41441491D01*
X113702295Y-41567211D01*
X113601118Y-41703721D01*
X113533477Y-41820550D01*
X113510033Y-41869886D01*
X113486722Y-41924380D01*
X113465476Y-41978746D01*
X113448230Y-42027694D01*
X113436918Y-42065936D01*
X113433473Y-42088187D01*
X111782971Y-42088187D01*
X111783750Y-41972950D01*
X112494950Y-41781816D01*
X112530380Y-41680533D01*
X112551434Y-41623868D01*
X112578847Y-41554970D01*
X112608259Y-41484635D01*
X112623965Y-41448674D01*
X112682121Y-41318099D01*
X112519584Y-41035924D01*
X112474340Y-40957372D01*
X112432354Y-40884467D01*
X112395588Y-40820616D01*
X112366004Y-40769226D01*
X112345564Y-40733704D01*
X112337099Y-40718978D01*
X112317150Y-40684206D01*
X113018682Y-39982424D01*
X113337791Y-40167306D01*
X113656899Y-40352188D01*
X113787124Y-40290229D01*
X113851803Y-40260740D01*
X113919974Y-40231757D01*
X113981591Y-40207464D01*
X114011504Y-40196790D01*
X114057422Y-40179754D01*
X114093594Y-40163204D01*
X114113388Y-40150248D01*
X114114788Y-40148380D01*
X114120422Y-40131919D01*
X114131546Y-40094361D01*
X114147190Y-40039176D01*
X114166380Y-39969830D01*
X114188146Y-39889792D01*
X114208478Y-39813950D01*
X114231644Y-39727080D01*
X114252911Y-39647536D01*
X114271328Y-39578859D01*
X114285945Y-39524591D01*
X114295809Y-39488273D01*
X114299772Y-39474078D01*
X114302796Y-39468427D01*
X114309703Y-39463845D01*
X114322854Y-39460243D01*
X114344613Y-39457530D01*
X114377341Y-39455617D01*
X114423401Y-39454415D01*
X114485154Y-39453835D01*
X114564963Y-39453787D01*
X114665190Y-39454182D01*
G36*
X115606450Y-39083787D02*
G01*
X115712744Y-39482166D01*
X115819038Y-39880544D01*
X115862400Y-39901222D01*
X115895526Y-39914892D01*
X115920810Y-39921722D01*
X115923503Y-39921900D01*
X115938478Y-39915752D01*
X115972627Y-39898324D01*
X116023182Y-39871133D01*
X116087380Y-39835699D01*
X116162453Y-39793542D01*
X116245637Y-39746180D01*
X116294128Y-39718298D01*
X116647012Y-39514697D01*
X117785807Y-40653492D01*
X117581953Y-41006224D01*
X117532305Y-41092665D01*
X117487025Y-41172523D01*
X117447635Y-41243035D01*
X117415657Y-41301438D01*
X117392611Y-41344967D01*
X117380019Y-41370860D01*
X117378100Y-41376597D01*
X117383294Y-41399156D01*
X117396064Y-41431759D01*
X117398753Y-41437548D01*
X117419406Y-41480858D01*
X118216300Y-41692802D01*
X118216300Y-43306537D01*
X117419268Y-43519431D01*
X117398684Y-43562596D01*
X117385051Y-43595636D01*
X117378267Y-43620800D01*
X117378100Y-43623402D01*
X117384254Y-43638348D01*
X117401704Y-43672460D01*
X117428927Y-43722974D01*
X117464404Y-43787127D01*
X117506612Y-43862155D01*
X117554032Y-43945295D01*
X117581953Y-43993775D01*
X117785807Y-44346507D01*
X116647012Y-45485302D01*
X116294128Y-45281701D01*
X116207646Y-45232112D01*
X116127744Y-45186888D01*
X116057188Y-45147547D01*
X115998744Y-45115608D01*
X115955177Y-45092591D01*
X115929253Y-45080015D01*
X115923503Y-45078100D01*
X115900876Y-45083296D01*
X115868224Y-45096072D01*
X115862400Y-45098777D01*
X115819038Y-45119455D01*
X115712744Y-45517833D01*
X115606450Y-45916212D01*
X113993550Y-45916232D01*
X113780602Y-45119284D01*
X113737420Y-45098692D01*
X113704351Y-45085054D01*
X113679134Y-45078268D01*
X113676520Y-45078100D01*
X113661559Y-45084261D01*
X113627441Y-45101732D01*
X113576930Y-45128987D01*
X113512789Y-45164505D01*
X113437783Y-45206761D01*
X113354675Y-45254234D01*
X113306321Y-45282126D01*
X112953838Y-45486153D01*
X111814192Y-44346507D01*
X112018046Y-43993775D01*
X112067694Y-43907334D01*
X112112974Y-43827476D01*
X112152364Y-43756964D01*
X112184342Y-43698561D01*
X112207388Y-43655032D01*
X112219980Y-43629139D01*
X112221900Y-43623402D01*
X112216705Y-43600873D01*
X112203926Y-43568231D01*
X112201125Y-43562198D01*
X112196844Y-43552289D01*
X112193037Y-43543928D01*
X112187658Y-43536446D01*
X112178663Y-43529178D01*
X112164005Y-43521453D01*
X112141640Y-43512606D01*
X112109522Y-43501968D01*
X112065605Y-43488873D01*
X112007844Y-43472651D01*
X111934193Y-43452636D01*
X111842608Y-43428159D01*
X111731042Y-43398554D01*
X111597451Y-43363153D01*
X111564675Y-43354460D01*
X111383700Y-43306450D01*
X111383700Y-41831929D01*
X111561499Y-41831929D01*
X111561500Y-42499999D01*
X111561500Y-43168070D01*
X111913925Y-43261482D01*
X112005772Y-43285915D01*
X112090589Y-43308649D01*
X112164985Y-43328760D01*
X112225570Y-43345326D01*
X112268954Y-43357426D01*
X112291745Y-43364136D01*
X112293335Y-43364677D01*
X112316302Y-43384864D01*
X112341180Y-43428619D01*
X112352390Y-43454756D01*
X112372988Y-43506056D01*
X112393517Y-43556751D01*
X112406395Y-43588232D01*
X112428330Y-43641414D01*
X112246864Y-43956532D01*
X112199551Y-44038639D01*
X112155873Y-44114335D01*
X112117578Y-44180600D01*
X112086413Y-44234413D01*
X112064126Y-44272756D01*
X112052463Y-44292606D01*
X112051673Y-44293909D01*
X112050596Y-44300905D01*
X112054918Y-44312029D01*
X112065963Y-44328706D01*
X112085051Y-44352365D01*
X112113506Y-44384432D01*
X112152651Y-44426336D01*
X112203807Y-44479502D01*
X112268298Y-44545359D01*
X112347446Y-44625334D01*
X112442574Y-44720854D01*
X112507684Y-44786034D01*
X112597876Y-44876098D01*
X112682690Y-44960496D01*
X112760427Y-45037560D01*
X112829393Y-45105622D01*
X112887892Y-45163015D01*
X112934227Y-45208072D01*
X112966702Y-45239125D01*
X112983621Y-45254508D01*
X112985646Y-45255900D01*
X112998297Y-45249778D01*
X113030144Y-45232451D01*
X113078424Y-45205479D01*
X113140373Y-45170420D01*
X113213226Y-45128833D01*
X113294221Y-45082277D01*
X113325543Y-45064194D01*
X113420445Y-45009496D01*
X113495998Y-44966444D01*
X113554740Y-44933802D01*
X113599210Y-44910331D01*
X113631946Y-44894791D01*
X113655487Y-44885946D01*
X113672374Y-44882557D01*
X113685143Y-44883385D01*
X113692031Y-44885445D01*
X113719837Y-44896351D01*
X113762997Y-44913898D01*
X113813482Y-44934810D01*
X113828450Y-44941080D01*
X113930050Y-44983759D01*
X114030842Y-45361129D01*
X114131634Y-45738500D01*
X115468365Y-45738500D01*
X115569157Y-45361036D01*
X115669950Y-44983572D01*
X115806107Y-44927937D01*
X115942265Y-44872301D01*
X116269179Y-45060925D01*
X116352179Y-45108679D01*
X116428303Y-45152215D01*
X116494707Y-45189928D01*
X116548547Y-45220214D01*
X116586981Y-45241466D01*
X116607166Y-45252079D01*
X116609271Y-45252957D01*
X116620518Y-45244884D01*
X116647934Y-45220431D01*
X116689807Y-45181254D01*
X116744421Y-45129009D01*
X116810064Y-45065351D01*
X116885021Y-44991938D01*
X116967579Y-44910425D01*
X117056022Y-44822469D01*
X117092251Y-44786266D01*
X117197572Y-44680725D01*
X117286125Y-44591586D01*
X117359233Y-44517422D01*
X117418216Y-44456806D01*
X117464397Y-44408311D01*
X117499098Y-44370509D01*
X117523641Y-44341973D01*
X117539349Y-44321276D01*
X117547543Y-44306991D01*
X117549546Y-44297689D01*
X117548326Y-44293909D01*
X117538609Y-44277442D01*
X117517977Y-44241982D01*
X117488179Y-44190553D01*
X117450966Y-44126180D01*
X117408087Y-44051885D01*
X117361292Y-43970694D01*
X117353539Y-43957233D01*
X117300601Y-43865015D01*
X117259261Y-43792073D01*
X117228258Y-43735782D01*
X117206326Y-43693517D01*
X117192203Y-43662651D01*
X117184624Y-43640559D01*
X117182326Y-43624616D01*
X117184045Y-43612195D01*
X117185440Y-43607983D01*
X117196354Y-43580175D01*
X117213921Y-43537016D01*
X117234863Y-43486535D01*
X117241150Y-43471550D01*
X117283899Y-43369950D01*
X117661199Y-43269109D01*
X118038500Y-43168268D01*
X118038500Y-41831731D01*
X117661199Y-41730890D01*
X117283899Y-41630050D01*
X117241150Y-41528450D01*
X117219842Y-41477344D01*
X117200949Y-41431213D01*
X117187750Y-41398086D01*
X117185440Y-41392016D01*
X117182559Y-41380232D01*
X117183230Y-41365892D01*
X117188715Y-41346372D01*
X117200279Y-41319046D01*
X117219186Y-41281287D01*
X117246699Y-41230471D01*
X117284082Y-41163972D01*
X117332598Y-41079164D01*
X117353539Y-41042766D01*
X117400800Y-40960750D01*
X117444425Y-40885146D01*
X117482665Y-40818977D01*
X117513769Y-40765269D01*
X117535989Y-40727044D01*
X117547575Y-40707328D01*
X117548326Y-40706090D01*
X117549403Y-40699094D01*
X117545080Y-40687969D01*
X117534038Y-40671288D01*
X117514952Y-40647625D01*
X117486502Y-40615552D01*
X117447364Y-40573641D01*
X117396218Y-40520466D01*
X117331741Y-40454599D01*
X117252610Y-40374612D01*
X117157504Y-40279080D01*
X117092251Y-40213733D01*
X117001952Y-40123685D01*
X116916862Y-40039425D01*
X116838694Y-39962611D01*
X116769162Y-39894897D01*
X116709980Y-39837939D01*
X116662863Y-39793395D01*
X116629524Y-39762920D01*
X116611677Y-39748171D01*
X116609271Y-39747042D01*
X116595312Y-39754036D01*
X116562224Y-39772166D01*
X116512848Y-39799827D01*
X116450030Y-39835413D01*
X116376611Y-39877318D01*
X116295436Y-39923937D01*
X116269179Y-39939074D01*
X115942265Y-40127698D01*
X115806107Y-40072062D01*
X115669950Y-40016427D01*
X115569157Y-39638963D01*
X115468365Y-39261500D01*
X114799999Y-39261500D01*
X114131634Y-39261499D01*
X114030842Y-39638870D01*
X113930050Y-40016240D01*
X113828450Y-40058919D01*
X113777340Y-40080196D01*
X113731211Y-40099065D01*
X113698091Y-40112248D01*
X113692031Y-40114554D01*
X113680531Y-40117356D01*
X113666470Y-40116699D01*
X113647311Y-40111347D01*
X113620514Y-40100059D01*
X113583541Y-40081599D01*
X113533852Y-40054727D01*
X113468909Y-40018206D01*
X113386173Y-39970796D01*
X113325543Y-39935805D01*
X113242247Y-39887812D01*
X113166075Y-39844214D01*
X113099790Y-39806570D01*
X113046156Y-39776439D01*
X113007937Y-39755380D01*
X112987897Y-39744952D01*
X112985646Y-39744100D01*
X112975351Y-39752821D01*
X112948829Y-39777872D01*
X112907775Y-39817587D01*
X112853887Y-39870298D01*
X112788861Y-39934338D01*
X112714391Y-40008039D01*
X112632175Y-40089734D01*
X112543908Y-40177755D01*
X112507684Y-40213965D01*
X112402362Y-40319469D01*
X112313811Y-40408574D01*
X112240709Y-40482707D01*
X112181733Y-40543296D01*
X112135559Y-40591767D01*
X112100867Y-40629548D01*
X112076333Y-40658067D01*
X112060634Y-40678750D01*
X112052449Y-40693025D01*
X112050454Y-40702319D01*
X112051673Y-40706090D01*
X112061386Y-40722551D01*
X112082017Y-40758008D01*
X112111818Y-40809443D01*
X112149041Y-40873835D01*
X112191940Y-40948163D01*
X112238767Y-41029407D01*
X112246864Y-41043467D01*
X112428330Y-41358585D01*
X112406395Y-41411767D01*
X112389637Y-41452795D01*
X112368678Y-41504640D01*
X112352390Y-41545243D01*
X112327017Y-41598792D01*
X112303080Y-41629495D01*
X112293335Y-41635322D01*
X112274403Y-41641019D01*
X112234300Y-41652262D01*
X112176415Y-41668130D01*
X112104140Y-41687701D01*
X112020864Y-41710051D01*
X111929978Y-41734260D01*
X111913925Y-41738517D01*
X111561499Y-41831929D01*
X111383700Y-41831929D01*
X111383700Y-41693550D01*
X111564675Y-41645539D01*
X111703422Y-41608763D01*
X111819690Y-41577932D01*
X111915525Y-41552377D01*
X111992971Y-41531431D01*
X112054076Y-41514427D01*
X112100883Y-41500696D01*
X112135438Y-41489571D01*
X112159787Y-41480385D01*
X112175976Y-41472470D01*
X112186049Y-41465158D01*
X112192053Y-41457781D01*
X112196032Y-41449672D01*
X112200032Y-41440164D01*
X112201125Y-41437801D01*
X112214830Y-41404653D01*
X112221710Y-41379372D01*
X112221900Y-41376597D01*
X112215745Y-41361651D01*
X112198295Y-41327539D01*
X112171072Y-41277025D01*
X112135595Y-41212872D01*
X112093387Y-41137844D01*
X112045967Y-41054704D01*
X112018046Y-41006224D01*
X111814192Y-40653492D01*
X112953781Y-39513903D01*
X113306762Y-39717901D01*
X113393215Y-39767564D01*
X113473064Y-39812859D01*
X113543552Y-39852266D01*
X113601921Y-39884265D01*
X113645410Y-39907337D01*
X113671262Y-39919960D01*
X113676991Y-39921900D01*
X113699279Y-39916714D01*
X113731700Y-39903966D01*
X113737420Y-39901307D01*
X113780602Y-39880715D01*
X113993550Y-39083767D01*
X115606450Y-39083787D01*
G37*
X115606450Y-39083787D02*
X115712744Y-39482166D01*
X115819038Y-39880544D01*
X115862400Y-39901222D01*
X115895526Y-39914892D01*
X115920810Y-39921722D01*
X115923503Y-39921900D01*
X115938478Y-39915752D01*
X115972627Y-39898324D01*
X116023182Y-39871133D01*
X116087380Y-39835699D01*
X116162453Y-39793542D01*
X116245637Y-39746180D01*
X116294128Y-39718298D01*
X116647012Y-39514697D01*
X117785807Y-40653492D01*
X117581953Y-41006224D01*
X117532305Y-41092665D01*
X117487025Y-41172523D01*
X117447635Y-41243035D01*
X117415657Y-41301438D01*
X117392611Y-41344967D01*
X117380019Y-41370860D01*
X117378100Y-41376597D01*
X117383294Y-41399156D01*
X117396064Y-41431759D01*
X117398753Y-41437548D01*
X117419406Y-41480858D01*
X118216300Y-41692802D01*
X118216300Y-43306537D01*
X117419268Y-43519431D01*
X117398684Y-43562596D01*
X117385051Y-43595636D01*
X117378267Y-43620800D01*
X117378100Y-43623402D01*
X117384254Y-43638348D01*
X117401704Y-43672460D01*
X117428927Y-43722974D01*
X117464404Y-43787127D01*
X117506612Y-43862155D01*
X117554032Y-43945295D01*
X117581953Y-43993775D01*
X117785807Y-44346507D01*
X116647012Y-45485302D01*
X116294128Y-45281701D01*
X116207646Y-45232112D01*
X116127744Y-45186888D01*
X116057188Y-45147547D01*
X115998744Y-45115608D01*
X115955177Y-45092591D01*
X115929253Y-45080015D01*
X115923503Y-45078100D01*
X115900876Y-45083296D01*
X115868224Y-45096072D01*
X115862400Y-45098777D01*
X115819038Y-45119455D01*
X115712744Y-45517833D01*
X115606450Y-45916212D01*
X113993550Y-45916232D01*
X113780602Y-45119284D01*
X113737420Y-45098692D01*
X113704351Y-45085054D01*
X113679134Y-45078268D01*
X113676520Y-45078100D01*
X113661559Y-45084261D01*
X113627441Y-45101732D01*
X113576930Y-45128987D01*
X113512789Y-45164505D01*
X113437783Y-45206761D01*
X113354675Y-45254234D01*
X113306321Y-45282126D01*
X112953838Y-45486153D01*
X111814192Y-44346507D01*
X112018046Y-43993775D01*
X112067694Y-43907334D01*
X112112974Y-43827476D01*
X112152364Y-43756964D01*
X112184342Y-43698561D01*
X112207388Y-43655032D01*
X112219980Y-43629139D01*
X112221900Y-43623402D01*
X112216705Y-43600873D01*
X112203926Y-43568231D01*
X112201125Y-43562198D01*
X112196844Y-43552289D01*
X112193037Y-43543928D01*
X112187658Y-43536446D01*
X112178663Y-43529178D01*
X112164005Y-43521453D01*
X112141640Y-43512606D01*
X112109522Y-43501968D01*
X112065605Y-43488873D01*
X112007844Y-43472651D01*
X111934193Y-43452636D01*
X111842608Y-43428159D01*
X111731042Y-43398554D01*
X111597451Y-43363153D01*
X111564675Y-43354460D01*
X111383700Y-43306450D01*
X111383700Y-41831929D01*
X111561499Y-41831929D01*
X111561500Y-42499999D01*
X111561500Y-43168070D01*
X111913925Y-43261482D01*
X112005772Y-43285915D01*
X112090589Y-43308649D01*
X112164985Y-43328760D01*
X112225570Y-43345326D01*
X112268954Y-43357426D01*
X112291745Y-43364136D01*
X112293335Y-43364677D01*
X112316302Y-43384864D01*
X112341180Y-43428619D01*
X112352390Y-43454756D01*
X112372988Y-43506056D01*
X112393517Y-43556751D01*
X112406395Y-43588232D01*
X112428330Y-43641414D01*
X112246864Y-43956532D01*
X112199551Y-44038639D01*
X112155873Y-44114335D01*
X112117578Y-44180600D01*
X112086413Y-44234413D01*
X112064126Y-44272756D01*
X112052463Y-44292606D01*
X112051673Y-44293909D01*
X112050596Y-44300905D01*
X112054918Y-44312029D01*
X112065963Y-44328706D01*
X112085051Y-44352365D01*
X112113506Y-44384432D01*
X112152651Y-44426336D01*
X112203807Y-44479502D01*
X112268298Y-44545359D01*
X112347446Y-44625334D01*
X112442574Y-44720854D01*
X112507684Y-44786034D01*
X112597876Y-44876098D01*
X112682690Y-44960496D01*
X112760427Y-45037560D01*
X112829393Y-45105622D01*
X112887892Y-45163015D01*
X112934227Y-45208072D01*
X112966702Y-45239125D01*
X112983621Y-45254508D01*
X112985646Y-45255900D01*
X112998297Y-45249778D01*
X113030144Y-45232451D01*
X113078424Y-45205479D01*
X113140373Y-45170420D01*
X113213226Y-45128833D01*
X113294221Y-45082277D01*
X113325543Y-45064194D01*
X113420445Y-45009496D01*
X113495998Y-44966444D01*
X113554740Y-44933802D01*
X113599210Y-44910331D01*
X113631946Y-44894791D01*
X113655487Y-44885946D01*
X113672374Y-44882557D01*
X113685143Y-44883385D01*
X113692031Y-44885445D01*
X113719837Y-44896351D01*
X113762997Y-44913898D01*
X113813482Y-44934810D01*
X113828450Y-44941080D01*
X113930050Y-44983759D01*
X114030842Y-45361129D01*
X114131634Y-45738500D01*
X115468365Y-45738500D01*
X115569157Y-45361036D01*
X115669950Y-44983572D01*
X115806107Y-44927937D01*
X115942265Y-44872301D01*
X116269179Y-45060925D01*
X116352179Y-45108679D01*
X116428303Y-45152215D01*
X116494707Y-45189928D01*
X116548547Y-45220214D01*
X116586981Y-45241466D01*
X116607166Y-45252079D01*
X116609271Y-45252957D01*
X116620518Y-45244884D01*
X116647934Y-45220431D01*
X116689807Y-45181254D01*
X116744421Y-45129009D01*
X116810064Y-45065351D01*
X116885021Y-44991938D01*
X116967579Y-44910425D01*
X117056022Y-44822469D01*
X117092251Y-44786266D01*
X117197572Y-44680725D01*
X117286125Y-44591586D01*
X117359233Y-44517422D01*
X117418216Y-44456806D01*
X117464397Y-44408311D01*
X117499098Y-44370509D01*
X117523641Y-44341973D01*
X117539349Y-44321276D01*
X117547543Y-44306991D01*
X117549546Y-44297689D01*
X117548326Y-44293909D01*
X117538609Y-44277442D01*
X117517977Y-44241982D01*
X117488179Y-44190553D01*
X117450966Y-44126180D01*
X117408087Y-44051885D01*
X117361292Y-43970694D01*
X117353539Y-43957233D01*
X117300601Y-43865015D01*
X117259261Y-43792073D01*
X117228258Y-43735782D01*
X117206326Y-43693517D01*
X117192203Y-43662651D01*
X117184624Y-43640559D01*
X117182326Y-43624616D01*
X117184045Y-43612195D01*
X117185440Y-43607983D01*
X117196354Y-43580175D01*
X117213921Y-43537016D01*
X117234863Y-43486535D01*
X117241150Y-43471550D01*
X117283899Y-43369950D01*
X117661199Y-43269109D01*
X118038500Y-43168268D01*
X118038500Y-41831731D01*
X117661199Y-41730890D01*
X117283899Y-41630050D01*
X117241150Y-41528450D01*
X117219842Y-41477344D01*
X117200949Y-41431213D01*
X117187750Y-41398086D01*
X117185440Y-41392016D01*
X117182559Y-41380232D01*
X117183230Y-41365892D01*
X117188715Y-41346372D01*
X117200279Y-41319046D01*
X117219186Y-41281287D01*
X117246699Y-41230471D01*
X117284082Y-41163972D01*
X117332598Y-41079164D01*
X117353539Y-41042766D01*
X117400800Y-40960750D01*
X117444425Y-40885146D01*
X117482665Y-40818977D01*
X117513769Y-40765269D01*
X117535989Y-40727044D01*
X117547575Y-40707328D01*
X117548326Y-40706090D01*
X117549403Y-40699094D01*
X117545080Y-40687969D01*
X117534038Y-40671288D01*
X117514952Y-40647625D01*
X117486502Y-40615552D01*
X117447364Y-40573641D01*
X117396218Y-40520466D01*
X117331741Y-40454599D01*
X117252610Y-40374612D01*
X117157504Y-40279080D01*
X117092251Y-40213733D01*
X117001952Y-40123685D01*
X116916862Y-40039425D01*
X116838694Y-39962611D01*
X116769162Y-39894897D01*
X116709980Y-39837939D01*
X116662863Y-39793395D01*
X116629524Y-39762920D01*
X116611677Y-39748171D01*
X116609271Y-39747042D01*
X116595312Y-39754036D01*
X116562224Y-39772166D01*
X116512848Y-39799827D01*
X116450030Y-39835413D01*
X116376611Y-39877318D01*
X116295436Y-39923937D01*
X116269179Y-39939074D01*
X115942265Y-40127698D01*
X115806107Y-40072062D01*
X115669950Y-40016427D01*
X115569157Y-39638963D01*
X115468365Y-39261500D01*
X114799999Y-39261500D01*
X114131634Y-39261499D01*
X114030842Y-39638870D01*
X113930050Y-40016240D01*
X113828450Y-40058919D01*
X113777340Y-40080196D01*
X113731211Y-40099065D01*
X113698091Y-40112248D01*
X113692031Y-40114554D01*
X113680531Y-40117356D01*
X113666470Y-40116699D01*
X113647311Y-40111347D01*
X113620514Y-40100059D01*
X113583541Y-40081599D01*
X113533852Y-40054727D01*
X113468909Y-40018206D01*
X113386173Y-39970796D01*
X113325543Y-39935805D01*
X113242247Y-39887812D01*
X113166075Y-39844214D01*
X113099790Y-39806570D01*
X113046156Y-39776439D01*
X113007937Y-39755380D01*
X112987897Y-39744952D01*
X112985646Y-39744100D01*
X112975351Y-39752821D01*
X112948829Y-39777872D01*
X112907775Y-39817587D01*
X112853887Y-39870298D01*
X112788861Y-39934338D01*
X112714391Y-40008039D01*
X112632175Y-40089734D01*
X112543908Y-40177755D01*
X112507684Y-40213965D01*
X112402362Y-40319469D01*
X112313811Y-40408574D01*
X112240709Y-40482707D01*
X112181733Y-40543296D01*
X112135559Y-40591767D01*
X112100867Y-40629548D01*
X112076333Y-40658067D01*
X112060634Y-40678750D01*
X112052449Y-40693025D01*
X112050454Y-40702319D01*
X112051673Y-40706090D01*
X112061386Y-40722551D01*
X112082017Y-40758008D01*
X112111818Y-40809443D01*
X112149041Y-40873835D01*
X112191940Y-40948163D01*
X112238767Y-41029407D01*
X112246864Y-41043467D01*
X112428330Y-41358585D01*
X112406395Y-41411767D01*
X112389637Y-41452795D01*
X112368678Y-41504640D01*
X112352390Y-41545243D01*
X112327017Y-41598792D01*
X112303080Y-41629495D01*
X112293335Y-41635322D01*
X112274403Y-41641019D01*
X112234300Y-41652262D01*
X112176415Y-41668130D01*
X112104140Y-41687701D01*
X112020864Y-41710051D01*
X111929978Y-41734260D01*
X111913925Y-41738517D01*
X111561499Y-41831929D01*
X111383700Y-41831929D01*
X111383700Y-41693550D01*
X111564675Y-41645539D01*
X111703422Y-41608763D01*
X111819690Y-41577932D01*
X111915525Y-41552377D01*
X111992971Y-41531431D01*
X112054076Y-41514427D01*
X112100883Y-41500696D01*
X112135438Y-41489571D01*
X112159787Y-41480385D01*
X112175976Y-41472470D01*
X112186049Y-41465158D01*
X112192053Y-41457781D01*
X112196032Y-41449672D01*
X112200032Y-41440164D01*
X112201125Y-41437801D01*
X112214830Y-41404653D01*
X112221710Y-41379372D01*
X112221900Y-41376597D01*
X112215745Y-41361651D01*
X112198295Y-41327539D01*
X112171072Y-41277025D01*
X112135595Y-41212872D01*
X112093387Y-41137844D01*
X112045967Y-41054704D01*
X112018046Y-41006224D01*
X111814192Y-40653492D01*
X112953781Y-39513903D01*
X113306762Y-39717901D01*
X113393215Y-39767564D01*
X113473064Y-39812859D01*
X113543552Y-39852266D01*
X113601921Y-39884265D01*
X113645410Y-39907337D01*
X113671262Y-39919960D01*
X113676991Y-39921900D01*
X113699279Y-39916714D01*
X113731700Y-39903966D01*
X113737420Y-39901307D01*
X113780602Y-39880715D01*
X113993550Y-39083767D01*
X115606450Y-39083787D01*
D11*
G36*
X105327410Y-74217767D02*
G01*
X105445884Y-74266841D01*
X105552508Y-74338085D01*
X105643185Y-74428762D01*
X105714429Y-74535386D01*
X105763503Y-74653860D01*
X105788520Y-74779632D01*
X105788520Y-74907868D01*
X105763503Y-75033640D01*
X105714429Y-75152114D01*
X105643185Y-75258738D01*
X105552508Y-75349415D01*
X105445884Y-75420659D01*
X105445883Y-75420660D01*
X105445882Y-75420660D01*
X105327410Y-75469733D01*
X105201639Y-75494750D01*
X105073401Y-75494750D01*
X104947630Y-75469733D01*
X104829158Y-75420660D01*
X104829157Y-75420660D01*
X104829156Y-75420659D01*
X104722532Y-75349415D01*
X104631855Y-75258738D01*
X104560611Y-75152114D01*
X104511537Y-75033640D01*
X104486520Y-74907868D01*
X104486520Y-74779632D01*
X104511537Y-74653860D01*
X104560611Y-74535386D01*
X104631855Y-74428762D01*
X104722532Y-74338085D01*
X104829156Y-74266841D01*
X104947630Y-74217767D01*
X105073401Y-74192750D01*
X105201639Y-74192750D01*
X105327410Y-74217767D01*
G37*
G36*
X94982390Y-74217767D02*
G01*
X95100864Y-74266841D01*
X95207488Y-74338085D01*
X95298165Y-74428762D01*
X95369409Y-74535386D01*
X95418483Y-74653860D01*
X95443500Y-74779632D01*
X95443500Y-74907868D01*
X95418483Y-75033640D01*
X95369409Y-75152114D01*
X95298165Y-75258738D01*
X95207488Y-75349415D01*
X95100864Y-75420659D01*
X95100863Y-75420660D01*
X95100862Y-75420660D01*
X94982390Y-75469733D01*
X94856619Y-75494750D01*
X94728381Y-75494750D01*
X94602610Y-75469733D01*
X94484138Y-75420660D01*
X94484137Y-75420660D01*
X94484136Y-75420659D01*
X94377512Y-75349415D01*
X94286835Y-75258738D01*
X94215591Y-75152114D01*
X94166517Y-75033640D01*
X94141500Y-74907868D01*
X94141500Y-74779632D01*
X94166517Y-74653860D01*
X94215591Y-74535386D01*
X94286835Y-74428762D01*
X94377512Y-74338085D01*
X94484136Y-74266841D01*
X94602610Y-74217767D01*
X94728381Y-74192750D01*
X94856619Y-74192750D01*
X94982390Y-74217767D01*
G37*
G36*
X55294890Y-74217767D02*
G01*
X55413364Y-74266841D01*
X55519988Y-74338085D01*
X55610665Y-74428762D01*
X55681909Y-74535386D01*
X55730983Y-74653860D01*
X55756000Y-74779632D01*
X55756000Y-74907868D01*
X55730983Y-75033640D01*
X55681909Y-75152114D01*
X55610665Y-75258738D01*
X55519988Y-75349415D01*
X55413364Y-75420659D01*
X55413363Y-75420660D01*
X55413362Y-75420660D01*
X55294890Y-75469733D01*
X55169119Y-75494750D01*
X55040881Y-75494750D01*
X54915110Y-75469733D01*
X54796638Y-75420660D01*
X54796637Y-75420660D01*
X54796636Y-75420659D01*
X54690012Y-75349415D01*
X54599335Y-75258738D01*
X54528091Y-75152114D01*
X54479017Y-75033640D01*
X54454000Y-74907868D01*
X54454000Y-74779632D01*
X54479017Y-74653860D01*
X54528091Y-74535386D01*
X54599335Y-74428762D01*
X54690012Y-74338085D01*
X54796636Y-74266841D01*
X54915110Y-74217767D01*
X55040881Y-74192750D01*
X55169119Y-74192750D01*
X55294890Y-74217767D01*
G37*
G36*
X65639910Y-74217767D02*
G01*
X65758384Y-74266841D01*
X65865008Y-74338085D01*
X65955685Y-74428762D01*
X66026929Y-74535386D01*
X66076003Y-74653860D01*
X66101020Y-74779632D01*
X66101020Y-74907868D01*
X66076003Y-75033640D01*
X66026929Y-75152114D01*
X65955685Y-75258738D01*
X65865008Y-75349415D01*
X65758384Y-75420659D01*
X65758383Y-75420660D01*
X65758382Y-75420660D01*
X65639910Y-75469733D01*
X65514139Y-75494750D01*
X65385901Y-75494750D01*
X65260130Y-75469733D01*
X65141658Y-75420660D01*
X65141657Y-75420660D01*
X65141656Y-75420659D01*
X65035032Y-75349415D01*
X64944355Y-75258738D01*
X64873111Y-75152114D01*
X64824037Y-75033640D01*
X64799020Y-74907868D01*
X64799020Y-74779632D01*
X64824037Y-74653860D01*
X64873111Y-74535386D01*
X64944355Y-74428762D01*
X65035032Y-74338085D01*
X65141656Y-74266841D01*
X65260130Y-74217767D01*
X65385901Y-74192750D01*
X65514139Y-74192750D01*
X65639910Y-74217767D01*
G37*
G36*
X85483660Y-74217767D02*
G01*
X85602134Y-74266841D01*
X85708758Y-74338085D01*
X85799435Y-74428762D01*
X85870679Y-74535386D01*
X85919753Y-74653860D01*
X85944770Y-74779632D01*
X85944770Y-74907868D01*
X85919753Y-75033640D01*
X85870679Y-75152114D01*
X85799435Y-75258738D01*
X85708758Y-75349415D01*
X85602134Y-75420659D01*
X85602133Y-75420660D01*
X85602132Y-75420660D01*
X85483660Y-75469733D01*
X85357889Y-75494750D01*
X85229651Y-75494750D01*
X85103880Y-75469733D01*
X84985408Y-75420660D01*
X84985407Y-75420660D01*
X84985406Y-75420659D01*
X84878782Y-75349415D01*
X84788105Y-75258738D01*
X84716861Y-75152114D01*
X84667787Y-75033640D01*
X84642770Y-74907868D01*
X84642770Y-74779632D01*
X84667787Y-74653860D01*
X84716861Y-74535386D01*
X84788105Y-74428762D01*
X84878782Y-74338085D01*
X84985406Y-74266841D01*
X85103880Y-74217767D01*
X85229651Y-74192750D01*
X85357889Y-74192750D01*
X85483660Y-74217767D01*
G37*
G36*
X75138640Y-74217767D02*
G01*
X75257114Y-74266841D01*
X75363738Y-74338085D01*
X75454415Y-74428762D01*
X75525659Y-74535386D01*
X75574733Y-74653860D01*
X75599750Y-74779632D01*
X75599750Y-74907868D01*
X75574733Y-75033640D01*
X75525659Y-75152114D01*
X75454415Y-75258738D01*
X75363738Y-75349415D01*
X75257114Y-75420659D01*
X75257113Y-75420660D01*
X75257112Y-75420660D01*
X75138640Y-75469733D01*
X75012869Y-75494750D01*
X74884631Y-75494750D01*
X74758860Y-75469733D01*
X74640388Y-75420660D01*
X74640387Y-75420660D01*
X74640386Y-75420659D01*
X74533762Y-75349415D01*
X74443085Y-75258738D01*
X74371841Y-75152114D01*
X74322767Y-75033640D01*
X74297750Y-74907868D01*
X74297750Y-74779632D01*
X74322767Y-74653860D01*
X74371841Y-74535386D01*
X74443085Y-74428762D01*
X74533762Y-74338085D01*
X74640386Y-74266841D01*
X74758860Y-74217767D01*
X74884631Y-74192750D01*
X75012869Y-74192750D01*
X75138640Y-74217767D01*
G37*
G36*
X60921474Y-68677434D02*
G01*
X61058707Y-68734278D01*
X61293623Y-68831583D01*
X61628548Y-69055373D01*
X61913377Y-69340202D01*
X62137167Y-69675127D01*
X62171816Y-69758777D01*
X62291316Y-70047276D01*
X62369900Y-70442344D01*
X62369900Y-70845156D01*
X62291316Y-71240224D01*
X62216321Y-71421277D01*
X62137167Y-71612373D01*
X61913377Y-71947298D01*
X61628548Y-72232127D01*
X61293623Y-72455917D01*
X61139474Y-72519767D01*
X60921474Y-72610066D01*
X60526406Y-72688650D01*
X60123594Y-72688650D01*
X59728526Y-72610066D01*
X59510526Y-72519767D01*
X59356377Y-72455917D01*
X59021452Y-72232127D01*
X58736623Y-71947298D01*
X58512833Y-71612373D01*
X58433679Y-71421277D01*
X58358684Y-71240224D01*
X58280100Y-70845156D01*
X58280100Y-70442344D01*
X58358684Y-70047276D01*
X58478184Y-69758777D01*
X58512833Y-69675127D01*
X58736623Y-69340202D01*
X59021452Y-69055373D01*
X59356377Y-68831583D01*
X59591293Y-68734278D01*
X59728526Y-68677434D01*
X60123594Y-68598850D01*
X60526406Y-68598850D01*
X60921474Y-68677434D01*
G37*
G36*
X80765224Y-68677434D02*
G01*
X80902457Y-68734278D01*
X81137373Y-68831583D01*
X81472298Y-69055373D01*
X81757127Y-69340202D01*
X81980917Y-69675127D01*
X82015566Y-69758777D01*
X82135066Y-70047276D01*
X82213650Y-70442344D01*
X82213650Y-70845156D01*
X82135066Y-71240224D01*
X82060071Y-71421277D01*
X81980917Y-71612373D01*
X81757127Y-71947298D01*
X81472298Y-72232127D01*
X81137373Y-72455917D01*
X80983224Y-72519767D01*
X80765224Y-72610066D01*
X80370156Y-72688650D01*
X79967344Y-72688650D01*
X79572276Y-72610066D01*
X79354276Y-72519767D01*
X79200127Y-72455917D01*
X78865202Y-72232127D01*
X78580373Y-71947298D01*
X78356583Y-71612373D01*
X78277429Y-71421277D01*
X78202434Y-71240224D01*
X78123850Y-70845156D01*
X78123850Y-70442344D01*
X78202434Y-70047276D01*
X78321934Y-69758777D01*
X78356583Y-69675127D01*
X78580373Y-69340202D01*
X78865202Y-69055373D01*
X79200127Y-68831583D01*
X79435043Y-68734278D01*
X79572276Y-68677434D01*
X79967344Y-68598850D01*
X80370156Y-68598850D01*
X80765224Y-68677434D01*
G37*
G36*
X100608974Y-68677434D02*
G01*
X100746207Y-68734278D01*
X100981123Y-68831583D01*
X101316048Y-69055373D01*
X101600877Y-69340202D01*
X101824667Y-69675127D01*
X101859316Y-69758777D01*
X101978816Y-70047276D01*
X102057400Y-70442344D01*
X102057400Y-70845156D01*
X101978816Y-71240224D01*
X101903821Y-71421277D01*
X101824667Y-71612373D01*
X101600877Y-71947298D01*
X101316048Y-72232127D01*
X100981123Y-72455917D01*
X100826974Y-72519767D01*
X100608974Y-72610066D01*
X100213906Y-72688650D01*
X99811094Y-72688650D01*
X99416026Y-72610066D01*
X99198026Y-72519767D01*
X99043877Y-72455917D01*
X98708952Y-72232127D01*
X98424123Y-71947298D01*
X98200333Y-71612373D01*
X98121179Y-71421277D01*
X98046184Y-71240224D01*
X97967600Y-70845156D01*
X97967600Y-70442344D01*
X98046184Y-70047276D01*
X98165684Y-69758777D01*
X98200333Y-69675127D01*
X98424123Y-69340202D01*
X98708952Y-69055373D01*
X99043877Y-68831583D01*
X99278793Y-68734278D01*
X99416026Y-68677434D01*
X99811094Y-68598850D01*
X100213906Y-68598850D01*
X100608974Y-68677434D01*
G37*
G36*
X74960731Y-69681218D02*
G01*
X75142901Y-69756676D01*
X75306850Y-69866223D01*
X75446277Y-70005650D01*
X75555824Y-70169599D01*
X75555825Y-70169601D01*
X75631282Y-70351769D01*
X75644951Y-70420490D01*
X75652064Y-70443936D01*
X75662712Y-70469642D01*
X75685650Y-70584959D01*
X75685650Y-70702541D01*
X75662712Y-70817858D01*
X75652064Y-70843564D01*
X75644951Y-70867010D01*
X75631282Y-70935730D01*
X75631282Y-70935731D01*
X75594616Y-71024251D01*
X75555824Y-71117901D01*
X75446277Y-71281850D01*
X75306850Y-71421277D01*
X75142901Y-71530824D01*
X74960731Y-71606282D01*
X74767341Y-71644750D01*
X74570159Y-71644750D01*
X74376769Y-71606282D01*
X74194599Y-71530824D01*
X74030650Y-71421277D01*
X73891223Y-71281850D01*
X73781676Y-71117901D01*
X73706218Y-70935731D01*
X73682772Y-70817859D01*
X73667750Y-70742341D01*
X73667750Y-70545159D01*
X73688201Y-70442344D01*
X73706218Y-70351769D01*
X73781676Y-70169599D01*
X73891223Y-70005650D01*
X74030650Y-69866223D01*
X74194599Y-69756676D01*
X74376769Y-69681218D01*
X74570159Y-69642750D01*
X74767341Y-69642750D01*
X74960731Y-69681218D01*
G37*
G36*
X85960731Y-69681218D02*
G01*
X86142901Y-69756676D01*
X86306850Y-69866223D01*
X86446277Y-70005650D01*
X86555824Y-70169599D01*
X86631282Y-70351769D01*
X86649299Y-70442344D01*
X86669750Y-70545159D01*
X86669750Y-70742341D01*
X86654728Y-70817859D01*
X86631282Y-70935731D01*
X86555824Y-71117901D01*
X86446277Y-71281850D01*
X86306850Y-71421277D01*
X86142901Y-71530824D01*
X85960731Y-71606282D01*
X85767341Y-71644750D01*
X85570159Y-71644750D01*
X85376769Y-71606282D01*
X85194599Y-71530824D01*
X85030650Y-71421277D01*
X84891223Y-71281850D01*
X84781676Y-71117901D01*
X84742885Y-71024251D01*
X84706218Y-70935731D01*
X84706218Y-70935730D01*
X84692549Y-70867010D01*
X84685436Y-70843564D01*
X84674788Y-70817858D01*
X84651850Y-70702541D01*
X84651850Y-70584959D01*
X84674788Y-70469642D01*
X84685436Y-70443936D01*
X84692549Y-70420490D01*
X84706218Y-70351769D01*
X84781675Y-70169601D01*
X84781676Y-70169599D01*
X84891223Y-70005650D01*
X85030650Y-69866223D01*
X85194599Y-69756676D01*
X85376769Y-69681218D01*
X85570159Y-69642750D01*
X85767341Y-69642750D01*
X85960731Y-69681218D01*
G37*
G36*
X94804481Y-69681218D02*
G01*
X94986651Y-69756676D01*
X95150600Y-69866223D01*
X95290027Y-70005650D01*
X95399574Y-70169599D01*
X95399575Y-70169601D01*
X95475032Y-70351769D01*
X95488701Y-70420490D01*
X95495814Y-70443936D01*
X95506462Y-70469642D01*
X95529400Y-70584959D01*
X95529400Y-70702541D01*
X95506462Y-70817858D01*
X95495814Y-70843564D01*
X95488701Y-70867010D01*
X95475032Y-70935730D01*
X95475032Y-70935731D01*
X95438366Y-71024251D01*
X95399574Y-71117901D01*
X95290027Y-71281850D01*
X95150600Y-71421277D01*
X94986651Y-71530824D01*
X94804481Y-71606282D01*
X94611091Y-71644750D01*
X94413909Y-71644750D01*
X94220519Y-71606282D01*
X94038349Y-71530824D01*
X93874400Y-71421277D01*
X93734973Y-71281850D01*
X93625426Y-71117901D01*
X93549968Y-70935731D01*
X93526522Y-70817859D01*
X93511500Y-70742341D01*
X93511500Y-70545159D01*
X93531951Y-70442344D01*
X93549968Y-70351769D01*
X93625426Y-70169599D01*
X93734973Y-70005650D01*
X93874400Y-69866223D01*
X94038349Y-69756676D01*
X94220519Y-69681218D01*
X94413909Y-69642750D01*
X94611091Y-69642750D01*
X94804481Y-69681218D01*
G37*
G36*
X55116981Y-69681218D02*
G01*
X55299151Y-69756676D01*
X55463100Y-69866223D01*
X55602527Y-70005650D01*
X55712074Y-70169599D01*
X55712075Y-70169601D01*
X55787532Y-70351769D01*
X55801201Y-70420490D01*
X55808314Y-70443936D01*
X55818962Y-70469642D01*
X55841900Y-70584959D01*
X55841900Y-70702541D01*
X55818962Y-70817858D01*
X55808314Y-70843564D01*
X55801201Y-70867010D01*
X55787532Y-70935730D01*
X55787532Y-70935731D01*
X55750866Y-71024251D01*
X55712074Y-71117901D01*
X55602527Y-71281850D01*
X55463100Y-71421277D01*
X55299151Y-71530824D01*
X55116981Y-71606282D01*
X54923591Y-71644750D01*
X54726409Y-71644750D01*
X54533019Y-71606282D01*
X54350849Y-71530824D01*
X54186900Y-71421277D01*
X54047473Y-71281850D01*
X53937926Y-71117901D01*
X53862468Y-70935731D01*
X53839022Y-70817859D01*
X53824000Y-70742341D01*
X53824000Y-70545159D01*
X53844451Y-70442344D01*
X53862468Y-70351769D01*
X53937926Y-70169599D01*
X54047473Y-70005650D01*
X54186900Y-69866223D01*
X54350849Y-69756676D01*
X54533019Y-69681218D01*
X54726409Y-69642750D01*
X54923591Y-69642750D01*
X55116981Y-69681218D01*
G37*
G36*
X105804481Y-69681218D02*
G01*
X105986651Y-69756676D01*
X106150600Y-69866223D01*
X106290027Y-70005650D01*
X106399574Y-70169599D01*
X106475032Y-70351769D01*
X106493049Y-70442344D01*
X106513500Y-70545159D01*
X106513500Y-70742341D01*
X106498478Y-70817859D01*
X106475032Y-70935731D01*
X106399574Y-71117901D01*
X106290027Y-71281850D01*
X106150600Y-71421277D01*
X105986651Y-71530824D01*
X105804481Y-71606282D01*
X105611091Y-71644750D01*
X105413909Y-71644750D01*
X105220519Y-71606282D01*
X105038349Y-71530824D01*
X104874400Y-71421277D01*
X104734973Y-71281850D01*
X104625426Y-71117901D01*
X104586635Y-71024251D01*
X104549968Y-70935731D01*
X104549968Y-70935730D01*
X104536299Y-70867010D01*
X104529186Y-70843564D01*
X104518538Y-70817858D01*
X104495600Y-70702541D01*
X104495600Y-70584959D01*
X104518538Y-70469642D01*
X104529186Y-70443936D01*
X104536299Y-70420490D01*
X104549968Y-70351769D01*
X104625425Y-70169601D01*
X104625426Y-70169599D01*
X104734973Y-70005650D01*
X104874400Y-69866223D01*
X105038349Y-69756676D01*
X105220519Y-69681218D01*
X105413909Y-69642750D01*
X105611091Y-69642750D01*
X105804481Y-69681218D01*
G37*
G36*
X66116981Y-69681218D02*
G01*
X66299151Y-69756676D01*
X66463100Y-69866223D01*
X66602527Y-70005650D01*
X66712074Y-70169599D01*
X66787532Y-70351769D01*
X66805549Y-70442344D01*
X66826000Y-70545159D01*
X66826000Y-70742341D01*
X66810978Y-70817859D01*
X66787532Y-70935731D01*
X66712074Y-71117901D01*
X66602527Y-71281850D01*
X66463100Y-71421277D01*
X66299151Y-71530824D01*
X66116981Y-71606282D01*
X65923591Y-71644750D01*
X65726409Y-71644750D01*
X65533019Y-71606282D01*
X65350849Y-71530824D01*
X65186900Y-71421277D01*
X65047473Y-71281850D01*
X64937926Y-71117901D01*
X64899135Y-71024251D01*
X64862468Y-70935731D01*
X64862468Y-70935730D01*
X64848799Y-70867010D01*
X64841686Y-70843564D01*
X64831038Y-70817858D01*
X64808100Y-70702541D01*
X64808100Y-70584959D01*
X64831038Y-70469642D01*
X64841686Y-70443936D01*
X64848799Y-70420490D01*
X64862468Y-70351769D01*
X64937925Y-70169601D01*
X64937926Y-70169599D01*
X65047473Y-70005650D01*
X65186900Y-69866223D01*
X65350849Y-69756676D01*
X65533019Y-69681218D01*
X65726409Y-69642750D01*
X65923591Y-69642750D01*
X66116981Y-69681218D01*
G37*
G36*
X127934468Y-68353565D02*
G01*
X127973138Y-68365296D01*
X128008777Y-68384346D01*
X128040017Y-68409983D01*
X128065654Y-68441223D01*
X128084704Y-68476862D01*
X128096435Y-68515532D01*
X128101000Y-68561888D01*
X128101000Y-69638112D01*
X128096435Y-69684468D01*
X128084704Y-69723138D01*
X128065654Y-69758777D01*
X128040017Y-69790017D01*
X128008777Y-69815654D01*
X127973138Y-69834704D01*
X127934468Y-69846435D01*
X127888112Y-69851000D01*
X127236888Y-69851000D01*
X127190532Y-69846435D01*
X127151862Y-69834704D01*
X127116223Y-69815654D01*
X127084983Y-69790017D01*
X127059346Y-69758777D01*
X127040296Y-69723138D01*
X127028565Y-69684468D01*
X127024000Y-69638112D01*
X127024000Y-68561888D01*
X127028565Y-68515532D01*
X127040296Y-68476862D01*
X127059346Y-68441223D01*
X127084983Y-68409983D01*
X127116223Y-68384346D01*
X127151862Y-68365296D01*
X127190532Y-68353565D01*
X127236888Y-68349000D01*
X127888112Y-68349000D01*
X127934468Y-68353565D01*
G37*
G36*
X129809468Y-68353565D02*
G01*
X129848138Y-68365296D01*
X129883777Y-68384346D01*
X129915017Y-68409983D01*
X129940654Y-68441223D01*
X129959704Y-68476862D01*
X129971435Y-68515532D01*
X129976000Y-68561888D01*
X129976000Y-69638112D01*
X129971435Y-69684468D01*
X129959704Y-69723138D01*
X129940654Y-69758777D01*
X129915017Y-69790017D01*
X129883777Y-69815654D01*
X129848138Y-69834704D01*
X129809468Y-69846435D01*
X129763112Y-69851000D01*
X129111888Y-69851000D01*
X129065532Y-69846435D01*
X129026862Y-69834704D01*
X128991223Y-69815654D01*
X128959983Y-69790017D01*
X128934346Y-69758777D01*
X128915296Y-69723138D01*
X128903565Y-69684468D01*
X128899000Y-69638112D01*
X128899000Y-68561888D01*
X128903565Y-68515532D01*
X128915296Y-68476862D01*
X128934346Y-68441223D01*
X128959983Y-68409983D01*
X128991223Y-68384346D01*
X129026862Y-68365296D01*
X129065532Y-68353565D01*
X129111888Y-68349000D01*
X129763112Y-68349000D01*
X129809468Y-68353565D01*
G37*
G36*
X117834468Y-68353565D02*
G01*
X117873138Y-68365296D01*
X117908777Y-68384346D01*
X117940017Y-68409983D01*
X117965654Y-68441223D01*
X117984704Y-68476862D01*
X117996435Y-68515532D01*
X118001000Y-68561888D01*
X118001000Y-69638112D01*
X117996435Y-69684468D01*
X117984704Y-69723138D01*
X117965654Y-69758777D01*
X117940017Y-69790017D01*
X117908777Y-69815654D01*
X117873138Y-69834704D01*
X117834468Y-69846435D01*
X117788112Y-69851000D01*
X117136888Y-69851000D01*
X117090532Y-69846435D01*
X117051862Y-69834704D01*
X117016223Y-69815654D01*
X116984983Y-69790017D01*
X116959346Y-69758777D01*
X116940296Y-69723138D01*
X116928565Y-69684468D01*
X116924000Y-69638112D01*
X116924000Y-68561888D01*
X116928565Y-68515532D01*
X116940296Y-68476862D01*
X116959346Y-68441223D01*
X116984983Y-68409983D01*
X117016223Y-68384346D01*
X117051862Y-68365296D01*
X117090532Y-68353565D01*
X117136888Y-68349000D01*
X117788112Y-68349000D01*
X117834468Y-68353565D01*
G37*
G36*
X119709468Y-68353565D02*
G01*
X119748138Y-68365296D01*
X119783777Y-68384346D01*
X119815017Y-68409983D01*
X119840654Y-68441223D01*
X119859704Y-68476862D01*
X119871435Y-68515532D01*
X119876000Y-68561888D01*
X119876000Y-69638112D01*
X119871435Y-69684468D01*
X119859704Y-69723138D01*
X119840654Y-69758777D01*
X119815017Y-69790017D01*
X119783777Y-69815654D01*
X119748138Y-69834704D01*
X119709468Y-69846435D01*
X119663112Y-69851000D01*
X119011888Y-69851000D01*
X118965532Y-69846435D01*
X118926862Y-69834704D01*
X118891223Y-69815654D01*
X118859983Y-69790017D01*
X118834346Y-69758777D01*
X118815296Y-69723138D01*
X118803565Y-69684468D01*
X118799000Y-69638112D01*
X118799000Y-68561888D01*
X118803565Y-68515532D01*
X118815296Y-68476862D01*
X118834346Y-68441223D01*
X118859983Y-68409983D01*
X118891223Y-68384346D01*
X118926862Y-68365296D01*
X118965532Y-68353565D01*
X119011888Y-68349000D01*
X119663112Y-68349000D01*
X119709468Y-68353565D01*
G37*
G36*
X100391987Y-63492746D02*
G01*
X100628753Y-63590818D01*
X100628755Y-63590819D01*
X100796438Y-63702861D01*
X100841839Y-63733197D01*
X101023053Y-63914411D01*
X101165432Y-64127497D01*
X101263504Y-64364263D01*
X101313500Y-64615611D01*
X101313500Y-64868111D01*
X101315902Y-64892497D01*
X101323015Y-64915946D01*
X101334566Y-64937557D01*
X101350111Y-64956499D01*
X101369053Y-64972044D01*
X101390664Y-64983595D01*
X101414113Y-64990708D01*
X101438499Y-64993110D01*
X101462885Y-64990708D01*
X101486334Y-64983595D01*
X101507945Y-64972044D01*
X101535121Y-64947414D01*
X101679156Y-64771906D01*
X101862032Y-64621823D01*
X102070673Y-64510302D01*
X102297063Y-64441628D01*
X102532500Y-64418439D01*
X102767936Y-64441628D01*
X102994326Y-64510302D01*
X103202967Y-64621823D01*
X103385844Y-64771906D01*
X103535927Y-64954782D01*
X103647448Y-65163423D01*
X103716122Y-65389813D01*
X103733500Y-65566251D01*
X103733500Y-66295408D01*
X103735902Y-66319794D01*
X103743015Y-66343243D01*
X103754566Y-66364854D01*
X103770111Y-66383796D01*
X103789053Y-66399341D01*
X103810664Y-66410892D01*
X103834113Y-66418005D01*
X103858499Y-66420407D01*
X103882885Y-66418005D01*
X103906334Y-66410892D01*
X103927945Y-66399341D01*
X103946887Y-66383796D01*
X103962432Y-66364854D01*
X103973983Y-66343243D01*
X103992496Y-66298549D01*
X103992497Y-66298547D01*
X104118460Y-66110030D01*
X104278780Y-65949710D01*
X104467297Y-65823747D01*
X104676766Y-65736982D01*
X104802922Y-65711888D01*
X104899135Y-65692750D01*
X105125865Y-65692750D01*
X105222078Y-65711888D01*
X105348234Y-65736982D01*
X105557703Y-65823747D01*
X105746220Y-65949710D01*
X105906540Y-66110030D01*
X106032503Y-66298547D01*
X106119268Y-66508016D01*
X106123765Y-66530623D01*
X106158420Y-66704844D01*
X106163500Y-66730386D01*
X106163500Y-66957114D01*
X106119268Y-67179484D01*
X106032503Y-67388953D01*
X105906540Y-67577470D01*
X105746220Y-67737790D01*
X105557703Y-67863753D01*
X105557702Y-67863754D01*
X105557701Y-67863754D01*
X105499467Y-67887875D01*
X105348234Y-67950518D01*
X105263252Y-67967422D01*
X105117113Y-67996491D01*
X105093664Y-68003604D01*
X105072053Y-68015155D01*
X105053111Y-68030700D01*
X105037566Y-68049642D01*
X105026015Y-68071253D01*
X105018902Y-68094702D01*
X105016500Y-68119088D01*
X105016500Y-68221350D01*
X104970616Y-68452026D01*
X104880610Y-68669319D01*
X104880609Y-68669321D01*
X104749940Y-68864880D01*
X104583630Y-69031190D01*
X104388071Y-69161859D01*
X104388070Y-69161860D01*
X104388069Y-69161860D01*
X104170776Y-69251866D01*
X103940100Y-69297750D01*
X103704900Y-69297750D01*
X103474224Y-69251866D01*
X103256931Y-69161860D01*
X103256930Y-69161860D01*
X103256929Y-69161859D01*
X103061370Y-69031190D01*
X102895060Y-68864880D01*
X102764391Y-68669321D01*
X102764390Y-68669319D01*
X102674384Y-68452026D01*
X102628500Y-68221350D01*
X102628500Y-67991808D01*
X102626098Y-67967422D01*
X102618985Y-67943973D01*
X102607434Y-67922362D01*
X102591889Y-67903420D01*
X102572947Y-67887875D01*
X102551336Y-67876324D01*
X102515756Y-67867412D01*
X102297064Y-67845872D01*
X102070674Y-67777198D01*
X101862033Y-67665677D01*
X101679157Y-67515594D01*
X101628251Y-67453565D01*
X101529073Y-67332717D01*
X101491900Y-67263171D01*
X101417552Y-67124077D01*
X101348878Y-66897687D01*
X101331500Y-66721249D01*
X101331500Y-65566252D01*
X101335124Y-65529458D01*
X101335124Y-65504954D01*
X101330343Y-65480920D01*
X101320966Y-65458282D01*
X101307352Y-65437907D01*
X101290024Y-65420581D01*
X101269650Y-65406967D01*
X101247011Y-65397590D01*
X101222978Y-65392810D01*
X101198474Y-65392810D01*
X101174440Y-65397591D01*
X101151802Y-65406968D01*
X101131427Y-65420582D01*
X101106794Y-65447762D01*
X101023055Y-65573087D01*
X100841839Y-65754303D01*
X100628755Y-65896681D01*
X100628754Y-65896682D01*
X100628753Y-65896682D01*
X100391987Y-65994754D01*
X100140639Y-66044750D01*
X99884361Y-66044750D01*
X99633013Y-65994754D01*
X99396247Y-65896682D01*
X99396246Y-65896682D01*
X99396245Y-65896681D01*
X99183161Y-65754303D01*
X99001945Y-65573087D01*
X98918206Y-65447762D01*
X98902661Y-65428820D01*
X98883719Y-65413274D01*
X98862108Y-65401723D01*
X98838659Y-65394610D01*
X98814273Y-65392208D01*
X98789887Y-65394610D01*
X98766438Y-65401723D01*
X98744828Y-65413274D01*
X98725886Y-65428819D01*
X98710340Y-65447761D01*
X98698789Y-65469372D01*
X98691676Y-65492821D01*
X98689876Y-65529457D01*
X98693500Y-65566251D01*
X98693500Y-66721249D01*
X98676122Y-66897687D01*
X98607448Y-67124077D01*
X98495927Y-67332718D01*
X98345844Y-67515594D01*
X98162968Y-67665677D01*
X97954327Y-67777198D01*
X97727937Y-67845872D01*
X97509242Y-67867412D01*
X97485214Y-67872191D01*
X97462575Y-67881569D01*
X97442200Y-67895183D01*
X97424873Y-67912510D01*
X97411260Y-67932884D01*
X97401882Y-67955523D01*
X97396500Y-67991808D01*
X97396500Y-68221350D01*
X97350616Y-68452026D01*
X97260610Y-68669319D01*
X97260609Y-68669321D01*
X97129940Y-68864880D01*
X96963630Y-69031190D01*
X96768071Y-69161859D01*
X96768070Y-69161860D01*
X96768069Y-69161860D01*
X96550776Y-69251866D01*
X96320100Y-69297750D01*
X96084900Y-69297750D01*
X95854224Y-69251866D01*
X95636931Y-69161860D01*
X95636930Y-69161860D01*
X95636929Y-69161859D01*
X95441370Y-69031190D01*
X95275060Y-68864880D01*
X95144391Y-68669321D01*
X95144390Y-68669319D01*
X95054384Y-68452026D01*
X95008500Y-68221350D01*
X95008500Y-68119749D01*
X95006098Y-68095363D01*
X94998985Y-68071914D01*
X94987434Y-68050303D01*
X94971889Y-68031361D01*
X94952947Y-68015816D01*
X94931336Y-68004265D01*
X94907887Y-67997152D01*
X94883501Y-67994750D01*
X94804155Y-67994750D01*
X94692971Y-67972634D01*
X94581786Y-67950518D01*
X94430553Y-67887875D01*
X94372319Y-67863754D01*
X94372318Y-67863754D01*
X94372317Y-67863753D01*
X94183800Y-67737790D01*
X94023480Y-67577470D01*
X93897517Y-67388953D01*
X93810752Y-67179484D01*
X93766520Y-66957114D01*
X93766520Y-66730386D01*
X93771601Y-66704844D01*
X93806255Y-66530623D01*
X93810752Y-66508016D01*
X93897517Y-66298547D01*
X94023480Y-66110030D01*
X94183800Y-65949710D01*
X94372317Y-65823747D01*
X94581786Y-65736982D01*
X94707942Y-65711888D01*
X94804155Y-65692750D01*
X95030885Y-65692750D01*
X95127098Y-65711888D01*
X95253254Y-65736982D01*
X95462723Y-65823747D01*
X95651240Y-65949710D01*
X95811560Y-66110030D01*
X95937523Y-66298547D01*
X96024288Y-66508016D01*
X96028785Y-66530623D01*
X96043904Y-66606633D01*
X96051017Y-66630082D01*
X96062568Y-66651693D01*
X96078113Y-66670635D01*
X96097055Y-66686180D01*
X96118666Y-66697731D01*
X96142115Y-66704844D01*
X96166501Y-66707246D01*
X96190887Y-66704844D01*
X96214336Y-66697731D01*
X96235947Y-66686180D01*
X96254889Y-66670635D01*
X96270434Y-66651693D01*
X96281985Y-66630082D01*
X96289098Y-66606633D01*
X96291500Y-66582247D01*
X96291500Y-65566252D01*
X96308878Y-65389814D01*
X96377552Y-65163424D01*
X96489073Y-64954783D01*
X96639156Y-64771906D01*
X96822032Y-64621823D01*
X97030673Y-64510302D01*
X97257063Y-64441628D01*
X97492500Y-64418439D01*
X97727936Y-64441628D01*
X97954326Y-64510302D01*
X98162967Y-64621823D01*
X98345844Y-64771906D01*
X98444811Y-64892497D01*
X98489876Y-64947409D01*
X98507203Y-64964736D01*
X98527577Y-64978349D01*
X98550216Y-64987727D01*
X98574249Y-64992507D01*
X98598753Y-64992507D01*
X98622787Y-64987726D01*
X98645425Y-64978349D01*
X98665800Y-64964735D01*
X98683127Y-64947408D01*
X98696740Y-64927034D01*
X98706118Y-64904395D01*
X98711500Y-64868110D01*
X98711500Y-64615611D01*
X98761496Y-64364263D01*
X98859568Y-64127497D01*
X99001947Y-63914411D01*
X99183161Y-63733197D01*
X99228562Y-63702861D01*
X99396245Y-63590819D01*
X99396247Y-63590818D01*
X99633013Y-63492746D01*
X99884361Y-63442750D01*
X100140639Y-63442750D01*
X100391987Y-63492746D01*
G37*
G36*
X80548237Y-63492746D02*
G01*
X80785003Y-63590818D01*
X80785005Y-63590819D01*
X80952688Y-63702861D01*
X80998089Y-63733197D01*
X81179303Y-63914411D01*
X81321682Y-64127497D01*
X81419754Y-64364263D01*
X81469750Y-64615611D01*
X81469750Y-64868111D01*
X81472152Y-64892497D01*
X81479265Y-64915946D01*
X81490816Y-64937557D01*
X81506361Y-64956499D01*
X81525303Y-64972044D01*
X81546914Y-64983595D01*
X81570363Y-64990708D01*
X81594749Y-64993110D01*
X81619135Y-64990708D01*
X81642584Y-64983595D01*
X81664195Y-64972044D01*
X81691371Y-64947414D01*
X81835406Y-64771906D01*
X82018282Y-64621823D01*
X82226923Y-64510302D01*
X82453313Y-64441628D01*
X82688750Y-64418439D01*
X82924186Y-64441628D01*
X83150576Y-64510302D01*
X83359217Y-64621823D01*
X83542094Y-64771906D01*
X83692177Y-64954782D01*
X83803698Y-65163423D01*
X83872372Y-65389813D01*
X83889750Y-65566251D01*
X83889750Y-66295408D01*
X83892152Y-66319794D01*
X83899265Y-66343243D01*
X83910816Y-66364854D01*
X83926361Y-66383796D01*
X83945303Y-66399341D01*
X83966914Y-66410892D01*
X83990363Y-66418005D01*
X84014749Y-66420407D01*
X84039135Y-66418005D01*
X84062584Y-66410892D01*
X84084195Y-66399341D01*
X84103137Y-66383796D01*
X84118682Y-66364854D01*
X84130233Y-66343243D01*
X84148746Y-66298549D01*
X84148747Y-66298547D01*
X84274710Y-66110030D01*
X84435030Y-65949710D01*
X84623547Y-65823747D01*
X84833016Y-65736982D01*
X84959172Y-65711888D01*
X85055385Y-65692750D01*
X85282115Y-65692750D01*
X85378328Y-65711888D01*
X85504484Y-65736982D01*
X85713953Y-65823747D01*
X85902470Y-65949710D01*
X86062790Y-66110030D01*
X86188753Y-66298547D01*
X86275518Y-66508016D01*
X86280015Y-66530623D01*
X86314670Y-66704844D01*
X86319750Y-66730386D01*
X86319750Y-66957114D01*
X86275518Y-67179484D01*
X86188753Y-67388953D01*
X86062790Y-67577470D01*
X85902470Y-67737790D01*
X85713953Y-67863753D01*
X85713952Y-67863754D01*
X85713951Y-67863754D01*
X85655717Y-67887875D01*
X85504484Y-67950518D01*
X85419502Y-67967422D01*
X85273363Y-67996491D01*
X85249914Y-68003604D01*
X85228303Y-68015155D01*
X85209361Y-68030700D01*
X85193816Y-68049642D01*
X85182265Y-68071253D01*
X85175152Y-68094702D01*
X85172750Y-68119088D01*
X85172750Y-68221350D01*
X85126866Y-68452026D01*
X85036860Y-68669319D01*
X85036859Y-68669321D01*
X84906190Y-68864880D01*
X84739880Y-69031190D01*
X84544321Y-69161859D01*
X84544320Y-69161860D01*
X84544319Y-69161860D01*
X84327026Y-69251866D01*
X84096350Y-69297750D01*
X83861150Y-69297750D01*
X83630474Y-69251866D01*
X83413181Y-69161860D01*
X83413180Y-69161860D01*
X83413179Y-69161859D01*
X83217620Y-69031190D01*
X83051310Y-68864880D01*
X82920641Y-68669321D01*
X82920640Y-68669319D01*
X82830634Y-68452026D01*
X82784750Y-68221350D01*
X82784750Y-67991808D01*
X82782348Y-67967422D01*
X82775235Y-67943973D01*
X82763684Y-67922362D01*
X82748139Y-67903420D01*
X82729197Y-67887875D01*
X82707586Y-67876324D01*
X82672006Y-67867412D01*
X82453314Y-67845872D01*
X82226924Y-67777198D01*
X82018283Y-67665677D01*
X81835407Y-67515594D01*
X81784501Y-67453565D01*
X81685323Y-67332717D01*
X81648150Y-67263171D01*
X81573802Y-67124077D01*
X81505128Y-66897687D01*
X81487750Y-66721249D01*
X81487750Y-65566252D01*
X81491374Y-65529458D01*
X81491374Y-65504954D01*
X81486593Y-65480920D01*
X81477216Y-65458282D01*
X81463602Y-65437907D01*
X81446274Y-65420581D01*
X81425900Y-65406967D01*
X81403261Y-65397590D01*
X81379228Y-65392810D01*
X81354724Y-65392810D01*
X81330690Y-65397591D01*
X81308052Y-65406968D01*
X81287677Y-65420582D01*
X81263044Y-65447762D01*
X81179305Y-65573087D01*
X80998089Y-65754303D01*
X80785005Y-65896681D01*
X80785004Y-65896682D01*
X80785003Y-65896682D01*
X80548237Y-65994754D01*
X80296889Y-66044750D01*
X80040611Y-66044750D01*
X79789263Y-65994754D01*
X79552497Y-65896682D01*
X79552496Y-65896682D01*
X79552495Y-65896681D01*
X79339411Y-65754303D01*
X79158195Y-65573087D01*
X79074456Y-65447762D01*
X79058911Y-65428820D01*
X79039969Y-65413274D01*
X79018358Y-65401723D01*
X78994909Y-65394610D01*
X78970523Y-65392208D01*
X78946137Y-65394610D01*
X78922688Y-65401723D01*
X78901078Y-65413274D01*
X78882136Y-65428819D01*
X78866590Y-65447761D01*
X78855039Y-65469372D01*
X78847926Y-65492821D01*
X78846126Y-65529457D01*
X78849750Y-65566251D01*
X78849750Y-66721249D01*
X78832372Y-66897687D01*
X78763698Y-67124077D01*
X78652177Y-67332718D01*
X78502094Y-67515594D01*
X78319218Y-67665677D01*
X78110577Y-67777198D01*
X77884187Y-67845872D01*
X77665492Y-67867412D01*
X77641464Y-67872191D01*
X77618825Y-67881569D01*
X77598450Y-67895183D01*
X77581123Y-67912510D01*
X77567510Y-67932884D01*
X77558132Y-67955523D01*
X77552750Y-67991808D01*
X77552750Y-68221350D01*
X77506866Y-68452026D01*
X77416860Y-68669319D01*
X77416859Y-68669321D01*
X77286190Y-68864880D01*
X77119880Y-69031190D01*
X76924321Y-69161859D01*
X76924320Y-69161860D01*
X76924319Y-69161860D01*
X76707026Y-69251866D01*
X76476350Y-69297750D01*
X76241150Y-69297750D01*
X76010474Y-69251866D01*
X75793181Y-69161860D01*
X75793180Y-69161860D01*
X75793179Y-69161859D01*
X75597620Y-69031190D01*
X75431310Y-68864880D01*
X75300641Y-68669321D01*
X75300640Y-68669319D01*
X75210634Y-68452026D01*
X75164750Y-68221350D01*
X75164750Y-68119749D01*
X75162348Y-68095363D01*
X75155235Y-68071914D01*
X75143684Y-68050303D01*
X75128139Y-68031361D01*
X75109197Y-68015816D01*
X75087586Y-68004265D01*
X75064137Y-67997152D01*
X75039751Y-67994750D01*
X74960405Y-67994750D01*
X74849221Y-67972634D01*
X74738036Y-67950518D01*
X74586803Y-67887875D01*
X74528569Y-67863754D01*
X74528568Y-67863754D01*
X74528567Y-67863753D01*
X74340050Y-67737790D01*
X74179730Y-67577470D01*
X74053767Y-67388953D01*
X73967002Y-67179484D01*
X73922770Y-66957114D01*
X73922770Y-66730386D01*
X73927851Y-66704844D01*
X73962505Y-66530623D01*
X73967002Y-66508016D01*
X74053767Y-66298547D01*
X74179730Y-66110030D01*
X74340050Y-65949710D01*
X74528567Y-65823747D01*
X74738036Y-65736982D01*
X74864192Y-65711888D01*
X74960405Y-65692750D01*
X75187135Y-65692750D01*
X75283348Y-65711888D01*
X75409504Y-65736982D01*
X75618973Y-65823747D01*
X75807490Y-65949710D01*
X75967810Y-66110030D01*
X76093773Y-66298547D01*
X76180538Y-66508016D01*
X76185035Y-66530623D01*
X76200154Y-66606633D01*
X76207267Y-66630082D01*
X76218818Y-66651693D01*
X76234363Y-66670635D01*
X76253305Y-66686180D01*
X76274916Y-66697731D01*
X76298365Y-66704844D01*
X76322751Y-66707246D01*
X76347137Y-66704844D01*
X76370586Y-66697731D01*
X76392197Y-66686180D01*
X76411139Y-66670635D01*
X76426684Y-66651693D01*
X76438235Y-66630082D01*
X76445348Y-66606633D01*
X76447750Y-66582247D01*
X76447750Y-65566252D01*
X76465128Y-65389814D01*
X76533802Y-65163424D01*
X76645323Y-64954783D01*
X76795406Y-64771906D01*
X76978282Y-64621823D01*
X77186923Y-64510302D01*
X77413313Y-64441628D01*
X77648750Y-64418439D01*
X77884186Y-64441628D01*
X78110576Y-64510302D01*
X78319217Y-64621823D01*
X78502094Y-64771906D01*
X78601061Y-64892497D01*
X78646126Y-64947409D01*
X78663453Y-64964736D01*
X78683827Y-64978349D01*
X78706466Y-64987727D01*
X78730499Y-64992507D01*
X78755003Y-64992507D01*
X78779037Y-64987726D01*
X78801675Y-64978349D01*
X78822050Y-64964735D01*
X78839377Y-64947408D01*
X78852990Y-64927034D01*
X78862368Y-64904395D01*
X78867750Y-64868110D01*
X78867750Y-64615611D01*
X78917746Y-64364263D01*
X79015818Y-64127497D01*
X79158197Y-63914411D01*
X79339411Y-63733197D01*
X79384812Y-63702861D01*
X79552495Y-63590819D01*
X79552497Y-63590818D01*
X79789263Y-63492746D01*
X80040611Y-63442750D01*
X80296889Y-63442750D01*
X80548237Y-63492746D01*
G37*
G36*
X60704487Y-63492746D02*
G01*
X60941253Y-63590818D01*
X60941255Y-63590819D01*
X61108938Y-63702861D01*
X61154339Y-63733197D01*
X61335553Y-63914411D01*
X61477932Y-64127497D01*
X61576004Y-64364263D01*
X61626000Y-64615611D01*
X61626000Y-64868111D01*
X61628402Y-64892497D01*
X61635515Y-64915946D01*
X61647066Y-64937557D01*
X61662611Y-64956499D01*
X61681553Y-64972044D01*
X61703164Y-64983595D01*
X61726613Y-64990708D01*
X61750999Y-64993110D01*
X61775385Y-64990708D01*
X61798834Y-64983595D01*
X61820445Y-64972044D01*
X61847621Y-64947414D01*
X61991656Y-64771906D01*
X62174532Y-64621823D01*
X62383173Y-64510302D01*
X62609563Y-64441628D01*
X62845000Y-64418439D01*
X63080436Y-64441628D01*
X63306826Y-64510302D01*
X63515467Y-64621823D01*
X63698344Y-64771906D01*
X63848427Y-64954782D01*
X63959948Y-65163423D01*
X64028622Y-65389813D01*
X64046000Y-65566251D01*
X64046000Y-66295408D01*
X64048402Y-66319794D01*
X64055515Y-66343243D01*
X64067066Y-66364854D01*
X64082611Y-66383796D01*
X64101553Y-66399341D01*
X64123164Y-66410892D01*
X64146613Y-66418005D01*
X64170999Y-66420407D01*
X64195385Y-66418005D01*
X64218834Y-66410892D01*
X64240445Y-66399341D01*
X64259387Y-66383796D01*
X64274932Y-66364854D01*
X64286483Y-66343243D01*
X64304996Y-66298549D01*
X64304997Y-66298547D01*
X64430960Y-66110030D01*
X64591280Y-65949710D01*
X64779797Y-65823747D01*
X64989266Y-65736982D01*
X65115422Y-65711888D01*
X65211635Y-65692750D01*
X65438365Y-65692750D01*
X65534578Y-65711888D01*
X65660734Y-65736982D01*
X65870203Y-65823747D01*
X66058720Y-65949710D01*
X66219040Y-66110030D01*
X66345003Y-66298547D01*
X66431768Y-66508016D01*
X66436265Y-66530623D01*
X66470920Y-66704844D01*
X66476000Y-66730386D01*
X66476000Y-66957114D01*
X66431768Y-67179484D01*
X66345003Y-67388953D01*
X66219040Y-67577470D01*
X66058720Y-67737790D01*
X65870203Y-67863753D01*
X65870202Y-67863754D01*
X65870201Y-67863754D01*
X65811967Y-67887875D01*
X65660734Y-67950518D01*
X65575752Y-67967422D01*
X65429613Y-67996491D01*
X65406164Y-68003604D01*
X65384553Y-68015155D01*
X65365611Y-68030700D01*
X65350066Y-68049642D01*
X65338515Y-68071253D01*
X65331402Y-68094702D01*
X65329000Y-68119088D01*
X65329000Y-68221350D01*
X65283116Y-68452026D01*
X65193110Y-68669319D01*
X65193109Y-68669321D01*
X65062440Y-68864880D01*
X64896130Y-69031190D01*
X64700571Y-69161859D01*
X64700570Y-69161860D01*
X64700569Y-69161860D01*
X64483276Y-69251866D01*
X64252600Y-69297750D01*
X64017400Y-69297750D01*
X63786724Y-69251866D01*
X63569431Y-69161860D01*
X63569430Y-69161860D01*
X63569429Y-69161859D01*
X63373870Y-69031190D01*
X63207560Y-68864880D01*
X63076891Y-68669321D01*
X63076890Y-68669319D01*
X62986884Y-68452026D01*
X62941000Y-68221350D01*
X62941000Y-67991808D01*
X62938598Y-67967422D01*
X62931485Y-67943973D01*
X62919934Y-67922362D01*
X62904389Y-67903420D01*
X62885447Y-67887875D01*
X62863836Y-67876324D01*
X62828256Y-67867412D01*
X62609564Y-67845872D01*
X62383174Y-67777198D01*
X62174533Y-67665677D01*
X61991657Y-67515594D01*
X61940751Y-67453565D01*
X61841573Y-67332717D01*
X61804400Y-67263171D01*
X61730052Y-67124077D01*
X61661378Y-66897687D01*
X61644000Y-66721249D01*
X61644000Y-65566252D01*
X61647624Y-65529458D01*
X61647624Y-65504954D01*
X61642843Y-65480920D01*
X61633466Y-65458282D01*
X61619852Y-65437907D01*
X61602524Y-65420581D01*
X61582150Y-65406967D01*
X61559511Y-65397590D01*
X61535478Y-65392810D01*
X61510974Y-65392810D01*
X61486940Y-65397591D01*
X61464302Y-65406968D01*
X61443927Y-65420582D01*
X61419294Y-65447762D01*
X61335555Y-65573087D01*
X61154339Y-65754303D01*
X60941255Y-65896681D01*
X60941254Y-65896682D01*
X60941253Y-65896682D01*
X60704487Y-65994754D01*
X60453139Y-66044750D01*
X60196861Y-66044750D01*
X59945513Y-65994754D01*
X59708747Y-65896682D01*
X59708746Y-65896682D01*
X59708745Y-65896681D01*
X59495661Y-65754303D01*
X59314445Y-65573087D01*
X59230706Y-65447762D01*
X59215161Y-65428820D01*
X59196219Y-65413274D01*
X59174608Y-65401723D01*
X59151159Y-65394610D01*
X59126773Y-65392208D01*
X59102387Y-65394610D01*
X59078938Y-65401723D01*
X59057328Y-65413274D01*
X59038386Y-65428819D01*
X59022840Y-65447761D01*
X59011289Y-65469372D01*
X59004176Y-65492821D01*
X59002376Y-65529457D01*
X59006000Y-65566251D01*
X59006000Y-66721249D01*
X58988622Y-66897687D01*
X58919948Y-67124077D01*
X58808427Y-67332718D01*
X58658344Y-67515594D01*
X58475468Y-67665677D01*
X58266827Y-67777198D01*
X58040437Y-67845872D01*
X57821742Y-67867412D01*
X57797714Y-67872191D01*
X57775075Y-67881569D01*
X57754700Y-67895183D01*
X57737373Y-67912510D01*
X57723760Y-67932884D01*
X57714382Y-67955523D01*
X57709000Y-67991808D01*
X57709000Y-68221350D01*
X57663116Y-68452026D01*
X57573110Y-68669319D01*
X57573109Y-68669321D01*
X57442440Y-68864880D01*
X57276130Y-69031190D01*
X57080571Y-69161859D01*
X57080570Y-69161860D01*
X57080569Y-69161860D01*
X56863276Y-69251866D01*
X56632600Y-69297750D01*
X56397400Y-69297750D01*
X56166724Y-69251866D01*
X55949431Y-69161860D01*
X55949430Y-69161860D01*
X55949429Y-69161859D01*
X55753870Y-69031190D01*
X55587560Y-68864880D01*
X55456891Y-68669321D01*
X55456890Y-68669319D01*
X55366884Y-68452026D01*
X55321000Y-68221350D01*
X55321000Y-68119749D01*
X55318598Y-68095363D01*
X55311485Y-68071914D01*
X55299934Y-68050303D01*
X55284389Y-68031361D01*
X55265447Y-68015816D01*
X55243836Y-68004265D01*
X55220387Y-67997152D01*
X55196001Y-67994750D01*
X55116655Y-67994750D01*
X55005471Y-67972634D01*
X54894286Y-67950518D01*
X54743053Y-67887875D01*
X54684819Y-67863754D01*
X54684818Y-67863754D01*
X54684817Y-67863753D01*
X54496300Y-67737790D01*
X54335980Y-67577470D01*
X54210017Y-67388953D01*
X54123252Y-67179484D01*
X54079020Y-66957114D01*
X54079020Y-66730386D01*
X54084101Y-66704844D01*
X54118755Y-66530623D01*
X54123252Y-66508016D01*
X54210017Y-66298547D01*
X54335980Y-66110030D01*
X54496300Y-65949710D01*
X54684817Y-65823747D01*
X54894286Y-65736982D01*
X55020442Y-65711888D01*
X55116655Y-65692750D01*
X55343385Y-65692750D01*
X55439598Y-65711888D01*
X55565754Y-65736982D01*
X55775223Y-65823747D01*
X55963740Y-65949710D01*
X56124060Y-66110030D01*
X56250023Y-66298547D01*
X56336788Y-66508016D01*
X56341285Y-66530623D01*
X56356404Y-66606633D01*
X56363517Y-66630082D01*
X56375068Y-66651693D01*
X56390613Y-66670635D01*
X56409555Y-66686180D01*
X56431166Y-66697731D01*
X56454615Y-66704844D01*
X56479001Y-66707246D01*
X56503387Y-66704844D01*
X56526836Y-66697731D01*
X56548447Y-66686180D01*
X56567389Y-66670635D01*
X56582934Y-66651693D01*
X56594485Y-66630082D01*
X56601598Y-66606633D01*
X56604000Y-66582247D01*
X56604000Y-65566252D01*
X56621378Y-65389814D01*
X56690052Y-65163424D01*
X56801573Y-64954783D01*
X56951656Y-64771906D01*
X57134532Y-64621823D01*
X57343173Y-64510302D01*
X57569563Y-64441628D01*
X57805000Y-64418439D01*
X58040436Y-64441628D01*
X58266826Y-64510302D01*
X58475467Y-64621823D01*
X58658344Y-64771906D01*
X58757311Y-64892497D01*
X58802376Y-64947409D01*
X58819703Y-64964736D01*
X58840077Y-64978349D01*
X58862716Y-64987727D01*
X58886749Y-64992507D01*
X58911253Y-64992507D01*
X58935287Y-64987726D01*
X58957925Y-64978349D01*
X58978300Y-64964735D01*
X58995627Y-64947408D01*
X59009240Y-64927034D01*
X59018618Y-64904395D01*
X59024000Y-64868110D01*
X59024000Y-64615611D01*
X59073996Y-64364263D01*
X59172068Y-64127497D01*
X59314447Y-63914411D01*
X59495661Y-63733197D01*
X59541062Y-63702861D01*
X59708745Y-63590819D01*
X59708747Y-63590818D01*
X59945513Y-63492746D01*
X60196861Y-63442750D01*
X60453139Y-63442750D01*
X60704487Y-63492746D01*
G37*
G36*
X112934468Y-67453565D02*
G01*
X112973138Y-67465296D01*
X113008777Y-67484346D01*
X113040017Y-67509983D01*
X113065654Y-67541223D01*
X113084704Y-67576862D01*
X113096435Y-67615532D01*
X113101000Y-67661888D01*
X113101000Y-68738112D01*
X113096435Y-68784468D01*
X113084704Y-68823138D01*
X113065654Y-68858777D01*
X113040017Y-68890017D01*
X113008777Y-68915654D01*
X112973138Y-68934704D01*
X112934468Y-68946435D01*
X112888112Y-68951000D01*
X112236888Y-68951000D01*
X112190532Y-68946435D01*
X112151862Y-68934704D01*
X112116223Y-68915654D01*
X112084983Y-68890017D01*
X112059346Y-68858777D01*
X112040296Y-68823138D01*
X112028565Y-68784468D01*
X112024000Y-68738112D01*
X112024000Y-67661888D01*
X112028565Y-67615532D01*
X112040296Y-67576862D01*
X112059346Y-67541223D01*
X112084983Y-67509983D01*
X112116223Y-67484346D01*
X112151862Y-67465296D01*
X112190532Y-67453565D01*
X112236888Y-67449000D01*
X112888112Y-67449000D01*
X112934468Y-67453565D01*
G37*
G36*
X114809468Y-67453565D02*
G01*
X114848138Y-67465296D01*
X114883777Y-67484346D01*
X114915017Y-67509983D01*
X114940654Y-67541223D01*
X114959704Y-67576862D01*
X114971435Y-67615532D01*
X114976000Y-67661888D01*
X114976000Y-68738112D01*
X114971435Y-68784468D01*
X114959704Y-68823138D01*
X114940654Y-68858777D01*
X114915017Y-68890017D01*
X114883777Y-68915654D01*
X114848138Y-68934704D01*
X114809468Y-68946435D01*
X114763112Y-68951000D01*
X114111888Y-68951000D01*
X114065532Y-68946435D01*
X114026862Y-68934704D01*
X113991223Y-68915654D01*
X113959983Y-68890017D01*
X113934346Y-68858777D01*
X113915296Y-68823138D01*
X113903565Y-68784468D01*
X113899000Y-68738112D01*
X113899000Y-67661888D01*
X113903565Y-67615532D01*
X113915296Y-67576862D01*
X113934346Y-67541223D01*
X113959983Y-67509983D01*
X113991223Y-67484346D01*
X114026862Y-67465296D01*
X114065532Y-67453565D01*
X114111888Y-67449000D01*
X114763112Y-67449000D01*
X114809468Y-67453565D01*
G37*
G36*
X127826000Y-66601000D02*
G01*
X119174000Y-66601000D01*
X119174000Y-64999000D01*
X127826000Y-64999000D01*
X127826000Y-66601000D01*
G37*
G36*
X133284468Y-65503565D02*
G01*
X133323138Y-65515296D01*
X133358777Y-65534346D01*
X133390017Y-65559983D01*
X133415654Y-65591223D01*
X133434704Y-65626862D01*
X133446435Y-65665532D01*
X133451000Y-65711888D01*
X133451000Y-66363112D01*
X133446435Y-66409468D01*
X133434704Y-66448138D01*
X133415654Y-66483777D01*
X133390017Y-66515017D01*
X133358777Y-66540654D01*
X133323138Y-66559704D01*
X133284468Y-66571435D01*
X133238112Y-66576000D01*
X132161888Y-66576000D01*
X132115532Y-66571435D01*
X132076862Y-66559704D01*
X132041223Y-66540654D01*
X132009983Y-66515017D01*
X131984346Y-66483777D01*
X131965296Y-66448138D01*
X131953565Y-66409468D01*
X131949000Y-66363112D01*
X131949000Y-65711888D01*
X131953565Y-65665532D01*
X131965296Y-65626862D01*
X131984346Y-65591223D01*
X132009983Y-65559983D01*
X132041223Y-65534346D01*
X132076862Y-65515296D01*
X132115532Y-65503565D01*
X132161888Y-65499000D01*
X133238112Y-65499000D01*
X133284468Y-65503565D01*
G37*
G36*
X115001000Y-65651000D02*
G01*
X113699000Y-65651000D01*
X113699000Y-64149000D01*
X115001000Y-64149000D01*
X115001000Y-65651000D01*
G37*
G36*
X113301000Y-65651000D02*
G01*
X111999000Y-65651000D01*
X111999000Y-64149000D01*
X113301000Y-64149000D01*
X113301000Y-65651000D01*
G37*
G36*
X133284468Y-63628565D02*
G01*
X133323138Y-63640296D01*
X133358777Y-63659346D01*
X133390017Y-63684983D01*
X133415654Y-63716223D01*
X133434704Y-63751862D01*
X133446435Y-63790532D01*
X133451000Y-63836888D01*
X133451000Y-64488112D01*
X133446435Y-64534468D01*
X133434704Y-64573138D01*
X133415654Y-64608777D01*
X133390017Y-64640017D01*
X133358777Y-64665654D01*
X133323138Y-64684704D01*
X133284468Y-64696435D01*
X133238112Y-64701000D01*
X132161888Y-64701000D01*
X132115532Y-64696435D01*
X132076862Y-64684704D01*
X132041223Y-64665654D01*
X132009983Y-64640017D01*
X131984346Y-64608777D01*
X131965296Y-64573138D01*
X131953565Y-64534468D01*
X131949000Y-64488112D01*
X131949000Y-63836888D01*
X131953565Y-63790532D01*
X131965296Y-63751862D01*
X131984346Y-63716223D01*
X132009983Y-63684983D01*
X132041223Y-63659346D01*
X132076862Y-63640296D01*
X132115532Y-63628565D01*
X132161888Y-63624000D01*
X133238112Y-63624000D01*
X133284468Y-63628565D01*
G37*
G36*
X130001000Y-64426000D02*
G01*
X128399000Y-64426000D01*
X128399000Y-55774000D01*
X130001000Y-55774000D01*
X130001000Y-64426000D01*
G37*
G36*
X118601000Y-64426000D02*
G01*
X116999000Y-64426000D01*
X116999000Y-55774000D01*
X118601000Y-55774000D01*
X118601000Y-64426000D01*
G37*
G36*
X115001000Y-63451000D02*
G01*
X113699000Y-63451000D01*
X113699000Y-61949000D01*
X115001000Y-61949000D01*
X115001000Y-63451000D01*
G37*
G36*
X113301000Y-63451000D02*
G01*
X111999000Y-63451000D01*
X111999000Y-61949000D01*
X113301000Y-61949000D01*
X113301000Y-63451000D01*
G37*
G36*
X114809468Y-58653565D02*
G01*
X114848138Y-58665296D01*
X114883777Y-58684346D01*
X114915017Y-58709983D01*
X114940654Y-58741223D01*
X114959704Y-58776862D01*
X114971435Y-58815532D01*
X114976000Y-58861888D01*
X114976000Y-59938112D01*
X114971435Y-59984468D01*
X114959704Y-60023138D01*
X114940654Y-60058777D01*
X114915017Y-60090017D01*
X114883777Y-60115654D01*
X114848138Y-60134704D01*
X114809468Y-60146435D01*
X114763112Y-60151000D01*
X114111888Y-60151000D01*
X114065532Y-60146435D01*
X114026862Y-60134704D01*
X113991223Y-60115654D01*
X113959983Y-60090017D01*
X113934346Y-60058777D01*
X113915296Y-60023138D01*
X113903565Y-59984468D01*
X113899000Y-59938112D01*
X113899000Y-58861888D01*
X113903565Y-58815532D01*
X113915296Y-58776862D01*
X113934346Y-58741223D01*
X113959983Y-58709983D01*
X113991223Y-58684346D01*
X114026862Y-58665296D01*
X114065532Y-58653565D01*
X114111888Y-58649000D01*
X114763112Y-58649000D01*
X114809468Y-58653565D01*
G37*
G36*
X112934468Y-58653565D02*
G01*
X112973138Y-58665296D01*
X113008777Y-58684346D01*
X113040017Y-58709983D01*
X113065654Y-58741223D01*
X113084704Y-58776862D01*
X113096435Y-58815532D01*
X113101000Y-58861888D01*
X113101000Y-59938112D01*
X113096435Y-59984468D01*
X113084704Y-60023138D01*
X113065654Y-60058777D01*
X113040017Y-60090017D01*
X113008777Y-60115654D01*
X112973138Y-60134704D01*
X112934468Y-60146435D01*
X112888112Y-60151000D01*
X112236888Y-60151000D01*
X112190532Y-60146435D01*
X112151862Y-60134704D01*
X112116223Y-60115654D01*
X112084983Y-60090017D01*
X112059346Y-60058777D01*
X112040296Y-60023138D01*
X112028565Y-59984468D01*
X112024000Y-59938112D01*
X112024000Y-58861888D01*
X112028565Y-58815532D01*
X112040296Y-58776862D01*
X112059346Y-58741223D01*
X112084983Y-58709983D01*
X112116223Y-58684346D01*
X112151862Y-58665296D01*
X112190532Y-58653565D01*
X112236888Y-58649000D01*
X112888112Y-58649000D01*
X112934468Y-58653565D01*
G37*
G36*
X133284468Y-55603565D02*
G01*
X133323138Y-55615296D01*
X133358777Y-55634346D01*
X133390017Y-55659983D01*
X133415654Y-55691223D01*
X133434704Y-55726862D01*
X133446435Y-55765532D01*
X133451000Y-55811888D01*
X133451000Y-56463112D01*
X133446435Y-56509468D01*
X133434704Y-56548138D01*
X133415654Y-56583777D01*
X133390017Y-56615017D01*
X133358777Y-56640654D01*
X133323138Y-56659704D01*
X133284468Y-56671435D01*
X133238112Y-56676000D01*
X132161888Y-56676000D01*
X132115532Y-56671435D01*
X132076862Y-56659704D01*
X132041223Y-56640654D01*
X132009983Y-56615017D01*
X131984346Y-56583777D01*
X131965296Y-56548138D01*
X131953565Y-56509468D01*
X131949000Y-56463112D01*
X131949000Y-55811888D01*
X131953565Y-55765532D01*
X131965296Y-55726862D01*
X131984346Y-55691223D01*
X132009983Y-55659983D01*
X132041223Y-55634346D01*
X132076862Y-55615296D01*
X132115532Y-55603565D01*
X132161888Y-55599000D01*
X133238112Y-55599000D01*
X133284468Y-55603565D01*
G37*
G36*
X114984468Y-55503565D02*
G01*
X115023138Y-55515296D01*
X115058777Y-55534346D01*
X115090017Y-55559983D01*
X115115654Y-55591223D01*
X115134704Y-55626862D01*
X115146435Y-55665532D01*
X115151000Y-55711888D01*
X115151000Y-56363112D01*
X115146435Y-56409468D01*
X115134704Y-56448138D01*
X115115654Y-56483777D01*
X115090017Y-56515017D01*
X115058777Y-56540654D01*
X115023138Y-56559704D01*
X114984468Y-56571435D01*
X114938112Y-56576000D01*
X113861888Y-56576000D01*
X113815532Y-56571435D01*
X113776862Y-56559704D01*
X113741223Y-56540654D01*
X113709983Y-56515017D01*
X113684346Y-56483777D01*
X113665296Y-56448138D01*
X113653565Y-56409468D01*
X113649000Y-56363112D01*
X113649000Y-55711888D01*
X113653565Y-55665532D01*
X113665296Y-55626862D01*
X113684346Y-55591223D01*
X113709983Y-55559983D01*
X113741223Y-55534346D01*
X113776862Y-55515296D01*
X113815532Y-55503565D01*
X113861888Y-55499000D01*
X114938112Y-55499000D01*
X114984468Y-55503565D01*
G37*
G36*
X75138640Y-54374017D02*
G01*
X75257114Y-54423091D01*
X75363738Y-54494335D01*
X75454415Y-54585012D01*
X75525659Y-54691636D01*
X75574733Y-54810110D01*
X75599750Y-54935882D01*
X75599750Y-55064118D01*
X75574733Y-55189890D01*
X75525659Y-55308364D01*
X75454415Y-55414988D01*
X75363738Y-55505665D01*
X75257114Y-55576909D01*
X75257113Y-55576910D01*
X75257112Y-55576910D01*
X75138640Y-55625983D01*
X75012869Y-55651000D01*
X74884631Y-55651000D01*
X74758860Y-55625983D01*
X74640388Y-55576910D01*
X74640387Y-55576910D01*
X74640386Y-55576909D01*
X74533762Y-55505665D01*
X74443085Y-55414988D01*
X74371841Y-55308364D01*
X74322767Y-55189890D01*
X74297750Y-55064118D01*
X74297750Y-54935882D01*
X74322767Y-54810110D01*
X74371841Y-54691636D01*
X74443085Y-54585012D01*
X74533762Y-54494335D01*
X74640386Y-54423091D01*
X74758860Y-54374017D01*
X74884631Y-54349000D01*
X75012869Y-54349000D01*
X75138640Y-54374017D01*
G37*
G36*
X85483660Y-54374017D02*
G01*
X85602134Y-54423091D01*
X85708758Y-54494335D01*
X85799435Y-54585012D01*
X85870679Y-54691636D01*
X85919753Y-54810110D01*
X85944770Y-54935882D01*
X85944770Y-55064118D01*
X85919753Y-55189890D01*
X85870679Y-55308364D01*
X85799435Y-55414988D01*
X85708758Y-55505665D01*
X85602134Y-55576909D01*
X85602133Y-55576910D01*
X85602132Y-55576910D01*
X85483660Y-55625983D01*
X85357889Y-55651000D01*
X85229651Y-55651000D01*
X85103880Y-55625983D01*
X84985408Y-55576910D01*
X84985407Y-55576910D01*
X84985406Y-55576909D01*
X84878782Y-55505665D01*
X84788105Y-55414988D01*
X84716861Y-55308364D01*
X84667787Y-55189890D01*
X84642770Y-55064118D01*
X84642770Y-54935882D01*
X84667787Y-54810110D01*
X84716861Y-54691636D01*
X84788105Y-54585012D01*
X84878782Y-54494335D01*
X84985406Y-54423091D01*
X85103880Y-54374017D01*
X85229651Y-54349000D01*
X85357889Y-54349000D01*
X85483660Y-54374017D01*
G37*
G36*
X94982390Y-54374017D02*
G01*
X95100864Y-54423091D01*
X95207488Y-54494335D01*
X95298165Y-54585012D01*
X95369409Y-54691636D01*
X95418483Y-54810110D01*
X95443500Y-54935882D01*
X95443500Y-55064118D01*
X95418483Y-55189890D01*
X95369409Y-55308364D01*
X95298165Y-55414988D01*
X95207488Y-55505665D01*
X95100864Y-55576909D01*
X95100863Y-55576910D01*
X95100862Y-55576910D01*
X94982390Y-55625983D01*
X94856619Y-55651000D01*
X94728381Y-55651000D01*
X94602610Y-55625983D01*
X94484138Y-55576910D01*
X94484137Y-55576910D01*
X94484136Y-55576909D01*
X94377512Y-55505665D01*
X94286835Y-55414988D01*
X94215591Y-55308364D01*
X94166517Y-55189890D01*
X94141500Y-55064118D01*
X94141500Y-54935882D01*
X94166517Y-54810110D01*
X94215591Y-54691636D01*
X94286835Y-54585012D01*
X94377512Y-54494335D01*
X94484136Y-54423091D01*
X94602610Y-54374017D01*
X94728381Y-54349000D01*
X94856619Y-54349000D01*
X94982390Y-54374017D01*
G37*
G36*
X105327410Y-54374017D02*
G01*
X105445884Y-54423091D01*
X105552508Y-54494335D01*
X105643185Y-54585012D01*
X105714429Y-54691636D01*
X105763503Y-54810110D01*
X105788520Y-54935882D01*
X105788520Y-55064118D01*
X105763503Y-55189890D01*
X105714429Y-55308364D01*
X105643185Y-55414988D01*
X105552508Y-55505665D01*
X105445884Y-55576909D01*
X105445883Y-55576910D01*
X105445882Y-55576910D01*
X105327410Y-55625983D01*
X105201639Y-55651000D01*
X105073401Y-55651000D01*
X104947630Y-55625983D01*
X104829158Y-55576910D01*
X104829157Y-55576910D01*
X104829156Y-55576909D01*
X104722532Y-55505665D01*
X104631855Y-55414988D01*
X104560611Y-55308364D01*
X104511537Y-55189890D01*
X104486520Y-55064118D01*
X104486520Y-54935882D01*
X104511537Y-54810110D01*
X104560611Y-54691636D01*
X104631855Y-54585012D01*
X104722532Y-54494335D01*
X104829156Y-54423091D01*
X104947630Y-54374017D01*
X105073401Y-54349000D01*
X105201639Y-54349000D01*
X105327410Y-54374017D01*
G37*
G36*
X55294890Y-54374017D02*
G01*
X55413364Y-54423091D01*
X55519988Y-54494335D01*
X55610665Y-54585012D01*
X55681909Y-54691636D01*
X55730983Y-54810110D01*
X55756000Y-54935882D01*
X55756000Y-55064118D01*
X55730983Y-55189890D01*
X55681909Y-55308364D01*
X55610665Y-55414988D01*
X55519988Y-55505665D01*
X55413364Y-55576909D01*
X55413363Y-55576910D01*
X55413362Y-55576910D01*
X55294890Y-55625983D01*
X55169119Y-55651000D01*
X55040881Y-55651000D01*
X54915110Y-55625983D01*
X54796638Y-55576910D01*
X54796637Y-55576910D01*
X54796636Y-55576909D01*
X54690012Y-55505665D01*
X54599335Y-55414988D01*
X54528091Y-55308364D01*
X54479017Y-55189890D01*
X54454000Y-55064118D01*
X54454000Y-54935882D01*
X54479017Y-54810110D01*
X54528091Y-54691636D01*
X54599335Y-54585012D01*
X54690012Y-54494335D01*
X54796636Y-54423091D01*
X54915110Y-54374017D01*
X55040881Y-54349000D01*
X55169119Y-54349000D01*
X55294890Y-54374017D01*
G37*
G36*
X65639910Y-54374017D02*
G01*
X65758384Y-54423091D01*
X65865008Y-54494335D01*
X65955685Y-54585012D01*
X66026929Y-54691636D01*
X66076003Y-54810110D01*
X66101020Y-54935882D01*
X66101020Y-55064118D01*
X66076003Y-55189890D01*
X66026929Y-55308364D01*
X65955685Y-55414988D01*
X65865008Y-55505665D01*
X65758384Y-55576909D01*
X65758383Y-55576910D01*
X65758382Y-55576910D01*
X65639910Y-55625983D01*
X65514139Y-55651000D01*
X65385901Y-55651000D01*
X65260130Y-55625983D01*
X65141658Y-55576910D01*
X65141657Y-55576910D01*
X65141656Y-55576909D01*
X65035032Y-55505665D01*
X64944355Y-55414988D01*
X64873111Y-55308364D01*
X64824037Y-55189890D01*
X64799020Y-55064118D01*
X64799020Y-54935882D01*
X64824037Y-54810110D01*
X64873111Y-54691636D01*
X64944355Y-54585012D01*
X65035032Y-54494335D01*
X65141656Y-54423091D01*
X65260130Y-54374017D01*
X65385901Y-54349000D01*
X65514139Y-54349000D01*
X65639910Y-54374017D01*
G37*
G36*
X127826000Y-55201000D02*
G01*
X119174000Y-55201000D01*
X119174000Y-53599000D01*
X127826000Y-53599000D01*
X127826000Y-55201000D01*
G37*
G36*
X133284468Y-53728565D02*
G01*
X133323138Y-53740296D01*
X133358777Y-53759346D01*
X133390017Y-53784983D01*
X133415654Y-53816223D01*
X133434704Y-53851862D01*
X133446435Y-53890532D01*
X133451000Y-53936888D01*
X133451000Y-54588112D01*
X133446435Y-54634468D01*
X133434704Y-54673138D01*
X133415654Y-54708777D01*
X133390017Y-54740017D01*
X133358777Y-54765654D01*
X133323138Y-54784704D01*
X133284468Y-54796435D01*
X133238112Y-54801000D01*
X132161888Y-54801000D01*
X132115532Y-54796435D01*
X132076862Y-54784704D01*
X132041223Y-54765654D01*
X132009983Y-54740017D01*
X131984346Y-54708777D01*
X131965296Y-54673138D01*
X131953565Y-54634468D01*
X131949000Y-54588112D01*
X131949000Y-53936888D01*
X131953565Y-53890532D01*
X131965296Y-53851862D01*
X131984346Y-53816223D01*
X132009983Y-53784983D01*
X132041223Y-53759346D01*
X132076862Y-53740296D01*
X132115532Y-53728565D01*
X132161888Y-53724000D01*
X133238112Y-53724000D01*
X133284468Y-53728565D01*
G37*
G36*
X114984468Y-53628565D02*
G01*
X115023138Y-53640296D01*
X115058777Y-53659346D01*
X115090017Y-53684983D01*
X115115654Y-53716223D01*
X115134704Y-53751862D01*
X115146435Y-53790532D01*
X115151000Y-53836888D01*
X115151000Y-54488112D01*
X115146435Y-54534468D01*
X115134704Y-54573138D01*
X115115654Y-54608777D01*
X115090017Y-54640017D01*
X115058777Y-54665654D01*
X115023138Y-54684704D01*
X114984468Y-54696435D01*
X114938112Y-54701000D01*
X113861888Y-54701000D01*
X113815532Y-54696435D01*
X113776862Y-54684704D01*
X113741223Y-54665654D01*
X113709983Y-54640017D01*
X113684346Y-54608777D01*
X113665296Y-54573138D01*
X113653565Y-54534468D01*
X113649000Y-54488112D01*
X113649000Y-53836888D01*
X113653565Y-53790532D01*
X113665296Y-53751862D01*
X113684346Y-53716223D01*
X113709983Y-53684983D01*
X113741223Y-53659346D01*
X113776862Y-53640296D01*
X113815532Y-53628565D01*
X113861888Y-53624000D01*
X114938112Y-53624000D01*
X114984468Y-53628565D01*
G37*
G36*
X100608974Y-48833684D02*
G01*
X100826974Y-48923983D01*
X100981123Y-48987833D01*
X101316048Y-49211623D01*
X101600877Y-49496452D01*
X101824667Y-49831377D01*
X101873388Y-49949000D01*
X101978816Y-50203526D01*
X102057400Y-50598594D01*
X102057400Y-51001406D01*
X101978816Y-51396474D01*
X101903821Y-51577527D01*
X101824667Y-51768623D01*
X101600877Y-52103548D01*
X101316048Y-52388377D01*
X100981123Y-52612167D01*
X100826974Y-52676017D01*
X100608974Y-52766316D01*
X100213906Y-52844900D01*
X99811094Y-52844900D01*
X99416026Y-52766316D01*
X99198026Y-52676017D01*
X99043877Y-52612167D01*
X98708952Y-52388377D01*
X98424123Y-52103548D01*
X98200333Y-51768623D01*
X98121179Y-51577527D01*
X98046184Y-51396474D01*
X97967600Y-51001406D01*
X97967600Y-50598594D01*
X98046184Y-50203526D01*
X98151612Y-49949000D01*
X98200333Y-49831377D01*
X98424123Y-49496452D01*
X98708952Y-49211623D01*
X99043877Y-48987833D01*
X99198026Y-48923983D01*
X99416026Y-48833684D01*
X99811094Y-48755100D01*
X100213906Y-48755100D01*
X100608974Y-48833684D01*
G37*
G36*
X60921474Y-48833684D02*
G01*
X61139474Y-48923983D01*
X61293623Y-48987833D01*
X61628548Y-49211623D01*
X61913377Y-49496452D01*
X62137167Y-49831377D01*
X62185888Y-49949000D01*
X62291316Y-50203526D01*
X62369900Y-50598594D01*
X62369900Y-51001406D01*
X62291316Y-51396474D01*
X62216321Y-51577527D01*
X62137167Y-51768623D01*
X61913377Y-52103548D01*
X61628548Y-52388377D01*
X61293623Y-52612167D01*
X61139474Y-52676017D01*
X60921474Y-52766316D01*
X60526406Y-52844900D01*
X60123594Y-52844900D01*
X59728526Y-52766316D01*
X59510526Y-52676017D01*
X59356377Y-52612167D01*
X59021452Y-52388377D01*
X58736623Y-52103548D01*
X58512833Y-51768623D01*
X58433679Y-51577527D01*
X58358684Y-51396474D01*
X58280100Y-51001406D01*
X58280100Y-50598594D01*
X58358684Y-50203526D01*
X58464112Y-49949000D01*
X58512833Y-49831377D01*
X58736623Y-49496452D01*
X59021452Y-49211623D01*
X59356377Y-48987833D01*
X59510526Y-48923983D01*
X59728526Y-48833684D01*
X60123594Y-48755100D01*
X60526406Y-48755100D01*
X60921474Y-48833684D01*
G37*
G36*
X80765224Y-48833684D02*
G01*
X80983224Y-48923983D01*
X81137373Y-48987833D01*
X81472298Y-49211623D01*
X81757127Y-49496452D01*
X81980917Y-49831377D01*
X82029638Y-49949000D01*
X82135066Y-50203526D01*
X82213650Y-50598594D01*
X82213650Y-51001406D01*
X82135066Y-51396474D01*
X82060071Y-51577527D01*
X81980917Y-51768623D01*
X81757127Y-52103548D01*
X81472298Y-52388377D01*
X81137373Y-52612167D01*
X80983224Y-52676017D01*
X80765224Y-52766316D01*
X80370156Y-52844900D01*
X79967344Y-52844900D01*
X79572276Y-52766316D01*
X79354276Y-52676017D01*
X79200127Y-52612167D01*
X78865202Y-52388377D01*
X78580373Y-52103548D01*
X78356583Y-51768623D01*
X78277429Y-51577527D01*
X78202434Y-51396474D01*
X78123850Y-51001406D01*
X78123850Y-50598594D01*
X78202434Y-50203526D01*
X78307862Y-49949000D01*
X78356583Y-49831377D01*
X78580373Y-49496452D01*
X78865202Y-49211623D01*
X79200127Y-48987833D01*
X79354276Y-48923983D01*
X79572276Y-48833684D01*
X79967344Y-48755100D01*
X80370156Y-48755100D01*
X80765224Y-48833684D01*
G37*
G36*
X66020285Y-49818234D02*
G01*
X66116981Y-49837468D01*
X66299151Y-49912926D01*
X66463100Y-50022473D01*
X66602527Y-50161900D01*
X66712074Y-50325849D01*
X66787532Y-50508019D01*
X66805549Y-50598594D01*
X66826000Y-50701409D01*
X66826000Y-50898591D01*
X66810978Y-50974109D01*
X66787532Y-51091981D01*
X66712074Y-51274151D01*
X66602527Y-51438100D01*
X66463100Y-51577527D01*
X66299151Y-51687074D01*
X66116981Y-51762532D01*
X66020285Y-51781766D01*
X65923591Y-51801000D01*
X65726409Y-51801000D01*
X65629715Y-51781766D01*
X65533019Y-51762532D01*
X65350849Y-51687074D01*
X65186900Y-51577527D01*
X65047473Y-51438100D01*
X64937926Y-51274151D01*
X64899135Y-51180501D01*
X64862468Y-51091981D01*
X64862468Y-51091980D01*
X64848799Y-51023260D01*
X64841686Y-50999814D01*
X64831038Y-50974108D01*
X64808100Y-50858791D01*
X64808100Y-50741209D01*
X64831038Y-50625892D01*
X64841686Y-50600186D01*
X64848799Y-50576740D01*
X64862468Y-50508019D01*
X64937925Y-50325851D01*
X64937926Y-50325849D01*
X65047473Y-50161900D01*
X65186900Y-50022473D01*
X65350849Y-49912926D01*
X65533019Y-49837468D01*
X65726409Y-49799000D01*
X65923591Y-49799000D01*
X66020285Y-49818234D01*
G37*
G36*
X55020285Y-49818234D02*
G01*
X55116981Y-49837468D01*
X55299151Y-49912926D01*
X55463100Y-50022473D01*
X55602527Y-50161900D01*
X55712074Y-50325849D01*
X55712075Y-50325851D01*
X55787532Y-50508019D01*
X55801201Y-50576740D01*
X55808314Y-50600186D01*
X55818962Y-50625892D01*
X55841900Y-50741209D01*
X55841900Y-50858791D01*
X55818962Y-50974108D01*
X55808314Y-50999814D01*
X55801201Y-51023260D01*
X55787532Y-51091980D01*
X55787532Y-51091981D01*
X55750866Y-51180501D01*
X55712074Y-51274151D01*
X55602527Y-51438100D01*
X55463100Y-51577527D01*
X55299151Y-51687074D01*
X55116981Y-51762532D01*
X55020285Y-51781766D01*
X54923591Y-51801000D01*
X54726409Y-51801000D01*
X54629715Y-51781766D01*
X54533019Y-51762532D01*
X54350849Y-51687074D01*
X54186900Y-51577527D01*
X54047473Y-51438100D01*
X53937926Y-51274151D01*
X53862468Y-51091981D01*
X53839022Y-50974109D01*
X53824000Y-50898591D01*
X53824000Y-50701409D01*
X53844451Y-50598594D01*
X53862468Y-50508019D01*
X53937926Y-50325849D01*
X54047473Y-50161900D01*
X54186900Y-50022473D01*
X54350849Y-49912926D01*
X54533019Y-49837468D01*
X54726409Y-49799000D01*
X54923591Y-49799000D01*
X55020285Y-49818234D01*
G37*
G36*
X74864035Y-49818234D02*
G01*
X74960731Y-49837468D01*
X75142901Y-49912926D01*
X75306850Y-50022473D01*
X75446277Y-50161900D01*
X75555824Y-50325849D01*
X75555825Y-50325851D01*
X75631282Y-50508019D01*
X75644951Y-50576740D01*
X75652064Y-50600186D01*
X75662712Y-50625892D01*
X75685650Y-50741209D01*
X75685650Y-50858791D01*
X75662712Y-50974108D01*
X75652064Y-50999814D01*
X75644951Y-51023260D01*
X75631282Y-51091980D01*
X75631282Y-51091981D01*
X75594616Y-51180501D01*
X75555824Y-51274151D01*
X75446277Y-51438100D01*
X75306850Y-51577527D01*
X75142901Y-51687074D01*
X74960731Y-51762532D01*
X74864035Y-51781766D01*
X74767341Y-51801000D01*
X74570159Y-51801000D01*
X74473465Y-51781766D01*
X74376769Y-51762532D01*
X74194599Y-51687074D01*
X74030650Y-51577527D01*
X73891223Y-51438100D01*
X73781676Y-51274151D01*
X73706218Y-51091981D01*
X73682772Y-50974109D01*
X73667750Y-50898591D01*
X73667750Y-50701409D01*
X73688201Y-50598594D01*
X73706218Y-50508019D01*
X73781676Y-50325849D01*
X73891223Y-50161900D01*
X74030650Y-50022473D01*
X74194599Y-49912926D01*
X74376769Y-49837468D01*
X74570159Y-49799000D01*
X74767341Y-49799000D01*
X74864035Y-49818234D01*
G37*
G36*
X85864035Y-49818234D02*
G01*
X85960731Y-49837468D01*
X86142901Y-49912926D01*
X86306850Y-50022473D01*
X86446277Y-50161900D01*
X86555824Y-50325849D01*
X86631282Y-50508019D01*
X86649299Y-50598594D01*
X86669750Y-50701409D01*
X86669750Y-50898591D01*
X86654728Y-50974109D01*
X86631282Y-51091981D01*
X86555824Y-51274151D01*
X86446277Y-51438100D01*
X86306850Y-51577527D01*
X86142901Y-51687074D01*
X85960731Y-51762532D01*
X85864035Y-51781766D01*
X85767341Y-51801000D01*
X85570159Y-51801000D01*
X85473465Y-51781766D01*
X85376769Y-51762532D01*
X85194599Y-51687074D01*
X85030650Y-51577527D01*
X84891223Y-51438100D01*
X84781676Y-51274151D01*
X84742885Y-51180501D01*
X84706218Y-51091981D01*
X84706218Y-51091980D01*
X84692549Y-51023260D01*
X84685436Y-50999814D01*
X84674788Y-50974108D01*
X84651850Y-50858791D01*
X84651850Y-50741209D01*
X84674788Y-50625892D01*
X84685436Y-50600186D01*
X84692549Y-50576740D01*
X84706218Y-50508019D01*
X84781675Y-50325851D01*
X84781676Y-50325849D01*
X84891223Y-50161900D01*
X85030650Y-50022473D01*
X85194599Y-49912926D01*
X85376769Y-49837468D01*
X85570159Y-49799000D01*
X85767341Y-49799000D01*
X85864035Y-49818234D01*
G37*
G36*
X94707785Y-49818234D02*
G01*
X94804481Y-49837468D01*
X94986651Y-49912926D01*
X95150600Y-50022473D01*
X95290027Y-50161900D01*
X95399574Y-50325849D01*
X95399575Y-50325851D01*
X95475032Y-50508019D01*
X95488701Y-50576740D01*
X95495814Y-50600186D01*
X95506462Y-50625892D01*
X95529400Y-50741209D01*
X95529400Y-50858791D01*
X95506462Y-50974108D01*
X95495814Y-50999814D01*
X95488701Y-51023260D01*
X95475032Y-51091980D01*
X95475032Y-51091981D01*
X95438366Y-51180501D01*
X95399574Y-51274151D01*
X95290027Y-51438100D01*
X95150600Y-51577527D01*
X94986651Y-51687074D01*
X94804481Y-51762532D01*
X94707785Y-51781766D01*
X94611091Y-51801000D01*
X94413909Y-51801000D01*
X94317215Y-51781766D01*
X94220519Y-51762532D01*
X94038349Y-51687074D01*
X93874400Y-51577527D01*
X93734973Y-51438100D01*
X93625426Y-51274151D01*
X93549968Y-51091981D01*
X93526522Y-50974109D01*
X93511500Y-50898591D01*
X93511500Y-50701409D01*
X93531951Y-50598594D01*
X93549968Y-50508019D01*
X93625426Y-50325849D01*
X93734973Y-50161900D01*
X93874400Y-50022473D01*
X94038349Y-49912926D01*
X94220519Y-49837468D01*
X94413909Y-49799000D01*
X94611091Y-49799000D01*
X94707785Y-49818234D01*
G37*
G36*
X105707785Y-49818234D02*
G01*
X105804481Y-49837468D01*
X105986651Y-49912926D01*
X106150600Y-50022473D01*
X106290027Y-50161900D01*
X106399574Y-50325849D01*
X106475032Y-50508019D01*
X106493049Y-50598594D01*
X106513500Y-50701409D01*
X106513500Y-50898591D01*
X106498478Y-50974109D01*
X106475032Y-51091981D01*
X106399574Y-51274151D01*
X106290027Y-51438100D01*
X106150600Y-51577527D01*
X105986651Y-51687074D01*
X105804481Y-51762532D01*
X105707785Y-51781766D01*
X105611091Y-51801000D01*
X105413909Y-51801000D01*
X105317215Y-51781766D01*
X105220519Y-51762532D01*
X105038349Y-51687074D01*
X104874400Y-51577527D01*
X104734973Y-51438100D01*
X104625426Y-51274151D01*
X104586635Y-51180501D01*
X104549968Y-51091981D01*
X104549968Y-51091980D01*
X104536299Y-51023260D01*
X104529186Y-50999814D01*
X104518538Y-50974108D01*
X104495600Y-50858791D01*
X104495600Y-50741209D01*
X104518538Y-50625892D01*
X104529186Y-50600186D01*
X104536299Y-50576740D01*
X104549968Y-50508019D01*
X104625425Y-50325851D01*
X104625426Y-50325849D01*
X104734973Y-50161900D01*
X104874400Y-50022473D01*
X105038349Y-49912926D01*
X105220519Y-49837468D01*
X105413909Y-49799000D01*
X105611091Y-49799000D01*
X105707785Y-49818234D01*
G37*
G36*
X122134468Y-49953565D02*
G01*
X122173138Y-49965296D01*
X122208777Y-49984346D01*
X122240017Y-50009983D01*
X122265654Y-50041223D01*
X122284704Y-50076862D01*
X122296435Y-50115532D01*
X122301000Y-50161888D01*
X122301000Y-51238112D01*
X122296435Y-51284468D01*
X122284704Y-51323138D01*
X122265654Y-51358777D01*
X122240017Y-51390017D01*
X122208777Y-51415654D01*
X122173138Y-51434704D01*
X122134468Y-51446435D01*
X122088112Y-51451000D01*
X121436888Y-51451000D01*
X121390532Y-51446435D01*
X121351862Y-51434704D01*
X121316223Y-51415654D01*
X121284983Y-51390017D01*
X121259346Y-51358777D01*
X121240296Y-51323138D01*
X121228565Y-51284468D01*
X121224000Y-51238112D01*
X121224000Y-50161888D01*
X121228565Y-50115532D01*
X121240296Y-50076862D01*
X121259346Y-50041223D01*
X121284983Y-50009983D01*
X121316223Y-49984346D01*
X121351862Y-49965296D01*
X121390532Y-49953565D01*
X121436888Y-49949000D01*
X122088112Y-49949000D01*
X122134468Y-49953565D01*
G37*
G36*
X119909468Y-49953565D02*
G01*
X119948138Y-49965296D01*
X119983777Y-49984346D01*
X120015017Y-50009983D01*
X120040654Y-50041223D01*
X120059704Y-50076862D01*
X120071435Y-50115532D01*
X120076000Y-50161888D01*
X120076000Y-51238112D01*
X120071435Y-51284468D01*
X120059704Y-51323138D01*
X120040654Y-51358777D01*
X120015017Y-51390017D01*
X119983777Y-51415654D01*
X119948138Y-51434704D01*
X119909468Y-51446435D01*
X119863112Y-51451000D01*
X119211888Y-51451000D01*
X119165532Y-51446435D01*
X119126862Y-51434704D01*
X119091223Y-51415654D01*
X119059983Y-51390017D01*
X119034346Y-51358777D01*
X119015296Y-51323138D01*
X119003565Y-51284468D01*
X118999000Y-51238112D01*
X118999000Y-50161888D01*
X119003565Y-50115532D01*
X119015296Y-50076862D01*
X119034346Y-50041223D01*
X119059983Y-50009983D01*
X119091223Y-49984346D01*
X119126862Y-49965296D01*
X119165532Y-49953565D01*
X119211888Y-49949000D01*
X119863112Y-49949000D01*
X119909468Y-49953565D01*
G37*
G36*
X118034468Y-49953565D02*
G01*
X118073138Y-49965296D01*
X118108777Y-49984346D01*
X118140017Y-50009983D01*
X118165654Y-50041223D01*
X118184704Y-50076862D01*
X118196435Y-50115532D01*
X118201000Y-50161888D01*
X118201000Y-51238112D01*
X118196435Y-51284468D01*
X118184704Y-51323138D01*
X118165654Y-51358777D01*
X118140017Y-51390017D01*
X118108777Y-51415654D01*
X118073138Y-51434704D01*
X118034468Y-51446435D01*
X117988112Y-51451000D01*
X117336888Y-51451000D01*
X117290532Y-51446435D01*
X117251862Y-51434704D01*
X117216223Y-51415654D01*
X117184983Y-51390017D01*
X117159346Y-51358777D01*
X117140296Y-51323138D01*
X117128565Y-51284468D01*
X117124000Y-51238112D01*
X117124000Y-50161888D01*
X117128565Y-50115532D01*
X117140296Y-50076862D01*
X117159346Y-50041223D01*
X117184983Y-50009983D01*
X117216223Y-49984346D01*
X117251862Y-49965296D01*
X117290532Y-49953565D01*
X117336888Y-49949000D01*
X117988112Y-49949000D01*
X118034468Y-49953565D01*
G37*
G36*
X124009468Y-49953565D02*
G01*
X124048138Y-49965296D01*
X124083777Y-49984346D01*
X124115017Y-50009983D01*
X124140654Y-50041223D01*
X124159704Y-50076862D01*
X124171435Y-50115532D01*
X124176000Y-50161888D01*
X124176000Y-51238112D01*
X124171435Y-51284468D01*
X124159704Y-51323138D01*
X124140654Y-51358777D01*
X124115017Y-51390017D01*
X124083777Y-51415654D01*
X124048138Y-51434704D01*
X124009468Y-51446435D01*
X123963112Y-51451000D01*
X123311888Y-51451000D01*
X123265532Y-51446435D01*
X123226862Y-51434704D01*
X123191223Y-51415654D01*
X123159983Y-51390017D01*
X123134346Y-51358777D01*
X123115296Y-51323138D01*
X123103565Y-51284468D01*
X123099000Y-51238112D01*
X123099000Y-50161888D01*
X123103565Y-50115532D01*
X123115296Y-50076862D01*
X123134346Y-50041223D01*
X123159983Y-50009983D01*
X123191223Y-49984346D01*
X123226862Y-49965296D01*
X123265532Y-49953565D01*
X123311888Y-49949000D01*
X123963112Y-49949000D01*
X124009468Y-49953565D01*
G37*
G36*
X100391987Y-43648996D02*
G01*
X100628753Y-43747068D01*
X100628755Y-43747069D01*
X100841839Y-43889447D01*
X101023053Y-44070661D01*
X101069582Y-44140296D01*
X101165432Y-44283747D01*
X101263504Y-44520513D01*
X101313500Y-44771861D01*
X101313500Y-45024361D01*
X101315902Y-45048747D01*
X101323015Y-45072196D01*
X101334566Y-45093807D01*
X101350111Y-45112749D01*
X101369053Y-45128294D01*
X101390664Y-45139845D01*
X101414113Y-45146958D01*
X101438499Y-45149360D01*
X101462885Y-45146958D01*
X101486334Y-45139845D01*
X101507945Y-45128294D01*
X101535121Y-45103664D01*
X101679156Y-44928156D01*
X101862032Y-44778073D01*
X102070673Y-44666552D01*
X102297063Y-44597878D01*
X102532500Y-44574689D01*
X102767936Y-44597878D01*
X102994326Y-44666552D01*
X103202967Y-44778073D01*
X103385844Y-44928156D01*
X103535927Y-45111032D01*
X103647448Y-45319673D01*
X103716122Y-45546063D01*
X103733500Y-45722501D01*
X103733500Y-46451658D01*
X103735902Y-46476044D01*
X103743015Y-46499493D01*
X103754566Y-46521104D01*
X103770111Y-46540046D01*
X103789053Y-46555591D01*
X103810664Y-46567142D01*
X103834113Y-46574255D01*
X103858499Y-46576657D01*
X103882885Y-46574255D01*
X103906334Y-46567142D01*
X103927945Y-46555591D01*
X103946887Y-46540046D01*
X103962432Y-46521104D01*
X103973983Y-46499493D01*
X103992496Y-46454799D01*
X103992497Y-46454797D01*
X104118460Y-46266280D01*
X104278780Y-46105960D01*
X104467297Y-45979997D01*
X104676766Y-45893232D01*
X104787951Y-45871116D01*
X104899135Y-45849000D01*
X105125865Y-45849000D01*
X105237049Y-45871116D01*
X105348234Y-45893232D01*
X105557703Y-45979997D01*
X105746220Y-46105960D01*
X105906540Y-46266280D01*
X106032503Y-46454797D01*
X106032504Y-46454799D01*
X106119268Y-46664267D01*
X106158420Y-46861094D01*
X106163500Y-46886636D01*
X106163500Y-47113364D01*
X106119268Y-47335734D01*
X106032503Y-47545203D01*
X105906540Y-47733720D01*
X105746220Y-47894040D01*
X105557703Y-48020003D01*
X105557702Y-48020004D01*
X105557701Y-48020004D01*
X105499467Y-48044125D01*
X105348234Y-48106768D01*
X105263252Y-48123672D01*
X105117113Y-48152741D01*
X105093664Y-48159854D01*
X105072053Y-48171405D01*
X105053111Y-48186950D01*
X105037566Y-48205892D01*
X105026015Y-48227503D01*
X105018902Y-48250952D01*
X105016500Y-48275338D01*
X105016500Y-48377600D01*
X104970616Y-48608276D01*
X104909799Y-48755100D01*
X104880609Y-48825571D01*
X104749940Y-49021130D01*
X104583630Y-49187440D01*
X104388071Y-49318109D01*
X104388070Y-49318110D01*
X104388069Y-49318110D01*
X104170776Y-49408116D01*
X103940100Y-49454000D01*
X103704900Y-49454000D01*
X103474224Y-49408116D01*
X103256931Y-49318110D01*
X103256930Y-49318110D01*
X103256929Y-49318109D01*
X103061370Y-49187440D01*
X102895060Y-49021130D01*
X102764391Y-48825571D01*
X102735201Y-48755100D01*
X102674384Y-48608276D01*
X102628500Y-48377600D01*
X102628500Y-48148058D01*
X102626098Y-48123672D01*
X102618985Y-48100223D01*
X102607434Y-48078612D01*
X102591889Y-48059670D01*
X102572947Y-48044125D01*
X102551336Y-48032574D01*
X102515756Y-48023662D01*
X102297064Y-48002122D01*
X102070674Y-47933448D01*
X101862033Y-47821927D01*
X101679157Y-47671844D01*
X101529074Y-47488968D01*
X101417552Y-47280327D01*
X101348878Y-47053937D01*
X101331500Y-46877499D01*
X101331500Y-45722502D01*
X101335124Y-45685708D01*
X101335124Y-45661204D01*
X101330343Y-45637170D01*
X101320966Y-45614532D01*
X101307352Y-45594157D01*
X101290024Y-45576831D01*
X101269650Y-45563217D01*
X101247011Y-45553840D01*
X101222978Y-45549060D01*
X101198474Y-45549060D01*
X101174440Y-45553841D01*
X101151802Y-45563218D01*
X101131427Y-45576832D01*
X101106794Y-45604012D01*
X101023055Y-45729337D01*
X100841839Y-45910553D01*
X100628755Y-46052931D01*
X100628754Y-46052932D01*
X100628753Y-46052932D01*
X100391987Y-46151004D01*
X100140639Y-46201000D01*
X99884361Y-46201000D01*
X99633013Y-46151004D01*
X99396247Y-46052932D01*
X99396246Y-46052932D01*
X99396245Y-46052931D01*
X99183161Y-45910553D01*
X99001945Y-45729337D01*
X98918206Y-45604012D01*
X98902661Y-45585070D01*
X98883719Y-45569524D01*
X98862108Y-45557973D01*
X98838659Y-45550860D01*
X98814273Y-45548458D01*
X98789887Y-45550860D01*
X98766438Y-45557973D01*
X98744828Y-45569524D01*
X98725886Y-45585069D01*
X98710340Y-45604011D01*
X98698789Y-45625622D01*
X98691676Y-45649071D01*
X98689876Y-45685707D01*
X98693500Y-45722501D01*
X98693500Y-46877499D01*
X98676122Y-47053937D01*
X98607448Y-47280327D01*
X98495927Y-47488968D01*
X98345844Y-47671844D01*
X98162968Y-47821927D01*
X97954327Y-47933448D01*
X97727937Y-48002122D01*
X97509242Y-48023662D01*
X97485214Y-48028441D01*
X97462575Y-48037819D01*
X97442200Y-48051433D01*
X97424873Y-48068760D01*
X97411260Y-48089134D01*
X97401882Y-48111773D01*
X97396500Y-48148058D01*
X97396500Y-48377600D01*
X97350616Y-48608276D01*
X97289799Y-48755100D01*
X97260609Y-48825571D01*
X97129940Y-49021130D01*
X96963630Y-49187440D01*
X96768071Y-49318109D01*
X96768070Y-49318110D01*
X96768069Y-49318110D01*
X96550776Y-49408116D01*
X96320100Y-49454000D01*
X96084900Y-49454000D01*
X95854224Y-49408116D01*
X95636931Y-49318110D01*
X95636930Y-49318110D01*
X95636929Y-49318109D01*
X95441370Y-49187440D01*
X95275060Y-49021130D01*
X95144391Y-48825571D01*
X95115201Y-48755100D01*
X95054384Y-48608276D01*
X95008500Y-48377600D01*
X95008500Y-48275999D01*
X95006098Y-48251613D01*
X94998985Y-48228164D01*
X94987434Y-48206553D01*
X94971889Y-48187611D01*
X94952947Y-48172066D01*
X94931336Y-48160515D01*
X94907887Y-48153402D01*
X94883501Y-48151000D01*
X94804155Y-48151000D01*
X94692971Y-48128884D01*
X94581786Y-48106768D01*
X94430553Y-48044125D01*
X94372319Y-48020004D01*
X94372318Y-48020004D01*
X94372317Y-48020003D01*
X94183800Y-47894040D01*
X94023480Y-47733720D01*
X93897517Y-47545203D01*
X93810752Y-47335734D01*
X93766520Y-47113364D01*
X93766520Y-46886636D01*
X93771601Y-46861094D01*
X93810752Y-46664267D01*
X93897516Y-46454799D01*
X93897517Y-46454797D01*
X94023480Y-46266280D01*
X94183800Y-46105960D01*
X94372317Y-45979997D01*
X94581786Y-45893232D01*
X94692971Y-45871116D01*
X94804155Y-45849000D01*
X95030885Y-45849000D01*
X95142069Y-45871116D01*
X95253254Y-45893232D01*
X95462723Y-45979997D01*
X95651240Y-46105960D01*
X95811560Y-46266280D01*
X95937523Y-46454797D01*
X95937524Y-46454799D01*
X96024288Y-46664267D01*
X96043904Y-46762883D01*
X96051017Y-46786332D01*
X96062568Y-46807943D01*
X96078113Y-46826885D01*
X96097055Y-46842430D01*
X96118666Y-46853981D01*
X96142115Y-46861094D01*
X96166501Y-46863496D01*
X96190887Y-46861094D01*
X96214336Y-46853981D01*
X96235947Y-46842430D01*
X96254889Y-46826885D01*
X96270434Y-46807943D01*
X96281985Y-46786332D01*
X96289098Y-46762883D01*
X96291500Y-46738497D01*
X96291500Y-45722502D01*
X96308878Y-45546064D01*
X96377552Y-45319674D01*
X96489073Y-45111033D01*
X96639156Y-44928156D01*
X96822032Y-44778073D01*
X97030673Y-44666552D01*
X97257063Y-44597878D01*
X97492500Y-44574689D01*
X97727936Y-44597878D01*
X97954326Y-44666552D01*
X98162967Y-44778073D01*
X98345844Y-44928156D01*
X98433092Y-45034468D01*
X98489876Y-45103659D01*
X98507203Y-45120986D01*
X98527577Y-45134599D01*
X98550216Y-45143977D01*
X98574249Y-45148757D01*
X98598753Y-45148757D01*
X98622787Y-45143976D01*
X98645425Y-45134599D01*
X98665800Y-45120985D01*
X98683127Y-45103658D01*
X98696740Y-45083284D01*
X98706118Y-45060645D01*
X98711500Y-45024360D01*
X98711500Y-44771861D01*
X98761496Y-44520513D01*
X98859568Y-44283747D01*
X98955419Y-44140296D01*
X99001947Y-44070661D01*
X99183161Y-43889447D01*
X99396245Y-43747069D01*
X99396247Y-43747068D01*
X99633013Y-43648996D01*
X99884361Y-43599000D01*
X100140639Y-43599000D01*
X100391987Y-43648996D01*
G37*
G36*
X60704487Y-43648996D02*
G01*
X60941253Y-43747068D01*
X60941255Y-43747069D01*
X61154339Y-43889447D01*
X61335553Y-44070661D01*
X61382082Y-44140296D01*
X61477932Y-44283747D01*
X61576004Y-44520513D01*
X61626000Y-44771861D01*
X61626000Y-45024361D01*
X61628402Y-45048747D01*
X61635515Y-45072196D01*
X61647066Y-45093807D01*
X61662611Y-45112749D01*
X61681553Y-45128294D01*
X61703164Y-45139845D01*
X61726613Y-45146958D01*
X61750999Y-45149360D01*
X61775385Y-45146958D01*
X61798834Y-45139845D01*
X61820445Y-45128294D01*
X61847621Y-45103664D01*
X61991656Y-44928156D01*
X62174532Y-44778073D01*
X62383173Y-44666552D01*
X62609563Y-44597878D01*
X62845000Y-44574689D01*
X63080436Y-44597878D01*
X63306826Y-44666552D01*
X63515467Y-44778073D01*
X63698344Y-44928156D01*
X63848427Y-45111032D01*
X63959948Y-45319673D01*
X64028622Y-45546063D01*
X64046000Y-45722501D01*
X64046000Y-46451658D01*
X64048402Y-46476044D01*
X64055515Y-46499493D01*
X64067066Y-46521104D01*
X64082611Y-46540046D01*
X64101553Y-46555591D01*
X64123164Y-46567142D01*
X64146613Y-46574255D01*
X64170999Y-46576657D01*
X64195385Y-46574255D01*
X64218834Y-46567142D01*
X64240445Y-46555591D01*
X64259387Y-46540046D01*
X64274932Y-46521104D01*
X64286483Y-46499493D01*
X64304996Y-46454799D01*
X64304997Y-46454797D01*
X64430960Y-46266280D01*
X64591280Y-46105960D01*
X64779797Y-45979997D01*
X64989266Y-45893232D01*
X65100451Y-45871116D01*
X65211635Y-45849000D01*
X65438365Y-45849000D01*
X65549549Y-45871116D01*
X65660734Y-45893232D01*
X65870203Y-45979997D01*
X66058720Y-46105960D01*
X66219040Y-46266280D01*
X66345003Y-46454797D01*
X66345004Y-46454799D01*
X66431768Y-46664267D01*
X66470920Y-46861094D01*
X66476000Y-46886636D01*
X66476000Y-47113364D01*
X66431768Y-47335734D01*
X66345003Y-47545203D01*
X66219040Y-47733720D01*
X66058720Y-47894040D01*
X65870203Y-48020003D01*
X65870202Y-48020004D01*
X65870201Y-48020004D01*
X65811967Y-48044125D01*
X65660734Y-48106768D01*
X65575752Y-48123672D01*
X65429613Y-48152741D01*
X65406164Y-48159854D01*
X65384553Y-48171405D01*
X65365611Y-48186950D01*
X65350066Y-48205892D01*
X65338515Y-48227503D01*
X65331402Y-48250952D01*
X65329000Y-48275338D01*
X65329000Y-48377600D01*
X65283116Y-48608276D01*
X65222299Y-48755100D01*
X65193109Y-48825571D01*
X65062440Y-49021130D01*
X64896130Y-49187440D01*
X64700571Y-49318109D01*
X64700570Y-49318110D01*
X64700569Y-49318110D01*
X64483276Y-49408116D01*
X64252600Y-49454000D01*
X64017400Y-49454000D01*
X63786724Y-49408116D01*
X63569431Y-49318110D01*
X63569430Y-49318110D01*
X63569429Y-49318109D01*
X63373870Y-49187440D01*
X63207560Y-49021130D01*
X63076891Y-48825571D01*
X63047701Y-48755100D01*
X62986884Y-48608276D01*
X62941000Y-48377600D01*
X62941000Y-48148058D01*
X62938598Y-48123672D01*
X62931485Y-48100223D01*
X62919934Y-48078612D01*
X62904389Y-48059670D01*
X62885447Y-48044125D01*
X62863836Y-48032574D01*
X62828256Y-48023662D01*
X62609564Y-48002122D01*
X62383174Y-47933448D01*
X62174533Y-47821927D01*
X61991657Y-47671844D01*
X61841574Y-47488968D01*
X61730052Y-47280327D01*
X61661378Y-47053937D01*
X61644000Y-46877499D01*
X61644000Y-45722502D01*
X61647624Y-45685708D01*
X61647624Y-45661204D01*
X61642843Y-45637170D01*
X61633466Y-45614532D01*
X61619852Y-45594157D01*
X61602524Y-45576831D01*
X61582150Y-45563217D01*
X61559511Y-45553840D01*
X61535478Y-45549060D01*
X61510974Y-45549060D01*
X61486940Y-45553841D01*
X61464302Y-45563218D01*
X61443927Y-45576832D01*
X61419294Y-45604012D01*
X61335555Y-45729337D01*
X61154339Y-45910553D01*
X60941255Y-46052931D01*
X60941254Y-46052932D01*
X60941253Y-46052932D01*
X60704487Y-46151004D01*
X60453139Y-46201000D01*
X60196861Y-46201000D01*
X59945513Y-46151004D01*
X59708747Y-46052932D01*
X59708746Y-46052932D01*
X59708745Y-46052931D01*
X59495661Y-45910553D01*
X59314445Y-45729337D01*
X59230706Y-45604012D01*
X59215161Y-45585070D01*
X59196219Y-45569524D01*
X59174608Y-45557973D01*
X59151159Y-45550860D01*
X59126773Y-45548458D01*
X59102387Y-45550860D01*
X59078938Y-45557973D01*
X59057328Y-45569524D01*
X59038386Y-45585069D01*
X59022840Y-45604011D01*
X59011289Y-45625622D01*
X59004176Y-45649071D01*
X59002376Y-45685707D01*
X59006000Y-45722501D01*
X59006000Y-46877499D01*
X58988622Y-47053937D01*
X58919948Y-47280327D01*
X58808427Y-47488968D01*
X58658344Y-47671844D01*
X58475468Y-47821927D01*
X58266827Y-47933448D01*
X58040437Y-48002122D01*
X57821742Y-48023662D01*
X57797714Y-48028441D01*
X57775075Y-48037819D01*
X57754700Y-48051433D01*
X57737373Y-48068760D01*
X57723760Y-48089134D01*
X57714382Y-48111773D01*
X57709000Y-48148058D01*
X57709000Y-48377600D01*
X57663116Y-48608276D01*
X57602299Y-48755100D01*
X57573109Y-48825571D01*
X57442440Y-49021130D01*
X57276130Y-49187440D01*
X57080571Y-49318109D01*
X57080570Y-49318110D01*
X57080569Y-49318110D01*
X56863276Y-49408116D01*
X56632600Y-49454000D01*
X56397400Y-49454000D01*
X56166724Y-49408116D01*
X55949431Y-49318110D01*
X55949430Y-49318110D01*
X55949429Y-49318109D01*
X55753870Y-49187440D01*
X55587560Y-49021130D01*
X55456891Y-48825571D01*
X55427701Y-48755100D01*
X55366884Y-48608276D01*
X55321000Y-48377600D01*
X55321000Y-48275999D01*
X55318598Y-48251613D01*
X55311485Y-48228164D01*
X55299934Y-48206553D01*
X55284389Y-48187611D01*
X55265447Y-48172066D01*
X55243836Y-48160515D01*
X55220387Y-48153402D01*
X55196001Y-48151000D01*
X55116655Y-48151000D01*
X55005471Y-48128884D01*
X54894286Y-48106768D01*
X54743053Y-48044125D01*
X54684819Y-48020004D01*
X54684818Y-48020004D01*
X54684817Y-48020003D01*
X54496300Y-47894040D01*
X54335980Y-47733720D01*
X54210017Y-47545203D01*
X54123252Y-47335734D01*
X54079020Y-47113364D01*
X54079020Y-46886636D01*
X54084101Y-46861094D01*
X54123252Y-46664267D01*
X54210016Y-46454799D01*
X54210017Y-46454797D01*
X54335980Y-46266280D01*
X54496300Y-46105960D01*
X54684817Y-45979997D01*
X54894286Y-45893232D01*
X55005471Y-45871116D01*
X55116655Y-45849000D01*
X55343385Y-45849000D01*
X55454569Y-45871116D01*
X55565754Y-45893232D01*
X55775223Y-45979997D01*
X55963740Y-46105960D01*
X56124060Y-46266280D01*
X56250023Y-46454797D01*
X56250024Y-46454799D01*
X56336788Y-46664267D01*
X56356404Y-46762883D01*
X56363517Y-46786332D01*
X56375068Y-46807943D01*
X56390613Y-46826885D01*
X56409555Y-46842430D01*
X56431166Y-46853981D01*
X56454615Y-46861094D01*
X56479001Y-46863496D01*
X56503387Y-46861094D01*
X56526836Y-46853981D01*
X56548447Y-46842430D01*
X56567389Y-46826885D01*
X56582934Y-46807943D01*
X56594485Y-46786332D01*
X56601598Y-46762883D01*
X56604000Y-46738497D01*
X56604000Y-45722502D01*
X56621378Y-45546064D01*
X56690052Y-45319674D01*
X56801573Y-45111033D01*
X56951656Y-44928156D01*
X57134532Y-44778073D01*
X57343173Y-44666552D01*
X57569563Y-44597878D01*
X57805000Y-44574689D01*
X58040436Y-44597878D01*
X58266826Y-44666552D01*
X58475467Y-44778073D01*
X58658344Y-44928156D01*
X58745592Y-45034468D01*
X58802376Y-45103659D01*
X58819703Y-45120986D01*
X58840077Y-45134599D01*
X58862716Y-45143977D01*
X58886749Y-45148757D01*
X58911253Y-45148757D01*
X58935287Y-45143976D01*
X58957925Y-45134599D01*
X58978300Y-45120985D01*
X58995627Y-45103658D01*
X59009240Y-45083284D01*
X59018618Y-45060645D01*
X59024000Y-45024360D01*
X59024000Y-44771861D01*
X59073996Y-44520513D01*
X59172068Y-44283747D01*
X59267919Y-44140296D01*
X59314447Y-44070661D01*
X59495661Y-43889447D01*
X59708745Y-43747069D01*
X59708747Y-43747068D01*
X59945513Y-43648996D01*
X60196861Y-43599000D01*
X60453139Y-43599000D01*
X60704487Y-43648996D01*
G37*
G36*
X80548237Y-43648996D02*
G01*
X80785003Y-43747068D01*
X80785005Y-43747069D01*
X80998089Y-43889447D01*
X81179303Y-44070661D01*
X81225832Y-44140296D01*
X81321682Y-44283747D01*
X81419754Y-44520513D01*
X81469750Y-44771861D01*
X81469750Y-45024361D01*
X81472152Y-45048747D01*
X81479265Y-45072196D01*
X81490816Y-45093807D01*
X81506361Y-45112749D01*
X81525303Y-45128294D01*
X81546914Y-45139845D01*
X81570363Y-45146958D01*
X81594749Y-45149360D01*
X81619135Y-45146958D01*
X81642584Y-45139845D01*
X81664195Y-45128294D01*
X81691371Y-45103664D01*
X81835406Y-44928156D01*
X82018282Y-44778073D01*
X82226923Y-44666552D01*
X82453313Y-44597878D01*
X82688750Y-44574689D01*
X82924186Y-44597878D01*
X83150576Y-44666552D01*
X83359217Y-44778073D01*
X83542094Y-44928156D01*
X83692177Y-45111032D01*
X83803698Y-45319673D01*
X83872372Y-45546063D01*
X83889750Y-45722501D01*
X83889750Y-46451658D01*
X83892152Y-46476044D01*
X83899265Y-46499493D01*
X83910816Y-46521104D01*
X83926361Y-46540046D01*
X83945303Y-46555591D01*
X83966914Y-46567142D01*
X83990363Y-46574255D01*
X84014749Y-46576657D01*
X84039135Y-46574255D01*
X84062584Y-46567142D01*
X84084195Y-46555591D01*
X84103137Y-46540046D01*
X84118682Y-46521104D01*
X84130233Y-46499493D01*
X84148746Y-46454799D01*
X84148747Y-46454797D01*
X84274710Y-46266280D01*
X84435030Y-46105960D01*
X84623547Y-45979997D01*
X84833016Y-45893232D01*
X84944201Y-45871116D01*
X85055385Y-45849000D01*
X85282115Y-45849000D01*
X85393299Y-45871116D01*
X85504484Y-45893232D01*
X85713953Y-45979997D01*
X85902470Y-46105960D01*
X86062790Y-46266280D01*
X86188753Y-46454797D01*
X86188754Y-46454799D01*
X86275518Y-46664267D01*
X86314670Y-46861094D01*
X86319750Y-46886636D01*
X86319750Y-47113364D01*
X86275518Y-47335734D01*
X86188753Y-47545203D01*
X86062790Y-47733720D01*
X85902470Y-47894040D01*
X85713953Y-48020003D01*
X85713952Y-48020004D01*
X85713951Y-48020004D01*
X85655717Y-48044125D01*
X85504484Y-48106768D01*
X85419502Y-48123672D01*
X85273363Y-48152741D01*
X85249914Y-48159854D01*
X85228303Y-48171405D01*
X85209361Y-48186950D01*
X85193816Y-48205892D01*
X85182265Y-48227503D01*
X85175152Y-48250952D01*
X85172750Y-48275338D01*
X85172750Y-48377600D01*
X85126866Y-48608276D01*
X85066049Y-48755100D01*
X85036859Y-48825571D01*
X84906190Y-49021130D01*
X84739880Y-49187440D01*
X84544321Y-49318109D01*
X84544320Y-49318110D01*
X84544319Y-49318110D01*
X84327026Y-49408116D01*
X84096350Y-49454000D01*
X83861150Y-49454000D01*
X83630474Y-49408116D01*
X83413181Y-49318110D01*
X83413180Y-49318110D01*
X83413179Y-49318109D01*
X83217620Y-49187440D01*
X83051310Y-49021130D01*
X82920641Y-48825571D01*
X82891451Y-48755100D01*
X82830634Y-48608276D01*
X82784750Y-48377600D01*
X82784750Y-48148058D01*
X82782348Y-48123672D01*
X82775235Y-48100223D01*
X82763684Y-48078612D01*
X82748139Y-48059670D01*
X82729197Y-48044125D01*
X82707586Y-48032574D01*
X82672006Y-48023662D01*
X82453314Y-48002122D01*
X82226924Y-47933448D01*
X82018283Y-47821927D01*
X81835407Y-47671844D01*
X81685324Y-47488968D01*
X81573802Y-47280327D01*
X81505128Y-47053937D01*
X81487750Y-46877499D01*
X81487750Y-45722502D01*
X81491374Y-45685708D01*
X81491374Y-45661204D01*
X81486593Y-45637170D01*
X81477216Y-45614532D01*
X81463602Y-45594157D01*
X81446274Y-45576831D01*
X81425900Y-45563217D01*
X81403261Y-45553840D01*
X81379228Y-45549060D01*
X81354724Y-45549060D01*
X81330690Y-45553841D01*
X81308052Y-45563218D01*
X81287677Y-45576832D01*
X81263044Y-45604012D01*
X81179305Y-45729337D01*
X80998089Y-45910553D01*
X80785005Y-46052931D01*
X80785004Y-46052932D01*
X80785003Y-46052932D01*
X80548237Y-46151004D01*
X80296889Y-46201000D01*
X80040611Y-46201000D01*
X79789263Y-46151004D01*
X79552497Y-46052932D01*
X79552496Y-46052932D01*
X79552495Y-46052931D01*
X79339411Y-45910553D01*
X79158195Y-45729337D01*
X79074456Y-45604012D01*
X79058911Y-45585070D01*
X79039969Y-45569524D01*
X79018358Y-45557973D01*
X78994909Y-45550860D01*
X78970523Y-45548458D01*
X78946137Y-45550860D01*
X78922688Y-45557973D01*
X78901078Y-45569524D01*
X78882136Y-45585069D01*
X78866590Y-45604011D01*
X78855039Y-45625622D01*
X78847926Y-45649071D01*
X78846126Y-45685707D01*
X78849750Y-45722501D01*
X78849750Y-46877499D01*
X78832372Y-47053937D01*
X78763698Y-47280327D01*
X78652177Y-47488968D01*
X78502094Y-47671844D01*
X78319218Y-47821927D01*
X78110577Y-47933448D01*
X77884187Y-48002122D01*
X77665492Y-48023662D01*
X77641464Y-48028441D01*
X77618825Y-48037819D01*
X77598450Y-48051433D01*
X77581123Y-48068760D01*
X77567510Y-48089134D01*
X77558132Y-48111773D01*
X77552750Y-48148058D01*
X77552750Y-48377600D01*
X77506866Y-48608276D01*
X77446049Y-48755100D01*
X77416859Y-48825571D01*
X77286190Y-49021130D01*
X77119880Y-49187440D01*
X76924321Y-49318109D01*
X76924320Y-49318110D01*
X76924319Y-49318110D01*
X76707026Y-49408116D01*
X76476350Y-49454000D01*
X76241150Y-49454000D01*
X76010474Y-49408116D01*
X75793181Y-49318110D01*
X75793180Y-49318110D01*
X75793179Y-49318109D01*
X75597620Y-49187440D01*
X75431310Y-49021130D01*
X75300641Y-48825571D01*
X75271451Y-48755100D01*
X75210634Y-48608276D01*
X75164750Y-48377600D01*
X75164750Y-48275999D01*
X75162348Y-48251613D01*
X75155235Y-48228164D01*
X75143684Y-48206553D01*
X75128139Y-48187611D01*
X75109197Y-48172066D01*
X75087586Y-48160515D01*
X75064137Y-48153402D01*
X75039751Y-48151000D01*
X74960405Y-48151000D01*
X74849221Y-48128884D01*
X74738036Y-48106768D01*
X74586803Y-48044125D01*
X74528569Y-48020004D01*
X74528568Y-48020004D01*
X74528567Y-48020003D01*
X74340050Y-47894040D01*
X74179730Y-47733720D01*
X74053767Y-47545203D01*
X73967002Y-47335734D01*
X73922770Y-47113364D01*
X73922770Y-46886636D01*
X73927851Y-46861094D01*
X73967002Y-46664267D01*
X74053766Y-46454799D01*
X74053767Y-46454797D01*
X74179730Y-46266280D01*
X74340050Y-46105960D01*
X74528567Y-45979997D01*
X74738036Y-45893232D01*
X74849221Y-45871116D01*
X74960405Y-45849000D01*
X75187135Y-45849000D01*
X75298319Y-45871116D01*
X75409504Y-45893232D01*
X75618973Y-45979997D01*
X75807490Y-46105960D01*
X75967810Y-46266280D01*
X76093773Y-46454797D01*
X76093774Y-46454799D01*
X76180538Y-46664267D01*
X76200154Y-46762883D01*
X76207267Y-46786332D01*
X76218818Y-46807943D01*
X76234363Y-46826885D01*
X76253305Y-46842430D01*
X76274916Y-46853981D01*
X76298365Y-46861094D01*
X76322751Y-46863496D01*
X76347137Y-46861094D01*
X76370586Y-46853981D01*
X76392197Y-46842430D01*
X76411139Y-46826885D01*
X76426684Y-46807943D01*
X76438235Y-46786332D01*
X76445348Y-46762883D01*
X76447750Y-46738497D01*
X76447750Y-45722502D01*
X76465128Y-45546064D01*
X76533802Y-45319674D01*
X76645323Y-45111033D01*
X76795406Y-44928156D01*
X76978282Y-44778073D01*
X77186923Y-44666552D01*
X77413313Y-44597878D01*
X77648750Y-44574689D01*
X77884186Y-44597878D01*
X78110576Y-44666552D01*
X78319217Y-44778073D01*
X78502094Y-44928156D01*
X78589342Y-45034468D01*
X78646126Y-45103659D01*
X78663453Y-45120986D01*
X78683827Y-45134599D01*
X78706466Y-45143977D01*
X78730499Y-45148757D01*
X78755003Y-45148757D01*
X78779037Y-45143976D01*
X78801675Y-45134599D01*
X78822050Y-45120985D01*
X78839377Y-45103658D01*
X78852990Y-45083284D01*
X78862368Y-45060645D01*
X78867750Y-45024360D01*
X78867750Y-44771861D01*
X78917746Y-44520513D01*
X79015818Y-44283747D01*
X79111669Y-44140296D01*
X79158197Y-44070661D01*
X79339411Y-43889447D01*
X79552495Y-43747069D01*
X79552497Y-43747068D01*
X79789263Y-43648996D01*
X80040611Y-43599000D01*
X80296889Y-43599000D01*
X80548237Y-43648996D01*
G37*
G36*
X127984468Y-46003565D02*
G01*
X128023138Y-46015296D01*
X128058777Y-46034346D01*
X128090017Y-46059983D01*
X128115654Y-46091223D01*
X128134704Y-46126862D01*
X128146435Y-46165532D01*
X128151000Y-46211888D01*
X128151000Y-46863112D01*
X128146435Y-46909468D01*
X128134704Y-46948138D01*
X128115654Y-46983777D01*
X128090017Y-47015017D01*
X128058777Y-47040654D01*
X128023138Y-47059704D01*
X127984468Y-47071435D01*
X127938112Y-47076000D01*
X126861888Y-47076000D01*
X126815532Y-47071435D01*
X126776862Y-47059704D01*
X126741223Y-47040654D01*
X126709983Y-47015017D01*
X126684346Y-46983777D01*
X126665296Y-46948138D01*
X126653565Y-46909468D01*
X126649000Y-46863112D01*
X126649000Y-46211888D01*
X126653565Y-46165532D01*
X126665296Y-46126862D01*
X126684346Y-46091223D01*
X126709983Y-46059983D01*
X126741223Y-46034346D01*
X126776862Y-46015296D01*
X126815532Y-46003565D01*
X126861888Y-45999000D01*
X127938112Y-45999000D01*
X127984468Y-46003565D01*
G37*
G36*
X124784468Y-46003565D02*
G01*
X124823138Y-46015296D01*
X124858777Y-46034346D01*
X124890017Y-46059983D01*
X124915654Y-46091223D01*
X124934704Y-46126862D01*
X124946435Y-46165532D01*
X124951000Y-46211888D01*
X124951000Y-46863112D01*
X124946435Y-46909468D01*
X124934704Y-46948138D01*
X124915654Y-46983777D01*
X124890017Y-47015017D01*
X124858777Y-47040654D01*
X124823138Y-47059704D01*
X124784468Y-47071435D01*
X124738112Y-47076000D01*
X123661888Y-47076000D01*
X123615532Y-47071435D01*
X123576862Y-47059704D01*
X123541223Y-47040654D01*
X123509983Y-47015017D01*
X123484346Y-46983777D01*
X123465296Y-46948138D01*
X123453565Y-46909468D01*
X123449000Y-46863112D01*
X123449000Y-46211888D01*
X123453565Y-46165532D01*
X123465296Y-46126862D01*
X123484346Y-46091223D01*
X123509983Y-46059983D01*
X123541223Y-46034346D01*
X123576862Y-46015296D01*
X123615532Y-46003565D01*
X123661888Y-45999000D01*
X124738112Y-45999000D01*
X124784468Y-46003565D01*
G37*
G36*
X127984468Y-44128565D02*
G01*
X128023138Y-44140296D01*
X128058777Y-44159346D01*
X128090017Y-44184983D01*
X128115654Y-44216223D01*
X128134704Y-44251862D01*
X128146435Y-44290532D01*
X128151000Y-44336888D01*
X128151000Y-44988112D01*
X128146435Y-45034468D01*
X128134704Y-45073138D01*
X128115654Y-45108777D01*
X128090017Y-45140017D01*
X128058777Y-45165654D01*
X128023138Y-45184704D01*
X127984468Y-45196435D01*
X127938112Y-45201000D01*
X126861888Y-45201000D01*
X126815532Y-45196435D01*
X126776862Y-45184704D01*
X126741223Y-45165654D01*
X126709983Y-45140017D01*
X126684346Y-45108777D01*
X126665296Y-45073138D01*
X126653565Y-45034468D01*
X126649000Y-44988112D01*
X126649000Y-44336888D01*
X126653565Y-44290532D01*
X126665296Y-44251862D01*
X126684346Y-44216223D01*
X126709983Y-44184983D01*
X126741223Y-44159346D01*
X126776862Y-44140296D01*
X126815532Y-44128565D01*
X126861888Y-44124000D01*
X127938112Y-44124000D01*
X127984468Y-44128565D01*
G37*
G36*
X124784468Y-44128565D02*
G01*
X124823138Y-44140296D01*
X124858777Y-44159346D01*
X124890017Y-44184983D01*
X124915654Y-44216223D01*
X124934704Y-44251862D01*
X124946435Y-44290532D01*
X124951000Y-44336888D01*
X124951000Y-44988112D01*
X124946435Y-45034468D01*
X124934704Y-45073138D01*
X124915654Y-45108777D01*
X124890017Y-45140017D01*
X124858777Y-45165654D01*
X124823138Y-45184704D01*
X124784468Y-45196435D01*
X124738112Y-45201000D01*
X123661888Y-45201000D01*
X123615532Y-45196435D01*
X123576862Y-45184704D01*
X123541223Y-45165654D01*
X123509983Y-45140017D01*
X123484346Y-45108777D01*
X123465296Y-45073138D01*
X123453565Y-45034468D01*
X123449000Y-44988112D01*
X123449000Y-44336888D01*
X123453565Y-44290532D01*
X123465296Y-44251862D01*
X123484346Y-44216223D01*
X123509983Y-44184983D01*
X123541223Y-44159346D01*
X123576862Y-44140296D01*
X123615532Y-44128565D01*
X123661888Y-44124000D01*
X124738112Y-44124000D01*
X124784468Y-44128565D01*
G37*
G36*
X130968604Y-43628347D02*
G01*
X131005144Y-43639432D01*
X131038821Y-43657433D01*
X131068341Y-43681659D01*
X131092567Y-43711179D01*
X131110568Y-43744856D01*
X131121653Y-43781396D01*
X131126000Y-43825538D01*
X131126000Y-44774462D01*
X131121653Y-44818604D01*
X131110568Y-44855144D01*
X131092567Y-44888821D01*
X131068341Y-44918341D01*
X131038821Y-44942567D01*
X131005144Y-44960568D01*
X130968604Y-44971653D01*
X130924462Y-44976000D01*
X129475538Y-44976000D01*
X129431396Y-44971653D01*
X129394856Y-44960568D01*
X129361179Y-44942567D01*
X129331659Y-44918341D01*
X129307433Y-44888821D01*
X129289432Y-44855144D01*
X129278347Y-44818604D01*
X129274000Y-44774462D01*
X129274000Y-43825538D01*
X129278347Y-43781396D01*
X129289432Y-43744856D01*
X129307433Y-43711179D01*
X129331659Y-43681659D01*
X129361179Y-43657433D01*
X129394856Y-43639432D01*
X129431396Y-43628347D01*
X129475538Y-43624000D01*
X130924462Y-43624000D01*
X130968604Y-43628347D01*
G37*
G36*
X122901000Y-42401000D02*
G01*
X122099000Y-42401000D01*
X122099000Y-41699000D01*
X122901000Y-41699000D01*
X122901000Y-42401000D01*
G37*
G36*
X120901000Y-42401000D02*
G01*
X120099000Y-42401000D01*
X120099000Y-41699000D01*
X120901000Y-41699000D01*
X120901000Y-42401000D01*
G37*
G36*
X130968604Y-40828347D02*
G01*
X131005144Y-40839432D01*
X131038821Y-40857433D01*
X131068341Y-40881659D01*
X131092567Y-40911179D01*
X131110568Y-40944856D01*
X131121653Y-40981396D01*
X131126000Y-41025538D01*
X131126000Y-41974462D01*
X131121653Y-42018604D01*
X131110568Y-42055144D01*
X131092567Y-42088821D01*
X131068341Y-42118341D01*
X131038821Y-42142567D01*
X131005144Y-42160568D01*
X130968604Y-42171653D01*
X130924462Y-42176000D01*
X129475538Y-42176000D01*
X129431396Y-42171653D01*
X129394856Y-42160568D01*
X129361179Y-42142567D01*
X129331659Y-42118341D01*
X129307433Y-42088821D01*
X129289432Y-42055144D01*
X129278347Y-42018604D01*
X129274000Y-41974462D01*
X129274000Y-41025538D01*
X129278347Y-40981396D01*
X129289432Y-40944856D01*
X129307433Y-40911179D01*
X129331659Y-40881659D01*
X129361179Y-40857433D01*
X129394856Y-40839432D01*
X129431396Y-40828347D01*
X129475538Y-40824000D01*
X130924462Y-40824000D01*
X130968604Y-40828347D01*
G37*
G36*
X120901000Y-40901000D02*
G01*
X120099000Y-40901000D01*
X120099000Y-39799000D01*
X120901000Y-39799000D01*
X120901000Y-40901000D01*
G37*
G36*
X122901000Y-40501000D02*
G01*
X122099000Y-40501000D01*
X122099000Y-39799000D01*
X122901000Y-39799000D01*
X122901000Y-40501000D01*
G37*
G36*
X55447861Y-38872792D02*
G01*
X54739340Y-39581313D01*
X53818687Y-38660660D01*
X54527208Y-37952139D01*
X55447861Y-38872792D01*
G37*
G36*
X85447861Y-38872792D02*
G01*
X84739340Y-39581313D01*
X83818687Y-38660660D01*
X84527208Y-37952139D01*
X85447861Y-38872792D01*
G37*
G36*
X70447861Y-38872792D02*
G01*
X69739340Y-39581313D01*
X68818687Y-38660660D01*
X69527208Y-37952139D01*
X70447861Y-38872792D01*
G37*
G36*
X136209468Y-37403565D02*
G01*
X136248138Y-37415296D01*
X136283777Y-37434346D01*
X136315017Y-37459983D01*
X136340654Y-37491223D01*
X136359704Y-37526862D01*
X136371435Y-37565532D01*
X136376000Y-37611888D01*
X136376000Y-38688112D01*
X136371435Y-38734468D01*
X136359704Y-38773138D01*
X136340654Y-38808777D01*
X136315017Y-38840017D01*
X136283777Y-38865654D01*
X136248138Y-38884704D01*
X136209468Y-38896435D01*
X136163112Y-38901000D01*
X135511888Y-38901000D01*
X135465532Y-38896435D01*
X135426862Y-38884704D01*
X135391223Y-38865654D01*
X135359983Y-38840017D01*
X135334346Y-38808777D01*
X135315296Y-38773138D01*
X135303565Y-38734468D01*
X135299000Y-38688112D01*
X135299000Y-37611888D01*
X135303565Y-37565532D01*
X135315296Y-37526862D01*
X135334346Y-37491223D01*
X135359983Y-37459983D01*
X135391223Y-37434346D01*
X135426862Y-37415296D01*
X135465532Y-37403565D01*
X135511888Y-37399000D01*
X136163112Y-37399000D01*
X136209468Y-37403565D01*
G37*
G36*
X134334468Y-37403565D02*
G01*
X134373138Y-37415296D01*
X134408777Y-37434346D01*
X134440017Y-37459983D01*
X134465654Y-37491223D01*
X134484704Y-37526862D01*
X134496435Y-37565532D01*
X134501000Y-37611888D01*
X134501000Y-38688112D01*
X134496435Y-38734468D01*
X134484704Y-38773138D01*
X134465654Y-38808777D01*
X134440017Y-38840017D01*
X134408777Y-38865654D01*
X134373138Y-38884704D01*
X134334468Y-38896435D01*
X134288112Y-38901000D01*
X133636888Y-38901000D01*
X133590532Y-38896435D01*
X133551862Y-38884704D01*
X133516223Y-38865654D01*
X133484983Y-38840017D01*
X133459346Y-38808777D01*
X133440296Y-38773138D01*
X133428565Y-38734468D01*
X133424000Y-38688112D01*
X133424000Y-37611888D01*
X133428565Y-37565532D01*
X133440296Y-37526862D01*
X133459346Y-37491223D01*
X133484983Y-37459983D01*
X133516223Y-37434346D01*
X133551862Y-37415296D01*
X133590532Y-37403565D01*
X133636888Y-37399000D01*
X134288112Y-37399000D01*
X134334468Y-37403565D01*
G37*
G36*
X107451000Y-37251000D02*
G01*
X105549000Y-37251000D01*
X105549000Y-36049000D01*
X107451000Y-36049000D01*
X107451000Y-37251000D01*
G37*
G36*
X113651000Y-37251000D02*
G01*
X111749000Y-37251000D01*
X111749000Y-36049000D01*
X113651000Y-36049000D01*
X113651000Y-37251000D01*
G37*
G36*
X87781313Y-36539340D02*
G01*
X87072792Y-37247861D01*
X86152139Y-36327208D01*
X86860660Y-35618687D01*
X87781313Y-36539340D01*
G37*
G36*
X57781313Y-36539340D02*
G01*
X57072792Y-37247861D01*
X56152139Y-36327208D01*
X56860660Y-35618687D01*
X57781313Y-36539340D01*
G37*
G36*
X72781313Y-36539340D02*
G01*
X72072792Y-37247861D01*
X71152139Y-36327208D01*
X71860660Y-35618687D01*
X72781313Y-36539340D01*
G37*
G36*
X120628231Y-35506705D02*
G01*
X120666967Y-35514410D01*
X120697195Y-35526931D01*
X120739944Y-35544638D01*
X120805622Y-35588523D01*
X120861478Y-35644379D01*
X120871067Y-35658730D01*
X120886613Y-35677672D01*
X120905555Y-35693217D01*
X120927165Y-35704768D01*
X120950614Y-35711881D01*
X120975001Y-35714283D01*
X120999387Y-35711881D01*
X121022836Y-35704768D01*
X121044446Y-35693217D01*
X121063388Y-35677671D01*
X121078933Y-35658730D01*
X121088522Y-35644379D01*
X121144378Y-35588523D01*
X121210056Y-35544638D01*
X121252805Y-35526931D01*
X121283033Y-35514410D01*
X121321769Y-35506705D01*
X121360504Y-35499000D01*
X121439496Y-35499000D01*
X121478231Y-35506705D01*
X121516967Y-35514410D01*
X121547195Y-35526931D01*
X121589944Y-35544638D01*
X121655622Y-35588523D01*
X121711478Y-35644379D01*
X121721067Y-35658730D01*
X121736613Y-35677672D01*
X121755555Y-35693217D01*
X121777165Y-35704768D01*
X121800614Y-35711881D01*
X121825001Y-35714283D01*
X121849387Y-35711881D01*
X121872836Y-35704768D01*
X121894446Y-35693217D01*
X121913388Y-35677671D01*
X121928933Y-35658730D01*
X121938522Y-35644379D01*
X121994378Y-35588523D01*
X122060056Y-35544638D01*
X122102805Y-35526931D01*
X122133033Y-35514410D01*
X122171769Y-35506705D01*
X122210504Y-35499000D01*
X122289496Y-35499000D01*
X122328231Y-35506705D01*
X122366967Y-35514410D01*
X122397195Y-35526931D01*
X122439944Y-35544638D01*
X122505622Y-35588523D01*
X122561478Y-35644379D01*
X122571067Y-35658730D01*
X122586613Y-35677672D01*
X122605555Y-35693217D01*
X122627165Y-35704768D01*
X122650614Y-35711881D01*
X122675001Y-35714283D01*
X122699387Y-35711881D01*
X122722836Y-35704768D01*
X122744446Y-35693217D01*
X122763388Y-35677671D01*
X122778933Y-35658730D01*
X122788522Y-35644379D01*
X122844378Y-35588523D01*
X122910056Y-35544638D01*
X122952805Y-35526931D01*
X122983033Y-35514410D01*
X123021769Y-35506705D01*
X123060504Y-35499000D01*
X123139496Y-35499000D01*
X123178231Y-35506705D01*
X123216967Y-35514410D01*
X123247195Y-35526931D01*
X123289944Y-35544638D01*
X123355622Y-35588523D01*
X123411478Y-35644379D01*
X123421067Y-35658730D01*
X123436613Y-35677672D01*
X123455555Y-35693217D01*
X123477165Y-35704768D01*
X123500614Y-35711881D01*
X123525001Y-35714283D01*
X123549387Y-35711881D01*
X123572836Y-35704768D01*
X123594446Y-35693217D01*
X123613388Y-35677671D01*
X123628933Y-35658730D01*
X123638522Y-35644379D01*
X123694378Y-35588523D01*
X123760056Y-35544638D01*
X123802805Y-35526931D01*
X123833033Y-35514410D01*
X123871769Y-35506705D01*
X123910504Y-35499000D01*
X123989496Y-35499000D01*
X124028231Y-35506705D01*
X124066967Y-35514410D01*
X124097195Y-35526931D01*
X124139944Y-35544638D01*
X124205622Y-35588523D01*
X124261478Y-35644379D01*
X124271067Y-35658730D01*
X124286613Y-35677672D01*
X124305555Y-35693217D01*
X124327165Y-35704768D01*
X124350614Y-35711881D01*
X124375001Y-35714283D01*
X124399387Y-35711881D01*
X124422836Y-35704768D01*
X124444446Y-35693217D01*
X124463388Y-35677671D01*
X124478933Y-35658730D01*
X124488522Y-35644379D01*
X124544378Y-35588523D01*
X124610056Y-35544638D01*
X124652805Y-35526931D01*
X124683033Y-35514410D01*
X124721769Y-35506705D01*
X124760504Y-35499000D01*
X124839496Y-35499000D01*
X124878231Y-35506705D01*
X124916967Y-35514410D01*
X124947195Y-35526931D01*
X124989944Y-35544638D01*
X125055622Y-35588523D01*
X125111478Y-35644379D01*
X125121067Y-35658730D01*
X125136613Y-35677672D01*
X125155555Y-35693217D01*
X125177165Y-35704768D01*
X125200614Y-35711881D01*
X125225001Y-35714283D01*
X125249387Y-35711881D01*
X125272836Y-35704768D01*
X125294446Y-35693217D01*
X125313388Y-35677671D01*
X125328933Y-35658730D01*
X125338522Y-35644379D01*
X125394378Y-35588523D01*
X125460056Y-35544638D01*
X125502805Y-35526931D01*
X125533033Y-35514410D01*
X125571769Y-35506705D01*
X125610504Y-35499000D01*
X125689496Y-35499000D01*
X125728231Y-35506705D01*
X125766967Y-35514410D01*
X125797195Y-35526931D01*
X125839944Y-35544638D01*
X125905622Y-35588523D01*
X125961478Y-35644379D01*
X125971067Y-35658730D01*
X125986613Y-35677672D01*
X126005555Y-35693217D01*
X126027165Y-35704768D01*
X126050614Y-35711881D01*
X126075001Y-35714283D01*
X126099387Y-35711881D01*
X126122836Y-35704768D01*
X126144446Y-35693217D01*
X126163388Y-35677671D01*
X126178933Y-35658730D01*
X126188522Y-35644379D01*
X126244378Y-35588523D01*
X126310056Y-35544638D01*
X126352805Y-35526931D01*
X126383033Y-35514410D01*
X126421769Y-35506705D01*
X126460504Y-35499000D01*
X126539496Y-35499000D01*
X126578231Y-35506705D01*
X126616967Y-35514410D01*
X126647195Y-35526931D01*
X126689944Y-35544638D01*
X126755622Y-35588523D01*
X126811477Y-35644378D01*
X126855362Y-35710056D01*
X126865395Y-35734278D01*
X126885590Y-35783033D01*
X126901000Y-35860505D01*
X126901000Y-35939495D01*
X126885590Y-36016967D01*
X126873069Y-36047195D01*
X126855362Y-36089944D01*
X126811477Y-36155622D01*
X126755622Y-36211477D01*
X126689944Y-36255362D01*
X126647195Y-36273069D01*
X126616967Y-36285590D01*
X126578231Y-36293295D01*
X126539496Y-36301000D01*
X126460504Y-36301000D01*
X126421769Y-36293295D01*
X126383033Y-36285590D01*
X126352805Y-36273069D01*
X126310056Y-36255362D01*
X126244378Y-36211477D01*
X126188522Y-36155621D01*
X126178933Y-36141270D01*
X126163387Y-36122328D01*
X126144445Y-36106783D01*
X126122835Y-36095232D01*
X126099386Y-36088119D01*
X126074999Y-36085717D01*
X126050613Y-36088119D01*
X126027164Y-36095232D01*
X126005554Y-36106783D01*
X125986612Y-36122329D01*
X125971067Y-36141270D01*
X125961478Y-36155621D01*
X125905622Y-36211477D01*
X125839944Y-36255362D01*
X125797195Y-36273069D01*
X125766967Y-36285590D01*
X125728231Y-36293295D01*
X125689496Y-36301000D01*
X125610504Y-36301000D01*
X125571769Y-36293295D01*
X125533033Y-36285590D01*
X125502805Y-36273069D01*
X125460056Y-36255362D01*
X125394378Y-36211477D01*
X125338522Y-36155621D01*
X125328933Y-36141270D01*
X125313387Y-36122328D01*
X125294445Y-36106783D01*
X125272835Y-36095232D01*
X125249386Y-36088119D01*
X125224999Y-36085717D01*
X125200613Y-36088119D01*
X125177164Y-36095232D01*
X125155554Y-36106783D01*
X125136612Y-36122329D01*
X125121067Y-36141270D01*
X125111478Y-36155621D01*
X125055622Y-36211477D01*
X124989944Y-36255362D01*
X124947195Y-36273069D01*
X124916967Y-36285590D01*
X124878231Y-36293295D01*
X124839496Y-36301000D01*
X124760504Y-36301000D01*
X124721769Y-36293295D01*
X124683033Y-36285590D01*
X124652805Y-36273069D01*
X124610056Y-36255362D01*
X124544378Y-36211477D01*
X124488522Y-36155621D01*
X124478933Y-36141270D01*
X124463387Y-36122328D01*
X124444445Y-36106783D01*
X124422835Y-36095232D01*
X124399386Y-36088119D01*
X124374999Y-36085717D01*
X124350613Y-36088119D01*
X124327164Y-36095232D01*
X124305554Y-36106783D01*
X124286612Y-36122329D01*
X124271067Y-36141270D01*
X124261478Y-36155621D01*
X124205622Y-36211477D01*
X124139944Y-36255362D01*
X124097195Y-36273069D01*
X124066967Y-36285590D01*
X124028231Y-36293295D01*
X123989496Y-36301000D01*
X123910504Y-36301000D01*
X123871769Y-36293295D01*
X123833033Y-36285590D01*
X123802805Y-36273069D01*
X123760056Y-36255362D01*
X123694378Y-36211477D01*
X123638522Y-36155621D01*
X123628933Y-36141270D01*
X123613387Y-36122328D01*
X123594445Y-36106783D01*
X123572835Y-36095232D01*
X123549386Y-36088119D01*
X123524999Y-36085717D01*
X123500613Y-36088119D01*
X123477164Y-36095232D01*
X123455554Y-36106783D01*
X123436612Y-36122329D01*
X123421067Y-36141270D01*
X123411478Y-36155621D01*
X123355622Y-36211477D01*
X123289944Y-36255362D01*
X123247195Y-36273069D01*
X123216967Y-36285590D01*
X123178231Y-36293295D01*
X123139496Y-36301000D01*
X123060504Y-36301000D01*
X123021769Y-36293295D01*
X122983033Y-36285590D01*
X122952805Y-36273069D01*
X122910056Y-36255362D01*
X122844378Y-36211477D01*
X122788522Y-36155621D01*
X122778933Y-36141270D01*
X122763387Y-36122328D01*
X122744445Y-36106783D01*
X122722835Y-36095232D01*
X122699386Y-36088119D01*
X122674999Y-36085717D01*
X122650613Y-36088119D01*
X122627164Y-36095232D01*
X122605554Y-36106783D01*
X122586612Y-36122329D01*
X122571067Y-36141270D01*
X122561478Y-36155621D01*
X122505622Y-36211477D01*
X122439944Y-36255362D01*
X122397195Y-36273069D01*
X122366967Y-36285590D01*
X122328231Y-36293295D01*
X122289496Y-36301000D01*
X122210504Y-36301000D01*
X122171769Y-36293295D01*
X122133033Y-36285590D01*
X122102805Y-36273069D01*
X122060056Y-36255362D01*
X121994378Y-36211477D01*
X121938522Y-36155621D01*
X121928933Y-36141270D01*
X121913387Y-36122328D01*
X121894445Y-36106783D01*
X121872835Y-36095232D01*
X121849386Y-36088119D01*
X121824999Y-36085717D01*
X121800613Y-36088119D01*
X121777164Y-36095232D01*
X121755554Y-36106783D01*
X121736612Y-36122329D01*
X121721067Y-36141270D01*
X121711478Y-36155621D01*
X121655622Y-36211477D01*
X121589944Y-36255362D01*
X121547195Y-36273069D01*
X121516967Y-36285590D01*
X121478231Y-36293295D01*
X121439496Y-36301000D01*
X121360504Y-36301000D01*
X121321769Y-36293295D01*
X121283033Y-36285590D01*
X121252805Y-36273069D01*
X121210056Y-36255362D01*
X121144378Y-36211477D01*
X121088522Y-36155621D01*
X121078933Y-36141270D01*
X121063387Y-36122328D01*
X121044445Y-36106783D01*
X121022835Y-36095232D01*
X120999386Y-36088119D01*
X120974999Y-36085717D01*
X120950613Y-36088119D01*
X120927164Y-36095232D01*
X120905554Y-36106783D01*
X120886612Y-36122329D01*
X120871067Y-36141270D01*
X120861478Y-36155621D01*
X120805622Y-36211477D01*
X120739944Y-36255362D01*
X120697195Y-36273069D01*
X120666967Y-36285590D01*
X120628231Y-36293295D01*
X120589496Y-36301000D01*
X120510504Y-36301000D01*
X120471769Y-36293295D01*
X120433033Y-36285590D01*
X120402805Y-36273069D01*
X120360056Y-36255362D01*
X120294378Y-36211477D01*
X120238523Y-36155622D01*
X120194638Y-36089944D01*
X120176931Y-36047195D01*
X120164410Y-36016967D01*
X120149000Y-35939495D01*
X120149000Y-35860505D01*
X120164410Y-35783033D01*
X120184605Y-35734278D01*
X120194638Y-35710056D01*
X120238523Y-35644378D01*
X120294378Y-35588523D01*
X120360056Y-35544638D01*
X120402805Y-35526931D01*
X120433033Y-35514410D01*
X120471769Y-35506705D01*
X120510504Y-35499000D01*
X120589496Y-35499000D01*
X120628231Y-35506705D01*
G37*
G36*
X127948213Y-33676249D02*
G01*
X128042652Y-33704897D01*
X128129687Y-33751418D01*
X128205975Y-33814025D01*
X128268582Y-33890313D01*
X128315103Y-33977348D01*
X128343751Y-34071787D01*
X128351000Y-34145388D01*
X128351000Y-35694612D01*
X128343751Y-35768213D01*
X128315103Y-35862652D01*
X128268582Y-35949687D01*
X128205975Y-36025975D01*
X128129687Y-36088582D01*
X128042651Y-36135103D01*
X127948212Y-36163751D01*
X127850000Y-36173424D01*
X127751787Y-36163751D01*
X127657348Y-36135103D01*
X127570313Y-36088582D01*
X127494025Y-36025975D01*
X127431418Y-35949687D01*
X127384897Y-35862651D01*
X127356249Y-35768212D01*
X127349000Y-35694611D01*
X127349001Y-34145388D01*
X127356250Y-34071787D01*
X127384898Y-33977348D01*
X127431419Y-33890313D01*
X127494026Y-33814025D01*
X127570314Y-33751418D01*
X127657349Y-33704897D01*
X127751788Y-33676249D01*
X127850000Y-33666576D01*
X127948213Y-33676249D01*
G37*
G36*
X119298213Y-33676249D02*
G01*
X119392652Y-33704897D01*
X119479687Y-33751418D01*
X119555975Y-33814025D01*
X119618582Y-33890313D01*
X119665103Y-33977348D01*
X119693751Y-34071787D01*
X119701000Y-34145388D01*
X119701000Y-35694612D01*
X119693751Y-35768213D01*
X119665103Y-35862652D01*
X119618582Y-35949687D01*
X119555975Y-36025975D01*
X119479687Y-36088582D01*
X119392651Y-36135103D01*
X119298212Y-36163751D01*
X119200000Y-36173424D01*
X119101787Y-36163751D01*
X119007348Y-36135103D01*
X118920313Y-36088582D01*
X118844025Y-36025975D01*
X118781418Y-35949687D01*
X118734897Y-35862651D01*
X118706249Y-35768212D01*
X118699000Y-35694611D01*
X118699001Y-34145388D01*
X118706250Y-34071787D01*
X118734898Y-33977348D01*
X118781419Y-33890313D01*
X118844026Y-33814025D01*
X118920314Y-33751418D01*
X119007349Y-33704897D01*
X119101788Y-33676249D01*
X119200000Y-33666576D01*
X119298213Y-33676249D01*
G37*
G36*
X136209468Y-34453565D02*
G01*
X136248138Y-34465296D01*
X136283777Y-34484346D01*
X136315017Y-34509983D01*
X136340654Y-34541223D01*
X136359704Y-34576862D01*
X136371435Y-34615532D01*
X136376000Y-34661888D01*
X136376000Y-35738112D01*
X136371435Y-35784468D01*
X136359704Y-35823138D01*
X136340654Y-35858777D01*
X136315017Y-35890017D01*
X136283777Y-35915654D01*
X136248138Y-35934704D01*
X136209468Y-35946435D01*
X136163112Y-35951000D01*
X135511888Y-35951000D01*
X135465532Y-35946435D01*
X135426862Y-35934704D01*
X135391223Y-35915654D01*
X135359983Y-35890017D01*
X135334346Y-35858777D01*
X135315296Y-35823138D01*
X135303565Y-35784468D01*
X135299000Y-35738112D01*
X135299000Y-34661888D01*
X135303565Y-34615532D01*
X135315296Y-34576862D01*
X135334346Y-34541223D01*
X135359983Y-34509983D01*
X135391223Y-34484346D01*
X135426862Y-34465296D01*
X135465532Y-34453565D01*
X135511888Y-34449000D01*
X136163112Y-34449000D01*
X136209468Y-34453565D01*
G37*
G36*
X134334468Y-34453565D02*
G01*
X134373138Y-34465296D01*
X134408777Y-34484346D01*
X134440017Y-34509983D01*
X134465654Y-34541223D01*
X134484704Y-34576862D01*
X134496435Y-34615532D01*
X134501000Y-34661888D01*
X134501000Y-35738112D01*
X134496435Y-35784468D01*
X134484704Y-35823138D01*
X134465654Y-35858777D01*
X134440017Y-35890017D01*
X134408777Y-35915654D01*
X134373138Y-35934704D01*
X134334468Y-35946435D01*
X134288112Y-35951000D01*
X133636888Y-35951000D01*
X133590532Y-35946435D01*
X133551862Y-35934704D01*
X133516223Y-35915654D01*
X133484983Y-35890017D01*
X133459346Y-35858777D01*
X133440296Y-35823138D01*
X133428565Y-35784468D01*
X133424000Y-35738112D01*
X133424000Y-34661888D01*
X133428565Y-34615532D01*
X133440296Y-34576862D01*
X133459346Y-34541223D01*
X133484983Y-34509983D01*
X133516223Y-34484346D01*
X133551862Y-34465296D01*
X133590532Y-34453565D01*
X133636888Y-34449000D01*
X134288112Y-34449000D01*
X134334468Y-34453565D01*
G37*
G36*
X79947861Y-34872792D02*
G01*
X79239340Y-35581313D01*
X78318687Y-34660660D01*
X79027208Y-33952139D01*
X79947861Y-34872792D01*
G37*
G36*
X64947861Y-34872792D02*
G01*
X64239340Y-35581313D01*
X63318687Y-34660660D01*
X64027208Y-33952139D01*
X64947861Y-34872792D01*
G37*
G36*
X94947861Y-34872792D02*
G01*
X94239340Y-35581313D01*
X93318687Y-34660660D01*
X94027208Y-33952139D01*
X94947861Y-34872792D01*
G37*
G36*
X120628231Y-34156705D02*
G01*
X120666967Y-34164410D01*
X120697195Y-34176931D01*
X120739944Y-34194638D01*
X120805622Y-34238523D01*
X120861478Y-34294379D01*
X120871067Y-34308730D01*
X120886613Y-34327672D01*
X120905555Y-34343217D01*
X120927165Y-34354768D01*
X120950614Y-34361881D01*
X120975001Y-34364283D01*
X120999387Y-34361881D01*
X121022836Y-34354768D01*
X121044446Y-34343217D01*
X121063388Y-34327671D01*
X121078933Y-34308730D01*
X121088522Y-34294379D01*
X121144378Y-34238523D01*
X121210056Y-34194638D01*
X121252805Y-34176931D01*
X121283033Y-34164410D01*
X121321769Y-34156705D01*
X121360504Y-34149000D01*
X121439496Y-34149000D01*
X121478231Y-34156705D01*
X121516967Y-34164410D01*
X121547195Y-34176931D01*
X121589944Y-34194638D01*
X121655622Y-34238523D01*
X121711478Y-34294379D01*
X121721067Y-34308730D01*
X121736613Y-34327672D01*
X121755555Y-34343217D01*
X121777165Y-34354768D01*
X121800614Y-34361881D01*
X121825001Y-34364283D01*
X121849387Y-34361881D01*
X121872836Y-34354768D01*
X121894446Y-34343217D01*
X121913388Y-34327671D01*
X121928933Y-34308730D01*
X121938522Y-34294379D01*
X121994378Y-34238523D01*
X122060056Y-34194638D01*
X122102805Y-34176931D01*
X122133033Y-34164410D01*
X122171769Y-34156705D01*
X122210504Y-34149000D01*
X122289496Y-34149000D01*
X122328231Y-34156705D01*
X122366967Y-34164410D01*
X122397195Y-34176931D01*
X122439944Y-34194638D01*
X122505622Y-34238523D01*
X122561478Y-34294379D01*
X122571067Y-34308730D01*
X122586613Y-34327672D01*
X122605555Y-34343217D01*
X122627165Y-34354768D01*
X122650614Y-34361881D01*
X122675001Y-34364283D01*
X122699387Y-34361881D01*
X122722836Y-34354768D01*
X122744446Y-34343217D01*
X122763388Y-34327671D01*
X122778933Y-34308730D01*
X122788522Y-34294379D01*
X122844378Y-34238523D01*
X122910056Y-34194638D01*
X122952805Y-34176931D01*
X122983033Y-34164410D01*
X123021769Y-34156705D01*
X123060504Y-34149000D01*
X123139496Y-34149000D01*
X123178231Y-34156705D01*
X123216967Y-34164410D01*
X123247195Y-34176931D01*
X123289944Y-34194638D01*
X123355622Y-34238523D01*
X123411478Y-34294379D01*
X123421067Y-34308730D01*
X123436613Y-34327672D01*
X123455555Y-34343217D01*
X123477165Y-34354768D01*
X123500614Y-34361881D01*
X123525001Y-34364283D01*
X123549387Y-34361881D01*
X123572836Y-34354768D01*
X123594446Y-34343217D01*
X123613388Y-34327671D01*
X123628933Y-34308730D01*
X123638522Y-34294379D01*
X123694378Y-34238523D01*
X123760056Y-34194638D01*
X123802805Y-34176931D01*
X123833033Y-34164410D01*
X123871769Y-34156705D01*
X123910504Y-34149000D01*
X123989496Y-34149000D01*
X124028231Y-34156705D01*
X124066967Y-34164410D01*
X124097195Y-34176931D01*
X124139944Y-34194638D01*
X124205622Y-34238523D01*
X124261478Y-34294379D01*
X124271067Y-34308730D01*
X124286613Y-34327672D01*
X124305555Y-34343217D01*
X124327165Y-34354768D01*
X124350614Y-34361881D01*
X124375001Y-34364283D01*
X124399387Y-34361881D01*
X124422836Y-34354768D01*
X124444446Y-34343217D01*
X124463388Y-34327671D01*
X124478933Y-34308730D01*
X124488522Y-34294379D01*
X124544378Y-34238523D01*
X124610056Y-34194638D01*
X124652805Y-34176931D01*
X124683033Y-34164410D01*
X124721769Y-34156705D01*
X124760504Y-34149000D01*
X124839496Y-34149000D01*
X124878231Y-34156705D01*
X124916967Y-34164410D01*
X124947195Y-34176931D01*
X124989944Y-34194638D01*
X125055622Y-34238523D01*
X125111478Y-34294379D01*
X125121067Y-34308730D01*
X125136613Y-34327672D01*
X125155555Y-34343217D01*
X125177165Y-34354768D01*
X125200614Y-34361881D01*
X125225001Y-34364283D01*
X125249387Y-34361881D01*
X125272836Y-34354768D01*
X125294446Y-34343217D01*
X125313388Y-34327671D01*
X125328933Y-34308730D01*
X125338522Y-34294379D01*
X125394378Y-34238523D01*
X125460056Y-34194638D01*
X125502805Y-34176931D01*
X125533033Y-34164410D01*
X125571769Y-34156705D01*
X125610504Y-34149000D01*
X125689496Y-34149000D01*
X125728231Y-34156705D01*
X125766967Y-34164410D01*
X125797195Y-34176931D01*
X125839944Y-34194638D01*
X125905622Y-34238523D01*
X125961478Y-34294379D01*
X125971067Y-34308730D01*
X125986613Y-34327672D01*
X126005555Y-34343217D01*
X126027165Y-34354768D01*
X126050614Y-34361881D01*
X126075001Y-34364283D01*
X126099387Y-34361881D01*
X126122836Y-34354768D01*
X126144446Y-34343217D01*
X126163388Y-34327671D01*
X126178933Y-34308730D01*
X126188522Y-34294379D01*
X126244378Y-34238523D01*
X126310056Y-34194638D01*
X126352805Y-34176931D01*
X126383033Y-34164410D01*
X126421769Y-34156705D01*
X126460504Y-34149000D01*
X126539496Y-34149000D01*
X126578231Y-34156705D01*
X126616967Y-34164410D01*
X126647195Y-34176931D01*
X126689944Y-34194638D01*
X126755622Y-34238523D01*
X126811477Y-34294378D01*
X126855362Y-34360056D01*
X126873069Y-34402805D01*
X126885590Y-34433033D01*
X126901000Y-34510505D01*
X126901000Y-34589495D01*
X126885838Y-34665722D01*
X126885590Y-34666966D01*
X126855362Y-34739944D01*
X126811477Y-34805622D01*
X126755622Y-34861477D01*
X126689944Y-34905362D01*
X126647195Y-34923069D01*
X126616967Y-34935590D01*
X126578231Y-34943295D01*
X126539496Y-34951000D01*
X126460504Y-34951000D01*
X126421769Y-34943295D01*
X126383033Y-34935590D01*
X126352805Y-34923069D01*
X126310056Y-34905362D01*
X126244378Y-34861477D01*
X126188522Y-34805621D01*
X126178933Y-34791270D01*
X126163387Y-34772328D01*
X126144445Y-34756783D01*
X126122835Y-34745232D01*
X126099386Y-34738119D01*
X126074999Y-34735717D01*
X126050613Y-34738119D01*
X126027164Y-34745232D01*
X126005554Y-34756783D01*
X125986612Y-34772329D01*
X125971067Y-34791270D01*
X125961478Y-34805621D01*
X125905622Y-34861477D01*
X125839944Y-34905362D01*
X125797195Y-34923069D01*
X125766967Y-34935590D01*
X125728231Y-34943295D01*
X125689496Y-34951000D01*
X125610504Y-34951000D01*
X125571769Y-34943295D01*
X125533033Y-34935590D01*
X125502805Y-34923069D01*
X125460056Y-34905362D01*
X125394378Y-34861477D01*
X125338522Y-34805621D01*
X125328933Y-34791270D01*
X125313387Y-34772328D01*
X125294445Y-34756783D01*
X125272835Y-34745232D01*
X125249386Y-34738119D01*
X125224999Y-34735717D01*
X125200613Y-34738119D01*
X125177164Y-34745232D01*
X125155554Y-34756783D01*
X125136612Y-34772329D01*
X125121067Y-34791270D01*
X125111478Y-34805621D01*
X125055622Y-34861477D01*
X124989944Y-34905362D01*
X124947195Y-34923069D01*
X124916967Y-34935590D01*
X124878231Y-34943295D01*
X124839496Y-34951000D01*
X124760504Y-34951000D01*
X124721769Y-34943295D01*
X124683033Y-34935590D01*
X124652805Y-34923069D01*
X124610056Y-34905362D01*
X124544378Y-34861477D01*
X124488522Y-34805621D01*
X124478933Y-34791270D01*
X124463387Y-34772328D01*
X124444445Y-34756783D01*
X124422835Y-34745232D01*
X124399386Y-34738119D01*
X124374999Y-34735717D01*
X124350613Y-34738119D01*
X124327164Y-34745232D01*
X124305554Y-34756783D01*
X124286612Y-34772329D01*
X124271067Y-34791270D01*
X124261478Y-34805621D01*
X124205622Y-34861477D01*
X124139944Y-34905362D01*
X124097195Y-34923069D01*
X124066967Y-34935590D01*
X124028231Y-34943295D01*
X123989496Y-34951000D01*
X123910504Y-34951000D01*
X123871769Y-34943295D01*
X123833033Y-34935590D01*
X123802805Y-34923069D01*
X123760056Y-34905362D01*
X123694378Y-34861477D01*
X123638522Y-34805621D01*
X123628933Y-34791270D01*
X123613387Y-34772328D01*
X123594445Y-34756783D01*
X123572835Y-34745232D01*
X123549386Y-34738119D01*
X123524999Y-34735717D01*
X123500613Y-34738119D01*
X123477164Y-34745232D01*
X123455554Y-34756783D01*
X123436612Y-34772329D01*
X123421067Y-34791270D01*
X123411478Y-34805621D01*
X123355622Y-34861477D01*
X123289944Y-34905362D01*
X123247195Y-34923069D01*
X123216967Y-34935590D01*
X123178231Y-34943295D01*
X123139496Y-34951000D01*
X123060504Y-34951000D01*
X123021769Y-34943295D01*
X122983033Y-34935590D01*
X122952805Y-34923069D01*
X122910056Y-34905362D01*
X122844378Y-34861477D01*
X122788522Y-34805621D01*
X122778933Y-34791270D01*
X122763387Y-34772328D01*
X122744445Y-34756783D01*
X122722835Y-34745232D01*
X122699386Y-34738119D01*
X122674999Y-34735717D01*
X122650613Y-34738119D01*
X122627164Y-34745232D01*
X122605554Y-34756783D01*
X122586612Y-34772329D01*
X122571067Y-34791270D01*
X122561478Y-34805621D01*
X122505622Y-34861477D01*
X122439944Y-34905362D01*
X122397195Y-34923069D01*
X122366967Y-34935590D01*
X122328231Y-34943295D01*
X122289496Y-34951000D01*
X122210504Y-34951000D01*
X122171769Y-34943295D01*
X122133033Y-34935590D01*
X122102805Y-34923069D01*
X122060056Y-34905362D01*
X121994378Y-34861477D01*
X121938522Y-34805621D01*
X121928933Y-34791270D01*
X121913387Y-34772328D01*
X121894445Y-34756783D01*
X121872835Y-34745232D01*
X121849386Y-34738119D01*
X121824999Y-34735717D01*
X121800613Y-34738119D01*
X121777164Y-34745232D01*
X121755554Y-34756783D01*
X121736612Y-34772329D01*
X121721067Y-34791270D01*
X121711478Y-34805621D01*
X121655622Y-34861477D01*
X121589944Y-34905362D01*
X121547195Y-34923069D01*
X121516967Y-34935590D01*
X121478231Y-34943295D01*
X121439496Y-34951000D01*
X121360504Y-34951000D01*
X121321769Y-34943295D01*
X121283033Y-34935590D01*
X121252805Y-34923069D01*
X121210056Y-34905362D01*
X121144378Y-34861477D01*
X121088522Y-34805621D01*
X121078933Y-34791270D01*
X121063387Y-34772328D01*
X121044445Y-34756783D01*
X121022835Y-34745232D01*
X120999386Y-34738119D01*
X120974999Y-34735717D01*
X120950613Y-34738119D01*
X120927164Y-34745232D01*
X120905554Y-34756783D01*
X120886612Y-34772329D01*
X120871067Y-34791270D01*
X120861478Y-34805621D01*
X120805622Y-34861477D01*
X120739944Y-34905362D01*
X120697195Y-34923069D01*
X120666967Y-34935590D01*
X120628231Y-34943295D01*
X120589496Y-34951000D01*
X120510504Y-34951000D01*
X120471769Y-34943295D01*
X120433033Y-34935590D01*
X120402805Y-34923069D01*
X120360056Y-34905362D01*
X120294378Y-34861477D01*
X120238523Y-34805622D01*
X120194638Y-34739944D01*
X120164410Y-34666966D01*
X120164163Y-34665722D01*
X120149000Y-34589495D01*
X120149000Y-34510505D01*
X120164410Y-34433033D01*
X120176931Y-34402805D01*
X120194638Y-34360056D01*
X120238523Y-34294378D01*
X120294378Y-34238523D01*
X120360056Y-34194638D01*
X120402805Y-34176931D01*
X120433033Y-34164410D01*
X120471769Y-34156705D01*
X120510504Y-34149000D01*
X120589496Y-34149000D01*
X120628231Y-34156705D01*
G37*
G36*
X113651000Y-33551000D02*
G01*
X111749000Y-33551000D01*
X111749000Y-32349000D01*
X113651000Y-32349000D01*
X113651000Y-33551000D01*
G37*
G36*
X107451000Y-33551000D02*
G01*
X105549000Y-33551000D01*
X105549000Y-32349000D01*
X107451000Y-32349000D01*
X107451000Y-33551000D01*
G37*
G36*
X67281313Y-32539340D02*
G01*
X66572792Y-33247861D01*
X65652139Y-32327208D01*
X66360660Y-31618687D01*
X67281313Y-32539340D01*
G37*
G36*
X82281313Y-32539340D02*
G01*
X81572792Y-33247861D01*
X80652139Y-32327208D01*
X81360660Y-31618687D01*
X82281313Y-32539340D01*
G37*
G36*
X97281313Y-32539340D02*
G01*
X96572792Y-33247861D01*
X95652139Y-32327208D01*
X96360660Y-31618687D01*
X97281313Y-32539340D01*
G37*
G36*
X127948213Y-30646249D02*
G01*
X128042652Y-30674897D01*
X128129687Y-30721418D01*
X128205975Y-30784025D01*
X128268582Y-30860313D01*
X128315103Y-30947348D01*
X128343751Y-31041787D01*
X128351000Y-31115388D01*
X128351000Y-31964612D01*
X128343751Y-32038213D01*
X128315103Y-32132652D01*
X128268582Y-32219687D01*
X128205975Y-32295975D01*
X128129687Y-32358582D01*
X128042651Y-32405103D01*
X127948212Y-32433751D01*
X127850000Y-32443424D01*
X127751787Y-32433751D01*
X127657348Y-32405103D01*
X127570313Y-32358582D01*
X127494025Y-32295975D01*
X127431418Y-32219687D01*
X127384897Y-32132651D01*
X127356249Y-32038212D01*
X127349000Y-31964611D01*
X127349000Y-31115398D01*
X127356250Y-31041786D01*
X127366846Y-31006856D01*
X127384898Y-30947348D01*
X127431419Y-30860313D01*
X127494026Y-30784025D01*
X127570314Y-30721418D01*
X127657349Y-30674897D01*
X127751788Y-30646249D01*
X127850000Y-30636576D01*
X127948213Y-30646249D01*
G37*
G36*
X119298213Y-30646249D02*
G01*
X119392652Y-30674897D01*
X119479687Y-30721418D01*
X119555975Y-30784025D01*
X119618582Y-30860313D01*
X119665103Y-30947348D01*
X119693751Y-31041787D01*
X119701000Y-31115388D01*
X119701000Y-31964612D01*
X119693751Y-32038213D01*
X119665103Y-32132652D01*
X119618582Y-32219687D01*
X119555975Y-32295975D01*
X119479687Y-32358582D01*
X119392651Y-32405103D01*
X119298212Y-32433751D01*
X119200000Y-32443424D01*
X119101787Y-32433751D01*
X119007348Y-32405103D01*
X118920313Y-32358582D01*
X118844025Y-32295975D01*
X118781418Y-32219687D01*
X118734897Y-32132651D01*
X118706249Y-32038212D01*
X118699000Y-31964611D01*
X118699000Y-31115398D01*
X118706250Y-31041786D01*
X118716846Y-31006856D01*
X118734898Y-30947348D01*
X118781419Y-30860313D01*
X118844026Y-30784025D01*
X118920314Y-30721418D01*
X119007349Y-30674897D01*
X119101788Y-30646249D01*
X119200000Y-30636576D01*
X119298213Y-30646249D01*
G37*
M02*
