M48
; DRILL file {KiCad (5.1.5)-3} date 4/17/2020 3:53:22 PM
; FORMAT={-:-/ absolute / metric / decimal}
; #@! TF.CreationDate,2020-04-17T15:53:22-04:00
; #@! TF.GenerationSoftware,Kicad,Pcbnew,(5.1.5)-3
; #@! TF.FileFunction,Plated,1,2,PTH
FMAT,2
METRIC
T1C0.400
T2C0.600
T3C1.200
T4C1.499
T5C1.513
T6C1.700
T7C1.702
T8C3.988
%
G90
G05
T1
X51.375Y-60.3
X52.1Y-55.3
X52.2Y-71.4
X53.3Y-65.0
X53.3Y-74.8
X53.6Y-77.3
X55.4Y-59.5
X55.5Y-56.5
X57.9Y-35.6
X66.3Y-62.9
X66.9Y-64.5
X68.2Y-56.788
X68.925Y-62.475
X72.8Y-35.6
X75.2Y-56.788
X75.2Y-58.775
X84.4Y-59.5
X86.7Y-56.788
X86.9Y-64.6
X88.0Y-35.5
X88.5Y-62.9
X105.2Y-64.7
X107.005Y-63.921
X107.712Y-63.214
X115.0Y-58.1
X116.2Y-59.3
X116.3Y-65.0
X119.6Y-48.8
X120.6Y-73.5
X121.8Y-43.1
X126.5Y-73.5
X127.9Y-48.4
X132.1Y-38.3
X132.3Y-34.1
X133.5Y-44.8
X120.55Y-34.55
X120.55Y-35.9
X121.4Y-34.55
X121.4Y-35.9
X122.25Y-34.55
X122.25Y-35.9
X123.1Y-34.55
X123.1Y-35.9
X123.95Y-34.55
X123.95Y-35.9
X124.8Y-34.55
X124.8Y-35.9
X125.65Y-34.55
X125.65Y-35.9
X126.5Y-34.55
X126.5Y-35.9
T3
X55.23Y-66.844
X65.325Y-66.844
X55.23Y-47.0
X65.325Y-47.0
X75.074Y-47.0
X85.169Y-47.0
X94.918Y-47.0
X105.012Y-47.0
X94.918Y-66.844
X105.012Y-66.844
X75.074Y-66.844
X85.169Y-66.844
T4
X56.515Y-68.104
X64.135Y-68.104
X56.515Y-48.26
X64.135Y-48.26
X76.359Y-48.26
X83.979Y-48.26
X96.203Y-48.26
X103.822Y-48.26
X96.203Y-68.104
X103.822Y-68.104
X76.359Y-68.104
X83.979Y-68.104
T6
X60.325Y-64.744
X60.325Y-44.9
X80.169Y-44.9
X100.012Y-44.9
X100.012Y-64.744
X80.169Y-64.744
T7
X55.245Y-70.644
X65.405Y-70.644
X55.245Y-50.8
X65.405Y-50.8
X75.089Y-50.8
X85.249Y-50.8
X94.932Y-50.8
X105.093Y-50.8
X94.932Y-70.644
X105.093Y-70.644
X75.089Y-70.644
X85.249Y-70.644
T8
X60.325Y-70.644
X60.325Y-50.8
X80.169Y-50.8
X100.012Y-50.8
X100.012Y-70.644
X80.169Y-70.644
T2
X119.2Y-31.94G85X119.2Y-31.14
G05
X119.2Y-35.67G85X119.2Y-34.17
G05
X127.85Y-31.94G85X127.85Y-31.14
G05
X127.85Y-35.67G85X127.85Y-34.17
G05
T5
X57.805Y-65.625G85X57.805Y-66.662
G05
X62.845Y-65.625G85X62.845Y-66.662
G05
X57.805Y-45.782G85X57.805Y-46.819
G05
X62.845Y-45.782G85X62.845Y-46.819
G05
X77.649Y-45.782G85X77.649Y-46.819
G05
X82.689Y-45.782G85X82.689Y-46.819
G05
X97.492Y-45.782G85X97.492Y-46.819
G05
X102.532Y-45.782G85X102.532Y-46.819
G05
X97.492Y-65.625G85X97.492Y-66.662
G05
X102.532Y-65.625G85X102.532Y-66.662
G05
X77.649Y-65.625G85X77.649Y-66.662
G05
X82.689Y-65.625G85X82.689Y-66.662
G05
T0
M30
