M48
; DRILL file {KiCad (5.1.5)-3} date 4/23/2020 3:25:26 PM
; FORMAT={-:-/ absolute / metric / decimal}
; #@! TF.CreationDate,2020-04-23T15:25:26-04:00
; #@! TF.GenerationSoftware,Kicad,Pcbnew,(5.1.5)-3
; #@! TF.FileFunction,NonPlated,1,2,NPTH
FMAT,2
METRIC
T1C1.200
T2C1.900
T3C3.400
%
G90
G05
T1
X85.294Y-74.844
X55.105Y-55.0
X65.45Y-55.0
X94.792Y-74.844
X105.138Y-74.844
X74.949Y-55.0
X85.294Y-55.0
X55.105Y-74.844
X65.45Y-74.844
X94.792Y-55.0
X105.138Y-55.0
X74.949Y-74.844
T2
X54.825Y-70.644
X65.825Y-70.644
X94.512Y-50.8
X105.512Y-50.8
X74.669Y-70.644
X85.669Y-70.644
X54.825Y-50.8
X65.825Y-50.8
X94.512Y-70.644
X105.512Y-70.644
X74.669Y-50.8
X85.669Y-50.8
T3
X60.325Y-70.644
X100.012Y-50.8
X80.169Y-70.644
X60.325Y-50.8
X100.012Y-70.644
X80.169Y-50.8
T0
M30
