G04 #@! TF.GenerationSoftware,KiCad,Pcbnew,(5.1.5)-3*
G04 #@! TF.CreationDate,2020-04-17T15:53:12-04:00*
G04 #@! TF.ProjectId,Flying_MX,466c7969-6e67-45f4-9d58-2e6b69636164,rev?*
G04 #@! TF.SameCoordinates,Original*
G04 #@! TF.FileFunction,Legend,Top*
G04 #@! TF.FilePolarity,Positive*
%FSLAX46Y46*%
G04 Gerber Fmt 4.6, Leading zero omitted, Abs format (unit mm)*
G04 Created by KiCad (PCBNEW (5.1.5)-3) date 2020-04-17 15:53:12*
%MOMM*%
%LPD*%
G04 APERTURE LIST*
%ADD10C,0.150000*%
%ADD11C,0.120000*%
G04 APERTURE END LIST*
D10*
X128490476Y-78252380D02*
X128490476Y-78966666D01*
X128442857Y-79109523D01*
X128347619Y-79204761D01*
X128204761Y-79252380D01*
X128109523Y-79252380D01*
X129395238Y-79252380D02*
X129395238Y-78728571D01*
X129347619Y-78633333D01*
X129252380Y-78585714D01*
X129061904Y-78585714D01*
X128966666Y-78633333D01*
X129395238Y-79204761D02*
X129300000Y-79252380D01*
X129061904Y-79252380D01*
X128966666Y-79204761D01*
X128919047Y-79109523D01*
X128919047Y-79014285D01*
X128966666Y-78919047D01*
X129061904Y-78871428D01*
X129300000Y-78871428D01*
X129395238Y-78823809D01*
X129871428Y-79252380D02*
X129871428Y-78585714D01*
X129871428Y-78680952D02*
X129919047Y-78633333D01*
X130014285Y-78585714D01*
X130157142Y-78585714D01*
X130252380Y-78633333D01*
X130300000Y-78728571D01*
X130300000Y-79252380D01*
X130300000Y-78728571D02*
X130347619Y-78633333D01*
X130442857Y-78585714D01*
X130585714Y-78585714D01*
X130680952Y-78633333D01*
X130728571Y-78728571D01*
X130728571Y-79252380D01*
X131585714Y-79204761D02*
X131490476Y-79252380D01*
X131300000Y-79252380D01*
X131204761Y-79204761D01*
X131157142Y-79109523D01*
X131157142Y-78728571D01*
X131204761Y-78633333D01*
X131300000Y-78585714D01*
X131490476Y-78585714D01*
X131585714Y-78633333D01*
X131633333Y-78728571D01*
X131633333Y-78823809D01*
X131157142Y-78919047D01*
X132014285Y-79204761D02*
X132109523Y-79252380D01*
X132300000Y-79252380D01*
X132395238Y-79204761D01*
X132442857Y-79109523D01*
X132442857Y-79061904D01*
X132395238Y-78966666D01*
X132300000Y-78919047D01*
X132157142Y-78919047D01*
X132061904Y-78871428D01*
X132014285Y-78776190D01*
X132014285Y-78728571D01*
X132061904Y-78633333D01*
X132157142Y-78585714D01*
X132300000Y-78585714D01*
X132395238Y-78633333D01*
X133585714Y-79204761D02*
X133728571Y-79252380D01*
X133966666Y-79252380D01*
X134061904Y-79204761D01*
X134109523Y-79157142D01*
X134157142Y-79061904D01*
X134157142Y-78966666D01*
X134109523Y-78871428D01*
X134061904Y-78823809D01*
X133966666Y-78776190D01*
X133776190Y-78728571D01*
X133680952Y-78680952D01*
X133633333Y-78633333D01*
X133585714Y-78538095D01*
X133585714Y-78442857D01*
X133633333Y-78347619D01*
X133680952Y-78300000D01*
X133776190Y-78252380D01*
X134014285Y-78252380D01*
X134157142Y-78300000D01*
X134585714Y-79252380D02*
X134585714Y-78585714D01*
X134585714Y-78680952D02*
X134633333Y-78633333D01*
X134728571Y-78585714D01*
X134871428Y-78585714D01*
X134966666Y-78633333D01*
X135014285Y-78728571D01*
X135014285Y-79252380D01*
X135014285Y-78728571D02*
X135061904Y-78633333D01*
X135157142Y-78585714D01*
X135300000Y-78585714D01*
X135395238Y-78633333D01*
X135442857Y-78728571D01*
X135442857Y-79252380D01*
X135919047Y-79252380D02*
X135919047Y-78585714D01*
X135919047Y-78252380D02*
X135871428Y-78300000D01*
X135919047Y-78347619D01*
X135966666Y-78300000D01*
X135919047Y-78252380D01*
X135919047Y-78347619D01*
X136252380Y-78585714D02*
X136633333Y-78585714D01*
X136395238Y-78252380D02*
X136395238Y-79109523D01*
X136442857Y-79204761D01*
X136538095Y-79252380D01*
X136633333Y-79252380D01*
X136966666Y-79252380D02*
X136966666Y-78252380D01*
X137395238Y-79252380D02*
X137395238Y-78728571D01*
X137347619Y-78633333D01*
X137252380Y-78585714D01*
X137109523Y-78585714D01*
X137014285Y-78633333D01*
X136966666Y-78680952D01*
X129057142Y-77552380D02*
X129057142Y-76552380D01*
X129152380Y-77171428D02*
X129438095Y-77552380D01*
X129438095Y-76885714D02*
X129057142Y-77266666D01*
X130009523Y-77552380D02*
X129914285Y-77504761D01*
X129866666Y-77409523D01*
X129866666Y-76552380D01*
X130819047Y-77552380D02*
X130819047Y-77028571D01*
X130771428Y-76933333D01*
X130676190Y-76885714D01*
X130485714Y-76885714D01*
X130390476Y-76933333D01*
X130819047Y-77504761D02*
X130723809Y-77552380D01*
X130485714Y-77552380D01*
X130390476Y-77504761D01*
X130342857Y-77409523D01*
X130342857Y-77314285D01*
X130390476Y-77219047D01*
X130485714Y-77171428D01*
X130723809Y-77171428D01*
X130819047Y-77123809D01*
X131723809Y-77504761D02*
X131628571Y-77552380D01*
X131438095Y-77552380D01*
X131342857Y-77504761D01*
X131295238Y-77457142D01*
X131247619Y-77361904D01*
X131247619Y-77076190D01*
X131295238Y-76980952D01*
X131342857Y-76933333D01*
X131438095Y-76885714D01*
X131628571Y-76885714D01*
X131723809Y-76933333D01*
X132152380Y-77552380D02*
X132152380Y-76552380D01*
X132247619Y-77171428D02*
X132533333Y-77552380D01*
X132533333Y-76885714D02*
X132152380Y-77266666D01*
X132866666Y-76885714D02*
X133104761Y-77552380D01*
X133342857Y-76885714D02*
X133104761Y-77552380D01*
X133009523Y-77790476D01*
X132961904Y-77838095D01*
X132866666Y-77885714D01*
X134152380Y-76885714D02*
X134152380Y-77695238D01*
X134104761Y-77790476D01*
X134057142Y-77838095D01*
X133961904Y-77885714D01*
X133819047Y-77885714D01*
X133723809Y-77838095D01*
X134152380Y-77504761D02*
X134057142Y-77552380D01*
X133866666Y-77552380D01*
X133771428Y-77504761D01*
X133723809Y-77457142D01*
X133676190Y-77361904D01*
X133676190Y-77076190D01*
X133723809Y-76980952D01*
X133771428Y-76933333D01*
X133866666Y-76885714D01*
X134057142Y-76885714D01*
X134152380Y-76933333D01*
X135009523Y-77504761D02*
X134914285Y-77552380D01*
X134723809Y-77552380D01*
X134628571Y-77504761D01*
X134580952Y-77409523D01*
X134580952Y-77028571D01*
X134628571Y-76933333D01*
X134723809Y-76885714D01*
X134914285Y-76885714D01*
X135009523Y-76933333D01*
X135057142Y-77028571D01*
X135057142Y-77123809D01*
X134580952Y-77219047D01*
X135914285Y-77552380D02*
X135914285Y-77028571D01*
X135866666Y-76933333D01*
X135771428Y-76885714D01*
X135580952Y-76885714D01*
X135485714Y-76933333D01*
X135914285Y-77504761D02*
X135819047Y-77552380D01*
X135580952Y-77552380D01*
X135485714Y-77504761D01*
X135438095Y-77409523D01*
X135438095Y-77314285D01*
X135485714Y-77219047D01*
X135580952Y-77171428D01*
X135819047Y-77171428D01*
X135914285Y-77123809D01*
X136390476Y-77552380D02*
X136390476Y-76885714D01*
X136390476Y-77076190D02*
X136438095Y-76980952D01*
X136485714Y-76933333D01*
X136580952Y-76885714D01*
X136676190Y-76885714D01*
X136961904Y-77504761D02*
X137057142Y-77552380D01*
X137247619Y-77552380D01*
X137342857Y-77504761D01*
X137390476Y-77409523D01*
X137390476Y-77361904D01*
X137342857Y-77266666D01*
X137247619Y-77219047D01*
X137104761Y-77219047D01*
X137009523Y-77171428D01*
X136961904Y-77076190D01*
X136961904Y-77028571D01*
X137009523Y-76933333D01*
X137104761Y-76885714D01*
X137247619Y-76885714D01*
X137342857Y-76933333D01*
X122150000Y-39650000D02*
X122150000Y-42550000D01*
X122150000Y-39650000D02*
X120850000Y-39650000D01*
X120850000Y-39650000D02*
X120850000Y-42550000D01*
X120850000Y-42550000D02*
X122150000Y-42550000D01*
D11*
X128120000Y-33500000D02*
X128120000Y-32600000D01*
X118930000Y-33500000D02*
X118930000Y-32600000D01*
X128120000Y-29900000D02*
X128120000Y-27170000D01*
X118930000Y-29900000D02*
X118930000Y-27170000D01*
X128000000Y-36580000D02*
X119050000Y-36580000D01*
X128120000Y-27170000D02*
X118930000Y-27170000D01*
X131110000Y-43502064D02*
X131110000Y-42297936D01*
X129290000Y-43502064D02*
X129290000Y-42297936D01*
X134641422Y-38860000D02*
X135158578Y-38860000D01*
X134641422Y-37440000D02*
X135158578Y-37440000D01*
X134641422Y-35910000D02*
X135158578Y-35910000D01*
X134641422Y-34490000D02*
X135158578Y-34490000D01*
D10*
X67825000Y-63643750D02*
X67825000Y-65643750D01*
X128100000Y-54925000D02*
X128100000Y-53650000D01*
X128675000Y-65275000D02*
X128675000Y-64600000D01*
X118325000Y-65275000D02*
X118325000Y-64600000D01*
X118325000Y-54925000D02*
X118325000Y-55600000D01*
X128675000Y-54925000D02*
X128675000Y-55600000D01*
X118325000Y-54925000D02*
X119000000Y-54925000D01*
X118325000Y-65275000D02*
X119000000Y-65275000D01*
X128675000Y-65275000D02*
X128000000Y-65275000D01*
X128675000Y-54925000D02*
X128100000Y-54925000D01*
D11*
X113241422Y-60110000D02*
X113758578Y-60110000D01*
X113241422Y-58690000D02*
X113758578Y-58690000D01*
X113758578Y-67490000D02*
X113241422Y-67490000D01*
X113758578Y-68910000D02*
X113241422Y-68910000D01*
X115150000Y-65800000D02*
X115150000Y-61800000D01*
X111850000Y-65800000D02*
X115150000Y-65800000D01*
D10*
X107512500Y-63643750D02*
X107512500Y-65643750D01*
X87668750Y-63643750D02*
X87668750Y-65643750D01*
D11*
X58098097Y-36716117D02*
X55340381Y-39473833D01*
X56683883Y-35301903D02*
X53926167Y-38059619D01*
X58098097Y-36716117D02*
X56683883Y-35301903D01*
D10*
X107512500Y-43800000D02*
X107512500Y-45800000D01*
X87668750Y-43800000D02*
X87668750Y-45800000D01*
X67825000Y-43800000D02*
X67825000Y-45800000D01*
X110600000Y-34800000D02*
G75*
G03X110600000Y-34800000I-1000000J0D01*
G01*
X107000000Y-37400000D02*
X107000000Y-32200000D01*
X112200000Y-37400000D02*
X107000000Y-37400000D01*
X112200000Y-32200000D02*
X112200000Y-37400000D01*
X107000000Y-32200000D02*
X112200000Y-32200000D01*
D11*
X128758578Y-68390000D02*
X128241422Y-68390000D01*
X128758578Y-69810000D02*
X128241422Y-69810000D01*
X128110000Y-45858578D02*
X128110000Y-45341422D01*
X126690000Y-45858578D02*
X126690000Y-45341422D01*
X124910000Y-45858578D02*
X124910000Y-45341422D01*
X123490000Y-45858578D02*
X123490000Y-45341422D01*
X118858578Y-49990000D02*
X118341422Y-49990000D01*
X118858578Y-51410000D02*
X118341422Y-51410000D01*
X97598097Y-32716117D02*
X94840381Y-35473833D01*
X96183883Y-31301903D02*
X93426167Y-34059619D01*
X97598097Y-32716117D02*
X96183883Y-31301903D01*
X82598097Y-32716117D02*
X79840381Y-35473833D01*
X81183883Y-31301903D02*
X78426167Y-34059619D01*
X82598097Y-32716117D02*
X81183883Y-31301903D01*
X67598097Y-32716117D02*
X64840381Y-35473833D01*
X66183883Y-31301903D02*
X63426167Y-34059619D01*
X67598097Y-32716117D02*
X66183883Y-31301903D01*
X88098097Y-36716117D02*
X85340381Y-39473833D01*
X86683883Y-35301903D02*
X83926167Y-38059619D01*
X88098097Y-36716117D02*
X86683883Y-35301903D01*
X73098097Y-36716117D02*
X70340381Y-39473833D01*
X71683883Y-35301903D02*
X68926167Y-38059619D01*
X73098097Y-36716117D02*
X71683883Y-35301903D01*
X131990000Y-54941422D02*
X131990000Y-55458578D01*
X133410000Y-54941422D02*
X133410000Y-55458578D01*
X133410000Y-65358578D02*
X133410000Y-64841422D01*
X131990000Y-65358578D02*
X131990000Y-64841422D01*
X118658578Y-68390000D02*
X118141422Y-68390000D01*
X118658578Y-69810000D02*
X118141422Y-69810000D01*
X113690000Y-54841422D02*
X113690000Y-55358578D01*
X115110000Y-54841422D02*
X115110000Y-55358578D01*
X122441422Y-51410000D02*
X122958578Y-51410000D01*
X122441422Y-49990000D02*
X122958578Y-49990000D01*
D10*
X120738095Y-43002380D02*
X120738095Y-43811904D01*
X120785714Y-43907142D01*
X120833333Y-43954761D01*
X120928571Y-44002380D01*
X121119047Y-44002380D01*
X121214285Y-43954761D01*
X121261904Y-43907142D01*
X121309523Y-43811904D01*
X121309523Y-43002380D01*
X121738095Y-43097619D02*
X121785714Y-43050000D01*
X121880952Y-43002380D01*
X122119047Y-43002380D01*
X122214285Y-43050000D01*
X122261904Y-43097619D01*
X122309523Y-43192857D01*
X122309523Y-43288095D01*
X122261904Y-43430952D01*
X121690476Y-44002380D01*
X122309523Y-44002380D01*
X123191666Y-37152380D02*
X123191666Y-37866666D01*
X123144047Y-38009523D01*
X123048809Y-38104761D01*
X122905952Y-38152380D01*
X122810714Y-38152380D01*
X124191666Y-38152380D02*
X123620238Y-38152380D01*
X123905952Y-38152380D02*
X123905952Y-37152380D01*
X123810714Y-37295238D01*
X123715476Y-37390476D01*
X123620238Y-37438095D01*
X128308571Y-43233333D02*
X128308571Y-43566666D01*
X128832380Y-43566666D02*
X127832380Y-43566666D01*
X127832380Y-43090476D01*
X128832380Y-42185714D02*
X128832380Y-42757142D01*
X128832380Y-42471428D02*
X127832380Y-42471428D01*
X127975238Y-42566666D01*
X128070476Y-42661904D01*
X128118095Y-42757142D01*
X134733333Y-36952380D02*
X134400000Y-36476190D01*
X134161904Y-36952380D02*
X134161904Y-35952380D01*
X134542857Y-35952380D01*
X134638095Y-36000000D01*
X134685714Y-36047619D01*
X134733333Y-36142857D01*
X134733333Y-36285714D01*
X134685714Y-36380952D01*
X134638095Y-36428571D01*
X134542857Y-36476190D01*
X134161904Y-36476190D01*
X135590476Y-35952380D02*
X135400000Y-35952380D01*
X135304761Y-36000000D01*
X135257142Y-36047619D01*
X135161904Y-36190476D01*
X135114285Y-36380952D01*
X135114285Y-36761904D01*
X135161904Y-36857142D01*
X135209523Y-36904761D01*
X135304761Y-36952380D01*
X135495238Y-36952380D01*
X135590476Y-36904761D01*
X135638095Y-36857142D01*
X135685714Y-36761904D01*
X135685714Y-36523809D01*
X135638095Y-36428571D01*
X135590476Y-36380952D01*
X135495238Y-36333333D01*
X135304761Y-36333333D01*
X135209523Y-36380952D01*
X135161904Y-36428571D01*
X135114285Y-36523809D01*
X134733333Y-34002380D02*
X134400000Y-33526190D01*
X134161904Y-34002380D02*
X134161904Y-33002380D01*
X134542857Y-33002380D01*
X134638095Y-33050000D01*
X134685714Y-33097619D01*
X134733333Y-33192857D01*
X134733333Y-33335714D01*
X134685714Y-33430952D01*
X134638095Y-33478571D01*
X134542857Y-33526190D01*
X134161904Y-33526190D01*
X135638095Y-33002380D02*
X135161904Y-33002380D01*
X135114285Y-33478571D01*
X135161904Y-33430952D01*
X135257142Y-33383333D01*
X135495238Y-33383333D01*
X135590476Y-33430952D01*
X135638095Y-33478571D01*
X135685714Y-33573809D01*
X135685714Y-33811904D01*
X135638095Y-33907142D01*
X135590476Y-33954761D01*
X135495238Y-34002380D01*
X135257142Y-34002380D01*
X135161904Y-33954761D01*
X135114285Y-33907142D01*
X59039285Y-62896130D02*
X59039285Y-61896130D01*
X59372619Y-62610416D01*
X59705952Y-61896130D01*
X59705952Y-62896130D01*
X60086904Y-61896130D02*
X60753571Y-62896130D01*
X60753571Y-61896130D02*
X60086904Y-62896130D01*
X61563095Y-62229464D02*
X61563095Y-62896130D01*
X61325000Y-61848511D02*
X61086904Y-62562797D01*
X61705952Y-62562797D01*
X130402380Y-60861904D02*
X131211904Y-60861904D01*
X131307142Y-60814285D01*
X131354761Y-60766666D01*
X131402380Y-60671428D01*
X131402380Y-60480952D01*
X131354761Y-60385714D01*
X131307142Y-60338095D01*
X131211904Y-60290476D01*
X130402380Y-60290476D01*
X131402380Y-59290476D02*
X131402380Y-59861904D01*
X131402380Y-59576190D02*
X130402380Y-59576190D01*
X130545238Y-59671428D01*
X130640476Y-59766666D01*
X130688095Y-59861904D01*
X113333333Y-58107142D02*
X113285714Y-58154761D01*
X113142857Y-58202380D01*
X113047619Y-58202380D01*
X112904761Y-58154761D01*
X112809523Y-58059523D01*
X112761904Y-57964285D01*
X112714285Y-57773809D01*
X112714285Y-57630952D01*
X112761904Y-57440476D01*
X112809523Y-57345238D01*
X112904761Y-57250000D01*
X113047619Y-57202380D01*
X113142857Y-57202380D01*
X113285714Y-57250000D01*
X113333333Y-57297619D01*
X113714285Y-57297619D02*
X113761904Y-57250000D01*
X113857142Y-57202380D01*
X114095238Y-57202380D01*
X114190476Y-57250000D01*
X114238095Y-57297619D01*
X114285714Y-57392857D01*
X114285714Y-57488095D01*
X114238095Y-57630952D01*
X113666666Y-58202380D01*
X114285714Y-58202380D01*
X113333333Y-70207142D02*
X113285714Y-70254761D01*
X113142857Y-70302380D01*
X113047619Y-70302380D01*
X112904761Y-70254761D01*
X112809523Y-70159523D01*
X112761904Y-70064285D01*
X112714285Y-69873809D01*
X112714285Y-69730952D01*
X112761904Y-69540476D01*
X112809523Y-69445238D01*
X112904761Y-69350000D01*
X113047619Y-69302380D01*
X113142857Y-69302380D01*
X113285714Y-69350000D01*
X113333333Y-69397619D01*
X114285714Y-70302380D02*
X113714285Y-70302380D01*
X114000000Y-70302380D02*
X114000000Y-69302380D01*
X113904761Y-69445238D01*
X113809523Y-69540476D01*
X113714285Y-69588095D01*
X111026190Y-64276190D02*
X111502380Y-64276190D01*
X110502380Y-64609523D02*
X111026190Y-64276190D01*
X110502380Y-63942857D01*
X111502380Y-63085714D02*
X111502380Y-63657142D01*
X111502380Y-63371428D02*
X110502380Y-63371428D01*
X110645238Y-63466666D01*
X110740476Y-63561904D01*
X110788095Y-63657142D01*
X98726785Y-62896130D02*
X98726785Y-61896130D01*
X99060119Y-62610416D01*
X99393452Y-61896130D01*
X99393452Y-62896130D01*
X99774404Y-61896130D02*
X100441071Y-62896130D01*
X100441071Y-61896130D02*
X99774404Y-62896130D01*
X101250595Y-61896130D02*
X101060119Y-61896130D01*
X100964880Y-61943750D01*
X100917261Y-61991369D01*
X100822023Y-62134226D01*
X100774404Y-62324702D01*
X100774404Y-62705654D01*
X100822023Y-62800892D01*
X100869642Y-62848511D01*
X100964880Y-62896130D01*
X101155357Y-62896130D01*
X101250595Y-62848511D01*
X101298214Y-62800892D01*
X101345833Y-62705654D01*
X101345833Y-62467559D01*
X101298214Y-62372321D01*
X101250595Y-62324702D01*
X101155357Y-62277083D01*
X100964880Y-62277083D01*
X100869642Y-62324702D01*
X100822023Y-62372321D01*
X100774404Y-62467559D01*
X78883035Y-62896130D02*
X78883035Y-61896130D01*
X79216369Y-62610416D01*
X79549702Y-61896130D01*
X79549702Y-62896130D01*
X79930654Y-61896130D02*
X80597321Y-62896130D01*
X80597321Y-61896130D02*
X79930654Y-62896130D01*
X81454464Y-61896130D02*
X80978273Y-61896130D01*
X80930654Y-62372321D01*
X80978273Y-62324702D01*
X81073511Y-62277083D01*
X81311607Y-62277083D01*
X81406845Y-62324702D01*
X81454464Y-62372321D01*
X81502083Y-62467559D01*
X81502083Y-62705654D01*
X81454464Y-62800892D01*
X81406845Y-62848511D01*
X81311607Y-62896130D01*
X81073511Y-62896130D01*
X80978273Y-62848511D01*
X80930654Y-62800892D01*
X57012183Y-39856007D02*
X56305076Y-39148901D01*
X56473435Y-38980542D01*
X56608122Y-38913198D01*
X56742809Y-38913198D01*
X56843824Y-38946870D01*
X57012183Y-39047885D01*
X57113198Y-39148901D01*
X57214214Y-39317259D01*
X57247885Y-39418275D01*
X57247885Y-39552962D01*
X57180542Y-39687649D01*
X57012183Y-39856007D01*
X57045855Y-38542809D02*
X57045855Y-38475465D01*
X57079526Y-38374450D01*
X57247885Y-38206091D01*
X57348901Y-38172420D01*
X57416244Y-38172420D01*
X57517259Y-38206091D01*
X57584603Y-38273435D01*
X57651946Y-38408122D01*
X57651946Y-39216244D01*
X58089679Y-38778511D01*
X98726785Y-43052380D02*
X98726785Y-42052380D01*
X99060119Y-42766666D01*
X99393452Y-42052380D01*
X99393452Y-43052380D01*
X99774404Y-42052380D02*
X100441071Y-43052380D01*
X100441071Y-42052380D02*
X99774404Y-43052380D01*
X100726785Y-42052380D02*
X101345833Y-42052380D01*
X101012500Y-42433333D01*
X101155357Y-42433333D01*
X101250595Y-42480952D01*
X101298214Y-42528571D01*
X101345833Y-42623809D01*
X101345833Y-42861904D01*
X101298214Y-42957142D01*
X101250595Y-43004761D01*
X101155357Y-43052380D01*
X100869642Y-43052380D01*
X100774404Y-43004761D01*
X100726785Y-42957142D01*
X78883035Y-43052380D02*
X78883035Y-42052380D01*
X79216369Y-42766666D01*
X79549702Y-42052380D01*
X79549702Y-43052380D01*
X79930654Y-42052380D02*
X80597321Y-43052380D01*
X80597321Y-42052380D02*
X79930654Y-43052380D01*
X80930654Y-42147619D02*
X80978273Y-42100000D01*
X81073511Y-42052380D01*
X81311607Y-42052380D01*
X81406845Y-42100000D01*
X81454464Y-42147619D01*
X81502083Y-42242857D01*
X81502083Y-42338095D01*
X81454464Y-42480952D01*
X80883035Y-43052380D01*
X81502083Y-43052380D01*
X59039285Y-43052380D02*
X59039285Y-42052380D01*
X59372619Y-42766666D01*
X59705952Y-42052380D01*
X59705952Y-43052380D01*
X60086904Y-42052380D02*
X60753571Y-43052380D01*
X60753571Y-42052380D02*
X60086904Y-43052380D01*
X61658333Y-43052380D02*
X61086904Y-43052380D01*
X61372619Y-43052380D02*
X61372619Y-42052380D01*
X61277380Y-42195238D01*
X61182142Y-42290476D01*
X61086904Y-42338095D01*
X108266666Y-39268761D02*
X108409523Y-39316380D01*
X108647619Y-39316380D01*
X108742857Y-39268761D01*
X108790476Y-39221142D01*
X108838095Y-39125904D01*
X108838095Y-39030666D01*
X108790476Y-38935428D01*
X108742857Y-38887809D01*
X108647619Y-38840190D01*
X108457142Y-38792571D01*
X108361904Y-38744952D01*
X108314285Y-38697333D01*
X108266666Y-38602095D01*
X108266666Y-38506857D01*
X108314285Y-38411619D01*
X108361904Y-38364000D01*
X108457142Y-38316380D01*
X108695238Y-38316380D01*
X108838095Y-38364000D01*
X109171428Y-38316380D02*
X109409523Y-39316380D01*
X109600000Y-38602095D01*
X109790476Y-39316380D01*
X110028571Y-38316380D01*
X110933333Y-39316380D02*
X110361904Y-39316380D01*
X110647619Y-39316380D02*
X110647619Y-38316380D01*
X110552380Y-38459238D01*
X110457142Y-38554476D01*
X110361904Y-38602095D01*
X128333333Y-71202380D02*
X128000000Y-70726190D01*
X127761904Y-71202380D02*
X127761904Y-70202380D01*
X128142857Y-70202380D01*
X128238095Y-70250000D01*
X128285714Y-70297619D01*
X128333333Y-70392857D01*
X128333333Y-70535714D01*
X128285714Y-70630952D01*
X128238095Y-70678571D01*
X128142857Y-70726190D01*
X127761904Y-70726190D01*
X129190476Y-70535714D02*
X129190476Y-71202380D01*
X128952380Y-70154761D02*
X128714285Y-70869047D01*
X129333333Y-70869047D01*
X126202380Y-45766666D02*
X125726190Y-46100000D01*
X126202380Y-46338095D02*
X125202380Y-46338095D01*
X125202380Y-45957142D01*
X125250000Y-45861904D01*
X125297619Y-45814285D01*
X125392857Y-45766666D01*
X125535714Y-45766666D01*
X125630952Y-45814285D01*
X125678571Y-45861904D01*
X125726190Y-45957142D01*
X125726190Y-46338095D01*
X125202380Y-45433333D02*
X125202380Y-44814285D01*
X125583333Y-45147619D01*
X125583333Y-45004761D01*
X125630952Y-44909523D01*
X125678571Y-44861904D01*
X125773809Y-44814285D01*
X126011904Y-44814285D01*
X126107142Y-44861904D01*
X126154761Y-44909523D01*
X126202380Y-45004761D01*
X126202380Y-45290476D01*
X126154761Y-45385714D01*
X126107142Y-45433333D01*
X123002380Y-45766666D02*
X122526190Y-46100000D01*
X123002380Y-46338095D02*
X122002380Y-46338095D01*
X122002380Y-45957142D01*
X122050000Y-45861904D01*
X122097619Y-45814285D01*
X122192857Y-45766666D01*
X122335714Y-45766666D01*
X122430952Y-45814285D01*
X122478571Y-45861904D01*
X122526190Y-45957142D01*
X122526190Y-46338095D01*
X122097619Y-45385714D02*
X122050000Y-45338095D01*
X122002380Y-45242857D01*
X122002380Y-45004761D01*
X122050000Y-44909523D01*
X122097619Y-44861904D01*
X122192857Y-44814285D01*
X122288095Y-44814285D01*
X122430952Y-44861904D01*
X123002380Y-45433333D01*
X123002380Y-44814285D01*
X118433333Y-52802380D02*
X118100000Y-52326190D01*
X117861904Y-52802380D02*
X117861904Y-51802380D01*
X118242857Y-51802380D01*
X118338095Y-51850000D01*
X118385714Y-51897619D01*
X118433333Y-51992857D01*
X118433333Y-52135714D01*
X118385714Y-52230952D01*
X118338095Y-52278571D01*
X118242857Y-52326190D01*
X117861904Y-52326190D01*
X119385714Y-52802380D02*
X118814285Y-52802380D01*
X119100000Y-52802380D02*
X119100000Y-51802380D01*
X119004761Y-51945238D01*
X118909523Y-52040476D01*
X118814285Y-52088095D01*
X96512183Y-35856007D02*
X95805076Y-35148901D01*
X95973435Y-34980542D01*
X96108122Y-34913198D01*
X96242809Y-34913198D01*
X96343824Y-34946870D01*
X96512183Y-35047885D01*
X96613198Y-35148901D01*
X96714214Y-35317259D01*
X96747885Y-35418275D01*
X96747885Y-35552962D01*
X96680542Y-35687649D01*
X96512183Y-35856007D01*
X96444839Y-34509137D02*
X96916244Y-34037733D01*
X97320305Y-35047885D01*
X81512183Y-35856007D02*
X80805076Y-35148901D01*
X80973435Y-34980542D01*
X81108122Y-34913198D01*
X81242809Y-34913198D01*
X81343824Y-34946870D01*
X81512183Y-35047885D01*
X81613198Y-35148901D01*
X81714214Y-35317259D01*
X81747885Y-35418275D01*
X81747885Y-35552962D01*
X81680542Y-35687649D01*
X81512183Y-35856007D01*
X81815229Y-34138748D02*
X81680542Y-34273435D01*
X81646870Y-34374450D01*
X81646870Y-34441794D01*
X81680542Y-34610152D01*
X81781557Y-34778511D01*
X82050931Y-35047885D01*
X82151946Y-35081557D01*
X82219290Y-35081557D01*
X82320305Y-35047885D01*
X82454992Y-34913198D01*
X82488664Y-34812183D01*
X82488664Y-34744839D01*
X82454992Y-34643824D01*
X82286633Y-34475465D01*
X82185618Y-34441794D01*
X82118275Y-34441794D01*
X82017259Y-34475465D01*
X81882572Y-34610152D01*
X81848901Y-34711168D01*
X81848901Y-34778511D01*
X81882572Y-34879526D01*
X66512183Y-35856007D02*
X65805076Y-35148901D01*
X65973435Y-34980542D01*
X66108122Y-34913198D01*
X66242809Y-34913198D01*
X66343824Y-34946870D01*
X66512183Y-35047885D01*
X66613198Y-35148901D01*
X66714214Y-35317259D01*
X66747885Y-35418275D01*
X66747885Y-35552962D01*
X66680542Y-35687649D01*
X66512183Y-35856007D01*
X66848901Y-34105076D02*
X66512183Y-34441794D01*
X66815229Y-34812183D01*
X66815229Y-34744839D01*
X66848901Y-34643824D01*
X67017259Y-34475465D01*
X67118275Y-34441794D01*
X67185618Y-34441794D01*
X67286633Y-34475465D01*
X67454992Y-34643824D01*
X67488664Y-34744839D01*
X67488664Y-34812183D01*
X67454992Y-34913198D01*
X67286633Y-35081557D01*
X67185618Y-35115229D01*
X67118275Y-35115229D01*
X87012183Y-39856007D02*
X86305076Y-39148901D01*
X86473435Y-38980542D01*
X86608122Y-38913198D01*
X86742809Y-38913198D01*
X86843824Y-38946870D01*
X87012183Y-39047885D01*
X87113198Y-39148901D01*
X87214214Y-39317259D01*
X87247885Y-39418275D01*
X87247885Y-39552962D01*
X87180542Y-39687649D01*
X87012183Y-39856007D01*
X87550931Y-38374450D02*
X88022336Y-38845855D01*
X87113198Y-38273435D02*
X87449916Y-38946870D01*
X87887649Y-38509137D01*
X72012183Y-39856007D02*
X71305076Y-39148901D01*
X71473435Y-38980542D01*
X71608122Y-38913198D01*
X71742809Y-38913198D01*
X71843824Y-38946870D01*
X72012183Y-39047885D01*
X72113198Y-39148901D01*
X72214214Y-39317259D01*
X72247885Y-39418275D01*
X72247885Y-39552962D01*
X72180542Y-39687649D01*
X72012183Y-39856007D01*
X71944839Y-38509137D02*
X72382572Y-38071404D01*
X72416244Y-38576481D01*
X72517259Y-38475465D01*
X72618275Y-38441794D01*
X72685618Y-38441794D01*
X72786633Y-38475465D01*
X72954992Y-38643824D01*
X72988664Y-38744839D01*
X72988664Y-38812183D01*
X72954992Y-38913198D01*
X72752962Y-39115229D01*
X72651946Y-39148901D01*
X72584603Y-39148901D01*
X134707142Y-55366666D02*
X134754761Y-55414285D01*
X134802380Y-55557142D01*
X134802380Y-55652380D01*
X134754761Y-55795238D01*
X134659523Y-55890476D01*
X134564285Y-55938095D01*
X134373809Y-55985714D01*
X134230952Y-55985714D01*
X134040476Y-55938095D01*
X133945238Y-55890476D01*
X133850000Y-55795238D01*
X133802380Y-55652380D01*
X133802380Y-55557142D01*
X133850000Y-55414285D01*
X133897619Y-55366666D01*
X133802380Y-55033333D02*
X133802380Y-54366666D01*
X134802380Y-54795238D01*
X131407142Y-65266666D02*
X131454761Y-65314285D01*
X131502380Y-65457142D01*
X131502380Y-65552380D01*
X131454761Y-65695238D01*
X131359523Y-65790476D01*
X131264285Y-65838095D01*
X131073809Y-65885714D01*
X130930952Y-65885714D01*
X130740476Y-65838095D01*
X130645238Y-65790476D01*
X130550000Y-65695238D01*
X130502380Y-65552380D01*
X130502380Y-65457142D01*
X130550000Y-65314285D01*
X130597619Y-65266666D01*
X130502380Y-64409523D02*
X130502380Y-64600000D01*
X130550000Y-64695238D01*
X130597619Y-64742857D01*
X130740476Y-64838095D01*
X130930952Y-64885714D01*
X131311904Y-64885714D01*
X131407142Y-64838095D01*
X131454761Y-64790476D01*
X131502380Y-64695238D01*
X131502380Y-64504761D01*
X131454761Y-64409523D01*
X131407142Y-64361904D01*
X131311904Y-64314285D01*
X131073809Y-64314285D01*
X130978571Y-64361904D01*
X130930952Y-64409523D01*
X130883333Y-64504761D01*
X130883333Y-64695238D01*
X130930952Y-64790476D01*
X130978571Y-64838095D01*
X131073809Y-64885714D01*
X118233333Y-71107142D02*
X118185714Y-71154761D01*
X118042857Y-71202380D01*
X117947619Y-71202380D01*
X117804761Y-71154761D01*
X117709523Y-71059523D01*
X117661904Y-70964285D01*
X117614285Y-70773809D01*
X117614285Y-70630952D01*
X117661904Y-70440476D01*
X117709523Y-70345238D01*
X117804761Y-70250000D01*
X117947619Y-70202380D01*
X118042857Y-70202380D01*
X118185714Y-70250000D01*
X118233333Y-70297619D01*
X119138095Y-70202380D02*
X118661904Y-70202380D01*
X118614285Y-70678571D01*
X118661904Y-70630952D01*
X118757142Y-70583333D01*
X118995238Y-70583333D01*
X119090476Y-70630952D01*
X119138095Y-70678571D01*
X119185714Y-70773809D01*
X119185714Y-71011904D01*
X119138095Y-71107142D01*
X119090476Y-71154761D01*
X118995238Y-71202380D01*
X118757142Y-71202380D01*
X118661904Y-71154761D01*
X118614285Y-71107142D01*
X116407142Y-55266666D02*
X116454761Y-55314285D01*
X116502380Y-55457142D01*
X116502380Y-55552380D01*
X116454761Y-55695238D01*
X116359523Y-55790476D01*
X116264285Y-55838095D01*
X116073809Y-55885714D01*
X115930952Y-55885714D01*
X115740476Y-55838095D01*
X115645238Y-55790476D01*
X115550000Y-55695238D01*
X115502380Y-55552380D01*
X115502380Y-55457142D01*
X115550000Y-55314285D01*
X115597619Y-55266666D01*
X115835714Y-54409523D02*
X116502380Y-54409523D01*
X115454761Y-54647619D02*
X116169047Y-54885714D01*
X116169047Y-54266666D01*
X122533333Y-49407142D02*
X122485714Y-49454761D01*
X122342857Y-49502380D01*
X122247619Y-49502380D01*
X122104761Y-49454761D01*
X122009523Y-49359523D01*
X121961904Y-49264285D01*
X121914285Y-49073809D01*
X121914285Y-48930952D01*
X121961904Y-48740476D01*
X122009523Y-48645238D01*
X122104761Y-48550000D01*
X122247619Y-48502380D01*
X122342857Y-48502380D01*
X122485714Y-48550000D01*
X122533333Y-48597619D01*
X122866666Y-48502380D02*
X123485714Y-48502380D01*
X123152380Y-48883333D01*
X123295238Y-48883333D01*
X123390476Y-48930952D01*
X123438095Y-48978571D01*
X123485714Y-49073809D01*
X123485714Y-49311904D01*
X123438095Y-49407142D01*
X123390476Y-49454761D01*
X123295238Y-49502380D01*
X123009523Y-49502380D01*
X122914285Y-49454761D01*
X122866666Y-49407142D01*
M02*
