G04 #@! TF.GenerationSoftware,KiCad,Pcbnew,(5.1.5)-3*
G04 #@! TF.CreationDate,2020-04-17T15:53:12-04:00*
G04 #@! TF.ProjectId,Flying_MX,466c7969-6e67-45f4-9d58-2e6b69636164,rev?*
G04 #@! TF.SameCoordinates,Original*
G04 #@! TF.FileFunction,Copper,L2,Bot*
G04 #@! TF.FilePolarity,Positive*
%FSLAX46Y46*%
G04 Gerber Fmt 4.6, Leading zero omitted, Abs format (unit mm)*
G04 Created by KiCad (PCBNEW (5.1.5)-3) date 2020-04-17 15:53:12*
%MOMM*%
%LPD*%
G04 APERTURE LIST*
%ADD10O,0.900000X1.700000*%
%ADD11O,0.900000X2.400000*%
%ADD12C,0.700000*%
%ADD13C,2.200000*%
%ADD14C,2.500000*%
%ADD15C,2.286000*%
%ADD16O,2.300000X3.337000*%
%ADD17C,3.987800*%
%ADD18C,1.701800*%
%ADD19R,1.800000X0.820000*%
%ADD20C,0.800000*%
%ADD21C,0.250000*%
%ADD22C,0.254000*%
G04 APERTURE END LIST*
D10*
X119200000Y-31540000D03*
X127850000Y-31540000D03*
D11*
X119200000Y-34920000D03*
X127850000Y-34920000D03*
D12*
X123100000Y-34550000D03*
X120550000Y-34550000D03*
X121400000Y-34550000D03*
X122250000Y-34550000D03*
X126500000Y-34550000D03*
X124800000Y-34550000D03*
X123950000Y-34550000D03*
X125650000Y-34550000D03*
X120550000Y-35900000D03*
X121400000Y-35900000D03*
X122250000Y-35900000D03*
X123100000Y-35900000D03*
X123950000Y-35900000D03*
X124800000Y-35900000D03*
X125650000Y-35900000D03*
X126500000Y-35900000D03*
D13*
X65325000Y-66843750D03*
D14*
X60325000Y-64743750D03*
D13*
X55230020Y-66843750D03*
D15*
X56515000Y-68103750D03*
X64135000Y-68103750D03*
D16*
X57805000Y-66143750D03*
X62845000Y-66143750D03*
D17*
X60325000Y-70643750D03*
D18*
X55245000Y-70643750D03*
X65405000Y-70643750D03*
D13*
X105012500Y-66843750D03*
D14*
X100012500Y-64743750D03*
D13*
X94917520Y-66843750D03*
D15*
X96202500Y-68103750D03*
X103822500Y-68103750D03*
D16*
X97492500Y-66143750D03*
X102532500Y-66143750D03*
D17*
X100012500Y-70643750D03*
D18*
X94932500Y-70643750D03*
X105092500Y-70643750D03*
D13*
X85168750Y-66843750D03*
D14*
X80168750Y-64743750D03*
D13*
X75073770Y-66843750D03*
D15*
X76358750Y-68103750D03*
X83978750Y-68103750D03*
D16*
X77648750Y-66143750D03*
X82688750Y-66143750D03*
D17*
X80168750Y-70643750D03*
D18*
X75088750Y-70643750D03*
X85248750Y-70643750D03*
D13*
X105012500Y-47000000D03*
D14*
X100012500Y-44900000D03*
D13*
X94917520Y-47000000D03*
D15*
X96202500Y-48260000D03*
X103822500Y-48260000D03*
D16*
X97492500Y-46300000D03*
X102532500Y-46300000D03*
D17*
X100012500Y-50800000D03*
D18*
X94932500Y-50800000D03*
X105092500Y-50800000D03*
D13*
X85168750Y-47000000D03*
D14*
X80168750Y-44900000D03*
D13*
X75073770Y-47000000D03*
D15*
X76358750Y-48260000D03*
X83978750Y-48260000D03*
D16*
X77648750Y-46300000D03*
X82688750Y-46300000D03*
D17*
X80168750Y-50800000D03*
D18*
X75088750Y-50800000D03*
X85248750Y-50800000D03*
D13*
X65325000Y-47000000D03*
D14*
X60325000Y-44900000D03*
D13*
X55230020Y-47000000D03*
D15*
X56515000Y-48260000D03*
X64135000Y-48260000D03*
D16*
X57805000Y-46300000D03*
X62845000Y-46300000D03*
D17*
X60325000Y-50800000D03*
D18*
X55245000Y-50800000D03*
X65405000Y-50800000D03*
D19*
X102762500Y-76156250D03*
X102762500Y-74656250D03*
X97262500Y-74656250D03*
X97262500Y-76156250D03*
X82918750Y-76156250D03*
X82918750Y-74656250D03*
X77418750Y-74656250D03*
X77418750Y-76156250D03*
X63075000Y-76156250D03*
X63075000Y-74656250D03*
X57575000Y-74656250D03*
X57575000Y-76156250D03*
X102762500Y-56312500D03*
X102762500Y-54812500D03*
X97262500Y-54812500D03*
X97262500Y-56312500D03*
X82918750Y-56312500D03*
X82918750Y-54812500D03*
X77418750Y-54812500D03*
X77418750Y-56312500D03*
X63075000Y-56312500D03*
X63075000Y-54812500D03*
X57575000Y-54812500D03*
X57575000Y-56312500D03*
D20*
X51375000Y-60300000D03*
X53600000Y-77300000D03*
X116200000Y-59300000D03*
X115000000Y-58100000D03*
X127900000Y-48400000D03*
X119600000Y-48800000D03*
X126500000Y-73500000D03*
X120600000Y-73500000D03*
X88000000Y-35500000D03*
X72800000Y-35600000D03*
X57900000Y-35600000D03*
X52100000Y-55300000D03*
X52200000Y-71400000D03*
X133500000Y-44800000D03*
X55500000Y-56500000D03*
X55400000Y-59500000D03*
X84400000Y-59500000D03*
X86700000Y-56787510D03*
X75200000Y-56787510D03*
X75200000Y-58775000D03*
X53300000Y-74800000D03*
X53300000Y-65000000D03*
X66300000Y-62900000D03*
X68200000Y-56787510D03*
X121800000Y-43100000D03*
X66900000Y-64500000D03*
X68925001Y-62474999D03*
X107711748Y-63213558D03*
X86900000Y-64600000D03*
X88500000Y-62900000D03*
X107004640Y-63920665D03*
X105200000Y-64700000D03*
X116300000Y-65000000D03*
X132300000Y-34100000D03*
X132100000Y-38300000D03*
D21*
X82370148Y-77364852D02*
X82918750Y-76816250D01*
X63075000Y-76816250D02*
X63623602Y-77364852D01*
X102213898Y-77364852D02*
X102762500Y-76816250D01*
X82918750Y-76816250D02*
X83467352Y-77364852D01*
X102762500Y-76816250D02*
X102762500Y-76156250D01*
X82918750Y-76156250D02*
X82918750Y-76816250D01*
X68664852Y-77364852D02*
X69464852Y-77364852D01*
X68664852Y-77364852D02*
X82370148Y-77364852D01*
X63623602Y-77364852D02*
X68664852Y-77364852D01*
X83458760Y-57512510D02*
X82918750Y-56972500D01*
X102762500Y-56972500D02*
X102222490Y-57512510D01*
X102762500Y-56312500D02*
X102762500Y-56972500D01*
X63615010Y-57512510D02*
X63075000Y-56972500D01*
X63075000Y-56972500D02*
X63075000Y-56312500D01*
X82378740Y-57512510D02*
X63615010Y-57512510D01*
X82918750Y-56972500D02*
X82378740Y-57512510D01*
X82918750Y-56312500D02*
X82918750Y-56972500D01*
X63075000Y-56972500D02*
X62447500Y-57600000D01*
X62447500Y-57600000D02*
X54075000Y-57600000D01*
X54075000Y-57600000D02*
X51375000Y-60300000D01*
X62191251Y-77699999D02*
X63075000Y-76816250D01*
X53999999Y-77699999D02*
X62191251Y-77699999D01*
X63075000Y-76816250D02*
X63075000Y-76156250D01*
X53600000Y-77300000D02*
X53999999Y-77699999D01*
X83467352Y-77364852D02*
X102213898Y-77364852D01*
X102222490Y-57512510D02*
X83458760Y-57512510D01*
X116200000Y-59300000D02*
X115000000Y-58100000D01*
X127334315Y-48400000D02*
X126734315Y-49000000D01*
X127900000Y-48400000D02*
X127334315Y-48400000D01*
X126734315Y-49000000D02*
X119800000Y-49000000D01*
X119800000Y-49000000D02*
X119600000Y-48800000D01*
X126500000Y-73500000D02*
X120600000Y-73500000D01*
X88000000Y-35500000D02*
X72900000Y-35500000D01*
X72900000Y-35500000D02*
X72800000Y-35600000D01*
X72800000Y-35600000D02*
X72234315Y-35600000D01*
X72234315Y-35600000D02*
X57900000Y-35600000D01*
X97262500Y-54152500D02*
X97262500Y-54812500D01*
X77418750Y-54152500D02*
X77967353Y-53603897D01*
X96713897Y-53603897D02*
X97262500Y-54152500D01*
X57575000Y-54812500D02*
X57085000Y-54812500D01*
X76878740Y-73456240D02*
X77418750Y-73996250D01*
X58115010Y-73456240D02*
X76878740Y-73456240D01*
X57575000Y-73996250D02*
X58115010Y-73456240D01*
X97262500Y-73996250D02*
X97262500Y-74656250D01*
X96722490Y-73456240D02*
X97262500Y-73996250D01*
X77418750Y-73996250D02*
X77958760Y-73456240D01*
X77418750Y-74656250D02*
X77418750Y-73996250D01*
X91603897Y-53603897D02*
X96713897Y-53603897D01*
X77967353Y-53603897D02*
X91603897Y-53603897D01*
X77958760Y-73456240D02*
X91900000Y-73400000D01*
X91900000Y-65800000D02*
X91900000Y-73400000D01*
X91900000Y-73400000D02*
X96722490Y-73456240D01*
X98296099Y-53118901D02*
X126181099Y-53118901D01*
X97262500Y-54152500D02*
X98296099Y-53118901D01*
X76857957Y-53591707D02*
X58135793Y-53591707D01*
X58135793Y-53591707D02*
X57575000Y-54152500D01*
X77418750Y-54152500D02*
X76857957Y-53591707D01*
X57575000Y-54152500D02*
X57575000Y-54812500D01*
X77418750Y-54812500D02*
X77418750Y-54152500D01*
X53325001Y-54074999D02*
X52100000Y-55300000D01*
X57575000Y-54152500D02*
X57497499Y-54074999D01*
X57497499Y-54074999D02*
X53325001Y-54074999D01*
X52200000Y-71400000D02*
X54000000Y-73200000D01*
X57575000Y-73996250D02*
X57575000Y-74656250D01*
X56778750Y-73200000D02*
X57575000Y-73996250D01*
X54000000Y-73200000D02*
X56778750Y-73200000D01*
X126181099Y-53118901D02*
X129481099Y-53118901D01*
X129481099Y-53118901D02*
X133500000Y-49100000D01*
X133500000Y-49100000D02*
X133500000Y-46400000D01*
X133500000Y-46400000D02*
X133500000Y-44800000D01*
X57575000Y-56312500D02*
X55687500Y-56312500D01*
X55687500Y-56312500D02*
X55500000Y-56500000D01*
X55400000Y-59500000D02*
X84400000Y-59500000D01*
X83408750Y-54812500D02*
X82918750Y-54812500D01*
X85383760Y-56787510D02*
X83408750Y-54812500D01*
X86700000Y-56787510D02*
X85383760Y-56787510D01*
X77418750Y-56312500D02*
X75675010Y-56312500D01*
X75675010Y-56312500D02*
X75200000Y-56787510D01*
X103912500Y-54812500D02*
X102762500Y-54812500D01*
X103987501Y-54887501D02*
X103912500Y-54812500D01*
X103987501Y-57112499D02*
X103987501Y-54887501D01*
X102325000Y-58775000D02*
X103987501Y-57112499D01*
X75200000Y-58775000D02*
X102325000Y-58775000D01*
X63075000Y-73996250D02*
X63075000Y-74656250D01*
X63152501Y-73918749D02*
X63075000Y-73996250D01*
X68131522Y-76156250D02*
X65894021Y-73918749D01*
X65894021Y-73918749D02*
X63152501Y-73918749D01*
X77418750Y-76156250D02*
X68131522Y-76156250D01*
X57575000Y-76156250D02*
X54656250Y-76156250D01*
X54656250Y-76156250D02*
X53300000Y-74800000D01*
X53300000Y-65000000D02*
X55400000Y-62900000D01*
X55400000Y-62900000D02*
X66300000Y-62900000D01*
X63565000Y-54812500D02*
X63075000Y-54812500D01*
X64225000Y-55472500D02*
X63565000Y-54812500D01*
X64225000Y-55567498D02*
X64225000Y-55472500D01*
X65445012Y-56787510D02*
X64225000Y-55567498D01*
X68200000Y-56787510D02*
X65445012Y-56787510D01*
X123274999Y-35075997D02*
X123950000Y-35750998D01*
X123274999Y-34674999D02*
X123274999Y-35075997D01*
X123150000Y-34550000D02*
X123274999Y-34674999D01*
X123950000Y-35750998D02*
X123950000Y-35900000D01*
X123100000Y-34550000D02*
X123150000Y-34550000D01*
X123950000Y-36394974D02*
X123900000Y-36444974D01*
X123950000Y-35900000D02*
X123950000Y-36394974D01*
X123900000Y-36444974D02*
X123900000Y-41900000D01*
X123900000Y-41900000D02*
X122700000Y-43100000D01*
X122700000Y-43100000D02*
X121800000Y-43100000D01*
X60325000Y-64743750D02*
X66656250Y-64743750D01*
X66656250Y-64743750D02*
X66900000Y-64500000D01*
X106573190Y-62075000D02*
X107711748Y-63213558D01*
X68925001Y-62474999D02*
X69325000Y-62075000D01*
X69325000Y-62075000D02*
X106573190Y-62075000D01*
X80168750Y-64743750D02*
X86756250Y-64743750D01*
X86756250Y-64743750D02*
X86900000Y-64600000D01*
X88500000Y-62900000D02*
X105983975Y-62900000D01*
X105983975Y-62900000D02*
X107004640Y-63920665D01*
X100012500Y-64743750D02*
X105156250Y-64743750D01*
X105156250Y-64743750D02*
X105200000Y-64700000D01*
X82918750Y-73996250D02*
X82918750Y-74656250D01*
X82996251Y-73918749D02*
X82918750Y-73996250D01*
X85737771Y-73918749D02*
X82996251Y-73918749D01*
X87975272Y-76156250D02*
X85737771Y-73918749D01*
X97262500Y-76156250D02*
X87975272Y-76156250D01*
X108100000Y-73200000D02*
X116300000Y-65000000D01*
X102762500Y-73996250D02*
X102762500Y-74656250D01*
X103558750Y-73200000D02*
X102762500Y-73996250D01*
X108100000Y-73200000D02*
X103558750Y-73200000D01*
X132300000Y-34100000D02*
X131200000Y-33000000D01*
X122250000Y-34055026D02*
X122250000Y-34550000D01*
X122250000Y-34051000D02*
X122250000Y-34055026D01*
X123301000Y-33000000D02*
X122250000Y-34051000D01*
X131200000Y-33000000D02*
X123301000Y-33000000D01*
X126705026Y-38300000D02*
X132100000Y-38300000D01*
X124800000Y-35900000D02*
X124800000Y-36394974D01*
X124800000Y-36394974D02*
X126705026Y-38300000D01*
D22*
G36*
X118160624Y-30803767D02*
G01*
X118115000Y-31013000D01*
X118115000Y-31413000D01*
X119073000Y-31413000D01*
X119073000Y-31393000D01*
X119327000Y-31393000D01*
X119327000Y-31413000D01*
X120285000Y-31413000D01*
X120285000Y-31013000D01*
X120239376Y-30803767D01*
X120176712Y-30660000D01*
X126873288Y-30660000D01*
X126810624Y-30803767D01*
X126765000Y-31013000D01*
X126765000Y-31413000D01*
X127723000Y-31413000D01*
X127723000Y-31393000D01*
X127977000Y-31393000D01*
X127977000Y-31413000D01*
X128935000Y-31413000D01*
X128935000Y-31013000D01*
X128889376Y-30803767D01*
X128826712Y-30660000D01*
X136867721Y-30660000D01*
X137159659Y-30688625D01*
X137409429Y-30764035D01*
X137639792Y-30886522D01*
X137841980Y-31051422D01*
X138008286Y-31252450D01*
X138132378Y-31481954D01*
X138209531Y-31731195D01*
X138240000Y-32021088D01*
X138240001Y-78767711D01*
X138211375Y-79059660D01*
X138135965Y-79309429D01*
X138013477Y-79539794D01*
X137848579Y-79741979D01*
X137647546Y-79908288D01*
X137418046Y-80032378D01*
X137168805Y-80109531D01*
X136878911Y-80140000D01*
X52032279Y-80140000D01*
X51740340Y-80111375D01*
X51490571Y-80035965D01*
X51260206Y-79913477D01*
X51058021Y-79748579D01*
X50891712Y-79547546D01*
X50767622Y-79318046D01*
X50690469Y-79068805D01*
X50660000Y-78778911D01*
X50660000Y-71298061D01*
X51165000Y-71298061D01*
X51165000Y-71501939D01*
X51204774Y-71701898D01*
X51282795Y-71890256D01*
X51396063Y-72059774D01*
X51540226Y-72203937D01*
X51709744Y-72317205D01*
X51898102Y-72395226D01*
X52098061Y-72435000D01*
X52160198Y-72435000D01*
X53436205Y-73711008D01*
X53459999Y-73740001D01*
X53488992Y-73763795D01*
X53488996Y-73763799D01*
X53518779Y-73788241D01*
X53401939Y-73765000D01*
X53198061Y-73765000D01*
X52998102Y-73804774D01*
X52809744Y-73882795D01*
X52640226Y-73996063D01*
X52496063Y-74140226D01*
X52382795Y-74309744D01*
X52304774Y-74498102D01*
X52265000Y-74698061D01*
X52265000Y-74901939D01*
X52304774Y-75101898D01*
X52382795Y-75290256D01*
X52496063Y-75459774D01*
X52640226Y-75603937D01*
X52809744Y-75717205D01*
X52998102Y-75795226D01*
X53198061Y-75835000D01*
X53260199Y-75835000D01*
X54092451Y-76667253D01*
X54116249Y-76696251D01*
X54145247Y-76720049D01*
X54231973Y-76791224D01*
X54293180Y-76823940D01*
X54364003Y-76861796D01*
X54507264Y-76905253D01*
X54618917Y-76916250D01*
X54618926Y-76916250D01*
X54656249Y-76919926D01*
X54693572Y-76916250D01*
X56142061Y-76916250D01*
X56144463Y-76920744D01*
X56223815Y-77017435D01*
X56320506Y-77096787D01*
X56430820Y-77155752D01*
X56550518Y-77192062D01*
X56675000Y-77204322D01*
X57963658Y-77204322D01*
X57978621Y-77231996D01*
X58012082Y-77281605D01*
X58044835Y-77331656D01*
X58050660Y-77338797D01*
X58075541Y-77368872D01*
X58117980Y-77411015D01*
X58159838Y-77453758D01*
X58166939Y-77459631D01*
X58166942Y-77459634D01*
X58166946Y-77459636D01*
X58197187Y-77484301D01*
X58246975Y-77517379D01*
X58296362Y-77551196D01*
X58304469Y-77555578D01*
X58338933Y-77573903D01*
X58394215Y-77596689D01*
X58449218Y-77620264D01*
X58458021Y-77622989D01*
X58495388Y-77634271D01*
X58554066Y-77645889D01*
X58573826Y-77650090D01*
X58595617Y-77656700D01*
X58619112Y-77659014D01*
X58621748Y-77659291D01*
X58660595Y-77663100D01*
X58660598Y-77663100D01*
X58692581Y-77666250D01*
X61957419Y-77666250D01*
X61985123Y-77663521D01*
X61986211Y-77663529D01*
X61995382Y-77662630D01*
X62013389Y-77660738D01*
X62054383Y-77656700D01*
X62077756Y-77649610D01*
X62092779Y-77646526D01*
X62151558Y-77635314D01*
X62160379Y-77632650D01*
X62197667Y-77621108D01*
X62252810Y-77597928D01*
X62308273Y-77575520D01*
X62316410Y-77571194D01*
X62350746Y-77552629D01*
X62400355Y-77519168D01*
X62450406Y-77486415D01*
X62457547Y-77480590D01*
X62487622Y-77455709D01*
X62529765Y-77413270D01*
X62572508Y-77371412D01*
X62578381Y-77364311D01*
X62578384Y-77364308D01*
X62578386Y-77364304D01*
X62603051Y-77334063D01*
X62636129Y-77284275D01*
X62669946Y-77234888D01*
X62674328Y-77226781D01*
X62687633Y-77201758D01*
X62789250Y-77201250D01*
X62948000Y-77042500D01*
X62948000Y-76283250D01*
X63202000Y-76283250D01*
X63202000Y-77042500D01*
X63360750Y-77201250D01*
X63975000Y-77204322D01*
X64099482Y-77192062D01*
X64219180Y-77155752D01*
X64329494Y-77096787D01*
X64426185Y-77017435D01*
X64505537Y-76920744D01*
X64564502Y-76810430D01*
X64600812Y-76690732D01*
X64613072Y-76566250D01*
X64610000Y-76442000D01*
X64451250Y-76283250D01*
X63202000Y-76283250D01*
X62948000Y-76283250D01*
X62928000Y-76283250D01*
X62928000Y-76029250D01*
X62948000Y-76029250D01*
X62948000Y-76009250D01*
X63202000Y-76009250D01*
X63202000Y-76029250D01*
X64451250Y-76029250D01*
X64610000Y-75870500D01*
X64612901Y-75753185D01*
X64662753Y-75803037D01*
X64865028Y-75938193D01*
X65089784Y-76031290D01*
X65328383Y-76078750D01*
X65571657Y-76078750D01*
X65810256Y-76031290D01*
X66035012Y-75938193D01*
X66237287Y-75803037D01*
X66409307Y-75631017D01*
X66458246Y-75557775D01*
X67567723Y-76667253D01*
X67591521Y-76696251D01*
X67707246Y-76791224D01*
X67839275Y-76861796D01*
X67982536Y-76905253D01*
X68094189Y-76916250D01*
X68094198Y-76916250D01*
X68131521Y-76919926D01*
X68168844Y-76916250D01*
X75985811Y-76916250D01*
X75988213Y-76920744D01*
X76067565Y-77017435D01*
X76164256Y-77096787D01*
X76274570Y-77155752D01*
X76394268Y-77192062D01*
X76518750Y-77204322D01*
X77807408Y-77204322D01*
X77822371Y-77231996D01*
X77855832Y-77281605D01*
X77888585Y-77331656D01*
X77894410Y-77338797D01*
X77919291Y-77368872D01*
X77961730Y-77411015D01*
X78003588Y-77453758D01*
X78010689Y-77459631D01*
X78010692Y-77459634D01*
X78010696Y-77459636D01*
X78040937Y-77484301D01*
X78090725Y-77517379D01*
X78140112Y-77551196D01*
X78148219Y-77555578D01*
X78182683Y-77573903D01*
X78237965Y-77596689D01*
X78292968Y-77620264D01*
X78301771Y-77622989D01*
X78339138Y-77634271D01*
X78397816Y-77645889D01*
X78417576Y-77650090D01*
X78439367Y-77656700D01*
X78462862Y-77659014D01*
X78465498Y-77659291D01*
X78504345Y-77663100D01*
X78504348Y-77663100D01*
X78536331Y-77666250D01*
X81801169Y-77666250D01*
X81828873Y-77663521D01*
X81829961Y-77663529D01*
X81839132Y-77662630D01*
X81857139Y-77660738D01*
X81898133Y-77656700D01*
X81921506Y-77649610D01*
X81936529Y-77646526D01*
X81995308Y-77635314D01*
X82004129Y-77632650D01*
X82041417Y-77621108D01*
X82096560Y-77597928D01*
X82152023Y-77575520D01*
X82160160Y-77571194D01*
X82194496Y-77552629D01*
X82244105Y-77519168D01*
X82294156Y-77486415D01*
X82301297Y-77480590D01*
X82331372Y-77455709D01*
X82373515Y-77413270D01*
X82416258Y-77371412D01*
X82422131Y-77364311D01*
X82422134Y-77364308D01*
X82422136Y-77364304D01*
X82446801Y-77334063D01*
X82479879Y-77284275D01*
X82513696Y-77234888D01*
X82518078Y-77226781D01*
X82531383Y-77201758D01*
X82633000Y-77201250D01*
X82791750Y-77042500D01*
X82791750Y-76283250D01*
X83045750Y-76283250D01*
X83045750Y-77042500D01*
X83204500Y-77201250D01*
X83818750Y-77204322D01*
X83943232Y-77192062D01*
X84062930Y-77155752D01*
X84173244Y-77096787D01*
X84269935Y-77017435D01*
X84349287Y-76920744D01*
X84408252Y-76810430D01*
X84444562Y-76690732D01*
X84456822Y-76566250D01*
X84453750Y-76442000D01*
X84295000Y-76283250D01*
X83045750Y-76283250D01*
X82791750Y-76283250D01*
X82771750Y-76283250D01*
X82771750Y-76029250D01*
X82791750Y-76029250D01*
X82791750Y-76009250D01*
X83045750Y-76009250D01*
X83045750Y-76029250D01*
X84295000Y-76029250D01*
X84453750Y-75870500D01*
X84456651Y-75753185D01*
X84506503Y-75803037D01*
X84708778Y-75938193D01*
X84933534Y-76031290D01*
X85172133Y-76078750D01*
X85415407Y-76078750D01*
X85654006Y-76031290D01*
X85878762Y-75938193D01*
X86081037Y-75803037D01*
X86253057Y-75631017D01*
X86301996Y-75557775D01*
X87411473Y-76667253D01*
X87435271Y-76696251D01*
X87550996Y-76791224D01*
X87683025Y-76861796D01*
X87826286Y-76905253D01*
X87937939Y-76916250D01*
X87937948Y-76916250D01*
X87975271Y-76919926D01*
X88012594Y-76916250D01*
X95829561Y-76916250D01*
X95831963Y-76920744D01*
X95911315Y-77017435D01*
X96008006Y-77096787D01*
X96118320Y-77155752D01*
X96238018Y-77192062D01*
X96362500Y-77204322D01*
X97651158Y-77204322D01*
X97666121Y-77231996D01*
X97699582Y-77281605D01*
X97732335Y-77331656D01*
X97738160Y-77338797D01*
X97763041Y-77368872D01*
X97805480Y-77411015D01*
X97847338Y-77453758D01*
X97854439Y-77459631D01*
X97854442Y-77459634D01*
X97854446Y-77459636D01*
X97884687Y-77484301D01*
X97934475Y-77517379D01*
X97983862Y-77551196D01*
X97991969Y-77555578D01*
X98026433Y-77573903D01*
X98081715Y-77596689D01*
X98136718Y-77620264D01*
X98145521Y-77622989D01*
X98182888Y-77634271D01*
X98241566Y-77645889D01*
X98261326Y-77650090D01*
X98283117Y-77656700D01*
X98306612Y-77659014D01*
X98309248Y-77659291D01*
X98348095Y-77663100D01*
X98348098Y-77663100D01*
X98380081Y-77666250D01*
X101644919Y-77666250D01*
X101672623Y-77663521D01*
X101673711Y-77663529D01*
X101682882Y-77662630D01*
X101700889Y-77660738D01*
X101741883Y-77656700D01*
X101765256Y-77649610D01*
X101780279Y-77646526D01*
X101839058Y-77635314D01*
X101847879Y-77632650D01*
X101885167Y-77621108D01*
X101940310Y-77597928D01*
X101995773Y-77575520D01*
X102003910Y-77571194D01*
X102038246Y-77552629D01*
X102087855Y-77519168D01*
X102137906Y-77486415D01*
X102145047Y-77480590D01*
X102175122Y-77455709D01*
X102217265Y-77413270D01*
X102260008Y-77371412D01*
X102265881Y-77364311D01*
X102265884Y-77364308D01*
X102265886Y-77364304D01*
X102290551Y-77334063D01*
X102323629Y-77284275D01*
X102357446Y-77234888D01*
X102361828Y-77226781D01*
X102375133Y-77201758D01*
X102476750Y-77201250D01*
X102635500Y-77042500D01*
X102635500Y-76283250D01*
X102889500Y-76283250D01*
X102889500Y-77042500D01*
X103048250Y-77201250D01*
X103662500Y-77204322D01*
X103786982Y-77192062D01*
X103906680Y-77155752D01*
X104016994Y-77096787D01*
X104113685Y-77017435D01*
X104193037Y-76920744D01*
X104252002Y-76810430D01*
X104288312Y-76690732D01*
X104300572Y-76566250D01*
X104297500Y-76442000D01*
X104138750Y-76283250D01*
X102889500Y-76283250D01*
X102635500Y-76283250D01*
X102615500Y-76283250D01*
X102615500Y-76029250D01*
X102635500Y-76029250D01*
X102635500Y-76009250D01*
X102889500Y-76009250D01*
X102889500Y-76029250D01*
X104138750Y-76029250D01*
X104297500Y-75870500D01*
X104300401Y-75753185D01*
X104350253Y-75803037D01*
X104552528Y-75938193D01*
X104777284Y-76031290D01*
X105015883Y-76078750D01*
X105259157Y-76078750D01*
X105497756Y-76031290D01*
X105722512Y-75938193D01*
X105924787Y-75803037D01*
X106096807Y-75631017D01*
X106231963Y-75428742D01*
X106325060Y-75203986D01*
X106372520Y-74965387D01*
X106372520Y-74722113D01*
X106325060Y-74483514D01*
X106231963Y-74258758D01*
X106096807Y-74056483D01*
X106000324Y-73960000D01*
X108062678Y-73960000D01*
X108100000Y-73963676D01*
X108137322Y-73960000D01*
X108137333Y-73960000D01*
X108248986Y-73949003D01*
X108392247Y-73905546D01*
X108524276Y-73834974D01*
X108640001Y-73740001D01*
X108663804Y-73710997D01*
X108976740Y-73398061D01*
X119565000Y-73398061D01*
X119565000Y-73601939D01*
X119604774Y-73801898D01*
X119682795Y-73990256D01*
X119796063Y-74159774D01*
X119940226Y-74303937D01*
X120109744Y-74417205D01*
X120298102Y-74495226D01*
X120498061Y-74535000D01*
X120701939Y-74535000D01*
X120901898Y-74495226D01*
X121090256Y-74417205D01*
X121259774Y-74303937D01*
X121303711Y-74260000D01*
X125796289Y-74260000D01*
X125840226Y-74303937D01*
X126009744Y-74417205D01*
X126198102Y-74495226D01*
X126398061Y-74535000D01*
X126601939Y-74535000D01*
X126801898Y-74495226D01*
X126990256Y-74417205D01*
X127159774Y-74303937D01*
X127303937Y-74159774D01*
X127417205Y-73990256D01*
X127495226Y-73801898D01*
X127535000Y-73601939D01*
X127535000Y-73398061D01*
X127495226Y-73198102D01*
X127417205Y-73009744D01*
X127303937Y-72840226D01*
X127159774Y-72696063D01*
X126990256Y-72582795D01*
X126801898Y-72504774D01*
X126601939Y-72465000D01*
X126398061Y-72465000D01*
X126198102Y-72504774D01*
X126009744Y-72582795D01*
X125840226Y-72696063D01*
X125796289Y-72740000D01*
X121303711Y-72740000D01*
X121259774Y-72696063D01*
X121090256Y-72582795D01*
X120901898Y-72504774D01*
X120701939Y-72465000D01*
X120498061Y-72465000D01*
X120298102Y-72504774D01*
X120109744Y-72582795D01*
X119940226Y-72696063D01*
X119796063Y-72840226D01*
X119682795Y-73009744D01*
X119604774Y-73198102D01*
X119565000Y-73398061D01*
X108976740Y-73398061D01*
X116339802Y-66035000D01*
X116401939Y-66035000D01*
X116601898Y-65995226D01*
X116790256Y-65917205D01*
X116959774Y-65803937D01*
X117103937Y-65659774D01*
X117217205Y-65490256D01*
X117295226Y-65301898D01*
X117335000Y-65101939D01*
X117335000Y-64898061D01*
X117295226Y-64698102D01*
X117217205Y-64509744D01*
X117103937Y-64340226D01*
X116959774Y-64196063D01*
X116790256Y-64082795D01*
X116601898Y-64004774D01*
X116401939Y-63965000D01*
X116198061Y-63965000D01*
X115998102Y-64004774D01*
X115809744Y-64082795D01*
X115640226Y-64196063D01*
X115496063Y-64340226D01*
X115382795Y-64509744D01*
X115304774Y-64698102D01*
X115265000Y-64898061D01*
X115265000Y-64960198D01*
X107785199Y-72440000D01*
X103596083Y-72440000D01*
X103558750Y-72436323D01*
X103521417Y-72440000D01*
X103409764Y-72450997D01*
X103266503Y-72494454D01*
X103134474Y-72565026D01*
X103018749Y-72659999D01*
X102994952Y-72688996D01*
X102251502Y-73432447D01*
X102251062Y-73432808D01*
X102219520Y-73401485D01*
X102177662Y-73358742D01*
X102170561Y-73352868D01*
X102140312Y-73328199D01*
X102090542Y-73295133D01*
X102041138Y-73261304D01*
X102033031Y-73256922D01*
X101998567Y-73238597D01*
X101943285Y-73215811D01*
X101888282Y-73192236D01*
X101879479Y-73189511D01*
X101842112Y-73178229D01*
X101783427Y-73166609D01*
X101763675Y-73162411D01*
X101741883Y-73155800D01*
X101718388Y-73153486D01*
X101715752Y-73153209D01*
X101676905Y-73149400D01*
X101676902Y-73149400D01*
X101644919Y-73146250D01*
X100840578Y-73146250D01*
X101257751Y-72973451D01*
X101688326Y-72685750D01*
X102054500Y-72319576D01*
X102342201Y-71889001D01*
X102540373Y-71410572D01*
X102641400Y-70902674D01*
X102641400Y-70384826D01*
X102540373Y-69876928D01*
X102342201Y-69398499D01*
X102054500Y-68967924D01*
X101688326Y-68601750D01*
X101257751Y-68314049D01*
X100779322Y-68115877D01*
X100271424Y-68014850D01*
X99753576Y-68014850D01*
X99245678Y-68115877D01*
X98767249Y-68314049D01*
X98336674Y-68601750D01*
X97970500Y-68967924D01*
X97682799Y-69398499D01*
X97484627Y-69876928D01*
X97383600Y-70384826D01*
X97383600Y-70902674D01*
X97484627Y-71410572D01*
X97682799Y-71889001D01*
X97970500Y-72319576D01*
X98336674Y-72685750D01*
X98767249Y-72973451D01*
X99184422Y-73146250D01*
X98380081Y-73146250D01*
X98352377Y-73148979D01*
X98351289Y-73148971D01*
X98342118Y-73149870D01*
X98324119Y-73151762D01*
X98283117Y-73155800D01*
X98259742Y-73162891D01*
X98244722Y-73165974D01*
X98185943Y-73177186D01*
X98177121Y-73179850D01*
X98139834Y-73191392D01*
X98084708Y-73214564D01*
X98029227Y-73236979D01*
X98021093Y-73241305D01*
X98021088Y-73241307D01*
X98021083Y-73241310D01*
X97986754Y-73259871D01*
X97937161Y-73293322D01*
X97887094Y-73326085D01*
X97879953Y-73331910D01*
X97849878Y-73356791D01*
X97807735Y-73399230D01*
X97773671Y-73432589D01*
X97773509Y-73432456D01*
X97289432Y-72948380D01*
X97268751Y-72922573D01*
X97236631Y-72895580D01*
X97233492Y-72892441D01*
X97208049Y-72871560D01*
X97154141Y-72826257D01*
X97150225Y-72824105D01*
X97146766Y-72821266D01*
X97084645Y-72788061D01*
X97022944Y-72754150D01*
X97018680Y-72752802D01*
X97014736Y-72750694D01*
X96947362Y-72730257D01*
X96880200Y-72709026D01*
X96875753Y-72708536D01*
X96871475Y-72707238D01*
X96801408Y-72700337D01*
X96768683Y-72696728D01*
X96764241Y-72696676D01*
X96722490Y-72692564D01*
X96689579Y-72695805D01*
X92660000Y-72648812D01*
X92660000Y-65762667D01*
X92649003Y-65651014D01*
X92605546Y-65507753D01*
X92534974Y-65375724D01*
X92440001Y-65259999D01*
X92324275Y-65165026D01*
X92192246Y-65094454D01*
X92048985Y-65050997D01*
X91900000Y-65036323D01*
X91751014Y-65050997D01*
X91607753Y-65094454D01*
X91475724Y-65165026D01*
X91359999Y-65259999D01*
X91265026Y-65375725D01*
X91194454Y-65507754D01*
X91150997Y-65651015D01*
X91140000Y-65762668D01*
X91140001Y-72643060D01*
X81849789Y-72680537D01*
X82210750Y-72319576D01*
X82498451Y-71889001D01*
X82696623Y-71410572D01*
X82797650Y-70902674D01*
X82797650Y-70384826D01*
X82696623Y-69876928D01*
X82498451Y-69398499D01*
X82210750Y-68967924D01*
X81844576Y-68601750D01*
X81414001Y-68314049D01*
X80935572Y-68115877D01*
X80427674Y-68014850D01*
X79909826Y-68014850D01*
X79401928Y-68115877D01*
X78923499Y-68314049D01*
X78492924Y-68601750D01*
X78126750Y-68967924D01*
X77839049Y-69398499D01*
X77640877Y-69876928D01*
X77539850Y-70384826D01*
X77539850Y-70902674D01*
X77640877Y-71410572D01*
X77839049Y-71889001D01*
X78126750Y-72319576D01*
X78492924Y-72685750D01*
X78505315Y-72694029D01*
X77994555Y-72696090D01*
X77958759Y-72692564D01*
X77919906Y-72696391D01*
X77918362Y-72696397D01*
X77882634Y-72700062D01*
X77809773Y-72707238D01*
X77808292Y-72707687D01*
X77806754Y-72707845D01*
X77736665Y-72729415D01*
X77666513Y-72750695D01*
X77665150Y-72751424D01*
X77663670Y-72751879D01*
X77599108Y-72786724D01*
X77534483Y-72821267D01*
X77533287Y-72822248D01*
X77531926Y-72822983D01*
X77475608Y-72869584D01*
X77447756Y-72892441D01*
X77446660Y-72893537D01*
X77418936Y-72916477D01*
X77418741Y-72916239D01*
X77303016Y-72821266D01*
X77170987Y-72750694D01*
X77027726Y-72707237D01*
X76916073Y-72696240D01*
X76916062Y-72696240D01*
X76878740Y-72692564D01*
X76841418Y-72696240D01*
X61985127Y-72696240D01*
X62000826Y-72685750D01*
X62367000Y-72319576D01*
X62654701Y-71889001D01*
X62852873Y-71410572D01*
X62953900Y-70902674D01*
X62953900Y-70384826D01*
X62852873Y-69876928D01*
X62654701Y-69398499D01*
X62367000Y-68967924D01*
X62000826Y-68601750D01*
X61570251Y-68314049D01*
X61091822Y-68115877D01*
X60583924Y-68014850D01*
X60066076Y-68014850D01*
X59558178Y-68115877D01*
X59079749Y-68314049D01*
X58649174Y-68601750D01*
X58283000Y-68967924D01*
X57995299Y-69398499D01*
X57797127Y-69876928D01*
X57696100Y-70384826D01*
X57696100Y-70902674D01*
X57797127Y-71410572D01*
X57995299Y-71889001D01*
X58283000Y-72319576D01*
X58649174Y-72685750D01*
X58664873Y-72696240D01*
X58152332Y-72696240D01*
X58115009Y-72692564D01*
X58077686Y-72696240D01*
X58077677Y-72696240D01*
X57966024Y-72707237D01*
X57822763Y-72750694D01*
X57690734Y-72821266D01*
X57674695Y-72834429D01*
X57604006Y-72892441D01*
X57604002Y-72892445D01*
X57575009Y-72916239D01*
X57572657Y-72919105D01*
X57342553Y-72689002D01*
X57318751Y-72659999D01*
X57203026Y-72565026D01*
X57070997Y-72494454D01*
X56927736Y-72450997D01*
X56816083Y-72440000D01*
X56816072Y-72440000D01*
X56778750Y-72436324D01*
X56741428Y-72440000D01*
X54314803Y-72440000D01*
X53235000Y-71360198D01*
X53235000Y-71298061D01*
X53195226Y-71098102D01*
X53117205Y-70909744D01*
X53003937Y-70740226D01*
X52859774Y-70596063D01*
X52690256Y-70482795D01*
X52501898Y-70404774D01*
X52301939Y-70365000D01*
X52098061Y-70365000D01*
X51898102Y-70404774D01*
X51709744Y-70482795D01*
X51540226Y-70596063D01*
X51396063Y-70740226D01*
X51282795Y-70909744D01*
X51204774Y-71098102D01*
X51165000Y-71298061D01*
X50660000Y-71298061D01*
X50660000Y-64898061D01*
X52265000Y-64898061D01*
X52265000Y-65101939D01*
X52304774Y-65301898D01*
X52382795Y-65490256D01*
X52496063Y-65659774D01*
X52640226Y-65803937D01*
X52809744Y-65917205D01*
X52998102Y-65995226D01*
X53198061Y-66035000D01*
X53401939Y-66035000D01*
X53601898Y-65995226D01*
X53751810Y-65933130D01*
X53692483Y-66021919D01*
X53561695Y-66337669D01*
X53495020Y-66672867D01*
X53495020Y-67014633D01*
X53561695Y-67349831D01*
X53692483Y-67665581D01*
X53882357Y-67949748D01*
X54124022Y-68191413D01*
X54408189Y-68381287D01*
X54723939Y-68512075D01*
X54785837Y-68524387D01*
X54805328Y-68622373D01*
X54939357Y-68945949D01*
X55019881Y-69066462D01*
X54981109Y-69058750D01*
X54668891Y-69058750D01*
X54362673Y-69119661D01*
X54074221Y-69239141D01*
X53814621Y-69412600D01*
X53593850Y-69633371D01*
X53420391Y-69892971D01*
X53300911Y-70181423D01*
X53240000Y-70487641D01*
X53240000Y-70799859D01*
X53300911Y-71106077D01*
X53420391Y-71394529D01*
X53593850Y-71654129D01*
X53814621Y-71874900D01*
X54074221Y-72048359D01*
X54362673Y-72167839D01*
X54668891Y-72228750D01*
X54981109Y-72228750D01*
X55287327Y-72167839D01*
X55379524Y-72129650D01*
X55391348Y-72129650D01*
X55678421Y-72072548D01*
X55948838Y-71960538D01*
X56192206Y-71797924D01*
X56399174Y-71590956D01*
X56561788Y-71347588D01*
X56673798Y-71077171D01*
X56730900Y-70790098D01*
X56730900Y-70497402D01*
X56673798Y-70210329D01*
X56561788Y-69939912D01*
X56522925Y-69881750D01*
X56690118Y-69881750D01*
X57033623Y-69813422D01*
X57357199Y-69679393D01*
X57648409Y-69484813D01*
X57896063Y-69237159D01*
X58090643Y-68945949D01*
X58224672Y-68622373D01*
X58271690Y-68386001D01*
X58491395Y-68319354D01*
X58801491Y-68153604D01*
X59073292Y-67930542D01*
X59296354Y-67658741D01*
X59462104Y-67348645D01*
X59564172Y-67012171D01*
X59590000Y-66749933D01*
X59590000Y-66479613D01*
X59775166Y-66556311D01*
X60139344Y-66628750D01*
X60510656Y-66628750D01*
X60874834Y-66556311D01*
X61060000Y-66479613D01*
X61060000Y-66749933D01*
X61085828Y-67012171D01*
X61187896Y-67348645D01*
X61353647Y-67658741D01*
X61576709Y-67930542D01*
X61848510Y-68153604D01*
X62158606Y-68319354D01*
X62378310Y-68386000D01*
X62425328Y-68622373D01*
X62559357Y-68945949D01*
X62753937Y-69237159D01*
X63001591Y-69484813D01*
X63292801Y-69679393D01*
X63616377Y-69813422D01*
X63959882Y-69881750D01*
X64127075Y-69881750D01*
X64088212Y-69939912D01*
X63976202Y-70210329D01*
X63919100Y-70497402D01*
X63919100Y-70790098D01*
X63976202Y-71077171D01*
X64088212Y-71347588D01*
X64250826Y-71590956D01*
X64457794Y-71797924D01*
X64701162Y-71960538D01*
X64971579Y-72072548D01*
X65258652Y-72129650D01*
X65270476Y-72129650D01*
X65362673Y-72167839D01*
X65668891Y-72228750D01*
X65981109Y-72228750D01*
X66287327Y-72167839D01*
X66575779Y-72048359D01*
X66835379Y-71874900D01*
X67056150Y-71654129D01*
X67229609Y-71394529D01*
X67349089Y-71106077D01*
X67410000Y-70799859D01*
X67410000Y-70487641D01*
X73083750Y-70487641D01*
X73083750Y-70799859D01*
X73144661Y-71106077D01*
X73264141Y-71394529D01*
X73437600Y-71654129D01*
X73658371Y-71874900D01*
X73917971Y-72048359D01*
X74206423Y-72167839D01*
X74512641Y-72228750D01*
X74824859Y-72228750D01*
X75131077Y-72167839D01*
X75223274Y-72129650D01*
X75235098Y-72129650D01*
X75522171Y-72072548D01*
X75792588Y-71960538D01*
X76035956Y-71797924D01*
X76242924Y-71590956D01*
X76405538Y-71347588D01*
X76517548Y-71077171D01*
X76574650Y-70790098D01*
X76574650Y-70497402D01*
X76517548Y-70210329D01*
X76405538Y-69939912D01*
X76366675Y-69881750D01*
X76533868Y-69881750D01*
X76877373Y-69813422D01*
X77200949Y-69679393D01*
X77492159Y-69484813D01*
X77739813Y-69237159D01*
X77934393Y-68945949D01*
X78068422Y-68622373D01*
X78115440Y-68386001D01*
X78335145Y-68319354D01*
X78645241Y-68153604D01*
X78917042Y-67930542D01*
X79140104Y-67658741D01*
X79305854Y-67348645D01*
X79407922Y-67012171D01*
X79433750Y-66749933D01*
X79433750Y-66479613D01*
X79618916Y-66556311D01*
X79983094Y-66628750D01*
X80354406Y-66628750D01*
X80718584Y-66556311D01*
X80903750Y-66479613D01*
X80903750Y-66749933D01*
X80929578Y-67012171D01*
X81031646Y-67348645D01*
X81197397Y-67658741D01*
X81420459Y-67930542D01*
X81692260Y-68153604D01*
X82002356Y-68319354D01*
X82222060Y-68386000D01*
X82269078Y-68622373D01*
X82403107Y-68945949D01*
X82597687Y-69237159D01*
X82845341Y-69484813D01*
X83136551Y-69679393D01*
X83460127Y-69813422D01*
X83803632Y-69881750D01*
X83970825Y-69881750D01*
X83931962Y-69939912D01*
X83819952Y-70210329D01*
X83762850Y-70497402D01*
X83762850Y-70790098D01*
X83819952Y-71077171D01*
X83931962Y-71347588D01*
X84094576Y-71590956D01*
X84301544Y-71797924D01*
X84544912Y-71960538D01*
X84815329Y-72072548D01*
X85102402Y-72129650D01*
X85114226Y-72129650D01*
X85206423Y-72167839D01*
X85512641Y-72228750D01*
X85824859Y-72228750D01*
X86131077Y-72167839D01*
X86419529Y-72048359D01*
X86679129Y-71874900D01*
X86899900Y-71654129D01*
X87073359Y-71394529D01*
X87192839Y-71106077D01*
X87253750Y-70799859D01*
X87253750Y-70487641D01*
X87192839Y-70181423D01*
X87073359Y-69892971D01*
X86899900Y-69633371D01*
X86679129Y-69412600D01*
X86419529Y-69239141D01*
X86131077Y-69119661D01*
X85824859Y-69058750D01*
X85512641Y-69058750D01*
X85473869Y-69066462D01*
X85554393Y-68945949D01*
X85688422Y-68622373D01*
X85713552Y-68496036D01*
X85990581Y-68381287D01*
X86274748Y-68191413D01*
X86516413Y-67949748D01*
X86706287Y-67665581D01*
X86837075Y-67349831D01*
X86903750Y-67014633D01*
X86903750Y-66672867D01*
X86837075Y-66337669D01*
X86706287Y-66021919D01*
X86516413Y-65737752D01*
X86282411Y-65503750D01*
X86389607Y-65503750D01*
X86409744Y-65517205D01*
X86598102Y-65595226D01*
X86798061Y-65635000D01*
X87001939Y-65635000D01*
X87201898Y-65595226D01*
X87390256Y-65517205D01*
X87559774Y-65403937D01*
X87703937Y-65259774D01*
X87817205Y-65090256D01*
X87895226Y-64901898D01*
X87935000Y-64701939D01*
X87935000Y-64498061D01*
X87895226Y-64298102D01*
X87817205Y-64109744D01*
X87703937Y-63940226D01*
X87559774Y-63796063D01*
X87390256Y-63682795D01*
X87201898Y-63604774D01*
X87001939Y-63565000D01*
X86798061Y-63565000D01*
X86598102Y-63604774D01*
X86409744Y-63682795D01*
X86240226Y-63796063D01*
X86096063Y-63940226D01*
X86066981Y-63983750D01*
X83404337Y-63983750D01*
X83375144Y-63968146D01*
X83038670Y-63866078D01*
X82688750Y-63831614D01*
X82338829Y-63866078D01*
X82002355Y-63968146D01*
X81973162Y-63983750D01*
X81894257Y-63983750D01*
X81839216Y-63850868D01*
X81632925Y-63542132D01*
X81370368Y-63279575D01*
X81061632Y-63073284D01*
X80718584Y-62931189D01*
X80354406Y-62858750D01*
X79983094Y-62858750D01*
X79618916Y-62931189D01*
X79275868Y-63073284D01*
X78967132Y-63279575D01*
X78704575Y-63542132D01*
X78498284Y-63850868D01*
X78428939Y-64018281D01*
X78335144Y-63968146D01*
X77998670Y-63866078D01*
X77648750Y-63831614D01*
X77298829Y-63866078D01*
X76962355Y-63968146D01*
X76652259Y-64133896D01*
X76380458Y-64356958D01*
X76157396Y-64628760D01*
X75991646Y-64938856D01*
X75889578Y-65275330D01*
X75886892Y-65302605D01*
X75579851Y-65175425D01*
X75244653Y-65108750D01*
X74902887Y-65108750D01*
X74567689Y-65175425D01*
X74251939Y-65306213D01*
X73967772Y-65496087D01*
X73726107Y-65737752D01*
X73536233Y-66021919D01*
X73405445Y-66337669D01*
X73338770Y-66672867D01*
X73338770Y-67014633D01*
X73405445Y-67349831D01*
X73536233Y-67665581D01*
X73726107Y-67949748D01*
X73967772Y-68191413D01*
X74251939Y-68381287D01*
X74567689Y-68512075D01*
X74629587Y-68524387D01*
X74649078Y-68622373D01*
X74783107Y-68945949D01*
X74863631Y-69066462D01*
X74824859Y-69058750D01*
X74512641Y-69058750D01*
X74206423Y-69119661D01*
X73917971Y-69239141D01*
X73658371Y-69412600D01*
X73437600Y-69633371D01*
X73264141Y-69892971D01*
X73144661Y-70181423D01*
X73083750Y-70487641D01*
X67410000Y-70487641D01*
X67349089Y-70181423D01*
X67229609Y-69892971D01*
X67056150Y-69633371D01*
X66835379Y-69412600D01*
X66575779Y-69239141D01*
X66287327Y-69119661D01*
X65981109Y-69058750D01*
X65668891Y-69058750D01*
X65630119Y-69066462D01*
X65710643Y-68945949D01*
X65844672Y-68622373D01*
X65869802Y-68496036D01*
X66146831Y-68381287D01*
X66430998Y-68191413D01*
X66672663Y-67949748D01*
X66862537Y-67665581D01*
X66993325Y-67349831D01*
X67060000Y-67014633D01*
X67060000Y-66672867D01*
X66993325Y-66337669D01*
X66862537Y-66021919D01*
X66672663Y-65737752D01*
X66438661Y-65503750D01*
X66618928Y-65503750D01*
X66656250Y-65507426D01*
X66658381Y-65507216D01*
X66798061Y-65535000D01*
X67001939Y-65535000D01*
X67201898Y-65495226D01*
X67390256Y-65417205D01*
X67559774Y-65303937D01*
X67703937Y-65159774D01*
X67817205Y-64990256D01*
X67895226Y-64801898D01*
X67935000Y-64601939D01*
X67935000Y-64398061D01*
X67895226Y-64198102D01*
X67817205Y-64009744D01*
X67703937Y-63840226D01*
X67559774Y-63696063D01*
X67390256Y-63582795D01*
X67201898Y-63504774D01*
X67147868Y-63494027D01*
X67217205Y-63390256D01*
X67295226Y-63201898D01*
X67335000Y-63001939D01*
X67335000Y-62798061D01*
X67295226Y-62598102D01*
X67217205Y-62409744D01*
X67192694Y-62373060D01*
X67890001Y-62373060D01*
X67890001Y-62576938D01*
X67929775Y-62776897D01*
X68007796Y-62965255D01*
X68121064Y-63134773D01*
X68265227Y-63278936D01*
X68434745Y-63392204D01*
X68623103Y-63470225D01*
X68823062Y-63509999D01*
X69026940Y-63509999D01*
X69226899Y-63470225D01*
X69415257Y-63392204D01*
X69584775Y-63278936D01*
X69728938Y-63134773D01*
X69842206Y-62965255D01*
X69896160Y-62835000D01*
X87465000Y-62835000D01*
X87465000Y-63001939D01*
X87504774Y-63201898D01*
X87582795Y-63390256D01*
X87696063Y-63559774D01*
X87840226Y-63703937D01*
X88009744Y-63817205D01*
X88198102Y-63895226D01*
X88398061Y-63935000D01*
X88601939Y-63935000D01*
X88801898Y-63895226D01*
X88990256Y-63817205D01*
X89159774Y-63703937D01*
X89203711Y-63660000D01*
X98469568Y-63660000D01*
X98342034Y-63850868D01*
X98272689Y-64018281D01*
X98178894Y-63968146D01*
X97842420Y-63866078D01*
X97492500Y-63831614D01*
X97142579Y-63866078D01*
X96806105Y-63968146D01*
X96496009Y-64133896D01*
X96224208Y-64356958D01*
X96001146Y-64628760D01*
X95835396Y-64938856D01*
X95733328Y-65275330D01*
X95730642Y-65302605D01*
X95423601Y-65175425D01*
X95088403Y-65108750D01*
X94746637Y-65108750D01*
X94411439Y-65175425D01*
X94095689Y-65306213D01*
X93811522Y-65496087D01*
X93569857Y-65737752D01*
X93379983Y-66021919D01*
X93249195Y-66337669D01*
X93182520Y-66672867D01*
X93182520Y-67014633D01*
X93249195Y-67349831D01*
X93379983Y-67665581D01*
X93569857Y-67949748D01*
X93811522Y-68191413D01*
X94095689Y-68381287D01*
X94411439Y-68512075D01*
X94473337Y-68524387D01*
X94492828Y-68622373D01*
X94626857Y-68945949D01*
X94707381Y-69066462D01*
X94668609Y-69058750D01*
X94356391Y-69058750D01*
X94050173Y-69119661D01*
X93761721Y-69239141D01*
X93502121Y-69412600D01*
X93281350Y-69633371D01*
X93107891Y-69892971D01*
X92988411Y-70181423D01*
X92927500Y-70487641D01*
X92927500Y-70799859D01*
X92988411Y-71106077D01*
X93107891Y-71394529D01*
X93281350Y-71654129D01*
X93502121Y-71874900D01*
X93761721Y-72048359D01*
X94050173Y-72167839D01*
X94356391Y-72228750D01*
X94668609Y-72228750D01*
X94974827Y-72167839D01*
X95067024Y-72129650D01*
X95078848Y-72129650D01*
X95365921Y-72072548D01*
X95636338Y-71960538D01*
X95879706Y-71797924D01*
X96086674Y-71590956D01*
X96249288Y-71347588D01*
X96361298Y-71077171D01*
X96418400Y-70790098D01*
X96418400Y-70497402D01*
X96361298Y-70210329D01*
X96249288Y-69939912D01*
X96210425Y-69881750D01*
X96377618Y-69881750D01*
X96721123Y-69813422D01*
X97044699Y-69679393D01*
X97335909Y-69484813D01*
X97583563Y-69237159D01*
X97778143Y-68945949D01*
X97912172Y-68622373D01*
X97959190Y-68386001D01*
X98178895Y-68319354D01*
X98488991Y-68153604D01*
X98760792Y-67930542D01*
X98983854Y-67658741D01*
X99149604Y-67348645D01*
X99251672Y-67012171D01*
X99277500Y-66749933D01*
X99277500Y-66479613D01*
X99462666Y-66556311D01*
X99826844Y-66628750D01*
X100198156Y-66628750D01*
X100562334Y-66556311D01*
X100747500Y-66479613D01*
X100747500Y-66749933D01*
X100773328Y-67012171D01*
X100875396Y-67348645D01*
X101041147Y-67658741D01*
X101264209Y-67930542D01*
X101536010Y-68153604D01*
X101846106Y-68319354D01*
X102065810Y-68386000D01*
X102112828Y-68622373D01*
X102246857Y-68945949D01*
X102441437Y-69237159D01*
X102689091Y-69484813D01*
X102980301Y-69679393D01*
X103303877Y-69813422D01*
X103647382Y-69881750D01*
X103814575Y-69881750D01*
X103775712Y-69939912D01*
X103663702Y-70210329D01*
X103606600Y-70497402D01*
X103606600Y-70790098D01*
X103663702Y-71077171D01*
X103775712Y-71347588D01*
X103938326Y-71590956D01*
X104145294Y-71797924D01*
X104388662Y-71960538D01*
X104659079Y-72072548D01*
X104946152Y-72129650D01*
X104957976Y-72129650D01*
X105050173Y-72167839D01*
X105356391Y-72228750D01*
X105668609Y-72228750D01*
X105974827Y-72167839D01*
X106263279Y-72048359D01*
X106522879Y-71874900D01*
X106743650Y-71654129D01*
X106917109Y-71394529D01*
X107036589Y-71106077D01*
X107097500Y-70799859D01*
X107097500Y-70487641D01*
X107036589Y-70181423D01*
X106917109Y-69892971D01*
X106743650Y-69633371D01*
X106522879Y-69412600D01*
X106263279Y-69239141D01*
X105974827Y-69119661D01*
X105668609Y-69058750D01*
X105356391Y-69058750D01*
X105317619Y-69066462D01*
X105398143Y-68945949D01*
X105532172Y-68622373D01*
X105557302Y-68496036D01*
X105834331Y-68381287D01*
X106118498Y-68191413D01*
X106360163Y-67949748D01*
X106550037Y-67665581D01*
X106680825Y-67349831D01*
X106747500Y-67014633D01*
X106747500Y-66672867D01*
X106680825Y-66337669D01*
X106550037Y-66021919D01*
X106360163Y-65737752D01*
X106118498Y-65496087D01*
X105968110Y-65395601D01*
X106003937Y-65359774D01*
X106117205Y-65190256D01*
X106195226Y-65001898D01*
X106235000Y-64801939D01*
X106235000Y-64614736D01*
X106344866Y-64724602D01*
X106514384Y-64837870D01*
X106702742Y-64915891D01*
X106902701Y-64955665D01*
X107106579Y-64955665D01*
X107306538Y-64915891D01*
X107494896Y-64837870D01*
X107664414Y-64724602D01*
X107808577Y-64580439D01*
X107921845Y-64410921D01*
X107999866Y-64222563D01*
X108002152Y-64211070D01*
X108013646Y-64208784D01*
X108202004Y-64130763D01*
X108371522Y-64017495D01*
X108515685Y-63873332D01*
X108628953Y-63703814D01*
X108706974Y-63515456D01*
X108746748Y-63315497D01*
X108746748Y-63111619D01*
X108706974Y-62911660D01*
X108628953Y-62723302D01*
X108515685Y-62553784D01*
X108371522Y-62409621D01*
X108202004Y-62296353D01*
X108013646Y-62218332D01*
X107813687Y-62178558D01*
X107751550Y-62178558D01*
X107136994Y-61564002D01*
X107113191Y-61534999D01*
X106997466Y-61440026D01*
X106865437Y-61369454D01*
X106722176Y-61325997D01*
X106610523Y-61315000D01*
X106610512Y-61315000D01*
X106573190Y-61311324D01*
X106535868Y-61315000D01*
X69362322Y-61315000D01*
X69324999Y-61311324D01*
X69287677Y-61315000D01*
X69287667Y-61315000D01*
X69176014Y-61325997D01*
X69032753Y-61369454D01*
X68900775Y-61439999D01*
X68823062Y-61439999D01*
X68623103Y-61479773D01*
X68434745Y-61557794D01*
X68265227Y-61671062D01*
X68121064Y-61815225D01*
X68007796Y-61984743D01*
X67929775Y-62173101D01*
X67890001Y-62373060D01*
X67192694Y-62373060D01*
X67103937Y-62240226D01*
X66959774Y-62096063D01*
X66790256Y-61982795D01*
X66601898Y-61904774D01*
X66401939Y-61865000D01*
X66198061Y-61865000D01*
X65998102Y-61904774D01*
X65809744Y-61982795D01*
X65640226Y-62096063D01*
X65596289Y-62140000D01*
X55437322Y-62140000D01*
X55399999Y-62136324D01*
X55362676Y-62140000D01*
X55362667Y-62140000D01*
X55251014Y-62150997D01*
X55107753Y-62194454D01*
X54975724Y-62265026D01*
X54975722Y-62265027D01*
X54975723Y-62265027D01*
X54888996Y-62336201D01*
X54888992Y-62336205D01*
X54859999Y-62359999D01*
X54836205Y-62388992D01*
X53260199Y-63965000D01*
X53198061Y-63965000D01*
X52998102Y-64004774D01*
X52809744Y-64082795D01*
X52640226Y-64196063D01*
X52496063Y-64340226D01*
X52382795Y-64509744D01*
X52304774Y-64698102D01*
X52265000Y-64898061D01*
X50660000Y-64898061D01*
X50660000Y-55198061D01*
X51065000Y-55198061D01*
X51065000Y-55401939D01*
X51104774Y-55601898D01*
X51182795Y-55790256D01*
X51296063Y-55959774D01*
X51440226Y-56103937D01*
X51609744Y-56217205D01*
X51798102Y-56295226D01*
X51998061Y-56335000D01*
X52201939Y-56335000D01*
X52401898Y-56295226D01*
X52590256Y-56217205D01*
X52759774Y-56103937D01*
X52903937Y-55959774D01*
X53017205Y-55790256D01*
X53095226Y-55601898D01*
X53135000Y-55401939D01*
X53135000Y-55339801D01*
X53639803Y-54834999D01*
X53878626Y-54834999D01*
X53870000Y-54878363D01*
X53870000Y-55121637D01*
X53917460Y-55360236D01*
X54010557Y-55584992D01*
X54145713Y-55787267D01*
X54317733Y-55959287D01*
X54520008Y-56094443D01*
X54543654Y-56104238D01*
X54504774Y-56198102D01*
X54465000Y-56398061D01*
X54465000Y-56601939D01*
X54504774Y-56801898D01*
X54582795Y-56990256D01*
X54696063Y-57159774D01*
X54840226Y-57303937D01*
X55009744Y-57417205D01*
X55198102Y-57495226D01*
X55398061Y-57535000D01*
X55601939Y-57535000D01*
X55801898Y-57495226D01*
X55990256Y-57417205D01*
X56159774Y-57303937D01*
X56260181Y-57203530D01*
X56320506Y-57253037D01*
X56430820Y-57312002D01*
X56550518Y-57348312D01*
X56675000Y-57360572D01*
X57963658Y-57360572D01*
X57978621Y-57388246D01*
X58012082Y-57437855D01*
X58044835Y-57487906D01*
X58050660Y-57495047D01*
X58075541Y-57525122D01*
X58117980Y-57567265D01*
X58159838Y-57610008D01*
X58166939Y-57615881D01*
X58166942Y-57615884D01*
X58166946Y-57615886D01*
X58197187Y-57640551D01*
X58246975Y-57673629D01*
X58296362Y-57707446D01*
X58304469Y-57711828D01*
X58338933Y-57730153D01*
X58394215Y-57752939D01*
X58449218Y-57776514D01*
X58458021Y-57779239D01*
X58495388Y-57790521D01*
X58554066Y-57802139D01*
X58573826Y-57806340D01*
X58595617Y-57812950D01*
X58619112Y-57815264D01*
X58621748Y-57815541D01*
X58660595Y-57819350D01*
X58660598Y-57819350D01*
X58692581Y-57822500D01*
X61957419Y-57822500D01*
X61985123Y-57819771D01*
X61986211Y-57819779D01*
X61995382Y-57818880D01*
X62013389Y-57816988D01*
X62054383Y-57812950D01*
X62077756Y-57805860D01*
X62092779Y-57802776D01*
X62151558Y-57791564D01*
X62160379Y-57788900D01*
X62197667Y-57777358D01*
X62252810Y-57754178D01*
X62308273Y-57731770D01*
X62316410Y-57727444D01*
X62350746Y-57708879D01*
X62400355Y-57675418D01*
X62450406Y-57642665D01*
X62457547Y-57636840D01*
X62487622Y-57611959D01*
X62529765Y-57569520D01*
X62572508Y-57527662D01*
X62578381Y-57520561D01*
X62578384Y-57520558D01*
X62578386Y-57520554D01*
X62603051Y-57490313D01*
X62636129Y-57440525D01*
X62669946Y-57391138D01*
X62674328Y-57383031D01*
X62687633Y-57358008D01*
X62789250Y-57357500D01*
X62948000Y-57198750D01*
X62948000Y-56439500D01*
X62928000Y-56439500D01*
X62928000Y-56185500D01*
X62948000Y-56185500D01*
X62948000Y-56165500D01*
X63202000Y-56165500D01*
X63202000Y-56185500D01*
X63222000Y-56185500D01*
X63222000Y-56439500D01*
X63202000Y-56439500D01*
X63202000Y-57198750D01*
X63360750Y-57357500D01*
X63975000Y-57360572D01*
X64099482Y-57348312D01*
X64219180Y-57312002D01*
X64329494Y-57253037D01*
X64426185Y-57173685D01*
X64505537Y-57076994D01*
X64559235Y-56976534D01*
X64881213Y-57298513D01*
X64905011Y-57327511D01*
X65020736Y-57422484D01*
X65152765Y-57493056D01*
X65296026Y-57536513D01*
X65405050Y-57547251D01*
X65445012Y-57551187D01*
X65482345Y-57547510D01*
X67496289Y-57547510D01*
X67540226Y-57591447D01*
X67709744Y-57704715D01*
X67898102Y-57782736D01*
X68098061Y-57822510D01*
X68301939Y-57822510D01*
X68501898Y-57782736D01*
X68690256Y-57704715D01*
X68859774Y-57591447D01*
X69003937Y-57447284D01*
X69117205Y-57277766D01*
X69195226Y-57089408D01*
X69235000Y-56889449D01*
X69235000Y-56685571D01*
X69195226Y-56485612D01*
X69117205Y-56297254D01*
X69003937Y-56127736D01*
X68859774Y-55983573D01*
X68690256Y-55870305D01*
X68501898Y-55792284D01*
X68301939Y-55752510D01*
X68098061Y-55752510D01*
X67898102Y-55792284D01*
X67709744Y-55870305D01*
X67540226Y-55983573D01*
X67496289Y-56027510D01*
X66135184Y-56027510D01*
X66237287Y-55959287D01*
X66409307Y-55787267D01*
X66544463Y-55584992D01*
X66637560Y-55360236D01*
X66685020Y-55121637D01*
X66685020Y-54878363D01*
X66637560Y-54639764D01*
X66544463Y-54415008D01*
X66502167Y-54351707D01*
X73896603Y-54351707D01*
X73854307Y-54415008D01*
X73761210Y-54639764D01*
X73713750Y-54878363D01*
X73713750Y-55121637D01*
X73761210Y-55360236D01*
X73854307Y-55584992D01*
X73989463Y-55787267D01*
X74161483Y-55959287D01*
X74363758Y-56094443D01*
X74410143Y-56113656D01*
X74396063Y-56127736D01*
X74282795Y-56297254D01*
X74204774Y-56485612D01*
X74165000Y-56685571D01*
X74165000Y-56889449D01*
X74204774Y-57089408D01*
X74282795Y-57277766D01*
X74396063Y-57447284D01*
X74540226Y-57591447D01*
X74709744Y-57704715D01*
X74894527Y-57781255D01*
X74709744Y-57857795D01*
X74540226Y-57971063D01*
X74396063Y-58115226D01*
X74282795Y-58284744D01*
X74204774Y-58473102D01*
X74165000Y-58673061D01*
X74165000Y-58740000D01*
X56103711Y-58740000D01*
X56059774Y-58696063D01*
X55890256Y-58582795D01*
X55701898Y-58504774D01*
X55501939Y-58465000D01*
X55298061Y-58465000D01*
X55098102Y-58504774D01*
X54909744Y-58582795D01*
X54740226Y-58696063D01*
X54596063Y-58840226D01*
X54482795Y-59009744D01*
X54404774Y-59198102D01*
X54365000Y-59398061D01*
X54365000Y-59601939D01*
X54404774Y-59801898D01*
X54482795Y-59990256D01*
X54596063Y-60159774D01*
X54740226Y-60303937D01*
X54909744Y-60417205D01*
X55098102Y-60495226D01*
X55298061Y-60535000D01*
X55501939Y-60535000D01*
X55701898Y-60495226D01*
X55890256Y-60417205D01*
X56059774Y-60303937D01*
X56103711Y-60260000D01*
X83696289Y-60260000D01*
X83740226Y-60303937D01*
X83909744Y-60417205D01*
X84098102Y-60495226D01*
X84298061Y-60535000D01*
X84501939Y-60535000D01*
X84701898Y-60495226D01*
X84890256Y-60417205D01*
X85059774Y-60303937D01*
X85203937Y-60159774D01*
X85317205Y-59990256D01*
X85395226Y-59801898D01*
X85435000Y-59601939D01*
X85435000Y-59535000D01*
X102287678Y-59535000D01*
X102325000Y-59538676D01*
X102362322Y-59535000D01*
X102362333Y-59535000D01*
X102473986Y-59524003D01*
X102617247Y-59480546D01*
X102749276Y-59409974D01*
X102865001Y-59315001D01*
X102888803Y-59285998D01*
X104176741Y-57998061D01*
X113965000Y-57998061D01*
X113965000Y-58201939D01*
X114004774Y-58401898D01*
X114082795Y-58590256D01*
X114196063Y-58759774D01*
X114340226Y-58903937D01*
X114509744Y-59017205D01*
X114698102Y-59095226D01*
X114898061Y-59135000D01*
X114960199Y-59135000D01*
X115165000Y-59339802D01*
X115165000Y-59401939D01*
X115204774Y-59601898D01*
X115282795Y-59790256D01*
X115396063Y-59959774D01*
X115540226Y-60103937D01*
X115709744Y-60217205D01*
X115898102Y-60295226D01*
X116098061Y-60335000D01*
X116301939Y-60335000D01*
X116501898Y-60295226D01*
X116690256Y-60217205D01*
X116859774Y-60103937D01*
X117003937Y-59959774D01*
X117117205Y-59790256D01*
X117195226Y-59601898D01*
X117235000Y-59401939D01*
X117235000Y-59198061D01*
X117195226Y-58998102D01*
X117117205Y-58809744D01*
X117003937Y-58640226D01*
X116859774Y-58496063D01*
X116690256Y-58382795D01*
X116501898Y-58304774D01*
X116301939Y-58265000D01*
X116239802Y-58265000D01*
X116035000Y-58060199D01*
X116035000Y-57998061D01*
X115995226Y-57798102D01*
X115917205Y-57609744D01*
X115803937Y-57440226D01*
X115659774Y-57296063D01*
X115490256Y-57182795D01*
X115301898Y-57104774D01*
X115101939Y-57065000D01*
X114898061Y-57065000D01*
X114698102Y-57104774D01*
X114509744Y-57182795D01*
X114340226Y-57296063D01*
X114196063Y-57440226D01*
X114082795Y-57609744D01*
X114004774Y-57798102D01*
X113965000Y-57998061D01*
X104176741Y-57998061D01*
X104498510Y-57676293D01*
X104527502Y-57652500D01*
X104551296Y-57623507D01*
X104551300Y-57623503D01*
X104613878Y-57547251D01*
X104622475Y-57536775D01*
X104693047Y-57404746D01*
X104736504Y-57261485D01*
X104747501Y-57149832D01*
X104747501Y-57149823D01*
X104751177Y-57112500D01*
X104747501Y-57075177D01*
X104747501Y-56175203D01*
X104777284Y-56187540D01*
X105015883Y-56235000D01*
X105259157Y-56235000D01*
X105497756Y-56187540D01*
X105722512Y-56094443D01*
X105924787Y-55959287D01*
X106096807Y-55787267D01*
X106231963Y-55584992D01*
X106325060Y-55360236D01*
X106372520Y-55121637D01*
X106372520Y-54878363D01*
X106325060Y-54639764D01*
X106231963Y-54415008D01*
X106096807Y-54212733D01*
X105924787Y-54040713D01*
X105722512Y-53905557D01*
X105658159Y-53878901D01*
X129443777Y-53878901D01*
X129481099Y-53882577D01*
X129518421Y-53878901D01*
X129518432Y-53878901D01*
X129630085Y-53867904D01*
X129773346Y-53824447D01*
X129905375Y-53753875D01*
X130021100Y-53658902D01*
X130044903Y-53629898D01*
X134011004Y-49663798D01*
X134040001Y-49640001D01*
X134134974Y-49524276D01*
X134205546Y-49392247D01*
X134249003Y-49248986D01*
X134260000Y-49137333D01*
X134260000Y-49137324D01*
X134263676Y-49100001D01*
X134260000Y-49062678D01*
X134260000Y-45503711D01*
X134303937Y-45459774D01*
X134417205Y-45290256D01*
X134495226Y-45101898D01*
X134535000Y-44901939D01*
X134535000Y-44698061D01*
X134495226Y-44498102D01*
X134417205Y-44309744D01*
X134303937Y-44140226D01*
X134159774Y-43996063D01*
X133990256Y-43882795D01*
X133801898Y-43804774D01*
X133601939Y-43765000D01*
X133398061Y-43765000D01*
X133198102Y-43804774D01*
X133009744Y-43882795D01*
X132840226Y-43996063D01*
X132696063Y-44140226D01*
X132582795Y-44309744D01*
X132504774Y-44498102D01*
X132465000Y-44698061D01*
X132465000Y-44901939D01*
X132504774Y-45101898D01*
X132582795Y-45290256D01*
X132696063Y-45459774D01*
X132740001Y-45503712D01*
X132740000Y-46437332D01*
X132740001Y-46437342D01*
X132740000Y-48785198D01*
X129166298Y-52358901D01*
X105799817Y-52358901D01*
X105974827Y-52324089D01*
X106263279Y-52204609D01*
X106522879Y-52031150D01*
X106743650Y-51810379D01*
X106917109Y-51550779D01*
X107036589Y-51262327D01*
X107097500Y-50956109D01*
X107097500Y-50643891D01*
X107036589Y-50337673D01*
X106917109Y-50049221D01*
X106743650Y-49789621D01*
X106522879Y-49568850D01*
X106263279Y-49395391D01*
X105974827Y-49275911D01*
X105668609Y-49215000D01*
X105356391Y-49215000D01*
X105317619Y-49222712D01*
X105398143Y-49102199D01*
X105532172Y-48778623D01*
X105548196Y-48698061D01*
X118565000Y-48698061D01*
X118565000Y-48901939D01*
X118604774Y-49101898D01*
X118682795Y-49290256D01*
X118796063Y-49459774D01*
X118940226Y-49603937D01*
X119109744Y-49717205D01*
X119298102Y-49795226D01*
X119498061Y-49835000D01*
X119701939Y-49835000D01*
X119901898Y-49795226D01*
X119986940Y-49760000D01*
X126696993Y-49760000D01*
X126734315Y-49763676D01*
X126771637Y-49760000D01*
X126771648Y-49760000D01*
X126883301Y-49749003D01*
X127026562Y-49705546D01*
X127158591Y-49634974D01*
X127274316Y-49540001D01*
X127298118Y-49510998D01*
X127467845Y-49341271D01*
X127598102Y-49395226D01*
X127798061Y-49435000D01*
X128001939Y-49435000D01*
X128201898Y-49395226D01*
X128390256Y-49317205D01*
X128559774Y-49203937D01*
X128703937Y-49059774D01*
X128817205Y-48890256D01*
X128895226Y-48701898D01*
X128935000Y-48501939D01*
X128935000Y-48298061D01*
X128895226Y-48098102D01*
X128817205Y-47909744D01*
X128703937Y-47740226D01*
X128559774Y-47596063D01*
X128390256Y-47482795D01*
X128201898Y-47404774D01*
X128001939Y-47365000D01*
X127798061Y-47365000D01*
X127598102Y-47404774D01*
X127409744Y-47482795D01*
X127240226Y-47596063D01*
X127185276Y-47651013D01*
X127042068Y-47694454D01*
X126910038Y-47765026D01*
X126849156Y-47814991D01*
X126794314Y-47859999D01*
X126770515Y-47888998D01*
X126419514Y-48240000D01*
X120470604Y-48240000D01*
X120403937Y-48140226D01*
X120259774Y-47996063D01*
X120090256Y-47882795D01*
X119901898Y-47804774D01*
X119701939Y-47765000D01*
X119498061Y-47765000D01*
X119298102Y-47804774D01*
X119109744Y-47882795D01*
X118940226Y-47996063D01*
X118796063Y-48140226D01*
X118682795Y-48309744D01*
X118604774Y-48498102D01*
X118565000Y-48698061D01*
X105548196Y-48698061D01*
X105557302Y-48652286D01*
X105834331Y-48537537D01*
X106118498Y-48347663D01*
X106360163Y-48105998D01*
X106550037Y-47821831D01*
X106680825Y-47506081D01*
X106747500Y-47170883D01*
X106747500Y-46829117D01*
X106680825Y-46493919D01*
X106550037Y-46178169D01*
X106360163Y-45894002D01*
X106118498Y-45652337D01*
X105834331Y-45462463D01*
X105518581Y-45331675D01*
X105183383Y-45265000D01*
X104841617Y-45265000D01*
X104506419Y-45331675D01*
X104288720Y-45421849D01*
X104189604Y-45095105D01*
X104023854Y-44785009D01*
X103800792Y-44513208D01*
X103528990Y-44290146D01*
X103218894Y-44124396D01*
X102882420Y-44022328D01*
X102532500Y-43987864D01*
X102182579Y-44022328D01*
X101846105Y-44124396D01*
X101752310Y-44174530D01*
X101682966Y-44007118D01*
X101476675Y-43698382D01*
X101214118Y-43435825D01*
X100905382Y-43229534D01*
X100562334Y-43087439D01*
X100198156Y-43015000D01*
X99826844Y-43015000D01*
X99462666Y-43087439D01*
X99119618Y-43229534D01*
X98810882Y-43435825D01*
X98548325Y-43698382D01*
X98342034Y-44007118D01*
X98272689Y-44174531D01*
X98178894Y-44124396D01*
X97842420Y-44022328D01*
X97492500Y-43987864D01*
X97142579Y-44022328D01*
X96806105Y-44124396D01*
X96496009Y-44290146D01*
X96224208Y-44513208D01*
X96001146Y-44785010D01*
X95835396Y-45095106D01*
X95733328Y-45431580D01*
X95730642Y-45458855D01*
X95423601Y-45331675D01*
X95088403Y-45265000D01*
X94746637Y-45265000D01*
X94411439Y-45331675D01*
X94095689Y-45462463D01*
X93811522Y-45652337D01*
X93569857Y-45894002D01*
X93379983Y-46178169D01*
X93249195Y-46493919D01*
X93182520Y-46829117D01*
X93182520Y-47170883D01*
X93249195Y-47506081D01*
X93379983Y-47821831D01*
X93569857Y-48105998D01*
X93811522Y-48347663D01*
X94095689Y-48537537D01*
X94411439Y-48668325D01*
X94473337Y-48680637D01*
X94492828Y-48778623D01*
X94626857Y-49102199D01*
X94707381Y-49222712D01*
X94668609Y-49215000D01*
X94356391Y-49215000D01*
X94050173Y-49275911D01*
X93761721Y-49395391D01*
X93502121Y-49568850D01*
X93281350Y-49789621D01*
X93107891Y-50049221D01*
X92988411Y-50337673D01*
X92927500Y-50643891D01*
X92927500Y-50956109D01*
X92988411Y-51262327D01*
X93107891Y-51550779D01*
X93281350Y-51810379D01*
X93502121Y-52031150D01*
X93761721Y-52204609D01*
X94050173Y-52324089D01*
X94356391Y-52385000D01*
X94668609Y-52385000D01*
X94974827Y-52324089D01*
X95067024Y-52285900D01*
X95078848Y-52285900D01*
X95365921Y-52228798D01*
X95636338Y-52116788D01*
X95879706Y-51954174D01*
X96086674Y-51747206D01*
X96249288Y-51503838D01*
X96361298Y-51233421D01*
X96418400Y-50946348D01*
X96418400Y-50653652D01*
X96361298Y-50366579D01*
X96249288Y-50096162D01*
X96210425Y-50038000D01*
X96377618Y-50038000D01*
X96721123Y-49969672D01*
X97044699Y-49835643D01*
X97335909Y-49641063D01*
X97583563Y-49393409D01*
X97778143Y-49102199D01*
X97912172Y-48778623D01*
X97959190Y-48542251D01*
X98178895Y-48475604D01*
X98488991Y-48309854D01*
X98760792Y-48086792D01*
X98983854Y-47814991D01*
X99149604Y-47504895D01*
X99251672Y-47168421D01*
X99277500Y-46906183D01*
X99277500Y-46635863D01*
X99462666Y-46712561D01*
X99826844Y-46785000D01*
X100198156Y-46785000D01*
X100562334Y-46712561D01*
X100747500Y-46635863D01*
X100747500Y-46906183D01*
X100773328Y-47168421D01*
X100875396Y-47504895D01*
X101041147Y-47814991D01*
X101264209Y-48086792D01*
X101536010Y-48309854D01*
X101846106Y-48475604D01*
X102065810Y-48542250D01*
X102112828Y-48778623D01*
X102246857Y-49102199D01*
X102441437Y-49393409D01*
X102689091Y-49641063D01*
X102980301Y-49835643D01*
X103303877Y-49969672D01*
X103647382Y-50038000D01*
X103814575Y-50038000D01*
X103775712Y-50096162D01*
X103663702Y-50366579D01*
X103606600Y-50653652D01*
X103606600Y-50946348D01*
X103663702Y-51233421D01*
X103775712Y-51503838D01*
X103938326Y-51747206D01*
X104145294Y-51954174D01*
X104388662Y-52116788D01*
X104659079Y-52228798D01*
X104946152Y-52285900D01*
X104957976Y-52285900D01*
X105050173Y-52324089D01*
X105225183Y-52358901D01*
X102132627Y-52358901D01*
X102342201Y-52045251D01*
X102540373Y-51566822D01*
X102641400Y-51058924D01*
X102641400Y-50541076D01*
X102540373Y-50033178D01*
X102342201Y-49554749D01*
X102054500Y-49124174D01*
X101688326Y-48758000D01*
X101257751Y-48470299D01*
X100779322Y-48272127D01*
X100271424Y-48171100D01*
X99753576Y-48171100D01*
X99245678Y-48272127D01*
X98767249Y-48470299D01*
X98336674Y-48758000D01*
X97970500Y-49124174D01*
X97682799Y-49554749D01*
X97484627Y-50033178D01*
X97383600Y-50541076D01*
X97383600Y-51058924D01*
X97484627Y-51566822D01*
X97682799Y-52045251D01*
X97948520Y-52442931D01*
X97871823Y-52483927D01*
X97756098Y-52578900D01*
X97732300Y-52607898D01*
X97263997Y-53076202D01*
X97253898Y-53063896D01*
X97138173Y-52968923D01*
X97006144Y-52898351D01*
X96862883Y-52854894D01*
X96751230Y-52843897D01*
X96751219Y-52843897D01*
X96713897Y-52840221D01*
X96676575Y-52843897D01*
X81841737Y-52843897D01*
X81844576Y-52842000D01*
X82210750Y-52475826D01*
X82498451Y-52045251D01*
X82696623Y-51566822D01*
X82797650Y-51058924D01*
X82797650Y-50541076D01*
X82696623Y-50033178D01*
X82498451Y-49554749D01*
X82210750Y-49124174D01*
X81844576Y-48758000D01*
X81414001Y-48470299D01*
X80935572Y-48272127D01*
X80427674Y-48171100D01*
X79909826Y-48171100D01*
X79401928Y-48272127D01*
X78923499Y-48470299D01*
X78492924Y-48758000D01*
X78126750Y-49124174D01*
X77839049Y-49554749D01*
X77640877Y-50033178D01*
X77539850Y-50541076D01*
X77539850Y-51058924D01*
X77640877Y-51566822D01*
X77839049Y-52045251D01*
X78126750Y-52475826D01*
X78492924Y-52842000D01*
X78495763Y-52843897D01*
X78004676Y-52843897D01*
X77967353Y-52840221D01*
X77930030Y-52843897D01*
X77930020Y-52843897D01*
X77818367Y-52854894D01*
X77675106Y-52898351D01*
X77543077Y-52968923D01*
X77427352Y-53063896D01*
X77417657Y-53075709D01*
X77397958Y-53051706D01*
X77282233Y-52956733D01*
X77150204Y-52886161D01*
X77006943Y-52842704D01*
X76895290Y-52831707D01*
X76895279Y-52831707D01*
X76857957Y-52828031D01*
X76820635Y-52831707D01*
X62011119Y-52831707D01*
X62367000Y-52475826D01*
X62654701Y-52045251D01*
X62852873Y-51566822D01*
X62953900Y-51058924D01*
X62953900Y-50541076D01*
X62852873Y-50033178D01*
X62654701Y-49554749D01*
X62367000Y-49124174D01*
X62000826Y-48758000D01*
X61570251Y-48470299D01*
X61091822Y-48272127D01*
X60583924Y-48171100D01*
X60066076Y-48171100D01*
X59558178Y-48272127D01*
X59079749Y-48470299D01*
X58649174Y-48758000D01*
X58283000Y-49124174D01*
X57995299Y-49554749D01*
X57797127Y-50033178D01*
X57696100Y-50541076D01*
X57696100Y-51058924D01*
X57797127Y-51566822D01*
X57995299Y-52045251D01*
X58283000Y-52475826D01*
X58638881Y-52831707D01*
X58173115Y-52831707D01*
X58135792Y-52828031D01*
X58098469Y-52831707D01*
X58098460Y-52831707D01*
X57986807Y-52842704D01*
X57843546Y-52886161D01*
X57711516Y-52956733D01*
X57695453Y-52969916D01*
X57595792Y-53051706D01*
X57571993Y-53080705D01*
X57337699Y-53314999D01*
X53362323Y-53314999D01*
X53325000Y-53311323D01*
X53287677Y-53314999D01*
X53287668Y-53314999D01*
X53176015Y-53325996D01*
X53032754Y-53369453D01*
X52900724Y-53440025D01*
X52826295Y-53501108D01*
X52785000Y-53534998D01*
X52761202Y-53563996D01*
X52060199Y-54265000D01*
X51998061Y-54265000D01*
X51798102Y-54304774D01*
X51609744Y-54382795D01*
X51440226Y-54496063D01*
X51296063Y-54640226D01*
X51182795Y-54809744D01*
X51104774Y-54998102D01*
X51065000Y-55198061D01*
X50660000Y-55198061D01*
X50660000Y-50643891D01*
X53240000Y-50643891D01*
X53240000Y-50956109D01*
X53300911Y-51262327D01*
X53420391Y-51550779D01*
X53593850Y-51810379D01*
X53814621Y-52031150D01*
X54074221Y-52204609D01*
X54362673Y-52324089D01*
X54668891Y-52385000D01*
X54981109Y-52385000D01*
X55287327Y-52324089D01*
X55379524Y-52285900D01*
X55391348Y-52285900D01*
X55678421Y-52228798D01*
X55948838Y-52116788D01*
X56192206Y-51954174D01*
X56399174Y-51747206D01*
X56561788Y-51503838D01*
X56673798Y-51233421D01*
X56730900Y-50946348D01*
X56730900Y-50653652D01*
X56673798Y-50366579D01*
X56561788Y-50096162D01*
X56522925Y-50038000D01*
X56690118Y-50038000D01*
X57033623Y-49969672D01*
X57357199Y-49835643D01*
X57648409Y-49641063D01*
X57896063Y-49393409D01*
X58090643Y-49102199D01*
X58224672Y-48778623D01*
X58271690Y-48542251D01*
X58491395Y-48475604D01*
X58801491Y-48309854D01*
X59073292Y-48086792D01*
X59296354Y-47814991D01*
X59462104Y-47504895D01*
X59564172Y-47168421D01*
X59590000Y-46906183D01*
X59590000Y-46635863D01*
X59775166Y-46712561D01*
X60139344Y-46785000D01*
X60510656Y-46785000D01*
X60874834Y-46712561D01*
X61060000Y-46635863D01*
X61060000Y-46906183D01*
X61085828Y-47168421D01*
X61187896Y-47504895D01*
X61353647Y-47814991D01*
X61576709Y-48086792D01*
X61848510Y-48309854D01*
X62158606Y-48475604D01*
X62378310Y-48542250D01*
X62425328Y-48778623D01*
X62559357Y-49102199D01*
X62753937Y-49393409D01*
X63001591Y-49641063D01*
X63292801Y-49835643D01*
X63616377Y-49969672D01*
X63959882Y-50038000D01*
X64127075Y-50038000D01*
X64088212Y-50096162D01*
X63976202Y-50366579D01*
X63919100Y-50653652D01*
X63919100Y-50946348D01*
X63976202Y-51233421D01*
X64088212Y-51503838D01*
X64250826Y-51747206D01*
X64457794Y-51954174D01*
X64701162Y-52116788D01*
X64971579Y-52228798D01*
X65258652Y-52285900D01*
X65270476Y-52285900D01*
X65362673Y-52324089D01*
X65668891Y-52385000D01*
X65981109Y-52385000D01*
X66287327Y-52324089D01*
X66575779Y-52204609D01*
X66835379Y-52031150D01*
X67056150Y-51810379D01*
X67229609Y-51550779D01*
X67349089Y-51262327D01*
X67410000Y-50956109D01*
X67410000Y-50643891D01*
X73083750Y-50643891D01*
X73083750Y-50956109D01*
X73144661Y-51262327D01*
X73264141Y-51550779D01*
X73437600Y-51810379D01*
X73658371Y-52031150D01*
X73917971Y-52204609D01*
X74206423Y-52324089D01*
X74512641Y-52385000D01*
X74824859Y-52385000D01*
X75131077Y-52324089D01*
X75223274Y-52285900D01*
X75235098Y-52285900D01*
X75522171Y-52228798D01*
X75792588Y-52116788D01*
X76035956Y-51954174D01*
X76242924Y-51747206D01*
X76405538Y-51503838D01*
X76517548Y-51233421D01*
X76574650Y-50946348D01*
X76574650Y-50653652D01*
X76517548Y-50366579D01*
X76405538Y-50096162D01*
X76366675Y-50038000D01*
X76533868Y-50038000D01*
X76877373Y-49969672D01*
X77200949Y-49835643D01*
X77492159Y-49641063D01*
X77739813Y-49393409D01*
X77934393Y-49102199D01*
X78068422Y-48778623D01*
X78115440Y-48542251D01*
X78335145Y-48475604D01*
X78645241Y-48309854D01*
X78917042Y-48086792D01*
X79140104Y-47814991D01*
X79305854Y-47504895D01*
X79407922Y-47168421D01*
X79433750Y-46906183D01*
X79433750Y-46635863D01*
X79618916Y-46712561D01*
X79983094Y-46785000D01*
X80354406Y-46785000D01*
X80718584Y-46712561D01*
X80903750Y-46635863D01*
X80903750Y-46906183D01*
X80929578Y-47168421D01*
X81031646Y-47504895D01*
X81197397Y-47814991D01*
X81420459Y-48086792D01*
X81692260Y-48309854D01*
X82002356Y-48475604D01*
X82222060Y-48542250D01*
X82269078Y-48778623D01*
X82403107Y-49102199D01*
X82597687Y-49393409D01*
X82845341Y-49641063D01*
X83136551Y-49835643D01*
X83460127Y-49969672D01*
X83803632Y-50038000D01*
X83970825Y-50038000D01*
X83931962Y-50096162D01*
X83819952Y-50366579D01*
X83762850Y-50653652D01*
X83762850Y-50946348D01*
X83819952Y-51233421D01*
X83931962Y-51503838D01*
X84094576Y-51747206D01*
X84301544Y-51954174D01*
X84544912Y-52116788D01*
X84815329Y-52228798D01*
X85102402Y-52285900D01*
X85114226Y-52285900D01*
X85206423Y-52324089D01*
X85512641Y-52385000D01*
X85824859Y-52385000D01*
X86131077Y-52324089D01*
X86419529Y-52204609D01*
X86679129Y-52031150D01*
X86899900Y-51810379D01*
X87073359Y-51550779D01*
X87192839Y-51262327D01*
X87253750Y-50956109D01*
X87253750Y-50643891D01*
X87192839Y-50337673D01*
X87073359Y-50049221D01*
X86899900Y-49789621D01*
X86679129Y-49568850D01*
X86419529Y-49395391D01*
X86131077Y-49275911D01*
X85824859Y-49215000D01*
X85512641Y-49215000D01*
X85473869Y-49222712D01*
X85554393Y-49102199D01*
X85688422Y-48778623D01*
X85713552Y-48652286D01*
X85990581Y-48537537D01*
X86274748Y-48347663D01*
X86516413Y-48105998D01*
X86706287Y-47821831D01*
X86837075Y-47506081D01*
X86903750Y-47170883D01*
X86903750Y-46829117D01*
X86837075Y-46493919D01*
X86706287Y-46178169D01*
X86516413Y-45894002D01*
X86274748Y-45652337D01*
X85990581Y-45462463D01*
X85674831Y-45331675D01*
X85339633Y-45265000D01*
X84997867Y-45265000D01*
X84662669Y-45331675D01*
X84444970Y-45421849D01*
X84345854Y-45095105D01*
X84180104Y-44785009D01*
X83957042Y-44513208D01*
X83685240Y-44290146D01*
X83375144Y-44124396D01*
X83038670Y-44022328D01*
X82688750Y-43987864D01*
X82338829Y-44022328D01*
X82002355Y-44124396D01*
X81908560Y-44174530D01*
X81839216Y-44007118D01*
X81632925Y-43698382D01*
X81370368Y-43435825D01*
X81061632Y-43229534D01*
X80718584Y-43087439D01*
X80354406Y-43015000D01*
X79983094Y-43015000D01*
X79618916Y-43087439D01*
X79275868Y-43229534D01*
X78967132Y-43435825D01*
X78704575Y-43698382D01*
X78498284Y-44007118D01*
X78428939Y-44174531D01*
X78335144Y-44124396D01*
X77998670Y-44022328D01*
X77648750Y-43987864D01*
X77298829Y-44022328D01*
X76962355Y-44124396D01*
X76652259Y-44290146D01*
X76380458Y-44513208D01*
X76157396Y-44785010D01*
X75991646Y-45095106D01*
X75889578Y-45431580D01*
X75886892Y-45458855D01*
X75579851Y-45331675D01*
X75244653Y-45265000D01*
X74902887Y-45265000D01*
X74567689Y-45331675D01*
X74251939Y-45462463D01*
X73967772Y-45652337D01*
X73726107Y-45894002D01*
X73536233Y-46178169D01*
X73405445Y-46493919D01*
X73338770Y-46829117D01*
X73338770Y-47170883D01*
X73405445Y-47506081D01*
X73536233Y-47821831D01*
X73726107Y-48105998D01*
X73967772Y-48347663D01*
X74251939Y-48537537D01*
X74567689Y-48668325D01*
X74629587Y-48680637D01*
X74649078Y-48778623D01*
X74783107Y-49102199D01*
X74863631Y-49222712D01*
X74824859Y-49215000D01*
X74512641Y-49215000D01*
X74206423Y-49275911D01*
X73917971Y-49395391D01*
X73658371Y-49568850D01*
X73437600Y-49789621D01*
X73264141Y-50049221D01*
X73144661Y-50337673D01*
X73083750Y-50643891D01*
X67410000Y-50643891D01*
X67349089Y-50337673D01*
X67229609Y-50049221D01*
X67056150Y-49789621D01*
X66835379Y-49568850D01*
X66575779Y-49395391D01*
X66287327Y-49275911D01*
X65981109Y-49215000D01*
X65668891Y-49215000D01*
X65630119Y-49222712D01*
X65710643Y-49102199D01*
X65844672Y-48778623D01*
X65869802Y-48652286D01*
X66146831Y-48537537D01*
X66430998Y-48347663D01*
X66672663Y-48105998D01*
X66862537Y-47821831D01*
X66993325Y-47506081D01*
X67060000Y-47170883D01*
X67060000Y-46829117D01*
X66993325Y-46493919D01*
X66862537Y-46178169D01*
X66672663Y-45894002D01*
X66430998Y-45652337D01*
X66146831Y-45462463D01*
X65831081Y-45331675D01*
X65495883Y-45265000D01*
X65154117Y-45265000D01*
X64818919Y-45331675D01*
X64601220Y-45421849D01*
X64502104Y-45095105D01*
X64336354Y-44785009D01*
X64113292Y-44513208D01*
X63841490Y-44290146D01*
X63531394Y-44124396D01*
X63194920Y-44022328D01*
X62845000Y-43987864D01*
X62495079Y-44022328D01*
X62158605Y-44124396D01*
X62064810Y-44174530D01*
X61995466Y-44007118D01*
X61789175Y-43698382D01*
X61526618Y-43435825D01*
X61217882Y-43229534D01*
X60874834Y-43087439D01*
X60510656Y-43015000D01*
X60139344Y-43015000D01*
X59775166Y-43087439D01*
X59432118Y-43229534D01*
X59123382Y-43435825D01*
X58860825Y-43698382D01*
X58654534Y-44007118D01*
X58585189Y-44174531D01*
X58491394Y-44124396D01*
X58154920Y-44022328D01*
X57805000Y-43987864D01*
X57455079Y-44022328D01*
X57118605Y-44124396D01*
X56808509Y-44290146D01*
X56536708Y-44513208D01*
X56313646Y-44785010D01*
X56147896Y-45095106D01*
X56045828Y-45431580D01*
X56043142Y-45458855D01*
X55736101Y-45331675D01*
X55400903Y-45265000D01*
X55059137Y-45265000D01*
X54723939Y-45331675D01*
X54408189Y-45462463D01*
X54124022Y-45652337D01*
X53882357Y-45894002D01*
X53692483Y-46178169D01*
X53561695Y-46493919D01*
X53495020Y-46829117D01*
X53495020Y-47170883D01*
X53561695Y-47506081D01*
X53692483Y-47821831D01*
X53882357Y-48105998D01*
X54124022Y-48347663D01*
X54408189Y-48537537D01*
X54723939Y-48668325D01*
X54785837Y-48680637D01*
X54805328Y-48778623D01*
X54939357Y-49102199D01*
X55019881Y-49222712D01*
X54981109Y-49215000D01*
X54668891Y-49215000D01*
X54362673Y-49275911D01*
X54074221Y-49395391D01*
X53814621Y-49568850D01*
X53593850Y-49789621D01*
X53420391Y-50049221D01*
X53300911Y-50337673D01*
X53240000Y-50643891D01*
X50660000Y-50643891D01*
X50660000Y-35498061D01*
X56865000Y-35498061D01*
X56865000Y-35701939D01*
X56904774Y-35901898D01*
X56982795Y-36090256D01*
X57096063Y-36259774D01*
X57240226Y-36403937D01*
X57409744Y-36517205D01*
X57598102Y-36595226D01*
X57798061Y-36635000D01*
X58001939Y-36635000D01*
X58201898Y-36595226D01*
X58390256Y-36517205D01*
X58559774Y-36403937D01*
X58603711Y-36360000D01*
X72096289Y-36360000D01*
X72140226Y-36403937D01*
X72309744Y-36517205D01*
X72498102Y-36595226D01*
X72698061Y-36635000D01*
X72901939Y-36635000D01*
X73101898Y-36595226D01*
X73290256Y-36517205D01*
X73459774Y-36403937D01*
X73603711Y-36260000D01*
X87296289Y-36260000D01*
X87340226Y-36303937D01*
X87509744Y-36417205D01*
X87698102Y-36495226D01*
X87898061Y-36535000D01*
X88101939Y-36535000D01*
X88301898Y-36495226D01*
X88490256Y-36417205D01*
X88659774Y-36303937D01*
X88803937Y-36159774D01*
X88917205Y-35990256D01*
X88995226Y-35801898D01*
X89035000Y-35601939D01*
X89035000Y-35398061D01*
X88995226Y-35198102D01*
X88932638Y-35047000D01*
X118115000Y-35047000D01*
X118115000Y-35797000D01*
X118160624Y-36006233D01*
X118246191Y-36202545D01*
X118368413Y-36378391D01*
X118522592Y-36527014D01*
X118702803Y-36642702D01*
X118905999Y-36714408D01*
X119073000Y-36587502D01*
X119073000Y-35047000D01*
X118115000Y-35047000D01*
X88932638Y-35047000D01*
X88917205Y-35009744D01*
X88803937Y-34840226D01*
X88659774Y-34696063D01*
X88490256Y-34582795D01*
X88301898Y-34504774D01*
X88101939Y-34465000D01*
X87898061Y-34465000D01*
X87698102Y-34504774D01*
X87509744Y-34582795D01*
X87340226Y-34696063D01*
X87296289Y-34740000D01*
X73375870Y-34740000D01*
X73290256Y-34682795D01*
X73101898Y-34604774D01*
X72901939Y-34565000D01*
X72698061Y-34565000D01*
X72498102Y-34604774D01*
X72309744Y-34682795D01*
X72140226Y-34796063D01*
X72096289Y-34840000D01*
X58603711Y-34840000D01*
X58559774Y-34796063D01*
X58390256Y-34682795D01*
X58201898Y-34604774D01*
X58001939Y-34565000D01*
X57798061Y-34565000D01*
X57598102Y-34604774D01*
X57409744Y-34682795D01*
X57240226Y-34796063D01*
X57096063Y-34940226D01*
X56982795Y-35109744D01*
X56904774Y-35298102D01*
X56865000Y-35498061D01*
X50660000Y-35498061D01*
X50660000Y-34043000D01*
X118115000Y-34043000D01*
X118115000Y-34793000D01*
X119073000Y-34793000D01*
X119073000Y-33252498D01*
X119327000Y-33252498D01*
X119327000Y-34793000D01*
X119593537Y-34793000D01*
X119600368Y-34828989D01*
X119673043Y-35008893D01*
X119681233Y-35024216D01*
X119879480Y-35040912D01*
X119873392Y-35047000D01*
X119327000Y-35047000D01*
X119327000Y-36587502D01*
X119494001Y-36714408D01*
X119697197Y-36642702D01*
X119877408Y-36527014D01*
X120031587Y-36378391D01*
X120153809Y-36202545D01*
X120220225Y-36050170D01*
X120370395Y-35900000D01*
X120356253Y-35885858D01*
X120415000Y-35827110D01*
X120415000Y-35997014D01*
X120451101Y-36178504D01*
X120059088Y-36570517D01*
X120075784Y-36768767D01*
X120254384Y-36844589D01*
X120444344Y-36884110D01*
X120638364Y-36885813D01*
X120828989Y-36849632D01*
X120975651Y-36790385D01*
X121112686Y-36847147D01*
X121302986Y-36885000D01*
X121497014Y-36885000D01*
X121687314Y-36847147D01*
X121825000Y-36790116D01*
X121962686Y-36847147D01*
X122152986Y-36885000D01*
X122347014Y-36885000D01*
X122537314Y-36847147D01*
X122675000Y-36790116D01*
X122812686Y-36847147D01*
X123002986Y-36885000D01*
X123140000Y-36885000D01*
X123140001Y-41585197D01*
X122441408Y-42283791D01*
X122290256Y-42182795D01*
X122101898Y-42104774D01*
X121901939Y-42065000D01*
X121698061Y-42065000D01*
X121498102Y-42104774D01*
X121309744Y-42182795D01*
X121140226Y-42296063D01*
X120996063Y-42440226D01*
X120882795Y-42609744D01*
X120804774Y-42798102D01*
X120765000Y-42998061D01*
X120765000Y-43201939D01*
X120804774Y-43401898D01*
X120882795Y-43590256D01*
X120996063Y-43759774D01*
X121140226Y-43903937D01*
X121309744Y-44017205D01*
X121498102Y-44095226D01*
X121698061Y-44135000D01*
X121901939Y-44135000D01*
X122101898Y-44095226D01*
X122290256Y-44017205D01*
X122459774Y-43903937D01*
X122503711Y-43860000D01*
X122662678Y-43860000D01*
X122700000Y-43863676D01*
X122737322Y-43860000D01*
X122737333Y-43860000D01*
X122848986Y-43849003D01*
X122992247Y-43805546D01*
X123124276Y-43734974D01*
X123240001Y-43640001D01*
X123263804Y-43610997D01*
X124411003Y-42463799D01*
X124440001Y-42440001D01*
X124534974Y-42324276D01*
X124605546Y-42192247D01*
X124649003Y-42048986D01*
X124660000Y-41937333D01*
X124660000Y-41937324D01*
X124663676Y-41900001D01*
X124660000Y-41862678D01*
X124660000Y-37329775D01*
X126141227Y-38811003D01*
X126165025Y-38840001D01*
X126194023Y-38863799D01*
X126280750Y-38934974D01*
X126412779Y-39005546D01*
X126556040Y-39049003D01*
X126705026Y-39063677D01*
X126742359Y-39060000D01*
X131396289Y-39060000D01*
X131440226Y-39103937D01*
X131609744Y-39217205D01*
X131798102Y-39295226D01*
X131998061Y-39335000D01*
X132201939Y-39335000D01*
X132401898Y-39295226D01*
X132590256Y-39217205D01*
X132759774Y-39103937D01*
X132903937Y-38959774D01*
X133017205Y-38790256D01*
X133095226Y-38601898D01*
X133135000Y-38401939D01*
X133135000Y-38198061D01*
X133095226Y-37998102D01*
X133017205Y-37809744D01*
X132903937Y-37640226D01*
X132759774Y-37496063D01*
X132590256Y-37382795D01*
X132401898Y-37304774D01*
X132201939Y-37265000D01*
X131998061Y-37265000D01*
X131798102Y-37304774D01*
X131609744Y-37382795D01*
X131440226Y-37496063D01*
X131396289Y-37540000D01*
X127019828Y-37540000D01*
X126355950Y-36876122D01*
X126394344Y-36884110D01*
X126588364Y-36885813D01*
X126778989Y-36849632D01*
X126958893Y-36776957D01*
X126974216Y-36768767D01*
X126990912Y-36570517D01*
X126598899Y-36178504D01*
X126635000Y-35997014D01*
X126635000Y-35827110D01*
X126693748Y-35885858D01*
X126679605Y-35900000D01*
X126829775Y-36050170D01*
X126896191Y-36202545D01*
X127018413Y-36378391D01*
X127172592Y-36527014D01*
X127352803Y-36642702D01*
X127555999Y-36714408D01*
X127723000Y-36587502D01*
X127723000Y-35047000D01*
X127977000Y-35047000D01*
X127977000Y-36587502D01*
X128144001Y-36714408D01*
X128347197Y-36642702D01*
X128527408Y-36527014D01*
X128681587Y-36378391D01*
X128803809Y-36202545D01*
X128889376Y-36006233D01*
X128935000Y-35797000D01*
X128935000Y-35047000D01*
X127977000Y-35047000D01*
X127723000Y-35047000D01*
X127176608Y-35047000D01*
X127170520Y-35040912D01*
X127368767Y-35024216D01*
X127444589Y-34845616D01*
X127455536Y-34793000D01*
X127723000Y-34793000D01*
X127723000Y-34773000D01*
X127977000Y-34773000D01*
X127977000Y-34793000D01*
X128935000Y-34793000D01*
X128935000Y-34043000D01*
X128889376Y-33833767D01*
X128857223Y-33760000D01*
X130885199Y-33760000D01*
X131265000Y-34139802D01*
X131265000Y-34201939D01*
X131304774Y-34401898D01*
X131382795Y-34590256D01*
X131496063Y-34759774D01*
X131640226Y-34903937D01*
X131809744Y-35017205D01*
X131998102Y-35095226D01*
X132198061Y-35135000D01*
X132401939Y-35135000D01*
X132601898Y-35095226D01*
X132790256Y-35017205D01*
X132959774Y-34903937D01*
X133103937Y-34759774D01*
X133217205Y-34590256D01*
X133295226Y-34401898D01*
X133335000Y-34201939D01*
X133335000Y-33998061D01*
X133295226Y-33798102D01*
X133217205Y-33609744D01*
X133103937Y-33440226D01*
X132959774Y-33296063D01*
X132790256Y-33182795D01*
X132601898Y-33104774D01*
X132401939Y-33065000D01*
X132339802Y-33065000D01*
X131763804Y-32489002D01*
X131740001Y-32459999D01*
X131624276Y-32365026D01*
X131492247Y-32294454D01*
X131348986Y-32250997D01*
X131237333Y-32240000D01*
X131237322Y-32240000D01*
X131200000Y-32236324D01*
X131162678Y-32240000D01*
X128897277Y-32240000D01*
X128935000Y-32067000D01*
X128935000Y-31667000D01*
X127977000Y-31667000D01*
X127977000Y-31687000D01*
X127723000Y-31687000D01*
X127723000Y-31667000D01*
X126765000Y-31667000D01*
X126765000Y-32067000D01*
X126802723Y-32240000D01*
X123338322Y-32240000D01*
X123300999Y-32236324D01*
X123263676Y-32240000D01*
X123263667Y-32240000D01*
X123152014Y-32250997D01*
X123008753Y-32294454D01*
X122876724Y-32365026D01*
X122876722Y-32365027D01*
X122876723Y-32365027D01*
X122789996Y-32436201D01*
X122789992Y-32436205D01*
X122760999Y-32459999D01*
X122737205Y-32488992D01*
X121739002Y-33487197D01*
X121709999Y-33510999D01*
X121666349Y-33564187D01*
X121642012Y-33593842D01*
X121497014Y-33565000D01*
X121302986Y-33565000D01*
X121112686Y-33602853D01*
X120974458Y-33660109D01*
X120845616Y-33605411D01*
X120655656Y-33565890D01*
X120461636Y-33564187D01*
X120271011Y-33600368D01*
X120157611Y-33646178D01*
X120153809Y-33637455D01*
X120031587Y-33461609D01*
X119877408Y-33312986D01*
X119697197Y-33197298D01*
X119494001Y-33125592D01*
X119327000Y-33252498D01*
X119073000Y-33252498D01*
X118905999Y-33125592D01*
X118702803Y-33197298D01*
X118522592Y-33312986D01*
X118368413Y-33461609D01*
X118246191Y-33637455D01*
X118160624Y-33833767D01*
X118115000Y-34043000D01*
X50660000Y-34043000D01*
X50660000Y-32032279D01*
X50688625Y-31740341D01*
X50710767Y-31667000D01*
X118115000Y-31667000D01*
X118115000Y-32067000D01*
X118160624Y-32276233D01*
X118246191Y-32472545D01*
X118368413Y-32648391D01*
X118522592Y-32797014D01*
X118702803Y-32912702D01*
X118905999Y-32984408D01*
X119073000Y-32857502D01*
X119073000Y-31667000D01*
X119327000Y-31667000D01*
X119327000Y-32857502D01*
X119494001Y-32984408D01*
X119697197Y-32912702D01*
X119877408Y-32797014D01*
X120031587Y-32648391D01*
X120153809Y-32472545D01*
X120239376Y-32276233D01*
X120285000Y-32067000D01*
X120285000Y-31667000D01*
X119327000Y-31667000D01*
X119073000Y-31667000D01*
X118115000Y-31667000D01*
X50710767Y-31667000D01*
X50764035Y-31490571D01*
X50886522Y-31260208D01*
X51051422Y-31058020D01*
X51252450Y-30891714D01*
X51481954Y-30767622D01*
X51731195Y-30690469D01*
X52021088Y-30660000D01*
X118223288Y-30660000D01*
X118160624Y-30803767D01*
G37*
X118160624Y-30803767D02*
X118115000Y-31013000D01*
X118115000Y-31413000D01*
X119073000Y-31413000D01*
X119073000Y-31393000D01*
X119327000Y-31393000D01*
X119327000Y-31413000D01*
X120285000Y-31413000D01*
X120285000Y-31013000D01*
X120239376Y-30803767D01*
X120176712Y-30660000D01*
X126873288Y-30660000D01*
X126810624Y-30803767D01*
X126765000Y-31013000D01*
X126765000Y-31413000D01*
X127723000Y-31413000D01*
X127723000Y-31393000D01*
X127977000Y-31393000D01*
X127977000Y-31413000D01*
X128935000Y-31413000D01*
X128935000Y-31013000D01*
X128889376Y-30803767D01*
X128826712Y-30660000D01*
X136867721Y-30660000D01*
X137159659Y-30688625D01*
X137409429Y-30764035D01*
X137639792Y-30886522D01*
X137841980Y-31051422D01*
X138008286Y-31252450D01*
X138132378Y-31481954D01*
X138209531Y-31731195D01*
X138240000Y-32021088D01*
X138240001Y-78767711D01*
X138211375Y-79059660D01*
X138135965Y-79309429D01*
X138013477Y-79539794D01*
X137848579Y-79741979D01*
X137647546Y-79908288D01*
X137418046Y-80032378D01*
X137168805Y-80109531D01*
X136878911Y-80140000D01*
X52032279Y-80140000D01*
X51740340Y-80111375D01*
X51490571Y-80035965D01*
X51260206Y-79913477D01*
X51058021Y-79748579D01*
X50891712Y-79547546D01*
X50767622Y-79318046D01*
X50690469Y-79068805D01*
X50660000Y-78778911D01*
X50660000Y-71298061D01*
X51165000Y-71298061D01*
X51165000Y-71501939D01*
X51204774Y-71701898D01*
X51282795Y-71890256D01*
X51396063Y-72059774D01*
X51540226Y-72203937D01*
X51709744Y-72317205D01*
X51898102Y-72395226D01*
X52098061Y-72435000D01*
X52160198Y-72435000D01*
X53436205Y-73711008D01*
X53459999Y-73740001D01*
X53488992Y-73763795D01*
X53488996Y-73763799D01*
X53518779Y-73788241D01*
X53401939Y-73765000D01*
X53198061Y-73765000D01*
X52998102Y-73804774D01*
X52809744Y-73882795D01*
X52640226Y-73996063D01*
X52496063Y-74140226D01*
X52382795Y-74309744D01*
X52304774Y-74498102D01*
X52265000Y-74698061D01*
X52265000Y-74901939D01*
X52304774Y-75101898D01*
X52382795Y-75290256D01*
X52496063Y-75459774D01*
X52640226Y-75603937D01*
X52809744Y-75717205D01*
X52998102Y-75795226D01*
X53198061Y-75835000D01*
X53260199Y-75835000D01*
X54092451Y-76667253D01*
X54116249Y-76696251D01*
X54145247Y-76720049D01*
X54231973Y-76791224D01*
X54293180Y-76823940D01*
X54364003Y-76861796D01*
X54507264Y-76905253D01*
X54618917Y-76916250D01*
X54618926Y-76916250D01*
X54656249Y-76919926D01*
X54693572Y-76916250D01*
X56142061Y-76916250D01*
X56144463Y-76920744D01*
X56223815Y-77017435D01*
X56320506Y-77096787D01*
X56430820Y-77155752D01*
X56550518Y-77192062D01*
X56675000Y-77204322D01*
X57963658Y-77204322D01*
X57978621Y-77231996D01*
X58012082Y-77281605D01*
X58044835Y-77331656D01*
X58050660Y-77338797D01*
X58075541Y-77368872D01*
X58117980Y-77411015D01*
X58159838Y-77453758D01*
X58166939Y-77459631D01*
X58166942Y-77459634D01*
X58166946Y-77459636D01*
X58197187Y-77484301D01*
X58246975Y-77517379D01*
X58296362Y-77551196D01*
X58304469Y-77555578D01*
X58338933Y-77573903D01*
X58394215Y-77596689D01*
X58449218Y-77620264D01*
X58458021Y-77622989D01*
X58495388Y-77634271D01*
X58554066Y-77645889D01*
X58573826Y-77650090D01*
X58595617Y-77656700D01*
X58619112Y-77659014D01*
X58621748Y-77659291D01*
X58660595Y-77663100D01*
X58660598Y-77663100D01*
X58692581Y-77666250D01*
X61957419Y-77666250D01*
X61985123Y-77663521D01*
X61986211Y-77663529D01*
X61995382Y-77662630D01*
X62013389Y-77660738D01*
X62054383Y-77656700D01*
X62077756Y-77649610D01*
X62092779Y-77646526D01*
X62151558Y-77635314D01*
X62160379Y-77632650D01*
X62197667Y-77621108D01*
X62252810Y-77597928D01*
X62308273Y-77575520D01*
X62316410Y-77571194D01*
X62350746Y-77552629D01*
X62400355Y-77519168D01*
X62450406Y-77486415D01*
X62457547Y-77480590D01*
X62487622Y-77455709D01*
X62529765Y-77413270D01*
X62572508Y-77371412D01*
X62578381Y-77364311D01*
X62578384Y-77364308D01*
X62578386Y-77364304D01*
X62603051Y-77334063D01*
X62636129Y-77284275D01*
X62669946Y-77234888D01*
X62674328Y-77226781D01*
X62687633Y-77201758D01*
X62789250Y-77201250D01*
X62948000Y-77042500D01*
X62948000Y-76283250D01*
X63202000Y-76283250D01*
X63202000Y-77042500D01*
X63360750Y-77201250D01*
X63975000Y-77204322D01*
X64099482Y-77192062D01*
X64219180Y-77155752D01*
X64329494Y-77096787D01*
X64426185Y-77017435D01*
X64505537Y-76920744D01*
X64564502Y-76810430D01*
X64600812Y-76690732D01*
X64613072Y-76566250D01*
X64610000Y-76442000D01*
X64451250Y-76283250D01*
X63202000Y-76283250D01*
X62948000Y-76283250D01*
X62928000Y-76283250D01*
X62928000Y-76029250D01*
X62948000Y-76029250D01*
X62948000Y-76009250D01*
X63202000Y-76009250D01*
X63202000Y-76029250D01*
X64451250Y-76029250D01*
X64610000Y-75870500D01*
X64612901Y-75753185D01*
X64662753Y-75803037D01*
X64865028Y-75938193D01*
X65089784Y-76031290D01*
X65328383Y-76078750D01*
X65571657Y-76078750D01*
X65810256Y-76031290D01*
X66035012Y-75938193D01*
X66237287Y-75803037D01*
X66409307Y-75631017D01*
X66458246Y-75557775D01*
X67567723Y-76667253D01*
X67591521Y-76696251D01*
X67707246Y-76791224D01*
X67839275Y-76861796D01*
X67982536Y-76905253D01*
X68094189Y-76916250D01*
X68094198Y-76916250D01*
X68131521Y-76919926D01*
X68168844Y-76916250D01*
X75985811Y-76916250D01*
X75988213Y-76920744D01*
X76067565Y-77017435D01*
X76164256Y-77096787D01*
X76274570Y-77155752D01*
X76394268Y-77192062D01*
X76518750Y-77204322D01*
X77807408Y-77204322D01*
X77822371Y-77231996D01*
X77855832Y-77281605D01*
X77888585Y-77331656D01*
X77894410Y-77338797D01*
X77919291Y-77368872D01*
X77961730Y-77411015D01*
X78003588Y-77453758D01*
X78010689Y-77459631D01*
X78010692Y-77459634D01*
X78010696Y-77459636D01*
X78040937Y-77484301D01*
X78090725Y-77517379D01*
X78140112Y-77551196D01*
X78148219Y-77555578D01*
X78182683Y-77573903D01*
X78237965Y-77596689D01*
X78292968Y-77620264D01*
X78301771Y-77622989D01*
X78339138Y-77634271D01*
X78397816Y-77645889D01*
X78417576Y-77650090D01*
X78439367Y-77656700D01*
X78462862Y-77659014D01*
X78465498Y-77659291D01*
X78504345Y-77663100D01*
X78504348Y-77663100D01*
X78536331Y-77666250D01*
X81801169Y-77666250D01*
X81828873Y-77663521D01*
X81829961Y-77663529D01*
X81839132Y-77662630D01*
X81857139Y-77660738D01*
X81898133Y-77656700D01*
X81921506Y-77649610D01*
X81936529Y-77646526D01*
X81995308Y-77635314D01*
X82004129Y-77632650D01*
X82041417Y-77621108D01*
X82096560Y-77597928D01*
X82152023Y-77575520D01*
X82160160Y-77571194D01*
X82194496Y-77552629D01*
X82244105Y-77519168D01*
X82294156Y-77486415D01*
X82301297Y-77480590D01*
X82331372Y-77455709D01*
X82373515Y-77413270D01*
X82416258Y-77371412D01*
X82422131Y-77364311D01*
X82422134Y-77364308D01*
X82422136Y-77364304D01*
X82446801Y-77334063D01*
X82479879Y-77284275D01*
X82513696Y-77234888D01*
X82518078Y-77226781D01*
X82531383Y-77201758D01*
X82633000Y-77201250D01*
X82791750Y-77042500D01*
X82791750Y-76283250D01*
X83045750Y-76283250D01*
X83045750Y-77042500D01*
X83204500Y-77201250D01*
X83818750Y-77204322D01*
X83943232Y-77192062D01*
X84062930Y-77155752D01*
X84173244Y-77096787D01*
X84269935Y-77017435D01*
X84349287Y-76920744D01*
X84408252Y-76810430D01*
X84444562Y-76690732D01*
X84456822Y-76566250D01*
X84453750Y-76442000D01*
X84295000Y-76283250D01*
X83045750Y-76283250D01*
X82791750Y-76283250D01*
X82771750Y-76283250D01*
X82771750Y-76029250D01*
X82791750Y-76029250D01*
X82791750Y-76009250D01*
X83045750Y-76009250D01*
X83045750Y-76029250D01*
X84295000Y-76029250D01*
X84453750Y-75870500D01*
X84456651Y-75753185D01*
X84506503Y-75803037D01*
X84708778Y-75938193D01*
X84933534Y-76031290D01*
X85172133Y-76078750D01*
X85415407Y-76078750D01*
X85654006Y-76031290D01*
X85878762Y-75938193D01*
X86081037Y-75803037D01*
X86253057Y-75631017D01*
X86301996Y-75557775D01*
X87411473Y-76667253D01*
X87435271Y-76696251D01*
X87550996Y-76791224D01*
X87683025Y-76861796D01*
X87826286Y-76905253D01*
X87937939Y-76916250D01*
X87937948Y-76916250D01*
X87975271Y-76919926D01*
X88012594Y-76916250D01*
X95829561Y-76916250D01*
X95831963Y-76920744D01*
X95911315Y-77017435D01*
X96008006Y-77096787D01*
X96118320Y-77155752D01*
X96238018Y-77192062D01*
X96362500Y-77204322D01*
X97651158Y-77204322D01*
X97666121Y-77231996D01*
X97699582Y-77281605D01*
X97732335Y-77331656D01*
X97738160Y-77338797D01*
X97763041Y-77368872D01*
X97805480Y-77411015D01*
X97847338Y-77453758D01*
X97854439Y-77459631D01*
X97854442Y-77459634D01*
X97854446Y-77459636D01*
X97884687Y-77484301D01*
X97934475Y-77517379D01*
X97983862Y-77551196D01*
X97991969Y-77555578D01*
X98026433Y-77573903D01*
X98081715Y-77596689D01*
X98136718Y-77620264D01*
X98145521Y-77622989D01*
X98182888Y-77634271D01*
X98241566Y-77645889D01*
X98261326Y-77650090D01*
X98283117Y-77656700D01*
X98306612Y-77659014D01*
X98309248Y-77659291D01*
X98348095Y-77663100D01*
X98348098Y-77663100D01*
X98380081Y-77666250D01*
X101644919Y-77666250D01*
X101672623Y-77663521D01*
X101673711Y-77663529D01*
X101682882Y-77662630D01*
X101700889Y-77660738D01*
X101741883Y-77656700D01*
X101765256Y-77649610D01*
X101780279Y-77646526D01*
X101839058Y-77635314D01*
X101847879Y-77632650D01*
X101885167Y-77621108D01*
X101940310Y-77597928D01*
X101995773Y-77575520D01*
X102003910Y-77571194D01*
X102038246Y-77552629D01*
X102087855Y-77519168D01*
X102137906Y-77486415D01*
X102145047Y-77480590D01*
X102175122Y-77455709D01*
X102217265Y-77413270D01*
X102260008Y-77371412D01*
X102265881Y-77364311D01*
X102265884Y-77364308D01*
X102265886Y-77364304D01*
X102290551Y-77334063D01*
X102323629Y-77284275D01*
X102357446Y-77234888D01*
X102361828Y-77226781D01*
X102375133Y-77201758D01*
X102476750Y-77201250D01*
X102635500Y-77042500D01*
X102635500Y-76283250D01*
X102889500Y-76283250D01*
X102889500Y-77042500D01*
X103048250Y-77201250D01*
X103662500Y-77204322D01*
X103786982Y-77192062D01*
X103906680Y-77155752D01*
X104016994Y-77096787D01*
X104113685Y-77017435D01*
X104193037Y-76920744D01*
X104252002Y-76810430D01*
X104288312Y-76690732D01*
X104300572Y-76566250D01*
X104297500Y-76442000D01*
X104138750Y-76283250D01*
X102889500Y-76283250D01*
X102635500Y-76283250D01*
X102615500Y-76283250D01*
X102615500Y-76029250D01*
X102635500Y-76029250D01*
X102635500Y-76009250D01*
X102889500Y-76009250D01*
X102889500Y-76029250D01*
X104138750Y-76029250D01*
X104297500Y-75870500D01*
X104300401Y-75753185D01*
X104350253Y-75803037D01*
X104552528Y-75938193D01*
X104777284Y-76031290D01*
X105015883Y-76078750D01*
X105259157Y-76078750D01*
X105497756Y-76031290D01*
X105722512Y-75938193D01*
X105924787Y-75803037D01*
X106096807Y-75631017D01*
X106231963Y-75428742D01*
X106325060Y-75203986D01*
X106372520Y-74965387D01*
X106372520Y-74722113D01*
X106325060Y-74483514D01*
X106231963Y-74258758D01*
X106096807Y-74056483D01*
X106000324Y-73960000D01*
X108062678Y-73960000D01*
X108100000Y-73963676D01*
X108137322Y-73960000D01*
X108137333Y-73960000D01*
X108248986Y-73949003D01*
X108392247Y-73905546D01*
X108524276Y-73834974D01*
X108640001Y-73740001D01*
X108663804Y-73710997D01*
X108976740Y-73398061D01*
X119565000Y-73398061D01*
X119565000Y-73601939D01*
X119604774Y-73801898D01*
X119682795Y-73990256D01*
X119796063Y-74159774D01*
X119940226Y-74303937D01*
X120109744Y-74417205D01*
X120298102Y-74495226D01*
X120498061Y-74535000D01*
X120701939Y-74535000D01*
X120901898Y-74495226D01*
X121090256Y-74417205D01*
X121259774Y-74303937D01*
X121303711Y-74260000D01*
X125796289Y-74260000D01*
X125840226Y-74303937D01*
X126009744Y-74417205D01*
X126198102Y-74495226D01*
X126398061Y-74535000D01*
X126601939Y-74535000D01*
X126801898Y-74495226D01*
X126990256Y-74417205D01*
X127159774Y-74303937D01*
X127303937Y-74159774D01*
X127417205Y-73990256D01*
X127495226Y-73801898D01*
X127535000Y-73601939D01*
X127535000Y-73398061D01*
X127495226Y-73198102D01*
X127417205Y-73009744D01*
X127303937Y-72840226D01*
X127159774Y-72696063D01*
X126990256Y-72582795D01*
X126801898Y-72504774D01*
X126601939Y-72465000D01*
X126398061Y-72465000D01*
X126198102Y-72504774D01*
X126009744Y-72582795D01*
X125840226Y-72696063D01*
X125796289Y-72740000D01*
X121303711Y-72740000D01*
X121259774Y-72696063D01*
X121090256Y-72582795D01*
X120901898Y-72504774D01*
X120701939Y-72465000D01*
X120498061Y-72465000D01*
X120298102Y-72504774D01*
X120109744Y-72582795D01*
X119940226Y-72696063D01*
X119796063Y-72840226D01*
X119682795Y-73009744D01*
X119604774Y-73198102D01*
X119565000Y-73398061D01*
X108976740Y-73398061D01*
X116339802Y-66035000D01*
X116401939Y-66035000D01*
X116601898Y-65995226D01*
X116790256Y-65917205D01*
X116959774Y-65803937D01*
X117103937Y-65659774D01*
X117217205Y-65490256D01*
X117295226Y-65301898D01*
X117335000Y-65101939D01*
X117335000Y-64898061D01*
X117295226Y-64698102D01*
X117217205Y-64509744D01*
X117103937Y-64340226D01*
X116959774Y-64196063D01*
X116790256Y-64082795D01*
X116601898Y-64004774D01*
X116401939Y-63965000D01*
X116198061Y-63965000D01*
X115998102Y-64004774D01*
X115809744Y-64082795D01*
X115640226Y-64196063D01*
X115496063Y-64340226D01*
X115382795Y-64509744D01*
X115304774Y-64698102D01*
X115265000Y-64898061D01*
X115265000Y-64960198D01*
X107785199Y-72440000D01*
X103596083Y-72440000D01*
X103558750Y-72436323D01*
X103521417Y-72440000D01*
X103409764Y-72450997D01*
X103266503Y-72494454D01*
X103134474Y-72565026D01*
X103018749Y-72659999D01*
X102994952Y-72688996D01*
X102251502Y-73432447D01*
X102251062Y-73432808D01*
X102219520Y-73401485D01*
X102177662Y-73358742D01*
X102170561Y-73352868D01*
X102140312Y-73328199D01*
X102090542Y-73295133D01*
X102041138Y-73261304D01*
X102033031Y-73256922D01*
X101998567Y-73238597D01*
X101943285Y-73215811D01*
X101888282Y-73192236D01*
X101879479Y-73189511D01*
X101842112Y-73178229D01*
X101783427Y-73166609D01*
X101763675Y-73162411D01*
X101741883Y-73155800D01*
X101718388Y-73153486D01*
X101715752Y-73153209D01*
X101676905Y-73149400D01*
X101676902Y-73149400D01*
X101644919Y-73146250D01*
X100840578Y-73146250D01*
X101257751Y-72973451D01*
X101688326Y-72685750D01*
X102054500Y-72319576D01*
X102342201Y-71889001D01*
X102540373Y-71410572D01*
X102641400Y-70902674D01*
X102641400Y-70384826D01*
X102540373Y-69876928D01*
X102342201Y-69398499D01*
X102054500Y-68967924D01*
X101688326Y-68601750D01*
X101257751Y-68314049D01*
X100779322Y-68115877D01*
X100271424Y-68014850D01*
X99753576Y-68014850D01*
X99245678Y-68115877D01*
X98767249Y-68314049D01*
X98336674Y-68601750D01*
X97970500Y-68967924D01*
X97682799Y-69398499D01*
X97484627Y-69876928D01*
X97383600Y-70384826D01*
X97383600Y-70902674D01*
X97484627Y-71410572D01*
X97682799Y-71889001D01*
X97970500Y-72319576D01*
X98336674Y-72685750D01*
X98767249Y-72973451D01*
X99184422Y-73146250D01*
X98380081Y-73146250D01*
X98352377Y-73148979D01*
X98351289Y-73148971D01*
X98342118Y-73149870D01*
X98324119Y-73151762D01*
X98283117Y-73155800D01*
X98259742Y-73162891D01*
X98244722Y-73165974D01*
X98185943Y-73177186D01*
X98177121Y-73179850D01*
X98139834Y-73191392D01*
X98084708Y-73214564D01*
X98029227Y-73236979D01*
X98021093Y-73241305D01*
X98021088Y-73241307D01*
X98021083Y-73241310D01*
X97986754Y-73259871D01*
X97937161Y-73293322D01*
X97887094Y-73326085D01*
X97879953Y-73331910D01*
X97849878Y-73356791D01*
X97807735Y-73399230D01*
X97773671Y-73432589D01*
X97773509Y-73432456D01*
X97289432Y-72948380D01*
X97268751Y-72922573D01*
X97236631Y-72895580D01*
X97233492Y-72892441D01*
X97208049Y-72871560D01*
X97154141Y-72826257D01*
X97150225Y-72824105D01*
X97146766Y-72821266D01*
X97084645Y-72788061D01*
X97022944Y-72754150D01*
X97018680Y-72752802D01*
X97014736Y-72750694D01*
X96947362Y-72730257D01*
X96880200Y-72709026D01*
X96875753Y-72708536D01*
X96871475Y-72707238D01*
X96801408Y-72700337D01*
X96768683Y-72696728D01*
X96764241Y-72696676D01*
X96722490Y-72692564D01*
X96689579Y-72695805D01*
X92660000Y-72648812D01*
X92660000Y-65762667D01*
X92649003Y-65651014D01*
X92605546Y-65507753D01*
X92534974Y-65375724D01*
X92440001Y-65259999D01*
X92324275Y-65165026D01*
X92192246Y-65094454D01*
X92048985Y-65050997D01*
X91900000Y-65036323D01*
X91751014Y-65050997D01*
X91607753Y-65094454D01*
X91475724Y-65165026D01*
X91359999Y-65259999D01*
X91265026Y-65375725D01*
X91194454Y-65507754D01*
X91150997Y-65651015D01*
X91140000Y-65762668D01*
X91140001Y-72643060D01*
X81849789Y-72680537D01*
X82210750Y-72319576D01*
X82498451Y-71889001D01*
X82696623Y-71410572D01*
X82797650Y-70902674D01*
X82797650Y-70384826D01*
X82696623Y-69876928D01*
X82498451Y-69398499D01*
X82210750Y-68967924D01*
X81844576Y-68601750D01*
X81414001Y-68314049D01*
X80935572Y-68115877D01*
X80427674Y-68014850D01*
X79909826Y-68014850D01*
X79401928Y-68115877D01*
X78923499Y-68314049D01*
X78492924Y-68601750D01*
X78126750Y-68967924D01*
X77839049Y-69398499D01*
X77640877Y-69876928D01*
X77539850Y-70384826D01*
X77539850Y-70902674D01*
X77640877Y-71410572D01*
X77839049Y-71889001D01*
X78126750Y-72319576D01*
X78492924Y-72685750D01*
X78505315Y-72694029D01*
X77994555Y-72696090D01*
X77958759Y-72692564D01*
X77919906Y-72696391D01*
X77918362Y-72696397D01*
X77882634Y-72700062D01*
X77809773Y-72707238D01*
X77808292Y-72707687D01*
X77806754Y-72707845D01*
X77736665Y-72729415D01*
X77666513Y-72750695D01*
X77665150Y-72751424D01*
X77663670Y-72751879D01*
X77599108Y-72786724D01*
X77534483Y-72821267D01*
X77533287Y-72822248D01*
X77531926Y-72822983D01*
X77475608Y-72869584D01*
X77447756Y-72892441D01*
X77446660Y-72893537D01*
X77418936Y-72916477D01*
X77418741Y-72916239D01*
X77303016Y-72821266D01*
X77170987Y-72750694D01*
X77027726Y-72707237D01*
X76916073Y-72696240D01*
X76916062Y-72696240D01*
X76878740Y-72692564D01*
X76841418Y-72696240D01*
X61985127Y-72696240D01*
X62000826Y-72685750D01*
X62367000Y-72319576D01*
X62654701Y-71889001D01*
X62852873Y-71410572D01*
X62953900Y-70902674D01*
X62953900Y-70384826D01*
X62852873Y-69876928D01*
X62654701Y-69398499D01*
X62367000Y-68967924D01*
X62000826Y-68601750D01*
X61570251Y-68314049D01*
X61091822Y-68115877D01*
X60583924Y-68014850D01*
X60066076Y-68014850D01*
X59558178Y-68115877D01*
X59079749Y-68314049D01*
X58649174Y-68601750D01*
X58283000Y-68967924D01*
X57995299Y-69398499D01*
X57797127Y-69876928D01*
X57696100Y-70384826D01*
X57696100Y-70902674D01*
X57797127Y-71410572D01*
X57995299Y-71889001D01*
X58283000Y-72319576D01*
X58649174Y-72685750D01*
X58664873Y-72696240D01*
X58152332Y-72696240D01*
X58115009Y-72692564D01*
X58077686Y-72696240D01*
X58077677Y-72696240D01*
X57966024Y-72707237D01*
X57822763Y-72750694D01*
X57690734Y-72821266D01*
X57674695Y-72834429D01*
X57604006Y-72892441D01*
X57604002Y-72892445D01*
X57575009Y-72916239D01*
X57572657Y-72919105D01*
X57342553Y-72689002D01*
X57318751Y-72659999D01*
X57203026Y-72565026D01*
X57070997Y-72494454D01*
X56927736Y-72450997D01*
X56816083Y-72440000D01*
X56816072Y-72440000D01*
X56778750Y-72436324D01*
X56741428Y-72440000D01*
X54314803Y-72440000D01*
X53235000Y-71360198D01*
X53235000Y-71298061D01*
X53195226Y-71098102D01*
X53117205Y-70909744D01*
X53003937Y-70740226D01*
X52859774Y-70596063D01*
X52690256Y-70482795D01*
X52501898Y-70404774D01*
X52301939Y-70365000D01*
X52098061Y-70365000D01*
X51898102Y-70404774D01*
X51709744Y-70482795D01*
X51540226Y-70596063D01*
X51396063Y-70740226D01*
X51282795Y-70909744D01*
X51204774Y-71098102D01*
X51165000Y-71298061D01*
X50660000Y-71298061D01*
X50660000Y-64898061D01*
X52265000Y-64898061D01*
X52265000Y-65101939D01*
X52304774Y-65301898D01*
X52382795Y-65490256D01*
X52496063Y-65659774D01*
X52640226Y-65803937D01*
X52809744Y-65917205D01*
X52998102Y-65995226D01*
X53198061Y-66035000D01*
X53401939Y-66035000D01*
X53601898Y-65995226D01*
X53751810Y-65933130D01*
X53692483Y-66021919D01*
X53561695Y-66337669D01*
X53495020Y-66672867D01*
X53495020Y-67014633D01*
X53561695Y-67349831D01*
X53692483Y-67665581D01*
X53882357Y-67949748D01*
X54124022Y-68191413D01*
X54408189Y-68381287D01*
X54723939Y-68512075D01*
X54785837Y-68524387D01*
X54805328Y-68622373D01*
X54939357Y-68945949D01*
X55019881Y-69066462D01*
X54981109Y-69058750D01*
X54668891Y-69058750D01*
X54362673Y-69119661D01*
X54074221Y-69239141D01*
X53814621Y-69412600D01*
X53593850Y-69633371D01*
X53420391Y-69892971D01*
X53300911Y-70181423D01*
X53240000Y-70487641D01*
X53240000Y-70799859D01*
X53300911Y-71106077D01*
X53420391Y-71394529D01*
X53593850Y-71654129D01*
X53814621Y-71874900D01*
X54074221Y-72048359D01*
X54362673Y-72167839D01*
X54668891Y-72228750D01*
X54981109Y-72228750D01*
X55287327Y-72167839D01*
X55379524Y-72129650D01*
X55391348Y-72129650D01*
X55678421Y-72072548D01*
X55948838Y-71960538D01*
X56192206Y-71797924D01*
X56399174Y-71590956D01*
X56561788Y-71347588D01*
X56673798Y-71077171D01*
X56730900Y-70790098D01*
X56730900Y-70497402D01*
X56673798Y-70210329D01*
X56561788Y-69939912D01*
X56522925Y-69881750D01*
X56690118Y-69881750D01*
X57033623Y-69813422D01*
X57357199Y-69679393D01*
X57648409Y-69484813D01*
X57896063Y-69237159D01*
X58090643Y-68945949D01*
X58224672Y-68622373D01*
X58271690Y-68386001D01*
X58491395Y-68319354D01*
X58801491Y-68153604D01*
X59073292Y-67930542D01*
X59296354Y-67658741D01*
X59462104Y-67348645D01*
X59564172Y-67012171D01*
X59590000Y-66749933D01*
X59590000Y-66479613D01*
X59775166Y-66556311D01*
X60139344Y-66628750D01*
X60510656Y-66628750D01*
X60874834Y-66556311D01*
X61060000Y-66479613D01*
X61060000Y-66749933D01*
X61085828Y-67012171D01*
X61187896Y-67348645D01*
X61353647Y-67658741D01*
X61576709Y-67930542D01*
X61848510Y-68153604D01*
X62158606Y-68319354D01*
X62378310Y-68386000D01*
X62425328Y-68622373D01*
X62559357Y-68945949D01*
X62753937Y-69237159D01*
X63001591Y-69484813D01*
X63292801Y-69679393D01*
X63616377Y-69813422D01*
X63959882Y-69881750D01*
X64127075Y-69881750D01*
X64088212Y-69939912D01*
X63976202Y-70210329D01*
X63919100Y-70497402D01*
X63919100Y-70790098D01*
X63976202Y-71077171D01*
X64088212Y-71347588D01*
X64250826Y-71590956D01*
X64457794Y-71797924D01*
X64701162Y-71960538D01*
X64971579Y-72072548D01*
X65258652Y-72129650D01*
X65270476Y-72129650D01*
X65362673Y-72167839D01*
X65668891Y-72228750D01*
X65981109Y-72228750D01*
X66287327Y-72167839D01*
X66575779Y-72048359D01*
X66835379Y-71874900D01*
X67056150Y-71654129D01*
X67229609Y-71394529D01*
X67349089Y-71106077D01*
X67410000Y-70799859D01*
X67410000Y-70487641D01*
X73083750Y-70487641D01*
X73083750Y-70799859D01*
X73144661Y-71106077D01*
X73264141Y-71394529D01*
X73437600Y-71654129D01*
X73658371Y-71874900D01*
X73917971Y-72048359D01*
X74206423Y-72167839D01*
X74512641Y-72228750D01*
X74824859Y-72228750D01*
X75131077Y-72167839D01*
X75223274Y-72129650D01*
X75235098Y-72129650D01*
X75522171Y-72072548D01*
X75792588Y-71960538D01*
X76035956Y-71797924D01*
X76242924Y-71590956D01*
X76405538Y-71347588D01*
X76517548Y-71077171D01*
X76574650Y-70790098D01*
X76574650Y-70497402D01*
X76517548Y-70210329D01*
X76405538Y-69939912D01*
X76366675Y-69881750D01*
X76533868Y-69881750D01*
X76877373Y-69813422D01*
X77200949Y-69679393D01*
X77492159Y-69484813D01*
X77739813Y-69237159D01*
X77934393Y-68945949D01*
X78068422Y-68622373D01*
X78115440Y-68386001D01*
X78335145Y-68319354D01*
X78645241Y-68153604D01*
X78917042Y-67930542D01*
X79140104Y-67658741D01*
X79305854Y-67348645D01*
X79407922Y-67012171D01*
X79433750Y-66749933D01*
X79433750Y-66479613D01*
X79618916Y-66556311D01*
X79983094Y-66628750D01*
X80354406Y-66628750D01*
X80718584Y-66556311D01*
X80903750Y-66479613D01*
X80903750Y-66749933D01*
X80929578Y-67012171D01*
X81031646Y-67348645D01*
X81197397Y-67658741D01*
X81420459Y-67930542D01*
X81692260Y-68153604D01*
X82002356Y-68319354D01*
X82222060Y-68386000D01*
X82269078Y-68622373D01*
X82403107Y-68945949D01*
X82597687Y-69237159D01*
X82845341Y-69484813D01*
X83136551Y-69679393D01*
X83460127Y-69813422D01*
X83803632Y-69881750D01*
X83970825Y-69881750D01*
X83931962Y-69939912D01*
X83819952Y-70210329D01*
X83762850Y-70497402D01*
X83762850Y-70790098D01*
X83819952Y-71077171D01*
X83931962Y-71347588D01*
X84094576Y-71590956D01*
X84301544Y-71797924D01*
X84544912Y-71960538D01*
X84815329Y-72072548D01*
X85102402Y-72129650D01*
X85114226Y-72129650D01*
X85206423Y-72167839D01*
X85512641Y-72228750D01*
X85824859Y-72228750D01*
X86131077Y-72167839D01*
X86419529Y-72048359D01*
X86679129Y-71874900D01*
X86899900Y-71654129D01*
X87073359Y-71394529D01*
X87192839Y-71106077D01*
X87253750Y-70799859D01*
X87253750Y-70487641D01*
X87192839Y-70181423D01*
X87073359Y-69892971D01*
X86899900Y-69633371D01*
X86679129Y-69412600D01*
X86419529Y-69239141D01*
X86131077Y-69119661D01*
X85824859Y-69058750D01*
X85512641Y-69058750D01*
X85473869Y-69066462D01*
X85554393Y-68945949D01*
X85688422Y-68622373D01*
X85713552Y-68496036D01*
X85990581Y-68381287D01*
X86274748Y-68191413D01*
X86516413Y-67949748D01*
X86706287Y-67665581D01*
X86837075Y-67349831D01*
X86903750Y-67014633D01*
X86903750Y-66672867D01*
X86837075Y-66337669D01*
X86706287Y-66021919D01*
X86516413Y-65737752D01*
X86282411Y-65503750D01*
X86389607Y-65503750D01*
X86409744Y-65517205D01*
X86598102Y-65595226D01*
X86798061Y-65635000D01*
X87001939Y-65635000D01*
X87201898Y-65595226D01*
X87390256Y-65517205D01*
X87559774Y-65403937D01*
X87703937Y-65259774D01*
X87817205Y-65090256D01*
X87895226Y-64901898D01*
X87935000Y-64701939D01*
X87935000Y-64498061D01*
X87895226Y-64298102D01*
X87817205Y-64109744D01*
X87703937Y-63940226D01*
X87559774Y-63796063D01*
X87390256Y-63682795D01*
X87201898Y-63604774D01*
X87001939Y-63565000D01*
X86798061Y-63565000D01*
X86598102Y-63604774D01*
X86409744Y-63682795D01*
X86240226Y-63796063D01*
X86096063Y-63940226D01*
X86066981Y-63983750D01*
X83404337Y-63983750D01*
X83375144Y-63968146D01*
X83038670Y-63866078D01*
X82688750Y-63831614D01*
X82338829Y-63866078D01*
X82002355Y-63968146D01*
X81973162Y-63983750D01*
X81894257Y-63983750D01*
X81839216Y-63850868D01*
X81632925Y-63542132D01*
X81370368Y-63279575D01*
X81061632Y-63073284D01*
X80718584Y-62931189D01*
X80354406Y-62858750D01*
X79983094Y-62858750D01*
X79618916Y-62931189D01*
X79275868Y-63073284D01*
X78967132Y-63279575D01*
X78704575Y-63542132D01*
X78498284Y-63850868D01*
X78428939Y-64018281D01*
X78335144Y-63968146D01*
X77998670Y-63866078D01*
X77648750Y-63831614D01*
X77298829Y-63866078D01*
X76962355Y-63968146D01*
X76652259Y-64133896D01*
X76380458Y-64356958D01*
X76157396Y-64628760D01*
X75991646Y-64938856D01*
X75889578Y-65275330D01*
X75886892Y-65302605D01*
X75579851Y-65175425D01*
X75244653Y-65108750D01*
X74902887Y-65108750D01*
X74567689Y-65175425D01*
X74251939Y-65306213D01*
X73967772Y-65496087D01*
X73726107Y-65737752D01*
X73536233Y-66021919D01*
X73405445Y-66337669D01*
X73338770Y-66672867D01*
X73338770Y-67014633D01*
X73405445Y-67349831D01*
X73536233Y-67665581D01*
X73726107Y-67949748D01*
X73967772Y-68191413D01*
X74251939Y-68381287D01*
X74567689Y-68512075D01*
X74629587Y-68524387D01*
X74649078Y-68622373D01*
X74783107Y-68945949D01*
X74863631Y-69066462D01*
X74824859Y-69058750D01*
X74512641Y-69058750D01*
X74206423Y-69119661D01*
X73917971Y-69239141D01*
X73658371Y-69412600D01*
X73437600Y-69633371D01*
X73264141Y-69892971D01*
X73144661Y-70181423D01*
X73083750Y-70487641D01*
X67410000Y-70487641D01*
X67349089Y-70181423D01*
X67229609Y-69892971D01*
X67056150Y-69633371D01*
X66835379Y-69412600D01*
X66575779Y-69239141D01*
X66287327Y-69119661D01*
X65981109Y-69058750D01*
X65668891Y-69058750D01*
X65630119Y-69066462D01*
X65710643Y-68945949D01*
X65844672Y-68622373D01*
X65869802Y-68496036D01*
X66146831Y-68381287D01*
X66430998Y-68191413D01*
X66672663Y-67949748D01*
X66862537Y-67665581D01*
X66993325Y-67349831D01*
X67060000Y-67014633D01*
X67060000Y-66672867D01*
X66993325Y-66337669D01*
X66862537Y-66021919D01*
X66672663Y-65737752D01*
X66438661Y-65503750D01*
X66618928Y-65503750D01*
X66656250Y-65507426D01*
X66658381Y-65507216D01*
X66798061Y-65535000D01*
X67001939Y-65535000D01*
X67201898Y-65495226D01*
X67390256Y-65417205D01*
X67559774Y-65303937D01*
X67703937Y-65159774D01*
X67817205Y-64990256D01*
X67895226Y-64801898D01*
X67935000Y-64601939D01*
X67935000Y-64398061D01*
X67895226Y-64198102D01*
X67817205Y-64009744D01*
X67703937Y-63840226D01*
X67559774Y-63696063D01*
X67390256Y-63582795D01*
X67201898Y-63504774D01*
X67147868Y-63494027D01*
X67217205Y-63390256D01*
X67295226Y-63201898D01*
X67335000Y-63001939D01*
X67335000Y-62798061D01*
X67295226Y-62598102D01*
X67217205Y-62409744D01*
X67192694Y-62373060D01*
X67890001Y-62373060D01*
X67890001Y-62576938D01*
X67929775Y-62776897D01*
X68007796Y-62965255D01*
X68121064Y-63134773D01*
X68265227Y-63278936D01*
X68434745Y-63392204D01*
X68623103Y-63470225D01*
X68823062Y-63509999D01*
X69026940Y-63509999D01*
X69226899Y-63470225D01*
X69415257Y-63392204D01*
X69584775Y-63278936D01*
X69728938Y-63134773D01*
X69842206Y-62965255D01*
X69896160Y-62835000D01*
X87465000Y-62835000D01*
X87465000Y-63001939D01*
X87504774Y-63201898D01*
X87582795Y-63390256D01*
X87696063Y-63559774D01*
X87840226Y-63703937D01*
X88009744Y-63817205D01*
X88198102Y-63895226D01*
X88398061Y-63935000D01*
X88601939Y-63935000D01*
X88801898Y-63895226D01*
X88990256Y-63817205D01*
X89159774Y-63703937D01*
X89203711Y-63660000D01*
X98469568Y-63660000D01*
X98342034Y-63850868D01*
X98272689Y-64018281D01*
X98178894Y-63968146D01*
X97842420Y-63866078D01*
X97492500Y-63831614D01*
X97142579Y-63866078D01*
X96806105Y-63968146D01*
X96496009Y-64133896D01*
X96224208Y-64356958D01*
X96001146Y-64628760D01*
X95835396Y-64938856D01*
X95733328Y-65275330D01*
X95730642Y-65302605D01*
X95423601Y-65175425D01*
X95088403Y-65108750D01*
X94746637Y-65108750D01*
X94411439Y-65175425D01*
X94095689Y-65306213D01*
X93811522Y-65496087D01*
X93569857Y-65737752D01*
X93379983Y-66021919D01*
X93249195Y-66337669D01*
X93182520Y-66672867D01*
X93182520Y-67014633D01*
X93249195Y-67349831D01*
X93379983Y-67665581D01*
X93569857Y-67949748D01*
X93811522Y-68191413D01*
X94095689Y-68381287D01*
X94411439Y-68512075D01*
X94473337Y-68524387D01*
X94492828Y-68622373D01*
X94626857Y-68945949D01*
X94707381Y-69066462D01*
X94668609Y-69058750D01*
X94356391Y-69058750D01*
X94050173Y-69119661D01*
X93761721Y-69239141D01*
X93502121Y-69412600D01*
X93281350Y-69633371D01*
X93107891Y-69892971D01*
X92988411Y-70181423D01*
X92927500Y-70487641D01*
X92927500Y-70799859D01*
X92988411Y-71106077D01*
X93107891Y-71394529D01*
X93281350Y-71654129D01*
X93502121Y-71874900D01*
X93761721Y-72048359D01*
X94050173Y-72167839D01*
X94356391Y-72228750D01*
X94668609Y-72228750D01*
X94974827Y-72167839D01*
X95067024Y-72129650D01*
X95078848Y-72129650D01*
X95365921Y-72072548D01*
X95636338Y-71960538D01*
X95879706Y-71797924D01*
X96086674Y-71590956D01*
X96249288Y-71347588D01*
X96361298Y-71077171D01*
X96418400Y-70790098D01*
X96418400Y-70497402D01*
X96361298Y-70210329D01*
X96249288Y-69939912D01*
X96210425Y-69881750D01*
X96377618Y-69881750D01*
X96721123Y-69813422D01*
X97044699Y-69679393D01*
X97335909Y-69484813D01*
X97583563Y-69237159D01*
X97778143Y-68945949D01*
X97912172Y-68622373D01*
X97959190Y-68386001D01*
X98178895Y-68319354D01*
X98488991Y-68153604D01*
X98760792Y-67930542D01*
X98983854Y-67658741D01*
X99149604Y-67348645D01*
X99251672Y-67012171D01*
X99277500Y-66749933D01*
X99277500Y-66479613D01*
X99462666Y-66556311D01*
X99826844Y-66628750D01*
X100198156Y-66628750D01*
X100562334Y-66556311D01*
X100747500Y-66479613D01*
X100747500Y-66749933D01*
X100773328Y-67012171D01*
X100875396Y-67348645D01*
X101041147Y-67658741D01*
X101264209Y-67930542D01*
X101536010Y-68153604D01*
X101846106Y-68319354D01*
X102065810Y-68386000D01*
X102112828Y-68622373D01*
X102246857Y-68945949D01*
X102441437Y-69237159D01*
X102689091Y-69484813D01*
X102980301Y-69679393D01*
X103303877Y-69813422D01*
X103647382Y-69881750D01*
X103814575Y-69881750D01*
X103775712Y-69939912D01*
X103663702Y-70210329D01*
X103606600Y-70497402D01*
X103606600Y-70790098D01*
X103663702Y-71077171D01*
X103775712Y-71347588D01*
X103938326Y-71590956D01*
X104145294Y-71797924D01*
X104388662Y-71960538D01*
X104659079Y-72072548D01*
X104946152Y-72129650D01*
X104957976Y-72129650D01*
X105050173Y-72167839D01*
X105356391Y-72228750D01*
X105668609Y-72228750D01*
X105974827Y-72167839D01*
X106263279Y-72048359D01*
X106522879Y-71874900D01*
X106743650Y-71654129D01*
X106917109Y-71394529D01*
X107036589Y-71106077D01*
X107097500Y-70799859D01*
X107097500Y-70487641D01*
X107036589Y-70181423D01*
X106917109Y-69892971D01*
X106743650Y-69633371D01*
X106522879Y-69412600D01*
X106263279Y-69239141D01*
X105974827Y-69119661D01*
X105668609Y-69058750D01*
X105356391Y-69058750D01*
X105317619Y-69066462D01*
X105398143Y-68945949D01*
X105532172Y-68622373D01*
X105557302Y-68496036D01*
X105834331Y-68381287D01*
X106118498Y-68191413D01*
X106360163Y-67949748D01*
X106550037Y-67665581D01*
X106680825Y-67349831D01*
X106747500Y-67014633D01*
X106747500Y-66672867D01*
X106680825Y-66337669D01*
X106550037Y-66021919D01*
X106360163Y-65737752D01*
X106118498Y-65496087D01*
X105968110Y-65395601D01*
X106003937Y-65359774D01*
X106117205Y-65190256D01*
X106195226Y-65001898D01*
X106235000Y-64801939D01*
X106235000Y-64614736D01*
X106344866Y-64724602D01*
X106514384Y-64837870D01*
X106702742Y-64915891D01*
X106902701Y-64955665D01*
X107106579Y-64955665D01*
X107306538Y-64915891D01*
X107494896Y-64837870D01*
X107664414Y-64724602D01*
X107808577Y-64580439D01*
X107921845Y-64410921D01*
X107999866Y-64222563D01*
X108002152Y-64211070D01*
X108013646Y-64208784D01*
X108202004Y-64130763D01*
X108371522Y-64017495D01*
X108515685Y-63873332D01*
X108628953Y-63703814D01*
X108706974Y-63515456D01*
X108746748Y-63315497D01*
X108746748Y-63111619D01*
X108706974Y-62911660D01*
X108628953Y-62723302D01*
X108515685Y-62553784D01*
X108371522Y-62409621D01*
X108202004Y-62296353D01*
X108013646Y-62218332D01*
X107813687Y-62178558D01*
X107751550Y-62178558D01*
X107136994Y-61564002D01*
X107113191Y-61534999D01*
X106997466Y-61440026D01*
X106865437Y-61369454D01*
X106722176Y-61325997D01*
X106610523Y-61315000D01*
X106610512Y-61315000D01*
X106573190Y-61311324D01*
X106535868Y-61315000D01*
X69362322Y-61315000D01*
X69324999Y-61311324D01*
X69287677Y-61315000D01*
X69287667Y-61315000D01*
X69176014Y-61325997D01*
X69032753Y-61369454D01*
X68900775Y-61439999D01*
X68823062Y-61439999D01*
X68623103Y-61479773D01*
X68434745Y-61557794D01*
X68265227Y-61671062D01*
X68121064Y-61815225D01*
X68007796Y-61984743D01*
X67929775Y-62173101D01*
X67890001Y-62373060D01*
X67192694Y-62373060D01*
X67103937Y-62240226D01*
X66959774Y-62096063D01*
X66790256Y-61982795D01*
X66601898Y-61904774D01*
X66401939Y-61865000D01*
X66198061Y-61865000D01*
X65998102Y-61904774D01*
X65809744Y-61982795D01*
X65640226Y-62096063D01*
X65596289Y-62140000D01*
X55437322Y-62140000D01*
X55399999Y-62136324D01*
X55362676Y-62140000D01*
X55362667Y-62140000D01*
X55251014Y-62150997D01*
X55107753Y-62194454D01*
X54975724Y-62265026D01*
X54975722Y-62265027D01*
X54975723Y-62265027D01*
X54888996Y-62336201D01*
X54888992Y-62336205D01*
X54859999Y-62359999D01*
X54836205Y-62388992D01*
X53260199Y-63965000D01*
X53198061Y-63965000D01*
X52998102Y-64004774D01*
X52809744Y-64082795D01*
X52640226Y-64196063D01*
X52496063Y-64340226D01*
X52382795Y-64509744D01*
X52304774Y-64698102D01*
X52265000Y-64898061D01*
X50660000Y-64898061D01*
X50660000Y-55198061D01*
X51065000Y-55198061D01*
X51065000Y-55401939D01*
X51104774Y-55601898D01*
X51182795Y-55790256D01*
X51296063Y-55959774D01*
X51440226Y-56103937D01*
X51609744Y-56217205D01*
X51798102Y-56295226D01*
X51998061Y-56335000D01*
X52201939Y-56335000D01*
X52401898Y-56295226D01*
X52590256Y-56217205D01*
X52759774Y-56103937D01*
X52903937Y-55959774D01*
X53017205Y-55790256D01*
X53095226Y-55601898D01*
X53135000Y-55401939D01*
X53135000Y-55339801D01*
X53639803Y-54834999D01*
X53878626Y-54834999D01*
X53870000Y-54878363D01*
X53870000Y-55121637D01*
X53917460Y-55360236D01*
X54010557Y-55584992D01*
X54145713Y-55787267D01*
X54317733Y-55959287D01*
X54520008Y-56094443D01*
X54543654Y-56104238D01*
X54504774Y-56198102D01*
X54465000Y-56398061D01*
X54465000Y-56601939D01*
X54504774Y-56801898D01*
X54582795Y-56990256D01*
X54696063Y-57159774D01*
X54840226Y-57303937D01*
X55009744Y-57417205D01*
X55198102Y-57495226D01*
X55398061Y-57535000D01*
X55601939Y-57535000D01*
X55801898Y-57495226D01*
X55990256Y-57417205D01*
X56159774Y-57303937D01*
X56260181Y-57203530D01*
X56320506Y-57253037D01*
X56430820Y-57312002D01*
X56550518Y-57348312D01*
X56675000Y-57360572D01*
X57963658Y-57360572D01*
X57978621Y-57388246D01*
X58012082Y-57437855D01*
X58044835Y-57487906D01*
X58050660Y-57495047D01*
X58075541Y-57525122D01*
X58117980Y-57567265D01*
X58159838Y-57610008D01*
X58166939Y-57615881D01*
X58166942Y-57615884D01*
X58166946Y-57615886D01*
X58197187Y-57640551D01*
X58246975Y-57673629D01*
X58296362Y-57707446D01*
X58304469Y-57711828D01*
X58338933Y-57730153D01*
X58394215Y-57752939D01*
X58449218Y-57776514D01*
X58458021Y-57779239D01*
X58495388Y-57790521D01*
X58554066Y-57802139D01*
X58573826Y-57806340D01*
X58595617Y-57812950D01*
X58619112Y-57815264D01*
X58621748Y-57815541D01*
X58660595Y-57819350D01*
X58660598Y-57819350D01*
X58692581Y-57822500D01*
X61957419Y-57822500D01*
X61985123Y-57819771D01*
X61986211Y-57819779D01*
X61995382Y-57818880D01*
X62013389Y-57816988D01*
X62054383Y-57812950D01*
X62077756Y-57805860D01*
X62092779Y-57802776D01*
X62151558Y-57791564D01*
X62160379Y-57788900D01*
X62197667Y-57777358D01*
X62252810Y-57754178D01*
X62308273Y-57731770D01*
X62316410Y-57727444D01*
X62350746Y-57708879D01*
X62400355Y-57675418D01*
X62450406Y-57642665D01*
X62457547Y-57636840D01*
X62487622Y-57611959D01*
X62529765Y-57569520D01*
X62572508Y-57527662D01*
X62578381Y-57520561D01*
X62578384Y-57520558D01*
X62578386Y-57520554D01*
X62603051Y-57490313D01*
X62636129Y-57440525D01*
X62669946Y-57391138D01*
X62674328Y-57383031D01*
X62687633Y-57358008D01*
X62789250Y-57357500D01*
X62948000Y-57198750D01*
X62948000Y-56439500D01*
X62928000Y-56439500D01*
X62928000Y-56185500D01*
X62948000Y-56185500D01*
X62948000Y-56165500D01*
X63202000Y-56165500D01*
X63202000Y-56185500D01*
X63222000Y-56185500D01*
X63222000Y-56439500D01*
X63202000Y-56439500D01*
X63202000Y-57198750D01*
X63360750Y-57357500D01*
X63975000Y-57360572D01*
X64099482Y-57348312D01*
X64219180Y-57312002D01*
X64329494Y-57253037D01*
X64426185Y-57173685D01*
X64505537Y-57076994D01*
X64559235Y-56976534D01*
X64881213Y-57298513D01*
X64905011Y-57327511D01*
X65020736Y-57422484D01*
X65152765Y-57493056D01*
X65296026Y-57536513D01*
X65405050Y-57547251D01*
X65445012Y-57551187D01*
X65482345Y-57547510D01*
X67496289Y-57547510D01*
X67540226Y-57591447D01*
X67709744Y-57704715D01*
X67898102Y-57782736D01*
X68098061Y-57822510D01*
X68301939Y-57822510D01*
X68501898Y-57782736D01*
X68690256Y-57704715D01*
X68859774Y-57591447D01*
X69003937Y-57447284D01*
X69117205Y-57277766D01*
X69195226Y-57089408D01*
X69235000Y-56889449D01*
X69235000Y-56685571D01*
X69195226Y-56485612D01*
X69117205Y-56297254D01*
X69003937Y-56127736D01*
X68859774Y-55983573D01*
X68690256Y-55870305D01*
X68501898Y-55792284D01*
X68301939Y-55752510D01*
X68098061Y-55752510D01*
X67898102Y-55792284D01*
X67709744Y-55870305D01*
X67540226Y-55983573D01*
X67496289Y-56027510D01*
X66135184Y-56027510D01*
X66237287Y-55959287D01*
X66409307Y-55787267D01*
X66544463Y-55584992D01*
X66637560Y-55360236D01*
X66685020Y-55121637D01*
X66685020Y-54878363D01*
X66637560Y-54639764D01*
X66544463Y-54415008D01*
X66502167Y-54351707D01*
X73896603Y-54351707D01*
X73854307Y-54415008D01*
X73761210Y-54639764D01*
X73713750Y-54878363D01*
X73713750Y-55121637D01*
X73761210Y-55360236D01*
X73854307Y-55584992D01*
X73989463Y-55787267D01*
X74161483Y-55959287D01*
X74363758Y-56094443D01*
X74410143Y-56113656D01*
X74396063Y-56127736D01*
X74282795Y-56297254D01*
X74204774Y-56485612D01*
X74165000Y-56685571D01*
X74165000Y-56889449D01*
X74204774Y-57089408D01*
X74282795Y-57277766D01*
X74396063Y-57447284D01*
X74540226Y-57591447D01*
X74709744Y-57704715D01*
X74894527Y-57781255D01*
X74709744Y-57857795D01*
X74540226Y-57971063D01*
X74396063Y-58115226D01*
X74282795Y-58284744D01*
X74204774Y-58473102D01*
X74165000Y-58673061D01*
X74165000Y-58740000D01*
X56103711Y-58740000D01*
X56059774Y-58696063D01*
X55890256Y-58582795D01*
X55701898Y-58504774D01*
X55501939Y-58465000D01*
X55298061Y-58465000D01*
X55098102Y-58504774D01*
X54909744Y-58582795D01*
X54740226Y-58696063D01*
X54596063Y-58840226D01*
X54482795Y-59009744D01*
X54404774Y-59198102D01*
X54365000Y-59398061D01*
X54365000Y-59601939D01*
X54404774Y-59801898D01*
X54482795Y-59990256D01*
X54596063Y-60159774D01*
X54740226Y-60303937D01*
X54909744Y-60417205D01*
X55098102Y-60495226D01*
X55298061Y-60535000D01*
X55501939Y-60535000D01*
X55701898Y-60495226D01*
X55890256Y-60417205D01*
X56059774Y-60303937D01*
X56103711Y-60260000D01*
X83696289Y-60260000D01*
X83740226Y-60303937D01*
X83909744Y-60417205D01*
X84098102Y-60495226D01*
X84298061Y-60535000D01*
X84501939Y-60535000D01*
X84701898Y-60495226D01*
X84890256Y-60417205D01*
X85059774Y-60303937D01*
X85203937Y-60159774D01*
X85317205Y-59990256D01*
X85395226Y-59801898D01*
X85435000Y-59601939D01*
X85435000Y-59535000D01*
X102287678Y-59535000D01*
X102325000Y-59538676D01*
X102362322Y-59535000D01*
X102362333Y-59535000D01*
X102473986Y-59524003D01*
X102617247Y-59480546D01*
X102749276Y-59409974D01*
X102865001Y-59315001D01*
X102888803Y-59285998D01*
X104176741Y-57998061D01*
X113965000Y-57998061D01*
X113965000Y-58201939D01*
X114004774Y-58401898D01*
X114082795Y-58590256D01*
X114196063Y-58759774D01*
X114340226Y-58903937D01*
X114509744Y-59017205D01*
X114698102Y-59095226D01*
X114898061Y-59135000D01*
X114960199Y-59135000D01*
X115165000Y-59339802D01*
X115165000Y-59401939D01*
X115204774Y-59601898D01*
X115282795Y-59790256D01*
X115396063Y-59959774D01*
X115540226Y-60103937D01*
X115709744Y-60217205D01*
X115898102Y-60295226D01*
X116098061Y-60335000D01*
X116301939Y-60335000D01*
X116501898Y-60295226D01*
X116690256Y-60217205D01*
X116859774Y-60103937D01*
X117003937Y-59959774D01*
X117117205Y-59790256D01*
X117195226Y-59601898D01*
X117235000Y-59401939D01*
X117235000Y-59198061D01*
X117195226Y-58998102D01*
X117117205Y-58809744D01*
X117003937Y-58640226D01*
X116859774Y-58496063D01*
X116690256Y-58382795D01*
X116501898Y-58304774D01*
X116301939Y-58265000D01*
X116239802Y-58265000D01*
X116035000Y-58060199D01*
X116035000Y-57998061D01*
X115995226Y-57798102D01*
X115917205Y-57609744D01*
X115803937Y-57440226D01*
X115659774Y-57296063D01*
X115490256Y-57182795D01*
X115301898Y-57104774D01*
X115101939Y-57065000D01*
X114898061Y-57065000D01*
X114698102Y-57104774D01*
X114509744Y-57182795D01*
X114340226Y-57296063D01*
X114196063Y-57440226D01*
X114082795Y-57609744D01*
X114004774Y-57798102D01*
X113965000Y-57998061D01*
X104176741Y-57998061D01*
X104498510Y-57676293D01*
X104527502Y-57652500D01*
X104551296Y-57623507D01*
X104551300Y-57623503D01*
X104613878Y-57547251D01*
X104622475Y-57536775D01*
X104693047Y-57404746D01*
X104736504Y-57261485D01*
X104747501Y-57149832D01*
X104747501Y-57149823D01*
X104751177Y-57112500D01*
X104747501Y-57075177D01*
X104747501Y-56175203D01*
X104777284Y-56187540D01*
X105015883Y-56235000D01*
X105259157Y-56235000D01*
X105497756Y-56187540D01*
X105722512Y-56094443D01*
X105924787Y-55959287D01*
X106096807Y-55787267D01*
X106231963Y-55584992D01*
X106325060Y-55360236D01*
X106372520Y-55121637D01*
X106372520Y-54878363D01*
X106325060Y-54639764D01*
X106231963Y-54415008D01*
X106096807Y-54212733D01*
X105924787Y-54040713D01*
X105722512Y-53905557D01*
X105658159Y-53878901D01*
X129443777Y-53878901D01*
X129481099Y-53882577D01*
X129518421Y-53878901D01*
X129518432Y-53878901D01*
X129630085Y-53867904D01*
X129773346Y-53824447D01*
X129905375Y-53753875D01*
X130021100Y-53658902D01*
X130044903Y-53629898D01*
X134011004Y-49663798D01*
X134040001Y-49640001D01*
X134134974Y-49524276D01*
X134205546Y-49392247D01*
X134249003Y-49248986D01*
X134260000Y-49137333D01*
X134260000Y-49137324D01*
X134263676Y-49100001D01*
X134260000Y-49062678D01*
X134260000Y-45503711D01*
X134303937Y-45459774D01*
X134417205Y-45290256D01*
X134495226Y-45101898D01*
X134535000Y-44901939D01*
X134535000Y-44698061D01*
X134495226Y-44498102D01*
X134417205Y-44309744D01*
X134303937Y-44140226D01*
X134159774Y-43996063D01*
X133990256Y-43882795D01*
X133801898Y-43804774D01*
X133601939Y-43765000D01*
X133398061Y-43765000D01*
X133198102Y-43804774D01*
X133009744Y-43882795D01*
X132840226Y-43996063D01*
X132696063Y-44140226D01*
X132582795Y-44309744D01*
X132504774Y-44498102D01*
X132465000Y-44698061D01*
X132465000Y-44901939D01*
X132504774Y-45101898D01*
X132582795Y-45290256D01*
X132696063Y-45459774D01*
X132740001Y-45503712D01*
X132740000Y-46437332D01*
X132740001Y-46437342D01*
X132740000Y-48785198D01*
X129166298Y-52358901D01*
X105799817Y-52358901D01*
X105974827Y-52324089D01*
X106263279Y-52204609D01*
X106522879Y-52031150D01*
X106743650Y-51810379D01*
X106917109Y-51550779D01*
X107036589Y-51262327D01*
X107097500Y-50956109D01*
X107097500Y-50643891D01*
X107036589Y-50337673D01*
X106917109Y-50049221D01*
X106743650Y-49789621D01*
X106522879Y-49568850D01*
X106263279Y-49395391D01*
X105974827Y-49275911D01*
X105668609Y-49215000D01*
X105356391Y-49215000D01*
X105317619Y-49222712D01*
X105398143Y-49102199D01*
X105532172Y-48778623D01*
X105548196Y-48698061D01*
X118565000Y-48698061D01*
X118565000Y-48901939D01*
X118604774Y-49101898D01*
X118682795Y-49290256D01*
X118796063Y-49459774D01*
X118940226Y-49603937D01*
X119109744Y-49717205D01*
X119298102Y-49795226D01*
X119498061Y-49835000D01*
X119701939Y-49835000D01*
X119901898Y-49795226D01*
X119986940Y-49760000D01*
X126696993Y-49760000D01*
X126734315Y-49763676D01*
X126771637Y-49760000D01*
X126771648Y-49760000D01*
X126883301Y-49749003D01*
X127026562Y-49705546D01*
X127158591Y-49634974D01*
X127274316Y-49540001D01*
X127298118Y-49510998D01*
X127467845Y-49341271D01*
X127598102Y-49395226D01*
X127798061Y-49435000D01*
X128001939Y-49435000D01*
X128201898Y-49395226D01*
X128390256Y-49317205D01*
X128559774Y-49203937D01*
X128703937Y-49059774D01*
X128817205Y-48890256D01*
X128895226Y-48701898D01*
X128935000Y-48501939D01*
X128935000Y-48298061D01*
X128895226Y-48098102D01*
X128817205Y-47909744D01*
X128703937Y-47740226D01*
X128559774Y-47596063D01*
X128390256Y-47482795D01*
X128201898Y-47404774D01*
X128001939Y-47365000D01*
X127798061Y-47365000D01*
X127598102Y-47404774D01*
X127409744Y-47482795D01*
X127240226Y-47596063D01*
X127185276Y-47651013D01*
X127042068Y-47694454D01*
X126910038Y-47765026D01*
X126849156Y-47814991D01*
X126794314Y-47859999D01*
X126770515Y-47888998D01*
X126419514Y-48240000D01*
X120470604Y-48240000D01*
X120403937Y-48140226D01*
X120259774Y-47996063D01*
X120090256Y-47882795D01*
X119901898Y-47804774D01*
X119701939Y-47765000D01*
X119498061Y-47765000D01*
X119298102Y-47804774D01*
X119109744Y-47882795D01*
X118940226Y-47996063D01*
X118796063Y-48140226D01*
X118682795Y-48309744D01*
X118604774Y-48498102D01*
X118565000Y-48698061D01*
X105548196Y-48698061D01*
X105557302Y-48652286D01*
X105834331Y-48537537D01*
X106118498Y-48347663D01*
X106360163Y-48105998D01*
X106550037Y-47821831D01*
X106680825Y-47506081D01*
X106747500Y-47170883D01*
X106747500Y-46829117D01*
X106680825Y-46493919D01*
X106550037Y-46178169D01*
X106360163Y-45894002D01*
X106118498Y-45652337D01*
X105834331Y-45462463D01*
X105518581Y-45331675D01*
X105183383Y-45265000D01*
X104841617Y-45265000D01*
X104506419Y-45331675D01*
X104288720Y-45421849D01*
X104189604Y-45095105D01*
X104023854Y-44785009D01*
X103800792Y-44513208D01*
X103528990Y-44290146D01*
X103218894Y-44124396D01*
X102882420Y-44022328D01*
X102532500Y-43987864D01*
X102182579Y-44022328D01*
X101846105Y-44124396D01*
X101752310Y-44174530D01*
X101682966Y-44007118D01*
X101476675Y-43698382D01*
X101214118Y-43435825D01*
X100905382Y-43229534D01*
X100562334Y-43087439D01*
X100198156Y-43015000D01*
X99826844Y-43015000D01*
X99462666Y-43087439D01*
X99119618Y-43229534D01*
X98810882Y-43435825D01*
X98548325Y-43698382D01*
X98342034Y-44007118D01*
X98272689Y-44174531D01*
X98178894Y-44124396D01*
X97842420Y-44022328D01*
X97492500Y-43987864D01*
X97142579Y-44022328D01*
X96806105Y-44124396D01*
X96496009Y-44290146D01*
X96224208Y-44513208D01*
X96001146Y-44785010D01*
X95835396Y-45095106D01*
X95733328Y-45431580D01*
X95730642Y-45458855D01*
X95423601Y-45331675D01*
X95088403Y-45265000D01*
X94746637Y-45265000D01*
X94411439Y-45331675D01*
X94095689Y-45462463D01*
X93811522Y-45652337D01*
X93569857Y-45894002D01*
X93379983Y-46178169D01*
X93249195Y-46493919D01*
X93182520Y-46829117D01*
X93182520Y-47170883D01*
X93249195Y-47506081D01*
X93379983Y-47821831D01*
X93569857Y-48105998D01*
X93811522Y-48347663D01*
X94095689Y-48537537D01*
X94411439Y-48668325D01*
X94473337Y-48680637D01*
X94492828Y-48778623D01*
X94626857Y-49102199D01*
X94707381Y-49222712D01*
X94668609Y-49215000D01*
X94356391Y-49215000D01*
X94050173Y-49275911D01*
X93761721Y-49395391D01*
X93502121Y-49568850D01*
X93281350Y-49789621D01*
X93107891Y-50049221D01*
X92988411Y-50337673D01*
X92927500Y-50643891D01*
X92927500Y-50956109D01*
X92988411Y-51262327D01*
X93107891Y-51550779D01*
X93281350Y-51810379D01*
X93502121Y-52031150D01*
X93761721Y-52204609D01*
X94050173Y-52324089D01*
X94356391Y-52385000D01*
X94668609Y-52385000D01*
X94974827Y-52324089D01*
X95067024Y-52285900D01*
X95078848Y-52285900D01*
X95365921Y-52228798D01*
X95636338Y-52116788D01*
X95879706Y-51954174D01*
X96086674Y-51747206D01*
X96249288Y-51503838D01*
X96361298Y-51233421D01*
X96418400Y-50946348D01*
X96418400Y-50653652D01*
X96361298Y-50366579D01*
X96249288Y-50096162D01*
X96210425Y-50038000D01*
X96377618Y-50038000D01*
X96721123Y-49969672D01*
X97044699Y-49835643D01*
X97335909Y-49641063D01*
X97583563Y-49393409D01*
X97778143Y-49102199D01*
X97912172Y-48778623D01*
X97959190Y-48542251D01*
X98178895Y-48475604D01*
X98488991Y-48309854D01*
X98760792Y-48086792D01*
X98983854Y-47814991D01*
X99149604Y-47504895D01*
X99251672Y-47168421D01*
X99277500Y-46906183D01*
X99277500Y-46635863D01*
X99462666Y-46712561D01*
X99826844Y-46785000D01*
X100198156Y-46785000D01*
X100562334Y-46712561D01*
X100747500Y-46635863D01*
X100747500Y-46906183D01*
X100773328Y-47168421D01*
X100875396Y-47504895D01*
X101041147Y-47814991D01*
X101264209Y-48086792D01*
X101536010Y-48309854D01*
X101846106Y-48475604D01*
X102065810Y-48542250D01*
X102112828Y-48778623D01*
X102246857Y-49102199D01*
X102441437Y-49393409D01*
X102689091Y-49641063D01*
X102980301Y-49835643D01*
X103303877Y-49969672D01*
X103647382Y-50038000D01*
X103814575Y-50038000D01*
X103775712Y-50096162D01*
X103663702Y-50366579D01*
X103606600Y-50653652D01*
X103606600Y-50946348D01*
X103663702Y-51233421D01*
X103775712Y-51503838D01*
X103938326Y-51747206D01*
X104145294Y-51954174D01*
X104388662Y-52116788D01*
X104659079Y-52228798D01*
X104946152Y-52285900D01*
X104957976Y-52285900D01*
X105050173Y-52324089D01*
X105225183Y-52358901D01*
X102132627Y-52358901D01*
X102342201Y-52045251D01*
X102540373Y-51566822D01*
X102641400Y-51058924D01*
X102641400Y-50541076D01*
X102540373Y-50033178D01*
X102342201Y-49554749D01*
X102054500Y-49124174D01*
X101688326Y-48758000D01*
X101257751Y-48470299D01*
X100779322Y-48272127D01*
X100271424Y-48171100D01*
X99753576Y-48171100D01*
X99245678Y-48272127D01*
X98767249Y-48470299D01*
X98336674Y-48758000D01*
X97970500Y-49124174D01*
X97682799Y-49554749D01*
X97484627Y-50033178D01*
X97383600Y-50541076D01*
X97383600Y-51058924D01*
X97484627Y-51566822D01*
X97682799Y-52045251D01*
X97948520Y-52442931D01*
X97871823Y-52483927D01*
X97756098Y-52578900D01*
X97732300Y-52607898D01*
X97263997Y-53076202D01*
X97253898Y-53063896D01*
X97138173Y-52968923D01*
X97006144Y-52898351D01*
X96862883Y-52854894D01*
X96751230Y-52843897D01*
X96751219Y-52843897D01*
X96713897Y-52840221D01*
X96676575Y-52843897D01*
X81841737Y-52843897D01*
X81844576Y-52842000D01*
X82210750Y-52475826D01*
X82498451Y-52045251D01*
X82696623Y-51566822D01*
X82797650Y-51058924D01*
X82797650Y-50541076D01*
X82696623Y-50033178D01*
X82498451Y-49554749D01*
X82210750Y-49124174D01*
X81844576Y-48758000D01*
X81414001Y-48470299D01*
X80935572Y-48272127D01*
X80427674Y-48171100D01*
X79909826Y-48171100D01*
X79401928Y-48272127D01*
X78923499Y-48470299D01*
X78492924Y-48758000D01*
X78126750Y-49124174D01*
X77839049Y-49554749D01*
X77640877Y-50033178D01*
X77539850Y-50541076D01*
X77539850Y-51058924D01*
X77640877Y-51566822D01*
X77839049Y-52045251D01*
X78126750Y-52475826D01*
X78492924Y-52842000D01*
X78495763Y-52843897D01*
X78004676Y-52843897D01*
X77967353Y-52840221D01*
X77930030Y-52843897D01*
X77930020Y-52843897D01*
X77818367Y-52854894D01*
X77675106Y-52898351D01*
X77543077Y-52968923D01*
X77427352Y-53063896D01*
X77417657Y-53075709D01*
X77397958Y-53051706D01*
X77282233Y-52956733D01*
X77150204Y-52886161D01*
X77006943Y-52842704D01*
X76895290Y-52831707D01*
X76895279Y-52831707D01*
X76857957Y-52828031D01*
X76820635Y-52831707D01*
X62011119Y-52831707D01*
X62367000Y-52475826D01*
X62654701Y-52045251D01*
X62852873Y-51566822D01*
X62953900Y-51058924D01*
X62953900Y-50541076D01*
X62852873Y-50033178D01*
X62654701Y-49554749D01*
X62367000Y-49124174D01*
X62000826Y-48758000D01*
X61570251Y-48470299D01*
X61091822Y-48272127D01*
X60583924Y-48171100D01*
X60066076Y-48171100D01*
X59558178Y-48272127D01*
X59079749Y-48470299D01*
X58649174Y-48758000D01*
X58283000Y-49124174D01*
X57995299Y-49554749D01*
X57797127Y-50033178D01*
X57696100Y-50541076D01*
X57696100Y-51058924D01*
X57797127Y-51566822D01*
X57995299Y-52045251D01*
X58283000Y-52475826D01*
X58638881Y-52831707D01*
X58173115Y-52831707D01*
X58135792Y-52828031D01*
X58098469Y-52831707D01*
X58098460Y-52831707D01*
X57986807Y-52842704D01*
X57843546Y-52886161D01*
X57711516Y-52956733D01*
X57695453Y-52969916D01*
X57595792Y-53051706D01*
X57571993Y-53080705D01*
X57337699Y-53314999D01*
X53362323Y-53314999D01*
X53325000Y-53311323D01*
X53287677Y-53314999D01*
X53287668Y-53314999D01*
X53176015Y-53325996D01*
X53032754Y-53369453D01*
X52900724Y-53440025D01*
X52826295Y-53501108D01*
X52785000Y-53534998D01*
X52761202Y-53563996D01*
X52060199Y-54265000D01*
X51998061Y-54265000D01*
X51798102Y-54304774D01*
X51609744Y-54382795D01*
X51440226Y-54496063D01*
X51296063Y-54640226D01*
X51182795Y-54809744D01*
X51104774Y-54998102D01*
X51065000Y-55198061D01*
X50660000Y-55198061D01*
X50660000Y-50643891D01*
X53240000Y-50643891D01*
X53240000Y-50956109D01*
X53300911Y-51262327D01*
X53420391Y-51550779D01*
X53593850Y-51810379D01*
X53814621Y-52031150D01*
X54074221Y-52204609D01*
X54362673Y-52324089D01*
X54668891Y-52385000D01*
X54981109Y-52385000D01*
X55287327Y-52324089D01*
X55379524Y-52285900D01*
X55391348Y-52285900D01*
X55678421Y-52228798D01*
X55948838Y-52116788D01*
X56192206Y-51954174D01*
X56399174Y-51747206D01*
X56561788Y-51503838D01*
X56673798Y-51233421D01*
X56730900Y-50946348D01*
X56730900Y-50653652D01*
X56673798Y-50366579D01*
X56561788Y-50096162D01*
X56522925Y-50038000D01*
X56690118Y-50038000D01*
X57033623Y-49969672D01*
X57357199Y-49835643D01*
X57648409Y-49641063D01*
X57896063Y-49393409D01*
X58090643Y-49102199D01*
X58224672Y-48778623D01*
X58271690Y-48542251D01*
X58491395Y-48475604D01*
X58801491Y-48309854D01*
X59073292Y-48086792D01*
X59296354Y-47814991D01*
X59462104Y-47504895D01*
X59564172Y-47168421D01*
X59590000Y-46906183D01*
X59590000Y-46635863D01*
X59775166Y-46712561D01*
X60139344Y-46785000D01*
X60510656Y-46785000D01*
X60874834Y-46712561D01*
X61060000Y-46635863D01*
X61060000Y-46906183D01*
X61085828Y-47168421D01*
X61187896Y-47504895D01*
X61353647Y-47814991D01*
X61576709Y-48086792D01*
X61848510Y-48309854D01*
X62158606Y-48475604D01*
X62378310Y-48542250D01*
X62425328Y-48778623D01*
X62559357Y-49102199D01*
X62753937Y-49393409D01*
X63001591Y-49641063D01*
X63292801Y-49835643D01*
X63616377Y-49969672D01*
X63959882Y-50038000D01*
X64127075Y-50038000D01*
X64088212Y-50096162D01*
X63976202Y-50366579D01*
X63919100Y-50653652D01*
X63919100Y-50946348D01*
X63976202Y-51233421D01*
X64088212Y-51503838D01*
X64250826Y-51747206D01*
X64457794Y-51954174D01*
X64701162Y-52116788D01*
X64971579Y-52228798D01*
X65258652Y-52285900D01*
X65270476Y-52285900D01*
X65362673Y-52324089D01*
X65668891Y-52385000D01*
X65981109Y-52385000D01*
X66287327Y-52324089D01*
X66575779Y-52204609D01*
X66835379Y-52031150D01*
X67056150Y-51810379D01*
X67229609Y-51550779D01*
X67349089Y-51262327D01*
X67410000Y-50956109D01*
X67410000Y-50643891D01*
X73083750Y-50643891D01*
X73083750Y-50956109D01*
X73144661Y-51262327D01*
X73264141Y-51550779D01*
X73437600Y-51810379D01*
X73658371Y-52031150D01*
X73917971Y-52204609D01*
X74206423Y-52324089D01*
X74512641Y-52385000D01*
X74824859Y-52385000D01*
X75131077Y-52324089D01*
X75223274Y-52285900D01*
X75235098Y-52285900D01*
X75522171Y-52228798D01*
X75792588Y-52116788D01*
X76035956Y-51954174D01*
X76242924Y-51747206D01*
X76405538Y-51503838D01*
X76517548Y-51233421D01*
X76574650Y-50946348D01*
X76574650Y-50653652D01*
X76517548Y-50366579D01*
X76405538Y-50096162D01*
X76366675Y-50038000D01*
X76533868Y-50038000D01*
X76877373Y-49969672D01*
X77200949Y-49835643D01*
X77492159Y-49641063D01*
X77739813Y-49393409D01*
X77934393Y-49102199D01*
X78068422Y-48778623D01*
X78115440Y-48542251D01*
X78335145Y-48475604D01*
X78645241Y-48309854D01*
X78917042Y-48086792D01*
X79140104Y-47814991D01*
X79305854Y-47504895D01*
X79407922Y-47168421D01*
X79433750Y-46906183D01*
X79433750Y-46635863D01*
X79618916Y-46712561D01*
X79983094Y-46785000D01*
X80354406Y-46785000D01*
X80718584Y-46712561D01*
X80903750Y-46635863D01*
X80903750Y-46906183D01*
X80929578Y-47168421D01*
X81031646Y-47504895D01*
X81197397Y-47814991D01*
X81420459Y-48086792D01*
X81692260Y-48309854D01*
X82002356Y-48475604D01*
X82222060Y-48542250D01*
X82269078Y-48778623D01*
X82403107Y-49102199D01*
X82597687Y-49393409D01*
X82845341Y-49641063D01*
X83136551Y-49835643D01*
X83460127Y-49969672D01*
X83803632Y-50038000D01*
X83970825Y-50038000D01*
X83931962Y-50096162D01*
X83819952Y-50366579D01*
X83762850Y-50653652D01*
X83762850Y-50946348D01*
X83819952Y-51233421D01*
X83931962Y-51503838D01*
X84094576Y-51747206D01*
X84301544Y-51954174D01*
X84544912Y-52116788D01*
X84815329Y-52228798D01*
X85102402Y-52285900D01*
X85114226Y-52285900D01*
X85206423Y-52324089D01*
X85512641Y-52385000D01*
X85824859Y-52385000D01*
X86131077Y-52324089D01*
X86419529Y-52204609D01*
X86679129Y-52031150D01*
X86899900Y-51810379D01*
X87073359Y-51550779D01*
X87192839Y-51262327D01*
X87253750Y-50956109D01*
X87253750Y-50643891D01*
X87192839Y-50337673D01*
X87073359Y-50049221D01*
X86899900Y-49789621D01*
X86679129Y-49568850D01*
X86419529Y-49395391D01*
X86131077Y-49275911D01*
X85824859Y-49215000D01*
X85512641Y-49215000D01*
X85473869Y-49222712D01*
X85554393Y-49102199D01*
X85688422Y-48778623D01*
X85713552Y-48652286D01*
X85990581Y-48537537D01*
X86274748Y-48347663D01*
X86516413Y-48105998D01*
X86706287Y-47821831D01*
X86837075Y-47506081D01*
X86903750Y-47170883D01*
X86903750Y-46829117D01*
X86837075Y-46493919D01*
X86706287Y-46178169D01*
X86516413Y-45894002D01*
X86274748Y-45652337D01*
X85990581Y-45462463D01*
X85674831Y-45331675D01*
X85339633Y-45265000D01*
X84997867Y-45265000D01*
X84662669Y-45331675D01*
X84444970Y-45421849D01*
X84345854Y-45095105D01*
X84180104Y-44785009D01*
X83957042Y-44513208D01*
X83685240Y-44290146D01*
X83375144Y-44124396D01*
X83038670Y-44022328D01*
X82688750Y-43987864D01*
X82338829Y-44022328D01*
X82002355Y-44124396D01*
X81908560Y-44174530D01*
X81839216Y-44007118D01*
X81632925Y-43698382D01*
X81370368Y-43435825D01*
X81061632Y-43229534D01*
X80718584Y-43087439D01*
X80354406Y-43015000D01*
X79983094Y-43015000D01*
X79618916Y-43087439D01*
X79275868Y-43229534D01*
X78967132Y-43435825D01*
X78704575Y-43698382D01*
X78498284Y-44007118D01*
X78428939Y-44174531D01*
X78335144Y-44124396D01*
X77998670Y-44022328D01*
X77648750Y-43987864D01*
X77298829Y-44022328D01*
X76962355Y-44124396D01*
X76652259Y-44290146D01*
X76380458Y-44513208D01*
X76157396Y-44785010D01*
X75991646Y-45095106D01*
X75889578Y-45431580D01*
X75886892Y-45458855D01*
X75579851Y-45331675D01*
X75244653Y-45265000D01*
X74902887Y-45265000D01*
X74567689Y-45331675D01*
X74251939Y-45462463D01*
X73967772Y-45652337D01*
X73726107Y-45894002D01*
X73536233Y-46178169D01*
X73405445Y-46493919D01*
X73338770Y-46829117D01*
X73338770Y-47170883D01*
X73405445Y-47506081D01*
X73536233Y-47821831D01*
X73726107Y-48105998D01*
X73967772Y-48347663D01*
X74251939Y-48537537D01*
X74567689Y-48668325D01*
X74629587Y-48680637D01*
X74649078Y-48778623D01*
X74783107Y-49102199D01*
X74863631Y-49222712D01*
X74824859Y-49215000D01*
X74512641Y-49215000D01*
X74206423Y-49275911D01*
X73917971Y-49395391D01*
X73658371Y-49568850D01*
X73437600Y-49789621D01*
X73264141Y-50049221D01*
X73144661Y-50337673D01*
X73083750Y-50643891D01*
X67410000Y-50643891D01*
X67349089Y-50337673D01*
X67229609Y-50049221D01*
X67056150Y-49789621D01*
X66835379Y-49568850D01*
X66575779Y-49395391D01*
X66287327Y-49275911D01*
X65981109Y-49215000D01*
X65668891Y-49215000D01*
X65630119Y-49222712D01*
X65710643Y-49102199D01*
X65844672Y-48778623D01*
X65869802Y-48652286D01*
X66146831Y-48537537D01*
X66430998Y-48347663D01*
X66672663Y-48105998D01*
X66862537Y-47821831D01*
X66993325Y-47506081D01*
X67060000Y-47170883D01*
X67060000Y-46829117D01*
X66993325Y-46493919D01*
X66862537Y-46178169D01*
X66672663Y-45894002D01*
X66430998Y-45652337D01*
X66146831Y-45462463D01*
X65831081Y-45331675D01*
X65495883Y-45265000D01*
X65154117Y-45265000D01*
X64818919Y-45331675D01*
X64601220Y-45421849D01*
X64502104Y-45095105D01*
X64336354Y-44785009D01*
X64113292Y-44513208D01*
X63841490Y-44290146D01*
X63531394Y-44124396D01*
X63194920Y-44022328D01*
X62845000Y-43987864D01*
X62495079Y-44022328D01*
X62158605Y-44124396D01*
X62064810Y-44174530D01*
X61995466Y-44007118D01*
X61789175Y-43698382D01*
X61526618Y-43435825D01*
X61217882Y-43229534D01*
X60874834Y-43087439D01*
X60510656Y-43015000D01*
X60139344Y-43015000D01*
X59775166Y-43087439D01*
X59432118Y-43229534D01*
X59123382Y-43435825D01*
X58860825Y-43698382D01*
X58654534Y-44007118D01*
X58585189Y-44174531D01*
X58491394Y-44124396D01*
X58154920Y-44022328D01*
X57805000Y-43987864D01*
X57455079Y-44022328D01*
X57118605Y-44124396D01*
X56808509Y-44290146D01*
X56536708Y-44513208D01*
X56313646Y-44785010D01*
X56147896Y-45095106D01*
X56045828Y-45431580D01*
X56043142Y-45458855D01*
X55736101Y-45331675D01*
X55400903Y-45265000D01*
X55059137Y-45265000D01*
X54723939Y-45331675D01*
X54408189Y-45462463D01*
X54124022Y-45652337D01*
X53882357Y-45894002D01*
X53692483Y-46178169D01*
X53561695Y-46493919D01*
X53495020Y-46829117D01*
X53495020Y-47170883D01*
X53561695Y-47506081D01*
X53692483Y-47821831D01*
X53882357Y-48105998D01*
X54124022Y-48347663D01*
X54408189Y-48537537D01*
X54723939Y-48668325D01*
X54785837Y-48680637D01*
X54805328Y-48778623D01*
X54939357Y-49102199D01*
X55019881Y-49222712D01*
X54981109Y-49215000D01*
X54668891Y-49215000D01*
X54362673Y-49275911D01*
X54074221Y-49395391D01*
X53814621Y-49568850D01*
X53593850Y-49789621D01*
X53420391Y-50049221D01*
X53300911Y-50337673D01*
X53240000Y-50643891D01*
X50660000Y-50643891D01*
X50660000Y-35498061D01*
X56865000Y-35498061D01*
X56865000Y-35701939D01*
X56904774Y-35901898D01*
X56982795Y-36090256D01*
X57096063Y-36259774D01*
X57240226Y-36403937D01*
X57409744Y-36517205D01*
X57598102Y-36595226D01*
X57798061Y-36635000D01*
X58001939Y-36635000D01*
X58201898Y-36595226D01*
X58390256Y-36517205D01*
X58559774Y-36403937D01*
X58603711Y-36360000D01*
X72096289Y-36360000D01*
X72140226Y-36403937D01*
X72309744Y-36517205D01*
X72498102Y-36595226D01*
X72698061Y-36635000D01*
X72901939Y-36635000D01*
X73101898Y-36595226D01*
X73290256Y-36517205D01*
X73459774Y-36403937D01*
X73603711Y-36260000D01*
X87296289Y-36260000D01*
X87340226Y-36303937D01*
X87509744Y-36417205D01*
X87698102Y-36495226D01*
X87898061Y-36535000D01*
X88101939Y-36535000D01*
X88301898Y-36495226D01*
X88490256Y-36417205D01*
X88659774Y-36303937D01*
X88803937Y-36159774D01*
X88917205Y-35990256D01*
X88995226Y-35801898D01*
X89035000Y-35601939D01*
X89035000Y-35398061D01*
X88995226Y-35198102D01*
X88932638Y-35047000D01*
X118115000Y-35047000D01*
X118115000Y-35797000D01*
X118160624Y-36006233D01*
X118246191Y-36202545D01*
X118368413Y-36378391D01*
X118522592Y-36527014D01*
X118702803Y-36642702D01*
X118905999Y-36714408D01*
X119073000Y-36587502D01*
X119073000Y-35047000D01*
X118115000Y-35047000D01*
X88932638Y-35047000D01*
X88917205Y-35009744D01*
X88803937Y-34840226D01*
X88659774Y-34696063D01*
X88490256Y-34582795D01*
X88301898Y-34504774D01*
X88101939Y-34465000D01*
X87898061Y-34465000D01*
X87698102Y-34504774D01*
X87509744Y-34582795D01*
X87340226Y-34696063D01*
X87296289Y-34740000D01*
X73375870Y-34740000D01*
X73290256Y-34682795D01*
X73101898Y-34604774D01*
X72901939Y-34565000D01*
X72698061Y-34565000D01*
X72498102Y-34604774D01*
X72309744Y-34682795D01*
X72140226Y-34796063D01*
X72096289Y-34840000D01*
X58603711Y-34840000D01*
X58559774Y-34796063D01*
X58390256Y-34682795D01*
X58201898Y-34604774D01*
X58001939Y-34565000D01*
X57798061Y-34565000D01*
X57598102Y-34604774D01*
X57409744Y-34682795D01*
X57240226Y-34796063D01*
X57096063Y-34940226D01*
X56982795Y-35109744D01*
X56904774Y-35298102D01*
X56865000Y-35498061D01*
X50660000Y-35498061D01*
X50660000Y-34043000D01*
X118115000Y-34043000D01*
X118115000Y-34793000D01*
X119073000Y-34793000D01*
X119073000Y-33252498D01*
X119327000Y-33252498D01*
X119327000Y-34793000D01*
X119593537Y-34793000D01*
X119600368Y-34828989D01*
X119673043Y-35008893D01*
X119681233Y-35024216D01*
X119879480Y-35040912D01*
X119873392Y-35047000D01*
X119327000Y-35047000D01*
X119327000Y-36587502D01*
X119494001Y-36714408D01*
X119697197Y-36642702D01*
X119877408Y-36527014D01*
X120031587Y-36378391D01*
X120153809Y-36202545D01*
X120220225Y-36050170D01*
X120370395Y-35900000D01*
X120356253Y-35885858D01*
X120415000Y-35827110D01*
X120415000Y-35997014D01*
X120451101Y-36178504D01*
X120059088Y-36570517D01*
X120075784Y-36768767D01*
X120254384Y-36844589D01*
X120444344Y-36884110D01*
X120638364Y-36885813D01*
X120828989Y-36849632D01*
X120975651Y-36790385D01*
X121112686Y-36847147D01*
X121302986Y-36885000D01*
X121497014Y-36885000D01*
X121687314Y-36847147D01*
X121825000Y-36790116D01*
X121962686Y-36847147D01*
X122152986Y-36885000D01*
X122347014Y-36885000D01*
X122537314Y-36847147D01*
X122675000Y-36790116D01*
X122812686Y-36847147D01*
X123002986Y-36885000D01*
X123140000Y-36885000D01*
X123140001Y-41585197D01*
X122441408Y-42283791D01*
X122290256Y-42182795D01*
X122101898Y-42104774D01*
X121901939Y-42065000D01*
X121698061Y-42065000D01*
X121498102Y-42104774D01*
X121309744Y-42182795D01*
X121140226Y-42296063D01*
X120996063Y-42440226D01*
X120882795Y-42609744D01*
X120804774Y-42798102D01*
X120765000Y-42998061D01*
X120765000Y-43201939D01*
X120804774Y-43401898D01*
X120882795Y-43590256D01*
X120996063Y-43759774D01*
X121140226Y-43903937D01*
X121309744Y-44017205D01*
X121498102Y-44095226D01*
X121698061Y-44135000D01*
X121901939Y-44135000D01*
X122101898Y-44095226D01*
X122290256Y-44017205D01*
X122459774Y-43903937D01*
X122503711Y-43860000D01*
X122662678Y-43860000D01*
X122700000Y-43863676D01*
X122737322Y-43860000D01*
X122737333Y-43860000D01*
X122848986Y-43849003D01*
X122992247Y-43805546D01*
X123124276Y-43734974D01*
X123240001Y-43640001D01*
X123263804Y-43610997D01*
X124411003Y-42463799D01*
X124440001Y-42440001D01*
X124534974Y-42324276D01*
X124605546Y-42192247D01*
X124649003Y-42048986D01*
X124660000Y-41937333D01*
X124660000Y-41937324D01*
X124663676Y-41900001D01*
X124660000Y-41862678D01*
X124660000Y-37329775D01*
X126141227Y-38811003D01*
X126165025Y-38840001D01*
X126194023Y-38863799D01*
X126280750Y-38934974D01*
X126412779Y-39005546D01*
X126556040Y-39049003D01*
X126705026Y-39063677D01*
X126742359Y-39060000D01*
X131396289Y-39060000D01*
X131440226Y-39103937D01*
X131609744Y-39217205D01*
X131798102Y-39295226D01*
X131998061Y-39335000D01*
X132201939Y-39335000D01*
X132401898Y-39295226D01*
X132590256Y-39217205D01*
X132759774Y-39103937D01*
X132903937Y-38959774D01*
X133017205Y-38790256D01*
X133095226Y-38601898D01*
X133135000Y-38401939D01*
X133135000Y-38198061D01*
X133095226Y-37998102D01*
X133017205Y-37809744D01*
X132903937Y-37640226D01*
X132759774Y-37496063D01*
X132590256Y-37382795D01*
X132401898Y-37304774D01*
X132201939Y-37265000D01*
X131998061Y-37265000D01*
X131798102Y-37304774D01*
X131609744Y-37382795D01*
X131440226Y-37496063D01*
X131396289Y-37540000D01*
X127019828Y-37540000D01*
X126355950Y-36876122D01*
X126394344Y-36884110D01*
X126588364Y-36885813D01*
X126778989Y-36849632D01*
X126958893Y-36776957D01*
X126974216Y-36768767D01*
X126990912Y-36570517D01*
X126598899Y-36178504D01*
X126635000Y-35997014D01*
X126635000Y-35827110D01*
X126693748Y-35885858D01*
X126679605Y-35900000D01*
X126829775Y-36050170D01*
X126896191Y-36202545D01*
X127018413Y-36378391D01*
X127172592Y-36527014D01*
X127352803Y-36642702D01*
X127555999Y-36714408D01*
X127723000Y-36587502D01*
X127723000Y-35047000D01*
X127977000Y-35047000D01*
X127977000Y-36587502D01*
X128144001Y-36714408D01*
X128347197Y-36642702D01*
X128527408Y-36527014D01*
X128681587Y-36378391D01*
X128803809Y-36202545D01*
X128889376Y-36006233D01*
X128935000Y-35797000D01*
X128935000Y-35047000D01*
X127977000Y-35047000D01*
X127723000Y-35047000D01*
X127176608Y-35047000D01*
X127170520Y-35040912D01*
X127368767Y-35024216D01*
X127444589Y-34845616D01*
X127455536Y-34793000D01*
X127723000Y-34793000D01*
X127723000Y-34773000D01*
X127977000Y-34773000D01*
X127977000Y-34793000D01*
X128935000Y-34793000D01*
X128935000Y-34043000D01*
X128889376Y-33833767D01*
X128857223Y-33760000D01*
X130885199Y-33760000D01*
X131265000Y-34139802D01*
X131265000Y-34201939D01*
X131304774Y-34401898D01*
X131382795Y-34590256D01*
X131496063Y-34759774D01*
X131640226Y-34903937D01*
X131809744Y-35017205D01*
X131998102Y-35095226D01*
X132198061Y-35135000D01*
X132401939Y-35135000D01*
X132601898Y-35095226D01*
X132790256Y-35017205D01*
X132959774Y-34903937D01*
X133103937Y-34759774D01*
X133217205Y-34590256D01*
X133295226Y-34401898D01*
X133335000Y-34201939D01*
X133335000Y-33998061D01*
X133295226Y-33798102D01*
X133217205Y-33609744D01*
X133103937Y-33440226D01*
X132959774Y-33296063D01*
X132790256Y-33182795D01*
X132601898Y-33104774D01*
X132401939Y-33065000D01*
X132339802Y-33065000D01*
X131763804Y-32489002D01*
X131740001Y-32459999D01*
X131624276Y-32365026D01*
X131492247Y-32294454D01*
X131348986Y-32250997D01*
X131237333Y-32240000D01*
X131237322Y-32240000D01*
X131200000Y-32236324D01*
X131162678Y-32240000D01*
X128897277Y-32240000D01*
X128935000Y-32067000D01*
X128935000Y-31667000D01*
X127977000Y-31667000D01*
X127977000Y-31687000D01*
X127723000Y-31687000D01*
X127723000Y-31667000D01*
X126765000Y-31667000D01*
X126765000Y-32067000D01*
X126802723Y-32240000D01*
X123338322Y-32240000D01*
X123300999Y-32236324D01*
X123263676Y-32240000D01*
X123263667Y-32240000D01*
X123152014Y-32250997D01*
X123008753Y-32294454D01*
X122876724Y-32365026D01*
X122876722Y-32365027D01*
X122876723Y-32365027D01*
X122789996Y-32436201D01*
X122789992Y-32436205D01*
X122760999Y-32459999D01*
X122737205Y-32488992D01*
X121739002Y-33487197D01*
X121709999Y-33510999D01*
X121666349Y-33564187D01*
X121642012Y-33593842D01*
X121497014Y-33565000D01*
X121302986Y-33565000D01*
X121112686Y-33602853D01*
X120974458Y-33660109D01*
X120845616Y-33605411D01*
X120655656Y-33565890D01*
X120461636Y-33564187D01*
X120271011Y-33600368D01*
X120157611Y-33646178D01*
X120153809Y-33637455D01*
X120031587Y-33461609D01*
X119877408Y-33312986D01*
X119697197Y-33197298D01*
X119494001Y-33125592D01*
X119327000Y-33252498D01*
X119073000Y-33252498D01*
X118905999Y-33125592D01*
X118702803Y-33197298D01*
X118522592Y-33312986D01*
X118368413Y-33461609D01*
X118246191Y-33637455D01*
X118160624Y-33833767D01*
X118115000Y-34043000D01*
X50660000Y-34043000D01*
X50660000Y-32032279D01*
X50688625Y-31740341D01*
X50710767Y-31667000D01*
X118115000Y-31667000D01*
X118115000Y-32067000D01*
X118160624Y-32276233D01*
X118246191Y-32472545D01*
X118368413Y-32648391D01*
X118522592Y-32797014D01*
X118702803Y-32912702D01*
X118905999Y-32984408D01*
X119073000Y-32857502D01*
X119073000Y-31667000D01*
X119327000Y-31667000D01*
X119327000Y-32857502D01*
X119494001Y-32984408D01*
X119697197Y-32912702D01*
X119877408Y-32797014D01*
X120031587Y-32648391D01*
X120153809Y-32472545D01*
X120239376Y-32276233D01*
X120285000Y-32067000D01*
X120285000Y-31667000D01*
X119327000Y-31667000D01*
X119073000Y-31667000D01*
X118115000Y-31667000D01*
X50710767Y-31667000D01*
X50764035Y-31490571D01*
X50886522Y-31260208D01*
X51051422Y-31058020D01*
X51252450Y-30891714D01*
X51481954Y-30767622D01*
X51731195Y-30690469D01*
X52021088Y-30660000D01*
X118223288Y-30660000D01*
X118160624Y-30803767D01*
G36*
X93698057Y-54415008D02*
G01*
X93604960Y-54639764D01*
X93557500Y-54878363D01*
X93557500Y-55121637D01*
X93604960Y-55360236D01*
X93698057Y-55584992D01*
X93833213Y-55787267D01*
X94005233Y-55959287D01*
X94207508Y-56094443D01*
X94432264Y-56187540D01*
X94670863Y-56235000D01*
X94914137Y-56235000D01*
X95152736Y-56187540D01*
X95377492Y-56094443D01*
X95579767Y-55959287D01*
X95734028Y-55805026D01*
X95724428Y-55902500D01*
X95724428Y-56722500D01*
X95736688Y-56846982D01*
X95772998Y-56966680D01*
X95831963Y-57076994D01*
X95911315Y-57173685D01*
X96008006Y-57253037D01*
X96118320Y-57312002D01*
X96238018Y-57348312D01*
X96362500Y-57360572D01*
X97651158Y-57360572D01*
X97666121Y-57388246D01*
X97699582Y-57437855D01*
X97732335Y-57487906D01*
X97738160Y-57495047D01*
X97763041Y-57525122D01*
X97805480Y-57567265D01*
X97847338Y-57610008D01*
X97854439Y-57615881D01*
X97854442Y-57615884D01*
X97854446Y-57615886D01*
X97884687Y-57640551D01*
X97934475Y-57673629D01*
X97983862Y-57707446D01*
X97991969Y-57711828D01*
X98026433Y-57730153D01*
X98081715Y-57752939D01*
X98136718Y-57776514D01*
X98145521Y-57779239D01*
X98182888Y-57790521D01*
X98241566Y-57802139D01*
X98261326Y-57806340D01*
X98283117Y-57812950D01*
X98306612Y-57815264D01*
X98309248Y-57815541D01*
X98348095Y-57819350D01*
X98348098Y-57819350D01*
X98380081Y-57822500D01*
X101644919Y-57822500D01*
X101672623Y-57819771D01*
X101673711Y-57819779D01*
X101682882Y-57818880D01*
X101700889Y-57816988D01*
X101741883Y-57812950D01*
X101765256Y-57805860D01*
X101780279Y-57802776D01*
X101839058Y-57791564D01*
X101847879Y-57788900D01*
X101885167Y-57777358D01*
X101940310Y-57754178D01*
X101995773Y-57731770D01*
X102003910Y-57727444D01*
X102038246Y-57708879D01*
X102087855Y-57675418D01*
X102137906Y-57642665D01*
X102145047Y-57636840D01*
X102175122Y-57611959D01*
X102217265Y-57569520D01*
X102260008Y-57527662D01*
X102265881Y-57520561D01*
X102265884Y-57520558D01*
X102265886Y-57520554D01*
X102290551Y-57490313D01*
X102323629Y-57440525D01*
X102357446Y-57391138D01*
X102361828Y-57383031D01*
X102375133Y-57358008D01*
X102476750Y-57357500D01*
X102635498Y-57198752D01*
X102635498Y-57357500D01*
X102667698Y-57357500D01*
X102010199Y-58015000D01*
X75903711Y-58015000D01*
X75859774Y-57971063D01*
X75690256Y-57857795D01*
X75505473Y-57781255D01*
X75690256Y-57704715D01*
X75859774Y-57591447D01*
X76003937Y-57447284D01*
X76117205Y-57277766D01*
X76136786Y-57230493D01*
X76164256Y-57253037D01*
X76274570Y-57312002D01*
X76394268Y-57348312D01*
X76518750Y-57360572D01*
X77807408Y-57360572D01*
X77822371Y-57388246D01*
X77855832Y-57437855D01*
X77888585Y-57487906D01*
X77894410Y-57495047D01*
X77919291Y-57525122D01*
X77961730Y-57567265D01*
X78003588Y-57610008D01*
X78010689Y-57615881D01*
X78010692Y-57615884D01*
X78010696Y-57615886D01*
X78040937Y-57640551D01*
X78090725Y-57673629D01*
X78140112Y-57707446D01*
X78148219Y-57711828D01*
X78182683Y-57730153D01*
X78237965Y-57752939D01*
X78292968Y-57776514D01*
X78301771Y-57779239D01*
X78339138Y-57790521D01*
X78397816Y-57802139D01*
X78417576Y-57806340D01*
X78439367Y-57812950D01*
X78462862Y-57815264D01*
X78465498Y-57815541D01*
X78504345Y-57819350D01*
X78504348Y-57819350D01*
X78536331Y-57822500D01*
X81801169Y-57822500D01*
X81828873Y-57819771D01*
X81829961Y-57819779D01*
X81839132Y-57818880D01*
X81857139Y-57816988D01*
X81898133Y-57812950D01*
X81921506Y-57805860D01*
X81936529Y-57802776D01*
X81995308Y-57791564D01*
X82004129Y-57788900D01*
X82041417Y-57777358D01*
X82096560Y-57754178D01*
X82152023Y-57731770D01*
X82160160Y-57727444D01*
X82194496Y-57708879D01*
X82244105Y-57675418D01*
X82294156Y-57642665D01*
X82301297Y-57636840D01*
X82331372Y-57611959D01*
X82373515Y-57569520D01*
X82416258Y-57527662D01*
X82422131Y-57520561D01*
X82422134Y-57520558D01*
X82422136Y-57520554D01*
X82446801Y-57490313D01*
X82479879Y-57440525D01*
X82513696Y-57391138D01*
X82518078Y-57383031D01*
X82531383Y-57358008D01*
X82633000Y-57357500D01*
X82791750Y-57198750D01*
X82791750Y-56439500D01*
X82771750Y-56439500D01*
X82771750Y-56185500D01*
X82791750Y-56185500D01*
X82791750Y-56165500D01*
X83045750Y-56165500D01*
X83045750Y-56185500D01*
X83065750Y-56185500D01*
X83065750Y-56439500D01*
X83045750Y-56439500D01*
X83045750Y-57198750D01*
X83204500Y-57357500D01*
X83818750Y-57360572D01*
X83943232Y-57348312D01*
X84062930Y-57312002D01*
X84173244Y-57253037D01*
X84269935Y-57173685D01*
X84349287Y-57076994D01*
X84408252Y-56966680D01*
X84426843Y-56905395D01*
X84819961Y-57298513D01*
X84843759Y-57327511D01*
X84872757Y-57351309D01*
X84959483Y-57422484D01*
X85081878Y-57487906D01*
X85091513Y-57493056D01*
X85234774Y-57536513D01*
X85346427Y-57547510D01*
X85346437Y-57547510D01*
X85383760Y-57551186D01*
X85421083Y-57547510D01*
X85996289Y-57547510D01*
X86040226Y-57591447D01*
X86209744Y-57704715D01*
X86398102Y-57782736D01*
X86598061Y-57822510D01*
X86801939Y-57822510D01*
X87001898Y-57782736D01*
X87190256Y-57704715D01*
X87359774Y-57591447D01*
X87503937Y-57447284D01*
X87617205Y-57277766D01*
X87695226Y-57089408D01*
X87735000Y-56889449D01*
X87735000Y-56685571D01*
X87695226Y-56485612D01*
X87617205Y-56297254D01*
X87503937Y-56127736D01*
X87359774Y-55983573D01*
X87190256Y-55870305D01*
X87001898Y-55792284D01*
X86801939Y-55752510D01*
X86598061Y-55752510D01*
X86398102Y-55792284D01*
X86209744Y-55870305D01*
X86090027Y-55950297D01*
X86253057Y-55787267D01*
X86388213Y-55584992D01*
X86481310Y-55360236D01*
X86528770Y-55121637D01*
X86528770Y-54878363D01*
X86481310Y-54639764D01*
X86388213Y-54415008D01*
X86354062Y-54363897D01*
X93732208Y-54363897D01*
X93698057Y-54415008D01*
G37*
X93698057Y-54415008D02*
X93604960Y-54639764D01*
X93557500Y-54878363D01*
X93557500Y-55121637D01*
X93604960Y-55360236D01*
X93698057Y-55584992D01*
X93833213Y-55787267D01*
X94005233Y-55959287D01*
X94207508Y-56094443D01*
X94432264Y-56187540D01*
X94670863Y-56235000D01*
X94914137Y-56235000D01*
X95152736Y-56187540D01*
X95377492Y-56094443D01*
X95579767Y-55959287D01*
X95734028Y-55805026D01*
X95724428Y-55902500D01*
X95724428Y-56722500D01*
X95736688Y-56846982D01*
X95772998Y-56966680D01*
X95831963Y-57076994D01*
X95911315Y-57173685D01*
X96008006Y-57253037D01*
X96118320Y-57312002D01*
X96238018Y-57348312D01*
X96362500Y-57360572D01*
X97651158Y-57360572D01*
X97666121Y-57388246D01*
X97699582Y-57437855D01*
X97732335Y-57487906D01*
X97738160Y-57495047D01*
X97763041Y-57525122D01*
X97805480Y-57567265D01*
X97847338Y-57610008D01*
X97854439Y-57615881D01*
X97854442Y-57615884D01*
X97854446Y-57615886D01*
X97884687Y-57640551D01*
X97934475Y-57673629D01*
X97983862Y-57707446D01*
X97991969Y-57711828D01*
X98026433Y-57730153D01*
X98081715Y-57752939D01*
X98136718Y-57776514D01*
X98145521Y-57779239D01*
X98182888Y-57790521D01*
X98241566Y-57802139D01*
X98261326Y-57806340D01*
X98283117Y-57812950D01*
X98306612Y-57815264D01*
X98309248Y-57815541D01*
X98348095Y-57819350D01*
X98348098Y-57819350D01*
X98380081Y-57822500D01*
X101644919Y-57822500D01*
X101672623Y-57819771D01*
X101673711Y-57819779D01*
X101682882Y-57818880D01*
X101700889Y-57816988D01*
X101741883Y-57812950D01*
X101765256Y-57805860D01*
X101780279Y-57802776D01*
X101839058Y-57791564D01*
X101847879Y-57788900D01*
X101885167Y-57777358D01*
X101940310Y-57754178D01*
X101995773Y-57731770D01*
X102003910Y-57727444D01*
X102038246Y-57708879D01*
X102087855Y-57675418D01*
X102137906Y-57642665D01*
X102145047Y-57636840D01*
X102175122Y-57611959D01*
X102217265Y-57569520D01*
X102260008Y-57527662D01*
X102265881Y-57520561D01*
X102265884Y-57520558D01*
X102265886Y-57520554D01*
X102290551Y-57490313D01*
X102323629Y-57440525D01*
X102357446Y-57391138D01*
X102361828Y-57383031D01*
X102375133Y-57358008D01*
X102476750Y-57357500D01*
X102635498Y-57198752D01*
X102635498Y-57357500D01*
X102667698Y-57357500D01*
X102010199Y-58015000D01*
X75903711Y-58015000D01*
X75859774Y-57971063D01*
X75690256Y-57857795D01*
X75505473Y-57781255D01*
X75690256Y-57704715D01*
X75859774Y-57591447D01*
X76003937Y-57447284D01*
X76117205Y-57277766D01*
X76136786Y-57230493D01*
X76164256Y-57253037D01*
X76274570Y-57312002D01*
X76394268Y-57348312D01*
X76518750Y-57360572D01*
X77807408Y-57360572D01*
X77822371Y-57388246D01*
X77855832Y-57437855D01*
X77888585Y-57487906D01*
X77894410Y-57495047D01*
X77919291Y-57525122D01*
X77961730Y-57567265D01*
X78003588Y-57610008D01*
X78010689Y-57615881D01*
X78010692Y-57615884D01*
X78010696Y-57615886D01*
X78040937Y-57640551D01*
X78090725Y-57673629D01*
X78140112Y-57707446D01*
X78148219Y-57711828D01*
X78182683Y-57730153D01*
X78237965Y-57752939D01*
X78292968Y-57776514D01*
X78301771Y-57779239D01*
X78339138Y-57790521D01*
X78397816Y-57802139D01*
X78417576Y-57806340D01*
X78439367Y-57812950D01*
X78462862Y-57815264D01*
X78465498Y-57815541D01*
X78504345Y-57819350D01*
X78504348Y-57819350D01*
X78536331Y-57822500D01*
X81801169Y-57822500D01*
X81828873Y-57819771D01*
X81829961Y-57819779D01*
X81839132Y-57818880D01*
X81857139Y-57816988D01*
X81898133Y-57812950D01*
X81921506Y-57805860D01*
X81936529Y-57802776D01*
X81995308Y-57791564D01*
X82004129Y-57788900D01*
X82041417Y-57777358D01*
X82096560Y-57754178D01*
X82152023Y-57731770D01*
X82160160Y-57727444D01*
X82194496Y-57708879D01*
X82244105Y-57675418D01*
X82294156Y-57642665D01*
X82301297Y-57636840D01*
X82331372Y-57611959D01*
X82373515Y-57569520D01*
X82416258Y-57527662D01*
X82422131Y-57520561D01*
X82422134Y-57520558D01*
X82422136Y-57520554D01*
X82446801Y-57490313D01*
X82479879Y-57440525D01*
X82513696Y-57391138D01*
X82518078Y-57383031D01*
X82531383Y-57358008D01*
X82633000Y-57357500D01*
X82791750Y-57198750D01*
X82791750Y-56439500D01*
X82771750Y-56439500D01*
X82771750Y-56185500D01*
X82791750Y-56185500D01*
X82791750Y-56165500D01*
X83045750Y-56165500D01*
X83045750Y-56185500D01*
X83065750Y-56185500D01*
X83065750Y-56439500D01*
X83045750Y-56439500D01*
X83045750Y-57198750D01*
X83204500Y-57357500D01*
X83818750Y-57360572D01*
X83943232Y-57348312D01*
X84062930Y-57312002D01*
X84173244Y-57253037D01*
X84269935Y-57173685D01*
X84349287Y-57076994D01*
X84408252Y-56966680D01*
X84426843Y-56905395D01*
X84819961Y-57298513D01*
X84843759Y-57327511D01*
X84872757Y-57351309D01*
X84959483Y-57422484D01*
X85081878Y-57487906D01*
X85091513Y-57493056D01*
X85234774Y-57536513D01*
X85346427Y-57547510D01*
X85346437Y-57547510D01*
X85383760Y-57551186D01*
X85421083Y-57547510D01*
X85996289Y-57547510D01*
X86040226Y-57591447D01*
X86209744Y-57704715D01*
X86398102Y-57782736D01*
X86598061Y-57822510D01*
X86801939Y-57822510D01*
X87001898Y-57782736D01*
X87190256Y-57704715D01*
X87359774Y-57591447D01*
X87503937Y-57447284D01*
X87617205Y-57277766D01*
X87695226Y-57089408D01*
X87735000Y-56889449D01*
X87735000Y-56685571D01*
X87695226Y-56485612D01*
X87617205Y-56297254D01*
X87503937Y-56127736D01*
X87359774Y-55983573D01*
X87190256Y-55870305D01*
X87001898Y-55792284D01*
X86801939Y-55752510D01*
X86598061Y-55752510D01*
X86398102Y-55792284D01*
X86209744Y-55870305D01*
X86090027Y-55950297D01*
X86253057Y-55787267D01*
X86388213Y-55584992D01*
X86481310Y-55360236D01*
X86528770Y-55121637D01*
X86528770Y-54878363D01*
X86481310Y-54639764D01*
X86388213Y-54415008D01*
X86354062Y-54363897D01*
X93732208Y-54363897D01*
X93698057Y-54415008D01*
G36*
X102889500Y-56185500D02*
G01*
X102909500Y-56185500D01*
X102909500Y-56439500D01*
X102889500Y-56439500D01*
X102889500Y-56459500D01*
X102635500Y-56459500D01*
X102635500Y-56439500D01*
X102615500Y-56439500D01*
X102615500Y-56185500D01*
X102635500Y-56185500D01*
X102635500Y-56165500D01*
X102889500Y-56165500D01*
X102889500Y-56185500D01*
G37*
X102889500Y-56185500D02*
X102909500Y-56185500D01*
X102909500Y-56439500D01*
X102889500Y-56439500D01*
X102889500Y-56459500D01*
X102635500Y-56459500D01*
X102635500Y-56439500D01*
X102615500Y-56439500D01*
X102615500Y-56185500D01*
X102635500Y-56185500D01*
X102635500Y-56165500D01*
X102889500Y-56165500D01*
X102889500Y-56185500D01*
M02*
