G04 #@! TF.GenerationSoftware,KiCad,Pcbnew,(5.1.5)-3*
G04 #@! TF.CreationDate,2020-04-23T15:25:21-04:00*
G04 #@! TF.ProjectId,Flying_MX,466c7969-6e67-45f4-9d58-2e6b69636164,rev?*
G04 #@! TF.SameCoordinates,Original*
G04 #@! TF.FileFunction,Paste,Top*
G04 #@! TF.FilePolarity,Positive*
%FSLAX46Y46*%
G04 Gerber Fmt 4.6, Leading zero omitted, Abs format (unit mm)*
G04 Created by KiCad (PCBNEW (5.1.5)-3) date 2020-04-23 15:25:21*
%MOMM*%
%LPD*%
G04 APERTURE LIST*
%ADD10R,0.700000X1.000000*%
%ADD11R,0.700000X0.600000*%
%ADD12R,1.800000X1.100000*%
%ADD13C,0.100000*%
%ADD14R,1.500000X0.550000*%
%ADD15R,0.550000X1.500000*%
%ADD16R,1.200000X1.400000*%
G04 APERTURE END LIST*
D10*
X120500000Y-40350000D03*
D11*
X122500000Y-40150000D03*
X120500000Y-42050000D03*
X122500000Y-42050000D03*
D12*
X106500000Y-36650000D03*
X112700000Y-32950000D03*
X106500000Y-32950000D03*
X112700000Y-36650000D03*
D13*
G36*
X130849504Y-40876204D02*
G01*
X130873773Y-40879804D01*
X130897571Y-40885765D01*
X130920671Y-40894030D01*
X130942849Y-40904520D01*
X130963893Y-40917133D01*
X130983598Y-40931747D01*
X131001777Y-40948223D01*
X131018253Y-40966402D01*
X131032867Y-40986107D01*
X131045480Y-41007151D01*
X131055970Y-41029329D01*
X131064235Y-41052429D01*
X131070196Y-41076227D01*
X131073796Y-41100496D01*
X131075000Y-41125000D01*
X131075000Y-41875000D01*
X131073796Y-41899504D01*
X131070196Y-41923773D01*
X131064235Y-41947571D01*
X131055970Y-41970671D01*
X131045480Y-41992849D01*
X131032867Y-42013893D01*
X131018253Y-42033598D01*
X131001777Y-42051777D01*
X130983598Y-42068253D01*
X130963893Y-42082867D01*
X130942849Y-42095480D01*
X130920671Y-42105970D01*
X130897571Y-42114235D01*
X130873773Y-42120196D01*
X130849504Y-42123796D01*
X130825000Y-42125000D01*
X129575000Y-42125000D01*
X129550496Y-42123796D01*
X129526227Y-42120196D01*
X129502429Y-42114235D01*
X129479329Y-42105970D01*
X129457151Y-42095480D01*
X129436107Y-42082867D01*
X129416402Y-42068253D01*
X129398223Y-42051777D01*
X129381747Y-42033598D01*
X129367133Y-42013893D01*
X129354520Y-41992849D01*
X129344030Y-41970671D01*
X129335765Y-41947571D01*
X129329804Y-41923773D01*
X129326204Y-41899504D01*
X129325000Y-41875000D01*
X129325000Y-41125000D01*
X129326204Y-41100496D01*
X129329804Y-41076227D01*
X129335765Y-41052429D01*
X129344030Y-41029329D01*
X129354520Y-41007151D01*
X129367133Y-40986107D01*
X129381747Y-40966402D01*
X129398223Y-40948223D01*
X129416402Y-40931747D01*
X129436107Y-40917133D01*
X129457151Y-40904520D01*
X129479329Y-40894030D01*
X129502429Y-40885765D01*
X129526227Y-40879804D01*
X129550496Y-40876204D01*
X129575000Y-40875000D01*
X130825000Y-40875000D01*
X130849504Y-40876204D01*
G37*
G36*
X130849504Y-43676204D02*
G01*
X130873773Y-43679804D01*
X130897571Y-43685765D01*
X130920671Y-43694030D01*
X130942849Y-43704520D01*
X130963893Y-43717133D01*
X130983598Y-43731747D01*
X131001777Y-43748223D01*
X131018253Y-43766402D01*
X131032867Y-43786107D01*
X131045480Y-43807151D01*
X131055970Y-43829329D01*
X131064235Y-43852429D01*
X131070196Y-43876227D01*
X131073796Y-43900496D01*
X131075000Y-43925000D01*
X131075000Y-44675000D01*
X131073796Y-44699504D01*
X131070196Y-44723773D01*
X131064235Y-44747571D01*
X131055970Y-44770671D01*
X131045480Y-44792849D01*
X131032867Y-44813893D01*
X131018253Y-44833598D01*
X131001777Y-44851777D01*
X130983598Y-44868253D01*
X130963893Y-44882867D01*
X130942849Y-44895480D01*
X130920671Y-44905970D01*
X130897571Y-44914235D01*
X130873773Y-44920196D01*
X130849504Y-44923796D01*
X130825000Y-44925000D01*
X129575000Y-44925000D01*
X129550496Y-44923796D01*
X129526227Y-44920196D01*
X129502429Y-44914235D01*
X129479329Y-44905970D01*
X129457151Y-44895480D01*
X129436107Y-44882867D01*
X129416402Y-44868253D01*
X129398223Y-44851777D01*
X129381747Y-44833598D01*
X129367133Y-44813893D01*
X129354520Y-44792849D01*
X129344030Y-44770671D01*
X129335765Y-44747571D01*
X129329804Y-44723773D01*
X129326204Y-44699504D01*
X129325000Y-44675000D01*
X129325000Y-43925000D01*
X129326204Y-43900496D01*
X129329804Y-43876227D01*
X129335765Y-43852429D01*
X129344030Y-43829329D01*
X129354520Y-43807151D01*
X129367133Y-43786107D01*
X129381747Y-43766402D01*
X129398223Y-43748223D01*
X129416402Y-43731747D01*
X129436107Y-43717133D01*
X129457151Y-43704520D01*
X129479329Y-43694030D01*
X129502429Y-43685765D01*
X129526227Y-43679804D01*
X129550496Y-43676204D01*
X129575000Y-43675000D01*
X130825000Y-43675000D01*
X130849504Y-43676204D01*
G37*
G36*
X136105142Y-37451174D02*
G01*
X136128803Y-37454684D01*
X136152007Y-37460496D01*
X136174529Y-37468554D01*
X136196153Y-37478782D01*
X136216670Y-37491079D01*
X136235883Y-37505329D01*
X136253607Y-37521393D01*
X136269671Y-37539117D01*
X136283921Y-37558330D01*
X136296218Y-37578847D01*
X136306446Y-37600471D01*
X136314504Y-37622993D01*
X136320316Y-37646197D01*
X136323826Y-37669858D01*
X136325000Y-37693750D01*
X136325000Y-38606250D01*
X136323826Y-38630142D01*
X136320316Y-38653803D01*
X136314504Y-38677007D01*
X136306446Y-38699529D01*
X136296218Y-38721153D01*
X136283921Y-38741670D01*
X136269671Y-38760883D01*
X136253607Y-38778607D01*
X136235883Y-38794671D01*
X136216670Y-38808921D01*
X136196153Y-38821218D01*
X136174529Y-38831446D01*
X136152007Y-38839504D01*
X136128803Y-38845316D01*
X136105142Y-38848826D01*
X136081250Y-38850000D01*
X135593750Y-38850000D01*
X135569858Y-38848826D01*
X135546197Y-38845316D01*
X135522993Y-38839504D01*
X135500471Y-38831446D01*
X135478847Y-38821218D01*
X135458330Y-38808921D01*
X135439117Y-38794671D01*
X135421393Y-38778607D01*
X135405329Y-38760883D01*
X135391079Y-38741670D01*
X135378782Y-38721153D01*
X135368554Y-38699529D01*
X135360496Y-38677007D01*
X135354684Y-38653803D01*
X135351174Y-38630142D01*
X135350000Y-38606250D01*
X135350000Y-37693750D01*
X135351174Y-37669858D01*
X135354684Y-37646197D01*
X135360496Y-37622993D01*
X135368554Y-37600471D01*
X135378782Y-37578847D01*
X135391079Y-37558330D01*
X135405329Y-37539117D01*
X135421393Y-37521393D01*
X135439117Y-37505329D01*
X135458330Y-37491079D01*
X135478847Y-37478782D01*
X135500471Y-37468554D01*
X135522993Y-37460496D01*
X135546197Y-37454684D01*
X135569858Y-37451174D01*
X135593750Y-37450000D01*
X136081250Y-37450000D01*
X136105142Y-37451174D01*
G37*
G36*
X134230142Y-37451174D02*
G01*
X134253803Y-37454684D01*
X134277007Y-37460496D01*
X134299529Y-37468554D01*
X134321153Y-37478782D01*
X134341670Y-37491079D01*
X134360883Y-37505329D01*
X134378607Y-37521393D01*
X134394671Y-37539117D01*
X134408921Y-37558330D01*
X134421218Y-37578847D01*
X134431446Y-37600471D01*
X134439504Y-37622993D01*
X134445316Y-37646197D01*
X134448826Y-37669858D01*
X134450000Y-37693750D01*
X134450000Y-38606250D01*
X134448826Y-38630142D01*
X134445316Y-38653803D01*
X134439504Y-38677007D01*
X134431446Y-38699529D01*
X134421218Y-38721153D01*
X134408921Y-38741670D01*
X134394671Y-38760883D01*
X134378607Y-38778607D01*
X134360883Y-38794671D01*
X134341670Y-38808921D01*
X134321153Y-38821218D01*
X134299529Y-38831446D01*
X134277007Y-38839504D01*
X134253803Y-38845316D01*
X134230142Y-38848826D01*
X134206250Y-38850000D01*
X133718750Y-38850000D01*
X133694858Y-38848826D01*
X133671197Y-38845316D01*
X133647993Y-38839504D01*
X133625471Y-38831446D01*
X133603847Y-38821218D01*
X133583330Y-38808921D01*
X133564117Y-38794671D01*
X133546393Y-38778607D01*
X133530329Y-38760883D01*
X133516079Y-38741670D01*
X133503782Y-38721153D01*
X133493554Y-38699529D01*
X133485496Y-38677007D01*
X133479684Y-38653803D01*
X133476174Y-38630142D01*
X133475000Y-38606250D01*
X133475000Y-37693750D01*
X133476174Y-37669858D01*
X133479684Y-37646197D01*
X133485496Y-37622993D01*
X133493554Y-37600471D01*
X133503782Y-37578847D01*
X133516079Y-37558330D01*
X133530329Y-37539117D01*
X133546393Y-37521393D01*
X133564117Y-37505329D01*
X133583330Y-37491079D01*
X133603847Y-37478782D01*
X133625471Y-37468554D01*
X133647993Y-37460496D01*
X133671197Y-37454684D01*
X133694858Y-37451174D01*
X133718750Y-37450000D01*
X134206250Y-37450000D01*
X134230142Y-37451174D01*
G37*
G36*
X136105142Y-34501174D02*
G01*
X136128803Y-34504684D01*
X136152007Y-34510496D01*
X136174529Y-34518554D01*
X136196153Y-34528782D01*
X136216670Y-34541079D01*
X136235883Y-34555329D01*
X136253607Y-34571393D01*
X136269671Y-34589117D01*
X136283921Y-34608330D01*
X136296218Y-34628847D01*
X136306446Y-34650471D01*
X136314504Y-34672993D01*
X136320316Y-34696197D01*
X136323826Y-34719858D01*
X136325000Y-34743750D01*
X136325000Y-35656250D01*
X136323826Y-35680142D01*
X136320316Y-35703803D01*
X136314504Y-35727007D01*
X136306446Y-35749529D01*
X136296218Y-35771153D01*
X136283921Y-35791670D01*
X136269671Y-35810883D01*
X136253607Y-35828607D01*
X136235883Y-35844671D01*
X136216670Y-35858921D01*
X136196153Y-35871218D01*
X136174529Y-35881446D01*
X136152007Y-35889504D01*
X136128803Y-35895316D01*
X136105142Y-35898826D01*
X136081250Y-35900000D01*
X135593750Y-35900000D01*
X135569858Y-35898826D01*
X135546197Y-35895316D01*
X135522993Y-35889504D01*
X135500471Y-35881446D01*
X135478847Y-35871218D01*
X135458330Y-35858921D01*
X135439117Y-35844671D01*
X135421393Y-35828607D01*
X135405329Y-35810883D01*
X135391079Y-35791670D01*
X135378782Y-35771153D01*
X135368554Y-35749529D01*
X135360496Y-35727007D01*
X135354684Y-35703803D01*
X135351174Y-35680142D01*
X135350000Y-35656250D01*
X135350000Y-34743750D01*
X135351174Y-34719858D01*
X135354684Y-34696197D01*
X135360496Y-34672993D01*
X135368554Y-34650471D01*
X135378782Y-34628847D01*
X135391079Y-34608330D01*
X135405329Y-34589117D01*
X135421393Y-34571393D01*
X135439117Y-34555329D01*
X135458330Y-34541079D01*
X135478847Y-34528782D01*
X135500471Y-34518554D01*
X135522993Y-34510496D01*
X135546197Y-34504684D01*
X135569858Y-34501174D01*
X135593750Y-34500000D01*
X136081250Y-34500000D01*
X136105142Y-34501174D01*
G37*
G36*
X134230142Y-34501174D02*
G01*
X134253803Y-34504684D01*
X134277007Y-34510496D01*
X134299529Y-34518554D01*
X134321153Y-34528782D01*
X134341670Y-34541079D01*
X134360883Y-34555329D01*
X134378607Y-34571393D01*
X134394671Y-34589117D01*
X134408921Y-34608330D01*
X134421218Y-34628847D01*
X134431446Y-34650471D01*
X134439504Y-34672993D01*
X134445316Y-34696197D01*
X134448826Y-34719858D01*
X134450000Y-34743750D01*
X134450000Y-35656250D01*
X134448826Y-35680142D01*
X134445316Y-35703803D01*
X134439504Y-35727007D01*
X134431446Y-35749529D01*
X134421218Y-35771153D01*
X134408921Y-35791670D01*
X134394671Y-35810883D01*
X134378607Y-35828607D01*
X134360883Y-35844671D01*
X134341670Y-35858921D01*
X134321153Y-35871218D01*
X134299529Y-35881446D01*
X134277007Y-35889504D01*
X134253803Y-35895316D01*
X134230142Y-35898826D01*
X134206250Y-35900000D01*
X133718750Y-35900000D01*
X133694858Y-35898826D01*
X133671197Y-35895316D01*
X133647993Y-35889504D01*
X133625471Y-35881446D01*
X133603847Y-35871218D01*
X133583330Y-35858921D01*
X133564117Y-35844671D01*
X133546393Y-35828607D01*
X133530329Y-35810883D01*
X133516079Y-35791670D01*
X133503782Y-35771153D01*
X133493554Y-35749529D01*
X133485496Y-35727007D01*
X133479684Y-35703803D01*
X133476174Y-35680142D01*
X133475000Y-35656250D01*
X133475000Y-34743750D01*
X133476174Y-34719858D01*
X133479684Y-34696197D01*
X133485496Y-34672993D01*
X133493554Y-34650471D01*
X133503782Y-34628847D01*
X133516079Y-34608330D01*
X133530329Y-34589117D01*
X133546393Y-34571393D01*
X133564117Y-34555329D01*
X133583330Y-34541079D01*
X133603847Y-34528782D01*
X133625471Y-34518554D01*
X133647993Y-34510496D01*
X133671197Y-34504684D01*
X133694858Y-34501174D01*
X133718750Y-34500000D01*
X134206250Y-34500000D01*
X134230142Y-34501174D01*
G37*
D14*
X129200000Y-56100000D03*
X129200000Y-56900000D03*
X129200000Y-57700000D03*
X129200000Y-58500000D03*
X129200000Y-59300000D03*
X129200000Y-60100000D03*
X129200000Y-60900000D03*
X129200000Y-61700000D03*
X129200000Y-62500000D03*
X129200000Y-63300000D03*
X129200000Y-64100000D03*
D15*
X127500000Y-65800000D03*
X126700000Y-65800000D03*
X125900000Y-65800000D03*
X125100000Y-65800000D03*
X124300000Y-65800000D03*
X123500000Y-65800000D03*
X122700000Y-65800000D03*
X121900000Y-65800000D03*
X121100000Y-65800000D03*
X120300000Y-65800000D03*
X119500000Y-65800000D03*
D14*
X117800000Y-64100000D03*
X117800000Y-63300000D03*
X117800000Y-62500000D03*
X117800000Y-61700000D03*
X117800000Y-60900000D03*
X117800000Y-60100000D03*
X117800000Y-59300000D03*
X117800000Y-58500000D03*
X117800000Y-57700000D03*
X117800000Y-56900000D03*
X117800000Y-56100000D03*
D15*
X119500000Y-54400000D03*
X120300000Y-54400000D03*
X121100000Y-54400000D03*
X121900000Y-54400000D03*
X122700000Y-54400000D03*
X123500000Y-54400000D03*
X124300000Y-54400000D03*
X125100000Y-54400000D03*
X125900000Y-54400000D03*
X126700000Y-54400000D03*
X127500000Y-54400000D03*
D13*
G36*
X114705142Y-58701174D02*
G01*
X114728803Y-58704684D01*
X114752007Y-58710496D01*
X114774529Y-58718554D01*
X114796153Y-58728782D01*
X114816670Y-58741079D01*
X114835883Y-58755329D01*
X114853607Y-58771393D01*
X114869671Y-58789117D01*
X114883921Y-58808330D01*
X114896218Y-58828847D01*
X114906446Y-58850471D01*
X114914504Y-58872993D01*
X114920316Y-58896197D01*
X114923826Y-58919858D01*
X114925000Y-58943750D01*
X114925000Y-59856250D01*
X114923826Y-59880142D01*
X114920316Y-59903803D01*
X114914504Y-59927007D01*
X114906446Y-59949529D01*
X114896218Y-59971153D01*
X114883921Y-59991670D01*
X114869671Y-60010883D01*
X114853607Y-60028607D01*
X114835883Y-60044671D01*
X114816670Y-60058921D01*
X114796153Y-60071218D01*
X114774529Y-60081446D01*
X114752007Y-60089504D01*
X114728803Y-60095316D01*
X114705142Y-60098826D01*
X114681250Y-60100000D01*
X114193750Y-60100000D01*
X114169858Y-60098826D01*
X114146197Y-60095316D01*
X114122993Y-60089504D01*
X114100471Y-60081446D01*
X114078847Y-60071218D01*
X114058330Y-60058921D01*
X114039117Y-60044671D01*
X114021393Y-60028607D01*
X114005329Y-60010883D01*
X113991079Y-59991670D01*
X113978782Y-59971153D01*
X113968554Y-59949529D01*
X113960496Y-59927007D01*
X113954684Y-59903803D01*
X113951174Y-59880142D01*
X113950000Y-59856250D01*
X113950000Y-58943750D01*
X113951174Y-58919858D01*
X113954684Y-58896197D01*
X113960496Y-58872993D01*
X113968554Y-58850471D01*
X113978782Y-58828847D01*
X113991079Y-58808330D01*
X114005329Y-58789117D01*
X114021393Y-58771393D01*
X114039117Y-58755329D01*
X114058330Y-58741079D01*
X114078847Y-58728782D01*
X114100471Y-58718554D01*
X114122993Y-58710496D01*
X114146197Y-58704684D01*
X114169858Y-58701174D01*
X114193750Y-58700000D01*
X114681250Y-58700000D01*
X114705142Y-58701174D01*
G37*
G36*
X112830142Y-58701174D02*
G01*
X112853803Y-58704684D01*
X112877007Y-58710496D01*
X112899529Y-58718554D01*
X112921153Y-58728782D01*
X112941670Y-58741079D01*
X112960883Y-58755329D01*
X112978607Y-58771393D01*
X112994671Y-58789117D01*
X113008921Y-58808330D01*
X113021218Y-58828847D01*
X113031446Y-58850471D01*
X113039504Y-58872993D01*
X113045316Y-58896197D01*
X113048826Y-58919858D01*
X113050000Y-58943750D01*
X113050000Y-59856250D01*
X113048826Y-59880142D01*
X113045316Y-59903803D01*
X113039504Y-59927007D01*
X113031446Y-59949529D01*
X113021218Y-59971153D01*
X113008921Y-59991670D01*
X112994671Y-60010883D01*
X112978607Y-60028607D01*
X112960883Y-60044671D01*
X112941670Y-60058921D01*
X112921153Y-60071218D01*
X112899529Y-60081446D01*
X112877007Y-60089504D01*
X112853803Y-60095316D01*
X112830142Y-60098826D01*
X112806250Y-60100000D01*
X112318750Y-60100000D01*
X112294858Y-60098826D01*
X112271197Y-60095316D01*
X112247993Y-60089504D01*
X112225471Y-60081446D01*
X112203847Y-60071218D01*
X112183330Y-60058921D01*
X112164117Y-60044671D01*
X112146393Y-60028607D01*
X112130329Y-60010883D01*
X112116079Y-59991670D01*
X112103782Y-59971153D01*
X112093554Y-59949529D01*
X112085496Y-59927007D01*
X112079684Y-59903803D01*
X112076174Y-59880142D01*
X112075000Y-59856250D01*
X112075000Y-58943750D01*
X112076174Y-58919858D01*
X112079684Y-58896197D01*
X112085496Y-58872993D01*
X112093554Y-58850471D01*
X112103782Y-58828847D01*
X112116079Y-58808330D01*
X112130329Y-58789117D01*
X112146393Y-58771393D01*
X112164117Y-58755329D01*
X112183330Y-58741079D01*
X112203847Y-58728782D01*
X112225471Y-58718554D01*
X112247993Y-58710496D01*
X112271197Y-58704684D01*
X112294858Y-58701174D01*
X112318750Y-58700000D01*
X112806250Y-58700000D01*
X112830142Y-58701174D01*
G37*
G36*
X112830142Y-67501174D02*
G01*
X112853803Y-67504684D01*
X112877007Y-67510496D01*
X112899529Y-67518554D01*
X112921153Y-67528782D01*
X112941670Y-67541079D01*
X112960883Y-67555329D01*
X112978607Y-67571393D01*
X112994671Y-67589117D01*
X113008921Y-67608330D01*
X113021218Y-67628847D01*
X113031446Y-67650471D01*
X113039504Y-67672993D01*
X113045316Y-67696197D01*
X113048826Y-67719858D01*
X113050000Y-67743750D01*
X113050000Y-68656250D01*
X113048826Y-68680142D01*
X113045316Y-68703803D01*
X113039504Y-68727007D01*
X113031446Y-68749529D01*
X113021218Y-68771153D01*
X113008921Y-68791670D01*
X112994671Y-68810883D01*
X112978607Y-68828607D01*
X112960883Y-68844671D01*
X112941670Y-68858921D01*
X112921153Y-68871218D01*
X112899529Y-68881446D01*
X112877007Y-68889504D01*
X112853803Y-68895316D01*
X112830142Y-68898826D01*
X112806250Y-68900000D01*
X112318750Y-68900000D01*
X112294858Y-68898826D01*
X112271197Y-68895316D01*
X112247993Y-68889504D01*
X112225471Y-68881446D01*
X112203847Y-68871218D01*
X112183330Y-68858921D01*
X112164117Y-68844671D01*
X112146393Y-68828607D01*
X112130329Y-68810883D01*
X112116079Y-68791670D01*
X112103782Y-68771153D01*
X112093554Y-68749529D01*
X112085496Y-68727007D01*
X112079684Y-68703803D01*
X112076174Y-68680142D01*
X112075000Y-68656250D01*
X112075000Y-67743750D01*
X112076174Y-67719858D01*
X112079684Y-67696197D01*
X112085496Y-67672993D01*
X112093554Y-67650471D01*
X112103782Y-67628847D01*
X112116079Y-67608330D01*
X112130329Y-67589117D01*
X112146393Y-67571393D01*
X112164117Y-67555329D01*
X112183330Y-67541079D01*
X112203847Y-67528782D01*
X112225471Y-67518554D01*
X112247993Y-67510496D01*
X112271197Y-67504684D01*
X112294858Y-67501174D01*
X112318750Y-67500000D01*
X112806250Y-67500000D01*
X112830142Y-67501174D01*
G37*
G36*
X114705142Y-67501174D02*
G01*
X114728803Y-67504684D01*
X114752007Y-67510496D01*
X114774529Y-67518554D01*
X114796153Y-67528782D01*
X114816670Y-67541079D01*
X114835883Y-67555329D01*
X114853607Y-67571393D01*
X114869671Y-67589117D01*
X114883921Y-67608330D01*
X114896218Y-67628847D01*
X114906446Y-67650471D01*
X114914504Y-67672993D01*
X114920316Y-67696197D01*
X114923826Y-67719858D01*
X114925000Y-67743750D01*
X114925000Y-68656250D01*
X114923826Y-68680142D01*
X114920316Y-68703803D01*
X114914504Y-68727007D01*
X114906446Y-68749529D01*
X114896218Y-68771153D01*
X114883921Y-68791670D01*
X114869671Y-68810883D01*
X114853607Y-68828607D01*
X114835883Y-68844671D01*
X114816670Y-68858921D01*
X114796153Y-68871218D01*
X114774529Y-68881446D01*
X114752007Y-68889504D01*
X114728803Y-68895316D01*
X114705142Y-68898826D01*
X114681250Y-68900000D01*
X114193750Y-68900000D01*
X114169858Y-68898826D01*
X114146197Y-68895316D01*
X114122993Y-68889504D01*
X114100471Y-68881446D01*
X114078847Y-68871218D01*
X114058330Y-68858921D01*
X114039117Y-68844671D01*
X114021393Y-68828607D01*
X114005329Y-68810883D01*
X113991079Y-68791670D01*
X113978782Y-68771153D01*
X113968554Y-68749529D01*
X113960496Y-68727007D01*
X113954684Y-68703803D01*
X113951174Y-68680142D01*
X113950000Y-68656250D01*
X113950000Y-67743750D01*
X113951174Y-67719858D01*
X113954684Y-67696197D01*
X113960496Y-67672993D01*
X113968554Y-67650471D01*
X113978782Y-67628847D01*
X113991079Y-67608330D01*
X114005329Y-67589117D01*
X114021393Y-67571393D01*
X114039117Y-67555329D01*
X114058330Y-67541079D01*
X114078847Y-67528782D01*
X114100471Y-67518554D01*
X114122993Y-67510496D01*
X114146197Y-67504684D01*
X114169858Y-67501174D01*
X114193750Y-67500000D01*
X114681250Y-67500000D01*
X114705142Y-67501174D01*
G37*
D16*
X112650000Y-64900000D03*
X112650000Y-62700000D03*
X114350000Y-62700000D03*
X114350000Y-64900000D03*
D13*
G36*
X54527208Y-38024264D02*
G01*
X55375736Y-38872792D01*
X54739340Y-39509188D01*
X53890812Y-38660660D01*
X54527208Y-38024264D01*
G37*
G36*
X56860660Y-35690812D02*
G01*
X57709188Y-36539340D01*
X57072792Y-37175736D01*
X56224264Y-36327208D01*
X56860660Y-35690812D01*
G37*
G36*
X127830142Y-68401174D02*
G01*
X127853803Y-68404684D01*
X127877007Y-68410496D01*
X127899529Y-68418554D01*
X127921153Y-68428782D01*
X127941670Y-68441079D01*
X127960883Y-68455329D01*
X127978607Y-68471393D01*
X127994671Y-68489117D01*
X128008921Y-68508330D01*
X128021218Y-68528847D01*
X128031446Y-68550471D01*
X128039504Y-68572993D01*
X128045316Y-68596197D01*
X128048826Y-68619858D01*
X128050000Y-68643750D01*
X128050000Y-69556250D01*
X128048826Y-69580142D01*
X128045316Y-69603803D01*
X128039504Y-69627007D01*
X128031446Y-69649529D01*
X128021218Y-69671153D01*
X128008921Y-69691670D01*
X127994671Y-69710883D01*
X127978607Y-69728607D01*
X127960883Y-69744671D01*
X127941670Y-69758921D01*
X127921153Y-69771218D01*
X127899529Y-69781446D01*
X127877007Y-69789504D01*
X127853803Y-69795316D01*
X127830142Y-69798826D01*
X127806250Y-69800000D01*
X127318750Y-69800000D01*
X127294858Y-69798826D01*
X127271197Y-69795316D01*
X127247993Y-69789504D01*
X127225471Y-69781446D01*
X127203847Y-69771218D01*
X127183330Y-69758921D01*
X127164117Y-69744671D01*
X127146393Y-69728607D01*
X127130329Y-69710883D01*
X127116079Y-69691670D01*
X127103782Y-69671153D01*
X127093554Y-69649529D01*
X127085496Y-69627007D01*
X127079684Y-69603803D01*
X127076174Y-69580142D01*
X127075000Y-69556250D01*
X127075000Y-68643750D01*
X127076174Y-68619858D01*
X127079684Y-68596197D01*
X127085496Y-68572993D01*
X127093554Y-68550471D01*
X127103782Y-68528847D01*
X127116079Y-68508330D01*
X127130329Y-68489117D01*
X127146393Y-68471393D01*
X127164117Y-68455329D01*
X127183330Y-68441079D01*
X127203847Y-68428782D01*
X127225471Y-68418554D01*
X127247993Y-68410496D01*
X127271197Y-68404684D01*
X127294858Y-68401174D01*
X127318750Y-68400000D01*
X127806250Y-68400000D01*
X127830142Y-68401174D01*
G37*
G36*
X129705142Y-68401174D02*
G01*
X129728803Y-68404684D01*
X129752007Y-68410496D01*
X129774529Y-68418554D01*
X129796153Y-68428782D01*
X129816670Y-68441079D01*
X129835883Y-68455329D01*
X129853607Y-68471393D01*
X129869671Y-68489117D01*
X129883921Y-68508330D01*
X129896218Y-68528847D01*
X129906446Y-68550471D01*
X129914504Y-68572993D01*
X129920316Y-68596197D01*
X129923826Y-68619858D01*
X129925000Y-68643750D01*
X129925000Y-69556250D01*
X129923826Y-69580142D01*
X129920316Y-69603803D01*
X129914504Y-69627007D01*
X129906446Y-69649529D01*
X129896218Y-69671153D01*
X129883921Y-69691670D01*
X129869671Y-69710883D01*
X129853607Y-69728607D01*
X129835883Y-69744671D01*
X129816670Y-69758921D01*
X129796153Y-69771218D01*
X129774529Y-69781446D01*
X129752007Y-69789504D01*
X129728803Y-69795316D01*
X129705142Y-69798826D01*
X129681250Y-69800000D01*
X129193750Y-69800000D01*
X129169858Y-69798826D01*
X129146197Y-69795316D01*
X129122993Y-69789504D01*
X129100471Y-69781446D01*
X129078847Y-69771218D01*
X129058330Y-69758921D01*
X129039117Y-69744671D01*
X129021393Y-69728607D01*
X129005329Y-69710883D01*
X128991079Y-69691670D01*
X128978782Y-69671153D01*
X128968554Y-69649529D01*
X128960496Y-69627007D01*
X128954684Y-69603803D01*
X128951174Y-69580142D01*
X128950000Y-69556250D01*
X128950000Y-68643750D01*
X128951174Y-68619858D01*
X128954684Y-68596197D01*
X128960496Y-68572993D01*
X128968554Y-68550471D01*
X128978782Y-68528847D01*
X128991079Y-68508330D01*
X129005329Y-68489117D01*
X129021393Y-68471393D01*
X129039117Y-68455329D01*
X129058330Y-68441079D01*
X129078847Y-68428782D01*
X129100471Y-68418554D01*
X129122993Y-68410496D01*
X129146197Y-68404684D01*
X129169858Y-68401174D01*
X129193750Y-68400000D01*
X129681250Y-68400000D01*
X129705142Y-68401174D01*
G37*
G36*
X127880142Y-44176174D02*
G01*
X127903803Y-44179684D01*
X127927007Y-44185496D01*
X127949529Y-44193554D01*
X127971153Y-44203782D01*
X127991670Y-44216079D01*
X128010883Y-44230329D01*
X128028607Y-44246393D01*
X128044671Y-44264117D01*
X128058921Y-44283330D01*
X128071218Y-44303847D01*
X128081446Y-44325471D01*
X128089504Y-44347993D01*
X128095316Y-44371197D01*
X128098826Y-44394858D01*
X128100000Y-44418750D01*
X128100000Y-44906250D01*
X128098826Y-44930142D01*
X128095316Y-44953803D01*
X128089504Y-44977007D01*
X128081446Y-44999529D01*
X128071218Y-45021153D01*
X128058921Y-45041670D01*
X128044671Y-45060883D01*
X128028607Y-45078607D01*
X128010883Y-45094671D01*
X127991670Y-45108921D01*
X127971153Y-45121218D01*
X127949529Y-45131446D01*
X127927007Y-45139504D01*
X127903803Y-45145316D01*
X127880142Y-45148826D01*
X127856250Y-45150000D01*
X126943750Y-45150000D01*
X126919858Y-45148826D01*
X126896197Y-45145316D01*
X126872993Y-45139504D01*
X126850471Y-45131446D01*
X126828847Y-45121218D01*
X126808330Y-45108921D01*
X126789117Y-45094671D01*
X126771393Y-45078607D01*
X126755329Y-45060883D01*
X126741079Y-45041670D01*
X126728782Y-45021153D01*
X126718554Y-44999529D01*
X126710496Y-44977007D01*
X126704684Y-44953803D01*
X126701174Y-44930142D01*
X126700000Y-44906250D01*
X126700000Y-44418750D01*
X126701174Y-44394858D01*
X126704684Y-44371197D01*
X126710496Y-44347993D01*
X126718554Y-44325471D01*
X126728782Y-44303847D01*
X126741079Y-44283330D01*
X126755329Y-44264117D01*
X126771393Y-44246393D01*
X126789117Y-44230329D01*
X126808330Y-44216079D01*
X126828847Y-44203782D01*
X126850471Y-44193554D01*
X126872993Y-44185496D01*
X126896197Y-44179684D01*
X126919858Y-44176174D01*
X126943750Y-44175000D01*
X127856250Y-44175000D01*
X127880142Y-44176174D01*
G37*
G36*
X127880142Y-46051174D02*
G01*
X127903803Y-46054684D01*
X127927007Y-46060496D01*
X127949529Y-46068554D01*
X127971153Y-46078782D01*
X127991670Y-46091079D01*
X128010883Y-46105329D01*
X128028607Y-46121393D01*
X128044671Y-46139117D01*
X128058921Y-46158330D01*
X128071218Y-46178847D01*
X128081446Y-46200471D01*
X128089504Y-46222993D01*
X128095316Y-46246197D01*
X128098826Y-46269858D01*
X128100000Y-46293750D01*
X128100000Y-46781250D01*
X128098826Y-46805142D01*
X128095316Y-46828803D01*
X128089504Y-46852007D01*
X128081446Y-46874529D01*
X128071218Y-46896153D01*
X128058921Y-46916670D01*
X128044671Y-46935883D01*
X128028607Y-46953607D01*
X128010883Y-46969671D01*
X127991670Y-46983921D01*
X127971153Y-46996218D01*
X127949529Y-47006446D01*
X127927007Y-47014504D01*
X127903803Y-47020316D01*
X127880142Y-47023826D01*
X127856250Y-47025000D01*
X126943750Y-47025000D01*
X126919858Y-47023826D01*
X126896197Y-47020316D01*
X126872993Y-47014504D01*
X126850471Y-47006446D01*
X126828847Y-46996218D01*
X126808330Y-46983921D01*
X126789117Y-46969671D01*
X126771393Y-46953607D01*
X126755329Y-46935883D01*
X126741079Y-46916670D01*
X126728782Y-46896153D01*
X126718554Y-46874529D01*
X126710496Y-46852007D01*
X126704684Y-46828803D01*
X126701174Y-46805142D01*
X126700000Y-46781250D01*
X126700000Y-46293750D01*
X126701174Y-46269858D01*
X126704684Y-46246197D01*
X126710496Y-46222993D01*
X126718554Y-46200471D01*
X126728782Y-46178847D01*
X126741079Y-46158330D01*
X126755329Y-46139117D01*
X126771393Y-46121393D01*
X126789117Y-46105329D01*
X126808330Y-46091079D01*
X126828847Y-46078782D01*
X126850471Y-46068554D01*
X126872993Y-46060496D01*
X126896197Y-46054684D01*
X126919858Y-46051174D01*
X126943750Y-46050000D01*
X127856250Y-46050000D01*
X127880142Y-46051174D01*
G37*
G36*
X124680142Y-44176174D02*
G01*
X124703803Y-44179684D01*
X124727007Y-44185496D01*
X124749529Y-44193554D01*
X124771153Y-44203782D01*
X124791670Y-44216079D01*
X124810883Y-44230329D01*
X124828607Y-44246393D01*
X124844671Y-44264117D01*
X124858921Y-44283330D01*
X124871218Y-44303847D01*
X124881446Y-44325471D01*
X124889504Y-44347993D01*
X124895316Y-44371197D01*
X124898826Y-44394858D01*
X124900000Y-44418750D01*
X124900000Y-44906250D01*
X124898826Y-44930142D01*
X124895316Y-44953803D01*
X124889504Y-44977007D01*
X124881446Y-44999529D01*
X124871218Y-45021153D01*
X124858921Y-45041670D01*
X124844671Y-45060883D01*
X124828607Y-45078607D01*
X124810883Y-45094671D01*
X124791670Y-45108921D01*
X124771153Y-45121218D01*
X124749529Y-45131446D01*
X124727007Y-45139504D01*
X124703803Y-45145316D01*
X124680142Y-45148826D01*
X124656250Y-45150000D01*
X123743750Y-45150000D01*
X123719858Y-45148826D01*
X123696197Y-45145316D01*
X123672993Y-45139504D01*
X123650471Y-45131446D01*
X123628847Y-45121218D01*
X123608330Y-45108921D01*
X123589117Y-45094671D01*
X123571393Y-45078607D01*
X123555329Y-45060883D01*
X123541079Y-45041670D01*
X123528782Y-45021153D01*
X123518554Y-44999529D01*
X123510496Y-44977007D01*
X123504684Y-44953803D01*
X123501174Y-44930142D01*
X123500000Y-44906250D01*
X123500000Y-44418750D01*
X123501174Y-44394858D01*
X123504684Y-44371197D01*
X123510496Y-44347993D01*
X123518554Y-44325471D01*
X123528782Y-44303847D01*
X123541079Y-44283330D01*
X123555329Y-44264117D01*
X123571393Y-44246393D01*
X123589117Y-44230329D01*
X123608330Y-44216079D01*
X123628847Y-44203782D01*
X123650471Y-44193554D01*
X123672993Y-44185496D01*
X123696197Y-44179684D01*
X123719858Y-44176174D01*
X123743750Y-44175000D01*
X124656250Y-44175000D01*
X124680142Y-44176174D01*
G37*
G36*
X124680142Y-46051174D02*
G01*
X124703803Y-46054684D01*
X124727007Y-46060496D01*
X124749529Y-46068554D01*
X124771153Y-46078782D01*
X124791670Y-46091079D01*
X124810883Y-46105329D01*
X124828607Y-46121393D01*
X124844671Y-46139117D01*
X124858921Y-46158330D01*
X124871218Y-46178847D01*
X124881446Y-46200471D01*
X124889504Y-46222993D01*
X124895316Y-46246197D01*
X124898826Y-46269858D01*
X124900000Y-46293750D01*
X124900000Y-46781250D01*
X124898826Y-46805142D01*
X124895316Y-46828803D01*
X124889504Y-46852007D01*
X124881446Y-46874529D01*
X124871218Y-46896153D01*
X124858921Y-46916670D01*
X124844671Y-46935883D01*
X124828607Y-46953607D01*
X124810883Y-46969671D01*
X124791670Y-46983921D01*
X124771153Y-46996218D01*
X124749529Y-47006446D01*
X124727007Y-47014504D01*
X124703803Y-47020316D01*
X124680142Y-47023826D01*
X124656250Y-47025000D01*
X123743750Y-47025000D01*
X123719858Y-47023826D01*
X123696197Y-47020316D01*
X123672993Y-47014504D01*
X123650471Y-47006446D01*
X123628847Y-46996218D01*
X123608330Y-46983921D01*
X123589117Y-46969671D01*
X123571393Y-46953607D01*
X123555329Y-46935883D01*
X123541079Y-46916670D01*
X123528782Y-46896153D01*
X123518554Y-46874529D01*
X123510496Y-46852007D01*
X123504684Y-46828803D01*
X123501174Y-46805142D01*
X123500000Y-46781250D01*
X123500000Y-46293750D01*
X123501174Y-46269858D01*
X123504684Y-46246197D01*
X123510496Y-46222993D01*
X123518554Y-46200471D01*
X123528782Y-46178847D01*
X123541079Y-46158330D01*
X123555329Y-46139117D01*
X123571393Y-46121393D01*
X123589117Y-46105329D01*
X123608330Y-46091079D01*
X123628847Y-46078782D01*
X123650471Y-46068554D01*
X123672993Y-46060496D01*
X123696197Y-46054684D01*
X123719858Y-46051174D01*
X123743750Y-46050000D01*
X124656250Y-46050000D01*
X124680142Y-46051174D01*
G37*
G36*
X117930142Y-50001174D02*
G01*
X117953803Y-50004684D01*
X117977007Y-50010496D01*
X117999529Y-50018554D01*
X118021153Y-50028782D01*
X118041670Y-50041079D01*
X118060883Y-50055329D01*
X118078607Y-50071393D01*
X118094671Y-50089117D01*
X118108921Y-50108330D01*
X118121218Y-50128847D01*
X118131446Y-50150471D01*
X118139504Y-50172993D01*
X118145316Y-50196197D01*
X118148826Y-50219858D01*
X118150000Y-50243750D01*
X118150000Y-51156250D01*
X118148826Y-51180142D01*
X118145316Y-51203803D01*
X118139504Y-51227007D01*
X118131446Y-51249529D01*
X118121218Y-51271153D01*
X118108921Y-51291670D01*
X118094671Y-51310883D01*
X118078607Y-51328607D01*
X118060883Y-51344671D01*
X118041670Y-51358921D01*
X118021153Y-51371218D01*
X117999529Y-51381446D01*
X117977007Y-51389504D01*
X117953803Y-51395316D01*
X117930142Y-51398826D01*
X117906250Y-51400000D01*
X117418750Y-51400000D01*
X117394858Y-51398826D01*
X117371197Y-51395316D01*
X117347993Y-51389504D01*
X117325471Y-51381446D01*
X117303847Y-51371218D01*
X117283330Y-51358921D01*
X117264117Y-51344671D01*
X117246393Y-51328607D01*
X117230329Y-51310883D01*
X117216079Y-51291670D01*
X117203782Y-51271153D01*
X117193554Y-51249529D01*
X117185496Y-51227007D01*
X117179684Y-51203803D01*
X117176174Y-51180142D01*
X117175000Y-51156250D01*
X117175000Y-50243750D01*
X117176174Y-50219858D01*
X117179684Y-50196197D01*
X117185496Y-50172993D01*
X117193554Y-50150471D01*
X117203782Y-50128847D01*
X117216079Y-50108330D01*
X117230329Y-50089117D01*
X117246393Y-50071393D01*
X117264117Y-50055329D01*
X117283330Y-50041079D01*
X117303847Y-50028782D01*
X117325471Y-50018554D01*
X117347993Y-50010496D01*
X117371197Y-50004684D01*
X117394858Y-50001174D01*
X117418750Y-50000000D01*
X117906250Y-50000000D01*
X117930142Y-50001174D01*
G37*
G36*
X119805142Y-50001174D02*
G01*
X119828803Y-50004684D01*
X119852007Y-50010496D01*
X119874529Y-50018554D01*
X119896153Y-50028782D01*
X119916670Y-50041079D01*
X119935883Y-50055329D01*
X119953607Y-50071393D01*
X119969671Y-50089117D01*
X119983921Y-50108330D01*
X119996218Y-50128847D01*
X120006446Y-50150471D01*
X120014504Y-50172993D01*
X120020316Y-50196197D01*
X120023826Y-50219858D01*
X120025000Y-50243750D01*
X120025000Y-51156250D01*
X120023826Y-51180142D01*
X120020316Y-51203803D01*
X120014504Y-51227007D01*
X120006446Y-51249529D01*
X119996218Y-51271153D01*
X119983921Y-51291670D01*
X119969671Y-51310883D01*
X119953607Y-51328607D01*
X119935883Y-51344671D01*
X119916670Y-51358921D01*
X119896153Y-51371218D01*
X119874529Y-51381446D01*
X119852007Y-51389504D01*
X119828803Y-51395316D01*
X119805142Y-51398826D01*
X119781250Y-51400000D01*
X119293750Y-51400000D01*
X119269858Y-51398826D01*
X119246197Y-51395316D01*
X119222993Y-51389504D01*
X119200471Y-51381446D01*
X119178847Y-51371218D01*
X119158330Y-51358921D01*
X119139117Y-51344671D01*
X119121393Y-51328607D01*
X119105329Y-51310883D01*
X119091079Y-51291670D01*
X119078782Y-51271153D01*
X119068554Y-51249529D01*
X119060496Y-51227007D01*
X119054684Y-51203803D01*
X119051174Y-51180142D01*
X119050000Y-51156250D01*
X119050000Y-50243750D01*
X119051174Y-50219858D01*
X119054684Y-50196197D01*
X119060496Y-50172993D01*
X119068554Y-50150471D01*
X119078782Y-50128847D01*
X119091079Y-50108330D01*
X119105329Y-50089117D01*
X119121393Y-50071393D01*
X119139117Y-50055329D01*
X119158330Y-50041079D01*
X119178847Y-50028782D01*
X119200471Y-50018554D01*
X119222993Y-50010496D01*
X119246197Y-50004684D01*
X119269858Y-50001174D01*
X119293750Y-50000000D01*
X119781250Y-50000000D01*
X119805142Y-50001174D01*
G37*
G36*
X94027208Y-34024264D02*
G01*
X94875736Y-34872792D01*
X94239340Y-35509188D01*
X93390812Y-34660660D01*
X94027208Y-34024264D01*
G37*
G36*
X96360660Y-31690812D02*
G01*
X97209188Y-32539340D01*
X96572792Y-33175736D01*
X95724264Y-32327208D01*
X96360660Y-31690812D01*
G37*
G36*
X79027208Y-34024264D02*
G01*
X79875736Y-34872792D01*
X79239340Y-35509188D01*
X78390812Y-34660660D01*
X79027208Y-34024264D01*
G37*
G36*
X81360660Y-31690812D02*
G01*
X82209188Y-32539340D01*
X81572792Y-33175736D01*
X80724264Y-32327208D01*
X81360660Y-31690812D01*
G37*
G36*
X64027208Y-34024264D02*
G01*
X64875736Y-34872792D01*
X64239340Y-35509188D01*
X63390812Y-34660660D01*
X64027208Y-34024264D01*
G37*
G36*
X66360660Y-31690812D02*
G01*
X67209188Y-32539340D01*
X66572792Y-33175736D01*
X65724264Y-32327208D01*
X66360660Y-31690812D01*
G37*
G36*
X84527208Y-38024264D02*
G01*
X85375736Y-38872792D01*
X84739340Y-39509188D01*
X83890812Y-38660660D01*
X84527208Y-38024264D01*
G37*
G36*
X86860660Y-35690812D02*
G01*
X87709188Y-36539340D01*
X87072792Y-37175736D01*
X86224264Y-36327208D01*
X86860660Y-35690812D01*
G37*
G36*
X69527208Y-38024264D02*
G01*
X70375736Y-38872792D01*
X69739340Y-39509188D01*
X68890812Y-38660660D01*
X69527208Y-38024264D01*
G37*
G36*
X71860660Y-35690812D02*
G01*
X72709188Y-36539340D01*
X72072792Y-37175736D01*
X71224264Y-36327208D01*
X71860660Y-35690812D01*
G37*
G36*
X133180142Y-55651174D02*
G01*
X133203803Y-55654684D01*
X133227007Y-55660496D01*
X133249529Y-55668554D01*
X133271153Y-55678782D01*
X133291670Y-55691079D01*
X133310883Y-55705329D01*
X133328607Y-55721393D01*
X133344671Y-55739117D01*
X133358921Y-55758330D01*
X133371218Y-55778847D01*
X133381446Y-55800471D01*
X133389504Y-55822993D01*
X133395316Y-55846197D01*
X133398826Y-55869858D01*
X133400000Y-55893750D01*
X133400000Y-56381250D01*
X133398826Y-56405142D01*
X133395316Y-56428803D01*
X133389504Y-56452007D01*
X133381446Y-56474529D01*
X133371218Y-56496153D01*
X133358921Y-56516670D01*
X133344671Y-56535883D01*
X133328607Y-56553607D01*
X133310883Y-56569671D01*
X133291670Y-56583921D01*
X133271153Y-56596218D01*
X133249529Y-56606446D01*
X133227007Y-56614504D01*
X133203803Y-56620316D01*
X133180142Y-56623826D01*
X133156250Y-56625000D01*
X132243750Y-56625000D01*
X132219858Y-56623826D01*
X132196197Y-56620316D01*
X132172993Y-56614504D01*
X132150471Y-56606446D01*
X132128847Y-56596218D01*
X132108330Y-56583921D01*
X132089117Y-56569671D01*
X132071393Y-56553607D01*
X132055329Y-56535883D01*
X132041079Y-56516670D01*
X132028782Y-56496153D01*
X132018554Y-56474529D01*
X132010496Y-56452007D01*
X132004684Y-56428803D01*
X132001174Y-56405142D01*
X132000000Y-56381250D01*
X132000000Y-55893750D01*
X132001174Y-55869858D01*
X132004684Y-55846197D01*
X132010496Y-55822993D01*
X132018554Y-55800471D01*
X132028782Y-55778847D01*
X132041079Y-55758330D01*
X132055329Y-55739117D01*
X132071393Y-55721393D01*
X132089117Y-55705329D01*
X132108330Y-55691079D01*
X132128847Y-55678782D01*
X132150471Y-55668554D01*
X132172993Y-55660496D01*
X132196197Y-55654684D01*
X132219858Y-55651174D01*
X132243750Y-55650000D01*
X133156250Y-55650000D01*
X133180142Y-55651174D01*
G37*
G36*
X133180142Y-53776174D02*
G01*
X133203803Y-53779684D01*
X133227007Y-53785496D01*
X133249529Y-53793554D01*
X133271153Y-53803782D01*
X133291670Y-53816079D01*
X133310883Y-53830329D01*
X133328607Y-53846393D01*
X133344671Y-53864117D01*
X133358921Y-53883330D01*
X133371218Y-53903847D01*
X133381446Y-53925471D01*
X133389504Y-53947993D01*
X133395316Y-53971197D01*
X133398826Y-53994858D01*
X133400000Y-54018750D01*
X133400000Y-54506250D01*
X133398826Y-54530142D01*
X133395316Y-54553803D01*
X133389504Y-54577007D01*
X133381446Y-54599529D01*
X133371218Y-54621153D01*
X133358921Y-54641670D01*
X133344671Y-54660883D01*
X133328607Y-54678607D01*
X133310883Y-54694671D01*
X133291670Y-54708921D01*
X133271153Y-54721218D01*
X133249529Y-54731446D01*
X133227007Y-54739504D01*
X133203803Y-54745316D01*
X133180142Y-54748826D01*
X133156250Y-54750000D01*
X132243750Y-54750000D01*
X132219858Y-54748826D01*
X132196197Y-54745316D01*
X132172993Y-54739504D01*
X132150471Y-54731446D01*
X132128847Y-54721218D01*
X132108330Y-54708921D01*
X132089117Y-54694671D01*
X132071393Y-54678607D01*
X132055329Y-54660883D01*
X132041079Y-54641670D01*
X132028782Y-54621153D01*
X132018554Y-54599529D01*
X132010496Y-54577007D01*
X132004684Y-54553803D01*
X132001174Y-54530142D01*
X132000000Y-54506250D01*
X132000000Y-54018750D01*
X132001174Y-53994858D01*
X132004684Y-53971197D01*
X132010496Y-53947993D01*
X132018554Y-53925471D01*
X132028782Y-53903847D01*
X132041079Y-53883330D01*
X132055329Y-53864117D01*
X132071393Y-53846393D01*
X132089117Y-53830329D01*
X132108330Y-53816079D01*
X132128847Y-53803782D01*
X132150471Y-53793554D01*
X132172993Y-53785496D01*
X132196197Y-53779684D01*
X132219858Y-53776174D01*
X132243750Y-53775000D01*
X133156250Y-53775000D01*
X133180142Y-53776174D01*
G37*
G36*
X133180142Y-63676174D02*
G01*
X133203803Y-63679684D01*
X133227007Y-63685496D01*
X133249529Y-63693554D01*
X133271153Y-63703782D01*
X133291670Y-63716079D01*
X133310883Y-63730329D01*
X133328607Y-63746393D01*
X133344671Y-63764117D01*
X133358921Y-63783330D01*
X133371218Y-63803847D01*
X133381446Y-63825471D01*
X133389504Y-63847993D01*
X133395316Y-63871197D01*
X133398826Y-63894858D01*
X133400000Y-63918750D01*
X133400000Y-64406250D01*
X133398826Y-64430142D01*
X133395316Y-64453803D01*
X133389504Y-64477007D01*
X133381446Y-64499529D01*
X133371218Y-64521153D01*
X133358921Y-64541670D01*
X133344671Y-64560883D01*
X133328607Y-64578607D01*
X133310883Y-64594671D01*
X133291670Y-64608921D01*
X133271153Y-64621218D01*
X133249529Y-64631446D01*
X133227007Y-64639504D01*
X133203803Y-64645316D01*
X133180142Y-64648826D01*
X133156250Y-64650000D01*
X132243750Y-64650000D01*
X132219858Y-64648826D01*
X132196197Y-64645316D01*
X132172993Y-64639504D01*
X132150471Y-64631446D01*
X132128847Y-64621218D01*
X132108330Y-64608921D01*
X132089117Y-64594671D01*
X132071393Y-64578607D01*
X132055329Y-64560883D01*
X132041079Y-64541670D01*
X132028782Y-64521153D01*
X132018554Y-64499529D01*
X132010496Y-64477007D01*
X132004684Y-64453803D01*
X132001174Y-64430142D01*
X132000000Y-64406250D01*
X132000000Y-63918750D01*
X132001174Y-63894858D01*
X132004684Y-63871197D01*
X132010496Y-63847993D01*
X132018554Y-63825471D01*
X132028782Y-63803847D01*
X132041079Y-63783330D01*
X132055329Y-63764117D01*
X132071393Y-63746393D01*
X132089117Y-63730329D01*
X132108330Y-63716079D01*
X132128847Y-63703782D01*
X132150471Y-63693554D01*
X132172993Y-63685496D01*
X132196197Y-63679684D01*
X132219858Y-63676174D01*
X132243750Y-63675000D01*
X133156250Y-63675000D01*
X133180142Y-63676174D01*
G37*
G36*
X133180142Y-65551174D02*
G01*
X133203803Y-65554684D01*
X133227007Y-65560496D01*
X133249529Y-65568554D01*
X133271153Y-65578782D01*
X133291670Y-65591079D01*
X133310883Y-65605329D01*
X133328607Y-65621393D01*
X133344671Y-65639117D01*
X133358921Y-65658330D01*
X133371218Y-65678847D01*
X133381446Y-65700471D01*
X133389504Y-65722993D01*
X133395316Y-65746197D01*
X133398826Y-65769858D01*
X133400000Y-65793750D01*
X133400000Y-66281250D01*
X133398826Y-66305142D01*
X133395316Y-66328803D01*
X133389504Y-66352007D01*
X133381446Y-66374529D01*
X133371218Y-66396153D01*
X133358921Y-66416670D01*
X133344671Y-66435883D01*
X133328607Y-66453607D01*
X133310883Y-66469671D01*
X133291670Y-66483921D01*
X133271153Y-66496218D01*
X133249529Y-66506446D01*
X133227007Y-66514504D01*
X133203803Y-66520316D01*
X133180142Y-66523826D01*
X133156250Y-66525000D01*
X132243750Y-66525000D01*
X132219858Y-66523826D01*
X132196197Y-66520316D01*
X132172993Y-66514504D01*
X132150471Y-66506446D01*
X132128847Y-66496218D01*
X132108330Y-66483921D01*
X132089117Y-66469671D01*
X132071393Y-66453607D01*
X132055329Y-66435883D01*
X132041079Y-66416670D01*
X132028782Y-66396153D01*
X132018554Y-66374529D01*
X132010496Y-66352007D01*
X132004684Y-66328803D01*
X132001174Y-66305142D01*
X132000000Y-66281250D01*
X132000000Y-65793750D01*
X132001174Y-65769858D01*
X132004684Y-65746197D01*
X132010496Y-65722993D01*
X132018554Y-65700471D01*
X132028782Y-65678847D01*
X132041079Y-65658330D01*
X132055329Y-65639117D01*
X132071393Y-65621393D01*
X132089117Y-65605329D01*
X132108330Y-65591079D01*
X132128847Y-65578782D01*
X132150471Y-65568554D01*
X132172993Y-65560496D01*
X132196197Y-65554684D01*
X132219858Y-65551174D01*
X132243750Y-65550000D01*
X133156250Y-65550000D01*
X133180142Y-65551174D01*
G37*
G36*
X117730142Y-68401174D02*
G01*
X117753803Y-68404684D01*
X117777007Y-68410496D01*
X117799529Y-68418554D01*
X117821153Y-68428782D01*
X117841670Y-68441079D01*
X117860883Y-68455329D01*
X117878607Y-68471393D01*
X117894671Y-68489117D01*
X117908921Y-68508330D01*
X117921218Y-68528847D01*
X117931446Y-68550471D01*
X117939504Y-68572993D01*
X117945316Y-68596197D01*
X117948826Y-68619858D01*
X117950000Y-68643750D01*
X117950000Y-69556250D01*
X117948826Y-69580142D01*
X117945316Y-69603803D01*
X117939504Y-69627007D01*
X117931446Y-69649529D01*
X117921218Y-69671153D01*
X117908921Y-69691670D01*
X117894671Y-69710883D01*
X117878607Y-69728607D01*
X117860883Y-69744671D01*
X117841670Y-69758921D01*
X117821153Y-69771218D01*
X117799529Y-69781446D01*
X117777007Y-69789504D01*
X117753803Y-69795316D01*
X117730142Y-69798826D01*
X117706250Y-69800000D01*
X117218750Y-69800000D01*
X117194858Y-69798826D01*
X117171197Y-69795316D01*
X117147993Y-69789504D01*
X117125471Y-69781446D01*
X117103847Y-69771218D01*
X117083330Y-69758921D01*
X117064117Y-69744671D01*
X117046393Y-69728607D01*
X117030329Y-69710883D01*
X117016079Y-69691670D01*
X117003782Y-69671153D01*
X116993554Y-69649529D01*
X116985496Y-69627007D01*
X116979684Y-69603803D01*
X116976174Y-69580142D01*
X116975000Y-69556250D01*
X116975000Y-68643750D01*
X116976174Y-68619858D01*
X116979684Y-68596197D01*
X116985496Y-68572993D01*
X116993554Y-68550471D01*
X117003782Y-68528847D01*
X117016079Y-68508330D01*
X117030329Y-68489117D01*
X117046393Y-68471393D01*
X117064117Y-68455329D01*
X117083330Y-68441079D01*
X117103847Y-68428782D01*
X117125471Y-68418554D01*
X117147993Y-68410496D01*
X117171197Y-68404684D01*
X117194858Y-68401174D01*
X117218750Y-68400000D01*
X117706250Y-68400000D01*
X117730142Y-68401174D01*
G37*
G36*
X119605142Y-68401174D02*
G01*
X119628803Y-68404684D01*
X119652007Y-68410496D01*
X119674529Y-68418554D01*
X119696153Y-68428782D01*
X119716670Y-68441079D01*
X119735883Y-68455329D01*
X119753607Y-68471393D01*
X119769671Y-68489117D01*
X119783921Y-68508330D01*
X119796218Y-68528847D01*
X119806446Y-68550471D01*
X119814504Y-68572993D01*
X119820316Y-68596197D01*
X119823826Y-68619858D01*
X119825000Y-68643750D01*
X119825000Y-69556250D01*
X119823826Y-69580142D01*
X119820316Y-69603803D01*
X119814504Y-69627007D01*
X119806446Y-69649529D01*
X119796218Y-69671153D01*
X119783921Y-69691670D01*
X119769671Y-69710883D01*
X119753607Y-69728607D01*
X119735883Y-69744671D01*
X119716670Y-69758921D01*
X119696153Y-69771218D01*
X119674529Y-69781446D01*
X119652007Y-69789504D01*
X119628803Y-69795316D01*
X119605142Y-69798826D01*
X119581250Y-69800000D01*
X119093750Y-69800000D01*
X119069858Y-69798826D01*
X119046197Y-69795316D01*
X119022993Y-69789504D01*
X119000471Y-69781446D01*
X118978847Y-69771218D01*
X118958330Y-69758921D01*
X118939117Y-69744671D01*
X118921393Y-69728607D01*
X118905329Y-69710883D01*
X118891079Y-69691670D01*
X118878782Y-69671153D01*
X118868554Y-69649529D01*
X118860496Y-69627007D01*
X118854684Y-69603803D01*
X118851174Y-69580142D01*
X118850000Y-69556250D01*
X118850000Y-68643750D01*
X118851174Y-68619858D01*
X118854684Y-68596197D01*
X118860496Y-68572993D01*
X118868554Y-68550471D01*
X118878782Y-68528847D01*
X118891079Y-68508330D01*
X118905329Y-68489117D01*
X118921393Y-68471393D01*
X118939117Y-68455329D01*
X118958330Y-68441079D01*
X118978847Y-68428782D01*
X119000471Y-68418554D01*
X119022993Y-68410496D01*
X119046197Y-68404684D01*
X119069858Y-68401174D01*
X119093750Y-68400000D01*
X119581250Y-68400000D01*
X119605142Y-68401174D01*
G37*
G36*
X114880142Y-55551174D02*
G01*
X114903803Y-55554684D01*
X114927007Y-55560496D01*
X114949529Y-55568554D01*
X114971153Y-55578782D01*
X114991670Y-55591079D01*
X115010883Y-55605329D01*
X115028607Y-55621393D01*
X115044671Y-55639117D01*
X115058921Y-55658330D01*
X115071218Y-55678847D01*
X115081446Y-55700471D01*
X115089504Y-55722993D01*
X115095316Y-55746197D01*
X115098826Y-55769858D01*
X115100000Y-55793750D01*
X115100000Y-56281250D01*
X115098826Y-56305142D01*
X115095316Y-56328803D01*
X115089504Y-56352007D01*
X115081446Y-56374529D01*
X115071218Y-56396153D01*
X115058921Y-56416670D01*
X115044671Y-56435883D01*
X115028607Y-56453607D01*
X115010883Y-56469671D01*
X114991670Y-56483921D01*
X114971153Y-56496218D01*
X114949529Y-56506446D01*
X114927007Y-56514504D01*
X114903803Y-56520316D01*
X114880142Y-56523826D01*
X114856250Y-56525000D01*
X113943750Y-56525000D01*
X113919858Y-56523826D01*
X113896197Y-56520316D01*
X113872993Y-56514504D01*
X113850471Y-56506446D01*
X113828847Y-56496218D01*
X113808330Y-56483921D01*
X113789117Y-56469671D01*
X113771393Y-56453607D01*
X113755329Y-56435883D01*
X113741079Y-56416670D01*
X113728782Y-56396153D01*
X113718554Y-56374529D01*
X113710496Y-56352007D01*
X113704684Y-56328803D01*
X113701174Y-56305142D01*
X113700000Y-56281250D01*
X113700000Y-55793750D01*
X113701174Y-55769858D01*
X113704684Y-55746197D01*
X113710496Y-55722993D01*
X113718554Y-55700471D01*
X113728782Y-55678847D01*
X113741079Y-55658330D01*
X113755329Y-55639117D01*
X113771393Y-55621393D01*
X113789117Y-55605329D01*
X113808330Y-55591079D01*
X113828847Y-55578782D01*
X113850471Y-55568554D01*
X113872993Y-55560496D01*
X113896197Y-55554684D01*
X113919858Y-55551174D01*
X113943750Y-55550000D01*
X114856250Y-55550000D01*
X114880142Y-55551174D01*
G37*
G36*
X114880142Y-53676174D02*
G01*
X114903803Y-53679684D01*
X114927007Y-53685496D01*
X114949529Y-53693554D01*
X114971153Y-53703782D01*
X114991670Y-53716079D01*
X115010883Y-53730329D01*
X115028607Y-53746393D01*
X115044671Y-53764117D01*
X115058921Y-53783330D01*
X115071218Y-53803847D01*
X115081446Y-53825471D01*
X115089504Y-53847993D01*
X115095316Y-53871197D01*
X115098826Y-53894858D01*
X115100000Y-53918750D01*
X115100000Y-54406250D01*
X115098826Y-54430142D01*
X115095316Y-54453803D01*
X115089504Y-54477007D01*
X115081446Y-54499529D01*
X115071218Y-54521153D01*
X115058921Y-54541670D01*
X115044671Y-54560883D01*
X115028607Y-54578607D01*
X115010883Y-54594671D01*
X114991670Y-54608921D01*
X114971153Y-54621218D01*
X114949529Y-54631446D01*
X114927007Y-54639504D01*
X114903803Y-54645316D01*
X114880142Y-54648826D01*
X114856250Y-54650000D01*
X113943750Y-54650000D01*
X113919858Y-54648826D01*
X113896197Y-54645316D01*
X113872993Y-54639504D01*
X113850471Y-54631446D01*
X113828847Y-54621218D01*
X113808330Y-54608921D01*
X113789117Y-54594671D01*
X113771393Y-54578607D01*
X113755329Y-54560883D01*
X113741079Y-54541670D01*
X113728782Y-54521153D01*
X113718554Y-54499529D01*
X113710496Y-54477007D01*
X113704684Y-54453803D01*
X113701174Y-54430142D01*
X113700000Y-54406250D01*
X113700000Y-53918750D01*
X113701174Y-53894858D01*
X113704684Y-53871197D01*
X113710496Y-53847993D01*
X113718554Y-53825471D01*
X113728782Y-53803847D01*
X113741079Y-53783330D01*
X113755329Y-53764117D01*
X113771393Y-53746393D01*
X113789117Y-53730329D01*
X113808330Y-53716079D01*
X113828847Y-53703782D01*
X113850471Y-53693554D01*
X113872993Y-53685496D01*
X113896197Y-53679684D01*
X113919858Y-53676174D01*
X113943750Y-53675000D01*
X114856250Y-53675000D01*
X114880142Y-53676174D01*
G37*
G36*
X123905142Y-50001174D02*
G01*
X123928803Y-50004684D01*
X123952007Y-50010496D01*
X123974529Y-50018554D01*
X123996153Y-50028782D01*
X124016670Y-50041079D01*
X124035883Y-50055329D01*
X124053607Y-50071393D01*
X124069671Y-50089117D01*
X124083921Y-50108330D01*
X124096218Y-50128847D01*
X124106446Y-50150471D01*
X124114504Y-50172993D01*
X124120316Y-50196197D01*
X124123826Y-50219858D01*
X124125000Y-50243750D01*
X124125000Y-51156250D01*
X124123826Y-51180142D01*
X124120316Y-51203803D01*
X124114504Y-51227007D01*
X124106446Y-51249529D01*
X124096218Y-51271153D01*
X124083921Y-51291670D01*
X124069671Y-51310883D01*
X124053607Y-51328607D01*
X124035883Y-51344671D01*
X124016670Y-51358921D01*
X123996153Y-51371218D01*
X123974529Y-51381446D01*
X123952007Y-51389504D01*
X123928803Y-51395316D01*
X123905142Y-51398826D01*
X123881250Y-51400000D01*
X123393750Y-51400000D01*
X123369858Y-51398826D01*
X123346197Y-51395316D01*
X123322993Y-51389504D01*
X123300471Y-51381446D01*
X123278847Y-51371218D01*
X123258330Y-51358921D01*
X123239117Y-51344671D01*
X123221393Y-51328607D01*
X123205329Y-51310883D01*
X123191079Y-51291670D01*
X123178782Y-51271153D01*
X123168554Y-51249529D01*
X123160496Y-51227007D01*
X123154684Y-51203803D01*
X123151174Y-51180142D01*
X123150000Y-51156250D01*
X123150000Y-50243750D01*
X123151174Y-50219858D01*
X123154684Y-50196197D01*
X123160496Y-50172993D01*
X123168554Y-50150471D01*
X123178782Y-50128847D01*
X123191079Y-50108330D01*
X123205329Y-50089117D01*
X123221393Y-50071393D01*
X123239117Y-50055329D01*
X123258330Y-50041079D01*
X123278847Y-50028782D01*
X123300471Y-50018554D01*
X123322993Y-50010496D01*
X123346197Y-50004684D01*
X123369858Y-50001174D01*
X123393750Y-50000000D01*
X123881250Y-50000000D01*
X123905142Y-50001174D01*
G37*
G36*
X122030142Y-50001174D02*
G01*
X122053803Y-50004684D01*
X122077007Y-50010496D01*
X122099529Y-50018554D01*
X122121153Y-50028782D01*
X122141670Y-50041079D01*
X122160883Y-50055329D01*
X122178607Y-50071393D01*
X122194671Y-50089117D01*
X122208921Y-50108330D01*
X122221218Y-50128847D01*
X122231446Y-50150471D01*
X122239504Y-50172993D01*
X122245316Y-50196197D01*
X122248826Y-50219858D01*
X122250000Y-50243750D01*
X122250000Y-51156250D01*
X122248826Y-51180142D01*
X122245316Y-51203803D01*
X122239504Y-51227007D01*
X122231446Y-51249529D01*
X122221218Y-51271153D01*
X122208921Y-51291670D01*
X122194671Y-51310883D01*
X122178607Y-51328607D01*
X122160883Y-51344671D01*
X122141670Y-51358921D01*
X122121153Y-51371218D01*
X122099529Y-51381446D01*
X122077007Y-51389504D01*
X122053803Y-51395316D01*
X122030142Y-51398826D01*
X122006250Y-51400000D01*
X121518750Y-51400000D01*
X121494858Y-51398826D01*
X121471197Y-51395316D01*
X121447993Y-51389504D01*
X121425471Y-51381446D01*
X121403847Y-51371218D01*
X121383330Y-51358921D01*
X121364117Y-51344671D01*
X121346393Y-51328607D01*
X121330329Y-51310883D01*
X121316079Y-51291670D01*
X121303782Y-51271153D01*
X121293554Y-51249529D01*
X121285496Y-51227007D01*
X121279684Y-51203803D01*
X121276174Y-51180142D01*
X121275000Y-51156250D01*
X121275000Y-50243750D01*
X121276174Y-50219858D01*
X121279684Y-50196197D01*
X121285496Y-50172993D01*
X121293554Y-50150471D01*
X121303782Y-50128847D01*
X121316079Y-50108330D01*
X121330329Y-50089117D01*
X121346393Y-50071393D01*
X121364117Y-50055329D01*
X121383330Y-50041079D01*
X121403847Y-50028782D01*
X121425471Y-50018554D01*
X121447993Y-50010496D01*
X121471197Y-50004684D01*
X121494858Y-50001174D01*
X121518750Y-50000000D01*
X122006250Y-50000000D01*
X122030142Y-50001174D01*
G37*
M02*
