G04 #@! TF.GenerationSoftware,KiCad,Pcbnew,(5.1.5)-3*
G04 #@! TF.CreationDate,2020-04-17T15:53:13-04:00*
G04 #@! TF.ProjectId,Flying_MX,466c7969-6e67-45f4-9d58-2e6b69636164,rev?*
G04 #@! TF.SameCoordinates,Original*
G04 #@! TF.FileFunction,Soldermask,Bot*
G04 #@! TF.FilePolarity,Negative*
%FSLAX46Y46*%
G04 Gerber Fmt 4.6, Leading zero omitted, Abs format (unit mm)*
G04 Created by KiCad (PCBNEW (5.1.5)-3) date 2020-04-17 15:53:13*
%MOMM*%
%LPD*%
G04 APERTURE LIST*
%ADD10C,0.010000*%
%ADD11C,0.100000*%
G04 APERTURE END LIST*
D10*
G36*
X114565190Y-46145818D02*
G01*
X114688198Y-46145071D01*
X114703004Y-46144972D01*
X115199503Y-46141650D01*
X115234386Y-46014650D01*
X115249703Y-45958482D01*
X115269547Y-45885128D01*
X115291932Y-45801953D01*
X115314875Y-45716325D01*
X115329026Y-45663297D01*
X115388783Y-45438943D01*
X115504286Y-45398609D01*
X115571610Y-45373513D01*
X115647763Y-45342706D01*
X115718863Y-45311856D01*
X115735385Y-45304258D01*
X115850981Y-45250239D01*
X116167519Y-45432483D01*
X116484057Y-45614726D01*
X116835178Y-45263773D01*
X117186298Y-44912821D01*
X117027683Y-44638236D01*
X116982511Y-44560039D01*
X116940217Y-44486828D01*
X116902890Y-44422222D01*
X116872623Y-44369839D01*
X116851505Y-44333298D01*
X116843285Y-44319082D01*
X116817502Y-44274513D01*
X116865791Y-44179382D01*
X116891514Y-44124692D01*
X116920559Y-44056699D01*
X116948385Y-43986256D01*
X116961165Y-43951419D01*
X117008249Y-43818587D01*
X117365424Y-43723711D01*
X117722600Y-43628835D01*
X117722600Y-42634080D01*
X117006612Y-42443726D01*
X116970826Y-42336888D01*
X116948587Y-42276060D01*
X116919679Y-42204621D01*
X116889034Y-42134558D01*
X116876799Y-42108359D01*
X116818559Y-41986668D01*
X117186281Y-41353750D01*
X116834830Y-41000868D01*
X116483378Y-40647986D01*
X116167256Y-40830659D01*
X115851134Y-41013333D01*
X115735461Y-40959279D01*
X115668099Y-40929385D01*
X115591948Y-40898008D01*
X115520877Y-40870809D01*
X115504286Y-40864892D01*
X115388783Y-40824558D01*
X115328931Y-40600204D01*
X115306705Y-40516912D01*
X115283859Y-40431328D01*
X115262359Y-40350814D01*
X115244169Y-40282731D01*
X115235111Y-40248850D01*
X115201143Y-40121850D01*
X114703824Y-40118529D01*
X114578093Y-40117749D01*
X114475402Y-40117311D01*
X114393390Y-40117305D01*
X114329698Y-40117821D01*
X114281966Y-40118947D01*
X114247835Y-40120772D01*
X114224944Y-40123386D01*
X114210935Y-40126878D01*
X114203447Y-40131338D01*
X114200121Y-40136853D01*
X114199893Y-40137579D01*
X114194770Y-40156076D01*
X114184169Y-40195189D01*
X114169148Y-40250988D01*
X114150764Y-40319542D01*
X114130075Y-40396924D01*
X114122141Y-40426650D01*
X114099954Y-40509667D01*
X114078815Y-40588465D01*
X114060008Y-40658283D01*
X114044818Y-40714356D01*
X114034527Y-40751921D01*
X114032768Y-40758227D01*
X114014535Y-40823104D01*
X113900443Y-40863916D01*
X113833829Y-40889462D01*
X113758487Y-40920973D01*
X113688190Y-40952632D01*
X113672153Y-40960310D01*
X113557954Y-41015891D01*
X113238507Y-40830720D01*
X112919059Y-40645548D01*
X112568104Y-40996627D01*
X112217150Y-41347707D01*
X112237099Y-41382479D01*
X112248784Y-41402803D01*
X112271187Y-41441730D01*
X112302345Y-41495852D01*
X112340298Y-41561762D01*
X112383083Y-41636053D01*
X112419584Y-41699425D01*
X112582121Y-41981600D01*
X112523965Y-42112175D01*
X112495346Y-42178537D01*
X112466287Y-42249433D01*
X112441142Y-42314099D01*
X112430380Y-42343613D01*
X112394950Y-42444476D01*
X112055780Y-42535716D01*
X111966176Y-42559900D01*
X111884019Y-42582226D01*
X111812680Y-42601765D01*
X111755531Y-42617588D01*
X111715943Y-42628769D01*
X111697288Y-42634378D01*
X111696856Y-42634537D01*
X111691818Y-42638759D01*
X111687752Y-42648715D01*
X111684579Y-42666732D01*
X111682223Y-42695136D01*
X111680609Y-42736253D01*
X111680304Y-42754317D01*
X113334083Y-42754317D01*
X113334482Y-42739132D01*
X113343359Y-42706104D01*
X113358762Y-42660551D01*
X113378737Y-42607787D01*
X113401331Y-42553130D01*
X113424590Y-42501895D01*
X113433388Y-42484050D01*
X113525671Y-42329480D01*
X113638635Y-42186704D01*
X113769308Y-42058284D01*
X113914719Y-41946781D01*
X114071897Y-41854755D01*
X114237870Y-41784768D01*
X114249031Y-41780996D01*
X114288634Y-41768239D01*
X114316884Y-41759939D01*
X114327146Y-41757915D01*
X114330788Y-41770264D01*
X114340154Y-41804213D01*
X114354448Y-41856816D01*
X114372874Y-41925124D01*
X114394635Y-42006190D01*
X114418934Y-42097065D01*
X114432384Y-42147500D01*
X114457964Y-42243407D01*
X114481647Y-42332004D01*
X114502588Y-42410152D01*
X114519944Y-42474708D01*
X114532872Y-42522531D01*
X114540527Y-42550480D01*
X114542094Y-42555956D01*
X114541442Y-42560250D01*
X114865359Y-42560250D01*
X114868450Y-42545947D01*
X114877186Y-42510724D01*
X114890615Y-42458189D01*
X114907782Y-42391950D01*
X114927731Y-42315613D01*
X114949510Y-42232787D01*
X114972163Y-42147078D01*
X114994735Y-42062096D01*
X115016274Y-41981447D01*
X115035824Y-41908738D01*
X115052430Y-41847578D01*
X115065139Y-41801574D01*
X115072997Y-41774334D01*
X115074507Y-41769665D01*
X115088554Y-41765594D01*
X115120987Y-41771452D01*
X115167528Y-41785697D01*
X115223901Y-41806787D01*
X115285829Y-41833183D01*
X115349034Y-41863342D01*
X115381563Y-41880311D01*
X115541156Y-41980605D01*
X115684722Y-42100528D01*
X115811685Y-42239551D01*
X115891985Y-42350399D01*
X115931809Y-42415874D01*
X115971581Y-42489647D01*
X116008155Y-42565070D01*
X116038386Y-42635499D01*
X116059125Y-42694286D01*
X116064399Y-42714597D01*
X116067940Y-42742366D01*
X116058387Y-42757141D01*
X116031064Y-42768019D01*
X116002910Y-42776342D01*
X115956476Y-42789337D01*
X115895349Y-42806055D01*
X115823115Y-42825553D01*
X115743362Y-42846883D01*
X115659675Y-42869100D01*
X115575642Y-42891258D01*
X115494849Y-42912411D01*
X115420883Y-42931613D01*
X115357330Y-42947918D01*
X115307778Y-42960380D01*
X115275813Y-42968053D01*
X115265010Y-42970059D01*
X115258664Y-42957765D01*
X115244435Y-42928473D01*
X115225229Y-42888178D01*
X115222478Y-42882359D01*
X115163404Y-42785699D01*
X115085107Y-42701453D01*
X114992593Y-42634621D01*
X114954430Y-42614680D01*
X114912266Y-42593356D01*
X114880867Y-42574591D01*
X114865889Y-42561840D01*
X114865359Y-42560250D01*
X114541442Y-42560250D01*
X114539467Y-42573254D01*
X114515777Y-42584194D01*
X114510618Y-42585405D01*
X114468156Y-42601599D01*
X114415228Y-42631714D01*
X114358676Y-42671081D01*
X114305339Y-42715028D01*
X114270464Y-42749377D01*
X114238207Y-42789703D01*
X114206508Y-42837811D01*
X114179296Y-42886691D01*
X114160502Y-42929329D01*
X114154024Y-42957125D01*
X114147856Y-42971854D01*
X114144375Y-42972926D01*
X114129273Y-42969720D01*
X114093475Y-42960796D01*
X114040511Y-42947105D01*
X113973909Y-42929599D01*
X113897198Y-42909230D01*
X113813909Y-42886951D01*
X113727570Y-42863713D01*
X113641710Y-42840470D01*
X113559858Y-42818171D01*
X113485544Y-42797771D01*
X113422296Y-42780221D01*
X113373644Y-42766473D01*
X113343118Y-42757480D01*
X113334083Y-42754317D01*
X111680304Y-42754317D01*
X111679660Y-42792409D01*
X111679299Y-42865928D01*
X111679449Y-42959138D01*
X111680036Y-43074363D01*
X111680425Y-43134584D01*
X111682971Y-43511813D01*
X113333473Y-43511813D01*
X113334489Y-43508778D01*
X113347717Y-43504157D01*
X113381953Y-43494016D01*
X113433643Y-43479317D01*
X113499237Y-43461020D01*
X113575183Y-43440086D01*
X113657928Y-43417476D01*
X113743920Y-43394153D01*
X113829608Y-43371076D01*
X113911439Y-43349207D01*
X113985862Y-43329506D01*
X114049324Y-43312936D01*
X114098275Y-43300456D01*
X114129160Y-43293029D01*
X114138025Y-43291355D01*
X114152785Y-43300422D01*
X114154024Y-43306375D01*
X114159164Y-43325950D01*
X114172298Y-43359830D01*
X114185115Y-43388766D01*
X114233712Y-43468295D01*
X114300965Y-43543736D01*
X114380201Y-43609078D01*
X114464751Y-43658310D01*
X114500308Y-43672761D01*
X114529265Y-43686190D01*
X114543327Y-43699346D01*
X114543483Y-43702747D01*
X114543339Y-43703250D01*
X114865359Y-43703250D01*
X114876167Y-43692140D01*
X114904519Y-43674370D01*
X114944687Y-43653461D01*
X114952317Y-43649829D01*
X115048224Y-43591568D01*
X115132614Y-43514166D01*
X115200140Y-43422980D01*
X115224276Y-43377433D01*
X115244426Y-43335941D01*
X115260860Y-43305319D01*
X115270517Y-43291202D01*
X115271314Y-43290849D01*
X115284723Y-43294112D01*
X115319694Y-43303204D01*
X115373266Y-43317338D01*
X115442477Y-43335728D01*
X115524365Y-43357588D01*
X115615969Y-43382132D01*
X115671550Y-43397064D01*
X116065250Y-43502932D01*
X116062044Y-43542631D01*
X116052993Y-43583921D01*
X116032621Y-43641035D01*
X116003460Y-43708508D01*
X115968042Y-43780875D01*
X115928897Y-43852669D01*
X115888557Y-43918424D01*
X115886723Y-43921201D01*
X115774658Y-44067574D01*
X115643492Y-44198644D01*
X115495731Y-44312464D01*
X115333876Y-44407088D01*
X115172632Y-44476251D01*
X115122113Y-44493035D01*
X115091176Y-44499659D01*
X115076397Y-44496732D01*
X115074460Y-44493712D01*
X115068692Y-44474521D01*
X115057711Y-44435200D01*
X115042471Y-44379359D01*
X115023927Y-44310604D01*
X115003033Y-44232543D01*
X114980744Y-44148784D01*
X114958013Y-44062935D01*
X114935795Y-43978602D01*
X114915044Y-43899395D01*
X114896716Y-43828920D01*
X114881763Y-43770785D01*
X114871141Y-43728599D01*
X114865803Y-43705968D01*
X114865359Y-43703250D01*
X114543339Y-43703250D01*
X114539153Y-43717833D01*
X114529111Y-43754439D01*
X114514174Y-43809541D01*
X114495157Y-43880113D01*
X114472877Y-43963129D01*
X114448149Y-44055564D01*
X114433281Y-44111272D01*
X114327863Y-44506594D01*
X114286237Y-44495100D01*
X114137300Y-44441733D01*
X113990960Y-44365899D01*
X113850694Y-44270518D01*
X113719979Y-44158509D01*
X113602295Y-44032789D01*
X113501118Y-43896279D01*
X113433477Y-43779450D01*
X113410033Y-43730114D01*
X113386722Y-43675620D01*
X113365476Y-43621254D01*
X113348230Y-43572306D01*
X113336918Y-43534064D01*
X113333473Y-43511813D01*
X111682971Y-43511813D01*
X111683750Y-43627050D01*
X112394950Y-43818184D01*
X112430380Y-43919467D01*
X112451434Y-43976132D01*
X112478847Y-44045030D01*
X112508259Y-44115365D01*
X112523965Y-44151326D01*
X112582121Y-44281901D01*
X112419584Y-44564076D01*
X112374340Y-44642628D01*
X112332354Y-44715533D01*
X112295588Y-44779384D01*
X112266004Y-44830774D01*
X112245564Y-44866296D01*
X112237099Y-44881022D01*
X112217150Y-44915794D01*
X112918682Y-45617576D01*
X113237791Y-45432694D01*
X113556899Y-45247812D01*
X113687124Y-45309771D01*
X113751803Y-45339260D01*
X113819974Y-45368243D01*
X113881591Y-45392536D01*
X113911504Y-45403210D01*
X113957422Y-45420246D01*
X113993594Y-45436796D01*
X114013388Y-45449752D01*
X114014788Y-45451620D01*
X114020422Y-45468081D01*
X114031546Y-45505639D01*
X114047190Y-45560824D01*
X114066380Y-45630170D01*
X114088146Y-45710208D01*
X114108478Y-45786050D01*
X114131644Y-45872920D01*
X114152911Y-45952464D01*
X114171328Y-46021141D01*
X114185945Y-46075409D01*
X114195809Y-46111727D01*
X114199772Y-46125922D01*
X114202796Y-46131573D01*
X114209703Y-46136155D01*
X114222854Y-46139757D01*
X114244613Y-46142470D01*
X114277341Y-46144383D01*
X114323401Y-46145585D01*
X114385154Y-46146165D01*
X114464963Y-46146213D01*
X114565190Y-46145818D01*
G37*
X114565190Y-46145818D02*
X114688198Y-46145071D01*
X114703004Y-46144972D01*
X115199503Y-46141650D01*
X115234386Y-46014650D01*
X115249703Y-45958482D01*
X115269547Y-45885128D01*
X115291932Y-45801953D01*
X115314875Y-45716325D01*
X115329026Y-45663297D01*
X115388783Y-45438943D01*
X115504286Y-45398609D01*
X115571610Y-45373513D01*
X115647763Y-45342706D01*
X115718863Y-45311856D01*
X115735385Y-45304258D01*
X115850981Y-45250239D01*
X116167519Y-45432483D01*
X116484057Y-45614726D01*
X116835178Y-45263773D01*
X117186298Y-44912821D01*
X117027683Y-44638236D01*
X116982511Y-44560039D01*
X116940217Y-44486828D01*
X116902890Y-44422222D01*
X116872623Y-44369839D01*
X116851505Y-44333298D01*
X116843285Y-44319082D01*
X116817502Y-44274513D01*
X116865791Y-44179382D01*
X116891514Y-44124692D01*
X116920559Y-44056699D01*
X116948385Y-43986256D01*
X116961165Y-43951419D01*
X117008249Y-43818587D01*
X117365424Y-43723711D01*
X117722600Y-43628835D01*
X117722600Y-42634080D01*
X117006612Y-42443726D01*
X116970826Y-42336888D01*
X116948587Y-42276060D01*
X116919679Y-42204621D01*
X116889034Y-42134558D01*
X116876799Y-42108359D01*
X116818559Y-41986668D01*
X117186281Y-41353750D01*
X116834830Y-41000868D01*
X116483378Y-40647986D01*
X116167256Y-40830659D01*
X115851134Y-41013333D01*
X115735461Y-40959279D01*
X115668099Y-40929385D01*
X115591948Y-40898008D01*
X115520877Y-40870809D01*
X115504286Y-40864892D01*
X115388783Y-40824558D01*
X115328931Y-40600204D01*
X115306705Y-40516912D01*
X115283859Y-40431328D01*
X115262359Y-40350814D01*
X115244169Y-40282731D01*
X115235111Y-40248850D01*
X115201143Y-40121850D01*
X114703824Y-40118529D01*
X114578093Y-40117749D01*
X114475402Y-40117311D01*
X114393390Y-40117305D01*
X114329698Y-40117821D01*
X114281966Y-40118947D01*
X114247835Y-40120772D01*
X114224944Y-40123386D01*
X114210935Y-40126878D01*
X114203447Y-40131338D01*
X114200121Y-40136853D01*
X114199893Y-40137579D01*
X114194770Y-40156076D01*
X114184169Y-40195189D01*
X114169148Y-40250988D01*
X114150764Y-40319542D01*
X114130075Y-40396924D01*
X114122141Y-40426650D01*
X114099954Y-40509667D01*
X114078815Y-40588465D01*
X114060008Y-40658283D01*
X114044818Y-40714356D01*
X114034527Y-40751921D01*
X114032768Y-40758227D01*
X114014535Y-40823104D01*
X113900443Y-40863916D01*
X113833829Y-40889462D01*
X113758487Y-40920973D01*
X113688190Y-40952632D01*
X113672153Y-40960310D01*
X113557954Y-41015891D01*
X113238507Y-40830720D01*
X112919059Y-40645548D01*
X112568104Y-40996627D01*
X112217150Y-41347707D01*
X112237099Y-41382479D01*
X112248784Y-41402803D01*
X112271187Y-41441730D01*
X112302345Y-41495852D01*
X112340298Y-41561762D01*
X112383083Y-41636053D01*
X112419584Y-41699425D01*
X112582121Y-41981600D01*
X112523965Y-42112175D01*
X112495346Y-42178537D01*
X112466287Y-42249433D01*
X112441142Y-42314099D01*
X112430380Y-42343613D01*
X112394950Y-42444476D01*
X112055780Y-42535716D01*
X111966176Y-42559900D01*
X111884019Y-42582226D01*
X111812680Y-42601765D01*
X111755531Y-42617588D01*
X111715943Y-42628769D01*
X111697288Y-42634378D01*
X111696856Y-42634537D01*
X111691818Y-42638759D01*
X111687752Y-42648715D01*
X111684579Y-42666732D01*
X111682223Y-42695136D01*
X111680609Y-42736253D01*
X111680304Y-42754317D01*
X113334083Y-42754317D01*
X113334482Y-42739132D01*
X113343359Y-42706104D01*
X113358762Y-42660551D01*
X113378737Y-42607787D01*
X113401331Y-42553130D01*
X113424590Y-42501895D01*
X113433388Y-42484050D01*
X113525671Y-42329480D01*
X113638635Y-42186704D01*
X113769308Y-42058284D01*
X113914719Y-41946781D01*
X114071897Y-41854755D01*
X114237870Y-41784768D01*
X114249031Y-41780996D01*
X114288634Y-41768239D01*
X114316884Y-41759939D01*
X114327146Y-41757915D01*
X114330788Y-41770264D01*
X114340154Y-41804213D01*
X114354448Y-41856816D01*
X114372874Y-41925124D01*
X114394635Y-42006190D01*
X114418934Y-42097065D01*
X114432384Y-42147500D01*
X114457964Y-42243407D01*
X114481647Y-42332004D01*
X114502588Y-42410152D01*
X114519944Y-42474708D01*
X114532872Y-42522531D01*
X114540527Y-42550480D01*
X114542094Y-42555956D01*
X114541442Y-42560250D01*
X114865359Y-42560250D01*
X114868450Y-42545947D01*
X114877186Y-42510724D01*
X114890615Y-42458189D01*
X114907782Y-42391950D01*
X114927731Y-42315613D01*
X114949510Y-42232787D01*
X114972163Y-42147078D01*
X114994735Y-42062096D01*
X115016274Y-41981447D01*
X115035824Y-41908738D01*
X115052430Y-41847578D01*
X115065139Y-41801574D01*
X115072997Y-41774334D01*
X115074507Y-41769665D01*
X115088554Y-41765594D01*
X115120987Y-41771452D01*
X115167528Y-41785697D01*
X115223901Y-41806787D01*
X115285829Y-41833183D01*
X115349034Y-41863342D01*
X115381563Y-41880311D01*
X115541156Y-41980605D01*
X115684722Y-42100528D01*
X115811685Y-42239551D01*
X115891985Y-42350399D01*
X115931809Y-42415874D01*
X115971581Y-42489647D01*
X116008155Y-42565070D01*
X116038386Y-42635499D01*
X116059125Y-42694286D01*
X116064399Y-42714597D01*
X116067940Y-42742366D01*
X116058387Y-42757141D01*
X116031064Y-42768019D01*
X116002910Y-42776342D01*
X115956476Y-42789337D01*
X115895349Y-42806055D01*
X115823115Y-42825553D01*
X115743362Y-42846883D01*
X115659675Y-42869100D01*
X115575642Y-42891258D01*
X115494849Y-42912411D01*
X115420883Y-42931613D01*
X115357330Y-42947918D01*
X115307778Y-42960380D01*
X115275813Y-42968053D01*
X115265010Y-42970059D01*
X115258664Y-42957765D01*
X115244435Y-42928473D01*
X115225229Y-42888178D01*
X115222478Y-42882359D01*
X115163404Y-42785699D01*
X115085107Y-42701453D01*
X114992593Y-42634621D01*
X114954430Y-42614680D01*
X114912266Y-42593356D01*
X114880867Y-42574591D01*
X114865889Y-42561840D01*
X114865359Y-42560250D01*
X114541442Y-42560250D01*
X114539467Y-42573254D01*
X114515777Y-42584194D01*
X114510618Y-42585405D01*
X114468156Y-42601599D01*
X114415228Y-42631714D01*
X114358676Y-42671081D01*
X114305339Y-42715028D01*
X114270464Y-42749377D01*
X114238207Y-42789703D01*
X114206508Y-42837811D01*
X114179296Y-42886691D01*
X114160502Y-42929329D01*
X114154024Y-42957125D01*
X114147856Y-42971854D01*
X114144375Y-42972926D01*
X114129273Y-42969720D01*
X114093475Y-42960796D01*
X114040511Y-42947105D01*
X113973909Y-42929599D01*
X113897198Y-42909230D01*
X113813909Y-42886951D01*
X113727570Y-42863713D01*
X113641710Y-42840470D01*
X113559858Y-42818171D01*
X113485544Y-42797771D01*
X113422296Y-42780221D01*
X113373644Y-42766473D01*
X113343118Y-42757480D01*
X113334083Y-42754317D01*
X111680304Y-42754317D01*
X111679660Y-42792409D01*
X111679299Y-42865928D01*
X111679449Y-42959138D01*
X111680036Y-43074363D01*
X111680425Y-43134584D01*
X111682971Y-43511813D01*
X113333473Y-43511813D01*
X113334489Y-43508778D01*
X113347717Y-43504157D01*
X113381953Y-43494016D01*
X113433643Y-43479317D01*
X113499237Y-43461020D01*
X113575183Y-43440086D01*
X113657928Y-43417476D01*
X113743920Y-43394153D01*
X113829608Y-43371076D01*
X113911439Y-43349207D01*
X113985862Y-43329506D01*
X114049324Y-43312936D01*
X114098275Y-43300456D01*
X114129160Y-43293029D01*
X114138025Y-43291355D01*
X114152785Y-43300422D01*
X114154024Y-43306375D01*
X114159164Y-43325950D01*
X114172298Y-43359830D01*
X114185115Y-43388766D01*
X114233712Y-43468295D01*
X114300965Y-43543736D01*
X114380201Y-43609078D01*
X114464751Y-43658310D01*
X114500308Y-43672761D01*
X114529265Y-43686190D01*
X114543327Y-43699346D01*
X114543483Y-43702747D01*
X114543339Y-43703250D01*
X114865359Y-43703250D01*
X114876167Y-43692140D01*
X114904519Y-43674370D01*
X114944687Y-43653461D01*
X114952317Y-43649829D01*
X115048224Y-43591568D01*
X115132614Y-43514166D01*
X115200140Y-43422980D01*
X115224276Y-43377433D01*
X115244426Y-43335941D01*
X115260860Y-43305319D01*
X115270517Y-43291202D01*
X115271314Y-43290849D01*
X115284723Y-43294112D01*
X115319694Y-43303204D01*
X115373266Y-43317338D01*
X115442477Y-43335728D01*
X115524365Y-43357588D01*
X115615969Y-43382132D01*
X115671550Y-43397064D01*
X116065250Y-43502932D01*
X116062044Y-43542631D01*
X116052993Y-43583921D01*
X116032621Y-43641035D01*
X116003460Y-43708508D01*
X115968042Y-43780875D01*
X115928897Y-43852669D01*
X115888557Y-43918424D01*
X115886723Y-43921201D01*
X115774658Y-44067574D01*
X115643492Y-44198644D01*
X115495731Y-44312464D01*
X115333876Y-44407088D01*
X115172632Y-44476251D01*
X115122113Y-44493035D01*
X115091176Y-44499659D01*
X115076397Y-44496732D01*
X115074460Y-44493712D01*
X115068692Y-44474521D01*
X115057711Y-44435200D01*
X115042471Y-44379359D01*
X115023927Y-44310604D01*
X115003033Y-44232543D01*
X114980744Y-44148784D01*
X114958013Y-44062935D01*
X114935795Y-43978602D01*
X114915044Y-43899395D01*
X114896716Y-43828920D01*
X114881763Y-43770785D01*
X114871141Y-43728599D01*
X114865803Y-43705968D01*
X114865359Y-43703250D01*
X114543339Y-43703250D01*
X114539153Y-43717833D01*
X114529111Y-43754439D01*
X114514174Y-43809541D01*
X114495157Y-43880113D01*
X114472877Y-43963129D01*
X114448149Y-44055564D01*
X114433281Y-44111272D01*
X114327863Y-44506594D01*
X114286237Y-44495100D01*
X114137300Y-44441733D01*
X113990960Y-44365899D01*
X113850694Y-44270518D01*
X113719979Y-44158509D01*
X113602295Y-44032789D01*
X113501118Y-43896279D01*
X113433477Y-43779450D01*
X113410033Y-43730114D01*
X113386722Y-43675620D01*
X113365476Y-43621254D01*
X113348230Y-43572306D01*
X113336918Y-43534064D01*
X113333473Y-43511813D01*
X111682971Y-43511813D01*
X111683750Y-43627050D01*
X112394950Y-43818184D01*
X112430380Y-43919467D01*
X112451434Y-43976132D01*
X112478847Y-44045030D01*
X112508259Y-44115365D01*
X112523965Y-44151326D01*
X112582121Y-44281901D01*
X112419584Y-44564076D01*
X112374340Y-44642628D01*
X112332354Y-44715533D01*
X112295588Y-44779384D01*
X112266004Y-44830774D01*
X112245564Y-44866296D01*
X112237099Y-44881022D01*
X112217150Y-44915794D01*
X112918682Y-45617576D01*
X113237791Y-45432694D01*
X113556899Y-45247812D01*
X113687124Y-45309771D01*
X113751803Y-45339260D01*
X113819974Y-45368243D01*
X113881591Y-45392536D01*
X113911504Y-45403210D01*
X113957422Y-45420246D01*
X113993594Y-45436796D01*
X114013388Y-45449752D01*
X114014788Y-45451620D01*
X114020422Y-45468081D01*
X114031546Y-45505639D01*
X114047190Y-45560824D01*
X114066380Y-45630170D01*
X114088146Y-45710208D01*
X114108478Y-45786050D01*
X114131644Y-45872920D01*
X114152911Y-45952464D01*
X114171328Y-46021141D01*
X114185945Y-46075409D01*
X114195809Y-46111727D01*
X114199772Y-46125922D01*
X114202796Y-46131573D01*
X114209703Y-46136155D01*
X114222854Y-46139757D01*
X114244613Y-46142470D01*
X114277341Y-46144383D01*
X114323401Y-46145585D01*
X114385154Y-46146165D01*
X114464963Y-46146213D01*
X114565190Y-46145818D01*
G36*
X115506450Y-46516213D02*
G01*
X115612744Y-46117834D01*
X115719038Y-45719456D01*
X115762400Y-45698778D01*
X115795526Y-45685108D01*
X115820810Y-45678278D01*
X115823503Y-45678100D01*
X115838478Y-45684248D01*
X115872627Y-45701676D01*
X115923182Y-45728867D01*
X115987380Y-45764301D01*
X116062453Y-45806458D01*
X116145637Y-45853820D01*
X116194128Y-45881702D01*
X116547012Y-46085303D01*
X117685807Y-44946508D01*
X117481953Y-44593776D01*
X117432305Y-44507335D01*
X117387025Y-44427477D01*
X117347635Y-44356965D01*
X117315657Y-44298562D01*
X117292611Y-44255033D01*
X117280019Y-44229140D01*
X117278100Y-44223403D01*
X117283294Y-44200844D01*
X117296064Y-44168241D01*
X117298753Y-44162452D01*
X117319406Y-44119142D01*
X118116300Y-43907198D01*
X118116300Y-42293463D01*
X117319268Y-42080569D01*
X117298684Y-42037404D01*
X117285051Y-42004364D01*
X117278267Y-41979200D01*
X117278100Y-41976598D01*
X117284254Y-41961652D01*
X117301704Y-41927540D01*
X117328927Y-41877026D01*
X117364404Y-41812873D01*
X117406612Y-41737845D01*
X117454032Y-41654705D01*
X117481953Y-41606225D01*
X117685807Y-41253493D01*
X116547012Y-40114698D01*
X116194128Y-40318299D01*
X116107646Y-40367888D01*
X116027744Y-40413112D01*
X115957188Y-40452453D01*
X115898744Y-40484392D01*
X115855177Y-40507409D01*
X115829253Y-40519985D01*
X115823503Y-40521900D01*
X115800876Y-40516704D01*
X115768224Y-40503928D01*
X115762400Y-40501223D01*
X115719038Y-40480545D01*
X115612744Y-40082167D01*
X115506450Y-39683788D01*
X113893550Y-39683768D01*
X113680602Y-40480716D01*
X113637420Y-40501308D01*
X113604351Y-40514946D01*
X113579134Y-40521732D01*
X113576520Y-40521900D01*
X113561559Y-40515739D01*
X113527441Y-40498268D01*
X113476930Y-40471013D01*
X113412789Y-40435495D01*
X113337783Y-40393239D01*
X113254675Y-40345766D01*
X113206321Y-40317874D01*
X112853838Y-40113847D01*
X111714192Y-41253493D01*
X111918046Y-41606225D01*
X111967694Y-41692666D01*
X112012974Y-41772524D01*
X112052364Y-41843036D01*
X112084342Y-41901439D01*
X112107388Y-41944968D01*
X112119980Y-41970861D01*
X112121900Y-41976598D01*
X112116705Y-41999127D01*
X112103926Y-42031769D01*
X112101125Y-42037802D01*
X112096844Y-42047711D01*
X112093037Y-42056072D01*
X112087658Y-42063554D01*
X112078663Y-42070822D01*
X112064005Y-42078547D01*
X112041640Y-42087394D01*
X112009522Y-42098032D01*
X111965605Y-42111127D01*
X111907844Y-42127349D01*
X111834193Y-42147364D01*
X111742608Y-42171841D01*
X111631042Y-42201446D01*
X111497451Y-42236847D01*
X111464675Y-42245540D01*
X111283700Y-42293550D01*
X111283700Y-43768071D01*
X111461499Y-43768071D01*
X111461500Y-43100001D01*
X111461500Y-42431930D01*
X111813925Y-42338518D01*
X111905772Y-42314085D01*
X111990589Y-42291351D01*
X112064985Y-42271240D01*
X112125570Y-42254674D01*
X112168954Y-42242574D01*
X112191745Y-42235864D01*
X112193335Y-42235323D01*
X112216302Y-42215136D01*
X112241180Y-42171381D01*
X112252390Y-42145244D01*
X112272988Y-42093944D01*
X112293517Y-42043249D01*
X112306395Y-42011768D01*
X112328330Y-41958586D01*
X112146864Y-41643468D01*
X112099551Y-41561361D01*
X112055873Y-41485665D01*
X112017578Y-41419400D01*
X111986413Y-41365587D01*
X111964126Y-41327244D01*
X111952463Y-41307394D01*
X111951673Y-41306091D01*
X111950596Y-41299095D01*
X111954918Y-41287971D01*
X111965963Y-41271294D01*
X111985051Y-41247635D01*
X112013506Y-41215568D01*
X112052651Y-41173664D01*
X112103807Y-41120498D01*
X112168298Y-41054641D01*
X112247446Y-40974666D01*
X112342574Y-40879146D01*
X112407684Y-40813966D01*
X112497876Y-40723902D01*
X112582690Y-40639504D01*
X112660427Y-40562440D01*
X112729393Y-40494378D01*
X112787892Y-40436985D01*
X112834227Y-40391928D01*
X112866702Y-40360875D01*
X112883621Y-40345492D01*
X112885646Y-40344100D01*
X112898297Y-40350222D01*
X112930144Y-40367549D01*
X112978424Y-40394521D01*
X113040373Y-40429580D01*
X113113226Y-40471167D01*
X113194221Y-40517723D01*
X113225543Y-40535806D01*
X113320445Y-40590504D01*
X113395998Y-40633556D01*
X113454740Y-40666198D01*
X113499210Y-40689669D01*
X113531946Y-40705209D01*
X113555487Y-40714054D01*
X113572374Y-40717443D01*
X113585143Y-40716615D01*
X113592031Y-40714555D01*
X113619837Y-40703649D01*
X113662997Y-40686102D01*
X113713482Y-40665190D01*
X113728450Y-40658920D01*
X113830050Y-40616241D01*
X113930842Y-40238871D01*
X114031634Y-39861500D01*
X115368365Y-39861500D01*
X115469157Y-40238964D01*
X115569950Y-40616428D01*
X115706107Y-40672063D01*
X115842265Y-40727699D01*
X116169179Y-40539075D01*
X116252179Y-40491321D01*
X116328303Y-40447785D01*
X116394707Y-40410072D01*
X116448547Y-40379786D01*
X116486981Y-40358534D01*
X116507166Y-40347921D01*
X116509271Y-40347043D01*
X116520518Y-40355116D01*
X116547934Y-40379569D01*
X116589807Y-40418746D01*
X116644421Y-40470991D01*
X116710064Y-40534649D01*
X116785021Y-40608062D01*
X116867579Y-40689575D01*
X116956022Y-40777531D01*
X116992251Y-40813734D01*
X117097572Y-40919275D01*
X117186125Y-41008414D01*
X117259233Y-41082578D01*
X117318216Y-41143194D01*
X117364397Y-41191689D01*
X117399098Y-41229491D01*
X117423641Y-41258027D01*
X117439349Y-41278724D01*
X117447543Y-41293009D01*
X117449546Y-41302311D01*
X117448326Y-41306091D01*
X117438609Y-41322558D01*
X117417977Y-41358018D01*
X117388179Y-41409447D01*
X117350966Y-41473820D01*
X117308087Y-41548115D01*
X117261292Y-41629306D01*
X117253539Y-41642767D01*
X117200601Y-41734985D01*
X117159261Y-41807927D01*
X117128258Y-41864218D01*
X117106326Y-41906483D01*
X117092203Y-41937349D01*
X117084624Y-41959441D01*
X117082326Y-41975384D01*
X117084045Y-41987805D01*
X117085440Y-41992017D01*
X117096354Y-42019825D01*
X117113921Y-42062984D01*
X117134863Y-42113465D01*
X117141150Y-42128450D01*
X117183899Y-42230050D01*
X117561199Y-42330891D01*
X117938500Y-42431732D01*
X117938500Y-43768269D01*
X117561199Y-43869110D01*
X117183899Y-43969950D01*
X117141150Y-44071550D01*
X117119842Y-44122656D01*
X117100949Y-44168787D01*
X117087750Y-44201914D01*
X117085440Y-44207984D01*
X117082559Y-44219768D01*
X117083230Y-44234108D01*
X117088715Y-44253628D01*
X117100279Y-44280954D01*
X117119186Y-44318713D01*
X117146699Y-44369529D01*
X117184082Y-44436028D01*
X117232598Y-44520836D01*
X117253539Y-44557234D01*
X117300800Y-44639250D01*
X117344425Y-44714854D01*
X117382665Y-44781023D01*
X117413769Y-44834731D01*
X117435989Y-44872956D01*
X117447575Y-44892672D01*
X117448326Y-44893910D01*
X117449403Y-44900906D01*
X117445080Y-44912031D01*
X117434038Y-44928712D01*
X117414952Y-44952375D01*
X117386502Y-44984448D01*
X117347364Y-45026359D01*
X117296218Y-45079534D01*
X117231741Y-45145401D01*
X117152610Y-45225388D01*
X117057504Y-45320920D01*
X116992251Y-45386267D01*
X116901952Y-45476315D01*
X116816862Y-45560575D01*
X116738694Y-45637389D01*
X116669162Y-45705103D01*
X116609980Y-45762061D01*
X116562863Y-45806605D01*
X116529524Y-45837080D01*
X116511677Y-45851829D01*
X116509271Y-45852958D01*
X116495312Y-45845964D01*
X116462224Y-45827834D01*
X116412848Y-45800173D01*
X116350030Y-45764587D01*
X116276611Y-45722682D01*
X116195436Y-45676063D01*
X116169179Y-45660926D01*
X115842265Y-45472302D01*
X115706107Y-45527938D01*
X115569950Y-45583573D01*
X115469157Y-45961037D01*
X115368365Y-46338500D01*
X114699999Y-46338500D01*
X114031634Y-46338501D01*
X113930842Y-45961130D01*
X113830050Y-45583760D01*
X113728450Y-45541081D01*
X113677340Y-45519804D01*
X113631211Y-45500935D01*
X113598091Y-45487752D01*
X113592031Y-45485446D01*
X113580531Y-45482644D01*
X113566470Y-45483301D01*
X113547311Y-45488653D01*
X113520514Y-45499941D01*
X113483541Y-45518401D01*
X113433852Y-45545273D01*
X113368909Y-45581794D01*
X113286173Y-45629204D01*
X113225543Y-45664195D01*
X113142247Y-45712188D01*
X113066075Y-45755786D01*
X112999790Y-45793430D01*
X112946156Y-45823561D01*
X112907937Y-45844620D01*
X112887897Y-45855048D01*
X112885646Y-45855900D01*
X112875351Y-45847179D01*
X112848829Y-45822128D01*
X112807775Y-45782413D01*
X112753887Y-45729702D01*
X112688861Y-45665662D01*
X112614391Y-45591961D01*
X112532175Y-45510266D01*
X112443908Y-45422245D01*
X112407684Y-45386035D01*
X112302362Y-45280531D01*
X112213811Y-45191426D01*
X112140709Y-45117293D01*
X112081733Y-45056704D01*
X112035559Y-45008233D01*
X112000867Y-44970452D01*
X111976333Y-44941933D01*
X111960634Y-44921250D01*
X111952449Y-44906975D01*
X111950454Y-44897681D01*
X111951673Y-44893910D01*
X111961386Y-44877449D01*
X111982017Y-44841992D01*
X112011818Y-44790557D01*
X112049041Y-44726165D01*
X112091940Y-44651837D01*
X112138767Y-44570593D01*
X112146864Y-44556533D01*
X112328330Y-44241415D01*
X112306395Y-44188233D01*
X112289637Y-44147205D01*
X112268678Y-44095360D01*
X112252390Y-44054757D01*
X112227017Y-44001208D01*
X112203080Y-43970505D01*
X112193335Y-43964678D01*
X112174403Y-43958981D01*
X112134300Y-43947738D01*
X112076415Y-43931870D01*
X112004140Y-43912299D01*
X111920864Y-43889949D01*
X111829978Y-43865740D01*
X111813925Y-43861483D01*
X111461499Y-43768071D01*
X111283700Y-43768071D01*
X111283700Y-43906450D01*
X111464675Y-43954461D01*
X111603422Y-43991237D01*
X111719690Y-44022068D01*
X111815525Y-44047623D01*
X111892971Y-44068569D01*
X111954076Y-44085573D01*
X112000883Y-44099304D01*
X112035438Y-44110429D01*
X112059787Y-44119615D01*
X112075976Y-44127530D01*
X112086049Y-44134842D01*
X112092053Y-44142219D01*
X112096032Y-44150328D01*
X112100032Y-44159836D01*
X112101125Y-44162199D01*
X112114830Y-44195347D01*
X112121710Y-44220628D01*
X112121900Y-44223403D01*
X112115745Y-44238349D01*
X112098295Y-44272461D01*
X112071072Y-44322975D01*
X112035595Y-44387128D01*
X111993387Y-44462156D01*
X111945967Y-44545296D01*
X111918046Y-44593776D01*
X111714192Y-44946508D01*
X112853781Y-46086097D01*
X113206762Y-45882099D01*
X113293215Y-45832436D01*
X113373064Y-45787141D01*
X113443552Y-45747734D01*
X113501921Y-45715735D01*
X113545410Y-45692663D01*
X113571262Y-45680040D01*
X113576991Y-45678100D01*
X113599279Y-45683286D01*
X113631700Y-45696034D01*
X113637420Y-45698693D01*
X113680602Y-45719285D01*
X113893550Y-46516233D01*
X115506450Y-46516213D01*
G37*
X115506450Y-46516213D02*
X115612744Y-46117834D01*
X115719038Y-45719456D01*
X115762400Y-45698778D01*
X115795526Y-45685108D01*
X115820810Y-45678278D01*
X115823503Y-45678100D01*
X115838478Y-45684248D01*
X115872627Y-45701676D01*
X115923182Y-45728867D01*
X115987380Y-45764301D01*
X116062453Y-45806458D01*
X116145637Y-45853820D01*
X116194128Y-45881702D01*
X116547012Y-46085303D01*
X117685807Y-44946508D01*
X117481953Y-44593776D01*
X117432305Y-44507335D01*
X117387025Y-44427477D01*
X117347635Y-44356965D01*
X117315657Y-44298562D01*
X117292611Y-44255033D01*
X117280019Y-44229140D01*
X117278100Y-44223403D01*
X117283294Y-44200844D01*
X117296064Y-44168241D01*
X117298753Y-44162452D01*
X117319406Y-44119142D01*
X118116300Y-43907198D01*
X118116300Y-42293463D01*
X117319268Y-42080569D01*
X117298684Y-42037404D01*
X117285051Y-42004364D01*
X117278267Y-41979200D01*
X117278100Y-41976598D01*
X117284254Y-41961652D01*
X117301704Y-41927540D01*
X117328927Y-41877026D01*
X117364404Y-41812873D01*
X117406612Y-41737845D01*
X117454032Y-41654705D01*
X117481953Y-41606225D01*
X117685807Y-41253493D01*
X116547012Y-40114698D01*
X116194128Y-40318299D01*
X116107646Y-40367888D01*
X116027744Y-40413112D01*
X115957188Y-40452453D01*
X115898744Y-40484392D01*
X115855177Y-40507409D01*
X115829253Y-40519985D01*
X115823503Y-40521900D01*
X115800876Y-40516704D01*
X115768224Y-40503928D01*
X115762400Y-40501223D01*
X115719038Y-40480545D01*
X115612744Y-40082167D01*
X115506450Y-39683788D01*
X113893550Y-39683768D01*
X113680602Y-40480716D01*
X113637420Y-40501308D01*
X113604351Y-40514946D01*
X113579134Y-40521732D01*
X113576520Y-40521900D01*
X113561559Y-40515739D01*
X113527441Y-40498268D01*
X113476930Y-40471013D01*
X113412789Y-40435495D01*
X113337783Y-40393239D01*
X113254675Y-40345766D01*
X113206321Y-40317874D01*
X112853838Y-40113847D01*
X111714192Y-41253493D01*
X111918046Y-41606225D01*
X111967694Y-41692666D01*
X112012974Y-41772524D01*
X112052364Y-41843036D01*
X112084342Y-41901439D01*
X112107388Y-41944968D01*
X112119980Y-41970861D01*
X112121900Y-41976598D01*
X112116705Y-41999127D01*
X112103926Y-42031769D01*
X112101125Y-42037802D01*
X112096844Y-42047711D01*
X112093037Y-42056072D01*
X112087658Y-42063554D01*
X112078663Y-42070822D01*
X112064005Y-42078547D01*
X112041640Y-42087394D01*
X112009522Y-42098032D01*
X111965605Y-42111127D01*
X111907844Y-42127349D01*
X111834193Y-42147364D01*
X111742608Y-42171841D01*
X111631042Y-42201446D01*
X111497451Y-42236847D01*
X111464675Y-42245540D01*
X111283700Y-42293550D01*
X111283700Y-43768071D01*
X111461499Y-43768071D01*
X111461500Y-43100001D01*
X111461500Y-42431930D01*
X111813925Y-42338518D01*
X111905772Y-42314085D01*
X111990589Y-42291351D01*
X112064985Y-42271240D01*
X112125570Y-42254674D01*
X112168954Y-42242574D01*
X112191745Y-42235864D01*
X112193335Y-42235323D01*
X112216302Y-42215136D01*
X112241180Y-42171381D01*
X112252390Y-42145244D01*
X112272988Y-42093944D01*
X112293517Y-42043249D01*
X112306395Y-42011768D01*
X112328330Y-41958586D01*
X112146864Y-41643468D01*
X112099551Y-41561361D01*
X112055873Y-41485665D01*
X112017578Y-41419400D01*
X111986413Y-41365587D01*
X111964126Y-41327244D01*
X111952463Y-41307394D01*
X111951673Y-41306091D01*
X111950596Y-41299095D01*
X111954918Y-41287971D01*
X111965963Y-41271294D01*
X111985051Y-41247635D01*
X112013506Y-41215568D01*
X112052651Y-41173664D01*
X112103807Y-41120498D01*
X112168298Y-41054641D01*
X112247446Y-40974666D01*
X112342574Y-40879146D01*
X112407684Y-40813966D01*
X112497876Y-40723902D01*
X112582690Y-40639504D01*
X112660427Y-40562440D01*
X112729393Y-40494378D01*
X112787892Y-40436985D01*
X112834227Y-40391928D01*
X112866702Y-40360875D01*
X112883621Y-40345492D01*
X112885646Y-40344100D01*
X112898297Y-40350222D01*
X112930144Y-40367549D01*
X112978424Y-40394521D01*
X113040373Y-40429580D01*
X113113226Y-40471167D01*
X113194221Y-40517723D01*
X113225543Y-40535806D01*
X113320445Y-40590504D01*
X113395998Y-40633556D01*
X113454740Y-40666198D01*
X113499210Y-40689669D01*
X113531946Y-40705209D01*
X113555487Y-40714054D01*
X113572374Y-40717443D01*
X113585143Y-40716615D01*
X113592031Y-40714555D01*
X113619837Y-40703649D01*
X113662997Y-40686102D01*
X113713482Y-40665190D01*
X113728450Y-40658920D01*
X113830050Y-40616241D01*
X113930842Y-40238871D01*
X114031634Y-39861500D01*
X115368365Y-39861500D01*
X115469157Y-40238964D01*
X115569950Y-40616428D01*
X115706107Y-40672063D01*
X115842265Y-40727699D01*
X116169179Y-40539075D01*
X116252179Y-40491321D01*
X116328303Y-40447785D01*
X116394707Y-40410072D01*
X116448547Y-40379786D01*
X116486981Y-40358534D01*
X116507166Y-40347921D01*
X116509271Y-40347043D01*
X116520518Y-40355116D01*
X116547934Y-40379569D01*
X116589807Y-40418746D01*
X116644421Y-40470991D01*
X116710064Y-40534649D01*
X116785021Y-40608062D01*
X116867579Y-40689575D01*
X116956022Y-40777531D01*
X116992251Y-40813734D01*
X117097572Y-40919275D01*
X117186125Y-41008414D01*
X117259233Y-41082578D01*
X117318216Y-41143194D01*
X117364397Y-41191689D01*
X117399098Y-41229491D01*
X117423641Y-41258027D01*
X117439349Y-41278724D01*
X117447543Y-41293009D01*
X117449546Y-41302311D01*
X117448326Y-41306091D01*
X117438609Y-41322558D01*
X117417977Y-41358018D01*
X117388179Y-41409447D01*
X117350966Y-41473820D01*
X117308087Y-41548115D01*
X117261292Y-41629306D01*
X117253539Y-41642767D01*
X117200601Y-41734985D01*
X117159261Y-41807927D01*
X117128258Y-41864218D01*
X117106326Y-41906483D01*
X117092203Y-41937349D01*
X117084624Y-41959441D01*
X117082326Y-41975384D01*
X117084045Y-41987805D01*
X117085440Y-41992017D01*
X117096354Y-42019825D01*
X117113921Y-42062984D01*
X117134863Y-42113465D01*
X117141150Y-42128450D01*
X117183899Y-42230050D01*
X117561199Y-42330891D01*
X117938500Y-42431732D01*
X117938500Y-43768269D01*
X117561199Y-43869110D01*
X117183899Y-43969950D01*
X117141150Y-44071550D01*
X117119842Y-44122656D01*
X117100949Y-44168787D01*
X117087750Y-44201914D01*
X117085440Y-44207984D01*
X117082559Y-44219768D01*
X117083230Y-44234108D01*
X117088715Y-44253628D01*
X117100279Y-44280954D01*
X117119186Y-44318713D01*
X117146699Y-44369529D01*
X117184082Y-44436028D01*
X117232598Y-44520836D01*
X117253539Y-44557234D01*
X117300800Y-44639250D01*
X117344425Y-44714854D01*
X117382665Y-44781023D01*
X117413769Y-44834731D01*
X117435989Y-44872956D01*
X117447575Y-44892672D01*
X117448326Y-44893910D01*
X117449403Y-44900906D01*
X117445080Y-44912031D01*
X117434038Y-44928712D01*
X117414952Y-44952375D01*
X117386502Y-44984448D01*
X117347364Y-45026359D01*
X117296218Y-45079534D01*
X117231741Y-45145401D01*
X117152610Y-45225388D01*
X117057504Y-45320920D01*
X116992251Y-45386267D01*
X116901952Y-45476315D01*
X116816862Y-45560575D01*
X116738694Y-45637389D01*
X116669162Y-45705103D01*
X116609980Y-45762061D01*
X116562863Y-45806605D01*
X116529524Y-45837080D01*
X116511677Y-45851829D01*
X116509271Y-45852958D01*
X116495312Y-45845964D01*
X116462224Y-45827834D01*
X116412848Y-45800173D01*
X116350030Y-45764587D01*
X116276611Y-45722682D01*
X116195436Y-45676063D01*
X116169179Y-45660926D01*
X115842265Y-45472302D01*
X115706107Y-45527938D01*
X115569950Y-45583573D01*
X115469157Y-45961037D01*
X115368365Y-46338500D01*
X114699999Y-46338500D01*
X114031634Y-46338501D01*
X113930842Y-45961130D01*
X113830050Y-45583760D01*
X113728450Y-45541081D01*
X113677340Y-45519804D01*
X113631211Y-45500935D01*
X113598091Y-45487752D01*
X113592031Y-45485446D01*
X113580531Y-45482644D01*
X113566470Y-45483301D01*
X113547311Y-45488653D01*
X113520514Y-45499941D01*
X113483541Y-45518401D01*
X113433852Y-45545273D01*
X113368909Y-45581794D01*
X113286173Y-45629204D01*
X113225543Y-45664195D01*
X113142247Y-45712188D01*
X113066075Y-45755786D01*
X112999790Y-45793430D01*
X112946156Y-45823561D01*
X112907937Y-45844620D01*
X112887897Y-45855048D01*
X112885646Y-45855900D01*
X112875351Y-45847179D01*
X112848829Y-45822128D01*
X112807775Y-45782413D01*
X112753887Y-45729702D01*
X112688861Y-45665662D01*
X112614391Y-45591961D01*
X112532175Y-45510266D01*
X112443908Y-45422245D01*
X112407684Y-45386035D01*
X112302362Y-45280531D01*
X112213811Y-45191426D01*
X112140709Y-45117293D01*
X112081733Y-45056704D01*
X112035559Y-45008233D01*
X112000867Y-44970452D01*
X111976333Y-44941933D01*
X111960634Y-44921250D01*
X111952449Y-44906975D01*
X111950454Y-44897681D01*
X111951673Y-44893910D01*
X111961386Y-44877449D01*
X111982017Y-44841992D01*
X112011818Y-44790557D01*
X112049041Y-44726165D01*
X112091940Y-44651837D01*
X112138767Y-44570593D01*
X112146864Y-44556533D01*
X112328330Y-44241415D01*
X112306395Y-44188233D01*
X112289637Y-44147205D01*
X112268678Y-44095360D01*
X112252390Y-44054757D01*
X112227017Y-44001208D01*
X112203080Y-43970505D01*
X112193335Y-43964678D01*
X112174403Y-43958981D01*
X112134300Y-43947738D01*
X112076415Y-43931870D01*
X112004140Y-43912299D01*
X111920864Y-43889949D01*
X111829978Y-43865740D01*
X111813925Y-43861483D01*
X111461499Y-43768071D01*
X111283700Y-43768071D01*
X111283700Y-43906450D01*
X111464675Y-43954461D01*
X111603422Y-43991237D01*
X111719690Y-44022068D01*
X111815525Y-44047623D01*
X111892971Y-44068569D01*
X111954076Y-44085573D01*
X112000883Y-44099304D01*
X112035438Y-44110429D01*
X112059787Y-44119615D01*
X112075976Y-44127530D01*
X112086049Y-44134842D01*
X112092053Y-44142219D01*
X112096032Y-44150328D01*
X112100032Y-44159836D01*
X112101125Y-44162199D01*
X112114830Y-44195347D01*
X112121710Y-44220628D01*
X112121900Y-44223403D01*
X112115745Y-44238349D01*
X112098295Y-44272461D01*
X112071072Y-44322975D01*
X112035595Y-44387128D01*
X111993387Y-44462156D01*
X111945967Y-44545296D01*
X111918046Y-44593776D01*
X111714192Y-44946508D01*
X112853781Y-46086097D01*
X113206762Y-45882099D01*
X113293215Y-45832436D01*
X113373064Y-45787141D01*
X113443552Y-45747734D01*
X113501921Y-45715735D01*
X113545410Y-45692663D01*
X113571262Y-45680040D01*
X113576991Y-45678100D01*
X113599279Y-45683286D01*
X113631700Y-45696034D01*
X113637420Y-45698693D01*
X113680602Y-45719285D01*
X113893550Y-46516233D01*
X115506450Y-46516213D01*
D11*
G36*
X103713500Y-76617250D02*
G01*
X101811500Y-76617250D01*
X101811500Y-75695250D01*
X103713500Y-75695250D01*
X103713500Y-76617250D01*
G37*
G36*
X58526000Y-76617250D02*
G01*
X56624000Y-76617250D01*
X56624000Y-75695250D01*
X58526000Y-75695250D01*
X58526000Y-76617250D01*
G37*
G36*
X64026000Y-76617250D02*
G01*
X62124000Y-76617250D01*
X62124000Y-75695250D01*
X64026000Y-75695250D01*
X64026000Y-76617250D01*
G37*
G36*
X78369750Y-76617250D02*
G01*
X76467750Y-76617250D01*
X76467750Y-75695250D01*
X78369750Y-75695250D01*
X78369750Y-76617250D01*
G37*
G36*
X83869750Y-76617250D02*
G01*
X81967750Y-76617250D01*
X81967750Y-75695250D01*
X83869750Y-75695250D01*
X83869750Y-76617250D01*
G37*
G36*
X98213500Y-76617250D02*
G01*
X96311500Y-76617250D01*
X96311500Y-75695250D01*
X98213500Y-75695250D01*
X98213500Y-76617250D01*
G37*
G36*
X65639910Y-74217767D02*
G01*
X65758384Y-74266841D01*
X65865008Y-74338085D01*
X65955685Y-74428762D01*
X66026929Y-74535386D01*
X66076003Y-74653860D01*
X66101020Y-74779632D01*
X66101020Y-74907868D01*
X66076003Y-75033640D01*
X66026929Y-75152114D01*
X65955685Y-75258738D01*
X65865008Y-75349415D01*
X65758384Y-75420659D01*
X65758383Y-75420660D01*
X65758382Y-75420660D01*
X65639910Y-75469733D01*
X65514139Y-75494750D01*
X65385901Y-75494750D01*
X65260130Y-75469733D01*
X65141658Y-75420660D01*
X65141657Y-75420660D01*
X65141656Y-75420659D01*
X65035032Y-75349415D01*
X64944355Y-75258738D01*
X64873111Y-75152114D01*
X64824037Y-75033640D01*
X64799020Y-74907868D01*
X64799020Y-74779632D01*
X64824037Y-74653860D01*
X64873111Y-74535386D01*
X64944355Y-74428762D01*
X65035032Y-74338085D01*
X65141656Y-74266841D01*
X65260130Y-74217767D01*
X65385901Y-74192750D01*
X65514139Y-74192750D01*
X65639910Y-74217767D01*
G37*
G36*
X55294890Y-74217767D02*
G01*
X55413364Y-74266841D01*
X55519988Y-74338085D01*
X55610665Y-74428762D01*
X55681909Y-74535386D01*
X55730983Y-74653860D01*
X55756000Y-74779632D01*
X55756000Y-74907868D01*
X55730983Y-75033640D01*
X55681909Y-75152114D01*
X55610665Y-75258738D01*
X55519988Y-75349415D01*
X55413364Y-75420659D01*
X55413363Y-75420660D01*
X55413362Y-75420660D01*
X55294890Y-75469733D01*
X55169119Y-75494750D01*
X55040881Y-75494750D01*
X54915110Y-75469733D01*
X54796638Y-75420660D01*
X54796637Y-75420660D01*
X54796636Y-75420659D01*
X54690012Y-75349415D01*
X54599335Y-75258738D01*
X54528091Y-75152114D01*
X54479017Y-75033640D01*
X54454000Y-74907868D01*
X54454000Y-74779632D01*
X54479017Y-74653860D01*
X54528091Y-74535386D01*
X54599335Y-74428762D01*
X54690012Y-74338085D01*
X54796636Y-74266841D01*
X54915110Y-74217767D01*
X55040881Y-74192750D01*
X55169119Y-74192750D01*
X55294890Y-74217767D01*
G37*
G36*
X75138640Y-74217767D02*
G01*
X75257114Y-74266841D01*
X75363738Y-74338085D01*
X75454415Y-74428762D01*
X75525659Y-74535386D01*
X75574733Y-74653860D01*
X75599750Y-74779632D01*
X75599750Y-74907868D01*
X75574733Y-75033640D01*
X75525659Y-75152114D01*
X75454415Y-75258738D01*
X75363738Y-75349415D01*
X75257114Y-75420659D01*
X75257113Y-75420660D01*
X75257112Y-75420660D01*
X75138640Y-75469733D01*
X75012869Y-75494750D01*
X74884631Y-75494750D01*
X74758860Y-75469733D01*
X74640388Y-75420660D01*
X74640387Y-75420660D01*
X74640386Y-75420659D01*
X74533762Y-75349415D01*
X74443085Y-75258738D01*
X74371841Y-75152114D01*
X74322767Y-75033640D01*
X74297750Y-74907868D01*
X74297750Y-74779632D01*
X74322767Y-74653860D01*
X74371841Y-74535386D01*
X74443085Y-74428762D01*
X74533762Y-74338085D01*
X74640386Y-74266841D01*
X74758860Y-74217767D01*
X74884631Y-74192750D01*
X75012869Y-74192750D01*
X75138640Y-74217767D01*
G37*
G36*
X94982390Y-74217767D02*
G01*
X95100864Y-74266841D01*
X95207488Y-74338085D01*
X95298165Y-74428762D01*
X95369409Y-74535386D01*
X95418483Y-74653860D01*
X95443500Y-74779632D01*
X95443500Y-74907868D01*
X95418483Y-75033640D01*
X95369409Y-75152114D01*
X95298165Y-75258738D01*
X95207488Y-75349415D01*
X95100864Y-75420659D01*
X95100863Y-75420660D01*
X95100862Y-75420660D01*
X94982390Y-75469733D01*
X94856619Y-75494750D01*
X94728381Y-75494750D01*
X94602610Y-75469733D01*
X94484138Y-75420660D01*
X94484137Y-75420660D01*
X94484136Y-75420659D01*
X94377512Y-75349415D01*
X94286835Y-75258738D01*
X94215591Y-75152114D01*
X94166517Y-75033640D01*
X94141500Y-74907868D01*
X94141500Y-74779632D01*
X94166517Y-74653860D01*
X94215591Y-74535386D01*
X94286835Y-74428762D01*
X94377512Y-74338085D01*
X94484136Y-74266841D01*
X94602610Y-74217767D01*
X94728381Y-74192750D01*
X94856619Y-74192750D01*
X94982390Y-74217767D01*
G37*
G36*
X105327410Y-74217767D02*
G01*
X105445884Y-74266841D01*
X105552508Y-74338085D01*
X105643185Y-74428762D01*
X105714429Y-74535386D01*
X105763503Y-74653860D01*
X105788520Y-74779632D01*
X105788520Y-74907868D01*
X105763503Y-75033640D01*
X105714429Y-75152114D01*
X105643185Y-75258738D01*
X105552508Y-75349415D01*
X105445884Y-75420659D01*
X105445883Y-75420660D01*
X105445882Y-75420660D01*
X105327410Y-75469733D01*
X105201639Y-75494750D01*
X105073401Y-75494750D01*
X104947630Y-75469733D01*
X104829158Y-75420660D01*
X104829157Y-75420660D01*
X104829156Y-75420659D01*
X104722532Y-75349415D01*
X104631855Y-75258738D01*
X104560611Y-75152114D01*
X104511537Y-75033640D01*
X104486520Y-74907868D01*
X104486520Y-74779632D01*
X104511537Y-74653860D01*
X104560611Y-74535386D01*
X104631855Y-74428762D01*
X104722532Y-74338085D01*
X104829156Y-74266841D01*
X104947630Y-74217767D01*
X105073401Y-74192750D01*
X105201639Y-74192750D01*
X105327410Y-74217767D01*
G37*
G36*
X85483660Y-74217767D02*
G01*
X85602134Y-74266841D01*
X85708758Y-74338085D01*
X85799435Y-74428762D01*
X85870679Y-74535386D01*
X85919753Y-74653860D01*
X85944770Y-74779632D01*
X85944770Y-74907868D01*
X85919753Y-75033640D01*
X85870679Y-75152114D01*
X85799435Y-75258738D01*
X85708758Y-75349415D01*
X85602134Y-75420659D01*
X85602133Y-75420660D01*
X85602132Y-75420660D01*
X85483660Y-75469733D01*
X85357889Y-75494750D01*
X85229651Y-75494750D01*
X85103880Y-75469733D01*
X84985408Y-75420660D01*
X84985407Y-75420660D01*
X84985406Y-75420659D01*
X84878782Y-75349415D01*
X84788105Y-75258738D01*
X84716861Y-75152114D01*
X84667787Y-75033640D01*
X84642770Y-74907868D01*
X84642770Y-74779632D01*
X84667787Y-74653860D01*
X84716861Y-74535386D01*
X84788105Y-74428762D01*
X84878782Y-74338085D01*
X84985406Y-74266841D01*
X85103880Y-74217767D01*
X85229651Y-74192750D01*
X85357889Y-74192750D01*
X85483660Y-74217767D01*
G37*
G36*
X58526000Y-75117250D02*
G01*
X56624000Y-75117250D01*
X56624000Y-74195250D01*
X58526000Y-74195250D01*
X58526000Y-75117250D01*
G37*
G36*
X64026000Y-75117250D02*
G01*
X62124000Y-75117250D01*
X62124000Y-74195250D01*
X64026000Y-74195250D01*
X64026000Y-75117250D01*
G37*
G36*
X78369750Y-75117250D02*
G01*
X76467750Y-75117250D01*
X76467750Y-74195250D01*
X78369750Y-74195250D01*
X78369750Y-75117250D01*
G37*
G36*
X83869750Y-75117250D02*
G01*
X81967750Y-75117250D01*
X81967750Y-74195250D01*
X83869750Y-74195250D01*
X83869750Y-75117250D01*
G37*
G36*
X98213500Y-75117250D02*
G01*
X96311500Y-75117250D01*
X96311500Y-74195250D01*
X98213500Y-74195250D01*
X98213500Y-75117250D01*
G37*
G36*
X103713500Y-75117250D02*
G01*
X101811500Y-75117250D01*
X101811500Y-74195250D01*
X103713500Y-74195250D01*
X103713500Y-75117250D01*
G37*
G36*
X80765224Y-68677434D02*
G01*
X80983224Y-68767733D01*
X81137373Y-68831583D01*
X81472298Y-69055373D01*
X81757127Y-69340202D01*
X81980917Y-69675127D01*
X82038581Y-69814341D01*
X82135066Y-70047276D01*
X82213650Y-70442344D01*
X82213650Y-70845156D01*
X82135066Y-71240224D01*
X82060071Y-71421277D01*
X81980917Y-71612373D01*
X81757127Y-71947298D01*
X81472298Y-72232127D01*
X81137373Y-72455917D01*
X80983224Y-72519767D01*
X80765224Y-72610066D01*
X80370156Y-72688650D01*
X79967344Y-72688650D01*
X79572276Y-72610066D01*
X79354276Y-72519767D01*
X79200127Y-72455917D01*
X78865202Y-72232127D01*
X78580373Y-71947298D01*
X78356583Y-71612373D01*
X78277429Y-71421277D01*
X78202434Y-71240224D01*
X78123850Y-70845156D01*
X78123850Y-70442344D01*
X78202434Y-70047276D01*
X78298919Y-69814341D01*
X78356583Y-69675127D01*
X78580373Y-69340202D01*
X78865202Y-69055373D01*
X79200127Y-68831583D01*
X79354276Y-68767733D01*
X79572276Y-68677434D01*
X79967344Y-68598850D01*
X80370156Y-68598850D01*
X80765224Y-68677434D01*
G37*
G36*
X60921474Y-68677434D02*
G01*
X61139474Y-68767733D01*
X61293623Y-68831583D01*
X61628548Y-69055373D01*
X61913377Y-69340202D01*
X62137167Y-69675127D01*
X62194831Y-69814341D01*
X62291316Y-70047276D01*
X62369900Y-70442344D01*
X62369900Y-70845156D01*
X62291316Y-71240224D01*
X62216321Y-71421277D01*
X62137167Y-71612373D01*
X61913377Y-71947298D01*
X61628548Y-72232127D01*
X61293623Y-72455917D01*
X61139474Y-72519767D01*
X60921474Y-72610066D01*
X60526406Y-72688650D01*
X60123594Y-72688650D01*
X59728526Y-72610066D01*
X59510526Y-72519767D01*
X59356377Y-72455917D01*
X59021452Y-72232127D01*
X58736623Y-71947298D01*
X58512833Y-71612373D01*
X58433679Y-71421277D01*
X58358684Y-71240224D01*
X58280100Y-70845156D01*
X58280100Y-70442344D01*
X58358684Y-70047276D01*
X58455169Y-69814341D01*
X58512833Y-69675127D01*
X58736623Y-69340202D01*
X59021452Y-69055373D01*
X59356377Y-68831583D01*
X59510526Y-68767733D01*
X59728526Y-68677434D01*
X60123594Y-68598850D01*
X60526406Y-68598850D01*
X60921474Y-68677434D01*
G37*
G36*
X100608974Y-68677434D02*
G01*
X100826974Y-68767733D01*
X100981123Y-68831583D01*
X101316048Y-69055373D01*
X101600877Y-69340202D01*
X101824667Y-69675127D01*
X101882331Y-69814341D01*
X101978816Y-70047276D01*
X102057400Y-70442344D01*
X102057400Y-70845156D01*
X101978816Y-71240224D01*
X101903821Y-71421277D01*
X101824667Y-71612373D01*
X101600877Y-71947298D01*
X101316048Y-72232127D01*
X100981123Y-72455917D01*
X100826974Y-72519767D01*
X100608974Y-72610066D01*
X100213906Y-72688650D01*
X99811094Y-72688650D01*
X99416026Y-72610066D01*
X99198026Y-72519767D01*
X99043877Y-72455917D01*
X98708952Y-72232127D01*
X98424123Y-71947298D01*
X98200333Y-71612373D01*
X98121179Y-71421277D01*
X98046184Y-71240224D01*
X97967600Y-70845156D01*
X97967600Y-70442344D01*
X98046184Y-70047276D01*
X98142669Y-69814341D01*
X98200333Y-69675127D01*
X98424123Y-69340202D01*
X98708952Y-69055373D01*
X99043877Y-68831583D01*
X99198026Y-68767733D01*
X99416026Y-68677434D01*
X99811094Y-68598850D01*
X100213906Y-68598850D01*
X100608974Y-68677434D01*
G37*
G36*
X105804481Y-69681218D02*
G01*
X105986651Y-69756676D01*
X106150600Y-69866223D01*
X106290027Y-70005650D01*
X106399574Y-70169599D01*
X106475032Y-70351769D01*
X106493049Y-70442344D01*
X106513500Y-70545159D01*
X106513500Y-70742341D01*
X106498478Y-70817859D01*
X106475032Y-70935731D01*
X106399574Y-71117901D01*
X106290027Y-71281850D01*
X106150600Y-71421277D01*
X105986651Y-71530824D01*
X105804481Y-71606282D01*
X105611091Y-71644750D01*
X105413909Y-71644750D01*
X105220519Y-71606282D01*
X105038349Y-71530824D01*
X104874400Y-71421277D01*
X104734973Y-71281850D01*
X104625426Y-71117901D01*
X104586635Y-71024251D01*
X104549968Y-70935731D01*
X104549968Y-70935730D01*
X104536299Y-70867010D01*
X104529186Y-70843564D01*
X104518538Y-70817858D01*
X104495600Y-70702541D01*
X104495600Y-70584959D01*
X104518538Y-70469642D01*
X104529186Y-70443936D01*
X104536299Y-70420490D01*
X104549968Y-70351769D01*
X104625425Y-70169601D01*
X104625426Y-70169599D01*
X104734973Y-70005650D01*
X104874400Y-69866223D01*
X105038349Y-69756676D01*
X105220519Y-69681218D01*
X105413909Y-69642750D01*
X105611091Y-69642750D01*
X105804481Y-69681218D01*
G37*
G36*
X94804481Y-69681218D02*
G01*
X94986651Y-69756676D01*
X95150600Y-69866223D01*
X95290027Y-70005650D01*
X95399574Y-70169599D01*
X95399575Y-70169601D01*
X95475032Y-70351769D01*
X95488701Y-70420490D01*
X95495814Y-70443936D01*
X95506462Y-70469642D01*
X95529400Y-70584959D01*
X95529400Y-70702541D01*
X95506462Y-70817858D01*
X95495814Y-70843564D01*
X95488701Y-70867010D01*
X95475032Y-70935730D01*
X95475032Y-70935731D01*
X95438366Y-71024251D01*
X95399574Y-71117901D01*
X95290027Y-71281850D01*
X95150600Y-71421277D01*
X94986651Y-71530824D01*
X94804481Y-71606282D01*
X94611091Y-71644750D01*
X94413909Y-71644750D01*
X94220519Y-71606282D01*
X94038349Y-71530824D01*
X93874400Y-71421277D01*
X93734973Y-71281850D01*
X93625426Y-71117901D01*
X93549968Y-70935731D01*
X93526522Y-70817859D01*
X93511500Y-70742341D01*
X93511500Y-70545159D01*
X93531951Y-70442344D01*
X93549968Y-70351769D01*
X93625426Y-70169599D01*
X93734973Y-70005650D01*
X93874400Y-69866223D01*
X94038349Y-69756676D01*
X94220519Y-69681218D01*
X94413909Y-69642750D01*
X94611091Y-69642750D01*
X94804481Y-69681218D01*
G37*
G36*
X66116981Y-69681218D02*
G01*
X66299151Y-69756676D01*
X66463100Y-69866223D01*
X66602527Y-70005650D01*
X66712074Y-70169599D01*
X66787532Y-70351769D01*
X66805549Y-70442344D01*
X66826000Y-70545159D01*
X66826000Y-70742341D01*
X66810978Y-70817859D01*
X66787532Y-70935731D01*
X66712074Y-71117901D01*
X66602527Y-71281850D01*
X66463100Y-71421277D01*
X66299151Y-71530824D01*
X66116981Y-71606282D01*
X65923591Y-71644750D01*
X65726409Y-71644750D01*
X65533019Y-71606282D01*
X65350849Y-71530824D01*
X65186900Y-71421277D01*
X65047473Y-71281850D01*
X64937926Y-71117901D01*
X64899135Y-71024251D01*
X64862468Y-70935731D01*
X64862468Y-70935730D01*
X64848799Y-70867010D01*
X64841686Y-70843564D01*
X64831038Y-70817858D01*
X64808100Y-70702541D01*
X64808100Y-70584959D01*
X64831038Y-70469642D01*
X64841686Y-70443936D01*
X64848799Y-70420490D01*
X64862468Y-70351769D01*
X64937925Y-70169601D01*
X64937926Y-70169599D01*
X65047473Y-70005650D01*
X65186900Y-69866223D01*
X65350849Y-69756676D01*
X65533019Y-69681218D01*
X65726409Y-69642750D01*
X65923591Y-69642750D01*
X66116981Y-69681218D01*
G37*
G36*
X74960731Y-69681218D02*
G01*
X75142901Y-69756676D01*
X75306850Y-69866223D01*
X75446277Y-70005650D01*
X75555824Y-70169599D01*
X75555825Y-70169601D01*
X75631282Y-70351769D01*
X75644951Y-70420490D01*
X75652064Y-70443936D01*
X75662712Y-70469642D01*
X75685650Y-70584959D01*
X75685650Y-70702541D01*
X75662712Y-70817858D01*
X75652064Y-70843564D01*
X75644951Y-70867010D01*
X75631282Y-70935730D01*
X75631282Y-70935731D01*
X75594616Y-71024251D01*
X75555824Y-71117901D01*
X75446277Y-71281850D01*
X75306850Y-71421277D01*
X75142901Y-71530824D01*
X74960731Y-71606282D01*
X74767341Y-71644750D01*
X74570159Y-71644750D01*
X74376769Y-71606282D01*
X74194599Y-71530824D01*
X74030650Y-71421277D01*
X73891223Y-71281850D01*
X73781676Y-71117901D01*
X73706218Y-70935731D01*
X73682772Y-70817859D01*
X73667750Y-70742341D01*
X73667750Y-70545159D01*
X73688201Y-70442344D01*
X73706218Y-70351769D01*
X73781676Y-70169599D01*
X73891223Y-70005650D01*
X74030650Y-69866223D01*
X74194599Y-69756676D01*
X74376769Y-69681218D01*
X74570159Y-69642750D01*
X74767341Y-69642750D01*
X74960731Y-69681218D01*
G37*
G36*
X85960731Y-69681218D02*
G01*
X86142901Y-69756676D01*
X86306850Y-69866223D01*
X86446277Y-70005650D01*
X86555824Y-70169599D01*
X86631282Y-70351769D01*
X86649299Y-70442344D01*
X86669750Y-70545159D01*
X86669750Y-70742341D01*
X86654728Y-70817859D01*
X86631282Y-70935731D01*
X86555824Y-71117901D01*
X86446277Y-71281850D01*
X86306850Y-71421277D01*
X86142901Y-71530824D01*
X85960731Y-71606282D01*
X85767341Y-71644750D01*
X85570159Y-71644750D01*
X85376769Y-71606282D01*
X85194599Y-71530824D01*
X85030650Y-71421277D01*
X84891223Y-71281850D01*
X84781676Y-71117901D01*
X84742885Y-71024251D01*
X84706218Y-70935731D01*
X84706218Y-70935730D01*
X84692549Y-70867010D01*
X84685436Y-70843564D01*
X84674788Y-70817858D01*
X84651850Y-70702541D01*
X84651850Y-70584959D01*
X84674788Y-70469642D01*
X84685436Y-70443936D01*
X84692549Y-70420490D01*
X84706218Y-70351769D01*
X84781675Y-70169601D01*
X84781676Y-70169599D01*
X84891223Y-70005650D01*
X85030650Y-69866223D01*
X85194599Y-69756676D01*
X85376769Y-69681218D01*
X85570159Y-69642750D01*
X85767341Y-69642750D01*
X85960731Y-69681218D01*
G37*
G36*
X55116981Y-69681218D02*
G01*
X55299151Y-69756676D01*
X55463100Y-69866223D01*
X55602527Y-70005650D01*
X55712074Y-70169599D01*
X55712075Y-70169601D01*
X55787532Y-70351769D01*
X55801201Y-70420490D01*
X55808314Y-70443936D01*
X55818962Y-70469642D01*
X55841900Y-70584959D01*
X55841900Y-70702541D01*
X55818962Y-70817858D01*
X55808314Y-70843564D01*
X55801201Y-70867010D01*
X55787532Y-70935730D01*
X55787532Y-70935731D01*
X55750866Y-71024251D01*
X55712074Y-71117901D01*
X55602527Y-71281850D01*
X55463100Y-71421277D01*
X55299151Y-71530824D01*
X55116981Y-71606282D01*
X54923591Y-71644750D01*
X54726409Y-71644750D01*
X54533019Y-71606282D01*
X54350849Y-71530824D01*
X54186900Y-71421277D01*
X54047473Y-71281850D01*
X53937926Y-71117901D01*
X53862468Y-70935731D01*
X53839022Y-70817859D01*
X53824000Y-70742341D01*
X53824000Y-70545159D01*
X53844451Y-70442344D01*
X53862468Y-70351769D01*
X53937926Y-70169599D01*
X54047473Y-70005650D01*
X54186900Y-69866223D01*
X54350849Y-69756676D01*
X54533019Y-69681218D01*
X54726409Y-69642750D01*
X54923591Y-69642750D01*
X55116981Y-69681218D01*
G37*
G36*
X80548237Y-63492746D02*
G01*
X80785003Y-63590818D01*
X80785005Y-63590819D01*
X80998089Y-63733197D01*
X81179303Y-63914411D01*
X81321682Y-64127497D01*
X81419754Y-64364263D01*
X81469750Y-64615611D01*
X81469750Y-64868111D01*
X81472152Y-64892497D01*
X81479265Y-64915946D01*
X81490816Y-64937557D01*
X81506361Y-64956499D01*
X81525303Y-64972044D01*
X81546914Y-64983595D01*
X81570363Y-64990708D01*
X81594749Y-64993110D01*
X81619135Y-64990708D01*
X81642584Y-64983595D01*
X81664195Y-64972044D01*
X81691371Y-64947414D01*
X81835406Y-64771906D01*
X82018282Y-64621823D01*
X82226923Y-64510302D01*
X82453313Y-64441628D01*
X82688750Y-64418439D01*
X82924186Y-64441628D01*
X83150576Y-64510302D01*
X83359217Y-64621823D01*
X83542094Y-64771906D01*
X83692177Y-64954782D01*
X83803698Y-65163423D01*
X83872372Y-65389813D01*
X83889750Y-65566251D01*
X83889750Y-66295408D01*
X83892152Y-66319794D01*
X83899265Y-66343243D01*
X83910816Y-66364854D01*
X83926361Y-66383796D01*
X83945303Y-66399341D01*
X83966914Y-66410892D01*
X83990363Y-66418005D01*
X84014749Y-66420407D01*
X84039135Y-66418005D01*
X84062584Y-66410892D01*
X84084195Y-66399341D01*
X84103137Y-66383796D01*
X84118682Y-66364854D01*
X84130233Y-66343243D01*
X84148746Y-66298549D01*
X84148747Y-66298547D01*
X84274710Y-66110030D01*
X84435030Y-65949710D01*
X84623547Y-65823747D01*
X84833016Y-65736982D01*
X84944201Y-65714866D01*
X85055385Y-65692750D01*
X85282115Y-65692750D01*
X85393299Y-65714866D01*
X85504484Y-65736982D01*
X85713953Y-65823747D01*
X85902470Y-65949710D01*
X86062790Y-66110030D01*
X86188753Y-66298547D01*
X86188754Y-66298549D01*
X86275518Y-66508017D01*
X86314670Y-66704844D01*
X86319750Y-66730386D01*
X86319750Y-66957114D01*
X86275518Y-67179484D01*
X86188753Y-67388953D01*
X86062790Y-67577470D01*
X85902470Y-67737790D01*
X85713953Y-67863753D01*
X85713952Y-67863754D01*
X85713951Y-67863754D01*
X85655717Y-67887875D01*
X85504484Y-67950518D01*
X85419502Y-67967422D01*
X85273363Y-67996491D01*
X85249914Y-68003604D01*
X85228303Y-68015155D01*
X85209361Y-68030700D01*
X85193816Y-68049642D01*
X85182265Y-68071253D01*
X85175152Y-68094702D01*
X85172750Y-68119088D01*
X85172750Y-68221350D01*
X85126866Y-68452026D01*
X85066049Y-68598850D01*
X85036859Y-68669321D01*
X84906190Y-68864880D01*
X84739880Y-69031190D01*
X84544321Y-69161859D01*
X84544320Y-69161860D01*
X84544319Y-69161860D01*
X84327026Y-69251866D01*
X84096350Y-69297750D01*
X83861150Y-69297750D01*
X83630474Y-69251866D01*
X83413181Y-69161860D01*
X83413180Y-69161860D01*
X83413179Y-69161859D01*
X83217620Y-69031190D01*
X83051310Y-68864880D01*
X82920641Y-68669321D01*
X82891451Y-68598850D01*
X82830634Y-68452026D01*
X82784750Y-68221350D01*
X82784750Y-67991808D01*
X82782348Y-67967422D01*
X82775235Y-67943973D01*
X82763684Y-67922362D01*
X82748139Y-67903420D01*
X82729197Y-67887875D01*
X82707586Y-67876324D01*
X82672006Y-67867412D01*
X82453314Y-67845872D01*
X82226924Y-67777198D01*
X82018283Y-67665677D01*
X81835407Y-67515594D01*
X81685324Y-67332718D01*
X81573802Y-67124077D01*
X81505128Y-66897687D01*
X81487750Y-66721249D01*
X81487750Y-65566252D01*
X81491374Y-65529458D01*
X81491374Y-65504954D01*
X81486593Y-65480920D01*
X81477216Y-65458282D01*
X81463602Y-65437907D01*
X81446274Y-65420581D01*
X81425900Y-65406967D01*
X81403261Y-65397590D01*
X81379228Y-65392810D01*
X81354724Y-65392810D01*
X81330690Y-65397591D01*
X81308052Y-65406968D01*
X81287677Y-65420582D01*
X81263044Y-65447762D01*
X81179305Y-65573087D01*
X80998089Y-65754303D01*
X80785005Y-65896681D01*
X80785004Y-65896682D01*
X80785003Y-65896682D01*
X80548237Y-65994754D01*
X80296889Y-66044750D01*
X80040611Y-66044750D01*
X79789263Y-65994754D01*
X79552497Y-65896682D01*
X79552496Y-65896682D01*
X79552495Y-65896681D01*
X79339411Y-65754303D01*
X79158195Y-65573087D01*
X79074456Y-65447762D01*
X79058911Y-65428820D01*
X79039969Y-65413274D01*
X79018358Y-65401723D01*
X78994909Y-65394610D01*
X78970523Y-65392208D01*
X78946137Y-65394610D01*
X78922688Y-65401723D01*
X78901078Y-65413274D01*
X78882136Y-65428819D01*
X78866590Y-65447761D01*
X78855039Y-65469372D01*
X78847926Y-65492821D01*
X78846126Y-65529457D01*
X78849750Y-65566251D01*
X78849750Y-66721249D01*
X78832372Y-66897687D01*
X78763698Y-67124077D01*
X78652177Y-67332718D01*
X78502094Y-67515594D01*
X78319218Y-67665677D01*
X78110577Y-67777198D01*
X77884187Y-67845872D01*
X77665492Y-67867412D01*
X77641464Y-67872191D01*
X77618825Y-67881569D01*
X77598450Y-67895183D01*
X77581123Y-67912510D01*
X77567510Y-67932884D01*
X77558132Y-67955523D01*
X77552750Y-67991808D01*
X77552750Y-68221350D01*
X77506866Y-68452026D01*
X77446049Y-68598850D01*
X77416859Y-68669321D01*
X77286190Y-68864880D01*
X77119880Y-69031190D01*
X76924321Y-69161859D01*
X76924320Y-69161860D01*
X76924319Y-69161860D01*
X76707026Y-69251866D01*
X76476350Y-69297750D01*
X76241150Y-69297750D01*
X76010474Y-69251866D01*
X75793181Y-69161860D01*
X75793180Y-69161860D01*
X75793179Y-69161859D01*
X75597620Y-69031190D01*
X75431310Y-68864880D01*
X75300641Y-68669321D01*
X75271451Y-68598850D01*
X75210634Y-68452026D01*
X75164750Y-68221350D01*
X75164750Y-68119749D01*
X75162348Y-68095363D01*
X75155235Y-68071914D01*
X75143684Y-68050303D01*
X75128139Y-68031361D01*
X75109197Y-68015816D01*
X75087586Y-68004265D01*
X75064137Y-67997152D01*
X75039751Y-67994750D01*
X74960405Y-67994750D01*
X74849221Y-67972634D01*
X74738036Y-67950518D01*
X74586803Y-67887875D01*
X74528569Y-67863754D01*
X74528568Y-67863754D01*
X74528567Y-67863753D01*
X74340050Y-67737790D01*
X74179730Y-67577470D01*
X74053767Y-67388953D01*
X73967002Y-67179484D01*
X73922770Y-66957114D01*
X73922770Y-66730386D01*
X73927851Y-66704844D01*
X73967002Y-66508017D01*
X74053766Y-66298549D01*
X74053767Y-66298547D01*
X74179730Y-66110030D01*
X74340050Y-65949710D01*
X74528567Y-65823747D01*
X74738036Y-65736982D01*
X74849221Y-65714866D01*
X74960405Y-65692750D01*
X75187135Y-65692750D01*
X75298319Y-65714866D01*
X75409504Y-65736982D01*
X75618973Y-65823747D01*
X75807490Y-65949710D01*
X75967810Y-66110030D01*
X76093773Y-66298547D01*
X76093774Y-66298549D01*
X76180538Y-66508017D01*
X76200154Y-66606633D01*
X76207267Y-66630082D01*
X76218818Y-66651693D01*
X76234363Y-66670635D01*
X76253305Y-66686180D01*
X76274916Y-66697731D01*
X76298365Y-66704844D01*
X76322751Y-66707246D01*
X76347137Y-66704844D01*
X76370586Y-66697731D01*
X76392197Y-66686180D01*
X76411139Y-66670635D01*
X76426684Y-66651693D01*
X76438235Y-66630082D01*
X76445348Y-66606633D01*
X76447750Y-66582247D01*
X76447750Y-65566252D01*
X76465128Y-65389814D01*
X76533802Y-65163424D01*
X76645323Y-64954783D01*
X76795406Y-64771906D01*
X76978282Y-64621823D01*
X77186923Y-64510302D01*
X77413313Y-64441628D01*
X77648750Y-64418439D01*
X77884186Y-64441628D01*
X78110576Y-64510302D01*
X78319217Y-64621823D01*
X78502094Y-64771906D01*
X78601061Y-64892497D01*
X78646126Y-64947409D01*
X78663453Y-64964736D01*
X78683827Y-64978349D01*
X78706466Y-64987727D01*
X78730499Y-64992507D01*
X78755003Y-64992507D01*
X78779037Y-64987726D01*
X78801675Y-64978349D01*
X78822050Y-64964735D01*
X78839377Y-64947408D01*
X78852990Y-64927034D01*
X78862368Y-64904395D01*
X78867750Y-64868110D01*
X78867750Y-64615611D01*
X78917746Y-64364263D01*
X79015818Y-64127497D01*
X79158197Y-63914411D01*
X79339411Y-63733197D01*
X79552495Y-63590819D01*
X79552497Y-63590818D01*
X79789263Y-63492746D01*
X80040611Y-63442750D01*
X80296889Y-63442750D01*
X80548237Y-63492746D01*
G37*
G36*
X60704487Y-63492746D02*
G01*
X60941253Y-63590818D01*
X60941255Y-63590819D01*
X61154339Y-63733197D01*
X61335553Y-63914411D01*
X61477932Y-64127497D01*
X61576004Y-64364263D01*
X61626000Y-64615611D01*
X61626000Y-64868111D01*
X61628402Y-64892497D01*
X61635515Y-64915946D01*
X61647066Y-64937557D01*
X61662611Y-64956499D01*
X61681553Y-64972044D01*
X61703164Y-64983595D01*
X61726613Y-64990708D01*
X61750999Y-64993110D01*
X61775385Y-64990708D01*
X61798834Y-64983595D01*
X61820445Y-64972044D01*
X61847621Y-64947414D01*
X61991656Y-64771906D01*
X62174532Y-64621823D01*
X62383173Y-64510302D01*
X62609563Y-64441628D01*
X62845000Y-64418439D01*
X63080436Y-64441628D01*
X63306826Y-64510302D01*
X63515467Y-64621823D01*
X63698344Y-64771906D01*
X63848427Y-64954782D01*
X63959948Y-65163423D01*
X64028622Y-65389813D01*
X64046000Y-65566251D01*
X64046000Y-66295408D01*
X64048402Y-66319794D01*
X64055515Y-66343243D01*
X64067066Y-66364854D01*
X64082611Y-66383796D01*
X64101553Y-66399341D01*
X64123164Y-66410892D01*
X64146613Y-66418005D01*
X64170999Y-66420407D01*
X64195385Y-66418005D01*
X64218834Y-66410892D01*
X64240445Y-66399341D01*
X64259387Y-66383796D01*
X64274932Y-66364854D01*
X64286483Y-66343243D01*
X64304996Y-66298549D01*
X64304997Y-66298547D01*
X64430960Y-66110030D01*
X64591280Y-65949710D01*
X64779797Y-65823747D01*
X64989266Y-65736982D01*
X65100451Y-65714866D01*
X65211635Y-65692750D01*
X65438365Y-65692750D01*
X65549549Y-65714866D01*
X65660734Y-65736982D01*
X65870203Y-65823747D01*
X66058720Y-65949710D01*
X66219040Y-66110030D01*
X66345003Y-66298547D01*
X66345004Y-66298549D01*
X66431768Y-66508017D01*
X66470920Y-66704844D01*
X66476000Y-66730386D01*
X66476000Y-66957114D01*
X66431768Y-67179484D01*
X66345003Y-67388953D01*
X66219040Y-67577470D01*
X66058720Y-67737790D01*
X65870203Y-67863753D01*
X65870202Y-67863754D01*
X65870201Y-67863754D01*
X65811967Y-67887875D01*
X65660734Y-67950518D01*
X65575752Y-67967422D01*
X65429613Y-67996491D01*
X65406164Y-68003604D01*
X65384553Y-68015155D01*
X65365611Y-68030700D01*
X65350066Y-68049642D01*
X65338515Y-68071253D01*
X65331402Y-68094702D01*
X65329000Y-68119088D01*
X65329000Y-68221350D01*
X65283116Y-68452026D01*
X65222299Y-68598850D01*
X65193109Y-68669321D01*
X65062440Y-68864880D01*
X64896130Y-69031190D01*
X64700571Y-69161859D01*
X64700570Y-69161860D01*
X64700569Y-69161860D01*
X64483276Y-69251866D01*
X64252600Y-69297750D01*
X64017400Y-69297750D01*
X63786724Y-69251866D01*
X63569431Y-69161860D01*
X63569430Y-69161860D01*
X63569429Y-69161859D01*
X63373870Y-69031190D01*
X63207560Y-68864880D01*
X63076891Y-68669321D01*
X63047701Y-68598850D01*
X62986884Y-68452026D01*
X62941000Y-68221350D01*
X62941000Y-67991808D01*
X62938598Y-67967422D01*
X62931485Y-67943973D01*
X62919934Y-67922362D01*
X62904389Y-67903420D01*
X62885447Y-67887875D01*
X62863836Y-67876324D01*
X62828256Y-67867412D01*
X62609564Y-67845872D01*
X62383174Y-67777198D01*
X62174533Y-67665677D01*
X61991657Y-67515594D01*
X61841574Y-67332718D01*
X61730052Y-67124077D01*
X61661378Y-66897687D01*
X61644000Y-66721249D01*
X61644000Y-65566252D01*
X61647624Y-65529458D01*
X61647624Y-65504954D01*
X61642843Y-65480920D01*
X61633466Y-65458282D01*
X61619852Y-65437907D01*
X61602524Y-65420581D01*
X61582150Y-65406967D01*
X61559511Y-65397590D01*
X61535478Y-65392810D01*
X61510974Y-65392810D01*
X61486940Y-65397591D01*
X61464302Y-65406968D01*
X61443927Y-65420582D01*
X61419294Y-65447762D01*
X61335555Y-65573087D01*
X61154339Y-65754303D01*
X60941255Y-65896681D01*
X60941254Y-65896682D01*
X60941253Y-65896682D01*
X60704487Y-65994754D01*
X60453139Y-66044750D01*
X60196861Y-66044750D01*
X59945513Y-65994754D01*
X59708747Y-65896682D01*
X59708746Y-65896682D01*
X59708745Y-65896681D01*
X59495661Y-65754303D01*
X59314445Y-65573087D01*
X59230706Y-65447762D01*
X59215161Y-65428820D01*
X59196219Y-65413274D01*
X59174608Y-65401723D01*
X59151159Y-65394610D01*
X59126773Y-65392208D01*
X59102387Y-65394610D01*
X59078938Y-65401723D01*
X59057328Y-65413274D01*
X59038386Y-65428819D01*
X59022840Y-65447761D01*
X59011289Y-65469372D01*
X59004176Y-65492821D01*
X59002376Y-65529457D01*
X59006000Y-65566251D01*
X59006000Y-66721249D01*
X58988622Y-66897687D01*
X58919948Y-67124077D01*
X58808427Y-67332718D01*
X58658344Y-67515594D01*
X58475468Y-67665677D01*
X58266827Y-67777198D01*
X58040437Y-67845872D01*
X57821742Y-67867412D01*
X57797714Y-67872191D01*
X57775075Y-67881569D01*
X57754700Y-67895183D01*
X57737373Y-67912510D01*
X57723760Y-67932884D01*
X57714382Y-67955523D01*
X57709000Y-67991808D01*
X57709000Y-68221350D01*
X57663116Y-68452026D01*
X57602299Y-68598850D01*
X57573109Y-68669321D01*
X57442440Y-68864880D01*
X57276130Y-69031190D01*
X57080571Y-69161859D01*
X57080570Y-69161860D01*
X57080569Y-69161860D01*
X56863276Y-69251866D01*
X56632600Y-69297750D01*
X56397400Y-69297750D01*
X56166724Y-69251866D01*
X55949431Y-69161860D01*
X55949430Y-69161860D01*
X55949429Y-69161859D01*
X55753870Y-69031190D01*
X55587560Y-68864880D01*
X55456891Y-68669321D01*
X55427701Y-68598850D01*
X55366884Y-68452026D01*
X55321000Y-68221350D01*
X55321000Y-68119749D01*
X55318598Y-68095363D01*
X55311485Y-68071914D01*
X55299934Y-68050303D01*
X55284389Y-68031361D01*
X55265447Y-68015816D01*
X55243836Y-68004265D01*
X55220387Y-67997152D01*
X55196001Y-67994750D01*
X55116655Y-67994750D01*
X55005471Y-67972634D01*
X54894286Y-67950518D01*
X54743053Y-67887875D01*
X54684819Y-67863754D01*
X54684818Y-67863754D01*
X54684817Y-67863753D01*
X54496300Y-67737790D01*
X54335980Y-67577470D01*
X54210017Y-67388953D01*
X54123252Y-67179484D01*
X54079020Y-66957114D01*
X54079020Y-66730386D01*
X54084101Y-66704844D01*
X54123252Y-66508017D01*
X54210016Y-66298549D01*
X54210017Y-66298547D01*
X54335980Y-66110030D01*
X54496300Y-65949710D01*
X54684817Y-65823747D01*
X54894286Y-65736982D01*
X55005471Y-65714866D01*
X55116655Y-65692750D01*
X55343385Y-65692750D01*
X55454569Y-65714866D01*
X55565754Y-65736982D01*
X55775223Y-65823747D01*
X55963740Y-65949710D01*
X56124060Y-66110030D01*
X56250023Y-66298547D01*
X56250024Y-66298549D01*
X56336788Y-66508017D01*
X56356404Y-66606633D01*
X56363517Y-66630082D01*
X56375068Y-66651693D01*
X56390613Y-66670635D01*
X56409555Y-66686180D01*
X56431166Y-66697731D01*
X56454615Y-66704844D01*
X56479001Y-66707246D01*
X56503387Y-66704844D01*
X56526836Y-66697731D01*
X56548447Y-66686180D01*
X56567389Y-66670635D01*
X56582934Y-66651693D01*
X56594485Y-66630082D01*
X56601598Y-66606633D01*
X56604000Y-66582247D01*
X56604000Y-65566252D01*
X56621378Y-65389814D01*
X56690052Y-65163424D01*
X56801573Y-64954783D01*
X56951656Y-64771906D01*
X57134532Y-64621823D01*
X57343173Y-64510302D01*
X57569563Y-64441628D01*
X57805000Y-64418439D01*
X58040436Y-64441628D01*
X58266826Y-64510302D01*
X58475467Y-64621823D01*
X58658344Y-64771906D01*
X58757311Y-64892497D01*
X58802376Y-64947409D01*
X58819703Y-64964736D01*
X58840077Y-64978349D01*
X58862716Y-64987727D01*
X58886749Y-64992507D01*
X58911253Y-64992507D01*
X58935287Y-64987726D01*
X58957925Y-64978349D01*
X58978300Y-64964735D01*
X58995627Y-64947408D01*
X59009240Y-64927034D01*
X59018618Y-64904395D01*
X59024000Y-64868110D01*
X59024000Y-64615611D01*
X59073996Y-64364263D01*
X59172068Y-64127497D01*
X59314447Y-63914411D01*
X59495661Y-63733197D01*
X59708745Y-63590819D01*
X59708747Y-63590818D01*
X59945513Y-63492746D01*
X60196861Y-63442750D01*
X60453139Y-63442750D01*
X60704487Y-63492746D01*
G37*
G36*
X100391987Y-63492746D02*
G01*
X100628753Y-63590818D01*
X100628755Y-63590819D01*
X100841839Y-63733197D01*
X101023053Y-63914411D01*
X101165432Y-64127497D01*
X101263504Y-64364263D01*
X101313500Y-64615611D01*
X101313500Y-64868111D01*
X101315902Y-64892497D01*
X101323015Y-64915946D01*
X101334566Y-64937557D01*
X101350111Y-64956499D01*
X101369053Y-64972044D01*
X101390664Y-64983595D01*
X101414113Y-64990708D01*
X101438499Y-64993110D01*
X101462885Y-64990708D01*
X101486334Y-64983595D01*
X101507945Y-64972044D01*
X101535121Y-64947414D01*
X101679156Y-64771906D01*
X101862032Y-64621823D01*
X102070673Y-64510302D01*
X102297063Y-64441628D01*
X102532500Y-64418439D01*
X102767936Y-64441628D01*
X102994326Y-64510302D01*
X103202967Y-64621823D01*
X103385844Y-64771906D01*
X103535927Y-64954782D01*
X103647448Y-65163423D01*
X103716122Y-65389813D01*
X103733500Y-65566251D01*
X103733500Y-66295408D01*
X103735902Y-66319794D01*
X103743015Y-66343243D01*
X103754566Y-66364854D01*
X103770111Y-66383796D01*
X103789053Y-66399341D01*
X103810664Y-66410892D01*
X103834113Y-66418005D01*
X103858499Y-66420407D01*
X103882885Y-66418005D01*
X103906334Y-66410892D01*
X103927945Y-66399341D01*
X103946887Y-66383796D01*
X103962432Y-66364854D01*
X103973983Y-66343243D01*
X103992496Y-66298549D01*
X103992497Y-66298547D01*
X104118460Y-66110030D01*
X104278780Y-65949710D01*
X104467297Y-65823747D01*
X104676766Y-65736982D01*
X104787951Y-65714866D01*
X104899135Y-65692750D01*
X105125865Y-65692750D01*
X105237049Y-65714866D01*
X105348234Y-65736982D01*
X105557703Y-65823747D01*
X105746220Y-65949710D01*
X105906540Y-66110030D01*
X106032503Y-66298547D01*
X106032504Y-66298549D01*
X106119268Y-66508017D01*
X106158420Y-66704844D01*
X106163500Y-66730386D01*
X106163500Y-66957114D01*
X106119268Y-67179484D01*
X106032503Y-67388953D01*
X105906540Y-67577470D01*
X105746220Y-67737790D01*
X105557703Y-67863753D01*
X105557702Y-67863754D01*
X105557701Y-67863754D01*
X105499467Y-67887875D01*
X105348234Y-67950518D01*
X105263252Y-67967422D01*
X105117113Y-67996491D01*
X105093664Y-68003604D01*
X105072053Y-68015155D01*
X105053111Y-68030700D01*
X105037566Y-68049642D01*
X105026015Y-68071253D01*
X105018902Y-68094702D01*
X105016500Y-68119088D01*
X105016500Y-68221350D01*
X104970616Y-68452026D01*
X104909799Y-68598850D01*
X104880609Y-68669321D01*
X104749940Y-68864880D01*
X104583630Y-69031190D01*
X104388071Y-69161859D01*
X104388070Y-69161860D01*
X104388069Y-69161860D01*
X104170776Y-69251866D01*
X103940100Y-69297750D01*
X103704900Y-69297750D01*
X103474224Y-69251866D01*
X103256931Y-69161860D01*
X103256930Y-69161860D01*
X103256929Y-69161859D01*
X103061370Y-69031190D01*
X102895060Y-68864880D01*
X102764391Y-68669321D01*
X102735201Y-68598850D01*
X102674384Y-68452026D01*
X102628500Y-68221350D01*
X102628500Y-67991808D01*
X102626098Y-67967422D01*
X102618985Y-67943973D01*
X102607434Y-67922362D01*
X102591889Y-67903420D01*
X102572947Y-67887875D01*
X102551336Y-67876324D01*
X102515756Y-67867412D01*
X102297064Y-67845872D01*
X102070674Y-67777198D01*
X101862033Y-67665677D01*
X101679157Y-67515594D01*
X101529074Y-67332718D01*
X101417552Y-67124077D01*
X101348878Y-66897687D01*
X101331500Y-66721249D01*
X101331500Y-65566252D01*
X101335124Y-65529458D01*
X101335124Y-65504954D01*
X101330343Y-65480920D01*
X101320966Y-65458282D01*
X101307352Y-65437907D01*
X101290024Y-65420581D01*
X101269650Y-65406967D01*
X101247011Y-65397590D01*
X101222978Y-65392810D01*
X101198474Y-65392810D01*
X101174440Y-65397591D01*
X101151802Y-65406968D01*
X101131427Y-65420582D01*
X101106794Y-65447762D01*
X101023055Y-65573087D01*
X100841839Y-65754303D01*
X100628755Y-65896681D01*
X100628754Y-65896682D01*
X100628753Y-65896682D01*
X100391987Y-65994754D01*
X100140639Y-66044750D01*
X99884361Y-66044750D01*
X99633013Y-65994754D01*
X99396247Y-65896682D01*
X99396246Y-65896682D01*
X99396245Y-65896681D01*
X99183161Y-65754303D01*
X99001945Y-65573087D01*
X98918206Y-65447762D01*
X98902661Y-65428820D01*
X98883719Y-65413274D01*
X98862108Y-65401723D01*
X98838659Y-65394610D01*
X98814273Y-65392208D01*
X98789887Y-65394610D01*
X98766438Y-65401723D01*
X98744828Y-65413274D01*
X98725886Y-65428819D01*
X98710340Y-65447761D01*
X98698789Y-65469372D01*
X98691676Y-65492821D01*
X98689876Y-65529457D01*
X98693500Y-65566251D01*
X98693500Y-66721249D01*
X98676122Y-66897687D01*
X98607448Y-67124077D01*
X98495927Y-67332718D01*
X98345844Y-67515594D01*
X98162968Y-67665677D01*
X97954327Y-67777198D01*
X97727937Y-67845872D01*
X97509242Y-67867412D01*
X97485214Y-67872191D01*
X97462575Y-67881569D01*
X97442200Y-67895183D01*
X97424873Y-67912510D01*
X97411260Y-67932884D01*
X97401882Y-67955523D01*
X97396500Y-67991808D01*
X97396500Y-68221350D01*
X97350616Y-68452026D01*
X97289799Y-68598850D01*
X97260609Y-68669321D01*
X97129940Y-68864880D01*
X96963630Y-69031190D01*
X96768071Y-69161859D01*
X96768070Y-69161860D01*
X96768069Y-69161860D01*
X96550776Y-69251866D01*
X96320100Y-69297750D01*
X96084900Y-69297750D01*
X95854224Y-69251866D01*
X95636931Y-69161860D01*
X95636930Y-69161860D01*
X95636929Y-69161859D01*
X95441370Y-69031190D01*
X95275060Y-68864880D01*
X95144391Y-68669321D01*
X95115201Y-68598850D01*
X95054384Y-68452026D01*
X95008500Y-68221350D01*
X95008500Y-68119749D01*
X95006098Y-68095363D01*
X94998985Y-68071914D01*
X94987434Y-68050303D01*
X94971889Y-68031361D01*
X94952947Y-68015816D01*
X94931336Y-68004265D01*
X94907887Y-67997152D01*
X94883501Y-67994750D01*
X94804155Y-67994750D01*
X94692971Y-67972634D01*
X94581786Y-67950518D01*
X94430553Y-67887875D01*
X94372319Y-67863754D01*
X94372318Y-67863754D01*
X94372317Y-67863753D01*
X94183800Y-67737790D01*
X94023480Y-67577470D01*
X93897517Y-67388953D01*
X93810752Y-67179484D01*
X93766520Y-66957114D01*
X93766520Y-66730386D01*
X93771601Y-66704844D01*
X93810752Y-66508017D01*
X93897516Y-66298549D01*
X93897517Y-66298547D01*
X94023480Y-66110030D01*
X94183800Y-65949710D01*
X94372317Y-65823747D01*
X94581786Y-65736982D01*
X94692971Y-65714866D01*
X94804155Y-65692750D01*
X95030885Y-65692750D01*
X95142069Y-65714866D01*
X95253254Y-65736982D01*
X95462723Y-65823747D01*
X95651240Y-65949710D01*
X95811560Y-66110030D01*
X95937523Y-66298547D01*
X95937524Y-66298549D01*
X96024288Y-66508017D01*
X96043904Y-66606633D01*
X96051017Y-66630082D01*
X96062568Y-66651693D01*
X96078113Y-66670635D01*
X96097055Y-66686180D01*
X96118666Y-66697731D01*
X96142115Y-66704844D01*
X96166501Y-66707246D01*
X96190887Y-66704844D01*
X96214336Y-66697731D01*
X96235947Y-66686180D01*
X96254889Y-66670635D01*
X96270434Y-66651693D01*
X96281985Y-66630082D01*
X96289098Y-66606633D01*
X96291500Y-66582247D01*
X96291500Y-65566252D01*
X96308878Y-65389814D01*
X96377552Y-65163424D01*
X96489073Y-64954783D01*
X96639156Y-64771906D01*
X96822032Y-64621823D01*
X97030673Y-64510302D01*
X97257063Y-64441628D01*
X97492500Y-64418439D01*
X97727936Y-64441628D01*
X97954326Y-64510302D01*
X98162967Y-64621823D01*
X98345844Y-64771906D01*
X98444811Y-64892497D01*
X98489876Y-64947409D01*
X98507203Y-64964736D01*
X98527577Y-64978349D01*
X98550216Y-64987727D01*
X98574249Y-64992507D01*
X98598753Y-64992507D01*
X98622787Y-64987726D01*
X98645425Y-64978349D01*
X98665800Y-64964735D01*
X98683127Y-64947408D01*
X98696740Y-64927034D01*
X98706118Y-64904395D01*
X98711500Y-64868110D01*
X98711500Y-64615611D01*
X98761496Y-64364263D01*
X98859568Y-64127497D01*
X99001947Y-63914411D01*
X99183161Y-63733197D01*
X99396245Y-63590819D01*
X99396247Y-63590818D01*
X99633013Y-63492746D01*
X99884361Y-63442750D01*
X100140639Y-63442750D01*
X100391987Y-63492746D01*
G37*
G36*
X78369750Y-56773500D02*
G01*
X76467750Y-56773500D01*
X76467750Y-55851500D01*
X78369750Y-55851500D01*
X78369750Y-56773500D01*
G37*
G36*
X58526000Y-56773500D02*
G01*
X56624000Y-56773500D01*
X56624000Y-55851500D01*
X58526000Y-55851500D01*
X58526000Y-56773500D01*
G37*
G36*
X103713500Y-56773500D02*
G01*
X101811500Y-56773500D01*
X101811500Y-55851500D01*
X103713500Y-55851500D01*
X103713500Y-56773500D01*
G37*
G36*
X98213500Y-56773500D02*
G01*
X96311500Y-56773500D01*
X96311500Y-55851500D01*
X98213500Y-55851500D01*
X98213500Y-56773500D01*
G37*
G36*
X83869750Y-56773500D02*
G01*
X81967750Y-56773500D01*
X81967750Y-55851500D01*
X83869750Y-55851500D01*
X83869750Y-56773500D01*
G37*
G36*
X64026000Y-56773500D02*
G01*
X62124000Y-56773500D01*
X62124000Y-55851500D01*
X64026000Y-55851500D01*
X64026000Y-56773500D01*
G37*
G36*
X65639910Y-54374017D02*
G01*
X65758384Y-54423091D01*
X65865008Y-54494335D01*
X65955685Y-54585012D01*
X66026929Y-54691636D01*
X66076003Y-54810110D01*
X66101020Y-54935882D01*
X66101020Y-55064118D01*
X66076003Y-55189890D01*
X66026929Y-55308364D01*
X65955685Y-55414988D01*
X65865008Y-55505665D01*
X65758384Y-55576909D01*
X65758383Y-55576910D01*
X65758382Y-55576910D01*
X65639910Y-55625983D01*
X65514139Y-55651000D01*
X65385901Y-55651000D01*
X65260130Y-55625983D01*
X65141658Y-55576910D01*
X65141657Y-55576910D01*
X65141656Y-55576909D01*
X65035032Y-55505665D01*
X64944355Y-55414988D01*
X64873111Y-55308364D01*
X64824037Y-55189890D01*
X64799020Y-55064118D01*
X64799020Y-54935882D01*
X64824037Y-54810110D01*
X64873111Y-54691636D01*
X64944355Y-54585012D01*
X65035032Y-54494335D01*
X65141656Y-54423091D01*
X65260130Y-54374017D01*
X65385901Y-54349000D01*
X65514139Y-54349000D01*
X65639910Y-54374017D01*
G37*
G36*
X75138640Y-54374017D02*
G01*
X75257114Y-54423091D01*
X75363738Y-54494335D01*
X75454415Y-54585012D01*
X75525659Y-54691636D01*
X75574733Y-54810110D01*
X75599750Y-54935882D01*
X75599750Y-55064118D01*
X75574733Y-55189890D01*
X75525659Y-55308364D01*
X75454415Y-55414988D01*
X75363738Y-55505665D01*
X75257114Y-55576909D01*
X75257113Y-55576910D01*
X75257112Y-55576910D01*
X75138640Y-55625983D01*
X75012869Y-55651000D01*
X74884631Y-55651000D01*
X74758860Y-55625983D01*
X74640388Y-55576910D01*
X74640387Y-55576910D01*
X74640386Y-55576909D01*
X74533762Y-55505665D01*
X74443085Y-55414988D01*
X74371841Y-55308364D01*
X74322767Y-55189890D01*
X74297750Y-55064118D01*
X74297750Y-54935882D01*
X74322767Y-54810110D01*
X74371841Y-54691636D01*
X74443085Y-54585012D01*
X74533762Y-54494335D01*
X74640386Y-54423091D01*
X74758860Y-54374017D01*
X74884631Y-54349000D01*
X75012869Y-54349000D01*
X75138640Y-54374017D01*
G37*
G36*
X85483660Y-54374017D02*
G01*
X85602134Y-54423091D01*
X85708758Y-54494335D01*
X85799435Y-54585012D01*
X85870679Y-54691636D01*
X85919753Y-54810110D01*
X85944770Y-54935882D01*
X85944770Y-55064118D01*
X85919753Y-55189890D01*
X85870679Y-55308364D01*
X85799435Y-55414988D01*
X85708758Y-55505665D01*
X85602134Y-55576909D01*
X85602133Y-55576910D01*
X85602132Y-55576910D01*
X85483660Y-55625983D01*
X85357889Y-55651000D01*
X85229651Y-55651000D01*
X85103880Y-55625983D01*
X84985408Y-55576910D01*
X84985407Y-55576910D01*
X84985406Y-55576909D01*
X84878782Y-55505665D01*
X84788105Y-55414988D01*
X84716861Y-55308364D01*
X84667787Y-55189890D01*
X84642770Y-55064118D01*
X84642770Y-54935882D01*
X84667787Y-54810110D01*
X84716861Y-54691636D01*
X84788105Y-54585012D01*
X84878782Y-54494335D01*
X84985406Y-54423091D01*
X85103880Y-54374017D01*
X85229651Y-54349000D01*
X85357889Y-54349000D01*
X85483660Y-54374017D01*
G37*
G36*
X105327410Y-54374017D02*
G01*
X105445884Y-54423091D01*
X105552508Y-54494335D01*
X105643185Y-54585012D01*
X105714429Y-54691636D01*
X105763503Y-54810110D01*
X105788520Y-54935882D01*
X105788520Y-55064118D01*
X105763503Y-55189890D01*
X105714429Y-55308364D01*
X105643185Y-55414988D01*
X105552508Y-55505665D01*
X105445884Y-55576909D01*
X105445883Y-55576910D01*
X105445882Y-55576910D01*
X105327410Y-55625983D01*
X105201639Y-55651000D01*
X105073401Y-55651000D01*
X104947630Y-55625983D01*
X104829158Y-55576910D01*
X104829157Y-55576910D01*
X104829156Y-55576909D01*
X104722532Y-55505665D01*
X104631855Y-55414988D01*
X104560611Y-55308364D01*
X104511537Y-55189890D01*
X104486520Y-55064118D01*
X104486520Y-54935882D01*
X104511537Y-54810110D01*
X104560611Y-54691636D01*
X104631855Y-54585012D01*
X104722532Y-54494335D01*
X104829156Y-54423091D01*
X104947630Y-54374017D01*
X105073401Y-54349000D01*
X105201639Y-54349000D01*
X105327410Y-54374017D01*
G37*
G36*
X94982390Y-54374017D02*
G01*
X95100864Y-54423091D01*
X95207488Y-54494335D01*
X95298165Y-54585012D01*
X95369409Y-54691636D01*
X95418483Y-54810110D01*
X95443500Y-54935882D01*
X95443500Y-55064118D01*
X95418483Y-55189890D01*
X95369409Y-55308364D01*
X95298165Y-55414988D01*
X95207488Y-55505665D01*
X95100864Y-55576909D01*
X95100863Y-55576910D01*
X95100862Y-55576910D01*
X94982390Y-55625983D01*
X94856619Y-55651000D01*
X94728381Y-55651000D01*
X94602610Y-55625983D01*
X94484138Y-55576910D01*
X94484137Y-55576910D01*
X94484136Y-55576909D01*
X94377512Y-55505665D01*
X94286835Y-55414988D01*
X94215591Y-55308364D01*
X94166517Y-55189890D01*
X94141500Y-55064118D01*
X94141500Y-54935882D01*
X94166517Y-54810110D01*
X94215591Y-54691636D01*
X94286835Y-54585012D01*
X94377512Y-54494335D01*
X94484136Y-54423091D01*
X94602610Y-54374017D01*
X94728381Y-54349000D01*
X94856619Y-54349000D01*
X94982390Y-54374017D01*
G37*
G36*
X55294890Y-54374017D02*
G01*
X55413364Y-54423091D01*
X55519988Y-54494335D01*
X55610665Y-54585012D01*
X55681909Y-54691636D01*
X55730983Y-54810110D01*
X55756000Y-54935882D01*
X55756000Y-55064118D01*
X55730983Y-55189890D01*
X55681909Y-55308364D01*
X55610665Y-55414988D01*
X55519988Y-55505665D01*
X55413364Y-55576909D01*
X55413363Y-55576910D01*
X55413362Y-55576910D01*
X55294890Y-55625983D01*
X55169119Y-55651000D01*
X55040881Y-55651000D01*
X54915110Y-55625983D01*
X54796638Y-55576910D01*
X54796637Y-55576910D01*
X54796636Y-55576909D01*
X54690012Y-55505665D01*
X54599335Y-55414988D01*
X54528091Y-55308364D01*
X54479017Y-55189890D01*
X54454000Y-55064118D01*
X54454000Y-54935882D01*
X54479017Y-54810110D01*
X54528091Y-54691636D01*
X54599335Y-54585012D01*
X54690012Y-54494335D01*
X54796636Y-54423091D01*
X54915110Y-54374017D01*
X55040881Y-54349000D01*
X55169119Y-54349000D01*
X55294890Y-54374017D01*
G37*
G36*
X58526000Y-55273500D02*
G01*
X56624000Y-55273500D01*
X56624000Y-54351500D01*
X58526000Y-54351500D01*
X58526000Y-55273500D01*
G37*
G36*
X64026000Y-55273500D02*
G01*
X62124000Y-55273500D01*
X62124000Y-54351500D01*
X64026000Y-54351500D01*
X64026000Y-55273500D01*
G37*
G36*
X78369750Y-55273500D02*
G01*
X76467750Y-55273500D01*
X76467750Y-54351500D01*
X78369750Y-54351500D01*
X78369750Y-55273500D01*
G37*
G36*
X98213500Y-55273500D02*
G01*
X96311500Y-55273500D01*
X96311500Y-54351500D01*
X98213500Y-54351500D01*
X98213500Y-55273500D01*
G37*
G36*
X103713500Y-55273500D02*
G01*
X101811500Y-55273500D01*
X101811500Y-54351500D01*
X103713500Y-54351500D01*
X103713500Y-55273500D01*
G37*
G36*
X83869750Y-55273500D02*
G01*
X81967750Y-55273500D01*
X81967750Y-54351500D01*
X83869750Y-54351500D01*
X83869750Y-55273500D01*
G37*
G36*
X100608974Y-48833684D02*
G01*
X100826974Y-48923983D01*
X100981123Y-48987833D01*
X101316048Y-49211623D01*
X101600877Y-49496452D01*
X101824667Y-49831377D01*
X101882331Y-49970591D01*
X101978816Y-50203526D01*
X102057400Y-50598594D01*
X102057400Y-51001406D01*
X101978816Y-51396474D01*
X101903821Y-51577527D01*
X101824667Y-51768623D01*
X101600877Y-52103548D01*
X101316048Y-52388377D01*
X100981123Y-52612167D01*
X100826974Y-52676017D01*
X100608974Y-52766316D01*
X100213906Y-52844900D01*
X99811094Y-52844900D01*
X99416026Y-52766316D01*
X99198026Y-52676017D01*
X99043877Y-52612167D01*
X98708952Y-52388377D01*
X98424123Y-52103548D01*
X98200333Y-51768623D01*
X98121179Y-51577527D01*
X98046184Y-51396474D01*
X97967600Y-51001406D01*
X97967600Y-50598594D01*
X98046184Y-50203526D01*
X98142669Y-49970591D01*
X98200333Y-49831377D01*
X98424123Y-49496452D01*
X98708952Y-49211623D01*
X99043877Y-48987833D01*
X99198026Y-48923983D01*
X99416026Y-48833684D01*
X99811094Y-48755100D01*
X100213906Y-48755100D01*
X100608974Y-48833684D01*
G37*
G36*
X80765224Y-48833684D02*
G01*
X80983224Y-48923983D01*
X81137373Y-48987833D01*
X81472298Y-49211623D01*
X81757127Y-49496452D01*
X81980917Y-49831377D01*
X82038581Y-49970591D01*
X82135066Y-50203526D01*
X82213650Y-50598594D01*
X82213650Y-51001406D01*
X82135066Y-51396474D01*
X82060071Y-51577527D01*
X81980917Y-51768623D01*
X81757127Y-52103548D01*
X81472298Y-52388377D01*
X81137373Y-52612167D01*
X80983224Y-52676017D01*
X80765224Y-52766316D01*
X80370156Y-52844900D01*
X79967344Y-52844900D01*
X79572276Y-52766316D01*
X79354276Y-52676017D01*
X79200127Y-52612167D01*
X78865202Y-52388377D01*
X78580373Y-52103548D01*
X78356583Y-51768623D01*
X78277429Y-51577527D01*
X78202434Y-51396474D01*
X78123850Y-51001406D01*
X78123850Y-50598594D01*
X78202434Y-50203526D01*
X78298919Y-49970591D01*
X78356583Y-49831377D01*
X78580373Y-49496452D01*
X78865202Y-49211623D01*
X79200127Y-48987833D01*
X79354276Y-48923983D01*
X79572276Y-48833684D01*
X79967344Y-48755100D01*
X80370156Y-48755100D01*
X80765224Y-48833684D01*
G37*
G36*
X60921474Y-48833684D02*
G01*
X61139474Y-48923983D01*
X61293623Y-48987833D01*
X61628548Y-49211623D01*
X61913377Y-49496452D01*
X62137167Y-49831377D01*
X62194831Y-49970591D01*
X62291316Y-50203526D01*
X62369900Y-50598594D01*
X62369900Y-51001406D01*
X62291316Y-51396474D01*
X62216321Y-51577527D01*
X62137167Y-51768623D01*
X61913377Y-52103548D01*
X61628548Y-52388377D01*
X61293623Y-52612167D01*
X61139474Y-52676017D01*
X60921474Y-52766316D01*
X60526406Y-52844900D01*
X60123594Y-52844900D01*
X59728526Y-52766316D01*
X59510526Y-52676017D01*
X59356377Y-52612167D01*
X59021452Y-52388377D01*
X58736623Y-52103548D01*
X58512833Y-51768623D01*
X58433679Y-51577527D01*
X58358684Y-51396474D01*
X58280100Y-51001406D01*
X58280100Y-50598594D01*
X58358684Y-50203526D01*
X58455169Y-49970591D01*
X58512833Y-49831377D01*
X58736623Y-49496452D01*
X59021452Y-49211623D01*
X59356377Y-48987833D01*
X59510526Y-48923983D01*
X59728526Y-48833684D01*
X60123594Y-48755100D01*
X60526406Y-48755100D01*
X60921474Y-48833684D01*
G37*
G36*
X55020285Y-49818234D02*
G01*
X55116981Y-49837468D01*
X55299151Y-49912926D01*
X55463100Y-50022473D01*
X55602527Y-50161900D01*
X55712074Y-50325849D01*
X55712075Y-50325851D01*
X55787532Y-50508019D01*
X55801201Y-50576740D01*
X55808314Y-50600186D01*
X55818962Y-50625892D01*
X55841900Y-50741209D01*
X55841900Y-50858791D01*
X55818962Y-50974108D01*
X55808314Y-50999814D01*
X55801201Y-51023260D01*
X55787532Y-51091980D01*
X55787532Y-51091981D01*
X55750866Y-51180501D01*
X55712074Y-51274151D01*
X55602527Y-51438100D01*
X55463100Y-51577527D01*
X55299151Y-51687074D01*
X55116981Y-51762532D01*
X55020285Y-51781766D01*
X54923591Y-51801000D01*
X54726409Y-51801000D01*
X54629715Y-51781766D01*
X54533019Y-51762532D01*
X54350849Y-51687074D01*
X54186900Y-51577527D01*
X54047473Y-51438100D01*
X53937926Y-51274151D01*
X53862468Y-51091981D01*
X53839022Y-50974109D01*
X53824000Y-50898591D01*
X53824000Y-50701409D01*
X53844451Y-50598594D01*
X53862468Y-50508019D01*
X53937926Y-50325849D01*
X54047473Y-50161900D01*
X54186900Y-50022473D01*
X54350849Y-49912926D01*
X54533019Y-49837468D01*
X54726409Y-49799000D01*
X54923591Y-49799000D01*
X55020285Y-49818234D01*
G37*
G36*
X66020285Y-49818234D02*
G01*
X66116981Y-49837468D01*
X66299151Y-49912926D01*
X66463100Y-50022473D01*
X66602527Y-50161900D01*
X66712074Y-50325849D01*
X66787532Y-50508019D01*
X66805549Y-50598594D01*
X66826000Y-50701409D01*
X66826000Y-50898591D01*
X66810978Y-50974109D01*
X66787532Y-51091981D01*
X66712074Y-51274151D01*
X66602527Y-51438100D01*
X66463100Y-51577527D01*
X66299151Y-51687074D01*
X66116981Y-51762532D01*
X66020285Y-51781766D01*
X65923591Y-51801000D01*
X65726409Y-51801000D01*
X65629715Y-51781766D01*
X65533019Y-51762532D01*
X65350849Y-51687074D01*
X65186900Y-51577527D01*
X65047473Y-51438100D01*
X64937926Y-51274151D01*
X64899135Y-51180501D01*
X64862468Y-51091981D01*
X64862468Y-51091980D01*
X64848799Y-51023260D01*
X64841686Y-50999814D01*
X64831038Y-50974108D01*
X64808100Y-50858791D01*
X64808100Y-50741209D01*
X64831038Y-50625892D01*
X64841686Y-50600186D01*
X64848799Y-50576740D01*
X64862468Y-50508019D01*
X64937925Y-50325851D01*
X64937926Y-50325849D01*
X65047473Y-50161900D01*
X65186900Y-50022473D01*
X65350849Y-49912926D01*
X65533019Y-49837468D01*
X65726409Y-49799000D01*
X65923591Y-49799000D01*
X66020285Y-49818234D01*
G37*
G36*
X94707785Y-49818234D02*
G01*
X94804481Y-49837468D01*
X94986651Y-49912926D01*
X95150600Y-50022473D01*
X95290027Y-50161900D01*
X95399574Y-50325849D01*
X95399575Y-50325851D01*
X95475032Y-50508019D01*
X95488701Y-50576740D01*
X95495814Y-50600186D01*
X95506462Y-50625892D01*
X95529400Y-50741209D01*
X95529400Y-50858791D01*
X95506462Y-50974108D01*
X95495814Y-50999814D01*
X95488701Y-51023260D01*
X95475032Y-51091980D01*
X95475032Y-51091981D01*
X95438366Y-51180501D01*
X95399574Y-51274151D01*
X95290027Y-51438100D01*
X95150600Y-51577527D01*
X94986651Y-51687074D01*
X94804481Y-51762532D01*
X94707785Y-51781766D01*
X94611091Y-51801000D01*
X94413909Y-51801000D01*
X94317215Y-51781766D01*
X94220519Y-51762532D01*
X94038349Y-51687074D01*
X93874400Y-51577527D01*
X93734973Y-51438100D01*
X93625426Y-51274151D01*
X93549968Y-51091981D01*
X93526522Y-50974109D01*
X93511500Y-50898591D01*
X93511500Y-50701409D01*
X93531951Y-50598594D01*
X93549968Y-50508019D01*
X93625426Y-50325849D01*
X93734973Y-50161900D01*
X93874400Y-50022473D01*
X94038349Y-49912926D01*
X94220519Y-49837468D01*
X94413909Y-49799000D01*
X94611091Y-49799000D01*
X94707785Y-49818234D01*
G37*
G36*
X105707785Y-49818234D02*
G01*
X105804481Y-49837468D01*
X105986651Y-49912926D01*
X106150600Y-50022473D01*
X106290027Y-50161900D01*
X106399574Y-50325849D01*
X106475032Y-50508019D01*
X106493049Y-50598594D01*
X106513500Y-50701409D01*
X106513500Y-50898591D01*
X106498478Y-50974109D01*
X106475032Y-51091981D01*
X106399574Y-51274151D01*
X106290027Y-51438100D01*
X106150600Y-51577527D01*
X105986651Y-51687074D01*
X105804481Y-51762532D01*
X105707785Y-51781766D01*
X105611091Y-51801000D01*
X105413909Y-51801000D01*
X105317215Y-51781766D01*
X105220519Y-51762532D01*
X105038349Y-51687074D01*
X104874400Y-51577527D01*
X104734973Y-51438100D01*
X104625426Y-51274151D01*
X104586635Y-51180501D01*
X104549968Y-51091981D01*
X104549968Y-51091980D01*
X104536299Y-51023260D01*
X104529186Y-50999814D01*
X104518538Y-50974108D01*
X104495600Y-50858791D01*
X104495600Y-50741209D01*
X104518538Y-50625892D01*
X104529186Y-50600186D01*
X104536299Y-50576740D01*
X104549968Y-50508019D01*
X104625425Y-50325851D01*
X104625426Y-50325849D01*
X104734973Y-50161900D01*
X104874400Y-50022473D01*
X105038349Y-49912926D01*
X105220519Y-49837468D01*
X105413909Y-49799000D01*
X105611091Y-49799000D01*
X105707785Y-49818234D01*
G37*
G36*
X85864035Y-49818234D02*
G01*
X85960731Y-49837468D01*
X86142901Y-49912926D01*
X86306850Y-50022473D01*
X86446277Y-50161900D01*
X86555824Y-50325849D01*
X86631282Y-50508019D01*
X86649299Y-50598594D01*
X86669750Y-50701409D01*
X86669750Y-50898591D01*
X86654728Y-50974109D01*
X86631282Y-51091981D01*
X86555824Y-51274151D01*
X86446277Y-51438100D01*
X86306850Y-51577527D01*
X86142901Y-51687074D01*
X85960731Y-51762532D01*
X85864035Y-51781766D01*
X85767341Y-51801000D01*
X85570159Y-51801000D01*
X85473465Y-51781766D01*
X85376769Y-51762532D01*
X85194599Y-51687074D01*
X85030650Y-51577527D01*
X84891223Y-51438100D01*
X84781676Y-51274151D01*
X84742885Y-51180501D01*
X84706218Y-51091981D01*
X84706218Y-51091980D01*
X84692549Y-51023260D01*
X84685436Y-50999814D01*
X84674788Y-50974108D01*
X84651850Y-50858791D01*
X84651850Y-50741209D01*
X84674788Y-50625892D01*
X84685436Y-50600186D01*
X84692549Y-50576740D01*
X84706218Y-50508019D01*
X84781675Y-50325851D01*
X84781676Y-50325849D01*
X84891223Y-50161900D01*
X85030650Y-50022473D01*
X85194599Y-49912926D01*
X85376769Y-49837468D01*
X85570159Y-49799000D01*
X85767341Y-49799000D01*
X85864035Y-49818234D01*
G37*
G36*
X74864035Y-49818234D02*
G01*
X74960731Y-49837468D01*
X75142901Y-49912926D01*
X75306850Y-50022473D01*
X75446277Y-50161900D01*
X75555824Y-50325849D01*
X75555825Y-50325851D01*
X75631282Y-50508019D01*
X75644951Y-50576740D01*
X75652064Y-50600186D01*
X75662712Y-50625892D01*
X75685650Y-50741209D01*
X75685650Y-50858791D01*
X75662712Y-50974108D01*
X75652064Y-50999814D01*
X75644951Y-51023260D01*
X75631282Y-51091980D01*
X75631282Y-51091981D01*
X75594616Y-51180501D01*
X75555824Y-51274151D01*
X75446277Y-51438100D01*
X75306850Y-51577527D01*
X75142901Y-51687074D01*
X74960731Y-51762532D01*
X74864035Y-51781766D01*
X74767341Y-51801000D01*
X74570159Y-51801000D01*
X74473465Y-51781766D01*
X74376769Y-51762532D01*
X74194599Y-51687074D01*
X74030650Y-51577527D01*
X73891223Y-51438100D01*
X73781676Y-51274151D01*
X73706218Y-51091981D01*
X73682772Y-50974109D01*
X73667750Y-50898591D01*
X73667750Y-50701409D01*
X73688201Y-50598594D01*
X73706218Y-50508019D01*
X73781676Y-50325849D01*
X73891223Y-50161900D01*
X74030650Y-50022473D01*
X74194599Y-49912926D01*
X74376769Y-49837468D01*
X74570159Y-49799000D01*
X74767341Y-49799000D01*
X74864035Y-49818234D01*
G37*
G36*
X80548237Y-43648996D02*
G01*
X80785003Y-43747068D01*
X80785005Y-43747069D01*
X80998089Y-43889447D01*
X81179303Y-44070661D01*
X81321682Y-44283747D01*
X81419754Y-44520513D01*
X81469750Y-44771861D01*
X81469750Y-45024361D01*
X81472152Y-45048747D01*
X81479265Y-45072196D01*
X81490816Y-45093807D01*
X81506361Y-45112749D01*
X81525303Y-45128294D01*
X81546914Y-45139845D01*
X81570363Y-45146958D01*
X81594749Y-45149360D01*
X81619135Y-45146958D01*
X81642584Y-45139845D01*
X81664195Y-45128294D01*
X81691371Y-45103664D01*
X81835406Y-44928156D01*
X82018282Y-44778073D01*
X82226923Y-44666552D01*
X82453313Y-44597878D01*
X82688750Y-44574689D01*
X82924186Y-44597878D01*
X83150576Y-44666552D01*
X83359217Y-44778073D01*
X83542094Y-44928156D01*
X83692177Y-45111032D01*
X83803698Y-45319673D01*
X83872372Y-45546063D01*
X83889750Y-45722501D01*
X83889750Y-46451658D01*
X83892152Y-46476044D01*
X83899265Y-46499493D01*
X83910816Y-46521104D01*
X83926361Y-46540046D01*
X83945303Y-46555591D01*
X83966914Y-46567142D01*
X83990363Y-46574255D01*
X84014749Y-46576657D01*
X84039135Y-46574255D01*
X84062584Y-46567142D01*
X84084195Y-46555591D01*
X84103137Y-46540046D01*
X84118682Y-46521104D01*
X84130233Y-46499493D01*
X84148746Y-46454799D01*
X84148747Y-46454797D01*
X84274710Y-46266280D01*
X84435030Y-46105960D01*
X84623547Y-45979997D01*
X84833016Y-45893232D01*
X84944201Y-45871116D01*
X85055385Y-45849000D01*
X85282115Y-45849000D01*
X85393299Y-45871116D01*
X85504484Y-45893232D01*
X85713953Y-45979997D01*
X85902470Y-46105960D01*
X86062790Y-46266280D01*
X86188753Y-46454797D01*
X86188754Y-46454799D01*
X86275518Y-46664267D01*
X86314670Y-46861094D01*
X86319750Y-46886636D01*
X86319750Y-47113364D01*
X86275518Y-47335734D01*
X86188753Y-47545203D01*
X86062790Y-47733720D01*
X85902470Y-47894040D01*
X85713953Y-48020003D01*
X85713952Y-48020004D01*
X85713951Y-48020004D01*
X85655717Y-48044125D01*
X85504484Y-48106768D01*
X85419502Y-48123672D01*
X85273363Y-48152741D01*
X85249914Y-48159854D01*
X85228303Y-48171405D01*
X85209361Y-48186950D01*
X85193816Y-48205892D01*
X85182265Y-48227503D01*
X85175152Y-48250952D01*
X85172750Y-48275338D01*
X85172750Y-48377600D01*
X85126866Y-48608276D01*
X85066049Y-48755100D01*
X85036859Y-48825571D01*
X84906190Y-49021130D01*
X84739880Y-49187440D01*
X84544321Y-49318109D01*
X84544320Y-49318110D01*
X84544319Y-49318110D01*
X84327026Y-49408116D01*
X84096350Y-49454000D01*
X83861150Y-49454000D01*
X83630474Y-49408116D01*
X83413181Y-49318110D01*
X83413180Y-49318110D01*
X83413179Y-49318109D01*
X83217620Y-49187440D01*
X83051310Y-49021130D01*
X82920641Y-48825571D01*
X82891451Y-48755100D01*
X82830634Y-48608276D01*
X82784750Y-48377600D01*
X82784750Y-48148058D01*
X82782348Y-48123672D01*
X82775235Y-48100223D01*
X82763684Y-48078612D01*
X82748139Y-48059670D01*
X82729197Y-48044125D01*
X82707586Y-48032574D01*
X82672006Y-48023662D01*
X82453314Y-48002122D01*
X82226924Y-47933448D01*
X82018283Y-47821927D01*
X81835407Y-47671844D01*
X81685324Y-47488968D01*
X81573802Y-47280327D01*
X81505128Y-47053937D01*
X81487750Y-46877499D01*
X81487750Y-45722502D01*
X81491374Y-45685708D01*
X81491374Y-45661204D01*
X81486593Y-45637170D01*
X81477216Y-45614532D01*
X81463602Y-45594157D01*
X81446274Y-45576831D01*
X81425900Y-45563217D01*
X81403261Y-45553840D01*
X81379228Y-45549060D01*
X81354724Y-45549060D01*
X81330690Y-45553841D01*
X81308052Y-45563218D01*
X81287677Y-45576832D01*
X81263044Y-45604012D01*
X81179305Y-45729337D01*
X80998089Y-45910553D01*
X80785005Y-46052931D01*
X80785004Y-46052932D01*
X80785003Y-46052932D01*
X80548237Y-46151004D01*
X80296889Y-46201000D01*
X80040611Y-46201000D01*
X79789263Y-46151004D01*
X79552497Y-46052932D01*
X79552496Y-46052932D01*
X79552495Y-46052931D01*
X79339411Y-45910553D01*
X79158195Y-45729337D01*
X79074456Y-45604012D01*
X79058911Y-45585070D01*
X79039969Y-45569524D01*
X79018358Y-45557973D01*
X78994909Y-45550860D01*
X78970523Y-45548458D01*
X78946137Y-45550860D01*
X78922688Y-45557973D01*
X78901078Y-45569524D01*
X78882136Y-45585069D01*
X78866590Y-45604011D01*
X78855039Y-45625622D01*
X78847926Y-45649071D01*
X78846126Y-45685707D01*
X78849750Y-45722501D01*
X78849750Y-46877499D01*
X78832372Y-47053937D01*
X78763698Y-47280327D01*
X78652177Y-47488968D01*
X78502094Y-47671844D01*
X78319218Y-47821927D01*
X78110577Y-47933448D01*
X77884187Y-48002122D01*
X77665492Y-48023662D01*
X77641464Y-48028441D01*
X77618825Y-48037819D01*
X77598450Y-48051433D01*
X77581123Y-48068760D01*
X77567510Y-48089134D01*
X77558132Y-48111773D01*
X77552750Y-48148058D01*
X77552750Y-48377600D01*
X77506866Y-48608276D01*
X77446049Y-48755100D01*
X77416859Y-48825571D01*
X77286190Y-49021130D01*
X77119880Y-49187440D01*
X76924321Y-49318109D01*
X76924320Y-49318110D01*
X76924319Y-49318110D01*
X76707026Y-49408116D01*
X76476350Y-49454000D01*
X76241150Y-49454000D01*
X76010474Y-49408116D01*
X75793181Y-49318110D01*
X75793180Y-49318110D01*
X75793179Y-49318109D01*
X75597620Y-49187440D01*
X75431310Y-49021130D01*
X75300641Y-48825571D01*
X75271451Y-48755100D01*
X75210634Y-48608276D01*
X75164750Y-48377600D01*
X75164750Y-48275999D01*
X75162348Y-48251613D01*
X75155235Y-48228164D01*
X75143684Y-48206553D01*
X75128139Y-48187611D01*
X75109197Y-48172066D01*
X75087586Y-48160515D01*
X75064137Y-48153402D01*
X75039751Y-48151000D01*
X74960405Y-48151000D01*
X74849221Y-48128884D01*
X74738036Y-48106768D01*
X74586803Y-48044125D01*
X74528569Y-48020004D01*
X74528568Y-48020004D01*
X74528567Y-48020003D01*
X74340050Y-47894040D01*
X74179730Y-47733720D01*
X74053767Y-47545203D01*
X73967002Y-47335734D01*
X73922770Y-47113364D01*
X73922770Y-46886636D01*
X73927851Y-46861094D01*
X73967002Y-46664267D01*
X74053766Y-46454799D01*
X74053767Y-46454797D01*
X74179730Y-46266280D01*
X74340050Y-46105960D01*
X74528567Y-45979997D01*
X74738036Y-45893232D01*
X74849221Y-45871116D01*
X74960405Y-45849000D01*
X75187135Y-45849000D01*
X75298319Y-45871116D01*
X75409504Y-45893232D01*
X75618973Y-45979997D01*
X75807490Y-46105960D01*
X75967810Y-46266280D01*
X76093773Y-46454797D01*
X76093774Y-46454799D01*
X76180538Y-46664267D01*
X76200154Y-46762883D01*
X76207267Y-46786332D01*
X76218818Y-46807943D01*
X76234363Y-46826885D01*
X76253305Y-46842430D01*
X76274916Y-46853981D01*
X76298365Y-46861094D01*
X76322751Y-46863496D01*
X76347137Y-46861094D01*
X76370586Y-46853981D01*
X76392197Y-46842430D01*
X76411139Y-46826885D01*
X76426684Y-46807943D01*
X76438235Y-46786332D01*
X76445348Y-46762883D01*
X76447750Y-46738497D01*
X76447750Y-45722502D01*
X76465128Y-45546064D01*
X76533802Y-45319674D01*
X76645323Y-45111033D01*
X76795406Y-44928156D01*
X76978282Y-44778073D01*
X77186923Y-44666552D01*
X77413313Y-44597878D01*
X77648750Y-44574689D01*
X77884186Y-44597878D01*
X78110576Y-44666552D01*
X78319217Y-44778073D01*
X78502094Y-44928156D01*
X78601061Y-45048747D01*
X78646126Y-45103659D01*
X78663453Y-45120986D01*
X78683827Y-45134599D01*
X78706466Y-45143977D01*
X78730499Y-45148757D01*
X78755003Y-45148757D01*
X78779037Y-45143976D01*
X78801675Y-45134599D01*
X78822050Y-45120985D01*
X78839377Y-45103658D01*
X78852990Y-45083284D01*
X78862368Y-45060645D01*
X78867750Y-45024360D01*
X78867750Y-44771861D01*
X78917746Y-44520513D01*
X79015818Y-44283747D01*
X79158197Y-44070661D01*
X79339411Y-43889447D01*
X79552495Y-43747069D01*
X79552497Y-43747068D01*
X79789263Y-43648996D01*
X80040611Y-43599000D01*
X80296889Y-43599000D01*
X80548237Y-43648996D01*
G37*
G36*
X60704487Y-43648996D02*
G01*
X60941253Y-43747068D01*
X60941255Y-43747069D01*
X61154339Y-43889447D01*
X61335553Y-44070661D01*
X61477932Y-44283747D01*
X61576004Y-44520513D01*
X61626000Y-44771861D01*
X61626000Y-45024361D01*
X61628402Y-45048747D01*
X61635515Y-45072196D01*
X61647066Y-45093807D01*
X61662611Y-45112749D01*
X61681553Y-45128294D01*
X61703164Y-45139845D01*
X61726613Y-45146958D01*
X61750999Y-45149360D01*
X61775385Y-45146958D01*
X61798834Y-45139845D01*
X61820445Y-45128294D01*
X61847621Y-45103664D01*
X61991656Y-44928156D01*
X62174532Y-44778073D01*
X62383173Y-44666552D01*
X62609563Y-44597878D01*
X62845000Y-44574689D01*
X63080436Y-44597878D01*
X63306826Y-44666552D01*
X63515467Y-44778073D01*
X63698344Y-44928156D01*
X63848427Y-45111032D01*
X63959948Y-45319673D01*
X64028622Y-45546063D01*
X64046000Y-45722501D01*
X64046000Y-46451658D01*
X64048402Y-46476044D01*
X64055515Y-46499493D01*
X64067066Y-46521104D01*
X64082611Y-46540046D01*
X64101553Y-46555591D01*
X64123164Y-46567142D01*
X64146613Y-46574255D01*
X64170999Y-46576657D01*
X64195385Y-46574255D01*
X64218834Y-46567142D01*
X64240445Y-46555591D01*
X64259387Y-46540046D01*
X64274932Y-46521104D01*
X64286483Y-46499493D01*
X64304996Y-46454799D01*
X64304997Y-46454797D01*
X64430960Y-46266280D01*
X64591280Y-46105960D01*
X64779797Y-45979997D01*
X64989266Y-45893232D01*
X65100451Y-45871116D01*
X65211635Y-45849000D01*
X65438365Y-45849000D01*
X65549549Y-45871116D01*
X65660734Y-45893232D01*
X65870203Y-45979997D01*
X66058720Y-46105960D01*
X66219040Y-46266280D01*
X66345003Y-46454797D01*
X66345004Y-46454799D01*
X66431768Y-46664267D01*
X66470920Y-46861094D01*
X66476000Y-46886636D01*
X66476000Y-47113364D01*
X66431768Y-47335734D01*
X66345003Y-47545203D01*
X66219040Y-47733720D01*
X66058720Y-47894040D01*
X65870203Y-48020003D01*
X65870202Y-48020004D01*
X65870201Y-48020004D01*
X65811967Y-48044125D01*
X65660734Y-48106768D01*
X65575752Y-48123672D01*
X65429613Y-48152741D01*
X65406164Y-48159854D01*
X65384553Y-48171405D01*
X65365611Y-48186950D01*
X65350066Y-48205892D01*
X65338515Y-48227503D01*
X65331402Y-48250952D01*
X65329000Y-48275338D01*
X65329000Y-48377600D01*
X65283116Y-48608276D01*
X65222299Y-48755100D01*
X65193109Y-48825571D01*
X65062440Y-49021130D01*
X64896130Y-49187440D01*
X64700571Y-49318109D01*
X64700570Y-49318110D01*
X64700569Y-49318110D01*
X64483276Y-49408116D01*
X64252600Y-49454000D01*
X64017400Y-49454000D01*
X63786724Y-49408116D01*
X63569431Y-49318110D01*
X63569430Y-49318110D01*
X63569429Y-49318109D01*
X63373870Y-49187440D01*
X63207560Y-49021130D01*
X63076891Y-48825571D01*
X63047701Y-48755100D01*
X62986884Y-48608276D01*
X62941000Y-48377600D01*
X62941000Y-48148058D01*
X62938598Y-48123672D01*
X62931485Y-48100223D01*
X62919934Y-48078612D01*
X62904389Y-48059670D01*
X62885447Y-48044125D01*
X62863836Y-48032574D01*
X62828256Y-48023662D01*
X62609564Y-48002122D01*
X62383174Y-47933448D01*
X62174533Y-47821927D01*
X61991657Y-47671844D01*
X61841574Y-47488968D01*
X61730052Y-47280327D01*
X61661378Y-47053937D01*
X61644000Y-46877499D01*
X61644000Y-45722502D01*
X61647624Y-45685708D01*
X61647624Y-45661204D01*
X61642843Y-45637170D01*
X61633466Y-45614532D01*
X61619852Y-45594157D01*
X61602524Y-45576831D01*
X61582150Y-45563217D01*
X61559511Y-45553840D01*
X61535478Y-45549060D01*
X61510974Y-45549060D01*
X61486940Y-45553841D01*
X61464302Y-45563218D01*
X61443927Y-45576832D01*
X61419294Y-45604012D01*
X61335555Y-45729337D01*
X61154339Y-45910553D01*
X60941255Y-46052931D01*
X60941254Y-46052932D01*
X60941253Y-46052932D01*
X60704487Y-46151004D01*
X60453139Y-46201000D01*
X60196861Y-46201000D01*
X59945513Y-46151004D01*
X59708747Y-46052932D01*
X59708746Y-46052932D01*
X59708745Y-46052931D01*
X59495661Y-45910553D01*
X59314445Y-45729337D01*
X59230706Y-45604012D01*
X59215161Y-45585070D01*
X59196219Y-45569524D01*
X59174608Y-45557973D01*
X59151159Y-45550860D01*
X59126773Y-45548458D01*
X59102387Y-45550860D01*
X59078938Y-45557973D01*
X59057328Y-45569524D01*
X59038386Y-45585069D01*
X59022840Y-45604011D01*
X59011289Y-45625622D01*
X59004176Y-45649071D01*
X59002376Y-45685707D01*
X59006000Y-45722501D01*
X59006000Y-46877499D01*
X58988622Y-47053937D01*
X58919948Y-47280327D01*
X58808427Y-47488968D01*
X58658344Y-47671844D01*
X58475468Y-47821927D01*
X58266827Y-47933448D01*
X58040437Y-48002122D01*
X57821742Y-48023662D01*
X57797714Y-48028441D01*
X57775075Y-48037819D01*
X57754700Y-48051433D01*
X57737373Y-48068760D01*
X57723760Y-48089134D01*
X57714382Y-48111773D01*
X57709000Y-48148058D01*
X57709000Y-48377600D01*
X57663116Y-48608276D01*
X57602299Y-48755100D01*
X57573109Y-48825571D01*
X57442440Y-49021130D01*
X57276130Y-49187440D01*
X57080571Y-49318109D01*
X57080570Y-49318110D01*
X57080569Y-49318110D01*
X56863276Y-49408116D01*
X56632600Y-49454000D01*
X56397400Y-49454000D01*
X56166724Y-49408116D01*
X55949431Y-49318110D01*
X55949430Y-49318110D01*
X55949429Y-49318109D01*
X55753870Y-49187440D01*
X55587560Y-49021130D01*
X55456891Y-48825571D01*
X55427701Y-48755100D01*
X55366884Y-48608276D01*
X55321000Y-48377600D01*
X55321000Y-48275999D01*
X55318598Y-48251613D01*
X55311485Y-48228164D01*
X55299934Y-48206553D01*
X55284389Y-48187611D01*
X55265447Y-48172066D01*
X55243836Y-48160515D01*
X55220387Y-48153402D01*
X55196001Y-48151000D01*
X55116655Y-48151000D01*
X55005471Y-48128884D01*
X54894286Y-48106768D01*
X54743053Y-48044125D01*
X54684819Y-48020004D01*
X54684818Y-48020004D01*
X54684817Y-48020003D01*
X54496300Y-47894040D01*
X54335980Y-47733720D01*
X54210017Y-47545203D01*
X54123252Y-47335734D01*
X54079020Y-47113364D01*
X54079020Y-46886636D01*
X54084101Y-46861094D01*
X54123252Y-46664267D01*
X54210016Y-46454799D01*
X54210017Y-46454797D01*
X54335980Y-46266280D01*
X54496300Y-46105960D01*
X54684817Y-45979997D01*
X54894286Y-45893232D01*
X55005471Y-45871116D01*
X55116655Y-45849000D01*
X55343385Y-45849000D01*
X55454569Y-45871116D01*
X55565754Y-45893232D01*
X55775223Y-45979997D01*
X55963740Y-46105960D01*
X56124060Y-46266280D01*
X56250023Y-46454797D01*
X56250024Y-46454799D01*
X56336788Y-46664267D01*
X56356404Y-46762883D01*
X56363517Y-46786332D01*
X56375068Y-46807943D01*
X56390613Y-46826885D01*
X56409555Y-46842430D01*
X56431166Y-46853981D01*
X56454615Y-46861094D01*
X56479001Y-46863496D01*
X56503387Y-46861094D01*
X56526836Y-46853981D01*
X56548447Y-46842430D01*
X56567389Y-46826885D01*
X56582934Y-46807943D01*
X56594485Y-46786332D01*
X56601598Y-46762883D01*
X56604000Y-46738497D01*
X56604000Y-45722502D01*
X56621378Y-45546064D01*
X56690052Y-45319674D01*
X56801573Y-45111033D01*
X56951656Y-44928156D01*
X57134532Y-44778073D01*
X57343173Y-44666552D01*
X57569563Y-44597878D01*
X57805000Y-44574689D01*
X58040436Y-44597878D01*
X58266826Y-44666552D01*
X58475467Y-44778073D01*
X58658344Y-44928156D01*
X58757311Y-45048747D01*
X58802376Y-45103659D01*
X58819703Y-45120986D01*
X58840077Y-45134599D01*
X58862716Y-45143977D01*
X58886749Y-45148757D01*
X58911253Y-45148757D01*
X58935287Y-45143976D01*
X58957925Y-45134599D01*
X58978300Y-45120985D01*
X58995627Y-45103658D01*
X59009240Y-45083284D01*
X59018618Y-45060645D01*
X59024000Y-45024360D01*
X59024000Y-44771861D01*
X59073996Y-44520513D01*
X59172068Y-44283747D01*
X59314447Y-44070661D01*
X59495661Y-43889447D01*
X59708745Y-43747069D01*
X59708747Y-43747068D01*
X59945513Y-43648996D01*
X60196861Y-43599000D01*
X60453139Y-43599000D01*
X60704487Y-43648996D01*
G37*
G36*
X100391987Y-43648996D02*
G01*
X100628753Y-43747068D01*
X100628755Y-43747069D01*
X100841839Y-43889447D01*
X101023053Y-44070661D01*
X101165432Y-44283747D01*
X101263504Y-44520513D01*
X101313500Y-44771861D01*
X101313500Y-45024361D01*
X101315902Y-45048747D01*
X101323015Y-45072196D01*
X101334566Y-45093807D01*
X101350111Y-45112749D01*
X101369053Y-45128294D01*
X101390664Y-45139845D01*
X101414113Y-45146958D01*
X101438499Y-45149360D01*
X101462885Y-45146958D01*
X101486334Y-45139845D01*
X101507945Y-45128294D01*
X101535121Y-45103664D01*
X101679156Y-44928156D01*
X101862032Y-44778073D01*
X102070673Y-44666552D01*
X102297063Y-44597878D01*
X102532500Y-44574689D01*
X102767936Y-44597878D01*
X102994326Y-44666552D01*
X103202967Y-44778073D01*
X103385844Y-44928156D01*
X103535927Y-45111032D01*
X103647448Y-45319673D01*
X103716122Y-45546063D01*
X103733500Y-45722501D01*
X103733500Y-46451658D01*
X103735902Y-46476044D01*
X103743015Y-46499493D01*
X103754566Y-46521104D01*
X103770111Y-46540046D01*
X103789053Y-46555591D01*
X103810664Y-46567142D01*
X103834113Y-46574255D01*
X103858499Y-46576657D01*
X103882885Y-46574255D01*
X103906334Y-46567142D01*
X103927945Y-46555591D01*
X103946887Y-46540046D01*
X103962432Y-46521104D01*
X103973983Y-46499493D01*
X103992496Y-46454799D01*
X103992497Y-46454797D01*
X104118460Y-46266280D01*
X104278780Y-46105960D01*
X104467297Y-45979997D01*
X104676766Y-45893232D01*
X104787951Y-45871116D01*
X104899135Y-45849000D01*
X105125865Y-45849000D01*
X105237049Y-45871116D01*
X105348234Y-45893232D01*
X105557703Y-45979997D01*
X105746220Y-46105960D01*
X105906540Y-46266280D01*
X106032503Y-46454797D01*
X106032504Y-46454799D01*
X106119268Y-46664267D01*
X106158420Y-46861094D01*
X106163500Y-46886636D01*
X106163500Y-47113364D01*
X106119268Y-47335734D01*
X106032503Y-47545203D01*
X105906540Y-47733720D01*
X105746220Y-47894040D01*
X105557703Y-48020003D01*
X105557702Y-48020004D01*
X105557701Y-48020004D01*
X105499467Y-48044125D01*
X105348234Y-48106768D01*
X105263252Y-48123672D01*
X105117113Y-48152741D01*
X105093664Y-48159854D01*
X105072053Y-48171405D01*
X105053111Y-48186950D01*
X105037566Y-48205892D01*
X105026015Y-48227503D01*
X105018902Y-48250952D01*
X105016500Y-48275338D01*
X105016500Y-48377600D01*
X104970616Y-48608276D01*
X104909799Y-48755100D01*
X104880609Y-48825571D01*
X104749940Y-49021130D01*
X104583630Y-49187440D01*
X104388071Y-49318109D01*
X104388070Y-49318110D01*
X104388069Y-49318110D01*
X104170776Y-49408116D01*
X103940100Y-49454000D01*
X103704900Y-49454000D01*
X103474224Y-49408116D01*
X103256931Y-49318110D01*
X103256930Y-49318110D01*
X103256929Y-49318109D01*
X103061370Y-49187440D01*
X102895060Y-49021130D01*
X102764391Y-48825571D01*
X102735201Y-48755100D01*
X102674384Y-48608276D01*
X102628500Y-48377600D01*
X102628500Y-48148058D01*
X102626098Y-48123672D01*
X102618985Y-48100223D01*
X102607434Y-48078612D01*
X102591889Y-48059670D01*
X102572947Y-48044125D01*
X102551336Y-48032574D01*
X102515756Y-48023662D01*
X102297064Y-48002122D01*
X102070674Y-47933448D01*
X101862033Y-47821927D01*
X101679157Y-47671844D01*
X101529074Y-47488968D01*
X101417552Y-47280327D01*
X101348878Y-47053937D01*
X101331500Y-46877499D01*
X101331500Y-45722502D01*
X101335124Y-45685708D01*
X101335124Y-45661204D01*
X101330343Y-45637170D01*
X101320966Y-45614532D01*
X101307352Y-45594157D01*
X101290024Y-45576831D01*
X101269650Y-45563217D01*
X101247011Y-45553840D01*
X101222978Y-45549060D01*
X101198474Y-45549060D01*
X101174440Y-45553841D01*
X101151802Y-45563218D01*
X101131427Y-45576832D01*
X101106794Y-45604012D01*
X101023055Y-45729337D01*
X100841839Y-45910553D01*
X100628755Y-46052931D01*
X100628754Y-46052932D01*
X100628753Y-46052932D01*
X100391987Y-46151004D01*
X100140639Y-46201000D01*
X99884361Y-46201000D01*
X99633013Y-46151004D01*
X99396247Y-46052932D01*
X99396246Y-46052932D01*
X99396245Y-46052931D01*
X99183161Y-45910553D01*
X99001945Y-45729337D01*
X98918206Y-45604012D01*
X98902661Y-45585070D01*
X98883719Y-45569524D01*
X98862108Y-45557973D01*
X98838659Y-45550860D01*
X98814273Y-45548458D01*
X98789887Y-45550860D01*
X98766438Y-45557973D01*
X98744828Y-45569524D01*
X98725886Y-45585069D01*
X98710340Y-45604011D01*
X98698789Y-45625622D01*
X98691676Y-45649071D01*
X98689876Y-45685707D01*
X98693500Y-45722501D01*
X98693500Y-46877499D01*
X98676122Y-47053937D01*
X98607448Y-47280327D01*
X98495927Y-47488968D01*
X98345844Y-47671844D01*
X98162968Y-47821927D01*
X97954327Y-47933448D01*
X97727937Y-48002122D01*
X97509242Y-48023662D01*
X97485214Y-48028441D01*
X97462575Y-48037819D01*
X97442200Y-48051433D01*
X97424873Y-48068760D01*
X97411260Y-48089134D01*
X97401882Y-48111773D01*
X97396500Y-48148058D01*
X97396500Y-48377600D01*
X97350616Y-48608276D01*
X97289799Y-48755100D01*
X97260609Y-48825571D01*
X97129940Y-49021130D01*
X96963630Y-49187440D01*
X96768071Y-49318109D01*
X96768070Y-49318110D01*
X96768069Y-49318110D01*
X96550776Y-49408116D01*
X96320100Y-49454000D01*
X96084900Y-49454000D01*
X95854224Y-49408116D01*
X95636931Y-49318110D01*
X95636930Y-49318110D01*
X95636929Y-49318109D01*
X95441370Y-49187440D01*
X95275060Y-49021130D01*
X95144391Y-48825571D01*
X95115201Y-48755100D01*
X95054384Y-48608276D01*
X95008500Y-48377600D01*
X95008500Y-48275999D01*
X95006098Y-48251613D01*
X94998985Y-48228164D01*
X94987434Y-48206553D01*
X94971889Y-48187611D01*
X94952947Y-48172066D01*
X94931336Y-48160515D01*
X94907887Y-48153402D01*
X94883501Y-48151000D01*
X94804155Y-48151000D01*
X94692971Y-48128884D01*
X94581786Y-48106768D01*
X94430553Y-48044125D01*
X94372319Y-48020004D01*
X94372318Y-48020004D01*
X94372317Y-48020003D01*
X94183800Y-47894040D01*
X94023480Y-47733720D01*
X93897517Y-47545203D01*
X93810752Y-47335734D01*
X93766520Y-47113364D01*
X93766520Y-46886636D01*
X93771601Y-46861094D01*
X93810752Y-46664267D01*
X93897516Y-46454799D01*
X93897517Y-46454797D01*
X94023480Y-46266280D01*
X94183800Y-46105960D01*
X94372317Y-45979997D01*
X94581786Y-45893232D01*
X94692971Y-45871116D01*
X94804155Y-45849000D01*
X95030885Y-45849000D01*
X95142069Y-45871116D01*
X95253254Y-45893232D01*
X95462723Y-45979997D01*
X95651240Y-46105960D01*
X95811560Y-46266280D01*
X95937523Y-46454797D01*
X95937524Y-46454799D01*
X96024288Y-46664267D01*
X96043904Y-46762883D01*
X96051017Y-46786332D01*
X96062568Y-46807943D01*
X96078113Y-46826885D01*
X96097055Y-46842430D01*
X96118666Y-46853981D01*
X96142115Y-46861094D01*
X96166501Y-46863496D01*
X96190887Y-46861094D01*
X96214336Y-46853981D01*
X96235947Y-46842430D01*
X96254889Y-46826885D01*
X96270434Y-46807943D01*
X96281985Y-46786332D01*
X96289098Y-46762883D01*
X96291500Y-46738497D01*
X96291500Y-45722502D01*
X96308878Y-45546064D01*
X96377552Y-45319674D01*
X96489073Y-45111033D01*
X96639156Y-44928156D01*
X96822032Y-44778073D01*
X97030673Y-44666552D01*
X97257063Y-44597878D01*
X97492500Y-44574689D01*
X97727936Y-44597878D01*
X97954326Y-44666552D01*
X98162967Y-44778073D01*
X98345844Y-44928156D01*
X98444811Y-45048747D01*
X98489876Y-45103659D01*
X98507203Y-45120986D01*
X98527577Y-45134599D01*
X98550216Y-45143977D01*
X98574249Y-45148757D01*
X98598753Y-45148757D01*
X98622787Y-45143976D01*
X98645425Y-45134599D01*
X98665800Y-45120985D01*
X98683127Y-45103658D01*
X98696740Y-45083284D01*
X98706118Y-45060645D01*
X98711500Y-45024360D01*
X98711500Y-44771861D01*
X98761496Y-44520513D01*
X98859568Y-44283747D01*
X99001947Y-44070661D01*
X99183161Y-43889447D01*
X99396245Y-43747069D01*
X99396247Y-43747068D01*
X99633013Y-43648996D01*
X99884361Y-43599000D01*
X100140639Y-43599000D01*
X100391987Y-43648996D01*
G37*
G36*
X120628231Y-35506705D02*
G01*
X120666967Y-35514410D01*
X120697195Y-35526931D01*
X120739944Y-35544638D01*
X120805622Y-35588523D01*
X120861478Y-35644379D01*
X120871067Y-35658730D01*
X120886613Y-35677672D01*
X120905555Y-35693217D01*
X120927165Y-35704768D01*
X120950614Y-35711881D01*
X120975001Y-35714283D01*
X120999387Y-35711881D01*
X121022836Y-35704768D01*
X121044446Y-35693217D01*
X121063388Y-35677671D01*
X121078933Y-35658730D01*
X121088522Y-35644379D01*
X121144378Y-35588523D01*
X121210056Y-35544638D01*
X121252805Y-35526931D01*
X121283033Y-35514410D01*
X121321769Y-35506705D01*
X121360504Y-35499000D01*
X121439496Y-35499000D01*
X121478231Y-35506705D01*
X121516967Y-35514410D01*
X121547195Y-35526931D01*
X121589944Y-35544638D01*
X121655622Y-35588523D01*
X121711478Y-35644379D01*
X121721067Y-35658730D01*
X121736613Y-35677672D01*
X121755555Y-35693217D01*
X121777165Y-35704768D01*
X121800614Y-35711881D01*
X121825001Y-35714283D01*
X121849387Y-35711881D01*
X121872836Y-35704768D01*
X121894446Y-35693217D01*
X121913388Y-35677671D01*
X121928933Y-35658730D01*
X121938522Y-35644379D01*
X121994378Y-35588523D01*
X122060056Y-35544638D01*
X122102805Y-35526931D01*
X122133033Y-35514410D01*
X122171769Y-35506705D01*
X122210504Y-35499000D01*
X122289496Y-35499000D01*
X122328231Y-35506705D01*
X122366967Y-35514410D01*
X122397195Y-35526931D01*
X122439944Y-35544638D01*
X122505622Y-35588523D01*
X122561478Y-35644379D01*
X122571067Y-35658730D01*
X122586613Y-35677672D01*
X122605555Y-35693217D01*
X122627165Y-35704768D01*
X122650614Y-35711881D01*
X122675001Y-35714283D01*
X122699387Y-35711881D01*
X122722836Y-35704768D01*
X122744446Y-35693217D01*
X122763388Y-35677671D01*
X122778933Y-35658730D01*
X122788522Y-35644379D01*
X122844378Y-35588523D01*
X122910056Y-35544638D01*
X122952805Y-35526931D01*
X122983033Y-35514410D01*
X123021769Y-35506705D01*
X123060504Y-35499000D01*
X123139496Y-35499000D01*
X123178231Y-35506705D01*
X123216967Y-35514410D01*
X123247195Y-35526931D01*
X123289944Y-35544638D01*
X123355622Y-35588523D01*
X123411478Y-35644379D01*
X123421067Y-35658730D01*
X123436613Y-35677672D01*
X123455555Y-35693217D01*
X123477165Y-35704768D01*
X123500614Y-35711881D01*
X123525001Y-35714283D01*
X123549387Y-35711881D01*
X123572836Y-35704768D01*
X123594446Y-35693217D01*
X123613388Y-35677671D01*
X123628933Y-35658730D01*
X123638522Y-35644379D01*
X123694378Y-35588523D01*
X123760056Y-35544638D01*
X123802805Y-35526931D01*
X123833033Y-35514410D01*
X123871769Y-35506705D01*
X123910504Y-35499000D01*
X123989496Y-35499000D01*
X124028231Y-35506705D01*
X124066967Y-35514410D01*
X124097195Y-35526931D01*
X124139944Y-35544638D01*
X124205622Y-35588523D01*
X124261478Y-35644379D01*
X124271067Y-35658730D01*
X124286613Y-35677672D01*
X124305555Y-35693217D01*
X124327165Y-35704768D01*
X124350614Y-35711881D01*
X124375001Y-35714283D01*
X124399387Y-35711881D01*
X124422836Y-35704768D01*
X124444446Y-35693217D01*
X124463388Y-35677671D01*
X124478933Y-35658730D01*
X124488522Y-35644379D01*
X124544378Y-35588523D01*
X124610056Y-35544638D01*
X124652805Y-35526931D01*
X124683033Y-35514410D01*
X124721769Y-35506705D01*
X124760504Y-35499000D01*
X124839496Y-35499000D01*
X124878231Y-35506705D01*
X124916967Y-35514410D01*
X124947195Y-35526931D01*
X124989944Y-35544638D01*
X125055622Y-35588523D01*
X125111478Y-35644379D01*
X125121067Y-35658730D01*
X125136613Y-35677672D01*
X125155555Y-35693217D01*
X125177165Y-35704768D01*
X125200614Y-35711881D01*
X125225001Y-35714283D01*
X125249387Y-35711881D01*
X125272836Y-35704768D01*
X125294446Y-35693217D01*
X125313388Y-35677671D01*
X125328933Y-35658730D01*
X125338522Y-35644379D01*
X125394378Y-35588523D01*
X125460056Y-35544638D01*
X125502805Y-35526931D01*
X125533033Y-35514410D01*
X125571769Y-35506705D01*
X125610504Y-35499000D01*
X125689496Y-35499000D01*
X125728231Y-35506705D01*
X125766967Y-35514410D01*
X125797195Y-35526931D01*
X125839944Y-35544638D01*
X125905622Y-35588523D01*
X125961478Y-35644379D01*
X125971067Y-35658730D01*
X125986613Y-35677672D01*
X126005555Y-35693217D01*
X126027165Y-35704768D01*
X126050614Y-35711881D01*
X126075001Y-35714283D01*
X126099387Y-35711881D01*
X126122836Y-35704768D01*
X126144446Y-35693217D01*
X126163388Y-35677671D01*
X126178933Y-35658730D01*
X126188522Y-35644379D01*
X126244378Y-35588523D01*
X126310056Y-35544638D01*
X126352805Y-35526931D01*
X126383033Y-35514410D01*
X126421769Y-35506705D01*
X126460504Y-35499000D01*
X126539496Y-35499000D01*
X126578231Y-35506705D01*
X126616967Y-35514410D01*
X126647195Y-35526931D01*
X126689944Y-35544638D01*
X126755622Y-35588523D01*
X126811477Y-35644378D01*
X126855362Y-35710056D01*
X126873069Y-35752805D01*
X126885590Y-35783033D01*
X126901000Y-35860505D01*
X126901000Y-35939495D01*
X126885590Y-36016967D01*
X126873069Y-36047195D01*
X126855362Y-36089944D01*
X126811477Y-36155622D01*
X126755622Y-36211477D01*
X126689944Y-36255362D01*
X126647195Y-36273069D01*
X126616967Y-36285590D01*
X126578231Y-36293295D01*
X126539496Y-36301000D01*
X126460504Y-36301000D01*
X126421769Y-36293295D01*
X126383033Y-36285590D01*
X126352805Y-36273069D01*
X126310056Y-36255362D01*
X126244378Y-36211477D01*
X126188522Y-36155621D01*
X126178933Y-36141270D01*
X126163387Y-36122328D01*
X126144445Y-36106783D01*
X126122835Y-36095232D01*
X126099386Y-36088119D01*
X126074999Y-36085717D01*
X126050613Y-36088119D01*
X126027164Y-36095232D01*
X126005554Y-36106783D01*
X125986612Y-36122329D01*
X125971067Y-36141270D01*
X125961478Y-36155621D01*
X125905622Y-36211477D01*
X125839944Y-36255362D01*
X125797195Y-36273069D01*
X125766967Y-36285590D01*
X125728231Y-36293295D01*
X125689496Y-36301000D01*
X125610504Y-36301000D01*
X125571769Y-36293295D01*
X125533033Y-36285590D01*
X125502805Y-36273069D01*
X125460056Y-36255362D01*
X125394378Y-36211477D01*
X125338522Y-36155621D01*
X125328933Y-36141270D01*
X125313387Y-36122328D01*
X125294445Y-36106783D01*
X125272835Y-36095232D01*
X125249386Y-36088119D01*
X125224999Y-36085717D01*
X125200613Y-36088119D01*
X125177164Y-36095232D01*
X125155554Y-36106783D01*
X125136612Y-36122329D01*
X125121067Y-36141270D01*
X125111478Y-36155621D01*
X125055622Y-36211477D01*
X124989944Y-36255362D01*
X124947195Y-36273069D01*
X124916967Y-36285590D01*
X124878231Y-36293295D01*
X124839496Y-36301000D01*
X124760504Y-36301000D01*
X124721769Y-36293295D01*
X124683033Y-36285590D01*
X124652805Y-36273069D01*
X124610056Y-36255362D01*
X124544378Y-36211477D01*
X124488522Y-36155621D01*
X124478933Y-36141270D01*
X124463387Y-36122328D01*
X124444445Y-36106783D01*
X124422835Y-36095232D01*
X124399386Y-36088119D01*
X124374999Y-36085717D01*
X124350613Y-36088119D01*
X124327164Y-36095232D01*
X124305554Y-36106783D01*
X124286612Y-36122329D01*
X124271067Y-36141270D01*
X124261478Y-36155621D01*
X124205622Y-36211477D01*
X124139944Y-36255362D01*
X124097195Y-36273069D01*
X124066967Y-36285590D01*
X124028231Y-36293295D01*
X123989496Y-36301000D01*
X123910504Y-36301000D01*
X123871769Y-36293295D01*
X123833033Y-36285590D01*
X123802805Y-36273069D01*
X123760056Y-36255362D01*
X123694378Y-36211477D01*
X123638522Y-36155621D01*
X123628933Y-36141270D01*
X123613387Y-36122328D01*
X123594445Y-36106783D01*
X123572835Y-36095232D01*
X123549386Y-36088119D01*
X123524999Y-36085717D01*
X123500613Y-36088119D01*
X123477164Y-36095232D01*
X123455554Y-36106783D01*
X123436612Y-36122329D01*
X123421067Y-36141270D01*
X123411478Y-36155621D01*
X123355622Y-36211477D01*
X123289944Y-36255362D01*
X123247195Y-36273069D01*
X123216967Y-36285590D01*
X123178231Y-36293295D01*
X123139496Y-36301000D01*
X123060504Y-36301000D01*
X123021769Y-36293295D01*
X122983033Y-36285590D01*
X122952805Y-36273069D01*
X122910056Y-36255362D01*
X122844378Y-36211477D01*
X122788522Y-36155621D01*
X122778933Y-36141270D01*
X122763387Y-36122328D01*
X122744445Y-36106783D01*
X122722835Y-36095232D01*
X122699386Y-36088119D01*
X122674999Y-36085717D01*
X122650613Y-36088119D01*
X122627164Y-36095232D01*
X122605554Y-36106783D01*
X122586612Y-36122329D01*
X122571067Y-36141270D01*
X122561478Y-36155621D01*
X122505622Y-36211477D01*
X122439944Y-36255362D01*
X122397195Y-36273069D01*
X122366967Y-36285590D01*
X122328231Y-36293295D01*
X122289496Y-36301000D01*
X122210504Y-36301000D01*
X122171769Y-36293295D01*
X122133033Y-36285590D01*
X122102805Y-36273069D01*
X122060056Y-36255362D01*
X121994378Y-36211477D01*
X121938522Y-36155621D01*
X121928933Y-36141270D01*
X121913387Y-36122328D01*
X121894445Y-36106783D01*
X121872835Y-36095232D01*
X121849386Y-36088119D01*
X121824999Y-36085717D01*
X121800613Y-36088119D01*
X121777164Y-36095232D01*
X121755554Y-36106783D01*
X121736612Y-36122329D01*
X121721067Y-36141270D01*
X121711478Y-36155621D01*
X121655622Y-36211477D01*
X121589944Y-36255362D01*
X121547195Y-36273069D01*
X121516967Y-36285590D01*
X121478231Y-36293295D01*
X121439496Y-36301000D01*
X121360504Y-36301000D01*
X121321769Y-36293295D01*
X121283033Y-36285590D01*
X121252805Y-36273069D01*
X121210056Y-36255362D01*
X121144378Y-36211477D01*
X121088522Y-36155621D01*
X121078933Y-36141270D01*
X121063387Y-36122328D01*
X121044445Y-36106783D01*
X121022835Y-36095232D01*
X120999386Y-36088119D01*
X120974999Y-36085717D01*
X120950613Y-36088119D01*
X120927164Y-36095232D01*
X120905554Y-36106783D01*
X120886612Y-36122329D01*
X120871067Y-36141270D01*
X120861478Y-36155621D01*
X120805622Y-36211477D01*
X120739944Y-36255362D01*
X120697195Y-36273069D01*
X120666967Y-36285590D01*
X120628231Y-36293295D01*
X120589496Y-36301000D01*
X120510504Y-36301000D01*
X120471769Y-36293295D01*
X120433033Y-36285590D01*
X120402805Y-36273069D01*
X120360056Y-36255362D01*
X120294378Y-36211477D01*
X120238523Y-36155622D01*
X120194638Y-36089944D01*
X120176931Y-36047195D01*
X120164410Y-36016967D01*
X120149000Y-35939495D01*
X120149000Y-35860505D01*
X120164410Y-35783033D01*
X120176931Y-35752805D01*
X120194638Y-35710056D01*
X120238523Y-35644378D01*
X120294378Y-35588523D01*
X120360056Y-35544638D01*
X120402805Y-35526931D01*
X120433033Y-35514410D01*
X120471769Y-35506705D01*
X120510504Y-35499000D01*
X120589496Y-35499000D01*
X120628231Y-35506705D01*
G37*
G36*
X119298213Y-33676249D02*
G01*
X119392652Y-33704897D01*
X119479687Y-33751418D01*
X119555975Y-33814025D01*
X119618582Y-33890313D01*
X119665103Y-33977348D01*
X119693751Y-34071787D01*
X119701000Y-34145388D01*
X119701000Y-35694612D01*
X119693751Y-35768213D01*
X119665103Y-35862652D01*
X119618582Y-35949687D01*
X119555975Y-36025975D01*
X119479687Y-36088582D01*
X119392651Y-36135103D01*
X119298212Y-36163751D01*
X119200000Y-36173424D01*
X119101787Y-36163751D01*
X119007348Y-36135103D01*
X118920313Y-36088582D01*
X118844025Y-36025975D01*
X118781418Y-35949687D01*
X118734897Y-35862651D01*
X118706249Y-35768212D01*
X118699000Y-35694611D01*
X118699001Y-34145388D01*
X118706250Y-34071787D01*
X118734898Y-33977348D01*
X118781419Y-33890313D01*
X118844026Y-33814025D01*
X118920314Y-33751418D01*
X119007349Y-33704897D01*
X119101788Y-33676249D01*
X119200000Y-33666576D01*
X119298213Y-33676249D01*
G37*
G36*
X127948213Y-33676249D02*
G01*
X128042652Y-33704897D01*
X128129687Y-33751418D01*
X128205975Y-33814025D01*
X128268582Y-33890313D01*
X128315103Y-33977348D01*
X128343751Y-34071787D01*
X128351000Y-34145388D01*
X128351000Y-35694612D01*
X128343751Y-35768213D01*
X128315103Y-35862652D01*
X128268582Y-35949687D01*
X128205975Y-36025975D01*
X128129687Y-36088582D01*
X128042651Y-36135103D01*
X127948212Y-36163751D01*
X127850000Y-36173424D01*
X127751787Y-36163751D01*
X127657348Y-36135103D01*
X127570313Y-36088582D01*
X127494025Y-36025975D01*
X127431418Y-35949687D01*
X127384897Y-35862651D01*
X127356249Y-35768212D01*
X127349000Y-35694611D01*
X127349001Y-34145388D01*
X127356250Y-34071787D01*
X127384898Y-33977348D01*
X127431419Y-33890313D01*
X127494026Y-33814025D01*
X127570314Y-33751418D01*
X127657349Y-33704897D01*
X127751788Y-33676249D01*
X127850000Y-33666576D01*
X127948213Y-33676249D01*
G37*
G36*
X120628231Y-34156705D02*
G01*
X120666967Y-34164410D01*
X120697195Y-34176931D01*
X120739944Y-34194638D01*
X120805622Y-34238523D01*
X120861478Y-34294379D01*
X120871067Y-34308730D01*
X120886613Y-34327672D01*
X120905555Y-34343217D01*
X120927165Y-34354768D01*
X120950614Y-34361881D01*
X120975001Y-34364283D01*
X120999387Y-34361881D01*
X121022836Y-34354768D01*
X121044446Y-34343217D01*
X121063388Y-34327671D01*
X121078933Y-34308730D01*
X121088522Y-34294379D01*
X121144378Y-34238523D01*
X121210056Y-34194638D01*
X121252805Y-34176931D01*
X121283033Y-34164410D01*
X121321769Y-34156705D01*
X121360504Y-34149000D01*
X121439496Y-34149000D01*
X121478231Y-34156705D01*
X121516967Y-34164410D01*
X121547195Y-34176931D01*
X121589944Y-34194638D01*
X121655622Y-34238523D01*
X121711478Y-34294379D01*
X121721067Y-34308730D01*
X121736613Y-34327672D01*
X121755555Y-34343217D01*
X121777165Y-34354768D01*
X121800614Y-34361881D01*
X121825001Y-34364283D01*
X121849387Y-34361881D01*
X121872836Y-34354768D01*
X121894446Y-34343217D01*
X121913388Y-34327671D01*
X121928933Y-34308730D01*
X121938522Y-34294379D01*
X121994378Y-34238523D01*
X122060056Y-34194638D01*
X122102805Y-34176931D01*
X122133033Y-34164410D01*
X122171769Y-34156705D01*
X122210504Y-34149000D01*
X122289496Y-34149000D01*
X122328231Y-34156705D01*
X122366967Y-34164410D01*
X122397195Y-34176931D01*
X122439944Y-34194638D01*
X122505622Y-34238523D01*
X122561478Y-34294379D01*
X122571067Y-34308730D01*
X122586613Y-34327672D01*
X122605555Y-34343217D01*
X122627165Y-34354768D01*
X122650614Y-34361881D01*
X122675001Y-34364283D01*
X122699387Y-34361881D01*
X122722836Y-34354768D01*
X122744446Y-34343217D01*
X122763388Y-34327671D01*
X122778933Y-34308730D01*
X122788522Y-34294379D01*
X122844378Y-34238523D01*
X122910056Y-34194638D01*
X122952805Y-34176931D01*
X122983033Y-34164410D01*
X123021769Y-34156705D01*
X123060504Y-34149000D01*
X123139496Y-34149000D01*
X123178231Y-34156705D01*
X123216967Y-34164410D01*
X123247195Y-34176931D01*
X123289944Y-34194638D01*
X123355622Y-34238523D01*
X123411478Y-34294379D01*
X123421067Y-34308730D01*
X123436613Y-34327672D01*
X123455555Y-34343217D01*
X123477165Y-34354768D01*
X123500614Y-34361881D01*
X123525001Y-34364283D01*
X123549387Y-34361881D01*
X123572836Y-34354768D01*
X123594446Y-34343217D01*
X123613388Y-34327671D01*
X123628933Y-34308730D01*
X123638522Y-34294379D01*
X123694378Y-34238523D01*
X123760056Y-34194638D01*
X123802805Y-34176931D01*
X123833033Y-34164410D01*
X123871769Y-34156705D01*
X123910504Y-34149000D01*
X123989496Y-34149000D01*
X124028231Y-34156705D01*
X124066967Y-34164410D01*
X124097195Y-34176931D01*
X124139944Y-34194638D01*
X124205622Y-34238523D01*
X124261478Y-34294379D01*
X124271067Y-34308730D01*
X124286613Y-34327672D01*
X124305555Y-34343217D01*
X124327165Y-34354768D01*
X124350614Y-34361881D01*
X124375001Y-34364283D01*
X124399387Y-34361881D01*
X124422836Y-34354768D01*
X124444446Y-34343217D01*
X124463388Y-34327671D01*
X124478933Y-34308730D01*
X124488522Y-34294379D01*
X124544378Y-34238523D01*
X124610056Y-34194638D01*
X124652805Y-34176931D01*
X124683033Y-34164410D01*
X124721769Y-34156705D01*
X124760504Y-34149000D01*
X124839496Y-34149000D01*
X124878231Y-34156705D01*
X124916967Y-34164410D01*
X124947195Y-34176931D01*
X124989944Y-34194638D01*
X125055622Y-34238523D01*
X125111478Y-34294379D01*
X125121067Y-34308730D01*
X125136613Y-34327672D01*
X125155555Y-34343217D01*
X125177165Y-34354768D01*
X125200614Y-34361881D01*
X125225001Y-34364283D01*
X125249387Y-34361881D01*
X125272836Y-34354768D01*
X125294446Y-34343217D01*
X125313388Y-34327671D01*
X125328933Y-34308730D01*
X125338522Y-34294379D01*
X125394378Y-34238523D01*
X125460056Y-34194638D01*
X125502805Y-34176931D01*
X125533033Y-34164410D01*
X125571769Y-34156705D01*
X125610504Y-34149000D01*
X125689496Y-34149000D01*
X125728231Y-34156705D01*
X125766967Y-34164410D01*
X125797195Y-34176931D01*
X125839944Y-34194638D01*
X125905622Y-34238523D01*
X125961478Y-34294379D01*
X125971067Y-34308730D01*
X125986613Y-34327672D01*
X126005555Y-34343217D01*
X126027165Y-34354768D01*
X126050614Y-34361881D01*
X126075001Y-34364283D01*
X126099387Y-34361881D01*
X126122836Y-34354768D01*
X126144446Y-34343217D01*
X126163388Y-34327671D01*
X126178933Y-34308730D01*
X126188522Y-34294379D01*
X126244378Y-34238523D01*
X126310056Y-34194638D01*
X126352805Y-34176931D01*
X126383033Y-34164410D01*
X126421769Y-34156705D01*
X126460504Y-34149000D01*
X126539496Y-34149000D01*
X126578231Y-34156705D01*
X126616967Y-34164410D01*
X126647195Y-34176931D01*
X126689944Y-34194638D01*
X126755622Y-34238523D01*
X126811477Y-34294378D01*
X126855362Y-34360056D01*
X126885590Y-34433034D01*
X126901000Y-34510504D01*
X126901000Y-34589496D01*
X126885590Y-34666966D01*
X126855362Y-34739944D01*
X126811477Y-34805622D01*
X126755622Y-34861477D01*
X126689944Y-34905362D01*
X126647195Y-34923069D01*
X126616967Y-34935590D01*
X126578231Y-34943295D01*
X126539496Y-34951000D01*
X126460504Y-34951000D01*
X126421769Y-34943295D01*
X126383033Y-34935590D01*
X126352805Y-34923069D01*
X126310056Y-34905362D01*
X126244378Y-34861477D01*
X126188522Y-34805621D01*
X126178933Y-34791270D01*
X126163387Y-34772328D01*
X126144445Y-34756783D01*
X126122835Y-34745232D01*
X126099386Y-34738119D01*
X126074999Y-34735717D01*
X126050613Y-34738119D01*
X126027164Y-34745232D01*
X126005554Y-34756783D01*
X125986612Y-34772329D01*
X125971067Y-34791270D01*
X125961478Y-34805621D01*
X125905622Y-34861477D01*
X125839944Y-34905362D01*
X125797195Y-34923069D01*
X125766967Y-34935590D01*
X125728231Y-34943295D01*
X125689496Y-34951000D01*
X125610504Y-34951000D01*
X125571769Y-34943295D01*
X125533033Y-34935590D01*
X125502805Y-34923069D01*
X125460056Y-34905362D01*
X125394378Y-34861477D01*
X125338522Y-34805621D01*
X125328933Y-34791270D01*
X125313387Y-34772328D01*
X125294445Y-34756783D01*
X125272835Y-34745232D01*
X125249386Y-34738119D01*
X125224999Y-34735717D01*
X125200613Y-34738119D01*
X125177164Y-34745232D01*
X125155554Y-34756783D01*
X125136612Y-34772329D01*
X125121067Y-34791270D01*
X125111478Y-34805621D01*
X125055622Y-34861477D01*
X124989944Y-34905362D01*
X124947195Y-34923069D01*
X124916967Y-34935590D01*
X124878231Y-34943295D01*
X124839496Y-34951000D01*
X124760504Y-34951000D01*
X124721769Y-34943295D01*
X124683033Y-34935590D01*
X124652805Y-34923069D01*
X124610056Y-34905362D01*
X124544378Y-34861477D01*
X124488522Y-34805621D01*
X124478933Y-34791270D01*
X124463387Y-34772328D01*
X124444445Y-34756783D01*
X124422835Y-34745232D01*
X124399386Y-34738119D01*
X124374999Y-34735717D01*
X124350613Y-34738119D01*
X124327164Y-34745232D01*
X124305554Y-34756783D01*
X124286612Y-34772329D01*
X124271067Y-34791270D01*
X124261478Y-34805621D01*
X124205622Y-34861477D01*
X124139944Y-34905362D01*
X124097195Y-34923069D01*
X124066967Y-34935590D01*
X124028231Y-34943295D01*
X123989496Y-34951000D01*
X123910504Y-34951000D01*
X123871769Y-34943295D01*
X123833033Y-34935590D01*
X123802805Y-34923069D01*
X123760056Y-34905362D01*
X123694378Y-34861477D01*
X123638522Y-34805621D01*
X123628933Y-34791270D01*
X123613387Y-34772328D01*
X123594445Y-34756783D01*
X123572835Y-34745232D01*
X123549386Y-34738119D01*
X123524999Y-34735717D01*
X123500613Y-34738119D01*
X123477164Y-34745232D01*
X123455554Y-34756783D01*
X123436612Y-34772329D01*
X123421067Y-34791270D01*
X123411478Y-34805621D01*
X123355622Y-34861477D01*
X123289944Y-34905362D01*
X123247195Y-34923069D01*
X123216967Y-34935590D01*
X123178231Y-34943295D01*
X123139496Y-34951000D01*
X123060504Y-34951000D01*
X123021769Y-34943295D01*
X122983033Y-34935590D01*
X122952805Y-34923069D01*
X122910056Y-34905362D01*
X122844378Y-34861477D01*
X122788522Y-34805621D01*
X122778933Y-34791270D01*
X122763387Y-34772328D01*
X122744445Y-34756783D01*
X122722835Y-34745232D01*
X122699386Y-34738119D01*
X122674999Y-34735717D01*
X122650613Y-34738119D01*
X122627164Y-34745232D01*
X122605554Y-34756783D01*
X122586612Y-34772329D01*
X122571067Y-34791270D01*
X122561478Y-34805621D01*
X122505622Y-34861477D01*
X122439944Y-34905362D01*
X122397195Y-34923069D01*
X122366967Y-34935590D01*
X122328231Y-34943295D01*
X122289496Y-34951000D01*
X122210504Y-34951000D01*
X122171769Y-34943295D01*
X122133033Y-34935590D01*
X122102805Y-34923069D01*
X122060056Y-34905362D01*
X121994378Y-34861477D01*
X121938522Y-34805621D01*
X121928933Y-34791270D01*
X121913387Y-34772328D01*
X121894445Y-34756783D01*
X121872835Y-34745232D01*
X121849386Y-34738119D01*
X121824999Y-34735717D01*
X121800613Y-34738119D01*
X121777164Y-34745232D01*
X121755554Y-34756783D01*
X121736612Y-34772329D01*
X121721067Y-34791270D01*
X121711478Y-34805621D01*
X121655622Y-34861477D01*
X121589944Y-34905362D01*
X121547195Y-34923069D01*
X121516967Y-34935590D01*
X121478231Y-34943295D01*
X121439496Y-34951000D01*
X121360504Y-34951000D01*
X121321769Y-34943295D01*
X121283033Y-34935590D01*
X121252805Y-34923069D01*
X121210056Y-34905362D01*
X121144378Y-34861477D01*
X121088522Y-34805621D01*
X121078933Y-34791270D01*
X121063387Y-34772328D01*
X121044445Y-34756783D01*
X121022835Y-34745232D01*
X120999386Y-34738119D01*
X120974999Y-34735717D01*
X120950613Y-34738119D01*
X120927164Y-34745232D01*
X120905554Y-34756783D01*
X120886612Y-34772329D01*
X120871067Y-34791270D01*
X120861478Y-34805621D01*
X120805622Y-34861477D01*
X120739944Y-34905362D01*
X120697195Y-34923069D01*
X120666967Y-34935590D01*
X120628231Y-34943295D01*
X120589496Y-34951000D01*
X120510504Y-34951000D01*
X120471769Y-34943295D01*
X120433033Y-34935590D01*
X120402805Y-34923069D01*
X120360056Y-34905362D01*
X120294378Y-34861477D01*
X120238523Y-34805622D01*
X120194638Y-34739944D01*
X120164410Y-34666966D01*
X120149000Y-34589496D01*
X120149000Y-34510504D01*
X120164410Y-34433034D01*
X120194638Y-34360056D01*
X120238523Y-34294378D01*
X120294378Y-34238523D01*
X120360056Y-34194638D01*
X120402805Y-34176931D01*
X120433033Y-34164410D01*
X120471769Y-34156705D01*
X120510504Y-34149000D01*
X120589496Y-34149000D01*
X120628231Y-34156705D01*
G37*
G36*
X127948213Y-30646249D02*
G01*
X128042652Y-30674897D01*
X128129687Y-30721418D01*
X128205975Y-30784025D01*
X128268582Y-30860313D01*
X128315103Y-30947348D01*
X128343751Y-31041787D01*
X128351000Y-31115388D01*
X128351000Y-31964612D01*
X128343751Y-32038213D01*
X128315103Y-32132652D01*
X128268582Y-32219687D01*
X128205975Y-32295975D01*
X128129687Y-32358582D01*
X128042651Y-32405103D01*
X127948212Y-32433751D01*
X127850000Y-32443424D01*
X127751787Y-32433751D01*
X127657348Y-32405103D01*
X127570313Y-32358582D01*
X127494025Y-32295975D01*
X127431418Y-32219687D01*
X127384897Y-32132651D01*
X127356249Y-32038212D01*
X127349000Y-31964611D01*
X127349000Y-31115398D01*
X127356250Y-31041786D01*
X127366846Y-31006856D01*
X127384898Y-30947348D01*
X127431419Y-30860313D01*
X127494026Y-30784025D01*
X127570314Y-30721418D01*
X127657349Y-30674897D01*
X127751788Y-30646249D01*
X127850000Y-30636576D01*
X127948213Y-30646249D01*
G37*
G36*
X119298213Y-30646249D02*
G01*
X119392652Y-30674897D01*
X119479687Y-30721418D01*
X119555975Y-30784025D01*
X119618582Y-30860313D01*
X119665103Y-30947348D01*
X119693751Y-31041787D01*
X119701000Y-31115388D01*
X119701000Y-31964612D01*
X119693751Y-32038213D01*
X119665103Y-32132652D01*
X119618582Y-32219687D01*
X119555975Y-32295975D01*
X119479687Y-32358582D01*
X119392651Y-32405103D01*
X119298212Y-32433751D01*
X119200000Y-32443424D01*
X119101787Y-32433751D01*
X119007348Y-32405103D01*
X118920313Y-32358582D01*
X118844025Y-32295975D01*
X118781418Y-32219687D01*
X118734897Y-32132651D01*
X118706249Y-32038212D01*
X118699000Y-31964611D01*
X118699000Y-31115398D01*
X118706250Y-31041786D01*
X118716846Y-31006856D01*
X118734898Y-30947348D01*
X118781419Y-30860313D01*
X118844026Y-30784025D01*
X118920314Y-30721418D01*
X119007349Y-30674897D01*
X119101788Y-30646249D01*
X119200000Y-30636576D01*
X119298213Y-30646249D01*
G37*
M02*
